<?xml version="1.0" encoding="UTF-8" standalone="no"?>
<!DOCTYPE svg PUBLIC "-//W3C//DTD SVG 1.1//EN"
 "http://www.w3.org/Graphics/SVG/1.1/DTD/svg11.dtd">
<!-- Generated by graphviz version 2.43.0 (0)
 -->
<!-- Title: bytecode&#45;jump&#45;table.h Pages: 1 -->
<svg width="543pt" height="140pt"
 viewBox="0.00 0.00 543.00 140.00" xmlns="http://www.w3.org/2000/svg" xmlns:xlink="http://www.w3.org/1999/xlink">
<g id="graph0" class="graph" transform="scale(1 1) rotate(0) translate(4 136)">
<title>bytecode&#45;jump&#45;table.h</title>
<polygon fill="white" stroke="transparent" points="-4,4 -4,-136 539,-136 539,4 -4,4"/>
<!-- Node1 -->
<g id="node1" class="node">
<title>Node1</title>
<g id="a_node1"><a xlink:title=" ">
<polygon fill="#bfbfbf" stroke="black" points="211.5,-112.5 211.5,-131.5 339.5,-131.5 339.5,-112.5 211.5,-112.5"/>
<text text-anchor="middle" x="275.5" y="-119.5" font-family="Helvetica,sans-Serif" font-size="10.00">bytecode&#45;jump&#45;table.h</text>
</a>
</g>
</g>
<!-- Node2 -->
<g id="node2" class="node">
<title>Node2</title>
<g id="a_node2"><a xlink:href="bytecode-array-builder_8cc.html" target="_top" xlink:title=" ">
<polygon fill="white" stroke="black" points="0,-56.5 0,-75.5 141,-75.5 141,-56.5 0,-56.5"/>
<text text-anchor="middle" x="70.5" y="-63.5" font-family="Helvetica,sans-Serif" font-size="10.00">bytecode&#45;array&#45;builder.cc</text>
</a>
</g>
</g>
<!-- Node1&#45;&gt;Node2 -->
<g id="edge1" class="edge">
<title>Node1&#45;&gt;Node2</title>
<path fill="none" stroke="midnightblue" d="M233.09,-109.83C194.39,-99.63 138.01,-84.78 102.83,-75.52"/>
<polygon fill="midnightblue" stroke="midnightblue" points="232.46,-113.28 243.02,-112.44 234.24,-106.51 232.46,-113.28"/>
</g>
<!-- Node3 -->
<g id="node3" class="node">
<title>Node3</title>
<g id="a_node3"><a xlink:href="bytecode-array-writer_8cc.html" target="_top" xlink:title=" ">
<polygon fill="white" stroke="black" points="159.5,-56.5 159.5,-75.5 295.5,-75.5 295.5,-56.5 159.5,-56.5"/>
<text text-anchor="middle" x="227.5" y="-63.5" font-family="Helvetica,sans-Serif" font-size="10.00">bytecode&#45;array&#45;writer.cc</text>
</a>
</g>
</g>
<!-- Node1&#45;&gt;Node3 -->
<g id="edge2" class="edge">
<title>Node1&#45;&gt;Node3</title>
<path fill="none" stroke="midnightblue" d="M260.77,-104.43C252.36,-94.97 242.15,-83.48 235.28,-75.75"/>
<polygon fill="midnightblue" stroke="midnightblue" points="258.31,-106.93 267.57,-112.08 263.55,-102.28 258.31,-106.93"/>
</g>
<!-- Node4 -->
<g id="node4" class="node">
<title>Node4</title>
<g id="a_node4"><a xlink:href="bytecode-generator_8cc.html" target="_top" xlink:title=" ">
<polygon fill="white" stroke="black" points="261,-0.5 261,-19.5 386,-19.5 386,-0.5 261,-0.5"/>
<text text-anchor="middle" x="323.5" y="-7.5" font-family="Helvetica,sans-Serif" font-size="10.00">bytecode&#45;generator.cc</text>
</a>
</g>
</g>
<!-- Node1&#45;&gt;Node4 -->
<g id="edge3" class="edge">
<title>Node1&#45;&gt;Node4</title>
<path fill="none" stroke="midnightblue" d="M287.98,-104.2C293.62,-96.01 300.01,-85.83 304.5,-76 313.29,-56.75 319.11,-32.44 321.8,-19.7"/>
<polygon fill="midnightblue" stroke="midnightblue" points="285.03,-102.3 282.07,-112.47 290.73,-106.37 285.03,-102.3"/>
</g>
<!-- Node5 -->
<g id="node5" class="node">
<title>Node5</title>
<g id="a_node5"><a xlink:href="control-flow-builders_8h.html" target="_top" xlink:title=" ">
<polygon fill="white" stroke="black" points="351.5,-56.5 351.5,-75.5 477.5,-75.5 477.5,-56.5 351.5,-56.5"/>
<text text-anchor="middle" x="414.5" y="-63.5" font-family="Helvetica,sans-Serif" font-size="10.00">control&#45;flow&#45;builders.h</text>
</a>
</g>
</g>
<!-- Node1&#45;&gt;Node5 -->
<g id="edge4" class="edge">
<title>Node1&#45;&gt;Node5</title>
<path fill="none" stroke="midnightblue" d="M306.98,-108.77C333.09,-98.63 369.54,-84.47 392.58,-75.52"/>
<polygon fill="midnightblue" stroke="midnightblue" points="305.58,-105.56 297.52,-112.44 308.11,-112.08 305.58,-105.56"/>
</g>
<!-- Node5&#45;&gt;Node4 -->
<g id="edge5" class="edge">
<title>Node5&#45;&gt;Node4</title>
<path fill="none" stroke="midnightblue" d="M391.21,-51.18C374.46,-41.24 352.4,-28.15 338.08,-19.65"/>
<polygon fill="midnightblue" stroke="midnightblue" points="389.49,-54.23 399.88,-56.32 393.07,-48.21 389.49,-54.23"/>
</g>
<!-- Node6 -->
<g id="node6" class="node">
<title>Node6</title>
<g id="a_node6"><a xlink:href="control-flow-builders_8cc.html" target="_top" xlink:title=" ">
<polygon fill="white" stroke="black" points="404,-0.5 404,-19.5 535,-19.5 535,-0.5 404,-0.5"/>
<text text-anchor="middle" x="469.5" y="-7.5" font-family="Helvetica,sans-Serif" font-size="10.00">control&#45;flow&#45;builders.cc</text>
</a>
</g>
</g>
<!-- Node5&#45;&gt;Node6 -->
<g id="edge6" class="edge">
<title>Node5&#45;&gt;Node6</title>
<path fill="none" stroke="midnightblue" d="M430.79,-49C440.54,-39.43 452.55,-27.64 460.59,-19.75"/>
<polygon fill="midnightblue" stroke="midnightblue" points="428.27,-46.58 423.58,-56.08 433.17,-51.57 428.27,-46.58"/>
</g>
</g>
</svg>
