<?xml version="1.0" encoding="UTF-8" standalone="no"?>
<!DOCTYPE svg PUBLIC "-//W3C//DTD SVG 1.1//EN"
 "http://www.w3.org/Graphics/SVG/1.1/DTD/svg11.dtd">
<!-- Generated by graphviz version 2.43.0 (0)
 -->
<!-- Title: v8::internal::wasm::gdb_server::Target::SetStatus Pages: 1 -->
<!--zoomable 258 -->
<svg id="main" version="1.1" xmlns="http://www.w3.org/2000/svg" xmlns:xlink="http://www.w3.org/1999/xlink" xml:space="preserve" onload="init(evt)">
<style type="text/css"><![CDATA[
.edge:hover path { stroke: red; }
.edge:hover polygon { stroke: red; fill: red; }
]]></style>
<script type="text/javascript"><![CDATA[
var edges = document.getElementsByTagName('g');
if (edges && edges.length) {
  for (var i=0;i<edges.length;i++) {
    if (edges[i].id.substr(0,4)=='edge') {
      edges[i].setAttribute('class','edge');
    }
  }
}
]]></script>
        <defs>
                <circle id="rim" cx="0" cy="0" r="7"/>
                <circle id="rim2" cx="0" cy="0" r="3.5"/>
                <g id="zoomPlus">
                        <use xlink:href="#rim" fill="#404040">
                                <set attributeName="fill" to="#808080" begin="zoomplus.mouseover" end="zoomplus.mouseout"/>
                        </use>
                        <path d="M-4,0h8M0,-4v8" fill="none" stroke="white" stroke-width="1.5" pointer-events="none"/>
                </g>
                <g id="zoomMin">
                        <use xlink:href="#rim" fill="#404040">
                                <set attributeName="fill" to="#808080" begin="zoomminus.mouseover" end="zoomminus.mouseout"/>
                        </use>
                        <path d="M-4,0h8" fill="none" stroke="white" stroke-width="1.5" pointer-events="none"/>
                </g>
                <g id="dirArrow">
                        <path fill="none" stroke="white" stroke-width="1.5" d="M0,-3.0v7 M-2.5,-0.5L0,-3.0L2.5,-0.5"/>
                </g>
               <g id="resetDef">
                       <use xlink:href="#rim2" fill="#404040">
                               <set attributeName="fill" to="#808080" begin="reset.mouseover" end="reset.mouseout"/>
                       </use>
               </g>
        </defs>

<script type="text/javascript">
var viewWidth = 595;
var viewHeight = 258;
var sectionId = 'dynsection-20';
</script>
<script xlink:href="svgpan.js"/>
<svg id="graph" class="graph">
<g id="viewport">
<title>v8::internal::wasm::gdb_server::Target::SetStatus</title>
<polygon fill="white" stroke="transparent" points="-4,4 -4,-254 591,-254 591,4 -4,4"/>
<!-- Node1 -->
<g id="node1" class="node">
<title>Node1</title>
<g id="a_node1"><a xlink:title=" ">
<polygon fill="#bfbfbf" stroke="black" points="474,-84.5 474,-125.5 587,-125.5 587,-84.5 474,-84.5"/>
<text text-anchor="start" x="482" y="-113.5" font-family="Helvetica,sans-Serif" font-size="10.00">v8::internal::wasm</text>
<text text-anchor="start" x="482" y="-102.5" font-family="Helvetica,sans-Serif" font-size="10.00">::gdb_server::Target</text>
<text text-anchor="middle" x="530.5" y="-91.5" font-family="Helvetica,sans-Serif" font-size="10.00">::SetStatus</text>
</a>
</g>
</g>
<!-- Node2 -->
<g id="node2" class="node">
<title>Node2</title>
<g id="a_node2"><a xlink:href="classv8_1_1internal_1_1wasm_1_1gdb__server_1_1Target.html#a1b4babc08d9f65a7778dc4b0cf839dad" target="_top" xlink:title=" ">
<polygon fill="white" stroke="black" points="325,-158.5 325,-199.5 438,-199.5 438,-158.5 325,-158.5"/>
<text text-anchor="start" x="333" y="-187.5" font-family="Helvetica,sans-Serif" font-size="10.00">v8::internal::wasm</text>
<text text-anchor="start" x="333" y="-176.5" font-family="Helvetica,sans-Serif" font-size="10.00">::gdb_server::Target</text>
<text text-anchor="middle" x="381.5" y="-165.5" font-family="Helvetica,sans-Serif" font-size="10.00">::OnSuspended</text>
</a>
</g>
</g>
<!-- Node1&#45;&gt;Node2 -->
<g id="edge1" class="edge">
<title>Node1&#45;&gt;Node2</title>
<path fill="none" stroke="midnightblue" d="M479.47,-130.18C461.15,-139.41 440.64,-149.73 423.23,-158.5"/>
<polygon fill="midnightblue" stroke="midnightblue" points="481.19,-133.24 488.55,-125.61 478.05,-126.98 481.19,-133.24"/>
</g>
<!-- Node5 -->
<g id="node5" class="node">
<title>Node5</title>
<g id="a_node5"><a xlink:href="classv8_1_1internal_1_1wasm_1_1gdb__server_1_1Target.html#a8ee474291c52f9a95873df7e963410d2" target="_top" xlink:title=" ">
<polygon fill="white" stroke="black" points="173,-79.5 173,-120.5 289,-120.5 289,-79.5 173,-79.5"/>
<text text-anchor="start" x="181" y="-108.5" font-family="Helvetica,sans-Serif" font-size="10.00">v8::internal::wasm</text>
<text text-anchor="start" x="181" y="-97.5" font-family="Helvetica,sans-Serif" font-size="10.00">::gdb_server::Target</text>
<text text-anchor="middle" x="231" y="-86.5" font-family="Helvetica,sans-Serif" font-size="10.00">::ProcessCommands</text>
</a>
</g>
</g>
<!-- Node1&#45;&gt;Node5 -->
<g id="edge4" class="edge">
<title>Node1&#45;&gt;Node5</title>
<path fill="none" stroke="midnightblue" d="M463.79,-109.83C455.12,-110.31 446.35,-110.73 438,-111 387.8,-112.64 375.14,-113.95 325,-111 313.48,-110.32 301.19,-109.17 289.45,-107.87"/>
<polygon fill="midnightblue" stroke="midnightblue" points="464.11,-113.32 473.88,-109.23 463.69,-106.33 464.11,-113.32"/>
</g>
<!-- Node7 -->
<g id="node7" class="node">
<title>Node7</title>
<g id="a_node7"><a xlink:href="classv8_1_1internal_1_1wasm_1_1gdb__server_1_1Target.html#a5665ffa79c45813541a0172b0dc41735" target="_top" xlink:title=" ">
<polygon fill="white" stroke="black" points="325,-60.5 325,-101.5 438,-101.5 438,-60.5 325,-60.5"/>
<text text-anchor="start" x="333" y="-89.5" font-family="Helvetica,sans-Serif" font-size="10.00">v8::internal::wasm</text>
<text text-anchor="start" x="333" y="-78.5" font-family="Helvetica,sans-Serif" font-size="10.00">::gdb_server::Target</text>
<text text-anchor="middle" x="381.5" y="-67.5" font-family="Helvetica,sans-Serif" font-size="10.00">::ProcessPacket</text>
</a>
</g>
</g>
<!-- Node1&#45;&gt;Node7 -->
<g id="edge6" class="edge">
<title>Node1&#45;&gt;Node7</title>
<path fill="none" stroke="midnightblue" d="M463.92,-94.29C455.32,-92.89 446.57,-91.46 438.15,-90.09"/>
<polygon fill="midnightblue" stroke="midnightblue" points="463.49,-97.77 473.93,-95.93 464.62,-90.86 463.49,-97.77"/>
</g>
<!-- Node8 -->
<g id="node8" class="node">
<title>Node8</title>
<g id="a_node8"><a xlink:href="classv8_1_1internal_1_1wasm_1_1gdb__server_1_1Target.html#a9a4a496cc8c4ccf610202e196e2f9329" target="_top" xlink:title=" ">
<polygon fill="white" stroke="black" points="325,-0.5 325,-41.5 438,-41.5 438,-0.5 325,-0.5"/>
<text text-anchor="start" x="333" y="-29.5" font-family="Helvetica,sans-Serif" font-size="10.00">v8::internal::wasm</text>
<text text-anchor="start" x="333" y="-18.5" font-family="Helvetica,sans-Serif" font-size="10.00">::gdb_server::Target</text>
<text text-anchor="middle" x="381.5" y="-7.5" font-family="Helvetica,sans-Serif" font-size="10.00">::Terminate</text>
</a>
</g>
</g>
<!-- Node1&#45;&gt;Node8 -->
<g id="edge8" class="edge">
<title>Node1&#45;&gt;Node8</title>
<path fill="none" stroke="midnightblue" d="M486.63,-79.25C471.35,-70.19 453.97,-60.03 438,-51 432.56,-47.93 426.8,-44.74 421.12,-41.63"/>
<polygon fill="midnightblue" stroke="midnightblue" points="484.97,-82.33 495.35,-84.44 488.54,-76.32 484.97,-82.33"/>
</g>
<!-- Node3 -->
<g id="node3" class="node">
<title>Node3</title>
<g id="a_node3"><a xlink:href="classv8_1_1internal_1_1wasm_1_1gdb__server_1_1Target.html#aa6cf65880f14b47cf101db98b66ed8e1" target="_top" xlink:title=" ">
<polygon fill="white" stroke="black" points="174.5,-208.5 174.5,-249.5 287.5,-249.5 287.5,-208.5 174.5,-208.5"/>
<text text-anchor="start" x="182.5" y="-237.5" font-family="Helvetica,sans-Serif" font-size="10.00">v8::internal::wasm</text>
<text text-anchor="start" x="182.5" y="-226.5" font-family="Helvetica,sans-Serif" font-size="10.00">::gdb_server::Target</text>
<text text-anchor="middle" x="231" y="-215.5" font-family="Helvetica,sans-Serif" font-size="10.00">::OnException</text>
</a>
</g>
</g>
<!-- Node2&#45;&gt;Node3 -->
<g id="edge2" class="edge">
<title>Node2&#45;&gt;Node3</title>
<path fill="none" stroke="midnightblue" d="M315.24,-200.97C306,-204.08 296.57,-207.26 287.54,-210.3"/>
<polygon fill="midnightblue" stroke="midnightblue" points="316.42,-204.27 324.78,-197.76 314.19,-197.63 316.42,-204.27"/>
</g>
<!-- Node4 -->
<g id="node4" class="node">
<title>Node4</title>
<g id="a_node4"><a xlink:href="classv8_1_1internal_1_1wasm_1_1gdb__server_1_1Target.html#afdf842951c235d2448a500bb2078e547" target="_top" xlink:title=" ">
<polygon fill="white" stroke="black" points="174.5,-148.5 174.5,-189.5 287.5,-189.5 287.5,-148.5 174.5,-148.5"/>
<text text-anchor="start" x="182.5" y="-177.5" font-family="Helvetica,sans-Serif" font-size="10.00">v8::internal::wasm</text>
<text text-anchor="start" x="182.5" y="-166.5" font-family="Helvetica,sans-Serif" font-size="10.00">::gdb_server::Target</text>
<text text-anchor="middle" x="231" y="-155.5" font-family="Helvetica,sans-Serif" font-size="10.00">::OnProgramBreak</text>
</a>
</g>
</g>
<!-- Node2&#45;&gt;Node4 -->
<g id="edge3" class="edge">
<title>Node2&#45;&gt;Node4</title>
<path fill="none" stroke="midnightblue" d="M314.66,-174.57C305.61,-173.96 296.38,-173.34 287.54,-172.74"/>
<polygon fill="midnightblue" stroke="midnightblue" points="314.57,-178.07 324.78,-175.25 315.04,-171.08 314.57,-178.07"/>
</g>
<!-- Node6 -->
<g id="node6" class="node">
<title>Node6</title>
<g id="a_node6"><a xlink:href="classv8_1_1internal_1_1wasm_1_1gdb__server_1_1Target.html#a963e6d65339d4879fbcac969adabc0ca" target="_top" xlink:title=" ">
<polygon fill="white" stroke="black" points="0,-85 0,-115 137,-115 137,-85 0,-85"/>
<text text-anchor="start" x="8" y="-103" font-family="Helvetica,sans-Serif" font-size="10.00">v8::internal::wasm</text>
<text text-anchor="middle" x="68.5" y="-92" font-family="Helvetica,sans-Serif" font-size="10.00">::gdb_server::Target::Run</text>
</a>
</g>
</g>
<!-- Node5&#45;&gt;Node6 -->
<g id="edge5" class="edge">
<title>Node5&#45;&gt;Node6</title>
<path fill="none" stroke="midnightblue" d="M162.73,-100C154.24,-100 145.55,-100 137.06,-100"/>
<polygon fill="midnightblue" stroke="midnightblue" points="162.96,-103.5 172.96,-100 162.96,-96.5 162.96,-103.5"/>
</g>
<!-- Node7&#45;&gt;Node5 -->
<g id="edge7" class="edge">
<title>Node7&#45;&gt;Node5</title>
<path fill="none" stroke="midnightblue" d="M314.79,-89.41C306.2,-90.51 297.45,-91.63 289.02,-92.7"/>
<polygon fill="midnightblue" stroke="midnightblue" points="315.31,-92.87 324.78,-88.13 314.42,-85.93 315.31,-92.87"/>
</g>
</g>
</svg>
        <g id="navigator" transform="translate(0 0)" fill="#404254">
                <rect fill="#f2f5e9" fill-opacity="0.5" stroke="#606060" stroke-width=".5" x="0" y="0" width="60" height="60"/>
                <use id="zoomplus" xlink:href="#zoomPlus" x="17" y="9" onmousedown="handleZoom(evt,'in')"/>
                <use id="zoomminus" xlink:href="#zoomMin" x="42" y="9" onmousedown="handleZoom(evt,'out')"/>
                <use id="reset" xlink:href="#resetDef" x="30" y="36" onmousedown="handleReset()"/>
                <g id="arrowUp" xlink:href="#dirArrow" transform="translate(30 24)" onmousedown="handlePan(0,-1)">
                  <use xlink:href="#rim" fill="#404040">
                        <set attributeName="fill" to="#808080" begin="arrowUp.mouseover" end="arrowUp.mouseout"/>
                  </use>
                  <path fill="none" stroke="white" stroke-width="1.5" d="M0,-3.0v7 M-2.5,-0.5L0,-3.0L2.5,-0.5"/>
                </g>
                <g id="arrowRight" xlink:href="#dirArrow" transform="rotate(90) translate(36 -43)" onmousedown="handlePan(1,0)">
                  <use xlink:href="#rim" fill="#404040">
                        <set attributeName="fill" to="#808080" begin="arrowRight.mouseover" end="arrowRight.mouseout"/>
                  </use>
                  <path fill="none" stroke="white" stroke-width="1.5" d="M0,-3.0v7 M-2.5,-0.5L0,-3.0L2.5,-0.5"/>
                </g>
                <g id="arrowDown" xlink:href="#dirArrow" transform="rotate(180) translate(-30 -48)" onmousedown="handlePan(0,1)">
                  <use xlink:href="#rim" fill="#404040">
                        <set attributeName="fill" to="#808080" begin="arrowDown.mouseover" end="arrowDown.mouseout"/>
                  </use>
                  <path fill="none" stroke="white" stroke-width="1.5" d="M0,-3.0v7 M-2.5,-0.5L0,-3.0L2.5,-0.5"/>
                </g>
                <g id="arrowLeft" xlink:href="#dirArrow" transform="rotate(270) translate(-36 17)" onmousedown="handlePan(-1,0)">
                  <use xlink:href="#rim" fill="#404040">
                        <set attributeName="fill" to="#808080" begin="arrowLeft.mouseover" end="arrowLeft.mouseout"/>
                  </use>
                  <path fill="none" stroke="white" stroke-width="1.5" d="M0,-3.0v7 M-2.5,-0.5L0,-3.0L2.5,-0.5"/>
                </g>
        </g>
        <svg viewBox="0 0 15 15" width="100%" height="30px" preserveAspectRatio="xMaxYMin meet">
         <g id="arrow_out" transform="scale(0.3 0.3)">
          <a xlink:href="classv8_1_1internal_1_1wasm_1_1gdb__server_1_1Target_a43af65518e365438a2187cf5946f03e9_icgraph_org.svg" target="_base">
           <rect id="button" ry="5" rx="5" y="6" x="6" height="38" width="38"
                fill="#f2f5e9" fill-opacity="0.5" stroke="#606060" stroke-width="1.0"/>
           <path id="arrow"
             d="M 11.500037,31.436501 C 11.940474,20.09759 22.043105,11.32322 32.158766,21.979434 L 37.068811,17.246167 C 37.068811,17.246167 37.088388,32 37.088388,32 L 22.160133,31.978069 C 22.160133,31.978069 26.997745,27.140456 26.997745,27.140456 C 18.528582,18.264221 13.291696,25.230495 11.500037,31.436501 z"
             style="fill:#404040;"/>
          </a>
         </g>
        </svg>
</svg>
