<?xml version="1.0" encoding="UTF-8" standalone="no"?>
<!DOCTYPE svg PUBLIC "-//W3C//DTD SVG 1.1//EN"
 "http://www.w3.org/Graphics/SVG/1.1/DTD/svg11.dtd">
<!-- Generated by graphviz version 2.43.0 (0)
 -->
<!-- Title: v8::internal::ScopeInfo::SavedClassVariable Pages: 1 -->
<!--zoomable 190 -->
<svg id="main" version="1.1" xmlns="http://www.w3.org/2000/svg" xmlns:xlink="http://www.w3.org/1999/xlink" xml:space="preserve" onload="init(evt)">
<style type="text/css"><![CDATA[
.edge:hover path { stroke: red; }
.edge:hover polygon { stroke: red; fill: red; }
]]></style>
<script type="text/javascript"><![CDATA[
var edges = document.getElementsByTagName('g');
if (edges && edges.length) {
  for (var i=0;i<edges.length;i++) {
    if (edges[i].id.substr(0,4)=='edge') {
      edges[i].setAttribute('class','edge');
    }
  }
}
]]></script>
        <defs>
                <circle id="rim" cx="0" cy="0" r="7"/>
                <circle id="rim2" cx="0" cy="0" r="3.5"/>
                <g id="zoomPlus">
                        <use xlink:href="#rim" fill="#404040">
                                <set attributeName="fill" to="#808080" begin="zoomplus.mouseover" end="zoomplus.mouseout"/>
                        </use>
                        <path d="M-4,0h8M0,-4v8" fill="none" stroke="white" stroke-width="1.5" pointer-events="none"/>
                </g>
                <g id="zoomMin">
                        <use xlink:href="#rim" fill="#404040">
                                <set attributeName="fill" to="#808080" begin="zoomminus.mouseover" end="zoomminus.mouseout"/>
                        </use>
                        <path d="M-4,0h8" fill="none" stroke="white" stroke-width="1.5" pointer-events="none"/>
                </g>
                <g id="dirArrow">
                        <path fill="none" stroke="white" stroke-width="1.5" d="M0,-3.0v7 M-2.5,-0.5L0,-3.0L2.5,-0.5"/>
                </g>
               <g id="resetDef">
                       <use xlink:href="#rim2" fill="#404040">
                               <set attributeName="fill" to="#808080" begin="reset.mouseover" end="reset.mouseout"/>
                       </use>
               </g>
        </defs>

<script type="text/javascript">
var viewWidth = 651;
var viewHeight = 190;
var sectionId = 'dynsection-115';
</script>
<script xlink:href="svgpan.js"/>
<svg id="graph" class="graph">
<g id="viewport">
<title>v8::internal::ScopeInfo::SavedClassVariable</title>
<polygon fill="white" stroke="transparent" points="-4,4 -4,-185.72 647,-185.72 647,4 -4,4"/>
<!-- Node1 -->
<g id="node1" class="node">
<title>Node1</title>
<g id="a_node1"><a xlink:title=" ">
<polygon fill="#bfbfbf" stroke="black" points="0,-82.5 0,-112.5 126,-112.5 126,-82.5 0,-82.5"/>
<text text-anchor="start" x="8" y="-100.5" font-family="Helvetica,sans-Serif" font-size="10.00">v8::internal::ScopeInfo</text>
<text text-anchor="middle" x="63" y="-89.5" font-family="Helvetica,sans-Serif" font-size="10.00">::SavedClassVariable</text>
</a>
</g>
</g>
<!-- Node2 -->
<g id="node2" class="node">
<title>Node2</title>
<g id="a_node2"><a xlink:href="classv8_1_1internal_1_1ScopeInfo.html#a4e5c942d5fa7e45765ea8f9926ec3236" target="_top" xlink:title=" ">
<polygon fill="white" stroke="black" points="162,-126.5 162,-156.5 311,-156.5 311,-126.5 162,-126.5"/>
<text text-anchor="start" x="170" y="-144.5" font-family="Helvetica,sans-Serif" font-size="10.00">v8::internal::ScopeInfo</text>
<text text-anchor="middle" x="236.5" y="-133.5" font-family="Helvetica,sans-Serif" font-size="10.00">::ContextInlinedLocalName</text>
</a>
</g>
</g>
<!-- Node1&#45;&gt;Node2 -->
<g id="edge1" class="edge">
<title>Node1&#45;&gt;Node2</title>
<path fill="none" stroke="midnightblue" d="M122.54,-112.52C136.81,-116.18 152.2,-120.13 166.89,-123.9"/>
<polygon fill="midnightblue" stroke="midnightblue" points="166.38,-127.38 176.93,-126.47 168.12,-120.6 166.38,-127.38"/>
</g>
<!-- Node3 -->
<g id="node3" class="node">
<title>Node3</title>
<g id="a_node3"><a xlink:href="namespacev8_1_1internal.html#aa6b3743bd5d773c552654f2a6c3efa4a" target="_top" xlink:title=" ">
<polygon fill="white" stroke="black" points="354.5,-157 354.5,-176 473.5,-176 473.5,-157 354.5,-157"/>
<text text-anchor="middle" x="414" y="-164" font-family="Helvetica,sans-Serif" font-size="10.00">v8::internal::DCHECK</text>
</a>
</g>
</g>
<!-- Node1&#45;&gt;Node3 -->
<g id="edge6" class="edge">
<title>Node1&#45;&gt;Node3</title>
<path fill="none" stroke="midnightblue" d="M78.97,-112.61C96.88,-129.53 128.67,-155.94 162,-166.5 222.37,-185.62 295.07,-183.03 346.66,-177.22"/>
<polygon fill="midnightblue" stroke="midnightblue" points="347.17,-180.69 356.69,-176.02 346.34,-173.74 347.17,-180.69"/>
</g>
<!-- Node4 -->
<g id="node4" class="node">
<title>Node4</title>
<g id="a_node4"><a xlink:href="classv8_1_1internal_1_1ScopeInfo.html#ae950657db6446d347f70eb459eb831e2" target="_top" xlink:title=" ">
<polygon fill="white" stroke="black" points="347,-88.5 347,-118.5 481,-118.5 481,-88.5 347,-88.5"/>
<text text-anchor="start" x="355" y="-106.5" font-family="Helvetica,sans-Serif" font-size="10.00">v8::internal::ScopeInfo</text>
<text text-anchor="middle" x="414" y="-95.5" font-family="Helvetica,sans-Serif" font-size="10.00">::HasInlinedLocalNames</text>
</a>
</g>
</g>
<!-- Node1&#45;&gt;Node4 -->
<g id="edge8" class="edge">
<title>Node1&#45;&gt;Node4</title>
<path fill="none" stroke="midnightblue" d="M126.39,-98.57C185.27,-99.58 273.67,-101.1 336.71,-102.19"/>
<polygon fill="midnightblue" stroke="midnightblue" points="336.93,-105.69 346.99,-102.37 337.06,-98.69 336.93,-105.69"/>
</g>
<!-- Node5 -->
<g id="node5" class="node">
<title>Node5</title>
<g id="a_node5"><a xlink:href="classv8_1_1internal_1_1ScopeInfo.html#add08c969cba9c325bbfd1ba9d9495035" target="_top" xlink:title=" ">
<polygon fill="white" stroke="black" points="517,-66.5 517,-96.5 643,-96.5 643,-66.5 517,-66.5"/>
<text text-anchor="start" x="525" y="-84.5" font-family="Helvetica,sans-Serif" font-size="10.00">v8::internal::ScopeInfo</text>
<text text-anchor="middle" x="580" y="-73.5" font-family="Helvetica,sans-Serif" font-size="10.00">::ContextLocalCount</text>
</a>
</g>
</g>
<!-- Node1&#45;&gt;Node5 -->
<g id="edge5" class="edge">
<title>Node1&#45;&gt;Node5</title>
<path fill="none" stroke="midnightblue" d="M126.05,-92.42C183.36,-87.99 270.85,-81.92 347,-79.5 406.53,-77.61 421.45,-78.89 481,-79.5 489.32,-79.58 498.03,-79.71 506.69,-79.86"/>
<polygon fill="midnightblue" stroke="midnightblue" points="506.73,-83.36 516.79,-80.04 506.86,-76.36 506.73,-83.36"/>
</g>
<!-- Node6 -->
<g id="node6" class="node">
<title>Node6</title>
<g id="a_node6"><a xlink:href="classv8_1_1internal_1_1ScopeInfo.html#a6939023805c67e79af413bffba247327" target="_top" xlink:title=" ">
<polygon fill="white" stroke="black" points="173.5,-0.5 173.5,-30.5 299.5,-30.5 299.5,-0.5 173.5,-0.5"/>
<text text-anchor="start" x="181.5" y="-18.5" font-family="Helvetica,sans-Serif" font-size="10.00">v8::internal::ScopeInfo</text>
<text text-anchor="middle" x="236.5" y="-7.5" font-family="Helvetica,sans-Serif" font-size="10.00">::Flags</text>
</a>
</g>
</g>
<!-- Node1&#45;&gt;Node6 -->
<g id="edge7" class="edge">
<title>Node1&#45;&gt;Node6</title>
<path fill="none" stroke="midnightblue" d="M90.67,-82.42C110.17,-71.62 137.4,-57.01 162,-45.5 170.07,-41.72 178.76,-37.94 187.23,-34.39"/>
<polygon fill="midnightblue" stroke="midnightblue" points="188.75,-37.55 196.66,-30.51 186.08,-31.08 188.75,-37.55"/>
</g>
<!-- Node2&#45;&gt;Node3 -->
<g id="edge2" class="edge">
<title>Node2&#45;&gt;Node3</title>
<path fill="none" stroke="midnightblue" d="M311.16,-151.99C322.23,-153.57 333.59,-155.19 344.54,-156.75"/>
<polygon fill="midnightblue" stroke="midnightblue" points="344.06,-160.21 354.45,-158.16 345.04,-153.28 344.06,-160.21"/>
</g>
<!-- Node2&#45;&gt;Node4 -->
<g id="edge3" class="edge">
<title>Node2&#45;&gt;Node4</title>
<path fill="none" stroke="midnightblue" d="M306.86,-126.48C316.71,-124.35 326.87,-122.15 336.84,-119.99"/>
<polygon fill="midnightblue" stroke="midnightblue" points="337.68,-123.39 346.72,-117.85 336.2,-116.55 337.68,-123.39"/>
</g>
<!-- Node4&#45;&gt;Node5 -->
<g id="edge4" class="edge">
<title>Node4&#45;&gt;Node5</title>
<path fill="none" stroke="midnightblue" d="M481.23,-94.62C489.67,-93.48 498.33,-92.32 506.85,-91.18"/>
<polygon fill="midnightblue" stroke="midnightblue" points="507.32,-94.65 516.77,-89.85 506.39,-87.71 507.32,-94.65"/>
</g>
</g>
</svg>
        <g id="navigator" transform="translate(0 0)" fill="#404254">
                <rect fill="#f2f5e9" fill-opacity="0.5" stroke="#606060" stroke-width=".5" x="0" y="0" width="60" height="60"/>
                <use id="zoomplus" xlink:href="#zoomPlus" x="17" y="9" onmousedown="handleZoom(evt,'in')"/>
                <use id="zoomminus" xlink:href="#zoomMin" x="42" y="9" onmousedown="handleZoom(evt,'out')"/>
                <use id="reset" xlink:href="#resetDef" x="30" y="36" onmousedown="handleReset()"/>
                <g id="arrowUp" xlink:href="#dirArrow" transform="translate(30 24)" onmousedown="handlePan(0,-1)">
                  <use xlink:href="#rim" fill="#404040">
                        <set attributeName="fill" to="#808080" begin="arrowUp.mouseover" end="arrowUp.mouseout"/>
                  </use>
                  <path fill="none" stroke="white" stroke-width="1.5" d="M0,-3.0v7 M-2.5,-0.5L0,-3.0L2.5,-0.5"/>
                </g>
                <g id="arrowRight" xlink:href="#dirArrow" transform="rotate(90) translate(36 -43)" onmousedown="handlePan(1,0)">
                  <use xlink:href="#rim" fill="#404040">
                        <set attributeName="fill" to="#808080" begin="arrowRight.mouseover" end="arrowRight.mouseout"/>
                  </use>
                  <path fill="none" stroke="white" stroke-width="1.5" d="M0,-3.0v7 M-2.5,-0.5L0,-3.0L2.5,-0.5"/>
                </g>
                <g id="arrowDown" xlink:href="#dirArrow" transform="rotate(180) translate(-30 -48)" onmousedown="handlePan(0,1)">
                  <use xlink:href="#rim" fill="#404040">
                        <set attributeName="fill" to="#808080" begin="arrowDown.mouseover" end="arrowDown.mouseout"/>
                  </use>
                  <path fill="none" stroke="white" stroke-width="1.5" d="M0,-3.0v7 M-2.5,-0.5L0,-3.0L2.5,-0.5"/>
                </g>
                <g id="arrowLeft" xlink:href="#dirArrow" transform="rotate(270) translate(-36 17)" onmousedown="handlePan(-1,0)">
                  <use xlink:href="#rim" fill="#404040">
                        <set attributeName="fill" to="#808080" begin="arrowLeft.mouseover" end="arrowLeft.mouseout"/>
                  </use>
                  <path fill="none" stroke="white" stroke-width="1.5" d="M0,-3.0v7 M-2.5,-0.5L0,-3.0L2.5,-0.5"/>
                </g>
        </g>
        <svg viewBox="0 0 15 15" width="100%" height="30px" preserveAspectRatio="xMaxYMin meet">
         <g id="arrow_out" transform="scale(0.3 0.3)">
          <a xlink:href="classv8_1_1internal_1_1ScopeInfo_ac4866c14239b4b062619dabb67713cf8_cgraph_org.svg" target="_base">
           <rect id="button" ry="5" rx="5" y="6" x="6" height="38" width="38"
                fill="#f2f5e9" fill-opacity="0.5" stroke="#606060" stroke-width="1.0"/>
           <path id="arrow"
             d="M 11.500037,31.436501 C 11.940474,20.09759 22.043105,11.32322 32.158766,21.979434 L 37.068811,17.246167 C 37.068811,17.246167 37.088388,32 37.088388,32 L 22.160133,31.978069 C 22.160133,31.978069 26.997745,27.140456 26.997745,27.140456 C 18.528582,18.264221 13.291696,25.230495 11.500037,31.436501 z"
             style="fill:#404040;"/>
          </a>
         </g>
        </svg>
</svg>
