<?xml version="1.0" encoding="UTF-8" standalone="no"?>
<!DOCTYPE svg PUBLIC "-//W3C//DTD SVG 1.1//EN"
 "http://www.w3.org/Graphics/SVG/1.1/DTD/svg11.dtd">
<!-- Generated by graphviz version 2.43.0 (0)
 -->
<!-- Title: v8::internal::compiler::OperandAssigner::DecideSpillingMode Pages: 1 -->
<svg width="847pt" height="308pt"
 viewBox="0.00 0.00 847.00 307.50" xmlns="http://www.w3.org/2000/svg" xmlns:xlink="http://www.w3.org/1999/xlink">
<g id="graph0" class="graph" transform="scale(1 1) rotate(0) translate(4 303.5)">
<title>v8::internal::compiler::OperandAssigner::DecideSpillingMode</title>
<polygon fill="white" stroke="transparent" points="-4,4 -4,-303.5 843,-303.5 843,4 -4,4"/>
<!-- Node1 -->
<g id="node1" class="node">
<title>Node1</title>
<g id="a_node1"><a xlink:title=" ">
<polygon fill="#bfbfbf" stroke="black" points="0,-121 0,-151 209,-151 209,-121 0,-121"/>
<text text-anchor="start" x="8" y="-139" font-family="Helvetica,sans-Serif" font-size="10.00">v8::internal::compiler</text>
<text text-anchor="middle" x="104.5" y="-128" font-family="Helvetica,sans-Serif" font-size="10.00">::OperandAssigner::DecideSpillingMode</text>
</a>
</g>
</g>
<!-- Node2 -->
<g id="node2" class="node">
<title>Node2</title>
<g id="a_node2"><a xlink:href="classv8_1_1internal_1_1compiler_1_1OperandAssigner.html#a08eecafc31fe7004207aec962fdd6b1a" target="_top" xlink:title=" ">
<polygon fill="white" stroke="black" points="261.5,-269 261.5,-299 395.5,-299 395.5,-269 261.5,-269"/>
<text text-anchor="start" x="269.5" y="-287" font-family="Helvetica,sans-Serif" font-size="10.00">v8::internal::compiler</text>
<text text-anchor="middle" x="328.5" y="-276" font-family="Helvetica,sans-Serif" font-size="10.00">::OperandAssigner::data</text>
</a>
</g>
</g>
<!-- Node1&#45;&gt;Node2 -->
<g id="edge1" class="edge">
<title>Node1&#45;&gt;Node2</title>
<path fill="none" stroke="midnightblue" d="M118.51,-151.36C141.44,-177.47 191.68,-230.53 245,-260 248.26,-261.8 251.67,-263.48 255.17,-265.04"/>
<polygon fill="midnightblue" stroke="midnightblue" points="254.01,-268.35 264.59,-268.91 256.67,-261.88 254.01,-268.35"/>
</g>
<!-- Node3 -->
<g id="node3" class="node">
<title>Node3</title>
<g id="a_node3"><a xlink:href="namespacev8_1_1internal_1_1compiler_1_1anonymous__namespace_02register-allocator_8cc_03.html#aa42ccf01201b3daa51cd0699352d8991" target="_top" xlink:title=" ">
<polygon fill="white" stroke="black" points="258,-198 258,-250 399,-250 399,-198 258,-198"/>
<text text-anchor="start" x="266" y="-238" font-family="Helvetica,sans-Serif" font-size="10.00">v8::internal::compiler</text>
<text text-anchor="start" x="266" y="-227" font-family="Helvetica,sans-Serif" font-size="10.00">::anonymous_namespace</text>
<text text-anchor="start" x="266" y="-216" font-family="Helvetica,sans-Serif" font-size="10.00">{register&#45;allocator::cc}</text>
<text text-anchor="middle" x="328.5" y="-205" font-family="Helvetica,sans-Serif" font-size="10.00">::GetInstructionBlock</text>
</a>
</g>
</g>
<!-- Node1&#45;&gt;Node3 -->
<g id="edge2" class="edge">
<title>Node1&#45;&gt;Node3</title>
<path fill="none" stroke="midnightblue" d="M143.41,-151.03C173.2,-162.83 215.62,-179.65 252.23,-194.16"/>
<polygon fill="midnightblue" stroke="midnightblue" points="251.31,-197.56 261.9,-198 253.89,-191.06 251.31,-197.56"/>
</g>
<!-- Node7 -->
<g id="node7" class="node">
<title>Node7</title>
<g id="a_node7"><a xlink:href="classv8_1_1internal_1_1compiler_1_1InstructionBlock.html#aa47fce7140816614f9d2882d04791562" target="_top" xlink:title=" ">
<polygon fill="white" stroke="black" points="249.5,-149 249.5,-179 407.5,-179 407.5,-149 249.5,-149"/>
<text text-anchor="start" x="257.5" y="-167" font-family="Helvetica,sans-Serif" font-size="10.00">v8::internal::compiler</text>
<text text-anchor="middle" x="328.5" y="-156" font-family="Helvetica,sans-Serif" font-size="10.00">::InstructionBlock::IsDeferred</text>
</a>
</g>
</g>
<!-- Node1&#45;&gt;Node7 -->
<g id="edge6" class="edge">
<title>Node1&#45;&gt;Node7</title>
<path fill="none" stroke="midnightblue" d="M209.03,-149.06C219.09,-150.33 229.24,-151.61 239.14,-152.86"/>
<polygon fill="midnightblue" stroke="midnightblue" points="238.99,-156.36 249.35,-154.14 239.87,-149.42 238.99,-156.36"/>
</g>
<!-- Node8 -->
<g id="node8" class="node">
<title>Node8</title>
<g id="a_node8"><a xlink:href="classv8_1_1internal_1_1compiler_1_1RegisterAllocationData.html#a2855322291fd8fb6b75704b0020e9889" target="_top" xlink:title=" ">
<polygon fill="white" stroke="black" points="261,-88.5 261,-129.5 396,-129.5 396,-88.5 261,-88.5"/>
<text text-anchor="start" x="269" y="-117.5" font-family="Helvetica,sans-Serif" font-size="10.00">v8::internal::compiler</text>
<text text-anchor="start" x="269" y="-106.5" font-family="Helvetica,sans-Serif" font-size="10.00">::RegisterAllocationData</text>
<text text-anchor="middle" x="328.5" y="-95.5" font-family="Helvetica,sans-Serif" font-size="10.00">::tick_counter</text>
</a>
</g>
</g>
<!-- Node1&#45;&gt;Node8 -->
<g id="edge7" class="edge">
<title>Node1&#45;&gt;Node8</title>
<path fill="none" stroke="midnightblue" d="M209.03,-123.41C223.08,-121.7 237.29,-119.97 250.76,-118.33"/>
<polygon fill="midnightblue" stroke="midnightblue" points="251.39,-121.78 260.9,-117.1 250.55,-114.83 251.39,-121.78"/>
</g>
<!-- Node9 -->
<g id="node9" class="node">
<title>Node9</title>
<g id="a_node9"><a xlink:href="classv8_1_1internal_1_1TickCounter.html#a381d61714a1f0ec47afea6b5f3bacb22" target="_top" xlink:title=" ">
<polygon fill="white" stroke="black" points="245,-39 245,-69 412,-69 412,-39 245,-39"/>
<text text-anchor="start" x="253" y="-57" font-family="Helvetica,sans-Serif" font-size="10.00">v8::internal::TickCounter</text>
<text text-anchor="middle" x="328.5" y="-46" font-family="Helvetica,sans-Serif" font-size="10.00">::TickAndMaybeEnterSafepoint</text>
</a>
</g>
</g>
<!-- Node1&#45;&gt;Node9 -->
<g id="edge8" class="edge">
<title>Node1&#45;&gt;Node9</title>
<path fill="none" stroke="midnightblue" d="M139.84,-120.92C167.86,-108.86 208.63,-91.91 245,-79 251.69,-76.63 258.73,-74.27 265.77,-72.01"/>
<polygon fill="midnightblue" stroke="midnightblue" points="266.84,-75.35 275.33,-69 264.74,-68.67 266.84,-75.35"/>
</g>
<!-- Node12 -->
<g id="node12" class="node">
<title>Node12</title>
<g id="a_node12"><a xlink:href="namespacev8_1_1internal.html#a3762add7a183a4d1750c04e5fa1a6d17" target="_top" xlink:title=" ">
<polygon fill="white" stroke="black" points="273.5,-0.5 273.5,-19.5 383.5,-19.5 383.5,-0.5 273.5,-0.5"/>
<text text-anchor="middle" x="328.5" y="-7.5" font-family="Helvetica,sans-Serif" font-size="10.00">v8::internal::TRACE</text>
</a>
</g>
</g>
<!-- Node1&#45;&gt;Node12 -->
<g id="edge12" class="edge">
<title>Node1&#45;&gt;Node12</title>
<path fill="none" stroke="midnightblue" d="M120.73,-120.67C144.9,-97.26 194.47,-52.81 245,-29 250.76,-26.29 256.93,-23.95 263.21,-21.93"/>
<polygon fill="midnightblue" stroke="midnightblue" points="264.51,-25.2 273.12,-19.03 262.54,-18.48 264.51,-25.2"/>
</g>
<!-- Node4 -->
<g id="node4" class="node">
<title>Node4</title>
<g id="a_node4"><a xlink:href="classv8_1_1internal_1_1compiler_1_1LifetimePosition.html#a8c2698630261d8bba154be0df220e84f" target="_top" xlink:title=" ">
<polygon fill="white" stroke="black" points="448,-199 448,-229 645,-229 645,-199 448,-199"/>
<text text-anchor="start" x="456" y="-217" font-family="Helvetica,sans-Serif" font-size="10.00">v8::internal::compiler</text>
<text text-anchor="middle" x="546.5" y="-206" font-family="Helvetica,sans-Serif" font-size="10.00">::LifetimePosition::ToInstructionIndex</text>
</a>
</g>
</g>
<!-- Node3&#45;&gt;Node4 -->
<g id="edge3" class="edge">
<title>Node3&#45;&gt;Node4</title>
<path fill="none" stroke="midnightblue" d="M399.03,-220.78C411.42,-220.21 424.57,-219.6 437.73,-218.99"/>
<polygon fill="midnightblue" stroke="midnightblue" points="437.95,-222.48 447.77,-218.52 437.62,-215.49 437.95,-222.48"/>
</g>
<!-- Node5 -->
<g id="node5" class="node">
<title>Node5</title>
<g id="a_node5"><a xlink:href="namespacev8_1_1internal.html#aa6b3743bd5d773c552654f2a6c3efa4a" target="_top" xlink:title=" ">
<polygon fill="white" stroke="black" points="700.5,-150.5 700.5,-169.5 819.5,-169.5 819.5,-150.5 700.5,-150.5"/>
<text text-anchor="middle" x="760" y="-157.5" font-family="Helvetica,sans-Serif" font-size="10.00">v8::internal::DCHECK</text>
</a>
</g>
</g>
<!-- Node4&#45;&gt;Node5 -->
<g id="edge4" class="edge">
<title>Node4&#45;&gt;Node5</title>
<path fill="none" stroke="midnightblue" d="M606.41,-198.96C639.72,-190.45 680.8,-179.97 711.94,-172.02"/>
<polygon fill="midnightblue" stroke="midnightblue" points="712.86,-175.39 721.68,-169.53 711.12,-168.61 712.86,-175.39"/>
</g>
<!-- Node6 -->
<g id="node6" class="node">
<title>Node6</title>
<g id="a_node6"><a xlink:href="classv8_1_1internal_1_1compiler_1_1LifetimePosition.html#a257da18336c1dd3b40e31a98d9b7949b" target="_top" xlink:title=" ">
<polygon fill="white" stroke="black" points="690,-199 690,-229 830,-229 830,-199 690,-199"/>
<text text-anchor="start" x="698" y="-217" font-family="Helvetica,sans-Serif" font-size="10.00">v8::internal::compiler</text>
<text text-anchor="middle" x="760" y="-206" font-family="Helvetica,sans-Serif" font-size="10.00">::LifetimePosition::IsValid</text>
</a>
</g>
</g>
<!-- Node4&#45;&gt;Node6 -->
<g id="edge5" class="edge">
<title>Node4&#45;&gt;Node6</title>
<path fill="none" stroke="midnightblue" d="M645.2,-214C656.72,-214 668.37,-214 679.59,-214"/>
<polygon fill="midnightblue" stroke="midnightblue" points="679.76,-217.5 689.76,-214 679.76,-210.5 679.76,-217.5"/>
</g>
<!-- Node10 -->
<g id="node10" class="node">
<title>Node10</title>
<g id="a_node10"><a xlink:href="classv8_1_1internal_1_1LocalHeap.html#abb1f846eec81a8f873cd4213c17202a7" target="_top" xlink:title=" ">
<polygon fill="white" stroke="black" points="482,-77 482,-107 611,-107 611,-77 482,-77"/>
<text text-anchor="start" x="490" y="-95" font-family="Helvetica,sans-Serif" font-size="10.00">v8::internal::LocalHeap</text>
<text text-anchor="middle" x="546.5" y="-84" font-family="Helvetica,sans-Serif" font-size="10.00">::Safepoint</text>
</a>
</g>
</g>
<!-- Node9&#45;&gt;Node10 -->
<g id="edge9" class="edge">
<title>Node9&#45;&gt;Node10</title>
<path fill="none" stroke="midnightblue" d="M412.08,-68.53C431.76,-71.99 452.63,-75.66 471.87,-79.05"/>
<polygon fill="midnightblue" stroke="midnightblue" points="471.32,-82.5 481.77,-80.79 472.53,-75.61 471.32,-82.5"/>
</g>
<!-- Node10&#45;&gt;Node5 -->
<g id="edge10" class="edge">
<title>Node10&#45;&gt;Node5</title>
<path fill="none" stroke="midnightblue" d="M594.18,-107.01C631.87,-119.13 684.31,-135.99 719.84,-147.41"/>
<polygon fill="midnightblue" stroke="midnightblue" points="718.8,-150.75 729.39,-150.48 720.94,-144.09 718.8,-150.75"/>
</g>
<!-- Node11 -->
<g id="node11" class="node">
<title>Node11</title>
<g id="a_node11"><a xlink:href="classv8_1_1internal_1_1LocalHeap_1_1ThreadState.html#a85c549aafeecb7e8b9b46dad24ba0046" target="_top" xlink:title=" ">
<polygon fill="white" stroke="black" points="681,-71.5 681,-112.5 839,-112.5 839,-71.5 681,-71.5"/>
<text text-anchor="start" x="689" y="-100.5" font-family="Helvetica,sans-Serif" font-size="10.00">v8::internal::LocalHeap</text>
<text text-anchor="start" x="689" y="-89.5" font-family="Helvetica,sans-Serif" font-size="10.00">::ThreadState::IsRunningWith</text>
<text text-anchor="middle" x="760" y="-78.5" font-family="Helvetica,sans-Serif" font-size="10.00">SlowPathFlag</text>
</a>
</g>
</g>
<!-- Node10&#45;&gt;Node11 -->
<g id="edge11" class="edge">
<title>Node10&#45;&gt;Node11</title>
<path fill="none" stroke="midnightblue" d="M611.24,-92C629.97,-92 650.8,-92 670.77,-92"/>
<polygon fill="midnightblue" stroke="midnightblue" points="670.81,-95.5 680.81,-92 670.81,-88.5 670.81,-95.5"/>
</g>
</g>
</svg>
