<?xml version="1.0" encoding="UTF-8" standalone="no"?>
<!DOCTYPE svg PUBLIC "-//W3C//DTD SVG 1.1//EN"
 "http://www.w3.org/Graphics/SVG/1.1/DTD/svg11.dtd">
<!-- Generated by graphviz version 2.43.0 (0)
 -->
<!-- Title: v8::internal::ExecutionAccess::Lock Pages: 1 -->
<!--zoomable 112 -->
<svg id="main" version="1.1" xmlns="http://www.w3.org/2000/svg" xmlns:xlink="http://www.w3.org/1999/xlink" xml:space="preserve" onload="init(evt)">
<style type="text/css"><![CDATA[
.edge:hover path { stroke: red; }
.edge:hover polygon { stroke: red; fill: red; }
]]></style>
<script type="text/javascript"><![CDATA[
var edges = document.getElementsByTagName('g');
if (edges && edges.length) {
  for (var i=0;i<edges.length;i++) {
    if (edges[i].id.substr(0,4)=='edge') {
      edges[i].setAttribute('class','edge');
    }
  }
}
]]></script>
        <defs>
                <circle id="rim" cx="0" cy="0" r="7"/>
                <circle id="rim2" cx="0" cy="0" r="3.5"/>
                <g id="zoomPlus">
                        <use xlink:href="#rim" fill="#404040">
                                <set attributeName="fill" to="#808080" begin="zoomplus.mouseover" end="zoomplus.mouseout"/>
                        </use>
                        <path d="M-4,0h8M0,-4v8" fill="none" stroke="white" stroke-width="1.5" pointer-events="none"/>
                </g>
                <g id="zoomMin">
                        <use xlink:href="#rim" fill="#404040">
                                <set attributeName="fill" to="#808080" begin="zoomminus.mouseover" end="zoomminus.mouseout"/>
                        </use>
                        <path d="M-4,0h8" fill="none" stroke="white" stroke-width="1.5" pointer-events="none"/>
                </g>
                <g id="dirArrow">
                        <path fill="none" stroke="white" stroke-width="1.5" d="M0,-3.0v7 M-2.5,-0.5L0,-3.0L2.5,-0.5"/>
                </g>
               <g id="resetDef">
                       <use xlink:href="#rim2" fill="#404040">
                               <set attributeName="fill" to="#808080" begin="reset.mouseover" end="reset.mouseout"/>
                       </use>
               </g>
        </defs>

<script type="text/javascript">
var viewWidth = 721;
var viewHeight = 112;
var sectionId = 'dynsection-3';
</script>
<script xlink:href="svgpan.js"/>
<svg id="graph" class="graph">
<g id="viewport">
<title>v8::internal::ExecutionAccess::Lock</title>
<polygon fill="white" stroke="transparent" points="-4,4 -4,-108 717,-108 717,4 -4,4"/>
<!-- Node1 -->
<g id="node1" class="node">
<title>Node1</title>
<g id="a_node1"><a xlink:title=" ">
<polygon fill="#bfbfbf" stroke="black" points="0,-48.5 0,-78.5 159,-78.5 159,-48.5 0,-48.5"/>
<text text-anchor="start" x="8" y="-66.5" font-family="Helvetica,sans-Serif" font-size="10.00">v8::internal::ExecutionAccess</text>
<text text-anchor="middle" x="79.5" y="-55.5" font-family="Helvetica,sans-Serif" font-size="10.00">::Lock</text>
</a>
</g>
</g>
<!-- Node2 -->
<g id="node2" class="node">
<title>Node2</title>
<g id="a_node2"><a xlink:href="classv8_1_1internal_1_1Isolate.html#aee63083185199159f3950d326c6ddffe" target="_top" xlink:title=" ">
<polygon fill="white" stroke="black" points="211,-73.5 211,-103.5 322,-103.5 322,-73.5 211,-73.5"/>
<text text-anchor="start" x="219" y="-91.5" font-family="Helvetica,sans-Serif" font-size="10.00">v8::internal::Isolate</text>
<text text-anchor="middle" x="266.5" y="-80.5" font-family="Helvetica,sans-Serif" font-size="10.00">::break_access</text>
</a>
</g>
</g>
<!-- Node1&#45;&gt;Node2 -->
<g id="edge1" class="edge">
<title>Node1&#45;&gt;Node2</title>
<path fill="none" stroke="midnightblue" d="M159.22,-74.14C173.1,-76.01 187.39,-77.94 200.82,-79.76"/>
<polygon fill="midnightblue" stroke="midnightblue" points="200.52,-83.25 210.9,-81.12 201.46,-76.31 200.52,-83.25"/>
</g>
<!-- Node3 -->
<g id="node3" class="node">
<title>Node3</title>
<g id="a_node3"><a xlink:href="classv8_1_1base_1_1RecursiveMutex.html#a37a8771b715dac556b099bd4f90a5e12" target="_top" xlink:title=" ">
<polygon fill="white" stroke="black" points="195,-24.5 195,-54.5 338,-54.5 338,-24.5 195,-24.5"/>
<text text-anchor="start" x="203" y="-42.5" font-family="Helvetica,sans-Serif" font-size="10.00">v8::base::RecursiveMutex</text>
<text text-anchor="middle" x="266.5" y="-31.5" font-family="Helvetica,sans-Serif" font-size="10.00">::Lock</text>
</a>
</g>
</g>
<!-- Node1&#45;&gt;Node3 -->
<g id="edge2" class="edge">
<title>Node1&#45;&gt;Node3</title>
<path fill="none" stroke="midnightblue" d="M159.22,-53.29C167.61,-52.2 176.16,-51.09 184.57,-50"/>
<polygon fill="midnightblue" stroke="midnightblue" points="185.29,-53.44 194.76,-48.68 184.39,-46.49 185.29,-53.44"/>
</g>
<!-- Node4 -->
<g id="node4" class="node">
<title>Node4</title>
<g id="a_node4"><a xlink:href="classv8_1_1base_1_1OS.html#ab21ab688f2e6bcbeb2a40246967ec96f" target="_top" xlink:title=" ">
<polygon fill="white" stroke="black" points="374,-47.5 374,-77.5 511,-77.5 511,-47.5 374,-47.5"/>
<text text-anchor="start" x="382" y="-65.5" font-family="Helvetica,sans-Serif" font-size="10.00">v8::base::OS::GetCurrent</text>
<text text-anchor="middle" x="442.5" y="-54.5" font-family="Helvetica,sans-Serif" font-size="10.00">ThreadId</text>
</a>
</g>
</g>
<!-- Node3&#45;&gt;Node4 -->
<g id="edge3" class="edge">
<title>Node3&#45;&gt;Node4</title>
<path fill="none" stroke="midnightblue" d="M338.02,-48.82C346.55,-49.95 355.3,-51.11 363.93,-52.25"/>
<polygon fill="midnightblue" stroke="midnightblue" points="363.6,-55.73 373.98,-53.57 364.52,-48.79 363.6,-55.73"/>
</g>
<!-- Node6 -->
<g id="node6" class="node">
<title>Node6</title>
<g id="a_node6"><a xlink:href="classv8_1_1base_1_1Mutex.html#ad2dc6441de065f9f5c964a90ecf93f71" target="_top" xlink:title=" ">
<polygon fill="white" stroke="black" points="381,-8 381,-27 504,-27 504,-8 381,-8"/>
<text text-anchor="middle" x="442.5" y="-15" font-family="Helvetica,sans-Serif" font-size="10.00">v8::base::Mutex::Lock</text>
</a>
</g>
</g>
<!-- Node3&#45;&gt;Node6 -->
<g id="edge5" class="edge">
<title>Node3&#45;&gt;Node6</title>
<path fill="none" stroke="midnightblue" d="M338.02,-30.58C348.8,-29.22 359.93,-27.81 370.72,-26.45"/>
<polygon fill="midnightblue" stroke="midnightblue" points="371.45,-29.89 380.93,-25.16 370.57,-22.94 371.45,-29.89"/>
</g>
<!-- Node5 -->
<g id="node5" class="node">
<title>Node5</title>
<g id="a_node5"><a xlink:href="classv8_1_1base_1_1OS.html#a65d17cb687f7e35116e9cbc646414e41" target="_top" xlink:title=" ">
<polygon fill="white" stroke="black" points="561.5,-49.5 561.5,-79.5 698.5,-79.5 698.5,-49.5 561.5,-49.5"/>
<text text-anchor="start" x="569.5" y="-67.5" font-family="Helvetica,sans-Serif" font-size="10.00">v8::base::OS::GetCurrent</text>
<text text-anchor="middle" x="630" y="-56.5" font-family="Helvetica,sans-Serif" font-size="10.00">ThreadIdInternal</text>
</a>
</g>
</g>
<!-- Node4&#45;&gt;Node5 -->
<g id="edge4" class="edge">
<title>Node4&#45;&gt;Node5</title>
<path fill="none" stroke="midnightblue" d="M511.26,-63.23C524.29,-63.37 538.03,-63.52 551.35,-63.66"/>
<polygon fill="midnightblue" stroke="midnightblue" points="551.39,-67.16 561.43,-63.77 551.46,-60.16 551.39,-67.16"/>
</g>
<!-- Node7 -->
<g id="node7" class="node">
<title>Node7</title>
<g id="a_node7"><a xlink:href="classv8_1_1base_1_1Mutex.html#ab1778aaeb74e67897e16ad1ca148f6ba" target="_top" xlink:title=" ">
<polygon fill="white" stroke="black" points="547,-0.5 547,-30.5 713,-30.5 713,-0.5 547,-0.5"/>
<text text-anchor="start" x="555" y="-18.5" font-family="Helvetica,sans-Serif" font-size="10.00">v8::base::Mutex::AssertUnheld</text>
<text text-anchor="middle" x="630" y="-7.5" font-family="Helvetica,sans-Serif" font-size="10.00">AndMark</text>
</a>
</g>
</g>
<!-- Node6&#45;&gt;Node7 -->
<g id="edge6" class="edge">
<title>Node6&#45;&gt;Node7</title>
<path fill="none" stroke="midnightblue" d="M504.24,-16.85C514.68,-16.73 525.73,-16.61 536.77,-16.49"/>
<polygon fill="midnightblue" stroke="midnightblue" points="536.93,-19.99 546.89,-16.39 536.85,-12.99 536.93,-19.99"/>
</g>
</g>
</svg>
        <g id="navigator" transform="translate(0 0)" fill="#404254">
                <rect fill="#f2f5e9" fill-opacity="0.5" stroke="#606060" stroke-width=".5" x="0" y="0" width="60" height="60"/>
                <use id="zoomplus" xlink:href="#zoomPlus" x="17" y="9" onmousedown="handleZoom(evt,'in')"/>
                <use id="zoomminus" xlink:href="#zoomMin" x="42" y="9" onmousedown="handleZoom(evt,'out')"/>
                <use id="reset" xlink:href="#resetDef" x="30" y="36" onmousedown="handleReset()"/>
                <g id="arrowUp" xlink:href="#dirArrow" transform="translate(30 24)" onmousedown="handlePan(0,-1)">
                  <use xlink:href="#rim" fill="#404040">
                        <set attributeName="fill" to="#808080" begin="arrowUp.mouseover" end="arrowUp.mouseout"/>
                  </use>
                  <path fill="none" stroke="white" stroke-width="1.5" d="M0,-3.0v7 M-2.5,-0.5L0,-3.0L2.5,-0.5"/>
                </g>
                <g id="arrowRight" xlink:href="#dirArrow" transform="rotate(90) translate(36 -43)" onmousedown="handlePan(1,0)">
                  <use xlink:href="#rim" fill="#404040">
                        <set attributeName="fill" to="#808080" begin="arrowRight.mouseover" end="arrowRight.mouseout"/>
                  </use>
                  <path fill="none" stroke="white" stroke-width="1.5" d="M0,-3.0v7 M-2.5,-0.5L0,-3.0L2.5,-0.5"/>
                </g>
                <g id="arrowDown" xlink:href="#dirArrow" transform="rotate(180) translate(-30 -48)" onmousedown="handlePan(0,1)">
                  <use xlink:href="#rim" fill="#404040">
                        <set attributeName="fill" to="#808080" begin="arrowDown.mouseover" end="arrowDown.mouseout"/>
                  </use>
                  <path fill="none" stroke="white" stroke-width="1.5" d="M0,-3.0v7 M-2.5,-0.5L0,-3.0L2.5,-0.5"/>
                </g>
                <g id="arrowLeft" xlink:href="#dirArrow" transform="rotate(270) translate(-36 17)" onmousedown="handlePan(-1,0)">
                  <use xlink:href="#rim" fill="#404040">
                        <set attributeName="fill" to="#808080" begin="arrowLeft.mouseover" end="arrowLeft.mouseout"/>
                  </use>
                  <path fill="none" stroke="white" stroke-width="1.5" d="M0,-3.0v7 M-2.5,-0.5L0,-3.0L2.5,-0.5"/>
                </g>
        </g>
        <svg viewBox="0 0 15 15" width="100%" height="30px" preserveAspectRatio="xMaxYMin meet">
         <g id="arrow_out" transform="scale(0.3 0.3)">
          <a xlink:href="classv8_1_1internal_1_1ExecutionAccess_a3decec5284de3a9c1f919f55db590905_cgraph_org.svg" target="_base">
           <rect id="button" ry="5" rx="5" y="6" x="6" height="38" width="38"
                fill="#f2f5e9" fill-opacity="0.5" stroke="#606060" stroke-width="1.0"/>
           <path id="arrow"
             d="M 11.500037,31.436501 C 11.940474,20.09759 22.043105,11.32322 32.158766,21.979434 L 37.068811,17.246167 C 37.068811,17.246167 37.088388,32 37.088388,32 L 22.160133,31.978069 C 22.160133,31.978069 26.997745,27.140456 26.997745,27.140456 C 18.528582,18.264221 13.291696,25.230495 11.500037,31.436501 z"
             style="fill:#404040;"/>
          </a>
         </g>
        </svg>
</svg>
