<?xml version="1.0" encoding="UTF-8" standalone="no"?>
<!DOCTYPE svg PUBLIC "-//W3C//DTD SVG 1.1//EN"
 "http://www.w3.org/Graphics/SVG/1.1/DTD/svg11.dtd">
<!-- Generated by graphviz version 2.43.0 (0)
 -->
<!-- Title: v8::internal::maglev::ConstructWithSpread Pages: 1 -->
<svg width="296pt" height="184pt"
 viewBox="0.00 0.00 296.00 184.00" xmlns="http://www.w3.org/2000/svg" xmlns:xlink="http://www.w3.org/1999/xlink">
<g id="graph0" class="graph" transform="scale(1 1) rotate(0) translate(4 180)">
<title>v8::internal::maglev::ConstructWithSpread</title>
<polygon fill="white" stroke="transparent" points="-4,4 -4,-180 292,-180 292,4 -4,4"/>
<!-- Node1 -->
<g id="node1" class="node">
<title>Node1</title>
<g id="a_node1"><a xlink:title=" ">
<polygon fill="#bfbfbf" stroke="black" points="91,-0.5 91,-30.5 216,-30.5 216,-0.5 91,-0.5"/>
<text text-anchor="start" x="99" y="-18.5" font-family="Helvetica,sans-Serif" font-size="10.00">v8::internal::maglev</text>
<text text-anchor="middle" x="153.5" y="-7.5" font-family="Helvetica,sans-Serif" font-size="10.00">::ConstructWithSpread</text>
</a>
</g>
</g>
<!-- Node2 -->
<g id="node2" class="node">
<title>Node2</title>
<g id="a_node2"><a xlink:href="classv8_1_1internal_1_1maglev_1_1NodeTMixin.html" target="_top" xlink:title=" ">
<polygon fill="white" stroke="black" points="0,-78.5 0,-108.5 155,-108.5 155,-78.5 0,-78.5"/>
<text text-anchor="start" x="8" y="-96.5" font-family="Helvetica,sans-Serif" font-size="10.00">ValueNodeT&lt; ConstructWith</text>
<text text-anchor="middle" x="77.5" y="-85.5" font-family="Helvetica,sans-Serif" font-size="10.00">Spread &gt;</text>
</a>
</g>
</g>
<!-- Node2&#45;&gt;Node1 -->
<g id="edge1" class="edge">
<title>Node2&#45;&gt;Node1</title>
<path fill="none" stroke="midnightblue" d="M98.97,-71.03C111.87,-58.13 127.93,-42.07 139.27,-30.73"/>
<polygon fill="midnightblue" stroke="midnightblue" points="96.39,-68.66 91.8,-78.2 101.34,-73.61 96.39,-68.66"/>
</g>
<!-- Node3 -->
<g id="node3" class="node">
<title>Node3</title>
<g id="a_node3"><a xlink:title=" ">
<polygon fill="white" stroke="#bfbfbf" points="57,-156.5 57,-175.5 98,-175.5 98,-156.5 57,-156.5"/>
<text text-anchor="middle" x="77.5" y="-163.5" font-family="Helvetica,sans-Serif" font-size="10.00">Base</text>
</a>
</g>
</g>
<!-- Node3&#45;&gt;Node2 -->
<g id="edge2" class="edge">
<title>Node3&#45;&gt;Node2</title>
<path fill="none" stroke="midnightblue" d="M77.5,-146.24C77.5,-134.41 77.5,-119.38 77.5,-108.58"/>
<polygon fill="midnightblue" stroke="midnightblue" points="74,-146.36 77.5,-156.36 81,-146.36 74,-146.36"/>
</g>
<!-- Node4 -->
<g id="node4" class="node">
<title>Node4</title>
<g id="a_node4"><a xlink:href="classv8_1_1internal_1_1maglev_1_1OpProperties.html" target="_top" xlink:title=" ">
<polygon fill="white" stroke="black" points="173,-78.5 173,-108.5 288,-108.5 288,-78.5 173,-78.5"/>
<text text-anchor="start" x="181" y="-96.5" font-family="Helvetica,sans-Serif" font-size="10.00">v8::internal::maglev</text>
<text text-anchor="middle" x="230.5" y="-85.5" font-family="Helvetica,sans-Serif" font-size="10.00">::OpProperties</text>
</a>
</g>
</g>
<!-- Node4&#45;&gt;Node1 -->
<g id="edge3" class="edge">
<title>Node4&#45;&gt;Node1</title>
<path fill="none" stroke="#9a32cd" stroke-dasharray="5,2" d="M208.75,-71.03C195.68,-58.13 179.41,-42.07 167.92,-30.73"/>
<polygon fill="#9a32cd" stroke="#9a32cd" points="206.44,-73.67 216.02,-78.2 211.36,-68.69 206.44,-73.67"/>
<text text-anchor="middle" x="227" y="-52" font-family="Helvetica,sans-Serif" font-size="10.00"> kProperties</text>
</g>
<!-- Node5 -->
<g id="node5" class="node">
<title>Node5</title>
<g id="a_node5"><a xlink:title=" ">
<polygon fill="white" stroke="#bfbfbf" points="209,-156.5 209,-175.5 252,-175.5 252,-156.5 209,-156.5"/>
<text text-anchor="middle" x="230.5" y="-163.5" font-family="Helvetica,sans-Serif" font-size="10.00">const</text>
</a>
</g>
</g>
<!-- Node5&#45;&gt;Node4 -->
<g id="edge4" class="edge">
<title>Node5&#45;&gt;Node4</title>
<path fill="none" stroke="#9a32cd" stroke-dasharray="5,2" d="M230.5,-146.24C230.5,-134.41 230.5,-119.38 230.5,-108.58"/>
<polygon fill="#9a32cd" stroke="#9a32cd" points="227,-146.36 230.5,-156.36 234,-146.36 227,-146.36"/>
<text text-anchor="middle" x="245.5" y="-130" font-family="Helvetica,sans-Serif" font-size="10.00"> kSize</text>
</g>
</g>
</svg>
