<?xml version="1.0" encoding="UTF-8" standalone="no"?>
<!DOCTYPE svg PUBLIC "-//W3C//DTD SVG 1.1//EN"
 "http://www.w3.org/Graphics/SVG/1.1/DTD/svg11.dtd">
<!-- Generated by graphviz version 2.43.0 (0)
 -->
<!-- Title: v8::internal::AllocationSite::PointsToLiteral Pages: 1 -->
<!--zoomable 235 -->
<svg id="main" version="1.1" xmlns="http://www.w3.org/2000/svg" xmlns:xlink="http://www.w3.org/1999/xlink" xml:space="preserve" onload="init(evt)">
<style type="text/css"><![CDATA[
.edge:hover path { stroke: red; }
.edge:hover polygon { stroke: red; fill: red; }
]]></style>
<script type="text/javascript"><![CDATA[
var edges = document.getElementsByTagName('g');
if (edges && edges.length) {
  for (var i=0;i<edges.length;i++) {
    if (edges[i].id.substr(0,4)=='edge') {
      edges[i].setAttribute('class','edge');
    }
  }
}
]]></script>
        <defs>
                <circle id="rim" cx="0" cy="0" r="7"/>
                <circle id="rim2" cx="0" cy="0" r="3.5"/>
                <g id="zoomPlus">
                        <use xlink:href="#rim" fill="#404040">
                                <set attributeName="fill" to="#808080" begin="zoomplus.mouseover" end="zoomplus.mouseout"/>
                        </use>
                        <path d="M-4,0h8M0,-4v8" fill="none" stroke="white" stroke-width="1.5" pointer-events="none"/>
                </g>
                <g id="zoomMin">
                        <use xlink:href="#rim" fill="#404040">
                                <set attributeName="fill" to="#808080" begin="zoomminus.mouseover" end="zoomminus.mouseout"/>
                        </use>
                        <path d="M-4,0h8" fill="none" stroke="white" stroke-width="1.5" pointer-events="none"/>
                </g>
                <g id="dirArrow">
                        <path fill="none" stroke="white" stroke-width="1.5" d="M0,-3.0v7 M-2.5,-0.5L0,-3.0L2.5,-0.5"/>
                </g>
               <g id="resetDef">
                       <use xlink:href="#rim2" fill="#404040">
                               <set attributeName="fill" to="#808080" begin="reset.mouseover" end="reset.mouseout"/>
                       </use>
               </g>
        </defs>

<script type="text/javascript">
var viewWidth = 669;
var viewHeight = 235;
var sectionId = 'dynsection-26';
</script>
<script xlink:href="svgpan.js"/>
<svg id="graph" class="graph">
<g id="viewport">
<title>v8::internal::AllocationSite::PointsToLiteral</title>
<polygon fill="white" stroke="transparent" points="-4,4 -4,-231 665,-231 665,4 -4,4"/>
<!-- Node1 -->
<g id="node1" class="node">
<title>Node1</title>
<g id="a_node1"><a xlink:title=" ">
<polygon fill="#bfbfbf" stroke="black" points="534,-147.5 534,-177.5 661,-177.5 661,-147.5 534,-147.5"/>
<text text-anchor="start" x="542" y="-165.5" font-family="Helvetica,sans-Serif" font-size="10.00">v8::internal::Allocation</text>
<text text-anchor="middle" x="597.5" y="-154.5" font-family="Helvetica,sans-Serif" font-size="10.00">Site::PointsToLiteral</text>
</a>
</g>
</g>
<!-- Node2 -->
<g id="node2" class="node">
<title>Node2</title>
<g id="a_node2"><a xlink:href="classv8_1_1internal_1_1AllocationSite.html#aab6bafdfe2a3aff7c29dbd2e258d79f4" target="_top" xlink:title=" ">
<polygon fill="white" stroke="black" points="368.5,-196.5 368.5,-226.5 495.5,-226.5 495.5,-196.5 368.5,-196.5"/>
<text text-anchor="start" x="376.5" y="-214.5" font-family="Helvetica,sans-Serif" font-size="10.00">v8::internal::Allocation</text>
<text text-anchor="middle" x="432" y="-203.5" font-family="Helvetica,sans-Serif" font-size="10.00">Site::boilerplate</text>
</a>
</g>
</g>
<!-- Node1&#45;&gt;Node2 -->
<g id="edge1" class="edge">
<title>Node1&#45;&gt;Node2</title>
<path fill="none" stroke="midnightblue" d="M536.06,-180.61C518.68,-185.82 499.92,-191.45 483.22,-196.45"/>
<polygon fill="midnightblue" stroke="midnightblue" points="537.54,-183.82 546.11,-177.6 535.53,-177.12 537.54,-183.82"/>
</g>
<!-- Node4 -->
<g id="node4" class="node">
<title>Node4</title>
<g id="a_node4"><a xlink:href="classv8_1_1internal_1_1AllocationSite.html#ad34971d73cc68b8a3386c04cc6b9b007" target="_top" xlink:title=" ">
<polygon fill="white" stroke="black" points="366,-147.5 366,-177.5 498,-177.5 498,-147.5 366,-147.5"/>
<text text-anchor="start" x="374" y="-165.5" font-family="Helvetica,sans-Serif" font-size="10.00">v8::internal::Allocation</text>
<text text-anchor="middle" x="432" y="-154.5" font-family="Helvetica,sans-Serif" font-size="10.00">Site::set_transition_info</text>
</a>
</g>
</g>
<!-- Node1&#45;&gt;Node4 -->
<g id="edge3" class="edge">
<title>Node1&#45;&gt;Node4</title>
<path fill="none" stroke="midnightblue" d="M523.49,-162.5C515,-162.5 506.39,-162.5 498.02,-162.5"/>
<polygon fill="midnightblue" stroke="midnightblue" points="523.75,-166 533.75,-162.5 523.75,-159 523.75,-166"/>
</g>
<!-- Node9 -->
<g id="node8" class="node">
<title>Node9</title>
<g id="a_node8"><a xlink:href="classv8_1_1internal_1_1AllocationSite.html#a760dea1083d2a00f6acffba919506f8e" target="_top" xlink:title=" ">
<polygon fill="white" stroke="black" points="368.5,-98.5 368.5,-128.5 495.5,-128.5 495.5,-98.5 368.5,-98.5"/>
<text text-anchor="start" x="376.5" y="-116.5" font-family="Helvetica,sans-Serif" font-size="10.00">v8::internal::Allocation</text>
<text text-anchor="middle" x="432" y="-105.5" font-family="Helvetica,sans-Serif" font-size="10.00">Site::transition_info</text>
</a>
</g>
</g>
<!-- Node1&#45;&gt;Node9 -->
<g id="edge7" class="edge">
<title>Node1&#45;&gt;Node9</title>
<path fill="none" stroke="midnightblue" d="M536.06,-144.39C518.68,-139.18 499.92,-133.55 483.22,-128.55"/>
<polygon fill="midnightblue" stroke="midnightblue" points="535.53,-147.88 546.11,-147.4 537.54,-141.18 535.53,-147.88"/>
</g>
<!-- Node3 -->
<g id="node3" class="node">
<title>Node3</title>
<g id="a_node3"><a xlink:href="classv8_1_1internal_1_1AllocationSite.html#a4f12a49f4fa93e1d0c04e02cd8cdf84e" target="_top" xlink:title=" ">
<polygon fill="white" stroke="black" points="163,-196.5 163,-226.5 330,-226.5 330,-196.5 163,-196.5"/>
<text text-anchor="start" x="171" y="-214.5" font-family="Helvetica,sans-Serif" font-size="10.00">v8::internal::Allocation</text>
<text text-anchor="middle" x="246.5" y="-203.5" font-family="Helvetica,sans-Serif" font-size="10.00">Site::DigestTransitionFeedback</text>
</a>
</g>
</g>
<!-- Node2&#45;&gt;Node3 -->
<g id="edge2" class="edge">
<title>Node2&#45;&gt;Node3</title>
<path fill="none" stroke="midnightblue" d="M358.16,-211.5C349.01,-211.5 339.59,-211.5 330.3,-211.5"/>
<polygon fill="midnightblue" stroke="midnightblue" points="358.36,-215 368.36,-211.5 358.36,-208 358.36,-215"/>
</g>
<!-- Node5 -->
<g id="node5" class="node">
<title>Node5</title>
<g id="a_node5"><a xlink:href="classv8_1_1internal_1_1AllocationSite.html#a3e9fcf250995d87d2c31e05c6e4e6ce5" target="_top" xlink:title=" ">
<polygon fill="white" stroke="black" points="179.5,-98.5 179.5,-128.5 313.5,-128.5 313.5,-98.5 179.5,-98.5"/>
<text text-anchor="start" x="187.5" y="-116.5" font-family="Helvetica,sans-Serif" font-size="10.00">v8::internal::Allocation</text>
<text text-anchor="middle" x="246.5" y="-105.5" font-family="Helvetica,sans-Serif" font-size="10.00">Site::SetDoNotInlineCall</text>
</a>
</g>
</g>
<!-- Node4&#45;&gt;Node5 -->
<g id="edge4" class="edge">
<title>Node4&#45;&gt;Node5</title>
<path fill="none" stroke="midnightblue" d="M365,-144.88C344.93,-139.52 323.06,-133.68 303.7,-128.51"/>
<polygon fill="midnightblue" stroke="midnightblue" points="364.13,-148.27 374.7,-147.47 365.94,-141.5 364.13,-148.27"/>
</g>
<!-- Node6 -->
<g id="node6" class="node">
<title>Node6</title>
<g id="a_node6"><a xlink:href="classv8_1_1internal_1_1AllocationSite.html#adf1136948311998f7ead14bcf8f2cfd8" target="_top" xlink:title=" ">
<polygon fill="white" stroke="black" points="183,-147.5 183,-177.5 310,-177.5 310,-147.5 183,-147.5"/>
<text text-anchor="start" x="191" y="-165.5" font-family="Helvetica,sans-Serif" font-size="10.00">v8::internal::Allocation</text>
<text text-anchor="middle" x="246.5" y="-154.5" font-family="Helvetica,sans-Serif" font-size="10.00">Site::SetElementsKind</text>
</a>
</g>
</g>
<!-- Node4&#45;&gt;Node6 -->
<g id="edge5" class="edge">
<title>Node4&#45;&gt;Node6</title>
<path fill="none" stroke="midnightblue" d="M355.45,-162.5C340.35,-162.5 324.64,-162.5 310.04,-162.5"/>
<polygon fill="midnightblue" stroke="midnightblue" points="355.79,-166 365.79,-162.5 355.79,-159 355.79,-166"/>
</g>
<!-- Node7 -->
<g id="node7" class="node">
<title>Node7</title>
<g id="a_node7"><a xlink:href="classv8_1_1internal_1_1AllocationSite.html#a81f61008e147366d1eea6cdbae9d5ded" target="_top" xlink:title=" ">
<polygon fill="white" stroke="red" points="0,-147.5 0,-177.5 127,-177.5 127,-147.5 0,-147.5"/>
<text text-anchor="start" x="8" y="-165.5" font-family="Helvetica,sans-Serif" font-size="10.00">v8::internal::Allocation</text>
<text text-anchor="middle" x="63.5" y="-154.5" font-family="Helvetica,sans-Serif" font-size="10.00">Site::Initialize</text>
</a>
</g>
</g>
<!-- Node6&#45;&gt;Node7 -->
<g id="edge6" class="edge">
<title>Node6&#45;&gt;Node7</title>
<path fill="none" stroke="midnightblue" d="M172.63,-162.5C157.53,-162.5 141.74,-162.5 127.05,-162.5"/>
<polygon fill="midnightblue" stroke="midnightblue" points="172.96,-166 182.96,-162.5 172.96,-159 172.96,-166"/>
</g>
<!-- Node9&#45;&gt;Node5 -->
<g id="edge10" class="edge">
<title>Node9&#45;&gt;Node5</title>
<path fill="none" stroke="midnightblue" d="M358.29,-113.5C343.54,-113.5 328.11,-113.5 313.61,-113.5"/>
<polygon fill="midnightblue" stroke="midnightblue" points="358.36,-117 368.36,-113.5 358.36,-110 358.36,-117"/>
</g>
<!-- Node9&#45;&gt;Node6 -->
<g id="edge11" class="edge">
<title>Node9&#45;&gt;Node6</title>
<path fill="none" stroke="midnightblue" d="M365,-131.12C344.93,-136.48 323.06,-142.32 303.7,-147.49"/>
<polygon fill="midnightblue" stroke="midnightblue" points="365.94,-134.5 374.7,-128.53 364.13,-127.73 365.94,-134.5"/>
</g>
<!-- Node10 -->
<g id="node9" class="node">
<title>Node10</title>
<g id="a_node9"><a xlink:href="classv8_1_1internal_1_1AllocationSite.html#aab240b53ca5f3f2cd6fe7698e69bf082" target="_top" xlink:title=" ">
<polygon fill="white" stroke="black" points="183,-0.5 183,-30.5 310,-30.5 310,-0.5 183,-0.5"/>
<text text-anchor="start" x="191" y="-18.5" font-family="Helvetica,sans-Serif" font-size="10.00">v8::internal::Allocation</text>
<text text-anchor="middle" x="246.5" y="-7.5" font-family="Helvetica,sans-Serif" font-size="10.00">Site::CanInlineCall</text>
</a>
</g>
</g>
<!-- Node9&#45;&gt;Node10 -->
<g id="edge8" class="edge">
<title>Node9&#45;&gt;Node10</title>
<path fill="none" stroke="midnightblue" d="M406.1,-91.88C386.53,-75.81 357.99,-54.37 330,-40.5 322.49,-36.78 314.32,-33.49 306.13,-30.62"/>
<polygon fill="midnightblue" stroke="midnightblue" points="403.99,-94.67 413.91,-98.39 408.48,-89.3 403.99,-94.67"/>
</g>
<!-- Node11 -->
<g id="node10" class="node">
<title>Node11</title>
<g id="a_node10"><a xlink:href="classv8_1_1internal_1_1AllocationSite.html#a1add82cc1996137a15e395fbf2a2e09f" target="_top" xlink:title=" ">
<polygon fill="white" stroke="black" points="183,-49.5 183,-79.5 310,-79.5 310,-49.5 183,-49.5"/>
<text text-anchor="start" x="191" y="-67.5" font-family="Helvetica,sans-Serif" font-size="10.00">v8::internal::Allocation</text>
<text text-anchor="middle" x="246.5" y="-56.5" font-family="Helvetica,sans-Serif" font-size="10.00">Site::GetElementsKind</text>
</a>
</g>
</g>
<!-- Node9&#45;&gt;Node11 -->
<g id="edge9" class="edge">
<title>Node9&#45;&gt;Node11</title>
<path fill="none" stroke="midnightblue" d="M365,-95.88C344.93,-90.52 323.06,-84.68 303.7,-79.51"/>
<polygon fill="midnightblue" stroke="midnightblue" points="364.13,-99.27 374.7,-98.47 365.94,-92.5 364.13,-99.27"/>
</g>
</g>
</svg>
        <g id="navigator" transform="translate(0 0)" fill="#404254">
                <rect fill="#f2f5e9" fill-opacity="0.5" stroke="#606060" stroke-width=".5" x="0" y="0" width="60" height="60"/>
                <use id="zoomplus" xlink:href="#zoomPlus" x="17" y="9" onmousedown="handleZoom(evt,'in')"/>
                <use id="zoomminus" xlink:href="#zoomMin" x="42" y="9" onmousedown="handleZoom(evt,'out')"/>
                <use id="reset" xlink:href="#resetDef" x="30" y="36" onmousedown="handleReset()"/>
                <g id="arrowUp" xlink:href="#dirArrow" transform="translate(30 24)" onmousedown="handlePan(0,-1)">
                  <use xlink:href="#rim" fill="#404040">
                        <set attributeName="fill" to="#808080" begin="arrowUp.mouseover" end="arrowUp.mouseout"/>
                  </use>
                  <path fill="none" stroke="white" stroke-width="1.5" d="M0,-3.0v7 M-2.5,-0.5L0,-3.0L2.5,-0.5"/>
                </g>
                <g id="arrowRight" xlink:href="#dirArrow" transform="rotate(90) translate(36 -43)" onmousedown="handlePan(1,0)">
                  <use xlink:href="#rim" fill="#404040">
                        <set attributeName="fill" to="#808080" begin="arrowRight.mouseover" end="arrowRight.mouseout"/>
                  </use>
                  <path fill="none" stroke="white" stroke-width="1.5" d="M0,-3.0v7 M-2.5,-0.5L0,-3.0L2.5,-0.5"/>
                </g>
                <g id="arrowDown" xlink:href="#dirArrow" transform="rotate(180) translate(-30 -48)" onmousedown="handlePan(0,1)">
                  <use xlink:href="#rim" fill="#404040">
                        <set attributeName="fill" to="#808080" begin="arrowDown.mouseover" end="arrowDown.mouseout"/>
                  </use>
                  <path fill="none" stroke="white" stroke-width="1.5" d="M0,-3.0v7 M-2.5,-0.5L0,-3.0L2.5,-0.5"/>
                </g>
                <g id="arrowLeft" xlink:href="#dirArrow" transform="rotate(270) translate(-36 17)" onmousedown="handlePan(-1,0)">
                  <use xlink:href="#rim" fill="#404040">
                        <set attributeName="fill" to="#808080" begin="arrowLeft.mouseover" end="arrowLeft.mouseout"/>
                  </use>
                  <path fill="none" stroke="white" stroke-width="1.5" d="M0,-3.0v7 M-2.5,-0.5L0,-3.0L2.5,-0.5"/>
                </g>
        </g>
        <svg viewBox="0 0 15 15" width="100%" height="30px" preserveAspectRatio="xMaxYMin meet">
         <g id="arrow_out" transform="scale(0.3 0.3)">
          <a xlink:href="classv8_1_1internal_1_1AllocationSite_a1ada880cd600c59f8de3bfa32fdc956a_icgraph_org.svg" target="_base">
           <rect id="button" ry="5" rx="5" y="6" x="6" height="38" width="38"
                fill="#f2f5e9" fill-opacity="0.5" stroke="#606060" stroke-width="1.0"/>
           <path id="arrow"
             d="M 11.500037,31.436501 C 11.940474,20.09759 22.043105,11.32322 32.158766,21.979434 L 37.068811,17.246167 C 37.068811,17.246167 37.088388,32 37.088388,32 L 22.160133,31.978069 C 22.160133,31.978069 26.997745,27.140456 26.997745,27.140456 C 18.528582,18.264221 13.291696,25.230495 11.500037,31.436501 z"
             style="fill:#404040;"/>
          </a>
         </g>
        </svg>
</svg>
