<?xml version="1.0" encoding="UTF-8" standalone="no"?>
<!DOCTYPE svg PUBLIC "-//W3C//DTD SVG 1.1//EN"
 "http://www.w3.org/Graphics/SVG/1.1/DTD/svg11.dtd">
<!-- Generated by graphviz version 2.43.0 (0)
 -->
<!-- Title: v8::internal::SerializedHandleChecker::SerializedHandleChecker Pages: 1 -->
<svg width="364pt" height="88pt"
 viewBox="0.00 0.00 364.00 88.00" xmlns="http://www.w3.org/2000/svg" xmlns:xlink="http://www.w3.org/1999/xlink">
<g id="graph0" class="graph" transform="scale(1 1) rotate(0) translate(4 84)">
<title>v8::internal::SerializedHandleChecker::SerializedHandleChecker</title>
<polygon fill="white" stroke="transparent" points="-4,4 -4,-84 360,-84 360,4 -4,4"/>
<!-- Node1 -->
<g id="node1" class="node">
<title>Node1</title>
<g id="a_node1"><a xlink:title=" ">
<polygon fill="#bfbfbf" stroke="black" points="0,-19 0,-60 179,-60 179,-19 0,-19"/>
<text text-anchor="start" x="8" y="-48" font-family="Helvetica,sans-Serif" font-size="10.00">v8::internal::Serialized</text>
<text text-anchor="start" x="8" y="-37" font-family="Helvetica,sans-Serif" font-size="10.00">HandleChecker::SerializedHandle</text>
<text text-anchor="middle" x="89.5" y="-26" font-family="Helvetica,sans-Serif" font-size="10.00">Checker</text>
</a>
</g>
</g>
<!-- Node2 -->
<g id="node2" class="node">
<title>Node2</title>
<g id="a_node2"><a xlink:href="classv8_1_1internal_1_1SerializedHandleChecker.html#af56278240301fc014497039b3474d3c3" target="_top" xlink:title=" ">
<polygon fill="white" stroke="black" points="215,-49.5 215,-79.5 356,-79.5 356,-49.5 215,-49.5"/>
<text text-anchor="start" x="223" y="-67.5" font-family="Helvetica,sans-Serif" font-size="10.00">v8::internal::Serialized</text>
<text text-anchor="middle" x="285.5" y="-56.5" font-family="Helvetica,sans-Serif" font-size="10.00">HandleChecker::AddToSet</text>
</a>
</g>
</g>
<!-- Node1&#45;&gt;Node2 -->
<g id="edge1" class="edge">
<title>Node1&#45;&gt;Node2</title>
<path fill="none" stroke="midnightblue" d="M179.27,-50.94C187.78,-52.04 196.38,-53.14 204.79,-54.23"/>
<polygon fill="midnightblue" stroke="midnightblue" points="204.59,-57.73 214.95,-55.54 205.48,-50.79 204.59,-57.73"/>
</g>
<!-- Node3 -->
<g id="node3" class="node">
<title>Node3</title>
<g id="a_node3"><a xlink:href="classv8_1_1internal_1_1Isolate.html#ac74a11613906581a9989b1cb7f7b3275" target="_top" xlink:title=" ">
<polygon fill="white" stroke="black" points="230,-0.5 230,-30.5 341,-30.5 341,-0.5 230,-0.5"/>
<text text-anchor="start" x="238" y="-18.5" font-family="Helvetica,sans-Serif" font-size="10.00">v8::internal::Isolate</text>
<text text-anchor="middle" x="285.5" y="-7.5" font-family="Helvetica,sans-Serif" font-size="10.00">::heap</text>
</a>
</g>
</g>
<!-- Node1&#45;&gt;Node3 -->
<g id="edge2" class="edge">
<title>Node1&#45;&gt;Node3</title>
<path fill="none" stroke="midnightblue" d="M179.27,-28.52C192.89,-26.83 206.72,-25.12 219.7,-23.52"/>
<polygon fill="midnightblue" stroke="midnightblue" points="220.4,-26.96 229.89,-22.26 219.54,-20.01 220.4,-26.96"/>
</g>
</g>
</svg>
