<?xml version="1.0" encoding="UTF-8" standalone="no"?>
<!DOCTYPE svg PUBLIC "-//W3C//DTD SVG 1.1//EN"
 "http://www.w3.org/Graphics/SVG/1.1/DTD/svg11.dtd">
<!-- Generated by graphviz version 2.43.0 (0)
 -->
<!-- Title: v8::internal::V8HeapExplorer::CollectTemporaryGlobalObjectsTags Pages: 1 -->
<!--zoomable 194 -->
<svg id="main" version="1.1" xmlns="http://www.w3.org/2000/svg" xmlns:xlink="http://www.w3.org/1999/xlink" xml:space="preserve" onload="init(evt)">
<style type="text/css"><![CDATA[
.edge:hover path { stroke: red; }
.edge:hover polygon { stroke: red; fill: red; }
]]></style>
<script type="text/javascript"><![CDATA[
var edges = document.getElementsByTagName('g');
if (edges && edges.length) {
  for (var i=0;i<edges.length;i++) {
    if (edges[i].id.substr(0,4)=='edge') {
      edges[i].setAttribute('class','edge');
    }
  }
}
]]></script>
        <defs>
                <circle id="rim" cx="0" cy="0" r="7"/>
                <circle id="rim2" cx="0" cy="0" r="3.5"/>
                <g id="zoomPlus">
                        <use xlink:href="#rim" fill="#404040">
                                <set attributeName="fill" to="#808080" begin="zoomplus.mouseover" end="zoomplus.mouseout"/>
                        </use>
                        <path d="M-4,0h8M0,-4v8" fill="none" stroke="white" stroke-width="1.5" pointer-events="none"/>
                </g>
                <g id="zoomMin">
                        <use xlink:href="#rim" fill="#404040">
                                <set attributeName="fill" to="#808080" begin="zoomminus.mouseover" end="zoomminus.mouseout"/>
                        </use>
                        <path d="M-4,0h8" fill="none" stroke="white" stroke-width="1.5" pointer-events="none"/>
                </g>
                <g id="dirArrow">
                        <path fill="none" stroke="white" stroke-width="1.5" d="M0,-3.0v7 M-2.5,-0.5L0,-3.0L2.5,-0.5"/>
                </g>
               <g id="resetDef">
                       <use xlink:href="#rim2" fill="#404040">
                               <set attributeName="fill" to="#808080" begin="reset.mouseover" end="reset.mouseout"/>
                       </use>
               </g>
        </defs>

<script type="text/javascript">
var viewWidth = 1726;
var viewHeight = 194;
var sectionId = 'dynsection-9';
</script>
<script xlink:href="svgpan.js"/>
<svg id="graph" class="graph">
<g id="viewport">
<title>v8::internal::V8HeapExplorer::CollectTemporaryGlobalObjectsTags</title>
<polygon fill="white" stroke="transparent" points="-4,4 -4,-189.5 1722,-189.5 1722,4 -4,4"/>
<!-- Node1 -->
<g id="node1" class="node">
<title>Node1</title>
<g id="a_node1"><a xlink:title=" ">
<polygon fill="#bfbfbf" stroke="black" points="1520,-126.5 1520,-156.5 1718,-156.5 1718,-126.5 1520,-126.5"/>
<text text-anchor="start" x="1528" y="-144.5" font-family="Helvetica,sans-Serif" font-size="10.00">v8::internal::V8HeapExplorer</text>
<text text-anchor="middle" x="1619" y="-133.5" font-family="Helvetica,sans-Serif" font-size="10.00">::CollectTemporaryGlobalObjectsTags</text>
</a>
</g>
</g>
<!-- Node2 -->
<g id="node2" class="node">
<title>Node2</title>
<g id="a_node2"><a xlink:href="classv8_1_1internal_1_1HeapSnapshotGenerator.html#a5119a215e57adbedee69fde36570a0dc" target="_top" xlink:title=" ">
<polygon fill="white" stroke="black" points="348,-129.5 348,-159.5 509,-159.5 509,-129.5 348,-129.5"/>
<text text-anchor="start" x="356" y="-147.5" font-family="Helvetica,sans-Serif" font-size="10.00">v8::internal::HeapSnapshot</text>
<text text-anchor="middle" x="428.5" y="-136.5" font-family="Helvetica,sans-Serif" font-size="10.00">Generator::GenerateSnapshot</text>
</a>
</g>
</g>
<!-- Node1&#45;&gt;Node2 -->
<g id="edge1" class="edge">
<title>Node1&#45;&gt;Node2</title>
<path fill="none" stroke="midnightblue" d="M1510.78,-157.91C1419.79,-170.42 1285.65,-185.5 1168,-185.5 1168,-185.5 1168,-185.5 787,-185.5 690.95,-185.5 581.32,-170.71 509.07,-158.9"/>
<polygon fill="midnightblue" stroke="midnightblue" points="1511.41,-161.36 1520.83,-156.52 1510.44,-154.43 1511.41,-161.36"/>
</g>
<!-- Node11 -->
<g id="node6" class="node">
<title>Node11</title>
<g id="a_node6"><a xlink:href="classv8_1_1internal_1_1HeapSnapshotGenerator.html#a116fa422f2c57bc373d7122c202502e7" target="_top" xlink:title=" ">
<polygon fill="white" stroke="black" points="1285,-104.5 1285,-134.5 1484,-134.5 1484,-104.5 1285,-104.5"/>
<text text-anchor="start" x="1293" y="-122.5" font-family="Helvetica,sans-Serif" font-size="10.00">v8::internal::HeapSnapshot</text>
<text text-anchor="middle" x="1384.5" y="-111.5" font-family="Helvetica,sans-Serif" font-size="10.00">Generator::GenerateSnapshotAfterGC</text>
</a>
</g>
</g>
<!-- Node1&#45;&gt;Node11 -->
<g id="edge5" class="edge">
<title>Node1&#45;&gt;Node11</title>
<path fill="none" stroke="midnightblue" d="M1509.75,-131.26C1501.22,-130.45 1492.62,-129.64 1484.16,-128.84"/>
<polygon fill="midnightblue" stroke="midnightblue" points="1509.45,-134.74 1519.74,-132.2 1510.11,-127.78 1509.45,-134.74"/>
</g>
<!-- Node3 -->
<g id="node3" class="node">
<title>Node3</title>
<g id="a_node3"><a xlink:href="classv8_1_1internal_1_1HeapProfiler.html#ae93c48dd93a0e66fea84c8fecfd0ca8c" target="_top" xlink:title=" ">
<polygon fill="white" stroke="black" points="174,-129.5 174,-159.5 312,-159.5 312,-129.5 174,-129.5"/>
<text text-anchor="start" x="182" y="-147.5" font-family="Helvetica,sans-Serif" font-size="10.00">v8::internal::HeapProfiler</text>
<text text-anchor="middle" x="243" y="-136.5" font-family="Helvetica,sans-Serif" font-size="10.00">::TakeSnapshot</text>
</a>
</g>
</g>
<!-- Node2&#45;&gt;Node3 -->
<g id="edge2" class="edge">
<title>Node2&#45;&gt;Node3</title>
<path fill="none" stroke="midnightblue" d="M337.73,-144.5C329.11,-144.5 320.48,-144.5 312.12,-144.5"/>
<polygon fill="midnightblue" stroke="midnightblue" points="337.81,-148 347.81,-144.5 337.81,-141 337.81,-148"/>
</g>
<!-- Node4 -->
<g id="node4" class="node">
<title>Node4</title>
<g id="a_node4"><a xlink:href="classv8_1_1internal_1_1HeapProfiler.html#a4288476dca3f68f111e852720b1a8e93" target="_top" xlink:title=" ">
<polygon fill="white" stroke="red" points="0,-154.5 0,-184.5 138,-184.5 138,-154.5 0,-154.5"/>
<text text-anchor="start" x="8" y="-172.5" font-family="Helvetica,sans-Serif" font-size="10.00">v8::internal::HeapProfiler</text>
<text text-anchor="middle" x="69" y="-161.5" font-family="Helvetica,sans-Serif" font-size="10.00">::TakeSnapshotToFile</text>
</a>
</g>
</g>
<!-- Node3&#45;&gt;Node4 -->
<g id="edge3" class="edge">
<title>Node3&#45;&gt;Node4</title>
<path fill="none" stroke="midnightblue" d="M163.36,-155.93C154.97,-157.15 146.49,-158.38 138.24,-159.58"/>
<polygon fill="midnightblue" stroke="midnightblue" points="164.13,-159.35 173.53,-154.45 163.13,-152.43 164.13,-159.35"/>
</g>
<!-- Node10 -->
<g id="node5" class="node">
<title>Node10</title>
<g id="a_node5"><a xlink:href="classv8_1_1internal_1_1HeapProfiler.html#a3c15763635a5e3e1e51d30bdf1e1fa94" target="_top" xlink:title=" ">
<polygon fill="white" stroke="black" points="0,-105.5 0,-135.5 138,-135.5 138,-105.5 0,-105.5"/>
<text text-anchor="start" x="8" y="-123.5" font-family="Helvetica,sans-Serif" font-size="10.00">v8::internal::HeapProfiler</text>
<text text-anchor="middle" x="69" y="-112.5" font-family="Helvetica,sans-Serif" font-size="10.00">::TakeSnapshotToString</text>
</a>
</g>
</g>
<!-- Node3&#45;&gt;Node10 -->
<g id="edge4" class="edge">
<title>Node3&#45;&gt;Node10</title>
<path fill="none" stroke="midnightblue" d="M163.36,-133.53C154.97,-132.36 146.49,-131.17 138.24,-130.02"/>
<polygon fill="midnightblue" stroke="midnightblue" points="163.14,-137.03 173.53,-134.95 164.11,-130.1 163.14,-137.03"/>
</g>
<!-- Node12 -->
<g id="node7" class="node">
<title>Node12</title>
<g id="a_node7"><a xlink:href="classv8_1_1internal_1_1HeapProfiler.html#a80f13262a12e719a2309bf6cf59a7e43" target="_top" xlink:title=" ">
<polygon fill="white" stroke="black" points="1085,-82.5 1085,-112.5 1249,-112.5 1249,-82.5 1085,-82.5"/>
<text text-anchor="start" x="1093" y="-100.5" font-family="Helvetica,sans-Serif" font-size="10.00">v8::internal::HeapProfiler</text>
<text text-anchor="middle" x="1167" y="-89.5" font-family="Helvetica,sans-Serif" font-size="10.00">::WriteSnapshotToDiskAfterGC</text>
</a>
</g>
</g>
<!-- Node11&#45;&gt;Node12 -->
<g id="edge6" class="edge">
<title>Node11&#45;&gt;Node12</title>
<path fill="none" stroke="midnightblue" d="M1274.77,-108.4C1266.14,-107.52 1257.52,-106.64 1249.13,-105.78"/>
<polygon fill="midnightblue" stroke="midnightblue" points="1274.59,-111.9 1284.89,-109.43 1275.3,-104.94 1274.59,-111.9"/>
</g>
<!-- Node13 -->
<g id="node8" class="node">
<title>Node13</title>
<g id="a_node8"><a xlink:href="classv8_1_1internal_1_1Heap.html#ae60c3651385018c15897f580283fec9e" target="_top" xlink:title=" ">
<polygon fill="white" stroke="red" points="890,-126.5 890,-156.5 1035,-156.5 1035,-126.5 890,-126.5"/>
<text text-anchor="start" x="898" y="-144.5" font-family="Helvetica,sans-Serif" font-size="10.00">v8::internal::Heap</text>
<text text-anchor="middle" x="962.5" y="-133.5" font-family="Helvetica,sans-Serif" font-size="10.00">::CheckHeapLimitReached</text>
</a>
</g>
</g>
<!-- Node12&#45;&gt;Node13 -->
<g id="edge7" class="edge">
<title>Node12&#45;&gt;Node13</title>
<path fill="none" stroke="midnightblue" d="M1087.02,-114.66C1069.08,-118.56 1050.15,-122.67 1032.65,-126.47"/>
<polygon fill="midnightblue" stroke="midnightblue" points="1087.85,-118.06 1096.88,-112.52 1086.36,-111.22 1087.85,-118.06"/>
</g>
<!-- Node2024 -->
<g id="node9" class="node">
<title>Node2024</title>
<g id="a_node9"><a xlink:href="classv8_1_1internal_1_1Heap.html#a3dbe0c298eb537ec10028ff2054f7cbd" target="_top" xlink:title=" ">
<polygon fill="white" stroke="red" points="545,-107.5 545,-137.5 700,-137.5 700,-107.5 545,-107.5"/>
<text text-anchor="start" x="553" y="-125.5" font-family="Helvetica,sans-Serif" font-size="10.00">v8::internal::Heap</text>
<text text-anchor="middle" x="622.5" y="-114.5" font-family="Helvetica,sans-Serif" font-size="10.00">::CollectAllAvailableGarbage</text>
</a>
</g>
</g>
<!-- Node12&#45;&gt;Node2024 -->
<g id="edge13" class="edge">
<title>Node12&#45;&gt;Node2024</title>
<path fill="none" stroke="midnightblue" d="M1074.86,-81.46C987.23,-68.86 851.43,-56.73 736,-78.5 706.74,-84.02 675.32,-96.95 653.15,-107.38"/>
<polygon fill="midnightblue" stroke="midnightblue" points="1074.37,-84.93 1084.77,-82.92 1075.39,-78 1074.37,-84.93"/>
</g>
<!-- Node2050 -->
<g id="node10" class="node">
<title>Node2050</title>
<g id="a_node10"><a xlink:href="classv8_1_1internal_1_1Heap.html#a41618e017d43b8d7004daa2e37b0edc9" target="_top" xlink:title=" ">
<polygon fill="white" stroke="red" points="736,-88.5 736,-118.5 840,-118.5 840,-88.5 736,-88.5"/>
<text text-anchor="start" x="744" y="-106.5" font-family="Helvetica,sans-Serif" font-size="10.00">v8::internal::Heap</text>
<text text-anchor="middle" x="788" y="-95.5" font-family="Helvetica,sans-Serif" font-size="10.00">::CollectGarbage</text>
</a>
</g>
</g>
<!-- Node12&#45;&gt;Node2050 -->
<g id="edge14" class="edge">
<title>Node12&#45;&gt;Node2050</title>
<path fill="none" stroke="midnightblue" d="M1074.46,-98.96C1000.85,-100.13 900.13,-101.73 840.11,-102.69"/>
<polygon fill="midnightblue" stroke="midnightblue" points="1074.72,-102.45 1084.66,-98.79 1074.61,-95.45 1074.72,-102.45"/>
</g>
<!-- Node2102 -->
<g id="node11" class="node">
<title>Node2102</title>
<g id="a_node11"><a xlink:href="classv8_1_1internal_1_1Heap.html#a3db5c9d55ace804193e8ef4b66c3f5e9" target="_top" xlink:title=" ">
<polygon fill="white" stroke="red" points="876,-0.5 876,-30.5 1049,-30.5 1049,-0.5 876,-0.5"/>
<text text-anchor="start" x="884" y="-18.5" font-family="Helvetica,sans-Serif" font-size="10.00">v8::internal::Heap</text>
<text text-anchor="middle" x="962.5" y="-7.5" font-family="Helvetica,sans-Serif" font-size="10.00">::CheckIneffectiveMarkCompact</text>
</a>
</g>
</g>
<!-- Node12&#45;&gt;Node2102 -->
<g id="edge12" class="edge">
<title>Node12&#45;&gt;Node2102</title>
<path fill="none" stroke="midnightblue" d="M1124.85,-78.24C1102.59,-68.06 1074.49,-55.62 1049,-45.5 1035.99,-40.33 1021.69,-35.14 1008.57,-30.55"/>
<polygon fill="midnightblue" stroke="midnightblue" points="1123.47,-81.45 1134.02,-82.45 1126.39,-75.09 1123.47,-81.45"/>
</g>
<!-- Node13&#45;&gt;Node2024 -->
<g id="edge8" class="edge">
<title>Node13&#45;&gt;Node2024</title>
<path fill="none" stroke="midnightblue" d="M879.81,-136.91C825.14,-133.83 753.65,-129.82 700.07,-126.8"/>
<polygon fill="midnightblue" stroke="midnightblue" points="879.64,-140.4 889.82,-137.47 880.03,-133.41 879.64,-140.4"/>
</g>
<!-- Node13&#45;&gt;Node2050 -->
<g id="edge10" class="edge">
<title>Node13&#45;&gt;Node2050</title>
<path fill="none" stroke="midnightblue" d="M883.27,-124.27C868.65,-121.05 853.73,-117.76 840.19,-114.78"/>
<polygon fill="midnightblue" stroke="midnightblue" points="882.8,-127.75 893.32,-126.48 884.31,-120.91 882.8,-127.75"/>
</g>
<!-- Node2024&#45;&gt;Node2 -->
<g id="edge9" class="edge">
<title>Node2024&#45;&gt;Node2</title>
<path fill="none" stroke="midnightblue" d="M534.84,-132.43C526.31,-133.41 517.68,-134.4 509.23,-135.36"/>
<polygon fill="midnightblue" stroke="midnightblue" points="535.25,-135.91 544.79,-131.29 534.46,-128.95 535.25,-135.91"/>
</g>
<!-- Node2050&#45;&gt;Node2024 -->
<g id="edge11" class="edge">
<title>Node2050&#45;&gt;Node2024</title>
<path fill="none" stroke="midnightblue" d="M725.69,-110.63C717.32,-111.6 708.65,-112.61 700.05,-113.6"/>
<polygon fill="midnightblue" stroke="midnightblue" points="726.19,-114.09 735.72,-109.46 725.38,-107.14 726.19,-114.09"/>
</g>
</g>
</svg>
        <g id="navigator" transform="translate(0 0)" fill="#404254">
                <rect fill="#f2f5e9" fill-opacity="0.5" stroke="#606060" stroke-width=".5" x="0" y="0" width="60" height="60"/>
                <use id="zoomplus" xlink:href="#zoomPlus" x="17" y="9" onmousedown="handleZoom(evt,'in')"/>
                <use id="zoomminus" xlink:href="#zoomMin" x="42" y="9" onmousedown="handleZoom(evt,'out')"/>
                <use id="reset" xlink:href="#resetDef" x="30" y="36" onmousedown="handleReset()"/>
                <g id="arrowUp" xlink:href="#dirArrow" transform="translate(30 24)" onmousedown="handlePan(0,-1)">
                  <use xlink:href="#rim" fill="#404040">
                        <set attributeName="fill" to="#808080" begin="arrowUp.mouseover" end="arrowUp.mouseout"/>
                  </use>
                  <path fill="none" stroke="white" stroke-width="1.5" d="M0,-3.0v7 M-2.5,-0.5L0,-3.0L2.5,-0.5"/>
                </g>
                <g id="arrowRight" xlink:href="#dirArrow" transform="rotate(90) translate(36 -43)" onmousedown="handlePan(1,0)">
                  <use xlink:href="#rim" fill="#404040">
                        <set attributeName="fill" to="#808080" begin="arrowRight.mouseover" end="arrowRight.mouseout"/>
                  </use>
                  <path fill="none" stroke="white" stroke-width="1.5" d="M0,-3.0v7 M-2.5,-0.5L0,-3.0L2.5,-0.5"/>
                </g>
                <g id="arrowDown" xlink:href="#dirArrow" transform="rotate(180) translate(-30 -48)" onmousedown="handlePan(0,1)">
                  <use xlink:href="#rim" fill="#404040">
                        <set attributeName="fill" to="#808080" begin="arrowDown.mouseover" end="arrowDown.mouseout"/>
                  </use>
                  <path fill="none" stroke="white" stroke-width="1.5" d="M0,-3.0v7 M-2.5,-0.5L0,-3.0L2.5,-0.5"/>
                </g>
                <g id="arrowLeft" xlink:href="#dirArrow" transform="rotate(270) translate(-36 17)" onmousedown="handlePan(-1,0)">
                  <use xlink:href="#rim" fill="#404040">
                        <set attributeName="fill" to="#808080" begin="arrowLeft.mouseover" end="arrowLeft.mouseout"/>
                  </use>
                  <path fill="none" stroke="white" stroke-width="1.5" d="M0,-3.0v7 M-2.5,-0.5L0,-3.0L2.5,-0.5"/>
                </g>
        </g>
        <svg viewBox="0 0 15 15" width="100%" height="30px" preserveAspectRatio="xMaxYMin meet">
         <g id="arrow_out" transform="scale(0.3 0.3)">
          <a xlink:href="classv8_1_1internal_1_1V8HeapExplorer_a9feab81d399449adc3105568e87fc439_icgraph_org.svg" target="_base">
           <rect id="button" ry="5" rx="5" y="6" x="6" height="38" width="38"
                fill="#f2f5e9" fill-opacity="0.5" stroke="#606060" stroke-width="1.0"/>
           <path id="arrow"
             d="M 11.500037,31.436501 C 11.940474,20.09759 22.043105,11.32322 32.158766,21.979434 L 37.068811,17.246167 C 37.068811,17.246167 37.088388,32 37.088388,32 L 22.160133,31.978069 C 22.160133,31.978069 26.997745,27.140456 26.997745,27.140456 C 18.528582,18.264221 13.291696,25.230495 11.500037,31.436501 z"
             style="fill:#404040;"/>
          </a>
         </g>
        </svg>
</svg>
