<?xml version="1.0" encoding="UTF-8" standalone="no"?>
<!DOCTYPE svg PUBLIC "-//W3C//DTD SVG 1.1//EN"
 "http://www.w3.org/Graphics/SVG/1.1/DTD/svg11.dtd">
<!-- Generated by graphviz version 2.43.0 (0)
 -->
<!-- Title: v8::internal::anonymous_namespace{read&#45;only&#45;promotion::cc}::ReadOnlyPromotionImpl::UpdatePointersVisitor::VisitExternalPointer Pages: 1 -->
<svg width="360pt" height="72pt"
 viewBox="0.00 0.00 360.00 72.00" xmlns="http://www.w3.org/2000/svg" xmlns:xlink="http://www.w3.org/1999/xlink">
<g id="graph0" class="graph" transform="scale(1 1) rotate(0) translate(4 68)">
<title>v8::internal::anonymous_namespace{read&#45;only&#45;promotion::cc}::ReadOnlyPromotionImpl::UpdatePointersVisitor::VisitExternalPointer</title>
<polygon fill="white" stroke="transparent" points="-4,4 -4,-68 356,-68 356,4 -4,4"/>
<!-- Node1 -->
<g id="node1" class="node">
<title>Node1</title>
<g id="a_node1"><a xlink:title=" ">
<polygon fill="#bfbfbf" stroke="black" points="0,-0.5 0,-63.5 197,-63.5 197,-0.5 0,-0.5"/>
<text text-anchor="start" x="8" y="-51.5" font-family="Helvetica,sans-Serif" font-size="10.00">v8::internal::anonymous</text>
<text text-anchor="start" x="8" y="-40.5" font-family="Helvetica,sans-Serif" font-size="10.00">_namespace{read&#45;only&#45;promotion</text>
<text text-anchor="start" x="8" y="-29.5" font-family="Helvetica,sans-Serif" font-size="10.00">::cc}::ReadOnlyPromotionImpl</text>
<text text-anchor="start" x="8" y="-18.5" font-family="Helvetica,sans-Serif" font-size="10.00">::UpdatePointersVisitor::VisitExternal</text>
<text text-anchor="middle" x="98.5" y="-7.5" font-family="Helvetica,sans-Serif" font-size="10.00">Pointer</text>
</a>
</g>
</g>
<!-- Node2 -->
<g id="node2" class="node">
<title>Node2</title>
<g id="a_node2"><a xlink:href="namespacev8_1_1internal.html#aa6b3743bd5d773c552654f2a6c3efa4a" target="_top" xlink:title=" ">
<polygon fill="white" stroke="black" points="233,-22.5 233,-41.5 352,-41.5 352,-22.5 233,-22.5"/>
<text text-anchor="middle" x="292.5" y="-29.5" font-family="Helvetica,sans-Serif" font-size="10.00">v8::internal::DCHECK</text>
</a>
</g>
</g>
<!-- Node1&#45;&gt;Node2 -->
<g id="edge1" class="edge">
<title>Node1&#45;&gt;Node2</title>
<path fill="none" stroke="midnightblue" d="M197.19,-32C205.88,-32 214.56,-32 222.93,-32"/>
<polygon fill="midnightblue" stroke="midnightblue" points="222.97,-35.5 232.97,-32 222.97,-28.5 222.97,-35.5"/>
</g>
</g>
</svg>
