<?xml version="1.0" encoding="UTF-8" standalone="no"?>
<!DOCTYPE svg PUBLIC "-//W3C//DTD SVG 1.1//EN"
 "http://www.w3.org/Graphics/SVG/1.1/DTD/svg11.dtd">
<!-- Generated by graphviz version 2.43.0 (0)
 -->
<!-- Title: v8::internal::MacroAssembler::Ll Pages: 1 -->
<!--zoomable 262 -->
<svg id="main" version="1.1" xmlns="http://www.w3.org/2000/svg" xmlns:xlink="http://www.w3.org/1999/xlink" xml:space="preserve" onload="init(evt)">
<style type="text/css"><![CDATA[
.edge:hover path { stroke: red; }
.edge:hover polygon { stroke: red; fill: red; }
]]></style>
<script type="text/javascript"><![CDATA[
var edges = document.getElementsByTagName('g');
if (edges && edges.length) {
  for (var i=0;i<edges.length;i++) {
    if (edges[i].id.substr(0,4)=='edge') {
      edges[i].setAttribute('class','edge');
    }
  }
}
]]></script>
        <defs>
                <circle id="rim" cx="0" cy="0" r="7"/>
                <circle id="rim2" cx="0" cy="0" r="3.5"/>
                <g id="zoomPlus">
                        <use xlink:href="#rim" fill="#404040">
                                <set attributeName="fill" to="#808080" begin="zoomplus.mouseover" end="zoomplus.mouseout"/>
                        </use>
                        <path d="M-4,0h8M0,-4v8" fill="none" stroke="white" stroke-width="1.5" pointer-events="none"/>
                </g>
                <g id="zoomMin">
                        <use xlink:href="#rim" fill="#404040">
                                <set attributeName="fill" to="#808080" begin="zoomminus.mouseover" end="zoomminus.mouseout"/>
                        </use>
                        <path d="M-4,0h8" fill="none" stroke="white" stroke-width="1.5" pointer-events="none"/>
                </g>
                <g id="dirArrow">
                        <path fill="none" stroke="white" stroke-width="1.5" d="M0,-3.0v7 M-2.5,-0.5L0,-3.0L2.5,-0.5"/>
                </g>
               <g id="resetDef">
                       <use xlink:href="#rim2" fill="#404040">
                               <set attributeName="fill" to="#808080" begin="reset.mouseover" end="reset.mouseout"/>
                       </use>
               </g>
        </defs>

<script type="text/javascript">
var viewWidth = 767;
var viewHeight = 262;
var sectionId = 'dynsection-485';
</script>
<script xlink:href="svgpan.js"/>
<svg id="graph" class="graph">
<g id="viewport">
<title>v8::internal::MacroAssembler::Ll</title>
<polygon fill="white" stroke="transparent" points="-4,4 -4,-257.5 763,-257.5 763,4 -4,4"/>
<!-- Node1 -->
<g id="node1" class="node">
<title>Node1</title>
<g id="a_node1"><a xlink:title=" ">
<polygon fill="#bfbfbf" stroke="black" points="0,-88.5 0,-107.5 174,-107.5 174,-88.5 0,-88.5"/>
<text text-anchor="middle" x="87" y="-95.5" font-family="Helvetica,sans-Serif" font-size="10.00">v8::internal::MacroAssembler::Ll</text>
</a>
</g>
</g>
<!-- Node2 -->
<g id="node2" class="node">
<title>Node2</title>
<g id="a_node2"><a xlink:href="classv8_1_1internal_1_1UseScratchRegisterScope.html#a18d5cc87e6ecaf4f254b626487145a37" target="_top" xlink:title=" ">
<polygon fill="white" stroke="black" points="226,-176 226,-206 359,-206 359,-176 226,-176"/>
<text text-anchor="start" x="234" y="-194" font-family="Helvetica,sans-Serif" font-size="10.00">v8::internal::UseScratch</text>
<text text-anchor="middle" x="292.5" y="-183" font-family="Helvetica,sans-Serif" font-size="10.00">RegisterScope::Acquire</text>
</a>
</g>
</g>
<!-- Node1&#45;&gt;Node2 -->
<g id="edge1" class="edge">
<title>Node1&#45;&gt;Node2</title>
<path fill="none" stroke="midnightblue" d="M102.47,-107.63C124.76,-122.14 169.22,-149.73 210,-167 214.72,-169 219.66,-170.9 224.67,-172.68"/>
<polygon fill="midnightblue" stroke="midnightblue" points="223.76,-176.07 234.36,-175.98 226.02,-169.45 223.76,-176.07"/>
</g>
<!-- Node3 -->
<g id="node3" class="node">
<title>Node3</title>
<g id="a_node3"><a xlink:href="classv8_1_1internal_1_1AssemblerRISCVA.html#a051520a39f4dc333889b63ce15a310ec" target="_top" xlink:title=" ">
<polygon fill="white" stroke="black" points="210,-127 210,-157 375,-157 375,-127 210,-127"/>
<text text-anchor="start" x="218" y="-145" font-family="Helvetica,sans-Serif" font-size="10.00">v8::internal::AssemblerRISCVA</text>
<text text-anchor="middle" x="292.5" y="-134" font-family="Helvetica,sans-Serif" font-size="10.00">::lr_w</text>
</a>
</g>
</g>
<!-- Node1&#45;&gt;Node3 -->
<g id="edge2" class="edge">
<title>Node1&#45;&gt;Node3</title>
<path fill="none" stroke="midnightblue" d="M132.16,-107.55C155.48,-112.59 184.82,-118.93 211.94,-124.8"/>
<polygon fill="midnightblue" stroke="midnightblue" points="211.31,-128.24 221.82,-126.93 212.79,-121.4 211.31,-128.24"/>
</g>
<!-- Node9 -->
<g id="node9" class="node">
<title>Node9</title>
<g id="a_node9"><a xlink:href="classv8_1_1internal_1_1MemOperand.html#acf7eabec54a6bf88443b6f5e9746f7c6" target="_top" xlink:title=" ">
<polygon fill="white" stroke="black" points="417,-81 417,-111 561,-111 561,-81 417,-81"/>
<text text-anchor="start" x="425" y="-99" font-family="Helvetica,sans-Serif" font-size="10.00">v8::internal::MemOperand</text>
<text text-anchor="middle" x="489" y="-88" font-family="Helvetica,sans-Serif" font-size="10.00">::offset</text>
</a>
</g>
</g>
<!-- Node1&#45;&gt;Node9 -->
<g id="edge8" class="edge">
<title>Node1&#45;&gt;Node9</title>
<path fill="none" stroke="midnightblue" d="M174.3,-97.57C243.22,-97.22 339.12,-96.74 406.69,-96.41"/>
<polygon fill="midnightblue" stroke="midnightblue" points="406.89,-99.91 416.87,-96.36 406.85,-92.91 406.89,-99.91"/>
</g>
<!-- Node10 -->
<g id="node10" class="node">
<title>Node10</title>
<g id="a_node10"><a xlink:href="classv8_1_1internal_1_1AssemblerBase.html#aba9d70b93c0a4747c3c0c5ef494ac23f" target="_top" xlink:title=" ">
<polygon fill="white" stroke="black" points="215.5,-39 215.5,-69 369.5,-69 369.5,-39 215.5,-39"/>
<text text-anchor="start" x="223.5" y="-57" font-family="Helvetica,sans-Serif" font-size="10.00">v8::internal::AssemblerBase</text>
<text text-anchor="middle" x="292.5" y="-46" font-family="Helvetica,sans-Serif" font-size="10.00">::pc_offset</text>
</a>
</g>
</g>
<!-- Node1&#45;&gt;Node10 -->
<g id="edge10" class="edge">
<title>Node1&#45;&gt;Node10</title>
<path fill="none" stroke="midnightblue" d="M132.16,-88.45C155.48,-83.41 184.82,-77.07 211.94,-71.2"/>
<polygon fill="midnightblue" stroke="midnightblue" points="212.79,-74.6 221.82,-69.07 211.31,-67.76 212.79,-74.6"/>
</g>
<!-- Node11 -->
<g id="node11" class="node">
<title>Node11</title>
<g id="a_node11"><a xlink:href="classv8_1_1internal_1_1MemOperand.html#adf280517e8da86a76e84772a44865e82" target="_top" xlink:title=" ">
<polygon fill="white" stroke="black" points="210.5,-0.5 210.5,-19.5 374.5,-19.5 374.5,-0.5 210.5,-0.5"/>
<text text-anchor="middle" x="292.5" y="-7.5" font-family="Helvetica,sans-Serif" font-size="10.00">v8::internal::MemOperand::rm</text>
</a>
</g>
</g>
<!-- Node1&#45;&gt;Node11 -->
<g id="edge11" class="edge">
<title>Node1&#45;&gt;Node11</title>
<path fill="none" stroke="midnightblue" d="M101.98,-88.32C124,-73.49 168.51,-45.18 210,-29 216.46,-26.48 223.34,-24.24 230.26,-22.26"/>
<polygon fill="midnightblue" stroke="midnightblue" points="231.63,-25.52 240.39,-19.55 229.82,-18.76 231.63,-25.52"/>
</g>
<!-- Node4 -->
<g id="node4" class="node">
<title>Node4</title>
<g id="a_node4"><a xlink:href="classv8_1_1internal_1_1AssemblerRiscvBase.html#ababdee354a86a6697f62ce56005518f5" target="_top" xlink:title=" ">
<polygon fill="white" stroke="black" points="411,-130 411,-160 567,-160 567,-130 411,-130"/>
<text text-anchor="start" x="419" y="-148" font-family="Helvetica,sans-Serif" font-size="10.00">v8::internal::AssemblerRiscv</text>
<text text-anchor="middle" x="489" y="-137" font-family="Helvetica,sans-Serif" font-size="10.00">Base::GenInstrRAtomic</text>
</a>
</g>
</g>
<!-- Node3&#45;&gt;Node4 -->
<g id="edge3" class="edge">
<title>Node3&#45;&gt;Node4</title>
<path fill="none" stroke="midnightblue" d="M375.14,-143.26C383.66,-143.39 392.34,-143.52 400.92,-143.66"/>
<polygon fill="midnightblue" stroke="midnightblue" points="400.87,-147.16 410.92,-143.81 400.97,-140.16 400.87,-147.16"/>
</g>
<!-- Node5 -->
<g id="node5" class="node">
<title>Node5</title>
<g id="a_node5"><a xlink:href="classv8_1_1internal_1_1RegisterBase.html#ae4f77df87f77114f40f3e8968e1c4a12" target="_top" xlink:title=" ">
<polygon fill="white" stroke="black" points="609.5,-223 609.5,-253 752.5,-253 752.5,-223 609.5,-223"/>
<text text-anchor="start" x="617.5" y="-241" font-family="Helvetica,sans-Serif" font-size="10.00">v8::internal::RegisterBase</text>
<text text-anchor="middle" x="681" y="-230" font-family="Helvetica,sans-Serif" font-size="10.00">::code</text>
</a>
</g>
</g>
<!-- Node4&#45;&gt;Node5 -->
<g id="edge4" class="edge">
<title>Node4&#45;&gt;Node5</title>
<path fill="none" stroke="midnightblue" d="M511.21,-160.15C533.28,-175.38 569.29,-198.74 603,-214 607.13,-215.87 611.45,-217.65 615.84,-219.33"/>
<polygon fill="midnightblue" stroke="midnightblue" points="614.93,-222.73 625.52,-222.87 617.32,-216.15 614.93,-222.73"/>
</g>
<!-- Node6 -->
<g id="node6" class="node">
<title>Node6</title>
<g id="a_node6"><a xlink:href="namespacev8_1_1internal.html#aa6b3743bd5d773c552654f2a6c3efa4a" target="_top" xlink:title=" ">
<polygon fill="white" stroke="black" points="621.5,-86.5 621.5,-105.5 740.5,-105.5 740.5,-86.5 621.5,-86.5"/>
<text text-anchor="middle" x="681" y="-93.5" font-family="Helvetica,sans-Serif" font-size="10.00">v8::internal::DCHECK</text>
</a>
</g>
</g>
<!-- Node4&#45;&gt;Node6 -->
<g id="edge5" class="edge">
<title>Node4&#45;&gt;Node6</title>
<path fill="none" stroke="midnightblue" d="M545.99,-129.93C564.16,-125.09 584.42,-119.76 603,-115 612.01,-112.69 621.63,-110.28 630.91,-107.98"/>
<polygon fill="midnightblue" stroke="midnightblue" points="631.93,-111.33 640.79,-105.53 630.25,-104.53 631.93,-111.33"/>
</g>
<!-- Node7 -->
<g id="node7" class="node">
<title>Node7</title>
<g id="a_node7"><a xlink:href="classv8_1_1internal_1_1AssemblerRiscvBase.html#a26fc099c51302be428ad764d6207fb4c" target="_top" xlink:title=" ">
<polygon fill="white" stroke="black" points="603,-174 603,-204 759,-204 759,-174 603,-174"/>
<text text-anchor="start" x="611" y="-192" font-family="Helvetica,sans-Serif" font-size="10.00">v8::internal::AssemblerRiscv</text>
<text text-anchor="middle" x="681" y="-181" font-family="Helvetica,sans-Serif" font-size="10.00">Base::emit</text>
</a>
</g>
</g>
<!-- Node4&#45;&gt;Node7 -->
<g id="edge6" class="edge">
<title>Node4&#45;&gt;Node7</title>
<path fill="none" stroke="midnightblue" d="M554.86,-160.02C570.97,-163.75 588.37,-167.78 604.93,-171.62"/>
<polygon fill="midnightblue" stroke="midnightblue" points="604.58,-175.13 615.11,-173.97 606.16,-168.31 604.58,-175.13"/>
</g>
<!-- Node8 -->
<g id="node8" class="node">
<title>Node8</title>
<g id="a_node8"><a xlink:href="classv8_1_1internal_1_1RegisterBase.html#a58cd5d35108e5dee2b911e6729fb74a4" target="_top" xlink:title=" ">
<polygon fill="white" stroke="black" points="609.5,-125 609.5,-155 752.5,-155 752.5,-125 609.5,-125"/>
<text text-anchor="start" x="617.5" y="-143" font-family="Helvetica,sans-Serif" font-size="10.00">v8::internal::RegisterBase</text>
<text text-anchor="middle" x="681" y="-132" font-family="Helvetica,sans-Serif" font-size="10.00">::is_valid</text>
</a>
</g>
</g>
<!-- Node4&#45;&gt;Node8 -->
<g id="edge7" class="edge">
<title>Node4&#45;&gt;Node8</title>
<path fill="none" stroke="midnightblue" d="M567.01,-142.97C577.61,-142.69 588.52,-142.41 599.19,-142.13"/>
<polygon fill="midnightblue" stroke="midnightblue" points="599.42,-145.62 609.32,-141.86 599.23,-138.62 599.42,-145.62"/>
</g>
<!-- Node9&#45;&gt;Node6 -->
<g id="edge9" class="edge">
<title>Node9&#45;&gt;Node6</title>
<path fill="none" stroke="midnightblue" d="M561.02,-96C577.52,-96 595.05,-96 611.44,-96"/>
<polygon fill="midnightblue" stroke="midnightblue" points="611.47,-99.5 621.47,-96 611.47,-92.5 611.47,-99.5"/>
</g>
</g>
</svg>
        <g id="navigator" transform="translate(0 0)" fill="#404254">
                <rect fill="#f2f5e9" fill-opacity="0.5" stroke="#606060" stroke-width=".5" x="0" y="0" width="60" height="60"/>
                <use id="zoomplus" xlink:href="#zoomPlus" x="17" y="9" onmousedown="handleZoom(evt,'in')"/>
                <use id="zoomminus" xlink:href="#zoomMin" x="42" y="9" onmousedown="handleZoom(evt,'out')"/>
                <use id="reset" xlink:href="#resetDef" x="30" y="36" onmousedown="handleReset()"/>
                <g id="arrowUp" xlink:href="#dirArrow" transform="translate(30 24)" onmousedown="handlePan(0,-1)">
                  <use xlink:href="#rim" fill="#404040">
                        <set attributeName="fill" to="#808080" begin="arrowUp.mouseover" end="arrowUp.mouseout"/>
                  </use>
                  <path fill="none" stroke="white" stroke-width="1.5" d="M0,-3.0v7 M-2.5,-0.5L0,-3.0L2.5,-0.5"/>
                </g>
                <g id="arrowRight" xlink:href="#dirArrow" transform="rotate(90) translate(36 -43)" onmousedown="handlePan(1,0)">
                  <use xlink:href="#rim" fill="#404040">
                        <set attributeName="fill" to="#808080" begin="arrowRight.mouseover" end="arrowRight.mouseout"/>
                  </use>
                  <path fill="none" stroke="white" stroke-width="1.5" d="M0,-3.0v7 M-2.5,-0.5L0,-3.0L2.5,-0.5"/>
                </g>
                <g id="arrowDown" xlink:href="#dirArrow" transform="rotate(180) translate(-30 -48)" onmousedown="handlePan(0,1)">
                  <use xlink:href="#rim" fill="#404040">
                        <set attributeName="fill" to="#808080" begin="arrowDown.mouseover" end="arrowDown.mouseout"/>
                  </use>
                  <path fill="none" stroke="white" stroke-width="1.5" d="M0,-3.0v7 M-2.5,-0.5L0,-3.0L2.5,-0.5"/>
                </g>
                <g id="arrowLeft" xlink:href="#dirArrow" transform="rotate(270) translate(-36 17)" onmousedown="handlePan(-1,0)">
                  <use xlink:href="#rim" fill="#404040">
                        <set attributeName="fill" to="#808080" begin="arrowLeft.mouseover" end="arrowLeft.mouseout"/>
                  </use>
                  <path fill="none" stroke="white" stroke-width="1.5" d="M0,-3.0v7 M-2.5,-0.5L0,-3.0L2.5,-0.5"/>
                </g>
        </g>
        <svg viewBox="0 0 15 15" width="100%" height="30px" preserveAspectRatio="xMaxYMin meet">
         <g id="arrow_out" transform="scale(0.3 0.3)">
          <a xlink:href="classv8_1_1internal_1_1MacroAssembler_a65f5707c66424a76a8e57fc00c71d9f5_cgraph_org.svg" target="_base">
           <rect id="button" ry="5" rx="5" y="6" x="6" height="38" width="38"
                fill="#f2f5e9" fill-opacity="0.5" stroke="#606060" stroke-width="1.0"/>
           <path id="arrow"
             d="M 11.500037,31.436501 C 11.940474,20.09759 22.043105,11.32322 32.158766,21.979434 L 37.068811,17.246167 C 37.068811,17.246167 37.088388,32 37.088388,32 L 22.160133,31.978069 C 22.160133,31.978069 26.997745,27.140456 26.997745,27.140456 C 18.528582,18.264221 13.291696,25.230495 11.500037,31.436501 z"
             style="fill:#404040;"/>
          </a>
         </g>
        </svg>
</svg>
