<?xml version="1.0" encoding="UTF-8" standalone="no"?>
<!DOCTYPE svg PUBLIC "-//W3C//DTD SVG 1.1//EN"
 "http://www.w3.org/Graphics/SVG/1.1/DTD/svg11.dtd">
<!-- Generated by graphviz version 2.43.0 (0)
 -->
<!-- Title: v8::internal::wasm::WasmFullDecoder::DECODE Pages: 1 -->
<!--zoomable 346 -->
<svg id="main" version="1.1" xmlns="http://www.w3.org/2000/svg" xmlns:xlink="http://www.w3.org/1999/xlink" xml:space="preserve" onload="init(evt)">
<style type="text/css"><![CDATA[
.edge:hover path { stroke: red; }
.edge:hover polygon { stroke: red; fill: red; }
]]></style>
<script type="text/javascript"><![CDATA[
var edges = document.getElementsByTagName('g');
if (edges && edges.length) {
  for (var i=0;i<edges.length;i++) {
    if (edges[i].id.substr(0,4)=='edge') {
      edges[i].setAttribute('class','edge');
    }
  }
}
]]></script>
        <defs>
                <circle id="rim" cx="0" cy="0" r="7"/>
                <circle id="rim2" cx="0" cy="0" r="3.5"/>
                <g id="zoomPlus">
                        <use xlink:href="#rim" fill="#404040">
                                <set attributeName="fill" to="#808080" begin="zoomplus.mouseover" end="zoomplus.mouseout"/>
                        </use>
                        <path d="M-4,0h8M0,-4v8" fill="none" stroke="white" stroke-width="1.5" pointer-events="none"/>
                </g>
                <g id="zoomMin">
                        <use xlink:href="#rim" fill="#404040">
                                <set attributeName="fill" to="#808080" begin="zoomminus.mouseover" end="zoomminus.mouseout"/>
                        </use>
                        <path d="M-4,0h8" fill="none" stroke="white" stroke-width="1.5" pointer-events="none"/>
                </g>
                <g id="dirArrow">
                        <path fill="none" stroke="white" stroke-width="1.5" d="M0,-3.0v7 M-2.5,-0.5L0,-3.0L2.5,-0.5"/>
                </g>
               <g id="resetDef">
                       <use xlink:href="#rim2" fill="#404040">
                               <set attributeName="fill" to="#808080" begin="reset.mouseover" end="reset.mouseout"/>
                       </use>
               </g>
        </defs>

<script type="text/javascript">
var viewWidth = 941;
var viewHeight = 346;
var sectionId = 'dynsection-39';
</script>
<script xlink:href="svgpan.js"/>
<svg id="graph" class="graph">
<g id="viewport">
<title>v8::internal::wasm::WasmFullDecoder::DECODE</title>
<polygon fill="white" stroke="transparent" points="-4,4 -4,-341.5 937,-341.5 937,4 -4,4"/>
<!-- Node1 -->
<g id="node1" class="node">
<title>Node1</title>
<g id="a_node1"><a xlink:title=" ">
<polygon fill="#bfbfbf" stroke="black" points="0,-142.5 0,-172.5 158,-172.5 158,-142.5 0,-142.5"/>
<text text-anchor="start" x="8" y="-160.5" font-family="Helvetica,sans-Serif" font-size="10.00">v8::internal::wasm</text>
<text text-anchor="middle" x="79" y="-149.5" font-family="Helvetica,sans-Serif" font-size="10.00">::WasmFullDecoder::DECODE</text>
</a>
</g>
</g>
<!-- Node2 -->
<g id="node2" class="node">
<title>Node2</title>
<g id="a_node2"><a xlink:href="classv8_1_1internal_1_1wasm_1_1ContType.html#a15ad8295c8c4b9ef07f6644fd72496f3" target="_top" xlink:title=" ">
<polygon fill="white" stroke="black" points="224,-296 224,-337 334,-337 334,-296 224,-296"/>
<text text-anchor="start" x="232" y="-325" font-family="Helvetica,sans-Serif" font-size="10.00">v8::internal::wasm</text>
<text text-anchor="start" x="232" y="-314" font-family="Helvetica,sans-Serif" font-size="10.00">::ContType::contfun</text>
<text text-anchor="middle" x="279" y="-303" font-family="Helvetica,sans-Serif" font-size="10.00">_typeindex</text>
</a>
</g>
</g>
<!-- Node1&#45;&gt;Node2 -->
<g id="edge1" class="edge">
<title>Node1&#45;&gt;Node2</title>
<path fill="none" stroke="midnightblue" d="M89.73,-172.88C107.38,-199.61 147.22,-254.84 194,-286.5 200.17,-290.68 206.99,-294.34 214,-297.55"/>
<polygon fill="midnightblue" stroke="midnightblue" points="213.05,-300.95 223.62,-301.63 215.78,-294.5 213.05,-300.95"/>
</g>
<!-- Node3 -->
<g id="node3" class="node">
<title>Node3</title>
<g id="a_node3"><a xlink:href="namespacev8_1_1internal_1_1wasm.html#a8025c74c5e536b0391cbcde2124fa7ee" target="_top" xlink:title=" ">
<polygon fill="white" stroke="black" points="225.5,-246.5 225.5,-276.5 332.5,-276.5 332.5,-246.5 225.5,-246.5"/>
<text text-anchor="start" x="233.5" y="-264.5" font-family="Helvetica,sans-Serif" font-size="10.00">v8::internal::wasm</text>
<text text-anchor="middle" x="279" y="-253.5" font-family="Helvetica,sans-Serif" font-size="10.00">::DecodeError</text>
</a>
</g>
</g>
<!-- Node1&#45;&gt;Node3 -->
<g id="edge2" class="edge">
<title>Node1&#45;&gt;Node3</title>
<path fill="none" stroke="midnightblue" d="M97.84,-172.57C119.38,-190.1 157.32,-218.89 194,-236.5 200.7,-239.71 207.89,-242.61 215.15,-245.2"/>
<polygon fill="midnightblue" stroke="midnightblue" points="214.46,-248.66 225.06,-248.53 216.69,-242.02 214.46,-248.66"/>
</g>
<!-- Node7 -->
<g id="node7" class="node">
<title>Node7</title>
<g id="a_node7"><a xlink:href="structv8_1_1internal_1_1wasm_1_1ContIndexImmediate.html#a3cbe94946e66d610c0fd3fcc102290a5" target="_top" xlink:title=" ">
<polygon fill="white" stroke="black" points="216.5,-186 216.5,-227 341.5,-227 341.5,-186 216.5,-186"/>
<text text-anchor="start" x="224.5" y="-215" font-family="Helvetica,sans-Serif" font-size="10.00">v8::internal::wasm</text>
<text text-anchor="start" x="224.5" y="-204" font-family="Helvetica,sans-Serif" font-size="10.00">::ContIndexImmediate</text>
<text text-anchor="middle" x="279" y="-193" font-family="Helvetica,sans-Serif" font-size="10.00">::heap_type</text>
</a>
</g>
</g>
<!-- Node1&#45;&gt;Node7 -->
<g id="edge9" class="edge">
<title>Node1&#45;&gt;Node7</title>
<path fill="none" stroke="midnightblue" d="M140.75,-172.53C161.55,-177.68 185.01,-183.49 206.58,-188.83"/>
<polygon fill="midnightblue" stroke="midnightblue" points="205.79,-192.24 216.34,-191.24 207.47,-185.44 205.79,-192.24"/>
</g>
<!-- Node23 -->
<g id="node11" class="node">
<title>Node23</title>
<g id="a_node11"><a xlink:href="namespacewasm_1_1anonymous__namespace_02c-api_8cc_03.html#a161e18caa379479a76300e6edeb750ff" target="_top" xlink:title=" ">
<polygon fill="white" stroke="black" points="194,-98.5 194,-128.5 364,-128.5 364,-98.5 194,-98.5"/>
<text text-anchor="start" x="202" y="-116.5" font-family="Helvetica,sans-Serif" font-size="10.00">wasm::anonymous_namespace</text>
<text text-anchor="middle" x="279" y="-105.5" font-family="Helvetica,sans-Serif" font-size="10.00">{c&#45;api::cc}::PopArgs</text>
</a>
</g>
</g>
<!-- Node1&#45;&gt;Node23 -->
<g id="edge13" class="edge">
<title>Node1&#45;&gt;Node23</title>
<path fill="none" stroke="midnightblue" d="M147.59,-142.48C164.54,-138.71 182.86,-134.64 200.26,-130.78"/>
<polygon fill="midnightblue" stroke="midnightblue" points="201.38,-134.11 210.38,-128.53 199.86,-127.28 201.38,-134.11"/>
</g>
<!-- Node27 -->
<g id="node15" class="node">
<title>Node27</title>
<g id="a_node15"><a xlink:href="classv8_1_1internal_1_1wasm_1_1ValueType.html#a39a7eff05b7021a872363c9cdb194c3c" target="_top" xlink:title=" ">
<polygon fill="white" stroke="black" points="429,-142.5 429,-172.5 543,-172.5 543,-142.5 429,-142.5"/>
<text text-anchor="start" x="437" y="-160.5" font-family="Helvetica,sans-Serif" font-size="10.00">v8::internal::wasm</text>
<text text-anchor="middle" x="486" y="-149.5" font-family="Helvetica,sans-Serif" font-size="10.00">::ValueType::RefNull</text>
</a>
</g>
</g>
<!-- Node1&#45;&gt;Node27 -->
<g id="edge18" class="edge">
<title>Node1&#45;&gt;Node27</title>
<path fill="none" stroke="midnightblue" d="M158.09,-157.5C233.78,-157.5 347.34,-157.5 418.75,-157.5"/>
<polygon fill="midnightblue" stroke="midnightblue" points="418.97,-161 428.97,-157.5 418.97,-154 418.97,-161"/>
</g>
<!-- Node28 -->
<g id="node16" class="node">
<title>Node28</title>
<g id="a_node16"><a xlink:href="classv8_1_1internal_1_1Signature.html#a0a102d5d64b769e3c24a8f13b8703483" target="_top" xlink:title=" ">
<polygon fill="white" stroke="black" points="216.5,-49.5 216.5,-79.5 341.5,-79.5 341.5,-49.5 216.5,-49.5"/>
<text text-anchor="start" x="224.5" y="-67.5" font-family="Helvetica,sans-Serif" font-size="10.00">v8::internal::Signature</text>
<text text-anchor="middle" x="279" y="-56.5" font-family="Helvetica,sans-Serif" font-size="10.00">::return_count</text>
</a>
</g>
</g>
<!-- Node1&#45;&gt;Node28 -->
<g id="edge21" class="edge">
<title>Node1&#45;&gt;Node28</title>
<path fill="none" stroke="midnightblue" d="M100.93,-142.48C123.12,-127.13 159.65,-103.48 194,-88.5 198.46,-86.56 203.12,-84.72 207.86,-83"/>
<polygon fill="midnightblue" stroke="midnightblue" points="209.34,-86.19 217.66,-79.63 207.06,-79.57 209.34,-86.19"/>
</g>
<!-- Node29 -->
<g id="node17" class="node">
<title>Node29</title>
<g id="a_node17"><a xlink:href="structv8_1_1internal_1_1wasm_1_1WasmTag.html#a5bd3e266a6435002bf54de24af0e561e" target="_top" xlink:title=" ">
<polygon fill="white" stroke="black" points="208,-0.5 208,-30.5 350,-30.5 350,-0.5 208,-0.5"/>
<text text-anchor="start" x="216" y="-18.5" font-family="Helvetica,sans-Serif" font-size="10.00">v8::internal::wasm</text>
<text text-anchor="middle" x="279" y="-7.5" font-family="Helvetica,sans-Serif" font-size="10.00">::WasmTag::ToFunctionSig</text>
</a>
</g>
</g>
<!-- Node1&#45;&gt;Node29 -->
<g id="edge22" class="edge">
<title>Node1&#45;&gt;Node29</title>
<path fill="none" stroke="midnightblue" d="M90.43,-142.38C108.55,-117.24 148.33,-66.91 194,-39.5 196.86,-37.78 199.85,-36.18 202.93,-34.7"/>
<polygon fill="midnightblue" stroke="midnightblue" points="204.61,-37.78 212.36,-30.55 201.8,-31.37 204.61,-37.78"/>
</g>
<!-- Node4 -->
<g id="node4" class="node">
<title>Node4</title>
<g id="a_node4"><a xlink:href="classv8_1_1internal_1_1wasm_1_1Decoder.html#ae1fb18a175bb128bec22fef8fc584579" target="_top" xlink:title=" ">
<polygon fill="white" stroke="black" points="432.5,-287.5 432.5,-317.5 539.5,-317.5 539.5,-287.5 432.5,-287.5"/>
<text text-anchor="start" x="440.5" y="-305.5" font-family="Helvetica,sans-Serif" font-size="10.00">v8::internal::wasm</text>
<text text-anchor="middle" x="486" y="-294.5" font-family="Helvetica,sans-Serif" font-size="10.00">::Decoder::error</text>
</a>
</g>
</g>
<!-- Node3&#45;&gt;Node4 -->
<g id="edge3" class="edge">
<title>Node3&#45;&gt;Node4</title>
<path fill="none" stroke="midnightblue" d="M332.53,-272.01C359.9,-277.48 393.58,-284.22 422.32,-289.96"/>
<polygon fill="midnightblue" stroke="midnightblue" points="421.76,-293.42 432.25,-291.95 423.13,-286.56 421.76,-293.42"/>
</g>
<!-- Node5 -->
<g id="node5" class="node">
<title>Node5</title>
<g id="a_node5"><a xlink:href="classv8_1_1internal_1_1wasm_1_1Decoder.html#a4da7d0dc7e10f7e310809e2265587032" target="_top" xlink:title=" ">
<polygon fill="white" stroke="black" points="642.5,-243.5 642.5,-273.5 749.5,-273.5 749.5,-243.5 642.5,-243.5"/>
<text text-anchor="start" x="650.5" y="-261.5" font-family="Helvetica,sans-Serif" font-size="10.00">v8::internal::wasm</text>
<text text-anchor="middle" x="696" y="-250.5" font-family="Helvetica,sans-Serif" font-size="10.00">::Decoder::errorf</text>
</a>
</g>
</g>
<!-- Node3&#45;&gt;Node5 -->
<g id="edge8" class="edge">
<title>Node3&#45;&gt;Node5</title>
<path fill="none" stroke="midnightblue" d="M332.56,-261.12C408.9,-260.57 550.26,-259.55 632.05,-258.96"/>
<polygon fill="midnightblue" stroke="midnightblue" points="632.24,-262.45 642.21,-258.88 632.19,-255.45 632.24,-262.45"/>
</g>
<!-- Node4&#45;&gt;Node5 -->
<g id="edge4" class="edge">
<title>Node4&#45;&gt;Node5</title>
<path fill="none" stroke="midnightblue" d="M539.76,-291.34C567.98,-285.37 602.91,-277.98 632.49,-271.72"/>
<polygon fill="midnightblue" stroke="midnightblue" points="633.24,-275.14 642.3,-269.65 631.79,-268.29 633.24,-275.14"/>
</g>
<!-- Node6 -->
<g id="node6" class="node">
<title>Node6</title>
<g id="a_node6"><a xlink:href="classv8_1_1internal_1_1wasm_1_1Decoder.html#ab9ad31b5a9b617078aeb067b6bc91175" target="_top" xlink:title=" ">
<polygon fill="white" stroke="black" points="820,-265.5 820,-295.5 933,-295.5 933,-265.5 820,-265.5"/>
<text text-anchor="start" x="828" y="-283.5" font-family="Helvetica,sans-Serif" font-size="10.00">v8::internal::wasm</text>
<text text-anchor="middle" x="876.5" y="-272.5" font-family="Helvetica,sans-Serif" font-size="10.00">::Decoder::pc_offset</text>
</a>
</g>
</g>
<!-- Node4&#45;&gt;Node6 -->
<g id="edge7" class="edge">
<title>Node4&#45;&gt;Node6</title>
<path fill="none" stroke="midnightblue" d="M539.8,-299.51C609.84,-295.54 733.48,-288.54 809.58,-284.23"/>
<polygon fill="midnightblue" stroke="midnightblue" points="810.2,-287.7 819.99,-283.64 809.81,-280.71 810.2,-287.7"/>
</g>
<!-- Node5&#45;&gt;Node6 -->
<g id="edge5" class="edge">
<title>Node5&#45;&gt;Node6</title>
<path fill="none" stroke="midnightblue" d="M749.59,-264.98C768.42,-267.3 789.88,-269.95 809.69,-272.39"/>
<polygon fill="midnightblue" stroke="midnightblue" points="809.52,-275.89 819.87,-273.64 810.37,-268.95 809.52,-275.89"/>
</g>
<!-- Node6&#45;&gt;Node6 -->
<g id="edge6" class="edge">
<title>Node6&#45;&gt;Node6</title>
<path fill="none" stroke="midnightblue" d="M845.13,-295.66C837.57,-305.06 848.02,-314 876.5,-314 893.85,-314 904.51,-310.68 908.48,-305.96"/>
<polygon fill="midnightblue" stroke="midnightblue" points="911.96,-305.43 907.87,-295.66 904.97,-305.85 911.96,-305.43"/>
</g>
<!-- Node8 -->
<g id="node8" class="node">
<title>Node8</title>
<g id="a_node8"><a xlink:href="classv8_1_1internal_1_1wasm_1_1HeapType.html#a6fb9176a448d187487e3d9ddcff63dfa" target="_top" xlink:title=" ">
<polygon fill="white" stroke="black" points="432.5,-191.5 432.5,-221.5 539.5,-221.5 539.5,-191.5 432.5,-191.5"/>
<text text-anchor="start" x="440.5" y="-209.5" font-family="Helvetica,sans-Serif" font-size="10.00">v8::internal::wasm</text>
<text text-anchor="middle" x="486" y="-198.5" font-family="Helvetica,sans-Serif" font-size="10.00">::HeapType::Index</text>
</a>
</g>
</g>
<!-- Node7&#45;&gt;Node8 -->
<g id="edge10" class="edge">
<title>Node7&#45;&gt;Node8</title>
<path fill="none" stroke="midnightblue" d="M341.51,-206.5C366.9,-206.5 396.32,-206.5 421.88,-206.5"/>
<polygon fill="midnightblue" stroke="midnightblue" points="422.21,-210 432.21,-206.5 422.21,-203 422.21,-210"/>
</g>
<!-- Node9 -->
<g id="node9" class="node">
<title>Node9</title>
<g id="a_node9"><a xlink:href="classv8_1_1internal_1_1wasm_1_1ValueTypeBase.html#a777139722a5dbb1f696aa90375aab584" target="_top" xlink:title=" ">
<polygon fill="white" stroke="red" points="634.5,-191.5 634.5,-221.5 757.5,-221.5 757.5,-191.5 634.5,-191.5"/>
<text text-anchor="start" x="642.5" y="-209.5" font-family="Helvetica,sans-Serif" font-size="10.00">v8::internal::wasm</text>
<text text-anchor="middle" x="696" y="-198.5" font-family="Helvetica,sans-Serif" font-size="10.00">::ValueTypeBase::kind</text>
</a>
</g>
</g>
<!-- Node8&#45;&gt;Node9 -->
<g id="edge11" class="edge">
<title>Node8&#45;&gt;Node9</title>
<path fill="none" stroke="midnightblue" d="M539.76,-206.5C565.37,-206.5 596.52,-206.5 624.18,-206.5"/>
<polygon fill="midnightblue" stroke="midnightblue" points="624.19,-210 634.19,-206.5 624.19,-203 624.19,-210"/>
</g>
<!-- Node22 -->
<g id="node10" class="node">
<title>Node22</title>
<g id="a_node10"><a xlink:href="classv8_1_1internal_1_1wasm_1_1ValueTypeBase.html#abddcf416ee392bf76d5ab20d7e91e610" target="_top" xlink:title=" ">
<polygon fill="white" stroke="black" points="608,-142.5 608,-172.5 784,-172.5 784,-142.5 608,-142.5"/>
<text text-anchor="start" x="616" y="-160.5" font-family="Helvetica,sans-Serif" font-size="10.00">v8::internal::wasm</text>
<text text-anchor="middle" x="696" y="-149.5" font-family="Helvetica,sans-Serif" font-size="10.00">::ValueTypeBase::ValueTypeBase</text>
</a>
</g>
</g>
<!-- Node8&#45;&gt;Node22 -->
<g id="edge12" class="edge">
<title>Node8&#45;&gt;Node22</title>
<path fill="none" stroke="midnightblue" d="M539.76,-194.07C564.52,-188.24 594.45,-181.19 621.39,-174.84"/>
<polygon fill="midnightblue" stroke="midnightblue" points="622.24,-178.24 631.17,-172.54 620.63,-171.42 622.24,-178.24"/>
</g>
<!-- Node24 -->
<g id="node12" class="node">
<title>Node24</title>
<g id="a_node12"><a xlink:href="flag-definitions_8h.html#a88efda0d30f0789fdb73665260750735" target="_top" xlink:title=" ">
<polygon fill="white" stroke="black" points="675.5,-101 675.5,-120 716.5,-120 716.5,-101 675.5,-101"/>
<text text-anchor="middle" x="696" y="-108" font-family="Helvetica,sans-Serif" font-size="10.00">store</text>
</a>
</g>
</g>
<!-- Node23&#45;&gt;Node24 -->
<g id="edge14" class="edge">
<title>Node23&#45;&gt;Node24</title>
<path fill="none" stroke="midnightblue" d="M364.23,-112.89C457.43,-112.22 602.67,-111.17 664.97,-110.72"/>
<polygon fill="midnightblue" stroke="midnightblue" points="665.29,-114.21 675.27,-110.64 665.24,-107.22 665.29,-114.21"/>
</g>
<!-- Node25 -->
<g id="node13" class="node">
<title>Node25</title>
<g id="a_node13"><a xlink:href="namespacewasm_1_1anonymous__namespace_02c-api_8cc_03.html#a9e1daf08321d45e015c85d5cbac83c52" target="_top" xlink:title=" ">
<polygon fill="white" stroke="black" points="400,-54.5 400,-84.5 572,-84.5 572,-54.5 400,-54.5"/>
<text text-anchor="start" x="408" y="-72.5" font-family="Helvetica,sans-Serif" font-size="10.00">wasm::anonymous_namespace</text>
<text text-anchor="middle" x="486" y="-61.5" font-family="Helvetica,sans-Serif" font-size="10.00">{c&#45;api::cc}::V8RefValueToWasm</text>
</a>
</g>
</g>
<!-- Node23&#45;&gt;Node25 -->
<g id="edge15" class="edge">
<title>Node23&#45;&gt;Node25</title>
<path fill="none" stroke="midnightblue" d="M349.98,-98.48C367.69,-94.68 386.85,-90.57 405.02,-86.67"/>
<polygon fill="midnightblue" stroke="midnightblue" points="405.95,-90.05 414.99,-84.53 404.48,-83.2 405.95,-90.05"/>
</g>
<!-- Node25&#45;&gt;Node24 -->
<g id="edge17" class="edge">
<title>Node25&#45;&gt;Node24</title>
<path fill="none" stroke="midnightblue" d="M563.27,-84.53C598.69,-91.51 638.73,-99.41 665.27,-104.64"/>
<polygon fill="midnightblue" stroke="midnightblue" points="664.6,-108.08 675.09,-106.58 665.95,-101.21 664.6,-108.08"/>
</g>
<!-- Node26 -->
<g id="node14" class="node">
<title>Node26</title>
<g id="a_node14"><a xlink:href="namespacev8_1_1internal.html#aea9d736830d86242c4e1cb59a371d3a6" target="_top" xlink:title=" ">
<polygon fill="white" stroke="red" points="643,-60 643,-79 749,-79 749,-60 643,-60"/>
<text text-anchor="middle" x="696" y="-67" font-family="Helvetica,sans-Serif" font-size="10.00">v8::internal::IsNull</text>
</a>
</g>
</g>
<!-- Node25&#45;&gt;Node26 -->
<g id="edge16" class="edge">
<title>Node25&#45;&gt;Node26</title>
<path fill="none" stroke="midnightblue" d="M572.2,-69.5C592.46,-69.5 613.7,-69.5 632.71,-69.5"/>
<polygon fill="midnightblue" stroke="midnightblue" points="632.73,-73 642.73,-69.5 632.73,-66 632.73,-73"/>
</g>
<!-- Node27&#45;&gt;Node9 -->
<g id="edge19" class="edge">
<title>Node27&#45;&gt;Node9</title>
<path fill="none" stroke="midnightblue" d="M543.01,-170.7C567.98,-176.58 597.67,-183.57 624.16,-189.81"/>
<polygon fill="midnightblue" stroke="midnightblue" points="623.6,-193.28 634.14,-192.16 625.21,-186.46 623.6,-193.28"/>
</g>
<!-- Node27&#45;&gt;Node22 -->
<g id="edge20" class="edge">
<title>Node27&#45;&gt;Node22</title>
<path fill="none" stroke="midnightblue" d="M543.01,-157.5C559.94,-157.5 579.05,-157.5 597.85,-157.5"/>
<polygon fill="midnightblue" stroke="midnightblue" points="597.95,-161 607.95,-157.5 597.95,-154 597.95,-161"/>
</g>
</g>
</svg>
        <g id="navigator" transform="translate(0 0)" fill="#404254">
                <rect fill="#f2f5e9" fill-opacity="0.5" stroke="#606060" stroke-width=".5" x="0" y="0" width="60" height="60"/>
                <use id="zoomplus" xlink:href="#zoomPlus" x="17" y="9" onmousedown="handleZoom(evt,'in')"/>
                <use id="zoomminus" xlink:href="#zoomMin" x="42" y="9" onmousedown="handleZoom(evt,'out')"/>
                <use id="reset" xlink:href="#resetDef" x="30" y="36" onmousedown="handleReset()"/>
                <g id="arrowUp" xlink:href="#dirArrow" transform="translate(30 24)" onmousedown="handlePan(0,-1)">
                  <use xlink:href="#rim" fill="#404040">
                        <set attributeName="fill" to="#808080" begin="arrowUp.mouseover" end="arrowUp.mouseout"/>
                  </use>
                  <path fill="none" stroke="white" stroke-width="1.5" d="M0,-3.0v7 M-2.5,-0.5L0,-3.0L2.5,-0.5"/>
                </g>
                <g id="arrowRight" xlink:href="#dirArrow" transform="rotate(90) translate(36 -43)" onmousedown="handlePan(1,0)">
                  <use xlink:href="#rim" fill="#404040">
                        <set attributeName="fill" to="#808080" begin="arrowRight.mouseover" end="arrowRight.mouseout"/>
                  </use>
                  <path fill="none" stroke="white" stroke-width="1.5" d="M0,-3.0v7 M-2.5,-0.5L0,-3.0L2.5,-0.5"/>
                </g>
                <g id="arrowDown" xlink:href="#dirArrow" transform="rotate(180) translate(-30 -48)" onmousedown="handlePan(0,1)">
                  <use xlink:href="#rim" fill="#404040">
                        <set attributeName="fill" to="#808080" begin="arrowDown.mouseover" end="arrowDown.mouseout"/>
                  </use>
                  <path fill="none" stroke="white" stroke-width="1.5" d="M0,-3.0v7 M-2.5,-0.5L0,-3.0L2.5,-0.5"/>
                </g>
                <g id="arrowLeft" xlink:href="#dirArrow" transform="rotate(270) translate(-36 17)" onmousedown="handlePan(-1,0)">
                  <use xlink:href="#rim" fill="#404040">
                        <set attributeName="fill" to="#808080" begin="arrowLeft.mouseover" end="arrowLeft.mouseout"/>
                  </use>
                  <path fill="none" stroke="white" stroke-width="1.5" d="M0,-3.0v7 M-2.5,-0.5L0,-3.0L2.5,-0.5"/>
                </g>
        </g>
        <svg viewBox="0 0 15 15" width="100%" height="30px" preserveAspectRatio="xMaxYMin meet">
         <g id="arrow_out" transform="scale(0.3 0.3)">
          <a xlink:href="classv8_1_1internal_1_1wasm_1_1WasmFullDecoder_aeaf24d0c8afc407f7c0c10b3d4a56ecd_cgraph_org.svg" target="_base">
           <rect id="button" ry="5" rx="5" y="6" x="6" height="38" width="38"
                fill="#f2f5e9" fill-opacity="0.5" stroke="#606060" stroke-width="1.0"/>
           <path id="arrow"
             d="M 11.500037,31.436501 C 11.940474,20.09759 22.043105,11.32322 32.158766,21.979434 L 37.068811,17.246167 C 37.068811,17.246167 37.088388,32 37.088388,32 L 22.160133,31.978069 C 22.160133,31.978069 26.997745,27.140456 26.997745,27.140456 C 18.528582,18.264221 13.291696,25.230495 11.500037,31.436501 z"
             style="fill:#404040;"/>
          </a>
         </g>
        </svg>
</svg>
