<?xml version="1.0" encoding="UTF-8" standalone="no"?>
<!DOCTYPE svg PUBLIC "-//W3C//DTD SVG 1.1//EN"
 "http://www.w3.org/Graphics/SVG/1.1/DTD/svg11.dtd">
<!-- Generated by graphviz version 2.43.0 (0)
 -->
<!-- Title: v8::internal::ProfileNode::~ProfileNode Pages: 1 -->
<svg width="848pt" height="135pt"
 viewBox="0.00 0.00 848.00 135.00" xmlns="http://www.w3.org/2000/svg" xmlns:xlink="http://www.w3.org/1999/xlink">
<g id="graph0" class="graph" transform="scale(1 1) rotate(0) translate(4 131)">
<title>v8::internal::ProfileNode::~ProfileNode</title>
<polygon fill="white" stroke="transparent" points="-4,4 -4,-131 844,-131 844,4 -4,4"/>
<!-- Node1 -->
<g id="node1" class="node">
<title>Node1</title>
<g id="a_node1"><a xlink:title=" ">
<polygon fill="#bfbfbf" stroke="black" points="0,-71.5 0,-101.5 134,-101.5 134,-71.5 0,-71.5"/>
<text text-anchor="start" x="8" y="-89.5" font-family="Helvetica,sans-Serif" font-size="10.00">v8::internal::ProfileNode</text>
<text text-anchor="middle" x="67" y="-78.5" font-family="Helvetica,sans-Serif" font-size="10.00">::~ProfileNode</text>
</a>
</g>
</g>
<!-- Node2 -->
<g id="node2" class="node">
<title>Node2</title>
<g id="a_node2"><a xlink:href="classv8_1_1internal_1_1ProfileTree.html#a400acf126656ba5cb6331abd54a867f3" target="_top" xlink:title=" ">
<polygon fill="white" stroke="black" points="188.5,-96.5 188.5,-126.5 317.5,-126.5 317.5,-96.5 188.5,-96.5"/>
<text text-anchor="start" x="196.5" y="-114.5" font-family="Helvetica,sans-Serif" font-size="10.00">v8::internal::ProfileTree</text>
<text text-anchor="middle" x="253" y="-103.5" font-family="Helvetica,sans-Serif" font-size="10.00">::code_entries</text>
</a>
</g>
</g>
<!-- Node1&#45;&gt;Node2 -->
<g id="edge1" class="edge">
<title>Node1&#45;&gt;Node2</title>
<path fill="none" stroke="midnightblue" d="M134.17,-95.49C148.48,-97.44 163.71,-99.5 178.29,-101.48"/>
<polygon fill="midnightblue" stroke="midnightblue" points="177.88,-104.96 188.26,-102.84 178.83,-98.03 177.88,-104.96"/>
</g>
<!-- Node3 -->
<g id="node3" class="node">
<title>Node3</title>
<g id="a_node3"><a xlink:href="classv8_1_1internal_1_1CodeEntryStorage.html#aecc67b152295218b6e24491632f9d975" target="_top" xlink:title=" ">
<polygon fill="white" stroke="black" points="170,-47.5 170,-77.5 336,-77.5 336,-47.5 170,-47.5"/>
<text text-anchor="start" x="178" y="-65.5" font-family="Helvetica,sans-Serif" font-size="10.00">v8::internal::CodeEntryStorage</text>
<text text-anchor="middle" x="253" y="-54.5" font-family="Helvetica,sans-Serif" font-size="10.00">::DecRef</text>
</a>
</g>
</g>
<!-- Node1&#45;&gt;Node3 -->
<g id="edge2" class="edge">
<title>Node1&#45;&gt;Node3</title>
<path fill="none" stroke="midnightblue" d="M134.17,-77.87C142.46,-76.79 151.06,-75.67 159.66,-74.54"/>
<polygon fill="midnightblue" stroke="midnightblue" points="160.28,-77.99 169.75,-73.23 159.38,-71.05 160.28,-77.99"/>
</g>
<!-- Node4 -->
<g id="node4" class="node">
<title>Node4</title>
<g id="a_node4"><a xlink:href="classv8_1_1internal_1_1CodeEntry.html#ac7011098c346872336f9ac8f884d484b" target="_top" xlink:title=" ">
<polygon fill="white" stroke="black" points="372,-91.5 372,-121.5 500,-121.5 500,-91.5 372,-91.5"/>
<text text-anchor="start" x="380" y="-109.5" font-family="Helvetica,sans-Serif" font-size="10.00">v8::internal::CodeEntry</text>
<text text-anchor="middle" x="436" y="-98.5" font-family="Helvetica,sans-Serif" font-size="10.00">::DecRef</text>
</a>
</g>
</g>
<!-- Node3&#45;&gt;Node4 -->
<g id="edge3" class="edge">
<title>Node3&#45;&gt;Node4</title>
<path fill="none" stroke="midnightblue" d="M315.78,-77.52C330.99,-81.22 347.4,-85.21 363.04,-89.01"/>
<polygon fill="midnightblue" stroke="midnightblue" points="362.64,-92.51 373.19,-91.47 364.3,-85.71 362.64,-92.51"/>
</g>
<!-- Node6 -->
<g id="node6" class="node">
<title>Node6</title>
<g id="a_node6"><a xlink:href="classv8_1_1internal_1_1CodeEntry.html#a1f9e5c245c17d70c442795cbc0a87167" target="_top" xlink:title=" ">
<polygon fill="white" stroke="red" points="546.5,-49.5 546.5,-79.5 674.5,-79.5 674.5,-49.5 546.5,-49.5"/>
<text text-anchor="start" x="554.5" y="-67.5" font-family="Helvetica,sans-Serif" font-size="10.00">v8::internal::CodeEntry</text>
<text text-anchor="middle" x="610.5" y="-56.5" font-family="Helvetica,sans-Serif" font-size="10.00">::is_ref_counted</text>
</a>
</g>
</g>
<!-- Node3&#45;&gt;Node6 -->
<g id="edge6" class="edge">
<title>Node3&#45;&gt;Node6</title>
<path fill="none" stroke="midnightblue" d="M336.01,-62.96C396.46,-63.3 477.96,-63.76 536.24,-64.09"/>
<polygon fill="midnightblue" stroke="midnightblue" points="536.46,-67.59 546.48,-64.15 536.5,-60.59 536.46,-67.59"/>
</g>
<!-- Node8 -->
<g id="node7" class="node">
<title>Node8</title>
<g id="a_node7"><a xlink:href="classv8_1_1internal_1_1CodeEntry.html#a8135cff6b98dcd99a6cfde599e660a80" target="_top" xlink:title=" ">
<polygon fill="white" stroke="black" points="372,-2.5 372,-32.5 500,-32.5 500,-2.5 372,-2.5"/>
<text text-anchor="start" x="380" y="-20.5" font-family="Helvetica,sans-Serif" font-size="10.00">v8::internal::CodeEntry</text>
<text text-anchor="middle" x="436" y="-9.5" font-family="Helvetica,sans-Serif" font-size="10.00">::ReleaseStrings</text>
</a>
</g>
</g>
<!-- Node3&#45;&gt;Node8 -->
<g id="edge7" class="edge">
<title>Node3&#45;&gt;Node8</title>
<path fill="none" stroke="midnightblue" d="M314.52,-47.45C330.52,-43.48 347.93,-39.15 364.41,-35.05"/>
<polygon fill="midnightblue" stroke="midnightblue" points="365.67,-38.34 374.54,-32.53 363.99,-31.55 365.67,-38.34"/>
</g>
<!-- Node5 -->
<g id="node5" class="node">
<title>Node5</title>
<g id="a_node5"><a xlink:href="namespacev8_1_1internal.html#aa6b3743bd5d773c552654f2a6c3efa4a" target="_top" xlink:title=" ">
<polygon fill="white" stroke="black" points="721,-52 721,-71 840,-71 840,-52 721,-52"/>
<text text-anchor="middle" x="780.5" y="-59" font-family="Helvetica,sans-Serif" font-size="10.00">v8::internal::DCHECK</text>
</a>
</g>
</g>
<!-- Node4&#45;&gt;Node5 -->
<g id="edge4" class="edge">
<title>Node4&#45;&gt;Node5</title>
<path fill="none" stroke="midnightblue" d="M500.15,-105.98C550.55,-104.66 622.78,-100.71 685,-89.5 704.57,-85.97 725.84,-79.88 743.24,-74.28"/>
<polygon fill="midnightblue" stroke="midnightblue" points="744.6,-77.52 752.99,-71.06 742.4,-70.87 744.6,-77.52"/>
</g>
<!-- Node4&#45;&gt;Node6 -->
<g id="edge5" class="edge">
<title>Node4&#45;&gt;Node6</title>
<path fill="none" stroke="midnightblue" d="M498.79,-91.46C511.5,-88.36 524.98,-85.08 538.01,-81.91"/>
<polygon fill="midnightblue" stroke="midnightblue" points="538.96,-85.28 547.85,-79.51 537.31,-78.47 538.96,-85.28"/>
</g>
<!-- Node9 -->
<g id="node8" class="node">
<title>Node9</title>
<g id="a_node8"><a xlink:href="classv8_1_1internal_1_1StringsStorage.html#ad5d8255de6b9df232f573048eae7da29" target="_top" xlink:title=" ">
<polygon fill="white" stroke="red" points="536,-0.5 536,-30.5 685,-30.5 685,-0.5 536,-0.5"/>
<text text-anchor="start" x="544" y="-18.5" font-family="Helvetica,sans-Serif" font-size="10.00">v8::internal::StringsStorage</text>
<text text-anchor="middle" x="610.5" y="-7.5" font-family="Helvetica,sans-Serif" font-size="10.00">::Release</text>
</a>
</g>
</g>
<!-- Node8&#45;&gt;Node9 -->
<g id="edge8" class="edge">
<title>Node8&#45;&gt;Node9</title>
<path fill="none" stroke="midnightblue" d="M500.25,-16.77C508.55,-16.67 517.15,-16.57 525.71,-16.47"/>
<polygon fill="midnightblue" stroke="midnightblue" points="525.78,-19.97 535.73,-16.36 525.69,-12.97 525.78,-19.97"/>
</g>
<!-- Node9&#45;&gt;Node5 -->
<g id="edge9" class="edge">
<title>Node9&#45;&gt;Node5</title>
<path fill="none" stroke="midnightblue" d="M666.51,-30.56C688.63,-36.62 713.81,-43.51 734.78,-49.25"/>
<polygon fill="midnightblue" stroke="midnightblue" points="734.13,-52.71 744.7,-51.97 735.98,-45.95 734.13,-52.71"/>
</g>
</g>
</svg>
