<?xml version="1.0" encoding="UTF-8" standalone="no"?>
<!DOCTYPE svg PUBLIC "-//W3C//DTD SVG 1.1//EN"
 "http://www.w3.org/Graphics/SVG/1.1/DTD/svg11.dtd">
<!-- Generated by graphviz version 2.43.0 (0)
 -->
<!-- Title: v8::internal::Float64::exponent Pages: 1 -->
<!--zoomable 334 -->
<svg id="main" version="1.1" xmlns="http://www.w3.org/2000/svg" xmlns:xlink="http://www.w3.org/1999/xlink" xml:space="preserve" onload="init(evt)">
<style type="text/css"><![CDATA[
.edge:hover path { stroke: red; }
.edge:hover polygon { stroke: red; fill: red; }
]]></style>
<script type="text/javascript"><![CDATA[
var edges = document.getElementsByTagName('g');
if (edges && edges.length) {
  for (var i=0;i<edges.length;i++) {
    if (edges[i].id.substr(0,4)=='edge') {
      edges[i].setAttribute('class','edge');
    }
  }
}
]]></script>
        <defs>
                <circle id="rim" cx="0" cy="0" r="7"/>
                <circle id="rim2" cx="0" cy="0" r="3.5"/>
                <g id="zoomPlus">
                        <use xlink:href="#rim" fill="#404040">
                                <set attributeName="fill" to="#808080" begin="zoomplus.mouseover" end="zoomplus.mouseout"/>
                        </use>
                        <path d="M-4,0h8M0,-4v8" fill="none" stroke="white" stroke-width="1.5" pointer-events="none"/>
                </g>
                <g id="zoomMin">
                        <use xlink:href="#rim" fill="#404040">
                                <set attributeName="fill" to="#808080" begin="zoomminus.mouseover" end="zoomminus.mouseout"/>
                        </use>
                        <path d="M-4,0h8" fill="none" stroke="white" stroke-width="1.5" pointer-events="none"/>
                </g>
                <g id="dirArrow">
                        <path fill="none" stroke="white" stroke-width="1.5" d="M0,-3.0v7 M-2.5,-0.5L0,-3.0L2.5,-0.5"/>
                </g>
               <g id="resetDef">
                       <use xlink:href="#rim2" fill="#404040">
                               <set attributeName="fill" to="#808080" begin="reset.mouseover" end="reset.mouseout"/>
                       </use>
               </g>
        </defs>

<script type="text/javascript">
var viewWidth = 655;
var viewHeight = 334;
var sectionId = 'dynsection-3';
</script>
<script xlink:href="svgpan.js"/>
<svg id="graph" class="graph">
<g id="viewport">
<title>v8::internal::Float64::exponent</title>
<polygon fill="white" stroke="transparent" points="-4,4 -4,-330 651,-330 651,4 -4,4"/>
<!-- Node1 -->
<g id="node1" class="node">
<title>Node1</title>
<g id="a_node1"><a xlink:title=" ">
<polygon fill="#bfbfbf" stroke="black" points="532,-147.5 532,-177.5 647,-177.5 647,-147.5 532,-147.5"/>
<text text-anchor="start" x="540" y="-165.5" font-family="Helvetica,sans-Serif" font-size="10.00">v8::internal::Float64</text>
<text text-anchor="middle" x="589.5" y="-154.5" font-family="Helvetica,sans-Serif" font-size="10.00">::exponent</text>
</a>
</g>
</g>
<!-- Node2 -->
<g id="node2" class="node">
<title>Node2</title>
<g id="a_node2"><a xlink:href="classv8_1_1internal_1_1Float64.html#a5b2e962fa713db2f772c69a2e05c1046" target="_top" xlink:title=" ">
<polygon fill="white" stroke="black" points="381,-147.5 381,-177.5 496,-177.5 496,-147.5 381,-147.5"/>
<text text-anchor="start" x="389" y="-165.5" font-family="Helvetica,sans-Serif" font-size="10.00">v8::internal::Float64</text>
<text text-anchor="middle" x="438.5" y="-154.5" font-family="Helvetica,sans-Serif" font-size="10.00">::is_nan</text>
</a>
</g>
</g>
<!-- Node1&#45;&gt;Node2 -->
<g id="edge1" class="edge">
<title>Node1&#45;&gt;Node2</title>
<path fill="none" stroke="midnightblue" d="M521.49,-162.5C513.01,-162.5 504.4,-162.5 496.1,-162.5"/>
<polygon fill="midnightblue" stroke="midnightblue" points="521.74,-166 531.74,-162.5 521.74,-159 521.74,-166"/>
</g>
<!-- Node3 -->
<g id="node3" class="node">
<title>Node3</title>
<g id="a_node3"><a xlink:href="classv8_1_1internal_1_1TranslatedState.html#a2369d8bdaea11b5d6767f4cdf1ac7f45" target="_top" xlink:title=" ">
<polygon fill="white" stroke="black" points="164,-295.5 164,-325.5 345,-325.5 345,-295.5 164,-295.5"/>
<text text-anchor="start" x="172" y="-313.5" font-family="Helvetica,sans-Serif" font-size="10.00">v8::internal::Translated</text>
<text text-anchor="middle" x="254.5" y="-302.5" font-family="Helvetica,sans-Serif" font-size="10.00">State::CreateNextTranslatedValue</text>
</a>
</g>
</g>
<!-- Node2&#45;&gt;Node3 -->
<g id="edge2" class="edge">
<title>Node2&#45;&gt;Node3</title>
<path fill="none" stroke="midnightblue" d="M425.65,-186.61C410.68,-214.55 382.3,-260.02 345,-285.5 339.4,-289.32 333.24,-292.56 326.83,-295.31"/>
<polygon fill="midnightblue" stroke="midnightblue" points="428.87,-188 430.38,-177.51 422.66,-184.77 428.87,-188"/>
</g>
<!-- Node8 -->
<g id="node5" class="node">
<title>Node8</title>
<g id="a_node5"><a xlink:href="classv8_1_1internal_1_1maglev_1_1MaglevGraphBuilder.html#abf8a5d716bec20ed13a286b6c23f7da1" target="_top" xlink:title=" ">
<polygon fill="white" stroke="black" points="193.5,-235 193.5,-276 315.5,-276 315.5,-235 193.5,-235"/>
<text text-anchor="start" x="201.5" y="-264" font-family="Helvetica,sans-Serif" font-size="10.00">v8::internal::maglev</text>
<text text-anchor="start" x="201.5" y="-253" font-family="Helvetica,sans-Serif" font-size="10.00">::MaglevGraphBuilder</text>
<text text-anchor="middle" x="254.5" y="-242" font-family="Helvetica,sans-Serif" font-size="10.00">::GetSilencedNaN</text>
</a>
</g>
</g>
<!-- Node2&#45;&gt;Node8 -->
<g id="edge4" class="edge">
<title>Node2&#45;&gt;Node8</title>
<path fill="none" stroke="midnightblue" d="M410.41,-183.88C392.6,-197.19 368.33,-213.92 345,-225.5 335.75,-230.09 325.64,-234.24 315.64,-237.88"/>
<polygon fill="midnightblue" stroke="midnightblue" points="412.76,-186.49 418.61,-177.66 408.53,-180.92 412.76,-186.49"/>
</g>
<!-- Node9 -->
<g id="node6" class="node">
<title>Node9</title>
<g id="a_node6"><a xlink:href="namespacev8_1_1base.html#ae20fed472ebbd416f30174f2f59c3d41" target="_top" xlink:title=" ">
<polygon fill="white" stroke="black" points="195,-197 195,-216 314,-216 314,-197 195,-197"/>
<text text-anchor="middle" x="254.5" y="-204" font-family="Helvetica,sans-Serif" font-size="10.00">v8::base::hash_value</text>
</a>
</g>
</g>
<!-- Node2&#45;&gt;Node9 -->
<g id="edge5" class="edge">
<title>Node2&#45;&gt;Node9</title>
<path fill="none" stroke="midnightblue" d="M373.87,-180.19C364.22,-182.73 354.36,-185.24 345,-187.5 331.41,-190.78 316.59,-194.05 302.99,-196.92"/>
<polygon fill="midnightblue" stroke="midnightblue" points="375.06,-183.49 383.82,-177.54 373.26,-176.73 375.06,-183.49"/>
</g>
<!-- Node10 -->
<g id="node7" class="node">
<title>Node10</title>
<g id="a_node7"><a xlink:href="classv8_1_1internal_1_1Float64.html#aeb6460f5f6fc012ccfbe2e5725b39efa" target="_top" xlink:title=" ">
<polygon fill="white" stroke="black" points="197,-147.5 197,-177.5 312,-177.5 312,-147.5 197,-147.5"/>
<text text-anchor="start" x="205" y="-165.5" font-family="Helvetica,sans-Serif" font-size="10.00">v8::internal::Float64</text>
<text text-anchor="middle" x="254.5" y="-154.5" font-family="Helvetica,sans-Serif" font-size="10.00">::is_quiet_nan</text>
</a>
</g>
</g>
<!-- Node2&#45;&gt;Node10 -->
<g id="edge6" class="edge">
<title>Node2&#45;&gt;Node10</title>
<path fill="none" stroke="midnightblue" d="M370.7,-162.5C351.44,-162.5 330.63,-162.5 312.05,-162.5"/>
<polygon fill="midnightblue" stroke="midnightblue" points="370.91,-166 380.91,-162.5 370.91,-159 370.91,-166"/>
</g>
<!-- Node11 -->
<g id="node8" class="node">
<title>Node11</title>
<g id="a_node8"><a xlink:href="classv8_1_1internal_1_1Float64.html#a015eb7d951d40994bc18b7d023d724e8" target="_top" xlink:title=" ">
<polygon fill="white" stroke="black" points="197,-98.5 197,-128.5 312,-128.5 312,-98.5 197,-98.5"/>
<text text-anchor="start" x="205" y="-116.5" font-family="Helvetica,sans-Serif" font-size="10.00">v8::internal::Float64</text>
<text text-anchor="middle" x="254.5" y="-105.5" font-family="Helvetica,sans-Serif" font-size="10.00">::operator==</text>
</a>
</g>
</g>
<!-- Node2&#45;&gt;Node11 -->
<g id="edge7" class="edge">
<title>Node2&#45;&gt;Node11</title>
<path fill="none" stroke="midnightblue" d="M371.58,-144.75C351.85,-139.44 330.42,-133.67 311.41,-128.55"/>
<polygon fill="midnightblue" stroke="midnightblue" points="370.84,-148.18 381.41,-147.4 372.66,-141.42 370.84,-148.18"/>
</g>
<!-- Node12 -->
<g id="node9" class="node">
<title>Node12</title>
<g id="a_node9"><a xlink:href="classv8_1_1internal_1_1Float64.html#a5175402834b08c363cbeab3b29e6f556" target="_top" xlink:title=" ">
<polygon fill="white" stroke="black" points="197,-49.5 197,-79.5 312,-79.5 312,-49.5 197,-49.5"/>
<text text-anchor="start" x="205" y="-67.5" font-family="Helvetica,sans-Serif" font-size="10.00">v8::internal::Float64</text>
<text text-anchor="middle" x="254.5" y="-56.5" font-family="Helvetica,sans-Serif" font-size="10.00">::to_quiet_nan</text>
</a>
</g>
</g>
<!-- Node2&#45;&gt;Node12 -->
<g id="edge8" class="edge">
<title>Node2&#45;&gt;Node12</title>
<path fill="none" stroke="midnightblue" d="M414.94,-140.46C397.23,-124.26 371.25,-102.84 345,-89.5 334.79,-84.31 323.36,-80.08 312.17,-76.67"/>
<polygon fill="midnightblue" stroke="midnightblue" points="412.77,-143.22 422.47,-147.48 417.54,-138.1 412.77,-143.22"/>
</g>
<!-- Node13 -->
<g id="node10" class="node">
<title>Node13</title>
<g id="a_node10"><a xlink:href="classv8_1_1internal_1_1maglev_1_1Float64Constant.html#a49df20d23c34eb5519f45d50af4c119b" target="_top" xlink:title=" ">
<polygon fill="white" stroke="black" points="175,-0.5 175,-30.5 334,-30.5 334,-0.5 175,-0.5"/>
<text text-anchor="start" x="183" y="-18.5" font-family="Helvetica,sans-Serif" font-size="10.00">v8::internal::maglev</text>
<text text-anchor="middle" x="254.5" y="-7.5" font-family="Helvetica,sans-Serif" font-size="10.00">::Float64Constant::ToBoolean</text>
</a>
</g>
</g>
<!-- Node2&#45;&gt;Node13 -->
<g id="edge9" class="edge">
<title>Node2&#45;&gt;Node13</title>
<path fill="none" stroke="midnightblue" d="M425.36,-138.15C410.28,-110.4 381.96,-65.64 345,-40.5 339.26,-36.6 332.93,-33.3 326.36,-30.52"/>
<polygon fill="midnightblue" stroke="midnightblue" points="422.37,-139.99 430.13,-147.2 428.56,-136.72 422.37,-139.99"/>
</g>
<!-- Node4 -->
<g id="node4" class="node">
<title>Node4</title>
<g id="a_node4"><a xlink:href="classv8_1_1internal_1_1TranslatedState.html#a5bea512b5f57dc9b34b0a299bc0cbb89" target="_top" xlink:title=" ">
<polygon fill="white" stroke="red" points="0,-295.5 0,-325.5 128,-325.5 128,-295.5 0,-295.5"/>
<text text-anchor="start" x="8" y="-313.5" font-family="Helvetica,sans-Serif" font-size="10.00">v8::internal::Translated</text>
<text text-anchor="middle" x="64" y="-302.5" font-family="Helvetica,sans-Serif" font-size="10.00">State::Init</text>
</a>
</g>
</g>
<!-- Node3&#45;&gt;Node4 -->
<g id="edge3" class="edge">
<title>Node3&#45;&gt;Node4</title>
<path fill="none" stroke="midnightblue" d="M153.76,-310.5C145.09,-310.5 136.48,-310.5 128.24,-310.5"/>
<polygon fill="midnightblue" stroke="midnightblue" points="153.94,-314 163.94,-310.5 153.94,-307 153.94,-314"/>
</g>
</g>
</svg>
        <g id="navigator" transform="translate(0 0)" fill="#404254">
                <rect fill="#f2f5e9" fill-opacity="0.5" stroke="#606060" stroke-width=".5" x="0" y="0" width="60" height="60"/>
                <use id="zoomplus" xlink:href="#zoomPlus" x="17" y="9" onmousedown="handleZoom(evt,'in')"/>
                <use id="zoomminus" xlink:href="#zoomMin" x="42" y="9" onmousedown="handleZoom(evt,'out')"/>
                <use id="reset" xlink:href="#resetDef" x="30" y="36" onmousedown="handleReset()"/>
                <g id="arrowUp" xlink:href="#dirArrow" transform="translate(30 24)" onmousedown="handlePan(0,-1)">
                  <use xlink:href="#rim" fill="#404040">
                        <set attributeName="fill" to="#808080" begin="arrowUp.mouseover" end="arrowUp.mouseout"/>
                  </use>
                  <path fill="none" stroke="white" stroke-width="1.5" d="M0,-3.0v7 M-2.5,-0.5L0,-3.0L2.5,-0.5"/>
                </g>
                <g id="arrowRight" xlink:href="#dirArrow" transform="rotate(90) translate(36 -43)" onmousedown="handlePan(1,0)">
                  <use xlink:href="#rim" fill="#404040">
                        <set attributeName="fill" to="#808080" begin="arrowRight.mouseover" end="arrowRight.mouseout"/>
                  </use>
                  <path fill="none" stroke="white" stroke-width="1.5" d="M0,-3.0v7 M-2.5,-0.5L0,-3.0L2.5,-0.5"/>
                </g>
                <g id="arrowDown" xlink:href="#dirArrow" transform="rotate(180) translate(-30 -48)" onmousedown="handlePan(0,1)">
                  <use xlink:href="#rim" fill="#404040">
                        <set attributeName="fill" to="#808080" begin="arrowDown.mouseover" end="arrowDown.mouseout"/>
                  </use>
                  <path fill="none" stroke="white" stroke-width="1.5" d="M0,-3.0v7 M-2.5,-0.5L0,-3.0L2.5,-0.5"/>
                </g>
                <g id="arrowLeft" xlink:href="#dirArrow" transform="rotate(270) translate(-36 17)" onmousedown="handlePan(-1,0)">
                  <use xlink:href="#rim" fill="#404040">
                        <set attributeName="fill" to="#808080" begin="arrowLeft.mouseover" end="arrowLeft.mouseout"/>
                  </use>
                  <path fill="none" stroke="white" stroke-width="1.5" d="M0,-3.0v7 M-2.5,-0.5L0,-3.0L2.5,-0.5"/>
                </g>
        </g>
        <svg viewBox="0 0 15 15" width="100%" height="30px" preserveAspectRatio="xMaxYMin meet">
         <g id="arrow_out" transform="scale(0.3 0.3)">
          <a xlink:href="classv8_1_1internal_1_1Float64_a42d01901664eb04974794a8a1e6021ad_icgraph_org.svg" target="_base">
           <rect id="button" ry="5" rx="5" y="6" x="6" height="38" width="38"
                fill="#f2f5e9" fill-opacity="0.5" stroke="#606060" stroke-width="1.0"/>
           <path id="arrow"
             d="M 11.500037,31.436501 C 11.940474,20.09759 22.043105,11.32322 32.158766,21.979434 L 37.068811,17.246167 C 37.068811,17.246167 37.088388,32 37.088388,32 L 22.160133,31.978069 C 22.160133,31.978069 26.997745,27.140456 26.997745,27.140456 C 18.528582,18.264221 13.291696,25.230495 11.500037,31.436501 z"
             style="fill:#404040;"/>
          </a>
         </g>
        </svg>
</svg>
