<?xml version="1.0" encoding="UTF-8" standalone="no"?>
<!DOCTYPE svg PUBLIC "-//W3C//DTD SVG 1.1//EN"
 "http://www.w3.org/Graphics/SVG/1.1/DTD/svg11.dtd">
<!-- Generated by graphviz version 2.43.0 (0)
 -->
<!-- Title: v8::internal::StringForwardingTable::Block::UpdateAfterYoungEvacuation Pages: 1 -->
<svg width="850pt" height="264pt"
 viewBox="0.00 0.00 850.00 263.50" xmlns="http://www.w3.org/2000/svg" xmlns:xlink="http://www.w3.org/1999/xlink">
<g id="graph0" class="graph" transform="scale(1 1) rotate(0) translate(4 259.5)">
<title>v8::internal::StringForwardingTable::Block::UpdateAfterYoungEvacuation</title>
<polygon fill="white" stroke="transparent" points="-4,4 -4,-259.5 846,-259.5 846,4 -4,4"/>
<!-- Node1 -->
<g id="node1" class="node">
<title>Node1</title>
<g id="a_node1"><a xlink:title=" ">
<polygon fill="#bfbfbf" stroke="black" points="0,-120.5 0,-150.5 222,-150.5 222,-120.5 0,-120.5"/>
<text text-anchor="start" x="8" y="-138.5" font-family="Helvetica,sans-Serif" font-size="10.00">v8::internal::StringForwarding</text>
<text text-anchor="middle" x="111" y="-127.5" font-family="Helvetica,sans-Serif" font-size="10.00">Table::Block::UpdateAfterYoungEvacuation</text>
</a>
</g>
</g>
<!-- Node2 -->
<g id="node2" class="node">
<title>Node2</title>
<g id="a_node2"><a xlink:href="classv8_1_1internal_1_1StringForwardingTable.html#a597cf3d557f85b53c7356be22ddd64e4" target="_top" xlink:title=" ">
<polygon fill="white" stroke="black" points="258,-120.5 258,-150.5 447,-150.5 447,-120.5 258,-120.5"/>
<text text-anchor="start" x="266" y="-138.5" font-family="Helvetica,sans-Serif" font-size="10.00">v8::internal::StringForwarding</text>
<text text-anchor="middle" x="352.5" y="-127.5" font-family="Helvetica,sans-Serif" font-size="10.00">Table::UpdateAfterYoungEvacuation</text>
</a>
</g>
</g>
<!-- Node1&#45;&gt;Node2 -->
<g id="edge1" class="edge">
<title>Node1&#45;&gt;Node2</title>
<path fill="none" stroke="midnightblue" d="M222.29,-128.77C230.75,-128.74 239.28,-128.75 247.7,-128.8"/>
<polygon fill="midnightblue" stroke="midnightblue" points="247.88,-132.31 257.91,-128.9 247.95,-125.31 247.88,-132.31"/>
</g>
<!-- Node2&#45;&gt;Node1 -->
<g id="edge11" class="edge">
<title>Node2&#45;&gt;Node1</title>
<path fill="none" stroke="midnightblue" d="M257.91,-142.1C249.52,-142.2 240.94,-142.25 232.35,-142.25"/>
<polygon fill="midnightblue" stroke="midnightblue" points="232.29,-138.75 222.29,-142.23 232.28,-145.75 232.29,-138.75"/>
</g>
<!-- Node3 -->
<g id="node3" class="node">
<title>Node3</title>
<g id="a_node3"><a xlink:href="namespacev8_1_1internal.html#aa6b3743bd5d773c552654f2a6c3efa4a" target="_top" xlink:title=" ">
<polygon fill="white" stroke="black" points="504.5,-236 504.5,-255 623.5,-255 623.5,-236 504.5,-236"/>
<text text-anchor="middle" x="564" y="-243" font-family="Helvetica,sans-Serif" font-size="10.00">v8::internal::DCHECK</text>
</a>
</g>
</g>
<!-- Node2&#45;&gt;Node3 -->
<g id="edge2" class="edge">
<title>Node2&#45;&gt;Node3</title>
<path fill="none" stroke="midnightblue" d="M370.61,-150.79C394.23,-171.08 438.9,-206.65 483,-226.5 488.42,-228.94 494.19,-231.09 500.06,-232.98"/>
<polygon fill="midnightblue" stroke="midnightblue" points="499.4,-236.43 509.98,-235.91 501.39,-229.72 499.4,-236.43"/>
</g>
<!-- Node4 -->
<g id="node4" class="node">
<title>Node4</title>
<g id="a_node4"><a xlink:href="classv8_1_1internal_1_1StringForwardingTable.html#aeb2bf49c0d10d562ee960e3193a56c12" target="_top" xlink:title=" ">
<polygon fill="white" stroke="black" points="483.5,-186.5 483.5,-216.5 644.5,-216.5 644.5,-186.5 483.5,-186.5"/>
<text text-anchor="start" x="491.5" y="-204.5" font-family="Helvetica,sans-Serif" font-size="10.00">v8::internal::StringForwarding</text>
<text text-anchor="middle" x="564" y="-193.5" font-family="Helvetica,sans-Serif" font-size="10.00">Table::empty</text>
</a>
</g>
</g>
<!-- Node2&#45;&gt;Node4 -->
<g id="edge3" class="edge">
<title>Node2&#45;&gt;Node4</title>
<path fill="none" stroke="midnightblue" d="M401.3,-150.56C432.16,-160.28 472.5,-172.99 505.17,-183.28"/>
<polygon fill="midnightblue" stroke="midnightblue" points="504.45,-186.72 515.04,-186.39 506.56,-180.05 504.45,-186.72"/>
</g>
<!-- Node5 -->
<g id="node5" class="node">
<title>Node5</title>
<g id="a_node5"><a xlink:href="classv8_1_1internal_1_1StringForwardingTable.html#aab0d2b9aa79e6eb2f355fb70c3e85e3a" target="_top" xlink:title=" ">
<polygon fill="white" stroke="black" points="681,-142.5 681,-172.5 842,-172.5 842,-142.5 681,-142.5"/>
<text text-anchor="start" x="689" y="-160.5" font-family="Helvetica,sans-Serif" font-size="10.00">v8::internal::StringForwarding</text>
<text text-anchor="middle" x="761.5" y="-149.5" font-family="Helvetica,sans-Serif" font-size="10.00">Table::size</text>
</a>
</g>
</g>
<!-- Node2&#45;&gt;Node5 -->
<g id="edge10" class="edge">
<title>Node2&#45;&gt;Node5</title>
<path fill="none" stroke="midnightblue" d="M447.13,-140.56C514.33,-144.19 604.36,-149.06 670.68,-152.64"/>
<polygon fill="midnightblue" stroke="midnightblue" points="670.53,-156.14 680.7,-153.19 670.9,-149.15 670.53,-156.14"/>
</g>
<!-- Node6 -->
<g id="node6" class="node">
<title>Node6</title>
<g id="a_node6"><a xlink:href="classv8_1_1internal_1_1StringForwardingTable.html#a1a2599177ea493c538466de399f4951b" target="_top" xlink:title=" ">
<polygon fill="white" stroke="black" points="483.5,-98.5 483.5,-128.5 644.5,-128.5 644.5,-98.5 483.5,-98.5"/>
<text text-anchor="start" x="491.5" y="-116.5" font-family="Helvetica,sans-Serif" font-size="10.00">v8::internal::StringForwarding</text>
<text text-anchor="middle" x="564" y="-105.5" font-family="Helvetica,sans-Serif" font-size="10.00">Table::IndexInBlock</text>
</a>
</g>
</g>
<!-- Node2&#45;&gt;Node6 -->
<g id="edge5" class="edge">
<title>Node2&#45;&gt;Node6</title>
<path fill="none" stroke="midnightblue" d="M447.22,-125.66C455.91,-124.75 464.71,-123.82 473.36,-122.91"/>
<polygon fill="midnightblue" stroke="midnightblue" points="473.86,-126.38 483.44,-121.85 473.13,-119.42 473.86,-126.38"/>
</g>
<!-- Node7 -->
<g id="node7" class="node">
<title>Node7</title>
<g id="a_node7"><a xlink:href="classv8_1_1internal_1_1StringForwardingTable_1_1BlockVector.html#a706d29aaae4818ff6a9515751f675061" target="_top" xlink:title=" ">
<polygon fill="white" stroke="black" points="483,-49.5 483,-79.5 645,-79.5 645,-49.5 483,-49.5"/>
<text text-anchor="start" x="491" y="-67.5" font-family="Helvetica,sans-Serif" font-size="10.00">v8::internal::StringForwarding</text>
<text text-anchor="middle" x="564" y="-56.5" font-family="Helvetica,sans-Serif" font-size="10.00">Table::BlockVector::LoadBlock</text>
</a>
</g>
</g>
<!-- Node2&#45;&gt;Node7 -->
<g id="edge6" class="edge">
<title>Node2&#45;&gt;Node7</title>
<path fill="none" stroke="midnightblue" d="M394.48,-120.49C419.88,-111.3 453.24,-99.43 483,-89.5 489.83,-87.22 497.01,-84.89 504.15,-82.61"/>
<polygon fill="midnightblue" stroke="midnightblue" points="505.35,-85.9 513.83,-79.54 503.24,-79.23 505.35,-85.9"/>
</g>
<!-- Node13 -->
<g id="node9" class="node">
<title>Node13</title>
<g id="a_node9"><a xlink:href="classv8_1_1internal_1_1StringForwardingTable_1_1BlockVector.html#af2f888dffd3c071653031d0cc1f35924" target="_top" xlink:title=" ">
<polygon fill="white" stroke="black" points="483.5,-0.5 483.5,-30.5 644.5,-30.5 644.5,-0.5 483.5,-0.5"/>
<text text-anchor="start" x="491.5" y="-18.5" font-family="Helvetica,sans-Serif" font-size="10.00">v8::internal::StringForwarding</text>
<text text-anchor="middle" x="564" y="-7.5" font-family="Helvetica,sans-Serif" font-size="10.00">Table::BlockVector::size</text>
</a>
</g>
</g>
<!-- Node2&#45;&gt;Node13 -->
<g id="edge9" class="edge">
<title>Node2&#45;&gt;Node13</title>
<path fill="none" stroke="midnightblue" d="M369.84,-120.41C393.25,-99.52 438.47,-61.82 483,-39.5 486.72,-37.64 490.61,-35.89 494.58,-34.25"/>
<polygon fill="midnightblue" stroke="midnightblue" points="495.9,-37.5 503.98,-30.65 493.39,-30.96 495.9,-37.5"/>
</g>
<!-- Node4&#45;&gt;Node5 -->
<g id="edge4" class="edge">
<title>Node4&#45;&gt;Node5</title>
<path fill="none" stroke="midnightblue" d="M631.73,-186.48C648.47,-182.71 666.56,-178.64 683.74,-174.78"/>
<polygon fill="midnightblue" stroke="midnightblue" points="684.75,-178.14 693.74,-172.53 683.21,-171.31 684.75,-178.14"/>
</g>
<!-- Node7&#45;&gt;Node5 -->
<g id="edge8" class="edge">
<title>Node7&#45;&gt;Node5</title>
<path fill="none" stroke="midnightblue" d="M618.99,-79.51C627.81,-82.49 636.75,-85.84 645,-89.5 675.04,-102.83 707.1,-122.15 729.79,-136.79"/>
<polygon fill="midnightblue" stroke="midnightblue" points="728.03,-139.82 738.31,-142.35 731.85,-133.96 728.03,-139.82"/>
</g>
<!-- Node8 -->
<g id="node8" class="node">
<title>Node8</title>
<g id="a_node8"><a xlink:href="classv8_1_1base_1_1AsAtomicImpl.html#a776bcde4b303aceccd6491599a7cf1d5" target="_top" xlink:title=" ">
<polygon fill="white" stroke="red" points="695.5,-49.5 695.5,-79.5 827.5,-79.5 827.5,-49.5 695.5,-49.5"/>
<text text-anchor="start" x="703.5" y="-67.5" font-family="Helvetica,sans-Serif" font-size="10.00">v8::base::AsAtomicImpl</text>
<text text-anchor="middle" x="761.5" y="-56.5" font-family="Helvetica,sans-Serif" font-size="10.00">::Acquire_Load</text>
</a>
</g>
</g>
<!-- Node7&#45;&gt;Node8 -->
<g id="edge7" class="edge">
<title>Node7&#45;&gt;Node8</title>
<path fill="none" stroke="midnightblue" d="M645.08,-64.5C658.31,-64.5 671.99,-64.5 685.1,-64.5"/>
<polygon fill="midnightblue" stroke="midnightblue" points="685.47,-68 695.47,-64.5 685.47,-61 685.47,-68"/>
</g>
</g>
</svg>
