<?xml version="1.0" encoding="UTF-8" standalone="no"?>
<!DOCTYPE svg PUBLIC "-//W3C//DTD SVG 1.1//EN"
 "http://www.w3.org/Graphics/SVG/1.1/DTD/svg11.dtd">
<!-- Generated by graphviz version 2.43.0 (0)
 -->
<!-- Title: v8::internal::interpreter::BytecodeArrayBuilder::CallRuntimeForPair Pages: 1 -->
<svg width="376pt" height="137pt"
 viewBox="0.00 0.00 376.00 137.00" xmlns="http://www.w3.org/2000/svg" xmlns:xlink="http://www.w3.org/1999/xlink">
<g id="graph0" class="graph" transform="scale(1 1) rotate(0) translate(4 133)">
<title>v8::internal::interpreter::BytecodeArrayBuilder::CallRuntimeForPair</title>
<polygon fill="white" stroke="transparent" points="-4,4 -4,-133 372,-133 372,4 -4,4"/>
<!-- Node1 -->
<g id="node1" class="node">
<title>Node1</title>
<g id="a_node1"><a xlink:title=" ">
<polygon fill="#bfbfbf" stroke="black" points="0,-44 0,-85 130,-85 130,-44 0,-44"/>
<text text-anchor="start" x="8" y="-73" font-family="Helvetica,sans-Serif" font-size="10.00">v8::internal::interpreter</text>
<text text-anchor="start" x="8" y="-62" font-family="Helvetica,sans-Serif" font-size="10.00">::BytecodeArrayBuilder</text>
<text text-anchor="middle" x="65" y="-51" font-family="Helvetica,sans-Serif" font-size="10.00">::CallRuntimeForPair</text>
</a>
</g>
</g>
<!-- Node2 -->
<g id="node2" class="node">
<title>Node2</title>
<g id="a_node2"><a xlink:href="classv8_1_1internal_1_1Runtime.html#a1fb4256645450f73e9ee39d4f38f3d58" target="_top" xlink:title=" ">
<polygon fill="white" stroke="black" points="207.5,-98.5 207.5,-128.5 326.5,-128.5 326.5,-98.5 207.5,-98.5"/>
<text text-anchor="start" x="215.5" y="-116.5" font-family="Helvetica,sans-Serif" font-size="10.00">v8::internal::Runtime</text>
<text text-anchor="middle" x="267" y="-105.5" font-family="Helvetica,sans-Serif" font-size="10.00">::FunctionForId</text>
</a>
</g>
</g>
<!-- Node1&#45;&gt;Node2 -->
<g id="edge1" class="edge">
<title>Node1&#45;&gt;Node2</title>
<path fill="none" stroke="midnightblue" d="M130.26,-80.66C142.14,-83.62 154.44,-86.67 166,-89.5 176.12,-91.98 186.82,-94.57 197.31,-97.11"/>
<polygon fill="midnightblue" stroke="midnightblue" points="196.74,-100.57 207.28,-99.51 198.38,-93.76 196.74,-100.57"/>
</g>
<!-- Node3 -->
<g id="node3" class="node">
<title>Node3</title>
<g id="a_node3"><a xlink:href="classv8_1_1internal_1_1interpreter_1_1RegisterList.html#a272f083f50dc5e2bb1bccf6398250977" target="_top" xlink:title=" ">
<polygon fill="white" stroke="black" points="189,-49.5 189,-79.5 345,-79.5 345,-49.5 189,-49.5"/>
<text text-anchor="start" x="197" y="-67.5" font-family="Helvetica,sans-Serif" font-size="10.00">v8::internal::interpreter</text>
<text text-anchor="middle" x="267" y="-56.5" font-family="Helvetica,sans-Serif" font-size="10.00">::RegisterList::register_count</text>
</a>
</g>
</g>
<!-- Node1&#45;&gt;Node3 -->
<g id="edge2" class="edge">
<title>Node1&#45;&gt;Node3</title>
<path fill="none" stroke="midnightblue" d="M130.11,-64.5C145.62,-64.5 162.47,-64.5 178.85,-64.5"/>
<polygon fill="midnightblue" stroke="midnightblue" points="178.97,-68 188.97,-64.5 178.97,-61 178.97,-68"/>
</g>
<!-- Node4 -->
<g id="node4" class="node">
<title>Node4</title>
<g id="a_node4"><a xlink:href="classv8_1_1internal_1_1interpreter_1_1Bytecodes.html#ab0eb14aa42d3ed483825ed6b97970af2" target="_top" xlink:title=" ">
<polygon fill="white" stroke="black" points="166,-0.5 166,-30.5 368,-30.5 368,-0.5 166,-0.5"/>
<text text-anchor="start" x="174" y="-18.5" font-family="Helvetica,sans-Serif" font-size="10.00">v8::internal::interpreter</text>
<text text-anchor="middle" x="267" y="-7.5" font-family="Helvetica,sans-Serif" font-size="10.00">::Bytecodes::SizeForUnsignedOperand</text>
</a>
</g>
</g>
<!-- Node1&#45;&gt;Node4 -->
<g id="edge3" class="edge">
<title>Node1&#45;&gt;Node4</title>
<path fill="none" stroke="midnightblue" d="M130.11,-48.79C150.72,-43.74 173.68,-38.12 194.78,-32.95"/>
<polygon fill="midnightblue" stroke="midnightblue" points="195.76,-36.31 204.64,-30.53 194.1,-29.51 195.76,-36.31"/>
</g>
</g>
</svg>
