<?xml version="1.0" encoding="UTF-8" standalone="no"?>
<!DOCTYPE svg PUBLIC "-//W3C//DTD SVG 1.1//EN"
 "http://www.w3.org/Graphics/SVG/1.1/DTD/svg11.dtd">
<!-- Generated by graphviz version 2.43.0 (0)
 -->
<!-- Title: v8::internal::JSTrampolineDescriptor Pages: 1 -->
<svg width="193pt" height="262pt"
 viewBox="0.00 0.00 193.00 262.00" xmlns="http://www.w3.org/2000/svg" xmlns:xlink="http://www.w3.org/1999/xlink">
<g id="graph0" class="graph" transform="scale(1 1) rotate(0) translate(4 258)">
<title>v8::internal::JSTrampolineDescriptor</title>
<polygon fill="white" stroke="transparent" points="-4,4 -4,-258 189,-258 189,4 -4,4"/>
<!-- Node1 -->
<g id="node1" class="node">
<title>Node1</title>
<g id="a_node1"><a xlink:title=" ">
<polygon fill="#bfbfbf" stroke="black" points="22,-0.5 22,-30.5 163,-30.5 163,-0.5 22,-0.5"/>
<text text-anchor="start" x="30" y="-18.5" font-family="Helvetica,sans-Serif" font-size="10.00">v8::internal::JSTrampoline</text>
<text text-anchor="middle" x="92.5" y="-7.5" font-family="Helvetica,sans-Serif" font-size="10.00">Descriptor</text>
</a>
</g>
</g>
<!-- Node2 -->
<g id="node2" class="node">
<title>Node2</title>
<g id="a_node2"><a xlink:href="classv8_1_1internal_1_1StaticJSCallInterfaceDescriptor.html" target="_top" xlink:title=" ">
<polygon fill="white" stroke="black" points="0,-67.5 0,-108.5 185,-108.5 185,-67.5 0,-67.5"/>
<text text-anchor="start" x="8" y="-96.5" font-family="Helvetica,sans-Serif" font-size="10.00">v8::internal::StaticJSCall</text>
<text text-anchor="start" x="8" y="-85.5" font-family="Helvetica,sans-Serif" font-size="10.00">InterfaceDescriptor&lt; JSTrampoline</text>
<text text-anchor="middle" x="92.5" y="-74.5" font-family="Helvetica,sans-Serif" font-size="10.00">Descriptor &gt;</text>
</a>
</g>
</g>
<!-- Node2&#45;&gt;Node1 -->
<g id="edge1" class="edge">
<title>Node2&#45;&gt;Node1</title>
<path fill="none" stroke="midnightblue" d="M92.5,-57.08C92.5,-48.01 92.5,-38.45 92.5,-30.89"/>
<polygon fill="midnightblue" stroke="midnightblue" points="89,-57.36 92.5,-67.36 96,-57.36 89,-57.36"/>
</g>
<!-- Node3 -->
<g id="node3" class="node">
<title>Node3</title>
<g id="a_node3"><a xlink:href="classv8_1_1internal_1_1StaticCallInterfaceDescriptor.html" target="_top" xlink:title=" ">
<polygon fill="white" stroke="black" points="12.5,-145.5 12.5,-186.5 172.5,-186.5 172.5,-145.5 12.5,-145.5"/>
<text text-anchor="start" x="20.5" y="-174.5" font-family="Helvetica,sans-Serif" font-size="10.00">v8::internal::StaticCall</text>
<text text-anchor="start" x="20.5" y="-163.5" font-family="Helvetica,sans-Serif" font-size="10.00">InterfaceDescriptor&lt; Derived</text>
<text text-anchor="middle" x="92.5" y="-152.5" font-family="Helvetica,sans-Serif" font-size="10.00">Descriptor &gt;</text>
</a>
</g>
</g>
<!-- Node3&#45;&gt;Node2 -->
<g id="edge2" class="edge">
<title>Node3&#45;&gt;Node2</title>
<path fill="none" stroke="midnightblue" d="M92.5,-135.3C92.5,-126.3 92.5,-116.65 92.5,-108.51"/>
<polygon fill="midnightblue" stroke="midnightblue" points="89,-135.43 92.5,-145.43 96,-135.43 89,-135.43"/>
</g>
<!-- Node4 -->
<g id="node4" class="node">
<title>Node4</title>
<g id="a_node4"><a xlink:href="classv8_1_1internal_1_1CallInterfaceDescriptor.html" target="_top" xlink:title=" ">
<polygon fill="white" stroke="black" points="22.5,-223.5 22.5,-253.5 162.5,-253.5 162.5,-223.5 22.5,-223.5"/>
<text text-anchor="start" x="30.5" y="-241.5" font-family="Helvetica,sans-Serif" font-size="10.00">v8::internal::CallInterface</text>
<text text-anchor="middle" x="92.5" y="-230.5" font-family="Helvetica,sans-Serif" font-size="10.00">Descriptor</text>
</a>
</g>
</g>
<!-- Node4&#45;&gt;Node3 -->
<g id="edge3" class="edge">
<title>Node4&#45;&gt;Node3</title>
<path fill="none" stroke="midnightblue" d="M92.5,-212.98C92.5,-204.35 92.5,-194.76 92.5,-186.59"/>
<polygon fill="midnightblue" stroke="midnightblue" points="89,-213.23 92.5,-223.23 96,-213.23 89,-213.23"/>
</g>
</g>
</svg>
