<?xml version="1.0" encoding="UTF-8" standalone="no"?>
<!DOCTYPE svg PUBLIC "-//W3C//DTD SVG 1.1//EN"
 "http://www.w3.org/Graphics/SVG/1.1/DTD/svg11.dtd">
<!-- Generated by graphviz version 2.43.0 (0)
 -->
<!-- Title: v8::internal::compiler::InstructionSequence::GetInstructionBlock Pages: 1 -->
<svg width="777pt" height="340pt"
 viewBox="0.00 0.00 777.00 339.50" xmlns="http://www.w3.org/2000/svg" xmlns:xlink="http://www.w3.org/1999/xlink">
<g id="graph0" class="graph" transform="scale(1 1) rotate(0) translate(4 335.5)">
<title>v8::internal::compiler::InstructionSequence::GetInstructionBlock</title>
<polygon fill="white" stroke="transparent" points="-4,4 -4,-335.5 773,-335.5 773,4 -4,4"/>
<!-- Node1 -->
<g id="node1" class="node">
<title>Node1</title>
<g id="a_node1"><a xlink:title=" ">
<polygon fill="#bfbfbf" stroke="black" points="647,-162 647,-203 769,-203 769,-162 647,-162"/>
<text text-anchor="start" x="655" y="-191" font-family="Helvetica,sans-Serif" font-size="10.00">v8::internal::compiler</text>
<text text-anchor="start" x="655" y="-180" font-family="Helvetica,sans-Serif" font-size="10.00">::InstructionSequence</text>
<text text-anchor="middle" x="708" y="-169" font-family="Helvetica,sans-Serif" font-size="10.00">::GetInstructionBlock</text>
</a>
</g>
</g>
<!-- Node2 -->
<g id="node2" class="node">
<title>Node2</title>
<g id="a_node2"><a xlink:href="classv8_1_1internal_1_1compiler_1_1LinearScanAllocator.html#a6d24c5c5d84256f82d4cadd17382a8ad" target="_top" xlink:title=" ">
<polygon fill="white" stroke="black" points="461,-290 461,-331 582,-331 582,-290 461,-290"/>
<text text-anchor="start" x="469" y="-319" font-family="Helvetica,sans-Serif" font-size="10.00">v8::internal::compiler</text>
<text text-anchor="start" x="469" y="-308" font-family="Helvetica,sans-Serif" font-size="10.00">::LinearScanAllocator</text>
<text text-anchor="middle" x="521.5" y="-297" font-family="Helvetica,sans-Serif" font-size="10.00">::AllocateBlockedReg</text>
</a>
</g>
</g>
<!-- Node1&#45;&gt;Node2 -->
<g id="edge1" class="edge">
<title>Node1&#45;&gt;Node2</title>
<path fill="none" stroke="midnightblue" d="M683.37,-210.72C665.25,-230.92 638.71,-257.62 611,-275.5 602.11,-281.23 592.14,-286.29 582.18,-290.64"/>
<polygon fill="midnightblue" stroke="midnightblue" points="686.14,-212.86 690.12,-203.05 680.88,-208.24 686.14,-212.86"/>
</g>
<!-- Node4 -->
<g id="node4" class="node">
<title>Node4</title>
<g id="a_node4"><a xlink:href="classv8_1_1internal_1_1compiler_1_1LinearScanAllocator.html#af090759a2b6c76166a297fe5343fbbe9" target="_top" xlink:title=" ">
<polygon fill="white" stroke="black" points="15.5,-271 15.5,-312 136.5,-312 136.5,-271 15.5,-271"/>
<text text-anchor="start" x="23.5" y="-300" font-family="Helvetica,sans-Serif" font-size="10.00">v8::internal::compiler</text>
<text text-anchor="start" x="23.5" y="-289" font-family="Helvetica,sans-Serif" font-size="10.00">::LinearScanAllocator</text>
<text text-anchor="middle" x="76" y="-278" font-family="Helvetica,sans-Serif" font-size="10.00">::AllocateRegisters</text>
</a>
</g>
</g>
<!-- Node1&#45;&gt;Node4 -->
<g id="edge4" class="edge">
<title>Node1&#45;&gt;Node4</title>
<path fill="none" stroke="midnightblue" d="M673.19,-209.12C655.64,-221.46 633.26,-235.02 611,-242.5 432.07,-302.61 375.92,-262.75 188,-280.5 171.32,-282.08 153.24,-283.84 136.61,-285.49"/>
<polygon fill="midnightblue" stroke="midnightblue" points="675.34,-211.88 681.4,-203.19 671.24,-206.21 675.34,-211.88"/>
</g>
<!-- Node5 -->
<g id="node5" class="node">
<title>Node5</title>
<g id="a_node5"><a xlink:href="classv8_1_1internal_1_1compiler_1_1LiveRangeConnector.html#afaebc67111f0c9674525a320306dd50b" target="_top" xlink:title=" ">
<polygon fill="white" stroke="black" points="438.5,-192 438.5,-233 604.5,-233 604.5,-192 438.5,-192"/>
<text text-anchor="start" x="446.5" y="-221" font-family="Helvetica,sans-Serif" font-size="10.00">v8::internal::compiler</text>
<text text-anchor="start" x="446.5" y="-210" font-family="Helvetica,sans-Serif" font-size="10.00">::LiveRangeConnector::</text>
<text text-anchor="middle" x="521.5" y="-199" font-family="Helvetica,sans-Serif" font-size="10.00">CommitSpillsInDeferredBlocks</text>
</a>
</g>
</g>
<!-- Node1&#45;&gt;Node5 -->
<g id="edge5" class="edge">
<title>Node1&#45;&gt;Node5</title>
<path fill="none" stroke="midnightblue" d="M636.9,-193.9C626.38,-195.61 615.45,-197.39 604.7,-199.13"/>
<polygon fill="midnightblue" stroke="midnightblue" points="637.53,-197.34 646.84,-192.28 636.41,-190.43 637.53,-197.34"/>
</g>
<!-- Node8 -->
<g id="node8" class="node">
<title>Node8</title>
<g id="a_node8"><a xlink:href="classv8_1_1internal_1_1compiler_1_1LiveRangeConnector.html#ae335542bcf27f1fcbb39e1a8701242e3" target="_top" xlink:title=" ">
<polygon fill="white" stroke="black" points="457,-132 457,-173 586,-173 586,-132 457,-132"/>
<text text-anchor="start" x="465" y="-161" font-family="Helvetica,sans-Serif" font-size="10.00">v8::internal::compiler</text>
<text text-anchor="start" x="465" y="-150" font-family="Helvetica,sans-Serif" font-size="10.00">::LiveRangeConnector::</text>
<text text-anchor="middle" x="521.5" y="-139" font-family="Helvetica,sans-Serif" font-size="10.00">ConnectRanges</text>
</a>
</g>
</g>
<!-- Node1&#45;&gt;Node8 -->
<g id="edge8" class="edge">
<title>Node1&#45;&gt;Node8</title>
<path fill="none" stroke="midnightblue" d="M636.64,-171.06C620.01,-168.36 602.37,-165.49 586.07,-162.84"/>
<polygon fill="midnightblue" stroke="midnightblue" points="636.41,-174.57 646.84,-172.72 637.53,-167.66 636.41,-174.57"/>
</g>
<!-- Node10 -->
<g id="node10" class="node">
<title>Node10</title>
<g id="a_node10"><a xlink:href="classv8_1_1internal_1_1compiler_1_1RegisterAllocationData.html#a6f8fcd07e74378d83027c2d1fb5c491d" target="_top" xlink:title=" ">
<polygon fill="white" stroke="black" points="454,-72 454,-113 589,-113 589,-72 454,-72"/>
<text text-anchor="start" x="462" y="-101" font-family="Helvetica,sans-Serif" font-size="10.00">v8::internal::compiler</text>
<text text-anchor="start" x="462" y="-90" font-family="Helvetica,sans-Serif" font-size="10.00">::RegisterAllocationData</text>
<text text-anchor="middle" x="521.5" y="-79" font-family="Helvetica,sans-Serif" font-size="10.00">::IsBlockBoundary</text>
</a>
</g>
</g>
<!-- Node1&#45;&gt;Node10 -->
<g id="edge10" class="edge">
<title>Node1&#45;&gt;Node10</title>
<path fill="none" stroke="midnightblue" d="M669.11,-155.98C651.9,-144.69 630.96,-131.96 611,-122.5 603.96,-119.16 596.45,-116.02 588.9,-113.12"/>
<polygon fill="midnightblue" stroke="midnightblue" points="667.49,-159.1 677.75,-161.73 671.37,-153.27 667.49,-159.1"/>
</g>
<!-- Node11 -->
<g id="node11" class="node">
<title>Node11</title>
<g id="a_node11"><a xlink:href="classv8_1_1internal_1_1compiler_1_1RegisterAllocationData.html#aef182aa9a93a84b759fcf545090c8088" target="_top" xlink:title=" ">
<polygon fill="white" stroke="black" points="432,-0.5 432,-52.5 611,-52.5 611,-0.5 432,-0.5"/>
<text text-anchor="start" x="440" y="-40.5" font-family="Helvetica,sans-Serif" font-size="10.00">v8::internal::compiler</text>
<text text-anchor="start" x="440" y="-29.5" font-family="Helvetica,sans-Serif" font-size="10.00">::RegisterAllocationData</text>
<text text-anchor="start" x="440" y="-18.5" font-family="Helvetica,sans-Serif" font-size="10.00">::RangesDefinedInDeferredStayIn</text>
<text text-anchor="middle" x="521.5" y="-7.5" font-family="Helvetica,sans-Serif" font-size="10.00">Deferred</text>
</a>
</g>
</g>
<!-- Node1&#45;&gt;Node11 -->
<g id="edge11" class="edge">
<title>Node1&#45;&gt;Node11</title>
<path fill="none" stroke="midnightblue" d="M689.87,-153.44C672.83,-126.67 644.42,-87.45 611,-62.5 606.21,-58.93 601.03,-55.65 595.64,-52.65"/>
<polygon fill="midnightblue" stroke="midnightblue" points="686.95,-155.36 695.21,-162 692.89,-151.66 686.95,-155.36"/>
</g>
<!-- Node3 -->
<g id="node3" class="node">
<title>Node3</title>
<g id="a_node3"><a xlink:href="classv8_1_1internal_1_1compiler_1_1LinearScanAllocator.html#a4507f3b02b337d5e4b7e440946bc8cfb" target="_top" xlink:title=" ">
<polygon fill="white" stroke="black" points="228.5,-290 228.5,-331 355.5,-331 355.5,-290 228.5,-290"/>
<text text-anchor="start" x="236.5" y="-319" font-family="Helvetica,sans-Serif" font-size="10.00">v8::internal::compiler</text>
<text text-anchor="start" x="236.5" y="-308" font-family="Helvetica,sans-Serif" font-size="10.00">::LinearScanAllocator</text>
<text text-anchor="middle" x="292" y="-297" font-family="Helvetica,sans-Serif" font-size="10.00">::ProcessCurrentRange</text>
</a>
</g>
</g>
<!-- Node2&#45;&gt;Node3 -->
<g id="edge2" class="edge">
<title>Node2&#45;&gt;Node3</title>
<path fill="none" stroke="midnightblue" d="M450.64,-310.5C420.29,-310.5 385.02,-310.5 355.55,-310.5"/>
<polygon fill="midnightblue" stroke="midnightblue" points="450.73,-314 460.73,-310.5 450.73,-307 450.73,-314"/>
</g>
<!-- Node3&#45;&gt;Node4 -->
<g id="edge3" class="edge">
<title>Node3&#45;&gt;Node4</title>
<path fill="none" stroke="midnightblue" d="M218.25,-304.04C191.73,-301.69 162.08,-299.05 136.82,-296.81"/>
<polygon fill="midnightblue" stroke="midnightblue" points="217.97,-307.53 228.24,-304.93 218.59,-300.56 217.97,-307.53"/>
</g>
<!-- Node6 -->
<g id="node6" class="node">
<title>Node6</title>
<g id="a_node6"><a xlink:href="classv8_1_1internal_1_1compiler_1_1LiveRangeConnector.html#a86f4fccf715c6230a3e0ceb373f60776" target="_top" xlink:title=" ">
<polygon fill="white" stroke="black" points="227.5,-192 227.5,-233 356.5,-233 356.5,-192 227.5,-192"/>
<text text-anchor="start" x="235.5" y="-221" font-family="Helvetica,sans-Serif" font-size="10.00">v8::internal::compiler</text>
<text text-anchor="start" x="235.5" y="-210" font-family="Helvetica,sans-Serif" font-size="10.00">::LiveRangeConnector::</text>
<text text-anchor="middle" x="292" y="-199" font-family="Helvetica,sans-Serif" font-size="10.00">ResolveControlFlow</text>
</a>
</g>
</g>
<!-- Node5&#45;&gt;Node6 -->
<g id="edge6" class="edge">
<title>Node5&#45;&gt;Node6</title>
<path fill="none" stroke="midnightblue" d="M428.19,-212.5C404.22,-212.5 378.94,-212.5 356.81,-212.5"/>
<polygon fill="midnightblue" stroke="midnightblue" points="428.37,-216 438.37,-212.5 428.37,-209 428.37,-216"/>
</g>
<!-- Node7 -->
<g id="node7" class="node">
<title>Node7</title>
<g id="a_node7"><a xlink:href="structv8_1_1internal_1_1compiler_1_1turboshaft_1_1ResolveControlFlowPhase.html#ac8ca16fb5aa76289704fc1499f3a928f" target="_top" xlink:title=" ">
<polygon fill="white" stroke="black" points="0,-192 0,-233 152,-233 152,-192 0,-192"/>
<text text-anchor="start" x="8" y="-221" font-family="Helvetica,sans-Serif" font-size="10.00">v8::internal::compiler</text>
<text text-anchor="start" x="8" y="-210" font-family="Helvetica,sans-Serif" font-size="10.00">::turboshaft::ResolveControl</text>
<text text-anchor="middle" x="76" y="-199" font-family="Helvetica,sans-Serif" font-size="10.00">FlowPhase::Run</text>
</a>
</g>
</g>
<!-- Node6&#45;&gt;Node7 -->
<g id="edge7" class="edge">
<title>Node6&#45;&gt;Node7</title>
<path fill="none" stroke="midnightblue" d="M217.21,-212.5C196.16,-212.5 173.2,-212.5 152.07,-212.5"/>
<polygon fill="midnightblue" stroke="midnightblue" points="217.37,-216 227.37,-212.5 217.37,-209 217.37,-216"/>
</g>
<!-- Node9 -->
<g id="node9" class="node">
<title>Node9</title>
<g id="a_node9"><a xlink:href="structv8_1_1internal_1_1compiler_1_1turboshaft_1_1ConnectRangesPhase.html#a71e03443ffff5d00f7d4180278b74e75" target="_top" xlink:title=" ">
<polygon fill="white" stroke="black" points="188,-137.5 188,-167.5 396,-167.5 396,-137.5 188,-137.5"/>
<text text-anchor="start" x="196" y="-155.5" font-family="Helvetica,sans-Serif" font-size="10.00">v8::internal::compiler</text>
<text text-anchor="middle" x="292" y="-144.5" font-family="Helvetica,sans-Serif" font-size="10.00">::turboshaft::ConnectRangesPhase::Run</text>
</a>
</g>
</g>
<!-- Node8&#45;&gt;Node9 -->
<g id="edge9" class="edge">
<title>Node8&#45;&gt;Node9</title>
<path fill="none" stroke="midnightblue" d="M446.49,-152.5C430.47,-152.5 413.25,-152.5 396.34,-152.5"/>
<polygon fill="midnightblue" stroke="midnightblue" points="446.83,-156 456.83,-152.5 446.83,-149 446.83,-156"/>
</g>
<!-- Node12 -->
<g id="node12" class="node">
<title>Node12</title>
<g id="a_node12"><a xlink:href="classv8_1_1internal_1_1compiler_1_1turboshaft_1_1Pipeline.html#a406c3b4317f0dfb287f5fca7fa2d5ac7" target="_top" xlink:title=" ">
<polygon fill="white" stroke="black" points="231.5,-6 231.5,-47 352.5,-47 352.5,-6 231.5,-6"/>
<text text-anchor="start" x="239.5" y="-35" font-family="Helvetica,sans-Serif" font-size="10.00">v8::internal::compiler</text>
<text text-anchor="start" x="239.5" y="-24" font-family="Helvetica,sans-Serif" font-size="10.00">::turboshaft::Pipeline</text>
<text text-anchor="middle" x="292" y="-13" font-family="Helvetica,sans-Serif" font-size="10.00">::AllocateRegisters</text>
</a>
</g>
</g>
<!-- Node11&#45;&gt;Node12 -->
<g id="edge12" class="edge">
<title>Node11&#45;&gt;Node12</title>
<path fill="none" stroke="midnightblue" d="M421.85,-26.5C398.26,-26.5 373.79,-26.5 352.59,-26.5"/>
<polygon fill="midnightblue" stroke="midnightblue" points="421.89,-30 431.89,-26.5 421.89,-23 421.89,-30"/>
</g>
</g>
</svg>
