<?xml version="1.0" encoding="UTF-8" standalone="no"?>
<!DOCTYPE svg PUBLIC "-//W3C//DTD SVG 1.1//EN"
 "http://www.w3.org/Graphics/SVG/1.1/DTD/svg11.dtd">
<!-- Generated by graphviz version 2.43.0 (0)
 -->
<!-- Title: v8::internal::compiler::Instruction::New Pages: 1 -->
<svg width="715pt" height="141pt"
 viewBox="0.00 0.00 715.00 141.00" xmlns="http://www.w3.org/2000/svg" xmlns:xlink="http://www.w3.org/1999/xlink">
<g id="graph0" class="graph" transform="scale(1 1) rotate(0) translate(4 137)">
<title>v8::internal::compiler::Instruction::New</title>
<polygon fill="white" stroke="transparent" points="-4,4 -4,-137 711,-137 711,4 -4,4"/>
<!-- Node1 -->
<g id="node1" class="node">
<title>Node1</title>
<g id="a_node1"><a xlink:title=" ">
<polygon fill="#bfbfbf" stroke="black" points="0,-45.5 0,-75.5 121,-75.5 121,-45.5 0,-45.5"/>
<text text-anchor="start" x="8" y="-63.5" font-family="Helvetica,sans-Serif" font-size="10.00">v8::internal::compiler</text>
<text text-anchor="middle" x="60.5" y="-52.5" font-family="Helvetica,sans-Serif" font-size="10.00">::Instruction::New</text>
</a>
</g>
</g>
<!-- Node2 -->
<g id="node2" class="node">
<title>Node2</title>
<g id="a_node2"><a xlink:href="classv8_1_1internal_1_1compiler_1_1ConstantOperand.html#a39e76be0338ef8835f22f2c05c82c6be" target="_top" xlink:title=" ">
<polygon fill="white" stroke="black" points="157,-45.5 157,-75.5 292,-75.5 292,-45.5 157,-45.5"/>
<text text-anchor="start" x="165" y="-63.5" font-family="Helvetica,sans-Serif" font-size="10.00">v8::internal::compiler</text>
<text text-anchor="middle" x="224.5" y="-52.5" font-family="Helvetica,sans-Serif" font-size="10.00">::ConstantOperand::New</text>
</a>
</g>
</g>
<!-- Node1&#45;&gt;Node2 -->
<g id="edge1" class="edge">
<title>Node1&#45;&gt;Node2</title>
<path fill="none" stroke="midnightblue" d="M121.36,-60.5C129.56,-60.5 138.08,-60.5 146.53,-60.5"/>
<polygon fill="midnightblue" stroke="midnightblue" points="146.79,-64 156.79,-60.5 146.79,-57 146.79,-64"/>
</g>
<!-- Node3 -->
<g id="node3" class="node">
<title>Node3</title>
<g id="a_node3"><a xlink:href="classv8_1_1internal_1_1compiler_1_1ConstantOperand.html#a42e57d2fe0940dcfe93ae1effd687bf7" target="_top" xlink:title=" ">
<polygon fill="white" stroke="black" points="328,-89.5 328,-119.5 526,-119.5 526,-89.5 328,-89.5"/>
<text text-anchor="start" x="336" y="-107.5" font-family="Helvetica,sans-Serif" font-size="10.00">v8::internal::compiler</text>
<text text-anchor="middle" x="427" y="-96.5" font-family="Helvetica,sans-Serif" font-size="10.00">::ConstantOperand::ConstantOperand</text>
</a>
</g>
</g>
<!-- Node2&#45;&gt;Node3 -->
<g id="edge2" class="edge">
<title>Node2&#45;&gt;Node3</title>
<path fill="none" stroke="midnightblue" d="M292.26,-75.15C309.95,-79.03 329.21,-83.26 347.45,-87.26"/>
<polygon fill="midnightblue" stroke="midnightblue" points="346.95,-90.74 357.47,-89.46 348.46,-83.9 346.95,-90.74"/>
</g>
<!-- Node6 -->
<g id="node5" class="node">
<title>Node6</title>
<g id="a_node5"><a xlink:href="classv8_1_1internal_1_1compiler_1_1ConstantOperand.html#ab0c1434f008b3261f2642c80182563f2" target="_top" xlink:title=" ">
<polygon fill="white" stroke="red" points="562,-42 562,-83 707,-83 707,-42 562,-42"/>
<text text-anchor="start" x="570" y="-71" font-family="Helvetica,sans-Serif" font-size="10.00">v8::internal::compiler</text>
<text text-anchor="start" x="570" y="-60" font-family="Helvetica,sans-Serif" font-size="10.00">::ConstantOperand::virtual</text>
<text text-anchor="middle" x="634.5" y="-49" font-family="Helvetica,sans-Serif" font-size="10.00">_register</text>
</a>
</g>
</g>
<!-- Node2&#45;&gt;Node6 -->
<g id="edge7" class="edge">
<title>Node2&#45;&gt;Node6</title>
<path fill="none" stroke="midnightblue" d="M292.42,-60.83C363.38,-61.18 475.54,-61.73 551.7,-62.1"/>
<polygon fill="midnightblue" stroke="midnightblue" points="551.72,-65.6 561.74,-62.15 551.76,-58.6 551.72,-65.6"/>
</g>
<!-- Node8 -->
<g id="node6" class="node">
<title>Node8</title>
<g id="a_node6"><a xlink:href="classv8_1_1internal_1_1compiler_1_1InstructionOperand.html#aae307b8218d280dd4346cb64791064f6" target="_top" xlink:title=" ">
<polygon fill="white" stroke="black" points="355.5,-0.5 355.5,-30.5 498.5,-30.5 498.5,-0.5 355.5,-0.5"/>
<text text-anchor="start" x="363.5" y="-18.5" font-family="Helvetica,sans-Serif" font-size="10.00">v8::internal::compiler</text>
<text text-anchor="middle" x="427" y="-7.5" font-family="Helvetica,sans-Serif" font-size="10.00">::InstructionOperand::New</text>
</a>
</g>
</g>
<!-- Node2&#45;&gt;Node8 -->
<g id="edge5" class="edge">
<title>Node2&#45;&gt;Node8</title>
<path fill="none" stroke="midnightblue" d="M292.26,-45.52C310.42,-41.44 330.23,-37 348.9,-32.8"/>
<polygon fill="midnightblue" stroke="midnightblue" points="349.85,-36.18 358.84,-30.57 348.32,-29.35 349.85,-36.18"/>
</g>
<!-- Node4 -->
<g id="node4" class="node">
<title>Node4</title>
<g id="a_node4"><a xlink:href="classv8_1_1base_1_1BitField.html#a70718344d8a4df6c20b3cf9c9b14d0d4" target="_top" xlink:title=" ">
<polygon fill="white" stroke="red" points="584,-102.5 584,-132.5 685,-132.5 685,-102.5 584,-102.5"/>
<text text-anchor="start" x="592" y="-120.5" font-family="Helvetica,sans-Serif" font-size="10.00">v8::base::BitField</text>
<text text-anchor="middle" x="634.5" y="-109.5" font-family="Helvetica,sans-Serif" font-size="10.00">::encode</text>
</a>
</g>
</g>
<!-- Node3&#45;&gt;Node4 -->
<g id="edge3" class="edge">
<title>Node3&#45;&gt;Node4</title>
<path fill="none" stroke="midnightblue" d="M526.24,-110.71C542.5,-111.74 558.92,-112.78 573.85,-113.73"/>
<polygon fill="midnightblue" stroke="midnightblue" points="573.73,-117.23 583.93,-114.36 574.17,-110.24 573.73,-117.23"/>
</g>
<!-- Node3&#45;&gt;Node6 -->
<g id="edge4" class="edge">
<title>Node3&#45;&gt;Node6</title>
<path fill="none" stroke="midnightblue" d="M501.61,-89.46C517.82,-86.14 535.09,-82.61 551.61,-79.24"/>
<polygon fill="midnightblue" stroke="midnightblue" points="552.69,-82.59 561.78,-77.16 551.28,-75.73 552.69,-82.59"/>
</g>
<!-- Node9 -->
<g id="node7" class="node">
<title>Node9</title>
<g id="a_node7"><a xlink:href="classv8_1_1internal_1_1Zone.html#a619ca7387e66c82e86240c2af8f3f10f" target="_top" xlink:title=" ">
<polygon fill="white" stroke="black" points="569,-4 569,-23 700,-23 700,-4 569,-4"/>
<text text-anchor="middle" x="634.5" y="-11" font-family="Helvetica,sans-Serif" font-size="10.00">v8::internal::Zone::New</text>
</a>
</g>
</g>
<!-- Node8&#45;&gt;Node9 -->
<g id="edge6" class="edge">
<title>Node8&#45;&gt;Node9</title>
<path fill="none" stroke="midnightblue" d="M498.72,-14.81C518.1,-14.62 539.17,-14.42 558.76,-14.23"/>
<polygon fill="midnightblue" stroke="midnightblue" points="558.89,-17.73 568.86,-14.13 558.82,-10.73 558.89,-17.73"/>
</g>
</g>
</svg>
