<?xml version="1.0" encoding="UTF-8" standalone="no"?>
<!DOCTYPE svg PUBLIC "-//W3C//DTD SVG 1.1//EN"
 "http://www.w3.org/Graphics/SVG/1.1/DTD/svg11.dtd">
<!-- Generated by graphviz version 2.43.0 (0)
 -->
<!-- Title: v8::internal::wasm::WasmCodePointerTable::SetEntrypointAndSignature Pages: 1 -->
<!--zoomable 220 -->
<svg id="main" version="1.1" xmlns="http://www.w3.org/2000/svg" xmlns:xlink="http://www.w3.org/1999/xlink" xml:space="preserve" onload="init(evt)">
<style type="text/css"><![CDATA[
.edge:hover path { stroke: red; }
.edge:hover polygon { stroke: red; fill: red; }
]]></style>
<script type="text/javascript"><![CDATA[
var edges = document.getElementsByTagName('g');
if (edges && edges.length) {
  for (var i=0;i<edges.length;i++) {
    if (edges[i].id.substr(0,4)=='edge') {
      edges[i].setAttribute('class','edge');
    }
  }
}
]]></script>
        <defs>
                <circle id="rim" cx="0" cy="0" r="7"/>
                <circle id="rim2" cx="0" cy="0" r="3.5"/>
                <g id="zoomPlus">
                        <use xlink:href="#rim" fill="#404040">
                                <set attributeName="fill" to="#808080" begin="zoomplus.mouseover" end="zoomplus.mouseout"/>
                        </use>
                        <path d="M-4,0h8M0,-4v8" fill="none" stroke="white" stroke-width="1.5" pointer-events="none"/>
                </g>
                <g id="zoomMin">
                        <use xlink:href="#rim" fill="#404040">
                                <set attributeName="fill" to="#808080" begin="zoomminus.mouseover" end="zoomminus.mouseout"/>
                        </use>
                        <path d="M-4,0h8" fill="none" stroke="white" stroke-width="1.5" pointer-events="none"/>
                </g>
                <g id="dirArrow">
                        <path fill="none" stroke="white" stroke-width="1.5" d="M0,-3.0v7 M-2.5,-0.5L0,-3.0L2.5,-0.5"/>
                </g>
               <g id="resetDef">
                       <use xlink:href="#rim2" fill="#404040">
                               <set attributeName="fill" to="#808080" begin="reset.mouseover" end="reset.mouseout"/>
                       </use>
               </g>
        </defs>

<script type="text/javascript">
var viewWidth = 854;
var viewHeight = 220;
var sectionId = 'dynsection-27';
</script>
<script xlink:href="svgpan.js"/>
<svg id="graph" class="graph">
<g id="viewport">
<title>v8::internal::wasm::WasmCodePointerTable::SetEntrypointAndSignature</title>
<polygon fill="white" stroke="transparent" points="-4,4 -4,-216 850,-216 850,4 -4,4"/>
<!-- Node1 -->
<g id="node1" class="node">
<title>Node1</title>
<g id="a_node1"><a xlink:title=" ">
<polygon fill="#bfbfbf" stroke="black" points="692,-55.5 692,-96.5 846,-96.5 846,-55.5 692,-55.5"/>
<text text-anchor="start" x="700" y="-84.5" font-family="Helvetica,sans-Serif" font-size="10.00">v8::internal::wasm</text>
<text text-anchor="start" x="700" y="-73.5" font-family="Helvetica,sans-Serif" font-size="10.00">::WasmCodePointerTable</text>
<text text-anchor="middle" x="769" y="-62.5" font-family="Helvetica,sans-Serif" font-size="10.00">::SetEntrypointAndSignature</text>
</a>
</g>
</g>
<!-- Node2 -->
<g id="node2" class="node">
<title>Node2</title>
<g id="a_node2"><a xlink:href="classv8_1_1internal_1_1wasm_1_1NativeModule.html#a51cd3da10c0980a4c5747dc6862f03ac" target="_top" xlink:title=" ">
<polygon fill="white" stroke="black" points="477,-55.5 477,-96.5 656,-96.5 656,-55.5 477,-55.5"/>
<text text-anchor="start" x="485" y="-84.5" font-family="Helvetica,sans-Serif" font-size="10.00">v8::internal::wasm</text>
<text text-anchor="start" x="485" y="-73.5" font-family="Helvetica,sans-Serif" font-size="10.00">::NativeModule::PatchJumpTables</text>
<text text-anchor="middle" x="566.5" y="-62.5" font-family="Helvetica,sans-Serif" font-size="10.00">Locked</text>
</a>
</g>
</g>
<!-- Node1&#45;&gt;Node2 -->
<g id="edge1" class="edge">
<title>Node1&#45;&gt;Node2</title>
<path fill="none" stroke="midnightblue" d="M681.73,-76C673.31,-76 664.76,-76 656.31,-76"/>
<polygon fill="midnightblue" stroke="midnightblue" points="681.91,-79.5 691.91,-76 681.91,-72.5 681.91,-79.5"/>
</g>
<!-- Node3 -->
<g id="node3" class="node">
<title>Node3</title>
<g id="a_node3"><a xlink:href="classv8_1_1internal_1_1wasm_1_1NativeModule.html#a60c23842429cfbc96419f922d252a4ea" target="_top" xlink:title=" ">
<polygon fill="white" stroke="black" points="264.5,-110.5 264.5,-151.5 421.5,-151.5 421.5,-110.5 264.5,-110.5"/>
<text text-anchor="start" x="272.5" y="-139.5" font-family="Helvetica,sans-Serif" font-size="10.00">v8::internal::wasm</text>
<text text-anchor="start" x="272.5" y="-128.5" font-family="Helvetica,sans-Serif" font-size="10.00">::NativeModule::PublishCode</text>
<text text-anchor="middle" x="343" y="-117.5" font-family="Helvetica,sans-Serif" font-size="10.00">Locked</text>
</a>
</g>
</g>
<!-- Node2&#45;&gt;Node3 -->
<g id="edge2" class="edge">
<title>Node2&#45;&gt;Node3</title>
<path fill="none" stroke="midnightblue" d="M472.76,-99.03C455.72,-103.26 438.1,-107.63 421.56,-111.74"/>
<polygon fill="midnightblue" stroke="midnightblue" points="473.84,-102.36 482.71,-96.56 472.16,-95.57 473.84,-102.36"/>
</g>
<!-- Node1683 -->
<g id="node7" class="node">
<title>Node1683</title>
<g id="a_node7"><a xlink:href="classv8_1_1internal_1_1wasm_1_1NativeModule.html#a813274940c91bd21cf6c10bcfd3b7c40" target="_top" xlink:title=" ">
<polygon fill="white" stroke="black" points="245,-61 245,-91 441,-91 441,-61 245,-61"/>
<text text-anchor="start" x="253" y="-79" font-family="Helvetica,sans-Serif" font-size="10.00">v8::internal::wasm</text>
<text text-anchor="middle" x="343" y="-68" font-family="Helvetica,sans-Serif" font-size="10.00">::NativeModule::ReinstallDebugCode</text>
</a>
</g>
</g>
<!-- Node2&#45;&gt;Node1683 -->
<g id="edge6" class="edge">
<title>Node2&#45;&gt;Node1683</title>
<path fill="none" stroke="midnightblue" d="M466.49,-76C458.08,-76 449.58,-76 441.19,-76"/>
<polygon fill="midnightblue" stroke="midnightblue" points="466.68,-79.5 476.68,-76 466.68,-72.5 466.68,-79.5"/>
</g>
<!-- Node1684 -->
<g id="node8" class="node">
<title>Node1684</title>
<g id="a_node8"><a xlink:href="classv8_1_1internal_1_1wasm_1_1NativeModule.html#aafa35dbd8dcc12821a84cb56594ee2df" target="_top" xlink:title=" ">
<polygon fill="white" stroke="black" points="263,-0.5 263,-41.5 423,-41.5 423,-0.5 263,-0.5"/>
<text text-anchor="start" x="271" y="-29.5" font-family="Helvetica,sans-Serif" font-size="10.00">v8::internal::wasm</text>
<text text-anchor="start" x="271" y="-18.5" font-family="Helvetica,sans-Serif" font-size="10.00">::NativeModule::UseLazyStub</text>
<text text-anchor="middle" x="343" y="-7.5" font-family="Helvetica,sans-Serif" font-size="10.00">Locked</text>
</a>
</g>
</g>
<!-- Node2&#45;&gt;Node1684 -->
<g id="edge7" class="edge">
<title>Node2&#45;&gt;Node1684</title>
<path fill="none" stroke="midnightblue" d="M472.54,-52.92C456.07,-48.83 439.06,-44.6 423.02,-40.62"/>
<polygon fill="midnightblue" stroke="midnightblue" points="472.16,-56.43 482.71,-55.44 473.84,-49.64 472.16,-56.43"/>
</g>
<!-- Node4 -->
<g id="node4" class="node">
<title>Node4</title>
<g id="a_node4"><a xlink:href="classv8_1_1internal_1_1wasm_1_1NativeModule.html#abdeee50fefaf3f7666243cff1a13b3da" target="_top" xlink:title=" ">
<polygon fill="white" stroke="black" points="27,-170.5 27,-211.5 182,-211.5 182,-170.5 27,-170.5"/>
<text text-anchor="start" x="35" y="-199.5" font-family="Helvetica,sans-Serif" font-size="10.00">v8::internal::wasm</text>
<text text-anchor="start" x="35" y="-188.5" font-family="Helvetica,sans-Serif" font-size="10.00">::NativeModule::AddCodeFor</text>
<text text-anchor="middle" x="104.5" y="-177.5" font-family="Helvetica,sans-Serif" font-size="10.00">Testing</text>
</a>
</g>
</g>
<!-- Node3&#45;&gt;Node4 -->
<g id="edge3" class="edge">
<title>Node3&#45;&gt;Node4</title>
<path fill="none" stroke="midnightblue" d="M254.52,-153.19C230.76,-159.22 205.22,-165.7 182.1,-171.57"/>
<polygon fill="midnightblue" stroke="midnightblue" points="255.4,-156.58 264.23,-150.73 253.68,-149.8 255.4,-156.58"/>
</g>
<!-- Node5 -->
<g id="node5" class="node">
<title>Node5</title>
<g id="a_node5"><a xlink:href="classv8_1_1internal_1_1wasm_1_1NativeModule.html#a5bcdbc6019550ab5ed2f16d8c7c7745b" target="_top" xlink:title=" ">
<polygon fill="white" stroke="red" points="24,-110.5 24,-151.5 185,-151.5 185,-110.5 24,-110.5"/>
<text text-anchor="start" x="32" y="-139.5" font-family="Helvetica,sans-Serif" font-size="10.00">v8::internal::wasm</text>
<text text-anchor="start" x="32" y="-128.5" font-family="Helvetica,sans-Serif" font-size="10.00">::NativeModule::CreateEmpty</text>
<text text-anchor="middle" x="104.5" y="-117.5" font-family="Helvetica,sans-Serif" font-size="10.00">JumpTableInRegionLocked</text>
</a>
</g>
</g>
<!-- Node3&#45;&gt;Node5 -->
<g id="edge4" class="edge">
<title>Node3&#45;&gt;Node5</title>
<path fill="none" stroke="midnightblue" d="M254.01,-131C231.5,-131 207.42,-131 185.34,-131"/>
<polygon fill="midnightblue" stroke="midnightblue" points="254.23,-134.5 264.23,-131 254.23,-127.5 254.23,-134.5"/>
</g>
<!-- Node23 -->
<g id="node6" class="node">
<title>Node23</title>
<g id="a_node6"><a xlink:href="classv8_1_1internal_1_1wasm_1_1NativeModule.html#a91db58c0a3ed6efdba8d82e23a659fa7" target="_top" xlink:title=" ">
<polygon fill="white" stroke="red" points="26,-61 26,-91 183,-91 183,-61 26,-61"/>
<text text-anchor="start" x="34" y="-79" font-family="Helvetica,sans-Serif" font-size="10.00">v8::internal::wasm</text>
<text text-anchor="middle" x="104.5" y="-68" font-family="Helvetica,sans-Serif" font-size="10.00">::NativeModule::PublishCode</text>
</a>
</g>
</g>
<!-- Node3&#45;&gt;Node23 -->
<g id="edge5" class="edge">
<title>Node3&#45;&gt;Node23</title>
<path fill="none" stroke="midnightblue" d="M254.48,-110.65C226.59,-104.16 196.25,-97.1 170.27,-91.06"/>
<polygon fill="midnightblue" stroke="midnightblue" points="253.7,-114.06 264.23,-112.91 255.29,-107.24 253.7,-114.06"/>
</g>
<!-- Node1685 -->
<g id="node9" class="node">
<title>Node1685</title>
<g id="a_node9"><a xlink:href="classv8_1_1internal_1_1wasm_1_1NativeModule.html#acd3f32a91369d4cdb1e11b81b8f4d27f" target="_top" xlink:title=" ">
<polygon fill="white" stroke="red" points="0,-6 0,-36 209,-36 209,-6 0,-6"/>
<text text-anchor="start" x="8" y="-24" font-family="Helvetica,sans-Serif" font-size="10.00">v8::internal::wasm</text>
<text text-anchor="middle" x="104.5" y="-13" font-family="Helvetica,sans-Serif" font-size="10.00">::NativeModule::RemoveCompiledCode</text>
</a>
</g>
</g>
<!-- Node1684&#45;&gt;Node1685 -->
<g id="edge8" class="edge">
<title>Node1684&#45;&gt;Node1685</title>
<path fill="none" stroke="midnightblue" d="M252.72,-21C238.55,-21 223.79,-21 209.32,-21"/>
<polygon fill="midnightblue" stroke="midnightblue" points="252.92,-24.5 262.92,-21 252.92,-17.5 252.92,-24.5"/>
</g>
</g>
</svg>
        <g id="navigator" transform="translate(0 0)" fill="#404254">
                <rect fill="#f2f5e9" fill-opacity="0.5" stroke="#606060" stroke-width=".5" x="0" y="0" width="60" height="60"/>
                <use id="zoomplus" xlink:href="#zoomPlus" x="17" y="9" onmousedown="handleZoom(evt,'in')"/>
                <use id="zoomminus" xlink:href="#zoomMin" x="42" y="9" onmousedown="handleZoom(evt,'out')"/>
                <use id="reset" xlink:href="#resetDef" x="30" y="36" onmousedown="handleReset()"/>
                <g id="arrowUp" xlink:href="#dirArrow" transform="translate(30 24)" onmousedown="handlePan(0,-1)">
                  <use xlink:href="#rim" fill="#404040">
                        <set attributeName="fill" to="#808080" begin="arrowUp.mouseover" end="arrowUp.mouseout"/>
                  </use>
                  <path fill="none" stroke="white" stroke-width="1.5" d="M0,-3.0v7 M-2.5,-0.5L0,-3.0L2.5,-0.5"/>
                </g>
                <g id="arrowRight" xlink:href="#dirArrow" transform="rotate(90) translate(36 -43)" onmousedown="handlePan(1,0)">
                  <use xlink:href="#rim" fill="#404040">
                        <set attributeName="fill" to="#808080" begin="arrowRight.mouseover" end="arrowRight.mouseout"/>
                  </use>
                  <path fill="none" stroke="white" stroke-width="1.5" d="M0,-3.0v7 M-2.5,-0.5L0,-3.0L2.5,-0.5"/>
                </g>
                <g id="arrowDown" xlink:href="#dirArrow" transform="rotate(180) translate(-30 -48)" onmousedown="handlePan(0,1)">
                  <use xlink:href="#rim" fill="#404040">
                        <set attributeName="fill" to="#808080" begin="arrowDown.mouseover" end="arrowDown.mouseout"/>
                  </use>
                  <path fill="none" stroke="white" stroke-width="1.5" d="M0,-3.0v7 M-2.5,-0.5L0,-3.0L2.5,-0.5"/>
                </g>
                <g id="arrowLeft" xlink:href="#dirArrow" transform="rotate(270) translate(-36 17)" onmousedown="handlePan(-1,0)">
                  <use xlink:href="#rim" fill="#404040">
                        <set attributeName="fill" to="#808080" begin="arrowLeft.mouseover" end="arrowLeft.mouseout"/>
                  </use>
                  <path fill="none" stroke="white" stroke-width="1.5" d="M0,-3.0v7 M-2.5,-0.5L0,-3.0L2.5,-0.5"/>
                </g>
        </g>
        <svg viewBox="0 0 15 15" width="100%" height="30px" preserveAspectRatio="xMaxYMin meet">
         <g id="arrow_out" transform="scale(0.3 0.3)">
          <a xlink:href="classv8_1_1internal_1_1wasm_1_1WasmCodePointerTable_ae052cc798b9dd1e4970a6cdbcb2adb05_icgraph_org.svg" target="_base">
           <rect id="button" ry="5" rx="5" y="6" x="6" height="38" width="38"
                fill="#f2f5e9" fill-opacity="0.5" stroke="#606060" stroke-width="1.0"/>
           <path id="arrow"
             d="M 11.500037,31.436501 C 11.940474,20.09759 22.043105,11.32322 32.158766,21.979434 L 37.068811,17.246167 C 37.068811,17.246167 37.088388,32 37.088388,32 L 22.160133,31.978069 C 22.160133,31.978069 26.997745,27.140456 26.997745,27.140456 C 18.528582,18.264221 13.291696,25.230495 11.500037,31.436501 z"
             style="fill:#404040;"/>
          </a>
         </g>
        </svg>
</svg>
