<?xml version="1.0" encoding="UTF-8" standalone="no"?>
<!DOCTYPE svg PUBLIC "-//W3C//DTD SVG 1.1//EN"
 "http://www.w3.org/Graphics/SVG/1.1/DTD/svg11.dtd">
<!-- Generated by graphviz version 2.43.0 (0)
 -->
<!-- Title: v8::internal::Factory::CompactWeakArrayList Pages: 1 -->
<svg width="762pt" height="253pt"
 viewBox="0.00 0.00 762.00 253.00" xmlns="http://www.w3.org/2000/svg" xmlns:xlink="http://www.w3.org/1999/xlink">
<g id="graph0" class="graph" transform="scale(1 1) rotate(0) translate(4 249)">
<title>v8::internal::Factory::CompactWeakArrayList</title>
<polygon fill="white" stroke="transparent" points="-4,4 -4,-249 758,-249 758,4 -4,4"/>
<!-- Node1 -->
<g id="node1" class="node">
<title>Node1</title>
<g id="a_node1"><a xlink:title=" ">
<polygon fill="#bfbfbf" stroke="black" points="0,-94.5 0,-124.5 137,-124.5 137,-94.5 0,-94.5"/>
<text text-anchor="start" x="8" y="-112.5" font-family="Helvetica,sans-Serif" font-size="10.00">v8::internal::Factory</text>
<text text-anchor="middle" x="68.5" y="-101.5" font-family="Helvetica,sans-Serif" font-size="10.00">::CompactWeakArrayList</text>
</a>
</g>
</g>
<!-- Node2 -->
<g id="node2" class="node">
<title>Node2</title>
<g id="a_node2"><a xlink:href="classv8_1_1internal_1_1TaggedImpl.html#a5d84dde6d0c8149b4560d7c79cf8f1a3" target="_top" xlink:title=" ">
<polygon fill="white" stroke="black" points="194,-176.5 194,-206.5 328,-206.5 328,-176.5 194,-176.5"/>
<text text-anchor="start" x="202" y="-194.5" font-family="Helvetica,sans-Serif" font-size="10.00">v8::internal::TaggedImpl</text>
<text text-anchor="middle" x="261" y="-183.5" font-family="Helvetica,sans-Serif" font-size="10.00">::IsCleared</text>
</a>
</g>
</g>
<!-- Node1&#45;&gt;Node2 -->
<g id="edge1" class="edge">
<title>Node1&#45;&gt;Node2</title>
<path fill="none" stroke="midnightblue" d="M93.41,-124.68C113.91,-137.2 144.56,-154.76 173,-166.5 178.81,-168.9 184.94,-171.16 191.13,-173.27"/>
<polygon fill="midnightblue" stroke="midnightblue" points="190.3,-176.68 200.89,-176.45 192.47,-170.02 190.3,-176.68"/>
</g>
<!-- Node3 -->
<g id="node3" class="node">
<title>Node3</title>
<g id="a_node3"><a xlink:href="namespacev8_1_1internal.html#a5b59223136254772ef018d90e009318d" target="_top" xlink:title=" ">
<polygon fill="white" stroke="black" points="185,-138 185,-157 337,-157 337,-138 185,-138"/>
<text text-anchor="middle" x="261" y="-145" font-family="Helvetica,sans-Serif" font-size="10.00">v8::internal::MemsetTagged</text>
</a>
</g>
</g>
<!-- Node1&#45;&gt;Node3 -->
<g id="edge2" class="edge">
<title>Node1&#45;&gt;Node3</title>
<path fill="none" stroke="midnightblue" d="M137.2,-123C158.52,-127.26 181.86,-131.91 202.41,-136.01"/>
<polygon fill="midnightblue" stroke="midnightblue" points="201.76,-139.45 212.25,-137.98 203.13,-132.59 201.76,-139.45"/>
</g>
<!-- Node8 -->
<g id="node8" class="node">
<title>Node8</title>
<g id="a_node8"><a xlink:href="flag-definitions_8h.html#adaf90f045d5cd2710edd625b8685472a" target="_top" xlink:title=" ">
<polygon fill="white" stroke="black" points="239,-100 239,-119 283,-119 283,-100 239,-100"/>
<text text-anchor="middle" x="261" y="-107" font-family="Helvetica,sans-Serif" font-size="10.00">mode</text>
</a>
</g>
</g>
<!-- Node1&#45;&gt;Node8 -->
<g id="edge7" class="edge">
<title>Node1&#45;&gt;Node8</title>
<path fill="none" stroke="midnightblue" d="M137.2,-109.5C168.31,-109.5 203.72,-109.5 228.49,-109.5"/>
<polygon fill="midnightblue" stroke="midnightblue" points="228.74,-113 238.74,-109.5 228.74,-106 228.74,-113"/>
</g>
<!-- Node9 -->
<g id="node9" class="node">
<title>Node9</title>
<g id="a_node9"><a xlink:href="classv8_1_1internal_1_1Factory.html#af9cc95677847d259af83cbceb1fbabea" target="_top" xlink:title=" ">
<polygon fill="white" stroke="black" points="173,-50.5 173,-80.5 349,-80.5 349,-50.5 173,-50.5"/>
<text text-anchor="start" x="181" y="-68.5" font-family="Helvetica,sans-Serif" font-size="10.00">v8::internal::Factory</text>
<text text-anchor="middle" x="261" y="-57.5" font-family="Helvetica,sans-Serif" font-size="10.00">::NewUninitializedWeakArrayList</text>
</a>
</g>
</g>
<!-- Node1&#45;&gt;Node9 -->
<g id="edge8" class="edge">
<title>Node1&#45;&gt;Node9</title>
<path fill="none" stroke="midnightblue" d="M134.53,-94.48C150.68,-90.75 168.13,-86.72 184.73,-82.88"/>
<polygon fill="midnightblue" stroke="midnightblue" points="185.99,-86.19 194.94,-80.53 184.41,-79.37 185.99,-86.19"/>
</g>
<!-- Node13 -->
<g id="node13" class="node">
<title>Node13</title>
<g id="a_node13"><a xlink:href="classv8_1_1internal_1_1Factory.html#a0e9f093ae151ad320dcd7b642eb81d8e" target="_top" xlink:title=" ">
<polygon fill="white" stroke="black" points="204.5,-1.5 204.5,-31.5 317.5,-31.5 317.5,-1.5 204.5,-1.5"/>
<text text-anchor="start" x="212.5" y="-19.5" font-family="Helvetica,sans-Serif" font-size="10.00">v8::internal::Factory</text>
<text text-anchor="middle" x="261" y="-8.5" font-family="Helvetica,sans-Serif" font-size="10.00">::read_only_roots</text>
</a>
</g>
</g>
<!-- Node1&#45;&gt;Node13 -->
<g id="edge12" class="edge">
<title>Node1&#45;&gt;Node13</title>
<path fill="none" stroke="midnightblue" d="M88.24,-94.3C108.18,-78.81 141.18,-55.04 173,-40.5 179.76,-37.41 187,-34.64 194.32,-32.18"/>
<polygon fill="midnightblue" stroke="midnightblue" points="195.82,-35.38 204.29,-29.02 193.7,-28.7 195.82,-35.38"/>
</g>
<!-- Node4 -->
<g id="node4" class="node">
<title>Node4</title>
<g id="a_node4"><a xlink:href="classv8_1_1internal_1_1V8HeapCompressionSchemeImpl.html#a10b5011eb95f6ba250e500d707c2f767" target="_top" xlink:title=" ">
<polygon fill="white" stroke="black" points="401,-214.5 401,-244.5 581,-244.5 581,-214.5 401,-214.5"/>
<text text-anchor="start" x="409" y="-232.5" font-family="Helvetica,sans-Serif" font-size="10.00">v8::internal::V8HeapCompression</text>
<text text-anchor="middle" x="491" y="-221.5" font-family="Helvetica,sans-Serif" font-size="10.00">SchemeImpl::CompressAny</text>
</a>
</g>
</g>
<!-- Node3&#45;&gt;Node4 -->
<g id="edge3" class="edge">
<title>Node3&#45;&gt;Node4</title>
<path fill="none" stroke="midnightblue" d="M324.03,-157.11C332.72,-159.77 341.3,-163.17 349,-167.5 369,-178.75 365.05,-193.17 385,-204.5 388.96,-206.75 393.11,-208.79 397.38,-210.65"/>
<polygon fill="midnightblue" stroke="midnightblue" points="396.31,-214 406.9,-214.44 398.9,-207.49 396.31,-214"/>
</g>
<!-- Node5 -->
<g id="node5" class="node">
<title>Node5</title>
<g id="a_node5"><a xlink:href="namespacev8_1_1internal.html#ade4e5e39ec28c957990aa1eb406ae857" target="_top" xlink:title=" ">
<polygon fill="white" stroke="black" points="415,-176 415,-195 567,-195 567,-176 415,-176"/>
<text text-anchor="middle" x="491" y="-183" font-family="Helvetica,sans-Serif" font-size="10.00">v8::internal::MemsetPointer</text>
</a>
</g>
</g>
<!-- Node3&#45;&gt;Node5 -->
<g id="edge4" class="edge">
<title>Node3&#45;&gt;Node5</title>
<path fill="none" stroke="midnightblue" d="M319.24,-157.04C350.68,-162.28 389.85,-168.81 422.75,-174.29"/>
<polygon fill="midnightblue" stroke="midnightblue" points="422.3,-177.76 432.74,-175.96 423.45,-170.86 422.3,-177.76"/>
</g>
<!-- Node7 -->
<g id="node7" class="node">
<title>Node7</title>
<g id="a_node7"><a xlink:href="namespacev8_1_1internal.html#afc346a825a4faca215c836ee5203269c" target="_top" xlink:title=" ">
<polygon fill="white" stroke="black" points="416,-138 416,-157 566,-157 566,-138 416,-138"/>
<text text-anchor="middle" x="491" y="-145" font-family="Helvetica,sans-Serif" font-size="10.00">v8::internal::MemsetUint32</text>
</a>
</g>
</g>
<!-- Node3&#45;&gt;Node7 -->
<g id="edge6" class="edge">
<title>Node3&#45;&gt;Node7</title>
<path fill="none" stroke="midnightblue" d="M337.29,-147.5C359.22,-147.5 383.33,-147.5 405.77,-147.5"/>
<polygon fill="midnightblue" stroke="midnightblue" points="405.96,-151 415.96,-147.5 405.96,-144 405.96,-151"/>
</g>
<!-- Node6 -->
<g id="node6" class="node">
<title>Node6</title>
<g id="a_node6"><a xlink:href="classv8_1_1internal_1_1SlotBase.html#abbe82566f5865b2a4f282fb86e7d0783" target="_top" xlink:title=" ">
<polygon fill="white" stroke="black" points="633,-170.5 633,-200.5 754,-200.5 754,-170.5 633,-170.5"/>
<text text-anchor="start" x="641" y="-188.5" font-family="Helvetica,sans-Serif" font-size="10.00">v8::internal::SlotBase</text>
<text text-anchor="middle" x="693.5" y="-177.5" font-family="Helvetica,sans-Serif" font-size="10.00">::location</text>
</a>
</g>
</g>
<!-- Node5&#45;&gt;Node6 -->
<g id="edge5" class="edge">
<title>Node5&#45;&gt;Node6</title>
<path fill="none" stroke="midnightblue" d="M567.23,-185.5C585.43,-185.5 604.8,-185.5 622.73,-185.5"/>
<polygon fill="midnightblue" stroke="midnightblue" points="622.82,-189 632.82,-185.5 622.82,-182 622.82,-189"/>
</g>
<!-- Node10 -->
<g id="node10" class="node">
<title>Node10</title>
<g id="a_node10"><a xlink:href="classv8_1_1internal_1_1FactoryBase.html#a7744de3c71b463d3f80fe8ac746e8523" target="_top" xlink:title=" ">
<polygon fill="white" stroke="black" points="385,-88.5 385,-118.5 597,-118.5 597,-88.5 385,-88.5"/>
<text text-anchor="start" x="393" y="-106.5" font-family="Helvetica,sans-Serif" font-size="10.00">v8::internal::FactoryBase</text>
<text text-anchor="middle" x="491" y="-95.5" font-family="Helvetica,sans-Serif" font-size="10.00">&lt; Factory &gt;::AllocateRawWeakArrayList</text>
</a>
</g>
</g>
<!-- Node9&#45;&gt;Node10 -->
<g id="edge9" class="edge">
<title>Node9&#45;&gt;Node10</title>
<path fill="none" stroke="midnightblue" d="M349.17,-80.03C362.4,-82.23 376.13,-84.52 389.61,-86.77"/>
<polygon fill="midnightblue" stroke="midnightblue" points="389.41,-90.28 399.85,-88.47 390.56,-83.38 389.41,-90.28"/>
</g>
<!-- Node11 -->
<g id="node11" class="node">
<title>Node11</title>
<g id="a_node11"><a xlink:href="namespacev8_1_1internal.html#a8c89f00da07e125218128b9fbf0a321c" target="_top" xlink:title=" ">
<polygon fill="white" stroke="black" points="435.5,-50 435.5,-69 546.5,-69 546.5,-50 435.5,-50"/>
<text text-anchor="middle" x="491" y="-57" font-family="Helvetica,sans-Serif" font-size="10.00">v8::internal::handle</text>
</a>
</g>
</g>
<!-- Node9&#45;&gt;Node11 -->
<g id="edge10" class="edge">
<title>Node9&#45;&gt;Node11</title>
<path fill="none" stroke="midnightblue" d="M349.17,-63.21C374.36,-62.54 401.4,-61.83 424.98,-61.21"/>
<polygon fill="midnightblue" stroke="midnightblue" points="425.31,-64.7 435.21,-60.94 425.12,-57.71 425.31,-64.7"/>
</g>
<!-- Node12 -->
<g id="node12" class="node">
<title>Node12</title>
<g id="a_node12"><a xlink:href="classv8_1_1internal_1_1Factory.html#a7ac37ce08b9f8eae9f45701872d1949d" target="_top" xlink:title=" ">
<polygon fill="white" stroke="black" points="434.5,-0.5 434.5,-30.5 547.5,-30.5 547.5,-0.5 434.5,-0.5"/>
<text text-anchor="start" x="442.5" y="-18.5" font-family="Helvetica,sans-Serif" font-size="10.00">v8::internal::Factory</text>
<text text-anchor="middle" x="491" y="-7.5" font-family="Helvetica,sans-Serif" font-size="10.00">::isolate</text>
</a>
</g>
</g>
<!-- Node9&#45;&gt;Node12 -->
<g id="edge11" class="edge">
<title>Node9&#45;&gt;Node12</title>
<path fill="none" stroke="midnightblue" d="M330.41,-50.5C360.22,-43.96 395.02,-36.33 424.5,-29.86"/>
<polygon fill="midnightblue" stroke="midnightblue" points="425.26,-33.28 434.28,-27.72 423.76,-26.44 425.26,-33.28"/>
</g>
<!-- Node13&#45;&gt;Node12 -->
<g id="edge13" class="edge">
<title>Node13&#45;&gt;Node12</title>
<path fill="none" stroke="midnightblue" d="M317.78,-16.26C349.91,-16.11 390.49,-15.94 424.19,-15.79"/>
<polygon fill="midnightblue" stroke="midnightblue" points="424.42,-19.29 434.41,-15.74 424.39,-12.29 424.42,-19.29"/>
</g>
</g>
</svg>
