<?xml version="1.0" encoding="UTF-8" standalone="no"?>
<!DOCTYPE svg PUBLIC "-//W3C//DTD SVG 1.1//EN"
 "http://www.w3.org/Graphics/SVG/1.1/DTD/svg11.dtd">
<!-- Generated by graphviz version 2.43.0 (0)
 -->
<!-- Title: v8::Private::New Pages: 1 -->
<!--zoomable 307 -->
<svg id="main" version="1.1" xmlns="http://www.w3.org/2000/svg" xmlns:xlink="http://www.w3.org/1999/xlink" xml:space="preserve" onload="init(evt)">
<style type="text/css"><![CDATA[
.edge:hover path { stroke: red; }
.edge:hover polygon { stroke: red; fill: red; }
]]></style>
<script type="text/javascript"><![CDATA[
var edges = document.getElementsByTagName('g');
if (edges && edges.length) {
  for (var i=0;i<edges.length;i++) {
    if (edges[i].id.substr(0,4)=='edge') {
      edges[i].setAttribute('class','edge');
    }
  }
}
]]></script>
        <defs>
                <circle id="rim" cx="0" cy="0" r="7"/>
                <circle id="rim2" cx="0" cy="0" r="3.5"/>
                <g id="zoomPlus">
                        <use xlink:href="#rim" fill="#404040">
                                <set attributeName="fill" to="#808080" begin="zoomplus.mouseover" end="zoomplus.mouseout"/>
                        </use>
                        <path d="M-4,0h8M0,-4v8" fill="none" stroke="white" stroke-width="1.5" pointer-events="none"/>
                </g>
                <g id="zoomMin">
                        <use xlink:href="#rim" fill="#404040">
                                <set attributeName="fill" to="#808080" begin="zoomminus.mouseover" end="zoomminus.mouseout"/>
                        </use>
                        <path d="M-4,0h8" fill="none" stroke="white" stroke-width="1.5" pointer-events="none"/>
                </g>
                <g id="dirArrow">
                        <path fill="none" stroke="white" stroke-width="1.5" d="M0,-3.0v7 M-2.5,-0.5L0,-3.0L2.5,-0.5"/>
                </g>
               <g id="resetDef">
                       <use xlink:href="#rim2" fill="#404040">
                               <set attributeName="fill" to="#808080" begin="reset.mouseover" end="reset.mouseout"/>
                       </use>
               </g>
        </defs>

<script type="text/javascript">
var viewWidth = 863;
var viewHeight = 307;
var sectionId = 'dynsection-7';
</script>
<script xlink:href="svgpan.js"/>
<svg id="graph" class="graph">
<g id="viewport">
<title>v8::Private::New</title>
<polygon fill="white" stroke="transparent" points="-4,4 -4,-302.81 859,-302.81 859,4 -4,4"/>
<!-- Node1 -->
<g id="node1" class="node">
<title>Node1</title>
<g id="a_node1"><a xlink:title="Create a private symbol.">
<polygon fill="#bfbfbf" stroke="black" points="0,-155.81 0,-174.81 97,-174.81 97,-155.81 0,-155.81"/>
<text text-anchor="middle" x="48.5" y="-162.81" font-family="Helvetica,sans-Serif" font-size="10.00">v8::Private::New</text>
</a>
</g>
</g>
<!-- Node2 -->
<g id="node2" class="node">
<title>Node2</title>
<g id="a_node2"><a xlink:href="classv8_1_1internal_1_1Isolate.html#a7e2962359009581ba84e6a361f574f61" target="_top" xlink:title=" ">
<polygon fill="white" stroke="black" points="153.5,-194.31 153.5,-224.31 264.5,-224.31 264.5,-194.31 153.5,-194.31"/>
<text text-anchor="start" x="161.5" y="-212.31" font-family="Helvetica,sans-Serif" font-size="10.00">v8::internal::Isolate</text>
<text text-anchor="middle" x="209" y="-201.31" font-family="Helvetica,sans-Serif" font-size="10.00">::factory</text>
</a>
</g>
</g>
<!-- Node1&#45;&gt;Node2 -->
<g id="edge1" class="edge">
<title>Node1&#45;&gt;Node2</title>
<path fill="none" stroke="midnightblue" d="M83.89,-174.86C101.5,-179.74 123.51,-185.85 144.09,-191.57"/>
<polygon fill="midnightblue" stroke="midnightblue" points="143.16,-194.94 153.73,-194.24 145.03,-188.2 143.16,-194.94"/>
</g>
<!-- Node3 -->
<g id="node3" class="node">
<title>Node3</title>
<g id="a_node3"><a xlink:href="classv8_1_1internal_1_1Factory.html#a3390568327289fa2c3a3b28a500ad318" target="_top" xlink:title=" ">
<polygon fill="white" stroke="black" points="151,-106.31 151,-136.31 267,-136.31 267,-106.31 151,-106.31"/>
<text text-anchor="start" x="159" y="-124.31" font-family="Helvetica,sans-Serif" font-size="10.00">v8::internal::Factory</text>
<text text-anchor="middle" x="209" y="-113.31" font-family="Helvetica,sans-Serif" font-size="10.00">::NewPrivateSymbol</text>
</a>
</g>
</g>
<!-- Node1&#45;&gt;Node3 -->
<g id="edge2" class="edge">
<title>Node1&#45;&gt;Node3</title>
<path fill="none" stroke="midnightblue" d="M83.89,-155.76C101.5,-150.87 123.51,-144.76 144.09,-139.05"/>
<polygon fill="midnightblue" stroke="midnightblue" points="145.03,-142.42 153.73,-136.38 143.16,-135.68 145.03,-142.42"/>
</g>
<!-- Node53 -->
<g id="node12" class="node">
<title>Node53</title>
<g id="a_node12"><a xlink:href="classv8_1_1Utils.html#a9d3ed89b4ca4e995ba472f8091ea424f" target="_top" xlink:title=" ">
<polygon fill="white" stroke="black" points="133,-155.81 133,-174.81 285,-174.81 285,-155.81 133,-155.81"/>
<text text-anchor="middle" x="209" y="-162.81" font-family="Helvetica,sans-Serif" font-size="10.00">v8::Utils::OpenDirectHandle</text>
</a>
</g>
</g>
<!-- Node1&#45;&gt;Node53 -->
<g id="edge14" class="edge">
<title>Node1&#45;&gt;Node53</title>
<path fill="none" stroke="midnightblue" d="M97.06,-165.31C105.27,-165.31 114.03,-165.31 122.89,-165.31"/>
<polygon fill="midnightblue" stroke="midnightblue" points="122.91,-168.81 132.91,-165.31 122.91,-161.81 122.91,-168.81"/>
</g>
<!-- Node4 -->
<g id="node4" class="node">
<title>Node4</title>
<g id="a_node4"><a xlink:href="namespacev8_1_1internal.html#aa6b3743bd5d773c552654f2a6c3efa4a" target="_top" xlink:title=" ">
<polygon fill="white" stroke="black" points="531.5,-43.81 531.5,-62.81 650.5,-62.81 650.5,-43.81 531.5,-43.81"/>
<text text-anchor="middle" x="591" y="-50.81" font-family="Helvetica,sans-Serif" font-size="10.00">v8::internal::DCHECK</text>
</a>
</g>
</g>
<!-- Node3&#45;&gt;Node4 -->
<g id="edge3" class="edge">
<title>Node3&#45;&gt;Node4</title>
<path fill="none" stroke="midnightblue" d="M267.18,-107.71C284.43,-103.8 303.44,-99.69 321,-96.31 388.74,-83.28 466.61,-71.14 521.07,-63.11"/>
<polygon fill="midnightblue" stroke="midnightblue" points="521.92,-66.52 531.3,-61.6 520.9,-59.59 521.92,-66.52"/>
</g>
<!-- Node5 -->
<g id="node5" class="node">
<title>Node5</title>
<g id="a_node5"><a xlink:href="namespacev8_1_1internal.html#a8c89f00da07e125218128b9fbf0a321c" target="_top" xlink:title=" ">
<polygon fill="white" stroke="black" points="325,-155.81 325,-174.81 436,-174.81 436,-155.81 325,-155.81"/>
<text text-anchor="middle" x="380.5" y="-162.81" font-family="Helvetica,sans-Serif" font-size="10.00">v8::internal::handle</text>
</a>
</g>
</g>
<!-- Node3&#45;&gt;Node5 -->
<g id="edge4" class="edge">
<title>Node3&#45;&gt;Node5</title>
<path fill="none" stroke="midnightblue" d="M267.38,-136.21C288.66,-141.73 312.52,-147.92 332.74,-153.17"/>
<polygon fill="midnightblue" stroke="midnightblue" points="332.09,-156.62 342.65,-155.74 333.85,-149.84 332.09,-156.62"/>
</g>
<!-- Node6 -->
<g id="node6" class="node">
<title>Node6</title>
<g id="a_node6"><a xlink:href="classv8_1_1internal_1_1Factory.html#a7ac37ce08b9f8eae9f45701872d1949d" target="_top" xlink:title=" ">
<polygon fill="white" stroke="black" points="742,-175.31 742,-205.31 855,-205.31 855,-175.31 742,-175.31"/>
<text text-anchor="start" x="750" y="-193.31" font-family="Helvetica,sans-Serif" font-size="10.00">v8::internal::Factory</text>
<text text-anchor="middle" x="798.5" y="-182.31" font-family="Helvetica,sans-Serif" font-size="10.00">::isolate</text>
</a>
</g>
</g>
<!-- Node3&#45;&gt;Node6 -->
<g id="edge5" class="edge">
<title>Node3&#45;&gt;Node6</title>
<path fill="none" stroke="midnightblue" d="M234.94,-106.16C311.12,-62.02 545.36,57.7 706,-34.31 755.35,-62.58 780.67,-128.93 791.26,-165.33"/>
<polygon fill="midnightblue" stroke="midnightblue" points="787.94,-166.46 793.98,-175.17 794.69,-164.6 787.94,-166.46"/>
</g>
<!-- Node7 -->
<g id="node7" class="node">
<title>Node7</title>
<g id="a_node7"><a xlink:href="classv8_1_1internal_1_1Factory.html#afa24907c949bf9ea064768dbe4f7c736" target="_top" xlink:title=" ">
<polygon fill="white" stroke="black" points="321,-106.31 321,-136.31 440,-136.31 440,-106.31 321,-106.31"/>
<text text-anchor="start" x="329" y="-124.31" font-family="Helvetica,sans-Serif" font-size="10.00">v8::internal::Factory</text>
<text text-anchor="middle" x="380.5" y="-113.31" font-family="Helvetica,sans-Serif" font-size="10.00">::NewSymbolInternal</text>
</a>
</g>
</g>
<!-- Node3&#45;&gt;Node7 -->
<g id="edge6" class="edge">
<title>Node3&#45;&gt;Node7</title>
<path fill="none" stroke="midnightblue" d="M267.38,-121.31C281.22,-121.31 296.14,-121.31 310.45,-121.31"/>
<polygon fill="midnightblue" stroke="midnightblue" points="310.73,-124.81 320.73,-121.31 310.73,-117.81 310.73,-124.81"/>
</g>
<!-- Node7&#45;&gt;Node4 -->
<g id="edge9" class="edge">
<title>Node7&#45;&gt;Node4</title>
<path fill="none" stroke="midnightblue" d="M411,-106.27C420.29,-101.51 430.58,-96.21 440,-91.31 456.05,-82.96 458.86,-78.09 476,-72.31 490.43,-67.44 506.32,-63.79 521.53,-61.06"/>
<polygon fill="midnightblue" stroke="midnightblue" points="522.13,-64.51 531.42,-59.4 520.97,-57.61 522.13,-64.51"/>
</g>
<!-- Node7&#45;&gt;Node6 -->
<g id="edge11" class="edge">
<title>Node7&#45;&gt;Node6</title>
<path fill="none" stroke="midnightblue" d="M419.8,-136.35C426.64,-139.41 433.62,-142.78 440,-146.31 457.04,-155.74 457.59,-164.94 476,-171.31 560.64,-200.59 665.23,-200.66 731.67,-196.62"/>
<polygon fill="midnightblue" stroke="midnightblue" points="732.25,-200.09 741.99,-195.94 731.79,-193.11 732.25,-200.09"/>
</g>
<!-- Node8 -->
<g id="node8" class="node">
<title>Node8</title>
<g id="a_node8"><a xlink:href="classv8_1_1internal_1_1FactoryBase.html#a22a3dda608f65aec4a00d43578e22851" target="_top" xlink:title=" ">
<polygon fill="white" stroke="black" points="476,-131.31 476,-161.31 706,-161.31 706,-131.31 476,-131.31"/>
<text text-anchor="start" x="484" y="-149.31" font-family="Helvetica,sans-Serif" font-size="10.00">v8::internal::FactoryBase</text>
<text text-anchor="middle" x="591" y="-138.31" font-family="Helvetica,sans-Serif" font-size="10.00">&lt; Factory &gt;::AllocateRawWithImmortalMap</text>
</a>
</g>
</g>
<!-- Node7&#45;&gt;Node8 -->
<g id="edge7" class="edge">
<title>Node7&#45;&gt;Node8</title>
<path fill="none" stroke="midnightblue" d="M440.13,-128.34C448.27,-129.32 456.87,-130.35 465.67,-131.4"/>
<polygon fill="midnightblue" stroke="midnightblue" points="465.33,-134.89 475.68,-132.6 466.16,-127.94 465.33,-134.89"/>
</g>
<!-- Node9 -->
<g id="node9" class="node">
<title>Node9</title>
<g id="a_node9"><a xlink:href="classv8_1_1internal_1_1Name.html#a450f5f58ad60bdac7aa0e48b28766296" target="_top" xlink:title=" ">
<polygon fill="white" stroke="red" points="526,-82.31 526,-112.31 656,-112.31 656,-82.31 526,-82.31"/>
<text text-anchor="start" x="534" y="-100.31" font-family="Helvetica,sans-Serif" font-size="10.00">v8::internal::Name</text>
<text text-anchor="middle" x="591" y="-89.31" font-family="Helvetica,sans-Serif" font-size="10.00">::CreateHashFieldValue</text>
</a>
</g>
</g>
<!-- Node7&#45;&gt;Node9 -->
<g id="edge8" class="edge">
<title>Node7&#45;&gt;Node9</title>
<path fill="none" stroke="midnightblue" d="M440.13,-114.56C463.64,-111.86 490.99,-108.71 515.85,-105.85"/>
<polygon fill="midnightblue" stroke="midnightblue" points="516.43,-109.3 525.96,-104.68 515.63,-102.35 516.43,-109.3"/>
</g>
<!-- Node41 -->
<g id="node10" class="node">
<title>Node41</title>
<g id="a_node10"><a xlink:href="classv8_1_1internal_1_1Isolate.html#a2fd078dfda38b1d5bc81fafae58db702" target="_top" xlink:title=" ">
<polygon fill="white" stroke="red" points="526,-268.31 526,-298.31 656,-298.31 656,-268.31 526,-268.31"/>
<text text-anchor="start" x="534" y="-286.31" font-family="Helvetica,sans-Serif" font-size="10.00">v8::internal::Isolate</text>
<text text-anchor="middle" x="591" y="-275.31" font-family="Helvetica,sans-Serif" font-size="10.00">::GenerateIdentityHash</text>
</a>
</g>
</g>
<!-- Node7&#45;&gt;Node41 -->
<g id="edge10" class="edge">
<title>Node7&#45;&gt;Node41</title>
<path fill="none" stroke="midnightblue" d="M427.83,-136.41C432.33,-139.19 436.51,-142.47 440,-146.31 475.45,-185.32 436.9,-223.97 476,-259.31 487.09,-269.34 501.29,-275.57 515.87,-279.37"/>
<polygon fill="midnightblue" stroke="midnightblue" points="515.47,-282.87 525.99,-281.63 516.99,-276.04 515.47,-282.87"/>
</g>
<!-- Node52 -->
<g id="node11" class="node">
<title>Node52</title>
<g id="a_node11"><a xlink:href="classv8_1_1internal_1_1Factory.html#a0e9f093ae151ad320dcd7b642eb81d8e" target="_top" xlink:title=" ">
<polygon fill="white" stroke="black" points="534.5,-219.31 534.5,-249.31 647.5,-249.31 647.5,-219.31 534.5,-219.31"/>
<text text-anchor="start" x="542.5" y="-237.31" font-family="Helvetica,sans-Serif" font-size="10.00">v8::internal::Factory</text>
<text text-anchor="middle" x="591" y="-226.31" font-family="Helvetica,sans-Serif" font-size="10.00">::read_only_roots</text>
</a>
</g>
</g>
<!-- Node7&#45;&gt;Node52 -->
<g id="edge12" class="edge">
<title>Node7&#45;&gt;Node52</title>
<path fill="none" stroke="midnightblue" d="M425.14,-136.34C430.45,-139.19 435.56,-142.5 440,-146.31 463.02,-166.08 451.6,-186.28 476,-204.31 490.1,-214.73 507.54,-221.54 524.49,-225.98"/>
<polygon fill="midnightblue" stroke="midnightblue" points="523.85,-229.42 534.39,-228.33 525.47,-222.61 523.85,-229.42"/>
</g>
<!-- Node52&#45;&gt;Node6 -->
<g id="edge13" class="edge">
<title>Node52&#45;&gt;Node6</title>
<path fill="none" stroke="midnightblue" d="M647.61,-222.4C673.65,-216.83 704.86,-210.15 732.03,-204.33"/>
<polygon fill="midnightblue" stroke="midnightblue" points="732.8,-207.74 741.84,-202.23 731.33,-200.9 732.8,-207.74"/>
</g>
<!-- Node53&#45;&gt;Node5 -->
<g id="edge15" class="edge">
<title>Node53&#45;&gt;Node5</title>
<path fill="none" stroke="midnightblue" d="M285.33,-165.31C295.14,-165.31 305.11,-165.31 314.72,-165.31"/>
<polygon fill="midnightblue" stroke="midnightblue" points="314.98,-168.81 324.98,-165.31 314.98,-161.81 314.98,-168.81"/>
</g>
</g>
</svg>
        <g id="navigator" transform="translate(0 0)" fill="#404254">
                <rect fill="#f2f5e9" fill-opacity="0.5" stroke="#606060" stroke-width=".5" x="0" y="0" width="60" height="60"/>
                <use id="zoomplus" xlink:href="#zoomPlus" x="17" y="9" onmousedown="handleZoom(evt,'in')"/>
                <use id="zoomminus" xlink:href="#zoomMin" x="42" y="9" onmousedown="handleZoom(evt,'out')"/>
                <use id="reset" xlink:href="#resetDef" x="30" y="36" onmousedown="handleReset()"/>
                <g id="arrowUp" xlink:href="#dirArrow" transform="translate(30 24)" onmousedown="handlePan(0,-1)">
                  <use xlink:href="#rim" fill="#404040">
                        <set attributeName="fill" to="#808080" begin="arrowUp.mouseover" end="arrowUp.mouseout"/>
                  </use>
                  <path fill="none" stroke="white" stroke-width="1.5" d="M0,-3.0v7 M-2.5,-0.5L0,-3.0L2.5,-0.5"/>
                </g>
                <g id="arrowRight" xlink:href="#dirArrow" transform="rotate(90) translate(36 -43)" onmousedown="handlePan(1,0)">
                  <use xlink:href="#rim" fill="#404040">
                        <set attributeName="fill" to="#808080" begin="arrowRight.mouseover" end="arrowRight.mouseout"/>
                  </use>
                  <path fill="none" stroke="white" stroke-width="1.5" d="M0,-3.0v7 M-2.5,-0.5L0,-3.0L2.5,-0.5"/>
                </g>
                <g id="arrowDown" xlink:href="#dirArrow" transform="rotate(180) translate(-30 -48)" onmousedown="handlePan(0,1)">
                  <use xlink:href="#rim" fill="#404040">
                        <set attributeName="fill" to="#808080" begin="arrowDown.mouseover" end="arrowDown.mouseout"/>
                  </use>
                  <path fill="none" stroke="white" stroke-width="1.5" d="M0,-3.0v7 M-2.5,-0.5L0,-3.0L2.5,-0.5"/>
                </g>
                <g id="arrowLeft" xlink:href="#dirArrow" transform="rotate(270) translate(-36 17)" onmousedown="handlePan(-1,0)">
                  <use xlink:href="#rim" fill="#404040">
                        <set attributeName="fill" to="#808080" begin="arrowLeft.mouseover" end="arrowLeft.mouseout"/>
                  </use>
                  <path fill="none" stroke="white" stroke-width="1.5" d="M0,-3.0v7 M-2.5,-0.5L0,-3.0L2.5,-0.5"/>
                </g>
        </g>
        <svg viewBox="0 0 15 15" width="100%" height="30px" preserveAspectRatio="xMaxYMin meet">
         <g id="arrow_out" transform="scale(0.3 0.3)">
          <a xlink:href="classv8_1_1Private_ac23e6937de502a4aa3e239e67c6c3c2e_cgraph_org.svg" target="_base">
           <rect id="button" ry="5" rx="5" y="6" x="6" height="38" width="38"
                fill="#f2f5e9" fill-opacity="0.5" stroke="#606060" stroke-width="1.0"/>
           <path id="arrow"
             d="M 11.500037,31.436501 C 11.940474,20.09759 22.043105,11.32322 32.158766,21.979434 L 37.068811,17.246167 C 37.068811,17.246167 37.088388,32 37.088388,32 L 22.160133,31.978069 C 22.160133,31.978069 26.997745,27.140456 26.997745,27.140456 C 18.528582,18.264221 13.291696,25.230495 11.500037,31.436501 z"
             style="fill:#404040;"/>
          </a>
         </g>
        </svg>
</svg>
