<?xml version="1.0" encoding="UTF-8" standalone="no"?>
<!DOCTYPE svg PUBLIC "-//W3C//DTD SVG 1.1//EN"
 "http://www.w3.org/Graphics/SVG/1.1/DTD/svg11.dtd">
<!-- Generated by graphviz version 2.43.0 (0)
 -->
<!-- Title: v8::internal::HeapGraphEdge::to Pages: 1 -->
<!--zoomable 106 -->
<svg id="main" version="1.1" xmlns="http://www.w3.org/2000/svg" xmlns:xlink="http://www.w3.org/1999/xlink" xml:space="preserve" onload="init(evt)">
<style type="text/css"><![CDATA[
.edge:hover path { stroke: red; }
.edge:hover polygon { stroke: red; fill: red; }
]]></style>
<script type="text/javascript"><![CDATA[
var edges = document.getElementsByTagName('g');
if (edges && edges.length) {
  for (var i=0;i<edges.length;i++) {
    if (edges[i].id.substr(0,4)=='edge') {
      edges[i].setAttribute('class','edge');
    }
  }
}
]]></script>
        <defs>
                <circle id="rim" cx="0" cy="0" r="7"/>
                <circle id="rim2" cx="0" cy="0" r="3.5"/>
                <g id="zoomPlus">
                        <use xlink:href="#rim" fill="#404040">
                                <set attributeName="fill" to="#808080" begin="zoomplus.mouseover" end="zoomplus.mouseout"/>
                        </use>
                        <path d="M-4,0h8M0,-4v8" fill="none" stroke="white" stroke-width="1.5" pointer-events="none"/>
                </g>
                <g id="zoomMin">
                        <use xlink:href="#rim" fill="#404040">
                                <set attributeName="fill" to="#808080" begin="zoomminus.mouseover" end="zoomminus.mouseout"/>
                        </use>
                        <path d="M-4,0h8" fill="none" stroke="white" stroke-width="1.5" pointer-events="none"/>
                </g>
                <g id="dirArrow">
                        <path fill="none" stroke="white" stroke-width="1.5" d="M0,-3.0v7 M-2.5,-0.5L0,-3.0L2.5,-0.5"/>
                </g>
               <g id="resetDef">
                       <use xlink:href="#rim2" fill="#404040">
                               <set attributeName="fill" to="#808080" begin="reset.mouseover" end="reset.mouseout"/>
                       </use>
               </g>
        </defs>

<script type="text/javascript">
var viewWidth = 767;
var viewHeight = 106;
var sectionId = 'dynsection-14';
</script>
<script xlink:href="svgpan.js"/>
<svg id="graph" class="graph">
<g id="viewport">
<title>v8::internal::HeapGraphEdge::to</title>
<polygon fill="white" stroke="transparent" points="-4,4 -4,-102 763,-102 763,4 -4,4"/>
<!-- Node1 -->
<g id="node1" class="node">
<title>Node1</title>
<g id="a_node1"><a xlink:title=" ">
<polygon fill="#bfbfbf" stroke="black" points="586,-30 586,-49 759,-49 759,-30 586,-30"/>
<text text-anchor="middle" x="672.5" y="-37" font-family="Helvetica,sans-Serif" font-size="10.00">v8::internal::HeapGraphEdge::to</text>
</a>
</g>
</g>
<!-- Node2 -->
<g id="node2" class="node">
<title>Node2</title>
<g id="a_node2"><a xlink:href="classv8_1_1internal_1_1HeapEntry.html#a185671f8f613d657af21fa7360e001cc" target="_top" xlink:title=" ">
<polygon fill="white" stroke="black" points="406.5,-49.5 406.5,-79.5 535.5,-79.5 535.5,-49.5 406.5,-49.5"/>
<text text-anchor="start" x="414.5" y="-67.5" font-family="Helvetica,sans-Serif" font-size="10.00">v8::internal::HeapEntry</text>
<text text-anchor="middle" x="471" y="-56.5" font-family="Helvetica,sans-Serif" font-size="10.00">::Print</text>
</a>
</g>
</g>
<!-- Node1&#45;&gt;Node2 -->
<g id="edge1" class="edge">
<title>Node1&#45;&gt;Node2</title>
<path fill="none" stroke="midnightblue" d="M585.25,-50.31C568.63,-52.39 551.51,-54.54 535.76,-56.51"/>
<polygon fill="midnightblue" stroke="midnightblue" points="586.02,-53.74 595.51,-49.02 585.15,-46.79 586.02,-53.74"/>
</g>
<!-- Node4 -->
<g id="node4" class="node">
<title>Node4</title>
<g id="a_node4"><a xlink:href="classv8_1_1internal_1_1HeapSnapshotJSONSerializer.html#a572501ca0143b00231c85a444d712a28" target="_top" xlink:title=" ">
<polygon fill="white" stroke="black" points="392,-0.5 392,-30.5 550,-30.5 550,-0.5 392,-0.5"/>
<text text-anchor="start" x="400" y="-18.5" font-family="Helvetica,sans-Serif" font-size="10.00">v8::internal::HeapSnapshot</text>
<text text-anchor="middle" x="471" y="-7.5" font-family="Helvetica,sans-Serif" font-size="10.00">JSONSerializer::SerializeEdge</text>
</a>
</g>
</g>
<!-- Node1&#45;&gt;Node4 -->
<g id="edge4" class="edge">
<title>Node1&#45;&gt;Node4</title>
<path fill="none" stroke="midnightblue" d="M582.17,-28.75C571.46,-27.47 560.59,-26.16 550.06,-24.89"/>
<polygon fill="midnightblue" stroke="midnightblue" points="582.02,-32.26 592.37,-29.98 582.86,-25.31 582.02,-32.26"/>
</g>
<!-- Node2&#45;&gt;Node2 -->
<g id="edge2" class="edge">
<title>Node2&#45;&gt;Node2</title>
<path fill="none" stroke="midnightblue" d="M505.83,-89.96C501.5,-94.68 489.9,-98 471,-98 439.99,-98 428.61,-89.06 436.84,-79.66"/>
<polygon fill="midnightblue" stroke="midnightblue" points="509.3,-89.41 505.16,-79.66 502.31,-89.87 509.3,-89.41"/>
</g>
<!-- Node3 -->
<g id="node3" class="node">
<title>Node3</title>
<g id="a_node3"><a xlink:href="classv8_1_1internal_1_1HeapSnapshot.html#a3c183f20e6935d16ec6a852cfb77b252" target="_top" xlink:title=" ">
<polygon fill="white" stroke="black" points="199.5,-49.5 199.5,-79.5 348.5,-79.5 348.5,-49.5 199.5,-49.5"/>
<text text-anchor="start" x="207.5" y="-67.5" font-family="Helvetica,sans-Serif" font-size="10.00">v8::internal::HeapSnapshot</text>
<text text-anchor="middle" x="274" y="-56.5" font-family="Helvetica,sans-Serif" font-size="10.00">::Print</text>
</a>
</g>
</g>
<!-- Node2&#45;&gt;Node3 -->
<g id="edge3" class="edge">
<title>Node2&#45;&gt;Node3</title>
<path fill="none" stroke="midnightblue" d="M396.31,-64.5C380.72,-64.5 364.25,-64.5 348.66,-64.5"/>
<polygon fill="midnightblue" stroke="midnightblue" points="396.42,-68 406.42,-64.5 396.42,-61 396.42,-68"/>
</g>
<!-- Node5 -->
<g id="node5" class="node">
<title>Node5</title>
<g id="a_node5"><a xlink:href="classv8_1_1internal_1_1HeapSnapshotJSONSerializer.html#a366135f1d9b4c29bd0a66822cf7e4b7b" target="_top" xlink:title=" ">
<polygon fill="white" stroke="black" points="192,-0.5 192,-30.5 356,-30.5 356,-0.5 192,-0.5"/>
<text text-anchor="start" x="200" y="-18.5" font-family="Helvetica,sans-Serif" font-size="10.00">v8::internal::HeapSnapshot</text>
<text text-anchor="middle" x="274" y="-7.5" font-family="Helvetica,sans-Serif" font-size="10.00">JSONSerializer::SerializeEdges</text>
</a>
</g>
</g>
<!-- Node4&#45;&gt;Node5 -->
<g id="edge5" class="edge">
<title>Node4&#45;&gt;Node5</title>
<path fill="none" stroke="midnightblue" d="M381.81,-15.5C373.24,-15.5 364.57,-15.5 356.08,-15.5"/>
<polygon fill="midnightblue" stroke="midnightblue" points="381.81,-19 391.81,-15.5 381.81,-12 381.81,-19"/>
</g>
<!-- Node6 -->
<g id="node6" class="node">
<title>Node6</title>
<g id="a_node6"><a xlink:href="classv8_1_1internal_1_1HeapSnapshotJSONSerializer.html#a6e118cc108559a4aa206bb80c9fa1812" target="_top" xlink:title=" ">
<polygon fill="white" stroke="red" points="0,-0.5 0,-30.5 156,-30.5 156,-0.5 0,-0.5"/>
<text text-anchor="start" x="8" y="-18.5" font-family="Helvetica,sans-Serif" font-size="10.00">v8::internal::HeapSnapshot</text>
<text text-anchor="middle" x="78" y="-7.5" font-family="Helvetica,sans-Serif" font-size="10.00">JSONSerializer::SerializeImpl</text>
</a>
</g>
</g>
<!-- Node5&#45;&gt;Node6 -->
<g id="edge6" class="edge">
<title>Node5&#45;&gt;Node6</title>
<path fill="none" stroke="midnightblue" d="M181.8,-15.5C173.21,-15.5 164.55,-15.5 156.1,-15.5"/>
<polygon fill="midnightblue" stroke="midnightblue" points="181.85,-19 191.85,-15.5 181.85,-12 181.85,-19"/>
</g>
</g>
</svg>
        <g id="navigator" transform="translate(0 0)" fill="#404254">
                <rect fill="#f2f5e9" fill-opacity="0.5" stroke="#606060" stroke-width=".5" x="0" y="0" width="60" height="60"/>
                <use id="zoomplus" xlink:href="#zoomPlus" x="17" y="9" onmousedown="handleZoom(evt,'in')"/>
                <use id="zoomminus" xlink:href="#zoomMin" x="42" y="9" onmousedown="handleZoom(evt,'out')"/>
                <use id="reset" xlink:href="#resetDef" x="30" y="36" onmousedown="handleReset()"/>
                <g id="arrowUp" xlink:href="#dirArrow" transform="translate(30 24)" onmousedown="handlePan(0,-1)">
                  <use xlink:href="#rim" fill="#404040">
                        <set attributeName="fill" to="#808080" begin="arrowUp.mouseover" end="arrowUp.mouseout"/>
                  </use>
                  <path fill="none" stroke="white" stroke-width="1.5" d="M0,-3.0v7 M-2.5,-0.5L0,-3.0L2.5,-0.5"/>
                </g>
                <g id="arrowRight" xlink:href="#dirArrow" transform="rotate(90) translate(36 -43)" onmousedown="handlePan(1,0)">
                  <use xlink:href="#rim" fill="#404040">
                        <set attributeName="fill" to="#808080" begin="arrowRight.mouseover" end="arrowRight.mouseout"/>
                  </use>
                  <path fill="none" stroke="white" stroke-width="1.5" d="M0,-3.0v7 M-2.5,-0.5L0,-3.0L2.5,-0.5"/>
                </g>
                <g id="arrowDown" xlink:href="#dirArrow" transform="rotate(180) translate(-30 -48)" onmousedown="handlePan(0,1)">
                  <use xlink:href="#rim" fill="#404040">
                        <set attributeName="fill" to="#808080" begin="arrowDown.mouseover" end="arrowDown.mouseout"/>
                  </use>
                  <path fill="none" stroke="white" stroke-width="1.5" d="M0,-3.0v7 M-2.5,-0.5L0,-3.0L2.5,-0.5"/>
                </g>
                <g id="arrowLeft" xlink:href="#dirArrow" transform="rotate(270) translate(-36 17)" onmousedown="handlePan(-1,0)">
                  <use xlink:href="#rim" fill="#404040">
                        <set attributeName="fill" to="#808080" begin="arrowLeft.mouseover" end="arrowLeft.mouseout"/>
                  </use>
                  <path fill="none" stroke="white" stroke-width="1.5" d="M0,-3.0v7 M-2.5,-0.5L0,-3.0L2.5,-0.5"/>
                </g>
        </g>
        <svg viewBox="0 0 15 15" width="100%" height="30px" preserveAspectRatio="xMaxYMin meet">
         <g id="arrow_out" transform="scale(0.3 0.3)">
          <a xlink:href="classv8_1_1internal_1_1HeapGraphEdge_ac1e819d2d473a083e8eead99a24e764a_icgraph_org.svg" target="_base">
           <rect id="button" ry="5" rx="5" y="6" x="6" height="38" width="38"
                fill="#f2f5e9" fill-opacity="0.5" stroke="#606060" stroke-width="1.0"/>
           <path id="arrow"
             d="M 11.500037,31.436501 C 11.940474,20.09759 22.043105,11.32322 32.158766,21.979434 L 37.068811,17.246167 C 37.068811,17.246167 37.088388,32 37.088388,32 L 22.160133,31.978069 C 22.160133,31.978069 26.997745,27.140456 26.997745,27.140456 C 18.528582,18.264221 13.291696,25.230495 11.500037,31.436501 z"
             style="fill:#404040;"/>
          </a>
         </g>
        </svg>
</svg>
