<?xml version="1.0" encoding="UTF-8" standalone="no"?>
<!DOCTYPE svg PUBLIC "-//W3C//DTD SVG 1.1//EN"
 "http://www.w3.org/Graphics/SVG/1.1/DTD/svg11.dtd">
<!-- Generated by graphviz version 2.43.0 (0)
 -->
<!-- Title: v8::internal::interpreter::BytecodeArrayWriter::ToBytecodeArray Pages: 1 -->
<svg width="732pt" height="50pt"
 viewBox="0.00 0.00 732.00 50.00" xmlns="http://www.w3.org/2000/svg" xmlns:xlink="http://www.w3.org/1999/xlink">
<g id="graph0" class="graph" transform="scale(1 1) rotate(0) translate(4 46)">
<title>v8::internal::interpreter::BytecodeArrayWriter::ToBytecodeArray</title>
<polygon fill="white" stroke="transparent" points="-4,4 -4,-46 728,-46 728,4 -4,4"/>
<!-- Node1 -->
<g id="node1" class="node">
<title>Node1</title>
<g id="a_node1"><a xlink:title=" ">
<polygon fill="#bfbfbf" stroke="black" points="593,-0.5 593,-41.5 724,-41.5 724,-0.5 593,-0.5"/>
<text text-anchor="start" x="601" y="-29.5" font-family="Helvetica,sans-Serif" font-size="10.00">v8::internal::interpreter</text>
<text text-anchor="start" x="601" y="-18.5" font-family="Helvetica,sans-Serif" font-size="10.00">::BytecodeArrayWriter::</text>
<text text-anchor="middle" x="658.5" y="-7.5" font-family="Helvetica,sans-Serif" font-size="10.00">ToBytecodeArray</text>
</a>
</g>
</g>
<!-- Node2 -->
<g id="node2" class="node">
<title>Node2</title>
<g id="a_node2"><a xlink:href="classv8_1_1internal_1_1interpreter_1_1BytecodeArrayBuilder.html#ad2b12cab9707a84d42a58bcab552094f" target="_top" xlink:title=" ">
<polygon fill="white" stroke="black" points="427,-0.5 427,-41.5 557,-41.5 557,-0.5 427,-0.5"/>
<text text-anchor="start" x="435" y="-29.5" font-family="Helvetica,sans-Serif" font-size="10.00">v8::internal::interpreter</text>
<text text-anchor="start" x="435" y="-18.5" font-family="Helvetica,sans-Serif" font-size="10.00">::BytecodeArrayBuilder</text>
<text text-anchor="middle" x="492" y="-7.5" font-family="Helvetica,sans-Serif" font-size="10.00">::ToBytecodeArray</text>
</a>
</g>
</g>
<!-- Node1&#45;&gt;Node2 -->
<g id="edge1" class="edge">
<title>Node1&#45;&gt;Node2</title>
<path fill="none" stroke="midnightblue" d="M582.91,-21C574.29,-21 565.55,-21 557.09,-21"/>
<polygon fill="midnightblue" stroke="midnightblue" points="582.96,-24.5 592.96,-21 582.96,-17.5 582.96,-24.5"/>
</g>
<!-- Node3 -->
<g id="node3" class="node">
<title>Node3</title>
<g id="a_node3"><a xlink:href="classv8_1_1internal_1_1interpreter_1_1BytecodeGenerator.html#af0752d4fab3ef7af92ee1f1ca52d0967" target="_top" xlink:title=" ">
<polygon fill="white" stroke="black" points="185,-6 185,-36 391,-36 391,-6 185,-6"/>
<text text-anchor="start" x="193" y="-24" font-family="Helvetica,sans-Serif" font-size="10.00">v8::internal::interpreter</text>
<text text-anchor="middle" x="288" y="-13" font-family="Helvetica,sans-Serif" font-size="10.00">::BytecodeGenerator::FinalizeBytecode</text>
</a>
</g>
</g>
<!-- Node2&#45;&gt;Node3 -->
<g id="edge2" class="edge">
<title>Node2&#45;&gt;Node3</title>
<path fill="none" stroke="midnightblue" d="M416.72,-21C408.34,-21 399.68,-21 391.02,-21"/>
<polygon fill="midnightblue" stroke="midnightblue" points="416.81,-24.5 426.81,-21 416.81,-17.5 416.81,-24.5"/>
</g>
<!-- Node4 -->
<g id="node4" class="node">
<title>Node4</title>
<g id="a_node4"><a xlink:href="classv8_1_1internal_1_1interpreter_1_1InterpreterCompilationJob.html#ac430432ebc5b586eea34e724cb6854c0" target="_top" xlink:title=" ">
<polygon fill="white" stroke="red" points="0,-0.5 0,-41.5 149,-41.5 149,-0.5 0,-0.5"/>
<text text-anchor="start" x="8" y="-29.5" font-family="Helvetica,sans-Serif" font-size="10.00">v8::internal::interpreter</text>
<text text-anchor="start" x="8" y="-18.5" font-family="Helvetica,sans-Serif" font-size="10.00">::InterpreterCompilationJob</text>
<text text-anchor="middle" x="74.5" y="-7.5" font-family="Helvetica,sans-Serif" font-size="10.00">::DoFinalizeJobImpl</text>
</a>
</g>
</g>
<!-- Node3&#45;&gt;Node4 -->
<g id="edge3" class="edge">
<title>Node3&#45;&gt;Node4</title>
<path fill="none" stroke="midnightblue" d="M174.81,-21C166.16,-21 157.57,-21 149.27,-21"/>
<polygon fill="midnightblue" stroke="midnightblue" points="174.97,-24.5 184.97,-21 174.97,-17.5 174.97,-24.5"/>
</g>
</g>
</svg>
