<?xml version="1.0" encoding="UTF-8" standalone="no"?>
<!DOCTYPE svg PUBLIC "-//W3C//DTD SVG 1.1//EN"
 "http://www.w3.org/Graphics/SVG/1.1/DTD/svg11.dtd">
<!-- Generated by graphviz version 2.43.0 (0)
 -->
<!-- Title: v8::internal::MicrotaskQueueBuiltinsAssembler::IncrementFinishedMicrotaskCount Pages: 1 -->
<!--zoomable 324 -->
<svg id="main" version="1.1" xmlns="http://www.w3.org/2000/svg" xmlns:xlink="http://www.w3.org/1999/xlink" xml:space="preserve" onload="init(evt)">
<style type="text/css"><![CDATA[
.edge:hover path { stroke: red; }
.edge:hover polygon { stroke: red; fill: red; }
]]></style>
<script type="text/javascript"><![CDATA[
var edges = document.getElementsByTagName('g');
if (edges && edges.length) {
  for (var i=0;i<edges.length;i++) {
    if (edges[i].id.substr(0,4)=='edge') {
      edges[i].setAttribute('class','edge');
    }
  }
}
]]></script>
        <defs>
                <circle id="rim" cx="0" cy="0" r="7"/>
                <circle id="rim2" cx="0" cy="0" r="3.5"/>
                <g id="zoomPlus">
                        <use xlink:href="#rim" fill="#404040">
                                <set attributeName="fill" to="#808080" begin="zoomplus.mouseover" end="zoomplus.mouseout"/>
                        </use>
                        <path d="M-4,0h8M0,-4v8" fill="none" stroke="white" stroke-width="1.5" pointer-events="none"/>
                </g>
                <g id="zoomMin">
                        <use xlink:href="#rim" fill="#404040">
                                <set attributeName="fill" to="#808080" begin="zoomminus.mouseover" end="zoomminus.mouseout"/>
                        </use>
                        <path d="M-4,0h8" fill="none" stroke="white" stroke-width="1.5" pointer-events="none"/>
                </g>
                <g id="dirArrow">
                        <path fill="none" stroke="white" stroke-width="1.5" d="M0,-3.0v7 M-2.5,-0.5L0,-3.0L2.5,-0.5"/>
                </g>
               <g id="resetDef">
                       <use xlink:href="#rim2" fill="#404040">
                               <set attributeName="fill" to="#808080" begin="reset.mouseover" end="reset.mouseout"/>
                       </use>
               </g>
        </defs>

<script type="text/javascript">
var viewWidth = 794;
var viewHeight = 324;
var sectionId = 'dynsection-15';
</script>
<script xlink:href="svgpan.js"/>
<svg id="graph" class="graph">
<g id="viewport">
<title>v8::internal::MicrotaskQueueBuiltinsAssembler::IncrementFinishedMicrotaskCount</title>
<polygon fill="white" stroke="transparent" points="-4,4 -4,-319.5 790,-319.5 790,4 -4,4"/>
<!-- Node1 -->
<g id="node1" class="node">
<title>Node1</title>
<g id="a_node1"><a xlink:title=" ">
<polygon fill="#bfbfbf" stroke="black" points="0,-153 0,-194 201,-194 201,-153 0,-153"/>
<text text-anchor="start" x="8" y="-182" font-family="Helvetica,sans-Serif" font-size="10.00">v8::internal::MicrotaskQueue</text>
<text text-anchor="start" x="8" y="-171" font-family="Helvetica,sans-Serif" font-size="10.00">BuiltinsAssembler::IncrementFinished</text>
<text text-anchor="middle" x="100.5" y="-160" font-family="Helvetica,sans-Serif" font-size="10.00">MicrotaskCount</text>
</a>
</g>
</g>
<!-- Node2 -->
<g id="node2" class="node">
<title>Node2</title>
<g id="a_node2"><a xlink:href="classv8_1_1internal_1_1compiler_1_1CodeAssembler.html#aedf6c1a529f8bdb09035246dcafa6f2c" target="_top" xlink:title=" ">
<polygon fill="white" stroke="black" points="249.5,-232.5 249.5,-262.5 399.5,-262.5 399.5,-232.5 249.5,-232.5"/>
<text text-anchor="start" x="257.5" y="-250.5" font-family="Helvetica,sans-Serif" font-size="10.00">v8::internal::compiler</text>
<text text-anchor="middle" x="324.5" y="-239.5" font-family="Helvetica,sans-Serif" font-size="10.00">::CodeAssembler::IntPtrAdd</text>
</a>
</g>
</g>
<!-- Node1&#45;&gt;Node2 -->
<g id="edge1" class="edge">
<title>Node1&#45;&gt;Node2</title>
<path fill="none" stroke="midnightblue" d="M154.24,-194.12C179.16,-203.56 209.44,-214.61 237,-223.5 243.38,-225.56 250.05,-227.6 256.75,-229.58"/>
<polygon fill="midnightblue" stroke="midnightblue" points="255.95,-232.99 266.53,-232.42 257.91,-226.27 255.95,-232.99"/>
</g>
<!-- Node5 -->
<g id="node5" class="node">
<title>Node5</title>
<g id="a_node5"><a xlink:href="classv8_1_1internal_1_1compiler_1_1CodeAssembler.html#a24b1bfe286ec10b56edc3a8bca1f939f" target="_top" xlink:title=" ">
<polygon fill="white" stroke="black" points="237,-183.5 237,-213.5 412,-213.5 412,-183.5 237,-183.5"/>
<text text-anchor="start" x="245" y="-201.5" font-family="Helvetica,sans-Serif" font-size="10.00">v8::internal::compiler</text>
<text text-anchor="middle" x="324.5" y="-190.5" font-family="Helvetica,sans-Serif" font-size="10.00">::CodeAssembler::IntPtrConstant</text>
</a>
</g>
</g>
<!-- Node1&#45;&gt;Node5 -->
<g id="edge4" class="edge">
<title>Node1&#45;&gt;Node5</title>
<path fill="none" stroke="midnightblue" d="M201.14,-184.72C209.58,-185.67 218.11,-186.63 226.53,-187.58"/>
<polygon fill="midnightblue" stroke="midnightblue" points="226.4,-191.09 236.73,-188.73 227.18,-184.13 226.4,-191.09"/>
</g>
<!-- Node7 -->
<g id="node7" class="node">
<title>Node7</title>
<g id="a_node7"><a xlink:href="classv8_1_1internal_1_1MachineType.html#aba018b7917005c2607051556a2f85ffe" target="_top" xlink:title=" ">
<polygon fill="white" stroke="black" points="253.5,-134.5 253.5,-164.5 395.5,-164.5 395.5,-134.5 253.5,-134.5"/>
<text text-anchor="start" x="261.5" y="-152.5" font-family="Helvetica,sans-Serif" font-size="10.00">v8::internal::MachineType</text>
<text text-anchor="middle" x="324.5" y="-141.5" font-family="Helvetica,sans-Serif" font-size="10.00">::PointerRepresentation</text>
</a>
</g>
</g>
<!-- Node1&#45;&gt;Node7 -->
<g id="edge6" class="edge">
<title>Node1&#45;&gt;Node7</title>
<path fill="none" stroke="midnightblue" d="M201.14,-162.73C215.19,-161.21 229.49,-159.66 243.12,-158.19"/>
<polygon fill="midnightblue" stroke="midnightblue" points="243.83,-161.63 253.4,-157.08 243.08,-154.67 243.83,-161.63"/>
</g>
<!-- Node8 -->
<g id="node8" class="node">
<title>Node8</title>
<g id="a_node8"><a xlink:href="classv8_1_1internal_1_1compiler_1_1CodeAssembler.html#af7b8ce0236c4ed3e289c6aa041049517" target="_top" xlink:title=" ">
<polygon fill="white" stroke="black" points="239.5,-74 239.5,-115 409.5,-115 409.5,-74 239.5,-74"/>
<text text-anchor="start" x="247.5" y="-103" font-family="Helvetica,sans-Serif" font-size="10.00">v8::internal::compiler</text>
<text text-anchor="start" x="247.5" y="-92" font-family="Helvetica,sans-Serif" font-size="10.00">::CodeAssembler::StoreNoWrite</text>
<text text-anchor="middle" x="324.5" y="-81" font-family="Helvetica,sans-Serif" font-size="10.00">Barrier</text>
</a>
</g>
</g>
<!-- Node1&#45;&gt;Node8 -->
<g id="edge7" class="edge">
<title>Node1&#45;&gt;Node8</title>
<path fill="none" stroke="midnightblue" d="M159.25,-152.95C188.81,-142.43 224.97,-129.56 255.84,-118.58"/>
<polygon fill="midnightblue" stroke="midnightblue" points="257.41,-121.73 265.66,-115.08 255.06,-115.14 257.41,-121.73"/>
</g>
<!-- Node3 -->
<g id="node3" class="node">
<title>Node3</title>
<g id="a_node3"><a xlink:href="namespacev8_1_1internal_1_1TorqueRuntimeMacroShims_1_1CodeStubAssembler.html#a660a476dedf770682c81b591e345aab6" target="_top" xlink:title=" ">
<polygon fill="white" stroke="black" points="448,-274 448,-315 629,-315 629,-274 448,-274"/>
<text text-anchor="start" x="456" y="-303" font-family="Helvetica,sans-Serif" font-size="10.00">v8::internal::TorqueRuntime</text>
<text text-anchor="start" x="456" y="-292" font-family="Helvetica,sans-Serif" font-size="10.00">MacroShims::CodeStubAssembler</text>
<text text-anchor="middle" x="538.5" y="-281" font-family="Helvetica,sans-Serif" font-size="10.00">::IntPtrAdd</text>
</a>
</g>
</g>
<!-- Node2&#45;&gt;Node3 -->
<g id="edge2" class="edge">
<title>Node2&#45;&gt;Node3</title>
<path fill="none" stroke="midnightblue" d="M393.16,-262.5C407.38,-265.65 422.65,-269.04 437.76,-272.39"/>
<polygon fill="midnightblue" stroke="midnightblue" points="437.13,-275.83 447.65,-274.58 438.65,-269 437.13,-275.83"/>
</g>
<!-- Node4 -->
<g id="node4" class="node">
<title>Node4</title>
<g id="a_node4"><a xlink:href="namespacev8_1_1base_1_1bits.html#ac34fbdba2249daa2374ff7964600dbea" target="_top" xlink:title=" ">
<polygon fill="white" stroke="black" points="478,-236 478,-255 599,-255 599,-236 478,-236"/>
<text text-anchor="middle" x="538.5" y="-243" font-family="Helvetica,sans-Serif" font-size="10.00">v8::base::bits::Signed</text>
</a>
</g>
</g>
<!-- Node2&#45;&gt;Node4 -->
<g id="edge3" class="edge">
<title>Node2&#45;&gt;Node4</title>
<path fill="none" stroke="midnightblue" d="M399.65,-246.8C421.71,-246.59 445.79,-246.37 467.57,-246.16"/>
<polygon fill="midnightblue" stroke="midnightblue" points="467.77,-249.66 477.73,-246.06 467.7,-242.66 467.77,-249.66"/>
</g>
<!-- Node6 -->
<g id="node6" class="node">
<title>Node6</title>
<g id="a_node6"><a xlink:href="classv8_1_1internal_1_1compiler_1_1CodeAssembler.html#a73e60713b1c509a488abf9fad8fbd6fd" target="_top" xlink:title=" ">
<polygon fill="white" stroke="black" points="468,-183.5 468,-213.5 609,-213.5 609,-183.5 468,-183.5"/>
<text text-anchor="start" x="476" y="-201.5" font-family="Helvetica,sans-Serif" font-size="10.00">v8::internal::compiler</text>
<text text-anchor="middle" x="538.5" y="-190.5" font-family="Helvetica,sans-Serif" font-size="10.00">::CodeAssembler::jsgraph</text>
</a>
</g>
</g>
<!-- Node5&#45;&gt;Node6 -->
<g id="edge5" class="edge">
<title>Node5&#45;&gt;Node6</title>
<path fill="none" stroke="midnightblue" d="M412.03,-198.5C427.1,-198.5 442.72,-198.5 457.6,-198.5"/>
<polygon fill="midnightblue" stroke="midnightblue" points="457.77,-202 467.77,-198.5 457.77,-195 457.77,-202"/>
</g>
<!-- Node9 -->
<g id="node9" class="node">
<title>Node9</title>
<g id="a_node9"><a xlink:href="namespacev8_1_1internal.html#a8738aa6c6b977e485b333b17ca822208" target="_top" xlink:title=" ">
<polygon fill="white" stroke="black" points="466.5,-128.5 466.5,-158.5 610.5,-158.5 610.5,-128.5 466.5,-128.5"/>
<text text-anchor="start" x="474.5" y="-146.5" font-family="Helvetica,sans-Serif" font-size="10.00">v8::internal::CanBeTagged</text>
<text text-anchor="middle" x="538.5" y="-135.5" font-family="Helvetica,sans-Serif" font-size="10.00">Pointer</text>
</a>
</g>
</g>
<!-- Node8&#45;&gt;Node9 -->
<g id="edge8" class="edge">
<title>Node8&#45;&gt;Node9</title>
<path fill="none" stroke="midnightblue" d="M409.59,-113.94C427.08,-117.98 445.41,-122.21 462.54,-126.18"/>
<polygon fill="midnightblue" stroke="midnightblue" points="461.95,-129.63 472.48,-128.47 463.53,-122.81 461.95,-129.63"/>
</g>
<!-- Node10 -->
<g id="node10" class="node">
<title>Node10</title>
<g id="a_node10"><a xlink:href="classv8_1_1internal_1_1compiler_1_1CodeAssembler.html#aa7955829e7f5fde26a9548ef2eb0d007" target="_top" xlink:title=" ">
<polygon fill="white" stroke="black" points="449,-79.5 449,-109.5 628,-109.5 628,-79.5 449,-79.5"/>
<text text-anchor="start" x="457" y="-97.5" font-family="Helvetica,sans-Serif" font-size="10.00">v8::internal::compiler</text>
<text text-anchor="middle" x="538.5" y="-86.5" font-family="Helvetica,sans-Serif" font-size="10.00">::CodeAssembler::raw_assembler</text>
</a>
</g>
</g>
<!-- Node8&#45;&gt;Node10 -->
<g id="edge9" class="edge">
<title>Node8&#45;&gt;Node10</title>
<path fill="none" stroke="midnightblue" d="M409.59,-94.5C419.2,-94.5 429.06,-94.5 438.84,-94.5"/>
<polygon fill="midnightblue" stroke="midnightblue" points="438.98,-98 448.98,-94.5 438.98,-91 438.98,-98"/>
</g>
<!-- Node11 -->
<g id="node11" class="node">
<title>Node11</title>
<g id="a_node11"><a xlink:href="classv8_1_1internal_1_1compiler_1_1RawMachineAssembler.html#a0372c812c2e2c4963011c2e6fc798a7a" target="_top" xlink:title=" ">
<polygon fill="white" stroke="black" points="470,-19 470,-60 607,-60 607,-19 470,-19"/>
<text text-anchor="start" x="478" y="-48" font-family="Helvetica,sans-Serif" font-size="10.00">v8::internal::compiler</text>
<text text-anchor="start" x="478" y="-37" font-family="Helvetica,sans-Serif" font-size="10.00">::RawMachineAssembler</text>
<text text-anchor="middle" x="538.5" y="-26" font-family="Helvetica,sans-Serif" font-size="10.00">::Store</text>
</a>
</g>
</g>
<!-- Node8&#45;&gt;Node11 -->
<g id="edge10" class="edge">
<title>Node8&#45;&gt;Node11</title>
<path fill="none" stroke="midnightblue" d="M404.74,-73.94C422.8,-69.26 441.97,-64.28 459.96,-59.62"/>
<polygon fill="midnightblue" stroke="midnightblue" points="461.02,-62.96 469.82,-57.06 459.26,-56.18 461.02,-62.96"/>
</g>
<!-- Node12 -->
<g id="node12" class="node">
<title>Node12</title>
<g id="a_node12"><a xlink:href="namespacev8_1_1internal_1_1compiler.html#a364c1534fdf1073625e22f3283e46994" target="_top" xlink:title=" ">
<polygon fill="white" stroke="red" points="665,-49.5 665,-79.5 786,-79.5 786,-49.5 665,-49.5"/>
<text text-anchor="start" x="673" y="-67.5" font-family="Helvetica,sans-Serif" font-size="10.00">v8::internal::compiler</text>
<text text-anchor="middle" x="725.5" y="-56.5" font-family="Helvetica,sans-Serif" font-size="10.00">::IntPtrConstant</text>
</a>
</g>
</g>
<!-- Node11&#45;&gt;Node12 -->
<g id="edge11" class="edge">
<title>Node11&#45;&gt;Node12</title>
<path fill="none" stroke="midnightblue" d="M607.07,-48.63C622.57,-50.73 639.07,-52.96 654.66,-55.06"/>
<polygon fill="midnightblue" stroke="midnightblue" points="654.37,-58.56 664.75,-56.43 655.31,-51.62 654.37,-58.56"/>
</g>
<!-- Node17 -->
<g id="node13" class="node">
<title>Node17</title>
<g id="a_node13"><a xlink:href="namespacev8_1_1internal_1_1wasm_1_1liftoff.html#a0ecba5b44024d8add4d50d38bd3bb8af" target="_top" xlink:title=" ">
<polygon fill="white" stroke="red" points="672,-0.5 672,-30.5 779,-30.5 779,-0.5 672,-0.5"/>
<text text-anchor="start" x="680" y="-18.5" font-family="Helvetica,sans-Serif" font-size="10.00">v8::internal::wasm</text>
<text text-anchor="middle" x="725.5" y="-7.5" font-family="Helvetica,sans-Serif" font-size="10.00">::liftoff::Store</text>
</a>
</g>
</g>
<!-- Node11&#45;&gt;Node17 -->
<g id="edge12" class="edge">
<title>Node11&#45;&gt;Node17</title>
<path fill="none" stroke="midnightblue" d="M607.07,-30.73C624.94,-28.42 644.14,-25.93 661.73,-23.64"/>
<polygon fill="midnightblue" stroke="midnightblue" points="662.42,-27.08 671.88,-22.33 661.52,-20.14 662.42,-27.08"/>
</g>
</g>
</svg>
        <g id="navigator" transform="translate(0 0)" fill="#404254">
                <rect fill="#f2f5e9" fill-opacity="0.5" stroke="#606060" stroke-width=".5" x="0" y="0" width="60" height="60"/>
                <use id="zoomplus" xlink:href="#zoomPlus" x="17" y="9" onmousedown="handleZoom(evt,'in')"/>
                <use id="zoomminus" xlink:href="#zoomMin" x="42" y="9" onmousedown="handleZoom(evt,'out')"/>
                <use id="reset" xlink:href="#resetDef" x="30" y="36" onmousedown="handleReset()"/>
                <g id="arrowUp" xlink:href="#dirArrow" transform="translate(30 24)" onmousedown="handlePan(0,-1)">
                  <use xlink:href="#rim" fill="#404040">
                        <set attributeName="fill" to="#808080" begin="arrowUp.mouseover" end="arrowUp.mouseout"/>
                  </use>
                  <path fill="none" stroke="white" stroke-width="1.5" d="M0,-3.0v7 M-2.5,-0.5L0,-3.0L2.5,-0.5"/>
                </g>
                <g id="arrowRight" xlink:href="#dirArrow" transform="rotate(90) translate(36 -43)" onmousedown="handlePan(1,0)">
                  <use xlink:href="#rim" fill="#404040">
                        <set attributeName="fill" to="#808080" begin="arrowRight.mouseover" end="arrowRight.mouseout"/>
                  </use>
                  <path fill="none" stroke="white" stroke-width="1.5" d="M0,-3.0v7 M-2.5,-0.5L0,-3.0L2.5,-0.5"/>
                </g>
                <g id="arrowDown" xlink:href="#dirArrow" transform="rotate(180) translate(-30 -48)" onmousedown="handlePan(0,1)">
                  <use xlink:href="#rim" fill="#404040">
                        <set attributeName="fill" to="#808080" begin="arrowDown.mouseover" end="arrowDown.mouseout"/>
                  </use>
                  <path fill="none" stroke="white" stroke-width="1.5" d="M0,-3.0v7 M-2.5,-0.5L0,-3.0L2.5,-0.5"/>
                </g>
                <g id="arrowLeft" xlink:href="#dirArrow" transform="rotate(270) translate(-36 17)" onmousedown="handlePan(-1,0)">
                  <use xlink:href="#rim" fill="#404040">
                        <set attributeName="fill" to="#808080" begin="arrowLeft.mouseover" end="arrowLeft.mouseout"/>
                  </use>
                  <path fill="none" stroke="white" stroke-width="1.5" d="M0,-3.0v7 M-2.5,-0.5L0,-3.0L2.5,-0.5"/>
                </g>
        </g>
        <svg viewBox="0 0 15 15" width="100%" height="30px" preserveAspectRatio="xMaxYMin meet">
         <g id="arrow_out" transform="scale(0.3 0.3)">
          <a xlink:href="classv8_1_1internal_1_1MicrotaskQueueBuiltinsAssembler_a7cf60844ebd99f7d2594eb8d0a278c54_cgraph_org.svg" target="_base">
           <rect id="button" ry="5" rx="5" y="6" x="6" height="38" width="38"
                fill="#f2f5e9" fill-opacity="0.5" stroke="#606060" stroke-width="1.0"/>
           <path id="arrow"
             d="M 11.500037,31.436501 C 11.940474,20.09759 22.043105,11.32322 32.158766,21.979434 L 37.068811,17.246167 C 37.068811,17.246167 37.088388,32 37.088388,32 L 22.160133,31.978069 C 22.160133,31.978069 26.997745,27.140456 26.997745,27.140456 C 18.528582,18.264221 13.291696,25.230495 11.500037,31.436501 z"
             style="fill:#404040;"/>
          </a>
         </g>
        </svg>
</svg>
