<?xml version="1.0" encoding="UTF-8" standalone="no"?>
<!DOCTYPE svg PUBLIC "-//W3C//DTD SVG 1.1//EN"
 "http://www.w3.org/Graphics/SVG/1.1/DTD/svg11.dtd">
<!-- Generated by graphviz version 2.43.0 (0)
 -->
<!-- Title: v8::internal::compiler::TopLevelLiveRange::AddBlockRequiringSpillOperand Pages: 1 -->
<svg width="731pt" height="50pt"
 viewBox="0.00 0.00 731.00 50.00" xmlns="http://www.w3.org/2000/svg" xmlns:xlink="http://www.w3.org/1999/xlink">
<g id="graph0" class="graph" transform="scale(1 1) rotate(0) translate(4 46)">
<title>v8::internal::compiler::TopLevelLiveRange::AddBlockRequiringSpillOperand</title>
<polygon fill="white" stroke="transparent" points="-4,4 -4,-46 727,-46 727,4 -4,4"/>
<!-- Node1 -->
<g id="node1" class="node">
<title>Node1</title>
<g id="a_node1"><a xlink:title=" ">
<polygon fill="#bfbfbf" stroke="black" points="555,-0.5 555,-41.5 723,-41.5 723,-0.5 555,-0.5"/>
<text text-anchor="start" x="563" y="-29.5" font-family="Helvetica,sans-Serif" font-size="10.00">v8::internal::compiler</text>
<text text-anchor="start" x="563" y="-18.5" font-family="Helvetica,sans-Serif" font-size="10.00">::TopLevelLiveRange::AddBlock</text>
<text text-anchor="middle" x="639" y="-7.5" font-family="Helvetica,sans-Serif" font-size="10.00">RequiringSpillOperand</text>
</a>
</g>
</g>
<!-- Node2 -->
<g id="node2" class="node">
<title>Node2</title>
<g id="a_node2"><a xlink:href="classv8_1_1internal_1_1compiler_1_1LiveRangeConnector.html#afaebc67111f0c9674525a320306dd50b" target="_top" xlink:title=" ">
<polygon fill="white" stroke="black" points="353,-0.5 353,-41.5 519,-41.5 519,-0.5 353,-0.5"/>
<text text-anchor="start" x="361" y="-29.5" font-family="Helvetica,sans-Serif" font-size="10.00">v8::internal::compiler</text>
<text text-anchor="start" x="361" y="-18.5" font-family="Helvetica,sans-Serif" font-size="10.00">::LiveRangeConnector::</text>
<text text-anchor="middle" x="436" y="-7.5" font-family="Helvetica,sans-Serif" font-size="10.00">CommitSpillsInDeferredBlocks</text>
</a>
</g>
</g>
<!-- Node1&#45;&gt;Node2 -->
<g id="edge1" class="edge">
<title>Node1&#45;&gt;Node2</title>
<path fill="none" stroke="midnightblue" d="M544.52,-21C536.06,-21 527.53,-21 519.17,-21"/>
<polygon fill="midnightblue" stroke="midnightblue" points="544.79,-24.5 554.79,-21 544.79,-17.5 544.79,-24.5"/>
</g>
<!-- Node3 -->
<g id="node3" class="node">
<title>Node3</title>
<g id="a_node3"><a xlink:href="classv8_1_1internal_1_1compiler_1_1LiveRangeConnector.html#a86f4fccf715c6230a3e0ceb373f60776" target="_top" xlink:title=" ">
<polygon fill="white" stroke="black" points="188,-0.5 188,-41.5 317,-41.5 317,-0.5 188,-0.5"/>
<text text-anchor="start" x="196" y="-29.5" font-family="Helvetica,sans-Serif" font-size="10.00">v8::internal::compiler</text>
<text text-anchor="start" x="196" y="-18.5" font-family="Helvetica,sans-Serif" font-size="10.00">::LiveRangeConnector::</text>
<text text-anchor="middle" x="252.5" y="-7.5" font-family="Helvetica,sans-Serif" font-size="10.00">ResolveControlFlow</text>
</a>
</g>
</g>
<!-- Node2&#45;&gt;Node3 -->
<g id="edge2" class="edge">
<title>Node2&#45;&gt;Node3</title>
<path fill="none" stroke="midnightblue" d="M342.67,-21C334.07,-21 325.5,-21 317.25,-21"/>
<polygon fill="midnightblue" stroke="midnightblue" points="342.75,-24.5 352.75,-21 342.75,-17.5 342.75,-24.5"/>
</g>
<!-- Node4 -->
<g id="node4" class="node">
<title>Node4</title>
<g id="a_node4"><a xlink:href="structv8_1_1internal_1_1compiler_1_1turboshaft_1_1ResolveControlFlowPhase.html#ac8ca16fb5aa76289704fc1499f3a928f" target="_top" xlink:title=" ">
<polygon fill="white" stroke="black" points="0,-0.5 0,-41.5 152,-41.5 152,-0.5 0,-0.5"/>
<text text-anchor="start" x="8" y="-29.5" font-family="Helvetica,sans-Serif" font-size="10.00">v8::internal::compiler</text>
<text text-anchor="start" x="8" y="-18.5" font-family="Helvetica,sans-Serif" font-size="10.00">::turboshaft::ResolveControl</text>
<text text-anchor="middle" x="76" y="-7.5" font-family="Helvetica,sans-Serif" font-size="10.00">FlowPhase::Run</text>
</a>
</g>
</g>
<!-- Node3&#45;&gt;Node4 -->
<g id="edge3" class="edge">
<title>Node3&#45;&gt;Node4</title>
<path fill="none" stroke="midnightblue" d="M177.44,-21C169.09,-21 160.58,-21 152.22,-21"/>
<polygon fill="midnightblue" stroke="midnightblue" points="177.51,-24.5 187.51,-21 177.51,-17.5 177.51,-24.5"/>
</g>
</g>
</svg>
