<?xml version="1.0" encoding="UTF-8" standalone="no"?>
<!DOCTYPE svg PUBLIC "-//W3C//DTD SVG 1.1//EN"
 "http://www.w3.org/Graphics/SVG/1.1/DTD/svg11.dtd">
<!-- Generated by graphviz version 2.43.0 (0)
 -->
<!-- Title: v8::internal::StaticCallInterfaceDescriptor::registers Pages: 1 -->
<svg width="727pt" height="66pt"
 viewBox="0.00 0.00 727.00 66.00" xmlns="http://www.w3.org/2000/svg" xmlns:xlink="http://www.w3.org/1999/xlink">
<g id="graph0" class="graph" transform="scale(1 1) rotate(0) translate(4 62)">
<title>v8::internal::StaticCallInterfaceDescriptor::registers</title>
<polygon fill="white" stroke="transparent" points="-4,4 -4,-62 723,-62 723,4 -4,4"/>
<!-- Node1 -->
<g id="node1" class="node">
<title>Node1</title>
<g id="a_node1"><a xlink:title=" ">
<polygon fill="#bfbfbf" stroke="black" points="0,-14 0,-44 159,-44 159,-14 0,-14"/>
<text text-anchor="start" x="8" y="-32" font-family="Helvetica,sans-Serif" font-size="10.00">v8::internal::StaticCall</text>
<text text-anchor="middle" x="79.5" y="-21" font-family="Helvetica,sans-Serif" font-size="10.00">InterfaceDescriptor::registers</text>
</a>
</g>
</g>
<!-- Node2 -->
<g id="node2" class="node">
<title>Node2</title>
<g id="a_node2"><a xlink:href="classv8_1_1internal_1_1CallInterfaceDescriptor.html#ab76dc5bf6bef28ad6d08b6e08c9c4b3a" target="_top" xlink:title=" ">
<polygon fill="white" stroke="black" points="195,-14 195,-44 371,-44 371,-14 195,-14"/>
<text text-anchor="start" x="203" y="-32" font-family="Helvetica,sans-Serif" font-size="10.00">v8::internal::CallInterface</text>
<text text-anchor="middle" x="283" y="-21" font-family="Helvetica,sans-Serif" font-size="10.00">Descriptor::DefaultRegisterArray</text>
</a>
</g>
</g>
<!-- Node1&#45;&gt;Node2 -->
<g id="edge1" class="edge">
<title>Node1&#45;&gt;Node2</title>
<path fill="none" stroke="midnightblue" d="M159.27,-29C167.68,-29 176.3,-29 184.89,-29"/>
<polygon fill="midnightblue" stroke="midnightblue" points="184.95,-32.5 194.95,-29 184.95,-25.5 184.95,-32.5"/>
</g>
<!-- Node3 -->
<g id="node3" class="node">
<title>Node3</title>
<g id="a_node3"><a xlink:href="namespacev8_1_1internal.html#a8ff03a136db698ca5c68b7f36a8708bb" target="_top" xlink:title=" ">
<polygon fill="white" stroke="black" points="407,-19.5 407,-38.5 552,-38.5 552,-19.5 407,-19.5"/>
<text text-anchor="middle" x="479.5" y="-26.5" font-family="Helvetica,sans-Serif" font-size="10.00">v8::internal::RegisterArray</text>
</a>
</g>
</g>
<!-- Node2&#45;&gt;Node3 -->
<g id="edge2" class="edge">
<title>Node2&#45;&gt;Node3</title>
<path fill="none" stroke="midnightblue" d="M371.01,-29C379.5,-29 388.09,-29 396.52,-29"/>
<polygon fill="midnightblue" stroke="midnightblue" points="396.71,-32.5 406.71,-29 396.71,-25.5 396.71,-32.5"/>
</g>
<!-- Node4 -->
<g id="node4" class="node">
<title>Node4</title>
<g id="a_node4"><a xlink:href="namespacev8_1_1internal.html#a976c6c26a43011a580e41e6f744290a4" target="_top" xlink:title=" ">
<polygon fill="white" stroke="black" points="588,-38.5 588,-57.5 719,-57.5 719,-38.5 588,-38.5"/>
<text text-anchor="middle" x="653.5" y="-45.5" font-family="Helvetica,sans-Serif" font-size="10.00">v8::internal::AreAliased</text>
</a>
</g>
</g>
<!-- Node3&#45;&gt;Node4 -->
<g id="edge3" class="edge">
<title>Node3&#45;&gt;Node4</title>
<path fill="none" stroke="midnightblue" d="M552.45,-36.95C560.82,-37.87 569.38,-38.82 577.8,-39.75"/>
<polygon fill="midnightblue" stroke="midnightblue" points="577.64,-43.25 587.96,-40.87 578.41,-36.29 577.64,-43.25"/>
</g>
<!-- Node5 -->
<g id="node5" class="node">
<title>Node5</title>
<g id="a_node5"><a xlink:href="namespacev8_1_1internal.html#aa6b3743bd5d773c552654f2a6c3efa4a" target="_top" xlink:title=" ">
<polygon fill="white" stroke="black" points="594,-0.5 594,-19.5 713,-19.5 713,-0.5 594,-0.5"/>
<text text-anchor="middle" x="653.5" y="-7.5" font-family="Helvetica,sans-Serif" font-size="10.00">v8::internal::DCHECK</text>
</a>
</g>
</g>
<!-- Node3&#45;&gt;Node5 -->
<g id="edge4" class="edge">
<title>Node3&#45;&gt;Node5</title>
<path fill="none" stroke="midnightblue" d="M552.45,-21.05C562.8,-19.91 573.44,-18.73 583.73,-17.6"/>
<polygon fill="midnightblue" stroke="midnightblue" points="584.33,-21.05 593.89,-16.47 583.56,-14.09 584.33,-21.05"/>
</g>
</g>
</svg>
