<?xml version="1.0" encoding="UTF-8" standalone="no"?>
<!DOCTYPE svg PUBLIC "-//W3C//DTD SVG 1.1//EN"
 "http://www.w3.org/Graphics/SVG/1.1/DTD/svg11.dtd">
<!-- Generated by graphviz version 2.43.0 (0)
 -->
<!-- Title: v8::internal::V8FileLogger::FunctionEvent Pages: 1 -->
<svg width="811pt" height="253pt"
 viewBox="0.00 0.00 811.00 253.00" xmlns="http://www.w3.org/2000/svg" xmlns:xlink="http://www.w3.org/1999/xlink">
<g id="graph0" class="graph" transform="scale(1 1) rotate(0) translate(4 249)">
<title>v8::internal::V8FileLogger::FunctionEvent</title>
<polygon fill="white" stroke="transparent" points="-4,4 -4,-249 807,-249 807,4 -4,4"/>
<!-- Node1 -->
<g id="node1" class="node">
<title>Node1</title>
<g id="a_node1"><a xlink:title=" ">
<polygon fill="#bfbfbf" stroke="black" points="0,-149.5 0,-179.5 141,-179.5 141,-149.5 0,-149.5"/>
<text text-anchor="start" x="8" y="-167.5" font-family="Helvetica,sans-Serif" font-size="10.00">v8::internal::V8FileLogger</text>
<text text-anchor="middle" x="70.5" y="-156.5" font-family="Helvetica,sans-Serif" font-size="10.00">::FunctionEvent</text>
</a>
</g>
</g>
<!-- Node2 -->
<g id="node2" class="node">
<title>Node2</title>
<g id="a_node2"><a xlink:href="namespacev8_1_1internal_1_1anonymous__namespace_02log_8cc_03.html#a3753635c9b5e3c648539e92e5a4f4188" target="_top" xlink:title=" ">
<polygon fill="white" stroke="black" points="177,-172 177,-213 383,-213 383,-172 177,-172"/>
<text text-anchor="start" x="185" y="-201" font-family="Helvetica,sans-Serif" font-size="10.00">v8::internal::anonymous</text>
<text text-anchor="start" x="185" y="-190" font-family="Helvetica,sans-Serif" font-size="10.00">_namespace{log::cc}::AppendFunction</text>
<text text-anchor="middle" x="280" y="-179" font-family="Helvetica,sans-Serif" font-size="10.00">Message</text>
</a>
</g>
</g>
<!-- Node1&#45;&gt;Node2 -->
<g id="edge1" class="edge">
<title>Node1&#45;&gt;Node2</title>
<path fill="none" stroke="midnightblue" d="M141.17,-173.9C149.38,-175.01 157.91,-176.16 166.52,-177.32"/>
<polygon fill="midnightblue" stroke="midnightblue" points="166.27,-180.82 176.65,-178.69 167.21,-173.88 166.27,-180.82"/>
</g>
<!-- Node3 -->
<g id="node3" class="node">
<title>Node3</title>
<g id="a_node3"><a xlink:href="classv8_1_1internal_1_1V8FileLogger.html#ad2d5cf4ee49a6d1629797f26a5a18764" target="_top" xlink:title=" ">
<polygon fill="white" stroke="black" points="209.5,-122.5 209.5,-152.5 350.5,-152.5 350.5,-122.5 209.5,-122.5"/>
<text text-anchor="start" x="217.5" y="-140.5" font-family="Helvetica,sans-Serif" font-size="10.00">v8::internal::V8FileLogger</text>
<text text-anchor="middle" x="280" y="-129.5" font-family="Helvetica,sans-Serif" font-size="10.00">::Time</text>
</a>
</g>
</g>
<!-- Node1&#45;&gt;Node3 -->
<g id="edge2" class="edge">
<title>Node1&#45;&gt;Node3</title>
<path fill="none" stroke="midnightblue" d="M141.17,-155.43C159.73,-153.02 179.93,-150.39 199,-147.91"/>
<polygon fill="midnightblue" stroke="midnightblue" points="199.69,-151.35 209.16,-146.59 198.79,-144.41 199.69,-151.35"/>
</g>
<!-- Node4 -->
<g id="node4" class="node">
<title>Node4</title>
<g id="a_node4"><a xlink:href="classv8_1_1base_1_1ElapsedTimer.html#a322a9d18bf9a1a89a232fc014639207b" target="_top" xlink:title=" ">
<polygon fill="white" stroke="black" points="448.5,-196.5 448.5,-226.5 579.5,-226.5 579.5,-196.5 448.5,-196.5"/>
<text text-anchor="start" x="456.5" y="-214.5" font-family="Helvetica,sans-Serif" font-size="10.00">v8::base::ElapsedTimer</text>
<text text-anchor="middle" x="514" y="-203.5" font-family="Helvetica,sans-Serif" font-size="10.00">::Elapsed</text>
</a>
</g>
</g>
<!-- Node3&#45;&gt;Node4 -->
<g id="edge3" class="edge">
<title>Node3&#45;&gt;Node4</title>
<path fill="none" stroke="midnightblue" d="M350.74,-150.96C361.76,-154.11 372.86,-157.93 383,-162.5 400.76,-170.51 401.28,-179.41 419,-187.5 425.18,-190.32 431.74,-192.85 438.41,-195.11"/>
<polygon fill="midnightblue" stroke="midnightblue" points="437.64,-198.53 448.24,-198.22 439.76,-191.86 437.64,-198.53"/>
</g>
<!-- Node9 -->
<g id="node6" class="node">
<title>Node9</title>
<g id="a_node6"><a xlink:href="classv8_1_1internal_1_1Isolate.html#ac74a11613906581a9989b1cb7f7b3275" target="_top" xlink:title=" ">
<polygon fill="white" stroke="black" points="458.5,-147.5 458.5,-177.5 569.5,-177.5 569.5,-147.5 458.5,-147.5"/>
<text text-anchor="start" x="466.5" y="-165.5" font-family="Helvetica,sans-Serif" font-size="10.00">v8::internal::Isolate</text>
<text text-anchor="middle" x="514" y="-154.5" font-family="Helvetica,sans-Serif" font-size="10.00">::heap</text>
</a>
</g>
</g>
<!-- Node3&#45;&gt;Node9 -->
<g id="edge6" class="edge">
<title>Node3&#45;&gt;Node9</title>
<path fill="none" stroke="midnightblue" d="M350.61,-145C381.55,-148.33 417.76,-152.24 448.12,-155.51"/>
<polygon fill="midnightblue" stroke="midnightblue" points="447.86,-159 458.18,-156.59 448.61,-152.04 447.86,-159"/>
</g>
<!-- Node10 -->
<g id="node7" class="node">
<title>Node10</title>
<g id="a_node7"><a xlink:href="classv8_1_1base_1_1TimeDelta.html#ad9006b332aa15e66f2ddb8e8ba910892" target="_top" xlink:title=" ">
<polygon fill="white" stroke="black" points="456.5,-98.5 456.5,-128.5 571.5,-128.5 571.5,-98.5 456.5,-98.5"/>
<text text-anchor="start" x="464.5" y="-116.5" font-family="Helvetica,sans-Serif" font-size="10.00">v8::base::TimeDelta</text>
<text text-anchor="middle" x="514" y="-105.5" font-family="Helvetica,sans-Serif" font-size="10.00">::InMicroseconds</text>
</a>
</g>
</g>
<!-- Node3&#45;&gt;Node10 -->
<g id="edge7" class="edge">
<title>Node3&#45;&gt;Node10</title>
<path fill="none" stroke="midnightblue" d="M350.61,-130.3C380.95,-127.16 416.35,-123.5 446.35,-120.39"/>
<polygon fill="midnightblue" stroke="midnightblue" points="446.71,-123.88 456.3,-119.37 445.99,-116.91 446.71,-123.88"/>
</g>
<!-- Node12 -->
<g id="node9" class="node">
<title>Node12</title>
<g id="a_node9"><a xlink:href="classv8_1_1internal_1_1Heap.html#a7b5c699c226448342885e3bc81c5a230" target="_top" xlink:title=" ">
<polygon fill="white" stroke="black" points="419,-49.5 419,-79.5 609,-79.5 609,-49.5 419,-49.5"/>
<text text-anchor="start" x="427" y="-67.5" font-family="Helvetica,sans-Serif" font-size="10.00">v8::internal::Heap</text>
<text text-anchor="middle" x="514" y="-56.5" font-family="Helvetica,sans-Serif" font-size="10.00">::MonotonicallyIncreasingTimeInMs</text>
</a>
</g>
</g>
<!-- Node3&#45;&gt;Node12 -->
<g id="edge9" class="edge">
<title>Node3&#45;&gt;Node12</title>
<path fill="none" stroke="midnightblue" d="M321.8,-122.41C349.13,-112.52 386.02,-99.61 419,-89.5 427.01,-87.05 435.44,-84.61 443.83,-82.26"/>
<polygon fill="midnightblue" stroke="midnightblue" points="444.93,-85.59 453.64,-79.57 443.07,-78.84 444.93,-85.59"/>
</g>
<!-- Node4&#45;&gt;Node4 -->
<g id="edge4" class="edge">
<title>Node4&#45;&gt;Node4</title>
<path fill="none" stroke="midnightblue" d="M477.4,-226.66C468.58,-236.06 480.78,-245 514,-245 534.25,-245 546.68,-241.68 551.31,-236.96"/>
<polygon fill="midnightblue" stroke="midnightblue" points="554.78,-236.39 550.6,-226.66 547.8,-236.88 554.78,-236.39"/>
</g>
<!-- Node5 -->
<g id="node5" class="node">
<title>Node5</title>
<g id="a_node5"><a xlink:href="classv8_1_1base_1_1ElapsedTimer.html#a766f0726c8b8b6846ceb84e49a2830c3" target="_top" xlink:title=" ">
<polygon fill="white" stroke="red" points="645,-202 645,-221 803,-221 803,-202 645,-202"/>
<text text-anchor="middle" x="724" y="-209" font-family="Helvetica,sans-Serif" font-size="10.00">v8::base::ElapsedTimer::Now</text>
</a>
</g>
</g>
<!-- Node4&#45;&gt;Node5 -->
<g id="edge5" class="edge">
<title>Node4&#45;&gt;Node5</title>
<path fill="none" stroke="midnightblue" d="M579.67,-211.5C597.08,-211.5 616.21,-211.5 634.67,-211.5"/>
<polygon fill="midnightblue" stroke="midnightblue" points="634.84,-215 644.84,-211.5 634.84,-208 634.84,-215"/>
</g>
<!-- Node11 -->
<g id="node8" class="node">
<title>Node11</title>
<g id="a_node8"><a xlink:href="classv8_1_1base_1_1TimeDelta.html#ac3181f6214df3e7cd7daee884061af5c" target="_top" xlink:title=" ">
<polygon fill="white" stroke="black" points="666.5,-98.5 666.5,-128.5 781.5,-128.5 781.5,-98.5 666.5,-98.5"/>
<text text-anchor="start" x="674.5" y="-116.5" font-family="Helvetica,sans-Serif" font-size="10.00">v8::base::TimeDelta</text>
<text text-anchor="middle" x="724" y="-105.5" font-family="Helvetica,sans-Serif" font-size="10.00">::IsMax</text>
</a>
</g>
</g>
<!-- Node10&#45;&gt;Node11 -->
<g id="edge8" class="edge">
<title>Node10&#45;&gt;Node11</title>
<path fill="none" stroke="midnightblue" d="M571.56,-113.5C597.7,-113.5 628.92,-113.5 656.2,-113.5"/>
<polygon fill="midnightblue" stroke="midnightblue" points="656.45,-117 666.45,-113.5 656.45,-110 656.45,-117"/>
</g>
<!-- Node13 -->
<g id="node10" class="node">
<title>Node13</title>
<g id="a_node10"><a xlink:href="classv8_1_1internal_1_1V8.html#a5eb1d47c492fa1e85e7d7c31dd5cf2bb" target="_top" xlink:title=" ">
<polygon fill="white" stroke="red" points="649,-49.5 649,-79.5 799,-79.5 799,-49.5 649,-49.5"/>
<text text-anchor="start" x="657" y="-67.5" font-family="Helvetica,sans-Serif" font-size="10.00">v8::internal::V8::GetCurrent</text>
<text text-anchor="middle" x="724" y="-56.5" font-family="Helvetica,sans-Serif" font-size="10.00">Platform</text>
</a>
</g>
</g>
<!-- Node12&#45;&gt;Node13 -->
<g id="edge10" class="edge">
<title>Node12&#45;&gt;Node13</title>
<path fill="none" stroke="midnightblue" d="M609.26,-64.5C618.97,-64.5 628.8,-64.5 638.39,-64.5"/>
<polygon fill="midnightblue" stroke="midnightblue" points="638.7,-68 648.7,-64.5 638.7,-61 638.7,-68"/>
</g>
<!-- Node17 -->
<g id="node11" class="node">
<title>Node17</title>
<g id="a_node11"><a xlink:href="classv8_1_1Platform.html#a6d4d7c2dcf6b0c7113099b97fa7f57b7" target="_top" xlink:title="Monotonically increasing time in seconds from an arbitrary fixed point in the past.">
<polygon fill="white" stroke="black" points="648,-0.5 648,-30.5 800,-30.5 800,-0.5 648,-0.5"/>
<text text-anchor="start" x="656" y="-18.5" font-family="Helvetica,sans-Serif" font-size="10.00">v8::Platform::Monotonically</text>
<text text-anchor="middle" x="724" y="-7.5" font-family="Helvetica,sans-Serif" font-size="10.00">IncreasingTime</text>
</a>
</g>
</g>
<!-- Node12&#45;&gt;Node17 -->
<g id="edge11" class="edge">
<title>Node12&#45;&gt;Node17</title>
<path fill="none" stroke="midnightblue" d="M578.82,-49.47C601.18,-44.2 626.47,-38.24 649.56,-32.8"/>
<polygon fill="midnightblue" stroke="midnightblue" points="650.37,-36.21 659.3,-30.51 648.76,-29.39 650.37,-36.21"/>
</g>
</g>
</svg>
