<?xml version="1.0" encoding="UTF-8" standalone="no"?>
<!DOCTYPE svg PUBLIC "-//W3C//DTD SVG 1.1//EN"
 "http://www.w3.org/Graphics/SVG/1.1/DTD/svg11.dtd">
<!-- Generated by graphviz version 2.43.0 (0)
 -->
<!-- Title: cppgc::internal::LargePage::PayloadStart Pages: 1 -->
<svg width="515pt" height="39pt"
 viewBox="0.00 0.00 515.00 39.00" xmlns="http://www.w3.org/2000/svg" xmlns:xlink="http://www.w3.org/1999/xlink">
<g id="graph0" class="graph" transform="scale(1 1) rotate(0) translate(4 35)">
<title>cppgc::internal::LargePage::PayloadStart</title>
<polygon fill="white" stroke="transparent" points="-4,4 -4,-35 511,-35 511,4 -4,4"/>
<!-- Node1 -->
<g id="node1" class="node">
<title>Node1</title>
<g id="a_node1"><a xlink:title=" ">
<polygon fill="#bfbfbf" stroke="black" points="0,-0.5 0,-30.5 145,-30.5 145,-0.5 0,-0.5"/>
<text text-anchor="start" x="8" y="-18.5" font-family="Helvetica,sans-Serif" font-size="10.00">cppgc::internal::LargePage</text>
<text text-anchor="middle" x="72.5" y="-7.5" font-family="Helvetica,sans-Serif" font-size="10.00">::PayloadStart</text>
</a>
</g>
</g>
<!-- Node2 -->
<g id="node2" class="node">
<title>Node2</title>
<g id="a_node2"><a xlink:href="classcppgc_1_1internal_1_1LargePage.html#a43a9c8c23287e34636d9a45e14c1ef92" target="_top" xlink:title=" ">
<polygon fill="white" stroke="black" points="181,-0.5 181,-30.5 326,-30.5 326,-0.5 181,-0.5"/>
<text text-anchor="start" x="189" y="-18.5" font-family="Helvetica,sans-Serif" font-size="10.00">cppgc::internal::LargePage</text>
<text text-anchor="middle" x="253.5" y="-7.5" font-family="Helvetica,sans-Serif" font-size="10.00">::PayloadStart</text>
</a>
</g>
</g>
<!-- Node1&#45;&gt;Node2 -->
<g id="edge1" class="edge">
<title>Node1&#45;&gt;Node2</title>
<path fill="none" stroke="midnightblue" d="M145.02,-15.5C153.49,-15.5 162.18,-15.5 170.78,-15.5"/>
<polygon fill="midnightblue" stroke="midnightblue" points="170.8,-19 180.8,-15.5 170.8,-12 170.8,-19"/>
</g>
<!-- Node3 -->
<g id="node3" class="node">
<title>Node3</title>
<g id="a_node3"><a xlink:href="classcppgc_1_1internal_1_1LargePage.html#ad4e7964c95479382d45d249c5c6c3e84" target="_top" xlink:title=" ">
<polygon fill="white" stroke="black" points="362,-0.5 362,-30.5 507,-30.5 507,-0.5 362,-0.5"/>
<text text-anchor="start" x="370" y="-18.5" font-family="Helvetica,sans-Serif" font-size="10.00">cppgc::internal::LargePage</text>
<text text-anchor="middle" x="434.5" y="-7.5" font-family="Helvetica,sans-Serif" font-size="10.00">::PageHeaderSize</text>
</a>
</g>
</g>
<!-- Node2&#45;&gt;Node3 -->
<g id="edge2" class="edge">
<title>Node2&#45;&gt;Node3</title>
<path fill="none" stroke="midnightblue" d="M326.02,-15.5C334.49,-15.5 343.18,-15.5 351.78,-15.5"/>
<polygon fill="midnightblue" stroke="midnightblue" points="351.8,-19 361.8,-15.5 351.8,-12 351.8,-19"/>
</g>
</g>
</svg>
