<?xml version="1.0" encoding="UTF-8" standalone="no"?>
<!DOCTYPE svg PUBLIC "-//W3C//DTD SVG 1.1//EN"
 "http://www.w3.org/Graphics/SVG/1.1/DTD/svg11.dtd">
<!-- Generated by graphviz version 2.43.0 (0)
 -->
<!-- Title: v8::internal::CPURegister::no_reg Pages: 1 -->
<!--zoomable 258 -->
<svg id="main" version="1.1" xmlns="http://www.w3.org/2000/svg" xmlns:xlink="http://www.w3.org/1999/xlink" xml:space="preserve" onload="init(evt)">
<style type="text/css"><![CDATA[
.edge:hover path { stroke: red; }
.edge:hover polygon { stroke: red; fill: red; }
]]></style>
<script type="text/javascript"><![CDATA[
var edges = document.getElementsByTagName('g');
if (edges && edges.length) {
  for (var i=0;i<edges.length;i++) {
    if (edges[i].id.substr(0,4)=='edge') {
      edges[i].setAttribute('class','edge');
    }
  }
}
]]></script>
        <defs>
                <circle id="rim" cx="0" cy="0" r="7"/>
                <circle id="rim2" cx="0" cy="0" r="3.5"/>
                <g id="zoomPlus">
                        <use xlink:href="#rim" fill="#404040">
                                <set attributeName="fill" to="#808080" begin="zoomplus.mouseover" end="zoomplus.mouseout"/>
                        </use>
                        <path d="M-4,0h8M0,-4v8" fill="none" stroke="white" stroke-width="1.5" pointer-events="none"/>
                </g>
                <g id="zoomMin">
                        <use xlink:href="#rim" fill="#404040">
                                <set attributeName="fill" to="#808080" begin="zoomminus.mouseover" end="zoomminus.mouseout"/>
                        </use>
                        <path d="M-4,0h8" fill="none" stroke="white" stroke-width="1.5" pointer-events="none"/>
                </g>
                <g id="dirArrow">
                        <path fill="none" stroke="white" stroke-width="1.5" d="M0,-3.0v7 M-2.5,-0.5L0,-3.0L2.5,-0.5"/>
                </g>
               <g id="resetDef">
                       <use xlink:href="#rim2" fill="#404040">
                               <set attributeName="fill" to="#808080" begin="reset.mouseover" end="reset.mouseout"/>
                       </use>
               </g>
        </defs>

<script type="text/javascript">
var viewWidth = 748;
var viewHeight = 258;
var sectionId = 'dynsection-47';
</script>
<script xlink:href="svgpan.js"/>
<svg id="graph" class="graph">
<g id="viewport">
<title>v8::internal::CPURegister::no_reg</title>
<polygon fill="white" stroke="transparent" points="-4,4 -4,-254 744,-254 744,4 -4,4"/>
<!-- Node1 -->
<g id="node1" class="node">
<title>Node1</title>
<g id="a_node1"><a xlink:title=" ">
<polygon fill="#bfbfbf" stroke="black" points="601,-80 601,-110 740,-110 740,-80 601,-80"/>
<text text-anchor="start" x="609" y="-98" font-family="Helvetica,sans-Serif" font-size="10.00">v8::internal::CPURegister</text>
<text text-anchor="middle" x="670.5" y="-87" font-family="Helvetica,sans-Serif" font-size="10.00">::no_reg</text>
</a>
</g>
</g>
<!-- Node2 -->
<g id="node2" class="node">
<title>Node2</title>
<g id="a_node2"><a xlink:href="classv8_1_1internal_1_1Register.html#af72f1656ce6c0186ea16328bbc55ae9c" target="_top" xlink:title=" ">
<polygon fill="white" stroke="black" points="443,-105 443,-135 562,-135 562,-105 443,-105"/>
<text text-anchor="start" x="451" y="-123" font-family="Helvetica,sans-Serif" font-size="10.00">v8::internal::Register</text>
<text text-anchor="middle" x="502.5" y="-112" font-family="Helvetica,sans-Serif" font-size="10.00">::no_reg</text>
</a>
</g>
</g>
<!-- Node1&#45;&gt;Node2 -->
<g id="edge1" class="edge">
<title>Node1&#45;&gt;Node2</title>
<path fill="none" stroke="midnightblue" d="M590.62,-106.88C581.06,-108.32 571.42,-109.77 562.21,-111.16"/>
<polygon fill="midnightblue" stroke="midnightblue" points="591.18,-110.34 600.54,-105.39 590.13,-103.41 591.18,-110.34"/>
</g>
<!-- Node11 -->
<g id="node10" class="node">
<title>Node11</title>
<g id="a_node10"><a xlink:href="classv8_1_1internal_1_1VRegister.html#a3c938151335ff7180191f1b8be8e6647" target="_top" xlink:title=" ">
<polygon fill="white" stroke="black" points="440,-56 440,-86 565,-86 565,-56 440,-56"/>
<text text-anchor="start" x="448" y="-74" font-family="Helvetica,sans-Serif" font-size="10.00">v8::internal::VRegister</text>
<text text-anchor="middle" x="502.5" y="-63" font-family="Helvetica,sans-Serif" font-size="10.00">::no_reg</text>
</a>
</g>
</g>
<!-- Node1&#45;&gt;Node11 -->
<g id="edge9" class="edge">
<title>Node1&#45;&gt;Node11</title>
<path fill="none" stroke="midnightblue" d="M590.55,-83.59C582,-82.35 573.39,-81.1 565.09,-79.9"/>
<polygon fill="midnightblue" stroke="midnightblue" points="590.15,-87.06 600.54,-85.03 591.15,-80.14 590.15,-87.06"/>
</g>
<!-- Node3 -->
<g id="node3" class="node">
<title>Node3</title>
<g id="a_node3"><a xlink:href="classv8_1_1internal_1_1maglev_1_1StraightForwardRegisterAllocator.html#ad0f2acc22289eabf8f64b42fff7b2fdc" target="_top" xlink:title=" ">
<polygon fill="white" stroke="black" points="220,-208.5 220,-249.5 404,-249.5 404,-208.5 220,-208.5"/>
<text text-anchor="start" x="228" y="-237.5" font-family="Helvetica,sans-Serif" font-size="10.00">v8::internal::maglev</text>
<text text-anchor="start" x="228" y="-226.5" font-family="Helvetica,sans-Serif" font-size="10.00">::StraightForwardRegisterAllocator</text>
<text text-anchor="middle" x="312" y="-215.5" font-family="Helvetica,sans-Serif" font-size="10.00">::AllocateNode</text>
</a>
</g>
</g>
<!-- Node2&#45;&gt;Node3 -->
<g id="edge2" class="edge">
<title>Node2&#45;&gt;Node3</title>
<path fill="none" stroke="midnightblue" d="M479.15,-142.11C460.42,-159.6 432.28,-183.56 404,-199 397.72,-202.43 390.98,-205.55 384.12,-208.37"/>
<polygon fill="midnightblue" stroke="midnightblue" points="481.73,-144.48 486.57,-135.06 476.91,-139.41 481.73,-144.48"/>
</g>
<!-- Node6 -->
<g id="node5" class="node">
<title>Node6</title>
<g id="a_node5"><a xlink:href="classv8_1_1internal_1_1maglev_1_1MaglevAssembler.html#a35c609485398aa4afa2117adc483e167" target="_top" xlink:title=" ">
<polygon fill="white" stroke="black" points="226.5,-148.5 226.5,-189.5 397.5,-189.5 397.5,-148.5 226.5,-148.5"/>
<text text-anchor="start" x="234.5" y="-177.5" font-family="Helvetica,sans-Serif" font-size="10.00">v8::internal::maglev</text>
<text text-anchor="start" x="234.5" y="-166.5" font-family="Helvetica,sans-Serif" font-size="10.00">::MaglevAssembler::CheckInt32</text>
<text text-anchor="middle" x="312" y="-155.5" font-family="Helvetica,sans-Serif" font-size="10.00">IsSmi</text>
</a>
</g>
</g>
<!-- Node2&#45;&gt;Node6 -->
<g id="edge4" class="edge">
<title>Node2&#45;&gt;Node6</title>
<path fill="none" stroke="midnightblue" d="M433.91,-137.57C420.29,-141.11 405.86,-144.86 391.9,-148.49"/>
<polygon fill="midnightblue" stroke="midnightblue" points="434.86,-140.94 443.66,-135.03 433.1,-134.16 434.86,-140.94"/>
</g>
<!-- Node7 -->
<g id="node6" class="node">
<title>Node7</title>
<g id="a_node6"><a xlink:href="namespacev8_1_1internal.html#abda4a55a899184dca5308bde33e5283c" target="_top" xlink:title=" ">
<polygon fill="white" stroke="black" points="230.5,-110.5 230.5,-129.5 393.5,-129.5 393.5,-110.5 230.5,-110.5"/>
<text text-anchor="middle" x="312" y="-117.5" font-family="Helvetica,sans-Serif" font-size="10.00">v8::internal::ReassignRegister</text>
</a>
</g>
</g>
<!-- Node2&#45;&gt;Node7 -->
<g id="edge5" class="edge">
<title>Node2&#45;&gt;Node7</title>
<path fill="none" stroke="midnightblue" d="M432.86,-120C420.15,-120 406.76,-120 393.73,-120"/>
<polygon fill="midnightblue" stroke="midnightblue" points="432.89,-123.5 442.89,-120 432.89,-116.5 432.89,-123.5"/>
</g>
<!-- Node9 -->
<g id="node8" class="node">
<title>Node9</title>
<g id="a_node8"><a xlink:href="classv8_1_1internal_1_1baseline_1_1BaselineAssembler.html#a806976cbd24cbd317718ca4acb828cb3" target="_top" xlink:title=" ">
<polygon fill="white" stroke="black" points="234.5,-61 234.5,-91 389.5,-91 389.5,-61 234.5,-61"/>
<text text-anchor="start" x="242.5" y="-79" font-family="Helvetica,sans-Serif" font-size="10.00">v8::internal::baseline</text>
<text text-anchor="middle" x="312" y="-68" font-family="Helvetica,sans-Serif" font-size="10.00">::BaselineAssembler::Switch</text>
</a>
</g>
</g>
<!-- Node2&#45;&gt;Node9 -->
<g id="edge7" class="edge">
<title>Node2&#45;&gt;Node9</title>
<path fill="none" stroke="midnightblue" d="M432.98,-104.01C414.87,-99.78 395.37,-95.23 377.48,-91.05"/>
<polygon fill="midnightblue" stroke="midnightblue" points="432.36,-107.45 442.89,-106.32 433.95,-100.64 432.36,-107.45"/>
</g>
<!-- Node10 -->
<g id="node9" class="node">
<title>Node10</title>
<g id="a_node9"><a xlink:href="classv8_1_1internal_1_1maglev_1_1MaglevAssembler.html#ad6d220bc7d447ed5bc382ce19309df85" target="_top" xlink:title=" ">
<polygon fill="white" stroke="black" points="228,-0.5 228,-41.5 396,-41.5 396,-0.5 228,-0.5"/>
<text text-anchor="start" x="236" y="-29.5" font-family="Helvetica,sans-Serif" font-size="10.00">v8::internal::maglev</text>
<text text-anchor="start" x="236" y="-18.5" font-family="Helvetica,sans-Serif" font-size="10.00">::MaglevAssembler::TryMigrate</text>
<text text-anchor="middle" x="312" y="-7.5" font-family="Helvetica,sans-Serif" font-size="10.00">Instance</text>
</a>
</g>
</g>
<!-- Node2&#45;&gt;Node10 -->
<g id="edge8" class="edge">
<title>Node2&#45;&gt;Node10</title>
<path fill="none" stroke="midnightblue" d="M447.81,-100.15C445.09,-98.54 442.47,-96.82 440,-95 419.67,-80 424.83,-65.3 404,-51 398.93,-47.52 393.42,-44.41 387.71,-41.65"/>
<polygon fill="midnightblue" stroke="midnightblue" points="446.26,-103.29 456.73,-104.93 449.57,-97.12 446.26,-103.29"/>
</g>
<!-- Node4 -->
<g id="node4" class="node">
<title>Node4</title>
<g id="a_node4"><a xlink:href="classv8_1_1internal_1_1maglev_1_1StraightForwardRegisterAllocator.html#ac480121182714ec62e9e0219c1fb4aa1" target="_top" xlink:title=" ">
<polygon fill="white" stroke="red" points="0,-208.5 0,-249.5 184,-249.5 184,-208.5 0,-208.5"/>
<text text-anchor="start" x="8" y="-237.5" font-family="Helvetica,sans-Serif" font-size="10.00">v8::internal::maglev</text>
<text text-anchor="start" x="8" y="-226.5" font-family="Helvetica,sans-Serif" font-size="10.00">::StraightForwardRegisterAllocator</text>
<text text-anchor="middle" x="92" y="-215.5" font-family="Helvetica,sans-Serif" font-size="10.00">::AllocateRegisters</text>
</a>
</g>
</g>
<!-- Node3&#45;&gt;Node4 -->
<g id="edge3" class="edge">
<title>Node3&#45;&gt;Node4</title>
<path fill="none" stroke="midnightblue" d="M209.53,-229C201.07,-229 192.55,-229 184.17,-229"/>
<polygon fill="midnightblue" stroke="midnightblue" points="209.81,-232.5 219.81,-229 209.81,-225.5 209.81,-232.5"/>
</g>
<!-- Node8 -->
<g id="node7" class="node">
<title>Node8</title>
<g id="a_node7"><a xlink:href="classv8_1_1internal_1_1Builtins.html#a98efc265ec48dad34bf19337d265e2df" target="_top" xlink:title=" ">
<polygon fill="white" stroke="black" points="6.5,-105 6.5,-135 177.5,-135 177.5,-105 6.5,-105"/>
<text text-anchor="start" x="14.5" y="-123" font-family="Helvetica,sans-Serif" font-size="10.00">v8::internal::Builtins</text>
<text text-anchor="middle" x="92" y="-112" font-family="Helvetica,sans-Serif" font-size="10.00">::Generate_CallApiCallbackImpl</text>
</a>
</g>
</g>
<!-- Node7&#45;&gt;Node8 -->
<g id="edge6" class="edge">
<title>Node7&#45;&gt;Node8</title>
<path fill="none" stroke="midnightblue" d="M220.25,-120C206.13,-120 191.59,-120 177.61,-120"/>
<polygon fill="midnightblue" stroke="midnightblue" points="220.44,-123.5 230.44,-120 220.44,-116.5 220.44,-123.5"/>
</g>
</g>
</svg>
        <g id="navigator" transform="translate(0 0)" fill="#404254">
                <rect fill="#f2f5e9" fill-opacity="0.5" stroke="#606060" stroke-width=".5" x="0" y="0" width="60" height="60"/>
                <use id="zoomplus" xlink:href="#zoomPlus" x="17" y="9" onmousedown="handleZoom(evt,'in')"/>
                <use id="zoomminus" xlink:href="#zoomMin" x="42" y="9" onmousedown="handleZoom(evt,'out')"/>
                <use id="reset" xlink:href="#resetDef" x="30" y="36" onmousedown="handleReset()"/>
                <g id="arrowUp" xlink:href="#dirArrow" transform="translate(30 24)" onmousedown="handlePan(0,-1)">
                  <use xlink:href="#rim" fill="#404040">
                        <set attributeName="fill" to="#808080" begin="arrowUp.mouseover" end="arrowUp.mouseout"/>
                  </use>
                  <path fill="none" stroke="white" stroke-width="1.5" d="M0,-3.0v7 M-2.5,-0.5L0,-3.0L2.5,-0.5"/>
                </g>
                <g id="arrowRight" xlink:href="#dirArrow" transform="rotate(90) translate(36 -43)" onmousedown="handlePan(1,0)">
                  <use xlink:href="#rim" fill="#404040">
                        <set attributeName="fill" to="#808080" begin="arrowRight.mouseover" end="arrowRight.mouseout"/>
                  </use>
                  <path fill="none" stroke="white" stroke-width="1.5" d="M0,-3.0v7 M-2.5,-0.5L0,-3.0L2.5,-0.5"/>
                </g>
                <g id="arrowDown" xlink:href="#dirArrow" transform="rotate(180) translate(-30 -48)" onmousedown="handlePan(0,1)">
                  <use xlink:href="#rim" fill="#404040">
                        <set attributeName="fill" to="#808080" begin="arrowDown.mouseover" end="arrowDown.mouseout"/>
                  </use>
                  <path fill="none" stroke="white" stroke-width="1.5" d="M0,-3.0v7 M-2.5,-0.5L0,-3.0L2.5,-0.5"/>
                </g>
                <g id="arrowLeft" xlink:href="#dirArrow" transform="rotate(270) translate(-36 17)" onmousedown="handlePan(-1,0)">
                  <use xlink:href="#rim" fill="#404040">
                        <set attributeName="fill" to="#808080" begin="arrowLeft.mouseover" end="arrowLeft.mouseout"/>
                  </use>
                  <path fill="none" stroke="white" stroke-width="1.5" d="M0,-3.0v7 M-2.5,-0.5L0,-3.0L2.5,-0.5"/>
                </g>
        </g>
        <svg viewBox="0 0 15 15" width="100%" height="30px" preserveAspectRatio="xMaxYMin meet">
         <g id="arrow_out" transform="scale(0.3 0.3)">
          <a xlink:href="classv8_1_1internal_1_1CPURegister_abdbcafcd8efc094796f2759098924231_icgraph_org.svg" target="_base">
           <rect id="button" ry="5" rx="5" y="6" x="6" height="38" width="38"
                fill="#f2f5e9" fill-opacity="0.5" stroke="#606060" stroke-width="1.0"/>
           <path id="arrow"
             d="M 11.500037,31.436501 C 11.940474,20.09759 22.043105,11.32322 32.158766,21.979434 L 37.068811,17.246167 C 37.068811,17.246167 37.088388,32 37.088388,32 L 22.160133,31.978069 C 22.160133,31.978069 26.997745,27.140456 26.997745,27.140456 C 18.528582,18.264221 13.291696,25.230495 11.500037,31.436501 z"
             style="fill:#404040;"/>
          </a>
         </g>
        </svg>
</svg>
