<?xml version="1.0" encoding="UTF-8" standalone="no"?>
<!DOCTYPE svg PUBLIC "-//W3C//DTD SVG 1.1//EN"
 "http://www.w3.org/Graphics/SVG/1.1/DTD/svg11.dtd">
<!-- Generated by graphviz version 2.43.0 (0)
 -->
<!-- Title: v8::internal::maglev::MaglevGraphBuilder::TryGetFloat64Constant Pages: 1 -->
<svg width="557pt" height="223pt"
 viewBox="0.00 0.00 557.00 222.50" xmlns="http://www.w3.org/2000/svg" xmlns:xlink="http://www.w3.org/1999/xlink">
<g id="graph0" class="graph" transform="scale(1 1) rotate(0) translate(4 218.5)">
<title>v8::internal::maglev::MaglevGraphBuilder::TryGetFloat64Constant</title>
<polygon fill="white" stroke="transparent" points="-4,4 -4,-218.5 553,-218.5 553,4 -4,4"/>
<!-- Node1 -->
<g id="node1" class="node">
<title>Node1</title>
<g id="a_node1"><a xlink:title=" ">
<polygon fill="#bfbfbf" stroke="black" points="415,-77 415,-118 549,-118 549,-77 415,-77"/>
<text text-anchor="start" x="423" y="-106" font-family="Helvetica,sans-Serif" font-size="10.00">v8::internal::maglev</text>
<text text-anchor="start" x="423" y="-95" font-family="Helvetica,sans-Serif" font-size="10.00">::MaglevGraphBuilder</text>
<text text-anchor="middle" x="482" y="-84" font-family="Helvetica,sans-Serif" font-size="10.00">::TryGetFloat64Constant</text>
</a>
</g>
</g>
<!-- Node2 -->
<g id="node2" class="node">
<title>Node2</title>
<g id="a_node2"><a xlink:href="classv8_1_1internal_1_1maglev_1_1MaglevGraphBuilder.html#a678c655799b2f0425966c5825e480f33" target="_top" xlink:title=" ">
<polygon fill="white" stroke="black" points="222,-143 222,-184 363,-184 363,-143 222,-143"/>
<text text-anchor="start" x="230" y="-172" font-family="Helvetica,sans-Serif" font-size="10.00">v8::internal::maglev</text>
<text text-anchor="start" x="230" y="-161" font-family="Helvetica,sans-Serif" font-size="10.00">::MaglevGraphBuilder</text>
<text text-anchor="middle" x="292.5" y="-150" font-family="Helvetica,sans-Serif" font-size="10.00">::GetFloat64ForToNumber</text>
</a>
</g>
</g>
<!-- Node1&#45;&gt;Node2 -->
<g id="edge1" class="edge">
<title>Node1&#45;&gt;Node2</title>
<path fill="none" stroke="midnightblue" d="M413,-121.43C392.94,-128.5 371.16,-136.16 351.76,-142.99"/>
<polygon fill="midnightblue" stroke="midnightblue" points="414.43,-124.64 422.7,-118.02 412.11,-118.04 414.43,-124.64"/>
</g>
<!-- Node6 -->
<g id="node6" class="node">
<title>Node6</title>
<g id="a_node6"><a xlink:href="classv8_1_1internal_1_1maglev_1_1MaglevGraphBuilder.html#abcdc3eb9b7f014da93c0f49b1a9db714" target="_top" xlink:title=" ">
<polygon fill="white" stroke="black" points="206,-71.5 206,-123.5 379,-123.5 379,-71.5 206,-71.5"/>
<text text-anchor="start" x="214" y="-111.5" font-family="Helvetica,sans-Serif" font-size="10.00">v8::internal::maglev</text>
<text text-anchor="start" x="214" y="-100.5" font-family="Helvetica,sans-Serif" font-size="10.00">::MaglevGraphBuilder</text>
<text text-anchor="start" x="214" y="-89.5" font-family="Helvetica,sans-Serif" font-size="10.00">::TryFoldFloat64BinaryOperation</text>
<text text-anchor="middle" x="292.5" y="-78.5" font-family="Helvetica,sans-Serif" font-size="10.00">ForToNumber</text>
</a>
</g>
</g>
<!-- Node1&#45;&gt;Node6 -->
<g id="edge6" class="edge">
<title>Node1&#45;&gt;Node6</title>
<path fill="none" stroke="midnightblue" d="M404.7,-97.5C396.25,-97.5 387.6,-97.5 379.04,-97.5"/>
<polygon fill="midnightblue" stroke="midnightblue" points="404.89,-101 414.89,-97.5 404.89,-94 404.89,-101"/>
</g>
<!-- Node7 -->
<g id="node7" class="node">
<title>Node7</title>
<g id="a_node7"><a xlink:href="classv8_1_1internal_1_1maglev_1_1MaglevGraphBuilder.html#aae6dd460d12a9f593f85027c54fa1346" target="_top" xlink:title=" ">
<polygon fill="white" stroke="black" points="207,-0.5 207,-52.5 378,-52.5 378,-0.5 207,-0.5"/>
<text text-anchor="start" x="215" y="-40.5" font-family="Helvetica,sans-Serif" font-size="10.00">v8::internal::maglev</text>
<text text-anchor="start" x="215" y="-29.5" font-family="Helvetica,sans-Serif" font-size="10.00">::MaglevGraphBuilder</text>
<text text-anchor="start" x="215" y="-18.5" font-family="Helvetica,sans-Serif" font-size="10.00">::TryFoldFloat64UnaryOperation</text>
<text text-anchor="middle" x="292.5" y="-7.5" font-family="Helvetica,sans-Serif" font-size="10.00">ForToNumber</text>
</a>
</g>
</g>
<!-- Node1&#45;&gt;Node7 -->
<g id="edge7" class="edge">
<title>Node1&#45;&gt;Node7</title>
<path fill="none" stroke="midnightblue" d="M417.14,-73.32C399.48,-66.63 380.24,-59.35 362.32,-52.56"/>
<polygon fill="midnightblue" stroke="midnightblue" points="416.18,-76.7 426.77,-76.96 418.65,-70.15 416.18,-76.7"/>
</g>
<!-- Node3 -->
<g id="node3" class="node">
<title>Node3</title>
<g id="a_node3"><a xlink:href="classv8_1_1internal_1_1maglev_1_1MaglevGraphBuilder.html#a513f25076174de5a1d85246520df2e2f" target="_top" xlink:title=" ">
<polygon fill="white" stroke="black" points="24,-173 24,-214 146,-214 146,-173 24,-173"/>
<text text-anchor="start" x="32" y="-202" font-family="Helvetica,sans-Serif" font-size="10.00">v8::internal::maglev</text>
<text text-anchor="start" x="32" y="-191" font-family="Helvetica,sans-Serif" font-size="10.00">::MaglevGraphBuilder</text>
<text text-anchor="middle" x="85" y="-180" font-family="Helvetica,sans-Serif" font-size="10.00">::GetFloat64</text>
</a>
</g>
</g>
<!-- Node2&#45;&gt;Node3 -->
<g id="edge2" class="edge">
<title>Node2&#45;&gt;Node3</title>
<path fill="none" stroke="midnightblue" d="M212,-168.51C190.14,-171.4 166.8,-174.94 146.22,-178.5"/>
<polygon fill="midnightblue" stroke="midnightblue" points="212.46,-171.98 221.93,-167.23 211.56,-165.04 212.46,-171.98"/>
</g>
<!-- Node4 -->
<g id="node4" class="node">
<title>Node4</title>
<g id="a_node4"><a xlink:href="classv8_1_1internal_1_1maglev_1_1MaglevGraphBuilder.html#add8a39a3c81846d2aa21773acceb2d42" target="_top" xlink:title=" ">
<polygon fill="white" stroke="black" points="0,-113 0,-154 170,-154 170,-113 0,-113"/>
<text text-anchor="start" x="8" y="-142" font-family="Helvetica,sans-Serif" font-size="10.00">v8::internal::maglev</text>
<text text-anchor="start" x="8" y="-131" font-family="Helvetica,sans-Serif" font-size="10.00">::MaglevGraphBuilder</text>
<text text-anchor="middle" x="85" y="-120" font-family="Helvetica,sans-Serif" font-size="10.00">::GetHoleyFloat64ForToNumber</text>
</a>
</g>
</g>
<!-- Node2&#45;&gt;Node4 -->
<g id="edge4" class="edge">
<title>Node2&#45;&gt;Node4</title>
<path fill="none" stroke="midnightblue" d="M211.64,-151.84C198.01,-149.85 183.82,-147.78 170.09,-145.78"/>
<polygon fill="midnightblue" stroke="midnightblue" points="211.53,-155.36 221.93,-153.34 212.54,-148.44 211.53,-155.36"/>
</g>
<!-- Node5 -->
<g id="node5" class="node">
<title>Node5</title>
<g id="a_node5"><a xlink:href="classv8_1_1internal_1_1maglev_1_1MaglevGraphBuilder.html#abf39422f5fce704f52c884613fd7b501" target="_top" xlink:title=" ">
<polygon fill="white" stroke="black" points="16.5,-53 16.5,-94 153.5,-94 153.5,-53 16.5,-53"/>
<text text-anchor="start" x="24.5" y="-82" font-family="Helvetica,sans-Serif" font-size="10.00">v8::internal::maglev</text>
<text text-anchor="start" x="24.5" y="-71" font-family="Helvetica,sans-Serif" font-size="10.00">::MaglevGraphBuilder</text>
<text text-anchor="middle" x="85" y="-60" font-family="Helvetica,sans-Serif" font-size="10.00">::VisitCompareOperation</text>
</a>
</g>
</g>
<!-- Node2&#45;&gt;Node5 -->
<g id="edge5" class="edge">
<title>Node2&#45;&gt;Node5</title>
<path fill="none" stroke="midnightblue" d="M218.16,-138.76C213.98,-136.78 209.9,-134.7 206,-132.5 188.1,-122.42 187.93,-113.54 170,-103.5 163.92,-100.09 157.38,-96.96 150.74,-94.1"/>
<polygon fill="midnightblue" stroke="midnightblue" points="216.86,-142.02 227.42,-142.92 219.73,-135.63 216.86,-142.02"/>
</g>
<!-- Node3&#45;&gt;Node2 -->
<g id="edge3" class="edge">
<title>Node3&#45;&gt;Node2</title>
<path fill="none" stroke="midnightblue" d="M156.44,-189.66C177.61,-186.98 200.81,-183.59 221.93,-180.08"/>
<polygon fill="midnightblue" stroke="midnightblue" points="155.72,-186.22 146.22,-190.92 156.58,-193.17 155.72,-186.22"/>
</g>
</g>
</svg>
