<?xml version="1.0" encoding="UTF-8" standalone="no"?>
<!DOCTYPE svg PUBLIC "-//W3C//DTD SVG 1.1//EN"
 "http://www.w3.org/Graphics/SVG/1.1/DTD/svg11.dtd">
<!-- Generated by graphviz version 2.43.0 (0)
 -->
<!-- Title: v8::internal::CallPrinter::PrintLiteral Pages: 1 -->
<svg width="1019pt" height="608pt"
 viewBox="0.00 0.00 1019.00 608.00" xmlns="http://www.w3.org/2000/svg" xmlns:xlink="http://www.w3.org/1999/xlink">
<g id="graph0" class="graph" transform="scale(1 1) rotate(0) translate(4 604)">
<title>v8::internal::CallPrinter::PrintLiteral</title>
<polygon fill="white" stroke="transparent" points="-4,4 -4,-604 1015,-604 1015,4 -4,4"/>
<!-- Node1 -->
<g id="node1" class="node">
<title>Node1</title>
<g id="a_node1"><a xlink:title=" ">
<polygon fill="#bfbfbf" stroke="black" points="0,-353.5 0,-383.5 129,-383.5 129,-353.5 0,-353.5"/>
<text text-anchor="start" x="8" y="-371.5" font-family="Helvetica,sans-Serif" font-size="10.00">v8::internal::CallPrinter</text>
<text text-anchor="middle" x="64.5" y="-360.5" font-family="Helvetica,sans-Serif" font-size="10.00">::PrintLiteral</text>
</a>
</g>
</g>
<!-- Node2 -->
<g id="node2" class="node">
<title>Node2</title>
<g id="a_node2"><a xlink:href="namespacev8_1_1internal.html#a73502f55102d18cb764881bc29f35c05" target="_top" xlink:title=" ">
<polygon fill="white" stroke="black" points="180.5,-569.5 180.5,-599.5 286.5,-599.5 286.5,-569.5 180.5,-569.5"/>
<text text-anchor="start" x="188.5" y="-587.5" font-family="Helvetica,sans-Serif" font-size="10.00">v8::internal::direct</text>
<text text-anchor="middle" x="233.5" y="-576.5" font-family="Helvetica,sans-Serif" font-size="10.00">_handle</text>
</a>
</g>
</g>
<!-- Node1&#45;&gt;Node2 -->
<g id="edge1" class="edge">
<title>Node1&#45;&gt;Node2</title>
<path fill="none" stroke="midnightblue" d="M69.84,-383.63C80.49,-418.3 111.09,-504.38 165,-554.5 168.99,-558.21 173.52,-561.52 178.29,-564.45"/>
<polygon fill="midnightblue" stroke="midnightblue" points="176.65,-567.54 187.09,-569.33 180.05,-561.42 176.65,-567.54"/>
</g>
<!-- Node3 -->
<g id="node3" class="node">
<title>Node3</title>
<g id="a_node3"><a xlink:href="classv8_1_1internal_1_1Isolate.html#a7e2962359009581ba84e6a361f574f61" target="_top" xlink:title=" ">
<polygon fill="white" stroke="black" points="900,-372.5 900,-402.5 1011,-402.5 1011,-372.5 900,-372.5"/>
<text text-anchor="start" x="908" y="-390.5" font-family="Helvetica,sans-Serif" font-size="10.00">v8::internal::Isolate</text>
<text text-anchor="middle" x="955.5" y="-379.5" font-family="Helvetica,sans-Serif" font-size="10.00">::factory</text>
</a>
</g>
</g>
<!-- Node1&#45;&gt;Node3 -->
<g id="edge2" class="edge">
<title>Node1&#45;&gt;Node3</title>
<path fill="none" stroke="midnightblue" d="M77.02,-383.55C94.04,-404.78 127.91,-443.39 165,-465.5 261.18,-522.82 293.53,-540.5 405.5,-540.5 405.5,-540.5 405.5,-540.5 597.5,-540.5 717.14,-540.5 760.34,-562.24 864,-502.5 900.66,-481.37 927.92,-439.06 942.5,-412.07"/>
<polygon fill="midnightblue" stroke="midnightblue" points="945.77,-413.37 947.29,-402.89 939.56,-410.14 945.77,-413.37"/>
</g>
<!-- Node4 -->
<g id="node4" class="node">
<title>Node4</title>
<g id="a_node4"><a xlink:href="namespacev8_1_1internal.html#aea9d736830d86242c4e1cb59a371d3a6" target="_top" xlink:title=" ">
<polygon fill="white" stroke="black" points="180.5,-437 180.5,-456 286.5,-456 286.5,-437 180.5,-437"/>
<text text-anchor="middle" x="233.5" y="-444" font-family="Helvetica,sans-Serif" font-size="10.00">v8::internal::IsNull</text>
</a>
</g>
</g>
<!-- Node1&#45;&gt;Node4 -->
<g id="edge3" class="edge">
<title>Node1&#45;&gt;Node4</title>
<path fill="none" stroke="midnightblue" d="M97.7,-383.54C128.01,-397.7 173.06,-418.74 202.6,-432.53"/>
<polygon fill="midnightblue" stroke="midnightblue" points="201.44,-435.86 211.98,-436.92 204.4,-429.51 201.44,-435.86"/>
</g>
<!-- Node6 -->
<g id="node6" class="node">
<title>Node6</title>
<g id="a_node6"><a xlink:href="namespacev8_1_1internal.html#a33a2826557a82e4cd9775aadf0f5711e" target="_top" xlink:title=" ">
<polygon fill="white" stroke="black" points="344,-82 344,-101 469,-101 469,-82 344,-82"/>
<text text-anchor="middle" x="406.5" y="-89" font-family="Helvetica,sans-Serif" font-size="10.00">v8::internal::IsNumber</text>
</a>
</g>
</g>
<!-- Node1&#45;&gt;Node6 -->
<g id="edge5" class="edge">
<title>Node1&#45;&gt;Node6</title>
<path fill="none" stroke="midnightblue" d="M77.06,-353.47C94.66,-331.13 129.85,-288.46 165,-257.5 237.31,-193.82 334.69,-133.26 380.15,-106.24"/>
<polygon fill="midnightblue" stroke="midnightblue" points="381.95,-109.25 388.78,-101.15 378.39,-103.22 381.95,-109.25"/>
</g>
<!-- Node10 -->
<g id="node10" class="node">
<title>Node10</title>
<g id="a_node10"><a xlink:href="classv8_1_1internal_1_1FactoryBase.html#a08c674e64ab4a7614e29c48e1f023dfe" target="_top" xlink:title=" ">
<polygon fill="white" stroke="black" points="165,-57.5 165,-87.5 302,-87.5 302,-57.5 165,-57.5"/>
<text text-anchor="start" x="173" y="-75.5" font-family="Helvetica,sans-Serif" font-size="10.00">v8::internal::FactoryBase</text>
<text text-anchor="middle" x="233.5" y="-64.5" font-family="Helvetica,sans-Serif" font-size="10.00">::NumberToString</text>
</a>
</g>
</g>
<!-- Node1&#45;&gt;Node10 -->
<g id="edge9" class="edge">
<title>Node1&#45;&gt;Node10</title>
<path fill="none" stroke="midnightblue" d="M70.84,-353.39C83.99,-317.14 120.15,-223.06 165,-152.5 178.2,-131.74 196.32,-110.56 210.46,-95.21"/>
<polygon fill="midnightblue" stroke="midnightblue" points="213.17,-97.44 217.45,-87.75 208.06,-92.66 213.17,-97.44"/>
</g>
<!-- Node12 -->
<g id="node12" class="node">
<title>Node12</title>
<g id="a_node12"><a xlink:href="classv8_1_1internal_1_1CallPrinter.html#ad375691f12d13b889f6f7cf53568792d" target="_top" xlink:title=" ">
<polygon fill="white" stroke="black" points="169,-266.5 169,-296.5 298,-296.5 298,-266.5 169,-266.5"/>
<text text-anchor="start" x="177" y="-284.5" font-family="Helvetica,sans-Serif" font-size="10.00">v8::internal::CallPrinter</text>
<text text-anchor="middle" x="233.5" y="-273.5" font-family="Helvetica,sans-Serif" font-size="10.00">::Print</text>
</a>
</g>
</g>
<!-- Node1&#45;&gt;Node12 -->
<g id="edge13" class="edge">
<title>Node1&#45;&gt;Node12</title>
<path fill="none" stroke="midnightblue" d="M94.59,-353.35C122.28,-338.92 164.12,-317.12 194.45,-301.32"/>
<polygon fill="midnightblue" stroke="midnightblue" points="196.21,-304.35 203.46,-296.63 192.98,-298.14 196.21,-304.35"/>
</g>
<!-- Node5 -->
<g id="node5" class="node">
<title>Node5</title>
<g id="a_node5"><a xlink:href="namespacev8_1_1internal.html#aa6b3743bd5d773c552654f2a6c3efa4a" target="_top" xlink:title=" ">
<polygon fill="white" stroke="black" points="731.5,-474 731.5,-493 850.5,-493 850.5,-474 731.5,-474"/>
<text text-anchor="middle" x="791" y="-481" font-family="Helvetica,sans-Serif" font-size="10.00">v8::internal::DCHECK</text>
</a>
</g>
</g>
<!-- Node4&#45;&gt;Node5 -->
<g id="edge4" class="edge">
<title>Node4&#45;&gt;Node5</title>
<path fill="none" stroke="midnightblue" d="M286.7,-451.36C342.26,-456.41 432.78,-464.29 511,-469.5 582.64,-474.28 664.72,-478.21 721.21,-480.68"/>
<polygon fill="midnightblue" stroke="midnightblue" points="721.31,-484.19 731.45,-481.12 721.61,-477.19 721.31,-484.19"/>
</g>
<!-- Node7 -->
<g id="node7" class="node">
<title>Node7</title>
<g id="a_node7"><a xlink:href="namespacev8_1_1internal.html#a53c61c7bac6bd1ede36ec245f2e0a1d8" target="_top" xlink:title=" ">
<polygon fill="white" stroke="black" points="526,-44.5 526,-74.5 667,-74.5 667,-44.5 526,-44.5"/>
<text text-anchor="start" x="534" y="-62.5" font-family="Helvetica,sans-Serif" font-size="10.00">v8::internal::GetPtrCompr</text>
<text text-anchor="middle" x="596.5" y="-51.5" font-family="Helvetica,sans-Serif" font-size="10.00">CageBase</text>
</a>
</g>
</g>
<!-- Node6&#45;&gt;Node7 -->
<g id="edge6" class="edge">
<title>Node6&#45;&gt;Node7</title>
<path fill="none" stroke="midnightblue" d="M463.4,-81.99C479.77,-79.2 498.01,-76.09 515.57,-73.1"/>
<polygon fill="midnightblue" stroke="midnightblue" points="516.55,-76.49 525.82,-71.36 515.37,-69.59 516.55,-76.49"/>
</g>
<!-- Node8 -->
<g id="node8" class="node">
<title>Node8</title>
<g id="a_node8"><a xlink:href="namespacev8_1_1internal.html#ac299e59759eecb4621f6bad64d5db952" target="_top" xlink:title=" ">
<polygon fill="white" stroke="black" points="544,-6 544,-25 649,-25 649,-6 544,-6"/>
<text text-anchor="middle" x="596.5" y="-13" font-family="Helvetica,sans-Serif" font-size="10.00">v8::internal::IsSmi</text>
</a>
</g>
</g>
<!-- Node6&#45;&gt;Node8 -->
<g id="edge7" class="edge">
<title>Node6&#45;&gt;Node8</title>
<path fill="none" stroke="midnightblue" d="M454.26,-81.91C461.48,-79.43 468.64,-76.34 475,-72.5 494.91,-60.47 490.77,-45.99 511,-34.5 518.06,-30.49 525.91,-27.32 533.89,-24.82"/>
<polygon fill="midnightblue" stroke="midnightblue" points="534.97,-28.16 543.66,-22.1 533.08,-21.41 534.97,-28.16"/>
</g>
<!-- Node9 -->
<g id="node9" class="node">
<title>Node9</title>
<g id="a_node9"><a xlink:href="classv8_1_1internal_1_1TaggedImpl.html#ac581f955a852851b751735177af20efa" target="_top" xlink:title=" ">
<polygon fill="white" stroke="black" points="724,-0.5 724,-30.5 858,-30.5 858,-0.5 724,-0.5"/>
<text text-anchor="start" x="732" y="-18.5" font-family="Helvetica,sans-Serif" font-size="10.00">v8::internal::TaggedImpl</text>
<text text-anchor="middle" x="791" y="-7.5" font-family="Helvetica,sans-Serif" font-size="10.00">::IsSmi</text>
</a>
</g>
</g>
<!-- Node8&#45;&gt;Node9 -->
<g id="edge8" class="edge">
<title>Node8&#45;&gt;Node9</title>
<path fill="none" stroke="midnightblue" d="M649.09,-15.5C668.89,-15.5 691.94,-15.5 713.59,-15.5"/>
<polygon fill="midnightblue" stroke="midnightblue" points="713.75,-19 723.75,-15.5 713.75,-12 713.75,-19"/>
</g>
<!-- Node10&#45;&gt;Node6 -->
<g id="edge10" class="edge">
<title>Node10&#45;&gt;Node6</title>
<path fill="none" stroke="midnightblue" d="M302.08,-80.01C312.55,-81.17 323.4,-82.38 333.95,-83.55"/>
<polygon fill="midnightblue" stroke="midnightblue" points="333.64,-87.04 343.96,-84.66 334.41,-80.08 333.64,-87.04"/>
</g>
<!-- Node10&#45;&gt;Node8 -->
<g id="edge11" class="edge">
<title>Node10&#45;&gt;Node8</title>
<path fill="none" stroke="midnightblue" d="M268.29,-57.38C288.18,-49.17 314.05,-39.67 338,-34.5 403.72,-20.3 480.83,-16.22 533.42,-15.27"/>
<polygon fill="midnightblue" stroke="midnightblue" points="533.65,-18.77 543.6,-15.12 533.55,-11.77 533.65,-18.77"/>
</g>
<!-- Node11 -->
<g id="node11" class="node">
<title>Node11</title>
<g id="a_node11"><a xlink:href="flag-definitions_8h.html#adaf90f045d5cd2710edd625b8685472a" target="_top" xlink:title=" ">
<polygon fill="white" stroke="black" points="384.5,-44 384.5,-63 428.5,-63 428.5,-44 384.5,-44"/>
<text text-anchor="middle" x="406.5" y="-51" font-family="Helvetica,sans-Serif" font-size="10.00">mode</text>
</a>
</g>
</g>
<!-- Node10&#45;&gt;Node11 -->
<g id="edge12" class="edge">
<title>Node10&#45;&gt;Node11</title>
<path fill="none" stroke="midnightblue" d="M302.08,-64.99C326.93,-62.23 353.89,-59.23 374.05,-56.99"/>
<polygon fill="midnightblue" stroke="midnightblue" points="374.66,-60.45 384.22,-55.86 373.89,-53.49 374.66,-60.45"/>
</g>
<!-- Node13 -->
<g id="node13" class="node">
<title>Node13</title>
<g id="a_node13"><a xlink:href="classv8_1_1internal_1_1CallPrinter.html#ac29693bea8db76928a1bc4eea42b05ba" target="_top" xlink:title=" ">
<polygon fill="white" stroke="black" points="342,-241.5 342,-271.5 471,-271.5 471,-241.5 342,-241.5"/>
<text text-anchor="start" x="350" y="-259.5" font-family="Helvetica,sans-Serif" font-size="10.00">v8::internal::CallPrinter</text>
<text text-anchor="middle" x="406.5" y="-248.5" font-family="Helvetica,sans-Serif" font-size="10.00">::Find</text>
</a>
</g>
</g>
<!-- Node12&#45;&gt;Node13 -->
<g id="edge14" class="edge">
<title>Node12&#45;&gt;Node13</title>
<path fill="none" stroke="midnightblue" d="M293.35,-266.45C305.7,-264.35 318.87,-262.35 331.69,-260.6"/>
<polygon fill="midnightblue" stroke="midnightblue" points="332.41,-264.03 341.87,-259.25 331.5,-257.09 332.41,-264.03"/>
</g>
<!-- Node15 -->
<g id="node15" class="node">
<title>Node15</title>
<g id="a_node15"><a xlink:href="classv8_1_1internal_1_1IncrementalStringBuilder.html#aae44022f0483618b419fdce759becb78" target="_top" xlink:title=" ">
<polygon fill="white" stroke="black" points="338,-290.5 338,-320.5 475,-320.5 475,-290.5 338,-290.5"/>
<text text-anchor="start" x="346" y="-308.5" font-family="Helvetica,sans-Serif" font-size="10.00">v8::internal::Incremental</text>
<text text-anchor="middle" x="406.5" y="-297.5" font-family="Helvetica,sans-Serif" font-size="10.00">StringBuilder::Finish</text>
</a>
</g>
</g>
<!-- Node12&#45;&gt;Node15 -->
<g id="edge17" class="edge">
<title>Node12&#45;&gt;Node15</title>
<path fill="none" stroke="midnightblue" d="M298.17,-290.44C307.76,-291.78 317.74,-293.18 327.58,-294.56"/>
<polygon fill="midnightblue" stroke="midnightblue" points="327.37,-298.07 337.76,-295.99 328.35,-291.14 327.37,-298.07"/>
</g>
<!-- Node13&#45;&gt;Node12 -->
<g id="edge15" class="edge">
<title>Node13&#45;&gt;Node12</title>
<path fill="none" stroke="midnightblue" d="M346.86,-271.52C334.48,-273.62 321.26,-275.63 308.39,-277.39"/>
<polygon fill="midnightblue" stroke="midnightblue" points="307.63,-273.96 298.17,-278.74 308.55,-280.9 307.63,-273.96"/>
</g>
<!-- Node14 -->
<g id="node14" class="node">
<title>Node14</title>
<g id="a_node14"><a xlink:href="classv8_1_1internal_1_1AstVisitor.html#a748e27887cfe2a26983f9e4ba61f586e" target="_top" xlink:title=" ">
<polygon fill="white" stroke="black" points="534,-93.5 534,-123.5 659,-123.5 659,-93.5 534,-93.5"/>
<text text-anchor="start" x="542" y="-111.5" font-family="Helvetica,sans-Serif" font-size="10.00">v8::internal::AstVisitor</text>
<text text-anchor="middle" x="596.5" y="-100.5" font-family="Helvetica,sans-Serif" font-size="10.00">&lt; CallPrinter &gt;::Visit</text>
</a>
</g>
</g>
<!-- Node13&#45;&gt;Node14 -->
<g id="edge16" class="edge">
<title>Node13&#45;&gt;Node14</title>
<path fill="none" stroke="midnightblue" d="M417.07,-241.24C433.42,-216.35 469.05,-166.95 511,-138.5 517.02,-134.42 523.66,-130.82 530.5,-127.68"/>
<polygon fill="midnightblue" stroke="midnightblue" points="532.07,-130.81 539.89,-123.66 529.32,-124.37 532.07,-130.81"/>
</g>
<!-- Node16 -->
<g id="node16" class="node">
<title>Node16</title>
<g id="a_node16"><a xlink:href="classv8_1_1internal_1_1IncrementalStringBuilder.html#a197645a8ed8b2c02ea5f1dcf1975602a" target="_top" xlink:title=" ">
<polygon fill="white" stroke="red" points="525,-219.5 525,-249.5 668,-249.5 668,-219.5 525,-219.5"/>
<text text-anchor="start" x="533" y="-237.5" font-family="Helvetica,sans-Serif" font-size="10.00">v8::internal::Incremental</text>
<text text-anchor="middle" x="596.5" y="-226.5" font-family="Helvetica,sans-Serif" font-size="10.00">StringBuilder::Accumulate</text>
</a>
</g>
</g>
<!-- Node15&#45;&gt;Node16 -->
<g id="edge18" class="edge">
<title>Node15&#45;&gt;Node16</title>
<path fill="none" stroke="midnightblue" d="M453.77,-290.49C460.98,-287.74 468.26,-284.71 475,-281.5 491.92,-273.43 493.86,-267.11 511,-259.5 516.28,-257.15 521.85,-254.95 527.5,-252.91"/>
<polygon fill="midnightblue" stroke="midnightblue" points="528.74,-256.18 537.05,-249.62 526.46,-249.57 528.74,-256.18"/>
</g>
<!-- Node17 -->
<g id="node17" class="node">
<title>Node17</title>
<g id="a_node17"><a xlink:href="classv8_1_1internal_1_1IncrementalStringBuilder.html#a4e44ff59fba0c3faa42514ac5aff91aa" target="_top" xlink:title=" ">
<polygon fill="white" stroke="black" points="718,-153.5 718,-183.5 864,-183.5 864,-153.5 718,-153.5"/>
<text text-anchor="start" x="726" y="-171.5" font-family="Helvetica,sans-Serif" font-size="10.00">v8::internal::Incremental</text>
<text text-anchor="middle" x="791" y="-160.5" font-family="Helvetica,sans-Serif" font-size="10.00">StringBuilder::accumulator</text>
</a>
</g>
</g>
<!-- Node15&#45;&gt;Node17 -->
<g id="edge23" class="edge">
<title>Node15&#45;&gt;Node17</title>
<path fill="none" stroke="midnightblue" d="M463.36,-290.37C467.6,-287.85 471.56,-284.92 475,-281.5 508.22,-248.51 473.34,-210.31 511,-182.5 570.13,-138.83 657.04,-141.97 718.11,-151.79"/>
<polygon fill="midnightblue" stroke="midnightblue" points="717.61,-155.25 728.06,-153.48 718.79,-148.35 717.61,-155.25"/>
</g>
<!-- Node18 -->
<g id="node18" class="node">
<title>Node18</title>
<g id="a_node18"><a xlink:href="classv8_1_1internal_1_1IncrementalStringBuilder.html#a4941a993902d3cb8100a834864dd62b6" target="_top" xlink:title=" ">
<polygon fill="white" stroke="black" points="722.5,-219.5 722.5,-249.5 859.5,-249.5 859.5,-219.5 722.5,-219.5"/>
<text text-anchor="start" x="730.5" y="-237.5" font-family="Helvetica,sans-Serif" font-size="10.00">v8::internal::Incremental</text>
<text text-anchor="middle" x="791" y="-226.5" font-family="Helvetica,sans-Serif" font-size="10.00">StringBuilder::factory</text>
</a>
</g>
</g>
<!-- Node15&#45;&gt;Node18 -->
<g id="edge25" class="edge">
<title>Node15&#45;&gt;Node18</title>
<path fill="none" stroke="midnightblue" d="M461.92,-290.46C466.63,-287.92 471.08,-284.95 475,-281.5 501.56,-258.13 480.85,-229.02 511,-210.5 583.84,-165.76 688.24,-193.8 746.48,-215.75"/>
<polygon fill="midnightblue" stroke="midnightblue" points="745.52,-219.13 756.11,-219.48 748.05,-212.61 745.52,-219.13"/>
</g>
<!-- Node19 -->
<g id="node19" class="node">
<title>Node19</title>
<g id="a_node19"><a xlink:href="namespacev8_1_1internal.html#a15cafb1d1ed1ac577609eb5e764384e8" target="_top" xlink:title=" ">
<polygon fill="white" stroke="red" points="733.5,-312.5 733.5,-342.5 848.5,-342.5 848.5,-312.5 733.5,-312.5"/>
<text text-anchor="start" x="741.5" y="-330.5" font-family="Helvetica,sans-Serif" font-size="10.00">v8::internal::indirect</text>
<text text-anchor="middle" x="791" y="-319.5" font-family="Helvetica,sans-Serif" font-size="10.00">_handle</text>
</a>
</g>
</g>
<!-- Node15&#45;&gt;Node19 -->
<g id="edge26" class="edge">
<title>Node15&#45;&gt;Node19</title>
<path fill="none" stroke="midnightblue" d="M475,-309.38C545.02,-313.41 653.8,-319.67 723.46,-323.67"/>
<polygon fill="midnightblue" stroke="midnightblue" points="723.26,-327.17 733.44,-324.25 723.66,-320.18 723.26,-327.17"/>
</g>
<!-- Node23 -->
<g id="node20" class="node">
<title>Node23</title>
<g id="a_node20"><a xlink:href="classv8_1_1internal_1_1IncrementalStringBuilder.html#a0718e9df58ca94ce8b4a7aa30dc8791e" target="_top" xlink:title=" ">
<polygon fill="white" stroke="black" points="718.5,-414.5 718.5,-444.5 863.5,-444.5 863.5,-414.5 718.5,-414.5"/>
<text text-anchor="start" x="726.5" y="-432.5" font-family="Helvetica,sans-Serif" font-size="10.00">v8::internal::Incremental</text>
<text text-anchor="middle" x="791" y="-421.5" font-family="Helvetica,sans-Serif" font-size="10.00">StringBuilder::current_part</text>
</a>
</g>
</g>
<!-- Node15&#45;&gt;Node23 -->
<g id="edge24" class="edge">
<title>Node15&#45;&gt;Node23</title>
<path fill="none" stroke="midnightblue" d="M413.17,-320.57C425.53,-350.93 458.1,-418.82 511,-445.5 582.87,-481.74 678.76,-464.29 737.36,-447.52"/>
<polygon fill="midnightblue" stroke="midnightblue" points="738.54,-450.82 747.14,-444.62 736.56,-444.11 738.54,-450.82"/>
</g>
<!-- Node24 -->
<g id="node21" class="node">
<title>Node24</title>
<g id="a_node21"><a xlink:href="classv8_1_1internal_1_1Factory.html#a0cf113b78600bc0af80d7c548558c64a" target="_top" xlink:title=" ">
<polygon fill="white" stroke="black" points="540,-268.5 540,-298.5 653,-298.5 653,-268.5 540,-268.5"/>
<text text-anchor="start" x="548" y="-286.5" font-family="Helvetica,sans-Serif" font-size="10.00">v8::internal::Factory</text>
<text text-anchor="middle" x="596.5" y="-275.5" font-family="Helvetica,sans-Serif" font-size="10.00">::InternalizeString</text>
</a>
</g>
</g>
<!-- Node15&#45;&gt;Node24 -->
<g id="edge27" class="edge">
<title>Node15&#45;&gt;Node24</title>
<path fill="none" stroke="midnightblue" d="M475.11,-297.59C492.88,-295.51 512.03,-293.27 529.71,-291.2"/>
<polygon fill="midnightblue" stroke="midnightblue" points="530.4,-294.64 539.93,-290 529.59,-287.69 530.4,-294.64"/>
</g>
<!-- Node25 -->
<g id="node22" class="node">
<title>Node25</title>
<g id="a_node22"><a xlink:href="classv8_1_1internal_1_1IncrementalStringBuilder.html#a7b13f57f53669e5bd874bb7a3125e02f" target="_top" xlink:title=" ">
<polygon fill="white" stroke="black" points="528,-356.5 528,-386.5 665,-386.5 665,-356.5 528,-356.5"/>
<text text-anchor="start" x="536" y="-374.5" font-family="Helvetica,sans-Serif" font-size="10.00">v8::internal::Incremental</text>
<text text-anchor="middle" x="596.5" y="-363.5" font-family="Helvetica,sans-Serif" font-size="10.00">StringBuilder::isolate</text>
</a>
</g>
</g>
<!-- Node15&#45;&gt;Node25 -->
<g id="edge28" class="edge">
<title>Node15&#45;&gt;Node25</title>
<path fill="none" stroke="midnightblue" d="M450.63,-320.64C478.1,-330.28 513.85,-342.84 542.97,-353.06"/>
<polygon fill="midnightblue" stroke="midnightblue" points="541.97,-356.42 552.57,-356.43 544.29,-349.81 541.97,-356.42"/>
</g>
<!-- Node26 -->
<g id="node23" class="node">
<title>Node26</title>
<g id="a_node23"><a xlink:href="classv8_1_1internal_1_1IncrementalStringBuilder.html#ae134216238871131a5655d7c5a8b06bb" target="_top" xlink:title=" ">
<polygon fill="white" stroke="red" points="511,-405.5 511,-435.5 682,-435.5 682,-405.5 511,-405.5"/>
<text text-anchor="start" x="519" y="-423.5" font-family="Helvetica,sans-Serif" font-size="10.00">v8::internal::Incremental</text>
<text text-anchor="middle" x="596.5" y="-412.5" font-family="Helvetica,sans-Serif" font-size="10.00">StringBuilder::ShrinkCurrentPart</text>
</a>
</g>
</g>
<!-- Node15&#45;&gt;Node26 -->
<g id="edge29" class="edge">
<title>Node15&#45;&gt;Node26</title>
<path fill="none" stroke="midnightblue" d="M420.67,-320.7C438.97,-340.89 474.02,-376.35 511,-396.5 514.44,-398.38 518.04,-400.12 521.74,-401.73"/>
<polygon fill="midnightblue" stroke="midnightblue" points="520.5,-405 531.08,-405.49 523.11,-398.51 520.5,-405"/>
</g>
<!-- Node16&#45;&gt;Node17 -->
<g id="edge19" class="edge">
<title>Node16&#45;&gt;Node17</title>
<path fill="none" stroke="midnightblue" d="M641.66,-219.36C669.79,-209.72 706.4,-197.16 736.21,-186.94"/>
<polygon fill="midnightblue" stroke="midnightblue" points="737.72,-190.13 746.04,-183.57 735.45,-183.5 737.72,-190.13"/>
</g>
<!-- Node16&#45;&gt;Node18 -->
<g id="edge20" class="edge">
<title>Node16&#45;&gt;Node18</title>
<path fill="none" stroke="midnightblue" d="M668.09,-234.5C682.47,-234.5 697.68,-234.5 712.3,-234.5"/>
<polygon fill="midnightblue" stroke="midnightblue" points="712.31,-238 722.31,-234.5 712.31,-231 712.31,-238"/>
</g>
<!-- Node16&#45;&gt;Node19 -->
<g id="edge22" class="edge">
<title>Node16&#45;&gt;Node19</title>
<path fill="none" stroke="midnightblue" d="M655.99,-249.52C664.85,-252.45 673.78,-255.78 682,-259.5 710.57,-272.42 740.55,-291.83 761.66,-306.61"/>
<polygon fill="midnightblue" stroke="midnightblue" points="759.67,-309.5 769.85,-312.43 763.72,-303.79 759.67,-309.5"/>
</g>
<!-- Node18&#45;&gt;Node3 -->
<g id="edge21" class="edge">
<title>Node18&#45;&gt;Node3</title>
<path fill="none" stroke="midnightblue" d="M808.18,-249.73C837.01,-276.88 897.41,-333.75 930.89,-365.27"/>
<polygon fill="midnightblue" stroke="midnightblue" points="928.71,-368.03 938.39,-372.33 933.51,-362.93 928.71,-368.03"/>
</g>
<!-- Node26&#45;&gt;Node5 -->
<g id="edge31" class="edge">
<title>Node26&#45;&gt;Node5</title>
<path fill="none" stroke="midnightblue" d="M643.61,-435.59C676.43,-446.33 720.04,-460.6 751.1,-470.77"/>
<polygon fill="midnightblue" stroke="midnightblue" points="750.13,-474.13 760.72,-473.92 752.3,-467.48 750.13,-474.13"/>
</g>
<!-- Node26&#45;&gt;Node19 -->
<g id="edge32" class="edge">
<title>Node26&#45;&gt;Node19</title>
<path fill="none" stroke="midnightblue" d="M658.73,-405.41C666.69,-402.79 674.63,-399.82 682,-396.5 710.89,-383.51 741.05,-363.62 762.14,-348.53"/>
<polygon fill="midnightblue" stroke="midnightblue" points="764.27,-351.31 770.31,-342.6 760.16,-345.64 764.27,-351.31"/>
</g>
<!-- Node26&#45;&gt;Node23 -->
<g id="edge30" class="edge">
<title>Node26&#45;&gt;Node23</title>
<path fill="none" stroke="midnightblue" d="M682.21,-424.46C690.91,-424.87 699.74,-425.28 708.41,-425.69"/>
<polygon fill="midnightblue" stroke="midnightblue" points="708.33,-429.19 718.49,-426.16 708.66,-422.19 708.33,-429.19"/>
</g>
</g>
</svg>
