<?xml version="1.0" encoding="UTF-8" standalone="no"?>
<!DOCTYPE svg PUBLIC "-//W3C//DTD SVG 1.1//EN"
 "http://www.w3.org/Graphics/SVG/1.1/DTD/svg11.dtd">
<!-- Generated by graphviz version 2.43.0 (0)
 -->
<!-- Title: v8::internal::PreParserFactory::NewExpressionStatement Pages: 1 -->
<svg width="802pt" height="127pt"
 viewBox="0.00 0.00 802.00 127.00" xmlns="http://www.w3.org/2000/svg" xmlns:xlink="http://www.w3.org/1999/xlink">
<g id="graph0" class="graph" transform="scale(1 1) rotate(0) translate(4 123)">
<title>v8::internal::PreParserFactory::NewExpressionStatement</title>
<polygon fill="white" stroke="transparent" points="-4,4 -4,-123 798,-123 798,4 -4,4"/>
<!-- Node1 -->
<g id="node1" class="node">
<title>Node1</title>
<g id="a_node1"><a xlink:title=" ">
<polygon fill="#bfbfbf" stroke="black" points="0,-44.5 0,-74.5 159,-74.5 159,-44.5 0,-44.5"/>
<text text-anchor="start" x="8" y="-62.5" font-family="Helvetica,sans-Serif" font-size="10.00">v8::internal::PreParserFactory</text>
<text text-anchor="middle" x="79.5" y="-51.5" font-family="Helvetica,sans-Serif" font-size="10.00">::NewExpressionStatement</text>
</a>
</g>
</g>
<!-- Node2 -->
<g id="node2" class="node">
<title>Node2</title>
<g id="a_node2"><a xlink:href="classv8_1_1internal_1_1PreParserStatement.html#ad9e1f8acb632bc698f575884ee2d6339" target="_top" xlink:title=" ">
<polygon fill="white" stroke="black" points="195,-44.5 195,-74.5 370,-74.5 370,-44.5 195,-44.5"/>
<text text-anchor="start" x="203" y="-62.5" font-family="Helvetica,sans-Serif" font-size="10.00">v8::internal::PreParserStatement</text>
<text text-anchor="middle" x="282.5" y="-51.5" font-family="Helvetica,sans-Serif" font-size="10.00">::ExpressionStatement</text>
</a>
</g>
</g>
<!-- Node1&#45;&gt;Node2 -->
<g id="edge1" class="edge">
<title>Node1&#45;&gt;Node2</title>
<path fill="none" stroke="midnightblue" d="M159.08,-59.5C167.54,-59.5 176.23,-59.5 184.88,-59.5"/>
<polygon fill="midnightblue" stroke="midnightblue" points="185,-63 195,-59.5 185,-56 185,-63"/>
</g>
<!-- Node3 -->
<g id="node3" class="node">
<title>Node3</title>
<g id="a_node3"><a xlink:href="classv8_1_1internal_1_1PreParserStatement.html#a932e6f366056841f205219195c215da3" target="_top" xlink:title=" ">
<polygon fill="white" stroke="black" points="407,-88.5 407,-118.5 582,-118.5 582,-88.5 407,-88.5"/>
<text text-anchor="start" x="415" y="-106.5" font-family="Helvetica,sans-Serif" font-size="10.00">v8::internal::PreParserStatement</text>
<text text-anchor="middle" x="494.5" y="-95.5" font-family="Helvetica,sans-Serif" font-size="10.00">::Default</text>
</a>
</g>
</g>
<!-- Node2&#45;&gt;Node3 -->
<g id="edge2" class="edge">
<title>Node2&#45;&gt;Node3</title>
<path fill="none" stroke="midnightblue" d="M355.18,-74.52C373.41,-78.34 393.14,-82.47 411.82,-86.39"/>
<polygon fill="midnightblue" stroke="midnightblue" points="411.28,-89.85 421.78,-88.47 412.71,-83 411.28,-89.85"/>
</g>
<!-- Node4 -->
<g id="node4" class="node">
<title>Node4</title>
<g id="a_node4"><a xlink:href="classv8_1_1internal_1_1PreParserStatement.html#a5ecaf09deaed06f19ff53ec8a0aeebd6" target="_top" xlink:title=" ">
<polygon fill="white" stroke="black" points="619,-68.5 619,-98.5 794,-98.5 794,-68.5 619,-68.5"/>
<text text-anchor="start" x="627" y="-86.5" font-family="Helvetica,sans-Serif" font-size="10.00">v8::internal::PreParserStatement</text>
<text text-anchor="middle" x="706.5" y="-75.5" font-family="Helvetica,sans-Serif" font-size="10.00">::PreParserStatement</text>
</a>
</g>
</g>
<!-- Node2&#45;&gt;Node4 -->
<g id="edge6" class="edge">
<title>Node2&#45;&gt;Node4</title>
<path fill="none" stroke="midnightblue" d="M370.17,-64.43C439.49,-68.37 536.63,-73.9 608.52,-77.98"/>
<polygon fill="midnightblue" stroke="midnightblue" points="608.76,-81.5 618.94,-78.58 609.16,-74.52 608.76,-81.5"/>
</g>
<!-- Node5 -->
<g id="node5" class="node">
<title>Node5</title>
<g id="a_node5"><a xlink:href="classv8_1_1internal_1_1PreParserExpression.html#a30ea95b1a7b98cf2c820337eb84365d2" target="_top" xlink:title=" ">
<polygon fill="white" stroke="black" points="406,-0.5 406,-30.5 583,-30.5 583,-0.5 406,-0.5"/>
<text text-anchor="start" x="414" y="-18.5" font-family="Helvetica,sans-Serif" font-size="10.00">v8::internal::PreParserExpression</text>
<text text-anchor="middle" x="494.5" y="-7.5" font-family="Helvetica,sans-Serif" font-size="10.00">::IsStringLiteral</text>
</a>
</g>
</g>
<!-- Node2&#45;&gt;Node5 -->
<g id="edge4" class="edge">
<title>Node2&#45;&gt;Node5</title>
<path fill="none" stroke="midnightblue" d="M355.18,-44.48C373.41,-40.66 393.14,-36.53 411.82,-32.61"/>
<polygon fill="midnightblue" stroke="midnightblue" points="412.71,-36 421.78,-30.53 411.28,-29.15 412.71,-36"/>
</g>
<!-- Node3&#45;&gt;Node4 -->
<g id="edge3" class="edge">
<title>Node3&#45;&gt;Node4</title>
<path fill="none" stroke="midnightblue" d="M582.13,-95.25C590.91,-94.41 599.87,-93.56 608.75,-92.71"/>
<polygon fill="midnightblue" stroke="midnightblue" points="609.11,-96.2 618.73,-91.76 608.45,-89.23 609.11,-96.2"/>
</g>
<!-- Node6 -->
<g id="node6" class="node">
<title>Node6</title>
<g id="a_node6"><a xlink:href="classv8_1_1base_1_1BitField.html#a554df4b9ae5f0dc36b4d092bfc2e004b" target="_top" xlink:title=" ">
<polygon fill="white" stroke="black" points="656,-0.5 656,-30.5 757,-30.5 757,-0.5 656,-0.5"/>
<text text-anchor="start" x="664" y="-18.5" font-family="Helvetica,sans-Serif" font-size="10.00">v8::base::BitField</text>
<text text-anchor="middle" x="706.5" y="-7.5" font-family="Helvetica,sans-Serif" font-size="10.00">::decode</text>
</a>
</g>
</g>
<!-- Node5&#45;&gt;Node6 -->
<g id="edge5" class="edge">
<title>Node5&#45;&gt;Node6</title>
<path fill="none" stroke="midnightblue" d="M583.04,-15.5C604.12,-15.5 626.17,-15.5 645.66,-15.5"/>
<polygon fill="midnightblue" stroke="midnightblue" points="645.89,-19 655.89,-15.5 645.89,-12 645.89,-19"/>
</g>
</g>
</svg>
