<?xml version="1.0" encoding="UTF-8" standalone="no"?>
<!DOCTYPE svg PUBLIC "-//W3C//DTD SVG 1.1//EN"
 "http://www.w3.org/Graphics/SVG/1.1/DTD/svg11.dtd">
<!-- Generated by graphviz version 2.43.0 (0)
 -->
<!-- Title: v8::internal::DeclarationScope::SetScriptScopeInfo Pages: 1 -->
<svg width="813pt" height="137pt"
 viewBox="0.00 0.00 813.00 137.00" xmlns="http://www.w3.org/2000/svg" xmlns:xlink="http://www.w3.org/1999/xlink">
<g id="graph0" class="graph" transform="scale(1 1) rotate(0) translate(4 133)">
<title>v8::internal::DeclarationScope::SetScriptScopeInfo</title>
<polygon fill="white" stroke="transparent" points="-4,4 -4,-133 809,-133 809,4 -4,4"/>
<!-- Node1 -->
<g id="node1" class="node">
<title>Node1</title>
<g id="a_node1"><a xlink:title=" ">
<polygon fill="#bfbfbf" stroke="black" points="662,-49.5 662,-79.5 805,-79.5 805,-49.5 662,-49.5"/>
<text text-anchor="start" x="670" y="-67.5" font-family="Helvetica,sans-Serif" font-size="10.00">v8::internal::Declaration</text>
<text text-anchor="middle" x="733.5" y="-56.5" font-family="Helvetica,sans-Serif" font-size="10.00">Scope::SetScriptScopeInfo</text>
</a>
</g>
</g>
<!-- Node2 -->
<g id="node2" class="node">
<title>Node2</title>
<g id="a_node2"><a xlink:href="classv8_1_1internal_1_1Scope.html#a3361444423e512b4565ab4a2bef1baf1" target="_top" xlink:title=" ">
<polygon fill="white" stroke="black" points="342,-49.5 342,-79.5 476,-79.5 476,-49.5 342,-49.5"/>
<text text-anchor="start" x="350" y="-67.5" font-family="Helvetica,sans-Serif" font-size="10.00">v8::internal::Scope</text>
<text text-anchor="middle" x="409" y="-56.5" font-family="Helvetica,sans-Serif" font-size="10.00">::DeserializeScopeChain</text>
</a>
</g>
</g>
<!-- Node1&#45;&gt;Node2 -->
<g id="edge1" class="edge">
<title>Node1&#45;&gt;Node2</title>
<path fill="none" stroke="midnightblue" d="M651.63,-67.02C642.98,-67.21 634.31,-67.38 626,-67.5 575.34,-68.21 562.66,-68.24 512,-67.5 500.4,-67.33 488.05,-67.05 476.11,-66.73"/>
<polygon fill="midnightblue" stroke="midnightblue" points="651.84,-70.51 661.76,-66.77 651.67,-63.51 651.84,-70.51"/>
</g>
<!-- Node1729 -->
<g id="node7" class="node">
<title>Node1729</title>
<g id="a_node7"><a xlink:href="classv8_1_1internal_1_1Scope.html#a35bf83cdcf515c490811f98d6188fc2b" target="_top" xlink:title=" ">
<polygon fill="white" stroke="black" points="512,-27.5 512,-57.5 626,-57.5 626,-27.5 512,-27.5"/>
<text text-anchor="start" x="520" y="-45.5" font-family="Helvetica,sans-Serif" font-size="10.00">v8::internal::Scope</text>
<text text-anchor="middle" x="569" y="-34.5" font-family="Helvetica,sans-Serif" font-size="10.00">::SetScriptScopeInfo</text>
</a>
</g>
</g>
<!-- Node1&#45;&gt;Node1729 -->
<g id="edge6" class="edge">
<title>Node1&#45;&gt;Node1729</title>
<path fill="none" stroke="midnightblue" d="M651.69,-53.56C643.14,-52.4 634.59,-51.24 626.41,-50.14"/>
<polygon fill="midnightblue" stroke="midnightblue" points="651.32,-57.04 661.7,-54.91 652.26,-50.1 651.32,-57.04"/>
</g>
<!-- Node3 -->
<g id="node3" class="node">
<title>Node3</title>
<g id="a_node3"><a xlink:href="classv8_1_1internal_1_1Parser.html#a2ef690b6a9b9a0e5f76b3512f8118348" target="_top" xlink:title=" ">
<polygon fill="white" stroke="black" points="172,-49.5 172,-79.5 306,-79.5 306,-49.5 172,-49.5"/>
<text text-anchor="start" x="180" y="-67.5" font-family="Helvetica,sans-Serif" font-size="10.00">v8::internal::Parser</text>
<text text-anchor="middle" x="239" y="-56.5" font-family="Helvetica,sans-Serif" font-size="10.00">::DeserializeScopeChain</text>
</a>
</g>
</g>
<!-- Node2&#45;&gt;Node3 -->
<g id="edge2" class="edge">
<title>Node2&#45;&gt;Node3</title>
<path fill="none" stroke="midnightblue" d="M331.41,-64.5C322.99,-64.5 314.47,-64.5 306.19,-64.5"/>
<polygon fill="midnightblue" stroke="midnightblue" points="331.6,-68 341.6,-64.5 331.6,-61 331.6,-68"/>
</g>
<!-- Node4 -->
<g id="node4" class="node">
<title>Node4</title>
<g id="a_node4"><a xlink:href="classv8_1_1internal_1_1Parser.html#a7552d569d8b891d8af2062e1558f9aea" target="_top" xlink:title=" ">
<polygon fill="white" stroke="red" points="14,-98.5 14,-128.5 122,-128.5 122,-98.5 14,-98.5"/>
<text text-anchor="start" x="22" y="-116.5" font-family="Helvetica,sans-Serif" font-size="10.00">v8::internal::Parser</text>
<text text-anchor="middle" x="68" y="-105.5" font-family="Helvetica,sans-Serif" font-size="10.00">::ParseFunction</text>
</a>
</g>
</g>
<!-- Node3&#45;&gt;Node4 -->
<g id="edge3" class="edge">
<title>Node3&#45;&gt;Node4</title>
<path fill="none" stroke="midnightblue" d="M176.28,-82.39C158.11,-87.66 138.41,-93.38 120.91,-98.45"/>
<polygon fill="midnightblue" stroke="midnightblue" points="177.29,-85.75 185.92,-79.6 175.34,-79.02 177.29,-85.75"/>
</g>
<!-- Node1726 -->
<g id="node5" class="node">
<title>Node1726</title>
<g id="a_node5"><a xlink:href="classv8_1_1internal_1_1Parser.html#a9c5202eb35903ab740f365dd7dbce072" target="_top" xlink:title=" ">
<polygon fill="white" stroke="red" points="14,-49.5 14,-79.5 122,-79.5 122,-49.5 14,-49.5"/>
<text text-anchor="start" x="22" y="-67.5" font-family="Helvetica,sans-Serif" font-size="10.00">v8::internal::Parser</text>
<text text-anchor="middle" x="68" y="-56.5" font-family="Helvetica,sans-Serif" font-size="10.00">::ParseProgram</text>
</a>
</g>
</g>
<!-- Node3&#45;&gt;Node1726 -->
<g id="edge4" class="edge">
<title>Node3&#45;&gt;Node1726</title>
<path fill="none" stroke="midnightblue" d="M161.56,-64.5C148.22,-64.5 134.61,-64.5 122.07,-64.5"/>
<polygon fill="midnightblue" stroke="midnightblue" points="161.69,-68 171.69,-64.5 161.69,-61 161.69,-68"/>
</g>
<!-- Node1723 -->
<g id="node6" class="node">
<title>Node1723</title>
<g id="a_node6"><a xlink:href="classv8_1_1internal_1_1BackgroundCompileTask.html#a44ee3d4846ab59aa8318f3a1eea5eb27" target="_top" xlink:title=" ">
<polygon fill="white" stroke="black" points="0,-0.5 0,-30.5 136,-30.5 136,-0.5 0,-0.5"/>
<text text-anchor="start" x="8" y="-18.5" font-family="Helvetica,sans-Serif" font-size="10.00">v8::internal::Background</text>
<text text-anchor="middle" x="68" y="-7.5" font-family="Helvetica,sans-Serif" font-size="10.00">CompileTask::Run</text>
</a>
</g>
</g>
<!-- Node3&#45;&gt;Node1723 -->
<g id="edge5" class="edge">
<title>Node3&#45;&gt;Node1723</title>
<path fill="none" stroke="midnightblue" d="M176.28,-46.61C158.11,-41.34 138.41,-35.62 120.91,-30.55"/>
<polygon fill="midnightblue" stroke="midnightblue" points="175.34,-49.98 185.92,-49.4 177.29,-43.25 175.34,-49.98"/>
</g>
<!-- Node1729&#45;&gt;Node2 -->
<g id="edge7" class="edge">
<title>Node1729&#45;&gt;Node2</title>
<path fill="none" stroke="midnightblue" d="M501.7,-51.73C493.28,-52.9 484.65,-54.11 476.23,-55.28"/>
<polygon fill="midnightblue" stroke="midnightblue" points="502.43,-55.16 511.85,-50.32 501.46,-48.23 502.43,-55.16"/>
</g>
</g>
</svg>
