<?xml version="1.0" encoding="UTF-8" standalone="no"?>
<!DOCTYPE svg PUBLIC "-//W3C//DTD SVG 1.1//EN"
 "http://www.w3.org/Graphics/SVG/1.1/DTD/svg11.dtd">
<!-- Generated by graphviz version 2.43.0 (0)
 -->
<!-- Title: v8::internal::ArrowHeadParsingScope&lt; Types &gt; Pages: 1 -->
<!--zoomable 1317 -->
<svg id="main" version="1.1" xmlns="http://www.w3.org/2000/svg" xmlns:xlink="http://www.w3.org/1999/xlink" xml:space="preserve" onload="init(evt)">
<style type="text/css"><![CDATA[
.edge:hover path { stroke: red; }
.edge:hover polygon { stroke: red; fill: red; }
]]></style>
<script type="text/javascript"><![CDATA[
var edges = document.getElementsByTagName('g');
if (edges && edges.length) {
  for (var i=0;i<edges.length;i++) {
    if (edges[i].id.substr(0,4)=='edge') {
      edges[i].setAttribute('class','edge');
    }
  }
}
]]></script>
        <defs>
                <circle id="rim" cx="0" cy="0" r="7"/>
                <circle id="rim2" cx="0" cy="0" r="3.5"/>
                <g id="zoomPlus">
                        <use xlink:href="#rim" fill="#404040">
                                <set attributeName="fill" to="#808080" begin="zoomplus.mouseover" end="zoomplus.mouseout"/>
                        </use>
                        <path d="M-4,0h8M0,-4v8" fill="none" stroke="white" stroke-width="1.5" pointer-events="none"/>
                </g>
                <g id="zoomMin">
                        <use xlink:href="#rim" fill="#404040">
                                <set attributeName="fill" to="#808080" begin="zoomminus.mouseover" end="zoomminus.mouseout"/>
                        </use>
                        <path d="M-4,0h8" fill="none" stroke="white" stroke-width="1.5" pointer-events="none"/>
                </g>
                <g id="dirArrow">
                        <path fill="none" stroke="white" stroke-width="1.5" d="M0,-3.0v7 M-2.5,-0.5L0,-3.0L2.5,-0.5"/>
                </g>
               <g id="resetDef">
                       <use xlink:href="#rim2" fill="#404040">
                               <set attributeName="fill" to="#808080" begin="reset.mouseover" end="reset.mouseout"/>
                       </use>
               </g>
        </defs>

<script type="text/javascript">
var viewWidth = 1004;
var viewHeight = 1317;
var sectionId = 'dynsection-1';
</script>
<script xlink:href="svgpan.js"/>
<svg id="graph" class="graph">
<g id="viewport">
<title>v8::internal::ArrowHeadParsingScope&lt; Types &gt;</title>
<polygon fill="white" stroke="transparent" points="-4,4 -4,-1313 999.67,-1313 999.67,4 -4,4"/>
<!-- Node1 -->
<g id="node1" class="node">
<title>Node1</title>
<g id="a_node1"><a xlink:title=" ">
<polygon fill="#bfbfbf" stroke="black" points="369.17,-0.5 369.17,-167.5 542.17,-167.5 542.17,-0.5 369.17,-0.5"/>
<text text-anchor="start" x="377.17" y="-155.5" font-family="Helvetica,sans-Serif" font-size="10.00">v8::internal::ArrowHeadParsing</text>
<text text-anchor="middle" x="455.67" y="-144.5" font-family="Helvetica,sans-Serif" font-size="10.00">Scope&lt; Types &gt;</text>
<polyline fill="none" stroke="black" points="369.17,-137.5 542.17,-137.5 "/>
<text text-anchor="middle" x="455.67" y="-125.5" font-family="Helvetica,sans-Serif" font-size="10.00"> </text>
<polyline fill="none" stroke="black" points="369.17,-118.5 542.17,-118.5 "/>
<text text-anchor="start" x="377.17" y="-106.5" font-family="Helvetica,sans-Serif" font-size="10.00">+ ArrowHeadParsingScope()</text>
<text text-anchor="start" x="377.17" y="-95.5" font-family="Helvetica,sans-Serif" font-size="10.00">+ ArrowHeadParsingScope()</text>
<text text-anchor="start" x="377.17" y="-84.5" font-family="Helvetica,sans-Serif" font-size="10.00">+ operator=()</text>
<text text-anchor="start" x="377.17" y="-73.5" font-family="Helvetica,sans-Serif" font-size="10.00">+ ValidateExpression()</text>
<text text-anchor="start" x="377.17" y="-62.5" font-family="Helvetica,sans-Serif" font-size="10.00">+ ValidateAndCreateScope()</text>
<text text-anchor="start" x="377.17" y="-51.5" font-family="Helvetica,sans-Serif" font-size="10.00">+ RecordDeclarationError()</text>
<text text-anchor="start" x="377.17" y="-40.5" font-family="Helvetica,sans-Serif" font-size="10.00">+ RecordNonSimpleParameter()</text>
<text text-anchor="start" x="377.17" y="-29.5" font-family="Helvetica,sans-Serif" font-size="10.00">+ RecordThisUse()</text>
<text text-anchor="start" x="377.17" y="-18.5" font-family="Helvetica,sans-Serif" font-size="10.00">+ function_literal_id()</text>
<text text-anchor="start" x="377.17" y="-7.5" font-family="Helvetica,sans-Serif" font-size="10.00">&#45; kind()</text>
</a>
</g>
</g>
<!-- Node2 -->
<g id="node2" class="node">
<title>Node2</title>
<g id="a_node2"><a xlink:href="classv8_1_1internal_1_1ExpressionParsingScope.html" target="_top" xlink:title=" ">
<polygon fill="white" stroke="black" points="365.17,-205.5 365.17,-493.5 546.17,-493.5 546.17,-205.5 365.17,-205.5"/>
<text text-anchor="start" x="373.17" y="-481.5" font-family="Helvetica,sans-Serif" font-size="10.00">v8::internal::Expression</text>
<text text-anchor="middle" x="455.67" y="-470.5" font-family="Helvetica,sans-Serif" font-size="10.00">ParsingScope&lt; Types &gt;</text>
<polyline fill="none" stroke="black" points="365.17,-463.5 546.17,-463.5 "/>
<text text-anchor="middle" x="455.67" y="-451.5" font-family="Helvetica,sans-Serif" font-size="10.00"> </text>
<polyline fill="none" stroke="black" points="365.17,-444.5 546.17,-444.5 "/>
<text text-anchor="start" x="373.17" y="-432.5" font-family="Helvetica,sans-Serif" font-size="10.00">+ ExpressionParsingScope()</text>
<text text-anchor="start" x="373.17" y="-421.5" font-family="Helvetica,sans-Serif" font-size="10.00">+ ExpressionParsingScope()</text>
<text text-anchor="start" x="373.17" y="-410.5" font-family="Helvetica,sans-Serif" font-size="10.00">+ operator=()</text>
<text text-anchor="start" x="373.17" y="-399.5" font-family="Helvetica,sans-Serif" font-size="10.00">+ RecordAsyncArrowParameters</text>
<text text-anchor="start" x="373.17" y="-388.5" font-family="Helvetica,sans-Serif" font-size="10.00">Error()</text>
<text text-anchor="start" x="373.17" y="-377.5" font-family="Helvetica,sans-Serif" font-size="10.00">+ ~ExpressionParsingScope()</text>
<text text-anchor="start" x="373.17" y="-366.5" font-family="Helvetica,sans-Serif" font-size="10.00">+ ValidateAndRewriteReference()</text>
<text text-anchor="start" x="373.17" y="-355.5" font-family="Helvetica,sans-Serif" font-size="10.00">+ RecordExpressionError()</text>
<text text-anchor="start" x="373.17" y="-344.5" font-family="Helvetica,sans-Serif" font-size="10.00">+ RecordPatternError()</text>
<text text-anchor="start" x="373.17" y="-333.5" font-family="Helvetica,sans-Serif" font-size="10.00">+ ValidateExpression()</text>
<text text-anchor="start" x="373.17" y="-322.5" font-family="Helvetica,sans-Serif" font-size="10.00">+ ValidatePattern()</text>
<text text-anchor="start" x="373.17" y="-311.5" font-family="Helvetica,sans-Serif" font-size="10.00">and 6 more...</text>
<text text-anchor="start" x="373.17" y="-300.5" font-family="Helvetica,sans-Serif" font-size="10.00"># is_verified()</text>
<text text-anchor="start" x="373.17" y="-289.5" font-family="Helvetica,sans-Serif" font-size="10.00"># ValidatePattern()</text>
<text text-anchor="start" x="373.17" y="-278.5" font-family="Helvetica,sans-Serif" font-size="10.00">&#45; clear()</text>
<text text-anchor="start" x="373.17" y="-267.5" font-family="Helvetica,sans-Serif" font-size="10.00">&#45; is_valid()</text>
<text text-anchor="start" x="373.17" y="-256.5" font-family="Helvetica,sans-Serif" font-size="10.00">&#45; Record()</text>
<text text-anchor="start" x="373.17" y="-245.5" font-family="Helvetica,sans-Serif" font-size="10.00">&#45; Validate()</text>
<text text-anchor="start" x="373.17" y="-234.5" font-family="Helvetica,sans-Serif" font-size="10.00">&#45; Report()</text>
<text text-anchor="start" x="373.17" y="-223.5" font-family="Helvetica,sans-Serif" font-size="10.00">&#45; mark_verified()</text>
<text text-anchor="start" x="373.17" y="-212.5" font-family="Helvetica,sans-Serif" font-size="10.00">&#45; clear_verified()</text>
</a>
</g>
</g>
<!-- Node2&#45;&gt;Node1 -->
<g id="edge1" class="edge">
<title>Node2&#45;&gt;Node1</title>
<path fill="none" stroke="midnightblue" d="M455.67,-195.03C455.67,-185.71 455.67,-176.55 455.67,-167.73"/>
<polygon fill="none" stroke="midnightblue" points="452.17,-195.18 455.67,-205.18 459.17,-195.18 452.17,-195.18"/>
</g>
<!-- Node3 -->
<g id="node3" class="node">
<title>Node3</title>
<g id="a_node3"><a xlink:href="classv8_1_1internal_1_1ExpressionScope.html" target="_top" xlink:title=" ">
<polygon fill="white" stroke="black" points="357.17,-563.5 357.17,-1005.5 554.17,-1005.5 554.17,-563.5 357.17,-563.5"/>
<text text-anchor="start" x="365.17" y="-993.5" font-family="Helvetica,sans-Serif" font-size="10.00">v8::internal::Expression</text>
<text text-anchor="middle" x="455.67" y="-982.5" font-family="Helvetica,sans-Serif" font-size="10.00">Scope&lt; Types &gt;</text>
<polyline fill="none" stroke="black" points="357.17,-975.5 554.17,-975.5 "/>
<text text-anchor="middle" x="455.67" y="-963.5" font-family="Helvetica,sans-Serif" font-size="10.00"> </text>
<polyline fill="none" stroke="black" points="357.17,-956.5 554.17,-956.5 "/>
<text text-anchor="start" x="365.17" y="-944.5" font-family="Helvetica,sans-Serif" font-size="10.00">+ ExpressionScope()</text>
<text text-anchor="start" x="365.17" y="-933.5" font-family="Helvetica,sans-Serif" font-size="10.00">+ operator=()</text>
<text text-anchor="start" x="365.17" y="-922.5" font-family="Helvetica,sans-Serif" font-size="10.00">+ NewVariable()</text>
<text text-anchor="start" x="365.17" y="-911.5" font-family="Helvetica,sans-Serif" font-size="10.00">+ MergeVariableList()</text>
<text text-anchor="start" x="365.17" y="-900.5" font-family="Helvetica,sans-Serif" font-size="10.00">+ Declare()</text>
<text text-anchor="start" x="365.17" y="-889.5" font-family="Helvetica,sans-Serif" font-size="10.00">+ MarkIdentifierAsAssigned()</text>
<text text-anchor="start" x="365.17" y="-878.5" font-family="Helvetica,sans-Serif" font-size="10.00">+ ValidateAsPattern()</text>
<text text-anchor="start" x="365.17" y="-867.5" font-family="Helvetica,sans-Serif" font-size="10.00">+ ValidateAsExpression()</text>
<text text-anchor="start" x="365.17" y="-856.5" font-family="Helvetica,sans-Serif" font-size="10.00">+ RecordAsyncArrowParameters</text>
<text text-anchor="start" x="365.17" y="-845.5" font-family="Helvetica,sans-Serif" font-size="10.00">Error()</text>
<text text-anchor="start" x="365.17" y="-834.5" font-family="Helvetica,sans-Serif" font-size="10.00">+ RecordParameterInitializer</text>
<text text-anchor="start" x="365.17" y="-823.5" font-family="Helvetica,sans-Serif" font-size="10.00">Error()</text>
<text text-anchor="start" x="365.17" y="-812.5" font-family="Helvetica,sans-Serif" font-size="10.00">and 9 more...</text>
<text text-anchor="start" x="365.17" y="-801.5" font-family="Helvetica,sans-Serif" font-size="10.00"># parser()</text>
<text text-anchor="start" x="365.17" y="-790.5" font-family="Helvetica,sans-Serif" font-size="10.00"># parent()</text>
<text text-anchor="start" x="365.17" y="-779.5" font-family="Helvetica,sans-Serif" font-size="10.00"># Report()</text>
<text text-anchor="start" x="365.17" y="-768.5" font-family="Helvetica,sans-Serif" font-size="10.00"># ExpressionScope()</text>
<text text-anchor="start" x="365.17" y="-757.5" font-family="Helvetica,sans-Serif" font-size="10.00"># ~ExpressionScope()</text>
<text text-anchor="start" x="365.17" y="-746.5" font-family="Helvetica,sans-Serif" font-size="10.00"># AsExpressionParsingScope()</text>
<text text-anchor="start" x="365.17" y="-735.5" font-family="Helvetica,sans-Serif" font-size="10.00"># CanBeExpression()</text>
<text text-anchor="start" x="365.17" y="-724.5" font-family="Helvetica,sans-Serif" font-size="10.00"># CanBeDeclaration()</text>
<text text-anchor="start" x="365.17" y="-713.5" font-family="Helvetica,sans-Serif" font-size="10.00"># IsVariableDeclaration()</text>
<text text-anchor="start" x="365.17" y="-702.5" font-family="Helvetica,sans-Serif" font-size="10.00"># IsLexicalDeclaration()</text>
<text text-anchor="start" x="365.17" y="-691.5" font-family="Helvetica,sans-Serif" font-size="10.00"># IsAsyncArrowHeadParsingScope()</text>
<text text-anchor="start" x="365.17" y="-680.5" font-family="Helvetica,sans-Serif" font-size="10.00"># IsVarDeclaration()</text>
<text text-anchor="start" x="365.17" y="-669.5" font-family="Helvetica,sans-Serif" font-size="10.00">&#45; AsArrowHeadParsingScope()</text>
<text text-anchor="start" x="365.17" y="-658.5" font-family="Helvetica,sans-Serif" font-size="10.00">&#45; AsParameterDeclarationParsing</text>
<text text-anchor="start" x="365.17" y="-647.5" font-family="Helvetica,sans-Serif" font-size="10.00">Scope()</text>
<text text-anchor="start" x="365.17" y="-636.5" font-family="Helvetica,sans-Serif" font-size="10.00">&#45; AsVariableDeclarationParsing</text>
<text text-anchor="start" x="365.17" y="-625.5" font-family="Helvetica,sans-Serif" font-size="10.00">Scope()</text>
<text text-anchor="start" x="365.17" y="-614.5" font-family="Helvetica,sans-Serif" font-size="10.00">&#45; IsArrowHeadParsingScope()</text>
<text text-anchor="start" x="365.17" y="-603.5" font-family="Helvetica,sans-Serif" font-size="10.00">&#45; IsCertainlyPattern()</text>
<text text-anchor="start" x="365.17" y="-592.5" font-family="Helvetica,sans-Serif" font-size="10.00">&#45; CanBeParameterDeclaration()</text>
<text text-anchor="start" x="365.17" y="-581.5" font-family="Helvetica,sans-Serif" font-size="10.00">&#45; CanBeArrowParameterDeclaration()</text>
<text text-anchor="start" x="365.17" y="-570.5" font-family="Helvetica,sans-Serif" font-size="10.00">&#45; IsCertainlyParameterDeclaration()</text>
</a>
</g>
</g>
<!-- Node3&#45;&gt;Node2 -->
<g id="edge2" class="edge">
<title>Node3&#45;&gt;Node2</title>
<path fill="none" stroke="midnightblue" d="M455.67,-552.97C455.67,-532.8 455.67,-512.81 455.67,-493.68"/>
<polygon fill="none" stroke="midnightblue" points="452.17,-553.19 455.67,-563.19 459.17,-553.19 452.17,-553.19"/>
</g>
<!-- Node4 -->
<g id="node4" class="node">
<title>Node4</title>
<g id="a_node4"><a xlink:title=" ">
<polygon fill="white" stroke="#bfbfbf" points="521.67,-1174.5 521.67,-1231.5 679.67,-1231.5 679.67,-1174.5 521.67,-1174.5"/>
<text text-anchor="middle" x="600.67" y="-1219.5" font-family="Helvetica,sans-Serif" font-size="10.00">ExpressionScope&lt; Types &gt; *</text>
<polyline fill="none" stroke="#bfbfbf" points="521.67,-1212.5 679.67,-1212.5 "/>
<text text-anchor="middle" x="600.67" y="-1200.5" font-family="Helvetica,sans-Serif" font-size="10.00"> </text>
<polyline fill="none" stroke="#bfbfbf" points="521.67,-1193.5 679.67,-1193.5 "/>
<text text-anchor="middle" x="600.67" y="-1181.5" font-family="Helvetica,sans-Serif" font-size="10.00"> </text>
</a>
</g>
</g>
<!-- Node4&#45;&gt;Node3 -->
<g id="edge3" class="edge">
<title>Node4&#45;&gt;Node3</title>
<path fill="none" stroke="#404040" d="M591.04,-1174.35C579.3,-1140.63 558.28,-1080.25 536.25,-1016.98"/>
<polygon fill="none" stroke="#404040" points="536.22,-1016.89 530.47,-1012.54 532.28,-1005.56 538.03,-1009.91 536.22,-1016.89"/>
<text text-anchor="middle" x="579.67" y="-1049" font-family="Helvetica,sans-Serif" font-size="10.00"> &#45;parent_</text>
</g>
<!-- Node5 -->
<g id="node5" class="node">
<title>Node5</title>
<g id="a_node5"><a xlink:title=" ">
<polygon fill="white" stroke="#bfbfbf" points="211.67,-1174.5 211.67,-1231.5 249.67,-1231.5 249.67,-1174.5 211.67,-1174.5"/>
<text text-anchor="middle" x="230.67" y="-1219.5" font-family="Helvetica,sans-Serif" font-size="10.00">bool</text>
<polyline fill="none" stroke="#bfbfbf" points="211.67,-1212.5 249.67,-1212.5 "/>
<text text-anchor="middle" x="230.67" y="-1200.5" font-family="Helvetica,sans-Serif" font-size="10.00"> </text>
<polyline fill="none" stroke="#bfbfbf" points="211.67,-1193.5 249.67,-1193.5 "/>
<text text-anchor="middle" x="230.67" y="-1181.5" font-family="Helvetica,sans-Serif" font-size="10.00"> </text>
</a>
</g>
</g>
<!-- Node5&#45;&gt;Node1 -->
<g id="edge15" class="edge">
<title>Node5&#45;&gt;Node1</title>
<path fill="none" stroke="#404040" d="M211.42,-1183.86C178.55,-1151.59 112.2,-1080.56 81.67,-1006 -2.12,-801.37 -20.12,-728.94 22.67,-512 51.2,-367.3 43.5,-308.41 148.67,-205 205.35,-149.27 290.91,-118.68 357.32,-102.37"/>
<polygon fill="none" stroke="#404040" points="357.38,-102.35 362.3,-97.08 369.06,-99.58 364.15,-104.86 357.38,-102.35"/>
<text text-anchor="start" x="22.67" y="-537" font-family="Helvetica,sans-Serif" font-size="10.00"> &#45;has_simple_parameter</text>
<text text-anchor="middle" x="82.17" y="-526" font-family="Helvetica,sans-Serif" font-size="10.00">_list_</text>
<text text-anchor="middle" x="82.17" y="-515" font-family="Helvetica,sans-Serif" font-size="10.00">&#45;uses_this_</text>
</g>
<!-- Node5&#45;&gt;Node2 -->
<g id="edge10" class="edge">
<title>Node5&#45;&gt;Node2</title>
<path fill="none" stroke="#404040" d="M228.42,-1174.31C220.08,-1066.49 193.79,-675.27 241.67,-563 265.63,-506.79 312.22,-457.67 355.82,-420.86"/>
<polygon fill="none" stroke="#404040" points="355.83,-420.85 357.9,-413.94 365.07,-413.19 363,-420.1 355.83,-420.85"/>
<text text-anchor="start" x="241.67" y="-787.5" font-family="Helvetica,sans-Serif" font-size="10.00"> &#45;has_async_arrow_in</text>
<text text-anchor="middle" x="294.67" y="-776.5" font-family="Helvetica,sans-Serif" font-size="10.00">_scope_chain_</text>
</g>
<!-- Node5&#45;&gt;Node3 -->
<g id="edge4" class="edge">
<title>Node5&#45;&gt;Node3</title>
<path fill="none" stroke="#404040" d="M230.34,-1174.44C231.42,-1135.55 239.29,-1064.76 279.67,-1024 300.16,-1003.31 320.17,-1024.49 342.67,-1006 344.54,-1004.46 346.38,-1002.89 348.19,-1001.28"/>
<polygon fill="none" stroke="#404040" points="348.31,-1001.16 349.93,-994.14 357.04,-992.93 355.42,-999.95 348.31,-1001.16"/>
<text text-anchor="start" x="279.67" y="-1071" font-family="Helvetica,sans-Serif" font-size="10.00"> &#45;has_possible_arrow</text>
<text text-anchor="start" x="279.67" y="-1060" font-family="Helvetica,sans-Serif" font-size="10.00">_parameter_in_scope</text>
<text text-anchor="middle" x="341.67" y="-1049" font-family="Helvetica,sans-Serif" font-size="10.00">_chain_</text>
<text text-anchor="start" x="279.67" y="-1038" font-family="Helvetica,sans-Serif" font-size="10.00">&#45;has_possible_parameter</text>
<text text-anchor="middle" x="341.67" y="-1027" font-family="Helvetica,sans-Serif" font-size="10.00">_in_scope_chain_</text>
</g>
<!-- Node6 -->
<g id="node6" class="node">
<title>Node6</title>
<g id="a_node6"><a xlink:title=" ">
<polygon fill="white" stroke="#bfbfbf" points="356.17,-1174.5 356.17,-1231.5 417.17,-1231.5 417.17,-1174.5 356.17,-1174.5"/>
<text text-anchor="middle" x="386.67" y="-1219.5" font-family="Helvetica,sans-Serif" font-size="10.00">ParserT *</text>
<polyline fill="none" stroke="#bfbfbf" points="356.17,-1212.5 417.17,-1212.5 "/>
<text text-anchor="middle" x="386.67" y="-1200.5" font-family="Helvetica,sans-Serif" font-size="10.00"> </text>
<polyline fill="none" stroke="#bfbfbf" points="356.17,-1193.5 417.17,-1193.5 "/>
<text text-anchor="middle" x="386.67" y="-1181.5" font-family="Helvetica,sans-Serif" font-size="10.00"> </text>
</a>
</g>
</g>
<!-- Node6&#45;&gt;Node3 -->
<g id="edge5" class="edge">
<title>Node6&#45;&gt;Node3</title>
<path fill="none" stroke="#404040" d="M391.25,-1174.35C396.81,-1140.77 406.75,-1080.75 417.19,-1017.77"/>
<polygon fill="none" stroke="#404040" points="417.25,-1017.4 414.28,-1010.83 419.21,-1005.56 422.17,-1012.13 417.25,-1017.4"/>
<text text-anchor="middle" x="437.17" y="-1049" font-family="Helvetica,sans-Serif" font-size="10.00"> &#45;parser_</text>
</g>
<!-- Node7 -->
<g id="node7" class="node">
<title>Node7</title>
<g id="a_node7"><a xlink:title=" ">
<polygon fill="white" stroke="#bfbfbf" points="435.67,-1174.5 435.67,-1231.5 503.67,-1231.5 503.67,-1174.5 435.67,-1174.5"/>
<text text-anchor="middle" x="469.67" y="-1219.5" font-family="Helvetica,sans-Serif" font-size="10.00">ScopeType</text>
<polyline fill="none" stroke="#bfbfbf" points="435.67,-1212.5 503.67,-1212.5 "/>
<text text-anchor="middle" x="469.67" y="-1200.5" font-family="Helvetica,sans-Serif" font-size="10.00"> </text>
<polyline fill="none" stroke="#bfbfbf" points="435.67,-1193.5 503.67,-1193.5 "/>
<text text-anchor="middle" x="469.67" y="-1181.5" font-family="Helvetica,sans-Serif" font-size="10.00"> </text>
</a>
</g>
</g>
<!-- Node7&#45;&gt;Node3 -->
<g id="edge6" class="edge">
<title>Node7&#45;&gt;Node3</title>
<path fill="none" stroke="#404040" d="M468.74,-1174.35C467.61,-1140.77 465.59,-1080.75 463.47,-1017.77"/>
<polygon fill="none" stroke="#404040" points="463.47,-1017.55 459.27,-1011.69 463.06,-1005.56 467.26,-1011.42 463.47,-1017.55"/>
<text text-anchor="middle" x="482.67" y="-1049" font-family="Helvetica,sans-Serif" font-size="10.00"> &#45;type_</text>
</g>
<!-- Node8 -->
<g id="node8" class="node">
<title>Node8</title>
<g id="a_node8"><a xlink:href="classv8_1_1internal_1_1ScopedList.html" target="_top" xlink:title=" ">
<polygon fill="white" stroke="black" points="572.67,-662.5 572.67,-906.5 712.67,-906.5 712.67,-662.5 572.67,-662.5"/>
<text text-anchor="start" x="580.67" y="-894.5" font-family="Helvetica,sans-Serif" font-size="10.00">v8::internal::ScopedList</text>
<text text-anchor="start" x="580.67" y="-883.5" font-family="Helvetica,sans-Serif" font-size="10.00">&lt; std::pair&lt; v8::internal</text>
<text text-anchor="middle" x="642.67" y="-872.5" font-family="Helvetica,sans-Serif" font-size="10.00">::VariableProxy *, int &gt; &gt;</text>
<polyline fill="none" stroke="black" points="572.67,-865.5 712.67,-865.5 "/>
<text text-anchor="start" x="580.67" y="-853.5" font-family="Helvetica,sans-Serif" font-size="10.00">&#45; buffer_</text>
<text text-anchor="start" x="580.67" y="-842.5" font-family="Helvetica,sans-Serif" font-size="10.00">&#45; start_</text>
<text text-anchor="start" x="580.67" y="-831.5" font-family="Helvetica,sans-Serif" font-size="10.00">&#45; end_</text>
<polyline fill="none" stroke="black" points="572.67,-824.5 712.67,-824.5 "/>
<text text-anchor="start" x="580.67" y="-812.5" font-family="Helvetica,sans-Serif" font-size="10.00">+ ScopedList()</text>
<text text-anchor="start" x="580.67" y="-801.5" font-family="Helvetica,sans-Serif" font-size="10.00">+ ~ScopedList()</text>
<text text-anchor="start" x="580.67" y="-790.5" font-family="Helvetica,sans-Serif" font-size="10.00">+ Rewind()</text>
<text text-anchor="start" x="580.67" y="-779.5" font-family="Helvetica,sans-Serif" font-size="10.00">+ MergeInto()</text>
<text text-anchor="start" x="580.67" y="-768.5" font-family="Helvetica,sans-Serif" font-size="10.00">+ length()</text>
<text text-anchor="start" x="580.67" y="-757.5" font-family="Helvetica,sans-Serif" font-size="10.00">+ at()</text>
<text text-anchor="start" x="580.67" y="-746.5" font-family="Helvetica,sans-Serif" font-size="10.00">+ at()</text>
<text text-anchor="start" x="580.67" y="-735.5" font-family="Helvetica,sans-Serif" font-size="10.00">+ ToConstVector()</text>
<text text-anchor="start" x="580.67" y="-724.5" font-family="Helvetica,sans-Serif" font-size="10.00">+ Add()</text>
<text text-anchor="start" x="580.67" y="-713.5" font-family="Helvetica,sans-Serif" font-size="10.00">+ AddAll()</text>
<text text-anchor="start" x="580.67" y="-702.5" font-family="Helvetica,sans-Serif" font-size="10.00">+ begin()</text>
<text text-anchor="start" x="580.67" y="-691.5" font-family="Helvetica,sans-Serif" font-size="10.00">+ begin()</text>
<text text-anchor="start" x="580.67" y="-680.5" font-family="Helvetica,sans-Serif" font-size="10.00">+ end()</text>
<text text-anchor="start" x="580.67" y="-669.5" font-family="Helvetica,sans-Serif" font-size="10.00">+ end()</text>
</a>
</g>
</g>
<!-- Node8&#45;&gt;Node2 -->
<g id="edge7" class="edge">
<title>Node8&#45;&gt;Node2</title>
<path fill="none" stroke="#404040" d="M602.33,-662.27C590.66,-629.71 577.35,-594.74 563.67,-563 558.05,-549.97 547.68,-528.66 535.52,-504.45"/>
<polygon fill="none" stroke="#404040" points="535.42,-504.24 529.14,-500.68 530.01,-493.53 536.29,-497.08 535.42,-504.24"/>
<text text-anchor="middle" x="589.67" y="-526" font-family="Helvetica,sans-Serif" font-size="10.00"> &#45;variable_list_</text>
</g>
<!-- Node9 -->
<g id="node9" class="node">
<title>Node9</title>
<g id="a_node9"><a xlink:href="classv8_1_1internal_1_1ScopedList.html" target="_top" xlink:title=" ">
<polygon fill="white" stroke="red" points="698.17,-1097.5 698.17,-1308.5 829.17,-1308.5 829.17,-1097.5 698.17,-1097.5"/>
<text text-anchor="start" x="706.17" y="-1296.5" font-family="Helvetica,sans-Serif" font-size="10.00">v8::internal::ScopedList</text>
<text text-anchor="middle" x="763.67" y="-1285.5" font-family="Helvetica,sans-Serif" font-size="10.00">&lt; T, TBacking &gt;</text>
<polyline fill="none" stroke="red" points="698.17,-1278.5 829.17,-1278.5 "/>
<text text-anchor="middle" x="763.67" y="-1266.5" font-family="Helvetica,sans-Serif" font-size="10.00"> </text>
<polyline fill="none" stroke="red" points="698.17,-1259.5 829.17,-1259.5 "/>
<text text-anchor="start" x="706.17" y="-1247.5" font-family="Helvetica,sans-Serif" font-size="10.00">+ ScopedList()</text>
<text text-anchor="start" x="706.17" y="-1236.5" font-family="Helvetica,sans-Serif" font-size="10.00">+ ~ScopedList()</text>
<text text-anchor="start" x="706.17" y="-1225.5" font-family="Helvetica,sans-Serif" font-size="10.00">+ Rewind()</text>
<text text-anchor="start" x="706.17" y="-1214.5" font-family="Helvetica,sans-Serif" font-size="10.00">+ MergeInto()</text>
<text text-anchor="start" x="706.17" y="-1203.5" font-family="Helvetica,sans-Serif" font-size="10.00">+ length()</text>
<text text-anchor="start" x="706.17" y="-1192.5" font-family="Helvetica,sans-Serif" font-size="10.00">+ at()</text>
<text text-anchor="start" x="706.17" y="-1181.5" font-family="Helvetica,sans-Serif" font-size="10.00">+ at()</text>
<text text-anchor="start" x="706.17" y="-1170.5" font-family="Helvetica,sans-Serif" font-size="10.00">+ ToConstVector()</text>
<text text-anchor="start" x="706.17" y="-1159.5" font-family="Helvetica,sans-Serif" font-size="10.00">+ Add()</text>
<text text-anchor="start" x="706.17" y="-1148.5" font-family="Helvetica,sans-Serif" font-size="10.00">+ AddAll()</text>
<text text-anchor="start" x="706.17" y="-1137.5" font-family="Helvetica,sans-Serif" font-size="10.00">+ begin()</text>
<text text-anchor="start" x="706.17" y="-1126.5" font-family="Helvetica,sans-Serif" font-size="10.00">+ begin()</text>
<text text-anchor="start" x="706.17" y="-1115.5" font-family="Helvetica,sans-Serif" font-size="10.00">+ end()</text>
<text text-anchor="start" x="706.17" y="-1104.5" font-family="Helvetica,sans-Serif" font-size="10.00">+ end()</text>
</a>
</g>
</g>
<!-- Node9&#45;&gt;Node8 -->
<g id="edge8" class="edge">
<title>Node9&#45;&gt;Node8</title>
<path fill="none" stroke="orange" d="M691.03,-1099.41C690.24,-1098.6 689.46,-1097.79 688.67,-1097 679,-1087.3 670.34,-1090.96 663.67,-1079 647.39,-1049.84 642.26,-973.9 641.14,-906.58"/>
<polygon fill="orange" stroke="orange" points="688.65,-1101.99 698.03,-1106.91 693.77,-1097.21 688.65,-1101.99"/>
<text text-anchor="start" x="663.67" y="-1054.5" font-family="Helvetica,sans-Serif" font-size="10.00"> &lt; std::pair&lt; v8::internal</text>
<text text-anchor="middle" x="725.67" y="-1043.5" font-family="Helvetica,sans-Serif" font-size="10.00">::VariableProxy *, int &gt; &gt;</text>
</g>
<!-- Node12 -->
<g id="node10" class="node">
<title>Node12</title>
<g id="a_node10"><a xlink:title=" ">
<polygon fill="white" stroke="#bfbfbf" points="91.17,-756 91.17,-813 196.17,-813 196.17,-756 91.17,-756"/>
<text text-anchor="middle" x="143.67" y="-801" font-family="Helvetica,sans-Serif" font-size="10.00">MessageTemplate</text>
<polyline fill="none" stroke="#bfbfbf" points="91.17,-794 196.17,-794 "/>
<text text-anchor="middle" x="143.67" y="-782" font-family="Helvetica,sans-Serif" font-size="10.00"> </text>
<polyline fill="none" stroke="#bfbfbf" points="91.17,-775 196.17,-775 "/>
<text text-anchor="middle" x="143.67" y="-763" font-family="Helvetica,sans-Serif" font-size="10.00"> </text>
</a>
</g>
</g>
<!-- Node12&#45;&gt;Node1 -->
<g id="edge14" class="edge">
<title>Node12&#45;&gt;Node1</title>
<path fill="none" stroke="#404040" d="M141.32,-755.76C135.22,-665.61 127.86,-376.76 264.67,-205 289.43,-173.9 324.59,-148.6 358.01,-129.39"/>
<polygon fill="none" stroke="#404040" points="358.3,-129.22 361.59,-122.8 368.78,-123.36 365.49,-129.78 358.3,-129.22"/>
<text text-anchor="start" x="264.67" y="-352.5" font-family="Helvetica,sans-Serif" font-size="10.00"> &#45;declaration_error</text>
<text text-anchor="middle" x="310.17" y="-341.5" font-family="Helvetica,sans-Serif" font-size="10.00">_message</text>
</g>
<!-- Node12&#45;&gt;Node2 -->
<g id="edge9" class="edge">
<title>Node12&#45;&gt;Node2</title>
<path fill="none" stroke="#404040" d="M138.18,-755.8C129.24,-701.94 118,-582.23 177.67,-512 195.97,-490.46 213.04,-505.93 238.67,-494 278.45,-475.48 319.29,-450.35 354.66,-426.29"/>
<polygon fill="none" stroke="#404040" points="355.08,-426.01 357.76,-419.31 364.97,-419.21 362.29,-425.9 355.08,-426.01"/>
<text text-anchor="middle" x="208.67" y="-526" font-family="Helvetica,sans-Serif" font-size="10.00"> &#45;messages_</text>
</g>
<!-- Node13 -->
<g id="node11" class="node">
<title>Node13</title>
<g id="a_node11"><a xlink:href="structv8_1_1internal_1_1Scanner_1_1Location.html" target="_top" xlink:title=" ">
<polygon fill="white" stroke="black" points="731.17,-728.5 731.17,-840.5 848.17,-840.5 848.17,-728.5 731.17,-728.5"/>
<text text-anchor="start" x="739.17" y="-828.5" font-family="Helvetica,sans-Serif" font-size="10.00">v8::internal::Scanner</text>
<text text-anchor="middle" x="789.67" y="-817.5" font-family="Helvetica,sans-Serif" font-size="10.00">::Location</text>
<polyline fill="none" stroke="black" points="731.17,-810.5 848.17,-810.5 "/>
<text text-anchor="middle" x="789.67" y="-798.5" font-family="Helvetica,sans-Serif" font-size="10.00"> </text>
<polyline fill="none" stroke="black" points="731.17,-791.5 848.17,-791.5 "/>
<text text-anchor="start" x="739.17" y="-779.5" font-family="Helvetica,sans-Serif" font-size="10.00">+ Location()</text>
<text text-anchor="start" x="739.17" y="-768.5" font-family="Helvetica,sans-Serif" font-size="10.00">+ Location()</text>
<text text-anchor="start" x="739.17" y="-757.5" font-family="Helvetica,sans-Serif" font-size="10.00">+ length()</text>
<text text-anchor="start" x="739.17" y="-746.5" font-family="Helvetica,sans-Serif" font-size="10.00">+ IsValid()</text>
<text text-anchor="start" x="739.17" y="-735.5" font-family="Helvetica,sans-Serif" font-size="10.00">+ invalid()</text>
</a>
</g>
</g>
<!-- Node13&#45;&gt;Node1 -->
<g id="edge16" class="edge">
<title>Node13&#45;&gt;Node1</title>
<path fill="none" stroke="#404040" d="M783.59,-728.47C776.22,-672.57 761.2,-584.17 733.67,-512 677.45,-364.64 646.03,-334.27 555.67,-205 549.27,-195.84 542.34,-186.53 535.21,-177.34"/>
<polygon fill="none" stroke="#404040" points="535.15,-177.26 528.3,-175.01 527.73,-167.82 534.59,-170.07 535.15,-177.26"/>
<text text-anchor="start" x="725.67" y="-352.5" font-family="Helvetica,sans-Serif" font-size="10.00"> &#45;declaration_error</text>
<text text-anchor="middle" x="771.17" y="-341.5" font-family="Helvetica,sans-Serif" font-size="10.00">_location</text>
</g>
<!-- Node13&#45;&gt;Node2 -->
<g id="edge11" class="edge">
<title>Node13&#45;&gt;Node2</title>
<path fill="none" stroke="#404040" d="M785.86,-728.46C779.7,-679.4 763.61,-608.51 721.67,-563 707.07,-547.16 695.02,-556.28 676.67,-545 633.91,-518.72 591.45,-483.99 555.34,-451.16"/>
<polygon fill="none" stroke="#404040" points="555.14,-450.98 548.01,-449.86 546.3,-442.86 553.42,-443.97 555.14,-450.98"/>
<text text-anchor="middle" x="705.17" y="-526" font-family="Helvetica,sans-Serif" font-size="10.00"> &#45;locations_</text>
</g>
<!-- Node14 -->
<g id="node12" class="node">
<title>Node14</title>
<g id="a_node12"><a xlink:href="classint.html" target="_top" xlink:title=" ">
<polygon fill="white" stroke="black" points="857.17,-1174.5 857.17,-1231.5 886.17,-1231.5 886.17,-1174.5 857.17,-1174.5"/>
<text text-anchor="middle" x="871.67" y="-1219.5" font-family="Helvetica,sans-Serif" font-size="10.00">int</text>
<polyline fill="none" stroke="black" points="857.17,-1212.5 886.17,-1212.5 "/>
<text text-anchor="middle" x="871.67" y="-1200.5" font-family="Helvetica,sans-Serif" font-size="10.00"> </text>
<polyline fill="none" stroke="black" points="857.17,-1193.5 886.17,-1193.5 "/>
<text text-anchor="middle" x="871.67" y="-1181.5" font-family="Helvetica,sans-Serif" font-size="10.00"> </text>
</a>
</g>
</g>
<!-- Node14&#45;&gt;Node1 -->
<g id="edge13" class="edge">
<title>Node14&#45;&gt;Node1</title>
<path fill="none" stroke="#404040" d="M874.42,-1174.35C888.23,-1029.49 944.61,-358.87 820.67,-205 756.69,-125.57 638.94,-98.22 554.46,-89.06"/>
<polygon fill="none" stroke="#404040" points="554.45,-89.06 548.08,-92.45 542.51,-87.87 548.88,-84.49 554.45,-89.06"/>
<text text-anchor="middle" x="945.67" y="-526" font-family="Helvetica,sans-Serif" font-size="10.00"> &#45;function_literal_id_</text>
</g>
<!-- Node14&#45;&gt;Node13 -->
<g id="edge12" class="edge">
<title>Node14&#45;&gt;Node13</title>
<path fill="none" stroke="#404040" d="M867.93,-1174.4C863.78,-1151.86 855.34,-1120.08 838.67,-1097 830.65,-1085.9 820.4,-1090.92 813.67,-1079 774.36,-1009.41 774.11,-915.37 779.87,-852.68"/>
<polygon fill="none" stroke="#404040" points="779.89,-852.52 776.51,-846.15 781.09,-840.58 784.47,-846.95 779.89,-852.52"/>
<text text-anchor="middle" x="839.67" y="-1054.5" font-family="Helvetica,sans-Serif" font-size="10.00"> +beg_pos</text>
<text text-anchor="middle" x="839.67" y="-1043.5" font-family="Helvetica,sans-Serif" font-size="10.00">+end_pos</text>
</g>
</g>
</svg>
        <g id="navigator" transform="translate(0 0)" fill="#404254">
                <rect fill="#f2f5e9" fill-opacity="0.5" stroke="#606060" stroke-width=".5" x="0" y="0" width="60" height="60"/>
                <use id="zoomplus" xlink:href="#zoomPlus" x="17" y="9" onmousedown="handleZoom(evt,'in')"/>
                <use id="zoomminus" xlink:href="#zoomMin" x="42" y="9" onmousedown="handleZoom(evt,'out')"/>
                <use id="reset" xlink:href="#resetDef" x="30" y="36" onmousedown="handleReset()"/>
                <g id="arrowUp" xlink:href="#dirArrow" transform="translate(30 24)" onmousedown="handlePan(0,-1)">
                  <use xlink:href="#rim" fill="#404040">
                        <set attributeName="fill" to="#808080" begin="arrowUp.mouseover" end="arrowUp.mouseout"/>
                  </use>
                  <path fill="none" stroke="white" stroke-width="1.5" d="M0,-3.0v7 M-2.5,-0.5L0,-3.0L2.5,-0.5"/>
                </g>
                <g id="arrowRight" xlink:href="#dirArrow" transform="rotate(90) translate(36 -43)" onmousedown="handlePan(1,0)">
                  <use xlink:href="#rim" fill="#404040">
                        <set attributeName="fill" to="#808080" begin="arrowRight.mouseover" end="arrowRight.mouseout"/>
                  </use>
                  <path fill="none" stroke="white" stroke-width="1.5" d="M0,-3.0v7 M-2.5,-0.5L0,-3.0L2.5,-0.5"/>
                </g>
                <g id="arrowDown" xlink:href="#dirArrow" transform="rotate(180) translate(-30 -48)" onmousedown="handlePan(0,1)">
                  <use xlink:href="#rim" fill="#404040">
                        <set attributeName="fill" to="#808080" begin="arrowDown.mouseover" end="arrowDown.mouseout"/>
                  </use>
                  <path fill="none" stroke="white" stroke-width="1.5" d="M0,-3.0v7 M-2.5,-0.5L0,-3.0L2.5,-0.5"/>
                </g>
                <g id="arrowLeft" xlink:href="#dirArrow" transform="rotate(270) translate(-36 17)" onmousedown="handlePan(-1,0)">
                  <use xlink:href="#rim" fill="#404040">
                        <set attributeName="fill" to="#808080" begin="arrowLeft.mouseover" end="arrowLeft.mouseout"/>
                  </use>
                  <path fill="none" stroke="white" stroke-width="1.5" d="M0,-3.0v7 M-2.5,-0.5L0,-3.0L2.5,-0.5"/>
                </g>
        </g>
        <svg viewBox="0 0 15 15" width="100%" height="30px" preserveAspectRatio="xMaxYMin meet">
         <g id="arrow_out" transform="scale(0.3 0.3)">
          <a xlink:href="classv8_1_1internal_1_1ArrowHeadParsingScope__coll__graph_org.svg" target="_base">
           <rect id="button" ry="5" rx="5" y="6" x="6" height="38" width="38"
                fill="#f2f5e9" fill-opacity="0.5" stroke="#606060" stroke-width="1.0"/>
           <path id="arrow"
             d="M 11.500037,31.436501 C 11.940474,20.09759 22.043105,11.32322 32.158766,21.979434 L 37.068811,17.246167 C 37.068811,17.246167 37.088388,32 37.088388,32 L 22.160133,31.978069 C 22.160133,31.978069 26.997745,27.140456 26.997745,27.140456 C 18.528582,18.264221 13.291696,25.230495 11.500037,31.436501 z"
             style="fill:#404040;"/>
          </a>
         </g>
        </svg>
</svg>
