<?xml version="1.0" encoding="UTF-8" standalone="no"?>
<!DOCTYPE svg PUBLIC "-//W3C//DTD SVG 1.1//EN"
 "http://www.w3.org/Graphics/SVG/1.1/DTD/svg11.dtd">
<!-- Generated by graphviz version 2.43.0 (0)
 -->
<!-- Title: v8::internal::Factory::TryNewFixedArray Pages: 1 -->
<svg width="760pt" height="511pt"
 viewBox="0.00 0.00 760.00 510.50" xmlns="http://www.w3.org/2000/svg" xmlns:xlink="http://www.w3.org/1999/xlink">
<g id="graph0" class="graph" transform="scale(1 1) rotate(0) translate(4 506.5)">
<title>v8::internal::Factory::TryNewFixedArray</title>
<polygon fill="white" stroke="transparent" points="-4,4 -4,-506.5 756,-506.5 756,4 -4,4"/>
<!-- Node1 -->
<g id="node1" class="node">
<title>Node1</title>
<g id="a_node1"><a xlink:title=" ">
<polygon fill="#bfbfbf" stroke="black" points="0,-232.5 0,-262.5 113,-262.5 113,-232.5 0,-232.5"/>
<text text-anchor="start" x="8" y="-250.5" font-family="Helvetica,sans-Serif" font-size="10.00">v8::internal::Factory</text>
<text text-anchor="middle" x="56.5" y="-239.5" font-family="Helvetica,sans-Serif" font-size="10.00">::TryNewFixedArray</text>
</a>
</g>
</g>
<!-- Node2 -->
<g id="node2" class="node">
<title>Node2</title>
<g id="a_node2"><a xlink:href="classv8_1_1internal_1_1MarkingProgressTracker.html#aa8fac5c20fe385fa8dca5a7a3bd2f7ef" target="_top" xlink:title=" ">
<polygon fill="white" stroke="black" points="169,-433.5 169,-463.5 329,-463.5 329,-433.5 169,-433.5"/>
<text text-anchor="start" x="177" y="-451.5" font-family="Helvetica,sans-Serif" font-size="10.00">v8::internal::MarkingProgress</text>
<text text-anchor="middle" x="249" y="-440.5" font-family="Helvetica,sans-Serif" font-size="10.00">Tracker::Enable</text>
</a>
</g>
</g>
<!-- Node1&#45;&gt;Node2 -->
<g id="edge1" class="edge">
<title>Node1&#45;&gt;Node2</title>
<path fill="none" stroke="midnightblue" d="M61.31,-262.59C70.5,-295.85 97.06,-375.91 149,-418.5 153.92,-422.54 159.38,-426.03 165.13,-429.05"/>
<polygon fill="midnightblue" stroke="midnightblue" points="163.83,-432.31 174.36,-433.43 166.82,-425.98 163.83,-432.31"/>
</g>
<!-- Node5 -->
<g id="node5" class="node">
<title>Node5</title>
<g id="a_node5"><a xlink:href="flag-definitions_8h.html#a3df0b28b666e942ffb9d7d04acdb9715" target="_top" xlink:title=" ">
<polygon fill="white" stroke="black" points="457,-395 457,-414 493,-414 493,-395 457,-395"/>
<text text-anchor="middle" x="475" y="-402" font-family="Helvetica,sans-Serif" font-size="10.00">size</text>
</a>
</g>
</g>
<!-- Node1&#45;&gt;Node5 -->
<g id="edge21" class="edge">
<title>Node1&#45;&gt;Node5</title>
<path fill="none" stroke="midnightblue" d="M62.33,-262.51C72.75,-292.11 100.41,-357.56 149,-385.5 246.33,-441.46 388.29,-422.02 447.02,-410.5"/>
<polygon fill="midnightblue" stroke="midnightblue" points="447.89,-413.89 456.99,-408.46 446.49,-407.03 447.89,-413.89"/>
</g>
<!-- Node6 -->
<g id="node6" class="node">
<title>Node6</title>
<g id="a_node6"><a xlink:href="classv8_1_1internal_1_1LargePageMetadata.html#a107348a0a33d4bbd22d750a603353d8c" target="_top" xlink:title=" ">
<polygon fill="white" stroke="black" points="161.5,-345.5 161.5,-375.5 336.5,-375.5 336.5,-345.5 161.5,-345.5"/>
<text text-anchor="start" x="169.5" y="-363.5" font-family="Helvetica,sans-Serif" font-size="10.00">v8::internal::LargePageMetadata</text>
<text text-anchor="middle" x="249" y="-352.5" font-family="Helvetica,sans-Serif" font-size="10.00">::FromHeapObject</text>
</a>
</g>
</g>
<!-- Node1&#45;&gt;Node6 -->
<g id="edge5" class="edge">
<title>Node1&#45;&gt;Node6</title>
<path fill="none" stroke="midnightblue" d="M69.06,-262.73C84.9,-282.53 115.28,-316.78 149,-335.5 153.14,-337.8 157.5,-339.89 161.98,-341.79"/>
<polygon fill="midnightblue" stroke="midnightblue" points="160.73,-345.06 171.32,-345.43 163.27,-338.54 160.73,-345.06"/>
</g>
<!-- Node21 -->
<g id="node13" class="node">
<title>Node21</title>
<g id="a_node13"><a xlink:href="namespacev8_1_1internal.html#a8c89f00da07e125218128b9fbf0a321c" target="_top" xlink:title=" ">
<polygon fill="white" stroke="black" points="193.5,-307 193.5,-326 304.5,-326 304.5,-307 193.5,-307"/>
<text text-anchor="middle" x="249" y="-314" font-family="Helvetica,sans-Serif" font-size="10.00">v8::internal::handle</text>
</a>
</g>
</g>
<!-- Node1&#45;&gt;Node21 -->
<g id="edge12" class="edge">
<title>Node1&#45;&gt;Node21</title>
<path fill="none" stroke="midnightblue" d="M80.26,-262.54C98.22,-273.76 124.3,-288.63 149,-297.5 159.89,-301.41 171.76,-304.57 183.38,-307.11"/>
<polygon fill="midnightblue" stroke="midnightblue" points="182.99,-310.6 193.49,-309.17 184.4,-303.74 182.99,-310.6"/>
</g>
<!-- Node22 -->
<g id="node14" class="node">
<title>Node22</title>
<g id="a_node14"><a xlink:href="classv8_1_1internal_1_1Isolate.html#ac74a11613906581a9989b1cb7f7b3275" target="_top" xlink:title=" ">
<polygon fill="white" stroke="black" points="193.5,-257.5 193.5,-287.5 304.5,-287.5 304.5,-257.5 193.5,-257.5"/>
<text text-anchor="start" x="201.5" y="-275.5" font-family="Helvetica,sans-Serif" font-size="10.00">v8::internal::Isolate</text>
<text text-anchor="middle" x="249" y="-264.5" font-family="Helvetica,sans-Serif" font-size="10.00">::heap</text>
</a>
</g>
</g>
<!-- Node1&#45;&gt;Node22 -->
<g id="edge13" class="edge">
<title>Node1&#45;&gt;Node22</title>
<path fill="none" stroke="midnightblue" d="M113.11,-254.8C135.12,-257.69 160.55,-261.02 183.37,-264.02"/>
<polygon fill="midnightblue" stroke="midnightblue" points="182.93,-267.49 193.3,-265.32 183.85,-260.55 182.93,-267.49"/>
</g>
<!-- Node23 -->
<g id="node15" class="node">
<title>Node23</title>
<g id="a_node15"><a xlink:href="classv8_1_1internal_1_1Factory.html#a7ac37ce08b9f8eae9f45701872d1949d" target="_top" xlink:title=" ">
<polygon fill="white" stroke="black" points="192.5,-208.5 192.5,-238.5 305.5,-238.5 305.5,-208.5 192.5,-208.5"/>
<text text-anchor="start" x="200.5" y="-226.5" font-family="Helvetica,sans-Serif" font-size="10.00">v8::internal::Factory</text>
<text text-anchor="middle" x="249" y="-215.5" font-family="Helvetica,sans-Serif" font-size="10.00">::isolate</text>
</a>
</g>
</g>
<!-- Node1&#45;&gt;Node23 -->
<g id="edge14" class="edge">
<title>Node1&#45;&gt;Node23</title>
<path fill="none" stroke="midnightblue" d="M113.11,-240.49C134.73,-237.77 159.67,-234.63 182.17,-231.79"/>
<polygon fill="midnightblue" stroke="midnightblue" points="182.83,-235.24 192.32,-230.52 181.96,-228.29 182.83,-235.24"/>
</g>
<!-- Node24 -->
<g id="node16" class="node">
<title>Node24</title>
<g id="a_node16"><a xlink:href="classv8_1_1internal_1_1MutablePageMetadata.html#a61539ec5811e73edf0313dff80918d56" target="_top" xlink:title=" ">
<polygon fill="white" stroke="black" points="170.5,-148 170.5,-189 327.5,-189 327.5,-148 170.5,-148"/>
<text text-anchor="start" x="178.5" y="-177" font-family="Helvetica,sans-Serif" font-size="10.00">v8::internal::MutablePage</text>
<text text-anchor="start" x="178.5" y="-166" font-family="Helvetica,sans-Serif" font-size="10.00">Metadata::marking_progress</text>
<text text-anchor="middle" x="249" y="-155" font-family="Helvetica,sans-Serif" font-size="10.00">_tracker</text>
</a>
</g>
</g>
<!-- Node1&#45;&gt;Node24 -->
<g id="edge15" class="edge">
<title>Node1&#45;&gt;Node24</title>
<path fill="none" stroke="midnightblue" d="M83.33,-232.35C101.33,-222.19 126.13,-208.99 149,-199.5 154.84,-197.08 160.94,-194.73 167.12,-192.5"/>
<polygon fill="midnightblue" stroke="midnightblue" points="168.6,-195.69 176.87,-189.07 166.28,-189.09 168.6,-195.69"/>
</g>
<!-- Node25 -->
<g id="node17" class="node">
<title>Node25</title>
<g id="a_node17"><a xlink:href="namespacev8_1_1internal.html#a5b59223136254772ef018d90e009318d" target="_top" xlink:title=" ">
<polygon fill="white" stroke="black" points="173,-110 173,-129 325,-129 325,-110 173,-110"/>
<text text-anchor="middle" x="249" y="-117" font-family="Helvetica,sans-Serif" font-size="10.00">v8::internal::MemsetTagged</text>
</a>
</g>
</g>
<!-- Node1&#45;&gt;Node25 -->
<g id="edge16" class="edge">
<title>Node1&#45;&gt;Node25</title>
<path fill="none" stroke="midnightblue" d="M65.62,-232.34C79.35,-208.26 109.59,-161.65 149,-138.5 153.51,-135.85 158.31,-133.57 163.27,-131.59"/>
<polygon fill="midnightblue" stroke="midnightblue" points="164.73,-134.79 173,-128.16 162.4,-128.19 164.73,-134.79"/>
</g>
<!-- Node30 -->
<g id="node22" class="node">
<title>Node30</title>
<g id="a_node22"><a xlink:href="classv8_1_1internal_1_1TaggedArrayBase.html#afe7f2d7adb5ae1d1c0d27a2dcba39575" target="_top" xlink:title=" ">
<polygon fill="white" stroke="black" points="149,-50 149,-91 349,-91 349,-50 149,-50"/>
<text text-anchor="start" x="157" y="-79" font-family="Helvetica,sans-Serif" font-size="10.00">v8::internal::TaggedArray</text>
<text text-anchor="start" x="157" y="-68" font-family="Helvetica,sans-Serif" font-size="10.00">Base&lt; FixedArray, TaggedArrayShape</text>
<text text-anchor="middle" x="249" y="-57" font-family="Helvetica,sans-Serif" font-size="10.00"> &gt;::SizeFor</text>
</a>
</g>
</g>
<!-- Node1&#45;&gt;Node30 -->
<g id="edge22" class="edge">
<title>Node1&#45;&gt;Node30</title>
<path fill="none" stroke="midnightblue" d="M62.86,-232.05C74.04,-202.11 102.72,-135.99 149,-100.5 150.85,-99.08 152.77,-97.73 154.75,-96.44"/>
<polygon fill="midnightblue" stroke="midnightblue" points="156.87,-99.25 163.73,-91.18 153.33,-93.21 156.87,-99.25"/>
</g>
<!-- Node31 -->
<g id="node23" class="node">
<title>Node31</title>
<g id="a_node23"><a xlink:href="classv8_1_1internal_1_1AllocationResult.html#a31246fcfde98bb83ffbf3829f5a3e835" target="_top" xlink:title=" ">
<polygon fill="white" stroke="black" points="185.5,-0.5 185.5,-30.5 312.5,-30.5 312.5,-0.5 185.5,-0.5"/>
<text text-anchor="start" x="193.5" y="-18.5" font-family="Helvetica,sans-Serif" font-size="10.00">v8::internal::Allocation</text>
<text text-anchor="middle" x="249" y="-7.5" font-family="Helvetica,sans-Serif" font-size="10.00">Result::To</text>
</a>
</g>
</g>
<!-- Node1&#45;&gt;Node31 -->
<g id="edge23" class="edge">
<title>Node1&#45;&gt;Node31</title>
<path fill="none" stroke="midnightblue" d="M59.62,-232.31C65.8,-193.94 87.44,-92.45 149,-40.5 156.72,-33.98 165.91,-29.13 175.54,-25.52"/>
<polygon fill="midnightblue" stroke="midnightblue" points="176.87,-28.77 185.27,-22.31 174.67,-22.12 176.87,-28.77"/>
</g>
<!-- Node3 -->
<g id="node3" class="node">
<title>Node3</title>
<g id="a_node3"><a xlink:href="namespacev8_1_1internal.html#aa6b3743bd5d773c552654f2a6c3efa4a" target="_top" xlink:title=" ">
<polygon fill="white" stroke="black" points="415.5,-483 415.5,-502 534.5,-502 534.5,-483 415.5,-483"/>
<text text-anchor="middle" x="475" y="-490" font-family="Helvetica,sans-Serif" font-size="10.00">v8::internal::DCHECK</text>
</a>
</g>
</g>
<!-- Node2&#45;&gt;Node3 -->
<g id="edge2" class="edge">
<title>Node2&#45;&gt;Node3</title>
<path fill="none" stroke="midnightblue" d="M326.46,-463.52C355.57,-469.24 388.25,-475.66 415.44,-481"/>
<polygon fill="midnightblue" stroke="midnightblue" points="415.09,-484.49 425.57,-482.99 416.44,-477.63 415.09,-484.49"/>
</g>
<!-- Node4 -->
<g id="node4" class="node">
<title>Node4</title>
<g id="a_node4"><a xlink:href="classv8_1_1internal_1_1MarkingProgressTracker.html#a920a7f325e255bc2cf4859a088fcd522" target="_top" xlink:title=" ">
<polygon fill="white" stroke="black" points="395,-433.5 395,-463.5 555,-463.5 555,-433.5 395,-433.5"/>
<text text-anchor="start" x="403" y="-451.5" font-family="Helvetica,sans-Serif" font-size="10.00">v8::internal::MarkingProgress</text>
<text text-anchor="middle" x="475" y="-440.5" font-family="Helvetica,sans-Serif" font-size="10.00">Tracker::IsEnabled</text>
</a>
</g>
</g>
<!-- Node2&#45;&gt;Node4 -->
<g id="edge3" class="edge">
<title>Node2&#45;&gt;Node4</title>
<path fill="none" stroke="midnightblue" d="M329.29,-448.5C347.24,-448.5 366.41,-448.5 384.74,-448.5"/>
<polygon fill="midnightblue" stroke="midnightblue" points="384.82,-452 394.82,-448.5 384.82,-445 384.82,-452"/>
</g>
<!-- Node2&#45;&gt;Node5 -->
<g id="edge4" class="edge">
<title>Node2&#45;&gt;Node5</title>
<path fill="none" stroke="midnightblue" d="M326.46,-433.48C368,-425.32 416.82,-415.73 446.57,-409.89"/>
<polygon fill="midnightblue" stroke="midnightblue" points="447.48,-413.28 456.62,-407.91 446.13,-406.41 447.48,-413.28"/>
</g>
<!-- Node7 -->
<g id="node7" class="node">
<title>Node7</title>
<g id="a_node7"><a xlink:href="classv8_1_1internal_1_1LargePageMetadata.html#a50198c1c0e56d431785b8b7eea3a6049" target="_top" xlink:title=" ">
<polygon fill="white" stroke="black" points="387.5,-345.5 387.5,-375.5 562.5,-375.5 562.5,-345.5 387.5,-345.5"/>
<text text-anchor="start" x="395.5" y="-363.5" font-family="Helvetica,sans-Serif" font-size="10.00">v8::internal::LargePageMetadata</text>
<text text-anchor="middle" x="475" y="-352.5" font-family="Helvetica,sans-Serif" font-size="10.00">::cast</text>
</a>
</g>
</g>
<!-- Node6&#45;&gt;Node7 -->
<g id="edge6" class="edge">
<title>Node6&#45;&gt;Node7</title>
<path fill="none" stroke="midnightblue" d="M336.6,-360.5C349.85,-360.5 363.59,-360.5 377.04,-360.5"/>
<polygon fill="midnightblue" stroke="midnightblue" points="377.26,-364 387.26,-360.5 377.26,-357 377.26,-364"/>
</g>
<!-- Node12 -->
<g id="node10" class="node">
<title>Node12</title>
<g id="a_node10"><a xlink:href="classv8_1_1internal_1_1MutablePageMetadata.html#afd76b7261895b2043b1715d180858d29" target="_top" xlink:title=" ">
<polygon fill="white" stroke="black" points="399.5,-296.5 399.5,-326.5 550.5,-326.5 550.5,-296.5 399.5,-296.5"/>
<text text-anchor="start" x="407.5" y="-314.5" font-family="Helvetica,sans-Serif" font-size="10.00">v8::internal::MutablePage</text>
<text text-anchor="middle" x="475" y="-303.5" font-family="Helvetica,sans-Serif" font-size="10.00">Metadata::FromHeapObject</text>
</a>
</g>
</g>
<!-- Node6&#45;&gt;Node12 -->
<g id="edge9" class="edge">
<title>Node6&#45;&gt;Node12</title>
<path fill="none" stroke="midnightblue" d="M318.73,-345.47C343.03,-340.15 370.53,-334.13 395.57,-328.66"/>
<polygon fill="midnightblue" stroke="midnightblue" points="396.38,-332.06 405.4,-326.51 394.88,-325.22 396.38,-332.06"/>
</g>
<!-- Node8 -->
<g id="node8" class="node">
<title>Node8</title>
<g id="a_node8"><a xlink:href="classv8_1_1internal_1_1MemoryChunkMetadata.html#a99a35cd051fc570183122292b977fd64" target="_top" xlink:title=" ">
<polygon fill="white" stroke="red" points="602,-394.5 602,-424.5 751,-424.5 751,-394.5 602,-394.5"/>
<text text-anchor="start" x="610" y="-412.5" font-family="Helvetica,sans-Serif" font-size="10.00">v8::internal::MemoryChunk</text>
<text text-anchor="middle" x="676.5" y="-401.5" font-family="Helvetica,sans-Serif" font-size="10.00">Metadata::Chunk</text>
</a>
</g>
</g>
<!-- Node7&#45;&gt;Node8 -->
<g id="edge7" class="edge">
<title>Node7&#45;&gt;Node8</title>
<path fill="none" stroke="midnightblue" d="M537.21,-375.53C558.47,-380.76 582.48,-386.65 604.46,-392.05"/>
<polygon fill="midnightblue" stroke="midnightblue" points="603.86,-395.51 614.4,-394.49 605.53,-388.71 603.86,-395.51"/>
</g>
<!-- Node11 -->
<g id="node9" class="node">
<title>Node11</title>
<g id="a_node9"><a xlink:href="classv8_1_1internal_1_1MemoryChunk.html#af9fbfead34700f0653b0dfe65bf5d473" target="_top" xlink:title=" ">
<polygon fill="white" stroke="black" points="602,-345.5 602,-375.5 751,-375.5 751,-345.5 602,-345.5"/>
<text text-anchor="start" x="610" y="-363.5" font-family="Helvetica,sans-Serif" font-size="10.00">v8::internal::MemoryChunk</text>
<text text-anchor="middle" x="676.5" y="-352.5" font-family="Helvetica,sans-Serif" font-size="10.00">::IsLargePage</text>
</a>
</g>
</g>
<!-- Node7&#45;&gt;Node11 -->
<g id="edge8" class="edge">
<title>Node7&#45;&gt;Node11</title>
<path fill="none" stroke="midnightblue" d="M562.63,-360.5C572.21,-360.5 581.95,-360.5 591.49,-360.5"/>
<polygon fill="midnightblue" stroke="midnightblue" points="591.75,-364 601.75,-360.5 591.75,-357 591.75,-364"/>
</g>
<!-- Node13 -->
<g id="node11" class="node">
<title>Node13</title>
<g id="a_node11"><a xlink:href="classv8_1_1internal_1_1MutablePageMetadata.html#acaa892e234b2fe3170fa488f5a9a3767" target="_top" xlink:title=" ">
<polygon fill="white" stroke="red" points="606,-296.5 606,-326.5 747,-326.5 747,-296.5 606,-296.5"/>
<text text-anchor="start" x="614" y="-314.5" font-family="Helvetica,sans-Serif" font-size="10.00">v8::internal::MutablePage</text>
<text text-anchor="middle" x="676.5" y="-303.5" font-family="Helvetica,sans-Serif" font-size="10.00">Metadata::cast</text>
</a>
</g>
</g>
<!-- Node12&#45;&gt;Node13 -->
<g id="edge10" class="edge">
<title>Node12&#45;&gt;Node13</title>
<path fill="none" stroke="midnightblue" d="M550.57,-311.5C565.32,-311.5 580.85,-311.5 595.76,-311.5"/>
<polygon fill="midnightblue" stroke="midnightblue" points="595.97,-315 605.97,-311.5 595.97,-308 595.97,-315"/>
</g>
<!-- Node16 -->
<g id="node12" class="node">
<title>Node16</title>
<g id="a_node12"><a xlink:href="classv8_1_1internal_1_1MemoryChunkMetadata.html#a34b0d9ac55f0ded87015ec95d6a43d46" target="_top" xlink:title=" ">
<polygon fill="white" stroke="red" points="601,-247.5 601,-277.5 752,-277.5 752,-247.5 601,-247.5"/>
<text text-anchor="start" x="609" y="-265.5" font-family="Helvetica,sans-Serif" font-size="10.00">v8::internal::MemoryChunk</text>
<text text-anchor="middle" x="676.5" y="-254.5" font-family="Helvetica,sans-Serif" font-size="10.00">Metadata::FromHeapObject</text>
</a>
</g>
</g>
<!-- Node12&#45;&gt;Node16 -->
<g id="edge11" class="edge">
<title>Node12&#45;&gt;Node16</title>
<path fill="none" stroke="midnightblue" d="M537.21,-296.47C558.47,-291.24 582.48,-285.35 604.46,-279.95"/>
<polygon fill="midnightblue" stroke="midnightblue" points="605.53,-283.29 614.4,-277.51 603.86,-276.49 605.53,-283.29"/>
</g>
<!-- Node26 -->
<g id="node18" class="node">
<title>Node26</title>
<g id="a_node18"><a xlink:href="classv8_1_1internal_1_1V8HeapCompressionSchemeImpl.html#a10b5011eb95f6ba250e500d707c2f767" target="_top" xlink:title=" ">
<polygon fill="white" stroke="black" points="385,-148.5 385,-178.5 565,-178.5 565,-148.5 385,-148.5"/>
<text text-anchor="start" x="393" y="-166.5" font-family="Helvetica,sans-Serif" font-size="10.00">v8::internal::V8HeapCompression</text>
<text text-anchor="middle" x="475" y="-155.5" font-family="Helvetica,sans-Serif" font-size="10.00">SchemeImpl::CompressAny</text>
</a>
</g>
</g>
<!-- Node25&#45;&gt;Node26 -->
<g id="edge17" class="edge">
<title>Node25&#45;&gt;Node26</title>
<path fill="none" stroke="midnightblue" d="M300.12,-129.04C315.78,-132.04 333.11,-135.39 349,-138.5 361.98,-141.04 375.71,-143.76 389.14,-146.44"/>
<polygon fill="midnightblue" stroke="midnightblue" points="388.84,-149.94 399.33,-148.47 390.21,-143.08 388.84,-149.94"/>
</g>
<!-- Node27 -->
<g id="node19" class="node">
<title>Node27</title>
<g id="a_node19"><a xlink:href="namespacev8_1_1internal.html#ade4e5e39ec28c957990aa1eb406ae857" target="_top" xlink:title=" ">
<polygon fill="white" stroke="black" points="399,-110 399,-129 551,-129 551,-110 399,-110"/>
<text text-anchor="middle" x="475" y="-117" font-family="Helvetica,sans-Serif" font-size="10.00">v8::internal::MemsetPointer</text>
</a>
</g>
</g>
<!-- Node25&#45;&gt;Node27 -->
<g id="edge18" class="edge">
<title>Node25&#45;&gt;Node27</title>
<path fill="none" stroke="midnightblue" d="M325.21,-119.5C345.64,-119.5 367.9,-119.5 388.83,-119.5"/>
<polygon fill="midnightblue" stroke="midnightblue" points="388.99,-123 398.99,-119.5 388.99,-116 388.99,-123"/>
</g>
<!-- Node29 -->
<g id="node21" class="node">
<title>Node29</title>
<g id="a_node21"><a xlink:href="namespacev8_1_1internal.html#afc346a825a4faca215c836ee5203269c" target="_top" xlink:title=" ">
<polygon fill="white" stroke="black" points="400,-72 400,-91 550,-91 550,-72 400,-72"/>
<text text-anchor="middle" x="475" y="-79" font-family="Helvetica,sans-Serif" font-size="10.00">v8::internal::MemsetUint32</text>
</a>
</g>
</g>
<!-- Node25&#45;&gt;Node29 -->
<g id="edge20" class="edge">
<title>Node25&#45;&gt;Node29</title>
<path fill="none" stroke="midnightblue" d="M306.24,-109.96C336.99,-104.74 375.28,-98.25 407.51,-92.78"/>
<polygon fill="midnightblue" stroke="midnightblue" points="408.47,-96.17 417.74,-91.04 407.3,-89.27 408.47,-96.17"/>
</g>
<!-- Node28 -->
<g id="node20" class="node">
<title>Node28</title>
<g id="a_node20"><a xlink:href="classv8_1_1internal_1_1SlotBase.html#abbe82566f5865b2a4f282fb86e7d0783" target="_top" xlink:title=" ">
<polygon fill="white" stroke="black" points="616,-104.5 616,-134.5 737,-134.5 737,-104.5 616,-104.5"/>
<text text-anchor="start" x="624" y="-122.5" font-family="Helvetica,sans-Serif" font-size="10.00">v8::internal::SlotBase</text>
<text text-anchor="middle" x="676.5" y="-111.5" font-family="Helvetica,sans-Serif" font-size="10.00">::location</text>
</a>
</g>
</g>
<!-- Node27&#45;&gt;Node28 -->
<g id="edge19" class="edge">
<title>Node27&#45;&gt;Node28</title>
<path fill="none" stroke="midnightblue" d="M551.14,-119.5C569.05,-119.5 588.09,-119.5 605.75,-119.5"/>
<polygon fill="midnightblue" stroke="midnightblue" points="605.97,-123 615.97,-119.5 605.97,-116 605.97,-123"/>
</g>
<!-- Node32 -->
<g id="node24" class="node">
<title>Node32</title>
<g id="a_node24"><a xlink:href="classv8_1_1internal_1_1AllocationResult.html#a80c925fd9d024e9ec6da26987f40eb91" target="_top" xlink:title=" ">
<polygon fill="white" stroke="black" points="411.5,-0.5 411.5,-30.5 538.5,-30.5 538.5,-0.5 411.5,-0.5"/>
<text text-anchor="start" x="419.5" y="-18.5" font-family="Helvetica,sans-Serif" font-size="10.00">v8::internal::Allocation</text>
<text text-anchor="middle" x="475" y="-7.5" font-family="Helvetica,sans-Serif" font-size="10.00">Result::IsFailure</text>
</a>
</g>
</g>
<!-- Node31&#45;&gt;Node32 -->
<g id="edge24" class="edge">
<title>Node31&#45;&gt;Node32</title>
<path fill="none" stroke="midnightblue" d="M312.69,-15.5C340.13,-15.5 372.5,-15.5 401.01,-15.5"/>
<polygon fill="midnightblue" stroke="midnightblue" points="401.32,-19 411.32,-15.5 401.32,-12 401.32,-19"/>
</g>
<!-- Node33 -->
<g id="node25" class="node">
<title>Node33</title>
<g id="a_node25"><a xlink:href="classv8_1_1internal_1_1Tagged_3_01HeapObject_01_4.html#a0930e2a8cbe8abbc5cdd476902fe6c88" target="_top" xlink:title=" ">
<polygon fill="white" stroke="red" points="609.5,-0.5 609.5,-30.5 743.5,-30.5 743.5,-0.5 609.5,-0.5"/>
<text text-anchor="start" x="617.5" y="-18.5" font-family="Helvetica,sans-Serif" font-size="10.00">v8::internal::Tagged</text>
<text text-anchor="middle" x="676.5" y="-7.5" font-family="Helvetica,sans-Serif" font-size="10.00">&lt; HeapObject &gt;::is_null</text>
</a>
</g>
</g>
<!-- Node32&#45;&gt;Node33 -->
<g id="edge25" class="edge">
<title>Node32&#45;&gt;Node33</title>
<path fill="none" stroke="midnightblue" d="M538.58,-15.5C557.83,-15.5 579.25,-15.5 599.31,-15.5"/>
<polygon fill="midnightblue" stroke="midnightblue" points="599.35,-19 609.35,-15.5 599.35,-12 599.35,-19"/>
</g>
</g>
</svg>
