<?xml version="1.0" encoding="UTF-8" standalone="no"?>
<!DOCTYPE svg PUBLIC "-//W3C//DTD SVG 1.1//EN"
 "http://www.w3.org/Graphics/SVG/1.1/DTD/svg11.dtd">
<!-- Generated by graphviz version 2.43.0 (0)
 -->
<!-- Title: v8::internal::TransitionsAccessor::SearchTransition Pages: 1 -->
<!--zoomable 320 -->
<svg id="main" version="1.1" xmlns="http://www.w3.org/2000/svg" xmlns:xlink="http://www.w3.org/1999/xlink" xml:space="preserve" onload="init(evt)">
<style type="text/css"><![CDATA[
.edge:hover path { stroke: red; }
.edge:hover polygon { stroke: red; fill: red; }
]]></style>
<script type="text/javascript"><![CDATA[
var edges = document.getElementsByTagName('g');
if (edges && edges.length) {
  for (var i=0;i<edges.length;i++) {
    if (edges[i].id.substr(0,4)=='edge') {
      edges[i].setAttribute('class','edge');
    }
  }
}
]]></script>
        <defs>
                <circle id="rim" cx="0" cy="0" r="7"/>
                <circle id="rim2" cx="0" cy="0" r="3.5"/>
                <g id="zoomPlus">
                        <use xlink:href="#rim" fill="#404040">
                                <set attributeName="fill" to="#808080" begin="zoomplus.mouseover" end="zoomplus.mouseout"/>
                        </use>
                        <path d="M-4,0h8M0,-4v8" fill="none" stroke="white" stroke-width="1.5" pointer-events="none"/>
                </g>
                <g id="zoomMin">
                        <use xlink:href="#rim" fill="#404040">
                                <set attributeName="fill" to="#808080" begin="zoomminus.mouseover" end="zoomminus.mouseout"/>
                        </use>
                        <path d="M-4,0h8" fill="none" stroke="white" stroke-width="1.5" pointer-events="none"/>
                </g>
                <g id="dirArrow">
                        <path fill="none" stroke="white" stroke-width="1.5" d="M0,-3.0v7 M-2.5,-0.5L0,-3.0L2.5,-0.5"/>
                </g>
               <g id="resetDef">
                       <use xlink:href="#rim2" fill="#404040">
                               <set attributeName="fill" to="#808080" begin="reset.mouseover" end="reset.mouseout"/>
                       </use>
               </g>
        </defs>

<script type="text/javascript">
var viewWidth = 888;
var viewHeight = 320;
var sectionId = 'dynsection-69';
</script>
<script xlink:href="svgpan.js"/>
<svg id="graph" class="graph">
<g id="viewport">
<title>v8::internal::TransitionsAccessor::SearchTransition</title>
<polygon fill="white" stroke="transparent" points="-4,4 -4,-316.43 884,-316.43 884,4 -4,4"/>
<!-- Node1 -->
<g id="node1" class="node">
<title>Node1</title>
<g id="a_node1"><a xlink:title=" ">
<polygon fill="#bfbfbf" stroke="black" points="0,-145.59 0,-175.59 146,-175.59 146,-145.59 0,-145.59"/>
<text text-anchor="start" x="8" y="-163.59" font-family="Helvetica,sans-Serif" font-size="10.00">v8::internal::Transitions</text>
<text text-anchor="middle" x="73" y="-152.59" font-family="Helvetica,sans-Serif" font-size="10.00">Accessor::SearchTransition</text>
</a>
</g>
</g>
<!-- Node2 -->
<g id="node2" class="node">
<title>Node2</title>
<g id="a_node2"><a xlink:href="namespacev8_1_1internal.html#aa6b3743bd5d773c552654f2a6c3efa4a" target="_top" xlink:title=" ">
<polygon fill="white" stroke="black" points="744.5,-83.09 744.5,-102.09 863.5,-102.09 863.5,-83.09 744.5,-83.09"/>
<text text-anchor="middle" x="804" y="-90.09" font-family="Helvetica,sans-Serif" font-size="10.00">v8::internal::DCHECK</text>
</a>
</g>
</g>
<!-- Node1&#45;&gt;Node2 -->
<g id="edge1" class="edge">
<title>Node1&#45;&gt;Node2</title>
<path fill="none" stroke="midnightblue" d="M80.49,-175.61C94.2,-205.18 129.25,-270.23 182,-295.59 242.09,-324.47 266.71,-309.06 332,-295.59 513.15,-258.21 710.44,-147.83 778.4,-107.53"/>
<polygon fill="midnightblue" stroke="midnightblue" points="780.33,-110.46 787.12,-102.33 776.74,-104.45 780.33,-110.46"/>
</g>
<!-- Node3 -->
<g id="node3" class="node">
<title>Node3</title>
<g id="a_node3"><a xlink:href="classv8_1_1internal_1_1TransitionsAccessor.html#ae5320a66e898f3a99139acf8139b6c65" target="_top" xlink:title=" ">
<polygon fill="white" stroke="black" points="191.5,-255.59 191.5,-285.59 322.5,-285.59 322.5,-255.59 191.5,-255.59"/>
<text text-anchor="start" x="199.5" y="-273.59" font-family="Helvetica,sans-Serif" font-size="10.00">v8::internal::Transitions</text>
<text text-anchor="middle" x="257" y="-262.59" font-family="Helvetica,sans-Serif" font-size="10.00">Accessor::encoding</text>
</a>
</g>
</g>
<!-- Node1&#45;&gt;Node3 -->
<g id="edge2" class="edge">
<title>Node1&#45;&gt;Node3</title>
<path fill="none" stroke="midnightblue" d="M89.6,-175.73C109.56,-194.39 145.91,-226.05 182,-245.59 186,-247.75 190.22,-249.78 194.53,-251.67"/>
<polygon fill="midnightblue" stroke="midnightblue" points="193.51,-255.03 204.09,-255.58 196.16,-248.55 193.51,-255.03"/>
</g>
<!-- Node4 -->
<g id="node4" class="node">
<title>Node4</title>
<g id="a_node4"><a xlink:href="classv8_1_1internal_1_1Isolate.html#aee5a583715c9ad2480536ac1dcd848b3" target="_top" xlink:title=" ">
<polygon fill="white" stroke="black" points="196.5,-195.09 196.5,-236.09 317.5,-236.09 317.5,-195.09 196.5,-195.09"/>
<text text-anchor="start" x="204.5" y="-224.09" font-family="Helvetica,sans-Serif" font-size="10.00">v8::internal::Isolate</text>
<text text-anchor="start" x="204.5" y="-213.09" font-family="Helvetica,sans-Serif" font-size="10.00">::full_transition_array</text>
<text text-anchor="middle" x="257" y="-202.09" font-family="Helvetica,sans-Serif" font-size="10.00">_access</text>
</a>
</g>
</g>
<!-- Node1&#45;&gt;Node4 -->
<g id="edge3" class="edge">
<title>Node1&#45;&gt;Node4</title>
<path fill="none" stroke="midnightblue" d="M123.73,-175.62C143.09,-181.47 165.6,-188.27 186.5,-194.59"/>
<polygon fill="midnightblue" stroke="midnightblue" points="185.71,-198 196.3,-197.55 187.74,-191.3 185.71,-198"/>
</g>
<!-- Node5 -->
<g id="node5" class="node">
<title>Node5</title>
<g id="a_node5"><a xlink:href="classv8_1_1internal_1_1TransitionsAccessor.html#aa2c0c28d9eb567a2052856b673204dc7" target="_top" xlink:title=" ">
<polygon fill="white" stroke="black" points="187,-145.59 187,-175.59 327,-175.59 327,-145.59 187,-145.59"/>
<text text-anchor="start" x="195" y="-163.59" font-family="Helvetica,sans-Serif" font-size="10.00">v8::internal::Transitions</text>
<text text-anchor="middle" x="257" y="-152.59" font-family="Helvetica,sans-Serif" font-size="10.00">Accessor::IsMatchingMap</text>
</a>
</g>
</g>
<!-- Node1&#45;&gt;Node5 -->
<g id="edge4" class="edge">
<title>Node1&#45;&gt;Node5</title>
<path fill="none" stroke="midnightblue" d="M146.19,-160.59C156.24,-160.59 166.61,-160.59 176.78,-160.59"/>
<polygon fill="midnightblue" stroke="midnightblue" points="176.86,-164.09 186.86,-160.59 176.86,-157.09 176.86,-164.09"/>
</g>
<!-- Node6 -->
<g id="node6" class="node">
<title>Node6</title>
<g id="a_node6"><a xlink:href="namespacev8_1_1internal.html#aadfafc505df78c7e9c96f8ce883f0982" target="_top" xlink:title=" ">
<polygon fill="white" stroke="black" points="182,-107.09 182,-126.09 332,-126.09 332,-107.09 182,-107.09"/>
<text text-anchor="middle" x="257" y="-114.09" font-family="Helvetica,sans-Serif" font-size="10.00">v8::internal::IsUniqueName</text>
</a>
</g>
</g>
<!-- Node1&#45;&gt;Node6 -->
<g id="edge5" class="edge">
<title>Node1&#45;&gt;Node6</title>
<path fill="none" stroke="midnightblue" d="M136.13,-145.57C159.15,-140 184.93,-133.77 206.66,-128.52"/>
<polygon fill="midnightblue" stroke="midnightblue" points="207.76,-131.85 216.65,-126.1 206.11,-125.05 207.76,-131.85"/>
</g>
<!-- Node7 -->
<g id="node7" class="node">
<title>Node7</title>
<g id="a_node7"><a xlink:href="classv8_1_1internal_1_1TransitionsAccessor.html#a6959c09ff5b763fcd1cfcae288654d15" target="_top" xlink:title=" ">
<polygon fill="white" stroke="black" points="191.5,-57.59 191.5,-87.59 322.5,-87.59 322.5,-57.59 191.5,-57.59"/>
<text text-anchor="start" x="199.5" y="-75.59" font-family="Helvetica,sans-Serif" font-size="10.00">v8::internal::Transitions</text>
<text text-anchor="middle" x="257" y="-64.59" font-family="Helvetica,sans-Serif" font-size="10.00">Accessor::transitions</text>
</a>
</g>
</g>
<!-- Node1&#45;&gt;Node7 -->
<g id="edge6" class="edge">
<title>Node1&#45;&gt;Node7</title>
<path fill="none" stroke="midnightblue" d="M96.87,-145.41C118.24,-131.68 151.37,-111.52 182,-97.59 186.94,-95.34 192.14,-93.19 197.4,-91.15"/>
<polygon fill="midnightblue" stroke="midnightblue" points="198.74,-94.39 206.89,-87.62 196.3,-87.83 198.74,-94.39"/>
</g>
<!-- Node10 -->
<g id="node10" class="node">
<title>Node10</title>
<g id="a_node10"><a xlink:href="namespacev8_1_1internal.html#acdec713c25068019f935e35976f5b666" target="_top" xlink:title=" ">
<polygon fill="white" stroke="black" points="728,-42.09 728,-61.09 880,-61.09 880,-42.09 728,-42.09"/>
<text text-anchor="middle" x="804" y="-49.09" font-family="Helvetica,sans-Serif" font-size="10.00">v8::internal::UNREACHABLE</text>
</a>
</g>
</g>
<!-- Node1&#45;&gt;Node10 -->
<g id="edge11" class="edge">
<title>Node1&#45;&gt;Node10</title>
<path fill="none" stroke="midnightblue" d="M82.63,-145.56C98.45,-119.73 134.84,-67.75 182,-47.59 381.8,37.83 651.89,-13.72 757.77,-39.52"/>
<polygon fill="midnightblue" stroke="midnightblue" points="757.24,-43 767.79,-42.01 758.93,-36.21 757.24,-43"/>
</g>
<!-- Node8 -->
<g id="node8" class="node">
<title>Node8</title>
<g id="a_node8"><a xlink:href="classv8_1_1internal_1_1TransitionsAccessor.html#a49e266590e2ab24a705ebe6f73bfa9de" target="_top" xlink:title=" ">
<polygon fill="white" stroke="black" points="368,-57.59 368,-87.59 525,-87.59 525,-57.59 368,-57.59"/>
<text text-anchor="start" x="376" y="-75.59" font-family="Helvetica,sans-Serif" font-size="10.00">v8::internal::Transitions</text>
<text text-anchor="middle" x="446.5" y="-64.59" font-family="Helvetica,sans-Serif" font-size="10.00">Accessor::GetTransitionArray</text>
</a>
</g>
</g>
<!-- Node7&#45;&gt;Node8 -->
<g id="edge7" class="edge">
<title>Node7&#45;&gt;Node8</title>
<path fill="none" stroke="midnightblue" d="M322.53,-72.59C333.83,-72.59 345.77,-72.59 357.58,-72.59"/>
<polygon fill="midnightblue" stroke="midnightblue" points="357.91,-76.09 367.91,-72.59 357.91,-69.09 357.91,-76.09"/>
</g>
<!-- Node9 -->
<g id="node9" class="node">
<title>Node9</title>
<g id="a_node9"><a xlink:href="classv8_1_1internal_1_1TransitionsAccessor.html#aea83ada888050eba6c464da4b7dbb523" target="_top" xlink:title=" ">
<polygon fill="white" stroke="black" points="561,-57.59 561,-87.59 692,-87.59 692,-57.59 561,-57.59"/>
<text text-anchor="start" x="569" y="-75.59" font-family="Helvetica,sans-Serif" font-size="10.00">v8::internal::Transitions</text>
<text text-anchor="middle" x="626.5" y="-64.59" font-family="Helvetica,sans-Serif" font-size="10.00">Accessor::GetEncoding</text>
</a>
</g>
</g>
<!-- Node8&#45;&gt;Node9 -->
<g id="edge8" class="edge">
<title>Node8&#45;&gt;Node9</title>
<path fill="none" stroke="midnightblue" d="M525.06,-72.59C533.58,-72.59 542.25,-72.59 550.74,-72.59"/>
<polygon fill="midnightblue" stroke="midnightblue" points="550.99,-76.09 560.99,-72.59 550.99,-69.09 550.99,-76.09"/>
</g>
<!-- Node9&#45;&gt;Node2 -->
<g id="edge9" class="edge">
<title>Node9&#45;&gt;Node2</title>
<path fill="none" stroke="midnightblue" d="M692.35,-79.98C705.89,-81.52 720.21,-83.15 733.9,-84.71"/>
<polygon fill="midnightblue" stroke="midnightblue" points="733.88,-88.23 744.22,-85.89 734.68,-81.28 733.88,-88.23"/>
</g>
<!-- Node9&#45;&gt;Node10 -->
<g id="edge10" class="edge">
<title>Node9&#45;&gt;Node10</title>
<path fill="none" stroke="midnightblue" d="M692.35,-64.83C700.63,-63.84 709.21,-62.81 717.75,-61.79"/>
<polygon fill="midnightblue" stroke="midnightblue" points="718.23,-65.26 727.74,-60.59 717.4,-58.31 718.23,-65.26"/>
</g>
</g>
</svg>
        <g id="navigator" transform="translate(0 0)" fill="#404254">
                <rect fill="#f2f5e9" fill-opacity="0.5" stroke="#606060" stroke-width=".5" x="0" y="0" width="60" height="60"/>
                <use id="zoomplus" xlink:href="#zoomPlus" x="17" y="9" onmousedown="handleZoom(evt,'in')"/>
                <use id="zoomminus" xlink:href="#zoomMin" x="42" y="9" onmousedown="handleZoom(evt,'out')"/>
                <use id="reset" xlink:href="#resetDef" x="30" y="36" onmousedown="handleReset()"/>
                <g id="arrowUp" xlink:href="#dirArrow" transform="translate(30 24)" onmousedown="handlePan(0,-1)">
                  <use xlink:href="#rim" fill="#404040">
                        <set attributeName="fill" to="#808080" begin="arrowUp.mouseover" end="arrowUp.mouseout"/>
                  </use>
                  <path fill="none" stroke="white" stroke-width="1.5" d="M0,-3.0v7 M-2.5,-0.5L0,-3.0L2.5,-0.5"/>
                </g>
                <g id="arrowRight" xlink:href="#dirArrow" transform="rotate(90) translate(36 -43)" onmousedown="handlePan(1,0)">
                  <use xlink:href="#rim" fill="#404040">
                        <set attributeName="fill" to="#808080" begin="arrowRight.mouseover" end="arrowRight.mouseout"/>
                  </use>
                  <path fill="none" stroke="white" stroke-width="1.5" d="M0,-3.0v7 M-2.5,-0.5L0,-3.0L2.5,-0.5"/>
                </g>
                <g id="arrowDown" xlink:href="#dirArrow" transform="rotate(180) translate(-30 -48)" onmousedown="handlePan(0,1)">
                  <use xlink:href="#rim" fill="#404040">
                        <set attributeName="fill" to="#808080" begin="arrowDown.mouseover" end="arrowDown.mouseout"/>
                  </use>
                  <path fill="none" stroke="white" stroke-width="1.5" d="M0,-3.0v7 M-2.5,-0.5L0,-3.0L2.5,-0.5"/>
                </g>
                <g id="arrowLeft" xlink:href="#dirArrow" transform="rotate(270) translate(-36 17)" onmousedown="handlePan(-1,0)">
                  <use xlink:href="#rim" fill="#404040">
                        <set attributeName="fill" to="#808080" begin="arrowLeft.mouseover" end="arrowLeft.mouseout"/>
                  </use>
                  <path fill="none" stroke="white" stroke-width="1.5" d="M0,-3.0v7 M-2.5,-0.5L0,-3.0L2.5,-0.5"/>
                </g>
        </g>
        <svg viewBox="0 0 15 15" width="100%" height="30px" preserveAspectRatio="xMaxYMin meet">
         <g id="arrow_out" transform="scale(0.3 0.3)">
          <a xlink:href="classv8_1_1internal_1_1TransitionsAccessor_a34d5580f0039113ee34e43ca052b5262_cgraph_org.svg" target="_base">
           <rect id="button" ry="5" rx="5" y="6" x="6" height="38" width="38"
                fill="#f2f5e9" fill-opacity="0.5" stroke="#606060" stroke-width="1.0"/>
           <path id="arrow"
             d="M 11.500037,31.436501 C 11.940474,20.09759 22.043105,11.32322 32.158766,21.979434 L 37.068811,17.246167 C 37.068811,17.246167 37.088388,32 37.088388,32 L 22.160133,31.978069 C 22.160133,31.978069 26.997745,27.140456 26.997745,27.140456 C 18.528582,18.264221 13.291696,25.230495 11.500037,31.436501 z"
             style="fill:#404040;"/>
          </a>
         </g>
        </svg>
</svg>
