<?xml version="1.0" encoding="UTF-8" standalone="no"?>
<!DOCTYPE svg PUBLIC "-//W3C//DTD SVG 1.1//EN"
 "http://www.w3.org/Graphics/SVG/1.1/DTD/svg11.dtd">
<!-- Generated by graphviz version 2.43.0 (0)
 -->
<!-- Title: v8::internal::ContextDeserializer::DeserializeContext Pages: 1 -->
<svg width="1025pt" height="789pt"
 viewBox="0.00 0.00 1025.00 789.00" xmlns="http://www.w3.org/2000/svg" xmlns:xlink="http://www.w3.org/1999/xlink">
<g id="graph0" class="graph" transform="scale(1 1) rotate(0) translate(4 785)">
<title>v8::internal::ContextDeserializer::DeserializeContext</title>
<polygon fill="white" stroke="transparent" points="-4,4 -4,-785 1021,-785 1021,4 -4,4"/>
<!-- Node1 -->
<g id="node1" class="node">
<title>Node1</title>
<g id="a_node1"><a xlink:title=" ">
<polygon fill="#bfbfbf" stroke="black" points="0,-221.5 0,-251.5 175,-251.5 175,-221.5 0,-221.5"/>
<text text-anchor="start" x="8" y="-239.5" font-family="Helvetica,sans-Serif" font-size="10.00">v8::internal::ContextDeserializer</text>
<text text-anchor="middle" x="87.5" y="-228.5" font-family="Helvetica,sans-Serif" font-size="10.00">::DeserializeContext</text>
</a>
</g>
</g>
<!-- Node2 -->
<g id="node2" class="node">
<title>Node2</title>
<g id="a_node2"><a xlink:href="classv8_1_1internal_1_1Isolate.html#a9690b82e4f9b4c8a9160630396cde0b3" target="_top" xlink:title=" ">
<polygon fill="white" stroke="black" points="243,-750.5 243,-780.5 354,-780.5 354,-750.5 243,-750.5"/>
<text text-anchor="start" x="251" y="-768.5" font-family="Helvetica,sans-Serif" font-size="10.00">v8::internal::Isolate</text>
<text text-anchor="middle" x="298.5" y="-757.5" font-family="Helvetica,sans-Serif" font-size="10.00">::counters</text>
</a>
</g>
</g>
<!-- Node1&#45;&gt;Node2 -->
<g id="edge1" class="edge">
<title>Node1&#45;&gt;Node2</title>
<path fill="none" stroke="midnightblue" d="M90.29,-251.88C99.43,-327.67 142.97,-660.82 211,-735.5 217.21,-742.32 225.05,-747.58 233.46,-751.66"/>
<polygon fill="midnightblue" stroke="midnightblue" points="232.18,-754.92 242.76,-755.62 234.93,-748.48 232.18,-754.92"/>
</g>
<!-- Node3 -->
<g id="node3" class="node">
<title>Node3</title>
<g id="a_node3"><a xlink:href="classv8_1_1internal_1_1ContextDeserializer.html#a2c81feb482988147e61536ad7de717b6" target="_top" xlink:title=" ">
<polygon fill="white" stroke="black" points="211,-368.5 211,-398.5 386,-398.5 386,-368.5 211,-368.5"/>
<text text-anchor="start" x="219" y="-386.5" font-family="Helvetica,sans-Serif" font-size="10.00">v8::internal::ContextDeserializer</text>
<text text-anchor="middle" x="298.5" y="-375.5" font-family="Helvetica,sans-Serif" font-size="10.00">::Deserialize</text>
</a>
</g>
</g>
<!-- Node1&#45;&gt;Node3 -->
<g id="edge2" class="edge">
<title>Node1&#45;&gt;Node3</title>
<path fill="none" stroke="midnightblue" d="M101.35,-251.77C122.19,-275.71 165.62,-322.24 211,-350.5 219.6,-355.85 229.2,-360.57 238.79,-364.64"/>
<polygon fill="midnightblue" stroke="midnightblue" points="237.77,-368 248.35,-368.49 240.38,-361.51 237.77,-368"/>
</g>
<!-- Node16 -->
<g id="node14" class="node">
<title>Node16</title>
<g id="a_node14"><a xlink:href="classv8_1_1internal_1_1Deserializer.html#a6348165978f842cf06e5da146a603c1e" target="_top" xlink:title=" ">
<polygon fill="white" stroke="black" points="690.5,-654.5 690.5,-684.5 827.5,-684.5 827.5,-654.5 690.5,-654.5"/>
<text text-anchor="start" x="698.5" y="-672.5" font-family="Helvetica,sans-Serif" font-size="10.00">v8::internal::Deserializer</text>
<text text-anchor="middle" x="759" y="-661.5" font-family="Helvetica,sans-Serif" font-size="10.00">&lt; Isolate &gt;::isolate</text>
</a>
</g>
</g>
<!-- Node1&#45;&gt;Node16 -->
<g id="edge44" class="edge">
<title>Node1&#45;&gt;Node16</title>
<path fill="none" stroke="midnightblue" d="M93.58,-251.61C117.35,-319.49 224.73,-597.27 422,-697.5 516.01,-745.26 644.09,-711.94 711.74,-688"/>
<polygon fill="midnightblue" stroke="midnightblue" points="713.06,-691.24 721.27,-684.55 710.68,-684.66 713.06,-691.24"/>
</g>
<!-- Node27 -->
<g id="node25" class="node">
<title>Node27</title>
<g id="a_node25"><a xlink:href="classv8_1_1base_1_1ElapsedTimer.html#a322a9d18bf9a1a89a232fc014639207b" target="_top" xlink:title=" ">
<polygon fill="white" stroke="black" points="233,-243.5 233,-273.5 364,-273.5 364,-243.5 233,-243.5"/>
<text text-anchor="start" x="241" y="-261.5" font-family="Helvetica,sans-Serif" font-size="10.00">v8::base::ElapsedTimer</text>
<text text-anchor="middle" x="298.5" y="-250.5" font-family="Helvetica,sans-Serif" font-size="10.00">::Elapsed</text>
</a>
</g>
</g>
<!-- Node1&#45;&gt;Node27 -->
<g id="edge37" class="edge">
<title>Node1&#45;&gt;Node27</title>
<path fill="none" stroke="midnightblue" d="M175.02,-245.61C190.86,-247.27 207.28,-249 222.74,-250.63"/>
<polygon fill="midnightblue" stroke="midnightblue" points="222.44,-254.12 232.75,-251.68 223.17,-247.16 222.44,-254.12"/>
</g>
<!-- Node32 -->
<g id="node29" class="node">
<title>Node32</title>
<g id="a_node29"><a xlink:href="classv8_1_1base_1_1TimeDelta.html#a494cc64764a7ba009367e2e8b64496de" target="_top" xlink:title=" ">
<polygon fill="white" stroke="black" points="241,-310.5 241,-340.5 356,-340.5 356,-310.5 241,-310.5"/>
<text text-anchor="start" x="249" y="-328.5" font-family="Helvetica,sans-Serif" font-size="10.00">v8::base::TimeDelta</text>
<text text-anchor="middle" x="298.5" y="-317.5" font-family="Helvetica,sans-Serif" font-size="10.00">::InMillisecondsF</text>
</a>
</g>
</g>
<!-- Node1&#45;&gt;Node32 -->
<g id="edge42" class="edge">
<title>Node1&#45;&gt;Node32</title>
<path fill="none" stroke="midnightblue" d="M113.08,-251.59C137.28,-265.96 175.66,-287.42 211,-301.5 217.32,-304.02 224.01,-306.38 230.74,-308.56"/>
<polygon fill="midnightblue" stroke="midnightblue" points="230.02,-312 240.61,-311.62 232.1,-305.31 230.02,-312"/>
</g>
<!-- Node34 -->
<g id="node31" class="node">
<title>Node34</title>
<g id="a_node31"><a xlink:href="namespacev8_1_1internal.html#a3430752cde9f29d73e97ceed1bce0856" target="_top" xlink:title=" ">
<polygon fill="white" stroke="black" points="245,-205 245,-224 352,-224 352,-205 245,-205"/>
<text text-anchor="middle" x="298.5" y="-212" font-family="Helvetica,sans-Serif" font-size="10.00">v8::internal::PrintF</text>
</a>
</g>
</g>
<!-- Node1&#45;&gt;Node34 -->
<g id="edge45" class="edge">
<title>Node1&#45;&gt;Node34</title>
<path fill="none" stroke="midnightblue" d="M175.02,-227.39C195.01,-225.29 215.91,-223.09 234.66,-221.11"/>
<polygon fill="midnightblue" stroke="midnightblue" points="235.27,-224.57 244.85,-220.04 234.53,-217.61 235.27,-224.57"/>
</g>
<!-- Node35 -->
<g id="node32" class="node">
<title>Node35</title>
<g id="a_node32"><a xlink:href="classv8_1_1internal_1_1SnapshotData.html#a7b07ad292a21de871dd9ecb4b3718b73" target="_top" xlink:title=" ">
<polygon fill="white" stroke="black" points="225.5,-155.5 225.5,-185.5 371.5,-185.5 371.5,-155.5 225.5,-155.5"/>
<text text-anchor="start" x="233.5" y="-173.5" font-family="Helvetica,sans-Serif" font-size="10.00">v8::internal::SnapshotData</text>
<text text-anchor="middle" x="298.5" y="-162.5" font-family="Helvetica,sans-Serif" font-size="10.00">::RawData</text>
</a>
</g>
</g>
<!-- Node1&#45;&gt;Node35 -->
<g id="edge46" class="edge">
<title>Node1&#45;&gt;Node35</title>
<path fill="none" stroke="midnightblue" d="M132.01,-221.45C155.36,-213.49 184.66,-203.71 211,-195.5 218.45,-193.18 226.28,-190.81 234.07,-188.5"/>
<polygon fill="midnightblue" stroke="midnightblue" points="235.26,-191.8 243.87,-185.62 233.29,-185.09 235.26,-191.8"/>
</g>
<!-- Node36 -->
<g id="node33" class="node">
<title>Node36</title>
<g id="a_node33"><a xlink:href="classv8_1_1base_1_1Vector.html#a8f91dff816409fb9bceaa94c6caeec32" target="_top" xlink:title=" ">
<polygon fill="white" stroke="black" points="238.5,-117 238.5,-136 358.5,-136 358.5,-117 238.5,-117"/>
<text text-anchor="middle" x="298.5" y="-124" font-family="Helvetica,sans-Serif" font-size="10.00">v8::base::Vector::size</text>
</a>
</g>
</g>
<!-- Node1&#45;&gt;Node36 -->
<g id="edge47" class="edge">
<title>Node1&#45;&gt;Node36</title>
<path fill="none" stroke="midnightblue" d="M104.55,-221.3C126.72,-201.15 168.79,-165.88 211,-146.5 217.31,-143.6 224.07,-141.11 230.93,-138.96"/>
<polygon fill="midnightblue" stroke="midnightblue" points="232.38,-142.19 241.02,-136.06 230.44,-135.46 232.38,-142.19"/>
</g>
<!-- Node37 -->
<g id="node34" class="node">
<title>Node37</title>
<g id="a_node34"><a xlink:href="classv8_1_1base_1_1ElapsedTimer.html#a451f6e2636acacce40e1dad13fbf7a20" target="_top" xlink:title=" ">
<polygon fill="white" stroke="black" points="233,-49.5 233,-79.5 364,-79.5 364,-49.5 233,-49.5"/>
<text text-anchor="start" x="241" y="-67.5" font-family="Helvetica,sans-Serif" font-size="10.00">v8::base::ElapsedTimer</text>
<text text-anchor="middle" x="298.5" y="-56.5" font-family="Helvetica,sans-Serif" font-size="10.00">::Start</text>
</a>
</g>
</g>
<!-- Node1&#45;&gt;Node37 -->
<g id="edge48" class="edge">
<title>Node1&#45;&gt;Node37</title>
<path fill="none" stroke="midnightblue" d="M99.95,-221.33C120.13,-195.4 164.3,-142 211,-107.5 223.17,-98.51 237.49,-90.52 250.95,-83.94"/>
<polygon fill="midnightblue" stroke="midnightblue" points="252.55,-87.05 260.09,-79.61 249.56,-80.73 252.55,-87.05"/>
</g>
<!-- Node38 -->
<g id="node35" class="node">
<title>Node38</title>
<g id="a_node35"><a xlink:href="classv8_1_1internal_1_1MaybeDirectHandle.html#a7c6aa1159cd89fe343afabcaad620b98" target="_top" xlink:title=" ">
<polygon fill="white" stroke="black" points="228.5,-0.5 228.5,-30.5 368.5,-30.5 368.5,-0.5 228.5,-0.5"/>
<text text-anchor="start" x="236.5" y="-18.5" font-family="Helvetica,sans-Serif" font-size="10.00">v8::internal::MaybeDirect</text>
<text text-anchor="middle" x="298.5" y="-7.5" font-family="Helvetica,sans-Serif" font-size="10.00">Handle::ToHandle</text>
</a>
</g>
</g>
<!-- Node1&#45;&gt;Node38 -->
<g id="edge51" class="edge">
<title>Node1&#45;&gt;Node38</title>
<path fill="none" stroke="midnightblue" d="M93.62,-221.36C106.86,-184.54 145.83,-89.71 211,-40.5 213.62,-38.52 216.39,-36.7 219.27,-35.02"/>
<polygon fill="midnightblue" stroke="midnightblue" points="220.93,-38.11 228.2,-30.41 217.71,-31.89 220.93,-38.11"/>
</g>
<!-- Node4 -->
<g id="node4" class="node">
<title>Node4</title>
<g id="a_node4"><a xlink:href="classv8_1_1internal_1_1Deserializer.html#aced172ee3e0c83525991e950230555d8" target="_top" xlink:title=" ">
<polygon fill="white" stroke="black" points="435,-221.5 435,-251.5 607,-251.5 607,-221.5 435,-221.5"/>
<text text-anchor="start" x="443" y="-239.5" font-family="Helvetica,sans-Serif" font-size="10.00">v8::internal::Deserializer</text>
<text text-anchor="middle" x="521" y="-228.5" font-family="Helvetica,sans-Serif" font-size="10.00">&lt; Isolate &gt;::AddAttachedObject</text>
</a>
</g>
</g>
<!-- Node3&#45;&gt;Node4 -->
<g id="edge3" class="edge">
<title>Node3&#45;&gt;Node4</title>
<path fill="none" stroke="midnightblue" d="M358.75,-368.42C368.72,-363.89 378.31,-358.04 386,-350.5 416.47,-320.63 389.87,-289.57 422,-261.5 423.77,-259.95 425.63,-258.5 427.55,-257.13"/>
<polygon fill="midnightblue" stroke="midnightblue" points="429.72,-259.91 436.4,-251.68 426.05,-253.95 429.72,-259.91"/>
</g>
<!-- Node5 -->
<g id="node5" class="node">
<title>Node5</title>
<g id="a_node5"><a xlink:href="namespacev8_1_1internal.html#aa6b3743bd5d773c552654f2a6c3efa4a" target="_top" xlink:title=" ">
<polygon fill="white" stroke="black" points="898,-172 898,-191 1017,-191 1017,-172 898,-172"/>
<text text-anchor="middle" x="957.5" y="-179" font-family="Helvetica,sans-Serif" font-size="10.00">v8::internal::DCHECK</text>
</a>
</g>
</g>
<!-- Node3&#45;&gt;Node5 -->
<g id="edge4" class="edge">
<title>Node3&#45;&gt;Node5</title>
<path fill="none" stroke="midnightblue" d="M362.63,-368.3C371.49,-363.81 379.7,-358.01 386,-350.5 440.41,-285.67 356.74,-217.39 422,-163.5 492.85,-104.99 773.67,-147.72 897.42,-170.11"/>
<polygon fill="midnightblue" stroke="midnightblue" points="897.01,-173.59 907.47,-171.95 898.26,-166.71 897.01,-173.59"/>
</g>
<!-- Node6 -->
<g id="node6" class="node">
<title>Node6</title>
<g id="a_node6"><a xlink:href="classv8_1_1internal_1_1ContextDeserializer.html#a124fc02a2cb6e6013910ccab4d270032" target="_top" xlink:title=" ">
<polygon fill="white" stroke="black" points="433.5,-515.5 433.5,-545.5 608.5,-545.5 608.5,-515.5 433.5,-515.5"/>
<text text-anchor="start" x="441.5" y="-533.5" font-family="Helvetica,sans-Serif" font-size="10.00">v8::internal::ContextDeserializer</text>
<text text-anchor="middle" x="521" y="-522.5" font-family="Helvetica,sans-Serif" font-size="10.00">::DeserializeApiWrapperFields</text>
</a>
</g>
</g>
<!-- Node3&#45;&gt;Node6 -->
<g id="edge5" class="edge">
<title>Node3&#45;&gt;Node6</title>
<path fill="none" stroke="midnightblue" d="M310.09,-398.61C329.26,-424.8 372.39,-478.5 422,-506.5 425.24,-508.33 428.62,-510.02 432.09,-511.58"/>
<polygon fill="midnightblue" stroke="midnightblue" points="430.88,-514.87 441.46,-515.43 433.54,-508.39 430.88,-514.87"/>
</g>
<!-- Node3&#45;&gt;Node16 -->
<g id="edge31" class="edge">
<title>Node3&#45;&gt;Node16</title>
<path fill="none" stroke="midnightblue" d="M300.65,-398.61C305.29,-447.43 327.19,-601.39 422,-664.5 504.33,-719.3 624.96,-703.72 697.07,-686.93"/>
<polygon fill="midnightblue" stroke="midnightblue" points="698.01,-690.31 706.91,-684.56 696.37,-683.5 698.01,-690.31"/>
</g>
<!-- Node19 -->
<g id="node17" class="node">
<title>Node19</title>
<g id="a_node17"><a xlink:href="classv8_1_1internal_1_1Deserializer.html#af0a52009e7b41a4c3480b5602b5bfcd7" target="_top" xlink:title=" ">
<polygon fill="white" stroke="black" points="433,-614 433,-655 609,-655 609,-614 433,-614"/>
<text text-anchor="start" x="441" y="-643" font-family="Helvetica,sans-Serif" font-size="10.00">v8::internal::Deserializer</text>
<text text-anchor="start" x="441" y="-632" font-family="Helvetica,sans-Serif" font-size="10.00">&lt; Isolate &gt;::DeserializeDeferred</text>
<text text-anchor="middle" x="521" y="-621" font-family="Helvetica,sans-Serif" font-size="10.00">Objects</text>
</a>
</g>
</g>
<!-- Node3&#45;&gt;Node19 -->
<g id="edge17" class="edge">
<title>Node3&#45;&gt;Node19</title>
<path fill="none" stroke="midnightblue" d="M303.57,-398.7C315.07,-438.65 351.61,-547.48 422,-604.5 423.61,-605.8 425.27,-607.05 426.98,-608.24"/>
<polygon fill="midnightblue" stroke="midnightblue" points="425.55,-611.47 435.9,-613.76 429.24,-605.52 425.55,-611.47"/>
</g>
<!-- Node20 -->
<g id="node18" class="node">
<title>Node20</title>
<g id="a_node18"><a xlink:href="classv8_1_1internal_1_1ContextDeserializer.html#ad31f8e7152d421fcfd982db3f97374fa" target="_top" xlink:title=" ">
<polygon fill="white" stroke="black" points="433.5,-172.5 433.5,-202.5 608.5,-202.5 608.5,-172.5 433.5,-172.5"/>
<text text-anchor="start" x="441.5" y="-190.5" font-family="Helvetica,sans-Serif" font-size="10.00">v8::internal::ContextDeserializer</text>
<text text-anchor="middle" x="521" y="-179.5" font-family="Helvetica,sans-Serif" font-size="10.00">::DeserializeEmbedderFields</text>
</a>
</g>
</g>
<!-- Node3&#45;&gt;Node20 -->
<g id="edge18" class="edge">
<title>Node3&#45;&gt;Node20</title>
<path fill="none" stroke="midnightblue" d="M361.34,-368.37C370.57,-363.87 379.24,-358.04 386,-350.5 428.31,-303.3 377.06,-257.2 422,-212.5 423.45,-211.06 424.97,-209.7 426.54,-208.41"/>
<polygon fill="midnightblue" stroke="midnightblue" points="428.7,-211.18 434.91,-202.59 424.7,-205.43 428.7,-211.18"/>
</g>
<!-- Node21 -->
<g id="node19" class="node">
<title>Node21</title>
<g id="a_node19"><a xlink:href="namespacev8_1_1internal.html#a73502f55102d18cb764881bc29f35c05" target="_top" xlink:title=" ">
<polygon fill="white" stroke="black" points="468,-564.5 468,-594.5 574,-594.5 574,-564.5 468,-564.5"/>
<text text-anchor="start" x="476" y="-582.5" font-family="Helvetica,sans-Serif" font-size="10.00">v8::internal::direct</text>
<text text-anchor="middle" x="521" y="-571.5" font-family="Helvetica,sans-Serif" font-size="10.00">_handle</text>
</a>
</g>
</g>
<!-- Node3&#45;&gt;Node21 -->
<g id="edge30" class="edge">
<title>Node3&#45;&gt;Node21</title>
<path fill="none" stroke="midnightblue" d="M305.81,-398.68C320.69,-432.51 361.32,-514.34 422,-555.5 432.64,-562.72 445.23,-567.77 457.78,-571.3"/>
<polygon fill="midnightblue" stroke="midnightblue" points="457.25,-574.78 467.8,-573.82 458.96,-567.99 457.25,-574.78"/>
</g>
<!-- Node22 -->
<g id="node20" class="node">
<title>Node22</title>
<g id="a_node20"><a xlink:href="classv8_1_1internal_1_1Deserializer.html#af862b39a0cb006b9ddb476d1410196d1" target="_top" xlink:title=" ">
<polygon fill="white" stroke="black" points="435.5,-466.5 435.5,-496.5 606.5,-496.5 606.5,-466.5 435.5,-466.5"/>
<text text-anchor="start" x="443.5" y="-484.5" font-family="Helvetica,sans-Serif" font-size="10.00">v8::internal::Deserializer</text>
<text text-anchor="middle" x="521" y="-473.5" font-family="Helvetica,sans-Serif" font-size="10.00">&lt; Isolate &gt;::LogNewMapEvents</text>
</a>
</g>
</g>
<!-- Node3&#45;&gt;Node22 -->
<g id="edge32" class="edge">
<title>Node3&#45;&gt;Node22</title>
<path fill="none" stroke="midnightblue" d="M320.14,-398.67C343.69,-415.31 383.88,-441.75 422,-457.5 427.11,-459.61 432.45,-461.57 437.88,-463.37"/>
<polygon fill="midnightblue" stroke="midnightblue" points="437.15,-466.81 447.74,-466.46 439.25,-460.13 437.15,-466.81"/>
</g>
<!-- Node23 -->
<g id="node21" class="node">
<title>Node23</title>
<g id="a_node21"><a xlink:href="classv8_1_1internal_1_1Deserializer.html#a16fead842ed74030e1e5f73f306b3546" target="_top" xlink:title=" ">
<polygon fill="white" stroke="black" points="452.5,-417.5 452.5,-447.5 589.5,-447.5 589.5,-417.5 452.5,-417.5"/>
<text text-anchor="start" x="460.5" y="-435.5" font-family="Helvetica,sans-Serif" font-size="10.00">v8::internal::Deserializer</text>
<text text-anchor="middle" x="521" y="-424.5" font-family="Helvetica,sans-Serif" font-size="10.00">&lt; Isolate &gt;::ReadObject</text>
</a>
</g>
</g>
<!-- Node3&#45;&gt;Node23 -->
<g id="edge33" class="edge">
<title>Node3&#45;&gt;Node23</title>
<path fill="none" stroke="midnightblue" d="M367.16,-398.53C390.97,-403.83 417.91,-409.81 442.47,-415.27"/>
<polygon fill="midnightblue" stroke="midnightblue" points="441.95,-418.74 452.47,-417.49 443.47,-411.91 441.95,-418.74"/>
</g>
<!-- Node24 -->
<g id="node22" class="node">
<title>Node24</title>
<g id="a_node22"><a xlink:href="classv8_1_1internal_1_1Deserializer.html#ab0b69ae99f61286e8c56f718e4f74c8a" target="_top" xlink:title=" ">
<polygon fill="white" stroke="black" points="452.5,-368.5 452.5,-398.5 589.5,-398.5 589.5,-368.5 452.5,-368.5"/>
<text text-anchor="start" x="460.5" y="-386.5" font-family="Helvetica,sans-Serif" font-size="10.00">v8::internal::Deserializer</text>
<text text-anchor="middle" x="521" y="-375.5" font-family="Helvetica,sans-Serif" font-size="10.00">&lt; Isolate &gt;::Rehash</text>
</a>
</g>
</g>
<!-- Node3&#45;&gt;Node24 -->
<g id="edge34" class="edge">
<title>Node3&#45;&gt;Node24</title>
<path fill="none" stroke="midnightblue" d="M386.01,-383.5C404.56,-383.5 424.04,-383.5 442.23,-383.5"/>
<polygon fill="midnightblue" stroke="midnightblue" points="442.48,-387 452.48,-383.5 442.48,-380 442.48,-387"/>
</g>
<!-- Node25 -->
<g id="node23" class="node">
<title>Node25</title>
<g id="a_node23"><a xlink:href="classv8_1_1internal_1_1Deserializer.html#a3d107d726ed241fbde2020146bc4f19c" target="_top" xlink:title=" ">
<polygon fill="white" stroke="black" points="446.5,-319.5 446.5,-349.5 595.5,-349.5 595.5,-319.5 446.5,-319.5"/>
<text text-anchor="start" x="454.5" y="-337.5" font-family="Helvetica,sans-Serif" font-size="10.00">v8::internal::Deserializer</text>
<text text-anchor="middle" x="521" y="-326.5" font-family="Helvetica,sans-Serif" font-size="10.00">&lt; Isolate &gt;::should_rehash</text>
</a>
</g>
</g>
<!-- Node3&#45;&gt;Node25 -->
<g id="edge35" class="edge">
<title>Node3&#45;&gt;Node25</title>
<path fill="none" stroke="midnightblue" d="M367.16,-368.47C390.97,-363.17 417.91,-357.19 442.47,-351.73"/>
<polygon fill="midnightblue" stroke="midnightblue" points="443.47,-355.09 452.47,-349.51 441.95,-348.26 443.47,-355.09"/>
</g>
<!-- Node26 -->
<g id="node24" class="node">
<title>Node26</title>
<g id="a_node24"><a xlink:href="classv8_1_1internal_1_1Deserializer.html#ab96a5d745fc9cba0a54c237a07ae047e" target="_top" xlink:title=" ">
<polygon fill="white" stroke="black" points="422,-270.5 422,-300.5 620,-300.5 620,-270.5 422,-270.5"/>
<text text-anchor="start" x="430" y="-288.5" font-family="Helvetica,sans-Serif" font-size="10.00">v8::internal::Deserializer</text>
<text text-anchor="middle" x="521" y="-277.5" font-family="Helvetica,sans-Serif" font-size="10.00">&lt; Isolate &gt;::WeakenDescriptorArrays</text>
</a>
</g>
</g>
<!-- Node3&#45;&gt;Node26 -->
<g id="edge36" class="edge">
<title>Node3&#45;&gt;Node26</title>
<path fill="none" stroke="midnightblue" d="M350.9,-368.47C362.97,-363.72 375.4,-357.77 386,-350.5 405.72,-336.97 401.53,-322.88 422,-310.5 425.63,-308.3 429.46,-306.3 433.4,-304.47"/>
<polygon fill="midnightblue" stroke="midnightblue" points="434.93,-307.62 442.78,-300.51 432.21,-301.17 434.93,-307.62"/>
</g>
<!-- Node7 -->
<g id="node7" class="node">
<title>Node7</title>
<g id="a_node7"><a xlink:href="classv8_1_1internal_1_1SnapshotByteSource.html#ae9ab6112d643440e69921d725c360b77" target="_top" xlink:title=" ">
<polygon fill="white" stroke="black" points="686,-455.5 686,-485.5 832,-485.5 832,-455.5 686,-455.5"/>
<text text-anchor="start" x="694" y="-473.5" font-family="Helvetica,sans-Serif" font-size="10.00">v8::internal::SnapshotByte</text>
<text text-anchor="middle" x="759" y="-462.5" font-family="Helvetica,sans-Serif" font-size="10.00">Source::CopyRaw</text>
</a>
</g>
</g>
<!-- Node6&#45;&gt;Node7 -->
<g id="edge6" class="edge">
<title>Node6&#45;&gt;Node7</title>
<path fill="none" stroke="midnightblue" d="M585.66,-515.46C597.12,-512.6 608.94,-509.54 620,-506.5 636.13,-502.06 639.87,-499.94 656,-495.5 665.13,-492.99 674.76,-490.47 684.3,-488.04"/>
<polygon fill="midnightblue" stroke="midnightblue" points="685.35,-491.39 694.2,-485.55 683.64,-484.6 685.35,-491.39"/>
</g>
<!-- Node8 -->
<g id="node8" class="node">
<title>Node8</title>
<g id="a_node8"><a xlink:href="classv8_1_1internal_1_1PlainBuffer.html#a484154530a7604810f2ddd8f8f211055" target="_top" xlink:title=" ">
<polygon fill="white" stroke="black" points="693.5,-406.5 693.5,-436.5 824.5,-436.5 824.5,-406.5 693.5,-406.5"/>
<text text-anchor="start" x="701.5" y="-424.5" font-family="Helvetica,sans-Serif" font-size="10.00">v8::internal::PlainBuffer</text>
<text text-anchor="middle" x="759" y="-413.5" font-family="Helvetica,sans-Serif" font-size="10.00">::data</text>
</a>
</g>
</g>
<!-- Node6&#45;&gt;Node8 -->
<g id="edge7" class="edge">
<title>Node6&#45;&gt;Node8</title>
<path fill="none" stroke="midnightblue" d="M604.94,-515.4C610.27,-512.87 615.35,-509.93 620,-506.5 645.03,-488.05 630.97,-464.96 656,-446.5 664.28,-440.39 673.88,-435.76 683.8,-432.25"/>
<polygon fill="midnightblue" stroke="midnightblue" points="684.89,-435.58 693.37,-429.22 682.78,-428.9 684.89,-435.58"/>
</g>
<!-- Node9 -->
<g id="node9" class="node">
<title>Node9</title>
<g id="a_node9"><a xlink:href="classv8_1_1internal_1_1PlainBuffer.html#a8f9d7b4c8553579db45d398c701da51e" target="_top" xlink:title=" ">
<polygon fill="white" stroke="black" points="693.5,-357.5 693.5,-387.5 824.5,-387.5 824.5,-357.5 693.5,-357.5"/>
<text text-anchor="start" x="701.5" y="-375.5" font-family="Helvetica,sans-Serif" font-size="10.00">v8::internal::PlainBuffer</text>
<text text-anchor="middle" x="759" y="-364.5" font-family="Helvetica,sans-Serif" font-size="10.00">::EnsureCapacity</text>
</a>
</g>
</g>
<!-- Node6&#45;&gt;Node9 -->
<g id="edge8" class="edge">
<title>Node6&#45;&gt;Node9</title>
<path fill="none" stroke="midnightblue" d="M607.71,-515.49C612.13,-512.92 616.27,-509.95 620,-506.5 657.47,-471.87 618.53,-432.13 656,-397.5 663.81,-390.28 673.36,-385.05 683.45,-381.28"/>
<polygon fill="midnightblue" stroke="midnightblue" points="684.82,-384.52 693.25,-378.1 682.66,-377.86 684.82,-384.52"/>
</g>
<!-- Node10 -->
<g id="node10" class="node">
<title>Node10</title>
<g id="a_node10"><a xlink:href="classv8_1_1internal_1_1SnapshotByteSource.html#aef449c391e335cc3f86a65ab9895c8b4" target="_top" xlink:title=" ">
<polygon fill="white" stroke="black" points="686,-504.5 686,-534.5 832,-534.5 832,-504.5 686,-504.5"/>
<text text-anchor="start" x="694" y="-522.5" font-family="Helvetica,sans-Serif" font-size="10.00">v8::internal::SnapshotByte</text>
<text text-anchor="middle" x="759" y="-511.5" font-family="Helvetica,sans-Serif" font-size="10.00">Source::Get</text>
</a>
</g>
</g>
<!-- Node6&#45;&gt;Node10 -->
<g id="edge9" class="edge">
<title>Node6&#45;&gt;Node10</title>
<path fill="none" stroke="midnightblue" d="M608.54,-526.47C630.46,-525.44 653.94,-524.35 675.64,-523.34"/>
<polygon fill="midnightblue" stroke="midnightblue" points="675.98,-526.83 685.81,-522.86 675.65,-519.83 675.98,-526.83"/>
</g>
<!-- Node11 -->
<g id="node11" class="node">
<title>Node11</title>
<g id="a_node11"><a xlink:href="namespacev8_1_1internal_1_1compiler_1_1turboshaft.html#a2b5e79bd829824237e784a6cde29309e" target="_top" xlink:title=" ">
<polygon fill="white" stroke="red" points="698.5,-308.5 698.5,-338.5 819.5,-338.5 819.5,-308.5 698.5,-308.5"/>
<text text-anchor="start" x="706.5" y="-326.5" font-family="Helvetica,sans-Serif" font-size="10.00">v8::internal::compiler</text>
<text text-anchor="middle" x="759" y="-315.5" font-family="Helvetica,sans-Serif" font-size="10.00">::turboshaft::Get</text>
</a>
</g>
</g>
<!-- Node6&#45;&gt;Node11 -->
<g id="edge11" class="edge">
<title>Node6&#45;&gt;Node11</title>
<path fill="none" stroke="midnightblue" d="M608.55,-515.62C612.7,-513.01 616.56,-510 620,-506.5 670.51,-455.16 605.49,-399.84 656,-348.5 664.88,-339.48 676.45,-333.51 688.59,-329.6"/>
<polygon fill="midnightblue" stroke="midnightblue" points="689.7,-332.92 698.41,-326.89 687.84,-326.18 689.7,-332.92"/>
</g>
<!-- Node13 -->
<g id="node12" class="node">
<title>Node13</title>
<g id="a_node12"><a xlink:href="classv8_1_1internal_1_1Deserializer.html#afa7080303576adb44d51fea8f2dc383c" target="_top" xlink:title=" ">
<polygon fill="white" stroke="black" points="656,-259.5 656,-289.5 862,-289.5 862,-259.5 656,-259.5"/>
<text text-anchor="start" x="664" y="-277.5" font-family="Helvetica,sans-Serif" font-size="10.00">v8::internal::Deserializer</text>
<text text-anchor="middle" x="759" y="-266.5" font-family="Helvetica,sans-Serif" font-size="10.00">&lt; Isolate &gt;::GetBackReferencedObject</text>
</a>
</g>
</g>
<!-- Node6&#45;&gt;Node13 -->
<g id="edge12" class="edge">
<title>Node6&#45;&gt;Node13</title>
<path fill="none" stroke="midnightblue" d="M608.77,-515.83C612.86,-513.17 616.65,-510.08 620,-506.5 683.75,-438.26 592.26,-367.74 656,-299.5 657.09,-298.33 658.22,-297.22 659.4,-296.15"/>
<polygon fill="midnightblue" stroke="midnightblue" points="661.88,-298.66 667.69,-289.79 657.62,-293.1 661.88,-298.66"/>
</g>
<!-- Node14 -->
<g id="node13" class="node">
<title>Node14</title>
<g id="a_node13"><a xlink:href="classv8_1_1internal_1_1SnapshotByteSource.html#ab5cbeb5c8cbd24ba02e72e62b8c8820f" target="_top" xlink:title=" ">
<polygon fill="white" stroke="red" points="686,-210.5 686,-240.5 832,-240.5 832,-210.5 686,-210.5"/>
<text text-anchor="start" x="694" y="-228.5" font-family="Helvetica,sans-Serif" font-size="10.00">v8::internal::SnapshotByte</text>
<text text-anchor="middle" x="759" y="-217.5" font-family="Helvetica,sans-Serif" font-size="10.00">Source::GetUint30</text>
</a>
</g>
</g>
<!-- Node6&#45;&gt;Node14 -->
<g id="edge13" class="edge">
<title>Node6&#45;&gt;Node14</title>
<path fill="none" stroke="midnightblue" d="M608.91,-515.96C612.97,-513.27 616.71,-510.14 620,-506.5 697.06,-421.28 578.95,-335.73 656,-250.5 661.76,-244.13 668.85,-239.26 676.58,-235.55"/>
<polygon fill="midnightblue" stroke="midnightblue" points="678,-238.75 685.92,-231.71 675.34,-232.28 678,-238.75"/>
</g>
<!-- Node6&#45;&gt;Node16 -->
<g id="edge14" class="edge">
<title>Node6&#45;&gt;Node16</title>
<path fill="none" stroke="midnightblue" d="M604.88,-545.73C610.28,-548.48 615.39,-551.7 620,-555.5 648.85,-579.26 628.46,-606.23 656,-631.5 664.45,-639.26 674.63,-645.47 685.25,-650.44"/>
<polygon fill="midnightblue" stroke="midnightblue" points="684.08,-653.75 694.65,-654.49 686.85,-647.32 684.08,-653.75"/>
</g>
<!-- Node17 -->
<g id="node15" class="node">
<title>Node17</title>
<g id="a_node15"><a xlink:href="flag-definitions_8h.html#a3df0b28b666e942ffb9d7d04acdb9715" target="_top" xlink:title=" ">
<polygon fill="white" stroke="black" points="741,-603 741,-622 777,-622 777,-603 741,-603"/>
<text text-anchor="middle" x="759" y="-610" font-family="Helvetica,sans-Serif" font-size="10.00">size</text>
</a>
</g>
</g>
<!-- Node6&#45;&gt;Node17 -->
<g id="edge15" class="edge">
<title>Node6&#45;&gt;Node17</title>
<path fill="none" stroke="midnightblue" d="M598.86,-545.58C606.24,-548.36 613.41,-551.63 620,-555.5 640.06,-567.28 635.56,-582.38 656,-593.5 679.15,-606.09 709.15,-610.5 730.61,-611.96"/>
<polygon fill="midnightblue" stroke="midnightblue" points="730.52,-615.46 740.68,-612.48 730.87,-608.47 730.52,-615.46"/>
</g>
<!-- Node18 -->
<g id="node16" class="node">
<title>Node18</title>
<g id="a_node16"><a xlink:href="classv8_1_1internal_1_1Deserializer.html#a3ac7521096ee0a9781447ca872936ffe" target="_top" xlink:title=" ">
<polygon fill="white" stroke="black" points="690.5,-553.5 690.5,-583.5 827.5,-583.5 827.5,-553.5 690.5,-553.5"/>
<text text-anchor="start" x="698.5" y="-571.5" font-family="Helvetica,sans-Serif" font-size="10.00">v8::internal::Deserializer</text>
<text text-anchor="middle" x="759" y="-560.5" font-family="Helvetica,sans-Serif" font-size="10.00">&lt; Isolate &gt;::source</text>
</a>
</g>
</g>
<!-- Node6&#45;&gt;Node18 -->
<g id="edge16" class="edge">
<title>Node6&#45;&gt;Node18</title>
<path fill="none" stroke="midnightblue" d="M608.54,-544.43C632.03,-548.22 657.32,-552.29 680.29,-555.99"/>
<polygon fill="midnightblue" stroke="midnightblue" points="679.89,-559.47 690.32,-557.6 681,-552.56 679.89,-559.47"/>
</g>
<!-- Node10&#45;&gt;Node5 -->
<g id="edge10" class="edge">
<title>Node10&#45;&gt;Node5</title>
<path fill="none" stroke="midnightblue" d="M832.01,-512.62C843.07,-508.88 853.59,-503.41 862,-495.5 948.53,-414.12 956.78,-256.8 956.88,-201.39"/>
<polygon fill="midnightblue" stroke="midnightblue" points="960.38,-201.16 956.8,-191.18 953.38,-201.21 960.38,-201.16"/>
</g>
<!-- Node20&#45;&gt;Node5 -->
<g id="edge21" class="edge">
<title>Node20&#45;&gt;Node5</title>
<path fill="none" stroke="midnightblue" d="M608.62,-186.3C690.55,-185.17 811.91,-183.5 887.49,-182.45"/>
<polygon fill="midnightblue" stroke="midnightblue" points="887.89,-185.95 897.84,-182.31 887.8,-178.95 887.89,-185.95"/>
</g>
<!-- Node20&#45;&gt;Node7 -->
<g id="edge19" class="edge">
<title>Node20&#45;&gt;Node7</title>
<path fill="none" stroke="midnightblue" d="M608.44,-202.71C612.67,-205.49 616.58,-208.73 620,-212.5 690.7,-290.43 584.57,-369.24 656,-446.5 661.71,-452.67 668.68,-457.4 676.27,-461"/>
<polygon fill="midnightblue" stroke="midnightblue" points="675.21,-464.35 685.79,-464.86 677.84,-457.86 675.21,-464.35"/>
</g>
<!-- Node20&#45;&gt;Node8 -->
<g id="edge20" class="edge">
<title>Node20&#45;&gt;Node8</title>
<path fill="none" stroke="midnightblue" d="M607.82,-202.59C612.27,-205.39 616.38,-208.67 620,-212.5 677.5,-273.41 597.93,-337.13 656,-397.5 663.63,-405.43 673.34,-410.95 683.74,-414.76"/>
<polygon fill="midnightblue" stroke="midnightblue" points="682.84,-418.15 693.43,-417.8 684.94,-411.47 682.84,-418.15"/>
</g>
<!-- Node20&#45;&gt;Node9 -->
<g id="edge22" class="edge">
<title>Node20&#45;&gt;Node9</title>
<path fill="none" stroke="midnightblue" d="M607.08,-202.61C611.77,-205.4 616.13,-208.67 620,-212.5 664.41,-256.51 611.18,-304.9 656,-348.5 663.79,-356.07 673.49,-361.42 683.8,-365.17"/>
<polygon fill="midnightblue" stroke="midnightblue" points="682.8,-368.52 693.39,-368.18 684.9,-361.84 682.8,-368.52"/>
</g>
<!-- Node20&#45;&gt;Node10 -->
<g id="edge23" class="edge">
<title>Node20&#45;&gt;Node10</title>
<path fill="none" stroke="midnightblue" d="M608.56,-202.61C612.76,-205.41 616.63,-208.68 620,-212.5 703.96,-307.51 571.15,-401.28 656,-495.5 661.73,-501.86 668.8,-506.7 676.53,-510.35"/>
<polygon fill="midnightblue" stroke="midnightblue" points="675.28,-513.62 685.86,-514.12 677.9,-507.13 675.28,-513.62"/>
</g>
<!-- Node20&#45;&gt;Node11 -->
<g id="edge24" class="edge">
<title>Node20&#45;&gt;Node11</title>
<path fill="none" stroke="midnightblue" d="M605.57,-202.72C610.74,-205.47 615.62,-208.7 620,-212.5 651.62,-239.91 624.12,-272.39 656,-299.5 665.26,-307.37 676.63,-312.77 688.38,-316.45"/>
<polygon fill="midnightblue" stroke="midnightblue" points="687.73,-319.9 698.3,-319.15 689.57,-313.15 687.73,-319.9"/>
</g>
<!-- Node20&#45;&gt;Node13 -->
<g id="edge25" class="edge">
<title>Node20&#45;&gt;Node13</title>
<path fill="none" stroke="midnightblue" d="M598.86,-202.58C606.24,-205.36 613.41,-208.63 620,-212.5 640.06,-224.28 635.83,-238.9 656,-250.5 659.09,-252.28 662.3,-253.92 665.61,-255.45"/>
<polygon fill="midnightblue" stroke="midnightblue" points="664.54,-258.79 675.11,-259.42 667.24,-252.33 664.54,-258.79"/>
</g>
<!-- Node20&#45;&gt;Node14 -->
<g id="edge26" class="edge">
<title>Node20&#45;&gt;Node14</title>
<path fill="none" stroke="midnightblue" d="M608.54,-201.43C630.46,-204.96 653.94,-208.74 675.64,-212.24"/>
<polygon fill="midnightblue" stroke="midnightblue" points="675.38,-215.74 685.81,-213.88 676.49,-208.83 675.38,-215.74"/>
</g>
<!-- Node20&#45;&gt;Node16 -->
<g id="edge27" class="edge">
<title>Node20&#45;&gt;Node16</title>
<path fill="none" stroke="midnightblue" d="M608.74,-202.45C612.9,-205.29 616.71,-208.62 620,-212.5 680.44,-283.77 599.45,-557.1 656,-631.5 662.61,-640.2 671.44,-646.9 681.14,-652.07"/>
<polygon fill="midnightblue" stroke="midnightblue" points="679.72,-655.28 690.26,-656.41 682.73,-648.95 679.72,-655.28"/>
</g>
<!-- Node20&#45;&gt;Node17 -->
<g id="edge28" class="edge">
<title>Node20&#45;&gt;Node17</title>
<path fill="none" stroke="midnightblue" d="M608.7,-202.48C612.87,-205.32 616.69,-208.63 620,-212.5 675.28,-277.13 598.63,-530.72 656,-593.5 674.65,-613.91 707.61,-616.68 731.01,-615.62"/>
<polygon fill="midnightblue" stroke="midnightblue" points="731.27,-619.11 741,-614.91 730.78,-612.13 731.27,-619.11"/>
</g>
<!-- Node20&#45;&gt;Node18 -->
<g id="edge29" class="edge">
<title>Node20&#45;&gt;Node18</title>
<path fill="none" stroke="midnightblue" d="M608.64,-202.54C612.83,-205.36 616.66,-208.65 620,-212.5 717.25,-324.62 557.7,-433.3 656,-544.5 662.73,-552.12 671.38,-557.55 680.8,-561.39"/>
<polygon fill="midnightblue" stroke="midnightblue" points="679.83,-564.76 690.42,-564.73 682.12,-558.15 679.83,-564.76"/>
</g>
<!-- Node27&#45;&gt;Node27 -->
<g id="edge38" class="edge">
<title>Node27&#45;&gt;Node27</title>
<path fill="none" stroke="midnightblue" d="M261.9,-273.66C253.08,-283.06 265.28,-292 298.5,-292 318.75,-292 331.18,-288.68 335.81,-283.96"/>
<polygon fill="midnightblue" stroke="midnightblue" points="339.28,-283.39 335.1,-273.66 332.3,-283.88 339.28,-283.39"/>
</g>
<!-- Node28 -->
<g id="node26" class="node">
<title>Node28</title>
<g id="a_node26"><a xlink:href="classv8_1_1base_1_1ElapsedTimer.html#a766f0726c8b8b6846ceb84e49a2830c3" target="_top" xlink:title=" ">
<polygon fill="white" stroke="black" points="442,-46 442,-65 600,-65 600,-46 442,-46"/>
<text text-anchor="middle" x="521" y="-53" font-family="Helvetica,sans-Serif" font-size="10.00">v8::base::ElapsedTimer::Now</text>
</a>
</g>
</g>
<!-- Node27&#45;&gt;Node28 -->
<g id="edge39" class="edge">
<title>Node27&#45;&gt;Node28</title>
<path fill="none" stroke="midnightblue" d="M364.39,-248.22C372.47,-244.64 379.99,-239.86 386,-233.5 435.45,-181.13 370.5,-125.85 422,-75.5 425.3,-72.27 428.98,-69.5 432.91,-67.12"/>
<polygon fill="midnightblue" stroke="midnightblue" points="434.58,-70.2 441.89,-62.52 431.39,-63.97 434.58,-70.2"/>
</g>
<!-- Node29 -->
<g id="node27" class="node">
<title>Node29</title>
<g id="a_node27"><a xlink:href="classv8_1_1base_1_1time__internal_1_1TimeBase.html#acf50e8599f7e76ab3cc07a32f8df30a9" target="_top" xlink:title=" ">
<polygon fill="white" stroke="black" points="694.5,-62.5 694.5,-92.5 823.5,-92.5 823.5,-62.5 694.5,-62.5"/>
<text text-anchor="start" x="702.5" y="-80.5" font-family="Helvetica,sans-Serif" font-size="10.00">v8::base::time_internal</text>
<text text-anchor="middle" x="759" y="-69.5" font-family="Helvetica,sans-Serif" font-size="10.00">::TimeBase::IsNull</text>
</a>
</g>
</g>
<!-- Node28&#45;&gt;Node29 -->
<g id="edge40" class="edge">
<title>Node28&#45;&gt;Node29</title>
<path fill="none" stroke="midnightblue" d="M600.26,-62.8C627.38,-65.32 657.68,-68.15 684.42,-70.64"/>
<polygon fill="midnightblue" stroke="midnightblue" points="684.2,-74.14 694.48,-71.58 684.85,-67.17 684.2,-74.14"/>
</g>
<!-- Node30 -->
<g id="node28" class="node">
<title>Node30</title>
<g id="a_node28"><a xlink:href="classv8_1_1base_1_1TimeTicks.html#ab0886bf0e84f1e1fcdc101021c2c0775" target="_top" xlink:title=" ">
<polygon fill="white" stroke="red" points="688,-24 688,-43 830,-43 830,-24 688,-24"/>
<text text-anchor="middle" x="759" y="-31" font-family="Helvetica,sans-Serif" font-size="10.00">v8::base::TimeTicks::Now</text>
</a>
</g>
</g>
<!-- Node28&#45;&gt;Node30 -->
<g id="edge41" class="edge">
<title>Node28&#45;&gt;Node30</title>
<path fill="none" stroke="midnightblue" d="M600.26,-48.2C625.14,-45.89 652.69,-43.32 677.71,-40.98"/>
<polygon fill="midnightblue" stroke="midnightblue" points="678.27,-44.45 687.9,-40.03 677.62,-37.48 678.27,-44.45"/>
</g>
<!-- Node33 -->
<g id="node30" class="node">
<title>Node33</title>
<g id="a_node30"><a xlink:href="classv8_1_1base_1_1TimeDelta.html#ac3181f6214df3e7cd7daee884061af5c" target="_top" xlink:title=" ">
<polygon fill="white" stroke="black" points="463.5,-84.5 463.5,-114.5 578.5,-114.5 578.5,-84.5 463.5,-84.5"/>
<text text-anchor="start" x="471.5" y="-102.5" font-family="Helvetica,sans-Serif" font-size="10.00">v8::base::TimeDelta</text>
<text text-anchor="middle" x="521" y="-91.5" font-family="Helvetica,sans-Serif" font-size="10.00">::IsMax</text>
</a>
</g>
</g>
<!-- Node32&#45;&gt;Node33 -->
<g id="edge43" class="edge">
<title>Node32&#45;&gt;Node33</title>
<path fill="none" stroke="midnightblue" d="M356.09,-319.26C367.27,-315.62 378.01,-310.03 386,-301.5 439.42,-244.53 369.34,-187.17 422,-129.5 430.52,-120.17 441.86,-113.71 453.79,-109.24"/>
<polygon fill="midnightblue" stroke="midnightblue" points="455.03,-112.51 463.44,-106.07 452.85,-105.86 455.03,-112.51"/>
</g>
<!-- Node37&#45;&gt;Node28 -->
<g id="edge49" class="edge">
<title>Node37&#45;&gt;Node28</title>
<path fill="none" stroke="midnightblue" d="M364.17,-61.86C385.22,-61 408.95,-60.03 431.44,-59.11"/>
<polygon fill="midnightblue" stroke="midnightblue" points="431.82,-62.6 441.67,-58.7 431.53,-55.61 431.82,-62.6"/>
</g>
<!-- Node37&#45;&gt;Node37 -->
<g id="edge50" class="edge">
<title>Node37&#45;&gt;Node37</title>
<path fill="none" stroke="midnightblue" d="M261.9,-79.66C253.08,-89.06 265.28,-98 298.5,-98 318.75,-98 331.18,-94.68 335.81,-89.96"/>
<polygon fill="midnightblue" stroke="midnightblue" points="339.28,-89.39 335.1,-79.66 332.3,-89.88 339.28,-89.39"/>
</g>
</g>
</svg>
