<?xml version="1.0" encoding="UTF-8" standalone="no"?>
<!DOCTYPE svg PUBLIC "-//W3C//DTD SVG 1.1//EN"
 "http://www.w3.org/Graphics/SVG/1.1/DTD/svg11.dtd">
<!-- Generated by graphviz version 2.43.0 (0)
 -->
<!-- Title: v8::internal::SemiSpaceNewSpace Pages: 1 -->
<svg width="1557pt" height="1465pt"
 viewBox="0.00 0.00 1556.50 1465.00" xmlns="http://www.w3.org/2000/svg" xmlns:xlink="http://www.w3.org/1999/xlink">
<g id="graph0" class="graph" transform="scale(1 1) rotate(0) translate(4 1461)">
<title>v8::internal::SemiSpaceNewSpace</title>
<polygon fill="white" stroke="transparent" points="-4,4 -4,-1461 1552.5,-1461 1552.5,4 -4,4"/>
<!-- Node1 -->
<g id="node1" class="node">
<title>Node1</title>
<g id="a_node1"><a xlink:title=" ">
<polygon fill="#bfbfbf" stroke="black" points="604.5,-0.5 604.5,-321.5 813.5,-321.5 813.5,-0.5 604.5,-0.5"/>
<text text-anchor="start" x="612.5" y="-309.5" font-family="Helvetica,sans-Serif" font-size="10.00">v8::internal::SemiSpaceNew</text>
<text text-anchor="middle" x="709" y="-298.5" font-family="Helvetica,sans-Serif" font-size="10.00">Space</text>
<polyline fill="none" stroke="black" points="604.5,-291.5 813.5,-291.5 "/>
<text text-anchor="middle" x="709" y="-279.5" font-family="Helvetica,sans-Serif" font-size="10.00"> </text>
<polyline fill="none" stroke="black" points="604.5,-272.5 813.5,-272.5 "/>
<text text-anchor="start" x="612.5" y="-260.5" font-family="Helvetica,sans-Serif" font-size="10.00">+ SemiSpaceNewSpace()</text>
<text text-anchor="start" x="612.5" y="-249.5" font-family="Helvetica,sans-Serif" font-size="10.00">+ ~SemiSpaceNewSpace()</text>
<text text-anchor="start" x="612.5" y="-238.5" font-family="Helvetica,sans-Serif" font-size="10.00">+ ContainsSlow()</text>
<text text-anchor="start" x="612.5" y="-227.5" font-family="Helvetica,sans-Serif" font-size="10.00">+ Grow()</text>
<text text-anchor="start" x="612.5" y="-216.5" font-family="Helvetica,sans-Serif" font-size="10.00">+ Shrink()</text>
<text text-anchor="start" x="612.5" y="-205.5" font-family="Helvetica,sans-Serif" font-size="10.00">+ Size()</text>
<text text-anchor="start" x="612.5" y="-194.5" font-family="Helvetica,sans-Serif" font-size="10.00">+ SizeOfObjects()</text>
<text text-anchor="start" x="612.5" y="-183.5" font-family="Helvetica,sans-Serif" font-size="10.00">+ Capacity()</text>
<text text-anchor="start" x="612.5" y="-172.5" font-family="Helvetica,sans-Serif" font-size="10.00">+ CurrentCapacitySafe()</text>
<text text-anchor="start" x="612.5" y="-161.5" font-family="Helvetica,sans-Serif" font-size="10.00">+ TotalCapacity()</text>
<text text-anchor="start" x="612.5" y="-150.5" font-family="Helvetica,sans-Serif" font-size="10.00">and 47 more...</text>
<text text-anchor="start" x="612.5" y="-139.5" font-family="Helvetica,sans-Serif" font-size="10.00">+ From()</text>
<text text-anchor="start" x="612.5" y="-128.5" font-family="Helvetica,sans-Serif" font-size="10.00">&#45; IsFromSpaceCommitted()</text>
<text text-anchor="start" x="612.5" y="-117.5" font-family="Helvetica,sans-Serif" font-size="10.00">&#45; active_space()</text>
<text text-anchor="start" x="612.5" y="-106.5" font-family="Helvetica,sans-Serif" font-size="10.00">&#45; Allocate()</text>
<text text-anchor="start" x="612.5" y="-95.5" font-family="Helvetica,sans-Serif" font-size="10.00">&#45; AllocateOnNewPageBeyondCapacity()</text>
<text text-anchor="start" x="612.5" y="-84.5" font-family="Helvetica,sans-Serif" font-size="10.00">&#45; RemovePage()</text>
<text text-anchor="start" x="612.5" y="-73.5" font-family="Helvetica,sans-Serif" font-size="10.00">&#45; Free()</text>
<text text-anchor="start" x="612.5" y="-62.5" font-family="Helvetica,sans-Serif" font-size="10.00">&#45; ResetAllocationTopToCurrent</text>
<text text-anchor="start" x="612.5" y="-51.5" font-family="Helvetica,sans-Serif" font-size="10.00">PageStart()</text>
<text text-anchor="start" x="612.5" y="-40.5" font-family="Helvetica,sans-Serif" font-size="10.00">&#45; SetAllocationTop()</text>
<text text-anchor="start" x="612.5" y="-29.5" font-family="Helvetica,sans-Serif" font-size="10.00">&#45; IncrementAllocationTop()</text>
<text text-anchor="start" x="612.5" y="-18.5" font-family="Helvetica,sans-Serif" font-size="10.00">&#45; DecrementAllocationTop()</text>
<text text-anchor="start" x="612.5" y="-7.5" font-family="Helvetica,sans-Serif" font-size="10.00">&#45; allocation_top()</text>
</a>
</g>
</g>
<!-- Node2 -->
<g id="node2" class="node">
<title>Node2</title>
<g id="a_node2"><a xlink:href="classv8_1_1internal_1_1NewSpace.html" target="_top" xlink:title=" ">
<polygon fill="white" stroke="black" points="180,-430 180,-619 348,-619 348,-430 180,-430"/>
<text text-anchor="middle" x="264" y="-607" font-family="Helvetica,sans-Serif" font-size="10.00">v8::internal::NewSpace</text>
<polyline fill="none" stroke="black" points="180,-600 348,-600 "/>
<text text-anchor="middle" x="264" y="-588" font-family="Helvetica,sans-Serif" font-size="10.00"> </text>
<polyline fill="none" stroke="black" points="180,-581 348,-581 "/>
<text text-anchor="start" x="188" y="-569" font-family="Helvetica,sans-Serif" font-size="10.00">+ NewSpace()</text>
<text text-anchor="start" x="188" y="-558" font-family="Helvetica,sans-Serif" font-size="10.00">+ mutex()</text>
<text text-anchor="start" x="188" y="-547" font-family="Helvetica,sans-Serif" font-size="10.00">+ Contains()</text>
<text text-anchor="start" x="188" y="-536" font-family="Helvetica,sans-Serif" font-size="10.00">+ Contains()</text>
<text text-anchor="start" x="188" y="-525" font-family="Helvetica,sans-Serif" font-size="10.00">+ ContainsSlow()</text>
<text text-anchor="start" x="188" y="-514" font-family="Helvetica,sans-Serif" font-size="10.00">+ ExternalBackingStoreOverall</text>
<text text-anchor="start" x="188" y="-503" font-family="Helvetica,sans-Serif" font-size="10.00">Bytes()</text>
<text text-anchor="start" x="188" y="-492" font-family="Helvetica,sans-Serif" font-size="10.00">+ PromotePageToOldSpace()</text>
<text text-anchor="start" x="188" y="-481" font-family="Helvetica,sans-Serif" font-size="10.00">+ Capacity()</text>
<text text-anchor="start" x="188" y="-470" font-family="Helvetica,sans-Serif" font-size="10.00">+ TotalCapacity()</text>
<text text-anchor="start" x="188" y="-459" font-family="Helvetica,sans-Serif" font-size="10.00">+ MinimumCapacity()</text>
<text text-anchor="start" x="188" y="-448" font-family="Helvetica,sans-Serif" font-size="10.00">and 13 more...</text>
<text text-anchor="start" x="188" y="-437" font-family="Helvetica,sans-Serif" font-size="10.00"># RemovePage()</text>
</a>
</g>
</g>
<!-- Node2&#45;&gt;Node1 -->
<g id="edge1" class="edge">
<title>Node2&#45;&gt;Node1</title>
<path fill="none" stroke="midnightblue" d="M348.64,-422.41C374.37,-394.29 403.65,-364.71 433,-340 486,-295.39 550.86,-253.03 604.39,-220.83"/>
<polygon fill="none" stroke="midnightblue" points="345.96,-420.15 341.83,-429.91 351.14,-424.86 345.96,-420.15"/>
</g>
<!-- Node3 -->
<g id="node3" class="node">
<title>Node3</title>
<g id="a_node3"><a xlink:href="classNON__EXPORTED__BASEpublic_01SpaceWithLinearArea.html" target="_top" xlink:title=" ">
<polygon fill="white" stroke="black" points="0,-821 0,-889 156,-889 156,-821 0,-821"/>
<text text-anchor="start" x="8" y="-877" font-family="Helvetica,sans-Serif" font-size="10.00">NON_EXPORTED_BASEpublic</text>
<text text-anchor="middle" x="78" y="-866" font-family="Helvetica,sans-Serif" font-size="10.00"> SpaceWithLinearArea</text>
<polyline fill="none" stroke="black" points="0,-859 156,-859 "/>
<text text-anchor="middle" x="78" y="-847" font-family="Helvetica,sans-Serif" font-size="10.00"> </text>
<polyline fill="none" stroke="black" points="0,-840 156,-840 "/>
<text text-anchor="middle" x="78" y="-828" font-family="Helvetica,sans-Serif" font-size="10.00"> </text>
</a>
</g>
</g>
<!-- Node3&#45;&gt;Node2 -->
<g id="edge2" class="edge">
<title>Node3&#45;&gt;Node2</title>
<path fill="none" stroke="#8b1a1a" d="M101.74,-812.07C129.12,-763.71 174.99,-682.71 210.98,-619.14"/>
<polygon fill="none" stroke="#8b1a1a" points="98.57,-810.57 96.69,-821 104.66,-814.02 98.57,-810.57"/>
</g>
<!-- Node4 -->
<g id="node4" class="node">
<title>Node4</title>
<g id="a_node4"><a xlink:href="classv8_1_1base_1_1Mutex.html" target="_top" xlink:title=" ">
<polygon fill="white" stroke="black" points="174,-777 174,-933 316,-933 316,-777 174,-777"/>
<text text-anchor="middle" x="245" y="-921" font-family="Helvetica,sans-Serif" font-size="10.00">v8::base::Mutex</text>
<polyline fill="none" stroke="black" points="174,-914 316,-914 "/>
<text text-anchor="middle" x="245" y="-902" font-family="Helvetica,sans-Serif" font-size="10.00"> </text>
<polyline fill="none" stroke="black" points="174,-895 316,-895 "/>
<text text-anchor="start" x="182" y="-883" font-family="Helvetica,sans-Serif" font-size="10.00">+ Mutex()</text>
<text text-anchor="start" x="182" y="-872" font-family="Helvetica,sans-Serif" font-size="10.00">+ Mutex()</text>
<text text-anchor="start" x="182" y="-861" font-family="Helvetica,sans-Serif" font-size="10.00">+ operator=()</text>
<text text-anchor="start" x="182" y="-850" font-family="Helvetica,sans-Serif" font-size="10.00">+ ~Mutex()</text>
<text text-anchor="start" x="182" y="-839" font-family="Helvetica,sans-Serif" font-size="10.00">+ Lock()</text>
<text text-anchor="start" x="182" y="-828" font-family="Helvetica,sans-Serif" font-size="10.00">+ Unlock()</text>
<text text-anchor="start" x="182" y="-817" font-family="Helvetica,sans-Serif" font-size="10.00">+ TryLock()</text>
<text text-anchor="start" x="182" y="-806" font-family="Helvetica,sans-Serif" font-size="10.00">+ AssertHeld()</text>
<text text-anchor="start" x="182" y="-795" font-family="Helvetica,sans-Serif" font-size="10.00">&#45; AssertHeldAndUnmark()</text>
<text text-anchor="start" x="182" y="-784" font-family="Helvetica,sans-Serif" font-size="10.00">&#45; AssertUnheldAndMark()</text>
</a>
</g>
</g>
<!-- Node4&#45;&gt;Node2 -->
<g id="edge3" class="edge">
<title>Node4&#45;&gt;Node2</title>
<path fill="none" stroke="#404040" d="M234.91,-777C232.47,-755.07 230.22,-731.13 229,-709 227.6,-683.56 230.36,-656.45 234.85,-631.1"/>
<polygon fill="none" stroke="#404040" points="234.87,-630.99 232.06,-624.35 237.1,-619.2 239.92,-625.84 234.87,-630.99"/>
<text text-anchor="middle" x="253.5" y="-695.5" font-family="Helvetica,sans-Serif" font-size="10.00"> #mutex_</text>
</g>
<!-- Node5 -->
<g id="node5" class="node">
<title>Node5</title>
<g id="a_node5"><a xlink:title=" ">
<polygon fill="white" stroke="#bfbfbf" points="221.5,-1190 221.5,-1247 268.5,-1247 268.5,-1190 221.5,-1190"/>
<text text-anchor="middle" x="245" y="-1235" font-family="Helvetica,sans-Serif" font-size="10.00">Mutex</text>
<polyline fill="none" stroke="#bfbfbf" points="221.5,-1228 268.5,-1228 "/>
<text text-anchor="middle" x="245" y="-1216" font-family="Helvetica,sans-Serif" font-size="10.00"> </text>
<polyline fill="none" stroke="#bfbfbf" points="221.5,-1209 268.5,-1209 "/>
<text text-anchor="middle" x="245" y="-1197" font-family="Helvetica,sans-Serif" font-size="10.00"> </text>
</a>
</g>
</g>
<!-- Node5&#45;&gt;Node4 -->
<g id="edge4" class="edge">
<title>Node5&#45;&gt;Node4</title>
<path fill="none" stroke="#404040" d="M245,-1189.73C245,-1138.15 245,-1025.52 245,-945.39"/>
<polygon fill="none" stroke="#404040" points="245,-945.32 241,-939.32 245,-933.32 249,-939.32 245,-945.32"/>
<text text-anchor="middle" x="286" y="-1031.5" font-family="Helvetica,sans-Serif" font-size="10.00"> &#45;native_handle_</text>
</g>
<!-- Node6 -->
<g id="node6" class="node">
<title>Node6</title>
<g id="a_node6"><a xlink:title=" ">
<polygon fill="white" stroke="#bfbfbf" points="367.5,-826.5 367.5,-883.5 410.5,-883.5 410.5,-826.5 367.5,-826.5"/>
<text text-anchor="middle" x="389" y="-871.5" font-family="Helvetica,sans-Serif" font-size="10.00">const</text>
<polyline fill="none" stroke="#bfbfbf" points="367.5,-864.5 410.5,-864.5 "/>
<text text-anchor="middle" x="389" y="-852.5" font-family="Helvetica,sans-Serif" font-size="10.00"> </text>
<polyline fill="none" stroke="#bfbfbf" points="367.5,-845.5 410.5,-845.5 "/>
<text text-anchor="middle" x="389" y="-833.5" font-family="Helvetica,sans-Serif" font-size="10.00"> </text>
</a>
</g>
</g>
<!-- Node6&#45;&gt;Node1 -->
<g id="edge11" class="edge">
<title>Node6&#45;&gt;Node1</title>
<path fill="none" stroke="#404040" d="M399.41,-826.39C409.81,-797.55 425.3,-750.78 433,-709 459.56,-564.85 390.31,-511.04 456,-380 486.63,-318.89 542.71,-267.83 594.3,-230.52"/>
<polygon fill="none" stroke="#404040" points="594.43,-230.43 597.01,-223.7 604.22,-223.48 601.64,-230.22 594.43,-230.43"/>
<text text-anchor="middle" x="510.5" y="-527.5" font-family="Helvetica,sans-Serif" font-size="10.00"> &#45;maximum_capacity_</text>
<text text-anchor="middle" x="510.5" y="-516.5" font-family="Helvetica,sans-Serif" font-size="10.00">&#45;minimum_capacity_</text>
</g>
<!-- Node6&#45;&gt;Node2 -->
<g id="edge5" class="edge">
<title>Node6&#45;&gt;Node2</title>
<path fill="none" stroke="#404040" d="M379.35,-826.34C368.9,-799.06 350.28,-757.19 325,-727 316.44,-716.78 308.12,-720.27 301,-709 286.34,-685.78 277.33,-657.9 271.83,-630.96"/>
<polygon fill="none" stroke="#404040" points="271.82,-630.88 266.78,-625.71 269.61,-619.08 274.65,-624.25 271.82,-630.88"/>
<text text-anchor="start" x="301" y="-701" font-family="Helvetica,sans-Serif" font-size="10.00"> #kAllocationBufferParking</text>
<text text-anchor="middle" x="367" y="-690" font-family="Helvetica,sans-Serif" font-size="10.00">Threshold</text>
</g>
<!-- Node7 -->
<g id="node7" class="node">
<title>Node7</title>
<g id="a_node7"><a xlink:title=" ">
<polygon fill="white" stroke="#bfbfbf" points="574.5,-490.5 574.5,-558.5 735.5,-558.5 735.5,-490.5 574.5,-490.5"/>
<text text-anchor="start" x="582.5" y="-546.5" font-family="Helvetica,sans-Serif" font-size="10.00">std::vector&lt; ParkedAllocation</text>
<text text-anchor="middle" x="655" y="-535.5" font-family="Helvetica,sans-Serif" font-size="10.00">Buffer &gt;</text>
<polyline fill="none" stroke="#bfbfbf" points="574.5,-528.5 735.5,-528.5 "/>
<text text-anchor="middle" x="655" y="-516.5" font-family="Helvetica,sans-Serif" font-size="10.00"> </text>
<polyline fill="none" stroke="#bfbfbf" points="574.5,-509.5 735.5,-509.5 "/>
<text text-anchor="middle" x="655" y="-497.5" font-family="Helvetica,sans-Serif" font-size="10.00"> </text>
</a>
</g>
</g>
<!-- Node7&#45;&gt;Node1 -->
<g id="edge6" class="edge">
<title>Node7&#45;&gt;Node1</title>
<path fill="none" stroke="#404040" d="M652.38,-490.47C650.11,-453.57 648.26,-392.15 656,-340 656.32,-337.82 656.67,-335.63 657.03,-333.44"/>
<polygon fill="none" stroke="#404040" points="657.03,-333.43 654.15,-326.82 659.15,-321.62 662.03,-328.23 657.03,-333.43"/>
<text text-anchor="start" x="656" y="-354" font-family="Helvetica,sans-Serif" font-size="10.00"> &#45;parked_allocation</text>
<text text-anchor="middle" x="703" y="-343" font-family="Helvetica,sans-Serif" font-size="10.00">_buffers_</text>
</g>
<!-- Node8 -->
<g id="node8" class="node">
<title>Node8</title>
<g id="a_node8"><a xlink:title=" ">
<polygon fill="white" stroke="#bfbfbf" points="444.5,-826.5 444.5,-883.5 571.5,-883.5 571.5,-826.5 444.5,-826.5"/>
<text text-anchor="middle" x="508" y="-871.5" font-family="Helvetica,sans-Serif" font-size="10.00">ParkedAllocationBuffer</text>
<polyline fill="none" stroke="#bfbfbf" points="444.5,-864.5 571.5,-864.5 "/>
<text text-anchor="middle" x="508" y="-852.5" font-family="Helvetica,sans-Serif" font-size="10.00"> </text>
<polyline fill="none" stroke="#bfbfbf" points="444.5,-845.5 571.5,-845.5 "/>
<text text-anchor="middle" x="508" y="-833.5" font-family="Helvetica,sans-Serif" font-size="10.00"> </text>
</a>
</g>
</g>
<!-- Node8&#45;&gt;Node7 -->
<g id="edge7" class="edge">
<title>Node8&#45;&gt;Node7</title>
<path fill="none" stroke="#404040" d="M512.58,-826.23C518.79,-792.36 531.5,-733.83 552,-687 570.71,-644.26 599.86,-599.85 622.37,-568.45"/>
<polygon fill="none" stroke="#404040" points="622.38,-568.44 622.67,-561.23 629.43,-558.73 629.14,-565.93 622.38,-568.44"/>
<text text-anchor="middle" x="581" y="-695.5" font-family="Helvetica,sans-Serif" font-size="10.00"> +elements</text>
</g>
<!-- Node9 -->
<g id="node9" class="node">
<title>Node9</title>
<g id="a_node9"><a xlink:title=" ">
<polygon fill="white" stroke="#bfbfbf" points="589.5,-826.5 589.5,-883.5 686.5,-883.5 686.5,-826.5 589.5,-826.5"/>
<text text-anchor="middle" x="638" y="-871.5" font-family="Helvetica,sans-Serif" font-size="10.00">std::vector&lt; T &gt;</text>
<polyline fill="none" stroke="#bfbfbf" points="589.5,-864.5 686.5,-864.5 "/>
<text text-anchor="middle" x="638" y="-852.5" font-family="Helvetica,sans-Serif" font-size="10.00"> </text>
<polyline fill="none" stroke="#bfbfbf" points="589.5,-845.5 686.5,-845.5 "/>
<text text-anchor="middle" x="638" y="-833.5" font-family="Helvetica,sans-Serif" font-size="10.00"> </text>
</a>
</g>
</g>
<!-- Node9&#45;&gt;Node7 -->
<g id="edge8" class="edge">
<title>Node9&#45;&gt;Node7</title>
<path fill="none" stroke="orange" d="M630,-816.22C624.26,-787.08 617.02,-745.69 614,-709 609.6,-655.48 627.78,-594.97 641.34,-558.56"/>
<polygon fill="orange" stroke="orange" points="626.64,-817.26 632.04,-826.37 633.5,-815.88 626.64,-817.26"/>
<text text-anchor="middle" x="682" y="-695.5" font-family="Helvetica,sans-Serif" font-size="10.00"> &lt; ParkedAllocationBuffer &gt;</text>
</g>
<!-- Node10 -->
<g id="node10" class="node">
<title>Node10</title>
<g id="a_node10"><a xlink:title=" ">
<polygon fill="white" stroke="#bfbfbf" points="623.5,-1190 623.5,-1247 652.5,-1247 652.5,-1190 623.5,-1190"/>
<text text-anchor="middle" x="638" y="-1235" font-family="Helvetica,sans-Serif" font-size="10.00">T</text>
<polyline fill="none" stroke="#bfbfbf" points="623.5,-1228 652.5,-1228 "/>
<text text-anchor="middle" x="638" y="-1216" font-family="Helvetica,sans-Serif" font-size="10.00"> </text>
<polyline fill="none" stroke="#bfbfbf" points="623.5,-1209 652.5,-1209 "/>
<text text-anchor="middle" x="638" y="-1197" font-family="Helvetica,sans-Serif" font-size="10.00"> </text>
</a>
</g>
</g>
<!-- Node10&#45;&gt;Node9 -->
<g id="edge9" class="edge">
<title>Node10&#45;&gt;Node9</title>
<path fill="none" stroke="#404040" d="M638,-1189.73C638,-1126.26 638,-970.31 638,-896.27"/>
<polygon fill="none" stroke="#404040" points="638,-895.86 634,-889.86 638,-883.86 642,-889.86 638,-895.86"/>
<text text-anchor="middle" x="667" y="-1031.5" font-family="Helvetica,sans-Serif" font-size="10.00"> +elements</text>
</g>
<!-- Node11 -->
<g id="node11" class="node">
<title>Node11</title>
<g id="a_node11"><a xlink:title=" ">
<polygon fill="white" stroke="#bfbfbf" points="860.5,-1399.5 860.5,-1456.5 905.5,-1456.5 905.5,-1399.5 860.5,-1399.5"/>
<text text-anchor="middle" x="883" y="-1444.5" font-family="Helvetica,sans-Serif" font-size="10.00">size_t</text>
<polyline fill="none" stroke="#bfbfbf" points="860.5,-1437.5 905.5,-1437.5 "/>
<text text-anchor="middle" x="883" y="-1425.5" font-family="Helvetica,sans-Serif" font-size="10.00"> </text>
<polyline fill="none" stroke="#bfbfbf" points="860.5,-1418.5 905.5,-1418.5 "/>
<text text-anchor="middle" x="883" y="-1406.5" font-family="Helvetica,sans-Serif" font-size="10.00"> </text>
</a>
</g>
</g>
<!-- Node11&#45;&gt;Node1 -->
<g id="edge10" class="edge">
<title>Node11&#45;&gt;Node1</title>
<path fill="none" stroke="#404040" d="M860.34,-1405.41C825.81,-1370.08 764,-1296.12 764,-1219.5 764,-1219.5 764,-1219.5 764,-523.5 764,-441.71 762.33,-420.86 750,-340 749.69,-337.95 749.37,-335.89 749.03,-333.83"/>
<polygon fill="none" stroke="#404040" points="749.01,-333.72 744.07,-328.47 747.02,-321.89 751.96,-327.14 749.01,-333.72"/>
<text text-anchor="middle" x="812" y="-869" font-family="Helvetica,sans-Serif" font-size="10.00"> &#45;quarantined_size_</text>
<text text-anchor="start" x="764" y="-858" font-family="Helvetica,sans-Serif" font-size="10.00">&#45;size_after_last_gc</text>
<text text-anchor="middle" x="812" y="-847" font-family="Helvetica,sans-Serif" font-size="10.00">_</text>
<text text-anchor="middle" x="812" y="-836" font-family="Helvetica,sans-Serif" font-size="10.00">&#45;target_capacity_</text>
</g>
<!-- Node13 -->
<g id="node13" class="node">
<title>Node13</title>
<g id="a_node13"><a xlink:href="classv8_1_1internal_1_1SemiSpace.html" target="_top" xlink:title=" ">
<polygon fill="white" stroke="black" points="857.5,-380.5 857.5,-668.5 1030.5,-668.5 1030.5,-380.5 857.5,-380.5"/>
<text text-anchor="middle" x="944" y="-656.5" font-family="Helvetica,sans-Serif" font-size="10.00">v8::internal::SemiSpace</text>
<polyline fill="none" stroke="black" points="857.5,-649.5 1030.5,-649.5 "/>
<text text-anchor="middle" x="944" y="-637.5" font-family="Helvetica,sans-Serif" font-size="10.00"> </text>
<polyline fill="none" stroke="black" points="857.5,-630.5 1030.5,-630.5 "/>
<text text-anchor="start" x="865.5" y="-618.5" font-family="Helvetica,sans-Serif" font-size="10.00">+ SemiSpace()</text>
<text text-anchor="start" x="865.5" y="-607.5" font-family="Helvetica,sans-Serif" font-size="10.00">+ ~SemiSpace()</text>
<text text-anchor="start" x="865.5" y="-596.5" font-family="Helvetica,sans-Serif" font-size="10.00">+ Contains()</text>
<text text-anchor="start" x="865.5" y="-585.5" font-family="Helvetica,sans-Serif" font-size="10.00">+ Contains()</text>
<text text-anchor="start" x="865.5" y="-574.5" font-family="Helvetica,sans-Serif" font-size="10.00">+ Contains()</text>
<text text-anchor="start" x="865.5" y="-563.5" font-family="Helvetica,sans-Serif" font-size="10.00">+ ContainsSlow()</text>
<text text-anchor="start" x="865.5" y="-552.5" font-family="Helvetica,sans-Serif" font-size="10.00">+ Uncommit()</text>
<text text-anchor="start" x="865.5" y="-541.5" font-family="Helvetica,sans-Serif" font-size="10.00">+ IsCommitted()</text>
<text text-anchor="start" x="865.5" y="-530.5" font-family="Helvetica,sans-Serif" font-size="10.00">+ space_start()</text>
<text text-anchor="start" x="865.5" y="-519.5" font-family="Helvetica,sans-Serif" font-size="10.00">+ current_page()</text>
<text text-anchor="start" x="865.5" y="-508.5" font-family="Helvetica,sans-Serif" font-size="10.00">and 24 more...</text>
<text text-anchor="start" x="865.5" y="-497.5" font-family="Helvetica,sans-Serif" font-size="10.00">+ Swap()</text>
<text text-anchor="start" x="865.5" y="-486.5" font-family="Helvetica,sans-Serif" font-size="10.00">+ AssertValidRange()</text>
<text text-anchor="start" x="865.5" y="-475.5" font-family="Helvetica,sans-Serif" font-size="10.00">&#45; AllocateFreshPage()</text>
<text text-anchor="start" x="865.5" y="-464.5" font-family="Helvetica,sans-Serif" font-size="10.00">&#45; RewindPages()</text>
<text text-anchor="start" x="865.5" y="-453.5" font-family="Helvetica,sans-Serif" font-size="10.00">&#45; FixPagesFlags()</text>
<text text-anchor="start" x="865.5" y="-442.5" font-family="Helvetica,sans-Serif" font-size="10.00">&#45; IncrementCommittedPhysical</text>
<text text-anchor="start" x="865.5" y="-431.5" font-family="Helvetica,sans-Serif" font-size="10.00">Memory()</text>
<text text-anchor="start" x="865.5" y="-420.5" font-family="Helvetica,sans-Serif" font-size="10.00">&#45; DecrementCommittedPhysical</text>
<text text-anchor="start" x="865.5" y="-409.5" font-family="Helvetica,sans-Serif" font-size="10.00">Memory()</text>
<text text-anchor="start" x="865.5" y="-398.5" font-family="Helvetica,sans-Serif" font-size="10.00">&#45; ShrinkCapacityTo()</text>
<text text-anchor="start" x="865.5" y="-387.5" font-family="Helvetica,sans-Serif" font-size="10.00">&#45; Reset()</text>
</a>
</g>
</g>
<!-- Node11&#45;&gt;Node13 -->
<g id="edge22" class="edge">
<title>Node11&#45;&gt;Node13</title>
<path fill="none" stroke="#404040" d="M882.6,-1399.2C881.58,-1304.67 880.76,-987.04 911,-727 912.75,-711.92 914.84,-696.24 917.11,-680.59"/>
<polygon fill="none" stroke="#404040" points="917.12,-680.51 914.04,-673.99 918.87,-668.64 921.96,-675.16 917.12,-680.51"/>
<text text-anchor="start" x="889" y="-1059" font-family="Helvetica,sans-Serif" font-size="10.00"> &#45;committed_physical</text>
<text text-anchor="middle" x="942" y="-1048" font-family="Helvetica,sans-Serif" font-size="10.00">_memory_</text>
<text text-anchor="start" x="889" y="-1037" font-family="Helvetica,sans-Serif" font-size="10.00">&#45;current_capacity</text>
<text text-anchor="middle" x="942" y="-1026" font-family="Helvetica,sans-Serif" font-size="10.00">_</text>
<text text-anchor="start" x="889" y="-1015" font-family="Helvetica,sans-Serif" font-size="10.00">&#45;quarantined_pages</text>
<text text-anchor="middle" x="942" y="-1004" font-family="Helvetica,sans-Serif" font-size="10.00">_count_</text>
</g>
<!-- Node15 -->
<g id="node15" class="node">
<title>Node15</title>
<g id="a_node15"><a xlink:href="classv8_1_1internal_1_1BaseSpace.html" target="_top" xlink:title=" ">
<polygon fill="white" stroke="red" points="911,-1129.5 911,-1307.5 1091,-1307.5 1091,-1129.5 911,-1129.5"/>
<text text-anchor="middle" x="1001" y="-1295.5" font-family="Helvetica,sans-Serif" font-size="10.00">v8::internal::BaseSpace</text>
<polyline fill="none" stroke="red" points="911,-1288.5 1091,-1288.5 "/>
<text text-anchor="middle" x="1001" y="-1276.5" font-family="Helvetica,sans-Serif" font-size="10.00"> </text>
<polyline fill="none" stroke="red" points="911,-1269.5 1091,-1269.5 "/>
<text text-anchor="start" x="919" y="-1257.5" font-family="Helvetica,sans-Serif" font-size="10.00">+ BaseSpace()</text>
<text text-anchor="start" x="919" y="-1246.5" font-family="Helvetica,sans-Serif" font-size="10.00">+ operator=()</text>
<text text-anchor="start" x="919" y="-1235.5" font-family="Helvetica,sans-Serif" font-size="10.00">+ heap()</text>
<text text-anchor="start" x="919" y="-1224.5" font-family="Helvetica,sans-Serif" font-size="10.00">+ identity()</text>
<text text-anchor="start" x="919" y="-1213.5" font-family="Helvetica,sans-Serif" font-size="10.00">+ CommittedMemory()</text>
<text text-anchor="start" x="919" y="-1202.5" font-family="Helvetica,sans-Serif" font-size="10.00">+ MaximumCommittedMemory()</text>
<text text-anchor="start" x="919" y="-1191.5" font-family="Helvetica,sans-Serif" font-size="10.00">+ CommittedPhysicalMemory()</text>
<text text-anchor="start" x="919" y="-1180.5" font-family="Helvetica,sans-Serif" font-size="10.00">+ Size()</text>
<text text-anchor="start" x="919" y="-1169.5" font-family="Helvetica,sans-Serif" font-size="10.00"># BaseSpace()</text>
<text text-anchor="start" x="919" y="-1158.5" font-family="Helvetica,sans-Serif" font-size="10.00"># ~BaseSpace()</text>
<text text-anchor="start" x="919" y="-1147.5" font-family="Helvetica,sans-Serif" font-size="10.00"># AccountCommitted()</text>
<text text-anchor="start" x="919" y="-1136.5" font-family="Helvetica,sans-Serif" font-size="10.00"># AccountUncommitted()</text>
</a>
</g>
</g>
<!-- Node11&#45;&gt;Node15 -->
<g id="edge17" class="edge">
<title>Node11&#45;&gt;Node15</title>
<path fill="none" stroke="#404040" d="M898.67,-1399.45C910.61,-1378.44 927.84,-1348.15 944.76,-1318.39"/>
<polygon fill="none" stroke="#404040" points="944.79,-1318.34 944.28,-1311.14 950.73,-1307.9 951.24,-1315.1 944.79,-1318.34"/>
<text text-anchor="middle" x="962.5" y="-1373" font-family="Helvetica,sans-Serif" font-size="10.00"> #max_committed_</text>
</g>
<!-- Node12 -->
<g id="node12" class="node">
<title>Node12</title>
<g id="a_node12"><a xlink:href="classuintptr__t.html" target="_top" xlink:title=" ">
<polygon fill="white" stroke="black" points="1049,-496 1049,-553 1107,-553 1107,-496 1049,-496"/>
<text text-anchor="middle" x="1078" y="-541" font-family="Helvetica,sans-Serif" font-size="10.00">uintptr_t</text>
<polyline fill="none" stroke="black" points="1049,-534 1107,-534 "/>
<text text-anchor="middle" x="1078" y="-522" font-family="Helvetica,sans-Serif" font-size="10.00"> </text>
<polyline fill="none" stroke="black" points="1049,-515 1107,-515 "/>
<text text-anchor="middle" x="1078" y="-503" font-family="Helvetica,sans-Serif" font-size="10.00"> </text>
</a>
</g>
</g>
<!-- Node12&#45;&gt;Node1 -->
<g id="edge12" class="edge">
<title>Node12&#45;&gt;Node1</title>
<path fill="none" stroke="#404040" d="M1076.5,-495.92C1073.6,-465.06 1065.06,-414.83 1040,-380 985.73,-304.56 896.58,-248.04 824.47,-211.48"/>
<polygon fill="none" stroke="#404040" points="824.25,-211.36 817.09,-212.26 813.51,-206 820.66,-205.1 824.25,-211.36"/>
<text text-anchor="middle" x="1059.5" y="-354" font-family="Helvetica,sans-Serif" font-size="10.00"> &#45;age_mark_</text>
<text text-anchor="middle" x="1059.5" y="-343" font-family="Helvetica,sans-Serif" font-size="10.00">&#45;allocation_top_</text>
</g>
<!-- Node13&#45;&gt;Node1 -->
<g id="edge13" class="edge">
<title>Node13&#45;&gt;Node1</title>
<path fill="none" stroke="#404040" d="M857.5,-390.43C845.13,-371.4 832.26,-351.61 819.51,-331.99"/>
<polygon fill="none" stroke="#404040" points="819.39,-331.82 812.77,-328.96 812.85,-321.75 819.48,-324.6 819.39,-331.82"/>
<text text-anchor="middle" x="868" y="-354" font-family="Helvetica,sans-Serif" font-size="10.00"> &#45;from_space_</text>
<text text-anchor="middle" x="868" y="-343" font-family="Helvetica,sans-Serif" font-size="10.00">&#45;to_space_</text>
</g>
<!-- Node14 -->
<g id="node14" class="node">
<title>Node14</title>
<g id="a_node14"><a xlink:href="classv8_1_1internal_1_1Space.html" target="_top" xlink:title=" ">
<polygon fill="white" stroke="black" points="920,-749.5 920,-960.5 1088,-960.5 1088,-749.5 920,-749.5"/>
<text text-anchor="middle" x="1004" y="-948.5" font-family="Helvetica,sans-Serif" font-size="10.00">v8::internal::Space</text>
<polyline fill="none" stroke="black" points="920,-941.5 1088,-941.5 "/>
<text text-anchor="middle" x="1004" y="-929.5" font-family="Helvetica,sans-Serif" font-size="10.00"> </text>
<polyline fill="none" stroke="black" points="920,-922.5 1088,-922.5 "/>
<text text-anchor="start" x="928" y="-910.5" font-family="Helvetica,sans-Serif" font-size="10.00">+ Space()</text>
<text text-anchor="start" x="928" y="-899.5" font-family="Helvetica,sans-Serif" font-size="10.00">+ ~Space()</text>
<text text-anchor="start" x="928" y="-888.5" font-family="Helvetica,sans-Serif" font-size="10.00">+ Space()</text>
<text text-anchor="start" x="928" y="-877.5" font-family="Helvetica,sans-Serif" font-size="10.00">+ operator=()</text>
<text text-anchor="start" x="928" y="-866.5" font-family="Helvetica,sans-Serif" font-size="10.00">+ SizeOfObjects()</text>
<text text-anchor="start" x="928" y="-855.5" font-family="Helvetica,sans-Serif" font-size="10.00">+ Available()</text>
<text text-anchor="start" x="928" y="-844.5" font-family="Helvetica,sans-Serif" font-size="10.00">+ GetObjectIterator()</text>
<text text-anchor="start" x="928" y="-833.5" font-family="Helvetica,sans-Serif" font-size="10.00">+ IncrementExternalBacking</text>
<text text-anchor="start" x="928" y="-822.5" font-family="Helvetica,sans-Serif" font-size="10.00">StoreBytes()</text>
<text text-anchor="start" x="928" y="-811.5" font-family="Helvetica,sans-Serif" font-size="10.00">+ DecrementExternalBacking</text>
<text text-anchor="start" x="928" y="-800.5" font-family="Helvetica,sans-Serif" font-size="10.00">StoreBytes()</text>
<text text-anchor="start" x="928" y="-789.5" font-family="Helvetica,sans-Serif" font-size="10.00">+ ExternalBackingStoreBytes()</text>
<text text-anchor="start" x="928" y="-778.5" font-family="Helvetica,sans-Serif" font-size="10.00">and 10 more...</text>
<text text-anchor="start" x="928" y="-767.5" font-family="Helvetica,sans-Serif" font-size="10.00">+ MoveExternalBackingStore</text>
<text text-anchor="start" x="928" y="-756.5" font-family="Helvetica,sans-Serif" font-size="10.00">Bytes()</text>
</a>
</g>
</g>
<!-- Node14&#45;&gt;Node13 -->
<g id="edge14" class="edge">
<title>Node14&#45;&gt;Node13</title>
<path fill="none" stroke="midnightblue" d="M983.02,-739.14C978.86,-716.36 974.44,-692.18 970.13,-668.59"/>
<polygon fill="none" stroke="midnightblue" points="979.61,-739.95 984.85,-749.16 986.5,-738.69 979.61,-739.95"/>
</g>
<!-- Node15&#45;&gt;Node14 -->
<g id="edge15" class="edge">
<title>Node15&#45;&gt;Node14</title>
<path fill="none" stroke="midnightblue" d="M1001.82,-1119.07C1002.22,-1069.93 1002.72,-1010.48 1003.13,-960.53"/>
<polygon fill="none" stroke="midnightblue" points="998.32,-1119.04 1001.73,-1129.07 1005.32,-1119.1 998.32,-1119.04"/>
</g>
<!-- Node18 -->
<g id="node16" class="node">
<title>Node18</title>
<g id="a_node16"><a xlink:title=" ">
<polygon fill="white" stroke="#bfbfbf" points="1022,-1399.5 1022,-1456.5 1144,-1456.5 1144,-1399.5 1022,-1399.5"/>
<text text-anchor="middle" x="1083" y="-1444.5" font-family="Helvetica,sans-Serif" font-size="10.00">std::atomic&lt; size_t &gt;</text>
<polyline fill="none" stroke="#bfbfbf" points="1022,-1437.5 1144,-1437.5 "/>
<text text-anchor="start" x="1030" y="-1425.5" font-family="Helvetica,sans-Serif" font-size="10.00">+ ptr</text>
<polyline fill="none" stroke="#bfbfbf" points="1022,-1418.5 1144,-1418.5 "/>
<text text-anchor="middle" x="1083" y="-1406.5" font-family="Helvetica,sans-Serif" font-size="10.00"> </text>
</a>
</g>
</g>
<!-- Node18&#45;&gt;Node14 -->
<g id="edge19" class="edge">
<title>Node18&#45;&gt;Node14</title>
<path fill="none" stroke="#404040" d="M1104.64,-1399.32C1108.08,-1393.55 1111.13,-1387.31 1113,-1381 1114.39,-1376.31 1113.11,-1374.89 1113,-1370 1110.11,-1243.23 1127.83,-1208.71 1100,-1085 1091.46,-1047.05 1077.02,-1007.4 1061.89,-971.97"/>
<polygon fill="none" stroke="#404040" points="1061.74,-971.62 1055.68,-967.71 1056.96,-960.62 1063.02,-964.53 1061.74,-971.62"/>
<text text-anchor="start" x="1115" y="-1221.5" font-family="Helvetica,sans-Serif" font-size="10.00"> #external_backing_store</text>
<text text-anchor="middle" x="1178" y="-1210.5" font-family="Helvetica,sans-Serif" font-size="10.00">_bytes_</text>
</g>
<!-- Node18&#45;&gt;Node15 -->
<g id="edge16" class="edge">
<title>Node18&#45;&gt;Node15</title>
<path fill="none" stroke="#404040" d="M1055.4,-1399.31C1050.75,-1393.6 1046.36,-1387.37 1043,-1381 1032.97,-1361.97 1025.22,-1340.39 1019.28,-1319.35"/>
<polygon fill="none" stroke="#404040" points="1019.28,-1319.32 1013.86,-1314.56 1016.16,-1307.73 1021.58,-1312.49 1019.28,-1319.32"/>
<text text-anchor="middle" x="1078" y="-1373" font-family="Helvetica,sans-Serif" font-size="10.00"> #committed_</text>
</g>
<!-- Node653 -->
<g id="node17" class="node">
<title>Node653</title>
<g id="a_node17"><a xlink:title=" ">
<polygon fill="white" stroke="#bfbfbf" points="1271,-1184.5 1271,-1252.5 1387,-1252.5 1387,-1184.5 1271,-1184.5"/>
<text text-anchor="start" x="1279" y="-1240.5" font-family="Helvetica,sans-Serif" font-size="10.00">std::unique_ptr&lt; v8</text>
<text text-anchor="middle" x="1329" y="-1229.5" font-family="Helvetica,sans-Serif" font-size="10.00">::internal::FreeList &gt;</text>
<polyline fill="none" stroke="#bfbfbf" points="1271,-1222.5 1387,-1222.5 "/>
<text text-anchor="start" x="1279" y="-1210.5" font-family="Helvetica,sans-Serif" font-size="10.00">+ ptr</text>
<polyline fill="none" stroke="#bfbfbf" points="1271,-1203.5 1387,-1203.5 "/>
<text text-anchor="start" x="1279" y="-1191.5" font-family="Helvetica,sans-Serif" font-size="10.00">+ operator&#45;&gt;()</text>
</a>
</g>
</g>
<!-- Node653&#45;&gt;Node14 -->
<g id="edge18" class="edge">
<title>Node653&#45;&gt;Node14</title>
<path fill="none" stroke="#404040" d="M1316.01,-1184.47C1303.72,-1156 1283.27,-1114.89 1257,-1085 1214.98,-1037.18 1196.5,-1032.16 1141,-1001 1122.93,-990.86 1114.3,-995.78 1098,-983 1092.54,-978.72 1087.24,-974.04 1082.12,-969.09"/>
<polygon fill="none" stroke="#404040" points="1082.1,-969.07 1075.04,-967.6 1073.68,-960.52 1080.74,-961.99 1082.1,-969.07"/>
<text text-anchor="middle" x="1266.5" y="-1031.5" font-family="Helvetica,sans-Serif" font-size="10.00"> #free_list_</text>
</g>
<!-- Node654 -->
<g id="node18" class="node">
<title>Node654</title>
<g id="a_node18"><a xlink:href="classv8_1_1internal_1_1heap_1_1List.html" target="_top" xlink:title=" ">
<polygon fill="white" stroke="red" points="1405.5,-1085.5 1405.5,-1351.5 1548.5,-1351.5 1548.5,-1085.5 1405.5,-1085.5"/>
<text text-anchor="start" x="1413.5" y="-1339.5" font-family="Helvetica,sans-Serif" font-size="10.00">v8::internal::heap</text>
<text text-anchor="start" x="1413.5" y="-1328.5" font-family="Helvetica,sans-Serif" font-size="10.00">::List&lt; v8::internal</text>
<text text-anchor="middle" x="1477" y="-1317.5" font-family="Helvetica,sans-Serif" font-size="10.00">::MutablePageMetadata &gt;</text>
<polyline fill="none" stroke="red" points="1405.5,-1310.5 1548.5,-1310.5 "/>
<text text-anchor="start" x="1413.5" y="-1298.5" font-family="Helvetica,sans-Serif" font-size="10.00">&#45; front_</text>
<text text-anchor="start" x="1413.5" y="-1287.5" font-family="Helvetica,sans-Serif" font-size="10.00">&#45; back_</text>
<text text-anchor="start" x="1413.5" y="-1276.5" font-family="Helvetica,sans-Serif" font-size="10.00">&#45; size_</text>
<polyline fill="none" stroke="red" points="1405.5,-1269.5 1548.5,-1269.5 "/>
<text text-anchor="start" x="1413.5" y="-1257.5" font-family="Helvetica,sans-Serif" font-size="10.00">+ List()</text>
<text text-anchor="start" x="1413.5" y="-1246.5" font-family="Helvetica,sans-Serif" font-size="10.00">+ List()</text>
<text text-anchor="start" x="1413.5" y="-1235.5" font-family="Helvetica,sans-Serif" font-size="10.00">+ operator=()</text>
<text text-anchor="start" x="1413.5" y="-1224.5" font-family="Helvetica,sans-Serif" font-size="10.00">+ PushBack()</text>
<text text-anchor="start" x="1413.5" y="-1213.5" font-family="Helvetica,sans-Serif" font-size="10.00">+ PushFront()</text>
<text text-anchor="start" x="1413.5" y="-1202.5" font-family="Helvetica,sans-Serif" font-size="10.00">+ Remove()</text>
<text text-anchor="start" x="1413.5" y="-1191.5" font-family="Helvetica,sans-Serif" font-size="10.00">+ Contains()</text>
<text text-anchor="start" x="1413.5" y="-1180.5" font-family="Helvetica,sans-Serif" font-size="10.00">+ Empty()</text>
<text text-anchor="start" x="1413.5" y="-1169.5" font-family="Helvetica,sans-Serif" font-size="10.00">+ front()</text>
<text text-anchor="start" x="1413.5" y="-1158.5" font-family="Helvetica,sans-Serif" font-size="10.00">+ front()</text>
<text text-anchor="start" x="1413.5" y="-1147.5" font-family="Helvetica,sans-Serif" font-size="10.00">+ back()</text>
<text text-anchor="start" x="1413.5" y="-1136.5" font-family="Helvetica,sans-Serif" font-size="10.00">+ back()</text>
<text text-anchor="start" x="1413.5" y="-1125.5" font-family="Helvetica,sans-Serif" font-size="10.00">+ size()</text>
<text text-anchor="start" x="1413.5" y="-1114.5" font-family="Helvetica,sans-Serif" font-size="10.00">&#45; AddFirstElement()</text>
<text text-anchor="start" x="1413.5" y="-1103.5" font-family="Helvetica,sans-Serif" font-size="10.00">&#45; InsertAfter()</text>
<text text-anchor="start" x="1413.5" y="-1092.5" font-family="Helvetica,sans-Serif" font-size="10.00">&#45; InsertBefore()</text>
</a>
</g>
</g>
<!-- Node654&#45;&gt;Node14 -->
<g id="edge20" class="edge">
<title>Node654&#45;&gt;Node14</title>
<path fill="none" stroke="#404040" d="M1405.28,-1096.47C1402.23,-1092.54 1399.14,-1088.7 1396,-1085 1359.13,-1041.49 1351.49,-1023.29 1299,-1001 1216.44,-965.95 1176.21,-1026.9 1098,-983 1090.85,-978.99 1084.08,-974.18 1077.72,-968.81"/>
<polygon fill="none" stroke="#404040" points="1077.55,-968.66 1070.42,-967.58 1068.67,-960.59 1075.8,-961.66 1077.55,-968.66"/>
<text text-anchor="middle" x="1436.5" y="-1031.5" font-family="Helvetica,sans-Serif" font-size="10.00"> #memory_chunk_list_</text>
</g>
<!-- Node130 -->
<g id="node19" class="node">
<title>Node130</title>
<g id="a_node19"><a xlink:href="classv8_1_1internal_1_1PageMetadata.html" target="_top" xlink:title=" ">
<polygon fill="white" stroke="red" points="1106.5,-727.5 1106.5,-982.5 1285.5,-982.5 1285.5,-727.5 1106.5,-727.5"/>
<text text-anchor="middle" x="1196" y="-970.5" font-family="Helvetica,sans-Serif" font-size="10.00">v8::internal::PageMetadata</text>
<polyline fill="none" stroke="red" points="1106.5,-963.5 1285.5,-963.5 "/>
<text text-anchor="middle" x="1196" y="-951.5" font-family="Helvetica,sans-Serif" font-size="10.00"> </text>
<polyline fill="none" stroke="red" points="1106.5,-944.5 1285.5,-944.5 "/>
<text text-anchor="start" x="1114.5" y="-932.5" font-family="Helvetica,sans-Serif" font-size="10.00">+ PageMetadata()</text>
<text text-anchor="start" x="1114.5" y="-921.5" font-family="Helvetica,sans-Serif" font-size="10.00">+ MarkNeverAllocateForTesting()</text>
<text text-anchor="start" x="1114.5" y="-910.5" font-family="Helvetica,sans-Serif" font-size="10.00">+ MarkEvacuationCandidate()</text>
<text text-anchor="start" x="1114.5" y="-899.5" font-family="Helvetica,sans-Serif" font-size="10.00">+ ClearEvacuationCandidate()</text>
<text text-anchor="start" x="1114.5" y="-888.5" font-family="Helvetica,sans-Serif" font-size="10.00">+ next_page()</text>
<text text-anchor="start" x="1114.5" y="-877.5" font-family="Helvetica,sans-Serif" font-size="10.00">+ prev_page()</text>
<text text-anchor="start" x="1114.5" y="-866.5" font-family="Helvetica,sans-Serif" font-size="10.00">+ next_page()</text>
<text text-anchor="start" x="1114.5" y="-855.5" font-family="Helvetica,sans-Serif" font-size="10.00">+ prev_page()</text>
<text text-anchor="start" x="1114.5" y="-844.5" font-family="Helvetica,sans-Serif" font-size="10.00">+ ForAllFreeListCategories()</text>
<text text-anchor="start" x="1114.5" y="-833.5" font-family="Helvetica,sans-Serif" font-size="10.00">+ AvailableInFreeList()</text>
<text text-anchor="start" x="1114.5" y="-822.5" font-family="Helvetica,sans-Serif" font-size="10.00">and 10 more...</text>
<text text-anchor="start" x="1114.5" y="-811.5" font-family="Helvetica,sans-Serif" font-size="10.00">+ FromAddress()</text>
<text text-anchor="start" x="1114.5" y="-800.5" font-family="Helvetica,sans-Serif" font-size="10.00">+ FromHeapObject()</text>
<text text-anchor="start" x="1114.5" y="-789.5" font-family="Helvetica,sans-Serif" font-size="10.00">+ cast()</text>
<text text-anchor="start" x="1114.5" y="-778.5" font-family="Helvetica,sans-Serif" font-size="10.00">+ cast()</text>
<text text-anchor="start" x="1114.5" y="-767.5" font-family="Helvetica,sans-Serif" font-size="10.00">+ FromAllocationAreaAddress()</text>
<text text-anchor="start" x="1114.5" y="-756.5" font-family="Helvetica,sans-Serif" font-size="10.00">+ OnSamePage()</text>
<text text-anchor="start" x="1114.5" y="-745.5" font-family="Helvetica,sans-Serif" font-size="10.00">+ IsAlignedToPageSize()</text>
<text text-anchor="start" x="1114.5" y="-734.5" font-family="Helvetica,sans-Serif" font-size="10.00">+ ConvertNewToOld()</text>
</a>
</g>
</g>
<!-- Node130&#45;&gt;Node13 -->
<g id="edge21" class="edge">
<title>Node130&#45;&gt;Node13</title>
<path fill="none" stroke="#404040" d="M1106.44,-737.95C1103.28,-734.23 1100.13,-730.57 1097,-727 1073.18,-699.81 1062.81,-697.03 1040,-669 1039.41,-668.28 1038.83,-667.56 1038.24,-666.83"/>
<polygon fill="none" stroke="#404040" points="1038.09,-666.64 1031.23,-664.4 1030.66,-657.22 1037.51,-659.45 1038.09,-666.64"/>
<text text-anchor="middle" x="1117" y="-695.5" font-family="Helvetica,sans-Serif" font-size="10.00"> &#45;current_page_</text>
</g>
<!-- Node656 -->
<g id="node20" class="node">
<title>Node656</title>
<g id="a_node20"><a xlink:title=" ">
<polygon fill="white" stroke="#bfbfbf" points="1304,-826.5 1304,-883.5 1384,-883.5 1384,-826.5 1304,-826.5"/>
<text text-anchor="middle" x="1344" y="-871.5" font-family="Helvetica,sans-Serif" font-size="10.00">SemiSpaceId</text>
<polyline fill="none" stroke="#bfbfbf" points="1304,-864.5 1384,-864.5 "/>
<text text-anchor="middle" x="1344" y="-852.5" font-family="Helvetica,sans-Serif" font-size="10.00"> </text>
<polyline fill="none" stroke="#bfbfbf" points="1304,-845.5 1384,-845.5 "/>
<text text-anchor="middle" x="1344" y="-833.5" font-family="Helvetica,sans-Serif" font-size="10.00"> </text>
</a>
</g>
</g>
<!-- Node656&#45;&gt;Node13 -->
<g id="edge23" class="edge">
<title>Node656&#45;&gt;Node13</title>
<path fill="none" stroke="#404040" d="M1340.56,-826.49C1335.53,-797.72 1323.42,-753.18 1295,-727 1248.66,-684.32 1220.51,-700.63 1159,-687 1110.24,-676.2 1088.16,-694.86 1041.17,-668.82"/>
<polygon fill="none" stroke="#404040" points="1041.04,-668.74 1033.83,-669.08 1030.75,-662.56 1037.95,-662.22 1041.04,-668.74"/>
<text text-anchor="middle" x="1279" y="-695.5" font-family="Helvetica,sans-Serif" font-size="10.00"> &#45;id_</text>
</g>
</g>
</svg>
