<?xml version="1.0" encoding="UTF-8" standalone="no"?>
<!DOCTYPE svg PUBLIC "-//W3C//DTD SVG 1.1//EN"
 "http://www.w3.org/Graphics/SVG/1.1/DTD/svg11.dtd">
<!-- Generated by graphviz version 2.43.0 (0)
 -->
<!-- Title: v8::internal::Assembler::MaybeEmitOutOfLineConstantPool Pages: 1 -->
<svg width="651pt" height="100pt"
 viewBox="0.00 0.00 651.00 99.50" xmlns="http://www.w3.org/2000/svg" xmlns:xlink="http://www.w3.org/1999/xlink">
<g id="graph0" class="graph" transform="scale(1 1) rotate(0) translate(4 95.5)">
<title>v8::internal::Assembler::MaybeEmitOutOfLineConstantPool</title>
<polygon fill="white" stroke="transparent" points="-4,4 -4,-95.5 647,-95.5 647,4 -4,4"/>
<!-- Node1 -->
<g id="node1" class="node">
<title>Node1</title>
<g id="a_node1"><a xlink:title=" ">
<polygon fill="#bfbfbf" stroke="black" points="452,-33 452,-63 643,-63 643,-33 452,-33"/>
<text text-anchor="start" x="460" y="-51" font-family="Helvetica,sans-Serif" font-size="10.00">v8::internal::Assembler</text>
<text text-anchor="middle" x="547.5" y="-40" font-family="Helvetica,sans-Serif" font-size="10.00">::MaybeEmitOutOfLineConstantPool</text>
</a>
</g>
</g>
<!-- Node2 -->
<g id="node2" class="node">
<title>Node2</title>
<g id="a_node2"><a xlink:href="classv8_1_1internal_1_1compiler_1_1CodeGenerator.html#a66b300247e9913b6e1e1d8b79c7f857c" target="_top" xlink:title=" ">
<polygon fill="white" stroke="black" points="241,-61 241,-91 416,-91 416,-61 241,-61"/>
<text text-anchor="start" x="249" y="-79" font-family="Helvetica,sans-Serif" font-size="10.00">v8::internal::compiler</text>
<text text-anchor="middle" x="328.5" y="-68" font-family="Helvetica,sans-Serif" font-size="10.00">::CodeGenerator::AssembleCode</text>
</a>
</g>
</g>
<!-- Node1&#45;&gt;Node2 -->
<g id="edge1" class="edge">
<title>Node1&#45;&gt;Node2</title>
<path fill="none" stroke="midnightblue" d="M441.89,-61.5C433.29,-62.61 424.66,-63.72 416.22,-64.81"/>
<polygon fill="midnightblue" stroke="midnightblue" points="442.48,-64.95 451.95,-60.2 441.59,-58.01 442.48,-64.95"/>
</g>
<!-- Node4 -->
<g id="node4" class="node">
<title>Node4</title>
<g id="a_node4"><a xlink:href="classv8_1_1internal_1_1compiler_1_1CodeGenerator.html#a773afef84d22ddc306bef841b07bbbca" target="_top" xlink:title=" ">
<polygon fill="white" stroke="black" points="241,-0.5 241,-41.5 416,-41.5 416,-0.5 241,-0.5"/>
<text text-anchor="start" x="249" y="-29.5" font-family="Helvetica,sans-Serif" font-size="10.00">v8::internal::compiler</text>
<text text-anchor="start" x="249" y="-18.5" font-family="Helvetica,sans-Serif" font-size="10.00">::CodeGenerator::MaybeEmitOut</text>
<text text-anchor="middle" x="328.5" y="-7.5" font-family="Helvetica,sans-Serif" font-size="10.00">OfLineConstantPool</text>
</a>
</g>
</g>
<!-- Node1&#45;&gt;Node4 -->
<g id="edge3" class="edge">
<title>Node1&#45;&gt;Node4</title>
<path fill="none" stroke="midnightblue" d="M441.89,-34.98C433.29,-33.91 424.66,-32.84 416.22,-31.79"/>
<polygon fill="midnightblue" stroke="midnightblue" points="441.6,-38.47 451.95,-36.24 442.46,-31.53 441.6,-38.47"/>
</g>
<!-- Node3 -->
<g id="node3" class="node">
<title>Node3</title>
<g id="a_node3"><a xlink:href="structv8_1_1internal_1_1compiler_1_1turboshaft_1_1AssembleCodePhase.html#a5af3c3e5dfdfa6aaef3a0ecfc2b0b5a7" target="_top" xlink:title=" ">
<polygon fill="white" stroke="black" points="0,-61 0,-91 205,-91 205,-61 0,-61"/>
<text text-anchor="start" x="8" y="-79" font-family="Helvetica,sans-Serif" font-size="10.00">v8::internal::compiler</text>
<text text-anchor="middle" x="102.5" y="-68" font-family="Helvetica,sans-Serif" font-size="10.00">::turboshaft::AssembleCodePhase::Run</text>
</a>
</g>
</g>
<!-- Node2&#45;&gt;Node3 -->
<g id="edge2" class="edge">
<title>Node2&#45;&gt;Node3</title>
<path fill="none" stroke="midnightblue" d="M230.67,-76C222.23,-76 213.67,-76 205.19,-76"/>
<polygon fill="midnightblue" stroke="midnightblue" points="230.9,-79.5 240.9,-76 230.9,-72.5 230.9,-79.5"/>
</g>
</g>
</svg>
