<?xml version="1.0" encoding="UTF-8" standalone="no"?>
<!DOCTYPE svg PUBLIC "-//W3C//DTD SVG 1.1//EN"
 "http://www.w3.org/Graphics/SVG/1.1/DTD/svg11.dtd">
<!-- Generated by graphviz version 2.43.0 (0)
 -->
<!-- Title: v8::base::AsAtomicImpl::Release_SetBits Pages: 1 -->
<svg width="670pt" height="181pt"
 viewBox="0.00 0.00 670.00 181.00" xmlns="http://www.w3.org/2000/svg" xmlns:xlink="http://www.w3.org/1999/xlink">
<g id="graph0" class="graph" transform="scale(1 1) rotate(0) translate(4 177)">
<title>v8::base::AsAtomicImpl::Release_SetBits</title>
<polygon fill="white" stroke="transparent" points="-4,4 -4,-177 666,-177 666,4 -4,4"/>
<!-- Node1 -->
<g id="node1" class="node">
<title>Node1</title>
<g id="a_node1"><a xlink:title=" ">
<polygon fill="#bfbfbf" stroke="black" points="0,-73.5 0,-103.5 132,-103.5 132,-73.5 0,-73.5"/>
<text text-anchor="start" x="8" y="-91.5" font-family="Helvetica,sans-Serif" font-size="10.00">v8::base::AsAtomicImpl</text>
<text text-anchor="middle" x="66" y="-80.5" font-family="Helvetica,sans-Serif" font-size="10.00">::Release_SetBits</text>
</a>
</g>
</g>
<!-- Node2 -->
<g id="node2" class="node">
<title>Node2</title>
<g id="a_node2"><a xlink:href="classv8_1_1base_1_1AsAtomicImpl.html#ae17a848e6e9140dda698d2f1395d6cff" target="_top" xlink:title=" ">
<polygon fill="white" stroke="black" points="180,-98.5 180,-128.5 312,-128.5 312,-98.5 180,-98.5"/>
<text text-anchor="start" x="188" y="-116.5" font-family="Helvetica,sans-Serif" font-size="10.00">v8::base::AsAtomicImpl</text>
<text text-anchor="middle" x="246" y="-105.5" font-family="Helvetica,sans-Serif" font-size="10.00">::Relaxed_Load</text>
</a>
</g>
</g>
<!-- Node1&#45;&gt;Node2 -->
<g id="edge1" class="edge">
<title>Node1&#45;&gt;Node2</title>
<path fill="none" stroke="midnightblue" d="M132.02,-97.63C144.32,-99.36 157.28,-101.18 169.87,-102.95"/>
<polygon fill="midnightblue" stroke="midnightblue" points="169.47,-106.43 179.86,-104.35 170.44,-99.49 169.47,-106.43"/>
</g>
<!-- Node7 -->
<g id="node7" class="node">
<title>Node7</title>
<g id="a_node7"><a xlink:href="classv8_1_1base_1_1AsAtomicImpl.html#a1d47dbefe9ac1774c8c91bcc308071cd" target="_top" xlink:title=" ">
<polygon fill="white" stroke="black" points="168,-49.5 168,-79.5 324,-79.5 324,-49.5 168,-49.5"/>
<text text-anchor="start" x="176" y="-67.5" font-family="Helvetica,sans-Serif" font-size="10.00">v8::base::AsAtomicImpl</text>
<text text-anchor="middle" x="246" y="-56.5" font-family="Helvetica,sans-Serif" font-size="10.00">::Release_CompareAndSwap</text>
</a>
</g>
</g>
<!-- Node1&#45;&gt;Node7 -->
<g id="edge6" class="edge">
<title>Node1&#45;&gt;Node7</title>
<path fill="none" stroke="midnightblue" d="M132.02,-79.73C140.37,-78.61 149.03,-77.44 157.66,-76.28"/>
<polygon fill="midnightblue" stroke="midnightblue" points="158.33,-79.72 167.77,-74.91 157.39,-72.78 158.33,-79.72"/>
</g>
<!-- Node3 -->
<g id="node3" class="node">
<title>Node3</title>
<g id="a_node3"><a xlink:href="namespacev8_1_1base.html#a2e581b5cd5e9342670c135a3b365160c" target="_top" xlink:title=" ">
<polygon fill="white" stroke="black" points="372.5,-148 372.5,-167 503.5,-167 503.5,-148 372.5,-148"/>
<text text-anchor="middle" x="438" y="-155" font-family="Helvetica,sans-Serif" font-size="10.00">v8::base::Relaxed_Load</text>
</a>
</g>
</g>
<!-- Node2&#45;&gt;Node3 -->
<g id="edge2" class="edge">
<title>Node2&#45;&gt;Node3</title>
<path fill="none" stroke="midnightblue" d="M311.86,-128.52C336.11,-134.14 363.29,-140.43 386.1,-145.71"/>
<polygon fill="midnightblue" stroke="midnightblue" points="385.39,-149.14 395.92,-147.99 386.97,-142.32 385.39,-149.14"/>
</g>
<!-- Node5 -->
<g id="node5" class="node">
<title>Node5</title>
<g id="a_node5"><a xlink:href="structv8_1_1base_1_1AsAtomicImpl_1_1cast__helper.html#a1775b69ef47cfda6007011ba817c34bb" target="_top" xlink:title=" ">
<polygon fill="white" stroke="black" points="360,-98.5 360,-128.5 516,-128.5 516,-98.5 360,-98.5"/>
<text text-anchor="start" x="368" y="-116.5" font-family="Helvetica,sans-Serif" font-size="10.00">v8::base::AsAtomicImpl</text>
<text text-anchor="middle" x="438" y="-105.5" font-family="Helvetica,sans-Serif" font-size="10.00">::cast_helper::to_return_type</text>
</a>
</g>
</g>
<!-- Node2&#45;&gt;Node5 -->
<g id="edge4" class="edge">
<title>Node2&#45;&gt;Node5</title>
<path fill="none" stroke="midnightblue" d="M312.12,-113.5C324.24,-113.5 337.09,-113.5 349.75,-113.5"/>
<polygon fill="midnightblue" stroke="midnightblue" points="349.84,-117 359.84,-113.5 349.84,-110 349.84,-117"/>
</g>
<!-- Node6 -->
<g id="node6" class="node">
<title>Node6</title>
<g id="a_node6"><a xlink:href="classv8_1_1base_1_1AsAtomicImpl.html#a0d7f971291a74254ada607c6c0b0759a" target="_top" xlink:title=" ">
<polygon fill="white" stroke="black" points="372,-49.5 372,-79.5 504,-79.5 504,-49.5 372,-49.5"/>
<text text-anchor="start" x="380" y="-67.5" font-family="Helvetica,sans-Serif" font-size="10.00">v8::base::AsAtomicImpl</text>
<text text-anchor="middle" x="438" y="-56.5" font-family="Helvetica,sans-Serif" font-size="10.00">::to_storage_addr</text>
</a>
</g>
</g>
<!-- Node2&#45;&gt;Node6 -->
<g id="edge5" class="edge">
<title>Node2&#45;&gt;Node6</title>
<path fill="none" stroke="midnightblue" d="M305.3,-98.47C325.45,-93.27 348.21,-87.4 369.06,-82.02"/>
<polygon fill="midnightblue" stroke="midnightblue" points="370,-85.39 378.81,-79.51 368.26,-78.61 370,-85.39"/>
</g>
<!-- Node4 -->
<g id="node4" class="node">
<title>Node4</title>
<g id="a_node4"><a xlink:href="namespacev8_1_1base_1_1helper.html#a1e7e6daeef4677bbe103d0c111e2cdaa" target="_top" xlink:title=" ">
<polygon fill="white" stroke="black" points="552,-142.5 552,-172.5 662,-172.5 662,-142.5 552,-142.5"/>
<text text-anchor="start" x="560" y="-160.5" font-family="Helvetica,sans-Serif" font-size="10.00">v8::base::helper::to</text>
<text text-anchor="middle" x="607" y="-149.5" font-family="Helvetica,sans-Serif" font-size="10.00">_std_atomic_const</text>
</a>
</g>
</g>
<!-- Node3&#45;&gt;Node4 -->
<g id="edge3" class="edge">
<title>Node3&#45;&gt;Node4</title>
<path fill="none" stroke="midnightblue" d="M503.57,-157.5C516.04,-157.5 529.12,-157.5 541.59,-157.5"/>
<polygon fill="midnightblue" stroke="midnightblue" points="541.9,-161 551.9,-157.5 541.9,-154 541.9,-161"/>
</g>
<!-- Node7&#45;&gt;Node5 -->
<g id="edge9" class="edge">
<title>Node7&#45;&gt;Node5</title>
<path fill="none" stroke="midnightblue" d="M305.3,-79.53C325.45,-84.73 348.21,-90.6 369.06,-95.98"/>
<polygon fill="midnightblue" stroke="midnightblue" points="368.26,-99.39 378.81,-98.49 370,-92.61 368.26,-99.39"/>
</g>
<!-- Node7&#45;&gt;Node6 -->
<g id="edge10" class="edge">
<title>Node7&#45;&gt;Node6</title>
<path fill="none" stroke="midnightblue" d="M324.01,-64.5C336.38,-64.5 349.18,-64.5 361.52,-64.5"/>
<polygon fill="midnightblue" stroke="midnightblue" points="361.76,-68 371.76,-64.5 361.76,-61 361.76,-68"/>
</g>
<!-- Node8 -->
<g id="node8" class="node">
<title>Node8</title>
<g id="a_node8"><a xlink:href="namespacev8_1_1base.html#a0bfd9d9a67f10edd34317a83dcecf5cc" target="_top" xlink:title=" ">
<polygon fill="white" stroke="black" points="362,-0.5 362,-30.5 514,-30.5 514,-0.5 362,-0.5"/>
<text text-anchor="start" x="370" y="-18.5" font-family="Helvetica,sans-Serif" font-size="10.00">v8::base::Release_Compare</text>
<text text-anchor="middle" x="438" y="-7.5" font-family="Helvetica,sans-Serif" font-size="10.00">AndSwap</text>
</a>
</g>
</g>
<!-- Node7&#45;&gt;Node8 -->
<g id="edge7" class="edge">
<title>Node7&#45;&gt;Node8</title>
<path fill="none" stroke="midnightblue" d="M305.3,-49.47C325.45,-44.27 348.21,-38.4 369.06,-33.02"/>
<polygon fill="midnightblue" stroke="midnightblue" points="370,-36.39 378.81,-30.51 368.26,-29.61 370,-36.39"/>
</g>
<!-- Node9 -->
<g id="node9" class="node">
<title>Node9</title>
<g id="a_node9"><a xlink:href="namespacev8_1_1base_1_1helper.html#a59189c84f94d1095d3556c38159693ce" target="_top" xlink:title=" ">
<polygon fill="white" stroke="black" points="552,-0.5 552,-30.5 662,-30.5 662,-0.5 552,-0.5"/>
<text text-anchor="start" x="560" y="-18.5" font-family="Helvetica,sans-Serif" font-size="10.00">v8::base::helper::to</text>
<text text-anchor="middle" x="607" y="-7.5" font-family="Helvetica,sans-Serif" font-size="10.00">_std_atomic</text>
</a>
</g>
</g>
<!-- Node8&#45;&gt;Node9 -->
<g id="edge8" class="edge">
<title>Node8&#45;&gt;Node9</title>
<path fill="none" stroke="midnightblue" d="M514.19,-15.5C523.38,-15.5 532.7,-15.5 541.7,-15.5"/>
<polygon fill="midnightblue" stroke="midnightblue" points="541.71,-19 551.71,-15.5 541.71,-12 541.71,-19"/>
</g>
</g>
</svg>
