<?xml version="1.0" encoding="UTF-8" standalone="no"?>
<!DOCTYPE svg PUBLIC "-//W3C//DTD SVG 1.1//EN"
 "http://www.w3.org/Graphics/SVG/1.1/DTD/svg11.dtd">
<!-- Generated by graphviz version 2.43.0 (0)
 -->
<!-- Title: v8::internal::WasmScript::CheckBreakPoints Pages: 1 -->
<svg width="1145pt" height="915pt"
 viewBox="0.00 0.00 1145.00 914.77" xmlns="http://www.w3.org/2000/svg" xmlns:xlink="http://www.w3.org/1999/xlink">
<g id="graph0" class="graph" transform="scale(1 1) rotate(0) translate(4 910.77)">
<title>v8::internal::WasmScript::CheckBreakPoints</title>
<polygon fill="white" stroke="transparent" points="-4,4 -4,-910.77 1141,-910.77 1141,4 -4,4"/>
<!-- Node1 -->
<g id="node1" class="node">
<title>Node1</title>
<g id="a_node1"><a xlink:title=" ">
<polygon fill="#bfbfbf" stroke="black" points="0,-205.64 0,-235.64 136,-235.64 136,-205.64 0,-205.64"/>
<text text-anchor="start" x="8" y="-223.64" font-family="Helvetica,sans-Serif" font-size="10.00">v8::internal::WasmScript</text>
<text text-anchor="middle" x="68" y="-212.64" font-family="Helvetica,sans-Serif" font-size="10.00">::CheckBreakPoints</text>
</a>
</g>
</g>
<!-- Node2 -->
<g id="node2" class="node">
<title>Node2</title>
<g id="a_node2"><a xlink:href="namespacev8_1_1internal_1_1anonymous__namespace_02wasm-debug_8cc_03.html#a15092b32b02b6f2c5b246077a79db18a" target="_top" xlink:title=" ">
<polygon fill="white" stroke="black" points="189.5,-772.14 189.5,-813.14 336.5,-813.14 336.5,-772.14 189.5,-772.14"/>
<text text-anchor="start" x="197.5" y="-801.14" font-family="Helvetica,sans-Serif" font-size="10.00">v8::internal::anonymous</text>
<text text-anchor="start" x="197.5" y="-790.14" font-family="Helvetica,sans-Serif" font-size="10.00">_namespace{wasm&#45;debug</text>
<text text-anchor="middle" x="263" y="-779.14" font-family="Helvetica,sans-Serif" font-size="10.00">::cc}::CheckBreakPoint</text>
</a>
</g>
</g>
<!-- Node1&#45;&gt;Node2 -->
<g id="edge1" class="edge">
<title>Node1&#45;&gt;Node2</title>
<path fill="none" stroke="midnightblue" d="M69.96,-235.78C75.21,-314.29 102.8,-674.59 172,-757.64 174.64,-760.81 177.61,-763.69 180.81,-766.32"/>
<polygon fill="midnightblue" stroke="midnightblue" points="179.04,-769.35 189.21,-772.32 183.1,-763.65 179.04,-769.35"/>
</g>
<!-- Node12 -->
<g id="node11" class="node">
<title>Node12</title>
<g id="a_node11"><a xlink:href="classv8_1_1internal_1_1Isolate.html#add58aa2cf5e62000c95ea11411ce9ae6" target="_top" xlink:title=" ">
<polygon fill="white" stroke="black" points="842,-542.64 842,-572.64 953,-572.64 953,-542.64 842,-542.64"/>
<text text-anchor="start" x="850" y="-560.64" font-family="Helvetica,sans-Serif" font-size="10.00">v8::internal::Isolate</text>
<text text-anchor="middle" x="897.5" y="-549.64" font-family="Helvetica,sans-Serif" font-size="10.00">::debug</text>
</a>
</g>
</g>
<!-- Node1&#45;&gt;Node12 -->
<g id="edge37" class="edge">
<title>Node1&#45;&gt;Node12</title>
<path fill="none" stroke="midnightblue" d="M78.84,-235.64C124.86,-304.29 327.3,-589.21 578,-686.64 660.44,-718.68 699.2,-728.7 777,-686.64 802.7,-672.75 793.9,-653.75 813,-631.64 829.76,-612.24 851.51,-593.12 868.61,-579.18"/>
<polygon fill="midnightblue" stroke="midnightblue" points="870.98,-581.76 876.58,-572.77 866.6,-576.3 870.98,-581.76"/>
</g>
<!-- Node20 -->
<g id="node16" class="node">
<title>Node20</title>
<g id="a_node16"><a xlink:href="classv8_1_1internal_1_1Isolate.html#a7e2962359009581ba84e6a361f574f61" target="_top" xlink:title=" ">
<polygon fill="white" stroke="black" points="622,-27.64 622,-57.64 733,-57.64 733,-27.64 622,-27.64"/>
<text text-anchor="start" x="630" y="-45.64" font-family="Helvetica,sans-Serif" font-size="10.00">v8::internal::Isolate</text>
<text text-anchor="middle" x="677.5" y="-34.64" font-family="Helvetica,sans-Serif" font-size="10.00">::factory</text>
</a>
</g>
</g>
<!-- Node1&#45;&gt;Node20 -->
<g id="edge38" class="edge">
<title>Node1&#45;&gt;Node20</title>
<path fill="none" stroke="midnightblue" d="M110.4,-235.72C200.3,-265.55 415.46,-320.72 542,-217.64 595.16,-174.34 529.84,-116.43 578,-67.64 587.23,-58.28 599.44,-52.26 612.1,-48.41"/>
<polygon fill="midnightblue" stroke="midnightblue" points="613.03,-51.79 621.83,-45.88 611.27,-45.01 613.03,-51.79"/>
</g>
<!-- Node3447 -->
<g id="node26" class="node">
<title>Node3447</title>
<g id="a_node26"><a xlink:href="classv8_1_1internal_1_1Debug.html#ad666b2f49b9412a9b7e44e206aa33fc9" target="_top" xlink:title=" ">
<polygon fill="white" stroke="black" points="203,-183.64 203,-213.64 323,-213.64 323,-183.64 203,-183.64"/>
<text text-anchor="start" x="211" y="-201.64" font-family="Helvetica,sans-Serif" font-size="10.00">v8::internal::Debug</text>
<text text-anchor="middle" x="263" y="-190.64" font-family="Helvetica,sans-Serif" font-size="10.00">::ClearMutedLocation</text>
</a>
</g>
</g>
<!-- Node1&#45;&gt;Node3447 -->
<g id="edge35" class="edge">
<title>Node1&#45;&gt;Node3447</title>
<path fill="none" stroke="midnightblue" d="M136.23,-212.98C154.5,-210.89 174.31,-208.64 192.69,-206.54"/>
<polygon fill="midnightblue" stroke="midnightblue" points="193.19,-210.01 202.73,-205.4 192.4,-203.05 193.19,-210.01"/>
</g>
<!-- Node3448 -->
<g id="node28" class="node">
<title>Node3448</title>
<g id="a_node28"><a xlink:href="namespacev8_1_1internal_1_1anonymous__namespace_02wasm-debug_8cc_03.html#a55fe4476db603b14af20a32e76c99391" target="_top" xlink:title=" ">
<polygon fill="white" stroke="black" points="172,-123.14 172,-164.14 354,-164.14 354,-123.14 172,-123.14"/>
<text text-anchor="start" x="180" y="-152.14" font-family="Helvetica,sans-Serif" font-size="10.00">v8::internal::anonymous</text>
<text text-anchor="start" x="180" y="-141.14" font-family="Helvetica,sans-Serif" font-size="10.00">_namespace{wasm&#45;debug</text>
<text text-anchor="middle" x="263" y="-130.14" font-family="Helvetica,sans-Serif" font-size="10.00">::cc}::FindBreakpointInfoInsertPos</text>
</a>
</g>
</g>
<!-- Node1&#45;&gt;Node3448 -->
<g id="edge39" class="edge">
<title>Node1&#45;&gt;Node3448</title>
<path fill="none" stroke="midnightblue" d="M100.7,-205.61C120.92,-196.24 147.77,-184.2 172,-174.64 177.85,-172.33 183.95,-170.02 190.1,-167.77"/>
<polygon fill="midnightblue" stroke="midnightblue" points="191.55,-170.96 199.77,-164.27 189.17,-164.38 191.55,-170.96"/>
</g>
<!-- Node381 -->
<g id="node30" class="node">
<title>Node381</title>
<g id="a_node30"><a xlink:href="classv8_1_1internal_1_1FactoryBase.html#add1def193680fa7edc2ead51ef49f8c3" target="_top" xlink:title=" ">
<polygon fill="white" stroke="black" points="194.5,-73.64 194.5,-103.64 331.5,-103.64 331.5,-73.64 194.5,-73.64"/>
<text text-anchor="start" x="202.5" y="-91.64" font-family="Helvetica,sans-Serif" font-size="10.00">v8::internal::FactoryBase</text>
<text text-anchor="middle" x="263" y="-80.64" font-family="Helvetica,sans-Serif" font-size="10.00">::NewFixedArray</text>
</a>
</g>
</g>
<!-- Node1&#45;&gt;Node381 -->
<g id="edge42" class="edge">
<title>Node1&#45;&gt;Node381</title>
<path fill="none" stroke="midnightblue" d="M79.46,-205.39C96.25,-182.1 131.47,-137.81 172,-113.64 176.13,-111.17 180.52,-108.94 185.04,-106.93"/>
<polygon fill="midnightblue" stroke="midnightblue" points="186.54,-110.1 194.49,-103.08 183.91,-103.61 186.54,-110.1"/>
</g>
<!-- Node3 -->
<g id="node3" class="node">
<title>Node3</title>
<g id="a_node3"><a xlink:href="classv8_1_1internal_1_1Object.html#a5cac49538cd5c519bab4d32d0d3c5ed9" target="_top" xlink:title=" ">
<polygon fill="white" stroke="black" points="411,-772.64 411,-802.64 521,-802.64 521,-772.64 411,-772.64"/>
<text text-anchor="start" x="419" y="-790.64" font-family="Helvetica,sans-Serif" font-size="10.00">v8::internal::Object</text>
<text text-anchor="middle" x="466" y="-779.64" font-family="Helvetica,sans-Serif" font-size="10.00">::BooleanValue</text>
</a>
</g>
</g>
<!-- Node2&#45;&gt;Node3 -->
<g id="edge2" class="edge">
<title>Node2&#45;&gt;Node3</title>
<path fill="none" stroke="midnightblue" d="M336.57,-790.83C357.54,-790.31 380.27,-789.75 400.7,-789.24"/>
<polygon fill="midnightblue" stroke="midnightblue" points="400.93,-792.73 410.84,-788.99 400.75,-785.74 400.93,-792.73"/>
</g>
<!-- Node4 -->
<g id="node4" class="node">
<title>Node4</title>
<g id="a_node4"><a xlink:href="classv8_1_1internal_1_1Isolate.html#aa248f994d416423a0001e8597a6b9fcf" target="_top" xlink:title=" ">
<polygon fill="white" stroke="black" points="410.5,-821.64 410.5,-851.64 521.5,-851.64 521.5,-821.64 410.5,-821.64"/>
<text text-anchor="start" x="418.5" y="-839.64" font-family="Helvetica,sans-Serif" font-size="10.00">v8::internal::Isolate</text>
<text text-anchor="middle" x="466" y="-828.64" font-family="Helvetica,sans-Serif" font-size="10.00">::clear_exception</text>
</a>
</g>
</g>
<!-- Node2&#45;&gt;Node4 -->
<g id="edge3" class="edge">
<title>Node2&#45;&gt;Node4</title>
<path fill="none" stroke="midnightblue" d="M336.57,-808.52C357.44,-813.09 380.06,-818.05 400.42,-822.5"/>
<polygon fill="midnightblue" stroke="midnightblue" points="399.69,-825.93 410.21,-824.65 401.19,-819.09 399.69,-825.93"/>
</g>
<!-- Node10 -->
<g id="node9" class="node">
<title>Node10</title>
<g id="a_node9"><a xlink:href="classv8_1_1internal_1_1DebugEvaluate.html#ad9e3268c0cbca3a806da63d961cfdce1" target="_top" xlink:title=" ">
<polygon fill="white" stroke="black" points="390,-388.64 390,-418.64 542,-418.64 542,-388.64 390,-388.64"/>
<text text-anchor="start" x="398" y="-406.64" font-family="Helvetica,sans-Serif" font-size="10.00">v8::internal::DebugEvaluate</text>
<text text-anchor="middle" x="466" y="-395.64" font-family="Helvetica,sans-Serif" font-size="10.00">::Local</text>
</a>
</g>
</g>
<!-- Node2&#45;&gt;Node10 -->
<g id="edge8" class="edge">
<title>Node2&#45;&gt;Node10</title>
<path fill="none" stroke="midnightblue" d="M274.66,-772C308.85,-705.84 415.6,-499.25 452.39,-428.05"/>
<polygon fill="midnightblue" stroke="midnightblue" points="455.62,-429.42 457.1,-418.93 449.4,-426.21 455.62,-429.42"/>
</g>
<!-- Node2707 -->
<g id="node14" class="node">
<title>Node2707</title>
<g id="a_node14"><a xlink:href="namespacev8_1_1anonymous__namespace_02api_8cc_03.html#a0be2944595d695733e968a9a946d9fcc" target="_top" xlink:title=" ">
<polygon fill="white" stroke="red" points="821,-834.64 821,-864.64 974,-864.64 974,-834.64 821,-834.64"/>
<text text-anchor="start" x="829" y="-852.64" font-family="Helvetica,sans-Serif" font-size="10.00">v8::anonymous_namespace</text>
<text text-anchor="middle" x="897.5" y="-841.64" font-family="Helvetica,sans-Serif" font-size="10.00">{api::cc}::ToHandle</text>
</a>
</g>
</g>
<!-- Node2&#45;&gt;Node2707 -->
<g id="edge34" class="edge">
<title>Node2&#45;&gt;Node2707</title>
<path fill="none" stroke="midnightblue" d="M294.16,-813.21C318.84,-829.01 355.22,-850.04 390,-861.64 553.57,-916.18 606.72,-915.72 777,-888.64 802.16,-884.64 829.22,-876.18 851.21,-868.16"/>
<polygon fill="midnightblue" stroke="midnightblue" points="852.48,-871.42 860.63,-864.64 850.03,-864.86 852.48,-871.42"/>
</g>
<!-- Node5 -->
<g id="node5" class="node">
<title>Node5</title>
<g id="a_node5"><a xlink:href="classv8_1_1internal_1_1Isolate.html#af2996b3f59b1763c3036a36fb0405b14" target="_top" xlink:title=" ">
<polygon fill="white" stroke="red" points="826,-727.64 826,-757.64 969,-757.64 969,-727.64 826,-727.64"/>
<text text-anchor="start" x="834" y="-745.64" font-family="Helvetica,sans-Serif" font-size="10.00">v8::internal::Isolate</text>
<text text-anchor="middle" x="897.5" y="-734.64" font-family="Helvetica,sans-Serif" font-size="10.00">::clear_internal_exception</text>
</a>
</g>
</g>
<!-- Node4&#45;&gt;Node5 -->
<g id="edge4" class="edge">
<title>Node4&#45;&gt;Node5</title>
<path fill="none" stroke="midnightblue" d="M514.24,-821.62C523.45,-818.66 533.03,-815.57 542,-812.64 558.03,-807.4 561.66,-804.83 578,-800.64 657.97,-780.14 751.03,-764.07 815.83,-754.09"/>
<polygon fill="midnightblue" stroke="midnightblue" points="816.62,-757.51 825.98,-752.55 815.57,-750.59 816.62,-757.51"/>
</g>
<!-- Node8 -->
<g id="node7" class="node">
<title>Node8</title>
<g id="a_node7"><a xlink:href="classv8_1_1TryCatch.html#a3aae8acab4c99b374b7d782763d4c8e1" target="_top" xlink:title="Clears any exceptions that may have been caught by this try/catch block.">
<polygon fill="white" stroke="black" points="622.5,-810.14 622.5,-829.14 732.5,-829.14 732.5,-810.14 622.5,-810.14"/>
<text text-anchor="middle" x="677.5" y="-817.14" font-family="Helvetica,sans-Serif" font-size="10.00">v8::TryCatch::Reset</text>
</a>
</g>
</g>
<!-- Node4&#45;&gt;Node8 -->
<g id="edge6" class="edge">
<title>Node4&#45;&gt;Node8</title>
<path fill="none" stroke="midnightblue" d="M521.77,-832.19C549.53,-829.94 583.41,-827.19 612.39,-824.84"/>
<polygon fill="midnightblue" stroke="midnightblue" points="612.73,-828.33 622.41,-824.03 612.16,-821.35 612.73,-828.33"/>
</g>
<!-- Node9 -->
<g id="node8" class="node">
<title>Node9</title>
<g id="a_node8"><a xlink:href="classv8_1_1internal_1_1Isolate.html#a94a97108717e97fa3c032710ca045bdf" target="_top" xlink:title=" ">
<polygon fill="white" stroke="black" points="622,-848.64 622,-878.64 733,-878.64 733,-848.64 622,-848.64"/>
<text text-anchor="start" x="630" y="-866.64" font-family="Helvetica,sans-Serif" font-size="10.00">v8::internal::Isolate</text>
<text text-anchor="middle" x="677.5" y="-855.64" font-family="Helvetica,sans-Serif" font-size="10.00">::try_catch_handler</text>
</a>
</g>
</g>
<!-- Node4&#45;&gt;Node9 -->
<g id="edge7" class="edge">
<title>Node4&#45;&gt;Node9</title>
<path fill="none" stroke="midnightblue" d="M521.77,-843.7C549.32,-847.25 582.89,-851.57 611.71,-855.29"/>
<polygon fill="midnightblue" stroke="midnightblue" points="611.32,-858.77 621.69,-856.57 612.22,-851.83 611.32,-858.77"/>
</g>
<!-- Node6 -->
<g id="node6" class="node">
<title>Node6</title>
<g id="a_node6"><a xlink:href="namespacev8_1_1internal.html#aa6b3743bd5d773c552654f2a6c3efa4a" target="_top" xlink:title=" ">
<polygon fill="white" stroke="black" points="1018,-460.14 1018,-479.14 1137,-479.14 1137,-460.14 1018,-460.14"/>
<text text-anchor="middle" x="1077.5" y="-467.14" font-family="Helvetica,sans-Serif" font-size="10.00">v8::internal::DCHECK</text>
</a>
</g>
</g>
<!-- Node5&#45;&gt;Node6 -->
<g id="edge5" class="edge">
<title>Node5&#45;&gt;Node6</title>
<path fill="none" stroke="midnightblue" d="M925.81,-727.41C943.69,-716.33 966.51,-699.93 982,-680.64 1031.16,-619.42 1060.37,-528.56 1071.41,-489.11"/>
<polygon fill="midnightblue" stroke="midnightblue" points="1074.8,-489.97 1074.05,-479.41 1068.05,-488.14 1074.8,-489.97"/>
</g>
<!-- Node11 -->
<g id="node10" class="node">
<title>Node11</title>
<g id="a_node10"><a xlink:href="classv8_1_1internal_1_1ScopeInfo.html#aab00125cd73cfe1dc4ceef62f432c92b" target="_top" xlink:title=" ">
<polygon fill="white" stroke="black" points="614.5,-224.64 614.5,-254.64 740.5,-254.64 740.5,-224.64 614.5,-224.64"/>
<text text-anchor="start" x="622.5" y="-242.64" font-family="Helvetica,sans-Serif" font-size="10.00">v8::internal::ScopeInfo</text>
<text text-anchor="middle" x="677.5" y="-231.64" font-family="Helvetica,sans-Serif" font-size="10.00">::CreateForWithScope</text>
</a>
</g>
</g>
<!-- Node10&#45;&gt;Node11 -->
<g id="edge9" class="edge">
<title>Node10&#45;&gt;Node11</title>
<path fill="none" stroke="midnightblue" d="M474.76,-388.4C490.26,-359.54 527.91,-296.94 578,-264.64 586.09,-259.42 595.2,-255.3 604.54,-252.03"/>
<polygon fill="midnightblue" stroke="midnightblue" points="605.84,-255.29 614.31,-248.93 603.72,-248.62 605.84,-255.29"/>
</g>
<!-- Node10&#45;&gt;Node12 -->
<g id="edge10" class="edge">
<title>Node10&#45;&gt;Node12</title>
<path fill="none" stroke="midnightblue" d="M474.15,-418.86C488.85,-448.17 525.55,-511.92 578,-538.64 658.05,-579.41 764.5,-576.15 831.77,-568.28"/>
<polygon fill="midnightblue" stroke="midnightblue" points="832.32,-571.74 841.81,-567.04 831.46,-564.8 832.32,-571.74"/>
</g>
<!-- Node13 -->
<g id="node12" class="node">
<title>Node13</title>
<g id="a_node12"><a xlink:href="classv8_1_1internal_1_1DebugEvaluate.html#aef2eff4eda52f3fdbbcffcf8f739692a" target="_top" xlink:title=" ">
<polygon fill="white" stroke="red" points="601.5,-498.64 601.5,-528.64 753.5,-528.64 753.5,-498.64 601.5,-498.64"/>
<text text-anchor="start" x="609.5" y="-516.64" font-family="Helvetica,sans-Serif" font-size="10.00">v8::internal::DebugEvaluate</text>
<text text-anchor="middle" x="677.5" y="-505.64" font-family="Helvetica,sans-Serif" font-size="10.00">::Evaluate</text>
</a>
</g>
</g>
<!-- Node10&#45;&gt;Node13 -->
<g id="edge11" class="edge">
<title>Node10&#45;&gt;Node13</title>
<path fill="none" stroke="midnightblue" d="M484.28,-418.9C505.18,-436.66 542.03,-465.81 578,-483.64 586.89,-488.04 596.55,-491.95 606.24,-495.36"/>
<polygon fill="midnightblue" stroke="midnightblue" points="605.31,-498.74 615.91,-498.62 607.54,-492.11 605.31,-498.74"/>
</g>
<!-- Node25 -->
<g id="node13" class="node">
<title>Node25</title>
<g id="a_node13"><a xlink:href="classv8_1_1internal_1_1Isolate.html#aed5dcd4c10242ef0225dfbd02b5dbdd3" target="_top" xlink:title=" ">
<polygon fill="white" stroke="red" points="842,-454.64 842,-484.64 953,-484.64 953,-454.64 842,-454.64"/>
<text text-anchor="start" x="850" y="-472.64" font-family="Helvetica,sans-Serif" font-size="10.00">v8::internal::Isolate</text>
<text text-anchor="middle" x="897.5" y="-461.64" font-family="Helvetica,sans-Serif" font-size="10.00">::has_exception</text>
</a>
</g>
</g>
<!-- Node10&#45;&gt;Node25 -->
<g id="edge22" class="edge">
<title>Node10&#45;&gt;Node25</title>
<path fill="none" stroke="midnightblue" d="M495.3,-418.81C517.21,-429.76 548.66,-443.77 578,-450.64 664.14,-470.81 766.76,-473.21 831.77,-472.16"/>
<polygon fill="midnightblue" stroke="midnightblue" points="831.94,-475.66 841.87,-471.96 831.81,-468.66 831.94,-475.66"/>
</g>
<!-- Node3344 -->
<g id="node15" class="node">
<title>Node3344</title>
<g id="a_node15"><a xlink:href="classv8_1_1internal_1_1DebugEvaluate_1_1ContextBuilder.html#acf216c06b52941e7cbe8e7220c4edc2a" target="_top" xlink:title=" ">
<polygon fill="white" stroke="black" points="601,-636.14 601,-677.14 754,-677.14 754,-636.14 601,-636.14"/>
<text text-anchor="start" x="609" y="-665.14" font-family="Helvetica,sans-Serif" font-size="10.00">v8::internal::DebugEvaluate</text>
<text text-anchor="start" x="609" y="-654.14" font-family="Helvetica,sans-Serif" font-size="10.00">::ContextBuilder::evaluation</text>
<text text-anchor="middle" x="677.5" y="-643.14" font-family="Helvetica,sans-Serif" font-size="10.00">_context</text>
</a>
</g>
</g>
<!-- Node10&#45;&gt;Node3344 -->
<g id="edge17" class="edge">
<title>Node10&#45;&gt;Node3344</title>
<path fill="none" stroke="midnightblue" d="M470.13,-418.67C479.27,-458.7 509.66,-568.81 578,-626.64 582.18,-630.18 586.77,-633.3 591.61,-636.05"/>
<polygon fill="midnightblue" stroke="midnightblue" points="590.06,-639.19 600.56,-640.61 593.24,-632.95 590.06,-639.19"/>
</g>
<!-- Node10&#45;&gt;Node20 -->
<g id="edge18" class="edge">
<title>Node10&#45;&gt;Node20</title>
<path fill="none" stroke="midnightblue" d="M476.62,-388.41C492.62,-362.4 524.64,-307.32 542,-256.64 569.71,-175.74 519.39,-129.9 578,-67.64 587.06,-58.02 599.25,-51.88 611.96,-48.02"/>
<polygon fill="midnightblue" stroke="midnightblue" points="612.94,-51.39 621.75,-45.5 611.19,-44.61 612.94,-51.39"/>
</g>
<!-- Node1968 -->
<g id="node17" class="node">
<title>Node1968</title>
<g id="a_node17"><a xlink:href="classv8_1_1internal_1_1DebuggableStackFrameIterator.html#a135412ff944cfb9d8afd0aac58659556" target="_top" xlink:title=" ">
<polygon fill="white" stroke="red" points="824.5,-153.64 824.5,-183.64 970.5,-183.64 970.5,-153.64 824.5,-153.64"/>
<text text-anchor="start" x="832.5" y="-171.64" font-family="Helvetica,sans-Serif" font-size="10.00">v8::internal::Debuggable</text>
<text text-anchor="middle" x="897.5" y="-160.64" font-family="Helvetica,sans-Serif" font-size="10.00">StackFrameIterator::frame</text>
</a>
</g>
</g>
<!-- Node10&#45;&gt;Node1968 -->
<g id="edge19" class="edge">
<title>Node10&#45;&gt;Node1968</title>
<path fill="none" stroke="midnightblue" d="M475.35,-388.42C489.72,-361.97 519.74,-305.69 542,-256.64 559.81,-217.41 542.33,-190.79 578,-166.64 656.77,-113.31 773.51,-132.56 841.61,-150.92"/>
<polygon fill="midnightblue" stroke="midnightblue" points="840.73,-154.31 851.3,-153.62 842.6,-147.57 840.73,-154.31"/>
</g>
<!-- Node3345 -->
<g id="node18" class="node">
<title>Node3345</title>
<g id="a_node18"><a xlink:href="namespacev8_1_1internal.html#a85400d3b65473f7e02b39711589535e7" target="_top" xlink:title=" ">
<polygon fill="white" stroke="black" points="599,-586.64 599,-616.64 756,-616.64 756,-586.64 599,-586.64"/>
<text text-anchor="start" x="607" y="-604.64" font-family="Helvetica,sans-Serif" font-size="10.00">v8::internal::GetWasmDebug</text>
<text text-anchor="middle" x="677.5" y="-593.64" font-family="Helvetica,sans-Serif" font-size="10.00">Proxy</text>
</a>
</g>
</g>
<!-- Node10&#45;&gt;Node3345 -->
<g id="edge21" class="edge">
<title>Node10&#45;&gt;Node3345</title>
<path fill="none" stroke="midnightblue" d="M472.77,-418.73C486.1,-451.59 522.25,-530.02 578,-571.64 583.53,-575.77 589.64,-579.34 596.02,-582.42"/>
<polygon fill="midnightblue" stroke="midnightblue" points="594.97,-585.78 605.53,-586.59 597.78,-579.37 594.97,-585.78"/>
</g>
<!-- Node1973 -->
<g id="node19" class="node">
<title>Node1973</title>
<g id="a_node19"><a xlink:href="classv8_1_1internal_1_1DebuggableStackFrameIterator.html#a085191ab6abd5134bebf3806c760c227" target="_top" xlink:title=" ">
<polygon fill="white" stroke="red" points="609,-77.14 609,-118.14 746,-118.14 746,-77.14 609,-77.14"/>
<text text-anchor="start" x="617" y="-106.14" font-family="Helvetica,sans-Serif" font-size="10.00">v8::internal::Debuggable</text>
<text text-anchor="start" x="617" y="-95.14" font-family="Helvetica,sans-Serif" font-size="10.00">StackFrameIterator::is</text>
<text text-anchor="middle" x="677.5" y="-84.14" font-family="Helvetica,sans-Serif" font-size="10.00">_javascript</text>
</a>
</g>
</g>
<!-- Node10&#45;&gt;Node1973 -->
<g id="edge23" class="edge">
<title>Node10&#45;&gt;Node1973</title>
<path fill="none" stroke="midnightblue" d="M475.87,-388.63C491.01,-362.52 522.16,-306.72 542,-256.64 563.13,-203.29 538.63,-174.39 578,-132.64 584.15,-126.12 591.6,-120.81 599.61,-116.49"/>
<polygon fill="midnightblue" stroke="midnightblue" points="601.37,-119.52 608.85,-112.02 598.33,-113.22 601.37,-119.52"/>
</g>
<!-- Node504 -->
<g id="node20" class="node">
<title>Node504</title>
<g id="a_node20"><a xlink:href="classv8_1_1internal_1_1MaybeDirectHandle.html#a872ccde05e0ba79452e0b75afdfabf39" target="_top" xlink:title=" ">
<polygon fill="white" stroke="black" points="607.5,-410.64 607.5,-440.64 747.5,-440.64 747.5,-410.64 607.5,-410.64"/>
<text text-anchor="start" x="615.5" y="-428.64" font-family="Helvetica,sans-Serif" font-size="10.00">v8::internal::MaybeDirect</text>
<text text-anchor="middle" x="677.5" y="-417.64" font-family="Helvetica,sans-Serif" font-size="10.00">Handle::is_null</text>
</a>
</g>
</g>
<!-- Node10&#45;&gt;Node504 -->
<g id="edge25" class="edge">
<title>Node10&#45;&gt;Node504</title>
<path fill="none" stroke="midnightblue" d="M542.04,-411.52C559.89,-413.39 578.99,-415.4 597.03,-417.29"/>
<polygon fill="midnightblue" stroke="midnightblue" points="596.91,-420.8 607.22,-418.36 597.64,-413.84 596.91,-420.8"/>
</g>
<!-- Node3346 -->
<g id="node21" class="node">
<title>Node3346</title>
<g id="a_node21"><a xlink:href="classv8_1_1internal_1_1DebuggableStackFrameIterator.html#a952ed13fcee4c377e028fcda86210f7a" target="_top" xlink:title=" ">
<polygon fill="white" stroke="red" points="578,-175.64 578,-205.64 777,-205.64 777,-175.64 578,-175.64"/>
<text text-anchor="start" x="586" y="-193.64" font-family="Helvetica,sans-Serif" font-size="10.00">v8::internal::Debuggable</text>
<text text-anchor="middle" x="677.5" y="-182.64" font-family="Helvetica,sans-Serif" font-size="10.00">StackFrameIterator::javascript_frame</text>
</a>
</g>
</g>
<!-- Node10&#45;&gt;Node3346 -->
<g id="edge26" class="edge">
<title>Node10&#45;&gt;Node3346</title>
<path fill="none" stroke="midnightblue" d="M474.05,-388.49C493.15,-348.09 546.53,-239.22 578,-215.64 580.38,-213.85 582.88,-212.2 585.46,-210.65"/>
<polygon fill="midnightblue" stroke="midnightblue" points="587.35,-213.62 594.56,-205.86 584.08,-207.43 587.35,-213.62"/>
</g>
<!-- Node48 -->
<g id="node22" class="node">
<title>Node48</title>
<g id="a_node22"><a xlink:href="classv8_1_1internal_1_1Isolate.html#a9435d2734e67d1dac0a3ce2a5b9387b8" target="_top" xlink:title=" ">
<polygon fill="white" stroke="red" points="842,-640.64 842,-670.64 953,-670.64 953,-640.64 842,-640.64"/>
<text text-anchor="start" x="850" y="-658.64" font-family="Helvetica,sans-Serif" font-size="10.00">v8::internal::Isolate</text>
<text text-anchor="middle" x="897.5" y="-647.64" font-family="Helvetica,sans-Serif" font-size="10.00">::native_context</text>
</a>
</g>
</g>
<!-- Node10&#45;&gt;Node48 -->
<g id="edge28" class="edge">
<title>Node10&#45;&gt;Node48</title>
<path fill="none" stroke="midnightblue" d="M467.45,-418.85C469.82,-468 484.69,-623.01 578,-686.64 662.92,-744.55 791.44,-702.57 856.19,-674.83"/>
<polygon fill="midnightblue" stroke="midnightblue" points="857.89,-677.91 865.64,-670.69 855.08,-671.5 857.89,-677.91"/>
</g>
<!-- Node3347 -->
<g id="node23" class="node">
<title>Node3347</title>
<g id="a_node23"><a xlink:href="classv8_1_1internal_1_1Factory.html#ac2c36e97372c70017673114813b07fbc" target="_top" xlink:title=" ">
<polygon fill="white" stroke="red" points="621,-322.64 621,-352.64 734,-352.64 734,-322.64 621,-322.64"/>
<text text-anchor="start" x="629" y="-340.64" font-family="Helvetica,sans-Serif" font-size="10.00">v8::internal::Factory</text>
<text text-anchor="middle" x="677.5" y="-329.64" font-family="Helvetica,sans-Serif" font-size="10.00">::NewWithContext</text>
</a>
</g>
</g>
<!-- Node10&#45;&gt;Node3347 -->
<g id="edge30" class="edge">
<title>Node10&#45;&gt;Node3347</title>
<path fill="none" stroke="midnightblue" d="M512.85,-388.57C532.83,-382.05 556.55,-374.38 578,-367.64 590.57,-363.69 604.07,-359.52 616.92,-355.6"/>
<polygon fill="midnightblue" stroke="midnightblue" points="618.04,-358.91 626.59,-352.65 616,-352.22 618.04,-358.91"/>
</g>
<!-- Node3348 -->
<g id="node24" class="node">
<title>Node3348</title>
<g id="a_node24"><a xlink:href="classv8_1_1internal_1_1DebugEvaluate_1_1ContextBuilder.html#ada63fa00d366d3ee751d3379a2626699" target="_top" xlink:title=" ">
<polygon fill="white" stroke="red" points="601.5,-273.64 601.5,-303.64 753.5,-303.64 753.5,-273.64 601.5,-273.64"/>
<text text-anchor="start" x="609.5" y="-291.64" font-family="Helvetica,sans-Serif" font-size="10.00">v8::internal::DebugEvaluate</text>
<text text-anchor="middle" x="677.5" y="-280.64" font-family="Helvetica,sans-Serif" font-size="10.00">::ContextBuilder::outer_info</text>
</a>
</g>
</g>
<!-- Node10&#45;&gt;Node3348 -->
<g id="edge31" class="edge">
<title>Node10&#45;&gt;Node3348</title>
<path fill="none" stroke="midnightblue" d="M481.31,-388.5C501.14,-368.41 538.97,-333.22 578,-313.64 582.83,-311.22 587.91,-309.02 593.12,-307.02"/>
<polygon fill="midnightblue" stroke="midnightblue" points="594.36,-310.29 602.6,-303.64 592.01,-303.7 594.36,-310.29"/>
</g>
<!-- Node3350 -->
<g id="node25" class="node">
<title>Node3350</title>
<g id="a_node25"><a xlink:href="classv8_1_1internal_1_1DebugEvaluate_1_1ContextBuilder.html#a99cadfa7552c119b38c4b9c4a5c5a511" target="_top" xlink:title=" ">
<polygon fill="white" stroke="red" points="813,-386.64 813,-416.64 982,-416.64 982,-386.64 813,-386.64"/>
<text text-anchor="start" x="821" y="-404.64" font-family="Helvetica,sans-Serif" font-size="10.00">v8::internal::DebugEvaluate</text>
<text text-anchor="middle" x="897.5" y="-393.64" font-family="Helvetica,sans-Serif" font-size="10.00">::ContextBuilder::UpdateValues</text>
</a>
</g>
</g>
<!-- Node10&#45;&gt;Node3350 -->
<g id="edge32" class="edge">
<title>Node10&#45;&gt;Node3350</title>
<path fill="none" stroke="midnightblue" d="M542.23,-402.1C554.2,-401.91 566.44,-401.74 578,-401.64 653.42,-400.96 738.9,-401 802.3,-401.19"/>
<polygon fill="midnightblue" stroke="midnightblue" points="802.66,-404.7 812.67,-401.23 802.69,-397.7 802.66,-404.7"/>
</g>
<!-- Node13&#45;&gt;Node6 -->
<g id="edge12" class="edge">
<title>Node13&#45;&gt;Node6</title>
<path fill="none" stroke="midnightblue" d="M753.79,-513.02C815.48,-511.53 904.87,-507.13 982,-494.64 1000.17,-491.7 1019.91,-486.76 1036.63,-482.04"/>
<polygon fill="midnightblue" stroke="midnightblue" points="1037.97,-485.3 1046.61,-479.16 1036.03,-478.57 1037.97,-485.3"/>
</g>
<!-- Node13&#45;&gt;Node12 -->
<g id="edge13" class="edge">
<title>Node13&#45;&gt;Node12</title>
<path fill="none" stroke="midnightblue" d="M752.91,-528.66C778.5,-533.82 806.92,-539.56 831.68,-544.56"/>
<polygon fill="midnightblue" stroke="midnightblue" points="831.19,-548.03 841.69,-546.58 832.58,-541.17 831.19,-548.03"/>
</g>
<!-- Node13&#45;&gt;Node25 -->
<g id="edge14" class="edge">
<title>Node13&#45;&gt;Node25</title>
<path fill="none" stroke="midnightblue" d="M752.91,-498.62C778.5,-493.46 806.92,-487.72 831.68,-482.72"/>
<polygon fill="midnightblue" stroke="midnightblue" points="832.58,-486.11 841.69,-480.7 831.19,-479.25 832.58,-486.11"/>
</g>
<!-- Node13&#45;&gt;Node2707 -->
<g id="edge16" class="edge">
<title>Node13&#45;&gt;Node2707</title>
<path fill="none" stroke="midnightblue" d="M715.37,-528.65C736.67,-539.22 762.12,-555.45 777,-577.64 824.88,-649.01 772.49,-691.84 813,-767.64 825.87,-791.72 848.25,-813.12 866.6,-828.02"/>
<polygon fill="midnightblue" stroke="midnightblue" points="864.67,-830.96 874.7,-834.39 869,-825.46 864.67,-830.96"/>
</g>
<!-- Node25&#45;&gt;Node6 -->
<g id="edge15" class="edge">
<title>Node25&#45;&gt;Node6</title>
<path fill="none" stroke="midnightblue" d="M953.36,-469.64C970.52,-469.64 989.67,-469.64 1007.66,-469.64"/>
<polygon fill="midnightblue" stroke="midnightblue" points="1007.81,-473.14 1017.81,-469.64 1007.81,-466.14 1007.81,-473.14"/>
</g>
<!-- Node1968&#45;&gt;Node6 -->
<g id="edge20" class="edge">
<title>Node1968&#45;&gt;Node6</title>
<path fill="none" stroke="midnightblue" d="M907.57,-183.98C937.51,-234.61 1033.12,-396.29 1065.59,-451.19"/>
<polygon fill="midnightblue" stroke="midnightblue" points="1062.63,-453.05 1070.73,-459.88 1068.65,-449.49 1062.63,-453.05"/>
</g>
<!-- Node1973&#45;&gt;Node1968 -->
<g id="edge24" class="edge">
<title>Node1973&#45;&gt;Node1968</title>
<path fill="none" stroke="midnightblue" d="M741.55,-118.18C772.87,-128.38 810.38,-140.59 840.65,-150.45"/>
<polygon fill="midnightblue" stroke="midnightblue" points="839.62,-153.79 850.21,-153.56 841.78,-147.14 839.62,-153.79"/>
</g>
<!-- Node3346&#45;&gt;Node1968 -->
<g id="edge27" class="edge">
<title>Node3346&#45;&gt;Node1968</title>
<path fill="none" stroke="midnightblue" d="M777.29,-180.67C789.7,-179.42 802.29,-178.15 814.41,-176.92"/>
<polygon fill="midnightblue" stroke="midnightblue" points="814.86,-180.4 824.46,-175.91 814.16,-173.43 814.86,-180.4"/>
</g>
<!-- Node48&#45;&gt;Node6 -->
<g id="edge29" class="edge">
<title>Node48&#45;&gt;Node6</title>
<path fill="none" stroke="midnightblue" d="M917.49,-640.48C934.92,-626.23 961.13,-603.97 982,-582.64 1013.1,-550.85 1045.56,-510.1 1063.18,-487.24"/>
<polygon fill="midnightblue" stroke="midnightblue" points="1066.07,-489.21 1069.37,-479.14 1060.51,-484.96 1066.07,-489.21"/>
</g>
<!-- Node3350&#45;&gt;Node6 -->
<g id="edge33" class="edge">
<title>Node3350&#45;&gt;Node6</title>
<path fill="none" stroke="midnightblue" d="M938,-416.73C969.11,-428.61 1012.03,-445.01 1041.82,-456.39"/>
<polygon fill="midnightblue" stroke="midnightblue" points="1040.79,-459.74 1051.38,-460.04 1043.29,-453.2 1040.79,-459.74"/>
</g>
<!-- Node299 -->
<g id="node27" class="node">
<title>Node299</title>
<g id="a_node27"><a xlink:href="classv8_1_1internal_1_1Smi.html#a5386e0cc44bcfd6a13c8481b95f5652f" target="_top" xlink:title=" ">
<polygon fill="white" stroke="red" points="404,-189.14 404,-208.14 528,-208.14 528,-189.14 404,-189.14"/>
<text text-anchor="middle" x="466" y="-196.14" font-family="Helvetica,sans-Serif" font-size="10.00">v8::internal::Smi::zero</text>
</a>
</g>
</g>
<!-- Node3447&#45;&gt;Node299 -->
<g id="edge36" class="edge">
<title>Node3447&#45;&gt;Node299</title>
<path fill="none" stroke="midnightblue" d="M323.22,-198.64C345.31,-198.64 370.62,-198.64 393.69,-198.64"/>
<polygon fill="midnightblue" stroke="midnightblue" points="393.76,-202.14 403.76,-198.64 393.76,-195.14 393.76,-202.14"/>
</g>
<!-- Node3448&#45;&gt;Node6 -->
<g id="edge40" class="edge">
<title>Node3448&#45;&gt;Node6</title>
<path fill="none" stroke="midnightblue" d="M325.69,-123.03C335.21,-119.66 344.9,-116.13 354,-112.64 533.89,-43.61 591.68,35.11 777,-17.64 880.08,-46.98 917.17,-59.29 982,-144.64 1055.84,-241.86 1072.07,-395.33 1075.56,-449.72"/>
<polygon fill="midnightblue" stroke="midnightblue" points="1072.09,-450.24 1076.14,-460.03 1079.08,-449.85 1072.09,-450.24"/>
</g>
<!-- Node3449 -->
<g id="node29" class="node">
<title>Node3449</title>
<g id="a_node29"><a xlink:href="namespacev8_1_1internal_1_1anonymous__namespace_02wasm-debug_8cc_03.html#ab447f9b7674a395da3df79fa5e796bbe" target="_top" xlink:title=" ">
<polygon fill="white" stroke="black" points="392.5,-123.14 392.5,-164.14 539.5,-164.14 539.5,-123.14 392.5,-123.14"/>
<text text-anchor="start" x="400.5" y="-152.14" font-family="Helvetica,sans-Serif" font-size="10.00">v8::internal::anonymous</text>
<text text-anchor="start" x="400.5" y="-141.14" font-family="Helvetica,sans-Serif" font-size="10.00">_namespace{wasm&#45;debug</text>
<text text-anchor="middle" x="466" y="-130.14" font-family="Helvetica,sans-Serif" font-size="10.00">::cc}::GetBreakpointPos</text>
</a>
</g>
</g>
<!-- Node3448&#45;&gt;Node3449 -->
<g id="edge41" class="edge">
<title>Node3448&#45;&gt;Node3449</title>
<path fill="none" stroke="midnightblue" d="M354.21,-143.64C363.46,-143.64 372.83,-143.64 382,-143.64"/>
<polygon fill="midnightblue" stroke="midnightblue" points="382.25,-147.14 392.25,-143.64 382.25,-140.14 382.25,-147.14"/>
</g>
</g>
</svg>
