<?xml version="1.0" encoding="UTF-8" standalone="no"?>
<!DOCTYPE svg PUBLIC "-//W3C//DTD SVG 1.1//EN"
 "http://www.w3.org/Graphics/SVG/1.1/DTD/svg11.dtd">
<!-- Generated by graphviz version 2.43.0 (0)
 -->
<!-- Title: v8::internal::LargeObjectSpace::ContainsSlow Pages: 1 -->
<svg width="515pt" height="88pt"
 viewBox="0.00 0.00 515.00 88.00" xmlns="http://www.w3.org/2000/svg" xmlns:xlink="http://www.w3.org/1999/xlink">
<g id="graph0" class="graph" transform="scale(1 1) rotate(0) translate(4 84)">
<title>v8::internal::LargeObjectSpace::ContainsSlow</title>
<polygon fill="white" stroke="transparent" points="-4,4 -4,-84 511,-84 511,4 -4,4"/>
<!-- Node1 -->
<g id="node1" class="node">
<title>Node1</title>
<g id="a_node1"><a xlink:title=" ">
<polygon fill="#bfbfbf" stroke="black" points="0,-22.5 0,-52.5 137,-52.5 137,-22.5 0,-22.5"/>
<text text-anchor="start" x="8" y="-40.5" font-family="Helvetica,sans-Serif" font-size="10.00">v8::internal::LargeObject</text>
<text text-anchor="middle" x="68.5" y="-29.5" font-family="Helvetica,sans-Serif" font-size="10.00">Space::ContainsSlow</text>
</a>
</g>
</g>
<!-- Node2 -->
<g id="node2" class="node">
<title>Node2</title>
<g id="a_node2"><a xlink:href="classv8_1_1internal_1_1MemoryChunkMetadata.html#a99a35cd051fc570183122292b977fd64" target="_top" xlink:title=" ">
<polygon fill="white" stroke="black" points="173,-44.5 173,-74.5 322,-74.5 322,-44.5 173,-44.5"/>
<text text-anchor="start" x="181" y="-62.5" font-family="Helvetica,sans-Serif" font-size="10.00">v8::internal::MemoryChunk</text>
<text text-anchor="middle" x="247.5" y="-51.5" font-family="Helvetica,sans-Serif" font-size="10.00">Metadata::Chunk</text>
</a>
</g>
</g>
<!-- Node1&#45;&gt;Node2 -->
<g id="edge1" class="edge">
<title>Node1&#45;&gt;Node2</title>
<path fill="none" stroke="midnightblue" d="M137.17,-45.91C145.59,-46.96 154.28,-48.04 162.9,-49.11"/>
<polygon fill="midnightblue" stroke="midnightblue" points="162.61,-52.6 172.97,-50.36 163.48,-45.65 162.61,-52.6"/>
</g>
<!-- Node4 -->
<g id="node4" class="node">
<title>Node4</title>
<g id="a_node4"><a xlink:href="classv8_1_1internal_1_1MemoryChunk.html#a1c9e126ddfcab88ef54ab6a899ece138" target="_top" xlink:title=" ">
<polygon fill="white" stroke="black" points="358,-0.5 358,-30.5 507,-30.5 507,-0.5 358,-0.5"/>
<text text-anchor="start" x="366" y="-18.5" font-family="Helvetica,sans-Serif" font-size="10.00">v8::internal::MemoryChunk</text>
<text text-anchor="middle" x="432.5" y="-7.5" font-family="Helvetica,sans-Serif" font-size="10.00">::FromAddress</text>
</a>
</g>
</g>
<!-- Node1&#45;&gt;Node4 -->
<g id="edge4" class="edge">
<title>Node1&#45;&gt;Node4</title>
<path fill="none" stroke="midnightblue" d="M137.16,-33.39C196.8,-29.76 283.9,-24.47 347.88,-20.58"/>
<polygon fill="midnightblue" stroke="midnightblue" points="348.17,-24.07 357.94,-19.97 347.75,-17.08 348.17,-24.07"/>
</g>
<!-- Node3 -->
<g id="node3" class="node">
<title>Node3</title>
<g id="a_node3"><a xlink:href="classv8_1_1internal_1_1MemoryChunkMetadata.html#a51cfea136a536fcf580f114b75f1d69b" target="_top" xlink:title=" ">
<polygon fill="white" stroke="black" points="358,-49.5 358,-79.5 507,-79.5 507,-49.5 358,-49.5"/>
<text text-anchor="start" x="366" y="-67.5" font-family="Helvetica,sans-Serif" font-size="10.00">v8::internal::MemoryChunk</text>
<text text-anchor="middle" x="432.5" y="-56.5" font-family="Helvetica,sans-Serif" font-size="10.00">Metadata::area_start</text>
</a>
</g>
</g>
<!-- Node2&#45;&gt;Node3 -->
<g id="edge2" class="edge">
<title>Node2&#45;&gt;Node3</title>
<path fill="none" stroke="midnightblue" d="M322.14,-61.51C330.47,-61.74 339.01,-61.97 347.46,-62.2"/>
<polygon fill="midnightblue" stroke="midnightblue" points="347.62,-65.71 357.71,-62.48 347.81,-58.71 347.62,-65.71"/>
</g>
<!-- Node2&#45;&gt;Node4 -->
<g id="edge3" class="edge">
<title>Node2&#45;&gt;Node4</title>
<path fill="none" stroke="midnightblue" d="M310.97,-44.48C326.49,-40.75 343.25,-36.72 359.2,-32.88"/>
<polygon fill="midnightblue" stroke="midnightblue" points="360.1,-36.27 369,-30.53 358.46,-29.46 360.1,-36.27"/>
</g>
</g>
</svg>
