<?xml version="1.0" encoding="UTF-8" standalone="no"?>
<!DOCTYPE svg PUBLIC "-//W3C//DTD SVG 1.1//EN"
 "http://www.w3.org/Graphics/SVG/1.1/DTD/svg11.dtd">
<!-- Generated by graphviz version 2.43.0 (0)
 -->
<!-- Title: v8::internal::torque::SourceFileMap Pages: 1 -->
<svg width="492pt" height="579pt"
 viewBox="0.00 0.00 491.50 579.00" xmlns="http://www.w3.org/2000/svg" xmlns:xlink="http://www.w3.org/1999/xlink">
<g id="graph0" class="graph" transform="scale(1 1) rotate(0) translate(4 575)">
<title>v8::internal::torque::SourceFileMap</title>
<polygon fill="white" stroke="transparent" points="-4,4 -4,-575 487.5,-575 487.5,4 -4,4"/>
<!-- Node1 -->
<g id="node1" class="node">
<title>Node1</title>
<g id="a_node1"><a xlink:title=" ">
<polygon fill="#bfbfbf" stroke="black" points="226,-0.5 226,-145.5 429,-145.5 429,-0.5 226,-0.5"/>
<text text-anchor="start" x="234" y="-133.5" font-family="Helvetica,sans-Serif" font-size="10.00">v8::internal::torque</text>
<text text-anchor="middle" x="327.5" y="-122.5" font-family="Helvetica,sans-Serif" font-size="10.00">::SourceFileMap</text>
<polyline fill="none" stroke="black" points="226,-115.5 429,-115.5 "/>
<text text-anchor="middle" x="327.5" y="-103.5" font-family="Helvetica,sans-Serif" font-size="10.00"> </text>
<polyline fill="none" stroke="black" points="226,-96.5 429,-96.5 "/>
<text text-anchor="start" x="234" y="-84.5" font-family="Helvetica,sans-Serif" font-size="10.00">+ SourceFileMap()</text>
<text text-anchor="start" x="234" y="-73.5" font-family="Helvetica,sans-Serif" font-size="10.00">+ PathFromV8Root()</text>
<text text-anchor="start" x="234" y="-62.5" font-family="Helvetica,sans-Serif" font-size="10.00">+ PathFromV8RootWithoutExtension()</text>
<text text-anchor="start" x="234" y="-51.5" font-family="Helvetica,sans-Serif" font-size="10.00">+ AbsolutePath()</text>
<text text-anchor="start" x="234" y="-40.5" font-family="Helvetica,sans-Serif" font-size="10.00">+ AddSource()</text>
<text text-anchor="start" x="234" y="-29.5" font-family="Helvetica,sans-Serif" font-size="10.00">+ GetSourceId()</text>
<text text-anchor="start" x="234" y="-18.5" font-family="Helvetica,sans-Serif" font-size="10.00">+ AllSources()</text>
<text text-anchor="start" x="234" y="-7.5" font-family="Helvetica,sans-Serif" font-size="10.00">+ FileRelativeToV8RootExists()</text>
</a>
</g>
</g>
<!-- Node2 -->
<g id="node2" class="node">
<title>Node2</title>
<g id="a_node2"><a xlink:href="classv8_1_1base_1_1ContextualVariable.html" target="_top" xlink:title=" ">
<polygon fill="white" stroke="black" points="81,-193.5 81,-294.5 206,-294.5 206,-193.5 81,-193.5"/>
<text text-anchor="start" x="89" y="-282.5" font-family="Helvetica,sans-Serif" font-size="10.00">base::ContextualClass</text>
<text text-anchor="middle" x="143.5" y="-271.5" font-family="Helvetica,sans-Serif" font-size="10.00">&lt; SourceFileMap &gt;</text>
<polyline fill="none" stroke="black" points="81,-264.5 206,-264.5 "/>
<text text-anchor="middle" x="143.5" y="-252.5" font-family="Helvetica,sans-Serif" font-size="10.00"> </text>
<polyline fill="none" stroke="black" points="81,-245.5 206,-245.5 "/>
<text text-anchor="start" x="89" y="-233.5" font-family="Helvetica,sans-Serif" font-size="10.00">+ Get()</text>
<text text-anchor="start" x="89" y="-222.5" font-family="Helvetica,sans-Serif" font-size="10.00">+ HasScope()</text>
<text text-anchor="start" x="89" y="-211.5" font-family="Helvetica,sans-Serif" font-size="10.00">&#45; Top()</text>
<text text-anchor="start" x="89" y="-200.5" font-family="Helvetica,sans-Serif" font-size="10.00">&#45; ExportedTop()</text>
</a>
</g>
</g>
<!-- Node2&#45;&gt;Node1 -->
<g id="edge1" class="edge">
<title>Node2&#45;&gt;Node1</title>
<path fill="none" stroke="midnightblue" d="M205.44,-186.11C219.57,-173.13 234.77,-159.17 249.48,-145.66"/>
<polygon fill="none" stroke="midnightblue" points="202.71,-183.87 197.71,-193.21 207.44,-189.02 202.71,-183.87"/>
</g>
<!-- Node3 -->
<g id="node3" class="node">
<title>Node3</title>
<g id="a_node3"><a xlink:href="classv8_1_1base_1_1ContextualVariable_1_1Scope.html" target="_top" xlink:title=" ">
<polygon fill="white" stroke="black" points="0,-342.5 0,-454.5 157,-454.5 157,-342.5 0,-342.5"/>
<text text-anchor="start" x="8" y="-442.5" font-family="Helvetica,sans-Serif" font-size="10.00">v8::base::ContextualVariable</text>
<text text-anchor="middle" x="78.5" y="-431.5" font-family="Helvetica,sans-Serif" font-size="10.00">&lt; Derived, VarType &gt;::Scope</text>
<polyline fill="none" stroke="black" points="0,-424.5 157,-424.5 "/>
<text text-anchor="middle" x="78.5" y="-412.5" font-family="Helvetica,sans-Serif" font-size="10.00"> </text>
<polyline fill="none" stroke="black" points="0,-405.5 157,-405.5 "/>
<text text-anchor="start" x="8" y="-393.5" font-family="Helvetica,sans-Serif" font-size="10.00">+ Scope()</text>
<text text-anchor="start" x="8" y="-382.5" font-family="Helvetica,sans-Serif" font-size="10.00">+ ~Scope()</text>
<text text-anchor="start" x="8" y="-371.5" font-family="Helvetica,sans-Serif" font-size="10.00">+ Scope()</text>
<text text-anchor="start" x="8" y="-360.5" font-family="Helvetica,sans-Serif" font-size="10.00">+ operator=()</text>
<text text-anchor="start" x="8" y="-349.5" font-family="Helvetica,sans-Serif" font-size="10.00">+ Value()</text>
</a>
</g>
</g>
<!-- Node3&#45;&gt;Node2 -->
<g id="edge2" class="edge">
<title>Node3&#45;&gt;Node2</title>
<path fill="none" stroke="#404040" d="M101.97,-342.44C107.01,-330.61 112.37,-318.04 117.5,-306"/>
<polygon fill="none" stroke="#404040" points="117.63,-305.7 116.3,-298.61 122.33,-294.66 123.66,-301.75 117.63,-305.7"/>
<text text-anchor="middle" x="127.5" y="-316" font-family="Helvetica,sans-Serif" font-size="10.00"> &#45;top_</text>
</g>
<!-- Node3&#45;&gt;Node3 -->
<g id="edge4" class="edge">
<title>Node3&#45;&gt;Node3</title>
<path fill="none" stroke="#404040" d="M157.26,-411.81C167.91,-409.58 175,-405.14 175,-398.5 175,-394.66 172.63,-391.56 168.57,-389.19"/>
<polygon fill="none" stroke="#404040" points="168.57,-389.19 161.58,-390.96 157.26,-385.19 164.25,-383.42 168.57,-389.19"/>
<text text-anchor="middle" x="202.5" y="-396" font-family="Helvetica,sans-Serif" font-size="10.00"> &#45;previous_</text>
</g>
<!-- Node4 -->
<g id="node4" class="node">
<title>Node4</title>
<g id="a_node4"><a xlink:title=" ">
<polygon fill="white" stroke="#bfbfbf" points="51,-508 51,-565 106,-565 106,-508 51,-508"/>
<text text-anchor="middle" x="78.5" y="-553" font-family="Helvetica,sans-Serif" font-size="10.00">VarType</text>
<polyline fill="none" stroke="#bfbfbf" points="51,-546 106,-546 "/>
<text text-anchor="middle" x="78.5" y="-534" font-family="Helvetica,sans-Serif" font-size="10.00"> </text>
<polyline fill="none" stroke="#bfbfbf" points="51,-527 106,-527 "/>
<text text-anchor="middle" x="78.5" y="-515" font-family="Helvetica,sans-Serif" font-size="10.00"> </text>
</a>
</g>
</g>
<!-- Node4&#45;&gt;Node3 -->
<g id="edge3" class="edge">
<title>Node4&#45;&gt;Node3</title>
<path fill="none" stroke="#404040" d="M78.5,-507.98C78.5,-495.97 78.5,-481.32 78.5,-466.71"/>
<polygon fill="none" stroke="#404040" points="78.5,-466.52 74.5,-460.52 78.5,-454.52 82.5,-460.52 78.5,-466.52"/>
<text text-anchor="middle" x="98" y="-476" font-family="Helvetica,sans-Serif" font-size="10.00"> &#45;value_</text>
</g>
<!-- Node5 -->
<g id="node5" class="node">
<title>Node5</title>
<g id="a_node5"><a xlink:title=" ">
<polygon fill="white" stroke="#bfbfbf" points="399,-370 399,-427 464,-427 464,-370 399,-370"/>
<text text-anchor="middle" x="431.5" y="-415" font-family="Helvetica,sans-Serif" font-size="10.00">std::string</text>
<polyline fill="none" stroke="#bfbfbf" points="399,-408 464,-408 "/>
<text text-anchor="middle" x="431.5" y="-396" font-family="Helvetica,sans-Serif" font-size="10.00"> </text>
<polyline fill="none" stroke="#bfbfbf" points="399,-389 464,-389 "/>
<text text-anchor="middle" x="431.5" y="-377" font-family="Helvetica,sans-Serif" font-size="10.00"> </text>
</a>
</g>
</g>
<!-- Node5&#45;&gt;Node1 -->
<g id="edge5" class="edge">
<title>Node5&#45;&gt;Node1</title>
<path fill="none" stroke="#404040" d="M435.13,-369.64C436.71,-353.12 437.74,-331.81 435.5,-313 429.01,-258.52 428.45,-243.29 406.5,-193 401.09,-180.61 394.4,-168.1 387.22,-156.08"/>
<polygon fill="none" stroke="#404040" points="387.1,-155.88 380.55,-152.86 380.81,-145.66 387.36,-148.67 387.1,-155.88"/>
<text text-anchor="middle" x="457" y="-241.5" font-family="Helvetica,sans-Serif" font-size="10.00"> &#45;v8_root_</text>
</g>
<!-- Node7 -->
<g id="node7" class="node">
<title>Node7</title>
<g id="a_node7"><a xlink:title=" ">
<polygon fill="white" stroke="#bfbfbf" points="257.5,-215.5 257.5,-272.5 397.5,-272.5 397.5,-215.5 257.5,-215.5"/>
<text text-anchor="middle" x="327.5" y="-260.5" font-family="Helvetica,sans-Serif" font-size="10.00">std::vector&lt; std::string &gt;</text>
<polyline fill="none" stroke="#bfbfbf" points="257.5,-253.5 397.5,-253.5 "/>
<text text-anchor="middle" x="327.5" y="-241.5" font-family="Helvetica,sans-Serif" font-size="10.00"> </text>
<polyline fill="none" stroke="#bfbfbf" points="257.5,-234.5 397.5,-234.5 "/>
<text text-anchor="middle" x="327.5" y="-222.5" font-family="Helvetica,sans-Serif" font-size="10.00"> </text>
</a>
</g>
</g>
<!-- Node5&#45;&gt;Node7 -->
<g id="edge8" class="edge">
<title>Node5&#45;&gt;Node7</title>
<path fill="none" stroke="#404040" d="M410.53,-369.91C400.33,-356.25 388.03,-339.43 377.5,-324 368.56,-310.91 359.17,-296.31 350.97,-283.26"/>
<polygon fill="none" stroke="#404040" points="350.75,-282.9 344.18,-279.93 344.39,-272.72 350.96,-275.7 350.75,-282.9"/>
<text text-anchor="middle" x="406.5" y="-316" font-family="Helvetica,sans-Serif" font-size="10.00"> +elements</text>
</g>
<!-- Node6 -->
<g id="node6" class="node">
<title>Node6</title>
<g id="a_node6"><a xlink:title=" ">
<polygon fill="white" stroke="#bfbfbf" points="379.5,-502.5 379.5,-570.5 483.5,-570.5 483.5,-502.5 379.5,-502.5"/>
<text text-anchor="start" x="387.5" y="-558.5" font-family="Helvetica,sans-Serif" font-size="10.00">std::basic_string&lt;</text>
<text text-anchor="middle" x="431.5" y="-547.5" font-family="Helvetica,sans-Serif" font-size="10.00"> Char &gt;</text>
<polyline fill="none" stroke="#bfbfbf" points="379.5,-540.5 483.5,-540.5 "/>
<text text-anchor="middle" x="431.5" y="-528.5" font-family="Helvetica,sans-Serif" font-size="10.00"> </text>
<polyline fill="none" stroke="#bfbfbf" points="379.5,-521.5 483.5,-521.5 "/>
<text text-anchor="middle" x="431.5" y="-509.5" font-family="Helvetica,sans-Serif" font-size="10.00"> </text>
</a>
</g>
</g>
<!-- Node6&#45;&gt;Node5 -->
<g id="edge6" class="edge">
<title>Node6&#45;&gt;Node5</title>
<path fill="none" stroke="midnightblue" d="M431.5,-492.16C431.5,-470.95 431.5,-446.03 431.5,-427.38"/>
<polygon fill="none" stroke="midnightblue" points="428,-492.23 431.5,-502.23 435,-492.23 428,-492.23"/>
</g>
<!-- Node7&#45;&gt;Node1 -->
<g id="edge7" class="edge">
<title>Node7&#45;&gt;Node1</title>
<path fill="none" stroke="#404040" d="M327.5,-215.47C327.5,-199.6 327.5,-178.71 327.5,-157.87"/>
<polygon fill="none" stroke="#404040" points="327.5,-157.64 323.5,-151.64 327.5,-145.64 331.5,-151.64 327.5,-157.64"/>
<text text-anchor="middle" x="352.5" y="-167" font-family="Helvetica,sans-Serif" font-size="10.00"> &#45;sources_</text>
</g>
<!-- Node8 -->
<g id="node8" class="node">
<title>Node8</title>
<g id="a_node8"><a xlink:title=" ">
<polygon fill="white" stroke="#bfbfbf" points="248,-370 248,-427 345,-427 345,-370 248,-370"/>
<text text-anchor="middle" x="296.5" y="-415" font-family="Helvetica,sans-Serif" font-size="10.00">std::vector&lt; T &gt;</text>
<polyline fill="none" stroke="#bfbfbf" points="248,-408 345,-408 "/>
<text text-anchor="middle" x="296.5" y="-396" font-family="Helvetica,sans-Serif" font-size="10.00"> </text>
<polyline fill="none" stroke="#bfbfbf" points="248,-389 345,-389 "/>
<text text-anchor="middle" x="296.5" y="-377" font-family="Helvetica,sans-Serif" font-size="10.00"> </text>
</a>
</g>
</g>
<!-- Node8&#45;&gt;Node7 -->
<g id="edge9" class="edge">
<title>Node8&#45;&gt;Node7</title>
<path fill="none" stroke="orange" d="M280.84,-359.88C276.78,-345.08 274.72,-328.07 279.5,-313 284.13,-298.4 293.16,-284.23 302.15,-272.64"/>
<polygon fill="orange" stroke="orange" points="277.6,-361.22 283.92,-369.72 284.28,-359.13 277.6,-361.22"/>
<text text-anchor="middle" x="317" y="-316" font-family="Helvetica,sans-Serif" font-size="10.00"> &lt; std::string &gt;</text>
</g>
<!-- Node9 -->
<g id="node9" class="node">
<title>Node9</title>
<g id="a_node9"><a xlink:title=" ">
<polygon fill="white" stroke="#bfbfbf" points="282,-508 282,-565 311,-565 311,-508 282,-508"/>
<text text-anchor="middle" x="296.5" y="-553" font-family="Helvetica,sans-Serif" font-size="10.00">T</text>
<polyline fill="none" stroke="#bfbfbf" points="282,-546 311,-546 "/>
<text text-anchor="middle" x="296.5" y="-534" font-family="Helvetica,sans-Serif" font-size="10.00"> </text>
<polyline fill="none" stroke="#bfbfbf" points="282,-527 311,-527 "/>
<text text-anchor="middle" x="296.5" y="-515" font-family="Helvetica,sans-Serif" font-size="10.00"> </text>
</a>
</g>
</g>
<!-- Node9&#45;&gt;Node8 -->
<g id="edge10" class="edge">
<title>Node9&#45;&gt;Node8</title>
<path fill="none" stroke="#404040" d="M296.5,-507.98C296.5,-488.29 296.5,-461.49 296.5,-439.45"/>
<polygon fill="none" stroke="#404040" points="296.5,-439.45 292.5,-433.45 296.5,-427.45 300.5,-433.45 296.5,-439.45"/>
<text text-anchor="middle" x="325.5" y="-476" font-family="Helvetica,sans-Serif" font-size="10.00"> +elements</text>
</g>
</g>
</svg>
