<?xml version="1.0" encoding="UTF-8" standalone="no"?>
<!DOCTYPE svg PUBLIC "-//W3C//DTD SVG 1.1//EN"
 "http://www.w3.org/Graphics/SVG/1.1/DTD/svg11.dtd">
<!-- Generated by graphviz version 2.43.0 (0)
 -->
<!-- Title: v8::internal::CpuProfile::CheckSubsample Pages: 1 -->
<svg width="303pt" height="137pt"
 viewBox="0.00 0.00 303.00 137.00" xmlns="http://www.w3.org/2000/svg" xmlns:xlink="http://www.w3.org/1999/xlink">
<g id="graph0" class="graph" transform="scale(1 1) rotate(0) translate(4 133)">
<title>v8::internal::CpuProfile::CheckSubsample</title>
<polygon fill="white" stroke="transparent" points="-4,4 -4,-133 299,-133 299,4 -4,4"/>
<!-- Node1 -->
<g id="node1" class="node">
<title>Node1</title>
<g id="a_node1"><a xlink:title=" ">
<polygon fill="#bfbfbf" stroke="black" points="0,-49.5 0,-79.5 128,-79.5 128,-49.5 0,-49.5"/>
<text text-anchor="start" x="8" y="-67.5" font-family="Helvetica,sans-Serif" font-size="10.00">v8::internal::CpuProfile</text>
<text text-anchor="middle" x="64" y="-56.5" font-family="Helvetica,sans-Serif" font-size="10.00">::CheckSubsample</text>
</a>
</g>
</g>
<!-- Node2 -->
<g id="node2" class="node">
<title>Node2</title>
<g id="a_node2"><a xlink:href="classv8_1_1base_1_1TimeDelta.html#a1df269c42efa26b4b6defb9d83f850da" target="_top" xlink:title=" ">
<polygon fill="white" stroke="black" points="172,-98.5 172,-128.5 287,-128.5 287,-98.5 172,-98.5"/>
<text text-anchor="start" x="180" y="-116.5" font-family="Helvetica,sans-Serif" font-size="10.00">v8::base::TimeDelta</text>
<text text-anchor="middle" x="229.5" y="-105.5" font-family="Helvetica,sans-Serif" font-size="10.00">::FromMicroseconds</text>
</a>
</g>
</g>
<!-- Node1&#45;&gt;Node2 -->
<g id="edge1" class="edge">
<title>Node1&#45;&gt;Node2</title>
<path fill="none" stroke="midnightblue" d="M115.39,-79.6C132.1,-84.61 150.86,-90.23 168.24,-95.44"/>
<polygon fill="midnightblue" stroke="midnightblue" points="167.69,-98.93 178.28,-98.45 169.7,-92.22 167.69,-98.93"/>
</g>
<!-- Node3 -->
<g id="node3" class="node">
<title>Node3</title>
<g id="a_node3"><a xlink:href="classv8_1_1base_1_1TimeDelta.html#a50801573147a5ee1710d0b76eadd5d16" target="_top" xlink:title=" ">
<polygon fill="white" stroke="black" points="172,-49.5 172,-79.5 287,-79.5 287,-49.5 172,-49.5"/>
<text text-anchor="start" x="180" y="-67.5" font-family="Helvetica,sans-Serif" font-size="10.00">v8::base::TimeDelta</text>
<text text-anchor="middle" x="229.5" y="-56.5" font-family="Helvetica,sans-Serif" font-size="10.00">::IsZero</text>
</a>
</g>
</g>
<!-- Node1&#45;&gt;Node3 -->
<g id="edge2" class="edge">
<title>Node1&#45;&gt;Node3</title>
<path fill="none" stroke="midnightblue" d="M128.21,-64.5C139.22,-64.5 150.7,-64.5 161.8,-64.5"/>
<polygon fill="midnightblue" stroke="midnightblue" points="161.86,-68 171.86,-64.5 161.86,-61 161.86,-68"/>
</g>
<!-- Node4 -->
<g id="node4" class="node">
<title>Node4</title>
<g id="a_node4"><a xlink:href="classv8_1_1CpuProfilingOptions.html#a1536231c434b5631284327013c47a9ed" target="_top" xlink:title=" ">
<polygon fill="white" stroke="black" points="164,-0.5 164,-30.5 295,-30.5 295,-0.5 164,-0.5"/>
<text text-anchor="start" x="172" y="-18.5" font-family="Helvetica,sans-Serif" font-size="10.00">v8::CpuProfilingOptions</text>
<text text-anchor="middle" x="229.5" y="-7.5" font-family="Helvetica,sans-Serif" font-size="10.00">::sampling_interval_us</text>
</a>
</g>
</g>
<!-- Node1&#45;&gt;Node4 -->
<g id="edge3" class="edge">
<title>Node1&#45;&gt;Node4</title>
<path fill="none" stroke="midnightblue" d="M115.39,-49.4C132.1,-44.39 150.86,-38.77 168.24,-33.56"/>
<polygon fill="midnightblue" stroke="midnightblue" points="169.7,-36.78 178.28,-30.55 167.69,-30.07 169.7,-36.78"/>
</g>
</g>
</svg>
