<?xml version="1.0" encoding="UTF-8" standalone="no"?>
<!DOCTYPE svg PUBLIC "-//W3C//DTD SVG 1.1//EN"
 "http://www.w3.org/Graphics/SVG/1.1/DTD/svg11.dtd">
<!-- Generated by graphviz version 2.43.0 (0)
 -->
<!-- Title: v8::internal::wasm::ValueTypeBase::is_nullable Pages: 1 -->
<svg width="607pt" height="116pt"
 viewBox="0.00 0.00 607.00 115.50" xmlns="http://www.w3.org/2000/svg" xmlns:xlink="http://www.w3.org/1999/xlink">
<g id="graph0" class="graph" transform="scale(1 1) rotate(0) translate(4 111.5)">
<title>v8::internal::wasm::ValueTypeBase::is_nullable</title>
<polygon fill="white" stroke="transparent" points="-4,4 -4,-111.5 603,-111.5 603,4 -4,4"/>
<!-- Node1 -->
<g id="node1" class="node">
<title>Node1</title>
<g id="a_node1"><a xlink:title=" ">
<polygon fill="#bfbfbf" stroke="black" points="0,-49.5 0,-90.5 110,-90.5 110,-49.5 0,-49.5"/>
<text text-anchor="start" x="8" y="-78.5" font-family="Helvetica,sans-Serif" font-size="10.00">v8::internal::wasm</text>
<text text-anchor="start" x="8" y="-67.5" font-family="Helvetica,sans-Serif" font-size="10.00">::ValueTypeBase::is</text>
<text text-anchor="middle" x="55" y="-56.5" font-family="Helvetica,sans-Serif" font-size="10.00">_nullable</text>
</a>
</g>
</g>
<!-- Node2 -->
<g id="node2" class="node">
<title>Node2</title>
<g id="a_node2"><a xlink:href="classv8_1_1internal_1_1wasm_1_1ValueTypeBase.html#a0778f3a493dfce20b1e7ba6ec5425242" target="_top" xlink:title=" ">
<polygon fill="white" stroke="black" points="333,-77 333,-107 462,-107 462,-77 333,-77"/>
<text text-anchor="start" x="341" y="-95" font-family="Helvetica,sans-Serif" font-size="10.00">v8::internal::wasm</text>
<text text-anchor="middle" x="397.5" y="-84" font-family="Helvetica,sans-Serif" font-size="10.00">::ValueTypeBase::is_ref</text>
</a>
</g>
</g>
<!-- Node1&#45;&gt;Node2 -->
<g id="edge1" class="edge">
<title>Node1&#45;&gt;Node2</title>
<path fill="none" stroke="midnightblue" d="M110.33,-73.51C167.81,-77.22 258.85,-83.11 322.78,-87.24"/>
<polygon fill="midnightblue" stroke="midnightblue" points="322.59,-90.73 332.8,-87.88 323.04,-83.75 322.59,-90.73"/>
</g>
<!-- Node4 -->
<g id="node4" class="node">
<title>Node4</title>
<g id="a_node4"><a xlink:href="classv8_1_1internal_1_1wasm_1_1ValueTypeBase.html#a997c81fa1a3e802cce3af5331114e54c" target="_top" xlink:title=" ">
<polygon fill="white" stroke="black" points="146,-33 146,-63 297,-63 297,-33 146,-33"/>
<text text-anchor="start" x="154" y="-51" font-family="Helvetica,sans-Serif" font-size="10.00">v8::internal::wasm</text>
<text text-anchor="middle" x="221.5" y="-40" font-family="Helvetica,sans-Serif" font-size="10.00">::ValueTypeBase::nullability</text>
</a>
</g>
</g>
<!-- Node1&#45;&gt;Node4 -->
<g id="edge3" class="edge">
<title>Node1&#45;&gt;Node4</title>
<path fill="none" stroke="midnightblue" d="M110.32,-62.74C118.53,-61.64 127.15,-60.48 135.82,-59.33"/>
<polygon fill="midnightblue" stroke="midnightblue" points="136.53,-62.76 145.98,-57.97 135.6,-55.82 136.53,-62.76"/>
</g>
<!-- Node3 -->
<g id="node3" class="node">
<title>Node3</title>
<g id="a_node3"><a xlink:href="classv8_1_1base_1_1BitField.html#a554df4b9ae5f0dc36b4d092bfc2e004b" target="_top" xlink:title=" ">
<polygon fill="white" stroke="black" points="498,-55 498,-85 599,-85 599,-55 498,-55"/>
<text text-anchor="start" x="506" y="-73" font-family="Helvetica,sans-Serif" font-size="10.00">v8::base::BitField</text>
<text text-anchor="middle" x="548.5" y="-62" font-family="Helvetica,sans-Serif" font-size="10.00">::decode</text>
</a>
</g>
</g>
<!-- Node2&#45;&gt;Node3 -->
<g id="edge2" class="edge">
<title>Node2&#45;&gt;Node3</title>
<path fill="none" stroke="midnightblue" d="M462.12,-82.61C470.56,-81.36 479.18,-80.09 487.55,-78.85"/>
<polygon fill="midnightblue" stroke="midnightblue" points="488.22,-82.29 497.61,-77.37 487.2,-75.37 488.22,-82.29"/>
</g>
<!-- Node4&#45;&gt;Node2 -->
<g id="edge6" class="edge">
<title>Node4&#45;&gt;Node2</title>
<path fill="none" stroke="midnightblue" d="M281.89,-63.02C296.51,-66.72 312.29,-70.71 327.32,-74.51"/>
<polygon fill="midnightblue" stroke="midnightblue" points="326.53,-77.92 337.08,-76.97 328.24,-71.13 326.53,-77.92"/>
</g>
<!-- Node4&#45;&gt;Node3 -->
<g id="edge5" class="edge">
<title>Node4&#45;&gt;Node3</title>
<path fill="none" stroke="midnightblue" d="M297.06,-53.05C354.81,-56.96 433.76,-62.3 487.47,-65.94"/>
<polygon fill="midnightblue" stroke="midnightblue" points="487.32,-69.43 497.53,-66.62 487.79,-62.45 487.32,-69.43"/>
</g>
<!-- Node5 -->
<g id="node5" class="node">
<title>Node5</title>
<g id="a_node5"><a xlink:href="namespacev8_1_1internal.html#aa6b3743bd5d773c552654f2a6c3efa4a" target="_top" xlink:title=" ">
<polygon fill="white" stroke="black" points="338,-0.5 338,-19.5 457,-19.5 457,-0.5 338,-0.5"/>
<text text-anchor="middle" x="397.5" y="-7.5" font-family="Helvetica,sans-Serif" font-size="10.00">v8::internal::DCHECK</text>
</a>
</g>
</g>
<!-- Node4&#45;&gt;Node5 -->
<g id="edge4" class="edge">
<title>Node4&#45;&gt;Node5</title>
<path fill="none" stroke="midnightblue" d="M291.27,-32.98C308.5,-29.22 326.72,-25.24 343.08,-21.67"/>
<polygon fill="midnightblue" stroke="midnightblue" points="343.97,-25.05 353,-19.5 342.48,-18.22 343.97,-25.05"/>
</g>
</g>
</svg>
