<?xml version="1.0" encoding="UTF-8" standalone="no"?>
<!DOCTYPE svg PUBLIC "-//W3C//DTD SVG 1.1//EN"
 "http://www.w3.org/Graphics/SVG/1.1/DTD/svg11.dtd">
<!-- Generated by graphviz version 2.43.0 (0)
 -->
<!-- Title: v8::internal::MutablePageMetadata::FromAddress Pages: 1 -->
<svg width="927pt" height="178pt"
 viewBox="0.00 0.00 927.00 178.00" xmlns="http://www.w3.org/2000/svg" xmlns:xlink="http://www.w3.org/1999/xlink">
<g id="graph0" class="graph" transform="scale(1 1) rotate(0) translate(4 174)">
<title>v8::internal::MutablePageMetadata::FromAddress</title>
<polygon fill="white" stroke="transparent" points="-4,4 -4,-174 923,-174 923,4 -4,4"/>
<!-- Node1 -->
<g id="node1" class="node">
<title>Node1</title>
<g id="a_node1"><a xlink:title=" ">
<polygon fill="#bfbfbf" stroke="black" points="0,-114.5 0,-144.5 141,-144.5 141,-114.5 0,-114.5"/>
<text text-anchor="start" x="8" y="-132.5" font-family="Helvetica,sans-Serif" font-size="10.00">v8::internal::MutablePage</text>
<text text-anchor="middle" x="70.5" y="-121.5" font-family="Helvetica,sans-Serif" font-size="10.00">Metadata::FromAddress</text>
</a>
</g>
</g>
<!-- Node2 -->
<g id="node2" class="node">
<title>Node2</title>
<g id="a_node2"><a xlink:href="classv8_1_1internal_1_1MutablePageMetadata.html#acaa892e234b2fe3170fa488f5a9a3767" target="_top" xlink:title=" ">
<polygon fill="white" stroke="black" points="181,-139.5 181,-169.5 322,-169.5 322,-139.5 181,-139.5"/>
<text text-anchor="start" x="189" y="-157.5" font-family="Helvetica,sans-Serif" font-size="10.00">v8::internal::MutablePage</text>
<text text-anchor="middle" x="251.5" y="-146.5" font-family="Helvetica,sans-Serif" font-size="10.00">Metadata::cast</text>
</a>
</g>
</g>
<!-- Node1&#45;&gt;Node2 -->
<g id="edge1" class="edge">
<title>Node1&#45;&gt;Node2</title>
<path fill="none" stroke="midnightblue" d="M141.22,-139.24C150.91,-140.59 160.92,-141.99 170.78,-143.37"/>
<polygon fill="midnightblue" stroke="midnightblue" points="170.58,-146.87 180.97,-144.79 171.55,-139.94 170.58,-146.87"/>
</g>
<!-- Node5 -->
<g id="node5" class="node">
<title>Node5</title>
<g id="a_node5"><a xlink:href="classv8_1_1internal_1_1MemoryChunkMetadata.html#a93f0ee88ee72fd6e1231443f73b6f9d3" target="_top" xlink:title=" ">
<polygon fill="white" stroke="black" points="177,-90.5 177,-120.5 326,-120.5 326,-90.5 177,-90.5"/>
<text text-anchor="start" x="185" y="-108.5" font-family="Helvetica,sans-Serif" font-size="10.00">v8::internal::MemoryChunk</text>
<text text-anchor="middle" x="251.5" y="-97.5" font-family="Helvetica,sans-Serif" font-size="10.00">Metadata::FromAddress</text>
</a>
</g>
</g>
<!-- Node1&#45;&gt;Node5 -->
<g id="edge4" class="edge">
<title>Node1&#45;&gt;Node5</title>
<path fill="none" stroke="midnightblue" d="M141.22,-120.15C149.61,-119.03 158.26,-117.87 166.82,-116.72"/>
<polygon fill="midnightblue" stroke="midnightblue" points="167.39,-120.18 176.83,-115.38 166.46,-113.24 167.39,-120.18"/>
</g>
<!-- Node3 -->
<g id="node3" class="node">
<title>Node3</title>
<g id="a_node3"><a xlink:href="classv8_1_1internal_1_1MemoryChunkMetadata.html#affdfb2f1151430b55bcd600a13aefa70" target="_top" xlink:title=" ">
<polygon fill="white" stroke="black" points="362,-139.5 362,-169.5 549,-169.5 549,-139.5 362,-139.5"/>
<text text-anchor="start" x="370" y="-157.5" font-family="Helvetica,sans-Serif" font-size="10.00">v8::internal::MemoryChunk</text>
<text text-anchor="middle" x="455.5" y="-146.5" font-family="Helvetica,sans-Serif" font-size="10.00">Metadata::IsMutablePageMetadata</text>
</a>
</g>
</g>
<!-- Node2&#45;&gt;Node3 -->
<g id="edge2" class="edge">
<title>Node2&#45;&gt;Node3</title>
<path fill="none" stroke="midnightblue" d="M322.02,-154.5C331.6,-154.5 341.61,-154.5 351.64,-154.5"/>
<polygon fill="midnightblue" stroke="midnightblue" points="351.67,-158 361.67,-154.5 351.67,-151 351.67,-158"/>
</g>
<!-- Node4 -->
<g id="node4" class="node">
<title>Node4</title>
<g id="a_node4"><a xlink:href="classv8_1_1internal_1_1MemoryChunkMetadata.html#a848a094456d4a8ec7f09caeac624dc0f" target="_top" xlink:title=" ">
<polygon fill="white" stroke="black" points="585,-139.5 585,-169.5 734,-169.5 734,-139.5 585,-139.5"/>
<text text-anchor="start" x="593" y="-157.5" font-family="Helvetica,sans-Serif" font-size="10.00">v8::internal::MemoryChunk</text>
<text text-anchor="middle" x="659.5" y="-146.5" font-family="Helvetica,sans-Serif" font-size="10.00">Metadata::owner</text>
</a>
</g>
</g>
<!-- Node3&#45;&gt;Node4 -->
<g id="edge3" class="edge">
<title>Node3&#45;&gt;Node4</title>
<path fill="none" stroke="midnightblue" d="M549.22,-154.5C557.7,-154.5 566.26,-154.5 574.66,-154.5"/>
<polygon fill="midnightblue" stroke="midnightblue" points="574.8,-158 584.8,-154.5 574.8,-151 574.8,-158"/>
</g>
<!-- Node6 -->
<g id="node6" class="node">
<title>Node6</title>
<g id="a_node6"><a xlink:href="classv8_1_1internal_1_1MemoryChunk.html#a1c9e126ddfcab88ef54ab6a899ece138" target="_top" xlink:title=" ">
<polygon fill="white" stroke="black" points="770,-71.5 770,-101.5 919,-101.5 919,-71.5 770,-71.5"/>
<text text-anchor="start" x="778" y="-89.5" font-family="Helvetica,sans-Serif" font-size="10.00">v8::internal::MemoryChunk</text>
<text text-anchor="middle" x="844.5" y="-78.5" font-family="Helvetica,sans-Serif" font-size="10.00">::FromAddress</text>
</a>
</g>
</g>
<!-- Node5&#45;&gt;Node6 -->
<g id="edge5" class="edge">
<title>Node5&#45;&gt;Node6</title>
<path fill="none" stroke="midnightblue" d="M326.16,-103.13C436.39,-99.59 643.69,-92.92 759.61,-89.2"/>
<polygon fill="midnightblue" stroke="midnightblue" points="759.96,-92.69 769.85,-88.87 759.74,-85.69 759.96,-92.69"/>
</g>
<!-- Node7 -->
<g id="node7" class="node">
<title>Node7</title>
<g id="a_node7"><a xlink:href="classv8_1_1internal_1_1MemoryChunk.html#a646a2dccc971ad9f546e0da4a35cfbbb" target="_top" xlink:title=" ">
<polygon fill="white" stroke="black" points="381,-49.5 381,-79.5 530,-79.5 530,-49.5 381,-49.5"/>
<text text-anchor="start" x="389" y="-67.5" font-family="Helvetica,sans-Serif" font-size="10.00">v8::internal::MemoryChunk</text>
<text text-anchor="middle" x="455.5" y="-56.5" font-family="Helvetica,sans-Serif" font-size="10.00">::Metadata</text>
</a>
</g>
</g>
<!-- Node5&#45;&gt;Node7 -->
<g id="edge6" class="edge">
<title>Node5&#45;&gt;Node7</title>
<path fill="none" stroke="midnightblue" d="M326.28,-90.52C340.75,-87.59 356.03,-84.49 370.79,-81.49"/>
<polygon fill="midnightblue" stroke="midnightblue" points="371.81,-84.85 380.92,-79.44 370.42,-77.99 371.81,-84.85"/>
</g>
<!-- Node8 -->
<g id="node8" class="node">
<title>Node8</title>
<g id="a_node8"><a xlink:href="classv8_1_1internal_1_1MemoryChunkMetadata.html#a99a35cd051fc570183122292b977fd64" target="_top" xlink:title=" ">
<polygon fill="white" stroke="red" points="585,-49.5 585,-79.5 734,-79.5 734,-49.5 585,-49.5"/>
<text text-anchor="start" x="593" y="-67.5" font-family="Helvetica,sans-Serif" font-size="10.00">v8::internal::MemoryChunk</text>
<text text-anchor="middle" x="659.5" y="-56.5" font-family="Helvetica,sans-Serif" font-size="10.00">Metadata::Chunk</text>
</a>
</g>
</g>
<!-- Node7&#45;&gt;Node8 -->
<g id="edge7" class="edge">
<title>Node7&#45;&gt;Node8</title>
<path fill="none" stroke="midnightblue" d="M530.28,-64.5C544.75,-64.5 560.03,-64.5 574.79,-64.5"/>
<polygon fill="midnightblue" stroke="midnightblue" points="574.92,-68 584.92,-64.5 574.92,-61 574.92,-68"/>
</g>
<!-- Node10 -->
<g id="node9" class="node">
<title>Node10</title>
<g id="a_node9"><a xlink:href="classv8_1_1internal_1_1IsolateGroup.html#a3ca6c5d3f2b884f5866595543d2e0fd7" target="_top" xlink:title=" ">
<polygon fill="white" stroke="black" points="589.5,-0.5 589.5,-30.5 729.5,-30.5 729.5,-0.5 589.5,-0.5"/>
<text text-anchor="start" x="597.5" y="-18.5" font-family="Helvetica,sans-Serif" font-size="10.00">v8::internal::IsolateGroup</text>
<text text-anchor="middle" x="659.5" y="-7.5" font-family="Helvetica,sans-Serif" font-size="10.00">::current</text>
</a>
</g>
</g>
<!-- Node7&#45;&gt;Node10 -->
<g id="edge9" class="edge">
<title>Node7&#45;&gt;Node10</title>
<path fill="none" stroke="midnightblue" d="M518.48,-49.47C540.1,-44.22 564.54,-38.29 586.87,-32.87"/>
<polygon fill="midnightblue" stroke="midnightblue" points="587.74,-36.26 596.64,-30.51 586.09,-29.46 587.74,-36.26"/>
</g>
<!-- Node8&#45;&gt;Node6 -->
<g id="edge8" class="edge">
<title>Node8&#45;&gt;Node6</title>
<path fill="none" stroke="midnightblue" d="M734.14,-73.35C742.57,-74.37 751.2,-75.4 759.74,-76.43"/>
<polygon fill="midnightblue" stroke="midnightblue" points="759.36,-79.91 769.71,-77.63 760.2,-72.96 759.36,-79.91"/>
</g>
</g>
</svg>
