<?xml version="1.0" encoding="UTF-8" standalone="no"?>
<!DOCTYPE svg PUBLIC "-//W3C//DTD SVG 1.1//EN"
 "http://www.w3.org/Graphics/SVG/1.1/DTD/svg11.dtd">
<!-- Generated by graphviz version 2.43.0 (0)
 -->
<!-- Title: v8::internal::wasm::ParallelMove::ExecuteLoads Pages: 1 -->
<!--zoomable 1020 -->
<svg id="main" version="1.1" xmlns="http://www.w3.org/2000/svg" xmlns:xlink="http://www.w3.org/1999/xlink" xml:space="preserve" onload="init(evt)">
<style type="text/css"><![CDATA[
.edge:hover path { stroke: red; }
.edge:hover polygon { stroke: red; fill: red; }
]]></style>
<script type="text/javascript"><![CDATA[
var edges = document.getElementsByTagName('g');
if (edges && edges.length) {
  for (var i=0;i<edges.length;i++) {
    if (edges[i].id.substr(0,4)=='edge') {
      edges[i].setAttribute('class','edge');
    }
  }
}
]]></script>
        <defs>
                <circle id="rim" cx="0" cy="0" r="7"/>
                <circle id="rim2" cx="0" cy="0" r="3.5"/>
                <g id="zoomPlus">
                        <use xlink:href="#rim" fill="#404040">
                                <set attributeName="fill" to="#808080" begin="zoomplus.mouseover" end="zoomplus.mouseout"/>
                        </use>
                        <path d="M-4,0h8M0,-4v8" fill="none" stroke="white" stroke-width="1.5" pointer-events="none"/>
                </g>
                <g id="zoomMin">
                        <use xlink:href="#rim" fill="#404040">
                                <set attributeName="fill" to="#808080" begin="zoomminus.mouseover" end="zoomminus.mouseout"/>
                        </use>
                        <path d="M-4,0h8" fill="none" stroke="white" stroke-width="1.5" pointer-events="none"/>
                </g>
                <g id="dirArrow">
                        <path fill="none" stroke="white" stroke-width="1.5" d="M0,-3.0v7 M-2.5,-0.5L0,-3.0L2.5,-0.5"/>
                </g>
               <g id="resetDef">
                       <use xlink:href="#rim2" fill="#404040">
                               <set attributeName="fill" to="#808080" begin="reset.mouseover" end="reset.mouseout"/>
                       </use>
               </g>
        </defs>

<script type="text/javascript">
var viewWidth = 1236;
var viewHeight = 1020;
var sectionId = 'dynsection-6';
</script>
<script xlink:href="svgpan.js"/>
<svg id="graph" class="graph">
<g id="viewport">
<title>v8::internal::wasm::ParallelMove::ExecuteLoads</title>
<polygon fill="white" stroke="transparent" points="-4,4 -4,-1015.69 1232,-1015.69 1232,4 -4,4"/>
<!-- Node1 -->
<g id="node1" class="node">
<title>Node1</title>
<g id="a_node1"><a xlink:title=" ">
<polygon fill="#bfbfbf" stroke="black" points="0,-412.19 0,-442.19 158,-442.19 158,-412.19 0,-412.19"/>
<text text-anchor="start" x="8" y="-430.19" font-family="Helvetica,sans-Serif" font-size="10.00">v8::internal::wasm</text>
<text text-anchor="middle" x="79" y="-419.19" font-family="Helvetica,sans-Serif" font-size="10.00">::ParallelMove::ExecuteLoads</text>
</a>
</g>
</g>
<!-- Node2 -->
<g id="node2" class="node">
<title>Node2</title>
<g id="a_node2"><a xlink:href="classv8_1_1internal_1_1wasm_1_1LiftoffAssembler.html#a46a0fa349ef2fb3c6230268c062ca878" target="_top" xlink:title=" ">
<polygon fill="white" stroke="black" points="399.5,-622.19 399.5,-652.19 521.5,-652.19 521.5,-622.19 399.5,-622.19"/>
<text text-anchor="start" x="407.5" y="-640.19" font-family="Helvetica,sans-Serif" font-size="10.00">v8::internal::wasm</text>
<text text-anchor="middle" x="460.5" y="-629.19" font-family="Helvetica,sans-Serif" font-size="10.00">::LiftoffAssembler::Fill</text>
</a>
</g>
</g>
<!-- Node1&#45;&gt;Node2 -->
<g id="edge1" class="edge">
<title>Node1&#45;&gt;Node2</title>
<path fill="none" stroke="midnightblue" d="M107.29,-442.3C174.36,-479.41 347.27,-575.09 423.03,-617.01"/>
<polygon fill="midnightblue" stroke="midnightblue" points="421.76,-620.31 432.2,-622.09 425.15,-614.18 421.76,-620.31"/>
</g>
<!-- Node40 -->
<g id="node22" class="node">
<title>Node40</title>
<g id="a_node22"><a xlink:href="classv8_1_1internal_1_1wasm_1_1LiftoffAssembler.html#a1e1aeabe74d1dd307514bd5ecc1aa1f5" target="_top" xlink:title=" ">
<polygon fill="white" stroke="black" points="406.5,-882.69 406.5,-923.69 514.5,-923.69 514.5,-882.69 406.5,-882.69"/>
<text text-anchor="start" x="414.5" y="-911.69" font-family="Helvetica,sans-Serif" font-size="10.00">v8::internal::wasm</text>
<text text-anchor="start" x="414.5" y="-900.69" font-family="Helvetica,sans-Serif" font-size="10.00">::LiftoffAssembler::</text>
<text text-anchor="middle" x="460.5" y="-889.69" font-family="Helvetica,sans-Serif" font-size="10.00">FillI64Half</text>
</a>
</g>
</g>
<!-- Node1&#45;&gt;Node40 -->
<g id="edge27" class="edge">
<title>Node1&#45;&gt;Node40</title>
<path fill="none" stroke="midnightblue" d="M91.98,-442.22C145.74,-509.65 365.14,-784.83 436.76,-874.67"/>
<polygon fill="midnightblue" stroke="midnightblue" points="434.06,-876.9 443.03,-882.53 439.53,-872.53 434.06,-876.9"/>
</g>
<!-- Node42 -->
<g id="node24" class="node">
<title>Node42</title>
<g id="a_node24"><a xlink:href="classv8_1_1internal_1_1wasm_1_1LiftoffRegister.html#a27bed6d224c2fe6769a6321295bc9725" target="_top" xlink:title=" ">
<polygon fill="white" stroke="black" points="200.5,-222.19 200.5,-252.19 342.5,-252.19 342.5,-222.19 200.5,-222.19"/>
<text text-anchor="start" x="208.5" y="-240.19" font-family="Helvetica,sans-Serif" font-size="10.00">v8::internal::wasm</text>
<text text-anchor="middle" x="271.5" y="-229.19" font-family="Helvetica,sans-Serif" font-size="10.00">::LiftoffRegister::ForFpPair</text>
</a>
</g>
</g>
<!-- Node1&#45;&gt;Node42 -->
<g id="edge31" class="edge">
<title>Node1&#45;&gt;Node42</title>
<path fill="none" stroke="midnightblue" d="M95.27,-411.97C128.79,-378.53 208.96,-298.57 248.16,-259.48"/>
<polygon fill="midnightblue" stroke="midnightblue" points="250.82,-261.77 255.42,-252.23 245.87,-256.81 250.82,-261.77"/>
</g>
<!-- Node46 -->
<g id="node28" class="node">
<title>Node46</title>
<g id="a_node28"><a xlink:href="classv8_1_1internal_1_1wasm_1_1LiftoffAssembler.html#a8a2a3189d652493f0adb804b7e0f4ad2" target="_top" xlink:title=" ">
<polygon fill="white" stroke="black" points="586.5,-406.69 586.5,-447.69 694.5,-447.69 694.5,-406.69 586.5,-406.69"/>
<text text-anchor="start" x="594.5" y="-435.69" font-family="Helvetica,sans-Serif" font-size="10.00">v8::internal::wasm</text>
<text text-anchor="start" x="594.5" y="-424.69" font-family="Helvetica,sans-Serif" font-size="10.00">::LiftoffAssembler::</text>
<text text-anchor="middle" x="640.5" y="-413.69" font-family="Helvetica,sans-Serif" font-size="10.00">LoadConstant</text>
</a>
</g>
</g>
<!-- Node1&#45;&gt;Node46 -->
<g id="edge42" class="edge">
<title>Node1&#45;&gt;Node46</title>
<path fill="none" stroke="midnightblue" d="M158.09,-427.19C269.8,-427.19 473.07,-427.19 576.06,-427.19"/>
<polygon fill="midnightblue" stroke="midnightblue" points="576.3,-430.69 586.3,-427.19 576.3,-423.69 576.3,-430.69"/>
</g>
<!-- Node58 -->
<g id="node34" class="node">
<title>Node58</title>
<g id="a_node34"><a xlink:href="classv8_1_1internal_1_1wasm_1_1ParallelMove.html#ad2c9e926a0e2d767f499e28d5a3680b1" target="_top" xlink:title=" ">
<polygon fill="white" stroke="black" points="194,-113.19 194,-143.19 349,-143.19 349,-113.19 194,-113.19"/>
<text text-anchor="start" x="202" y="-131.19" font-family="Helvetica,sans-Serif" font-size="10.00">v8::internal::wasm</text>
<text text-anchor="middle" x="271.5" y="-120.19" font-family="Helvetica,sans-Serif" font-size="10.00">::ParallelMove::register_load</text>
</a>
</g>
</g>
<!-- Node1&#45;&gt;Node58 -->
<g id="edge56" class="edge">
<title>Node1&#45;&gt;Node58</title>
<path fill="none" stroke="midnightblue" d="M86.41,-412.11C102.09,-375.96 144.77,-282.16 194,-212.19 209.8,-189.73 231.04,-166.86 247.13,-150.66"/>
<polygon fill="midnightblue" stroke="midnightblue" points="249.94,-152.81 254.57,-143.28 245.01,-147.84 249.94,-152.81"/>
</g>
<!-- Node3 -->
<g id="node3" class="node">
<title>Node3</title>
<g id="a_node3"><a xlink:href="namespacev8_1_1internal_1_1wasm_1_1liftoff.html#a74eebeb818c22affeb90af6e88d66343" target="_top" xlink:title=" ">
<polygon fill="white" stroke="black" points="582,-932.19 582,-962.19 699,-962.19 699,-932.19 582,-932.19"/>
<text text-anchor="start" x="590" y="-950.19" font-family="Helvetica,sans-Serif" font-size="10.00">v8::internal::wasm</text>
<text text-anchor="middle" x="640.5" y="-939.19" font-family="Helvetica,sans-Serif" font-size="10.00">::liftoff::GetStackSlot</text>
</a>
</g>
</g>
<!-- Node2&#45;&gt;Node3 -->
<g id="edge2" class="edge">
<title>Node2&#45;&gt;Node3</title>
<path fill="none" stroke="midnightblue" d="M470.33,-652.57C499.16,-702.78 590.72,-862.24 625.72,-923.19"/>
<polygon fill="midnightblue" stroke="midnightblue" points="622.81,-925.16 630.83,-932.09 628.89,-921.68 622.81,-925.16"/>
</g>
<!-- Node5 -->
<g id="node5" class="node">
<title>Node5</title>
<g id="a_node5"><a xlink:href="namespacev8_1_1internal_1_1wasm_1_1liftoff.html#a9018548cdd5413f67ffc37b2f3f4bbd4" target="_top" xlink:title=" ">
<polygon fill="white" stroke="black" points="587,-622.19 587,-652.19 694,-652.19 694,-622.19 587,-622.19"/>
<text text-anchor="start" x="595" y="-640.19" font-family="Helvetica,sans-Serif" font-size="10.00">v8::internal::wasm</text>
<text text-anchor="middle" x="640.5" y="-629.19" font-family="Helvetica,sans-Serif" font-size="10.00">::liftoff::Load</text>
</a>
</g>
</g>
<!-- Node2&#45;&gt;Node5 -->
<g id="edge4" class="edge">
<title>Node2&#45;&gt;Node5</title>
<path fill="none" stroke="midnightblue" d="M521.76,-637.19C539.38,-637.19 558.69,-637.19 576.48,-637.19"/>
<polygon fill="midnightblue" stroke="midnightblue" points="576.75,-640.69 586.75,-637.19 576.75,-633.69 576.75,-640.69"/>
</g>
<!-- Node4 -->
<g id="node4" class="node">
<title>Node4</title>
<g id="a_node4"><a xlink:href="namespacev8_1_1internal_1_1wasm_1_1liftoff.html#a6b9148f339dec4f6d166e629964403b6" target="_top" xlink:title=" ">
<polygon fill="white" stroke="black" points="765.5,-981.19 765.5,-1011.19 885.5,-1011.19 885.5,-981.19 765.5,-981.19"/>
<text text-anchor="start" x="773.5" y="-999.19" font-family="Helvetica,sans-Serif" font-size="10.00">v8::internal::wasm</text>
<text text-anchor="middle" x="825.5" y="-988.19" font-family="Helvetica,sans-Serif" font-size="10.00">::liftoff::MemOperand</text>
</a>
</g>
</g>
<!-- Node3&#45;&gt;Node4 -->
<g id="edge3" class="edge">
<title>Node3&#45;&gt;Node4</title>
<path fill="none" stroke="midnightblue" d="M697.9,-962.29C717.04,-967.42 738.59,-973.19 758.41,-978.5"/>
<polygon fill="midnightblue" stroke="midnightblue" points="757.72,-981.94 768.29,-981.14 759.53,-975.17 757.72,-981.94"/>
</g>
<!-- Node6 -->
<g id="node6" class="node">
<title>Node6</title>
<g id="a_node6"><a xlink:href="namespacev8_1_1internal_1_1wasm_1_1liftoff.html#a3226690f4e640f2806e91abb2ad4a570" target="_top" xlink:title=" ">
<polygon fill="white" stroke="red" points="760,-882.69 760,-923.69 891,-923.69 891,-882.69 760,-882.69"/>
<text text-anchor="start" x="768" y="-911.69" font-family="Helvetica,sans-Serif" font-size="10.00">v8::internal::wasm</text>
<text text-anchor="start" x="768" y="-900.69" font-family="Helvetica,sans-Serif" font-size="10.00">::liftoff::CalculateActual</text>
<text text-anchor="middle" x="825.5" y="-889.69" font-family="Helvetica,sans-Serif" font-size="10.00">Address</text>
</a>
</g>
</g>
<!-- Node5&#45;&gt;Node6 -->
<g id="edge5" class="edge">
<title>Node5&#45;&gt;Node6</title>
<path fill="none" stroke="midnightblue" d="M643.93,-652.22C651.36,-693.38 677.5,-809.14 745,-873.19 746.92,-875.01 748.96,-876.73 751.1,-878.34"/>
<polygon fill="midnightblue" stroke="midnightblue" points="749.48,-881.46 759.75,-884.06 753.34,-875.63 749.48,-881.46"/>
</g>
<!-- Node10 -->
<g id="node7" class="node">
<title>Node10</title>
<g id="a_node7"><a xlink:href="classv8_1_1internal_1_1wasm_1_1LiftoffRegister.html#a1996b4ab7a93d190356ec17bd19a5371" target="_top" xlink:title=" ">
<polygon fill="white" stroke="red" points="772,-412.19 772,-442.19 879,-442.19 879,-412.19 772,-412.19"/>
<text text-anchor="start" x="780" y="-430.19" font-family="Helvetica,sans-Serif" font-size="10.00">v8::internal::wasm</text>
<text text-anchor="middle" x="825.5" y="-419.19" font-family="Helvetica,sans-Serif" font-size="10.00">::LiftoffRegister::fp</text>
</a>
</g>
</g>
<!-- Node5&#45;&gt;Node10 -->
<g id="edge6" class="edge">
<title>Node5&#45;&gt;Node10</title>
<path fill="none" stroke="midnightblue" d="M645.75,-621.97C656.38,-586.73 687.46,-498.98 745,-452.19 750.2,-447.96 756.13,-444.44 762.35,-441.52"/>
<polygon fill="midnightblue" stroke="midnightblue" points="763.74,-444.73 771.61,-437.64 761.04,-438.27 763.74,-444.73"/>
</g>
<!-- Node14 -->
<g id="node9" class="node">
<title>Node14</title>
<g id="a_node9"><a xlink:href="namespacev8_1_1internal_1_1wasm_1_1liftoff.html#aa8e6e99a4ca9b8fc5ab44ff9f59d0544" target="_top" xlink:title=" ">
<polygon fill="white" stroke="red" points="757,-598.19 757,-628.19 894,-628.19 894,-598.19 757,-598.19"/>
<text text-anchor="start" x="765" y="-616.19" font-family="Helvetica,sans-Serif" font-size="10.00">v8::internal::wasm</text>
<text text-anchor="middle" x="825.5" y="-605.19" font-family="Helvetica,sans-Serif" font-size="10.00">::liftoff::GetFloatRegister</text>
</a>
</g>
</g>
<!-- Node5&#45;&gt;Node14 -->
<g id="edge8" class="edge">
<title>Node5&#45;&gt;Node14</title>
<path fill="none" stroke="midnightblue" d="M694.43,-630.25C710.67,-628.12 728.89,-625.73 746.43,-623.43"/>
<polygon fill="midnightblue" stroke="midnightblue" points="747.21,-626.86 756.67,-622.09 746.3,-619.92 747.21,-626.86"/>
</g>
<!-- Node17 -->
<g id="node10" class="node">
<title>Node17</title>
<g id="a_node10"><a xlink:href="classv8_1_1internal_1_1wasm_1_1LiftoffRegister.html#afea974be4a8509ca2745cefe9522f434" target="_top" xlink:title=" ">
<polygon fill="white" stroke="red" points="771,-216.19 771,-246.19 880,-246.19 880,-216.19 771,-216.19"/>
<text text-anchor="start" x="779" y="-234.19" font-family="Helvetica,sans-Serif" font-size="10.00">v8::internal::wasm</text>
<text text-anchor="middle" x="825.5" y="-223.19" font-family="Helvetica,sans-Serif" font-size="10.00">::LiftoffRegister::gp</text>
</a>
</g>
</g>
<!-- Node5&#45;&gt;Node17 -->
<g id="edge9" class="edge">
<title>Node5&#45;&gt;Node17</title>
<path fill="none" stroke="midnightblue" d="M648.24,-622.09C661.64,-591.54 691.79,-519.96 709,-457.19 733.11,-369.24 684.39,-323.33 745,-255.19 749.57,-250.05 755.2,-246 761.33,-242.8"/>
<polygon fill="midnightblue" stroke="midnightblue" points="762.88,-245.94 770.61,-238.7 760.05,-239.54 762.88,-245.94"/>
</g>
<!-- Node28 -->
<g id="node11" class="node">
<title>Node28</title>
<g id="a_node11"><a xlink:href="classv8_1_1internal_1_1wasm_1_1LiftoffRegister.html#aec41b5666bc9e920e72282066fcacbb5" target="_top" xlink:title=" ">
<polygon fill="white" stroke="red" points="758,-549.19 758,-579.19 893,-579.19 893,-549.19 758,-549.19"/>
<text text-anchor="start" x="766" y="-567.19" font-family="Helvetica,sans-Serif" font-size="10.00">v8::internal::wasm</text>
<text text-anchor="middle" x="825.5" y="-556.19" font-family="Helvetica,sans-Serif" font-size="10.00">::LiftoffRegister::high_gp</text>
</a>
</g>
</g>
<!-- Node5&#45;&gt;Node28 -->
<g id="edge11" class="edge">
<title>Node5&#45;&gt;Node28</title>
<path fill="none" stroke="midnightblue" d="M671.4,-622.07C691.83,-612.05 719.7,-598.99 745,-589.19 750.93,-586.9 757.17,-584.65 763.44,-582.51"/>
<polygon fill="midnightblue" stroke="midnightblue" points="764.89,-585.71 773.27,-579.23 762.67,-579.07 764.89,-585.71"/>
</g>
<!-- Node30 -->
<g id="node13" class="node">
<title>Node30</title>
<g id="a_node13"><a xlink:href="classv8_1_1internal_1_1Assembler.html#ad286d152dadb6011abc9426043e7631f" target="_top" xlink:title=" ">
<polygon fill="white" stroke="black" points="751,-942.69 751,-961.69 900,-961.69 900,-942.69 751,-942.69"/>
<text text-anchor="middle" x="825.5" y="-949.69" font-family="Helvetica,sans-Serif" font-size="10.00">v8::internal::Assembler::ldr</text>
</a>
</g>
</g>
<!-- Node5&#45;&gt;Node30 -->
<g id="edge14" class="edge">
<title>Node5&#45;&gt;Node30</title>
<path fill="none" stroke="midnightblue" d="M644.75,-652.19C656.87,-706.74 700.96,-893.42 745,-933.19 746.71,-934.74 748.53,-936.16 750.42,-937.48"/>
<polygon fill="midnightblue" stroke="midnightblue" points="748.8,-940.59 759.21,-942.56 752.31,-934.53 748.8,-940.59"/>
</g>
<!-- Node31 -->
<g id="node14" class="node">
<title>Node31</title>
<g id="a_node14"><a xlink:href="classv8_1_1internal_1_1Assembler.html#a7c5495a93d9141370c031e9a464a4d57" target="_top" xlink:title=" ">
<polygon fill="white" stroke="black" points="760.5,-833.19 760.5,-863.19 890.5,-863.19 890.5,-833.19 760.5,-833.19"/>
<text text-anchor="start" x="768.5" y="-851.19" font-family="Helvetica,sans-Serif" font-size="10.00">v8::internal::Assembler</text>
<text text-anchor="middle" x="825.5" y="-840.19" font-family="Helvetica,sans-Serif" font-size="10.00">::ldrh</text>
</a>
</g>
</g>
<!-- Node5&#45;&gt;Node31 -->
<g id="edge15" class="edge">
<title>Node5&#45;&gt;Node31</title>
<path fill="none" stroke="midnightblue" d="M645.65,-652.23C656.15,-687.49 687.14,-776.03 745,-823.19 747.06,-824.87 749.24,-826.44 751.5,-827.9"/>
<polygon fill="midnightblue" stroke="midnightblue" points="750.16,-831.17 760.59,-833.04 753.61,-825.07 750.16,-831.17"/>
</g>
<!-- Node32 -->
<g id="node15" class="node">
<title>Node32</title>
<g id="a_node15"><a xlink:href="classv8_1_1internal_1_1wasm_1_1LiftoffRegister.html#adf001491dfc58502a1f147be37d42a04" target="_top" xlink:title=" ">
<polygon fill="white" stroke="red" points="761,-265.19 761,-295.19 890,-295.19 890,-265.19 761,-265.19"/>
<text text-anchor="start" x="769" y="-283.19" font-family="Helvetica,sans-Serif" font-size="10.00">v8::internal::wasm</text>
<text text-anchor="middle" x="825.5" y="-272.19" font-family="Helvetica,sans-Serif" font-size="10.00">::LiftoffRegister::low_fp</text>
</a>
</g>
</g>
<!-- Node5&#45;&gt;Node32 -->
<g id="edge16" class="edge">
<title>Node5&#45;&gt;Node32</title>
<path fill="none" stroke="midnightblue" d="M647.94,-622.01C660.8,-591.3 690.04,-519.45 709,-457.19 729.23,-390.78 697.71,-356.02 745,-305.19 747.27,-302.76 749.77,-300.56 752.44,-298.57"/>
<polygon fill="midnightblue" stroke="midnightblue" points="754.33,-301.51 760.93,-293.22 750.6,-295.59 754.33,-301.51"/>
</g>
<!-- Node34 -->
<g id="node16" class="node">
<title>Node34</title>
<g id="a_node16"><a xlink:href="classv8_1_1internal_1_1wasm_1_1LiftoffRegister.html#a0129912a56774565426684c66fec12dc" target="_top" xlink:title=" ">
<polygon fill="white" stroke="red" points="760,-500.19 760,-530.19 891,-530.19 891,-500.19 760,-500.19"/>
<text text-anchor="start" x="768" y="-518.19" font-family="Helvetica,sans-Serif" font-size="10.00">v8::internal::wasm</text>
<text text-anchor="middle" x="825.5" y="-507.19" font-family="Helvetica,sans-Serif" font-size="10.00">::LiftoffRegister::low_gp</text>
</a>
</g>
</g>
<!-- Node5&#45;&gt;Node34 -->
<g id="edge18" class="edge">
<title>Node5&#45;&gt;Node34</title>
<path fill="none" stroke="midnightblue" d="M653.63,-622.18C671.5,-601 706.94,-562.43 745,-540.19 748.65,-538.06 752.51,-536.08 756.48,-534.26"/>
<polygon fill="midnightblue" stroke="midnightblue" points="758.03,-537.4 765.88,-530.29 755.31,-530.96 758.03,-537.4"/>
</g>
<!-- Node35 -->
<g id="node17" class="node">
<title>Node35</title>
<g id="a_node17"><a xlink:href="classv8_1_1internal_1_1MemOperand.html#acf7eabec54a6bf88443b6f5e9746f7c6" target="_top" xlink:title=" ">
<polygon fill="white" stroke="black" points="753.5,-647.19 753.5,-677.19 897.5,-677.19 897.5,-647.19 753.5,-647.19"/>
<text text-anchor="start" x="761.5" y="-665.19" font-family="Helvetica,sans-Serif" font-size="10.00">v8::internal::MemOperand</text>
<text text-anchor="middle" x="825.5" y="-654.19" font-family="Helvetica,sans-Serif" font-size="10.00">::offset</text>
</a>
</g>
</g>
<!-- Node5&#45;&gt;Node35 -->
<g id="edge21" class="edge">
<title>Node5&#45;&gt;Node35</title>
<path fill="none" stroke="midnightblue" d="M694.43,-644.42C709.64,-646.5 726.59,-648.82 743.1,-651.07"/>
<polygon fill="midnightblue" stroke="midnightblue" points="742.92,-654.58 753.3,-652.47 743.87,-647.64 742.92,-654.58"/>
</g>
<!-- Node36 -->
<g id="node18" class="node">
<title>Node36</title>
<g id="a_node18"><a xlink:href="classv8_1_1internal_1_1MemOperand.html#a27806f72f187fecccdc7235eb009172a" target="_top" xlink:title=" ">
<polygon fill="white" stroke="black" points="745.5,-794.69 745.5,-813.69 905.5,-813.69 905.5,-794.69 745.5,-794.69"/>
<text text-anchor="middle" x="825.5" y="-801.69" font-family="Helvetica,sans-Serif" font-size="10.00">v8::internal::MemOperand::rn</text>
</a>
</g>
</g>
<!-- Node5&#45;&gt;Node36 -->
<g id="edge23" class="edge">
<title>Node5&#45;&gt;Node36</title>
<path fill="none" stroke="midnightblue" d="M647.72,-652.54C660.86,-682.93 694.45,-750.79 745,-785.19 748.05,-787.27 751.31,-789.12 754.69,-790.77"/>
<polygon fill="midnightblue" stroke="midnightblue" points="753.33,-794 763.9,-794.69 756.07,-787.55 753.33,-794"/>
</g>
<!-- Node37 -->
<g id="node19" class="node">
<title>Node37</title>
<g id="a_node19"><a xlink:href="namespacev8_1_1internal.html#acdec713c25068019f935e35976f5b666" target="_top" xlink:title=" ">
<polygon fill="white" stroke="black" points="749.5,-461.69 749.5,-480.69 901.5,-480.69 901.5,-461.69 749.5,-461.69"/>
<text text-anchor="middle" x="825.5" y="-468.69" font-family="Helvetica,sans-Serif" font-size="10.00">v8::internal::UNREACHABLE</text>
</a>
</g>
</g>
<!-- Node5&#45;&gt;Node37 -->
<g id="edge24" class="edge">
<title>Node5&#45;&gt;Node37</title>
<path fill="none" stroke="midnightblue" d="M647.81,-622.1C661.12,-592.21 695.01,-525.42 745,-491.19 748.57,-488.75 752.41,-486.61 756.4,-484.72"/>
<polygon fill="midnightblue" stroke="midnightblue" points="758.05,-487.83 765.97,-480.79 755.39,-481.36 758.05,-487.83"/>
</g>
<!-- Node38 -->
<g id="node20" class="node">
<title>Node38</title>
<g id="a_node20"><a xlink:href="classv8_1_1internal_1_1Assembler.html#a8dca4f6683badbe5ace825d9e3982f20" target="_top" xlink:title=" ">
<polygon fill="white" stroke="black" points="760.5,-745.19 760.5,-775.19 890.5,-775.19 890.5,-745.19 760.5,-745.19"/>
<text text-anchor="start" x="768.5" y="-763.19" font-family="Helvetica,sans-Serif" font-size="10.00">v8::internal::Assembler</text>
<text text-anchor="middle" x="825.5" y="-752.19" font-family="Helvetica,sans-Serif" font-size="10.00">::vld1</text>
</a>
</g>
</g>
<!-- Node5&#45;&gt;Node38 -->
<g id="edge25" class="edge">
<title>Node5&#45;&gt;Node38</title>
<path fill="none" stroke="midnightblue" d="M653.23,-652.22C670.88,-673.86 706.34,-713.64 745,-736.19 748.02,-737.95 751.18,-739.6 754.42,-741.13"/>
<polygon fill="midnightblue" stroke="midnightblue" points="753.19,-744.41 763.76,-745.15 755.96,-737.98 753.19,-744.41"/>
</g>
<!-- Node39 -->
<g id="node21" class="node">
<title>Node39</title>
<g id="a_node21"><a xlink:href="classv8_1_1internal_1_1Assembler.html#af0d58c82b1ce4a5c4db4fe8f151c56aa" target="_top" xlink:title=" ">
<polygon fill="white" stroke="black" points="760.5,-696.19 760.5,-726.19 890.5,-726.19 890.5,-696.19 760.5,-696.19"/>
<text text-anchor="start" x="768.5" y="-714.19" font-family="Helvetica,sans-Serif" font-size="10.00">v8::internal::Assembler</text>
<text text-anchor="middle" x="825.5" y="-703.19" font-family="Helvetica,sans-Serif" font-size="10.00">::vldr</text>
</a>
</g>
</g>
<!-- Node5&#45;&gt;Node39 -->
<g id="edge26" class="edge">
<title>Node5&#45;&gt;Node39</title>
<path fill="none" stroke="midnightblue" d="M669.52,-652.21C690.05,-662.84 718.78,-676.98 745,-687.19 750.12,-689.19 755.48,-691.12 760.89,-692.97"/>
<polygon fill="midnightblue" stroke="midnightblue" points="760.06,-696.38 770.65,-696.19 762.25,-689.73 760.06,-696.38"/>
</g>
<!-- Node11 -->
<g id="node8" class="node">
<title>Node11</title>
<g id="a_node8"><a xlink:href="namespacev8_1_1internal.html#aa6b3743bd5d773c552654f2a6c3efa4a" target="_top" xlink:title=" ">
<polygon fill="white" stroke="black" points="954,-270.69 954,-289.69 1073,-289.69 1073,-270.69 954,-270.69"/>
<text text-anchor="middle" x="1013.5" y="-277.69" font-family="Helvetica,sans-Serif" font-size="10.00">v8::internal::DCHECK</text>
</a>
</g>
</g>
<!-- Node10&#45;&gt;Node11 -->
<g id="edge7" class="edge">
<title>Node10&#45;&gt;Node11</title>
<path fill="none" stroke="midnightblue" d="M879.26,-415.86C888.59,-412.6 897.89,-408.45 906,-403.19 948.85,-375.41 984.3,-325.52 1001.42,-298.61"/>
<polygon fill="midnightblue" stroke="midnightblue" points="1004.58,-300.16 1006.88,-289.81 998.63,-296.46 1004.58,-300.16"/>
</g>
<!-- Node17&#45;&gt;Node11 -->
<g id="edge10" class="edge">
<title>Node17&#45;&gt;Node11</title>
<path fill="none" stroke="midnightblue" d="M880.3,-245.37C907.48,-252.53 940.14,-261.13 966.19,-267.99"/>
<polygon fill="midnightblue" stroke="midnightblue" points="965.63,-271.46 976.19,-270.63 967.41,-264.69 965.63,-271.46"/>
</g>
<!-- Node28&#45;&gt;Node11 -->
<g id="edge12" class="edge">
<title>Node28&#45;&gt;Node11</title>
<path fill="none" stroke="midnightblue" d="M893.22,-549.22C897.83,-546.67 902.16,-543.68 906,-540.19 943.74,-505.9 990.88,-354.17 1006.89,-299.73"/>
<polygon fill="midnightblue" stroke="midnightblue" points="1010.3,-300.51 1009.74,-289.93 1003.58,-298.55 1010.3,-300.51"/>
</g>
<!-- Node29 -->
<g id="node12" class="node">
<title>Node29</title>
<g id="a_node12"><a xlink:href="classv8_1_1internal_1_1wasm_1_1LiftoffRegister.html#aa603a39506dc9306ed447cdb910ad967" target="_top" xlink:title=" ">
<polygon fill="white" stroke="black" points="1121,-188.69 1121,-229.69 1228,-229.69 1228,-188.69 1121,-188.69"/>
<text text-anchor="start" x="1129" y="-217.69" font-family="Helvetica,sans-Serif" font-size="10.00">v8::internal::wasm</text>
<text text-anchor="start" x="1129" y="-206.69" font-family="Helvetica,sans-Serif" font-size="10.00">::LiftoffRegister::is</text>
<text text-anchor="middle" x="1174.5" y="-195.69" font-family="Helvetica,sans-Serif" font-size="10.00">_gp_pair</text>
</a>
</g>
</g>
<!-- Node28&#45;&gt;Node29 -->
<g id="edge13" class="edge">
<title>Node28&#45;&gt;Node29</title>
<path fill="none" stroke="midnightblue" d="M884.72,-549.16C892.04,-546.53 899.3,-543.55 906,-540.19 994.38,-495.93 1023.08,-485.24 1085,-408.19 1126.81,-356.16 1153.04,-281.26 1165.3,-239.77"/>
<polygon fill="midnightblue" stroke="midnightblue" points="1168.72,-240.55 1168.11,-229.98 1161.99,-238.62 1168.72,-240.55"/>
</g>
<!-- Node32&#45;&gt;Node11 -->
<g id="edge17" class="edge">
<title>Node32&#45;&gt;Node11</title>
<path fill="none" stroke="midnightblue" d="M890.25,-280.19C907.48,-280.19 926.2,-280.19 943.7,-280.19"/>
<polygon fill="midnightblue" stroke="midnightblue" points="943.83,-283.69 953.83,-280.19 943.83,-276.69 943.83,-283.69"/>
</g>
<!-- Node34&#45;&gt;Node11 -->
<g id="edge19" class="edge">
<title>Node34&#45;&gt;Node11</title>
<path fill="none" stroke="midnightblue" d="M891.3,-500.41C896.63,-497.58 901.63,-494.21 906,-490.19 937.1,-461.59 923.39,-440.13 942,-402.19 960.66,-364.17 986.33,-321.77 1000.99,-298.31"/>
<polygon fill="midnightblue" stroke="midnightblue" points="1004.01,-300.08 1006.37,-289.75 998.09,-296.35 1004.01,-300.08"/>
</g>
<!-- Node34&#45;&gt;Node29 -->
<g id="edge20" class="edge">
<title>Node34&#45;&gt;Node29</title>
<path fill="none" stroke="midnightblue" d="M886.16,-500.11C893.09,-497.3 899.86,-494.02 906,-490.19 1016.96,-421.04 1113.45,-295.19 1153.61,-238.39"/>
<polygon fill="midnightblue" stroke="midnightblue" points="1156.7,-240.09 1159.57,-229.89 1150.97,-236.07 1156.7,-240.09"/>
</g>
<!-- Node35&#45;&gt;Node11 -->
<g id="edge22" class="edge">
<title>Node35&#45;&gt;Node11</title>
<path fill="none" stroke="midnightblue" d="M894.36,-647.19C898.6,-644.64 902.54,-641.67 906,-638.19 1002.74,-541.06 1012.33,-360.21 1012.74,-300.16"/>
<polygon fill="midnightblue" stroke="midnightblue" points="1016.24,-299.81 1012.72,-289.81 1009.24,-299.82 1016.24,-299.81"/>
</g>
<!-- Node40&#45;&gt;Node30 -->
<g id="edge30" class="edge">
<title>Node40&#45;&gt;Node30</title>
<path fill="none" stroke="midnightblue" d="M514.98,-904.58C565.36,-906.58 642.79,-911.43 709,-923.19 725.35,-926.1 728.92,-929.04 745,-933.19 754.08,-935.54 763.77,-937.94 773.15,-940.21"/>
<polygon fill="midnightblue" stroke="midnightblue" points="772.63,-943.68 783.17,-942.62 774.26,-936.88 772.63,-943.68"/>
</g>
<!-- Node41 -->
<g id="node23" class="node">
<title>Node41</title>
<g id="a_node23"><a xlink:href="namespacev8_1_1internal_1_1wasm_1_1liftoff.html#a494f106511f1c015b2f49e99fccea835" target="_top" xlink:title=" ">
<polygon fill="white" stroke="black" points="572,-981.19 572,-1011.19 709,-1011.19 709,-981.19 572,-981.19"/>
<text text-anchor="start" x="580" y="-999.19" font-family="Helvetica,sans-Serif" font-size="10.00">v8::internal::wasm</text>
<text text-anchor="middle" x="640.5" y="-988.19" font-family="Helvetica,sans-Serif" font-size="10.00">::liftoff::GetHalfStackSlot</text>
</a>
</g>
</g>
<!-- Node40&#45;&gt;Node41 -->
<g id="edge28" class="edge">
<title>Node40&#45;&gt;Node41</title>
<path fill="none" stroke="midnightblue" d="M490.52,-923.75C512.24,-938.52 543.08,-958.23 572,-972.19 575.72,-973.99 579.6,-975.72 583.56,-977.38"/>
<polygon fill="midnightblue" stroke="midnightblue" points="582.26,-980.63 592.84,-981.1 584.86,-974.13 582.26,-980.63"/>
</g>
<!-- Node41&#45;&gt;Node4 -->
<g id="edge29" class="edge">
<title>Node41&#45;&gt;Node4</title>
<path fill="none" stroke="midnightblue" d="M709.12,-996.19C724.1,-996.19 739.99,-996.19 755.03,-996.19"/>
<polygon fill="midnightblue" stroke="midnightblue" points="755.29,-999.69 765.29,-996.19 755.29,-992.69 755.29,-999.69"/>
</g>
<!-- Node42&#45;&gt;Node11 -->
<g id="edge32" class="edge">
<title>Node42&#45;&gt;Node11</title>
<path fill="none" stroke="midnightblue" d="M314.27,-222.15C418.29,-187.16 695.71,-109.15 906,-189.19 945.53,-204.24 980.5,-240.84 998.87,-262.76"/>
<polygon fill="midnightblue" stroke="midnightblue" points="996.24,-265.09 1005.27,-270.64 1001.67,-260.67 996.24,-265.09"/>
</g>
<!-- Node43 -->
<g id="node25" class="node">
<title>Node43</title>
<g id="a_node25"><a xlink:href="classv8_1_1internal_1_1wasm_1_1LiftoffRegister.html#afa29ee36e13d42c9eb6dece0e28016e3" target="_top" xlink:title=" ">
<polygon fill="white" stroke="black" points="578,-194.69 578,-235.69 703,-235.69 703,-194.69 578,-194.69"/>
<text text-anchor="start" x="586" y="-223.69" font-family="Helvetica,sans-Serif" font-size="10.00">v8::internal::wasm</text>
<text text-anchor="start" x="586" y="-212.69" font-family="Helvetica,sans-Serif" font-size="10.00">::LiftoffRegister::Liftoff</text>
<text text-anchor="middle" x="640.5" y="-201.69" font-family="Helvetica,sans-Serif" font-size="10.00">Register</text>
</a>
</g>
</g>
<!-- Node42&#45;&gt;Node43 -->
<g id="edge33" class="edge">
<title>Node42&#45;&gt;Node43</title>
<path fill="none" stroke="midnightblue" d="M342.83,-232.98C407.43,-229.1 502.74,-223.39 567.78,-219.49"/>
<polygon fill="midnightblue" stroke="midnightblue" points="568.18,-222.97 577.95,-218.88 567.76,-215.99 568.18,-222.97"/>
</g>
<!-- Node45 -->
<g id="node27" class="node">
<title>Node45</title>
<g id="a_node27"><a xlink:href="classv8_1_1internal_1_1wasm_1_1LiftoffRegister.html#ad8285b7b784f1773fe520c4c3a050996" target="_top" xlink:title=" ">
<polygon fill="white" stroke="black" points="403.5,-244.19 403.5,-274.19 517.5,-274.19 517.5,-244.19 403.5,-244.19"/>
<text text-anchor="start" x="411.5" y="-262.19" font-family="Helvetica,sans-Serif" font-size="10.00">v8::internal::wasm</text>
<text text-anchor="middle" x="460.5" y="-251.19" font-family="Helvetica,sans-Serif" font-size="10.00">::LiftoffRegister::low</text>
</a>
</g>
</g>
<!-- Node42&#45;&gt;Node45 -->
<g id="edge37" class="edge">
<title>Node42&#45;&gt;Node45</title>
<path fill="none" stroke="midnightblue" d="M342.66,-245.45C359.23,-247.4 376.84,-249.47 393.22,-251.39"/>
<polygon fill="midnightblue" stroke="midnightblue" points="392.91,-254.88 403.25,-252.57 393.72,-247.93 392.91,-254.88"/>
</g>
<!-- Node43&#45;&gt;Node11 -->
<g id="edge34" class="edge">
<title>Node43&#45;&gt;Node11</title>
<path fill="none" stroke="midnightblue" d="M703.19,-201.74C757.81,-192.47 839.03,-185.21 906,-206.19 941.72,-217.38 975.96,-245.25 995.58,-263.41"/>
<polygon fill="midnightblue" stroke="midnightblue" points="993.4,-266.16 1003.05,-270.52 998.22,-261.09 993.4,-266.16"/>
</g>
<!-- Node43&#45;&gt;Node17 -->
<g id="edge35" class="edge">
<title>Node43&#45;&gt;Node17</title>
<path fill="none" stroke="midnightblue" d="M703.2,-220.59C721.67,-222.2 741.97,-223.98 760.58,-225.6"/>
<polygon fill="midnightblue" stroke="midnightblue" points="760.46,-229.11 770.72,-226.49 761.07,-222.13 760.46,-229.11"/>
</g>
<!-- Node44 -->
<g id="node26" class="node">
<title>Node44</title>
<g id="a_node26"><a xlink:href="classv8_1_1internal_1_1RegListBase.html#a3856ba5b1ccfe7deabfc70a4ce9ed6be" target="_top" xlink:title=" ">
<polygon fill="white" stroke="black" points="745,-41.69 745,-60.69 906,-60.69 906,-41.69 745,-41.69"/>
<text text-anchor="middle" x="825.5" y="-48.69" font-family="Helvetica,sans-Serif" font-size="10.00">v8::internal::RegListBase::has</text>
</a>
</g>
</g>
<!-- Node43&#45;&gt;Node44 -->
<g id="edge36" class="edge">
<title>Node43&#45;&gt;Node44</title>
<path fill="none" stroke="midnightblue" d="M650.38,-194.52C665.16,-162.65 697.93,-101.9 745,-70.19 748.06,-68.13 751.33,-66.29 754.72,-64.65"/>
<polygon fill="midnightblue" stroke="midnightblue" points="756.09,-67.87 763.94,-60.75 753.36,-61.42 756.09,-67.87"/>
</g>
<!-- Node45&#45;&gt;Node29 -->
<g id="edge38" class="edge">
<title>Node45&#45;&gt;Node29</title>
<path fill="none" stroke="midnightblue" d="M473.57,-244.09C509.33,-200.7 620.06,-76.05 745,-32.19 888.72,18.26 960.28,12.24 1085,-75.19 1122.08,-101.19 1147.73,-148.14 1161.53,-178.99"/>
<polygon fill="midnightblue" stroke="midnightblue" points="1158.42,-180.6 1165.6,-188.39 1164.84,-177.82 1158.42,-180.6"/>
</g>
<!-- Node45&#45;&gt;Node32 -->
<g id="edge40" class="edge">
<title>Node45&#45;&gt;Node32</title>
<path fill="none" stroke="midnightblue" d="M517.82,-262.45C580.33,-266.07 681.46,-271.92 750.36,-275.9"/>
<polygon fill="midnightblue" stroke="midnightblue" points="750.52,-279.42 760.71,-276.5 750.93,-272.43 750.52,-279.42"/>
</g>
<!-- Node45&#45;&gt;Node34 -->
<g id="edge41" class="edge">
<title>Node45&#45;&gt;Node34</title>
<path fill="none" stroke="midnightblue" d="M465.37,-274.42C475.74,-311.88 507.77,-408.99 572,-457.19 623.2,-495.62 695.52,-509.24 749.64,-513.77"/>
<polygon fill="midnightblue" stroke="midnightblue" points="749.64,-517.28 759.87,-514.53 750.16,-510.3 749.64,-517.28"/>
</g>
<!-- Node45&#45;&gt;Node43 -->
<g id="edge39" class="edge">
<title>Node45&#45;&gt;Node43</title>
<path fill="none" stroke="midnightblue" d="M517.82,-245.27C533.83,-241.31 551.47,-236.95 568.24,-232.81"/>
<polygon fill="midnightblue" stroke="midnightblue" points="569.13,-236.19 577.99,-230.4 567.45,-229.4 569.13,-236.19"/>
</g>
<!-- Node46&#45;&gt;Node10 -->
<g id="edge43" class="edge">
<title>Node46&#45;&gt;Node10</title>
<path fill="none" stroke="midnightblue" d="M694.92,-427.19C715.87,-427.19 740.06,-427.19 761.82,-427.19"/>
<polygon fill="midnightblue" stroke="midnightblue" points="761.96,-430.69 771.96,-427.19 761.96,-423.69 761.96,-430.69"/>
</g>
<!-- Node46&#45;&gt;Node14 -->
<g id="edge44" class="edge">
<title>Node46&#45;&gt;Node14</title>
<path fill="none" stroke="midnightblue" d="M649.16,-447.95C662.94,-482.45 695.23,-551.53 745,-589.19 746.82,-590.57 748.72,-591.87 750.69,-593.1"/>
<polygon fill="midnightblue" stroke="midnightblue" points="749.19,-596.27 759.64,-598.01 752.55,-590.13 749.19,-596.27"/>
</g>
<!-- Node46&#45;&gt;Node17 -->
<g id="edge50" class="edge">
<title>Node46&#45;&gt;Node17</title>
<path fill="none" stroke="midnightblue" d="M648.27,-406.61C661.21,-370.51 692.87,-295.74 745,-255.19 750,-251.3 755.63,-248.04 761.53,-245.3"/>
<polygon fill="midnightblue" stroke="midnightblue" points="763.04,-248.46 770.95,-241.42 760.37,-241.99 763.04,-248.46"/>
</g>
<!-- Node46&#45;&gt;Node28 -->
<g id="edge51" class="edge">
<title>Node46&#45;&gt;Node28</title>
<path fill="none" stroke="midnightblue" d="M655.1,-447.84C672.86,-473.2 706.26,-515.84 745,-540.19 747.6,-541.83 750.32,-543.36 753.12,-544.79"/>
<polygon fill="midnightblue" stroke="midnightblue" points="751.74,-548.01 762.29,-549.02 754.68,-541.65 751.74,-548.01"/>
</g>
<!-- Node46&#45;&gt;Node34 -->
<g id="edge52" class="edge">
<title>Node46&#45;&gt;Node34</title>
<path fill="none" stroke="midnightblue" d="M671.23,-447.95C691.36,-461.34 718.95,-478.38 745,-490.19 750.02,-492.47 755.31,-494.62 760.68,-496.64"/>
<polygon fill="midnightblue" stroke="midnightblue" points="759.79,-500.04 770.38,-500.12 762.15,-493.45 759.79,-500.04"/>
</g>
<!-- Node46&#45;&gt;Node37 -->
<g id="edge54" class="edge">
<title>Node46&#45;&gt;Node37</title>
<path fill="none" stroke="midnightblue" d="M694.68,-440.06C710.84,-443.97 728.64,-448.26 745,-452.19 754.52,-454.48 764.69,-456.92 774.46,-459.25"/>
<polygon fill="midnightblue" stroke="midnightblue" points="773.92,-462.72 784.46,-461.64 775.55,-455.91 773.92,-462.72"/>
</g>
<!-- Node47 -->
<g id="node29" class="node">
<title>Node47</title>
<g id="a_node29"><a xlink:href="classv8_1_1internal_1_1wasm_1_1LiftoffAssembler.html#ad9933c8bf098545a7bce9c2cd5000733" target="_top" xlink:title=" ">
<polygon fill="white" stroke="black" points="770,-79.69 770,-120.69 881,-120.69 881,-79.69 770,-79.69"/>
<text text-anchor="start" x="778" y="-108.69" font-family="Helvetica,sans-Serif" font-size="10.00">v8::internal::wasm</text>
<text text-anchor="start" x="778" y="-97.69" font-family="Helvetica,sans-Serif" font-size="10.00">::LiftoffAssembler::</text>
<text text-anchor="middle" x="825.5" y="-86.69" font-family="Helvetica,sans-Serif" font-size="10.00">GetUnusedRegister</text>
</a>
</g>
</g>
<!-- Node46&#45;&gt;Node47 -->
<g id="edge45" class="edge">
<title>Node46&#45;&gt;Node47</title>
<path fill="none" stroke="midnightblue" d="M649.45,-406.67C665.26,-366.77 702.8,-276.48 745,-206.19 761.62,-178.51 783.92,-149.32 800.67,-128.59"/>
<polygon fill="midnightblue" stroke="midnightblue" points="803.41,-130.77 807.02,-120.81 797.98,-126.34 803.41,-130.77"/>
</g>
<!-- Node56 -->
<g id="node32" class="node">
<title>Node56</title>
<g id="a_node32"><a xlink:href="classv8_1_1internal_1_1MacroAssembler.html#a3f2c5ff0e35897142fdc1515f32dafdd" target="_top" xlink:title=" ">
<polygon fill="white" stroke="black" points="745.5,-314.19 745.5,-344.19 905.5,-344.19 905.5,-314.19 745.5,-314.19"/>
<text text-anchor="start" x="753.5" y="-332.19" font-family="Helvetica,sans-Serif" font-size="10.00">v8::internal::MacroAssembler</text>
<text text-anchor="middle" x="825.5" y="-321.19" font-family="Helvetica,sans-Serif" font-size="10.00">::Move</text>
</a>
</g>
</g>
<!-- Node46&#45;&gt;Node56 -->
<g id="edge53" class="edge">
<title>Node46&#45;&gt;Node56</title>
<path fill="none" stroke="midnightblue" d="M666.06,-406.56C686.2,-390.47 716.03,-368.53 745,-354.19 749.58,-351.92 754.42,-349.81 759.34,-347.84"/>
<polygon fill="midnightblue" stroke="midnightblue" points="760.77,-351.04 768.89,-344.25 758.3,-344.49 760.77,-351.04"/>
</g>
<!-- Node57 -->
<g id="node33" class="node">
<title>Node57</title>
<g id="a_node33"><a xlink:href="classv8_1_1internal_1_1Assembler.html#a50ec71284d5ea42f6548a79bfd9fe9b6" target="_top" xlink:title=" ">
<polygon fill="white" stroke="black" points="760.5,-363.19 760.5,-393.19 890.5,-393.19 890.5,-363.19 760.5,-363.19"/>
<text text-anchor="start" x="768.5" y="-381.19" font-family="Helvetica,sans-Serif" font-size="10.00">v8::internal::Assembler</text>
<text text-anchor="middle" x="825.5" y="-370.19" font-family="Helvetica,sans-Serif" font-size="10.00">::vmov</text>
</a>
</g>
</g>
<!-- Node46&#45;&gt;Node57 -->
<g id="edge55" class="edge">
<title>Node46&#45;&gt;Node57</title>
<path fill="none" stroke="midnightblue" d="M694.92,-412.89C714.87,-407.55 737.75,-401.42 758.68,-395.82"/>
<polygon fill="midnightblue" stroke="midnightblue" points="759.71,-399.16 768.46,-393.2 757.9,-392.4 759.71,-399.16"/>
</g>
<!-- Node47&#45;&gt;Node11 -->
<g id="edge46" class="edge">
<title>Node47&#45;&gt;Node11</title>
<path fill="none" stroke="midnightblue" d="M881.34,-119.68C890.05,-124.06 898.62,-129.21 906,-135.19 927.28,-152.43 925.84,-163.09 942,-185.19 961.78,-212.25 984.98,-243.4 999.21,-262.45"/>
<polygon fill="midnightblue" stroke="midnightblue" points="996.46,-264.6 1005.25,-270.52 1002.06,-260.41 996.46,-264.6"/>
</g>
<!-- Node48 -->
<g id="node30" class="node">
<title>Node48</title>
<g id="a_node30"><a xlink:href="structv8_1_1internal_1_1wasm_1_1LiftoffAssembler_1_1CacheState.html#af6cc512b51eaba3c8478715925872851" target="_top" xlink:title=" ">
<polygon fill="white" stroke="red" points="958,-134.69 958,-175.69 1069,-175.69 1069,-134.69 958,-134.69"/>
<text text-anchor="start" x="966" y="-163.69" font-family="Helvetica,sans-Serif" font-size="10.00">v8::internal::wasm</text>
<text text-anchor="start" x="966" y="-152.69" font-family="Helvetica,sans-Serif" font-size="10.00">::LiftoffAssembler::</text>
<text text-anchor="middle" x="1013.5" y="-141.69" font-family="Helvetica,sans-Serif" font-size="10.00">CacheState::is_free</text>
</a>
</g>
</g>
<!-- Node47&#45;&gt;Node48 -->
<g id="edge47" class="edge">
<title>Node47&#45;&gt;Node48</title>
<path fill="none" stroke="midnightblue" d="M881.05,-116.32C902.06,-122.53 926.24,-129.69 948.1,-136.15"/>
<polygon fill="midnightblue" stroke="midnightblue" points="947.37,-139.58 957.95,-139.06 949.35,-132.87 947.37,-139.58"/>
</g>
<!-- Node55 -->
<g id="node31" class="node">
<title>Node55</title>
<g id="a_node31"><a xlink:href="classv8_1_1internal_1_1wasm_1_1LiftoffRegister.html#a9bd0779866c41b7b3f7ffe73f3a466a0" target="_top" xlink:title=" ">
<polygon fill="white" stroke="red" points="942,-85.19 942,-115.19 1085,-115.19 1085,-85.19 942,-85.19"/>
<text text-anchor="start" x="950" y="-103.19" font-family="Helvetica,sans-Serif" font-size="10.00">v8::internal::wasm</text>
<text text-anchor="middle" x="1013.5" y="-92.19" font-family="Helvetica,sans-Serif" font-size="10.00">::LiftoffRegister::reg_class</text>
</a>
</g>
</g>
<!-- Node47&#45;&gt;Node55 -->
<g id="edge48" class="edge">
<title>Node47&#45;&gt;Node55</title>
<path fill="none" stroke="midnightblue" d="M881.05,-100.19C896.76,-100.19 914.25,-100.19 931.21,-100.19"/>
<polygon fill="midnightblue" stroke="midnightblue" points="931.68,-103.69 941.68,-100.19 931.68,-96.69 931.68,-103.69"/>
</g>
<!-- Node55&#45;&gt;Node29 -->
<g id="edge49" class="edge">
<title>Node55&#45;&gt;Node29</title>
<path fill="none" stroke="midnightblue" d="M1065.37,-115.32C1072.18,-118.18 1078.91,-121.46 1085,-125.19 1109.43,-140.17 1132.75,-162.78 1149.32,-180.77"/>
<polygon fill="midnightblue" stroke="midnightblue" points="1147.14,-183.58 1156.43,-188.66 1152.34,-178.89 1147.14,-183.58"/>
</g>
<!-- Node54 -->
<g id="node35" class="node">
<title>Node54</title>
<g id="a_node35"><a xlink:href="classv8_1_1internal_1_1wasm_1_1LiftoffRegister.html#af25d5f2637f18445b7c98a52f4f54eec" target="_top" xlink:title=" ">
<polygon fill="white" stroke="black" points="385,-90.19 385,-120.19 536,-120.19 536,-90.19 385,-90.19"/>
<text text-anchor="start" x="393" y="-108.19" font-family="Helvetica,sans-Serif" font-size="10.00">v8::internal::wasm</text>
<text text-anchor="middle" x="460.5" y="-97.19" font-family="Helvetica,sans-Serif" font-size="10.00">::LiftoffRegister::liftoff_code</text>
</a>
</g>
</g>
<!-- Node58&#45;&gt;Node54 -->
<g id="edge57" class="edge">
<title>Node58&#45;&gt;Node54</title>
<path fill="none" stroke="midnightblue" d="M349.1,-118.77C357.58,-117.73 366.26,-116.66 374.83,-115.61"/>
<polygon fill="midnightblue" stroke="midnightblue" points="375.33,-119.07 384.83,-114.38 374.48,-112.12 375.33,-119.07"/>
</g>
</g>
</svg>
        <g id="navigator" transform="translate(0 0)" fill="#404254">
                <rect fill="#f2f5e9" fill-opacity="0.5" stroke="#606060" stroke-width=".5" x="0" y="0" width="60" height="60"/>
                <use id="zoomplus" xlink:href="#zoomPlus" x="17" y="9" onmousedown="handleZoom(evt,'in')"/>
                <use id="zoomminus" xlink:href="#zoomMin" x="42" y="9" onmousedown="handleZoom(evt,'out')"/>
                <use id="reset" xlink:href="#resetDef" x="30" y="36" onmousedown="handleReset()"/>
                <g id="arrowUp" xlink:href="#dirArrow" transform="translate(30 24)" onmousedown="handlePan(0,-1)">
                  <use xlink:href="#rim" fill="#404040">
                        <set attributeName="fill" to="#808080" begin="arrowUp.mouseover" end="arrowUp.mouseout"/>
                  </use>
                  <path fill="none" stroke="white" stroke-width="1.5" d="M0,-3.0v7 M-2.5,-0.5L0,-3.0L2.5,-0.5"/>
                </g>
                <g id="arrowRight" xlink:href="#dirArrow" transform="rotate(90) translate(36 -43)" onmousedown="handlePan(1,0)">
                  <use xlink:href="#rim" fill="#404040">
                        <set attributeName="fill" to="#808080" begin="arrowRight.mouseover" end="arrowRight.mouseout"/>
                  </use>
                  <path fill="none" stroke="white" stroke-width="1.5" d="M0,-3.0v7 M-2.5,-0.5L0,-3.0L2.5,-0.5"/>
                </g>
                <g id="arrowDown" xlink:href="#dirArrow" transform="rotate(180) translate(-30 -48)" onmousedown="handlePan(0,1)">
                  <use xlink:href="#rim" fill="#404040">
                        <set attributeName="fill" to="#808080" begin="arrowDown.mouseover" end="arrowDown.mouseout"/>
                  </use>
                  <path fill="none" stroke="white" stroke-width="1.5" d="M0,-3.0v7 M-2.5,-0.5L0,-3.0L2.5,-0.5"/>
                </g>
                <g id="arrowLeft" xlink:href="#dirArrow" transform="rotate(270) translate(-36 17)" onmousedown="handlePan(-1,0)">
                  <use xlink:href="#rim" fill="#404040">
                        <set attributeName="fill" to="#808080" begin="arrowLeft.mouseover" end="arrowLeft.mouseout"/>
                  </use>
                  <path fill="none" stroke="white" stroke-width="1.5" d="M0,-3.0v7 M-2.5,-0.5L0,-3.0L2.5,-0.5"/>
                </g>
        </g>
        <svg viewBox="0 0 15 15" width="100%" height="30px" preserveAspectRatio="xMaxYMin meet">
         <g id="arrow_out" transform="scale(0.3 0.3)">
          <a xlink:href="classv8_1_1internal_1_1wasm_1_1ParallelMove_a9e971f08459f9f666361dc051e088c82_cgraph_org.svg" target="_base">
           <rect id="button" ry="5" rx="5" y="6" x="6" height="38" width="38"
                fill="#f2f5e9" fill-opacity="0.5" stroke="#606060" stroke-width="1.0"/>
           <path id="arrow"
             d="M 11.500037,31.436501 C 11.940474,20.09759 22.043105,11.32322 32.158766,21.979434 L 37.068811,17.246167 C 37.068811,17.246167 37.088388,32 37.088388,32 L 22.160133,31.978069 C 22.160133,31.978069 26.997745,27.140456 26.997745,27.140456 C 18.528582,18.264221 13.291696,25.230495 11.500037,31.436501 z"
             style="fill:#404040;"/>
          </a>
         </g>
        </svg>
</svg>
