<?xml version="1.0" encoding="UTF-8" standalone="no"?>
<!DOCTYPE svg PUBLIC "-//W3C//DTD SVG 1.1//EN"
 "http://www.w3.org/Graphics/SVG/1.1/DTD/svg11.dtd">
<!-- Generated by graphviz version 2.43.0 (0)
 -->
<!-- Title: v8::internal::interpreter::InterpreterAssembler::LoadConstantPoolEntry Pages: 1 -->
<svg width="949pt" height="763pt"
 viewBox="0.00 0.00 949.00 762.50" xmlns="http://www.w3.org/2000/svg" xmlns:xlink="http://www.w3.org/1999/xlink">
<g id="graph0" class="graph" transform="scale(1 1) rotate(0) translate(4 758.5)">
<title>v8::internal::interpreter::InterpreterAssembler::LoadConstantPoolEntry</title>
<polygon fill="white" stroke="transparent" points="-4,4 -4,-758.5 945,-758.5 945,4 -4,4"/>
<!-- Node1 -->
<g id="node1" class="node">
<title>Node1</title>
<g id="a_node1"><a xlink:title=" ">
<polygon fill="#bfbfbf" stroke="black" points="0,-395 0,-436 136,-436 136,-395 0,-395"/>
<text text-anchor="start" x="8" y="-424" font-family="Helvetica,sans-Serif" font-size="10.00">v8::internal::interpreter</text>
<text text-anchor="start" x="8" y="-413" font-family="Helvetica,sans-Serif" font-size="10.00">::InterpreterAssembler</text>
<text text-anchor="middle" x="68" y="-402" font-family="Helvetica,sans-Serif" font-size="10.00">::LoadConstantPoolEntry</text>
</a>
</g>
</g>
<!-- Node2 -->
<g id="node2" class="node">
<title>Node2</title>
<g id="a_node2"><a xlink:href="classv8_1_1internal_1_1interpreter_1_1InterpreterAssembler.html#aa76fc1bcf4f81f5d5e489552eb633d6b" target="_top" xlink:title=" ">
<polygon fill="white" stroke="black" points="178,-165 178,-206 342,-206 342,-165 178,-165"/>
<text text-anchor="start" x="186" y="-194" font-family="Helvetica,sans-Serif" font-size="10.00">v8::internal::interpreter</text>
<text text-anchor="start" x="186" y="-183" font-family="Helvetica,sans-Serif" font-size="10.00">::InterpreterAssembler</text>
<text text-anchor="middle" x="260" y="-172" font-family="Helvetica,sans-Serif" font-size="10.00">::BytecodeArrayTaggedPointer</text>
</a>
</g>
</g>
<!-- Node1&#45;&gt;Node2 -->
<g id="edge1" class="edge">
<title>Node1&#45;&gt;Node2</title>
<path fill="none" stroke="midnightblue" d="M86.2,-394.68C120.32,-353.37 196.64,-260.99 235.42,-214.05"/>
<polygon fill="midnightblue" stroke="midnightblue" points="238.31,-216.04 241.98,-206.1 232.91,-211.58 238.31,-216.04"/>
</g>
<!-- Node25 -->
<g id="node11" class="node">
<title>Node25</title>
<g id="a_node11"><a xlink:href="classv8_1_1internal_1_1CodeStubAssembler.html#af2b0bf5ffbbcb15e1d4f1bda486b0353" target="_top" xlink:title=" ">
<polygon fill="white" stroke="black" points="172,-400.5 172,-430.5 348,-430.5 348,-400.5 172,-400.5"/>
<text text-anchor="start" x="180" y="-418.5" font-family="Helvetica,sans-Serif" font-size="10.00">v8::internal::CodeStubAssembler</text>
<text text-anchor="middle" x="260" y="-407.5" font-family="Helvetica,sans-Serif" font-size="10.00">::LoadArrayElement</text>
</a>
</g>
</g>
<!-- Node1&#45;&gt;Node25 -->
<g id="edge10" class="edge">
<title>Node1&#45;&gt;Node25</title>
<path fill="none" stroke="midnightblue" d="M136.25,-415.5C144.54,-415.5 153.14,-415.5 161.76,-415.5"/>
<polygon fill="midnightblue" stroke="midnightblue" points="161.87,-419 171.87,-415.5 161.87,-412 161.87,-419"/>
</g>
<!-- Node49 -->
<g id="node28" class="node">
<title>Node49</title>
<g id="a_node28"><a xlink:href="classv8_1_1internal_1_1CodeStubAssembler.html#aa3ec2f45b6579e6f6c4ec42b8a9b5ecc" target="_top" xlink:title=" ">
<polygon fill="white" stroke="black" points="172,-547.5 172,-577.5 348,-577.5 348,-547.5 172,-547.5"/>
<text text-anchor="start" x="180" y="-565.5" font-family="Helvetica,sans-Serif" font-size="10.00">v8::internal::CodeStubAssembler</text>
<text text-anchor="middle" x="260" y="-554.5" font-family="Helvetica,sans-Serif" font-size="10.00">::LoadProtectedPointerField</text>
</a>
</g>
</g>
<!-- Node1&#45;&gt;Node49 -->
<g id="edge30" class="edge">
<title>Node1&#45;&gt;Node49</title>
<path fill="none" stroke="midnightblue" d="M95.82,-436.25C131.71,-464.02 195.04,-513.02 231.35,-541.11"/>
<polygon fill="midnightblue" stroke="midnightblue" points="229.48,-544.09 239.54,-547.44 233.77,-538.55 229.48,-544.09"/>
</g>
<!-- Node3 -->
<g id="node3" class="node">
<title>Node3</title>
<g id="a_node3"><a xlink:href="classv8_1_1internal_1_1interpreter_1_1Register.html#a02a63ca5160002774c4c8dc7904c69e5" target="_top" xlink:title=" ">
<polygon fill="white" stroke="black" points="404,-170.5 404,-200.5 549,-200.5 549,-170.5 404,-170.5"/>
<text text-anchor="start" x="412" y="-188.5" font-family="Helvetica,sans-Serif" font-size="10.00">v8::internal::interpreter</text>
<text text-anchor="middle" x="476.5" y="-177.5" font-family="Helvetica,sans-Serif" font-size="10.00">::Register::bytecode_array</text>
</a>
</g>
</g>
<!-- Node2&#45;&gt;Node3 -->
<g id="edge2" class="edge">
<title>Node2&#45;&gt;Node3</title>
<path fill="none" stroke="midnightblue" d="M342.09,-185.5C358.89,-185.5 376.61,-185.5 393.44,-185.5"/>
<polygon fill="midnightblue" stroke="midnightblue" points="393.79,-189 403.79,-185.5 393.79,-182 393.79,-189"/>
</g>
<!-- Node14 -->
<g id="node6" class="node">
<title>Node14</title>
<g id="a_node6"><a xlink:href="classv8_1_1internal_1_1interpreter_1_1InterpreterAssembler.html#adceb1c6d7c7f30cdb56a08bf1e14a68f" target="_top" xlink:title=" ">
<polygon fill="white" stroke="black" points="411.5,-99 411.5,-140 541.5,-140 541.5,-99 411.5,-99"/>
<text text-anchor="start" x="419.5" y="-128" font-family="Helvetica,sans-Serif" font-size="10.00">v8::internal::interpreter</text>
<text text-anchor="start" x="419.5" y="-117" font-family="Helvetica,sans-Serif" font-size="10.00">::InterpreterAssembler</text>
<text text-anchor="middle" x="476.5" y="-106" font-family="Helvetica,sans-Serif" font-size="10.00">::LoadRegister</text>
</a>
</g>
</g>
<!-- Node2&#45;&gt;Node14 -->
<g id="edge5" class="edge">
<title>Node2&#45;&gt;Node14</title>
<path fill="none" stroke="midnightblue" d="M327.69,-164.98C351.15,-157.76 377.64,-149.61 401.65,-142.22"/>
<polygon fill="midnightblue" stroke="midnightblue" points="402.89,-145.5 411.42,-139.22 400.83,-138.81 402.89,-145.5"/>
</g>
<!-- Node4 -->
<g id="node4" class="node">
<title>Node4</title>
<g id="a_node4"><a xlink:href="namespacev8_1_1internal_1_1ETWJITInterface.html#a6782da00e5166055555c65db3a9ec7eb" target="_top" xlink:title=" ">
<polygon fill="white" stroke="red" points="618,-208.5 618,-238.5 773,-238.5 773,-208.5 618,-208.5"/>
<text text-anchor="start" x="626" y="-226.5" font-family="Helvetica,sans-Serif" font-size="10.00">v8::internal::ETWJITInterface</text>
<text text-anchor="middle" x="695.5" y="-215.5" font-family="Helvetica,sans-Serif" font-size="10.00">::Register</text>
</a>
</g>
</g>
<!-- Node3&#45;&gt;Node4 -->
<g id="edge3" class="edge">
<title>Node3&#45;&gt;Node4</title>
<path fill="none" stroke="midnightblue" d="M549.16,-198.05C567.87,-201.32 588.24,-204.89 607.65,-208.29"/>
<polygon fill="midnightblue" stroke="midnightblue" points="607.24,-211.77 617.7,-210.05 608.45,-204.88 607.24,-211.77"/>
</g>
<!-- Node5 -->
<g id="node5" class="node">
<title>Node5</title>
<g id="a_node5"><a xlink:href="namespacev8_1_1internal.html#aa6b3743bd5d773c552654f2a6c3efa4a" target="_top" xlink:title=" ">
<polygon fill="white" stroke="black" points="822,-236 822,-255 941,-255 941,-236 822,-236"/>
<text text-anchor="middle" x="881.5" y="-243" font-family="Helvetica,sans-Serif" font-size="10.00">v8::internal::DCHECK</text>
</a>
</g>
</g>
<!-- Node4&#45;&gt;Node5 -->
<g id="edge4" class="edge">
<title>Node4&#45;&gt;Node5</title>
<path fill="none" stroke="midnightblue" d="M773.2,-232.67C786.04,-234.21 799.29,-235.79 811.9,-237.3"/>
<polygon fill="midnightblue" stroke="midnightblue" points="811.52,-240.78 821.87,-238.49 812.36,-233.83 811.52,-240.78"/>
</g>
<!-- Node15 -->
<g id="node7" class="node">
<title>Node15</title>
<g id="a_node7"><a xlink:href="classv8_1_1internal_1_1interpreter_1_1InterpreterAssembler.html#a06817c2c4a830643ca6a65ec82e4e957" target="_top" xlink:title=" ">
<polygon fill="white" stroke="red" points="616,-99 616,-140 775,-140 775,-99 616,-99"/>
<text text-anchor="start" x="624" y="-128" font-family="Helvetica,sans-Serif" font-size="10.00">v8::internal::interpreter</text>
<text text-anchor="start" x="624" y="-117" font-family="Helvetica,sans-Serif" font-size="10.00">::InterpreterAssembler</text>
<text text-anchor="middle" x="695.5" y="-106" font-family="Helvetica,sans-Serif" font-size="10.00">::GetInterpretedFramePointer</text>
</a>
</g>
</g>
<!-- Node14&#45;&gt;Node15 -->
<g id="edge6" class="edge">
<title>Node14&#45;&gt;Node15</title>
<path fill="none" stroke="midnightblue" d="M541.73,-119.5C561.79,-119.5 584.3,-119.5 605.74,-119.5"/>
<polygon fill="midnightblue" stroke="midnightblue" points="605.84,-123 615.84,-119.5 605.84,-116 605.84,-123"/>
</g>
<!-- Node21 -->
<g id="node8" class="node">
<title>Node21</title>
<g id="a_node8"><a xlink:href="classv8_1_1internal_1_1compiler_1_1CodeAssembler.html#a24b1bfe286ec10b56edc3a8bca1f939f" target="_top" xlink:title=" ">
<polygon fill="white" stroke="red" points="608,-159.5 608,-189.5 783,-189.5 783,-159.5 608,-159.5"/>
<text text-anchor="start" x="616" y="-177.5" font-family="Helvetica,sans-Serif" font-size="10.00">v8::internal::compiler</text>
<text text-anchor="middle" x="695.5" y="-166.5" font-family="Helvetica,sans-Serif" font-size="10.00">::CodeAssembler::IntPtrConstant</text>
</a>
</g>
</g>
<!-- Node14&#45;&gt;Node21 -->
<g id="edge7" class="edge">
<title>Node14&#45;&gt;Node21</title>
<path fill="none" stroke="midnightblue" d="M541.73,-135.78C568.11,-142.46 598.7,-150.22 625.55,-157.02"/>
<polygon fill="midnightblue" stroke="midnightblue" points="624.71,-160.42 635.26,-159.49 626.43,-153.64 624.71,-160.42"/>
</g>
<!-- Node23 -->
<g id="node9" class="node">
<title>Node23</title>
<g id="a_node9"><a xlink:href="classv8_1_1internal_1_1compiler_1_1CodeAssembler.html#a50255ba534b8052d460e2792bb35749f" target="_top" xlink:title=" ">
<polygon fill="white" stroke="black" points="605.5,-49.5 605.5,-79.5 785.5,-79.5 785.5,-49.5 605.5,-49.5"/>
<text text-anchor="start" x="613.5" y="-67.5" font-family="Helvetica,sans-Serif" font-size="10.00">v8::internal::compiler</text>
<text text-anchor="middle" x="695.5" y="-56.5" font-family="Helvetica,sans-Serif" font-size="10.00">::CodeAssembler::LoadFullTagged</text>
</a>
</g>
</g>
<!-- Node14&#45;&gt;Node23 -->
<g id="edge8" class="edge">
<title>Node14&#45;&gt;Node23</title>
<path fill="none" stroke="midnightblue" d="M541.73,-103.22C568.11,-96.54 598.7,-88.78 625.55,-81.98"/>
<polygon fill="midnightblue" stroke="midnightblue" points="626.43,-85.36 635.26,-79.51 624.71,-78.58 626.43,-85.36"/>
</g>
<!-- Node24 -->
<g id="node10" class="node">
<title>Node24</title>
<g id="a_node10"><a xlink:href="classv8_1_1internal_1_1interpreter_1_1Register.html#a716d463cdfc9ad2030aa4d6846ad3a78" target="_top" xlink:title=" ">
<polygon fill="white" stroke="black" points="630.5,-0.5 630.5,-30.5 760.5,-30.5 760.5,-0.5 630.5,-0.5"/>
<text text-anchor="start" x="638.5" y="-18.5" font-family="Helvetica,sans-Serif" font-size="10.00">v8::internal::interpreter</text>
<text text-anchor="middle" x="695.5" y="-7.5" font-family="Helvetica,sans-Serif" font-size="10.00">::Register::ToOperand</text>
</a>
</g>
</g>
<!-- Node14&#45;&gt;Node24 -->
<g id="edge9" class="edge">
<title>Node14&#45;&gt;Node24</title>
<path fill="none" stroke="midnightblue" d="M505.01,-98.83C529.97,-80.93 568.35,-55.48 605,-39.5 609.98,-37.33 615.2,-35.31 620.51,-33.45"/>
<polygon fill="midnightblue" stroke="midnightblue" points="621.75,-36.73 630.14,-30.26 619.55,-30.08 621.75,-36.73"/>
</g>
<!-- Node25&#45;&gt;Node5 -->
<g id="edge11" class="edge">
<title>Node25&#45;&gt;Node5</title>
<path fill="none" stroke="midnightblue" d="M270.67,-400.49C289.03,-373.44 331.81,-317.06 384,-292.5 421.76,-274.73 684.2,-257.07 811.52,-249.43"/>
<polygon fill="midnightblue" stroke="midnightblue" points="811.79,-252.92 821.56,-248.83 811.37,-245.94 811.79,-252.92"/>
</g>
<!-- Node25&#45;&gt;Node21 -->
<g id="edge18" class="edge">
<title>Node25&#45;&gt;Node21</title>
<path fill="none" stroke="midnightblue" d="M268.06,-400.2C283.88,-367.7 325.42,-291.67 384,-253.5 454.81,-207.36 487.43,-231.64 569,-209.5 585.15,-205.12 588.92,-203.11 605,-198.5 612.2,-196.43 619.75,-194.33 627.27,-192.26"/>
<polygon fill="midnightblue" stroke="midnightblue" points="628.4,-195.58 637.12,-189.57 626.56,-188.83 628.4,-195.58"/>
</g>
<!-- Node26 -->
<g id="node12" class="node">
<title>Node26</title>
<g id="a_node12"><a xlink:href="classv8_1_1internal_1_1CodeStubAssembler.html#aa438d15138429fd2039acb60d977b9b0" target="_top" xlink:title=" ">
<polygon fill="white" stroke="black" points="388.5,-496.5 388.5,-526.5 564.5,-526.5 564.5,-496.5 388.5,-496.5"/>
<text text-anchor="start" x="396.5" y="-514.5" font-family="Helvetica,sans-Serif" font-size="10.00">v8::internal::CodeStubAssembler</text>
<text text-anchor="middle" x="476.5" y="-503.5" font-family="Helvetica,sans-Serif" font-size="10.00">::ElementOffsetFromIndex</text>
</a>
</g>
</g>
<!-- Node25&#45;&gt;Node26 -->
<g id="edge12" class="edge">
<title>Node25&#45;&gt;Node26</title>
<path fill="none" stroke="midnightblue" d="M287.88,-430.52C312.48,-443.97 350.11,-463.78 384,-478.5 395.61,-483.54 408.27,-488.46 420.36,-492.9"/>
<polygon fill="midnightblue" stroke="midnightblue" points="419.32,-496.24 429.91,-496.34 421.69,-489.66 419.32,-496.24"/>
</g>
<!-- Node38 -->
<g id="node18" class="node">
<title>Node38</title>
<g id="a_node18"><a xlink:href="src_2base_2macros_8h.html#ab7a19c1f785f31f2b190afc19875368a" target="_top" xlink:title=" ">
<polygon fill="white" stroke="black" points="445.5,-450 445.5,-469 507.5,-469 507.5,-450 445.5,-450"/>
<text text-anchor="middle" x="476.5" y="-457" font-family="Helvetica,sans-Serif" font-size="10.00">IsAligned</text>
</a>
</g>
</g>
<!-- Node25&#45;&gt;Node38 -->
<g id="edge19" class="edge">
<title>Node25&#45;&gt;Node38</title>
<path fill="none" stroke="midnightblue" d="M334.22,-430.52C368.05,-437.46 406.92,-445.43 435.32,-451.26"/>
<polygon fill="midnightblue" stroke="midnightblue" points="434.78,-454.72 445.28,-453.3 436.19,-447.86 434.78,-454.72"/>
</g>
<!-- Node39 -->
<g id="node19" class="node">
<title>Node39</title>
<g id="a_node19"><a xlink:href="classv8_1_1internal_1_1CodeStubAssembler.html#acbfae88a6aa7c6902d3f32a9f6e5df50" target="_top" xlink:title=" ">
<polygon fill="white" stroke="black" points="388.5,-553.5 388.5,-583.5 564.5,-583.5 564.5,-553.5 388.5,-553.5"/>
<text text-anchor="start" x="396.5" y="-571.5" font-family="Helvetica,sans-Serif" font-size="10.00">v8::internal::CodeStubAssembler</text>
<text text-anchor="middle" x="476.5" y="-560.5" font-family="Helvetica,sans-Serif" font-size="10.00">::IsOffsetInBounds</text>
</a>
</g>
</g>
<!-- Node25&#45;&gt;Node39 -->
<g id="edge20" class="edge">
<title>Node25&#45;&gt;Node39</title>
<path fill="none" stroke="midnightblue" d="M272.63,-430.68C292.73,-455.98 336.45,-506.9 384,-536.5 392.16,-541.58 401.24,-545.99 410.42,-549.77"/>
<polygon fill="midnightblue" stroke="midnightblue" points="409.4,-553.13 419.99,-553.49 411.93,-546.6 409.4,-553.13"/>
</g>
<!-- Node41 -->
<g id="node21" class="node">
<title>Node41</title>
<g id="a_node21"><a xlink:href="classv8_1_1internal_1_1CodeStubAssembler.html#a718be241bea4313cba581ff0c6c22439" target="_top" xlink:title=" ">
<polygon fill="white" stroke="black" points="388.5,-400.5 388.5,-430.5 564.5,-430.5 564.5,-400.5 388.5,-400.5"/>
<text text-anchor="start" x="396.5" y="-418.5" font-family="Helvetica,sans-Serif" font-size="10.00">v8::internal::CodeStubAssembler</text>
<text text-anchor="middle" x="476.5" y="-407.5" font-family="Helvetica,sans-Serif" font-size="10.00">::LoadArrayLength</text>
</a>
</g>
</g>
<!-- Node25&#45;&gt;Node41 -->
<g id="edge23" class="edge">
<title>Node25&#45;&gt;Node41</title>
<path fill="none" stroke="midnightblue" d="M348.25,-415.5C358.06,-415.5 368.1,-415.5 378.04,-415.5"/>
<polygon fill="midnightblue" stroke="midnightblue" points="378.33,-419 388.33,-415.5 378.33,-412 378.33,-419"/>
</g>
<!-- Node42 -->
<g id="node22" class="node">
<title>Node42</title>
<g id="a_node22"><a xlink:href="classv8_1_1internal_1_1compiler_1_1CodeAssembler.html#a4ed638e73c671a9b0e3188b710f22282" target="_top" xlink:title=" ">
<polygon fill="white" stroke="black" points="384,-351.5 384,-381.5 569,-381.5 569,-351.5 384,-351.5"/>
<text text-anchor="start" x="392" y="-369.5" font-family="Helvetica,sans-Serif" font-size="10.00">v8::internal::compiler</text>
<text text-anchor="middle" x="476.5" y="-358.5" font-family="Helvetica,sans-Serif" font-size="10.00">::CodeAssembler::LoadFromObject</text>
</a>
</g>
</g>
<!-- Node25&#45;&gt;Node42 -->
<g id="edge24" class="edge">
<title>Node25&#45;&gt;Node42</title>
<path fill="none" stroke="midnightblue" d="M326.81,-400.47C349.87,-395.2 375.95,-389.24 399.76,-383.8"/>
<polygon fill="midnightblue" stroke="midnightblue" points="400.84,-387.15 409.81,-381.51 399.28,-380.32 400.84,-387.15"/>
</g>
<!-- Node46 -->
<g id="node25" class="node">
<title>Node46</title>
<g id="a_node25"><a xlink:href="namespacev8_1_1internal_1_1wasm.html#a0ecad1c63b7a0ec23f13ab5fd64bdd68" target="_top" xlink:title=" ">
<polygon fill="white" stroke="black" points="423,-302.5 423,-332.5 530,-332.5 530,-302.5 423,-302.5"/>
<text text-anchor="start" x="431" y="-320.5" font-family="Helvetica,sans-Serif" font-size="10.00">v8::internal::wasm</text>
<text text-anchor="middle" x="476.5" y="-309.5" font-family="Helvetica,sans-Serif" font-size="10.00">::machine_type</text>
</a>
</g>
</g>
<!-- Node25&#45;&gt;Node46 -->
<g id="edge27" class="edge">
<title>Node25&#45;&gt;Node46</title>
<path fill="none" stroke="midnightblue" d="M281.78,-400.45C305.48,-383.92 345.88,-357.57 384,-341.5 393.19,-337.62 403.18,-334.24 413.06,-331.32"/>
<polygon fill="midnightblue" stroke="midnightblue" points="414.19,-334.64 422.87,-328.57 412.29,-327.9 414.19,-334.64"/>
</g>
<!-- Node47 -->
<g id="node26" class="node">
<title>Node47</title>
<g id="a_node26"><a xlink:href="classv8_1_1internal_1_1CodeStubAssembler.html#a14b5895aebf699b47ec9c1b70506ba40" target="_top" xlink:title=" ">
<polygon fill="white" stroke="black" points="388.5,-610.5 388.5,-640.5 564.5,-640.5 564.5,-610.5 388.5,-610.5"/>
<text text-anchor="start" x="396.5" y="-628.5" font-family="Helvetica,sans-Serif" font-size="10.00">v8::internal::CodeStubAssembler</text>
<text text-anchor="middle" x="476.5" y="-617.5" font-family="Helvetica,sans-Serif" font-size="10.00">::ParameterToIntPtr</text>
</a>
</g>
</g>
<!-- Node25&#45;&gt;Node47 -->
<g id="edge28" class="edge">
<title>Node25&#45;&gt;Node47</title>
<path fill="none" stroke="midnightblue" d="M271.89,-430.53C288.54,-453.58 321.22,-499.15 348,-538.5 364.44,-562.65 360.99,-575.5 384,-593.5 390.34,-598.46 397.5,-602.68 404.96,-606.27"/>
<polygon fill="midnightblue" stroke="midnightblue" points="403.96,-609.65 414.52,-610.48 406.78,-603.25 403.96,-609.65"/>
</g>
<!-- Node27 -->
<g id="node13" class="node">
<title>Node27</title>
<g id="a_node13"><a xlink:href="namespacev8_1_1internal.html#a7b8719ab75557f37baf05c5e0de3487d" target="_top" xlink:title=" ">
<polygon fill="white" stroke="black" points="622.5,-553.5 622.5,-583.5 768.5,-583.5 768.5,-553.5 622.5,-553.5"/>
<text text-anchor="start" x="630.5" y="-571.5" font-family="Helvetica,sans-Serif" font-size="10.00">v8::internal::ElementsKind</text>
<text text-anchor="middle" x="695.5" y="-560.5" font-family="Helvetica,sans-Serif" font-size="10.00">ToShiftSize</text>
</a>
</g>
</g>
<!-- Node26&#45;&gt;Node27 -->
<g id="edge13" class="edge">
<title>Node26&#45;&gt;Node27</title>
<path fill="none" stroke="midnightblue" d="M534.8,-526.55C563.23,-534.02 597.74,-543.08 627.4,-550.87"/>
<polygon fill="midnightblue" stroke="midnightblue" points="626.7,-554.31 637.26,-553.46 628.47,-547.54 626.7,-554.31"/>
</g>
<!-- Node28 -->
<g id="node14" class="node">
<title>Node28</title>
<g id="a_node14"><a xlink:href="namespacev8_1_1internal_1_1TorqueRuntimeMacroShims_1_1CodeStubAssembler.html#a660a476dedf770682c81b591e345aab6" target="_top" xlink:title=" ">
<polygon fill="white" stroke="black" points="605,-444 605,-485 786,-485 786,-444 605,-444"/>
<text text-anchor="start" x="613" y="-473" font-family="Helvetica,sans-Serif" font-size="10.00">v8::internal::TorqueRuntime</text>
<text text-anchor="start" x="613" y="-462" font-family="Helvetica,sans-Serif" font-size="10.00">MacroShims::CodeStubAssembler</text>
<text text-anchor="middle" x="695.5" y="-451" font-family="Helvetica,sans-Serif" font-size="10.00">::IntPtrAdd</text>
</a>
</g>
</g>
<!-- Node26&#45;&gt;Node28 -->
<g id="edge14" class="edge">
<title>Node26&#45;&gt;Node28</title>
<path fill="none" stroke="midnightblue" d="M546.76,-496.5C562.06,-493.18 578.57,-489.61 594.81,-486.09"/>
<polygon fill="midnightblue" stroke="midnightblue" points="595.85,-489.45 604.88,-483.91 594.37,-482.61 595.85,-489.45"/>
</g>
<!-- Node29 -->
<g id="node15" class="node">
<title>Node29</title>
<g id="a_node15"><a xlink:href="namespacev8_1_1internal_1_1compiler.html#a364c1534fdf1073625e22f3283e46994" target="_top" xlink:title=" ">
<polygon fill="white" stroke="red" points="635,-663.5 635,-693.5 756,-693.5 756,-663.5 635,-663.5"/>
<text text-anchor="start" x="643" y="-681.5" font-family="Helvetica,sans-Serif" font-size="10.00">v8::internal::compiler</text>
<text text-anchor="middle" x="695.5" y="-670.5" font-family="Helvetica,sans-Serif" font-size="10.00">::IntPtrConstant</text>
</a>
</g>
</g>
<!-- Node26&#45;&gt;Node29 -->
<g id="edge15" class="edge">
<title>Node26&#45;&gt;Node29</title>
<path fill="none" stroke="midnightblue" d="M542.92,-526.7C552.57,-531.19 561.7,-537 569,-544.5 604.58,-581.06 568.09,-618.28 605,-653.5 610.83,-659.06 617.78,-663.4 625.21,-666.79"/>
<polygon fill="midnightblue" stroke="midnightblue" points="624.23,-670.17 634.82,-670.59 626.81,-663.66 624.23,-670.17"/>
</g>
<!-- Node34 -->
<g id="node16" class="node">
<title>Node34</title>
<g id="a_node16"><a xlink:href="namespacev8_1_1base_1_1bits.html#ac34fbdba2249daa2374ff7964600dbea" target="_top" xlink:title=" ">
<polygon fill="white" stroke="black" points="635,-406 635,-425 756,-425 756,-406 635,-406"/>
<text text-anchor="middle" x="695.5" y="-413" font-family="Helvetica,sans-Serif" font-size="10.00">v8::base::bits::Signed</text>
</a>
</g>
</g>
<!-- Node26&#45;&gt;Node34 -->
<g id="edge16" class="edge">
<title>Node26&#45;&gt;Node34</title>
<path fill="none" stroke="midnightblue" d="M534.05,-496.49C546.2,-491.83 558.52,-485.91 569,-478.5 589.63,-463.91 583.42,-447.64 605,-434.5 611.16,-430.75 617.94,-427.73 624.94,-425.31"/>
<polygon fill="midnightblue" stroke="midnightblue" points="626.04,-428.63 634.57,-422.35 623.99,-421.94 626.04,-428.63"/>
</g>
<!-- Node35 -->
<g id="node17" class="node">
<title>Node35</title>
<g id="a_node17"><a xlink:href="classv8_1_1internal_1_1Tagged_3_01Smi_01_4.html#a73a3b31cde0a7836a41dd4c03964ba8d" target="_top" xlink:title=" ">
<polygon fill="white" stroke="red" points="639,-504.5 639,-534.5 752,-534.5 752,-504.5 639,-504.5"/>
<text text-anchor="start" x="647" y="-522.5" font-family="Helvetica,sans-Serif" font-size="10.00">v8::internal::Tagged</text>
<text text-anchor="middle" x="695.5" y="-511.5" font-family="Helvetica,sans-Serif" font-size="10.00">&lt; Smi &gt;::value</text>
</a>
</g>
</g>
<!-- Node26&#45;&gt;Node35 -->
<g id="edge17" class="edge">
<title>Node26&#45;&gt;Node35</title>
<path fill="none" stroke="midnightblue" d="M564.51,-514.71C586,-515.5 608.65,-516.34 628.93,-517.08"/>
<polygon fill="midnightblue" stroke="midnightblue" points="628.86,-520.58 638.98,-517.45 629.12,-513.59 628.86,-520.58"/>
</g>
<!-- Node39&#45;&gt;Node27 -->
<g id="edge21" class="edge">
<title>Node39&#45;&gt;Node27</title>
<path fill="none" stroke="midnightblue" d="M564.51,-568.5C580.28,-568.5 596.67,-568.5 612.3,-568.5"/>
<polygon fill="midnightblue" stroke="midnightblue" points="612.44,-572 622.44,-568.5 612.44,-565 612.44,-572"/>
</g>
<!-- Node40 -->
<g id="node20" class="node">
<title>Node40</title>
<g id="a_node20"><a xlink:href="namespacev8_1_1internal_1_1TorqueRuntimeMacroShims_1_1CodeStubAssembler.html#a47bc491234bbb1c66a4a683163f6d989" target="_top" xlink:title=" ">
<polygon fill="white" stroke="black" points="605,-603 605,-644 786,-644 786,-603 605,-603"/>
<text text-anchor="start" x="613" y="-632" font-family="Helvetica,sans-Serif" font-size="10.00">v8::internal::TorqueRuntime</text>
<text text-anchor="start" x="613" y="-621" font-family="Helvetica,sans-Serif" font-size="10.00">MacroShims::CodeStubAssembler</text>
<text text-anchor="middle" x="695.5" y="-610" font-family="Helvetica,sans-Serif" font-size="10.00">::IntPtrLessThanOrEqual</text>
</a>
</g>
</g>
<!-- Node39&#45;&gt;Node40 -->
<g id="edge22" class="edge">
<title>Node39&#45;&gt;Node40</title>
<path fill="none" stroke="midnightblue" d="M536.8,-583.53C557.35,-588.74 580.89,-594.7 603.4,-600.41"/>
<polygon fill="midnightblue" stroke="midnightblue" points="602.76,-603.86 613.31,-602.92 604.48,-597.07 602.76,-603.86"/>
</g>
<!-- Node43 -->
<g id="node23" class="node">
<title>Node43</title>
<g id="a_node23"><a xlink:href="classv8_1_1internal_1_1compiler_1_1RawMachineAssembler.html#a4d284b90e5a7a762cd14c32ee51f260c" target="_top" xlink:title=" ">
<polygon fill="white" stroke="red" points="627,-346 627,-387 764,-387 764,-346 627,-346"/>
<text text-anchor="start" x="635" y="-375" font-family="Helvetica,sans-Serif" font-size="10.00">v8::internal::compiler</text>
<text text-anchor="start" x="635" y="-364" font-family="Helvetica,sans-Serif" font-size="10.00">::RawMachineAssembler</text>
<text text-anchor="middle" x="695.5" y="-353" font-family="Helvetica,sans-Serif" font-size="10.00">::LoadFromObject</text>
</a>
</g>
</g>
<!-- Node42&#45;&gt;Node43 -->
<g id="edge25" class="edge">
<title>Node42&#45;&gt;Node43</title>
<path fill="none" stroke="midnightblue" d="M569.21,-366.5C584.91,-366.5 601.08,-366.5 616.38,-366.5"/>
<polygon fill="midnightblue" stroke="midnightblue" points="616.82,-370 626.82,-366.5 616.82,-363 616.82,-370"/>
</g>
<!-- Node17 -->
<g id="node24" class="node">
<title>Node17</title>
<g id="a_node24"><a xlink:href="classv8_1_1internal_1_1compiler_1_1CodeAssembler.html#aa7955829e7f5fde26a9548ef2eb0d007" target="_top" xlink:title=" ">
<polygon fill="white" stroke="black" points="606,-296.5 606,-326.5 785,-326.5 785,-296.5 606,-296.5"/>
<text text-anchor="start" x="614" y="-314.5" font-family="Helvetica,sans-Serif" font-size="10.00">v8::internal::compiler</text>
<text text-anchor="middle" x="695.5" y="-303.5" font-family="Helvetica,sans-Serif" font-size="10.00">::CodeAssembler::raw_assembler</text>
</a>
</g>
</g>
<!-- Node42&#45;&gt;Node17 -->
<g id="edge26" class="edge">
<title>Node42&#45;&gt;Node17</title>
<path fill="none" stroke="midnightblue" d="M536.8,-351.47C564.19,-344.53 596.88,-336.24 625.38,-329.02"/>
<polygon fill="midnightblue" stroke="midnightblue" points="626.44,-332.36 635.28,-326.51 624.72,-325.58 626.44,-332.36"/>
</g>
<!-- Node48 -->
<g id="node27" class="node">
<title>Node48</title>
<g id="a_node27"><a xlink:href="namespacev8_1_1internal_1_1TorqueRuntimeMacroShims_1_1CodeStubAssembler.html#acb96b34c2ceba4e634640be458b61f49" target="_top" xlink:title=" ">
<polygon fill="white" stroke="black" points="605,-713 605,-754 786,-754 786,-713 605,-713"/>
<text text-anchor="start" x="613" y="-742" font-family="Helvetica,sans-Serif" font-size="10.00">v8::internal::TorqueRuntime</text>
<text text-anchor="start" x="613" y="-731" font-family="Helvetica,sans-Serif" font-size="10.00">MacroShims::CodeStubAssembler</text>
<text text-anchor="middle" x="695.5" y="-720" font-family="Helvetica,sans-Serif" font-size="10.00">::SmiUntag</text>
</a>
</g>
</g>
<!-- Node47&#45;&gt;Node48 -->
<g id="edge29" class="edge">
<title>Node47&#45;&gt;Node48</title>
<path fill="none" stroke="midnightblue" d="M498.77,-640.59C523.43,-657.58 565.72,-685.19 605,-703.5 609.12,-705.42 613.4,-707.28 617.76,-709.06"/>
<polygon fill="midnightblue" stroke="midnightblue" points="616.79,-712.45 627.38,-712.85 619.36,-705.93 616.79,-712.45"/>
</g>
<!-- Node49&#45;&gt;Node29 -->
<g id="edge31" class="edge">
<title>Node49&#45;&gt;Node29</title>
<path fill="none" stroke="midnightblue" d="M276.46,-577.85C298.31,-598.45 340.43,-634.33 384,-650.5 462.87,-679.78 560.43,-683.83 624.91,-682.49"/>
<polygon fill="midnightblue" stroke="midnightblue" points="625.06,-685.98 634.97,-682.23 624.88,-678.99 625.06,-685.98"/>
</g>
</g>
</svg>
