<?xml version="1.0" encoding="UTF-8" standalone="no"?>
<!DOCTYPE svg PUBLIC "-//W3C//DTD SVG 1.1//EN"
 "http://www.w3.org/Graphics/SVG/1.1/DTD/svg11.dtd">
<!-- Generated by graphviz version 2.43.0 (0)
 -->
<!-- Title: cppgc::internal::BaseSpace::raw_heap Pages: 1 -->
<!--zoomable 249 -->
<svg id="main" version="1.1" xmlns="http://www.w3.org/2000/svg" xmlns:xlink="http://www.w3.org/1999/xlink" xml:space="preserve" onload="init(evt)">
<style type="text/css"><![CDATA[
.edge:hover path { stroke: red; }
.edge:hover polygon { stroke: red; fill: red; }
]]></style>
<script type="text/javascript"><![CDATA[
var edges = document.getElementsByTagName('g');
if (edges && edges.length) {
  for (var i=0;i<edges.length;i++) {
    if (edges[i].id.substr(0,4)=='edge') {
      edges[i].setAttribute('class','edge');
    }
  }
}
]]></script>
        <defs>
                <circle id="rim" cx="0" cy="0" r="7"/>
                <circle id="rim2" cx="0" cy="0" r="3.5"/>
                <g id="zoomPlus">
                        <use xlink:href="#rim" fill="#404040">
                                <set attributeName="fill" to="#808080" begin="zoomplus.mouseover" end="zoomplus.mouseout"/>
                        </use>
                        <path d="M-4,0h8M0,-4v8" fill="none" stroke="white" stroke-width="1.5" pointer-events="none"/>
                </g>
                <g id="zoomMin">
                        <use xlink:href="#rim" fill="#404040">
                                <set attributeName="fill" to="#808080" begin="zoomminus.mouseover" end="zoomminus.mouseout"/>
                        </use>
                        <path d="M-4,0h8" fill="none" stroke="white" stroke-width="1.5" pointer-events="none"/>
                </g>
                <g id="dirArrow">
                        <path fill="none" stroke="white" stroke-width="1.5" d="M0,-3.0v7 M-2.5,-0.5L0,-3.0L2.5,-0.5"/>
                </g>
               <g id="resetDef">
                       <use xlink:href="#rim2" fill="#404040">
                               <set attributeName="fill" to="#808080" begin="reset.mouseover" end="reset.mouseout"/>
                       </use>
               </g>
        </defs>

<script type="text/javascript">
var viewWidth = 812;
var viewHeight = 249;
var sectionId = 'dynsection-8';
</script>
<script xlink:href="svgpan.js"/>
<svg id="graph" class="graph">
<g id="viewport">
<title>cppgc::internal::BaseSpace::raw_heap</title>
<polygon fill="white" stroke="transparent" points="-4,4 -4,-245 808,-245 808,4 -4,4"/>
<!-- Node1 -->
<g id="node1" class="node">
<title>Node1</title>
<g id="a_node1"><a xlink:title=" ">
<polygon fill="#bfbfbf" stroke="black" points="656,-112.5 656,-142.5 804,-142.5 804,-112.5 656,-112.5"/>
<text text-anchor="start" x="664" y="-130.5" font-family="Helvetica,sans-Serif" font-size="10.00">cppgc::internal::BaseSpace</text>
<text text-anchor="middle" x="730" y="-119.5" font-family="Helvetica,sans-Serif" font-size="10.00">::raw_heap</text>
</a>
</g>
</g>
<!-- Node2 -->
<g id="node2" class="node">
<title>Node2</title>
<g id="a_node2"><a xlink:href="classcppgc_1_1internal_1_1BasePage.html#a3bbb9e91a60b4fb2da556ce83b8d73ae" target="_top" xlink:title=" ">
<polygon fill="white" stroke="black" points="472,-210.5 472,-240.5 614,-240.5 614,-210.5 472,-210.5"/>
<text text-anchor="start" x="480" y="-228.5" font-family="Helvetica,sans-Serif" font-size="10.00">cppgc::internal::BasePage</text>
<text text-anchor="middle" x="543" y="-217.5" font-family="Helvetica,sans-Serif" font-size="10.00">::BasePage</text>
</a>
</g>
</g>
<!-- Node1&#45;&gt;Node2 -->
<g id="edge1" class="edge">
<title>Node1&#45;&gt;Node2</title>
<path fill="none" stroke="midnightblue" d="M702.42,-148.79C681.14,-165.02 649.98,-186.97 620,-201.5 613.15,-204.82 605.74,-207.82 598.32,-210.48"/>
<polygon fill="midnightblue" stroke="midnightblue" points="704.58,-151.55 710.35,-142.67 700.29,-146.01 704.58,-151.55"/>
</g>
<!-- Node3 -->
<g id="node3" class="node">
<title>Node3</title>
<g id="a_node3"><a xlink:href="classcppgc_1_1internal_1_1BasePage.html#adbc0c4cc1ffb2b3c4c238548298536c9" target="_top" xlink:title=" ">
<polygon fill="white" stroke="black" points="472,-161.5 472,-191.5 614,-191.5 614,-161.5 472,-161.5"/>
<text text-anchor="start" x="480" y="-179.5" font-family="Helvetica,sans-Serif" font-size="10.00">cppgc::internal::BasePage</text>
<text text-anchor="middle" x="543" y="-168.5" font-family="Helvetica,sans-Serif" font-size="10.00">::ChangeOwner</text>
</a>
</g>
</g>
<!-- Node1&#45;&gt;Node3 -->
<g id="edge2" class="edge">
<title>Node1&#45;&gt;Node3</title>
<path fill="none" stroke="midnightblue" d="M662.46,-145.12C642.22,-150.48 620.18,-156.32 600.66,-161.49"/>
<polygon fill="midnightblue" stroke="midnightblue" points="663.47,-148.48 672.24,-142.53 661.67,-141.71 663.47,-148.48"/>
</g>
<!-- Node5 -->
<g id="node5" class="node">
<title>Node5</title>
<g id="a_node5"><a xlink:href="classcppgc_1_1internal_1_1BasePage.html#acda4e3db0ed7d3f684fe99c00c0ee877" target="_top" xlink:title=" ">
<polygon fill="white" stroke="black" points="472,-112.5 472,-142.5 614,-142.5 614,-112.5 472,-112.5"/>
<text text-anchor="start" x="480" y="-130.5" font-family="Helvetica,sans-Serif" font-size="10.00">cppgc::internal::BasePage</text>
<text text-anchor="middle" x="543" y="-119.5" font-family="Helvetica,sans-Serif" font-size="10.00">::Destroy</text>
</a>
</g>
</g>
<!-- Node1&#45;&gt;Node5 -->
<g id="edge4" class="edge">
<title>Node1&#45;&gt;Node5</title>
<path fill="none" stroke="midnightblue" d="M645.82,-127.5C635.25,-127.5 624.51,-127.5 614.17,-127.5"/>
<polygon fill="midnightblue" stroke="midnightblue" points="645.88,-131 655.88,-127.5 645.88,-124 645.88,-131"/>
</g>
<!-- Node7 -->
<g id="node7" class="node">
<title>Node7</title>
<g id="a_node7"><a xlink:href="classcppgc_1_1internal_1_1LargePage.html#a2c92a1d41a8bd91ebc102a0a57c48896" target="_top" xlink:title=" ">
<polygon fill="white" stroke="black" points="470.5,-58.5 470.5,-88.5 615.5,-88.5 615.5,-58.5 470.5,-58.5"/>
<text text-anchor="start" x="478.5" y="-76.5" font-family="Helvetica,sans-Serif" font-size="10.00">cppgc::internal::LargePage</text>
<text text-anchor="middle" x="543" y="-65.5" font-family="Helvetica,sans-Serif" font-size="10.00">::TryCreate</text>
</a>
</g>
</g>
<!-- Node1&#45;&gt;Node7 -->
<g id="edge6" class="edge">
<title>Node1&#45;&gt;Node7</title>
<path fill="none" stroke="midnightblue" d="M667.66,-109.6C644.3,-102.78 617.94,-95.08 595.58,-88.55"/>
<polygon fill="midnightblue" stroke="midnightblue" points="666.89,-113.02 677.47,-112.46 668.85,-106.3 666.89,-113.02"/>
</g>
<!-- Node14 -->
<g id="node10" class="node">
<title>Node14</title>
<g id="a_node10"><a xlink:href="classcppgc_1_1internal_1_1NormalPage.html#a3687dd2133c18bf5603a47e64e99328a" target="_top" xlink:title=" ">
<polygon fill="white" stroke="black" points="466,-6.5 466,-36.5 620,-36.5 620,-6.5 466,-6.5"/>
<text text-anchor="start" x="474" y="-24.5" font-family="Helvetica,sans-Serif" font-size="10.00">cppgc::internal::NormalPage</text>
<text text-anchor="middle" x="543" y="-13.5" font-family="Helvetica,sans-Serif" font-size="10.00">::TryCreate</text>
</a>
</g>
</g>
<!-- Node1&#45;&gt;Node14 -->
<g id="edge9" class="edge">
<title>Node1&#45;&gt;Node14</title>
<path fill="none" stroke="midnightblue" d="M703.65,-105.89C682.39,-88.59 650.68,-64.64 620,-48.5 611.57,-44.07 602.26,-40.08 593.13,-36.63"/>
<polygon fill="midnightblue" stroke="midnightblue" points="701.59,-108.73 711.53,-112.39 706.05,-103.33 701.59,-108.73"/>
</g>
<!-- Node4 -->
<g id="node4" class="node">
<title>Node4</title>
<g id="a_node4"><a xlink:href="classcppgc_1_1internal_1_1anonymous__namespace_02sweeper_8cc_03_1_1MutatorThreadSweeper.html#a1b1e2f305e2d396842e4521ee49a2481" target="_top" xlink:title=" ">
<polygon fill="white" stroke="black" points="206,-170 206,-211 430,-211 430,-170 206,-170"/>
<text text-anchor="start" x="214" y="-199" font-family="Helvetica,sans-Serif" font-size="10.00">cppgc::internal::anonymous</text>
<text text-anchor="start" x="214" y="-188" font-family="Helvetica,sans-Serif" font-size="10.00">_namespace{sweeper::cc}</text>
<text text-anchor="middle" x="318" y="-177" font-family="Helvetica,sans-Serif" font-size="10.00">::MutatorThreadSweeper::VisitNormalPage</text>
</a>
</g>
</g>
<!-- Node3&#45;&gt;Node4 -->
<g id="edge3" class="edge">
<title>Node3&#45;&gt;Node4</title>
<path fill="none" stroke="midnightblue" d="M461.63,-181.55C451.38,-182.19 440.74,-182.86 430.11,-183.52"/>
<polygon fill="midnightblue" stroke="midnightblue" points="461.99,-185.03 471.75,-180.91 461.55,-178.04 461.99,-185.03"/>
</g>
<!-- Node6 -->
<g id="node6" class="node">
<title>Node6</title>
<g id="a_node6"><a xlink:href="classcppgc_1_1internal_1_1anonymous__namespace_02sweeper_8cc_03_1_1SweepFinalizer.html#ac7b521ee918336d17d1f31fabdfce1cc" target="_top" xlink:title=" ">
<polygon fill="white" stroke="black" points="236.5,-110 236.5,-151 399.5,-151 399.5,-110 236.5,-110"/>
<text text-anchor="start" x="244.5" y="-139" font-family="Helvetica,sans-Serif" font-size="10.00">cppgc::internal::anonymous</text>
<text text-anchor="start" x="244.5" y="-128" font-family="Helvetica,sans-Serif" font-size="10.00">_namespace{sweeper::cc}</text>
<text text-anchor="middle" x="318" y="-117" font-family="Helvetica,sans-Serif" font-size="10.00">::SweepFinalizer::FinalizePage</text>
</a>
</g>
</g>
<!-- Node5&#45;&gt;Node6 -->
<g id="edge5" class="edge">
<title>Node5&#45;&gt;Node6</title>
<path fill="none" stroke="midnightblue" d="M461.68,-128.58C441.55,-128.85 419.95,-129.14 399.79,-129.41"/>
<polygon fill="midnightblue" stroke="midnightblue" points="461.8,-132.08 471.75,-128.45 461.7,-125.08 461.8,-132.08"/>
</g>
<!-- Node8 -->
<g id="node8" class="node">
<title>Node8</title>
<g id="a_node8"><a xlink:href="namespacecppgc_1_1internal_1_1anonymous__namespace_02object-allocator_8cc_03.html#a4270f328b8336938390628aa8aa7bcf2" target="_top" xlink:title=" ">
<polygon fill="white" stroke="black" points="228.5,-50 228.5,-91 407.5,-91 407.5,-50 228.5,-50"/>
<text text-anchor="start" x="236.5" y="-79" font-family="Helvetica,sans-Serif" font-size="10.00">cppgc::internal::anonymous</text>
<text text-anchor="start" x="236.5" y="-68" font-family="Helvetica,sans-Serif" font-size="10.00">_namespace{object&#45;allocator</text>
<text text-anchor="middle" x="318" y="-57" font-family="Helvetica,sans-Serif" font-size="10.00">::cc}::TryAllocateLargeObjectImpl</text>
</a>
</g>
</g>
<!-- Node7&#45;&gt;Node8 -->
<g id="edge7" class="edge">
<title>Node7&#45;&gt;Node8</title>
<path fill="none" stroke="midnightblue" d="M459.82,-72.39C442.89,-72.17 425,-71.93 407.85,-71.7"/>
<polygon fill="midnightblue" stroke="midnightblue" points="460.17,-75.9 470.21,-72.53 460.26,-68.9 460.17,-75.9"/>
</g>
<!-- Node9 -->
<g id="node9" class="node">
<title>Node9</title>
<g id="a_node9"><a xlink:href="namespacecppgc_1_1internal_1_1anonymous__namespace_02object-allocator_8cc_03.html#a258fee0a82f6e1d04f03d2f7c2892f96" target="_top" xlink:title=" ">
<polygon fill="white" stroke="red" points="4.5,-50 4.5,-91 165.5,-91 165.5,-50 4.5,-50"/>
<text text-anchor="start" x="12.5" y="-79" font-family="Helvetica,sans-Serif" font-size="10.00">cppgc::internal::anonymous</text>
<text text-anchor="start" x="12.5" y="-68" font-family="Helvetica,sans-Serif" font-size="10.00">_namespace{object&#45;allocator</text>
<text text-anchor="middle" x="85" y="-57" font-family="Helvetica,sans-Serif" font-size="10.00">::cc}::TryAllocateLargeObject</text>
</a>
</g>
</g>
<!-- Node8&#45;&gt;Node9 -->
<g id="edge8" class="edge">
<title>Node8&#45;&gt;Node9</title>
<path fill="none" stroke="midnightblue" d="M218.12,-70.5C200.62,-70.5 182.6,-70.5 165.72,-70.5"/>
<polygon fill="midnightblue" stroke="midnightblue" points="218.35,-74 228.35,-70.5 218.35,-67 218.35,-74"/>
</g>
<!-- Node15 -->
<g id="node11" class="node">
<title>Node15</title>
<g id="a_node11"><a xlink:href="classcppgc_1_1internal_1_1ObjectAllocator.html#a77e0e85e858486e0f283728315720a11" target="_top" xlink:title=" ">
<polygon fill="white" stroke="black" points="206,-0.5 206,-30.5 430,-30.5 430,-0.5 206,-0.5"/>
<text text-anchor="start" x="214" y="-18.5" font-family="Helvetica,sans-Serif" font-size="10.00">cppgc::internal::ObjectAllocator</text>
<text text-anchor="middle" x="318" y="-7.5" font-family="Helvetica,sans-Serif" font-size="10.00">::TryExpandAndRefillLinearAllocationBuffer</text>
</a>
</g>
</g>
<!-- Node14&#45;&gt;Node15 -->
<g id="edge10" class="edge">
<title>Node14&#45;&gt;Node15</title>
<path fill="none" stroke="midnightblue" d="M455.8,-19.18C447.44,-18.96 438.88,-18.73 430.32,-18.5"/>
<polygon fill="midnightblue" stroke="midnightblue" points="455.79,-22.68 465.88,-19.45 455.98,-15.68 455.79,-22.68"/>
</g>
<!-- Node16 -->
<g id="node12" class="node">
<title>Node16</title>
<g id="a_node12"><a xlink:href="classcppgc_1_1internal_1_1ObjectAllocator.html#a0e1e6b792481c3e3175db06916609919" target="_top" xlink:title=" ">
<polygon fill="white" stroke="red" points="0,-0.5 0,-30.5 170,-30.5 170,-0.5 0,-0.5"/>
<text text-anchor="start" x="8" y="-18.5" font-family="Helvetica,sans-Serif" font-size="10.00">cppgc::internal::ObjectAllocator</text>
<text text-anchor="middle" x="85" y="-7.5" font-family="Helvetica,sans-Serif" font-size="10.00">::TryRefillLinearAllocationBuffer</text>
</a>
</g>
</g>
<!-- Node15&#45;&gt;Node16 -->
<g id="edge11" class="edge">
<title>Node15&#45;&gt;Node16</title>
<path fill="none" stroke="midnightblue" d="M195.75,-15.5C187.12,-15.5 178.52,-15.5 170.17,-15.5"/>
<polygon fill="midnightblue" stroke="midnightblue" points="195.9,-19 205.9,-15.5 195.9,-12 195.9,-19"/>
</g>
</g>
</svg>
        <g id="navigator" transform="translate(0 0)" fill="#404254">
                <rect fill="#f2f5e9" fill-opacity="0.5" stroke="#606060" stroke-width=".5" x="0" y="0" width="60" height="60"/>
                <use id="zoomplus" xlink:href="#zoomPlus" x="17" y="9" onmousedown="handleZoom(evt,'in')"/>
                <use id="zoomminus" xlink:href="#zoomMin" x="42" y="9" onmousedown="handleZoom(evt,'out')"/>
                <use id="reset" xlink:href="#resetDef" x="30" y="36" onmousedown="handleReset()"/>
                <g id="arrowUp" xlink:href="#dirArrow" transform="translate(30 24)" onmousedown="handlePan(0,-1)">
                  <use xlink:href="#rim" fill="#404040">
                        <set attributeName="fill" to="#808080" begin="arrowUp.mouseover" end="arrowUp.mouseout"/>
                  </use>
                  <path fill="none" stroke="white" stroke-width="1.5" d="M0,-3.0v7 M-2.5,-0.5L0,-3.0L2.5,-0.5"/>
                </g>
                <g id="arrowRight" xlink:href="#dirArrow" transform="rotate(90) translate(36 -43)" onmousedown="handlePan(1,0)">
                  <use xlink:href="#rim" fill="#404040">
                        <set attributeName="fill" to="#808080" begin="arrowRight.mouseover" end="arrowRight.mouseout"/>
                  </use>
                  <path fill="none" stroke="white" stroke-width="1.5" d="M0,-3.0v7 M-2.5,-0.5L0,-3.0L2.5,-0.5"/>
                </g>
                <g id="arrowDown" xlink:href="#dirArrow" transform="rotate(180) translate(-30 -48)" onmousedown="handlePan(0,1)">
                  <use xlink:href="#rim" fill="#404040">
                        <set attributeName="fill" to="#808080" begin="arrowDown.mouseover" end="arrowDown.mouseout"/>
                  </use>
                  <path fill="none" stroke="white" stroke-width="1.5" d="M0,-3.0v7 M-2.5,-0.5L0,-3.0L2.5,-0.5"/>
                </g>
                <g id="arrowLeft" xlink:href="#dirArrow" transform="rotate(270) translate(-36 17)" onmousedown="handlePan(-1,0)">
                  <use xlink:href="#rim" fill="#404040">
                        <set attributeName="fill" to="#808080" begin="arrowLeft.mouseover" end="arrowLeft.mouseout"/>
                  </use>
                  <path fill="none" stroke="white" stroke-width="1.5" d="M0,-3.0v7 M-2.5,-0.5L0,-3.0L2.5,-0.5"/>
                </g>
        </g>
        <svg viewBox="0 0 15 15" width="100%" height="30px" preserveAspectRatio="xMaxYMin meet">
         <g id="arrow_out" transform="scale(0.3 0.3)">
          <a xlink:href="classcppgc_1_1internal_1_1BaseSpace_a4a627f5887038467822e20a7b8fcccbc_icgraph_org.svg" target="_base">
           <rect id="button" ry="5" rx="5" y="6" x="6" height="38" width="38"
                fill="#f2f5e9" fill-opacity="0.5" stroke="#606060" stroke-width="1.0"/>
           <path id="arrow"
             d="M 11.500037,31.436501 C 11.940474,20.09759 22.043105,11.32322 32.158766,21.979434 L 37.068811,17.246167 C 37.068811,17.246167 37.088388,32 37.088388,32 L 22.160133,31.978069 C 22.160133,31.978069 26.997745,27.140456 26.997745,27.140456 C 18.528582,18.264221 13.291696,25.230495 11.500037,31.436501 z"
             style="fill:#404040;"/>
          </a>
         </g>
        </svg>
</svg>
