<?xml version="1.0" encoding="UTF-8" standalone="no"?>
<!DOCTYPE svg PUBLIC "-//W3C//DTD SVG 1.1//EN"
 "http://www.w3.org/Graphics/SVG/1.1/DTD/svg11.dtd">
<!-- Generated by graphviz version 2.43.0 (0)
 -->
<!-- Title: v8::internal::RegExpMacroAssemblerRISCV::IfRegisterLT Pages: 1 -->
<!--zoomable 399 -->
<svg id="main" version="1.1" xmlns="http://www.w3.org/2000/svg" xmlns:xlink="http://www.w3.org/1999/xlink" xml:space="preserve" onload="init(evt)">
<style type="text/css"><![CDATA[
.edge:hover path { stroke: red; }
.edge:hover polygon { stroke: red; fill: red; }
]]></style>
<script type="text/javascript"><![CDATA[
var edges = document.getElementsByTagName('g');
if (edges && edges.length) {
  for (var i=0;i<edges.length;i++) {
    if (edges[i].id.substr(0,4)=='edge') {
      edges[i].setAttribute('class','edge');
    }
  }
}
]]></script>
        <defs>
                <circle id="rim" cx="0" cy="0" r="7"/>
                <circle id="rim2" cx="0" cy="0" r="3.5"/>
                <g id="zoomPlus">
                        <use xlink:href="#rim" fill="#404040">
                                <set attributeName="fill" to="#808080" begin="zoomplus.mouseover" end="zoomplus.mouseout"/>
                        </use>
                        <path d="M-4,0h8M0,-4v8" fill="none" stroke="white" stroke-width="1.5" pointer-events="none"/>
                </g>
                <g id="zoomMin">
                        <use xlink:href="#rim" fill="#404040">
                                <set attributeName="fill" to="#808080" begin="zoomminus.mouseover" end="zoomminus.mouseout"/>
                        </use>
                        <path d="M-4,0h8" fill="none" stroke="white" stroke-width="1.5" pointer-events="none"/>
                </g>
                <g id="dirArrow">
                        <path fill="none" stroke="white" stroke-width="1.5" d="M0,-3.0v7 M-2.5,-0.5L0,-3.0L2.5,-0.5"/>
                </g>
               <g id="resetDef">
                       <use xlink:href="#rim2" fill="#404040">
                               <set attributeName="fill" to="#808080" begin="reset.mouseover" end="reset.mouseout"/>
                       </use>
               </g>
        </defs>

<script type="text/javascript">
var viewWidth = 970;
var viewHeight = 399;
var sectionId = 'dynsection-57';
</script>
<script xlink:href="svgpan.js"/>
<svg id="graph" class="graph">
<g id="viewport">
<title>v8::internal::RegExpMacroAssemblerRISCV::IfRegisterLT</title>
<polygon fill="white" stroke="transparent" points="-4,4 -4,-395.5 966,-395.5 966,4 -4,4"/>
<!-- Node1 -->
<g id="node1" class="node">
<title>Node1</title>
<g id="a_node1"><a xlink:title=" ">
<polygon fill="#bfbfbf" stroke="black" points="0,-91 0,-121 161,-121 161,-91 0,-91"/>
<text text-anchor="start" x="8" y="-109" font-family="Helvetica,sans-Serif" font-size="10.00">v8::internal::RegExpMacro</text>
<text text-anchor="middle" x="80.5" y="-98" font-family="Helvetica,sans-Serif" font-size="10.00">AssemblerRISCV::IfRegisterLT</text>
</a>
</g>
</g>
<!-- Node2 -->
<g id="node2" class="node">
<title>Node2</title>
<g id="a_node2"><a xlink:href="classv8_1_1internal_1_1RegExpMacroAssemblerRISCV.html#a49aa4fa2c2cb2595bb0b64709356bf68" target="_top" xlink:title=" ">
<polygon fill="white" stroke="black" points="197,-139 197,-169 394,-169 394,-139 197,-139"/>
<text text-anchor="start" x="205" y="-157" font-family="Helvetica,sans-Serif" font-size="10.00">v8::internal::RegExpMacro</text>
<text text-anchor="middle" x="295.5" y="-146" font-family="Helvetica,sans-Serif" font-size="10.00">AssemblerRISCV::BranchOrBacktrack</text>
</a>
</g>
</g>
<!-- Node1&#45;&gt;Node2 -->
<g id="edge1" class="edge">
<title>Node1&#45;&gt;Node2</title>
<path fill="none" stroke="midnightblue" d="M148.31,-121.05C170.42,-126.04 195.18,-131.62 217.96,-136.75"/>
<polygon fill="midnightblue" stroke="midnightblue" points="217.4,-140.21 227.93,-139 218.94,-133.38 217.4,-140.21"/>
</g>
<!-- Node15 -->
<g id="node13" class="node">
<title>Node15</title>
<g id="a_node13"><a xlink:href="classv8_1_1internal_1_1RegExpMacroAssemblerRISCV.html#a6a8a3e9a7916b0265faf5722d9b08f6d" target="_top" xlink:title=" ">
<polygon fill="white" stroke="black" points="433.5,-12.5 433.5,-53.5 578.5,-53.5 578.5,-12.5 433.5,-12.5"/>
<text text-anchor="start" x="441.5" y="-41.5" font-family="Helvetica,sans-Serif" font-size="10.00">v8::internal::RegExpMacro</text>
<text text-anchor="start" x="441.5" y="-30.5" font-family="Helvetica,sans-Serif" font-size="10.00">AssemblerRISCV::register</text>
<text text-anchor="middle" x="506" y="-19.5" font-family="Helvetica,sans-Serif" font-size="10.00">_location</text>
</a>
</g>
</g>
<!-- Node1&#45;&gt;Node15 -->
<g id="edge12" class="edge">
<title>Node1&#45;&gt;Node15</title>
<path fill="none" stroke="midnightblue" d="M161.16,-92.27C236.14,-79.34 347.92,-60.08 423.5,-47.05"/>
<polygon fill="midnightblue" stroke="midnightblue" points="424.19,-50.48 433.45,-45.33 423.01,-43.58 424.19,-50.48"/>
</g>
<!-- Node3 -->
<g id="node3" class="node">
<title>Node3</title>
<g id="a_node3"><a xlink:href="classv8_1_1internal_1_1RegExpMacroAssemblerRISCV.html#a8f3e6b49f8bea79cbc259a4e04178f4c" target="_top" xlink:title=" ">
<polygon fill="white" stroke="black" points="430,-165 430,-195 582,-195 582,-165 430,-165"/>
<text text-anchor="start" x="438" y="-183" font-family="Helvetica,sans-Serif" font-size="10.00">v8::internal::RegExpMacro</text>
<text text-anchor="middle" x="506" y="-172" font-family="Helvetica,sans-Serif" font-size="10.00">AssemblerRISCV::Backtrack</text>
</a>
</g>
</g>
<!-- Node2&#45;&gt;Node3 -->
<g id="edge2" class="edge">
<title>Node2&#45;&gt;Node3</title>
<path fill="none" stroke="midnightblue" d="M394.03,-166.16C402.72,-167.24 411.47,-168.34 420.03,-169.4"/>
<polygon fill="midnightblue" stroke="midnightblue" points="419.64,-172.88 429.99,-170.65 420.5,-165.93 419.64,-172.88"/>
</g>
<!-- Node4 -->
<g id="node4" class="node">
<title>Node4</title>
<g id="a_node4"><a xlink:href="classv8_1_1internal_1_1RegExpMacroAssembler.html#adddc6747c3c92bed4eb537248fa0b68f" target="_top" xlink:title=" ">
<polygon fill="white" stroke="black" points="637.5,-361 637.5,-391 787.5,-391 787.5,-361 637.5,-361"/>
<text text-anchor="start" x="645.5" y="-379" font-family="Helvetica,sans-Serif" font-size="10.00">v8::internal::RegExpMacro</text>
<text text-anchor="middle" x="712.5" y="-368" font-family="Helvetica,sans-Serif" font-size="10.00">Assembler::backtrack_limit</text>
</a>
</g>
</g>
<!-- Node3&#45;&gt;Node4 -->
<g id="edge3" class="edge">
<title>Node3&#45;&gt;Node4</title>
<path fill="none" stroke="midnightblue" d="M512.33,-195.12C525.02,-228.84 560.34,-310.44 618,-352 621.2,-354.3 624.6,-356.39 628.13,-358.27"/>
<polygon fill="midnightblue" stroke="midnightblue" points="626.63,-361.43 637.17,-362.55 629.63,-355.11 626.63,-361.43"/>
</g>
<!-- Node5 -->
<g id="node5" class="node">
<title>Node5</title>
<g id="a_node5"><a xlink:href="classv8_1_1internal_1_1RegExpMacroAssembler.html#a3fcc4d8e2db0cf9f7d2402803ca66a93" target="_top" xlink:title=" ">
<polygon fill="white" stroke="black" points="640,-312 640,-342 785,-342 785,-312 640,-312"/>
<text text-anchor="start" x="648" y="-330" font-family="Helvetica,sans-Serif" font-size="10.00">v8::internal::RegExpMacro</text>
<text text-anchor="middle" x="712.5" y="-319" font-family="Helvetica,sans-Serif" font-size="10.00">Assembler::can_fallback</text>
</a>
</g>
</g>
<!-- Node3&#45;&gt;Node5 -->
<g id="edge4" class="edge">
<title>Node3&#45;&gt;Node5</title>
<path fill="none" stroke="midnightblue" d="M516.27,-195.08C533.15,-221.23 571.48,-274.86 618,-303 621.9,-305.36 626.02,-307.48 630.28,-309.4"/>
<polygon fill="midnightblue" stroke="midnightblue" points="629.19,-312.74 639.77,-313.28 631.84,-306.26 629.19,-312.74"/>
</g>
<!-- Node6 -->
<g id="node6" class="node">
<title>Node6</title>
<g id="a_node6"><a xlink:href="classv8_1_1internal_1_1RegExpMacroAssemblerRISCV.html#ab0471eeced44d3c420edc3289ca085d9" target="_top" xlink:title=" ">
<polygon fill="white" stroke="red" points="618,-263 618,-293 807,-293 807,-263 618,-263"/>
<text text-anchor="start" x="626" y="-281" font-family="Helvetica,sans-Serif" font-size="10.00">v8::internal::RegExpMacro</text>
<text text-anchor="middle" x="712.5" y="-270" font-family="Helvetica,sans-Serif" font-size="10.00">AssemblerRISCV::CheckPreemption</text>
</a>
</g>
</g>
<!-- Node3&#45;&gt;Node6 -->
<g id="edge5" class="edge">
<title>Node3&#45;&gt;Node6</title>
<path fill="none" stroke="midnightblue" d="M525.49,-195.2C546.64,-211.87 582.89,-238.33 618,-254 622.45,-255.99 627.1,-257.83 631.84,-259.54"/>
<polygon fill="midnightblue" stroke="midnightblue" points="631.08,-262.98 641.67,-262.86 633.32,-256.35 631.08,-262.98"/>
</g>
<!-- Node8 -->
<g id="node7" class="node">
<title>Node8</title>
<g id="a_node7"><a xlink:href="classv8_1_1internal_1_1RegExpMacroAssemblerRISCV.html#a0e0109c0635623fb6e380754609e8c88" target="_top" xlink:title=" ">
<polygon fill="white" stroke="black" points="629.5,-214 629.5,-244 795.5,-244 795.5,-214 629.5,-214"/>
<text text-anchor="start" x="637.5" y="-232" font-family="Helvetica,sans-Serif" font-size="10.00">v8::internal::RegExpMacro</text>
<text text-anchor="middle" x="712.5" y="-221" font-family="Helvetica,sans-Serif" font-size="10.00">AssemblerRISCV::code_pointer</text>
</a>
</g>
</g>
<!-- Node3&#45;&gt;Node8 -->
<g id="edge6" class="edge">
<title>Node3&#45;&gt;Node8</title>
<path fill="none" stroke="midnightblue" d="M569.75,-195.03C591.63,-200.28 616.37,-206.21 638.99,-211.62"/>
<polygon fill="midnightblue" stroke="midnightblue" points="638.33,-215.07 648.87,-213.99 639.96,-208.26 638.33,-215.07"/>
</g>
<!-- Node9 -->
<g id="node8" class="node">
<title>Node9</title>
<g id="a_node8"><a xlink:href="classv8_1_1internal_1_1RegExpMacroAssemblerRISCV.html#a1a06a11c1f44243bb17f930a3ef468ab" target="_top" xlink:title=" ">
<polygon fill="white" stroke="black" points="640,-165 640,-195 785,-195 785,-165 640,-165"/>
<text text-anchor="start" x="648" y="-183" font-family="Helvetica,sans-Serif" font-size="10.00">v8::internal::RegExpMacro</text>
<text text-anchor="middle" x="712.5" y="-172" font-family="Helvetica,sans-Serif" font-size="10.00">AssemblerRISCV::Fail</text>
</a>
</g>
</g>
<!-- Node3&#45;&gt;Node9 -->
<g id="edge7" class="edge">
<title>Node3&#45;&gt;Node9</title>
<path fill="none" stroke="midnightblue" d="M582.28,-180C597.69,-180 613.99,-180 629.62,-180"/>
<polygon fill="midnightblue" stroke="midnightblue" points="629.78,-183.5 639.78,-180 629.78,-176.5 629.78,-183.5"/>
</g>
<!-- Node10 -->
<g id="node9" class="node">
<title>Node10</title>
<g id="a_node9"><a xlink:href="classv8_1_1internal_1_1RegExpMacroAssemblerRISCV.html#a678eb1c5822705a8855f993294f4ed86" target="_top" xlink:title=" ">
<polygon fill="white" stroke="black" points="626.5,-18 626.5,-48 798.5,-48 798.5,-18 626.5,-18"/>
<text text-anchor="start" x="634.5" y="-36" font-family="Helvetica,sans-Serif" font-size="10.00">v8::internal::RegExpMacro</text>
<text text-anchor="middle" x="712.5" y="-25" font-family="Helvetica,sans-Serif" font-size="10.00">AssemblerRISCV::frame_pointer</text>
</a>
</g>
</g>
<!-- Node3&#45;&gt;Node10 -->
<g id="edge8" class="edge">
<title>Node3&#45;&gt;Node10</title>
<path fill="none" stroke="midnightblue" d="M516.27,-164.91C533.15,-138.77 571.48,-85.13 618,-57 620.87,-55.26 623.86,-53.65 626.94,-52.16"/>
<polygon fill="midnightblue" stroke="midnightblue" points="628.63,-55.24 636.39,-48.01 625.82,-48.83 628.63,-55.24"/>
</g>
<!-- Node11 -->
<g id="node10" class="node">
<title>Node11</title>
<g id="a_node10"><a xlink:href="classv8_1_1internal_1_1RegExpMacroAssembler.html#a14ff9b4f49073416e7de9d0b8175a35f" target="_top" xlink:title=" ">
<polygon fill="white" stroke="black" points="626,-116 626,-146 799,-146 799,-116 626,-116"/>
<text text-anchor="start" x="634" y="-134" font-family="Helvetica,sans-Serif" font-size="10.00">v8::internal::RegExpMacro</text>
<text text-anchor="middle" x="712.5" y="-123" font-family="Helvetica,sans-Serif" font-size="10.00">Assembler::has_backtrack_limit</text>
</a>
</g>
</g>
<!-- Node3&#45;&gt;Node11 -->
<g id="edge9" class="edge">
<title>Node3&#45;&gt;Node11</title>
<path fill="none" stroke="midnightblue" d="M569.75,-164.96C591.63,-159.72 616.37,-153.79 638.99,-148.37"/>
<polygon fill="midnightblue" stroke="midnightblue" points="639.96,-151.74 648.87,-146.01 638.33,-144.93 639.96,-151.74"/>
</g>
<!-- Node12 -->
<g id="node11" class="node">
<title>Node12</title>
<g id="a_node11"><a xlink:href="classv8_1_1internal_1_1RegExpMacroAssemblerRISCV.html#a88baf2c59e3e03fe504475115a5c1936" target="_top" xlink:title=" ">
<polygon fill="white" stroke="red" points="640,-67 640,-97 785,-97 785,-67 640,-67"/>
<text text-anchor="start" x="648" y="-85" font-family="Helvetica,sans-Serif" font-size="10.00">v8::internal::RegExpMacro</text>
<text text-anchor="middle" x="712.5" y="-74" font-family="Helvetica,sans-Serif" font-size="10.00">AssemblerRISCV::Pop</text>
</a>
</g>
</g>
<!-- Node3&#45;&gt;Node12 -->
<g id="edge10" class="edge">
<title>Node3&#45;&gt;Node12</title>
<path fill="none" stroke="midnightblue" d="M525.94,-164.79C547.2,-148.39 583.27,-122.57 618,-107 623.4,-104.58 629.09,-102.35 634.88,-100.3"/>
<polygon fill="midnightblue" stroke="midnightblue" points="636.3,-103.52 644.69,-97.04 634.09,-96.88 636.3,-103.52"/>
</g>
<!-- Node14 -->
<g id="node12" class="node">
<title>Node14</title>
<g id="a_node12"><a xlink:href="namespacev8_1_1internal.html#aa6b3743bd5d773c552654f2a6c3efa4a" target="_top" xlink:title=" ">
<polygon fill="white" stroke="black" points="843,-25.5 843,-44.5 962,-44.5 962,-25.5 843,-25.5"/>
<text text-anchor="middle" x="902.5" y="-32.5" font-family="Helvetica,sans-Serif" font-size="10.00">v8::internal::DCHECK</text>
</a>
</g>
</g>
<!-- Node12&#45;&gt;Node14 -->
<g id="edge11" class="edge">
<title>Node12&#45;&gt;Node14</title>
<path fill="none" stroke="midnightblue" d="M773.5,-67C799.38,-60.53 829.23,-53.07 853.59,-46.98"/>
<polygon fill="midnightblue" stroke="midnightblue" points="854.47,-50.36 863.33,-44.54 852.78,-43.57 854.47,-50.36"/>
</g>
<!-- Node15&#45;&gt;Node10 -->
<g id="edge14" class="edge">
<title>Node15&#45;&gt;Node10</title>
<path fill="none" stroke="midnightblue" d="M578.52,-33C590.7,-33 603.52,-33 616.2,-33"/>
<polygon fill="midnightblue" stroke="midnightblue" points="616.32,-36.5 626.32,-33 616.32,-29.5 616.32,-36.5"/>
</g>
<!-- Node15&#45;&gt;Node14 -->
<g id="edge13" class="edge">
<title>Node15&#45;&gt;Node14</title>
<path fill="none" stroke="midnightblue" d="M578.56,-14.45C591.6,-11.76 605.14,-9.43 618,-8 701.49,1.29 723.81,3.65 807,-8 826.78,-10.77 848.22,-16.65 865.67,-22.22"/>
<polygon fill="midnightblue" stroke="midnightblue" points="864.85,-25.63 875.45,-25.43 867.04,-18.98 864.85,-25.63"/>
</g>
</g>
</svg>
        <g id="navigator" transform="translate(0 0)" fill="#404254">
                <rect fill="#f2f5e9" fill-opacity="0.5" stroke="#606060" stroke-width=".5" x="0" y="0" width="60" height="60"/>
                <use id="zoomplus" xlink:href="#zoomPlus" x="17" y="9" onmousedown="handleZoom(evt,'in')"/>
                <use id="zoomminus" xlink:href="#zoomMin" x="42" y="9" onmousedown="handleZoom(evt,'out')"/>
                <use id="reset" xlink:href="#resetDef" x="30" y="36" onmousedown="handleReset()"/>
                <g id="arrowUp" xlink:href="#dirArrow" transform="translate(30 24)" onmousedown="handlePan(0,-1)">
                  <use xlink:href="#rim" fill="#404040">
                        <set attributeName="fill" to="#808080" begin="arrowUp.mouseover" end="arrowUp.mouseout"/>
                  </use>
                  <path fill="none" stroke="white" stroke-width="1.5" d="M0,-3.0v7 M-2.5,-0.5L0,-3.0L2.5,-0.5"/>
                </g>
                <g id="arrowRight" xlink:href="#dirArrow" transform="rotate(90) translate(36 -43)" onmousedown="handlePan(1,0)">
                  <use xlink:href="#rim" fill="#404040">
                        <set attributeName="fill" to="#808080" begin="arrowRight.mouseover" end="arrowRight.mouseout"/>
                  </use>
                  <path fill="none" stroke="white" stroke-width="1.5" d="M0,-3.0v7 M-2.5,-0.5L0,-3.0L2.5,-0.5"/>
                </g>
                <g id="arrowDown" xlink:href="#dirArrow" transform="rotate(180) translate(-30 -48)" onmousedown="handlePan(0,1)">
                  <use xlink:href="#rim" fill="#404040">
                        <set attributeName="fill" to="#808080" begin="arrowDown.mouseover" end="arrowDown.mouseout"/>
                  </use>
                  <path fill="none" stroke="white" stroke-width="1.5" d="M0,-3.0v7 M-2.5,-0.5L0,-3.0L2.5,-0.5"/>
                </g>
                <g id="arrowLeft" xlink:href="#dirArrow" transform="rotate(270) translate(-36 17)" onmousedown="handlePan(-1,0)">
                  <use xlink:href="#rim" fill="#404040">
                        <set attributeName="fill" to="#808080" begin="arrowLeft.mouseover" end="arrowLeft.mouseout"/>
                  </use>
                  <path fill="none" stroke="white" stroke-width="1.5" d="M0,-3.0v7 M-2.5,-0.5L0,-3.0L2.5,-0.5"/>
                </g>
        </g>
        <svg viewBox="0 0 15 15" width="100%" height="30px" preserveAspectRatio="xMaxYMin meet">
         <g id="arrow_out" transform="scale(0.3 0.3)">
          <a xlink:href="classv8_1_1internal_1_1RegExpMacroAssemblerRISCV_ad4a18275b881078343c17bfa7e5d7244_cgraph_org.svg" target="_base">
           <rect id="button" ry="5" rx="5" y="6" x="6" height="38" width="38"
                fill="#f2f5e9" fill-opacity="0.5" stroke="#606060" stroke-width="1.0"/>
           <path id="arrow"
             d="M 11.500037,31.436501 C 11.940474,20.09759 22.043105,11.32322 32.158766,21.979434 L 37.068811,17.246167 C 37.068811,17.246167 37.088388,32 37.088388,32 L 22.160133,31.978069 C 22.160133,31.978069 26.997745,27.140456 26.997745,27.140456 C 18.528582,18.264221 13.291696,25.230495 11.500037,31.436501 z"
             style="fill:#404040;"/>
          </a>
         </g>
        </svg>
</svg>
