<?xml version="1.0" encoding="UTF-8" standalone="no"?>
<!DOCTYPE svg PUBLIC "-//W3C//DTD SVG 1.1//EN"
 "http://www.w3.org/Graphics/SVG/1.1/DTD/svg11.dtd">
<!-- Generated by graphviz version 2.43.0 (0)
 -->
<!-- Title: v8::internal::compiler::WasmGraphAssembler::LoadTrustedPointerFromObjectTrapOnNull Pages: 1 -->
<svg width="1013pt" height="550pt"
 viewBox="0.00 0.00 1013.00 550.23" xmlns="http://www.w3.org/2000/svg" xmlns:xlink="http://www.w3.org/1999/xlink">
<g id="graph0" class="graph" transform="scale(1 1) rotate(0) translate(4 546.23)">
<title>v8::internal::compiler::WasmGraphAssembler::LoadTrustedPointerFromObjectTrapOnNull</title>
<polygon fill="white" stroke="transparent" points="-4,4 -4,-546.23 1009,-546.23 1009,4 -4,4"/>
<!-- Node1 -->
<g id="node1" class="node">
<title>Node1</title>
<g id="a_node1"><a xlink:title=" ">
<polygon fill="#bfbfbf" stroke="black" points="0,-171.5 0,-223.5 186,-223.5 186,-171.5 0,-171.5"/>
<text text-anchor="start" x="8" y="-211.5" font-family="Helvetica,sans-Serif" font-size="10.00">v8::internal::compiler</text>
<text text-anchor="start" x="8" y="-200.5" font-family="Helvetica,sans-Serif" font-size="10.00">::WasmGraphAssembler::</text>
<text text-anchor="start" x="8" y="-189.5" font-family="Helvetica,sans-Serif" font-size="10.00">LoadTrustedPointerFromObjectTrap</text>
<text text-anchor="middle" x="93" y="-178.5" font-family="Helvetica,sans-Serif" font-size="10.00">OnNull</text>
</a>
</g>
</g>
<!-- Node2 -->
<g id="node2" class="node">
<title>Node2</title>
<g id="a_node2"><a xlink:href="classv8_1_1internal_1_1compiler_1_1WasmGraphAssembler.html#a6d406c7ed93d6f58effe82b4c3318ba0" target="_top" xlink:title=" ">
<polygon fill="white" stroke="black" points="222,-202 222,-243 370,-243 370,-202 222,-202"/>
<text text-anchor="start" x="230" y="-231" font-family="Helvetica,sans-Serif" font-size="10.00">v8::internal::compiler</text>
<text text-anchor="start" x="230" y="-220" font-family="Helvetica,sans-Serif" font-size="10.00">::WasmGraphAssembler::</text>
<text text-anchor="middle" x="296" y="-209" font-family="Helvetica,sans-Serif" font-size="10.00">BuildDecodeTrustedPointer</text>
</a>
</g>
</g>
<!-- Node1&#45;&gt;Node2 -->
<g id="edge1" class="edge">
<title>Node1&#45;&gt;Node2</title>
<path fill="none" stroke="midnightblue" d="M186.26,-208.98C194.78,-210.03 203.37,-211.1 211.79,-212.15"/>
<polygon fill="midnightblue" stroke="midnightblue" points="211.61,-215.65 221.96,-213.42 212.47,-208.71 211.61,-215.65"/>
</g>
<!-- Node40 -->
<g id="node9" class="node">
<title>Node40</title>
<g id="a_node9"><a xlink:href="namespacev8_1_1internal.html#a8c89f00da07e125218128b9fbf0a321c" target="_top" xlink:title=" ">
<polygon fill="white" stroke="black" points="448.5,-410 448.5,-429 559.5,-429 559.5,-410 448.5,-410"/>
<text text-anchor="middle" x="504" y="-417" font-family="Helvetica,sans-Serif" font-size="10.00">v8::internal::handle</text>
</a>
</g>
</g>
<!-- Node1&#45;&gt;Node40 -->
<g id="edge31" class="edge">
<title>Node1&#45;&gt;Node40</title>
<path fill="none" stroke="midnightblue" d="M124.94,-223.55C178.54,-267.24 293.71,-354.98 406,-400.5 416.17,-404.62 427.31,-407.87 438.3,-410.42"/>
<polygon fill="midnightblue" stroke="midnightblue" points="437.8,-413.9 448.32,-412.58 439.27,-407.05 437.8,-413.9"/>
</g>
<!-- Node45 -->
<g id="node13" class="node">
<title>Node45</title>
<g id="a_node13"><a xlink:href="classv8_1_1internal_1_1compiler_1_1GraphAssembler.html#a2e707940a4c5e5ef20e9171c019d07a2" target="_top" xlink:title=" ">
<polygon fill="white" stroke="black" points="414.5,-114.5 414.5,-144.5 593.5,-144.5 593.5,-114.5 414.5,-114.5"/>
<text text-anchor="start" x="422.5" y="-132.5" font-family="Helvetica,sans-Serif" font-size="10.00">v8::internal::compiler</text>
<text text-anchor="middle" x="504" y="-121.5" font-family="Helvetica,sans-Serif" font-size="10.00">::GraphAssembler::IntPtrConstant</text>
</a>
</g>
</g>
<!-- Node1&#45;&gt;Node45 -->
<g id="edge32" class="edge">
<title>Node1&#45;&gt;Node45</title>
<path fill="none" stroke="midnightblue" d="M186.04,-182.2C251.02,-171.39 337.98,-156.94 404.38,-145.9"/>
<polygon fill="midnightblue" stroke="midnightblue" points="405.15,-149.32 414.44,-144.22 404,-142.41 405.15,-149.32"/>
</g>
<!-- Node52 -->
<g id="node20" class="node">
<title>Node52</title>
<g id="a_node20"><a xlink:href="classv8_1_1internal_1_1compiler_1_1GraphAssembler.html#a62895116e1fe59a85eafe64559cb739a" target="_top" xlink:title=" ">
<polygon fill="white" stroke="black" points="411,-448.5 411,-478.5 597,-478.5 597,-448.5 411,-448.5"/>
<text text-anchor="start" x="419" y="-466.5" font-family="Helvetica,sans-Serif" font-size="10.00">v8::internal::compiler</text>
<text text-anchor="middle" x="504" y="-455.5" font-family="Helvetica,sans-Serif" font-size="10.00">::GraphAssembler::LoadTrapOnNull</text>
</a>
</g>
</g>
<!-- Node1&#45;&gt;Node52 -->
<g id="edge33" class="edge">
<title>Node1&#45;&gt;Node52</title>
<path fill="none" stroke="midnightblue" d="M110.14,-223.79C131.97,-257.54 173.78,-316.21 222,-353.5 282.36,-400.17 364.99,-429.34 425.01,-445.82"/>
<polygon fill="midnightblue" stroke="midnightblue" points="424.26,-449.24 434.82,-448.45 426.07,-442.48 424.26,-449.24"/>
</g>
<!-- Node53 -->
<g id="node21" class="node">
<title>Node53</title>
<g id="a_node21"><a xlink:href="classv8_1_1internal_1_1MachineType.html#a0c69167a6b2b3e99571243149b06639a" target="_top" xlink:title=" ">
<polygon fill="white" stroke="black" points="225,-15.5 225,-45.5 367,-45.5 367,-15.5 225,-15.5"/>
<text text-anchor="start" x="233" y="-33.5" font-family="Helvetica,sans-Serif" font-size="10.00">v8::internal::MachineType</text>
<text text-anchor="middle" x="296" y="-22.5" font-family="Helvetica,sans-Serif" font-size="10.00">::TaggedPointer</text>
</a>
</g>
</g>
<!-- Node1&#45;&gt;Node53 -->
<g id="edge39" class="edge">
<title>Node1&#45;&gt;Node53</title>
<path fill="none" stroke="midnightblue" d="M117.99,-171.24C142.65,-145.04 182.86,-104.5 222,-74.5 233.14,-65.96 246.04,-57.71 257.87,-50.71"/>
<polygon fill="midnightblue" stroke="midnightblue" points="259.77,-53.66 266.66,-45.61 256.26,-47.6 259.77,-53.66"/>
</g>
<!-- Node54 -->
<g id="node22" class="node">
<title>Node54</title>
<g id="a_node22"><a xlink:href="classv8_1_1internal_1_1MachineType.html#af01d8a847890c6768320d09f3a7b0d76" target="_top" xlink:title=" ">
<polygon fill="white" stroke="black" points="225,-83.5 225,-113.5 367,-113.5 367,-83.5 225,-83.5"/>
<text text-anchor="start" x="233" y="-101.5" font-family="Helvetica,sans-Serif" font-size="10.00">v8::internal::MachineType</text>
<text text-anchor="middle" x="296" y="-90.5" font-family="Helvetica,sans-Serif" font-size="10.00">::Uint32</text>
</a>
</g>
</g>
<!-- Node1&#45;&gt;Node54 -->
<g id="edge41" class="edge">
<title>Node1&#45;&gt;Node54</title>
<path fill="none" stroke="midnightblue" d="M146.81,-171.49C180.75,-154.77 224.14,-133.4 255.18,-118.11"/>
<polygon fill="midnightblue" stroke="midnightblue" points="256.97,-121.13 264.4,-113.57 253.88,-114.85 256.97,-121.13"/>
</g>
<!-- Node3 -->
<g id="node3" class="node">
<title>Node3</title>
<g id="a_node3"><a xlink:href="classv8_1_1internal_1_1compiler_1_1GraphAssembler.html#ac0a554bc1acbd68133cd6967a178122a" target="_top" xlink:title=" ">
<polygon fill="white" stroke="black" points="420,-251 420,-292 588,-292 588,-251 420,-251"/>
<text text-anchor="start" x="428" y="-280" font-family="Helvetica,sans-Serif" font-size="10.00">v8::internal::compiler</text>
<text text-anchor="start" x="428" y="-269" font-family="Helvetica,sans-Serif" font-size="10.00">::GraphAssembler::BitcastWord</text>
<text text-anchor="middle" x="504" y="-258" font-family="Helvetica,sans-Serif" font-size="10.00">ToTagged</text>
</a>
</g>
</g>
<!-- Node2&#45;&gt;Node3 -->
<g id="edge2" class="edge">
<title>Node2&#45;&gt;Node3</title>
<path fill="none" stroke="midnightblue" d="M370.21,-239.91C383.02,-242.96 396.5,-246.17 409.76,-249.32"/>
<polygon fill="midnightblue" stroke="midnightblue" points="409.31,-252.81 419.85,-251.72 410.93,-246 409.31,-252.81"/>
</g>
<!-- Node2&#45;&gt;Node40 -->
<g id="edge10" class="edge">
<title>Node2&#45;&gt;Node40</title>
<path fill="none" stroke="midnightblue" d="M311.97,-243.36C327.24,-264.98 351.29,-299.96 370,-331.5 387.65,-361.25 378.29,-379.8 406,-400.5 415.5,-407.6 426.95,-412.25 438.6,-415.26"/>
<polygon fill="midnightblue" stroke="midnightblue" points="437.87,-418.68 448.39,-417.42 439.37,-411.85 437.87,-418.68"/>
</g>
<!-- Node41 -->
<g id="node10" class="node">
<title>Node41</title>
<g id="a_node10"><a xlink:href="classv8_1_1internal_1_1compiler_1_1GraphAssembler.html#aedd2faf9158809eb8f54efec3e18ce26" target="_top" xlink:title=" ">
<polygon fill="white" stroke="black" points="415,-163.5 415,-193.5 593,-193.5 593,-163.5 415,-163.5"/>
<text text-anchor="start" x="423" y="-181.5" font-family="Helvetica,sans-Serif" font-size="10.00">v8::internal::compiler</text>
<text text-anchor="middle" x="504" y="-170.5" font-family="Helvetica,sans-Serif" font-size="10.00">::GraphAssembler::Int32Constant</text>
</a>
</g>
</g>
<!-- Node2&#45;&gt;Node41 -->
<g id="edge11" class="edge">
<title>Node2&#45;&gt;Node41</title>
<path fill="none" stroke="midnightblue" d="M370.21,-206.86C387.13,-203.25 405.22,-199.39 422.43,-195.71"/>
<polygon fill="midnightblue" stroke="midnightblue" points="423.4,-199.08 432.45,-193.57 421.94,-192.24 423.4,-199.08"/>
</g>
<!-- Node2&#45;&gt;Node45 -->
<g id="edge14" class="edge">
<title>Node2&#45;&gt;Node45</title>
<path fill="none" stroke="midnightblue" d="M324.83,-201.8C346.11,-186.81 376.69,-167.07 406,-154.5 411.77,-152.03 417.84,-149.75 424.01,-147.67"/>
<polygon fill="midnightblue" stroke="midnightblue" points="425.3,-150.94 433.77,-144.56 423.18,-144.27 425.3,-150.94"/>
</g>
<!-- Node46 -->
<g id="node14" class="node">
<title>Node46</title>
<g id="a_node14"><a xlink:href="classv8_1_1internal_1_1compiler_1_1GraphAssembler.html#ae06e6c32e13839d75abd8c52125f5386" target="_top" xlink:title=" ">
<polygon fill="white" stroke="black" points="437.5,-311.5 437.5,-341.5 570.5,-341.5 570.5,-311.5 437.5,-311.5"/>
<text text-anchor="start" x="445.5" y="-329.5" font-family="Helvetica,sans-Serif" font-size="10.00">v8::internal::compiler</text>
<text text-anchor="middle" x="504" y="-318.5" font-family="Helvetica,sans-Serif" font-size="10.00">::GraphAssembler::Load</text>
</a>
</g>
</g>
<!-- Node2&#45;&gt;Node46 -->
<g id="edge17" class="edge">
<title>Node2&#45;&gt;Node46</title>
<path fill="none" stroke="midnightblue" d="M320.02,-243.18C341.03,-261.03 373.64,-286.28 406,-301.5 412.92,-304.75 420.31,-307.63 427.83,-310.15"/>
<polygon fill="midnightblue" stroke="midnightblue" points="426.79,-313.5 437.38,-313.17 428.9,-306.82 426.79,-313.5"/>
</g>
<!-- Node47 -->
<g id="node15" class="node">
<title>Node47</title>
<g id="a_node15"><a xlink:href="classv8_1_1internal_1_1compiler_1_1GraphAssembler.html#a9fefea20bbf84cd9489c25cc5c07f0d6" target="_top" xlink:title=" ">
<polygon fill="white" stroke="black" points="406,-360.5 406,-390.5 602,-390.5 602,-360.5 406,-360.5"/>
<text text-anchor="start" x="414" y="-378.5" font-family="Helvetica,sans-Serif" font-size="10.00">v8::internal::compiler</text>
<text text-anchor="middle" x="504" y="-367.5" font-family="Helvetica,sans-Serif" font-size="10.00">::GraphAssembler::LoadRootRegister</text>
</a>
</g>
</g>
<!-- Node2&#45;&gt;Node47 -->
<g id="edge23" class="edge">
<title>Node2&#45;&gt;Node47</title>
<path fill="none" stroke="midnightblue" d="M308.84,-243.46C326.29,-272.35 361.67,-323.96 406,-351.5 408.8,-353.24 411.72,-354.85 414.72,-356.35"/>
<polygon fill="midnightblue" stroke="midnightblue" points="413.4,-359.59 423.96,-360.5 416.27,-353.21 413.4,-359.59"/>
</g>
<!-- Node48 -->
<g id="node16" class="node">
<title>Node48</title>
<g id="a_node16"><a xlink:href="classv8_1_1internal_1_1MachineType.html#ad6506fbd408bfcf98bdb82c4df37c299" target="_top" xlink:title=" ">
<polygon fill="white" stroke="black" points="433,-65.5 433,-95.5 575,-95.5 575,-65.5 433,-65.5"/>
<text text-anchor="start" x="441" y="-83.5" font-family="Helvetica,sans-Serif" font-size="10.00">v8::internal::MachineType</text>
<text text-anchor="middle" x="504" y="-72.5" font-family="Helvetica,sans-Serif" font-size="10.00">::Pointer</text>
</a>
</g>
</g>
<!-- Node2&#45;&gt;Node48 -->
<g id="edge27" class="edge">
<title>Node2&#45;&gt;Node48</title>
<path fill="none" stroke="midnightblue" d="M310.61,-201.78C329.05,-175.37 364.48,-130.19 406,-105.5 411.44,-102.26 417.3,-99.44 423.35,-96.98"/>
<polygon fill="midnightblue" stroke="midnightblue" points="424.81,-100.17 432.97,-93.41 422.37,-93.61 424.81,-100.17"/>
</g>
<!-- Node51 -->
<g id="node19" class="node">
<title>Node51</title>
<g id="a_node19"><a xlink:href="namespacev8_1_1internal.html#acdec713c25068019f935e35976f5b666" target="_top" xlink:title=" ">
<polygon fill="white" stroke="black" points="428,-213 428,-232 580,-232 580,-213 428,-213"/>
<text text-anchor="middle" x="504" y="-220" font-family="Helvetica,sans-Serif" font-size="10.00">v8::internal::UNREACHABLE</text>
</a>
</g>
</g>
<!-- Node2&#45;&gt;Node51 -->
<g id="edge30" class="edge">
<title>Node2&#45;&gt;Node51</title>
<path fill="none" stroke="midnightblue" d="M370.21,-222.5C385.58,-222.5 401.91,-222.5 417.68,-222.5"/>
<polygon fill="midnightblue" stroke="midnightblue" points="417.94,-226 427.94,-222.5 417.94,-219 417.94,-226"/>
</g>
<!-- Node4 -->
<g id="node4" class="node">
<title>Node4</title>
<g id="a_node4"><a xlink:href="classv8_1_1internal_1_1compiler_1_1GraphAssembler.html#aef9d42bc04b161cf3b3e02c765e1c633" target="_top" xlink:title=" ">
<polygon fill="white" stroke="red" points="655,-311.5 655,-341.5 809,-341.5 809,-311.5 655,-311.5"/>
<text text-anchor="start" x="663" y="-329.5" font-family="Helvetica,sans-Serif" font-size="10.00">v8::internal::compiler</text>
<text text-anchor="middle" x="732" y="-318.5" font-family="Helvetica,sans-Serif" font-size="10.00">::GraphAssembler::AddNode</text>
</a>
</g>
</g>
<!-- Node3&#45;&gt;Node4 -->
<g id="edge3" class="edge">
<title>Node3&#45;&gt;Node4</title>
<path fill="none" stroke="midnightblue" d="M588.19,-291.75C611.54,-297.43 636.73,-303.56 659.34,-309.06"/>
<polygon fill="midnightblue" stroke="midnightblue" points="658.66,-312.5 669.2,-311.46 660.31,-305.7 658.66,-312.5"/>
</g>
<!-- Node7 -->
<g id="node5" class="node">
<title>Node7</title>
<g id="a_node5"><a xlink:href="classv8_1_1internal_1_1compiler_1_1GraphAssembler.html#ad70aac411d7c80dfdec08c15f687dacc" target="_top" xlink:title=" ">
<polygon fill="white" stroke="black" points="862,-286.5 862,-316.5 1005,-316.5 1005,-286.5 862,-286.5"/>
<text text-anchor="start" x="870" y="-304.5" font-family="Helvetica,sans-Serif" font-size="10.00">v8::internal::compiler</text>
<text text-anchor="middle" x="933.5" y="-293.5" font-family="Helvetica,sans-Serif" font-size="10.00">::GraphAssembler::control</text>
</a>
</g>
</g>
<!-- Node3&#45;&gt;Node7 -->
<g id="edge6" class="edge">
<title>Node3&#45;&gt;Node7</title>
<path fill="none" stroke="midnightblue" d="M571.53,-250.93C604.53,-240.74 637.52,-230.57 638,-230.5 720.62,-218.05 746.03,-206.29 826,-230.5 857.59,-240.06 888.38,-262.43 908.66,-279.53"/>
<polygon fill="midnightblue" stroke="midnightblue" points="906.56,-282.34 916.41,-286.24 911.14,-277.05 906.56,-282.34"/>
</g>
<!-- Node8 -->
<g id="node6" class="node">
<title>Node8</title>
<g id="a_node6"><a xlink:href="classv8_1_1internal_1_1compiler_1_1GraphAssembler.html#a9415873a35173b66f2a8212f3d482aea" target="_top" xlink:title=" ">
<polygon fill="white" stroke="black" points="865,-345.5 865,-375.5 1002,-375.5 1002,-345.5 865,-345.5"/>
<text text-anchor="start" x="873" y="-363.5" font-family="Helvetica,sans-Serif" font-size="10.00">v8::internal::compiler</text>
<text text-anchor="middle" x="933.5" y="-352.5" font-family="Helvetica,sans-Serif" font-size="10.00">::GraphAssembler::effect</text>
</a>
</g>
</g>
<!-- Node3&#45;&gt;Node8 -->
<g id="edge7" class="edge">
<title>Node3&#45;&gt;Node8</title>
<path fill="none" stroke="midnightblue" d="M588.2,-268.56C654.45,-268.79 748.6,-274.93 826,-302.5 844.12,-308.95 845.3,-316.97 862,-326.5 870.76,-331.5 880.37,-336.46 889.6,-340.98"/>
<polygon fill="midnightblue" stroke="midnightblue" points="888.13,-344.16 898.66,-345.35 891.17,-337.85 888.13,-344.16"/>
</g>
<!-- Node38 -->
<g id="node7" class="node">
<title>Node38</title>
<g id="a_node7"><a xlink:href="classv8_1_1internal_1_1compiler_1_1GraphAssembler.html#aae15ca6ae4e3a312983552046558e5fd" target="_top" xlink:title=" ">
<polygon fill="white" stroke="black" points="663.5,-448.5 663.5,-478.5 800.5,-478.5 800.5,-448.5 663.5,-448.5"/>
<text text-anchor="start" x="671.5" y="-466.5" font-family="Helvetica,sans-Serif" font-size="10.00">v8::internal::compiler</text>
<text text-anchor="middle" x="732" y="-455.5" font-family="Helvetica,sans-Serif" font-size="10.00">::GraphAssembler::graph</text>
</a>
</g>
</g>
<!-- Node3&#45;&gt;Node38 -->
<g id="edge8" class="edge">
<title>Node3&#45;&gt;Node38</title>
<path fill="none" stroke="midnightblue" d="M588.44,-291.45C593.39,-294.61 597.98,-298.27 602,-302.5 645.34,-348.17 593.39,-395.08 638,-439.5 642.65,-444.13 648.07,-447.91 653.92,-450.98"/>
<polygon fill="midnightblue" stroke="midnightblue" points="652.84,-454.33 663.4,-455.25 655.72,-447.95 652.84,-454.33"/>
</g>
<!-- Node39 -->
<g id="node8" class="node">
<title>Node39</title>
<g id="a_node8"><a xlink:href="classv8_1_1internal_1_1compiler_1_1GraphAssembler.html#ae337c63e290ae993cf508b70debffb76" target="_top" xlink:title=" ">
<polygon fill="white" stroke="black" points="656,-399.5 656,-429.5 808,-429.5 808,-399.5 656,-399.5"/>
<text text-anchor="start" x="664" y="-417.5" font-family="Helvetica,sans-Serif" font-size="10.00">v8::internal::compiler</text>
<text text-anchor="middle" x="732" y="-406.5" font-family="Helvetica,sans-Serif" font-size="10.00">::GraphAssembler::machine</text>
</a>
</g>
</g>
<!-- Node3&#45;&gt;Node39 -->
<g id="edge9" class="edge">
<title>Node3&#45;&gt;Node39</title>
<path fill="none" stroke="midnightblue" d="M584.36,-292.12C590.57,-295.14 596.54,-298.58 602,-302.5 623.94,-318.27 618.53,-332.76 638,-351.5 655.03,-367.89 676.77,-382.88 694.95,-394.12"/>
<polygon fill="midnightblue" stroke="midnightblue" points="693.19,-397.14 703.55,-399.33 696.81,-391.15 693.19,-397.14"/>
</g>
<!-- Node4&#45;&gt;Node7 -->
<g id="edge4" class="edge">
<title>Node4&#45;&gt;Node7</title>
<path fill="none" stroke="midnightblue" d="M809.28,-316.94C823.17,-315.2 837.71,-313.38 851.74,-311.62"/>
<polygon fill="midnightblue" stroke="midnightblue" points="852.35,-315.07 861.84,-310.35 851.48,-308.13 852.35,-315.07"/>
</g>
<!-- Node4&#45;&gt;Node8 -->
<g id="edge5" class="edge">
<title>Node4&#45;&gt;Node8</title>
<path fill="none" stroke="midnightblue" d="M809.28,-339.5C824.11,-342.03 839.68,-344.68 854.57,-347.22"/>
<polygon fill="midnightblue" stroke="midnightblue" points="854.31,-350.72 864.75,-348.95 855.48,-343.82 854.31,-350.72"/>
</g>
<!-- Node42 -->
<g id="node11" class="node">
<title>Node42</title>
<g id="a_node11"><a xlink:href="classv8_1_1internal_1_1compiler_1_1GraphAssembler.html#a8f10d6a11fb705b9473d3180f47f5799" target="_top" xlink:title=" ">
<polygon fill="white" stroke="red" points="638,-147.5 638,-177.5 826,-177.5 826,-147.5 638,-147.5"/>
<text text-anchor="start" x="646" y="-165.5" font-family="Helvetica,sans-Serif" font-size="10.00">v8::internal::compiler</text>
<text text-anchor="middle" x="732" y="-154.5" font-family="Helvetica,sans-Serif" font-size="10.00">::GraphAssembler::AddClonedNode</text>
</a>
</g>
</g>
<!-- Node41&#45;&gt;Node42 -->
<g id="edge12" class="edge">
<title>Node41&#45;&gt;Node42</title>
<path fill="none" stroke="midnightblue" d="M593.02,-172.27C604.43,-171.46 616.2,-170.63 627.82,-169.8"/>
<polygon fill="midnightblue" stroke="midnightblue" points="628.26,-173.28 637.99,-169.08 627.77,-166.3 628.26,-173.28"/>
</g>
<!-- Node44 -->
<g id="node12" class="node">
<title>Node44</title>
<g id="a_node12"><a xlink:href="classv8_1_1internal_1_1compiler_1_1GraphAssembler.html#ac51da5b3131870bd8a1bfbcb662e7338" target="_top" xlink:title=" ">
<polygon fill="white" stroke="black" points="656,-98.5 656,-128.5 808,-128.5 808,-98.5 656,-98.5"/>
<text text-anchor="start" x="664" y="-116.5" font-family="Helvetica,sans-Serif" font-size="10.00">v8::internal::compiler</text>
<text text-anchor="middle" x="732" y="-105.5" font-family="Helvetica,sans-Serif" font-size="10.00">::GraphAssembler::mcgraph</text>
</a>
</g>
</g>
<!-- Node41&#45;&gt;Node44 -->
<g id="edge13" class="edge">
<title>Node41&#45;&gt;Node44</title>
<path fill="none" stroke="midnightblue" d="M572.24,-163.5C582.3,-160.78 592.48,-157.76 602,-154.5 618.56,-148.82 621.5,-144.35 638,-138.5 645.01,-136.02 652.4,-133.64 659.81,-131.41"/>
<polygon fill="midnightblue" stroke="midnightblue" points="660.93,-134.73 669.55,-128.57 658.97,-128.01 660.93,-134.73"/>
</g>
<!-- Node45&#45;&gt;Node42 -->
<g id="edge15" class="edge">
<title>Node45&#45;&gt;Node42</title>
<path fill="none" stroke="midnightblue" d="M593.67,-142.45C604.86,-144.08 616.39,-145.76 627.78,-147.43"/>
<polygon fill="midnightblue" stroke="midnightblue" points="627.34,-150.9 637.74,-148.88 628.35,-143.97 627.34,-150.9"/>
</g>
<!-- Node45&#45;&gt;Node44 -->
<g id="edge16" class="edge">
<title>Node45&#45;&gt;Node44</title>
<path fill="none" stroke="midnightblue" d="M593.67,-123.22C610.67,-122.02 628.44,-120.76 645.35,-119.56"/>
<polygon fill="midnightblue" stroke="midnightblue" points="646.01,-123.03 655.74,-118.83 645.52,-116.04 646.01,-123.03"/>
</g>
<!-- Node46&#45;&gt;Node4 -->
<g id="edge18" class="edge">
<title>Node46&#45;&gt;Node4</title>
<path fill="none" stroke="midnightblue" d="M570.67,-326.5C593.81,-326.5 620.18,-326.5 644.76,-326.5"/>
<polygon fill="midnightblue" stroke="midnightblue" points="644.8,-330 654.8,-326.5 644.8,-323 644.8,-330"/>
</g>
<!-- Node46&#45;&gt;Node7 -->
<g id="edge19" class="edge">
<title>Node46&#45;&gt;Node7</title>
<path fill="none" stroke="midnightblue" d="M570.65,-312.3C592.02,-308.31 615.92,-304.51 638,-302.5 710.08,-295.93 792.49,-296.32 851.77,-297.98"/>
<polygon fill="midnightblue" stroke="midnightblue" points="851.72,-301.48 861.82,-298.28 851.93,-294.48 851.72,-301.48"/>
</g>
<!-- Node46&#45;&gt;Node8 -->
<g id="edge20" class="edge">
<title>Node46&#45;&gt;Node8</title>
<path fill="none" stroke="midnightblue" d="M570.66,-340.93C592.03,-345.07 615.93,-349.1 638,-351.5 711.19,-359.45 795.17,-361.3 854.67,-361.41"/>
<polygon fill="midnightblue" stroke="midnightblue" points="854.74,-364.91 864.74,-361.41 854.75,-357.91 854.74,-364.91"/>
</g>
<!-- Node46&#45;&gt;Node38 -->
<g id="edge21" class="edge">
<title>Node46&#45;&gt;Node38</title>
<path fill="none" stroke="midnightblue" d="M570.69,-334.57C582.07,-338.32 593.09,-343.73 602,-351.5 633.84,-379.28 606.16,-411.72 638,-439.5 642.78,-443.67 648.2,-447.14 653.95,-450.01"/>
<polygon fill="midnightblue" stroke="midnightblue" points="652.67,-453.27 663.24,-454.05 655.46,-446.85 652.67,-453.27"/>
</g>
<!-- Node46&#45;&gt;Node39 -->
<g id="edge22" class="edge">
<title>Node46&#45;&gt;Node39</title>
<path fill="none" stroke="midnightblue" d="M570.59,-338.72C581.43,-342.04 592.29,-346.23 602,-351.5 621.08,-361.85 619.24,-373.58 638,-384.5 645.46,-388.84 653.62,-392.64 661.92,-395.94"/>
<polygon fill="midnightblue" stroke="midnightblue" points="660.72,-399.23 671.31,-399.46 663.18,-392.67 660.72,-399.23"/>
</g>
<!-- Node47&#45;&gt;Node4 -->
<g id="edge24" class="edge">
<title>Node47&#45;&gt;Node4</title>
<path fill="none" stroke="midnightblue" d="M574.34,-360.47C598.86,-355.15 626.61,-349.13 651.87,-343.66"/>
<polygon fill="midnightblue" stroke="midnightblue" points="652.76,-347.05 661.79,-341.51 651.27,-340.2 652.76,-347.05"/>
</g>
<!-- Node47&#45;&gt;Node38 -->
<g id="edge25" class="edge">
<title>Node47&#45;&gt;Node38</title>
<path fill="none" stroke="midnightblue" d="M581.13,-390.56C588.42,-393.33 595.51,-396.62 602,-400.5 622.25,-412.6 617.75,-427.39 638,-439.5 642.95,-442.46 648.26,-445.06 653.75,-447.34"/>
<polygon fill="midnightblue" stroke="midnightblue" points="652.51,-450.62 663.1,-450.89 654.99,-444.07 652.51,-450.62"/>
</g>
<!-- Node47&#45;&gt;Node39 -->
<g id="edge26" class="edge">
<title>Node47&#45;&gt;Node39</title>
<path fill="none" stroke="midnightblue" d="M592.05,-390.52C609.62,-393.55 628.07,-396.74 645.58,-399.76"/>
<polygon fill="midnightblue" stroke="midnightblue" points="645.32,-403.27 655.77,-401.52 646.51,-396.37 645.32,-403.27"/>
</g>
<!-- Node49 -->
<g id="node17" class="node">
<title>Node49</title>
<g id="a_node17"><a xlink:href="classv8_1_1internal_1_1MachineType.html#a78c5ae672a3417fcb51106e95fcbd6c6" target="_top" xlink:title=" ">
<polygon fill="white" stroke="black" points="661,-0.5 661,-30.5 803,-30.5 803,-0.5 661,-0.5"/>
<text text-anchor="start" x="669" y="-18.5" font-family="Helvetica,sans-Serif" font-size="10.00">v8::internal::MachineType</text>
<text text-anchor="middle" x="732" y="-7.5" font-family="Helvetica,sans-Serif" font-size="10.00">::MachineType</text>
</a>
</g>
</g>
<!-- Node48&#45;&gt;Node49 -->
<g id="edge28" class="edge">
<title>Node48&#45;&gt;Node49</title>
<path fill="none" stroke="midnightblue" d="M553.85,-65.43C578.95,-57.78 610.06,-48.46 638,-40.5 646.41,-38.11 655.27,-35.64 664.04,-33.25"/>
<polygon fill="midnightblue" stroke="midnightblue" points="665.14,-36.57 673.87,-30.57 663.31,-29.82 665.14,-36.57"/>
</g>
<!-- Node50 -->
<g id="node18" class="node">
<title>Node50</title>
<g id="a_node18"><a xlink:href="classv8_1_1internal_1_1MachineType.html#aba018b7917005c2607051556a2f85ffe" target="_top" xlink:title=" ">
<polygon fill="white" stroke="black" points="661,-49.5 661,-79.5 803,-79.5 803,-49.5 661,-49.5"/>
<text text-anchor="start" x="669" y="-67.5" font-family="Helvetica,sans-Serif" font-size="10.00">v8::internal::MachineType</text>
<text text-anchor="middle" x="732" y="-56.5" font-family="Helvetica,sans-Serif" font-size="10.00">::PointerRepresentation</text>
</a>
</g>
</g>
<!-- Node48&#45;&gt;Node50 -->
<g id="edge29" class="edge">
<title>Node48&#45;&gt;Node50</title>
<path fill="none" stroke="midnightblue" d="M575.27,-75.53C599.18,-73.83 626.1,-71.93 650.73,-70.18"/>
<polygon fill="midnightblue" stroke="midnightblue" points="651.05,-73.67 660.77,-69.47 650.55,-66.69 651.05,-73.67"/>
</g>
<!-- Node52&#45;&gt;Node4 -->
<g id="edge34" class="edge">
<title>Node52&#45;&gt;Node4</title>
<path fill="none" stroke="midnightblue" d="M583.29,-448.4C589.88,-445.64 596.22,-442.37 602,-438.5 624.16,-423.67 618.76,-408.97 638,-390.5 655.37,-373.82 677.5,-358.41 695.81,-346.89"/>
<polygon fill="midnightblue" stroke="midnightblue" points="697.78,-349.78 704.45,-341.55 694.11,-343.82 697.78,-349.78"/>
</g>
<!-- Node52&#45;&gt;Node7 -->
<g id="edge35" class="edge">
<title>Node52&#45;&gt;Node7</title>
<path fill="none" stroke="midnightblue" d="M569.55,-478.54C651.72,-496.02 787.64,-518.84 826,-488.5 880.45,-445.44 818.82,-390.86 862,-336.5 866.56,-330.76 872.3,-325.89 878.53,-321.78"/>
<polygon fill="midnightblue" stroke="midnightblue" points="880.43,-324.72 887.26,-316.63 876.87,-318.69 880.43,-324.72"/>
</g>
<!-- Node52&#45;&gt;Node8 -->
<g id="edge36" class="edge">
<title>Node52&#45;&gt;Node8</title>
<path fill="none" stroke="midnightblue" d="M530.46,-478.54C587.13,-509.89 726.48,-574.99 826,-521.5 879.97,-492.49 911.17,-422.81 924.6,-385.34"/>
<polygon fill="midnightblue" stroke="midnightblue" points="927.97,-386.28 927.92,-375.69 921.35,-384 927.97,-386.28"/>
</g>
<!-- Node52&#45;&gt;Node38 -->
<g id="edge37" class="edge">
<title>Node52&#45;&gt;Node38</title>
<path fill="none" stroke="midnightblue" d="M597.25,-463.5C615.8,-463.5 635.13,-463.5 653.13,-463.5"/>
<polygon fill="midnightblue" stroke="midnightblue" points="653.28,-467 663.28,-463.5 653.28,-460 653.28,-467"/>
</g>
<!-- Node52&#45;&gt;Node39 -->
<g id="edge38" class="edge">
<title>Node52&#45;&gt;Node39</title>
<path fill="none" stroke="midnightblue" d="M574.34,-448.47C598.86,-443.15 626.61,-437.13 651.87,-431.66"/>
<polygon fill="midnightblue" stroke="midnightblue" points="652.76,-435.05 661.79,-429.51 651.27,-428.2 652.76,-435.05"/>
</g>
<!-- Node53&#45;&gt;Node49 -->
<g id="edge40" class="edge">
<title>Node53&#45;&gt;Node49</title>
<path fill="none" stroke="midnightblue" d="M367.04,-24.82C379.99,-23.92 393.4,-23.1 406,-22.5 489.34,-18.55 584.81,-16.82 650.61,-16.08"/>
<polygon fill="midnightblue" stroke="midnightblue" points="650.95,-19.57 660.91,-15.96 650.87,-12.57 650.95,-19.57"/>
</g>
<!-- Node54&#45;&gt;Node49 -->
<g id="edge42" class="edge">
<title>Node54&#45;&gt;Node49</title>
<path fill="none" stroke="midnightblue" d="M329.72,-83.5C351.02,-74.33 379.65,-63.13 406,-56.5 488.1,-35.83 584.61,-25.34 651.01,-20.17"/>
<polygon fill="midnightblue" stroke="midnightblue" points="651.28,-23.66 660.99,-19.42 650.76,-16.68 651.28,-23.66"/>
</g>
</g>
</svg>
