<?xml version="1.0" encoding="UTF-8" standalone="no"?>
<!DOCTYPE svg PUBLIC "-//W3C//DTD SVG 1.1//EN"
 "http://www.w3.org/Graphics/SVG/1.1/DTD/svg11.dtd">
<!-- Generated by graphviz version 2.43.0 (0)
 -->
<!-- Title: v8::internal::maglev::StoreTaggedFieldNoWriteBarrier Pages: 1 -->
<svg width="195pt" height="229pt"
 viewBox="0.00 0.00 195.00 229.00" xmlns="http://www.w3.org/2000/svg" xmlns:xlink="http://www.w3.org/1999/xlink">
<g id="graph0" class="graph" transform="scale(1 1) rotate(0) translate(4 225)">
<title>v8::internal::maglev::StoreTaggedFieldNoWriteBarrier</title>
<polygon fill="white" stroke="transparent" points="-4,4 -4,-225 191,-225 191,4 -4,4"/>
<!-- Node1 -->
<g id="node1" class="node">
<title>Node1</title>
<g id="a_node1"><a xlink:title=" ">
<polygon fill="#bfbfbf" stroke="black" points="4,-0.5 4,-30.5 183,-30.5 183,-0.5 4,-0.5"/>
<text text-anchor="start" x="12" y="-18.5" font-family="Helvetica,sans-Serif" font-size="10.00">v8::internal::maglev</text>
<text text-anchor="middle" x="93.5" y="-7.5" font-family="Helvetica,sans-Serif" font-size="10.00">::StoreTaggedFieldNoWriteBarrier</text>
</a>
</g>
</g>
<!-- Node2 -->
<g id="node2" class="node">
<title>Node2</title>
<g id="a_node2"><a xlink:href="classv8_1_1internal_1_1maglev_1_1FixedInputNodeTMixin.html" target="_top" xlink:title=" ">
<polygon fill="white" stroke="black" points="0,-67.5 0,-97.5 187,-97.5 187,-67.5 0,-67.5"/>
<text text-anchor="start" x="8" y="-85.5" font-family="Helvetica,sans-Serif" font-size="10.00">FixedInputNodeT&lt; 2,</text>
<text text-anchor="middle" x="93.5" y="-74.5" font-family="Helvetica,sans-Serif" font-size="10.00"> StoreTaggedFieldNoWriteBarrier &gt;</text>
</a>
</g>
</g>
<!-- Node2&#45;&gt;Node1 -->
<g id="edge1" class="edge">
<title>Node2&#45;&gt;Node1</title>
<path fill="none" stroke="midnightblue" d="M93.5,-57.11C93.5,-48.15 93.5,-38.32 93.5,-30.58"/>
<polygon fill="midnightblue" stroke="midnightblue" points="90,-57.4 93.5,-67.4 97,-57.4 90,-57.4"/>
</g>
<!-- Node3 -->
<g id="node3" class="node">
<title>Node3</title>
<g id="a_node3"><a xlink:href="classv8_1_1internal_1_1maglev_1_1NodeTMixin.html" target="_top" xlink:title=" ">
<polygon fill="white" stroke="black" points="7.5,-134.5 7.5,-164.5 179.5,-164.5 179.5,-134.5 7.5,-134.5"/>
<text text-anchor="start" x="15.5" y="-152.5" font-family="Helvetica,sans-Serif" font-size="10.00">v8::internal::maglev</text>
<text text-anchor="middle" x="93.5" y="-141.5" font-family="Helvetica,sans-Serif" font-size="10.00">::NodeTMixin&lt; Base, Derived &gt;</text>
</a>
</g>
</g>
<!-- Node3&#45;&gt;Node2 -->
<g id="edge2" class="edge">
<title>Node3&#45;&gt;Node2</title>
<path fill="none" stroke="midnightblue" d="M93.5,-124.11C93.5,-115.15 93.5,-105.32 93.5,-97.58"/>
<polygon fill="midnightblue" stroke="midnightblue" points="90,-124.4 93.5,-134.4 97,-124.4 90,-124.4"/>
</g>
<!-- Node4 -->
<g id="node4" class="node">
<title>Node4</title>
<g id="a_node4"><a xlink:title=" ">
<polygon fill="white" stroke="#bfbfbf" points="73,-201.5 73,-220.5 114,-220.5 114,-201.5 73,-201.5"/>
<text text-anchor="middle" x="93.5" y="-208.5" font-family="Helvetica,sans-Serif" font-size="10.00">Base</text>
</a>
</g>
</g>
<!-- Node4&#45;&gt;Node3 -->
<g id="edge3" class="edge">
<title>Node4&#45;&gt;Node3</title>
<path fill="none" stroke="midnightblue" d="M93.5,-191.23C93.5,-182.59 93.5,-172.5 93.5,-164.52"/>
<polygon fill="midnightblue" stroke="midnightblue" points="90,-191.48 93.5,-201.48 97,-191.48 90,-191.48"/>
</g>
</g>
</svg>
