<?xml version="1.0" encoding="UTF-8" standalone="no"?>
<!DOCTYPE svg PUBLIC "-//W3C//DTD SVG 1.1//EN"
 "http://www.w3.org/Graphics/SVG/1.1/DTD/svg11.dtd">
<!-- Generated by graphviz version 2.43.0 (0)
 -->
<!-- Title: v8::internal::torque::Declarations::Lookup Pages: 1 -->
<svg width="627pt" height="137pt"
 viewBox="0.00 0.00 627.00 137.00" xmlns="http://www.w3.org/2000/svg" xmlns:xlink="http://www.w3.org/1999/xlink">
<g id="graph0" class="graph" transform="scale(1 1) rotate(0) translate(4 133)">
<title>v8::internal::torque::Declarations::Lookup</title>
<polygon fill="white" stroke="transparent" points="-4,4 -4,-133 623,-133 623,4 -4,4"/>
<!-- Node1 -->
<g id="node1" class="node">
<title>Node1</title>
<g id="a_node1"><a xlink:title=" ">
<polygon fill="#bfbfbf" stroke="black" points="0,-24.5 0,-54.5 125,-54.5 125,-24.5 0,-24.5"/>
<text text-anchor="start" x="8" y="-42.5" font-family="Helvetica,sans-Serif" font-size="10.00">v8::internal::torque</text>
<text text-anchor="middle" x="62.5" y="-31.5" font-family="Helvetica,sans-Serif" font-size="10.00">::Declarations::Lookup</text>
</a>
</g>
</g>
<!-- Node2 -->
<g id="node2" class="node">
<title>Node2</title>
<g id="a_node2"><a xlink:href="namespacev8_1_1internal_1_1torque.html#a32f384957418edc0b1e63188bbb2e85e" target="_top" xlink:title=" ">
<polygon fill="white" stroke="black" points="175.5,-49.5 175.5,-79.5 285.5,-79.5 285.5,-49.5 175.5,-49.5"/>
<text text-anchor="start" x="183.5" y="-67.5" font-family="Helvetica,sans-Serif" font-size="10.00">v8::internal::torque</text>
<text text-anchor="middle" x="230.5" y="-56.5" font-family="Helvetica,sans-Serif" font-size="10.00">::ReportError</text>
</a>
</g>
</g>
<!-- Node1&#45;&gt;Node2 -->
<g id="edge1" class="edge">
<title>Node1&#45;&gt;Node2</title>
<path fill="none" stroke="midnightblue" d="M125.31,-48.81C138.39,-50.78 152.21,-52.86 165.37,-54.84"/>
<polygon fill="midnightblue" stroke="midnightblue" points="164.87,-58.31 175.28,-56.33 165.91,-51.38 164.87,-58.31"/>
</g>
<!-- Node7 -->
<g id="node6" class="node">
<title>Node7</title>
<g id="a_node6"><a xlink:href="classv8_1_1internal_1_1torque_1_1Declarations.html#aa3144a7756187aa136d857ecf3f83cb2" target="_top" xlink:title=" ">
<polygon fill="white" stroke="black" points="161,-0.5 161,-30.5 300,-30.5 300,-0.5 161,-0.5"/>
<text text-anchor="start" x="169" y="-18.5" font-family="Helvetica,sans-Serif" font-size="10.00">v8::internal::torque</text>
<text text-anchor="middle" x="230.5" y="-7.5" font-family="Helvetica,sans-Serif" font-size="10.00">::Declarations::TryLookup</text>
</a>
</g>
</g>
<!-- Node1&#45;&gt;Node7 -->
<g id="edge5" class="edge">
<title>Node1&#45;&gt;Node7</title>
<path fill="none" stroke="midnightblue" d="M125.31,-30.56C133.66,-29.36 142.31,-28.11 150.91,-26.86"/>
<polygon fill="midnightblue" stroke="midnightblue" points="151.54,-30.31 160.94,-25.41 150.54,-23.38 151.54,-30.31"/>
</g>
<!-- Node3 -->
<g id="node3" class="node">
<title>Node3</title>
<g id="a_node3"><a xlink:href="namespacev8_1_1internal_1_1torque.html#af38d669a8f4ceb878fa931798fe7451c" target="_top" xlink:title=" ">
<polygon fill="white" stroke="black" points="349.5,-98.5 349.5,-128.5 459.5,-128.5 459.5,-98.5 349.5,-98.5"/>
<text text-anchor="start" x="357.5" y="-116.5" font-family="Helvetica,sans-Serif" font-size="10.00">v8::internal::torque</text>
<text text-anchor="middle" x="404.5" y="-105.5" font-family="Helvetica,sans-Serif" font-size="10.00">::Error</text>
</a>
</g>
</g>
<!-- Node2&#45;&gt;Node3 -->
<g id="edge2" class="edge">
<title>Node2&#45;&gt;Node3</title>
<path fill="none" stroke="midnightblue" d="M284.51,-79.6C302.33,-84.68 322.38,-90.39 340.87,-95.66"/>
<polygon fill="midnightblue" stroke="midnightblue" points="340.09,-99.07 350.67,-98.45 342.01,-92.34 340.09,-99.07"/>
</g>
<!-- Node6 -->
<g id="node5" class="node">
<title>Node6</title>
<g id="a_node5"><a xlink:href="classv8_1_1internal_1_1torque_1_1MessageBuilder.html#aa1b8409cd4d69d3ff250c0d7b18300a3" target="_top" xlink:title=" ">
<polygon fill="white" stroke="black" points="336,-49.5 336,-79.5 473,-79.5 473,-49.5 336,-49.5"/>
<text text-anchor="start" x="344" y="-67.5" font-family="Helvetica,sans-Serif" font-size="10.00">v8::internal::torque</text>
<text text-anchor="middle" x="404.5" y="-56.5" font-family="Helvetica,sans-Serif" font-size="10.00">::MessageBuilder::Throw</text>
</a>
</g>
</g>
<!-- Node2&#45;&gt;Node6 -->
<g id="edge4" class="edge">
<title>Node2&#45;&gt;Node6</title>
<path fill="none" stroke="midnightblue" d="M285.92,-64.5C298.55,-64.5 312.23,-64.5 325.65,-64.5"/>
<polygon fill="midnightblue" stroke="midnightblue" points="325.83,-68 335.83,-64.5 325.83,-61 325.83,-68"/>
</g>
<!-- Node4 -->
<g id="node4" class="node">
<title>Node4</title>
<g id="a_node4"><a xlink:href="namespacev8_1_1internal_1_1torque.html#a5a2b0ddb7072fab76bc96b0a777c373b" target="_top" xlink:title=" ">
<polygon fill="white" stroke="red" points="509,-98.5 509,-128.5 619,-128.5 619,-98.5 509,-98.5"/>
<text text-anchor="start" x="517" y="-116.5" font-family="Helvetica,sans-Serif" font-size="10.00">v8::internal::torque</text>
<text text-anchor="middle" x="564" y="-105.5" font-family="Helvetica,sans-Serif" font-size="10.00">::Message</text>
</a>
</g>
</g>
<!-- Node3&#45;&gt;Node4 -->
<g id="edge3" class="edge">
<title>Node3&#45;&gt;Node4</title>
<path fill="none" stroke="midnightblue" d="M459.7,-113.5C472.27,-113.5 485.77,-113.5 498.72,-113.5"/>
<polygon fill="midnightblue" stroke="midnightblue" points="498.96,-117 508.96,-113.5 498.96,-110 498.96,-117"/>
</g>
<!-- Node8 -->
<g id="node7" class="node">
<title>Node8</title>
<g id="a_node7"><a xlink:href="namespacev8_1_1internal_1_1compiler_1_1turboshaft.html#a2b5e79bd829824237e784a6cde29309e" target="_top" xlink:title=" ">
<polygon fill="white" stroke="black" points="344,-0.5 344,-30.5 465,-30.5 465,-0.5 344,-0.5"/>
<text text-anchor="start" x="352" y="-18.5" font-family="Helvetica,sans-Serif" font-size="10.00">v8::internal::compiler</text>
<text text-anchor="middle" x="404.5" y="-7.5" font-family="Helvetica,sans-Serif" font-size="10.00">::turboshaft::Get</text>
</a>
</g>
</g>
<!-- Node7&#45;&gt;Node8 -->
<g id="edge6" class="edge">
<title>Node7&#45;&gt;Node8</title>
<path fill="none" stroke="midnightblue" d="M300.47,-15.5C311.49,-15.5 322.9,-15.5 333.93,-15.5"/>
<polygon fill="midnightblue" stroke="midnightblue" points="333.93,-19 343.93,-15.5 333.93,-12 333.93,-19"/>
</g>
<!-- Node9 -->
<g id="node8" class="node">
<title>Node9</title>
<g id="a_node8"><a xlink:href="flag-definitions_8h.html#a06b2b7e5d08192bb493bba69cb19a7a8" target="_top" xlink:title=" ">
<polygon fill="white" stroke="black" points="542,-6 542,-25 586,-25 586,-6 542,-6"/>
<text text-anchor="middle" x="564" y="-13" font-family="Helvetica,sans-Serif" font-size="10.00">graph</text>
</a>
</g>
</g>
<!-- Node8&#45;&gt;Node9 -->
<g id="edge7" class="edge">
<title>Node8&#45;&gt;Node9</title>
<path fill="none" stroke="midnightblue" d="M465.04,-15.5C487.72,-15.5 512.67,-15.5 531.71,-15.5"/>
<polygon fill="midnightblue" stroke="midnightblue" points="531.9,-19 541.9,-15.5 531.9,-12 531.9,-19"/>
</g>
</g>
</svg>
