<?xml version="1.0" encoding="UTF-8" standalone="no"?>
<!DOCTYPE svg PUBLIC "-//W3C//DTD SVG 1.1//EN"
 "http://www.w3.org/Graphics/SVG/1.1/DTD/svg11.dtd">
<!-- Generated by graphviz version 2.43.0 (0)
 -->
<!-- Title: v8_inspector::V8InspectorImpl::forEachContext Pages: 1 -->
<svg width="889pt" height="803pt"
 viewBox="0.00 0.00 889.00 803.00" xmlns="http://www.w3.org/2000/svg" xmlns:xlink="http://www.w3.org/1999/xlink">
<g id="graph0" class="graph" transform="scale(1 1) rotate(0) translate(4 799)">
<title>v8_inspector::V8InspectorImpl::forEachContext</title>
<polygon fill="white" stroke="transparent" points="-4,4 -4,-799 885,-799 885,4 -4,4"/>
<!-- Node1 -->
<g id="node1" class="node">
<title>Node1</title>
<g id="a_node1"><a xlink:title=" ">
<polygon fill="#bfbfbf" stroke="black" points="738,-176.5 738,-206.5 881,-206.5 881,-176.5 738,-176.5"/>
<text text-anchor="start" x="746" y="-194.5" font-family="Helvetica,sans-Serif" font-size="10.00">v8_inspector::V8Inspector</text>
<text text-anchor="middle" x="809.5" y="-183.5" font-family="Helvetica,sans-Serif" font-size="10.00">Impl::forEachContext</text>
</a>
</g>
</g>
<!-- Node2 -->
<g id="node2" class="node">
<title>Node2</title>
<g id="a_node2"><a xlink:href="classv8__inspector_1_1V8RuntimeAgentImpl.html#a6d12bae192c4ce082f5e19acea54a67f" target="_top" xlink:title=" ">
<polygon fill="white" stroke="black" points="511.5,-739.5 511.5,-769.5 678.5,-769.5 678.5,-739.5 511.5,-739.5"/>
<text text-anchor="start" x="519.5" y="-757.5" font-family="Helvetica,sans-Serif" font-size="10.00">v8_inspector::V8RuntimeAgent</text>
<text text-anchor="middle" x="595" y="-746.5" font-family="Helvetica,sans-Serif" font-size="10.00">Impl::addBinding</text>
</a>
</g>
</g>
<!-- Node1&#45;&gt;Node2 -->
<g id="edge1" class="edge">
<title>Node1&#45;&gt;Node2</title>
<path fill="none" stroke="midnightblue" d="M806.28,-216.87C797.73,-309.58 764.21,-628.74 702,-706.5 689.88,-721.64 671.95,-732.18 654.26,-739.43"/>
<polygon fill="midnightblue" stroke="midnightblue" points="809.79,-216.99 807.2,-206.71 802.81,-216.36 809.79,-216.99"/>
</g>
<!-- Node4 -->
<g id="node4" class="node">
<title>Node4</title>
<g id="a_node4"><a xlink:href="classv8__inspector_1_1V8InspectorSessionImpl.html#abd16d965cc8b56c31d3067dad65cc5fc" target="_top" xlink:title=" ">
<polygon fill="white" stroke="black" points="500.5,-666.5 500.5,-696.5 689.5,-696.5 689.5,-666.5 500.5,-666.5"/>
<text text-anchor="start" x="508.5" y="-684.5" font-family="Helvetica,sans-Serif" font-size="10.00">v8_inspector::V8Inspector</text>
<text text-anchor="middle" x="595" y="-673.5" font-family="Helvetica,sans-Serif" font-size="10.00">SessionImpl::discardInjectedScripts</text>
</a>
</g>
</g>
<!-- Node1&#45;&gt;Node4 -->
<g id="edge3" class="edge">
<title>Node1&#45;&gt;Node4</title>
<path fill="none" stroke="midnightblue" d="M797.85,-216.07C760.02,-303.29 632.81,-596.62 602.52,-666.48"/>
<polygon fill="midnightblue" stroke="midnightblue" points="801.14,-217.27 801.91,-206.7 794.72,-214.48 801.14,-217.27"/>
</g>
<!-- Node13 -->
<g id="node9" class="node">
<title>Node13</title>
<g id="a_node9"><a xlink:href="classv8__inspector_1_1V8InspectorSessionImpl.html#a8340dcfb45a32ce543273cfbf5367037" target="_top" xlink:title=" ">
<polygon fill="white" stroke="black" points="505.5,-396.5 505.5,-426.5 684.5,-426.5 684.5,-396.5 505.5,-396.5"/>
<text text-anchor="start" x="513.5" y="-414.5" font-family="Helvetica,sans-Serif" font-size="10.00">v8_inspector::V8Inspector</text>
<text text-anchor="middle" x="595" y="-403.5" font-family="Helvetica,sans-Serif" font-size="10.00">SessionImpl::releaseObjectGroup</text>
</a>
</g>
</g>
<!-- Node1&#45;&gt;Node13 -->
<g id="edge8" class="edge">
<title>Node1&#45;&gt;Node13</title>
<path fill="none" stroke="midnightblue" d="M786.68,-214.09C743.34,-258.96 647.44,-358.24 610.71,-396.27"/>
<polygon fill="midnightblue" stroke="midnightblue" points="789.46,-216.25 793.89,-206.62 784.43,-211.38 789.46,-216.25"/>
</g>
<!-- Node30 -->
<g id="node22" class="node">
<title>Node30</title>
<g id="a_node22"><a xlink:href="classv8__inspector_1_1V8InspectorSessionImpl.html#ae79b1ea64009b3ec5f9bd5346566444a" target="_top" xlink:title=" ">
<polygon fill="white" stroke="black" points="511.5,-176.5 511.5,-206.5 678.5,-206.5 678.5,-176.5 511.5,-176.5"/>
<text text-anchor="start" x="519.5" y="-194.5" font-family="Helvetica,sans-Serif" font-size="10.00">v8_inspector::V8Inspector</text>
<text text-anchor="middle" x="595" y="-183.5" font-family="Helvetica,sans-Serif" font-size="10.00">SessionImpl::reportAllContexts</text>
</a>
</g>
</g>
<!-- Node1&#45;&gt;Node30 -->
<g id="edge21" class="edge">
<title>Node1&#45;&gt;Node30</title>
<path fill="none" stroke="midnightblue" d="M727.37,-191.5C711.4,-191.5 694.62,-191.5 678.59,-191.5"/>
<polygon fill="midnightblue" stroke="midnightblue" points="727.74,-195 737.74,-191.5 727.74,-188 727.74,-195"/>
</g>
<!-- Node32 -->
<g id="node24" class="node">
<title>Node32</title>
<g id="a_node24"><a xlink:href="classv8__inspector_1_1V8RuntimeAgentImpl.html#a2fbc238e620779f822973a56cd8ea233" target="_top" xlink:title=" ">
<polygon fill="white" stroke="black" points="17,-132.5 17,-162.5 184,-162.5 184,-132.5 17,-132.5"/>
<text text-anchor="start" x="25" y="-150.5" font-family="Helvetica,sans-Serif" font-size="10.00">v8_inspector::V8RuntimeAgent</text>
<text text-anchor="middle" x="100.5" y="-139.5" font-family="Helvetica,sans-Serif" font-size="10.00">Impl::restore</text>
</a>
</g>
</g>
<!-- Node1&#45;&gt;Node32 -->
<g id="edge26" class="edge">
<title>Node1&#45;&gt;Node32</title>
<path fill="none" stroke="midnightblue" d="M741.31,-174.35C728.34,-171.61 714.81,-169.14 702,-167.5 518.35,-143.96 300.68,-143.45 184.46,-145.35"/>
<polygon fill="midnightblue" stroke="midnightblue" points="740.58,-177.77 751.09,-176.48 742.07,-170.93 740.58,-177.77"/>
</g>
<!-- Node33 -->
<g id="node25" class="node">
<title>Node33</title>
<g id="a_node25"><a xlink:href="classv8__inspector_1_1V8RuntimeAgentImpl.html#ae4867e1e4cd63621c811a9b417d8c89d" target="_top" xlink:title=" ">
<polygon fill="white" stroke="black" points="511.5,-88.5 511.5,-118.5 678.5,-118.5 678.5,-88.5 511.5,-88.5"/>
<text text-anchor="start" x="519.5" y="-106.5" font-family="Helvetica,sans-Serif" font-size="10.00">v8_inspector::V8RuntimeAgent</text>
<text text-anchor="middle" x="595" y="-95.5" font-family="Helvetica,sans-Serif" font-size="10.00">Impl::reset</text>
</a>
</g>
</g>
<!-- Node1&#45;&gt;Node33 -->
<g id="edge24" class="edge">
<title>Node1&#45;&gt;Node33</title>
<path fill="none" stroke="midnightblue" d="M775.64,-171.12C755.05,-158.98 727.64,-143.96 702,-133.5 688.01,-127.79 672.56,-122.75 657.88,-118.51"/>
<polygon fill="midnightblue" stroke="midnightblue" points="773.92,-174.17 784.3,-176.29 777.51,-168.16 773.92,-174.17"/>
</g>
<!-- Node35 -->
<g id="node27" class="node">
<title>Node35</title>
<g id="a_node27"><a xlink:href="classv8__inspector_1_1V8InspectorSessionImpl.html#aa4365dda3f50b5d7dc449ed8bdfbd3ae" target="_top" xlink:title=" ">
<polygon fill="white" stroke="black" points="488,-28 488,-69 702,-69 702,-28 488,-28"/>
<text text-anchor="start" x="496" y="-57" font-family="Helvetica,sans-Serif" font-size="10.00">v8_inspector::V8Inspector</text>
<text text-anchor="start" x="496" y="-46" font-family="Helvetica,sans-Serif" font-size="10.00">SessionImpl::setCustomObjectFormatter</text>
<text text-anchor="middle" x="595" y="-35" font-family="Helvetica,sans-Serif" font-size="10.00">Enabled</text>
</a>
</g>
</g>
<!-- Node1&#45;&gt;Node35 -->
<g id="edge27" class="edge">
<title>Node1&#45;&gt;Node35</title>
<path fill="none" stroke="midnightblue" d="M792.19,-168.07C773.31,-142.65 739.91,-102.62 702,-79.5 695.53,-75.56 688.54,-72.09 681.33,-69.05"/>
<polygon fill="midnightblue" stroke="midnightblue" points="789.54,-170.37 798.25,-176.4 795.2,-166.25 789.54,-170.37"/>
</g>
<!-- Node3 -->
<g id="node3" class="node">
<title>Node3</title>
<g id="a_node3"><a xlink:href="classv8__inspector_1_1V8RuntimeAgentImpl.html#a62b07b511ea8bd42fbcb22a75c964a5a" target="_top" xlink:title=" ">
<polygon fill="white" stroke="black" points="261,-764.5 261,-794.5 428,-794.5 428,-764.5 261,-764.5"/>
<text text-anchor="start" x="269" y="-782.5" font-family="Helvetica,sans-Serif" font-size="10.00">v8_inspector::V8RuntimeAgent</text>
<text text-anchor="middle" x="344.5" y="-771.5" font-family="Helvetica,sans-Serif" font-size="10.00">Impl::addBindings</text>
</a>
</g>
</g>
<!-- Node2&#45;&gt;Node3 -->
<g id="edge2" class="edge">
<title>Node2&#45;&gt;Node3</title>
<path fill="none" stroke="midnightblue" d="M501.12,-763.84C477.22,-766.25 451.66,-768.82 428.31,-771.17"/>
<polygon fill="midnightblue" stroke="midnightblue" points="501.65,-767.31 511.25,-762.82 500.95,-760.34 501.65,-767.31"/>
</g>
<!-- Node5 -->
<g id="node5" class="node">
<title>Node5</title>
<g id="a_node5"><a xlink:href="classv8__inspector_1_1V8InspectorSessionImpl.html#a1755db5e3ef9f086d9537d8990cd19c5" target="_top" xlink:title=" ">
<polygon fill="white" stroke="black" points="273,-715.5 273,-745.5 416,-745.5 416,-715.5 273,-715.5"/>
<text text-anchor="start" x="281" y="-733.5" font-family="Helvetica,sans-Serif" font-size="10.00">v8_inspector::V8Inspector</text>
<text text-anchor="middle" x="344.5" y="-722.5" font-family="Helvetica,sans-Serif" font-size="10.00">SessionImpl::reset</text>
</a>
</g>
</g>
<!-- Node4&#45;&gt;Node5 -->
<g id="edge4" class="edge">
<title>Node4&#45;&gt;Node5</title>
<path fill="none" stroke="midnightblue" d="M507.74,-698.51C477.8,-704.41 444.61,-710.96 416.09,-716.58"/>
<polygon fill="midnightblue" stroke="midnightblue" points="508.62,-701.9 517.75,-696.53 507.26,-695.04 508.62,-701.9"/>
</g>
<!-- Node12 -->
<g id="node8" class="node">
<title>Node12</title>
<g id="a_node8"><a xlink:href="classv8__inspector_1_1V8InspectorSessionImpl.html#ac37bc3a2f8333e8bbf6297df0d913fb5" target="_top" xlink:title=" ">
<polygon fill="white" stroke="black" points="241,-666.5 241,-696.5 448,-696.5 448,-666.5 241,-666.5"/>
<text text-anchor="start" x="249" y="-684.5" font-family="Helvetica,sans-Serif" font-size="10.00">v8_inspector::V8Inspector</text>
<text text-anchor="middle" x="344.5" y="-673.5" font-family="Helvetica,sans-Serif" font-size="10.00">SessionImpl::~V8InspectorSessionImpl</text>
</a>
</g>
</g>
<!-- Node4&#45;&gt;Node12 -->
<g id="edge7" class="edge">
<title>Node4&#45;&gt;Node12</title>
<path fill="none" stroke="midnightblue" d="M490.33,-681.5C476.38,-681.5 462.08,-681.5 448.16,-681.5"/>
<polygon fill="midnightblue" stroke="midnightblue" points="490.41,-685 500.41,-681.5 490.41,-678 490.41,-685"/>
</g>
<!-- Node6 -->
<g id="node6" class="node">
<title>Node6</title>
<g id="a_node6"><a xlink:href="classv8__inspector_1_1InjectedScript_1_1Scope.html#aa84185aad25b80098114b396c276bb01" target="_top" xlink:title=" ">
<polygon fill="white" stroke="red" points="13.5,-764.5 13.5,-794.5 187.5,-794.5 187.5,-764.5 13.5,-764.5"/>
<text text-anchor="start" x="21.5" y="-782.5" font-family="Helvetica,sans-Serif" font-size="10.00">v8_inspector::InjectedScript</text>
<text text-anchor="middle" x="100.5" y="-771.5" font-family="Helvetica,sans-Serif" font-size="10.00">::Scope::installCommandLineAPI</text>
</a>
</g>
</g>
<!-- Node5&#45;&gt;Node6 -->
<g id="edge5" class="edge">
<title>Node5&#45;&gt;Node6</title>
<path fill="none" stroke="midnightblue" d="M263.02,-746.79C234.81,-752.51 203.27,-758.89 175.6,-764.5"/>
<polygon fill="midnightblue" stroke="midnightblue" points="263.75,-750.22 272.85,-744.8 262.36,-743.36 263.75,-750.22"/>
</g>
<!-- Node11 -->
<g id="node7" class="node">
<title>Node11</title>
<g id="a_node7"><a xlink:href="classv8__inspector_1_1V8InspectorImpl.html#a91d12fa9b6bbda4582226f37f50b2491" target="_top" xlink:title=" ">
<polygon fill="white" stroke="black" points="29,-715.5 29,-745.5 172,-745.5 172,-715.5 29,-715.5"/>
<text text-anchor="start" x="37" y="-733.5" font-family="Helvetica,sans-Serif" font-size="10.00">v8_inspector::V8Inspector</text>
<text text-anchor="middle" x="100.5" y="-722.5" font-family="Helvetica,sans-Serif" font-size="10.00">Impl::resetContextGroup</text>
</a>
</g>
</g>
<!-- Node5&#45;&gt;Node11 -->
<g id="edge6" class="edge">
<title>Node5&#45;&gt;Node11</title>
<path fill="none" stroke="midnightblue" d="M262.66,-730.5C233.38,-730.5 200.57,-730.5 172.23,-730.5"/>
<polygon fill="midnightblue" stroke="midnightblue" points="262.85,-734 272.85,-730.5 262.85,-727 262.85,-734"/>
</g>
<!-- Node14 -->
<g id="node10" class="node">
<title>Node14</title>
<g id="a_node10"><a xlink:href="classv8__inspector_1_1V8ConsoleMessageStorage.html#a2a9fab243458ab6981a42b70f253bac9" target="_top" xlink:title=" ">
<polygon fill="white" stroke="black" points="254.5,-617.5 254.5,-647.5 434.5,-647.5 434.5,-617.5 254.5,-617.5"/>
<text text-anchor="start" x="262.5" y="-635.5" font-family="Helvetica,sans-Serif" font-size="10.00">v8_inspector::V8ConsoleMessage</text>
<text text-anchor="middle" x="344.5" y="-624.5" font-family="Helvetica,sans-Serif" font-size="10.00">Storage::clear</text>
</a>
</g>
</g>
<!-- Node13&#45;&gt;Node14 -->
<g id="edge9" class="edge">
<title>Node13&#45;&gt;Node14</title>
<path fill="none" stroke="midnightblue" d="M583.53,-435.99C564.13,-478.26 518.43,-564.6 452,-608.5 446.62,-612.05 440.8,-615.09 434.73,-617.67"/>
<polygon fill="midnightblue" stroke="midnightblue" points="586.79,-437.27 587.69,-426.71 580.4,-434.41 586.79,-437.27"/>
</g>
<!-- Node22 -->
<g id="node14" class="node">
<title>Node22</title>
<g id="a_node14"><a xlink:href="classv8__inspector_1_1V8RuntimeAgentImpl.html#ab4905f5f707b9060b3df0f2c6b813c9c" target="_top" xlink:title=" ">
<polygon fill="white" stroke="black" points="261,-568.5 261,-598.5 428,-598.5 428,-568.5 261,-568.5"/>
<text text-anchor="start" x="269" y="-586.5" font-family="Helvetica,sans-Serif" font-size="10.00">v8_inspector::V8RuntimeAgent</text>
<text text-anchor="middle" x="344.5" y="-575.5" font-family="Helvetica,sans-Serif" font-size="10.00">Impl::releaseObjectGroup</text>
</a>
</g>
</g>
<!-- Node13&#45;&gt;Node22 -->
<g id="edge13" class="edge">
<title>Node13&#45;&gt;Node22</title>
<path fill="none" stroke="midnightblue" d="M578.25,-435.11C554.82,-468.29 507.51,-528.17 452,-559.5 444.57,-563.69 436.47,-567.15 428.15,-570.01"/>
<polygon fill="midnightblue" stroke="midnightblue" points="581.13,-437.1 583.95,-426.89 575.38,-433.11 581.13,-437.1"/>
</g>
<!-- Node23 -->
<g id="node15" class="node">
<title>Node23</title>
<g id="a_node15"><a xlink:href="classv8__inspector_1_1V8InspectorSessionImpl.html#afce8977bb3f962a470696bb88ff138f8" target="_top" xlink:title=" ">
<polygon fill="white" stroke="black" points="255,-519.5 255,-549.5 434,-549.5 434,-519.5 255,-519.5"/>
<text text-anchor="start" x="263" y="-537.5" font-family="Helvetica,sans-Serif" font-size="10.00">v8_inspector::V8Inspector</text>
<text text-anchor="middle" x="344.5" y="-526.5" font-family="Helvetica,sans-Serif" font-size="10.00">SessionImpl::releaseObjectGroup</text>
</a>
</g>
</g>
<!-- Node13&#45;&gt;Node23 -->
<g id="edge14" class="edge">
<title>Node13&#45;&gt;Node23</title>
<path fill="none" stroke="midnightblue" d="M569.2,-433.33C542.2,-455.95 496.86,-490.72 452,-510.5 444.2,-513.94 435.84,-516.91 427.38,-519.48"/>
<polygon fill="midnightblue" stroke="midnightblue" points="571.62,-435.87 576.97,-426.73 567.09,-430.53 571.62,-435.87"/>
</g>
<!-- Node24 -->
<g id="node16" class="node">
<title>Node24</title>
<g id="a_node16"><a xlink:href="classv8__inspector_1_1V8DebuggerAgentImpl.html#a52d58ffb81a33875afb090613740d9e4" target="_top" xlink:title=" ">
<polygon fill="white" stroke="black" points="272,-470.5 272,-500.5 417,-500.5 417,-470.5 272,-470.5"/>
<text text-anchor="start" x="280" y="-488.5" font-family="Helvetica,sans-Serif" font-size="10.00">v8_inspector::V8Debugger</text>
<text text-anchor="middle" x="344.5" y="-477.5" font-family="Helvetica,sans-Serif" font-size="10.00">AgentImpl::restartFrame</text>
</a>
</g>
</g>
<!-- Node13&#45;&gt;Node24 -->
<g id="edge15" class="edge">
<title>Node13&#45;&gt;Node24</title>
<path fill="none" stroke="midnightblue" d="M545.55,-430.14C518.31,-440.22 483.54,-452.43 452,-461.5 440.8,-464.72 428.83,-467.78 417.12,-470.57"/>
<polygon fill="midnightblue" stroke="midnightblue" points="547.07,-433.31 555.22,-426.54 544.63,-426.75 547.07,-433.31"/>
</g>
<!-- Node25 -->
<g id="node17" class="node">
<title>Node25</title>
<g id="a_node17"><a xlink:href="classv8__inspector_1_1V8DebuggerAgentImpl.html#a163df781f8df26a4c616120e25bc3e4d" target="_top" xlink:title=" ">
<polygon fill="white" stroke="black" points="272,-421.5 272,-451.5 417,-451.5 417,-421.5 272,-421.5"/>
<text text-anchor="start" x="280" y="-439.5" font-family="Helvetica,sans-Serif" font-size="10.00">v8_inspector::V8Debugger</text>
<text text-anchor="middle" x="344.5" y="-428.5" font-family="Helvetica,sans-Serif" font-size="10.00">AgentImpl::resume</text>
</a>
</g>
</g>
<!-- Node13&#45;&gt;Node25 -->
<g id="edge16" class="edge">
<title>Node13&#45;&gt;Node25</title>
<path fill="none" stroke="midnightblue" d="M495.09,-421.45C469.12,-424.06 441.62,-426.83 417.37,-429.27"/>
<polygon fill="midnightblue" stroke="midnightblue" points="495.74,-424.9 505.34,-420.42 495.04,-417.94 495.74,-424.9"/>
</g>
<!-- Node26 -->
<g id="node18" class="node">
<title>Node26</title>
<g id="a_node18"><a xlink:href="classv8__inspector_1_1V8DebuggerAgentImpl.html#ab3209e7f98d117565d162ce665d9e357" target="_top" xlink:title=" ">
<polygon fill="white" stroke="black" points="270,-372.5 270,-402.5 419,-402.5 419,-372.5 270,-372.5"/>
<text text-anchor="start" x="278" y="-390.5" font-family="Helvetica,sans-Serif" font-size="10.00">v8_inspector::V8Debugger</text>
<text text-anchor="middle" x="344.5" y="-379.5" font-family="Helvetica,sans-Serif" font-size="10.00">AgentImpl::setScriptSource</text>
</a>
</g>
</g>
<!-- Node13&#45;&gt;Node26 -->
<g id="edge17" class="edge">
<title>Node13&#45;&gt;Node26</title>
<path fill="none" stroke="midnightblue" d="M495.34,-401.97C470.01,-399.53 443.2,-396.94 419.37,-394.63"/>
<polygon fill="midnightblue" stroke="midnightblue" points="495.05,-405.46 505.34,-402.94 495.72,-398.49 495.05,-405.46"/>
</g>
<!-- Node27 -->
<g id="node19" class="node">
<title>Node27</title>
<g id="a_node19"><a xlink:href="classv8__inspector_1_1V8DebuggerAgentImpl.html#a0a78b7c0d20918a3662073d57076eb5f" target="_top" xlink:title=" ">
<polygon fill="white" stroke="black" points="272,-323.5 272,-353.5 417,-353.5 417,-323.5 272,-323.5"/>
<text text-anchor="start" x="280" y="-341.5" font-family="Helvetica,sans-Serif" font-size="10.00">v8_inspector::V8Debugger</text>
<text text-anchor="middle" x="344.5" y="-330.5" font-family="Helvetica,sans-Serif" font-size="10.00">AgentImpl::stepInto</text>
</a>
</g>
</g>
<!-- Node13&#45;&gt;Node27 -->
<g id="edge18" class="edge">
<title>Node13&#45;&gt;Node27</title>
<path fill="none" stroke="midnightblue" d="M543.41,-393.09C516.46,-383.62 482.64,-372.25 452,-363.5 439.76,-360 426.64,-356.63 413.93,-353.54"/>
<polygon fill="midnightblue" stroke="midnightblue" points="542.41,-396.45 553.01,-396.49 544.75,-389.85 542.41,-396.45"/>
</g>
<!-- Node28 -->
<g id="node20" class="node">
<title>Node28</title>
<g id="a_node20"><a xlink:href="classv8__inspector_1_1V8DebuggerAgentImpl.html#af1e8d4eb551f077dbbd21fbe5384a98e" target="_top" xlink:title=" ">
<polygon fill="white" stroke="black" points="272,-274.5 272,-304.5 417,-304.5 417,-274.5 272,-274.5"/>
<text text-anchor="start" x="280" y="-292.5" font-family="Helvetica,sans-Serif" font-size="10.00">v8_inspector::V8Debugger</text>
<text text-anchor="middle" x="344.5" y="-281.5" font-family="Helvetica,sans-Serif" font-size="10.00">AgentImpl::stepOut</text>
</a>
</g>
</g>
<!-- Node13&#45;&gt;Node28 -->
<g id="edge19" class="edge">
<title>Node13&#45;&gt;Node28</title>
<path fill="none" stroke="midnightblue" d="M568.64,-389.85C541.49,-367.75 496.32,-334.02 452,-314.5 441.05,-309.68 429.04,-305.71 417.15,-302.48"/>
<polygon fill="midnightblue" stroke="midnightblue" points="566.52,-392.64 576.46,-396.3 570.97,-387.24 566.52,-392.64"/>
</g>
<!-- Node29 -->
<g id="node21" class="node">
<title>Node29</title>
<g id="a_node21"><a xlink:href="classv8__inspector_1_1V8DebuggerAgentImpl.html#a3fb2d42d17e9c4d04795bcb806401723" target="_top" xlink:title=" ">
<polygon fill="white" stroke="black" points="272,-225.5 272,-255.5 417,-255.5 417,-225.5 272,-225.5"/>
<text text-anchor="start" x="280" y="-243.5" font-family="Helvetica,sans-Serif" font-size="10.00">v8_inspector::V8Debugger</text>
<text text-anchor="middle" x="344.5" y="-232.5" font-family="Helvetica,sans-Serif" font-size="10.00">AgentImpl::stepOver</text>
</a>
</g>
</g>
<!-- Node13&#45;&gt;Node29 -->
<g id="edge20" class="edge">
<title>Node13&#45;&gt;Node29</title>
<path fill="none" stroke="midnightblue" d="M577.84,-387.86C554.16,-355.13 506.85,-296.54 452,-265.5 441.34,-259.47 429.29,-254.89 417.23,-251.41"/>
<polygon fill="midnightblue" stroke="midnightblue" points="575.23,-390.24 583.88,-396.37 580.94,-386.19 575.23,-390.24"/>
</g>
<!-- Node15 -->
<g id="node11" class="node">
<title>Node15</title>
<g id="a_node11"><a xlink:href="classv8__inspector_1_1V8ConsoleMessageStorage.html#a9899881ccf80ccac54181454fa6e1b63" target="_top" xlink:title=" ">
<polygon fill="white" stroke="red" points="10.5,-666.5 10.5,-696.5 190.5,-696.5 190.5,-666.5 10.5,-666.5"/>
<text text-anchor="start" x="18.5" y="-684.5" font-family="Helvetica,sans-Serif" font-size="10.00">v8_inspector::V8ConsoleMessage</text>
<text text-anchor="middle" x="100.5" y="-673.5" font-family="Helvetica,sans-Serif" font-size="10.00">Storage::addMessage</text>
</a>
</g>
</g>
<!-- Node14&#45;&gt;Node15 -->
<g id="edge10" class="edge">
<title>Node14&#45;&gt;Node15</title>
<path fill="none" stroke="midnightblue" d="M259.34,-649.54C232.09,-655.06 202.08,-661.13 175.61,-666.49"/>
<polygon fill="midnightblue" stroke="midnightblue" points="260.14,-652.95 269.25,-647.53 258.75,-646.09 260.14,-652.95"/>
</g>
<!-- Node20 -->
<g id="node12" class="node">
<title>Node20</title>
<g id="a_node12"><a xlink:href="classv8__inspector_1_1V8RuntimeAgentImpl.html#a4c17d129ba5f4a46a4077d2d2665dd0e" target="_top" xlink:title=" ">
<polygon fill="white" stroke="black" points="17,-617.5 17,-647.5 184,-647.5 184,-617.5 17,-617.5"/>
<text text-anchor="start" x="25" y="-635.5" font-family="Helvetica,sans-Serif" font-size="10.00">v8_inspector::V8RuntimeAgent</text>
<text text-anchor="middle" x="100.5" y="-624.5" font-family="Helvetica,sans-Serif" font-size="10.00">Impl::discardConsoleEntries</text>
</a>
</g>
</g>
<!-- Node14&#45;&gt;Node20 -->
<g id="edge11" class="edge">
<title>Node14&#45;&gt;Node20</title>
<path fill="none" stroke="midnightblue" d="M244.39,-632.5C224.45,-632.5 203.69,-632.5 184.37,-632.5"/>
<polygon fill="midnightblue" stroke="midnightblue" points="244.42,-636 254.42,-632.5 244.42,-629 244.42,-636"/>
</g>
<!-- Node21 -->
<g id="node13" class="node">
<title>Node21</title>
<g id="a_node13"><a xlink:href="classv8__inspector_1_1V8ConsoleMessageStorage.html#aecf46f6c7fbbcdd21d24460e3a881367" target="_top" xlink:title=" ">
<polygon fill="white" stroke="black" points="0,-568.5 0,-598.5 201,-598.5 201,-568.5 0,-568.5"/>
<text text-anchor="start" x="8" y="-586.5" font-family="Helvetica,sans-Serif" font-size="10.00">v8_inspector::V8ConsoleMessage</text>
<text text-anchor="middle" x="100.5" y="-575.5" font-family="Helvetica,sans-Serif" font-size="10.00">Storage::~V8ConsoleMessageStorage</text>
</a>
</g>
</g>
<!-- Node14&#45;&gt;Node21 -->
<g id="edge12" class="edge">
<title>Node14&#45;&gt;Node21</title>
<path fill="none" stroke="midnightblue" d="M259.34,-615.46C232.09,-609.94 202.08,-603.87 175.61,-598.51"/>
<polygon fill="midnightblue" stroke="midnightblue" points="258.75,-618.91 269.25,-617.47 260.14,-612.05 258.75,-618.91"/>
</g>
<!-- Node31 -->
<g id="node23" class="node">
<title>Node31</title>
<g id="a_node23"><a xlink:href="classv8__inspector_1_1V8RuntimeAgentImpl.html#aa4bb142d23b0e3b3d18fa3b18edf6243" target="_top" xlink:title=" ">
<polygon fill="white" stroke="black" points="261,-176.5 261,-206.5 428,-206.5 428,-176.5 261,-176.5"/>
<text text-anchor="start" x="269" y="-194.5" font-family="Helvetica,sans-Serif" font-size="10.00">v8_inspector::V8RuntimeAgent</text>
<text text-anchor="middle" x="344.5" y="-183.5" font-family="Helvetica,sans-Serif" font-size="10.00">Impl::enable</text>
</a>
</g>
</g>
<!-- Node30&#45;&gt;Node31 -->
<g id="edge22" class="edge">
<title>Node30&#45;&gt;Node31</title>
<path fill="none" stroke="midnightblue" d="M501.12,-191.5C477.22,-191.5 451.66,-191.5 428.31,-191.5"/>
<polygon fill="midnightblue" stroke="midnightblue" points="501.25,-195 511.25,-191.5 501.25,-188 501.25,-195"/>
</g>
<!-- Node31&#45;&gt;Node32 -->
<g id="edge23" class="edge">
<title>Node31&#45;&gt;Node32</title>
<path fill="none" stroke="midnightblue" d="M250.9,-174.66C228.93,-170.67 205.64,-166.43 184.14,-162.53"/>
<polygon fill="midnightblue" stroke="midnightblue" points="250.43,-178.14 260.89,-176.48 251.68,-171.25 250.43,-178.14"/>
</g>
<!-- Node34 -->
<g id="node26" class="node">
<title>Node34</title>
<g id="a_node26"><a xlink:href="classv8__inspector_1_1V8RuntimeAgentImpl.html#a02457be2c1c60c0a451a372fbdc084a0" target="_top" xlink:title=" ">
<polygon fill="white" stroke="black" points="261,-88.5 261,-118.5 428,-118.5 428,-88.5 261,-88.5"/>
<text text-anchor="start" x="269" y="-106.5" font-family="Helvetica,sans-Serif" font-size="10.00">v8_inspector::V8RuntimeAgent</text>
<text text-anchor="middle" x="344.5" y="-95.5" font-family="Helvetica,sans-Serif" font-size="10.00">Impl::disable</text>
</a>
</g>
</g>
<!-- Node33&#45;&gt;Node34 -->
<g id="edge25" class="edge">
<title>Node33&#45;&gt;Node34</title>
<path fill="none" stroke="midnightblue" d="M501.12,-103.5C477.22,-103.5 451.66,-103.5 428.31,-103.5"/>
<polygon fill="midnightblue" stroke="midnightblue" points="501.25,-107 511.25,-103.5 501.25,-100 501.25,-107"/>
</g>
<!-- Node35&#45;&gt;Node32 -->
<g id="edge29" class="edge">
<title>Node35&#45;&gt;Node32</title>
<path fill="none" stroke="midnightblue" d="M477.56,-47.59C406.8,-49.73 315.31,-57.33 237,-79.5 195.21,-91.33 151,-116.16 124.85,-132.32"/>
<polygon fill="midnightblue" stroke="midnightblue" points="477.95,-51.08 487.85,-47.31 477.76,-44.08 477.95,-51.08"/>
</g>
<!-- Node35&#45;&gt;Node34 -->
<g id="edge28" class="edge">
<title>Node35&#45;&gt;Node34</title>
<path fill="none" stroke="midnightblue" d="M491.14,-71.26C464.94,-77.06 437.42,-83.15 413.45,-88.46"/>
<polygon fill="midnightblue" stroke="midnightblue" points="492.11,-74.64 501.11,-69.06 490.59,-67.8 492.11,-74.64"/>
</g>
<!-- Node36 -->
<g id="node28" class="node">
<title>Node36</title>
<g id="a_node28"><a xlink:href="classv8__inspector_1_1V8RuntimeAgentImpl.html#ab4b876f7b7fc7548b25a4e12102ca24c" target="_top" xlink:title=" ">
<polygon fill="white" stroke="black" points="237,-0.5 237,-30.5 452,-30.5 452,-0.5 237,-0.5"/>
<text text-anchor="start" x="245" y="-18.5" font-family="Helvetica,sans-Serif" font-size="10.00">v8_inspector::V8RuntimeAgent</text>
<text text-anchor="middle" x="344.5" y="-7.5" font-family="Helvetica,sans-Serif" font-size="10.00">Impl::setCustomObjectFormatterEnabled</text>
</a>
</g>
</g>
<!-- Node35&#45;&gt;Node36 -->
<g id="edge30" class="edge">
<title>Node35&#45;&gt;Node36</title>
<path fill="none" stroke="midnightblue" d="M477.83,-33.07C469.23,-31.93 460.58,-30.78 452.04,-29.65"/>
<polygon fill="midnightblue" stroke="midnightblue" points="477.52,-36.56 487.89,-34.41 478.44,-29.62 477.52,-36.56"/>
</g>
</g>
</svg>
