<?xml version="1.0" encoding="UTF-8" standalone="no"?>
<!DOCTYPE svg PUBLIC "-//W3C//DTD SVG 1.1//EN"
 "http://www.w3.org/Graphics/SVG/1.1/DTD/svg11.dtd">
<!-- Generated by graphviz version 2.43.0 (0)
 -->
<!-- Title: v8::internal::TransitionArray::GetTarget Pages: 1 -->
<svg width="732pt" height="143pt"
 viewBox="0.00 0.00 732.00 142.50" xmlns="http://www.w3.org/2000/svg" xmlns:xlink="http://www.w3.org/1999/xlink">
<g id="graph0" class="graph" transform="scale(1 1) rotate(0) translate(4 138.5)">
<title>v8::internal::TransitionArray::GetTarget</title>
<polygon fill="white" stroke="transparent" points="-4,4 -4,-138.5 728,-138.5 728,4 -4,4"/>
<!-- Node1 -->
<g id="node1" class="node">
<title>Node1</title>
<g id="a_node1"><a xlink:title=" ">
<polygon fill="#bfbfbf" stroke="black" points="599,-55 599,-85 724,-85 724,-55 599,-55"/>
<text text-anchor="start" x="607" y="-73" font-family="Helvetica,sans-Serif" font-size="10.00">v8::internal::Transition</text>
<text text-anchor="middle" x="661.5" y="-62" font-family="Helvetica,sans-Serif" font-size="10.00">Array::GetTarget</text>
</a>
</g>
</g>
<!-- Node2 -->
<g id="node2" class="node">
<title>Node2</title>
<g id="a_node2"><a xlink:href="classv8_1_1internal_1_1TransitionArray.html#a6ef00a72220f7e3990c6abe04cbd6194" target="_top" xlink:title=" ">
<polygon fill="white" stroke="black" points="400,-104 400,-134 544,-134 544,-104 400,-104"/>
<text text-anchor="start" x="408" y="-122" font-family="Helvetica,sans-Serif" font-size="10.00">v8::internal::Transition</text>
<text text-anchor="middle" x="472" y="-111" font-family="Helvetica,sans-Serif" font-size="10.00">Array::ForEachTransitionTo</text>
</a>
</g>
</g>
<!-- Node1&#45;&gt;Node2 -->
<g id="edge1" class="edge">
<title>Node1&#45;&gt;Node2</title>
<path fill="none" stroke="midnightblue" d="M593.07,-87.62C572.55,-92.98 550.21,-98.82 530.42,-103.99"/>
<polygon fill="midnightblue" stroke="midnightblue" points="594.18,-90.95 602.97,-85.03 592.41,-84.18 594.18,-90.95"/>
</g>
<!-- Node3 -->
<g id="node3" class="node">
<title>Node3</title>
<g id="a_node3"><a xlink:href="classv8_1_1internal_1_1TransitionArray.html#a006130993f55c3cdd97a724a241fc992" target="_top" xlink:title=" ">
<polygon fill="white" stroke="black" points="409.5,-55 409.5,-85 534.5,-85 534.5,-55 409.5,-55"/>
<text text-anchor="start" x="417.5" y="-73" font-family="Helvetica,sans-Serif" font-size="10.00">v8::internal::Transition</text>
<text text-anchor="middle" x="472" y="-62" font-family="Helvetica,sans-Serif" font-size="10.00">Array::SearchDetails</text>
</a>
</g>
</g>
<!-- Node1&#45;&gt;Node3 -->
<g id="edge2" class="edge">
<title>Node1&#45;&gt;Node3</title>
<path fill="none" stroke="midnightblue" d="M588.54,-70C570.78,-70 551.91,-70 534.69,-70"/>
<polygon fill="midnightblue" stroke="midnightblue" points="588.85,-73.5 598.85,-70 588.85,-66.5 588.85,-73.5"/>
</g>
<!-- Node5 -->
<g id="node5" class="node">
<title>Node5</title>
<g id="a_node5"><a xlink:href="classv8_1_1internal_1_1TransitionArray.html#a73ca207f334cb420e0108d6015f5de7c" target="_top" xlink:title=" ">
<polygon fill="white" stroke="black" points="381,-6 381,-36 563,-36 563,-6 381,-6"/>
<text text-anchor="start" x="389" y="-24" font-family="Helvetica,sans-Serif" font-size="10.00">v8::internal::Transition</text>
<text text-anchor="middle" x="472" y="-13" font-family="Helvetica,sans-Serif" font-size="10.00">Array::SearchDetailsAndGetTarget</text>
</a>
</g>
</g>
<!-- Node1&#45;&gt;Node5 -->
<g id="edge4" class="edge">
<title>Node1&#45;&gt;Node5</title>
<path fill="none" stroke="midnightblue" d="M593.07,-52.38C572.55,-47.02 550.21,-41.18 530.42,-36.01"/>
<polygon fill="midnightblue" stroke="midnightblue" points="592.41,-55.82 602.97,-54.97 594.18,-49.05 592.41,-55.82"/>
</g>
<!-- Node4 -->
<g id="node4" class="node">
<title>Node4</title>
<g id="a_node4"><a xlink:href="classv8_1_1internal_1_1TransitionArray.html#a04505f957950aed890314d9335309a4a" target="_top" xlink:title=" ">
<polygon fill="white" stroke="black" points="209,-55 209,-85 334,-85 334,-55 209,-55"/>
<text text-anchor="start" x="217" y="-73" font-family="Helvetica,sans-Serif" font-size="10.00">v8::internal::Transition</text>
<text text-anchor="middle" x="271.5" y="-62" font-family="Helvetica,sans-Serif" font-size="10.00">Array::Search</text>
</a>
</g>
</g>
<!-- Node3&#45;&gt;Node4 -->
<g id="edge3" class="edge">
<title>Node3&#45;&gt;Node4</title>
<path fill="none" stroke="midnightblue" d="M399.02,-70C377.77,-70 354.72,-70 334.18,-70"/>
<polygon fill="midnightblue" stroke="midnightblue" points="399.28,-73.5 409.28,-70 399.28,-66.5 399.28,-73.5"/>
</g>
<!-- Node6 -->
<g id="node6" class="node">
<title>Node6</title>
<g id="a_node6"><a xlink:href="classv8_1_1internal_1_1TransitionArray.html#a27a7f077365a5aeb9eb5ba5d05976731" target="_top" xlink:title=" ">
<polygon fill="white" stroke="black" points="198,-6 198,-36 345,-36 345,-6 198,-6"/>
<text text-anchor="start" x="206" y="-24" font-family="Helvetica,sans-Serif" font-size="10.00">v8::internal::Transition</text>
<text text-anchor="middle" x="271.5" y="-13" font-family="Helvetica,sans-Serif" font-size="10.00">Array::SearchAndGetTarget</text>
</a>
</g>
</g>
<!-- Node5&#45;&gt;Node6 -->
<g id="edge5" class="edge">
<title>Node5&#45;&gt;Node6</title>
<path fill="none" stroke="midnightblue" d="M370.7,-21C362.13,-21 353.57,-21 345.28,-21"/>
<polygon fill="midnightblue" stroke="midnightblue" points="370.75,-24.5 380.75,-21 370.75,-17.5 370.75,-24.5"/>
</g>
<!-- Node7 -->
<g id="node7" class="node">
<title>Node7</title>
<g id="a_node7"><a xlink:href="classv8_1_1internal_1_1TransitionArray.html#a76e621cff2120e26827a0d30b717cedb" target="_top" xlink:title=" ">
<polygon fill="white" stroke="black" points="0,-0.5 0,-41.5 162,-41.5 162,-0.5 0,-0.5"/>
<text text-anchor="start" x="8" y="-29.5" font-family="Helvetica,sans-Serif" font-size="10.00">v8::internal::Transition</text>
<text text-anchor="start" x="8" y="-18.5" font-family="Helvetica,sans-Serif" font-size="10.00">Array::SearchAndGetTargetFor</text>
<text text-anchor="middle" x="81" y="-7.5" font-family="Helvetica,sans-Serif" font-size="10.00">Testing</text>
</a>
</g>
</g>
<!-- Node6&#45;&gt;Node7 -->
<g id="edge6" class="edge">
<title>Node6&#45;&gt;Node7</title>
<path fill="none" stroke="midnightblue" d="M187.63,-21C179.15,-21 170.54,-21 162.1,-21"/>
<polygon fill="midnightblue" stroke="midnightblue" points="187.89,-24.5 197.89,-21 187.89,-17.5 187.89,-24.5"/>
</g>
</g>
</svg>
