<?xml version="1.0" encoding="UTF-8" standalone="no"?>
<!DOCTYPE svg PUBLIC "-//W3C//DTD SVG 1.1//EN"
 "http://www.w3.org/Graphics/SVG/1.1/DTD/svg11.dtd">
<!-- Generated by graphviz version 2.43.0 (0)
 -->
<!-- Title: v8::internal::compiler::RepresentationSelector::NodeInfo::set_queued Pages: 1 -->
<svg width="707pt" height="110pt"
 viewBox="0.00 0.00 707.00 110.00" xmlns="http://www.w3.org/2000/svg" xmlns:xlink="http://www.w3.org/1999/xlink">
<g id="graph0" class="graph" transform="scale(1 1) rotate(0) translate(4 106)">
<title>v8::internal::compiler::RepresentationSelector::NodeInfo::set_queued</title>
<polygon fill="white" stroke="transparent" points="-4,4 -4,-106 703,-106 703,4 -4,4"/>
<!-- Node1 -->
<g id="node1" class="node">
<title>Node1</title>
<g id="a_node1"><a xlink:title=" ">
<polygon fill="#bfbfbf" stroke="black" points="562,-30.5 562,-71.5 699,-71.5 699,-30.5 562,-30.5"/>
<text text-anchor="start" x="570" y="-59.5" font-family="Helvetica,sans-Serif" font-size="10.00">v8::internal::compiler</text>
<text text-anchor="start" x="570" y="-48.5" font-family="Helvetica,sans-Serif" font-size="10.00">::RepresentationSelector</text>
<text text-anchor="middle" x="630.5" y="-37.5" font-family="Helvetica,sans-Serif" font-size="10.00">::NodeInfo::set_queued</text>
</a>
</g>
</g>
<!-- Node2 -->
<g id="node2" class="node">
<title>Node2</title>
<g id="a_node2"><a xlink:href="classv8_1_1internal_1_1compiler_1_1RepresentationSelector.html#a0b8fbee28b9bc0ff2aa4ac88e1cc5f18" target="_top" xlink:title=" ">
<polygon fill="white" stroke="black" points="379.5,-60.5 379.5,-101.5 516.5,-101.5 516.5,-60.5 379.5,-60.5"/>
<text text-anchor="start" x="387.5" y="-89.5" font-family="Helvetica,sans-Serif" font-size="10.00">v8::internal::compiler</text>
<text text-anchor="start" x="387.5" y="-78.5" font-family="Helvetica,sans-Serif" font-size="10.00">::RepresentationSelector</text>
<text text-anchor="middle" x="448" y="-67.5" font-family="Helvetica,sans-Serif" font-size="10.00">::EnqueueInput</text>
</a>
</g>
</g>
<!-- Node1&#45;&gt;Node2 -->
<g id="edge1" class="edge">
<title>Node1&#45;&gt;Node2</title>
<path fill="none" stroke="midnightblue" d="M551.6,-63.95C539.91,-65.89 527.95,-67.88 516.5,-69.78"/>
<polygon fill="midnightblue" stroke="midnightblue" points="552.48,-67.35 561.77,-62.26 551.34,-60.44 552.48,-67.35"/>
</g>
<!-- Node3 -->
<g id="node3" class="node">
<title>Node3</title>
<g id="a_node3"><a xlink:href="classv8_1_1internal_1_1compiler_1_1RepresentationSelector.html#ac6512f3a9f4c65ee56183ced19ef1a9c" target="_top" xlink:title=" ">
<polygon fill="white" stroke="black" points="370,-0.5 370,-41.5 526,-41.5 526,-0.5 370,-0.5"/>
<text text-anchor="start" x="378" y="-29.5" font-family="Helvetica,sans-Serif" font-size="10.00">v8::internal::compiler</text>
<text text-anchor="start" x="378" y="-18.5" font-family="Helvetica,sans-Serif" font-size="10.00">::RepresentationSelector</text>
<text text-anchor="middle" x="448" y="-7.5" font-family="Helvetica,sans-Serif" font-size="10.00">::PushNodeToRevisitIfVisited</text>
</a>
</g>
</g>
<!-- Node1&#45;&gt;Node3 -->
<g id="edge2" class="edge">
<title>Node1&#45;&gt;Node3</title>
<path fill="none" stroke="midnightblue" d="M551.88,-38.1C543.37,-36.68 534.71,-35.25 526.21,-33.83"/>
<polygon fill="midnightblue" stroke="midnightblue" points="551.34,-41.56 561.77,-39.74 552.48,-34.65 551.34,-41.56"/>
</g>
<!-- Node4 -->
<g id="node4" class="node">
<title>Node4</title>
<g id="a_node4"><a xlink:href="classv8_1_1internal_1_1compiler_1_1RepresentationSelector.html#a093633ad5cd753a1580deaf2f471af95" target="_top" xlink:title=" ">
<polygon fill="white" stroke="black" points="197,-0.5 197,-41.5 334,-41.5 334,-0.5 197,-0.5"/>
<text text-anchor="start" x="205" y="-29.5" font-family="Helvetica,sans-Serif" font-size="10.00">v8::internal::compiler</text>
<text text-anchor="start" x="205" y="-18.5" font-family="Helvetica,sans-Serif" font-size="10.00">::RepresentationSelector</text>
<text text-anchor="middle" x="265.5" y="-7.5" font-family="Helvetica,sans-Serif" font-size="10.00">::RunRetypePhase</text>
</a>
</g>
</g>
<!-- Node3&#45;&gt;Node4 -->
<g id="edge3" class="edge">
<title>Node3&#45;&gt;Node4</title>
<path fill="none" stroke="midnightblue" d="M359.85,-21C351.23,-21 342.58,-21 334.2,-21"/>
<polygon fill="midnightblue" stroke="midnightblue" points="359.93,-24.5 369.93,-21 359.93,-17.5 359.93,-24.5"/>
</g>
<!-- Node5 -->
<g id="node5" class="node">
<title>Node5</title>
<g id="a_node5"><a xlink:href="classv8_1_1internal_1_1compiler_1_1RepresentationSelector.html#aa5fd951362b54fb920c49784e873345c" target="_top" xlink:title=" ">
<polygon fill="white" stroke="red" points="0,-6 0,-36 161,-36 161,-6 0,-6"/>
<text text-anchor="start" x="8" y="-24" font-family="Helvetica,sans-Serif" font-size="10.00">v8::internal::compiler</text>
<text text-anchor="middle" x="80.5" y="-13" font-family="Helvetica,sans-Serif" font-size="10.00">::RepresentationSelector::Run</text>
</a>
</g>
</g>
<!-- Node4&#45;&gt;Node5 -->
<g id="edge4" class="edge">
<title>Node4&#45;&gt;Node5</title>
<path fill="none" stroke="midnightblue" d="M186.69,-21C178.26,-21 169.68,-21 161.22,-21"/>
<polygon fill="midnightblue" stroke="midnightblue" points="186.88,-24.5 196.88,-21 186.88,-17.5 186.88,-24.5"/>
</g>
</g>
</svg>
