<?xml version="1.0" encoding="UTF-8" standalone="no"?>
<!DOCTYPE svg PUBLIC "-//W3C//DTD SVG 1.1//EN"
 "http://www.w3.org/Graphics/SVG/1.1/DTD/svg11.dtd">
<!-- Generated by graphviz version 2.43.0 (0)
 -->
<!-- Title: v8::internal::TypedFrameWithJSLinkage::Iterate Pages: 1 -->
<svg width="1115pt" height="561pt"
 viewBox="0.00 0.00 1115.00 560.95" xmlns="http://www.w3.org/2000/svg" xmlns:xlink="http://www.w3.org/1999/xlink">
<g id="graph0" class="graph" transform="scale(1 1) rotate(0) translate(4 556.95)">
<title>v8::internal::TypedFrameWithJSLinkage::Iterate</title>
<polygon fill="white" stroke="transparent" points="-4,4 -4,-556.95 1111,-556.95 1111,4 -4,4"/>
<!-- Node1 -->
<g id="node1" class="node">
<title>Node1</title>
<g id="a_node1"><a xlink:title=" ">
<polygon fill="#bfbfbf" stroke="black" points="0,-273.95 0,-303.95 137,-303.95 137,-273.95 0,-273.95"/>
<text text-anchor="start" x="8" y="-291.95" font-family="Helvetica,sans-Serif" font-size="10.00">v8::internal::TypedFrame</text>
<text text-anchor="middle" x="68.5" y="-280.95" font-family="Helvetica,sans-Serif" font-size="10.00">WithJSLinkage::Iterate</text>
</a>
</g>
</g>
<!-- Node2 -->
<g id="node2" class="node">
<title>Node2</title>
<g id="a_node2"><a xlink:href="classv8_1_1internal_1_1StackFrame.html#a1965778b163e8648c83fec878250c854" target="_top" xlink:title=" ">
<polygon fill="white" stroke="black" points="586,-325.95 586,-355.95 722,-355.95 722,-325.95 586,-325.95"/>
<text text-anchor="start" x="594" y="-343.95" font-family="Helvetica,sans-Serif" font-size="10.00">v8::internal::StackFrame</text>
<text text-anchor="middle" x="654" y="-332.95" font-family="Helvetica,sans-Serif" font-size="10.00">::constant_pool_address</text>
</a>
</g>
</g>
<!-- Node1&#45;&gt;Node2 -->
<g id="edge1" class="edge">
<title>Node1&#45;&gt;Node2</title>
<path fill="none" stroke="midnightblue" d="M137,-294.96C246.06,-304.68 460.38,-323.78 575.51,-334.04"/>
<polygon fill="midnightblue" stroke="midnightblue" points="575.38,-337.54 585.65,-334.94 576,-330.57 575.38,-337.54"/>
</g>
<!-- Node3 -->
<g id="node3" class="node">
<title>Node3</title>
<g id="a_node3"><a xlink:href="classv8_1_1internal_1_1StackFrame.html#a11fc236f7d11121b1c7342ba8138d20f" target="_top" xlink:title=" ">
<polygon fill="white" stroke="black" points="181.5,-396.95 181.5,-426.95 317.5,-426.95 317.5,-396.95 181.5,-396.95"/>
<text text-anchor="start" x="189.5" y="-414.95" font-family="Helvetica,sans-Serif" font-size="10.00">v8::internal::StackFrame</text>
<text text-anchor="middle" x="249.5" y="-403.95" font-family="Helvetica,sans-Serif" font-size="10.00">::GcSafeLookupCode</text>
</a>
</g>
</g>
<!-- Node1&#45;&gt;Node3 -->
<g id="edge2" class="edge">
<title>Node1&#45;&gt;Node3</title>
<path fill="none" stroke="midnightblue" d="M91.45,-304.03C123.21,-325.85 182.09,-366.31 218.04,-391.01"/>
<polygon fill="midnightblue" stroke="midnightblue" points="216.43,-394.15 226.65,-396.93 220.39,-388.39 216.43,-394.15"/>
</g>
<!-- Node44 -->
<g id="node11" class="node">
<title>Node44</title>
<g id="a_node11"><a xlink:href="classv8_1_1internal_1_1CommonFrame.html#adbf800691f6382638a7405bb40d8a571" target="_top" xlink:title=" ">
<polygon fill="white" stroke="black" points="173,-106.95 173,-136.95 326,-136.95 326,-106.95 173,-106.95"/>
<text text-anchor="start" x="181" y="-124.95" font-family="Helvetica,sans-Serif" font-size="10.00">v8::internal::CommonFrame</text>
<text text-anchor="middle" x="249.5" y="-113.95" font-family="Helvetica,sans-Serif" font-size="10.00">::IterateExpressions</text>
</a>
</g>
</g>
<!-- Node1&#45;&gt;Node44 -->
<g id="edge12" class="edge">
<title>Node1&#45;&gt;Node44</title>
<path fill="none" stroke="midnightblue" d="M85.7,-273.83C117.44,-244.22 187.91,-178.47 224.86,-144"/>
<polygon fill="midnightblue" stroke="midnightblue" points="227.28,-146.53 232.21,-137.15 222.51,-141.41 227.28,-146.53"/>
</g>
<!-- Node47 -->
<g id="node14" class="node">
<title>Node47</title>
<g id="a_node14"><a xlink:href="classv8_1_1internal_1_1StackFrame.html#afe99ec22d5a613889110d7392be0dfb4" target="_top" xlink:title=" ">
<polygon fill="white" stroke="black" points="376,-237.95 376,-267.95 512,-267.95 512,-237.95 376,-237.95"/>
<text text-anchor="start" x="384" y="-255.95" font-family="Helvetica,sans-Serif" font-size="10.00">v8::internal::StackFrame</text>
<text text-anchor="middle" x="444" y="-244.95" font-family="Helvetica,sans-Serif" font-size="10.00">::IteratePc</text>
</a>
</g>
</g>
<!-- Node1&#45;&gt;Node47 -->
<g id="edge15" class="edge">
<title>Node1&#45;&gt;Node47</title>
<path fill="none" stroke="midnightblue" d="M137.14,-282.43C201.52,-276.22 298.33,-266.89 365.73,-260.39"/>
<polygon fill="midnightblue" stroke="midnightblue" points="366.25,-263.86 375.87,-259.42 365.58,-256.89 366.25,-263.86"/>
</g>
<!-- Node4 -->
<g id="node4" class="node">
<title>Node4</title>
<g id="a_node4"><a xlink:href="classv8_1_1internal_1_1StackFrame.html#ad223188e01fabf0116775655b3cf83a9" target="_top" xlink:title=" ">
<polygon fill="white" stroke="black" points="362,-423.95 362,-453.95 526,-453.95 526,-423.95 362,-423.95"/>
<text text-anchor="start" x="370" y="-441.95" font-family="Helvetica,sans-Serif" font-size="10.00">v8::internal::StackFrame</text>
<text text-anchor="middle" x="444" y="-430.95" font-family="Helvetica,sans-Serif" font-size="10.00">::GcSafeLookupCodeAndOffset</text>
</a>
</g>
</g>
<!-- Node3&#45;&gt;Node4 -->
<g id="edge3" class="edge">
<title>Node3&#45;&gt;Node4</title>
<path fill="none" stroke="midnightblue" d="M317.56,-421.35C328.63,-422.91 340.28,-424.54 351.83,-426.16"/>
<polygon fill="midnightblue" stroke="midnightblue" points="351.55,-429.65 361.94,-427.58 352.52,-422.72 351.55,-429.65"/>
</g>
<!-- Node5 -->
<g id="node5" class="node">
<title>Node5</title>
<g id="a_node5"><a xlink:href="namespacev8_1_1internal_1_1anonymous__namespace_02frames_8cc_03.html#a289bb9cbaf19d6b333601b46e521c578" target="_top" xlink:title=" ">
<polygon fill="white" stroke="red" points="583.5,-511.45 583.5,-552.45 724.5,-552.45 724.5,-511.45 583.5,-511.45"/>
<text text-anchor="start" x="591.5" y="-540.45" font-family="Helvetica,sans-Serif" font-size="10.00">v8::internal::anonymous</text>
<text text-anchor="start" x="591.5" y="-529.45" font-family="Helvetica,sans-Serif" font-size="10.00">_namespace{frames::cc}</text>
<text text-anchor="middle" x="654" y="-518.45" font-family="Helvetica,sans-Serif" font-size="10.00">::GetContainingCode</text>
</a>
</g>
</g>
<!-- Node4&#45;&gt;Node5 -->
<g id="edge4" class="edge">
<title>Node4&#45;&gt;Node5</title>
<path fill="none" stroke="midnightblue" d="M473.5,-454C496.97,-466.18 531.28,-483.46 562,-496.95 570.2,-500.54 578.89,-504.15 587.52,-507.6"/>
<polygon fill="midnightblue" stroke="midnightblue" points="586.25,-510.87 596.84,-511.29 588.83,-504.36 586.25,-510.87"/>
</g>
<!-- Node33 -->
<g id="node6" class="node">
<title>Node33</title>
<g id="a_node6"><a xlink:href="classv8_1_1internal_1_1StackFrame.html#aa833f02441454c45d09c5bf51a699a20" target="_top" xlink:title=" ">
<polygon fill="white" stroke="black" points="586,-423.95 586,-453.95 722,-453.95 722,-423.95 586,-423.95"/>
<text text-anchor="start" x="594" y="-441.95" font-family="Helvetica,sans-Serif" font-size="10.00">v8::internal::StackFrame</text>
<text text-anchor="middle" x="654" y="-430.95" font-family="Helvetica,sans-Serif" font-size="10.00">::isolate</text>
</a>
</g>
</g>
<!-- Node4&#45;&gt;Node33 -->
<g id="edge5" class="edge">
<title>Node4&#45;&gt;Node33</title>
<path fill="none" stroke="midnightblue" d="M526.01,-438.95C542.45,-438.95 559.69,-438.95 575.99,-438.95"/>
<polygon fill="midnightblue" stroke="midnightblue" points="575.99,-442.45 585.99,-438.95 575.99,-435.45 575.99,-442.45"/>
</g>
<!-- Node34 -->
<g id="node7" class="node">
<title>Node34</title>
<g id="a_node7"><a xlink:href="classv8_1_1internal_1_1StackFrame.html#af8a7ad08c8c2389378855162e89b11ef" target="_top" xlink:title=" ">
<polygon fill="white" stroke="red" points="575,-374.95 575,-404.95 733,-404.95 733,-374.95 575,-374.95"/>
<text text-anchor="start" x="583" y="-392.95" font-family="Helvetica,sans-Serif" font-size="10.00">v8::internal::StackFrame</text>
<text text-anchor="middle" x="654" y="-381.95" font-family="Helvetica,sans-Serif" font-size="10.00">::maybe_unauthenticated_pc</text>
</a>
</g>
</g>
<!-- Node4&#45;&gt;Node34 -->
<g id="edge6" class="edge">
<title>Node4&#45;&gt;Node34</title>
<path fill="none" stroke="midnightblue" d="M508.82,-423.91C531.18,-418.64 556.47,-412.69 579.56,-407.25"/>
<polygon fill="midnightblue" stroke="midnightblue" points="580.37,-410.65 589.3,-404.95 578.76,-403.84 580.37,-410.65"/>
</g>
<!-- Node38 -->
<g id="node9" class="node">
<title>Node38</title>
<g id="a_node9"><a xlink:href="classv8_1_1internal_1_1StackFrame.html#abc14319996484cb09f941a893aa96525" target="_top" xlink:title=" ">
<polygon fill="white" stroke="red" points="782,-399.45 782,-418.45 935,-418.45 935,-399.45 782,-399.45"/>
<text text-anchor="middle" x="858.5" y="-406.45" font-family="Helvetica,sans-Serif" font-size="10.00">v8::internal::StackFrame::pc</text>
</a>
</g>
</g>
<!-- Node4&#45;&gt;Node38 -->
<g id="edge11" class="edge">
<title>Node4&#45;&gt;Node38</title>
<path fill="none" stroke="midnightblue" d="M501.79,-454.01C562.88,-467.82 662.51,-483.42 746,-463.95 778.92,-456.27 813.3,-437.4 835.02,-423.9"/>
<polygon fill="midnightblue" stroke="midnightblue" points="836.96,-426.82 843.52,-418.5 833.2,-420.91 836.96,-426.82"/>
</g>
<!-- Node35 -->
<g id="node8" class="node">
<title>Node35</title>
<g id="a_node8"><a xlink:href="classv8_1_1internal_1_1StackFrame.html#a88ecc26c1528ed37a71d1fa39a132bfe" target="_top" xlink:title=" ">
<polygon fill="white" stroke="black" points="790.5,-296.95 790.5,-326.95 926.5,-326.95 926.5,-296.95 790.5,-296.95"/>
<text text-anchor="start" x="798.5" y="-314.95" font-family="Helvetica,sans-Serif" font-size="10.00">v8::internal::StackFrame</text>
<text text-anchor="middle" x="858.5" y="-303.95" font-family="Helvetica,sans-Serif" font-size="10.00">::InFastCCall</text>
</a>
</g>
</g>
<!-- Node34&#45;&gt;Node35 -->
<g id="edge7" class="edge">
<title>Node34&#45;&gt;Node35</title>
<path fill="none" stroke="midnightblue" d="M718.64,-374.85C727.91,-372.16 737.27,-369.18 746,-365.95 771.83,-356.39 799.72,-342.88 821.14,-331.77"/>
<polygon fill="midnightblue" stroke="midnightblue" points="822.97,-334.76 830.2,-327.01 819.72,-328.56 822.97,-334.76"/>
</g>
<!-- Node34&#45;&gt;Node38 -->
<g id="edge8" class="edge">
<title>Node34&#45;&gt;Node38</title>
<path fill="none" stroke="midnightblue" d="M733,-397.27C745.66,-398.45 758.83,-399.69 771.67,-400.89"/>
<polygon fill="midnightblue" stroke="midnightblue" points="771.59,-404.4 781.87,-401.85 772.24,-397.43 771.59,-404.4"/>
</g>
<!-- Node39 -->
<g id="node10" class="node">
<title>Node39</title>
<g id="a_node10"><a xlink:href="classv8_1_1internal_1_1StackFrame.html#a96bcfb103f36a3425496b3217d037efd" target="_top" xlink:title=" ">
<polygon fill="white" stroke="black" points="971,-355.95 971,-385.95 1107,-385.95 1107,-355.95 971,-355.95"/>
<text text-anchor="start" x="979" y="-373.95" font-family="Helvetica,sans-Serif" font-size="10.00">v8::internal::StackFrame</text>
<text text-anchor="middle" x="1039" y="-362.95" font-family="Helvetica,sans-Serif" font-size="10.00">::pc_address</text>
</a>
</g>
</g>
<!-- Node34&#45;&gt;Node39 -->
<g id="edge10" class="edge">
<title>Node34&#45;&gt;Node39</title>
<path fill="none" stroke="midnightblue" d="M733.43,-386.06C799.8,-382.76 894.41,-378.07 960.51,-374.79"/>
<polygon fill="midnightblue" stroke="midnightblue" points="961.05,-378.27 970.87,-374.28 960.71,-371.28 961.05,-378.27"/>
</g>
<!-- Node38&#45;&gt;Node39 -->
<g id="edge9" class="edge">
<title>Node38&#45;&gt;Node39</title>
<path fill="none" stroke="midnightblue" d="M904.54,-399.36C921.61,-395.73 941.55,-391.48 960.74,-387.39"/>
<polygon fill="midnightblue" stroke="midnightblue" points="961.64,-390.78 970.69,-385.28 960.18,-383.93 961.64,-390.78"/>
</g>
<!-- Node45 -->
<g id="node12" class="node">
<title>Node45</title>
<g id="a_node12"><a xlink:href="classv8_1_1internal_1_1StackFrame.html#a3d839b46ed5210566ed310229fdb0a8d" target="_top" xlink:title=" ">
<polygon fill="white" stroke="black" points="376,-106.95 376,-136.95 512,-136.95 512,-106.95 376,-106.95"/>
<text text-anchor="start" x="384" y="-124.95" font-family="Helvetica,sans-Serif" font-size="10.00">v8::internal::StackFrame</text>
<text text-anchor="middle" x="444" y="-113.95" font-family="Helvetica,sans-Serif" font-size="10.00">::IsTypeMarker</text>
</a>
</g>
</g>
<!-- Node44&#45;&gt;Node45 -->
<g id="edge13" class="edge">
<title>Node44&#45;&gt;Node45</title>
<path fill="none" stroke="midnightblue" d="M326.03,-121.95C338.99,-121.95 352.49,-121.95 365.5,-121.95"/>
<polygon fill="midnightblue" stroke="midnightblue" points="365.82,-125.45 375.82,-121.95 365.82,-118.45 365.82,-125.45"/>
</g>
<!-- Node46 -->
<g id="node13" class="node">
<title>Node46</title>
<g id="a_node13"><a xlink:href="classv8_1_1internal_1_1RootVisitor.html#a390ab5df28b15ed06a0cb31f1099a0ce" target="_top" xlink:title=" ">
<polygon fill="white" stroke="black" points="973,-2.95 973,-32.95 1105,-32.95 1105,-2.95 973,-2.95"/>
<text text-anchor="start" x="981" y="-20.95" font-family="Helvetica,sans-Serif" font-size="10.00">v8::internal::RootVisitor</text>
<text text-anchor="middle" x="1039" y="-9.95" font-family="Helvetica,sans-Serif" font-size="10.00">::VisitRootPointers</text>
</a>
</g>
</g>
<!-- Node44&#45;&gt;Node46 -->
<g id="edge14" class="edge">
<title>Node44&#45;&gt;Node46</title>
<path fill="none" stroke="midnightblue" d="M282.76,-106.86C338.3,-81.79 456.25,-32.6 562,-14.95 701.99,8.43 868.38,-0.91 962.75,-9.59"/>
<polygon fill="midnightblue" stroke="midnightblue" points="962.48,-13.08 972.77,-10.53 963.14,-6.11 962.48,-13.08"/>
</g>
<!-- Node47&#45;&gt;Node2 -->
<g id="edge17" class="edge">
<title>Node47&#45;&gt;Node2</title>
<path fill="none" stroke="midnightblue" d="M472.85,-268.15C496.24,-280.58 530.75,-298.12 562,-310.95 572.02,-315.06 582.82,-319.01 593.36,-322.63"/>
<polygon fill="midnightblue" stroke="midnightblue" points="592.35,-325.99 602.95,-325.86 594.58,-319.35 592.35,-325.99"/>
</g>
<!-- Node47&#45;&gt;Node33 -->
<g id="edge21" class="edge">
<title>Node47&#45;&gt;Node33</title>
<path fill="none" stroke="midnightblue" d="M451.57,-268.14C466.35,-300.42 505.37,-376.07 562,-414.95 566.35,-417.93 571.05,-420.55 575.95,-422.84"/>
<polygon fill="midnightblue" stroke="midnightblue" points="574.98,-426.23 585.55,-426.85 577.68,-419.77 574.98,-426.23"/>
</g>
<!-- Node47&#45;&gt;Node34 -->
<g id="edge22" class="edge">
<title>Node47&#45;&gt;Node34</title>
<path fill="none" stroke="midnightblue" d="M456.5,-268.28C475.65,-292.71 516.48,-340.31 562,-365.95 565.25,-367.78 568.65,-369.47 572.14,-371.04"/>
<polygon fill="midnightblue" stroke="midnightblue" points="570.97,-374.35 581.55,-374.91 573.63,-367.87 570.97,-374.35"/>
</g>
<!-- Node47&#45;&gt;Node35 -->
<g id="edge20" class="edge">
<title>Node47&#45;&gt;Node35</title>
<path fill="none" stroke="midnightblue" d="M510.08,-268.01C526.93,-271.59 545.09,-275.17 562,-277.95 635.7,-290.03 720.45,-299.31 780.23,-305.1"/>
<polygon fill="midnightblue" stroke="midnightblue" points="780.06,-308.6 790.35,-306.07 780.73,-301.63 780.06,-308.6"/>
</g>
<!-- Node47&#45;&gt;Node39 -->
<g id="edge23" class="edge">
<title>Node47&#45;&gt;Node39</title>
<path fill="none" stroke="midnightblue" d="M456.27,-237.94C475.09,-214.29 515.47,-169.25 562,-151.95 638.65,-123.44 668.17,-126.85 746,-151.95 865.44,-190.45 974.83,-300.45 1018.24,-348.28"/>
<polygon fill="midnightblue" stroke="midnightblue" points="1015.82,-350.82 1025.1,-355.93 1021.03,-346.15 1015.82,-350.82"/>
</g>
<!-- Node48 -->
<g id="node15" class="node">
<title>Node48</title>
<g id="a_node15"><a xlink:href="classv8_1_1internal_1_1Isolate.html#a264be1d9765090be14a3b999bdf4d184" target="_top" xlink:title=" ">
<polygon fill="white" stroke="black" points="598.5,-237.95 598.5,-267.95 709.5,-267.95 709.5,-237.95 598.5,-237.95"/>
<text text-anchor="start" x="606.5" y="-255.95" font-family="Helvetica,sans-Serif" font-size="10.00">v8::internal::Isolate</text>
<text text-anchor="middle" x="654" y="-244.95" font-family="Helvetica,sans-Serif" font-size="10.00">::code_cage_base</text>
</a>
</g>
</g>
<!-- Node47&#45;&gt;Node48 -->
<g id="edge16" class="edge">
<title>Node47&#45;&gt;Node48</title>
<path fill="none" stroke="midnightblue" d="M512.24,-252.95C536.65,-252.95 564.16,-252.95 588.33,-252.95"/>
<polygon fill="midnightblue" stroke="midnightblue" points="588.47,-256.45 598.47,-252.95 588.47,-249.45 588.47,-256.45"/>
</g>
<!-- Node8 -->
<g id="node16" class="node">
<title>Node8</title>
<g id="a_node16"><a xlink:href="namespacev8_1_1internal.html#aa6b3743bd5d773c552654f2a6c3efa4a" target="_top" xlink:title=" ">
<polygon fill="white" stroke="black" points="594.5,-199.45 594.5,-218.45 713.5,-218.45 713.5,-199.45 594.5,-199.45"/>
<text text-anchor="middle" x="654" y="-206.45" font-family="Helvetica,sans-Serif" font-size="10.00">v8::internal::DCHECK</text>
</a>
</g>
</g>
<!-- Node47&#45;&gt;Node8 -->
<g id="edge18" class="edge">
<title>Node47&#45;&gt;Node8</title>
<path fill="none" stroke="midnightblue" d="M512.24,-238.72C540.03,-232.84 571.83,-226.12 598.17,-220.55"/>
<polygon fill="midnightblue" stroke="midnightblue" points="598.92,-223.97 607.98,-218.47 597.47,-217.12 598.92,-223.97"/>
</g>
<!-- Node49 -->
<g id="node17" class="node">
<title>Node49</title>
<g id="a_node17"><a xlink:href="flag-definitions_8h.html#a761e4e5929b1553283fd6a532822bb17" target="_top" xlink:title=" ">
<polygon fill="white" stroke="black" points="633.5,-161.45 633.5,-180.45 674.5,-180.45 674.5,-161.45 633.5,-161.45"/>
<text text-anchor="middle" x="654" y="-168.45" font-family="Helvetica,sans-Serif" font-size="10.00">heap</text>
</a>
</g>
</g>
<!-- Node47&#45;&gt;Node49 -->
<g id="edge19" class="edge">
<title>Node47&#45;&gt;Node49</title>
<path fill="none" stroke="midnightblue" d="M468.26,-237.81C491.22,-223.51 527.76,-202.44 562,-189.95 581.9,-182.69 605.31,-177.88 623.41,-174.91"/>
<polygon fill="midnightblue" stroke="midnightblue" points="624.03,-178.36 633.38,-173.38 622.96,-171.44 624.03,-178.36"/>
</g>
<!-- Node50 -->
<g id="node18" class="node">
<title>Node50</title>
<g id="a_node18"><a xlink:href="classv8_1_1internal_1_1PointerAuthentication.html#a302300591f85b4b54ec7464708d74f88" target="_top" xlink:title=" ">
<polygon fill="white" stroke="black" points="562,-73.95 562,-103.95 746,-103.95 746,-73.95 562,-73.95"/>
<text text-anchor="start" x="570" y="-91.95" font-family="Helvetica,sans-Serif" font-size="10.00">v8::internal::PointerAuthentication</text>
<text text-anchor="middle" x="654" y="-80.95" font-family="Helvetica,sans-Serif" font-size="10.00">::ReplacePC</text>
</a>
</g>
</g>
<!-- Node47&#45;&gt;Node50 -->
<g id="edge24" class="edge">
<title>Node47&#45;&gt;Node50</title>
<path fill="none" stroke="midnightblue" d="M454.29,-237.72C471.91,-210.1 512.85,-151.56 562,-118.95 568.43,-114.68 575.52,-110.97 582.82,-107.76"/>
<polygon fill="midnightblue" stroke="midnightblue" points="584.21,-110.98 592.15,-103.96 581.56,-104.5 584.21,-110.98"/>
</g>
<!-- Node51 -->
<g id="node20" class="node">
<title>Node51</title>
<g id="a_node20"><a xlink:href="classv8_1_1internal_1_1RootVisitor.html#a6fbf703c45d325a95ea4d5da08d033d9" target="_top" xlink:title=" ">
<polygon fill="white" stroke="black" points="588,-24.95 588,-54.95 720,-54.95 720,-24.95 588,-24.95"/>
<text text-anchor="start" x="596" y="-42.95" font-family="Helvetica,sans-Serif" font-size="10.00">v8::internal::RootVisitor</text>
<text text-anchor="middle" x="654" y="-31.95" font-family="Helvetica,sans-Serif" font-size="10.00">::VisitRunningCode</text>
</a>
</g>
</g>
<!-- Node47&#45;&gt;Node51 -->
<g id="edge26" class="edge">
<title>Node47&#45;&gt;Node51</title>
<path fill="none" stroke="midnightblue" d="M458.29,-237.81C475.43,-217.77 505.48,-180.91 526,-145.95 546.15,-111.62 531.75,-89.81 562,-63.95 566.89,-59.77 572.43,-56.3 578.3,-53.44"/>
<polygon fill="midnightblue" stroke="midnightblue" points="579.93,-56.55 587.76,-49.41 577.18,-50.11 579.93,-56.55"/>
</g>
<!-- Node42 -->
<g id="node19" class="node">
<title>Node42</title>
<g id="a_node19"><a xlink:href="namespacev8_1_1internal_1_1impl.html#a0dbed5bd135571c37d8a47f2715b28f7" target="_top" xlink:title=" ">
<polygon fill="white" stroke="black" points="808.5,-73.95 808.5,-103.95 908.5,-103.95 908.5,-73.95 808.5,-73.95"/>
<text text-anchor="start" x="816.5" y="-91.95" font-family="Helvetica,sans-Serif" font-size="10.00">v8::internal::impl</text>
<text text-anchor="middle" x="858.5" y="-80.95" font-family="Helvetica,sans-Serif" font-size="10.00">::AuthPAC</text>
</a>
</g>
</g>
<!-- Node50&#45;&gt;Node42 -->
<g id="edge25" class="edge">
<title>Node50&#45;&gt;Node42</title>
<path fill="none" stroke="midnightblue" d="M746.18,-88.95C763.75,-88.95 781.72,-88.95 797.96,-88.95"/>
<polygon fill="midnightblue" stroke="midnightblue" points="798.36,-92.45 808.36,-88.95 798.36,-85.45 798.36,-92.45"/>
</g>
<!-- Node52 -->
<g id="node21" class="node">
<title>Node52</title>
<g id="a_node21"><a xlink:href="classv8_1_1internal_1_1RootVisitor.html#aa78a6dcf8930fbd29d1cb4c6605c2fae" target="_top" xlink:title=" ">
<polygon fill="white" stroke="black" points="792.5,-24.95 792.5,-54.95 924.5,-54.95 924.5,-24.95 792.5,-24.95"/>
<text text-anchor="start" x="800.5" y="-42.95" font-family="Helvetica,sans-Serif" font-size="10.00">v8::internal::RootVisitor</text>
<text text-anchor="middle" x="858.5" y="-31.95" font-family="Helvetica,sans-Serif" font-size="10.00">::VisitRootPointer</text>
</a>
</g>
</g>
<!-- Node51&#45;&gt;Node52 -->
<g id="edge27" class="edge">
<title>Node51&#45;&gt;Node52</title>
<path fill="none" stroke="midnightblue" d="M720.19,-39.95C739.97,-39.95 761.86,-39.95 782.25,-39.95"/>
<polygon fill="midnightblue" stroke="midnightblue" points="782.44,-43.45 792.44,-39.95 782.44,-36.45 782.44,-43.45"/>
</g>
<!-- Node52&#45;&gt;Node46 -->
<g id="edge28" class="edge">
<title>Node52&#45;&gt;Node46</title>
<path fill="none" stroke="midnightblue" d="M924.7,-31.91C937.12,-30.38 950.2,-28.77 962.9,-27.2"/>
<polygon fill="midnightblue" stroke="midnightblue" points="963.48,-30.66 972.98,-25.96 962.62,-23.71 963.48,-30.66"/>
</g>
</g>
</svg>
