<?xml version="1.0" encoding="UTF-8" standalone="no"?>
<!DOCTYPE svg PUBLIC "-//W3C//DTD SVG 1.1//EN"
 "http://www.w3.org/Graphics/SVG/1.1/DTD/svg11.dtd">
<!-- Generated by graphviz version 2.43.0 (0)
 -->
<!-- Title: v8::internal::Counters::FindLocation Pages: 1 -->
<svg width="684pt" height="264pt"
 viewBox="0.00 0.00 684.00 263.50" xmlns="http://www.w3.org/2000/svg" xmlns:xlink="http://www.w3.org/1999/xlink">
<g id="graph0" class="graph" transform="scale(1 1) rotate(0) translate(4 259.5)">
<title>v8::internal::Counters::FindLocation</title>
<polygon fill="white" stroke="transparent" points="-4,4 -4,-259.5 680,-259.5 680,4 -4,4"/>
<!-- Node1 -->
<g id="node1" class="node">
<title>Node1</title>
<g id="a_node1"><a xlink:title=" ">
<polygon fill="#bfbfbf" stroke="black" points="554,-110 554,-140 676,-140 676,-110 554,-110"/>
<text text-anchor="start" x="562" y="-128" font-family="Helvetica,sans-Serif" font-size="10.00">v8::internal::Counters</text>
<text text-anchor="middle" x="615" y="-117" font-family="Helvetica,sans-Serif" font-size="10.00">::FindLocation</text>
</a>
</g>
</g>
<!-- Node2 -->
<g id="node2" class="node">
<title>Node2</title>
<g id="a_node2"><a xlink:href="classv8_1_1internal_1_1StatsCounter.html#a57fec46ce4cb9bc62739f681a97bc7bb" target="_top" xlink:title=" ">
<polygon fill="white" stroke="black" points="377,-110 377,-140 518,-140 518,-110 377,-110"/>
<text text-anchor="start" x="385" y="-128" font-family="Helvetica,sans-Serif" font-size="10.00">v8::internal::StatsCounter</text>
<text text-anchor="middle" x="447.5" y="-117" font-family="Helvetica,sans-Serif" font-size="10.00">::SetupPtrFromStatsTable</text>
</a>
</g>
</g>
<!-- Node1&#45;&gt;Node2 -->
<g id="edge1" class="edge">
<title>Node1&#45;&gt;Node2</title>
<path fill="none" stroke="midnightblue" d="M543.63,-125C535.21,-125 526.62,-125 518.22,-125"/>
<polygon fill="midnightblue" stroke="midnightblue" points="543.78,-128.5 553.78,-125 543.78,-121.5 543.78,-128.5"/>
</g>
<!-- Node3 -->
<g id="node3" class="node">
<title>Node3</title>
<g id="a_node3"><a xlink:href="classv8_1_1internal_1_1StatsCounter.html#aa5fb076e7aec908e4b2edc6157aa99be" target="_top" xlink:title=" ">
<polygon fill="white" stroke="black" points="200,-110 200,-140 341,-140 341,-110 200,-110"/>
<text text-anchor="start" x="208" y="-128" font-family="Helvetica,sans-Serif" font-size="10.00">v8::internal::StatsCounter</text>
<text text-anchor="middle" x="270.5" y="-117" font-family="Helvetica,sans-Serif" font-size="10.00">::GetPtr</text>
</a>
</g>
</g>
<!-- Node2&#45;&gt;Node3 -->
<g id="edge2" class="edge">
<title>Node2&#45;&gt;Node3</title>
<path fill="none" stroke="midnightblue" d="M366.58,-125C358.11,-125 349.55,-125 341.21,-125"/>
<polygon fill="midnightblue" stroke="midnightblue" points="366.83,-128.5 376.83,-125 366.83,-121.5 366.83,-128.5"/>
</g>
<!-- Node4 -->
<g id="node4" class="node">
<title>Node4</title>
<g id="a_node4"><a xlink:href="classv8_1_1internal_1_1StatsCounter.html#afe0862bae5a486131580387beb65128d" target="_top" xlink:title=" ">
<polygon fill="white" stroke="black" points="11.5,-225 11.5,-255 152.5,-255 152.5,-225 11.5,-225"/>
<text text-anchor="start" x="19.5" y="-243" font-family="Helvetica,sans-Serif" font-size="10.00">v8::internal::StatsCounter</text>
<text text-anchor="middle" x="82" y="-232" font-family="Helvetica,sans-Serif" font-size="10.00">::Decrement</text>
</a>
</g>
</g>
<!-- Node3&#45;&gt;Node4 -->
<g id="edge3" class="edge">
<title>Node3&#45;&gt;Node4</title>
<path fill="none" stroke="midnightblue" d="M248.97,-147.5C229.07,-168.05 197.13,-197.91 164,-216 157.82,-219.37 151.11,-222.33 144.29,-224.9"/>
<polygon fill="midnightblue" stroke="midnightblue" points="251.62,-149.79 255.98,-140.13 246.55,-144.96 251.62,-149.79"/>
</g>
<!-- Node5 -->
<g id="node5" class="node">
<title>Node5</title>
<g id="a_node5"><a xlink:href="classv8_1_1internal_1_1StatsCounter.html#abcc22126787bbe92b4dd31979124cf84" target="_top" xlink:title=" ">
<polygon fill="white" stroke="red" points="11.5,-176 11.5,-206 152.5,-206 152.5,-176 11.5,-176"/>
<text text-anchor="start" x="19.5" y="-194" font-family="Helvetica,sans-Serif" font-size="10.00">v8::internal::StatsCounter</text>
<text text-anchor="middle" x="82" y="-183" font-family="Helvetica,sans-Serif" font-size="10.00">::Enabled</text>
</a>
</g>
</g>
<!-- Node3&#45;&gt;Node5 -->
<g id="edge4" class="edge">
<title>Node3&#45;&gt;Node5</title>
<path fill="none" stroke="midnightblue" d="M223.33,-143.76C204.98,-151.01 183.6,-159.18 164,-166 154.27,-169.39 143.81,-172.79 133.74,-175.95"/>
<polygon fill="midnightblue" stroke="midnightblue" points="224.63,-147.01 232.63,-140.07 222.05,-140.51 224.63,-147.01"/>
</g>
<!-- Node57 -->
<g id="node6" class="node">
<title>Node57</title>
<g id="a_node6"><a xlink:href="classv8_1_1internal_1_1StatsCounter.html#ab053a60df435e6c21f7a3757f60b4f17" target="_top" xlink:title=" ">
<polygon fill="white" stroke="black" points="0,-137.5 0,-156.5 164,-156.5 164,-137.5 0,-137.5"/>
<text text-anchor="middle" x="82" y="-144.5" font-family="Helvetica,sans-Serif" font-size="10.00">v8::internal::StatsCounter::Get</text>
</a>
</g>
</g>
<!-- Node3&#45;&gt;Node57 -->
<g id="edge5" class="edge">
<title>Node3&#45;&gt;Node57</title>
<path fill="none" stroke="midnightblue" d="M189.73,-134.41C181.08,-135.43 172.27,-136.47 163.62,-137.49"/>
<polygon fill="midnightblue" stroke="midnightblue" points="190.27,-137.87 199.79,-133.22 189.45,-130.92 190.27,-137.87"/>
</g>
<!-- Node58 -->
<g id="node7" class="node">
<title>Node58</title>
<g id="a_node7"><a xlink:href="classv8_1_1internal_1_1StatsCounter.html#aa02c81015f37a46a8d453b49e5fbc2ca" target="_top" xlink:title=" ">
<polygon fill="white" stroke="red" points="11.5,-88 11.5,-118 152.5,-118 152.5,-88 11.5,-88"/>
<text text-anchor="start" x="19.5" y="-106" font-family="Helvetica,sans-Serif" font-size="10.00">v8::internal::StatsCounter</text>
<text text-anchor="middle" x="82" y="-95" font-family="Helvetica,sans-Serif" font-size="10.00">::GetInternalPointer</text>
</a>
</g>
</g>
<!-- Node3&#45;&gt;Node58 -->
<g id="edge6" class="edge">
<title>Node3&#45;&gt;Node58</title>
<path fill="none" stroke="midnightblue" d="M189.56,-115.57C177.27,-114.12 164.67,-112.63 152.63,-111.21"/>
<polygon fill="midnightblue" stroke="midnightblue" points="189.45,-119.08 199.79,-116.78 190.27,-112.13 189.45,-119.08"/>
</g>
<!-- Node60 -->
<g id="node8" class="node">
<title>Node60</title>
<g id="a_node8"><a xlink:href="classv8_1_1internal_1_1StatsCounter.html#afe5ecda135c6c736efbe29e21e709f70" target="_top" xlink:title=" ">
<polygon fill="white" stroke="black" points="11.5,-39 11.5,-69 152.5,-69 152.5,-39 11.5,-39"/>
<text text-anchor="start" x="19.5" y="-57" font-family="Helvetica,sans-Serif" font-size="10.00">v8::internal::StatsCounter</text>
<text text-anchor="middle" x="82" y="-46" font-family="Helvetica,sans-Serif" font-size="10.00">::Increment</text>
</a>
</g>
</g>
<!-- Node3&#45;&gt;Node60 -->
<g id="edge7" class="edge">
<title>Node3&#45;&gt;Node60</title>
<path fill="none" stroke="midnightblue" d="M228.43,-105.82C209.09,-97.11 185.57,-87 164,-79 154.62,-75.52 144.5,-72.12 134.71,-69.01"/>
<polygon fill="midnightblue" stroke="midnightblue" points="227.01,-109.02 237.56,-109.96 229.9,-102.64 227.01,-109.02"/>
</g>
<!-- Node61 -->
<g id="node9" class="node">
<title>Node61</title>
<g id="a_node9"><a xlink:href="classv8_1_1internal_1_1StatsCounter.html#aab7d2cc46f664c55ce42c0e76ac1948e" target="_top" xlink:title=" ">
<polygon fill="white" stroke="black" points="0.5,-0.5 0.5,-19.5 163.5,-19.5 163.5,-0.5 0.5,-0.5"/>
<text text-anchor="middle" x="82" y="-7.5" font-family="Helvetica,sans-Serif" font-size="10.00">v8::internal::StatsCounter::Set</text>
</a>
</g>
</g>
<!-- Node3&#45;&gt;Node61 -->
<g id="edge8" class="edge">
<title>Node3&#45;&gt;Node61</title>
<path fill="none" stroke="midnightblue" d="M250.35,-102.21C230.82,-80.45 198.56,-48.33 164,-30 155.81,-25.66 146.65,-22.24 137.52,-19.55"/>
<polygon fill="midnightblue" stroke="midnightblue" points="247.96,-104.79 257.19,-110 253.22,-100.17 247.96,-104.79"/>
</g>
</g>
</svg>
