<?xml version="1.0" encoding="UTF-8" standalone="no"?>
<!DOCTYPE svg PUBLIC "-//W3C//DTD SVG 1.1//EN"
 "http://www.w3.org/Graphics/SVG/1.1/DTD/svg11.dtd">
<!-- Generated by graphviz version 2.43.0 (0)
 -->
<!-- Title: v8::internal::CodeAddressMap::NameMap::Lookup Pages: 1 -->
<svg width="786pt" height="39pt"
 viewBox="0.00 0.00 786.00 39.00" xmlns="http://www.w3.org/2000/svg" xmlns:xlink="http://www.w3.org/1999/xlink">
<g id="graph0" class="graph" transform="scale(1 1) rotate(0) translate(4 35)">
<title>v8::internal::CodeAddressMap::NameMap::Lookup</title>
<polygon fill="white" stroke="transparent" points="-4,4 -4,-35 782,-35 782,4 -4,4"/>
<!-- Node1 -->
<g id="node1" class="node">
<title>Node1</title>
<g id="a_node1"><a xlink:title=" ">
<polygon fill="#bfbfbf" stroke="black" points="0,-0.5 0,-30.5 142,-30.5 142,-0.5 0,-0.5"/>
<text text-anchor="start" x="8" y="-18.5" font-family="Helvetica,sans-Serif" font-size="10.00">v8::internal::CodeAddress</text>
<text text-anchor="middle" x="71" y="-7.5" font-family="Helvetica,sans-Serif" font-size="10.00">Map::NameMap::Lookup</text>
</a>
</g>
</g>
<!-- Node2 -->
<g id="node2" class="node">
<title>Node2</title>
<g id="a_node2"><a xlink:href="classv8_1_1internal_1_1CodeAddressMap_1_1NameMap.html#a716c09e763c078a36b051ec798a0803f" target="_top" xlink:title=" ">
<polygon fill="white" stroke="black" points="178,-0.5 178,-30.5 324,-30.5 324,-0.5 178,-0.5"/>
<text text-anchor="start" x="186" y="-18.5" font-family="Helvetica,sans-Serif" font-size="10.00">v8::internal::CodeAddress</text>
<text text-anchor="middle" x="251" y="-7.5" font-family="Helvetica,sans-Serif" font-size="10.00">Map::NameMap::FindEntry</text>
</a>
</g>
</g>
<!-- Node1&#45;&gt;Node2 -->
<g id="edge1" class="edge">
<title>Node1&#45;&gt;Node2</title>
<path fill="none" stroke="midnightblue" d="M142.09,-15.5C150.56,-15.5 159.26,-15.5 167.87,-15.5"/>
<polygon fill="midnightblue" stroke="midnightblue" points="167.92,-19 177.92,-15.5 167.92,-12 167.92,-19"/>
</g>
<!-- Node3 -->
<g id="node3" class="node">
<title>Node3</title>
<g id="a_node3"><a xlink:href="namespacev8_1_1internal.html#afc0fca463c2a3badf70e62abe7b61771" target="_top" xlink:title=" ">
<polygon fill="white" stroke="black" points="360,-6 360,-25 546,-25 546,-6 360,-6"/>
<text text-anchor="middle" x="453" y="-13" font-family="Helvetica,sans-Serif" font-size="10.00">v8::internal::ComputeAddressHash</text>
</a>
</g>
</g>
<!-- Node2&#45;&gt;Node3 -->
<g id="edge2" class="edge">
<title>Node2&#45;&gt;Node3</title>
<path fill="none" stroke="midnightblue" d="M324.2,-15.5C332.49,-15.5 341.05,-15.5 349.63,-15.5"/>
<polygon fill="midnightblue" stroke="midnightblue" points="349.7,-19 359.7,-15.5 349.7,-12 349.7,-19"/>
</g>
<!-- Node4 -->
<g id="node4" class="node">
<title>Node4</title>
<g id="a_node4"><a xlink:href="namespacev8_1_1internal.html#a47b31aeca2a0324f88ec5380b31492fe" target="_top" xlink:title=" ">
<polygon fill="white" stroke="black" points="582,-6 582,-25 778,-25 778,-6 582,-6"/>
<text text-anchor="middle" x="680" y="-13" font-family="Helvetica,sans-Serif" font-size="10.00">v8::internal::ComputeUnseededHash</text>
</a>
</g>
</g>
<!-- Node3&#45;&gt;Node4 -->
<g id="edge3" class="edge">
<title>Node3&#45;&gt;Node4</title>
<path fill="none" stroke="midnightblue" d="M546.17,-15.5C554.63,-15.5 563.25,-15.5 571.82,-15.5"/>
<polygon fill="midnightblue" stroke="midnightblue" points="571.86,-19 581.86,-15.5 571.86,-12 571.86,-19"/>
</g>
</g>
</svg>
