<?xml version="1.0" encoding="UTF-8" standalone="no"?>
<!DOCTYPE svg PUBLIC "-//W3C//DTD SVG 1.1//EN"
 "http://www.w3.org/Graphics/SVG/1.1/DTD/svg11.dtd">
<!-- Generated by graphviz version 2.43.0 (0)
 -->
<!-- Title: v8::internal::wasm::LiftoffStackSlots::SortInPushOrder Pages: 1 -->
<svg width="691pt" height="137pt"
 viewBox="0.00 0.00 691.00 137.00" xmlns="http://www.w3.org/2000/svg" xmlns:xlink="http://www.w3.org/1999/xlink">
<g id="graph0" class="graph" transform="scale(1 1) rotate(0) translate(4 133)">
<title>v8::internal::wasm::LiftoffStackSlots::SortInPushOrder</title>
<polygon fill="white" stroke="transparent" points="-4,4 -4,-133 687,-133 687,4 -4,4"/>
<!-- Node1 -->
<g id="node1" class="node">
<title>Node1</title>
<g id="a_node1"><a xlink:title=" ">
<polygon fill="#bfbfbf" stroke="black" points="0,-43 0,-84 107,-84 107,-43 0,-43"/>
<text text-anchor="start" x="8" y="-72" font-family="Helvetica,sans-Serif" font-size="10.00">v8::internal::wasm</text>
<text text-anchor="start" x="8" y="-61" font-family="Helvetica,sans-Serif" font-size="10.00">::LiftoffStackSlots</text>
<text text-anchor="middle" x="53.5" y="-50" font-family="Helvetica,sans-Serif" font-size="10.00">::SortInPushOrder</text>
</a>
</g>
</g>
<!-- Node2 -->
<g id="node2" class="node">
<title>Node2</title>
<g id="a_node2"><a xlink:href="namespacev8_1_1base.html#ae8575343c68d7ad91cf7aaf24cd6643f" target="_top" xlink:title=" ">
<polygon fill="white" stroke="black" points="143,-54 143,-73 226,-73 226,-54 143,-54"/>
<text text-anchor="middle" x="184.5" y="-61" font-family="Helvetica,sans-Serif" font-size="10.00">v8::base::sort</text>
</a>
</g>
</g>
<!-- Node1&#45;&gt;Node2 -->
<g id="edge1" class="edge">
<title>Node1&#45;&gt;Node2</title>
<path fill="none" stroke="midnightblue" d="M107.34,-63.5C115.66,-63.5 124.24,-63.5 132.52,-63.5"/>
<polygon fill="midnightblue" stroke="midnightblue" points="132.79,-67 142.79,-63.5 132.79,-60 132.79,-67"/>
</g>
<!-- Node3 -->
<g id="node3" class="node">
<title>Node3</title>
<g id="a_node3"><a xlink:href="namespacev8_1_1internal_1_1compiler.html#ae72af9053b45630a01be9a6140820b5a" target="_top" xlink:title=" ">
<polygon fill="white" stroke="black" points="393,-72.5 393,-102.5 514,-102.5 514,-72.5 393,-72.5"/>
<text text-anchor="start" x="401" y="-90.5" font-family="Helvetica,sans-Serif" font-size="10.00">v8::internal::compiler</text>
<text text-anchor="middle" x="453.5" y="-79.5" font-family="Helvetica,sans-Serif" font-size="10.00">::begin</text>
</a>
</g>
</g>
<!-- Node2&#45;&gt;Node3 -->
<g id="edge2" class="edge">
<title>Node2&#45;&gt;Node3</title>
<path fill="none" stroke="midnightblue" d="M217.21,-73.02C230.86,-76.68 247.08,-80.48 262,-82.5 301.54,-87.86 346.1,-89.28 382.18,-89.28"/>
<polygon fill="midnightblue" stroke="midnightblue" points="382.61,-92.78 392.6,-89.25 382.59,-85.78 382.61,-92.78"/>
</g>
<!-- Node6 -->
<g id="node6" class="node">
<title>Node6</title>
<g id="a_node6"><a xlink:href="namespacev8_1_1internal_1_1compiler.html#a51dcb90ae077172b12d63271c7e7ba0c" target="_top" xlink:title=" ">
<polygon fill="white" stroke="black" points="381,-32 381,-51 526,-51 526,-32 381,-32"/>
<text text-anchor="middle" x="453.5" y="-39" font-family="Helvetica,sans-Serif" font-size="10.00">v8::internal::compiler::end</text>
</a>
</g>
</g>
<!-- Node2&#45;&gt;Node6 -->
<g id="edge5" class="edge">
<title>Node2&#45;&gt;Node6</title>
<path fill="none" stroke="midnightblue" d="M217.2,-53.91C230.85,-50.23 247.07,-46.45 262,-44.5 297.37,-39.89 336.75,-38.63 370.48,-38.72"/>
<polygon fill="midnightblue" stroke="midnightblue" points="370.73,-42.22 380.76,-38.79 370.78,-35.22 370.73,-42.22"/>
</g>
<!-- Node8 -->
<g id="node8" class="node">
<title>Node8</title>
<g id="a_node8"><a xlink:href="namespacev8_1_1base.html#a6cb4a0d359c08b58d40223b9e0e1f7d7" target="_top" xlink:title=" ">
<polygon fill="white" stroke="black" points="262,-54 262,-73 345,-73 345,-54 262,-54"/>
<text text-anchor="middle" x="303.5" y="-61" font-family="Helvetica,sans-Serif" font-size="10.00">v8::base::sort</text>
</a>
</g>
</g>
<!-- Node2&#45;&gt;Node8 -->
<g id="edge8" class="edge">
<title>Node2&#45;&gt;Node8</title>
<path fill="none" stroke="midnightblue" d="M226.09,-63.5C234.35,-63.5 243.14,-63.5 251.7,-63.5"/>
<polygon fill="midnightblue" stroke="midnightblue" points="251.98,-67 261.98,-63.5 251.98,-60 251.98,-67"/>
</g>
<!-- Node4 -->
<g id="node4" class="node">
<title>Node4</title>
<g id="a_node4"><a xlink:href="classv8_1_1internal_1_1compiler_1_1Node_1_1Uses.html#aa720f51bb6b18aacb86d212fb1ee7144" target="_top" xlink:title=" ">
<polygon fill="white" stroke="black" points="562,-98.5 562,-128.5 683,-128.5 683,-98.5 562,-98.5"/>
<text text-anchor="start" x="570" y="-116.5" font-family="Helvetica,sans-Serif" font-size="10.00">v8::internal::compiler</text>
<text text-anchor="middle" x="622.5" y="-105.5" font-family="Helvetica,sans-Serif" font-size="10.00">::Node::Uses::begin</text>
</a>
</g>
</g>
<!-- Node3&#45;&gt;Node4 -->
<g id="edge3" class="edge">
<title>Node3&#45;&gt;Node4</title>
<path fill="none" stroke="midnightblue" d="M514.32,-96.81C526.5,-98.71 539.42,-100.72 551.91,-102.67"/>
<polygon fill="midnightblue" stroke="midnightblue" points="551.4,-106.13 561.82,-104.21 552.48,-99.21 551.4,-106.13"/>
</g>
<!-- Node5 -->
<g id="node5" class="node">
<title>Node5</title>
<g id="a_node5"><a xlink:href="classv8_1_1internal_1_1compiler_1_1Node.html#a9ebd76ae3786acc626d9c4f3cc3f8557" target="_top" xlink:title=" ">
<polygon fill="white" stroke="black" points="562,-49.5 562,-79.5 683,-79.5 683,-49.5 562,-49.5"/>
<text text-anchor="start" x="570" y="-67.5" font-family="Helvetica,sans-Serif" font-size="10.00">v8::internal::compiler</text>
<text text-anchor="middle" x="622.5" y="-56.5" font-family="Helvetica,sans-Serif" font-size="10.00">::Node::uses</text>
</a>
</g>
</g>
<!-- Node3&#45;&gt;Node5 -->
<g id="edge4" class="edge">
<title>Node3&#45;&gt;Node5</title>
<path fill="none" stroke="midnightblue" d="M514.32,-79.26C526.38,-77.6 539.17,-75.84 551.54,-74.13"/>
<polygon fill="midnightblue" stroke="midnightblue" points="552.39,-77.55 561.82,-72.72 551.43,-70.62 552.39,-77.55"/>
</g>
<!-- Node6&#45;&gt;Node5 -->
<g id="edge7" class="edge">
<title>Node6&#45;&gt;Node5</title>
<path fill="none" stroke="midnightblue" d="M523.87,-51.05C533.15,-52.33 542.67,-53.64 551.95,-54.92"/>
<polygon fill="midnightblue" stroke="midnightblue" points="551.53,-58.4 561.91,-56.29 552.48,-51.46 551.53,-58.4"/>
</g>
<!-- Node7 -->
<g id="node7" class="node">
<title>Node7</title>
<g id="a_node7"><a xlink:href="classv8_1_1internal_1_1compiler_1_1Node_1_1Uses.html#aba0b04d7aa29dae3edbd2ba11a35ce81" target="_top" xlink:title=" ">
<polygon fill="white" stroke="black" points="562,-0.5 562,-30.5 683,-30.5 683,-0.5 562,-0.5"/>
<text text-anchor="start" x="570" y="-18.5" font-family="Helvetica,sans-Serif" font-size="10.00">v8::internal::compiler</text>
<text text-anchor="middle" x="622.5" y="-7.5" font-family="Helvetica,sans-Serif" font-size="10.00">::Node::Uses::end</text>
</a>
</g>
</g>
<!-- Node6&#45;&gt;Node7 -->
<g id="edge6" class="edge">
<title>Node6&#45;&gt;Node7</title>
<path fill="none" stroke="midnightblue" d="M515.74,-31.97C527.52,-30.13 539.94,-28.2 551.96,-26.33"/>
<polygon fill="midnightblue" stroke="midnightblue" points="552.6,-29.77 561.94,-24.77 551.52,-22.85 552.6,-29.77"/>
</g>
<!-- Node8&#45;&gt;Node3 -->
<g id="edge9" class="edge">
<title>Node8&#45;&gt;Node3</title>
<path fill="none" stroke="midnightblue" d="M345.33,-70.12C356.95,-72 369.93,-74.11 382.75,-76.19"/>
<polygon fill="midnightblue" stroke="midnightblue" points="382.53,-79.7 392.96,-77.84 383.65,-72.79 382.53,-79.7"/>
</g>
<!-- Node8&#45;&gt;Node6 -->
<g id="edge10" class="edge">
<title>Node8&#45;&gt;Node6</title>
<path fill="none" stroke="midnightblue" d="M345.33,-57.43C355.66,-55.9 367.07,-54.2 378.48,-52.5"/>
<polygon fill="midnightblue" stroke="midnightblue" points="379.1,-55.95 388.48,-51.02 378.07,-49.03 379.1,-55.95"/>
</g>
</g>
</svg>
