<?xml version="1.0" encoding="UTF-8" standalone="no"?>
<!DOCTYPE svg PUBLIC "-//W3C//DTD SVG 1.1//EN"
 "http://www.w3.org/Graphics/SVG/1.1/DTD/svg11.dtd">
<!-- Generated by graphviz version 2.43.0 (0)
 -->
<!-- Title: v8::internal::compiler::JSNativeContextSpecialization::BuildPropertyTest Pages: 1 -->
<svg width="1013pt" height="474pt"
 viewBox="0.00 0.00 1013.00 474.33" xmlns="http://www.w3.org/2000/svg" xmlns:xlink="http://www.w3.org/1999/xlink">
<g id="graph0" class="graph" transform="scale(1 1) rotate(0) translate(4 470.33)">
<title>v8::internal::compiler::JSNativeContextSpecialization::BuildPropertyTest</title>
<polygon fill="white" stroke="transparent" points="-4,4 -4,-470.33 1009,-470.33 1009,4 -4,4"/>
<!-- Node1 -->
<g id="node1" class="node">
<title>Node1</title>
<g id="a_node1"><a xlink:title=" ">
<polygon fill="#bfbfbf" stroke="black" points="0,-210.5 0,-251.5 170,-251.5 170,-210.5 0,-210.5"/>
<text text-anchor="start" x="8" y="-239.5" font-family="Helvetica,sans-Serif" font-size="10.00">v8::internal::compiler</text>
<text text-anchor="start" x="8" y="-228.5" font-family="Helvetica,sans-Serif" font-size="10.00">::JSNativeContextSpecialization</text>
<text text-anchor="middle" x="85" y="-217.5" font-family="Helvetica,sans-Serif" font-size="10.00">::BuildPropertyTest</text>
</a>
</g>
</g>
<!-- Node2 -->
<g id="node2" class="node">
<title>Node2</title>
<g id="a_node2"><a xlink:href="namespacev8_1_1internal.html#aa6b3743bd5d773c552654f2a6c3efa4a" target="_top" xlink:title=" ">
<polygon fill="white" stroke="black" points="239,-398.5 239,-417.5 358,-417.5 358,-398.5 239,-398.5"/>
<text text-anchor="middle" x="298.5" y="-405.5" font-family="Helvetica,sans-Serif" font-size="10.00">v8::internal::DCHECK</text>
</a>
</g>
</g>
<!-- Node1&#45;&gt;Node2 -->
<g id="edge1" class="edge">
<title>Node1&#45;&gt;Node2</title>
<path fill="none" stroke="midnightblue" d="M96.38,-251.6C114.16,-284.73 153.66,-349.62 206,-384 213.1,-388.67 221.07,-392.43 229.27,-395.46"/>
<polygon fill="midnightblue" stroke="midnightblue" points="228.37,-398.84 238.96,-398.69 230.58,-392.2 228.37,-398.84"/>
</g>
<!-- Node3 -->
<g id="node3" class="node">
<title>Node3</title>
<g id="a_node3"><a xlink:href="classv8_1_1internal_1_1compiler_1_1JSNativeContextSpecialization.html#aa853a881f531e80b1d5ac61a96c4bf73" target="_top" xlink:title=" ">
<polygon fill="white" stroke="black" points="431.5,-383.5 431.5,-424.5 601.5,-424.5 601.5,-383.5 431.5,-383.5"/>
<text text-anchor="start" x="439.5" y="-412.5" font-family="Helvetica,sans-Serif" font-size="10.00">v8::internal::compiler</text>
<text text-anchor="start" x="439.5" y="-401.5" font-family="Helvetica,sans-Serif" font-size="10.00">::JSNativeContextSpecialization</text>
<text text-anchor="middle" x="516.5" y="-390.5" font-family="Helvetica,sans-Serif" font-size="10.00">::dependencies</text>
</a>
</g>
</g>
<!-- Node1&#45;&gt;Node3 -->
<g id="edge2" class="edge">
<title>Node1&#45;&gt;Node3</title>
<path fill="none" stroke="midnightblue" d="M100.34,-251.85C120.5,-279.39 159.95,-327.17 206,-351 225.02,-360.84 337.27,-378.56 421.15,-390.79"/>
<polygon fill="midnightblue" stroke="midnightblue" points="420.83,-394.28 431.23,-392.25 421.84,-387.35 420.83,-394.28"/>
</g>
<!-- Node5 -->
<g id="node5" class="node">
<title>Node5</title>
<g id="a_node5"><a xlink:href="classv8_1_1internal_1_1compiler_1_1CompilationDependencies.html#ad9e30cf0e1ebe8df4a77ef6cf529ea3c" target="_top" xlink:title=" ">
<polygon fill="white" stroke="black" points="206,-300.5 206,-341.5 391,-341.5 391,-300.5 206,-300.5"/>
<text text-anchor="start" x="214" y="-329.5" font-family="Helvetica,sans-Serif" font-size="10.00">v8::internal::compiler</text>
<text text-anchor="start" x="214" y="-318.5" font-family="Helvetica,sans-Serif" font-size="10.00">::CompilationDependencies</text>
<text text-anchor="middle" x="298.5" y="-307.5" font-family="Helvetica,sans-Serif" font-size="10.00">::DependOnStablePrototypeChains</text>
</a>
</g>
</g>
<!-- Node1&#45;&gt;Node5 -->
<g id="edge4" class="edge">
<title>Node1&#45;&gt;Node5</title>
<path fill="none" stroke="midnightblue" d="M123.44,-251.5C146.78,-263.84 177.67,-279.35 206,-291 210.8,-292.98 215.79,-294.92 220.85,-296.8"/>
<polygon fill="midnightblue" stroke="midnightblue" points="220.02,-300.22 230.62,-300.34 222.41,-293.64 220.02,-300.22"/>
</g>
<!-- Node23 -->
<g id="node14" class="node">
<title>Node23</title>
<g id="a_node14"><a xlink:href="classv8_1_1internal_1_1compiler_1_1PropertyAccessInfo.html#abcf005ce43f23de4e36b912f85e7077c" target="_top" xlink:title=" ">
<polygon fill="white" stroke="black" points="237.5,-240.5 237.5,-281.5 359.5,-281.5 359.5,-240.5 237.5,-240.5"/>
<text text-anchor="start" x="245.5" y="-269.5" font-family="Helvetica,sans-Serif" font-size="10.00">v8::internal::compiler</text>
<text text-anchor="start" x="245.5" y="-258.5" font-family="Helvetica,sans-Serif" font-size="10.00">::PropertyAccessInfo::</text>
<text text-anchor="middle" x="298.5" y="-247.5" font-family="Helvetica,sans-Serif" font-size="10.00">HasDictionaryHolder</text>
</a>
</g>
</g>
<!-- Node1&#45;&gt;Node23 -->
<g id="edge18" class="edge">
<title>Node1&#45;&gt;Node23</title>
<path fill="none" stroke="midnightblue" d="M170.2,-242.94C189.15,-245.63 209.07,-248.46 227.37,-251.05"/>
<polygon fill="midnightblue" stroke="midnightblue" points="226.97,-254.53 237.36,-252.47 227.95,-247.6 226.97,-254.53"/>
</g>
<!-- Node24 -->
<g id="node15" class="node">
<title>Node24</title>
<g id="a_node15"><a xlink:href="classv8_1_1internal_1_1compiler_1_1PropertyAccessInfo.html#a8977b7dd6a32f314300671b5770303db" target="_top" xlink:title=" ">
<polygon fill="white" stroke="black" points="237.5,-180.5 237.5,-221.5 359.5,-221.5 359.5,-180.5 237.5,-180.5"/>
<text text-anchor="start" x="245.5" y="-209.5" font-family="Helvetica,sans-Serif" font-size="10.00">v8::internal::compiler</text>
<text text-anchor="start" x="245.5" y="-198.5" font-family="Helvetica,sans-Serif" font-size="10.00">::PropertyAccessInfo::</text>
<text text-anchor="middle" x="298.5" y="-187.5" font-family="Helvetica,sans-Serif" font-size="10.00">holder</text>
</a>
</g>
</g>
<!-- Node1&#45;&gt;Node24 -->
<g id="edge19" class="edge">
<title>Node1&#45;&gt;Node24</title>
<path fill="none" stroke="midnightblue" d="M170.2,-219.06C189.15,-216.37 209.07,-213.54 227.37,-210.95"/>
<polygon fill="midnightblue" stroke="midnightblue" points="227.95,-214.4 237.36,-209.53 226.97,-207.47 227.95,-214.4"/>
</g>
<!-- Node25 -->
<g id="node16" class="node">
<title>Node25</title>
<g id="a_node16"><a xlink:href="classv8_1_1internal_1_1compiler_1_1PropertyAccessInfo.html#ac8207b49759f075a32e4fc56781fbf44" target="_top" xlink:title=" ">
<polygon fill="white" stroke="black" points="237.5,-120.5 237.5,-161.5 359.5,-161.5 359.5,-120.5 237.5,-120.5"/>
<text text-anchor="start" x="245.5" y="-149.5" font-family="Helvetica,sans-Serif" font-size="10.00">v8::internal::compiler</text>
<text text-anchor="start" x="245.5" y="-138.5" font-family="Helvetica,sans-Serif" font-size="10.00">::PropertyAccessInfo::</text>
<text text-anchor="middle" x="298.5" y="-127.5" font-family="Helvetica,sans-Serif" font-size="10.00">IsNotFound</text>
</a>
</g>
</g>
<!-- Node1&#45;&gt;Node25 -->
<g id="edge20" class="edge">
<title>Node1&#45;&gt;Node25</title>
<path fill="none" stroke="midnightblue" d="M123.44,-210.5C146.78,-198.16 177.67,-182.65 206,-171 213.07,-168.09 220.53,-165.27 228.01,-162.59"/>
<polygon fill="midnightblue" stroke="midnightblue" points="229.2,-165.88 237.48,-159.28 226.89,-159.27 229.2,-165.88"/>
</g>
<!-- Node27 -->
<g id="node18" class="node">
<title>Node27</title>
<g id="a_node18"><a xlink:href="classv8_1_1internal_1_1compiler_1_1JSNativeContextSpecialization.html#ab03b12ed37292911ce879dce3bc6a2c0" target="_top" xlink:title=" ">
<polygon fill="white" stroke="black" points="213.5,-60.5 213.5,-101.5 383.5,-101.5 383.5,-60.5 213.5,-60.5"/>
<text text-anchor="start" x="221.5" y="-89.5" font-family="Helvetica,sans-Serif" font-size="10.00">v8::internal::compiler</text>
<text text-anchor="start" x="221.5" y="-78.5" font-family="Helvetica,sans-Serif" font-size="10.00">::JSNativeContextSpecialization</text>
<text text-anchor="middle" x="298.5" y="-67.5" font-family="Helvetica,sans-Serif" font-size="10.00">::jsgraph</text>
</a>
</g>
</g>
<!-- Node1&#45;&gt;Node27 -->
<g id="edge22" class="edge">
<title>Node1&#45;&gt;Node27</title>
<path fill="none" stroke="midnightblue" d="M101.61,-210.21C122.58,-183.63 162.32,-137.84 206,-111 208.94,-109.19 212,-107.49 215.14,-105.87"/>
<polygon fill="midnightblue" stroke="midnightblue" points="216.66,-109.02 224.17,-101.55 213.64,-102.7 216.66,-109.02"/>
</g>
<!-- Node28 -->
<g id="node19" class="node">
<title>Node28</title>
<g id="a_node19"><a xlink:href="classv8_1_1internal_1_1compiler_1_1PropertyAccessInfo.html#a3e7d1d7a2a609779ddbccbbddd444ba6" target="_top" xlink:title=" ">
<polygon fill="white" stroke="black" points="226.5,-0.5 226.5,-41.5 370.5,-41.5 370.5,-0.5 226.5,-0.5"/>
<text text-anchor="start" x="234.5" y="-29.5" font-family="Helvetica,sans-Serif" font-size="10.00">v8::internal::compiler</text>
<text text-anchor="start" x="234.5" y="-18.5" font-family="Helvetica,sans-Serif" font-size="10.00">::PropertyAccessInfo::</text>
<text text-anchor="middle" x="298.5" y="-7.5" font-family="Helvetica,sans-Serif" font-size="10.00">lookup_start_object_maps</text>
</a>
</g>
</g>
<!-- Node1&#45;&gt;Node28 -->
<g id="edge23" class="edge">
<title>Node1&#45;&gt;Node28</title>
<path fill="none" stroke="midnightblue" d="M94.23,-210.47C110.2,-173.24 148.88,-94.4 206,-51 209.44,-48.38 213.13,-45.99 216.96,-43.8"/>
<polygon fill="midnightblue" stroke="midnightblue" points="218.88,-46.75 226.16,-39.05 215.67,-40.53 218.88,-46.75"/>
</g>
<!-- Node4 -->
<g id="node4" class="node">
<title>Node4</title>
<g id="a_node4"><a xlink:href="flag-definitions_8h.html#a1e4d6c2aea5c663dda8b8fca8b9199a5" target="_top" xlink:title=" ">
<polygon fill="white" stroke="black" points="912,-360.5 912,-379.5 959,-379.5 959,-360.5 912,-360.5"/>
<text text-anchor="middle" x="935.5" y="-367.5" font-family="Helvetica,sans-Serif" font-size="10.00">broker</text>
</a>
</g>
</g>
<!-- Node3&#45;&gt;Node4 -->
<g id="edge3" class="edge">
<title>Node3&#45;&gt;Node4</title>
<path fill="none" stroke="midnightblue" d="M561.38,-424.55C584.75,-434.37 614.33,-445.05 642,-450 724.25,-464.71 750.86,-476.81 830,-450 866.71,-437.56 900.65,-406.48 919.38,-386.93"/>
<polygon fill="midnightblue" stroke="midnightblue" points="921.96,-389.28 926.22,-379.58 916.84,-384.51 921.96,-389.28"/>
</g>
<!-- Node6 -->
<g id="node6" class="node">
<title>Node6</title>
<g id="a_node6"><a xlink:href="classv8_1_1internal_1_1compiler_1_1CompilationDependencies.html#ac1e0e6cce382f3b536260b5d306868f3" target="_top" xlink:title=" ">
<polygon fill="white" stroke="black" points="427,-266.5 427,-307.5 606,-307.5 606,-266.5 427,-266.5"/>
<text text-anchor="start" x="435" y="-295.5" font-family="Helvetica,sans-Serif" font-size="10.00">v8::internal::compiler</text>
<text text-anchor="start" x="435" y="-284.5" font-family="Helvetica,sans-Serif" font-size="10.00">::CompilationDependencies</text>
<text text-anchor="middle" x="516.5" y="-273.5" font-family="Helvetica,sans-Serif" font-size="10.00">::DependOnStablePrototypeChain</text>
</a>
</g>
</g>
<!-- Node5&#45;&gt;Node6 -->
<g id="edge5" class="edge">
<title>Node5&#45;&gt;Node6</title>
<path fill="none" stroke="midnightblue" d="M391.1,-306.58C399.62,-305.24 408.27,-303.88 416.84,-302.53"/>
<polygon fill="midnightblue" stroke="midnightblue" points="417.52,-305.97 426.85,-300.95 416.43,-299.05 417.52,-305.97"/>
</g>
<!-- Node7 -->
<g id="node7" class="node">
<title>Node7</title>
<g id="a_node7"><a xlink:href="classv8_1_1internal_1_1compiler_1_1CompilationDependencies.html#adc9068a7c3ec403d4a35d3b586a576af" target="_top" xlink:title=" ">
<polygon fill="white" stroke="red" points="660.5,-349.5 660.5,-390.5 811.5,-390.5 811.5,-349.5 660.5,-349.5"/>
<text text-anchor="start" x="668.5" y="-378.5" font-family="Helvetica,sans-Serif" font-size="10.00">v8::internal::compiler</text>
<text text-anchor="start" x="668.5" y="-367.5" font-family="Helvetica,sans-Serif" font-size="10.00">::CompilationDependencies</text>
<text text-anchor="middle" x="736" y="-356.5" font-family="Helvetica,sans-Serif" font-size="10.00">::DependOnStableMap</text>
</a>
</g>
</g>
<!-- Node6&#45;&gt;Node7 -->
<g id="edge6" class="edge">
<title>Node6&#45;&gt;Node7</title>
<path fill="none" stroke="midnightblue" d="M562.93,-307.51C586.34,-317.78 615.48,-330.1 642,-340 647.5,-342.05 653.21,-344.1 658.97,-346.1"/>
<polygon fill="midnightblue" stroke="midnightblue" points="658.11,-349.5 668.7,-349.43 660.37,-342.88 658.11,-349.5"/>
</g>
<!-- Node12 -->
<g id="node8" class="node">
<title>Node12</title>
<g id="a_node8"><a xlink:href="classv8_1_1internal_1_1compiler_1_1NativeContextRef.html#a77ff858043801c79b1b8a082cbfa5323" target="_top" xlink:title=" ">
<polygon fill="white" stroke="red" points="642,-179.5 642,-220.5 830,-220.5 830,-179.5 642,-179.5"/>
<text text-anchor="start" x="650" y="-208.5" font-family="Helvetica,sans-Serif" font-size="10.00">v8::internal::compiler</text>
<text text-anchor="start" x="650" y="-197.5" font-family="Helvetica,sans-Serif" font-size="10.00">::NativeContextRef::GetConstructor</text>
<text text-anchor="middle" x="736" y="-186.5" font-family="Helvetica,sans-Serif" font-size="10.00">Function</text>
</a>
</g>
</g>
<!-- Node6&#45;&gt;Node12 -->
<g id="edge7" class="edge">
<title>Node6&#45;&gt;Node12</title>
<path fill="none" stroke="midnightblue" d="M559.04,-266.5C583,-255.05 613.86,-240.94 642,-230 647.37,-227.91 652.95,-225.85 658.59,-223.85"/>
<polygon fill="midnightblue" stroke="midnightblue" points="659.82,-227.12 668.12,-220.53 657.52,-220.51 659.82,-227.12"/>
</g>
<!-- Node14 -->
<g id="node9" class="node">
<title>Node14</title>
<g id="a_node9"><a xlink:href="classv8_1_1internal_1_1compiler_1_1MapRef.html#ad2f08a0e4e14f735b1e3b163933e2fcb" target="_top" xlink:title=" ">
<polygon fill="white" stroke="red" points="866,-108 866,-138 1005,-138 1005,-108 866,-108"/>
<text text-anchor="start" x="874" y="-126" font-family="Helvetica,sans-Serif" font-size="10.00">v8::internal::compiler</text>
<text text-anchor="middle" x="935.5" y="-115" font-family="Helvetica,sans-Serif" font-size="10.00">::MapRef::IsPrimitiveMap</text>
</a>
</g>
</g>
<!-- Node6&#45;&gt;Node14 -->
<g id="edge11" class="edge">
<title>Node6&#45;&gt;Node14</title>
<path fill="none" stroke="midnightblue" d="M529,-266.26C547.9,-234.45 588.81,-174.54 642,-148 708.64,-114.75 794.49,-111.31 855.92,-114.49"/>
<polygon fill="midnightblue" stroke="midnightblue" points="855.76,-117.98 865.95,-115.07 856.17,-110.99 855.76,-117.98"/>
</g>
<!-- Node16 -->
<g id="node10" class="node">
<title>Node16</title>
<g id="a_node10"><a xlink:href="classv8_1_1internal_1_1compiler_1_1HeapObjectRef.html#ab0ec80be81dfe0214687a6a198e57ff8" target="_top" xlink:title=" ">
<polygon fill="white" stroke="black" points="874,-166 874,-196 997,-196 997,-166 874,-166"/>
<text text-anchor="start" x="882" y="-184" font-family="Helvetica,sans-Serif" font-size="10.00">v8::internal::compiler</text>
<text text-anchor="middle" x="935.5" y="-173" font-family="Helvetica,sans-Serif" font-size="10.00">::HeapObjectRef::map</text>
</a>
</g>
</g>
<!-- Node6&#45;&gt;Node16 -->
<g id="edge12" class="edge">
<title>Node6&#45;&gt;Node16</title>
<path fill="none" stroke="midnightblue" d="M531.46,-266.45C551.9,-238.41 592.91,-189.44 642,-170 715.62,-140.84 807.99,-151.25 869.01,-163.87"/>
<polygon fill="midnightblue" stroke="midnightblue" points="868.38,-167.31 878.9,-165.99 869.85,-160.47 868.38,-167.31"/>
</g>
<!-- Node18 -->
<g id="node11" class="node">
<title>Node18</title>
<g id="a_node11"><a xlink:href="classv8_1_1internal_1_1compiler_1_1MapRef.html#aba9f7256b0aaaaf82c10f26e44d08f7e" target="_top" xlink:title=" ">
<polygon fill="white" stroke="red" points="672,-410 672,-440 800,-440 800,-410 672,-410"/>
<text text-anchor="start" x="680" y="-428" font-family="Helvetica,sans-Serif" font-size="10.00">v8::internal::compiler</text>
<text text-anchor="middle" x="736" y="-417" font-family="Helvetica,sans-Serif" font-size="10.00">::MapRef::oddball_type</text>
</a>
</g>
</g>
<!-- Node6&#45;&gt;Node18 -->
<g id="edge13" class="edge">
<title>Node6&#45;&gt;Node18</title>
<path fill="none" stroke="midnightblue" d="M537.81,-307.64C566.76,-336.66 618.94,-387.41 642,-400 648.36,-403.47 655.22,-406.48 662.25,-409.09"/>
<polygon fill="midnightblue" stroke="midnightblue" points="661.29,-412.46 671.89,-412.4 663.57,-405.84 661.29,-412.46"/>
</g>
<!-- Node19 -->
<g id="node12" class="node">
<title>Node19</title>
<g id="a_node12"><a xlink:href="classv8_1_1internal_1_1compiler_1_1MapRef.html#a786eecee2942ee266cc34b9f21932905" target="_top" xlink:title=" ">
<polygon fill="white" stroke="red" points="675.5,-300 675.5,-330 796.5,-330 796.5,-300 675.5,-300"/>
<text text-anchor="start" x="683.5" y="-318" font-family="Helvetica,sans-Serif" font-size="10.00">v8::internal::compiler</text>
<text text-anchor="middle" x="736" y="-307" font-family="Helvetica,sans-Serif" font-size="10.00">::MapRef::prototype</text>
</a>
</g>
</g>
<!-- Node6&#45;&gt;Node19 -->
<g id="edge15" class="edge">
<title>Node6&#45;&gt;Node19</title>
<path fill="none" stroke="midnightblue" d="M606.28,-298.43C625.99,-300.97 646.62,-303.62 665.43,-306.04"/>
<polygon fill="midnightblue" stroke="midnightblue" points="665.02,-309.52 675.38,-307.33 665.91,-302.58 665.02,-309.52"/>
</g>
<!-- Node22 -->
<g id="node13" class="node">
<title>Node22</title>
<g id="a_node13"><a xlink:href="classv8_1_1internal_1_1compiler_1_1JSHeapBroker.html#aae9c5dc3964c926ab775403eeb6656a7" target="_top" xlink:title=" ">
<polygon fill="white" stroke="black" points="674,-239.5 674,-280.5 798,-280.5 798,-239.5 674,-239.5"/>
<text text-anchor="start" x="682" y="-268.5" font-family="Helvetica,sans-Serif" font-size="10.00">v8::internal::compiler</text>
<text text-anchor="start" x="682" y="-257.5" font-family="Helvetica,sans-Serif" font-size="10.00">::JSHeapBroker::target</text>
<text text-anchor="middle" x="736" y="-246.5" font-family="Helvetica,sans-Serif" font-size="10.00">_native_context</text>
</a>
</g>
</g>
<!-- Node6&#45;&gt;Node22 -->
<g id="edge17" class="edge">
<title>Node6&#45;&gt;Node22</title>
<path fill="none" stroke="midnightblue" d="M606.28,-275.98C625.41,-273.6 645.39,-271.12 663.75,-268.85"/>
<polygon fill="midnightblue" stroke="midnightblue" points="664.27,-272.31 673.76,-267.6 663.41,-265.36 664.27,-272.31"/>
</g>
<!-- Node12&#45;&gt;Node4 -->
<g id="edge8" class="edge">
<title>Node12&#45;&gt;Node4</title>
<path fill="none" stroke="midnightblue" d="M813.99,-220.52C819.62,-223.3 825.03,-226.45 830,-230 875.66,-262.65 909.92,-321.27 925.4,-351.24"/>
<polygon fill="midnightblue" stroke="midnightblue" points="922.3,-352.86 929.91,-360.22 928.55,-349.72 922.3,-352.86"/>
</g>
<!-- Node12&#45;&gt;Node14 -->
<g id="edge9" class="edge">
<title>Node12&#45;&gt;Node14</title>
<path fill="none" stroke="midnightblue" d="M789.67,-179.47C819.65,-167.78 856.93,-153.24 886.16,-141.85"/>
<polygon fill="midnightblue" stroke="midnightblue" points="887.69,-145 895.74,-138.11 885.15,-138.48 887.69,-145"/>
</g>
<!-- Node12&#45;&gt;Node16 -->
<g id="edge10" class="edge">
<title>Node12&#45;&gt;Node16</title>
<path fill="none" stroke="midnightblue" d="M830.26,-191.03C841.46,-189.95 852.75,-188.86 863.57,-187.82"/>
<polygon fill="midnightblue" stroke="midnightblue" points="864.15,-191.28 873.76,-186.84 863.48,-184.32 864.15,-191.28"/>
</g>
<!-- Node18&#45;&gt;Node4 -->
<g id="edge14" class="edge">
<title>Node18&#45;&gt;Node4</title>
<path fill="none" stroke="midnightblue" d="M793.6,-409.95C805.63,-406.71 818.24,-403.27 830,-400 854.11,-393.3 881.28,-385.49 901.87,-379.52"/>
<polygon fill="midnightblue" stroke="midnightblue" points="903.07,-382.82 911.7,-376.67 901.12,-376.09 903.07,-382.82"/>
</g>
<!-- Node19&#45;&gt;Node4 -->
<g id="edge16" class="edge">
<title>Node19&#45;&gt;Node4</title>
<path fill="none" stroke="midnightblue" d="M793.6,-330.05C805.63,-333.29 818.24,-336.73 830,-340 854.11,-346.7 881.28,-354.51 901.87,-360.48"/>
<polygon fill="midnightblue" stroke="midnightblue" points="901.12,-363.91 911.7,-363.33 903.07,-357.18 901.12,-363.91"/>
</g>
<!-- Node26 -->
<g id="node17" class="node">
<title>Node26</title>
<g id="a_node17"><a xlink:href="classv8_1_1internal_1_1compiler_1_1PropertyAccessInfo.html#a509feca7273d121e2f6db2da53a1c3c9" target="_top" xlink:title=" ">
<polygon fill="white" stroke="black" points="445,-126 445,-156 588,-156 588,-126 445,-126"/>
<text text-anchor="start" x="453" y="-144" font-family="Helvetica,sans-Serif" font-size="10.00">v8::internal::compiler</text>
<text text-anchor="middle" x="516.5" y="-133" font-family="Helvetica,sans-Serif" font-size="10.00">::PropertyAccessInfo::kind</text>
</a>
</g>
</g>
<!-- Node25&#45;&gt;Node26 -->
<g id="edge21" class="edge">
<title>Node25&#45;&gt;Node26</title>
<path fill="none" stroke="midnightblue" d="M359.67,-141C382.93,-141 409.9,-141 434.79,-141"/>
<polygon fill="midnightblue" stroke="midnightblue" points="434.95,-144.5 444.95,-141 434.95,-137.5 434.95,-144.5"/>
</g>
</g>
</svg>
