<?xml version="1.0" encoding="UTF-8" standalone="no"?>
<!DOCTYPE svg PUBLIC "-//W3C//DTD SVG 1.1//EN"
 "http://www.w3.org/Graphics/SVG/1.1/DTD/svg11.dtd">
<!-- Generated by graphviz version 2.43.0 (0)
 -->
<!-- Title: v8::internal::compiler::RegisterAllocator::code Pages: 1 -->
<!--zoomable 960 -->
<svg id="main" version="1.1" xmlns="http://www.w3.org/2000/svg" xmlns:xlink="http://www.w3.org/1999/xlink" xml:space="preserve" onload="init(evt)">
<style type="text/css"><![CDATA[
.edge:hover path { stroke: red; }
.edge:hover polygon { stroke: red; fill: red; }
]]></style>
<script type="text/javascript"><![CDATA[
var edges = document.getElementsByTagName('g');
if (edges && edges.length) {
  for (var i=0;i<edges.length;i++) {
    if (edges[i].id.substr(0,4)=='edge') {
      edges[i].setAttribute('class','edge');
    }
  }
}
]]></script>
        <defs>
                <circle id="rim" cx="0" cy="0" r="7"/>
                <circle id="rim2" cx="0" cy="0" r="3.5"/>
                <g id="zoomPlus">
                        <use xlink:href="#rim" fill="#404040">
                                <set attributeName="fill" to="#808080" begin="zoomplus.mouseover" end="zoomplus.mouseout"/>
                        </use>
                        <path d="M-4,0h8M0,-4v8" fill="none" stroke="white" stroke-width="1.5" pointer-events="none"/>
                </g>
                <g id="zoomMin">
                        <use xlink:href="#rim" fill="#404040">
                                <set attributeName="fill" to="#808080" begin="zoomminus.mouseover" end="zoomminus.mouseout"/>
                        </use>
                        <path d="M-4,0h8" fill="none" stroke="white" stroke-width="1.5" pointer-events="none"/>
                </g>
                <g id="dirArrow">
                        <path fill="none" stroke="white" stroke-width="1.5" d="M0,-3.0v7 M-2.5,-0.5L0,-3.0L2.5,-0.5"/>
                </g>
               <g id="resetDef">
                       <use xlink:href="#rim2" fill="#404040">
                               <set attributeName="fill" to="#808080" begin="reset.mouseover" end="reset.mouseout"/>
                       </use>
               </g>
        </defs>

<script type="text/javascript">
var viewWidth = 1658;
var viewHeight = 960;
var sectionId = 'dynsection-10';
</script>
<script xlink:href="svgpan.js"/>
<svg id="graph" class="graph">
<g id="viewport">
<title>v8::internal::compiler::RegisterAllocator::code</title>
<polygon fill="white" stroke="transparent" points="-4,4 -4,-956.38 1654,-956.38 1654,4 -4,4"/>
<!-- Node1 -->
<g id="node1" class="node">
<title>Node1</title>
<g id="a_node1"><a xlink:title=" ">
<polygon fill="#bfbfbf" stroke="black" points="1514,-611.2 1514,-641.2 1650,-641.2 1650,-611.2 1514,-611.2"/>
<text text-anchor="start" x="1522" y="-629.2" font-family="Helvetica,sans-Serif" font-size="10.00">v8::internal::compiler</text>
<text text-anchor="middle" x="1582" y="-618.2" font-family="Helvetica,sans-Serif" font-size="10.00">::RegisterAllocator::code</text>
</a>
</g>
</g>
<!-- Node2 -->
<g id="node2" class="node">
<title>Node2</title>
<g id="a_node2"><a xlink:href="classv8_1_1internal_1_1compiler_1_1LinearScanAllocator.html#a6d24c5c5d84256f82d4cadd17382a8ad" target="_top" xlink:title=" ">
<polygon fill="white" stroke="black" points="424.5,-362.7 424.5,-403.7 545.5,-403.7 545.5,-362.7 424.5,-362.7"/>
<text text-anchor="start" x="432.5" y="-391.7" font-family="Helvetica,sans-Serif" font-size="10.00">v8::internal::compiler</text>
<text text-anchor="start" x="432.5" y="-380.7" font-family="Helvetica,sans-Serif" font-size="10.00">::LinearScanAllocator</text>
<text text-anchor="middle" x="485" y="-369.7" font-family="Helvetica,sans-Serif" font-size="10.00">::AllocateBlockedReg</text>
</a>
</g>
</g>
<!-- Node1&#45;&gt;Node2 -->
<g id="edge1" class="edge">
<title>Node1&#45;&gt;Node2</title>
<path fill="none" stroke="midnightblue" d="M1503.46,-623.66C1370.3,-618.85 1103.65,-607.17 1012,-588.2 823.55,-549.2 780.8,-519.19 604,-443.2 576.45,-431.36 546.32,-416 523.41,-403.78"/>
<polygon fill="midnightblue" stroke="midnightblue" points="1503.47,-627.16 1513.59,-624.02 1503.72,-620.16 1503.47,-627.16"/>
</g>
<!-- Node4 -->
<g id="node4" class="node">
<title>Node4</title>
<g id="a_node4"><a xlink:href="classv8_1_1internal_1_1compiler_1_1LinearScanAllocator.html#af090759a2b6c76166a297fe5343fbbe9" target="_top" xlink:title=" ">
<polygon fill="white" stroke="black" points="0,-673.7 0,-714.7 121,-714.7 121,-673.7 0,-673.7"/>
<text text-anchor="start" x="8" y="-702.7" font-family="Helvetica,sans-Serif" font-size="10.00">v8::internal::compiler</text>
<text text-anchor="start" x="8" y="-691.7" font-family="Helvetica,sans-Serif" font-size="10.00">::LinearScanAllocator</text>
<text text-anchor="middle" x="60.5" y="-680.7" font-family="Helvetica,sans-Serif" font-size="10.00">::AllocateRegisters</text>
</a>
</g>
</g>
<!-- Node1&#45;&gt;Node4 -->
<g id="edge4" class="edge">
<title>Node1&#45;&gt;Node4</title>
<path fill="none" stroke="midnightblue" d="M1579.94,-651.52C1576.12,-706.84 1558.58,-838.4 1478,-899.2 1349.12,-996.43 1277.44,-929.2 1116,-929.2 1116,-929.2 1116,-929.2 484,-929.2 338.4,-929.2 276.6,-992.25 157,-909.2 90.41,-862.96 69.67,-759.16 63.71,-714.87"/>
<polygon fill="midnightblue" stroke="midnightblue" points="1583.45,-651.41 1580.55,-641.22 1576.46,-650.99 1583.45,-651.41"/>
</g>
<!-- Node5 -->
<g id="node5" class="node">
<title>Node5</title>
<g id="a_node5"><a xlink:href="classv8_1_1internal_1_1compiler_1_1LinearScanAllocator.html#ae106d7ddb231d521cb9ce7ecb8567aa1" target="_top" xlink:title=" ">
<polygon fill="white" stroke="black" points="1254,-810.2 1254,-862.2 1478,-862.2 1478,-810.2 1254,-810.2"/>
<text text-anchor="start" x="1262" y="-850.2" font-family="Helvetica,sans-Serif" font-size="10.00">v8::internal::compiler</text>
<text text-anchor="start" x="1262" y="-839.2" font-family="Helvetica,sans-Serif" font-size="10.00">::LinearScanAllocator</text>
<text text-anchor="start" x="1262" y="-828.2" font-family="Helvetica,sans-Serif" font-size="10.00">::BlockIsDeferredOrImmediatePredecessor</text>
<text text-anchor="middle" x="1366" y="-817.2" font-family="Helvetica,sans-Serif" font-size="10.00">IsNotDeferred</text>
</a>
</g>
</g>
<!-- Node1&#45;&gt;Node5 -->
<g id="edge5" class="edge">
<title>Node1&#45;&gt;Node5</title>
<path fill="none" stroke="midnightblue" d="M1572.02,-651.05C1557.62,-687.57 1526.02,-755.68 1478,-795.2 1471.1,-800.88 1463.34,-805.81 1455.21,-810.09"/>
<polygon fill="midnightblue" stroke="midnightblue" points="1575.32,-652.23 1575.62,-641.64 1568.78,-649.72 1575.32,-652.23"/>
</g>
<!-- Node6 -->
<g id="node6" class="node">
<title>Node6</title>
<g id="a_node6"><a xlink:href="classv8_1_1internal_1_1compiler_1_1LinearScanAllocator.html#ab710e6b0d68fc74403eeceeb1a7b4eaa" target="_top" xlink:title=" ">
<polygon fill="white" stroke="black" points="402,-858.7 402,-899.7 568,-899.7 568,-858.7 402,-858.7"/>
<text text-anchor="start" x="410" y="-887.7" font-family="Helvetica,sans-Serif" font-size="10.00">v8::internal::compiler</text>
<text text-anchor="start" x="410" y="-876.7" font-family="Helvetica,sans-Serif" font-size="10.00">::LinearScanAllocator</text>
<text text-anchor="middle" x="485" y="-865.7" font-family="Helvetica,sans-Serif" font-size="10.00">::ConsiderBlockForControlFlow</text>
</a>
</g>
</g>
<!-- Node1&#45;&gt;Node6 -->
<g id="edge6" class="edge">
<title>Node1&#45;&gt;Node6</title>
<path fill="none" stroke="midnightblue" d="M1578.87,-651.59C1573.05,-703.03 1551.96,-819.07 1478,-871.2 1412.15,-917.62 1196.57,-891.2 1116,-891.2 1116,-891.2 1116,-891.2 889,-891.2 777.88,-891.2 649.6,-886.59 568.18,-883.08"/>
<polygon fill="midnightblue" stroke="midnightblue" points="1582.38,-651.67 1579.92,-641.36 1575.42,-650.95 1582.38,-651.67"/>
</g>
<!-- Node8 -->
<g id="node8" class="node">
<title>Node8</title>
<g id="a_node8"><a xlink:href="classv8_1_1internal_1_1compiler_1_1RegisterAllocator.html#a005f9c3bd10fcad51b884b3e72636443" target="_top" xlink:title=" ">
<polygon fill="white" stroke="black" points="804,-133.7 804,-174.7 976,-174.7 976,-133.7 804,-133.7"/>
<text text-anchor="start" x="812" y="-162.7" font-family="Helvetica,sans-Serif" font-size="10.00">v8::internal::compiler</text>
<text text-anchor="start" x="812" y="-151.7" font-family="Helvetica,sans-Serif" font-size="10.00">::RegisterAllocator::FindOptimal</text>
<text text-anchor="middle" x="890" y="-140.7" font-family="Helvetica,sans-Serif" font-size="10.00">SpillingPos</text>
</a>
</g>
</g>
<!-- Node1&#45;&gt;Node8 -->
<g id="edge10" class="edge">
<title>Node1&#45;&gt;Node8</title>
<path fill="none" stroke="midnightblue" d="M1579.77,-600.93C1574.72,-508.7 1552.14,-192.48 1478,-132.2 1403.37,-71.53 1120.04,-112.21 976.07,-137.82"/>
<polygon fill="midnightblue" stroke="midnightblue" points="1576.28,-601.23 1580.3,-611.03 1583.27,-600.86 1576.28,-601.23"/>
</g>
<!-- Node10 -->
<g id="node10" class="node">
<title>Node10</title>
<g id="a_node10"><a xlink:href="classv8_1_1internal_1_1compiler_1_1RegisterAllocator.html#a95714b88dadd2a8bafbaedc614eca6f6" target="_top" xlink:title=" ">
<polygon fill="white" stroke="black" points="1280,-401.7 1280,-442.7 1452,-442.7 1452,-401.7 1280,-401.7"/>
<text text-anchor="start" x="1288" y="-430.7" font-family="Helvetica,sans-Serif" font-size="10.00">v8::internal::compiler</text>
<text text-anchor="start" x="1288" y="-419.7" font-family="Helvetica,sans-Serif" font-size="10.00">::RegisterAllocator::FindOptimal</text>
<text text-anchor="middle" x="1366" y="-408.7" font-family="Helvetica,sans-Serif" font-size="10.00">SplitPos</text>
</a>
</g>
</g>
<!-- Node1&#45;&gt;Node10 -->
<g id="edge14" class="edge">
<title>Node1&#45;&gt;Node10</title>
<path fill="none" stroke="midnightblue" d="M1567.76,-601.79C1550.33,-571.34 1517.24,-519.06 1478,-484.2 1459.1,-467.41 1434.91,-453.24 1413.93,-442.7"/>
<polygon fill="midnightblue" stroke="midnightblue" points="1564.91,-603.86 1572.86,-610.86 1571.01,-600.42 1564.91,-603.86"/>
</g>
<!-- Node13 -->
<g id="node13" class="node">
<title>Node13</title>
<g id="a_node13"><a xlink:href="classv8_1_1internal_1_1compiler_1_1LinearScanAllocator.html#a1ffe7f1c3426bdd6afeaf7aaf1119a30" target="_top" xlink:title=" ">
<polygon fill="white" stroke="red" points="829.5,-253.7 829.5,-294.7 950.5,-294.7 950.5,-253.7 829.5,-253.7"/>
<text text-anchor="start" x="837.5" y="-282.7" font-family="Helvetica,sans-Serif" font-size="10.00">v8::internal::compiler</text>
<text text-anchor="start" x="837.5" y="-271.7" font-family="Helvetica,sans-Serif" font-size="10.00">::LinearScanAllocator</text>
<text text-anchor="middle" x="890" y="-260.7" font-family="Helvetica,sans-Serif" font-size="10.00">::SpillBetweenUntil</text>
</a>
</g>
</g>
<!-- Node1&#45;&gt;Node13 -->
<g id="edge46" class="edge">
<title>Node1&#45;&gt;Node13</title>
<path fill="none" stroke="midnightblue" d="M1580.71,-600.68C1578.62,-538.05 1564.65,-375.09 1478,-282.2 1333.64,-127.44 1196.17,-79.92 1012,-184.2 984.94,-199.52 1000.09,-224.53 976,-244.2 968.49,-250.34 959.62,-255.26 950.51,-259.2"/>
<polygon fill="midnightblue" stroke="midnightblue" points="1577.21,-600.93 1580.97,-610.84 1584.21,-600.75 1577.21,-600.93"/>
</g>
<!-- Node16 -->
<g id="node14" class="node">
<title>Node16</title>
<g id="a_node14"><a xlink:href="classv8_1_1internal_1_1compiler_1_1LinearScanAllocator.html#afbb7e6a76d27c6531cb2ced1f1b52bf1" target="_top" xlink:title=" ">
<polygon fill="white" stroke="black" points="604.5,-771.7 604.5,-812.7 767.5,-812.7 767.5,-771.7 604.5,-771.7"/>
<text text-anchor="start" x="612.5" y="-800.7" font-family="Helvetica,sans-Serif" font-size="10.00">v8::internal::compiler</text>
<text text-anchor="start" x="612.5" y="-789.7" font-family="Helvetica,sans-Serif" font-size="10.00">::LinearScanAllocator</text>
<text text-anchor="middle" x="686" y="-778.7" font-family="Helvetica,sans-Serif" font-size="10.00">::HasNonDeferredPredecessor</text>
</a>
</g>
</g>
<!-- Node1&#45;&gt;Node16 -->
<g id="edge21" class="edge">
<title>Node1&#45;&gt;Node16</title>
<path fill="none" stroke="midnightblue" d="M1569.89,-650.75C1554.33,-681.86 1522.82,-734.19 1478,-757.2 1356.02,-819.83 943.78,-806.1 767.76,-796.99"/>
<polygon fill="midnightblue" stroke="midnightblue" points="1573.18,-651.99 1574.38,-641.46 1566.88,-648.94 1573.18,-651.99"/>
</g>
<!-- Node17 -->
<g id="node15" class="node">
<title>Node17</title>
<g id="a_node15"><a xlink:href="classv8_1_1internal_1_1compiler_1_1LinearScanAllocator.html#a1a780ede5223203dd03fd3090cb516c5" target="_top" xlink:title=" ">
<polygon fill="white" stroke="black" points="604,-629.7 604,-670.7 768,-670.7 768,-629.7 604,-629.7"/>
<text text-anchor="start" x="612" y="-658.7" font-family="Helvetica,sans-Serif" font-size="10.00">v8::internal::compiler</text>
<text text-anchor="start" x="612" y="-647.7" font-family="Helvetica,sans-Serif" font-size="10.00">::LinearScanAllocator</text>
<text text-anchor="middle" x="686" y="-636.7" font-family="Helvetica,sans-Serif" font-size="10.00">::LastDeferredInstructionIndex</text>
</a>
</g>
</g>
<!-- Node1&#45;&gt;Node17 -->
<g id="edge23" class="edge">
<title>Node1&#45;&gt;Node17</title>
<path fill="none" stroke="midnightblue" d="M1503.56,-628.28C1335.59,-632.79 939.16,-643.43 768.01,-648.03"/>
<polygon fill="midnightblue" stroke="midnightblue" points="1503.9,-631.77 1513.8,-628 1503.71,-624.77 1503.9,-631.77"/>
</g>
<!-- Node19 -->
<g id="node17" class="node">
<title>Node19</title>
<g id="a_node17"><a xlink:href="classv8_1_1internal_1_1compiler_1_1LinearScanAllocator.html#a385a986e8c84b5761b22330e49e0927f" target="_top" xlink:title=" ">
<polygon fill="white" stroke="black" points="1267.5,-19.7 1267.5,-60.7 1464.5,-60.7 1464.5,-19.7 1267.5,-19.7"/>
<text text-anchor="start" x="1275.5" y="-48.7" font-family="Helvetica,sans-Serif" font-size="10.00">v8::internal::compiler</text>
<text text-anchor="start" x="1275.5" y="-37.7" font-family="Helvetica,sans-Serif" font-size="10.00">::LinearScanAllocator</text>
<text text-anchor="middle" x="1366" y="-26.7" font-family="Helvetica,sans-Serif" font-size="10.00">::PickRegisterThatIsAvailableLongest</text>
</a>
</g>
</g>
<!-- Node1&#45;&gt;Node19 -->
<g id="edge27" class="edge">
<title>Node1&#45;&gt;Node19</title>
<path fill="none" stroke="midnightblue" d="M1579.66,-601.04C1573.98,-503.96 1548.92,-155.24 1478,-75.2 1472.97,-69.53 1467.04,-64.77 1460.57,-60.77"/>
<polygon fill="midnightblue" stroke="midnightblue" points="1576.17,-601.32 1580.23,-611.11 1583.16,-600.93 1576.17,-601.32"/>
</g>
<!-- Node21 -->
<g id="node19" class="node">
<title>Node21</title>
<g id="a_node19"><a xlink:href="classv8_1_1internal_1_1compiler_1_1LinearScanAllocator.html#af0afe66e6172c7cf294aa2909859a629" target="_top" xlink:title=" ">
<polygon fill="white" stroke="black" points="200.5,-722.7 200.5,-763.7 322.5,-763.7 322.5,-722.7 200.5,-722.7"/>
<text text-anchor="start" x="208.5" y="-751.7" font-family="Helvetica,sans-Serif" font-size="10.00">v8::internal::compiler</text>
<text text-anchor="start" x="208.5" y="-740.7" font-family="Helvetica,sans-Serif" font-size="10.00">::LinearScanAllocator</text>
<text text-anchor="middle" x="261.5" y="-729.7" font-family="Helvetica,sans-Serif" font-size="10.00">::PrintRangeOverview</text>
</a>
</g>
</g>
<!-- Node1&#45;&gt;Node21 -->
<g id="edge31" class="edge">
<title>Node1&#45;&gt;Node21</title>
<path fill="none" stroke="midnightblue" d="M1553.01,-647.19C1533.11,-661.04 1505.19,-678.39 1478,-688.2 1324.93,-743.44 1278.74,-743.2 1116,-743.2 1116,-743.2 1116,-743.2 685,-743.2 555.9,-743.2 404.62,-743.2 322.67,-743.2"/>
<polygon fill="midnightblue" stroke="midnightblue" points="1555.17,-649.95 1561.29,-641.31 1551.11,-644.25 1555.17,-649.95"/>
</g>
<!-- Node22 -->
<g id="node20" class="node">
<title>Node22</title>
<g id="a_node20"><a xlink:href="classv8_1_1internal_1_1compiler_1_1RegisterAllocator.html#a0f0fa5bd7810b225c2721c028c57cefa" target="_top" xlink:title=" ">
<polygon fill="white" stroke="black" points="1299,-494.2 1299,-524.2 1433,-524.2 1433,-494.2 1299,-494.2"/>
<text text-anchor="start" x="1307" y="-512.2" font-family="Helvetica,sans-Serif" font-size="10.00">v8::internal::compiler</text>
<text text-anchor="middle" x="1366" y="-501.2" font-family="Helvetica,sans-Serif" font-size="10.00">::RegisterAllocator::Spill</text>
</a>
</g>
</g>
<!-- Node1&#45;&gt;Node22 -->
<g id="edge33" class="edge">
<title>Node1&#45;&gt;Node22</title>
<path fill="none" stroke="midnightblue" d="M1544.58,-606.29C1502.18,-583.1 1433.07,-545.32 1394.77,-524.38"/>
<polygon fill="midnightblue" stroke="midnightblue" points="1543.01,-609.42 1553.46,-611.14 1546.37,-603.28 1543.01,-609.42"/>
</g>
<!-- Node15 -->
<g id="node24" class="node">
<title>Node15</title>
<g id="a_node24"><a xlink:href="classv8_1_1internal_1_1compiler_1_1LinearScanAllocator.html#a372910b8b17f6c568de8b07f2a0f5566" target="_top" xlink:title=" ">
<polygon fill="white" stroke="black" points="1054.5,-673.7 1054.5,-714.7 1175.5,-714.7 1175.5,-673.7 1054.5,-673.7"/>
<text text-anchor="start" x="1062.5" y="-702.7" font-family="Helvetica,sans-Serif" font-size="10.00">v8::internal::compiler</text>
<text text-anchor="start" x="1062.5" y="-691.7" font-family="Helvetica,sans-Serif" font-size="10.00">::LinearScanAllocator</text>
<text text-anchor="middle" x="1115" y="-680.7" font-family="Helvetica,sans-Serif" font-size="10.00">::TryReuseSpillForPhi</text>
</a>
</g>
</g>
<!-- Node1&#45;&gt;Node15 -->
<g id="edge58" class="edge">
<title>Node1&#45;&gt;Node15</title>
<path fill="none" stroke="midnightblue" d="M1531.35,-644.47C1514.61,-650 1495.68,-655.56 1478,-659.2 1372.87,-680.86 1247.73,-689.19 1175.52,-692.34"/>
<polygon fill="midnightblue" stroke="midnightblue" points="1532.57,-647.75 1540.93,-641.24 1530.33,-641.12 1532.57,-647.75"/>
</g>
<!-- Node26 -->
<g id="node25" class="node">
<title>Node26</title>
<g id="a_node25"><a xlink:href="classv8_1_1internal_1_1compiler_1_1RegisterAllocator.html#aeb162c1b8d19f9cd2b07d8d06e95451a" target="_top" xlink:title=" ">
<polygon fill="white" stroke="black" points="1278,-292.2 1278,-322.2 1454,-322.2 1454,-292.2 1278,-292.2"/>
<text text-anchor="start" x="1286" y="-310.2" font-family="Helvetica,sans-Serif" font-size="10.00">v8::internal::compiler</text>
<text text-anchor="middle" x="1366" y="-299.2" font-family="Helvetica,sans-Serif" font-size="10.00">::RegisterAllocator::SplitRangeAt</text>
</a>
</g>
</g>
<!-- Node1&#45;&gt;Node26 -->
<g id="edge47" class="edge">
<title>Node1&#45;&gt;Node26</title>
<path fill="none" stroke="midnightblue" d="M1574.52,-601.29C1561.84,-556.01 1530.3,-458.76 1478,-392.2 1454.61,-362.43 1418.51,-337.38 1393.87,-322.35"/>
<polygon fill="midnightblue" stroke="midnightblue" points="1571.2,-602.41 1577.21,-611.14 1577.95,-600.57 1571.2,-602.41"/>
</g>
<!-- Node3 -->
<g id="node3" class="node">
<title>Node3</title>
<g id="a_node3"><a xlink:href="classv8_1_1internal_1_1compiler_1_1LinearScanAllocator.html#a4507f3b02b337d5e4b7e440946bc8cfb" target="_top" xlink:title=" ">
<polygon fill="white" stroke="black" points="198,-362.7 198,-403.7 325,-403.7 325,-362.7 198,-362.7"/>
<text text-anchor="start" x="206" y="-391.7" font-family="Helvetica,sans-Serif" font-size="10.00">v8::internal::compiler</text>
<text text-anchor="start" x="206" y="-380.7" font-family="Helvetica,sans-Serif" font-size="10.00">::LinearScanAllocator</text>
<text text-anchor="middle" x="261.5" y="-369.7" font-family="Helvetica,sans-Serif" font-size="10.00">::ProcessCurrentRange</text>
</a>
</g>
</g>
<!-- Node2&#45;&gt;Node3 -->
<g id="edge2" class="edge">
<title>Node2&#45;&gt;Node3</title>
<path fill="none" stroke="midnightblue" d="M414.08,-383.2C385.64,-383.2 353.03,-383.2 325.35,-383.2"/>
<polygon fill="midnightblue" stroke="midnightblue" points="414.35,-386.7 424.35,-383.2 414.35,-379.7 414.35,-386.7"/>
</g>
<!-- Node3&#45;&gt;Node4 -->
<g id="edge3" class="edge">
<title>Node3&#45;&gt;Node4</title>
<path fill="none" stroke="midnightblue" d="M234.75,-411.63C212.67,-436.77 180.76,-474.97 157,-511.2 120.25,-567.24 86.23,-639.05 70.56,-673.7"/>
<polygon fill="midnightblue" stroke="midnightblue" points="237.55,-413.75 241.55,-403.94 232.3,-409.11 237.55,-413.75"/>
</g>
<!-- Node6&#45;&gt;Node4 -->
<g id="edge7" class="edge">
<title>Node6&#45;&gt;Node4</title>
<path fill="none" stroke="midnightblue" d="M395.51,-856.23C385.57,-853.79 375.58,-851.4 366,-849.2 273.58,-827.96 238.64,-854.45 157,-806.2 118.94,-783.71 88.71,-740.47 73.11,-714.79"/>
<polygon fill="midnightblue" stroke="midnightblue" points="394.87,-859.68 405.42,-858.68 396.55,-852.88 394.87,-859.68"/>
</g>
<!-- Node7 -->
<g id="node7" class="node">
<title>Node7</title>
<g id="a_node7"><a xlink:href="classv8_1_1internal_1_1compiler_1_1LinearScanAllocator.html#af2fc93fb22e2e4177b2418e43a8956b4" target="_top" xlink:title=" ">
<polygon fill="white" stroke="black" points="157,-858.7 157,-899.7 366,-899.7 366,-858.7 157,-858.7"/>
<text text-anchor="start" x="165" y="-887.7" font-family="Helvetica,sans-Serif" font-size="10.00">v8::internal::compiler</text>
<text text-anchor="start" x="165" y="-876.7" font-family="Helvetica,sans-Serif" font-size="10.00">::LinearScanAllocator</text>
<text text-anchor="middle" x="261.5" y="-865.7" font-family="Helvetica,sans-Serif" font-size="10.00">::ComputeStateFromManyPredecessors</text>
</a>
</g>
</g>
<!-- Node6&#45;&gt;Node7 -->
<g id="edge8" class="edge">
<title>Node6&#45;&gt;Node7</title>
<path fill="none" stroke="midnightblue" d="M391.7,-879.2C383.32,-879.2 374.8,-879.2 366.33,-879.2"/>
<polygon fill="midnightblue" stroke="midnightblue" points="391.84,-882.7 401.84,-879.2 391.84,-875.7 391.84,-882.7"/>
</g>
<!-- Node7&#45;&gt;Node4 -->
<g id="edge9" class="edge">
<title>Node7&#45;&gt;Node4</title>
<path fill="none" stroke="midnightblue" d="M171.94,-854.04C166.67,-851.11 161.64,-847.84 157,-844.2 112.3,-809.15 82.52,-746.99 69.31,-714.8"/>
<polygon fill="midnightblue" stroke="midnightblue" points="170.51,-857.24 181.01,-858.68 173.7,-851.01 170.51,-857.24"/>
</g>
<!-- Node8&#45;&gt;Node2 -->
<g id="edge11" class="edge">
<title>Node8&#45;&gt;Node2</title>
<path fill="none" stroke="midnightblue" d="M818.39,-178.41C813.5,-180.3 808.66,-182.24 804,-184.2 712.73,-222.51 686.7,-227.81 604,-282.2 567.28,-306.35 529.48,-340.69 506.86,-362.46"/>
<polygon fill="midnightblue" stroke="midnightblue" points="819.74,-181.64 827.85,-174.82 817.26,-175.09 819.74,-181.64"/>
</g>
<!-- Node9 -->
<g id="node9" class="node">
<title>Node9</title>
<g id="a_node9"><a xlink:href="classv8_1_1internal_1_1compiler_1_1LinearScanAllocator.html#ae544af93c72d257cd72f5d910736a84f" target="_top" xlink:title=" ">
<polygon fill="white" stroke="black" points="615,-291.7 615,-332.7 757,-332.7 757,-291.7 615,-291.7"/>
<text text-anchor="start" x="623" y="-320.7" font-family="Helvetica,sans-Serif" font-size="10.00">v8::internal::compiler</text>
<text text-anchor="start" x="623" y="-309.7" font-family="Helvetica,sans-Serif" font-size="10.00">::LinearScanAllocator</text>
<text text-anchor="middle" x="686" y="-298.7" font-family="Helvetica,sans-Serif" font-size="10.00">::SplitAndSpillIntersecting</text>
</a>
</g>
</g>
<!-- Node8&#45;&gt;Node9 -->
<g id="edge12" class="edge">
<title>Node8&#45;&gt;Node9</title>
<path fill="none" stroke="midnightblue" d="M809.81,-180.11C807.81,-181.41 805.87,-182.77 804,-184.2 781.66,-201.26 786.35,-214.91 768,-236.2 750.63,-256.36 728.45,-276.87 711.69,-291.49"/>
<polygon fill="midnightblue" stroke="midnightblue" points="812.05,-182.85 818.92,-174.78 808.52,-176.81 812.05,-182.85"/>
</g>
<!-- Node9&#45;&gt;Node2 -->
<g id="edge13" class="edge">
<title>Node9&#45;&gt;Node2</title>
<path fill="none" stroke="midnightblue" d="M618.02,-336.1C593.94,-344.69 567,-354.3 543.77,-362.59"/>
<polygon fill="midnightblue" stroke="midnightblue" points="619.2,-339.39 627.44,-332.74 616.85,-332.8 619.2,-339.39"/>
</g>
<!-- Node11 -->
<g id="node11" class="node">
<title>Node11</title>
<g id="a_node11"><a xlink:href="classv8_1_1internal_1_1compiler_1_1RegisterAllocator.html#a9c62285116fc84ee4068eac98ef4ca8a" target="_top" xlink:title=" ">
<polygon fill="white" stroke="black" points="1012,-401.7 1012,-442.7 1218,-442.7 1218,-401.7 1012,-401.7"/>
<text text-anchor="start" x="1020" y="-430.7" font-family="Helvetica,sans-Serif" font-size="10.00">v8::internal::compiler</text>
<text text-anchor="start" x="1020" y="-419.7" font-family="Helvetica,sans-Serif" font-size="10.00">::RegisterAllocator::SplitAnd</text>
<text text-anchor="middle" x="1115" y="-408.7" font-family="Helvetica,sans-Serif" font-size="10.00">SpillRangesDefinedByMemoryOperand</text>
</a>
</g>
</g>
<!-- Node10&#45;&gt;Node11 -->
<g id="edge15" class="edge">
<title>Node10&#45;&gt;Node11</title>
<path fill="none" stroke="midnightblue" d="M1269.38,-422.2C1252.69,-422.2 1235.28,-422.2 1218.43,-422.2"/>
<polygon fill="midnightblue" stroke="midnightblue" points="1269.66,-425.7 1279.66,-422.2 1269.66,-418.7 1269.66,-425.7"/>
</g>
<!-- Node12 -->
<g id="node12" class="node">
<title>Node12</title>
<g id="a_node12"><a xlink:href="classv8_1_1internal_1_1compiler_1_1RegisterAllocator.html#a17dafaa2ab828f17cdd4a075b6d3492b" target="_top" xlink:title=" ">
<polygon fill="white" stroke="black" points="1026.5,-292.2 1026.5,-322.2 1203.5,-322.2 1203.5,-292.2 1026.5,-292.2"/>
<text text-anchor="start" x="1034.5" y="-310.2" font-family="Helvetica,sans-Serif" font-size="10.00">v8::internal::compiler</text>
<text text-anchor="middle" x="1115" y="-299.2" font-family="Helvetica,sans-Serif" font-size="10.00">::RegisterAllocator::SplitBetween</text>
</a>
</g>
</g>
<!-- Node10&#45;&gt;Node12 -->
<g id="edge17" class="edge">
<title>Node10&#45;&gt;Node12</title>
<path fill="none" stroke="midnightblue" d="M1328.91,-395.71C1300.15,-375.71 1258.18,-348.94 1218,-332.2 1208.91,-328.41 1199.12,-325.11 1189.32,-322.26"/>
<polygon fill="midnightblue" stroke="midnightblue" points="1327.21,-398.79 1337.4,-401.68 1331.24,-393.07 1327.21,-398.79"/>
</g>
<!-- Node11&#45;&gt;Node4 -->
<g id="edge16" class="edge">
<title>Node11&#45;&gt;Node4</title>
<path fill="none" stroke="midnightblue" d="M1053.41,-446.42C971.63,-476.86 820.73,-525.2 687,-525.2 687,-525.2 687,-525.2 484,-525.2 337.11,-525.2 284.17,-499.68 157,-573.2 115.99,-596.91 86.04,-645.68 71.45,-673.52"/>
<polygon fill="midnightblue" stroke="midnightblue" points="1054.91,-449.59 1063.03,-442.8 1052.44,-443.04 1054.91,-449.59"/>
</g>
<!-- Node12&#45;&gt;Node2 -->
<g id="edge18" class="edge">
<title>Node12&#45;&gt;Node2</title>
<path fill="none" stroke="midnightblue" d="M1016.26,-319.03C884.57,-334.96 654.19,-362.85 545.71,-375.97"/>
<polygon fill="midnightblue" stroke="midnightblue" points="1016.84,-322.48 1026.35,-317.81 1016,-315.53 1016.84,-322.48"/>
</g>
<!-- Node12&#45;&gt;Node13 -->
<g id="edge19" class="edge">
<title>Node12&#45;&gt;Node13</title>
<path fill="none" stroke="midnightblue" d="M1016.01,-292.7C993.71,-289.4 970.69,-285.99 950.57,-283.01"/>
<polygon fill="midnightblue" stroke="midnightblue" points="1015.78,-296.2 1026.18,-294.2 1016.8,-289.28 1015.78,-296.2"/>
</g>
<!-- Node13&#45;&gt;Node9 -->
<g id="edge20" class="edge">
<title>Node13&#45;&gt;Node9</title>
<path fill="none" stroke="midnightblue" d="M819.45,-287.28C799.31,-291.07 777.31,-295.21 757.13,-299.01"/>
<polygon fill="midnightblue" stroke="midnightblue" points="820.31,-290.68 829.49,-285.4 819.01,-283.8 820.31,-290.68"/>
</g>
<!-- Node16&#45;&gt;Node4 -->
<g id="edge22" class="edge">
<title>Node16&#45;&gt;Node4</title>
<path fill="none" stroke="midnightblue" d="M593.95,-795.92C464.47,-800.02 234.26,-802.59 157,-773.2 125.22,-761.11 96.29,-733.85 78.8,-714.75"/>
<polygon fill="midnightblue" stroke="midnightblue" points="594.36,-799.4 604.24,-795.58 594.14,-792.41 594.36,-799.4"/>
</g>
<!-- Node17&#45;&gt;Node2 -->
<g id="edge24" class="edge">
<title>Node17&#45;&gt;Node2</title>
<path fill="none" stroke="midnightblue" d="M615.48,-624.27C611.39,-621.52 607.51,-618.5 604,-615.2 538.62,-553.79 503.68,-448.13 491.29,-403.76"/>
<polygon fill="midnightblue" stroke="midnightblue" points="613.78,-627.34 624.14,-629.56 617.43,-621.36 613.78,-627.34"/>
</g>
<!-- Node18 -->
<g id="node16" class="node">
<title>Node18</title>
<g id="a_node16"><a xlink:href="classv8_1_1internal_1_1compiler_1_1LinearScanAllocator.html#a6fd695b68d9387413f667e660232ef1b" target="_top" xlink:title=" ">
<polygon fill="white" stroke="black" points="404,-629.7 404,-670.7 566,-670.7 566,-629.7 404,-629.7"/>
<text text-anchor="start" x="412" y="-658.7" font-family="Helvetica,sans-Serif" font-size="10.00">v8::internal::compiler</text>
<text text-anchor="start" x="412" y="-647.7" font-family="Helvetica,sans-Serif" font-size="10.00">::LinearScanAllocator</text>
<text text-anchor="middle" x="485" y="-636.7" font-family="Helvetica,sans-Serif" font-size="10.00">::UpdateDeferredFixedRanges</text>
</a>
</g>
</g>
<!-- Node17&#45;&gt;Node18 -->
<g id="edge25" class="edge">
<title>Node17&#45;&gt;Node18</title>
<path fill="none" stroke="midnightblue" d="M593.77,-650.2C584.5,-650.2 575.14,-650.2 566,-650.2"/>
<polygon fill="midnightblue" stroke="midnightblue" points="593.77,-653.7 603.77,-650.2 593.77,-646.7 593.77,-653.7"/>
</g>
<!-- Node18&#45;&gt;Node4 -->
<g id="edge26" class="edge">
<title>Node18&#45;&gt;Node4</title>
<path fill="none" stroke="midnightblue" d="M393.59,-657.17C327.86,-662.56 236.8,-670.7 157,-680.2 145.35,-681.59 132.93,-683.26 121.04,-684.96"/>
<polygon fill="midnightblue" stroke="midnightblue" points="394.23,-660.63 403.91,-656.33 393.66,-653.66 394.23,-660.63"/>
</g>
<!-- Node19&#45;&gt;Node2 -->
<g id="edge28" class="edge">
<title>Node19&#45;&gt;Node2</title>
<path fill="none" stroke="midnightblue" d="M1273.56,-17.63C1201.72,-3.44 1099.52,8.9 1012,-10.2 817.12,-52.73 754.28,-66.03 604,-197.2 548.97,-245.23 510.37,-325.13 494.32,-362.61"/>
<polygon fill="midnightblue" stroke="midnightblue" points="1273,-21.09 1283.49,-19.65 1274.39,-14.23 1273,-21.09"/>
</g>
<!-- Node20 -->
<g id="node18" class="node">
<title>Node20</title>
<g id="a_node18"><a xlink:href="classv8_1_1internal_1_1compiler_1_1LinearScanAllocator.html#aaecea8530880f911575ef615b89cae28" target="_top" xlink:title=" ">
<polygon fill="white" stroke="black" points="1054.5,-19.7 1054.5,-60.7 1175.5,-60.7 1175.5,-19.7 1054.5,-19.7"/>
<text text-anchor="start" x="1062.5" y="-48.7" font-family="Helvetica,sans-Serif" font-size="10.00">v8::internal::compiler</text>
<text text-anchor="start" x="1062.5" y="-37.7" font-family="Helvetica,sans-Serif" font-size="10.00">::LinearScanAllocator</text>
<text text-anchor="middle" x="1115" y="-26.7" font-family="Helvetica,sans-Serif" font-size="10.00">::TryAllocateFreeReg</text>
</a>
</g>
</g>
<!-- Node19&#45;&gt;Node20 -->
<g id="edge29" class="edge">
<title>Node19&#45;&gt;Node20</title>
<path fill="none" stroke="midnightblue" d="M1257.08,-40.2C1229.17,-40.2 1200.13,-40.2 1175.7,-40.2"/>
<polygon fill="midnightblue" stroke="midnightblue" points="1257.3,-43.7 1267.3,-40.2 1257.3,-36.7 1257.3,-43.7"/>
</g>
<!-- Node20&#45;&gt;Node3 -->
<g id="edge30" class="edge">
<title>Node20&#45;&gt;Node3</title>
<path fill="none" stroke="midnightblue" d="M1044.57,-57.21C981.42,-73.1 885.85,-98.22 804,-124.2 713.81,-152.82 690.23,-158.24 604,-197.2 487.72,-249.74 357,-326.08 296.54,-362.44"/>
<polygon fill="midnightblue" stroke="midnightblue" points="1045.57,-60.56 1054.42,-54.73 1043.87,-53.77 1045.57,-60.56"/>
</g>
<!-- Node21&#45;&gt;Node4 -->
<g id="edge32" class="edge">
<title>Node21&#45;&gt;Node4</title>
<path fill="none" stroke="midnightblue" d="M190.38,-725.94C167.79,-720.37 142.97,-714.26 121.2,-708.9"/>
<polygon fill="midnightblue" stroke="midnightblue" points="189.71,-729.37 200.25,-728.37 191.38,-722.58 189.71,-729.37"/>
</g>
<!-- Node22&#45;&gt;Node2 -->
<g id="edge34" class="edge">
<title>Node22&#45;&gt;Node2</title>
<path fill="none" stroke="midnightblue" d="M1288.46,-506.79C1216.79,-503.92 1106.83,-497.96 1012,-486.2 829.03,-463.5 784.42,-449.16 604,-411.2 584.94,-407.19 564.25,-402.42 545.59,-397.97"/>
<polygon fill="midnightblue" stroke="midnightblue" points="1288.62,-510.3 1298.75,-507.19 1288.89,-503.3 1288.62,-510.3"/>
</g>
<!-- Node22&#45;&gt;Node11 -->
<g id="edge43" class="edge">
<title>Node22&#45;&gt;Node11</title>
<path fill="none" stroke="midnightblue" d="M1313.27,-490.76C1285.12,-480.77 1249.67,-468.23 1218,-457.2 1204.48,-452.49 1189.93,-447.47 1176.17,-442.74"/>
<polygon fill="midnightblue" stroke="midnightblue" points="1312.3,-494.14 1322.9,-494.19 1314.65,-487.54 1312.3,-494.14"/>
</g>
<!-- Node22&#45;&gt;Node13 -->
<g id="edge40" class="edge">
<title>Node22&#45;&gt;Node13</title>
<path fill="none" stroke="midnightblue" d="M1288.81,-500.63C1191.77,-489.14 1033.95,-468.33 1012,-452.2 983.17,-431.02 995.3,-410.32 976,-380.2 955.77,-348.62 927.88,-315.38 909.65,-294.72"/>
<polygon fill="midnightblue" stroke="midnightblue" points="1288.54,-504.12 1298.88,-501.81 1289.35,-497.17 1288.54,-504.12"/>
</g>
<!-- Node23 -->
<g id="node21" class="node">
<title>Node23</title>
<g id="a_node21"><a xlink:href="classv8_1_1internal_1_1compiler_1_1LinearScanAllocator.html#a5e21fd4ad2b182fc682afe48ba403ee4" target="_top" xlink:title=" ">
<polygon fill="white" stroke="black" points="1054.5,-341.7 1054.5,-382.7 1175.5,-382.7 1175.5,-341.7 1054.5,-341.7"/>
<text text-anchor="start" x="1062.5" y="-370.7" font-family="Helvetica,sans-Serif" font-size="10.00">v8::internal::compiler</text>
<text text-anchor="start" x="1062.5" y="-359.7" font-family="Helvetica,sans-Serif" font-size="10.00">::LinearScanAllocator</text>
<text text-anchor="middle" x="1115" y="-348.7" font-family="Helvetica,sans-Serif" font-size="10.00">::SpillAfter</text>
</a>
</g>
</g>
<!-- Node22&#45;&gt;Node23 -->
<g id="edge35" class="edge">
<title>Node22&#45;&gt;Node23</title>
<path fill="none" stroke="midnightblue" d="M1313.43,-489.97C1293.29,-480.71 1271,-468.11 1254,-452.2 1231.3,-430.95 1242.6,-411.22 1218,-392.2 1205.73,-382.72 1190.54,-376.22 1175.65,-371.79"/>
<polygon fill="midnightblue" stroke="midnightblue" points="1312.25,-493.28 1322.81,-494.12 1315.08,-486.87 1312.25,-493.28"/>
</g>
<!-- Node25 -->
<g id="node23" class="node">
<title>Node25</title>
<g id="a_node23"><a xlink:href="classv8_1_1internal_1_1compiler_1_1LinearScanAllocator.html#a24be3c4dc05d2e27594b621c1477cf35" target="_top" xlink:title=" ">
<polygon fill="white" stroke="black" points="1054.5,-537.7 1054.5,-578.7 1175.5,-578.7 1175.5,-537.7 1054.5,-537.7"/>
<text text-anchor="start" x="1062.5" y="-566.7" font-family="Helvetica,sans-Serif" font-size="10.00">v8::internal::compiler</text>
<text text-anchor="start" x="1062.5" y="-555.7" font-family="Helvetica,sans-Serif" font-size="10.00">::LinearScanAllocator</text>
<text text-anchor="middle" x="1115" y="-544.7" font-family="Helvetica,sans-Serif" font-size="10.00">::SpillNotLiveRanges</text>
</a>
</g>
</g>
<!-- Node22&#45;&gt;Node25 -->
<g id="edge41" class="edge">
<title>Node22&#45;&gt;Node25</title>
<path fill="none" stroke="midnightblue" d="M1288.85,-524.19C1252.45,-531.35 1209.53,-539.79 1175.57,-546.48"/>
<polygon fill="midnightblue" stroke="midnightblue" points="1289.79,-527.57 1298.93,-522.2 1288.44,-520.7 1289.79,-527.57"/>
</g>
<!-- Node22&#45;&gt;Node15 -->
<g id="edge44" class="edge">
<title>Node22&#45;&gt;Node15</title>
<path fill="none" stroke="midnightblue" d="M1336.49,-530.38C1288.32,-566.17 1191.41,-638.17 1143.75,-673.58"/>
<polygon fill="midnightblue" stroke="midnightblue" points="1338.68,-533.11 1344.62,-524.34 1334.51,-527.49 1338.68,-533.11"/>
</g>
<!-- Node23&#45;&gt;Node9 -->
<g id="edge39" class="edge">
<title>Node23&#45;&gt;Node9</title>
<path fill="none" stroke="midnightblue" d="M1043.8,-353.98C964.52,-344.7 836.27,-329.68 757.05,-320.4"/>
<polygon fill="midnightblue" stroke="midnightblue" points="1043.84,-357.51 1054.18,-355.19 1044.65,-350.56 1043.84,-357.51"/>
</g>
<!-- Node24 -->
<g id="node22" class="node">
<title>Node24</title>
<g id="a_node22"><a xlink:href="classv8_1_1internal_1_1compiler_1_1LinearScanAllocator.html#a6fed4d5fc9a70d0b58e2fcca0c3f3c17" target="_top" xlink:title=" ">
<polygon fill="white" stroke="black" points="812.5,-389.7 812.5,-430.7 967.5,-430.7 967.5,-389.7 812.5,-389.7"/>
<text text-anchor="start" x="820.5" y="-418.7" font-family="Helvetica,sans-Serif" font-size="10.00">v8::internal::compiler</text>
<text text-anchor="start" x="820.5" y="-407.7" font-family="Helvetica,sans-Serif" font-size="10.00">::LinearScanAllocator</text>
<text text-anchor="middle" x="890" y="-396.7" font-family="Helvetica,sans-Serif" font-size="10.00">::MaybeSpillPreviousRanges</text>
</a>
</g>
</g>
<!-- Node23&#45;&gt;Node24 -->
<g id="edge36" class="edge">
<title>Node23&#45;&gt;Node24</title>
<path fill="none" stroke="midnightblue" d="M1044.38,-377.19C1020.05,-382.42 992.62,-388.33 967.75,-393.68"/>
<polygon fill="midnightblue" stroke="midnightblue" points="1045.2,-380.59 1054.24,-375.06 1043.73,-373.75 1045.2,-380.59"/>
</g>
<!-- Node24&#45;&gt;Node2 -->
<g id="edge37" class="edge">
<title>Node24&#45;&gt;Node2</title>
<path fill="none" stroke="midnightblue" d="M802.04,-404.37C724.65,-399.19 613.52,-391.74 545.74,-387.2"/>
<polygon fill="midnightblue" stroke="midnightblue" points="802.04,-407.88 812.25,-405.06 802.51,-400.9 802.04,-407.88"/>
</g>
<!-- Node24&#45;&gt;Node9 -->
<g id="edge38" class="edge">
<title>Node24&#45;&gt;Node9</title>
<path fill="none" stroke="midnightblue" d="M837.47,-385.2C803.96,-368.94 760.79,-348 729.29,-332.72"/>
<polygon fill="midnightblue" stroke="midnightblue" points="836.13,-388.44 846.65,-389.66 839.18,-382.14 836.13,-388.44"/>
</g>
<!-- Node25&#45;&gt;Node4 -->
<g id="edge42" class="edge">
<title>Node25&#45;&gt;Node4</title>
<path fill="none" stroke="midnightblue" d="M1043.99,-559.52C959.41,-561 812.79,-563.2 687,-563.2 687,-563.2 687,-563.2 484,-563.2 336.74,-563.2 173.05,-636.7 100.15,-673.59"/>
<polygon fill="midnightblue" stroke="midnightblue" points="1044.31,-563.02 1054.25,-559.34 1044.19,-556.02 1044.31,-563.02"/>
</g>
<!-- Node15&#45;&gt;Node4 -->
<g id="edge45" class="edge">
<title>Node15&#45;&gt;Node4</title>
<path fill="none" stroke="midnightblue" d="M1044.29,-694.2C849.68,-694.2 302.88,-694.2 121.1,-694.2"/>
<polygon fill="midnightblue" stroke="midnightblue" points="1044.4,-697.7 1054.4,-694.2 1044.4,-690.7 1044.4,-697.7"/>
</g>
<!-- Node26&#45;&gt;Node11 -->
<g id="edge55" class="edge">
<title>Node26&#45;&gt;Node11</title>
<path fill="none" stroke="midnightblue" d="M1334,-328.05C1305.01,-346.84 1259.99,-374.19 1218,-392.2 1210.03,-395.62 1201.54,-398.79 1193.01,-401.7"/>
<polygon fill="midnightblue" stroke="midnightblue" points="1336.01,-330.92 1342.47,-322.52 1332.18,-325.06 1336.01,-330.92"/>
</g>
<!-- Node26&#45;&gt;Node12 -->
<g id="edge56" class="edge">
<title>Node26&#45;&gt;Node12</title>
<path fill="none" stroke="midnightblue" d="M1267.68,-307.2C1246.65,-307.2 1224.53,-307.2 1203.88,-307.2"/>
<polygon fill="midnightblue" stroke="midnightblue" points="1267.91,-310.7 1277.91,-307.2 1267.91,-303.7 1267.91,-310.7"/>
</g>
<!-- Node26&#45;&gt;Node13 -->
<g id="edge53" class="edge">
<title>Node26&#45;&gt;Node13</title>
<path fill="none" stroke="midnightblue" d="M1279.32,-290.49C1259.28,-287.18 1237.95,-284.13 1218,-282.2 1124.88,-273.19 1016.18,-272.46 950.53,-273.09"/>
<polygon fill="midnightblue" stroke="midnightblue" points="1278.92,-293.98 1289.36,-292.19 1280.09,-287.07 1278.92,-293.98"/>
</g>
<!-- Node26&#45;&gt;Node20 -->
<g id="edge57" class="edge">
<title>Node26&#45;&gt;Node20</title>
<path fill="none" stroke="midnightblue" d="M1350.21,-283.19C1325.75,-244.62 1273.98,-167.67 1218,-113.2 1197.4,-93.15 1170.92,-74.37 1150.11,-60.88"/>
<polygon fill="midnightblue" stroke="midnightblue" points="1347.55,-285.52 1355.83,-292.13 1353.48,-281.8 1347.55,-285.52"/>
</g>
<!-- Node26&#45;&gt;Node23 -->
<g id="edge52" class="edge">
<title>Node26&#45;&gt;Node23</title>
<path fill="none" stroke="midnightblue" d="M1287.01,-324.43C1251.14,-332.35 1209.24,-341.6 1175.9,-348.97"/>
<polygon fill="midnightblue" stroke="midnightblue" points="1287.95,-327.8 1296.96,-322.23 1286.44,-320.97 1287.95,-327.8"/>
</g>
<!-- Node26&#45;&gt;Node25 -->
<g id="edge54" class="edge">
<title>Node26&#45;&gt;Node25</title>
<path fill="none" stroke="midnightblue" d="M1331.27,-328.09C1307.75,-343.77 1276.65,-366.83 1254,-392.2 1233.29,-415.4 1236.9,-427.5 1218,-452.2 1193.47,-484.24 1160.37,-517.11 1138.62,-537.58"/>
<polygon fill="midnightblue" stroke="midnightblue" points="1333.43,-330.86 1339.88,-322.46 1329.6,-325.01 1333.43,-330.86"/>
</g>
<!-- Node27 -->
<g id="node26" class="node">
<title>Node27</title>
<g id="a_node26"><a xlink:href="classv8_1_1internal_1_1compiler_1_1LinearScanAllocator.html#a7a08b52135bab07c9658a7c28a2b9abf" target="_top" xlink:title=" ">
<polygon fill="white" stroke="black" points="1043.5,-193.7 1043.5,-234.7 1186.5,-234.7 1186.5,-193.7 1043.5,-193.7"/>
<text text-anchor="start" x="1051.5" y="-222.7" font-family="Helvetica,sans-Serif" font-size="10.00">v8::internal::compiler</text>
<text text-anchor="start" x="1051.5" y="-211.7" font-family="Helvetica,sans-Serif" font-size="10.00">::LinearScanAllocator</text>
<text text-anchor="middle" x="1115" y="-200.7" font-family="Helvetica,sans-Serif" font-size="10.00">::AssignRegisterOnReload</text>
</a>
</g>
</g>
<!-- Node26&#45;&gt;Node27 -->
<g id="edge48" class="edge">
<title>Node26&#45;&gt;Node27</title>
<path fill="none" stroke="midnightblue" d="M1318.91,-288.39C1290.04,-276.77 1252,-261.73 1218,-249.2 1204.91,-244.38 1190.8,-239.39 1177.38,-234.76"/>
<polygon fill="midnightblue" stroke="midnightblue" points="1317.74,-291.7 1328.33,-292.2 1320.36,-285.21 1317.74,-291.7"/>
</g>
<!-- Node28 -->
<g id="node27" class="node">
<title>Node28</title>
<g id="a_node27"><a xlink:href="classv8_1_1internal_1_1compiler_1_1LinearScanAllocator.html#aefe34a76bf9a95a6abba5908e677c7de" target="_top" xlink:title=" ">
<polygon fill="white" stroke="black" points="829.5,-193.7 829.5,-234.7 950.5,-234.7 950.5,-193.7 829.5,-193.7"/>
<text text-anchor="start" x="837.5" y="-222.7" font-family="Helvetica,sans-Serif" font-size="10.00">v8::internal::compiler</text>
<text text-anchor="start" x="837.5" y="-211.7" font-family="Helvetica,sans-Serif" font-size="10.00">::LinearScanAllocator</text>
<text text-anchor="middle" x="890" y="-200.7" font-family="Helvetica,sans-Serif" font-size="10.00">::ReloadLiveRanges</text>
</a>
</g>
</g>
<!-- Node26&#45;&gt;Node28 -->
<g id="edge51" class="edge">
<title>Node26&#45;&gt;Node28</title>
<path fill="none" stroke="midnightblue" d="M1346.82,-284.28C1321.61,-254.54 1272.89,-204.14 1218,-184.2 1128.92,-151.85 1017.63,-174.17 950.55,-193.79"/>
<polygon fill="midnightblue" stroke="midnightblue" points="1344.21,-286.61 1353.29,-292.07 1349.6,-282.14 1344.21,-286.61"/>
</g>
<!-- Node27&#45;&gt;Node28 -->
<g id="edge49" class="edge">
<title>Node27&#45;&gt;Node28</title>
<path fill="none" stroke="midnightblue" d="M1033.13,-214.2C1005.86,-214.2 975.94,-214.2 950.61,-214.2"/>
<polygon fill="midnightblue" stroke="midnightblue" points="1033.44,-217.7 1043.44,-214.2 1033.44,-210.7 1033.44,-217.7"/>
</g>
<!-- Node28&#45;&gt;Node4 -->
<g id="edge50" class="edge">
<title>Node28&#45;&gt;Node4</title>
<path fill="none" stroke="midnightblue" d="M819.44,-205.41C675.84,-191.42 344.39,-181.17 157,-353.2 108.54,-397.69 74.36,-606.09 64.46,-673.27"/>
<polygon fill="midnightblue" stroke="midnightblue" points="819.15,-208.9 829.45,-206.42 819.85,-201.94 819.15,-208.9"/>
</g>
</g>
</svg>
        <g id="navigator" transform="translate(0 0)" fill="#404254">
                <rect fill="#f2f5e9" fill-opacity="0.5" stroke="#606060" stroke-width=".5" x="0" y="0" width="60" height="60"/>
                <use id="zoomplus" xlink:href="#zoomPlus" x="17" y="9" onmousedown="handleZoom(evt,'in')"/>
                <use id="zoomminus" xlink:href="#zoomMin" x="42" y="9" onmousedown="handleZoom(evt,'out')"/>
                <use id="reset" xlink:href="#resetDef" x="30" y="36" onmousedown="handleReset()"/>
                <g id="arrowUp" xlink:href="#dirArrow" transform="translate(30 24)" onmousedown="handlePan(0,-1)">
                  <use xlink:href="#rim" fill="#404040">
                        <set attributeName="fill" to="#808080" begin="arrowUp.mouseover" end="arrowUp.mouseout"/>
                  </use>
                  <path fill="none" stroke="white" stroke-width="1.5" d="M0,-3.0v7 M-2.5,-0.5L0,-3.0L2.5,-0.5"/>
                </g>
                <g id="arrowRight" xlink:href="#dirArrow" transform="rotate(90) translate(36 -43)" onmousedown="handlePan(1,0)">
                  <use xlink:href="#rim" fill="#404040">
                        <set attributeName="fill" to="#808080" begin="arrowRight.mouseover" end="arrowRight.mouseout"/>
                  </use>
                  <path fill="none" stroke="white" stroke-width="1.5" d="M0,-3.0v7 M-2.5,-0.5L0,-3.0L2.5,-0.5"/>
                </g>
                <g id="arrowDown" xlink:href="#dirArrow" transform="rotate(180) translate(-30 -48)" onmousedown="handlePan(0,1)">
                  <use xlink:href="#rim" fill="#404040">
                        <set attributeName="fill" to="#808080" begin="arrowDown.mouseover" end="arrowDown.mouseout"/>
                  </use>
                  <path fill="none" stroke="white" stroke-width="1.5" d="M0,-3.0v7 M-2.5,-0.5L0,-3.0L2.5,-0.5"/>
                </g>
                <g id="arrowLeft" xlink:href="#dirArrow" transform="rotate(270) translate(-36 17)" onmousedown="handlePan(-1,0)">
                  <use xlink:href="#rim" fill="#404040">
                        <set attributeName="fill" to="#808080" begin="arrowLeft.mouseover" end="arrowLeft.mouseout"/>
                  </use>
                  <path fill="none" stroke="white" stroke-width="1.5" d="M0,-3.0v7 M-2.5,-0.5L0,-3.0L2.5,-0.5"/>
                </g>
        </g>
        <svg viewBox="0 0 15 15" width="100%" height="30px" preserveAspectRatio="xMaxYMin meet">
         <g id="arrow_out" transform="scale(0.3 0.3)">
          <a xlink:href="classv8_1_1internal_1_1compiler_1_1RegisterAllocator_a2c90ad5bc209219d7f0aac769005f5a9_icgraph_org.svg" target="_base">
           <rect id="button" ry="5" rx="5" y="6" x="6" height="38" width="38"
                fill="#f2f5e9" fill-opacity="0.5" stroke="#606060" stroke-width="1.0"/>
           <path id="arrow"
             d="M 11.500037,31.436501 C 11.940474,20.09759 22.043105,11.32322 32.158766,21.979434 L 37.068811,17.246167 C 37.068811,17.246167 37.088388,32 37.088388,32 L 22.160133,31.978069 C 22.160133,31.978069 26.997745,27.140456 26.997745,27.140456 C 18.528582,18.264221 13.291696,25.230495 11.500037,31.436501 z"
             style="fill:#404040;"/>
          </a>
         </g>
        </svg>
</svg>
