<?xml version="1.0" encoding="UTF-8" standalone="no"?>
<!DOCTYPE svg PUBLIC "-//W3C//DTD SVG 1.1//EN"
 "http://www.w3.org/Graphics/SVG/1.1/DTD/svg11.dtd">
<!-- Generated by graphviz version 2.43.0 (0)
 -->
<!-- Title: v8::internal::compiler::InstructionSelector::VisitWord32AtomicBinaryOperation Pages: 1 -->
<svg width="1040pt" height="876pt"
 viewBox="0.00 0.00 1040.00 875.50" xmlns="http://www.w3.org/2000/svg" xmlns:xlink="http://www.w3.org/1999/xlink">
<g id="graph0" class="graph" transform="scale(1 1) rotate(0) translate(4 871.5)">
<title>v8::internal::compiler::InstructionSelector::VisitWord32AtomicBinaryOperation</title>
<polygon fill="white" stroke="transparent" points="-4,4 -4,-871.5 1036,-871.5 1036,4 -4,4"/>
<!-- Node1 -->
<g id="node1" class="node">
<title>Node1</title>
<g id="a_node1"><a xlink:title=" ">
<polygon fill="#bfbfbf" stroke="black" points="0,-408.5 0,-449.5 195,-449.5 195,-408.5 0,-408.5"/>
<text text-anchor="start" x="8" y="-437.5" font-family="Helvetica,sans-Serif" font-size="10.00">v8::internal::compiler</text>
<text text-anchor="start" x="8" y="-426.5" font-family="Helvetica,sans-Serif" font-size="10.00">::InstructionSelector</text>
<text text-anchor="middle" x="97.5" y="-415.5" font-family="Helvetica,sans-Serif" font-size="10.00">::VisitWord32AtomicBinaryOperation</text>
</a>
</g>
</g>
<!-- Node2 -->
<g id="node2" class="node">
<title>Node2</title>
<g id="a_node2"><a xlink:href="structv8_1_1internal_1_1compiler_1_1turboshaft_1_1AtomicRMWOp.html#aae87106c3db2935202ebf1c9a6beed3a" target="_top" xlink:title=" ">
<polygon fill="white" stroke="black" points="249.5,-837 249.5,-867 430.5,-867 430.5,-837 249.5,-837"/>
<text text-anchor="start" x="257.5" y="-855" font-family="Helvetica,sans-Serif" font-size="10.00">v8::internal::compiler</text>
<text text-anchor="middle" x="340" y="-844" font-family="Helvetica,sans-Serif" font-size="10.00">::turboshaft::AtomicRMWOp::base</text>
</a>
</g>
</g>
<!-- Node1&#45;&gt;Node2 -->
<g id="edge1" class="edge">
<title>Node1&#45;&gt;Node2</title>
<path fill="none" stroke="midnightblue" d="M98.68,-449.7C100.44,-515.81 115.34,-723.57 231,-828 234,-830.71 237.24,-833.14 240.66,-835.31"/>
<polygon fill="midnightblue" stroke="midnightblue" points="239.04,-838.41 249.48,-840.2 242.43,-832.29 239.04,-838.41"/>
</g>
<!-- Node3 -->
<g id="node3" class="node">
<title>Node3</title>
<g id="a_node3"><a xlink:href="classv8_1_1internal_1_1compiler_1_1OperandGenerator.html#a2641dd01fb67b39c2dcbb4b1cc1c79c7" target="_top" xlink:title=" ">
<polygon fill="white" stroke="black" points="259,-208.5 259,-249.5 421,-249.5 421,-208.5 259,-208.5"/>
<text text-anchor="start" x="267" y="-237.5" font-family="Helvetica,sans-Serif" font-size="10.00">v8::internal::compiler</text>
<text text-anchor="start" x="267" y="-226.5" font-family="Helvetica,sans-Serif" font-size="10.00">::OperandGenerator::DefineAs</text>
<text text-anchor="middle" x="340" y="-215.5" font-family="Helvetica,sans-Serif" font-size="10.00">Register</text>
</a>
</g>
</g>
<!-- Node1&#45;&gt;Node3 -->
<g id="edge2" class="edge">
<title>Node1&#45;&gt;Node3</title>
<path fill="none" stroke="midnightblue" d="M108.9,-408.25C128.02,-372.25 172.23,-298.34 231,-259 236.7,-255.18 242.89,-251.85 249.31,-248.93"/>
<polygon fill="midnightblue" stroke="midnightblue" points="250.97,-252.03 258.86,-244.96 248.28,-245.57 250.97,-252.03"/>
</g>
<!-- Node20 -->
<g id="node11" class="node">
<title>Node20</title>
<g id="a_node11"><a xlink:href="classv8_1_1base_1_1BitField.html#a70718344d8a4df6c20b3cf9c9b14d0d4" target="_top" xlink:title=" ">
<polygon fill="white" stroke="black" points="289.5,-739 289.5,-769 390.5,-769 390.5,-739 289.5,-739"/>
<text text-anchor="start" x="297.5" y="-757" font-family="Helvetica,sans-Serif" font-size="10.00">v8::base::BitField</text>
<text text-anchor="middle" x="340" y="-746" font-family="Helvetica,sans-Serif" font-size="10.00">::encode</text>
</a>
</g>
</g>
<!-- Node1&#45;&gt;Node20 -->
<g id="edge13" class="edge">
<title>Node1&#45;&gt;Node20</title>
<path fill="none" stroke="midnightblue" d="M101.22,-449.51C109.61,-504.09 140.19,-653.87 231,-729 244.57,-740.23 262.25,-746.63 279.36,-750.21"/>
<polygon fill="midnightblue" stroke="midnightblue" points="278.86,-753.68 289.33,-752.01 280.11,-746.79 278.86,-753.68"/>
</g>
<!-- Node22 -->
<g id="node13" class="node">
<title>Node22</title>
<g id="a_node13"><a xlink:href="structv8_1_1internal_1_1compiler_1_1turboshaft_1_1AtomicRMWOp.html#a00373bc0b98f32278ce0cb2c4f8997bb" target="_top" xlink:title=" ">
<polygon fill="white" stroke="black" points="264,-678.5 264,-719.5 416,-719.5 416,-678.5 264,-678.5"/>
<text text-anchor="start" x="272" y="-707.5" font-family="Helvetica,sans-Serif" font-size="10.00">v8::internal::compiler</text>
<text text-anchor="start" x="272" y="-696.5" font-family="Helvetica,sans-Serif" font-size="10.00">::turboshaft::AtomicRMWOp</text>
<text text-anchor="middle" x="340" y="-685.5" font-family="Helvetica,sans-Serif" font-size="10.00">::index</text>
</a>
</g>
</g>
<!-- Node1&#45;&gt;Node22 -->
<g id="edge15" class="edge">
<title>Node1&#45;&gt;Node22</title>
<path fill="none" stroke="midnightblue" d="M103.92,-449.61C117.26,-496.13 156.12,-609.84 231,-669 237.99,-674.52 245.93,-679.03 254.26,-682.71"/>
<polygon fill="midnightblue" stroke="midnightblue" points="253.22,-686.06 263.81,-686.52 255.82,-679.56 253.22,-686.06"/>
</g>
<!-- Node23 -->
<g id="node14" class="node">
<title>Node23</title>
<g id="a_node14"><a xlink:href="namespacev8_1_1internal_1_1compiler_1_1turboshaft_1_1detail.html#abd60a8b46c2025b9a5ad36b9d1ed9c92" target="_top" xlink:title=" ">
<polygon fill="white" stroke="black" points="279.5,-618.5 279.5,-659.5 400.5,-659.5 400.5,-618.5 279.5,-618.5"/>
<text text-anchor="start" x="287.5" y="-647.5" font-family="Helvetica,sans-Serif" font-size="10.00">v8::internal::compiler</text>
<text text-anchor="start" x="287.5" y="-636.5" font-family="Helvetica,sans-Serif" font-size="10.00">::turboshaft::detail::</text>
<text text-anchor="middle" x="340" y="-625.5" font-family="Helvetica,sans-Serif" font-size="10.00">input_count</text>
</a>
</g>
</g>
<!-- Node1&#45;&gt;Node23 -->
<g id="edge16" class="edge">
<title>Node1&#45;&gt;Node23</title>
<path fill="none" stroke="midnightblue" d="M107.99,-449.78C126.26,-487.44 169.98,-566.93 231,-609 242.47,-616.91 255.98,-622.74 269.48,-627.04"/>
<polygon fill="midnightblue" stroke="midnightblue" points="268.71,-630.46 279.29,-629.91 270.67,-623.74 268.71,-630.46"/>
</g>
<!-- Node24 -->
<g id="node15" class="node">
<title>Node24</title>
<g id="a_node15"><a xlink:href="classv8_1_1internal_1_1compiler_1_1turboshaft_1_1MemoryRepresentation.html#ae277c27f7688dd90dc744ac02bba9ec1" target="_top" xlink:title=" ">
<polygon fill="white" stroke="black" points="243.5,-378.5 243.5,-419.5 436.5,-419.5 436.5,-378.5 243.5,-378.5"/>
<text text-anchor="start" x="251.5" y="-407.5" font-family="Helvetica,sans-Serif" font-size="10.00">v8::internal::compiler</text>
<text text-anchor="start" x="251.5" y="-396.5" font-family="Helvetica,sans-Serif" font-size="10.00">::turboshaft::MemoryRepresentation</text>
<text text-anchor="middle" x="340" y="-385.5" font-family="Helvetica,sans-Serif" font-size="10.00">::Int16</text>
</a>
</g>
</g>
<!-- Node1&#45;&gt;Node24 -->
<g id="edge17" class="edge">
<title>Node1&#45;&gt;Node24</title>
<path fill="none" stroke="midnightblue" d="M195.28,-416.93C207.74,-415.37 220.55,-413.77 233.15,-412.2"/>
<polygon fill="midnightblue" stroke="midnightblue" points="233.71,-415.66 243.2,-410.95 232.84,-408.71 233.71,-415.66"/>
</g>
<!-- Node26 -->
<g id="node17" class="node">
<title>Node26</title>
<g id="a_node17"><a xlink:href="classv8_1_1internal_1_1compiler_1_1turboshaft_1_1MemoryRepresentation.html#a80d2fbb91533fbcf3575b041f2ab9cfc" target="_top" xlink:title=" ">
<polygon fill="white" stroke="black" points="243.5,-318.5 243.5,-359.5 436.5,-359.5 436.5,-318.5 243.5,-318.5"/>
<text text-anchor="start" x="251.5" y="-347.5" font-family="Helvetica,sans-Serif" font-size="10.00">v8::internal::compiler</text>
<text text-anchor="start" x="251.5" y="-336.5" font-family="Helvetica,sans-Serif" font-size="10.00">::turboshaft::MemoryRepresentation</text>
<text text-anchor="middle" x="340" y="-325.5" font-family="Helvetica,sans-Serif" font-size="10.00">::Int32</text>
</a>
</g>
</g>
<!-- Node1&#45;&gt;Node26 -->
<g id="edge19" class="edge">
<title>Node1&#45;&gt;Node26</title>
<path fill="none" stroke="midnightblue" d="M139.59,-408.41C165.42,-395.97 199.67,-380.37 231,-369 237,-366.82 243.24,-364.71 249.55,-362.68"/>
<polygon fill="midnightblue" stroke="midnightblue" points="251.02,-365.89 259.52,-359.57 248.93,-359.21 251.02,-365.89"/>
</g>
<!-- Node27 -->
<g id="node18" class="node">
<title>Node27</title>
<g id="a_node18"><a xlink:href="classv8_1_1internal_1_1compiler_1_1turboshaft_1_1MemoryRepresentation.html#a43cbfc8f2f1e4a411d249c94c4b7e636" target="_top" xlink:title=" ">
<polygon fill="white" stroke="black" points="231,-269 231,-299 449,-299 449,-269 231,-269"/>
<text text-anchor="start" x="239" y="-287" font-family="Helvetica,sans-Serif" font-size="10.00">v8::internal::compiler</text>
<text text-anchor="middle" x="340" y="-276" font-family="Helvetica,sans-Serif" font-size="10.00">::turboshaft::MemoryRepresentation::Int8</text>
</a>
</g>
</g>
<!-- Node1&#45;&gt;Node27 -->
<g id="edge21" class="edge">
<title>Node1&#45;&gt;Node27</title>
<path fill="none" stroke="midnightblue" d="M115.44,-408.12C138.62,-381 182.87,-334.16 231,-309 235.52,-306.64 240.26,-304.49 245.13,-302.55"/>
<polygon fill="midnightblue" stroke="midnightblue" points="246.45,-305.8 254.63,-299.06 244.04,-299.23 246.45,-305.8"/>
</g>
<!-- Node28 -->
<g id="node19" class="node">
<title>Node28</title>
<g id="a_node19"><a xlink:href="classv8_1_1internal_1_1compiler_1_1OperandGenerator.html#a408982e8ef268124fdd2884792d47fe3" target="_top" xlink:title=" ">
<polygon fill="white" stroke="black" points="247.5,-788 247.5,-818 432.5,-818 432.5,-788 247.5,-788"/>
<text text-anchor="start" x="255.5" y="-806" font-family="Helvetica,sans-Serif" font-size="10.00">v8::internal::compiler</text>
<text text-anchor="middle" x="340" y="-795" font-family="Helvetica,sans-Serif" font-size="10.00">::OperandGenerator::TempRegister</text>
</a>
</g>
</g>
<!-- Node1&#45;&gt;Node28 -->
<g id="edge23" class="edge">
<title>Node1&#45;&gt;Node28</title>
<path fill="none" stroke="midnightblue" d="M99.77,-449.75C104.67,-510.53 127.62,-689.46 231,-779 233.39,-781.07 235.92,-782.97 238.56,-784.72"/>
<polygon fill="midnightblue" stroke="midnightblue" points="236.94,-787.83 247.35,-789.8 240.44,-781.77 236.94,-787.83"/>
</g>
<!-- Node30 -->
<g id="node22" class="node">
<title>Node30</title>
<g id="a_node22"><a xlink:href="classv8_1_1internal_1_1compiler_1_1turboshaft_1_1MemoryRepresentation.html#aa5933087ba7a61b90e9182b3fc3522be" target="_top" xlink:title=" ">
<polygon fill="white" stroke="black" points="243.5,-558.5 243.5,-599.5 436.5,-599.5 436.5,-558.5 243.5,-558.5"/>
<text text-anchor="start" x="251.5" y="-587.5" font-family="Helvetica,sans-Serif" font-size="10.00">v8::internal::compiler</text>
<text text-anchor="start" x="251.5" y="-576.5" font-family="Helvetica,sans-Serif" font-size="10.00">::turboshaft::MemoryRepresentation</text>
<text text-anchor="middle" x="340" y="-565.5" font-family="Helvetica,sans-Serif" font-size="10.00">::Uint16</text>
</a>
</g>
</g>
<!-- Node1&#45;&gt;Node30 -->
<g id="edge27" class="edge">
<title>Node1&#45;&gt;Node30</title>
<path fill="none" stroke="midnightblue" d="M115.61,-449.57C138.98,-476.34 183.43,-522.8 231,-549 234.5,-550.93 238.12,-552.73 241.84,-554.43"/>
<polygon fill="midnightblue" stroke="midnightblue" points="240.67,-557.74 251.24,-558.44 243.41,-551.3 240.67,-557.74"/>
</g>
<!-- Node31 -->
<g id="node23" class="node">
<title>Node31</title>
<g id="a_node23"><a xlink:href="classv8_1_1internal_1_1compiler_1_1turboshaft_1_1MemoryRepresentation.html#a63548c44fba30d1a1f8a81ef5cfde492" target="_top" xlink:title=" ">
<polygon fill="white" stroke="black" points="243.5,-498.5 243.5,-539.5 436.5,-539.5 436.5,-498.5 243.5,-498.5"/>
<text text-anchor="start" x="251.5" y="-527.5" font-family="Helvetica,sans-Serif" font-size="10.00">v8::internal::compiler</text>
<text text-anchor="start" x="251.5" y="-516.5" font-family="Helvetica,sans-Serif" font-size="10.00">::turboshaft::MemoryRepresentation</text>
<text text-anchor="middle" x="340" y="-505.5" font-family="Helvetica,sans-Serif" font-size="10.00">::Uint32</text>
</a>
</g>
</g>
<!-- Node1&#45;&gt;Node31 -->
<g id="edge29" class="edge">
<title>Node1&#45;&gt;Node31</title>
<path fill="none" stroke="midnightblue" d="M139.59,-449.59C165.42,-462.03 199.67,-477.63 231,-489 237,-491.18 243.24,-493.29 249.55,-495.32"/>
<polygon fill="midnightblue" stroke="midnightblue" points="248.93,-498.79 259.52,-498.43 251.02,-492.11 248.93,-498.79"/>
</g>
<!-- Node32 -->
<g id="node24" class="node">
<title>Node32</title>
<g id="a_node24"><a xlink:href="classv8_1_1internal_1_1compiler_1_1turboshaft_1_1MemoryRepresentation.html#ad4adeadf5204d00eb980e6ed25ad575f" target="_top" xlink:title=" ">
<polygon fill="white" stroke="black" points="243.5,-438.5 243.5,-479.5 436.5,-479.5 436.5,-438.5 243.5,-438.5"/>
<text text-anchor="start" x="251.5" y="-467.5" font-family="Helvetica,sans-Serif" font-size="10.00">v8::internal::compiler</text>
<text text-anchor="start" x="251.5" y="-456.5" font-family="Helvetica,sans-Serif" font-size="10.00">::turboshaft::MemoryRepresentation</text>
<text text-anchor="middle" x="340" y="-445.5" font-family="Helvetica,sans-Serif" font-size="10.00">::Uint8</text>
</a>
</g>
</g>
<!-- Node1&#45;&gt;Node32 -->
<g id="edge31" class="edge">
<title>Node1&#45;&gt;Node32</title>
<path fill="none" stroke="midnightblue" d="M195.28,-441.07C207.74,-442.63 220.55,-444.23 233.15,-445.8"/>
<polygon fill="midnightblue" stroke="midnightblue" points="232.84,-449.29 243.2,-447.05 233.71,-442.34 232.84,-449.29"/>
</g>
<!-- Node33 -->
<g id="node25" class="node">
<title>Node33</title>
<g id="a_node25"><a xlink:href="namespacev8_1_1internal.html#acdec713c25068019f935e35976f5b666" target="_top" xlink:title=" ">
<polygon fill="white" stroke="black" points="264,-170.5 264,-189.5 416,-189.5 416,-170.5 264,-170.5"/>
<text text-anchor="middle" x="340" y="-177.5" font-family="Helvetica,sans-Serif" font-size="10.00">v8::internal::UNREACHABLE</text>
</a>
</g>
</g>
<!-- Node1&#45;&gt;Node33 -->
<g id="edge33" class="edge">
<title>Node1&#45;&gt;Node33</title>
<path fill="none" stroke="midnightblue" d="M103.91,-408.39C117.1,-362.52 155.52,-251.88 231,-199 238,-194.09 245.88,-190.32 254.09,-187.44"/>
<polygon fill="midnightblue" stroke="midnightblue" points="255.33,-190.72 263.87,-184.45 253.28,-184.03 255.33,-190.72"/>
</g>
<!-- Node34 -->
<g id="node26" class="node">
<title>Node34</title>
<g id="a_node26"><a xlink:href="classv8_1_1internal_1_1compiler_1_1OperandGenerator.html#a5ab98978746cb4c2326a666a3bcfd677" target="_top" xlink:title=" ">
<polygon fill="white" stroke="black" points="251,-61 251,-91 429,-91 429,-61 251,-61"/>
<text text-anchor="start" x="259" y="-79" font-family="Helvetica,sans-Serif" font-size="10.00">v8::internal::compiler</text>
<text text-anchor="middle" x="340" y="-68" font-family="Helvetica,sans-Serif" font-size="10.00">::OperandGenerator::UseRegister</text>
</a>
</g>
</g>
<!-- Node1&#45;&gt;Node34 -->
<g id="edge34" class="edge">
<title>Node1&#45;&gt;Node34</title>
<path fill="none" stroke="midnightblue" d="M100.39,-408.32C106.86,-350.24 133.42,-184.39 231,-101 234.33,-98.15 237.93,-95.61 241.71,-93.35"/>
<polygon fill="midnightblue" stroke="midnightblue" points="243.62,-96.3 250.85,-88.56 240.37,-90.1 243.62,-96.3"/>
</g>
<!-- Node36 -->
<g id="node28" class="node">
<title>Node36</title>
<g id="a_node28"><a xlink:href="classv8_1_1internal_1_1compiler_1_1OperandGenerator.html#a918f04472b9089058cba7d5a1f61196d" target="_top" xlink:title=" ">
<polygon fill="white" stroke="black" points="254,-110.5 254,-151.5 426,-151.5 426,-110.5 254,-110.5"/>
<text text-anchor="start" x="262" y="-139.5" font-family="Helvetica,sans-Serif" font-size="10.00">v8::internal::compiler</text>
<text text-anchor="start" x="262" y="-128.5" font-family="Helvetica,sans-Serif" font-size="10.00">::OperandGenerator::UseUnique</text>
<text text-anchor="middle" x="340" y="-117.5" font-family="Helvetica,sans-Serif" font-size="10.00">Register</text>
</a>
</g>
</g>
<!-- Node1&#45;&gt;Node36 -->
<g id="edge38" class="edge">
<title>Node1&#45;&gt;Node36</title>
<path fill="none" stroke="midnightblue" d="M102.66,-408.31C113.9,-357.97 149.62,-228.34 231,-161 235.26,-157.47 239.91,-154.36 244.81,-151.61"/>
<polygon fill="midnightblue" stroke="midnightblue" points="246.51,-154.67 253.86,-147.04 243.35,-148.42 246.51,-154.67"/>
</g>
<!-- Node37 -->
<g id="node29" class="node">
<title>Node37</title>
<g id="a_node29"><a xlink:href="structv8_1_1internal_1_1compiler_1_1turboshaft_1_1AtomicRMWOp.html#a4c996c0fc304d2c1c326dd13323b78d5" target="_top" xlink:title=" ">
<polygon fill="white" stroke="black" points="264,-0.5 264,-41.5 416,-41.5 416,-0.5 264,-0.5"/>
<text text-anchor="start" x="272" y="-29.5" font-family="Helvetica,sans-Serif" font-size="10.00">v8::internal::compiler</text>
<text text-anchor="start" x="272" y="-18.5" font-family="Helvetica,sans-Serif" font-size="10.00">::turboshaft::AtomicRMWOp</text>
<text text-anchor="middle" x="340" y="-7.5" font-family="Helvetica,sans-Serif" font-size="10.00">::value</text>
</a>
</g>
</g>
<!-- Node1&#45;&gt;Node37 -->
<g id="edge41" class="edge">
<title>Node1&#45;&gt;Node37</title>
<path fill="none" stroke="midnightblue" d="M99.36,-408.27C103.13,-344.86 123.36,-151.74 231,-51 237.78,-44.65 245.79,-39.63 254.33,-35.66"/>
<polygon fill="midnightblue" stroke="midnightblue" points="255.87,-38.81 263.77,-31.75 253.2,-32.34 255.87,-38.81"/>
</g>
<!-- Node4 -->
<g id="node4" class="node">
<title>Node4</title>
<g id="a_node4"><a xlink:href="classv8_1_1internal_1_1compiler_1_1OperandGenerator.html#a853ecb9dc65d9e624cd4cf2b2e08a86d" target="_top" xlink:title=" ">
<polygon fill="white" stroke="black" points="506.5,-239 506.5,-269 656.5,-269 656.5,-239 506.5,-239"/>
<text text-anchor="start" x="514.5" y="-257" font-family="Helvetica,sans-Serif" font-size="10.00">v8::internal::compiler</text>
<text text-anchor="middle" x="581.5" y="-246" font-family="Helvetica,sans-Serif" font-size="10.00">::OperandGenerator::Define</text>
</a>
</g>
</g>
<!-- Node3&#45;&gt;Node4 -->
<g id="edge3" class="edge">
<title>Node3&#45;&gt;Node4</title>
<path fill="none" stroke="midnightblue" d="M421.08,-237.36C445.23,-239.88 471.79,-242.65 496.2,-245.2"/>
<polygon fill="midnightblue" stroke="midnightblue" points="495.85,-248.68 506.16,-246.24 496.57,-241.72 495.85,-248.68"/>
</g>
<!-- Node6 -->
<g id="node6" class="node">
<title>Node6</title>
<g id="a_node6"><a xlink:href="classv8_1_1internal_1_1compiler_1_1OperandGenerator.html#ab57538e5e899a050304464f46061d95f" target="_top" xlink:title=" ">
<polygon fill="white" stroke="red" points="714,-146 714,-176 875,-176 875,-146 714,-146"/>
<text text-anchor="start" x="722" y="-164" font-family="Helvetica,sans-Serif" font-size="10.00">v8::internal::compiler</text>
<text text-anchor="middle" x="794.5" y="-153" font-family="Helvetica,sans-Serif" font-size="10.00">::OperandGenerator::GetVReg</text>
</a>
</g>
</g>
<!-- Node3&#45;&gt;Node6 -->
<g id="edge12" class="edge">
<title>Node3&#45;&gt;Node6</title>
<path fill="none" stroke="midnightblue" d="M421.12,-216.96C500.31,-205.06 621.26,-186.88 703.67,-174.5"/>
<polygon fill="midnightblue" stroke="midnightblue" points="704.41,-177.93 713.78,-172.98 703.37,-171.01 704.41,-177.93"/>
</g>
<!-- Node5 -->
<g id="node5" class="node">
<title>Node5</title>
<g id="a_node5"><a xlink:href="namespacev8_1_1internal.html#aa6b3743bd5d773c552654f2a6c3efa4a" target="_top" xlink:title=" ">
<polygon fill="white" stroke="black" points="912,-249.5 912,-268.5 1031,-268.5 1031,-249.5 912,-249.5"/>
<text text-anchor="middle" x="971.5" y="-256.5" font-family="Helvetica,sans-Serif" font-size="10.00">v8::internal::DCHECK</text>
</a>
</g>
</g>
<!-- Node4&#45;&gt;Node5 -->
<g id="edge4" class="edge">
<title>Node4&#45;&gt;Node5</title>
<path fill="none" stroke="midnightblue" d="M635.78,-238.99C659.51,-233.04 687.94,-226.94 714,-224 785.11,-215.99 804.55,-211.5 875,-224 897.99,-228.08 922.71,-237.28 941.24,-245.23"/>
<polygon fill="midnightblue" stroke="midnightblue" points="940.02,-248.52 950.58,-249.35 942.85,-242.11 940.02,-248.52"/>
</g>
<!-- Node4&#45;&gt;Node6 -->
<g id="edge5" class="edge">
<title>Node4&#45;&gt;Node6</title>
<path fill="none" stroke="midnightblue" d="M632.86,-238.83C647.82,-233.47 663.95,-226.79 678,-219 695.73,-209.17 696.32,-200.91 714,-191 721.31,-186.9 729.28,-183.15 737.27,-179.79"/>
<polygon fill="midnightblue" stroke="midnightblue" points="738.65,-183 746.62,-176.02 736.04,-176.51 738.65,-183"/>
</g>
<!-- Node15 -->
<g id="node7" class="node">
<title>Node15</title>
<g id="a_node7"><a xlink:href="classv8_1_1internal_1_1compiler_1_1InstructionSelector.html#af316abf7790c95b6d1399fee795afe96" target="_top" xlink:title=" ">
<polygon fill="white" stroke="red" points="734,-293.5 734,-334.5 855,-334.5 855,-293.5 734,-293.5"/>
<text text-anchor="start" x="742" y="-322.5" font-family="Helvetica,sans-Serif" font-size="10.00">v8::internal::compiler</text>
<text text-anchor="start" x="742" y="-311.5" font-family="Helvetica,sans-Serif" font-size="10.00">::InstructionSelector</text>
<text text-anchor="middle" x="794.5" y="-300.5" font-family="Helvetica,sans-Serif" font-size="10.00">::MarkAsDefined</text>
</a>
</g>
</g>
<!-- Node4&#45;&gt;Node15 -->
<g id="edge6" class="edge">
<title>Node4&#45;&gt;Node15</title>
<path fill="none" stroke="midnightblue" d="M635.47,-269.06C662.23,-276.67 695.03,-286 723.8,-294.18"/>
<polygon fill="midnightblue" stroke="midnightblue" points="723.22,-297.65 733.8,-297.02 725.14,-290.92 723.22,-297.65"/>
</g>
<!-- Node12 -->
<g id="node8" class="node">
<title>Node12</title>
<g id="a_node8"><a xlink:href="classv8_1_1internal_1_1compiler_1_1turboshaft_1_1OpIndex.html#ad3816bb041449b3d13b53d55896c8b77" target="_top" xlink:title=" ">
<polygon fill="white" stroke="red" points="911,-317.5 911,-358.5 1032,-358.5 1032,-317.5 911,-317.5"/>
<text text-anchor="start" x="919" y="-346.5" font-family="Helvetica,sans-Serif" font-size="10.00">v8::internal::compiler</text>
<text text-anchor="start" x="919" y="-335.5" font-family="Helvetica,sans-Serif" font-size="10.00">::turboshaft::OpIndex</text>
<text text-anchor="middle" x="971.5" y="-324.5" font-family="Helvetica,sans-Serif" font-size="10.00">::valid</text>
</a>
</g>
</g>
<!-- Node4&#45;&gt;Node12 -->
<g id="edge10" class="edge">
<title>Node4&#45;&gt;Node12</title>
<path fill="none" stroke="midnightblue" d="M597.81,-269.19C620.74,-290.77 666.43,-329.28 714,-344 775.16,-362.93 848.51,-358.71 901.07,-351.37"/>
<polygon fill="midnightblue" stroke="midnightblue" points="901.58,-354.83 910.96,-349.92 900.56,-347.91 901.58,-354.83"/>
</g>
<!-- Node17 -->
<g id="node9" class="node">
<title>Node17</title>
<g id="a_node9"><a xlink:href="classv8_1_1internal_1_1compiler_1_1OperandGenerator.html#a0382e5e7c015607692b15347c334c5e7" target="_top" xlink:title=" ">
<polygon fill="white" stroke="black" points="715.5,-564 715.5,-594 873.5,-594 873.5,-564 715.5,-564"/>
<text text-anchor="start" x="723.5" y="-582" font-family="Helvetica,sans-Serif" font-size="10.00">v8::internal::compiler</text>
<text text-anchor="middle" x="794.5" y="-571" font-family="Helvetica,sans-Serif" font-size="10.00">::OperandGenerator::selector</text>
</a>
</g>
</g>
<!-- Node4&#45;&gt;Node17 -->
<g id="edge9" class="edge">
<title>Node4&#45;&gt;Node17</title>
<path fill="none" stroke="midnightblue" d="M592.6,-269.2C610.09,-295.56 647.11,-351.49 678,-399 714.23,-454.72 756.26,-520.53 778.27,-555.07"/>
<polygon fill="midnightblue" stroke="midnightblue" points="775.35,-557 783.67,-563.55 781.25,-553.24 775.35,-557"/>
</g>
<!-- Node18 -->
<g id="node10" class="node">
<title>Node18</title>
<g id="a_node10"><a xlink:href="classv8_1_1internal_1_1compiler_1_1UnallocatedOperand.html#a0b5240a4ee74c2ddfac4a4574830c894" target="_top" xlink:title=" ">
<polygon fill="white" stroke="red" points="730.5,-233.5 730.5,-274.5 858.5,-274.5 858.5,-233.5 730.5,-233.5"/>
<text text-anchor="start" x="738.5" y="-262.5" font-family="Helvetica,sans-Serif" font-size="10.00">v8::internal::compiler</text>
<text text-anchor="start" x="738.5" y="-251.5" font-family="Helvetica,sans-Serif" font-size="10.00">::UnallocatedOperand::</text>
<text text-anchor="middle" x="794.5" y="-240.5" font-family="Helvetica,sans-Serif" font-size="10.00">virtual_register</text>
</a>
</g>
</g>
<!-- Node4&#45;&gt;Node18 -->
<g id="edge11" class="edge">
<title>Node4&#45;&gt;Node18</title>
<path fill="none" stroke="midnightblue" d="M656.59,-254C677.22,-254 699.6,-254 720.17,-254"/>
<polygon fill="midnightblue" stroke="midnightblue" points="720.43,-257.5 730.43,-254 720.43,-250.5 720.43,-257.5"/>
</g>
<!-- Node15&#45;&gt;Node5 -->
<g id="edge7" class="edge">
<title>Node15&#45;&gt;Node5</title>
<path fill="none" stroke="midnightblue" d="M855.24,-295.23C879.96,-287.45 907.99,-278.64 930.22,-271.66"/>
<polygon fill="midnightblue" stroke="midnightblue" points="931.5,-274.93 939.99,-268.59 929.4,-268.25 931.5,-274.93"/>
</g>
<!-- Node15&#45;&gt;Node12 -->
<g id="edge8" class="edge">
<title>Node15&#45;&gt;Node12</title>
<path fill="none" stroke="midnightblue" d="M855.24,-322.19C869.8,-324.19 885.5,-326.34 900.49,-328.4"/>
<polygon fill="midnightblue" stroke="midnightblue" points="900.35,-331.91 910.74,-329.8 901.3,-324.98 900.35,-331.91"/>
</g>
<!-- Node21 -->
<g id="node12" class="node">
<title>Node21</title>
<g id="a_node12"><a xlink:href="classv8_1_1base_1_1BitField.html#a634dcf9bf5eb402dea1ec28d543bc55c" target="_top" xlink:title=" ">
<polygon fill="white" stroke="black" points="531,-739 531,-769 632,-769 632,-739 531,-739"/>
<text text-anchor="start" x="539" y="-757" font-family="Helvetica,sans-Serif" font-size="10.00">v8::base::BitField</text>
<text text-anchor="middle" x="581.5" y="-746" font-family="Helvetica,sans-Serif" font-size="10.00">::is_valid</text>
</a>
</g>
</g>
<!-- Node20&#45;&gt;Node21 -->
<g id="edge14" class="edge">
<title>Node20&#45;&gt;Node21</title>
<path fill="none" stroke="midnightblue" d="M390.62,-754C428.44,-754 480.65,-754 520.76,-754"/>
<polygon fill="midnightblue" stroke="midnightblue" points="520.94,-757.5 530.94,-754 520.94,-750.5 520.94,-757.5"/>
</g>
<!-- Node25 -->
<g id="node16" class="node">
<title>Node25</title>
<g id="a_node16"><a xlink:href="classv8_1_1internal_1_1compiler_1_1turboshaft_1_1MemoryRepresentation.html#afcff14f1dd0f48b328e73bd87da7951e" target="_top" xlink:title=" ">
<polygon fill="white" stroke="black" points="485,-408.5 485,-449.5 678,-449.5 678,-408.5 485,-408.5"/>
<text text-anchor="start" x="493" y="-437.5" font-family="Helvetica,sans-Serif" font-size="10.00">v8::internal::compiler</text>
<text text-anchor="start" x="493" y="-426.5" font-family="Helvetica,sans-Serif" font-size="10.00">::turboshaft::MemoryRepresentation</text>
<text text-anchor="middle" x="581.5" y="-415.5" font-family="Helvetica,sans-Serif" font-size="10.00">::MemoryRepresentation</text>
</a>
</g>
</g>
<!-- Node24&#45;&gt;Node25 -->
<g id="edge18" class="edge">
<title>Node24&#45;&gt;Node25</title>
<path fill="none" stroke="midnightblue" d="M436.69,-410.99C449.23,-412.56 462.14,-414.17 474.84,-415.76"/>
<polygon fill="midnightblue" stroke="midnightblue" points="474.61,-419.26 484.96,-417.03 475.48,-412.32 474.61,-419.26"/>
</g>
<!-- Node26&#45;&gt;Node25 -->
<g id="edge20" class="edge">
<title>Node26&#45;&gt;Node25</title>
<path fill="none" stroke="midnightblue" d="M420.49,-359.54C430.17,-362.49 439.86,-365.67 449,-369 476.6,-379.06 506.45,-392.46 530.72,-404.05"/>
<polygon fill="midnightblue" stroke="midnightblue" points="529.21,-407.2 539.74,-408.39 532.25,-400.9 529.21,-407.2"/>
</g>
<!-- Node27&#45;&gt;Node25 -->
<g id="edge22" class="edge">
<title>Node27&#45;&gt;Node25</title>
<path fill="none" stroke="midnightblue" d="M425.38,-299.03C433.58,-301.82 441.59,-305.11 449,-309 492.58,-331.89 532.84,-372.75 557.03,-400.36"/>
<polygon fill="midnightblue" stroke="midnightblue" points="554.54,-402.82 563.72,-408.11 559.84,-398.25 554.54,-402.82"/>
</g>
<!-- Node29 -->
<g id="node20" class="node">
<title>Node29</title>
<g id="a_node20"><a xlink:href="classv8_1_1internal_1_1compiler_1_1OperandGenerator.html#aa95c23bd05d8901c0688a72e45422632" target="_top" xlink:title=" ">
<polygon fill="white" stroke="black" points="499,-788 499,-818 664,-818 664,-788 499,-788"/>
<text text-anchor="start" x="507" y="-806" font-family="Helvetica,sans-Serif" font-size="10.00">v8::internal::compiler</text>
<text text-anchor="middle" x="581.5" y="-795" font-family="Helvetica,sans-Serif" font-size="10.00">::OperandGenerator::sequence</text>
</a>
</g>
</g>
<!-- Node28&#45;&gt;Node29 -->
<g id="edge24" class="edge">
<title>Node28&#45;&gt;Node29</title>
<path fill="none" stroke="midnightblue" d="M432.57,-803C450.95,-803 470.28,-803 488.67,-803"/>
<polygon fill="midnightblue" stroke="midnightblue" points="488.78,-806.5 498.78,-803 488.78,-799.5 488.78,-806.5"/>
</g>
<!-- Node29&#45;&gt;Node17 -->
<g id="edge25" class="edge">
<title>Node29&#45;&gt;Node17</title>
<path fill="none" stroke="midnightblue" d="M663.4,-787.83C668.57,-785.32 673.5,-782.4 678,-779 738.46,-733.36 772.59,-646.16 786.32,-603.6"/>
<polygon fill="midnightblue" stroke="midnightblue" points="789.67,-604.62 789.3,-594.03 782.98,-602.53 789.67,-604.62"/>
</g>
<!-- Node10 -->
<g id="node21" class="node">
<title>Node10</title>
<g id="a_node21"><a xlink:href="classv8_1_1internal_1_1compiler_1_1InstructionSelector.html#a99880d603289af8731b5ce9f14228275" target="_top" xlink:title=" ">
<polygon fill="white" stroke="black" points="734,-782.5 734,-823.5 855,-823.5 855,-782.5 734,-782.5"/>
<text text-anchor="start" x="742" y="-811.5" font-family="Helvetica,sans-Serif" font-size="10.00">v8::internal::compiler</text>
<text text-anchor="start" x="742" y="-800.5" font-family="Helvetica,sans-Serif" font-size="10.00">::InstructionSelector</text>
<text text-anchor="middle" x="794.5" y="-789.5" font-family="Helvetica,sans-Serif" font-size="10.00">::sequence</text>
</a>
</g>
</g>
<!-- Node29&#45;&gt;Node10 -->
<g id="edge26" class="edge">
<title>Node29&#45;&gt;Node10</title>
<path fill="none" stroke="midnightblue" d="M664.08,-803C683.74,-803 704.57,-803 723.64,-803"/>
<polygon fill="midnightblue" stroke="midnightblue" points="723.73,-806.5 733.73,-803 723.73,-799.5 723.73,-806.5"/>
</g>
<!-- Node30&#45;&gt;Node25 -->
<g id="edge28" class="edge">
<title>Node30&#45;&gt;Node25</title>
<path fill="none" stroke="midnightblue" d="M428.77,-558.46C435.78,-555.67 442.61,-552.53 449,-549 492.07,-525.17 532.45,-484.54 556.82,-457.24"/>
<polygon fill="midnightblue" stroke="midnightblue" points="559.58,-459.4 563.55,-449.57 554.32,-454.78 559.58,-459.4"/>
</g>
<!-- Node31&#45;&gt;Node25 -->
<g id="edge30" class="edge">
<title>Node31&#45;&gt;Node25</title>
<path fill="none" stroke="midnightblue" d="M420.49,-498.46C430.17,-495.51 439.86,-492.33 449,-489 476.6,-478.94 506.45,-465.54 530.72,-453.95"/>
<polygon fill="midnightblue" stroke="midnightblue" points="532.25,-457.1 539.74,-449.61 529.21,-450.8 532.25,-457.1"/>
</g>
<!-- Node32&#45;&gt;Node25 -->
<g id="edge32" class="edge">
<title>Node32&#45;&gt;Node25</title>
<path fill="none" stroke="midnightblue" d="M436.69,-447.01C449.23,-445.44 462.14,-443.83 474.84,-442.24"/>
<polygon fill="midnightblue" stroke="midnightblue" points="475.48,-445.68 484.96,-440.97 474.61,-438.74 475.48,-445.68"/>
</g>
<!-- Node34&#45;&gt;Node6 -->
<g id="edge35" class="edge">
<title>Node34&#45;&gt;Node6</title>
<path fill="none" stroke="midnightblue" d="M429.11,-70.05C498.22,-67.96 596.1,-70.76 678,-95 710.06,-104.49 742.8,-124.35 765.2,-139.83"/>
<polygon fill="midnightblue" stroke="midnightblue" points="763.36,-142.81 773.54,-145.72 767.39,-137.09 763.36,-142.81"/>
</g>
<!-- Node35 -->
<g id="node27" class="node">
<title>Node35</title>
<g id="a_node27"><a xlink:href="classv8_1_1internal_1_1compiler_1_1OperandGenerator.html#a4f41facd85ac8d4618db1191c602c5ea" target="_top" xlink:title=" ">
<polygon fill="white" stroke="black" points="513,-105 513,-135 650,-135 650,-105 513,-105"/>
<text text-anchor="start" x="521" y="-123" font-family="Helvetica,sans-Serif" font-size="10.00">v8::internal::compiler</text>
<text text-anchor="middle" x="581.5" y="-112" font-family="Helvetica,sans-Serif" font-size="10.00">::OperandGenerator::Use</text>
</a>
</g>
</g>
<!-- Node34&#45;&gt;Node35 -->
<g id="edge36" class="edge">
<title>Node34&#45;&gt;Node35</title>
<path fill="none" stroke="midnightblue" d="M422.75,-91.02C448.59,-95.77 477.07,-101 502.63,-105.69"/>
<polygon fill="midnightblue" stroke="midnightblue" points="502.17,-109.17 512.64,-107.53 503.44,-102.28 502.17,-109.17"/>
</g>
<!-- Node35&#45;&gt;Node6 -->
<g id="edge37" class="edge">
<title>Node35&#45;&gt;Node6</title>
<path fill="none" stroke="midnightblue" d="M650.13,-133.14C667.91,-136.6 687.34,-140.37 706,-144"/>
<polygon fill="midnightblue" stroke="midnightblue" points="705.49,-147.46 715.97,-145.94 706.83,-140.59 705.49,-147.46"/>
</g>
<!-- Node36&#45;&gt;Node6 -->
<g id="edge39" class="edge">
<title>Node36&#45;&gt;Node6</title>
<path fill="none" stroke="midnightblue" d="M426.24,-139.19C445.55,-140.91 465.97,-142.62 485,-144 558.61,-149.35 642.21,-153.86 703.8,-156.89"/>
<polygon fill="midnightblue" stroke="midnightblue" points="703.71,-160.39 713.87,-157.38 704.06,-153.4 703.71,-160.39"/>
</g>
<!-- Node36&#45;&gt;Node35 -->
<g id="edge40" class="edge">
<title>Node36&#45;&gt;Node35</title>
<path fill="none" stroke="midnightblue" d="M426.11,-127.09C451.05,-125.95 478.19,-124.7 502.65,-123.58"/>
<polygon fill="midnightblue" stroke="midnightblue" points="503.13,-127.06 512.96,-123.1 502.81,-120.06 503.13,-127.06"/>
</g>
</g>
</svg>
