<?xml version="1.0" encoding="UTF-8" standalone="no"?>
<!DOCTYPE svg PUBLIC "-//W3C//DTD SVG 1.1//EN"
 "http://www.w3.org/Graphics/SVG/1.1/DTD/svg11.dtd">
<!-- Generated by graphviz version 2.43.0 (0)
 -->
<!-- Title: v8::internal::Parser::ParseExportDefault Pages: 1 -->
<!--zoomable 1162 -->
<svg id="main" version="1.1" xmlns="http://www.w3.org/2000/svg" xmlns:xlink="http://www.w3.org/1999/xlink" xml:space="preserve" onload="init(evt)">
<style type="text/css"><![CDATA[
.edge:hover path { stroke: red; }
.edge:hover polygon { stroke: red; fill: red; }
]]></style>
<script type="text/javascript"><![CDATA[
var edges = document.getElementsByTagName('g');
if (edges && edges.length) {
  for (var i=0;i<edges.length;i++) {
    if (edges[i].id.substr(0,4)=='edge') {
      edges[i].setAttribute('class','edge');
    }
  }
}
]]></script>
        <defs>
                <circle id="rim" cx="0" cy="0" r="7"/>
                <circle id="rim2" cx="0" cy="0" r="3.5"/>
                <g id="zoomPlus">
                        <use xlink:href="#rim" fill="#404040">
                                <set attributeName="fill" to="#808080" begin="zoomplus.mouseover" end="zoomplus.mouseout"/>
                        </use>
                        <path d="M-4,0h8M0,-4v8" fill="none" stroke="white" stroke-width="1.5" pointer-events="none"/>
                </g>
                <g id="zoomMin">
                        <use xlink:href="#rim" fill="#404040">
                                <set attributeName="fill" to="#808080" begin="zoomminus.mouseover" end="zoomminus.mouseout"/>
                        </use>
                        <path d="M-4,0h8" fill="none" stroke="white" stroke-width="1.5" pointer-events="none"/>
                </g>
                <g id="dirArrow">
                        <path fill="none" stroke="white" stroke-width="1.5" d="M0,-3.0v7 M-2.5,-0.5L0,-3.0L2.5,-0.5"/>
                </g>
               <g id="resetDef">
                       <use xlink:href="#rim2" fill="#404040">
                               <set attributeName="fill" to="#808080" begin="reset.mouseover" end="reset.mouseout"/>
                       </use>
               </g>
        </defs>

<script type="text/javascript">
var viewWidth = 882;
var viewHeight = 1162;
var sectionId = 'dynsection-129';
</script>
<script xlink:href="svgpan.js"/>
<svg id="graph" class="graph">
<g id="viewport">
<title>v8::internal::Parser::ParseExportDefault</title>
<polygon fill="white" stroke="transparent" points="-4,4 -4,-1158 878,-1158 878,4 -4,4"/>
<!-- Node1 -->
<g id="node1" class="node">
<title>Node1</title>
<g id="a_node1"><a xlink:title=" ">
<polygon fill="#bfbfbf" stroke="black" points="0,-171.5 0,-201.5 116,-201.5 116,-171.5 0,-171.5"/>
<text text-anchor="start" x="8" y="-189.5" font-family="Helvetica,sans-Serif" font-size="10.00">v8::internal::Parser</text>
<text text-anchor="middle" x="58" y="-178.5" font-family="Helvetica,sans-Serif" font-size="10.00">::ParseExportDefault</text>
</a>
</g>
</g>
<!-- Node2 -->
<g id="node2" class="node">
<title>Node2</title>
<g id="a_node2"><a xlink:href="classv8_1_1internal_1_1ZoneList.html#aeab81ed4336f7c008d0f7b4d1dbec9ab" target="_top" xlink:title=" ">
<polygon fill="white" stroke="black" points="152,-905 152,-924 297,-924 297,-905 152,-905"/>
<text text-anchor="middle" x="224.5" y="-912" font-family="Helvetica,sans-Serif" font-size="10.00">v8::internal::ZoneList::Add</text>
</a>
</g>
</g>
<!-- Node1&#45;&gt;Node2 -->
<g id="edge1" class="edge">
<title>Node1&#45;&gt;Node2</title>
<path fill="none" stroke="midnightblue" d="M61.36,-201.7C70.82,-261.76 107.57,-488.19 152,-671.5 172.4,-755.67 203.73,-854.15 217.1,-895.11"/>
<polygon fill="midnightblue" stroke="midnightblue" points="213.86,-896.46 220.3,-904.87 220.51,-894.28 213.86,-896.46"/>
</g>
<!-- Node4 -->
<g id="node4" class="node">
<title>Node4</title>
<g id="a_node4"><a xlink:href="classv8_1_1internal_1_1Parser.html#a6bfc8b0ebdfa68aec60c294450fef3ac" target="_top" xlink:title=" ">
<polygon fill="white" stroke="black" points="159,-631.5 159,-661.5 290,-661.5 290,-631.5 159,-631.5"/>
<text text-anchor="start" x="167" y="-649.5" font-family="Helvetica,sans-Serif" font-size="10.00">v8::internal::Parser</text>
<text text-anchor="middle" x="224.5" y="-638.5" font-family="Helvetica,sans-Serif" font-size="10.00">::DeclareBoundVariable</text>
</a>
</g>
</g>
<!-- Node1&#45;&gt;Node4 -->
<g id="edge3" class="edge">
<title>Node1&#45;&gt;Node4</title>
<path fill="none" stroke="midnightblue" d="M64.38,-201.54C88.25,-268.28 184.7,-537.99 214.61,-621.64"/>
<polygon fill="midnightblue" stroke="midnightblue" points="211.33,-622.87 217.99,-631.11 217.92,-620.51 211.33,-622.87"/>
</g>
<!-- Node32 -->
<g id="node15" class="node">
<title>Node32</title>
<g id="a_node15"><a xlink:href="classv8_1_1internal_1_1VariableProxy.html#aa27eb3c4ffdbb2fe9b3a4a7df51e4915" target="_top" xlink:title=" ">
<polygon fill="white" stroke="red" points="515,-171 515,-190 682,-190 682,-171 515,-171"/>
<text text-anchor="middle" x="598.5" y="-178" font-family="Helvetica,sans-Serif" font-size="10.00">v8::internal::VariableProxy::var</text>
</a>
</g>
</g>
<!-- Node1&#45;&gt;Node32 -->
<g id="edge45" class="edge">
<title>Node1&#45;&gt;Node32</title>
<path fill="none" stroke="midnightblue" d="M79.91,-201.67C97.99,-213.77 125.34,-229.79 152,-236.5 292.98,-271.99 342.56,-278.69 479,-228.5 498.02,-221.5 496.74,-209.31 515,-200.5 520.98,-197.62 527.4,-195.13 533.93,-192.99"/>
<polygon fill="midnightblue" stroke="midnightblue" points="534.97,-196.33 543.54,-190.09 532.95,-189.63 534.97,-196.33"/>
</g>
<!-- Node78 -->
<g id="node27" class="node">
<title>Node78</title>
<g id="a_node27"><a xlink:href="classv8_1_1internal_1_1ZoneList.html#ad7d60470577032878bd35e54b884e4e4" target="_top" xlink:title=" ">
<polygon fill="white" stroke="black" points="164.5,-196.5 164.5,-226.5 284.5,-226.5 284.5,-196.5 164.5,-196.5"/>
<text text-anchor="start" x="172.5" y="-214.5" font-family="Helvetica,sans-Serif" font-size="10.00">v8::internal::ZoneList</text>
<text text-anchor="middle" x="224.5" y="-203.5" font-family="Helvetica,sans-Serif" font-size="10.00">::first</text>
</a>
</g>
</g>
<!-- Node1&#45;&gt;Node78 -->
<g id="edge37" class="edge">
<title>Node1&#45;&gt;Node78</title>
<path fill="none" stroke="midnightblue" d="M116.07,-195.17C128.37,-197.04 141.51,-199.04 154.22,-200.97"/>
<polygon fill="midnightblue" stroke="midnightblue" points="153.88,-204.46 164.29,-202.5 154.93,-197.54 153.88,-204.46"/>
</g>
<!-- Node81 -->
<g id="node30" class="node">
<title>Node81</title>
<g id="a_node30"><a xlink:href="classv8_1_1internal_1_1Parser.html#aea7c3f3fe75c6202291a82f5f99d2d85" target="_top" xlink:title=" ">
<polygon fill="white" stroke="black" points="169.5,-147.5 169.5,-177.5 279.5,-177.5 279.5,-147.5 169.5,-147.5"/>
<text text-anchor="start" x="177.5" y="-165.5" font-family="Helvetica,sans-Serif" font-size="10.00">v8::internal::Parser</text>
<text text-anchor="middle" x="224.5" y="-154.5" font-family="Helvetica,sans-Serif" font-size="10.00">::IgnoreCompletion</text>
</a>
</g>
</g>
<!-- Node1&#45;&gt;Node81 -->
<g id="edge40" class="edge">
<title>Node1&#45;&gt;Node81</title>
<path fill="none" stroke="midnightblue" d="M116.07,-178.17C129.96,-176.15 144.91,-173.97 159.11,-171.89"/>
<polygon fill="midnightblue" stroke="midnightblue" points="159.91,-175.32 169.3,-170.41 158.9,-168.39 159.91,-175.32"/>
</g>
<!-- Node83 -->
<g id="node32" class="node">
<title>Node83</title>
<g id="a_node32"><a xlink:href="classv8_1_1internal_1_1ZoneList.html#aec2a6e24274c38436c23557a80291789" target="_top" xlink:title=" ">
<polygon fill="white" stroke="black" points="164.5,-98.5 164.5,-128.5 284.5,-128.5 284.5,-98.5 164.5,-98.5"/>
<text text-anchor="start" x="172.5" y="-116.5" font-family="Helvetica,sans-Serif" font-size="10.00">v8::internal::ZoneList</text>
<text text-anchor="middle" x="224.5" y="-105.5" font-family="Helvetica,sans-Serif" font-size="10.00">::length</text>
</a>
</g>
</g>
<!-- Node1&#45;&gt;Node83 -->
<g id="edge42" class="edge">
<title>Node1&#45;&gt;Node83</title>
<path fill="none" stroke="midnightblue" d="M84.91,-171.4C103.27,-161.07 128.68,-147.48 152,-137.5 156.36,-135.63 160.92,-133.82 165.53,-132.07"/>
<polygon fill="midnightblue" stroke="midnightblue" points="166.84,-135.32 175.03,-128.59 164.43,-128.74 166.84,-135.32"/>
</g>
<!-- Node84 -->
<g id="node33" class="node">
<title>Node84</title>
<g id="a_node33"><a xlink:href="classv8_1_1internal_1_1Variable.html#a9d6c4bbd9534c7ed21ef7126ddcc8f25" target="_top" xlink:title=" ">
<polygon fill="white" stroke="black" points="158,-49.5 158,-79.5 291,-79.5 291,-49.5 158,-49.5"/>
<text text-anchor="start" x="166" y="-67.5" font-family="Helvetica,sans-Serif" font-size="10.00">v8::internal::Variable</text>
<text text-anchor="middle" x="224.5" y="-56.5" font-family="Helvetica,sans-Serif" font-size="10.00">::set_initializer_position</text>
</a>
</g>
</g>
<!-- Node1&#45;&gt;Node84 -->
<g id="edge43" class="edge">
<title>Node1&#45;&gt;Node84</title>
<path fill="none" stroke="midnightblue" d="M69.57,-171.36C85.24,-149.99 116.6,-111.08 152,-88.5 154.57,-86.86 157.26,-85.33 160.03,-83.88"/>
<polygon fill="midnightblue" stroke="midnightblue" points="161.55,-87.03 169.09,-79.59 158.56,-80.71 161.55,-87.03"/>
</g>
<!-- Node85 -->
<g id="node34" class="node">
<title>Node85</title>
<g id="a_node34"><a xlink:href="classv8_1_1internal_1_1Parser.html#af813e45481d9c870673d8ad585f3170b" target="_top" xlink:title=" ">
<polygon fill="white" stroke="black" points="170,-0.5 170,-30.5 279,-30.5 279,-0.5 170,-0.5"/>
<text text-anchor="start" x="178" y="-18.5" font-family="Helvetica,sans-Serif" font-size="10.00">v8::internal::Parser</text>
<text text-anchor="middle" x="224.5" y="-7.5" font-family="Helvetica,sans-Serif" font-size="10.00">::SetFunctionName</text>
</a>
</g>
</g>
<!-- Node1&#45;&gt;Node85 -->
<g id="edge44" class="edge">
<title>Node1&#45;&gt;Node85</title>
<path fill="none" stroke="midnightblue" d="M64.61,-171.17C76.27,-141.44 105.91,-75.66 152,-39.5 154.76,-37.33 157.73,-35.36 160.83,-33.55"/>
<polygon fill="midnightblue" stroke="midnightblue" points="162.56,-36.6 169.86,-28.92 159.36,-30.37 162.56,-36.6"/>
</g>
<!-- Node3 -->
<g id="node3" class="node">
<title>Node3</title>
<g id="a_node3"><a xlink:href="classv8_1_1internal_1_1ZoneList.html#af06d8992fc6f0bb7ae20f3f96ab6e6b4" target="_top" xlink:title=" ">
<polygon fill="white" stroke="black" points="346,-1123.5 346,-1153.5 466,-1153.5 466,-1123.5 346,-1123.5"/>
<text text-anchor="start" x="354" y="-1141.5" font-family="Helvetica,sans-Serif" font-size="10.00">v8::internal::ZoneList</text>
<text text-anchor="middle" x="406" y="-1130.5" font-family="Helvetica,sans-Serif" font-size="10.00">::ResizeAdd</text>
</a>
</g>
</g>
<!-- Node2&#45;&gt;Node3 -->
<g id="edge2" class="edge">
<title>Node2&#45;&gt;Node3</title>
<path fill="none" stroke="midnightblue" d="M228.27,-924.02C237.73,-954.91 271.58,-1053.56 333,-1108.5 337.33,-1112.38 342.24,-1115.79 347.4,-1118.8"/>
<polygon fill="midnightblue" stroke="midnightblue" points="345.79,-1121.91 356.27,-1123.48 349.06,-1115.72 345.79,-1121.91"/>
</g>
<!-- Node5 -->
<g id="node5" class="node">
<title>Node5</title>
<g id="a_node5"><a xlink:href="classv8_1_1internal_1_1VariableProxy.html#a59cea07955f145b7fe4d6c1ebf369452" target="_top" xlink:title=" ">
<polygon fill="white" stroke="black" points="333,-356.5 333,-386.5 479,-386.5 479,-356.5 333,-356.5"/>
<text text-anchor="start" x="341" y="-374.5" font-family="Helvetica,sans-Serif" font-size="10.00">v8::internal::VariableProxy</text>
<text text-anchor="middle" x="406" y="-363.5" font-family="Helvetica,sans-Serif" font-size="10.00">::BindTo</text>
</a>
</g>
</g>
<!-- Node4&#45;&gt;Node5 -->
<g id="edge4" class="edge">
<title>Node4&#45;&gt;Node5</title>
<path fill="none" stroke="midnightblue" d="M235.41,-631.32C265.13,-585.78 353.74,-450.04 389.64,-395.04"/>
<polygon fill="midnightblue" stroke="midnightblue" points="392.59,-396.92 395.12,-386.63 386.73,-393.09 392.59,-396.92"/>
</g>
<!-- Node33 -->
<g id="node16" class="node">
<title>Node33</title>
<g id="a_node16"><a xlink:href="classv8_1_1internal_1_1Parser.html#a4cc866f818927e0d0f0775c0bc6b3bad" target="_top" xlink:title=" ">
<polygon fill="white" stroke="black" points="352,-835.5 352,-865.5 460,-865.5 460,-835.5 352,-835.5"/>
<text text-anchor="start" x="360" y="-853.5" font-family="Helvetica,sans-Serif" font-size="10.00">v8::internal::Parser</text>
<text text-anchor="middle" x="406" y="-842.5" font-family="Helvetica,sans-Serif" font-size="10.00">::DeclareVariable</text>
</a>
</g>
</g>
<!-- Node4&#45;&gt;Node33 -->
<g id="edge18" class="edge">
<title>Node4&#45;&gt;Node33</title>
<path fill="none" stroke="midnightblue" d="M238.7,-661.5C269.82,-696.87 347.94,-785.65 384.95,-827.72"/>
<polygon fill="midnightblue" stroke="midnightblue" points="382.55,-830.28 391.78,-835.48 387.8,-825.66 382.55,-830.28"/>
</g>
<!-- Node21 -->
<g id="node19" class="node">
<title>Node21</title>
<g id="a_node19"><a xlink:href="flag-definitions_8h.html#adaf90f045d5cd2710edd625b8685472a" target="_top" xlink:title=" ">
<polygon fill="white" stroke="black" points="774,-863 774,-882 818,-882 818,-863 774,-863"/>
<text text-anchor="middle" x="796" y="-870" font-family="Helvetica,sans-Serif" font-size="10.00">mode</text>
</a>
</g>
</g>
<!-- Node4&#45;&gt;Node21 -->
<g id="edge36" class="edge">
<title>Node4&#45;&gt;Node21</title>
<path fill="none" stroke="midnightblue" d="M229.43,-661.56C247.7,-727.9 331.33,-994.3 515,-1075.5 582.88,-1105.51 618.01,-1113.11 682,-1075.5 751.27,-1034.78 781.16,-934.52 791.01,-892.03"/>
<polygon fill="midnightblue" stroke="midnightblue" points="794.46,-892.63 793.19,-882.11 787.62,-891.13 794.46,-892.63"/>
</g>
<!-- Node77 -->
<g id="node25" class="node">
<title>Node77</title>
<g id="a_node25"><a xlink:href="classv8_1_1internal_1_1Variable.html#a9860b1e6e7174d96d6db2613f9ac0768" target="_top" xlink:title=" ">
<polygon fill="white" stroke="black" points="336,-631.5 336,-661.5 476,-661.5 476,-631.5 336,-631.5"/>
<text text-anchor="start" x="344" y="-649.5" font-family="Helvetica,sans-Serif" font-size="10.00">v8::internal::Variable</text>
<text text-anchor="middle" x="406" y="-638.5" font-family="Helvetica,sans-Serif" font-size="10.00">::DefaultInitializationFlag</text>
</a>
</g>
</g>
<!-- Node4&#45;&gt;Node77 -->
<g id="edge31" class="edge">
<title>Node4&#45;&gt;Node77</title>
<path fill="none" stroke="midnightblue" d="M290.05,-646.5C301.56,-646.5 313.66,-646.5 325.53,-646.5"/>
<polygon fill="midnightblue" stroke="midnightblue" points="325.87,-650 335.87,-646.5 325.87,-643 325.87,-650"/>
</g>
<!-- Node6 -->
<g id="node6" class="node">
<title>Node6</title>
<g id="a_node6"><a xlink:href="classv8_1_1internal_1_1VariableProxy.html#a89578154e3606f4d91442d9442209241" target="_top" xlink:title=" ">
<polygon fill="white" stroke="red" points="525.5,-356.5 525.5,-386.5 671.5,-386.5 671.5,-356.5 525.5,-356.5"/>
<text text-anchor="start" x="533.5" y="-374.5" font-family="Helvetica,sans-Serif" font-size="10.00">v8::internal::VariableProxy</text>
<text text-anchor="middle" x="598.5" y="-363.5" font-family="Helvetica,sans-Serif" font-size="10.00">::is_assigned</text>
</a>
</g>
</g>
<!-- Node5&#45;&gt;Node6 -->
<g id="edge5" class="edge">
<title>Node5&#45;&gt;Node6</title>
<path fill="none" stroke="midnightblue" d="M479.02,-371.5C490.87,-371.5 503.24,-371.5 515.32,-371.5"/>
<polygon fill="midnightblue" stroke="midnightblue" points="515.38,-375 525.38,-371.5 515.38,-368 515.38,-375"/>
</g>
<!-- Node8 -->
<g id="node7" class="node">
<title>Node8</title>
<g id="a_node7"><a xlink:href="classv8_1_1internal_1_1VariableProxy.html#af17af683a19179170c25ea8499fbb9d7" target="_top" xlink:title=" ">
<polygon fill="white" stroke="red" points="525.5,-405.5 525.5,-435.5 671.5,-435.5 671.5,-405.5 525.5,-405.5"/>
<text text-anchor="start" x="533.5" y="-423.5" font-family="Helvetica,sans-Serif" font-size="10.00">v8::internal::VariableProxy</text>
<text text-anchor="middle" x="598.5" y="-412.5" font-family="Helvetica,sans-Serif" font-size="10.00">::raw_name</text>
</a>
</g>
</g>
<!-- Node5&#45;&gt;Node8 -->
<g id="edge6" class="edge">
<title>Node5&#45;&gt;Node8</title>
<path fill="none" stroke="midnightblue" d="M465.45,-386.53C485.66,-391.73 508.47,-397.6 529.39,-402.98"/>
<polygon fill="midnightblue" stroke="midnightblue" points="528.6,-406.39 539.16,-405.49 530.35,-399.61 528.6,-406.39"/>
</g>
<!-- Node10 -->
<g id="node8" class="node">
<title>Node10</title>
<g id="a_node8"><a xlink:href="classv8_1_1internal_1_1Variable.html#ad9c3be6f323e55192a136cca2e010b8e" target="_top" xlink:title=" ">
<polygon fill="white" stroke="black" points="737,-525.5 737,-555.5 855,-555.5 855,-525.5 737,-525.5"/>
<text text-anchor="start" x="745" y="-543.5" font-family="Helvetica,sans-Serif" font-size="10.00">v8::internal::Variable</text>
<text text-anchor="middle" x="796" y="-532.5" font-family="Helvetica,sans-Serif" font-size="10.00">::raw_name</text>
</a>
</g>
</g>
<!-- Node5&#45;&gt;Node10 -->
<g id="edge8" class="edge">
<title>Node5&#45;&gt;Node10</title>
<path fill="none" stroke="midnightblue" d="M425.52,-386.54C446.29,-402.83 481.46,-428.72 515,-445.5 584.22,-480.13 669.03,-506.92 727.06,-523.1"/>
<polygon fill="midnightblue" stroke="midnightblue" points="726.28,-526.51 736.85,-525.8 728.14,-519.77 726.28,-526.51"/>
</g>
<!-- Node11 -->
<g id="node9" class="node">
<title>Node11</title>
<g id="a_node9"><a xlink:href="classv8_1_1internal_1_1VariableProxy.html#ac03971ba1afc8a76243c678870cf092c" target="_top" xlink:title=" ">
<polygon fill="white" stroke="red" points="525.5,-258.5 525.5,-288.5 671.5,-288.5 671.5,-258.5 525.5,-258.5"/>
<text text-anchor="start" x="533.5" y="-276.5" font-family="Helvetica,sans-Serif" font-size="10.00">v8::internal::VariableProxy</text>
<text text-anchor="middle" x="598.5" y="-265.5" font-family="Helvetica,sans-Serif" font-size="10.00">::set_is_resolved</text>
</a>
</g>
</g>
<!-- Node5&#45;&gt;Node11 -->
<g id="edge9" class="edge">
<title>Node5&#45;&gt;Node11</title>
<path fill="none" stroke="midnightblue" d="M425.46,-356.47C446.16,-340.24 481.28,-314.55 515,-298.5 519.9,-296.17 525.06,-294 530.32,-291.98"/>
<polygon fill="midnightblue" stroke="midnightblue" points="531.64,-295.23 539.85,-288.54 529.26,-288.65 531.64,-295.23"/>
</g>
<!-- Node15 -->
<g id="node10" class="node">
<title>Node15</title>
<g id="a_node10"><a xlink:href="classv8_1_1internal_1_1Variable.html#a3eb74f3734ff7ee42a7512aff5e34e66" target="_top" xlink:title=" ">
<polygon fill="white" stroke="black" points="539.5,-307.5 539.5,-337.5 657.5,-337.5 657.5,-307.5 539.5,-307.5"/>
<text text-anchor="start" x="547.5" y="-325.5" font-family="Helvetica,sans-Serif" font-size="10.00">v8::internal::Variable</text>
<text text-anchor="middle" x="598.5" y="-314.5" font-family="Helvetica,sans-Serif" font-size="10.00">::set_is_used</text>
</a>
</g>
</g>
<!-- Node5&#45;&gt;Node15 -->
<g id="edge10" class="edge">
<title>Node5&#45;&gt;Node15</title>
<path fill="none" stroke="midnightblue" d="M465.45,-356.47C485.75,-351.24 508.69,-345.34 529.68,-339.94"/>
<polygon fill="midnightblue" stroke="midnightblue" points="530.67,-343.3 539.49,-337.42 528.93,-336.52 530.67,-343.3"/>
</g>
<!-- Node16 -->
<g id="node11" class="node">
<title>Node16</title>
<g id="a_node11"><a xlink:href="classv8_1_1internal_1_1VariableProxy.html#ac8cb651fb9705a200f0d453d1c557ff7" target="_top" xlink:title=" ">
<polygon fill="white" stroke="red" points="525.5,-209.5 525.5,-239.5 671.5,-239.5 671.5,-209.5 525.5,-209.5"/>
<text text-anchor="start" x="533.5" y="-227.5" font-family="Helvetica,sans-Serif" font-size="10.00">v8::internal::VariableProxy</text>
<text text-anchor="middle" x="598.5" y="-216.5" font-family="Helvetica,sans-Serif" font-size="10.00">::set_var</text>
</a>
</g>
</g>
<!-- Node5&#45;&gt;Node16 -->
<g id="edge11" class="edge">
<title>Node5&#45;&gt;Node16</title>
<path fill="none" stroke="midnightblue" d="M416.34,-356.33C432.97,-330.55 470.23,-278.21 515,-249.5 518.31,-247.38 521.8,-245.43 525.42,-243.64"/>
<polygon fill="midnightblue" stroke="midnightblue" points="526.91,-246.81 534.59,-239.51 524.03,-240.42 526.91,-246.81"/>
</g>
<!-- Node18 -->
<g id="node13" class="node">
<title>Node18</title>
<g id="a_node13"><a xlink:href="classv8_1_1internal_1_1Variable.html#a4253b88ff487fb728b76884ef2f7304a" target="_top" xlink:title=" ">
<polygon fill="white" stroke="red" points="539.5,-569.5 539.5,-599.5 657.5,-599.5 657.5,-569.5 539.5,-569.5"/>
<text text-anchor="start" x="547.5" y="-587.5" font-family="Helvetica,sans-Serif" font-size="10.00">v8::internal::Variable</text>
<text text-anchor="middle" x="598.5" y="-576.5" font-family="Helvetica,sans-Serif" font-size="10.00">::SetMaybeAssigned</text>
</a>
</g>
</g>
<!-- Node5&#45;&gt;Node18 -->
<g id="edge13" class="edge">
<title>Node5&#45;&gt;Node18</title>
<path fill="none" stroke="midnightblue" d="M411.92,-386.65C423.91,-421.33 457.96,-507.12 515,-554.5 519.66,-558.37 524.85,-561.76 530.31,-564.73"/>
<polygon fill="midnightblue" stroke="midnightblue" points="529.18,-568.07 539.7,-569.33 532.26,-561.78 529.18,-568.07"/>
</g>
<!-- Node5&#45;&gt;Node32 -->
<g id="edge16" class="edge">
<title>Node5&#45;&gt;Node32</title>
<path fill="none" stroke="midnightblue" d="M418.64,-356.38C433.46,-336.84 459.47,-301.51 479,-269.5 497.01,-239.97 487.76,-221.81 515,-200.5 517.96,-198.18 521.15,-196.13 524.49,-194.31"/>
<polygon fill="midnightblue" stroke="midnightblue" points="526.08,-197.43 533.65,-190.02 523.11,-191.1 526.08,-197.43"/>
</g>
<!-- Node8&#45;&gt;Node10 -->
<g id="edge7" class="edge">
<title>Node8&#45;&gt;Node10</title>
<path fill="none" stroke="midnightblue" d="M624.26,-435.7C659.07,-457.07 722.59,-496.05 761.57,-519.98"/>
<polygon fill="midnightblue" stroke="midnightblue" points="760.09,-523.18 770.44,-525.43 763.75,-517.21 760.09,-523.18"/>
</g>
<!-- Node17 -->
<g id="node12" class="node">
<title>Node17</title>
<g id="a_node12"><a xlink:href="namespacev8_1_1internal.html#aa6b3743bd5d773c552654f2a6c3efa4a" target="_top" xlink:title=" ">
<polygon fill="white" stroke="black" points="736.5,-335 736.5,-354 855.5,-354 855.5,-335 736.5,-335"/>
<text text-anchor="middle" x="796" y="-342" font-family="Helvetica,sans-Serif" font-size="10.00">v8::internal::DCHECK</text>
</a>
</g>
</g>
<!-- Node16&#45;&gt;Node17 -->
<g id="edge12" class="edge">
<title>Node16&#45;&gt;Node17</title>
<path fill="none" stroke="midnightblue" d="M659.7,-239.6C667.4,-242.43 675.03,-245.72 682,-249.5 720.96,-270.62 758.84,-306.55 779.33,-327.65"/>
<polygon fill="midnightblue" stroke="midnightblue" points="776.86,-330.13 786.29,-334.95 781.92,-325.29 776.86,-330.13"/>
</g>
<!-- Node18&#45;&gt;Node18 -->
<g id="edge15" class="edge">
<title>Node18&#45;&gt;Node18</title>
<path fill="none" stroke="midnightblue" d="M565.04,-599.66C556.97,-609.06 568.12,-618 598.5,-618 617.01,-618 628.38,-614.68 632.62,-609.96"/>
<polygon fill="midnightblue" stroke="midnightblue" points="636.09,-609.42 631.96,-599.66 629.1,-609.86 636.09,-609.42"/>
</g>
<!-- Node29 -->
<g id="node14" class="node">
<title>Node29</title>
<g id="a_node14"><a xlink:href="classv8_1_1internal_1_1Variable.html#a23116083f634f5d3c5cad8b44fdd5905" target="_top" xlink:title=" ">
<polygon fill="white" stroke="black" points="737,-615.5 737,-645.5 855,-645.5 855,-615.5 737,-615.5"/>
<text text-anchor="start" x="745" y="-633.5" font-family="Helvetica,sans-Serif" font-size="10.00">v8::internal::Variable</text>
<text text-anchor="middle" x="796" y="-622.5" font-family="Helvetica,sans-Serif" font-size="10.00">::mode</text>
</a>
</g>
</g>
<!-- Node18&#45;&gt;Node29 -->
<g id="edge14" class="edge">
<title>Node18&#45;&gt;Node29</title>
<path fill="none" stroke="midnightblue" d="M657.63,-598.18C679.39,-603.3 704.31,-609.16 726.9,-614.48"/>
<polygon fill="midnightblue" stroke="midnightblue" points="726.22,-617.91 736.76,-616.8 727.83,-611.1 726.22,-617.91"/>
</g>
<!-- Node32&#45;&gt;Node17 -->
<g id="edge17" class="edge">
<title>Node32&#45;&gt;Node17</title>
<path fill="none" stroke="midnightblue" d="M659.6,-190.02C667.49,-192.69 675.18,-196.11 682,-200.5 731.94,-232.63 769.19,-294.58 785.66,-325.7"/>
<polygon fill="midnightblue" stroke="midnightblue" points="782.75,-327.69 790.43,-334.98 788.97,-324.49 782.75,-327.69"/>
</g>
<!-- Node33&#45;&gt;Node17 -->
<g id="edge20" class="edge">
<title>Node33&#45;&gt;Node17</title>
<path fill="none" stroke="midnightblue" d="M413.52,-835.31C426.61,-804.62 456.72,-732.9 479,-671.5 496.69,-622.75 480.85,-599.53 515,-560.5 569.19,-498.56 617.09,-531.1 682,-480.5 726.37,-445.91 765.13,-391.14 783.57,-362.81"/>
<polygon fill="midnightblue" stroke="midnightblue" points="786.58,-364.6 789.02,-354.29 780.68,-360.83 786.58,-364.6"/>
</g>
<!-- Node34 -->
<g id="node17" class="node">
<title>Node34</title>
<g id="a_node17"><a xlink:href="namespacev8_1_1internal_1_1compiler.html#ae72af9053b45630a01be9a6140820b5a" target="_top" xlink:title=" ">
<polygon fill="white" stroke="red" points="538,-811.5 538,-841.5 659,-841.5 659,-811.5 538,-811.5"/>
<text text-anchor="start" x="546" y="-829.5" font-family="Helvetica,sans-Serif" font-size="10.00">v8::internal::compiler</text>
<text text-anchor="middle" x="598.5" y="-818.5" font-family="Helvetica,sans-Serif" font-size="10.00">::begin</text>
</a>
</g>
</g>
<!-- Node33&#45;&gt;Node34 -->
<g id="edge19" class="edge">
<title>Node33&#45;&gt;Node34</title>
<path fill="none" stroke="midnightblue" d="M460.06,-843.81C480.97,-841.18 505.28,-838.12 527.59,-835.31"/>
<polygon fill="midnightblue" stroke="midnightblue" points="528.19,-838.76 537.68,-834.04 527.32,-831.81 528.19,-838.76"/>
</g>
<!-- Node37 -->
<g id="node18" class="node">
<title>Node37</title>
<g id="a_node18"><a xlink:href="classv8_1_1internal_1_1Parser.html#a011a4f16dab50c4473c21deac75b2c9f" target="_top" xlink:title=" ">
<polygon fill="white" stroke="red" points="544.5,-713.5 544.5,-743.5 652.5,-743.5 652.5,-713.5 544.5,-713.5"/>
<text text-anchor="start" x="552.5" y="-731.5" font-family="Helvetica,sans-Serif" font-size="10.00">v8::internal::Parser</text>
<text text-anchor="middle" x="598.5" y="-720.5" font-family="Helvetica,sans-Serif" font-size="10.00">::Declare</text>
</a>
</g>
</g>
<!-- Node33&#45;&gt;Node37 -->
<g id="edge21" class="edge">
<title>Node33&#45;&gt;Node37</title>
<path fill="none" stroke="midnightblue" d="M419.77,-835.46C438.55,-814.24 475.7,-775.64 515,-753.5 521.05,-750.09 527.61,-747.1 534.3,-744.49"/>
<polygon fill="midnightblue" stroke="midnightblue" points="535.94,-747.61 544.15,-740.92 533.56,-741.03 535.94,-747.61"/>
</g>
<!-- Node33&#45;&gt;Node21 -->
<g id="edge29" class="edge">
<title>Node33&#45;&gt;Node21</title>
<path fill="none" stroke="midnightblue" d="M417.47,-865.56C434.67,-888.81 471.38,-932.53 515,-949.5 584.17,-976.41 611.07,-971.37 682,-949.5 720.45,-937.64 757.52,-907.73 778.19,-888.87"/>
<polygon fill="midnightblue" stroke="midnightblue" points="780.6,-891.4 785.51,-882.01 775.82,-886.29 780.6,-891.4"/>
</g>
<!-- Node74 -->
<g id="node20" class="node">
<title>Node74</title>
<g id="a_node20"><a xlink:href="classv8_1_1internal_1_1Declaration.html#a1e1d6dbcf57dd12d38f5b49b4512296c" target="_top" xlink:title=" ">
<polygon fill="white" stroke="black" points="718,-690 718,-709 874,-709 874,-690 718,-690"/>
<text text-anchor="middle" x="796" y="-697" font-family="Helvetica,sans-Serif" font-size="10.00">v8::internal::Declaration::var</text>
</a>
</g>
</g>
<!-- Node33&#45;&gt;Node74 -->
<g id="edge30" class="edge">
<title>Node33&#45;&gt;Node74</title>
<path fill="none" stroke="midnightblue" d="M412.77,-835.34C425.6,-804.07 459.79,-732.95 515,-704.5 588.38,-666.68 687.61,-676.83 746.11,-687.96"/>
<polygon fill="midnightblue" stroke="midnightblue" points="745.7,-691.44 756.19,-689.96 747.06,-684.58 745.7,-691.44"/>
</g>
<!-- Node75 -->
<g id="node21" class="node">
<title>Node75</title>
<g id="a_node21"><a xlink:href="namespacev8_1_1internal_1_1compiler.html#a51dcb90ae077172b12d63271c7e7ba0c" target="_top" xlink:title=" ">
<polygon fill="white" stroke="red" points="526,-1047 526,-1066 671,-1066 671,-1047 526,-1047"/>
<text text-anchor="middle" x="598.5" y="-1054" font-family="Helvetica,sans-Serif" font-size="10.00">v8::internal::compiler::end</text>
</a>
</g>
</g>
<!-- Node33&#45;&gt;Node75 -->
<g id="edge25" class="edge">
<title>Node33&#45;&gt;Node75</title>
<path fill="none" stroke="midnightblue" d="M411.18,-865.67C421.91,-901.63 453.96,-992.36 515,-1037.5 517.52,-1039.36 520.19,-1041.05 522.97,-1042.57"/>
<polygon fill="midnightblue" stroke="midnightblue" points="521.63,-1045.81 532.17,-1046.9 524.62,-1039.47 521.63,-1045.81"/>
</g>
<!-- Node52 -->
<g id="node22" class="node">
<title>Node52</title>
<g id="a_node22"><a xlink:href="classv8_1_1internal_1_1Scope.html#ac05e88ec72cf48f212e9b1eb82033a8d" target="_top" xlink:title=" ">
<polygon fill="white" stroke="black" points="545,-997.5 545,-1027.5 652,-1027.5 652,-997.5 545,-997.5"/>
<text text-anchor="start" x="553" y="-1015.5" font-family="Helvetica,sans-Serif" font-size="10.00">v8::internal::Scope</text>
<text text-anchor="middle" x="598.5" y="-1004.5" font-family="Helvetica,sans-Serif" font-size="10.00">::is_block_scope</text>
</a>
</g>
</g>
<!-- Node33&#45;&gt;Node52 -->
<g id="edge26" class="edge">
<title>Node33&#45;&gt;Node52</title>
<path fill="none" stroke="midnightblue" d="M415.68,-865.81C431.85,-893.01 469.11,-949.95 515,-982.5 521.29,-986.96 528.32,-990.84 535.55,-994.17"/>
<polygon fill="midnightblue" stroke="midnightblue" points="534.21,-997.4 544.78,-998.12 536.96,-990.97 534.21,-997.4"/>
</g>
<!-- Node43 -->
<g id="node23" class="node">
<title>Node43</title>
<g id="a_node23"><a xlink:href="classv8_1_1internal_1_1Scope.html#afbdff34a4b4f7d42fb44c95145812c7b" target="_top" xlink:title=" ">
<polygon fill="white" stroke="black" points="536,-909.5 536,-939.5 661,-939.5 661,-909.5 536,-909.5"/>
<text text-anchor="start" x="544" y="-927.5" font-family="Helvetica,sans-Serif" font-size="10.00">v8::internal::Scope</text>
<text text-anchor="middle" x="598.5" y="-916.5" font-family="Helvetica,sans-Serif" font-size="10.00">::is_declaration_scope</text>
</a>
</g>
</g>
<!-- Node33&#45;&gt;Node43 -->
<g id="edge27" class="edge">
<title>Node33&#45;&gt;Node43</title>
<path fill="none" stroke="midnightblue" d="M436.28,-865.52C457.73,-876.15 487.72,-890.28 515,-900.5 520.46,-902.54 526.17,-904.52 531.94,-906.41"/>
<polygon fill="midnightblue" stroke="midnightblue" points="531.06,-909.8 541.65,-909.49 533.18,-903.13 531.06,-909.8"/>
</g>
<!-- Node58 -->
<g id="node24" class="node">
<title>Node58</title>
<g id="a_node24"><a xlink:href="classv8_1_1internal_1_1Scope.html#ab7550c4649846344771cd0b4951972b8" target="_top" xlink:title=" ">
<polygon fill="white" stroke="black" points="545,-860.5 545,-890.5 652,-890.5 652,-860.5 545,-860.5"/>
<text text-anchor="start" x="553" y="-878.5" font-family="Helvetica,sans-Serif" font-size="10.00">v8::internal::Scope</text>
<text text-anchor="middle" x="598.5" y="-867.5" font-family="Helvetica,sans-Serif" font-size="10.00">::is_with_scope</text>
</a>
</g>
</g>
<!-- Node33&#45;&gt;Node58 -->
<g id="edge28" class="edge">
<title>Node33&#45;&gt;Node58</title>
<path fill="none" stroke="midnightblue" d="M460.06,-857.46C483.18,-860.5 510.46,-864.08 534.59,-867.24"/>
<polygon fill="midnightblue" stroke="midnightblue" points="534.35,-870.74 544.72,-868.57 535.26,-863.8 534.35,-870.74"/>
</g>
<!-- Node37&#45;&gt;Node10 -->
<g id="edge23" class="edge">
<title>Node37&#45;&gt;Node10</title>
<path fill="none" stroke="midnightblue" d="M613.31,-713.42C634.99,-689.94 678.62,-643.5 718,-606.5 734.35,-591.14 753.5,-574.72 768.61,-562.1"/>
<polygon fill="midnightblue" stroke="midnightblue" points="771.08,-564.59 776.54,-555.51 766.61,-559.21 771.08,-564.59"/>
</g>
<!-- Node37&#45;&gt;Node21 -->
<g id="edge22" class="edge">
<title>Node37&#45;&gt;Node21</title>
<path fill="none" stroke="midnightblue" d="M652.75,-740.2C662.88,-743.64 673.08,-748 682,-753.5 725.81,-780.53 764.07,-828.69 782.79,-854.68"/>
<polygon fill="midnightblue" stroke="midnightblue" points="779.95,-856.73 788.58,-862.88 785.67,-852.69 779.95,-856.73"/>
</g>
<!-- Node37&#45;&gt;Node74 -->
<g id="edge24" class="edge">
<title>Node37&#45;&gt;Node74</title>
<path fill="none" stroke="midnightblue" d="M652.66,-720.61C673.64,-717.5 698.11,-713.87 720.78,-710.51"/>
<polygon fill="midnightblue" stroke="midnightblue" points="721.33,-713.97 730.71,-709.04 720.3,-707.04 721.33,-713.97"/>
</g>
<!-- Node77&#45;&gt;Node17 -->
<g id="edge32" class="edge">
<title>Node77&#45;&gt;Node17</title>
<path fill="none" stroke="midnightblue" d="M413.03,-631.18C426.34,-599.39 461.41,-526.08 515,-488.5 577.75,-444.49 614.4,-481.62 682,-445.5 722.54,-423.84 760.37,-384.71 780.31,-362.04"/>
<polygon fill="midnightblue" stroke="midnightblue" points="783.17,-364.09 787.05,-354.23 777.86,-359.52 783.17,-364.09"/>
</g>
<!-- Node77&#45;&gt;Node29 -->
<g id="edge35" class="edge">
<title>Node77&#45;&gt;Node29</title>
<path fill="none" stroke="midnightblue" d="M476.37,-643.64C547.21,-640.72 656.51,-636.21 726.89,-633.31"/>
<polygon fill="midnightblue" stroke="midnightblue" points="727.14,-636.8 736.99,-632.89 726.85,-629.81 727.14,-636.8"/>
</g>
<!-- Node47 -->
<g id="node26" class="node">
<title>Node47</title>
<g id="a_node26"><a xlink:href="namespacev8_1_1internal.html#a31340458faab509e80fe1f606ad61674" target="_top" xlink:title=" ">
<polygon fill="white" stroke="black" points="533.5,-762.5 533.5,-792.5 663.5,-792.5 663.5,-762.5 533.5,-762.5"/>
<text text-anchor="start" x="541.5" y="-780.5" font-family="Helvetica,sans-Serif" font-size="10.00">v8::internal::IsDeclared</text>
<text text-anchor="middle" x="598.5" y="-769.5" font-family="Helvetica,sans-Serif" font-size="10.00">VariableMode</text>
</a>
</g>
</g>
<!-- Node77&#45;&gt;Node47 -->
<g id="edge33" class="edge">
<title>Node77&#45;&gt;Node47</title>
<path fill="none" stroke="midnightblue" d="M418.18,-661.66C436.07,-684.85 473.37,-729 515,-753.5 517.98,-755.26 521.1,-756.89 524.31,-758.41"/>
<polygon fill="midnightblue" stroke="midnightblue" points="522.97,-761.65 533.54,-762.4 525.75,-755.22 522.97,-761.65"/>
</g>
<!-- Node47&#45;&gt;Node21 -->
<g id="edge34" class="edge">
<title>Node47&#45;&gt;Node21</title>
<path fill="none" stroke="midnightblue" d="M656.14,-792.52C664.94,-795.46 673.82,-798.8 682,-802.5 715.82,-817.78 751.75,-841.49 773.79,-857.01"/>
<polygon fill="midnightblue" stroke="midnightblue" points="771.89,-859.95 782.06,-862.91 775.95,-854.26 771.89,-859.95"/>
</g>
<!-- Node79 -->
<g id="node28" class="node">
<title>Node79</title>
<g id="a_node28"><a xlink:href="classv8_1_1internal_1_1ZoneList.html#ae9cba02ea54bb13759dd07145f6b4521" target="_top" xlink:title=" ">
<polygon fill="white" stroke="black" points="338,-200 338,-219 474,-219 474,-200 338,-200"/>
<text text-anchor="middle" x="406" y="-207" font-family="Helvetica,sans-Serif" font-size="10.00">v8::internal::ZoneList::at</text>
</a>
</g>
</g>
<!-- Node78&#45;&gt;Node79 -->
<g id="edge38" class="edge">
<title>Node78&#45;&gt;Node79</title>
<path fill="none" stroke="midnightblue" d="M284.77,-210.84C298.41,-210.69 313.12,-210.52 327.41,-210.36"/>
<polygon fill="midnightblue" stroke="midnightblue" points="327.76,-213.86 337.72,-210.25 327.68,-206.86 327.76,-213.86"/>
</g>
<!-- Node80 -->
<g id="node29" class="node">
<title>Node80</title>
<g id="a_node29"><a xlink:href="classv8_1_1internal_1_1ZoneList.html#a747da341048f1b76f3e57bcb695a8851" target="_top" xlink:title=" ">
<polygon fill="white" stroke="black" points="538.5,-121.5 538.5,-151.5 658.5,-151.5 658.5,-121.5 538.5,-121.5"/>
<text text-anchor="start" x="546.5" y="-139.5" font-family="Helvetica,sans-Serif" font-size="10.00">v8::internal::ZoneList</text>
<text text-anchor="middle" x="598.5" y="-128.5" font-family="Helvetica,sans-Serif" font-size="10.00">::operator[]</text>
</a>
</g>
</g>
<!-- Node79&#45;&gt;Node80 -->
<g id="edge39" class="edge">
<title>Node79&#45;&gt;Node80</title>
<path fill="none" stroke="midnightblue" d="M444.09,-199.96C455.56,-196.41 468.05,-191.9 479,-186.5 496.47,-177.89 497.46,-169.98 515,-161.5 519.68,-159.24 524.61,-157.13 529.63,-155.17"/>
<polygon fill="midnightblue" stroke="midnightblue" points="531.19,-158.33 539.37,-151.6 528.78,-151.76 531.19,-158.33"/>
</g>
<!-- Node82 -->
<g id="node31" class="node">
<title>Node82</title>
<g id="a_node31"><a xlink:href="classv8_1_1internal_1_1Block.html#a4ad529e0011f51cec5bbd417eff324ae" target="_top" xlink:title=" ">
<polygon fill="white" stroke="black" points="353.5,-147.5 353.5,-177.5 458.5,-177.5 458.5,-147.5 353.5,-147.5"/>
<text text-anchor="start" x="361.5" y="-165.5" font-family="Helvetica,sans-Serif" font-size="10.00">v8::internal::Block</text>
<text text-anchor="middle" x="406" y="-154.5" font-family="Helvetica,sans-Serif" font-size="10.00">::statements</text>
</a>
</g>
</g>
<!-- Node81&#45;&gt;Node82 -->
<g id="edge41" class="edge">
<title>Node81&#45;&gt;Node82</title>
<path fill="none" stroke="midnightblue" d="M279.84,-162.5C299.79,-162.5 322.52,-162.5 343.09,-162.5"/>
<polygon fill="midnightblue" stroke="midnightblue" points="343.3,-166 353.3,-162.5 343.3,-159 343.3,-166"/>
</g>
</g>
</svg>
        <g id="navigator" transform="translate(0 0)" fill="#404254">
                <rect fill="#f2f5e9" fill-opacity="0.5" stroke="#606060" stroke-width=".5" x="0" y="0" width="60" height="60"/>
                <use id="zoomplus" xlink:href="#zoomPlus" x="17" y="9" onmousedown="handleZoom(evt,'in')"/>
                <use id="zoomminus" xlink:href="#zoomMin" x="42" y="9" onmousedown="handleZoom(evt,'out')"/>
                <use id="reset" xlink:href="#resetDef" x="30" y="36" onmousedown="handleReset()"/>
                <g id="arrowUp" xlink:href="#dirArrow" transform="translate(30 24)" onmousedown="handlePan(0,-1)">
                  <use xlink:href="#rim" fill="#404040">
                        <set attributeName="fill" to="#808080" begin="arrowUp.mouseover" end="arrowUp.mouseout"/>
                  </use>
                  <path fill="none" stroke="white" stroke-width="1.5" d="M0,-3.0v7 M-2.5,-0.5L0,-3.0L2.5,-0.5"/>
                </g>
                <g id="arrowRight" xlink:href="#dirArrow" transform="rotate(90) translate(36 -43)" onmousedown="handlePan(1,0)">
                  <use xlink:href="#rim" fill="#404040">
                        <set attributeName="fill" to="#808080" begin="arrowRight.mouseover" end="arrowRight.mouseout"/>
                  </use>
                  <path fill="none" stroke="white" stroke-width="1.5" d="M0,-3.0v7 M-2.5,-0.5L0,-3.0L2.5,-0.5"/>
                </g>
                <g id="arrowDown" xlink:href="#dirArrow" transform="rotate(180) translate(-30 -48)" onmousedown="handlePan(0,1)">
                  <use xlink:href="#rim" fill="#404040">
                        <set attributeName="fill" to="#808080" begin="arrowDown.mouseover" end="arrowDown.mouseout"/>
                  </use>
                  <path fill="none" stroke="white" stroke-width="1.5" d="M0,-3.0v7 M-2.5,-0.5L0,-3.0L2.5,-0.5"/>
                </g>
                <g id="arrowLeft" xlink:href="#dirArrow" transform="rotate(270) translate(-36 17)" onmousedown="handlePan(-1,0)">
                  <use xlink:href="#rim" fill="#404040">
                        <set attributeName="fill" to="#808080" begin="arrowLeft.mouseover" end="arrowLeft.mouseout"/>
                  </use>
                  <path fill="none" stroke="white" stroke-width="1.5" d="M0,-3.0v7 M-2.5,-0.5L0,-3.0L2.5,-0.5"/>
                </g>
        </g>
        <svg viewBox="0 0 15 15" width="100%" height="30px" preserveAspectRatio="xMaxYMin meet">
         <g id="arrow_out" transform="scale(0.3 0.3)">
          <a xlink:href="classv8_1_1internal_1_1Parser_a4d329ba181fd60c293465bd75cc069ea_cgraph_org.svg" target="_base">
           <rect id="button" ry="5" rx="5" y="6" x="6" height="38" width="38"
                fill="#f2f5e9" fill-opacity="0.5" stroke="#606060" stroke-width="1.0"/>
           <path id="arrow"
             d="M 11.500037,31.436501 C 11.940474,20.09759 22.043105,11.32322 32.158766,21.979434 L 37.068811,17.246167 C 37.068811,17.246167 37.088388,32 37.088388,32 L 22.160133,31.978069 C 22.160133,31.978069 26.997745,27.140456 26.997745,27.140456 C 18.528582,18.264221 13.291696,25.230495 11.500037,31.436501 z"
             style="fill:#404040;"/>
          </a>
         </g>
        </svg>
</svg>
