<?xml version="1.0" encoding="UTF-8" standalone="no"?>
<!DOCTYPE svg PUBLIC "-//W3C//DTD SVG 1.1//EN"
 "http://www.w3.org/Graphics/SVG/1.1/DTD/svg11.dtd">
<!-- Generated by graphviz version 2.43.0 (0)
 -->
<!-- Title: v8::internal::compiler::CsaLoadElimination::HalfState::Lookup Pages: 1 -->
<svg width="623pt" height="159pt"
 viewBox="0.00 0.00 623.00 159.00" xmlns="http://www.w3.org/2000/svg" xmlns:xlink="http://www.w3.org/1999/xlink">
<g id="graph0" class="graph" transform="scale(1 1) rotate(0) translate(4 155)">
<title>v8::internal::compiler::CsaLoadElimination::HalfState::Lookup</title>
<polygon fill="white" stroke="transparent" points="-4,4 -4,-155 619,-155 619,4 -4,4"/>
<!-- Node1 -->
<g id="node1" class="node">
<title>Node1</title>
<g id="a_node1"><a xlink:title=" ">
<polygon fill="#bfbfbf" stroke="black" points="490,-49.5 490,-90.5 615,-90.5 615,-49.5 490,-49.5"/>
<text text-anchor="start" x="498" y="-78.5" font-family="Helvetica,sans-Serif" font-size="10.00">v8::internal::compiler</text>
<text text-anchor="start" x="498" y="-67.5" font-family="Helvetica,sans-Serif" font-size="10.00">::CsaLoadElimination::</text>
<text text-anchor="middle" x="552.5" y="-56.5" font-family="Helvetica,sans-Serif" font-size="10.00">HalfState::Lookup</text>
</a>
</g>
</g>
<!-- Node2 -->
<g id="node2" class="node">
<title>Node2</title>
<g id="a_node2"><a xlink:href="classv8_1_1internal_1_1compiler_1_1CsaLoadElimination.html#ae992fc4180b479a10c6270d76e287d6b" target="_top" xlink:title=" ">
<polygon fill="white" stroke="black" points="329,-103.5 329,-144.5 454,-144.5 454,-103.5 329,-103.5"/>
<text text-anchor="start" x="337" y="-132.5" font-family="Helvetica,sans-Serif" font-size="10.00">v8::internal::compiler</text>
<text text-anchor="start" x="337" y="-121.5" font-family="Helvetica,sans-Serif" font-size="10.00">::CsaLoadElimination::</text>
<text text-anchor="middle" x="391.5" y="-110.5" font-family="Helvetica,sans-Serif" font-size="10.00">ComputeLoopState</text>
</a>
</g>
</g>
<!-- Node1&#45;&gt;Node2 -->
<g id="edge1" class="edge">
<title>Node1&#45;&gt;Node2</title>
<path fill="none" stroke="midnightblue" d="M481.19,-93.88C471.75,-97.08 462.14,-100.35 452.9,-103.49"/>
<polygon fill="midnightblue" stroke="midnightblue" points="482.59,-97.1 490.94,-90.57 480.34,-90.47 482.59,-97.1"/>
</g>
<!-- Node5 -->
<g id="node5" class="node">
<title>Node5</title>
<g id="a_node5"><a xlink:href="classv8_1_1internal_1_1compiler_1_1CsaLoadElimination.html#a248d528b1e59bb60082be1db274d4298" target="_top" xlink:title=" ">
<polygon fill="white" stroke="black" points="161,-49.5 161,-90.5 293,-90.5 293,-49.5 161,-49.5"/>
<text text-anchor="start" x="169" y="-78.5" font-family="Helvetica,sans-Serif" font-size="10.00">v8::internal::compiler</text>
<text text-anchor="start" x="169" y="-67.5" font-family="Helvetica,sans-Serif" font-size="10.00">::CsaLoadElimination::</text>
<text text-anchor="middle" x="227" y="-56.5" font-family="Helvetica,sans-Serif" font-size="10.00">ReduceLoadFromObject</text>
</a>
</g>
</g>
<!-- Node1&#45;&gt;Node5 -->
<g id="edge4" class="edge">
<title>Node1&#45;&gt;Node5</title>
<path fill="none" stroke="midnightblue" d="M479.73,-70C423.98,-70 347.3,-70 293.27,-70"/>
<polygon fill="midnightblue" stroke="midnightblue" points="479.89,-73.5 489.89,-70 479.89,-66.5 479.89,-73.5"/>
</g>
<!-- Node6 -->
<g id="node6" class="node">
<title>Node6</title>
<g id="a_node6"><a xlink:href="classv8_1_1internal_1_1compiler_1_1CsaLoadElimination.html#a62f1ac19ead0a4415e3fe34c4ab54fac" target="_top" xlink:title=" ">
<polygon fill="white" stroke="black" points="329,-0.5 329,-41.5 454,-41.5 454,-0.5 329,-0.5"/>
<text text-anchor="start" x="337" y="-29.5" font-family="Helvetica,sans-Serif" font-size="10.00">v8::internal::compiler</text>
<text text-anchor="start" x="337" y="-18.5" font-family="Helvetica,sans-Serif" font-size="10.00">::CsaLoadElimination::</text>
<text text-anchor="middle" x="391.5" y="-7.5" font-family="Helvetica,sans-Serif" font-size="10.00">ReduceStoreToObject</text>
</a>
</g>
</g>
<!-- Node1&#45;&gt;Node6 -->
<g id="edge6" class="edge">
<title>Node1&#45;&gt;Node6</title>
<path fill="none" stroke="midnightblue" d="M479.96,-47.95C471.38,-45.31 462.68,-42.63 454.26,-40.03"/>
<polygon fill="midnightblue" stroke="midnightblue" points="478.98,-51.31 489.57,-50.92 481.05,-44.63 478.98,-51.31"/>
</g>
<!-- Node3 -->
<g id="node3" class="node">
<title>Node3</title>
<g id="a_node3"><a xlink:href="classv8_1_1internal_1_1compiler_1_1CsaLoadElimination.html#a943739c8ca7cd42ad63648d2e360336c" target="_top" xlink:title=" ">
<polygon fill="white" stroke="black" points="164.5,-109.5 164.5,-150.5 289.5,-150.5 289.5,-109.5 164.5,-109.5"/>
<text text-anchor="start" x="172.5" y="-138.5" font-family="Helvetica,sans-Serif" font-size="10.00">v8::internal::compiler</text>
<text text-anchor="start" x="172.5" y="-127.5" font-family="Helvetica,sans-Serif" font-size="10.00">::CsaLoadElimination::</text>
<text text-anchor="middle" x="227" y="-116.5" font-family="Helvetica,sans-Serif" font-size="10.00">ReduceEffectPhi</text>
</a>
</g>
</g>
<!-- Node2&#45;&gt;Node3 -->
<g id="edge2" class="edge">
<title>Node2&#45;&gt;Node3</title>
<path fill="none" stroke="midnightblue" d="M318.34,-126.66C308.79,-127.02 299.07,-127.38 289.73,-127.72"/>
<polygon fill="midnightblue" stroke="midnightblue" points="318.74,-130.15 328.6,-126.29 318.48,-123.16 318.74,-130.15"/>
</g>
<!-- Node4 -->
<g id="node4" class="node">
<title>Node4</title>
<g id="a_node4"><a xlink:href="classv8_1_1internal_1_1compiler_1_1CsaLoadElimination.html#a99d57bf20d717ee3fc4013c6b2cbb76a" target="_top" xlink:title=" ">
<polygon fill="white" stroke="black" points="0,-49.5 0,-90.5 125,-90.5 125,-49.5 0,-49.5"/>
<text text-anchor="start" x="8" y="-78.5" font-family="Helvetica,sans-Serif" font-size="10.00">v8::internal::compiler</text>
<text text-anchor="start" x="8" y="-67.5" font-family="Helvetica,sans-Serif" font-size="10.00">::CsaLoadElimination::</text>
<text text-anchor="middle" x="62.5" y="-56.5" font-family="Helvetica,sans-Serif" font-size="10.00">Reduce</text>
</a>
</g>
</g>
<!-- Node3&#45;&gt;Node4 -->
<g id="edge3" class="edge">
<title>Node3&#45;&gt;Node4</title>
<path fill="none" stroke="midnightblue" d="M160.69,-105.89C146.96,-100.82 132.59,-95.51 119.25,-90.58"/>
<polygon fill="midnightblue" stroke="midnightblue" points="159.48,-109.17 170.08,-109.35 161.91,-102.6 159.48,-109.17"/>
</g>
<!-- Node5&#45;&gt;Node4 -->
<g id="edge5" class="edge">
<title>Node5&#45;&gt;Node4</title>
<path fill="none" stroke="midnightblue" d="M150.57,-70C142.09,-70 133.52,-70 125.24,-70"/>
<polygon fill="midnightblue" stroke="midnightblue" points="150.84,-73.5 160.84,-70 150.84,-66.5 150.84,-73.5"/>
</g>
<!-- Node6&#45;&gt;Node4 -->
<g id="edge7" class="edge">
<title>Node6&#45;&gt;Node4</title>
<path fill="none" stroke="midnightblue" d="M318.57,-22.97C273.07,-25.2 213.19,-29.93 161,-40 148.57,-42.4 135.47,-45.8 123.06,-49.45"/>
<polygon fill="midnightblue" stroke="midnightblue" points="318.81,-26.46 328.64,-22.51 318.49,-19.47 318.81,-26.46"/>
</g>
</g>
</svg>
