<?xml version="1.0" encoding="UTF-8" standalone="no"?>
<!DOCTYPE svg PUBLIC "-//W3C//DTD SVG 1.1//EN"
 "http://www.w3.org/Graphics/SVG/1.1/DTD/svg11.dtd">
<!-- Generated by graphviz version 2.43.0 (0)
 -->
<!-- Title: v8::internal::Decoder::DecodeRvvIVX Pages: 1 -->
<svg width="1015pt" height="1489pt"
 viewBox="0.00 0.00 1015.00 1488.62" xmlns="http://www.w3.org/2000/svg" xmlns:xlink="http://www.w3.org/1999/xlink">
<g id="graph0" class="graph" transform="scale(1 1) rotate(0) translate(4 1484.62)">
<title>v8::internal::Decoder::DecodeRvvIVX</title>
<polygon fill="white" stroke="transparent" points="-4,4 -4,-1484.62 1011,-1484.62 1011,4 -4,4"/>
<!-- Node1 -->
<g id="node1" class="node">
<title>Node1</title>
<g id="a_node1"><a xlink:title=" ">
<polygon fill="#bfbfbf" stroke="black" points="0,-780.85 0,-810.85 119,-810.85 119,-780.85 0,-780.85"/>
<text text-anchor="start" x="8" y="-798.85" font-family="Helvetica,sans-Serif" font-size="10.00">v8::internal::Decoder</text>
<text text-anchor="middle" x="59.5" y="-787.85" font-family="Helvetica,sans-Serif" font-size="10.00">::DecodeRvvIVX</text>
</a>
</g>
</g>
<!-- Node2 -->
<g id="node2" class="node">
<title>Node2</title>
<g id="a_node2"><a xlink:href="classv8_1_1internal_1_1Decoder.html#a17a0d7121191cbdb7a6708b7201e2b8e" target="_top" xlink:title=" ">
<polygon fill="white" stroke="black" points="155,-780.85 155,-810.85 274,-810.85 274,-780.85 155,-780.85"/>
<text text-anchor="start" x="163" y="-798.85" font-family="Helvetica,sans-Serif" font-size="10.00">v8::internal::Decoder</text>
<text text-anchor="middle" x="214.5" y="-787.85" font-family="Helvetica,sans-Serif" font-size="10.00">::Format</text>
</a>
</g>
</g>
<!-- Node1&#45;&gt;Node2 -->
<g id="edge1" class="edge">
<title>Node1&#45;&gt;Node2</title>
<path fill="none" stroke="midnightblue" d="M119.22,-795.85C127.54,-795.85 136.17,-795.85 144.67,-795.85"/>
<polygon fill="midnightblue" stroke="midnightblue" points="144.94,-799.35 154.94,-795.85 144.94,-792.35 144.94,-799.35"/>
</g>
<!-- Node22 -->
<g id="node6" class="node">
<title>Node22</title>
<g id="a_node6"><a xlink:href="classv8_1_1internal_1_1InstructionGetters.html#ae99aa2682087fb1905e350e4e725ae42" target="_top" xlink:title=" ">
<polygon fill="white" stroke="black" points="711,-984.85 711,-1014.85 841,-1014.85 841,-984.85 711,-984.85"/>
<text text-anchor="start" x="719" y="-1002.85" font-family="Helvetica,sans-Serif" font-size="10.00">v8::internal::Instruction</text>
<text text-anchor="middle" x="776" y="-991.85" font-family="Helvetica,sans-Serif" font-size="10.00">Getters::Rs1Value</text>
</a>
</g>
</g>
<!-- Node1&#45;&gt;Node22 -->
<g id="edge50" class="edge">
<title>Node1&#45;&gt;Node22</title>
<path fill="none" stroke="midnightblue" d="M66.26,-811C95.65,-885.87 237.06,-1217.58 478,-1335.85 552.21,-1372.28 597,-1384.28 664,-1335.85 766.37,-1261.86 775.9,-1089.98 775.69,-1025.18"/>
<polygon fill="midnightblue" stroke="midnightblue" points="779.19,-1025.01 775.57,-1015.05 772.19,-1025.09 779.19,-1025.01"/>
</g>
<!-- Node18 -->
<g id="node7" class="node">
<title>Node18</title>
<g id="a_node7"><a xlink:href="namespacev8_1_1internal.html#acdec713c25068019f935e35976f5b666" target="_top" xlink:title=" ">
<polygon fill="white" stroke="black" points="700,-860.35 700,-879.35 852,-879.35 852,-860.35 700,-860.35"/>
<text text-anchor="middle" x="776" y="-867.35" font-family="Helvetica,sans-Serif" font-size="10.00">v8::internal::UNREACHABLE</text>
</a>
</g>
</g>
<!-- Node1&#45;&gt;Node18 -->
<g id="edge52" class="edge">
<title>Node1&#45;&gt;Node18</title>
<path fill="none" stroke="midnightblue" d="M64.01,-780.77C84.77,-695.42 200.24,-271.25 478,-115.85 514.07,-95.67 633.45,-88.01 664,-115.85 696,-145.02 693.64,-461.02 700,-503.85 719.82,-637.43 757.01,-795.8 770.2,-850.3"/>
<polygon fill="midnightblue" stroke="midnightblue" points="766.87,-851.42 772.64,-860.31 773.67,-849.76 766.87,-851.42"/>
</g>
<!-- Node90 -->
<g id="node25" class="node">
<title>Node90</title>
<g id="a_node25"><a xlink:href="classv8_1_1internal_1_1InstructionGetters.html#a61934a62739e1f82d8e82f6833058ad0" target="_top" xlink:title=" ">
<polygon fill="white" stroke="black" points="711,-1421.85 711,-1451.85 841,-1451.85 841,-1421.85 711,-1421.85"/>
<text text-anchor="start" x="719" y="-1439.85" font-family="Helvetica,sans-Serif" font-size="10.00">v8::internal::Instruction</text>
<text text-anchor="middle" x="776" y="-1428.85" font-family="Helvetica,sans-Serif" font-size="10.00">Getters::RvvVM</text>
</a>
</g>
</g>
<!-- Node1&#45;&gt;Node90 -->
<g id="edge51" class="edge">
<title>Node1&#45;&gt;Node90</title>
<path fill="none" stroke="midnightblue" d="M63.07,-811C71.24,-856.4 99.35,-994.36 155,-1094.85 260.27,-1284.93 279.31,-1373.89 478,-1461.85 558.9,-1497.66 664.22,-1474.49 725.25,-1455.14"/>
<polygon fill="midnightblue" stroke="midnightblue" points="726.6,-1458.38 735.02,-1451.96 724.43,-1451.73 726.6,-1458.38"/>
</g>
<!-- Node21 -->
<g id="node30" class="node">
<title>Node21</title>
<g id="a_node30"><a xlink:href="classv8_1_1internal_1_1Instruction.html#a073ca49bc4fd2394c1e75829f49625d1" target="_top" xlink:title=" ">
<polygon fill="white" stroke="black" points="711,-192.85 711,-222.85 841,-222.85 841,-192.85 711,-192.85"/>
<text text-anchor="start" x="719" y="-210.85" font-family="Helvetica,sans-Serif" font-size="10.00">v8::internal::Instruction</text>
<text text-anchor="middle" x="776" y="-199.85" font-family="Helvetica,sans-Serif" font-size="10.00">::InstructionBits</text>
</a>
</g>
</g>
<!-- Node1&#45;&gt;Node21 -->
<g id="edge49" class="edge">
<title>Node1&#45;&gt;Node21</title>
<path fill="none" stroke="midnightblue" d="M60.49,-780.47C61.03,-717.79 68.91,-476.87 155,-305.85 200.83,-214.82 231.49,-201.84 310,-136.85 436.32,-32.29 520.31,46.17 664,-32.85 722.73,-65.15 754.76,-143.1 767.85,-183.17"/>
<polygon fill="midnightblue" stroke="midnightblue" points="764.52,-184.22 770.85,-192.72 771.19,-182.13 764.52,-184.22"/>
</g>
<!-- Node3 -->
<g id="node3" class="node">
<title>Node3</title>
<g id="a_node3"><a xlink:href="classv8_1_1internal_1_1Decoder.html#ac90932687e3f3f5ddb5d43903169bbb9" target="_top" xlink:title=" ">
<polygon fill="white" stroke="black" points="316.5,-731.85 316.5,-761.85 435.5,-761.85 435.5,-731.85 316.5,-731.85"/>
<text text-anchor="start" x="324.5" y="-749.85" font-family="Helvetica,sans-Serif" font-size="10.00">v8::internal::Decoder</text>
<text text-anchor="middle" x="376" y="-738.85" font-family="Helvetica,sans-Serif" font-size="10.00">::FormatOption</text>
</a>
</g>
</g>
<!-- Node2&#45;&gt;Node3 -->
<g id="edge2" class="edge">
<title>Node2&#45;&gt;Node3</title>
<path fill="none" stroke="midnightblue" d="M264.66,-780.75C280.95,-775.74 299.26,-770.12 316.21,-764.91"/>
<polygon fill="midnightblue" stroke="midnightblue" points="317.47,-768.18 326.01,-761.9 315.42,-761.49 317.47,-768.18"/>
</g>
<!-- Node113 -->
<g id="node35" class="node">
<title>Node113</title>
<g id="a_node35"><a xlink:href="classv8_1_1internal_1_1InstructionBase.html#a47a1ffa72e9c40b10e9de37fc479b831" target="_top" xlink:title=" ">
<polygon fill="white" stroke="black" points="310,-780.85 310,-810.85 442,-810.85 442,-780.85 310,-780.85"/>
<text text-anchor="start" x="318" y="-798.85" font-family="Helvetica,sans-Serif" font-size="10.00">v8::internal::Instruction</text>
<text text-anchor="middle" x="376" y="-787.85" font-family="Helvetica,sans-Serif" font-size="10.00">Base::IsShortInstruction</text>
</a>
</g>
</g>
<!-- Node2&#45;&gt;Node113 -->
<g id="edge47" class="edge">
<title>Node2&#45;&gt;Node113</title>
<path fill="none" stroke="midnightblue" d="M274.44,-795.85C282.64,-795.85 291.16,-795.85 299.61,-795.85"/>
<polygon fill="midnightblue" stroke="midnightblue" points="299.86,-799.35 309.86,-795.85 299.86,-792.35 299.86,-799.35"/>
</g>
<!-- Node10 -->
<g id="node36" class="node">
<title>Node10</title>
<g id="a_node36"><a xlink:href="classv8_1_1base_1_1Vector.html#a1eb4ed5d322a219428bdb9f9a2cb6708" target="_top" xlink:title=" ">
<polygon fill="white" stroke="black" points="310.5,-830.35 310.5,-849.35 441.5,-849.35 441.5,-830.35 310.5,-830.35"/>
<text text-anchor="middle" x="376" y="-837.35" font-family="Helvetica,sans-Serif" font-size="10.00">v8::base::Vector::length</text>
</a>
</g>
</g>
<!-- Node2&#45;&gt;Node10 -->
<g id="edge48" class="edge">
<title>Node2&#45;&gt;Node10</title>
<path fill="none" stroke="midnightblue" d="M269.94,-810.87C289.68,-816.31 311.72,-822.4 330.5,-827.58"/>
<polygon fill="midnightblue" stroke="midnightblue" points="329.71,-830.99 340.28,-830.27 331.57,-824.24 329.71,-830.99"/>
</g>
<!-- Node4 -->
<g id="node4" class="node">
<title>Node4</title>
<g id="a_node4"><a xlink:href="namespacev8_1_1internal.html#aa6b3743bd5d773c552654f2a6c3efa4a" target="_top" xlink:title=" ">
<polygon fill="white" stroke="black" points="888,-1053.35 888,-1072.35 1007,-1072.35 1007,-1053.35 888,-1053.35"/>
<text text-anchor="middle" x="947.5" y="-1060.35" font-family="Helvetica,sans-Serif" font-size="10.00">v8::internal::DCHECK</text>
</a>
</g>
</g>
<!-- Node3&#45;&gt;Node4 -->
<g id="edge3" class="edge">
<title>Node3&#45;&gt;Node4</title>
<path fill="none" stroke="midnightblue" d="M432.77,-761.87C436.27,-764.41 439.41,-767.38 442,-770.85 517.17,-871.74 386.25,-1249.76 478,-1335.85 632.02,-1480.37 875.91,-1161.9 933.85,-1080.96"/>
<polygon fill="midnightblue" stroke="midnightblue" points="936.78,-1082.88 939.71,-1072.7 931.07,-1078.83 936.78,-1082.88"/>
</g>
<!-- Node5 -->
<g id="node5" class="node">
<title>Node5</title>
<g id="a_node5"><a xlink:href="classv8_1_1internal_1_1Decoder.html#a786f756b33d0baa0896c337987166db5" target="_top" xlink:title=" ">
<polygon fill="white" stroke="red" points="478,-1001.85 478,-1031.85 664,-1031.85 664,-1001.85 478,-1001.85"/>
<text text-anchor="start" x="486" y="-1019.85" font-family="Helvetica,sans-Serif" font-size="10.00">v8::internal::Decoder</text>
<text text-anchor="middle" x="571" y="-1008.85" font-family="Helvetica,sans-Serif" font-size="10.00">::FormatFPURegisterOrRoundMode</text>
</a>
</g>
</g>
<!-- Node3&#45;&gt;Node5 -->
<g id="edge4" class="edge">
<title>Node3&#45;&gt;Node5</title>
<path fill="none" stroke="midnightblue" d="M432.1,-761.95C435.8,-764.47 439.17,-767.42 442,-770.85 505.29,-847.65 411.38,-917.92 478,-991.85 479.18,-993.16 480.42,-994.41 481.72,-995.59"/>
<polygon fill="midnightblue" stroke="midnightblue" points="479.62,-998.39 489.68,-1001.69 483.88,-992.83 479.62,-998.39"/>
</g>
<!-- Node3&#45;&gt;Node18 -->
<g id="edge46" class="edge">
<title>Node3&#45;&gt;Node18</title>
<path fill="none" stroke="midnightblue" d="M377.1,-731.72C378.01,-647.28 387.12,-235.45 478,-158.85 541.21,-105.57 603.46,-102.56 664,-158.85 704.3,-196.33 688.92,-598.94 700,-652.85 715.49,-728.19 750.24,-813.24 766.41,-850.56"/>
<polygon fill="midnightblue" stroke="midnightblue" points="763.4,-852.41 770.62,-860.16 769.81,-849.59 763.4,-852.41"/>
</g>
<!-- Node25 -->
<g id="node8" class="node">
<title>Node25</title>
<g id="a_node8"><a xlink:href="classv8_1_1internal_1_1Decoder.html#ad20e6bba5311b07b8506b45bd465d37f" target="_top" xlink:title=" ">
<polygon fill="white" stroke="red" points="511.5,-952.85 511.5,-982.85 630.5,-982.85 630.5,-952.85 511.5,-952.85"/>
<text text-anchor="start" x="519.5" y="-970.85" font-family="Helvetica,sans-Serif" font-size="10.00">v8::internal::Decoder</text>
<text text-anchor="middle" x="571" y="-959.85" font-family="Helvetica,sans-Serif" font-size="10.00">::FormatRegister</text>
</a>
</g>
</g>
<!-- Node3&#45;&gt;Node25 -->
<g id="edge9" class="edge">
<title>Node3&#45;&gt;Node25</title>
<path fill="none" stroke="midnightblue" d="M431.63,-761.89C435.48,-764.43 439.01,-767.39 442,-770.85 493.01,-829.99 424.43,-886.02 478,-942.85 484.57,-949.82 492.88,-954.92 501.79,-958.63"/>
<polygon fill="midnightblue" stroke="midnightblue" points="500.67,-961.95 511.26,-962.02 503.03,-955.36 500.67,-961.95"/>
</g>
<!-- Node29 -->
<g id="node9" class="node">
<title>Node29</title>
<g id="a_node9"><a xlink:href="classv8_1_1internal_1_1Decoder.html#ac46ca77baaf39a10fb0f1741e834dfc1" target="_top" xlink:title=" ">
<polygon fill="white" stroke="red" points="511.5,-42.85 511.5,-72.85 630.5,-72.85 630.5,-42.85 511.5,-42.85"/>
<text text-anchor="start" x="519.5" y="-60.85" font-family="Helvetica,sans-Serif" font-size="10.00">v8::internal::Decoder</text>
<text text-anchor="middle" x="571" y="-49.85" font-family="Helvetica,sans-Serif" font-size="10.00">::FormatRvcImm</text>
</a>
</g>
</g>
<!-- Node3&#45;&gt;Node29 -->
<g id="edge12" class="edge">
<title>Node3&#45;&gt;Node29</title>
<path fill="none" stroke="midnightblue" d="M377.92,-731.71C383.31,-647.09 412.73,-232.85 478,-125.85 490.32,-105.65 511.1,-89.53 529.79,-78.06"/>
<polygon fill="midnightblue" stroke="midnightblue" points="531.62,-81.04 538.48,-72.96 528.08,-75 531.62,-81.04"/>
</g>
<!-- Node53 -->
<g id="node10" class="node">
<title>Node53</title>
<g id="a_node10"><a xlink:href="classv8_1_1internal_1_1Decoder.html#a2b3eacd1dc9119a152ce4ddaf609ee84" target="_top" xlink:title=" ">
<polygon fill="white" stroke="red" points="511.5,-1050.85 511.5,-1080.85 630.5,-1080.85 630.5,-1050.85 511.5,-1050.85"/>
<text text-anchor="start" x="519.5" y="-1068.85" font-family="Helvetica,sans-Serif" font-size="10.00">v8::internal::Decoder</text>
<text text-anchor="middle" x="571" y="-1057.85" font-family="Helvetica,sans-Serif" font-size="10.00">::FormatRvcRegister</text>
</a>
</g>
</g>
<!-- Node3&#45;&gt;Node53 -->
<g id="edge15" class="edge">
<title>Node3&#45;&gt;Node53</title>
<path fill="none" stroke="midnightblue" d="M432.21,-761.86C435.88,-764.4 439.22,-767.38 442,-770.85 517.63,-865.38 398.26,-949.76 478,-1040.85 484.39,-1048.15 492.68,-1053.42 501.67,-1057.21"/>
<polygon fill="midnightblue" stroke="midnightblue" points="500.63,-1060.55 511.23,-1060.63 503,-1053.96 500.63,-1060.55"/>
</g>
<!-- Node59 -->
<g id="node11" class="node">
<title>Node59</title>
<g id="a_node11"><a xlink:href="classv8_1_1internal_1_1Decoder.html#aaac87e9bd015fbb069bbe07ea1f90b36" target="_top" xlink:title=" ">
<polygon fill="white" stroke="red" points="510.5,-805.85 510.5,-835.85 631.5,-835.85 631.5,-805.85 510.5,-805.85"/>
<text text-anchor="start" x="518.5" y="-823.85" font-family="Helvetica,sans-Serif" font-size="10.00">v8::internal::Decoder</text>
<text text-anchor="middle" x="571" y="-812.85" font-family="Helvetica,sans-Serif" font-size="10.00">::PrintAcquireRelease</text>
</a>
</g>
</g>
<!-- Node3&#45;&gt;Node59 -->
<g id="edge18" class="edge">
<title>Node3&#45;&gt;Node59</title>
<path fill="none" stroke="midnightblue" d="M422.4,-761.93C429.09,-764.63 435.81,-767.63 442,-770.85 459.28,-779.85 460.34,-787.62 478,-795.85 485.07,-799.14 492.65,-802.07 500.32,-804.66"/>
<polygon fill="midnightblue" stroke="midnightblue" points="499.45,-808.06 510.04,-807.75 501.57,-801.39 499.45,-808.06"/>
</g>
<!-- Node62 -->
<g id="node12" class="node">
<title>Node62</title>
<g id="a_node12"><a xlink:href="classv8_1_1internal_1_1Decoder.html#a16ef11d5374d0acc94afdd9065682251" target="_top" xlink:title=" ">
<polygon fill="white" stroke="red" points="511.5,-756.85 511.5,-786.85 630.5,-786.85 630.5,-756.85 511.5,-756.85"/>
<text text-anchor="start" x="519.5" y="-774.85" font-family="Helvetica,sans-Serif" font-size="10.00">v8::internal::Decoder</text>
<text text-anchor="middle" x="571" y="-763.85" font-family="Helvetica,sans-Serif" font-size="10.00">::PrintBranchOffset</text>
</a>
</g>
</g>
<!-- Node3&#45;&gt;Node62 -->
<g id="edge19" class="edge">
<title>Node3&#45;&gt;Node62</title>
<path fill="none" stroke="midnightblue" d="M435.69,-754.45C456.37,-757.13 479.8,-760.17 501.24,-762.94"/>
<polygon fill="midnightblue" stroke="midnightblue" points="500.89,-766.43 511.25,-764.24 501.79,-759.49 500.89,-766.43"/>
</g>
<!-- Node65 -->
<g id="node13" class="node">
<title>Node65</title>
<g id="a_node13"><a xlink:href="classv8_1_1internal_1_1Decoder.html#a6f309bfa9060a52ab908cbe3f0975d5f" target="_top" xlink:title=" ">
<polygon fill="white" stroke="red" points="511.5,-854.85 511.5,-884.85 630.5,-884.85 630.5,-854.85 511.5,-854.85"/>
<text text-anchor="start" x="519.5" y="-872.85" font-family="Helvetica,sans-Serif" font-size="10.00">v8::internal::Decoder</text>
<text text-anchor="middle" x="571" y="-861.85" font-family="Helvetica,sans-Serif" font-size="10.00">::PrintCSRReg</text>
</a>
</g>
</g>
<!-- Node3&#45;&gt;Node65 -->
<g id="edge20" class="edge">
<title>Node3&#45;&gt;Node65</title>
<path fill="none" stroke="midnightblue" d="M429.47,-762.02C433.99,-764.53 438.25,-767.46 442,-770.85 469.11,-795.4 449.83,-821.52 478,-844.85 485.02,-850.67 493.28,-855.14 501.92,-858.57"/>
<polygon fill="midnightblue" stroke="midnightblue" points="500.81,-861.89 511.4,-861.9 503.13,-855.28 500.81,-861.89"/>
</g>
<!-- Node67 -->
<g id="node14" class="node">
<title>Node67</title>
<g id="a_node14"><a xlink:href="classv8_1_1internal_1_1Decoder.html#ade999649defda9782d2616686cc41e08" target="_top" xlink:title=" ">
<polygon fill="white" stroke="red" points="511.5,-707.85 511.5,-737.85 630.5,-737.85 630.5,-707.85 511.5,-707.85"/>
<text text-anchor="start" x="519.5" y="-725.85" font-family="Helvetica,sans-Serif" font-size="10.00">v8::internal::Decoder</text>
<text text-anchor="middle" x="571" y="-714.85" font-family="Helvetica,sans-Serif" font-size="10.00">::PrintImm12</text>
</a>
</g>
</g>
<!-- Node3&#45;&gt;Node67 -->
<g id="edge22" class="edge">
<title>Node3&#45;&gt;Node67</title>
<path fill="none" stroke="midnightblue" d="M435.69,-739.55C456.37,-736.98 479.8,-734.07 501.24,-731.4"/>
<polygon fill="midnightblue" stroke="midnightblue" points="501.76,-734.86 511.25,-730.16 500.9,-727.92 501.76,-734.86"/>
</g>
<!-- Node69 -->
<g id="node15" class="node">
<title>Node69</title>
<g id="a_node15"><a xlink:href="classv8_1_1internal_1_1Decoder.html#a48993cb1c7a6e279cee5ea0aa5ce089e" target="_top" xlink:title=" ">
<polygon fill="white" stroke="red" points="511.5,-658.85 511.5,-688.85 630.5,-688.85 630.5,-658.85 511.5,-658.85"/>
<text text-anchor="start" x="519.5" y="-676.85" font-family="Helvetica,sans-Serif" font-size="10.00">v8::internal::Decoder</text>
<text text-anchor="middle" x="571" y="-665.85" font-family="Helvetica,sans-Serif" font-size="10.00">::PrintImm12X</text>
</a>
</g>
</g>
<!-- Node3&#45;&gt;Node69 -->
<g id="edge23" class="edge">
<title>Node3&#45;&gt;Node69</title>
<path fill="none" stroke="midnightblue" d="M404.23,-731.83C424.2,-721.26 452.22,-707.36 478,-697.85 485.49,-695.09 493.43,-692.51 501.38,-690.15"/>
<polygon fill="midnightblue" stroke="midnightblue" points="502.41,-693.5 511.06,-687.38 500.49,-686.77 502.41,-693.5"/>
</g>
<!-- Node70 -->
<g id="node16" class="node">
<title>Node70</title>
<g id="a_node16"><a xlink:href="classv8_1_1internal_1_1Decoder.html#ade50b45963b9ec2e10562e2fb8ca9a9c" target="_top" xlink:title=" ">
<polygon fill="white" stroke="red" points="511.5,-609.85 511.5,-639.85 630.5,-639.85 630.5,-609.85 511.5,-609.85"/>
<text text-anchor="start" x="519.5" y="-627.85" font-family="Helvetica,sans-Serif" font-size="10.00">v8::internal::Decoder</text>
<text text-anchor="middle" x="571" y="-616.85" font-family="Helvetica,sans-Serif" font-size="10.00">::PrintImm20J</text>
</a>
</g>
</g>
<!-- Node3&#45;&gt;Node70 -->
<g id="edge24" class="edge">
<title>Node3&#45;&gt;Node70</title>
<path fill="none" stroke="midnightblue" d="M388.29,-731.77C405.31,-710.11 439.68,-670.43 478,-648.85 485.34,-644.72 493.41,-641.28 501.63,-638.42"/>
<polygon fill="midnightblue" stroke="midnightblue" points="502.85,-641.71 511.3,-635.33 500.71,-635.04 502.85,-641.71"/>
</g>
<!-- Node72 -->
<g id="node17" class="node">
<title>Node72</title>
<g id="a_node17"><a xlink:href="classv8_1_1internal_1_1Decoder.html#aa070e2ec7d20110e68ad2d9b73aa6ffb" target="_top" xlink:title=" ">
<polygon fill="white" stroke="red" points="511.5,-560.85 511.5,-590.85 630.5,-590.85 630.5,-560.85 511.5,-560.85"/>
<text text-anchor="start" x="519.5" y="-578.85" font-family="Helvetica,sans-Serif" font-size="10.00">v8::internal::Decoder</text>
<text text-anchor="middle" x="571" y="-567.85" font-family="Helvetica,sans-Serif" font-size="10.00">::PrintImm20U</text>
</a>
</g>
</g>
<!-- Node3&#45;&gt;Node72 -->
<g id="edge25" class="edge">
<title>Node3&#45;&gt;Node72</title>
<path fill="none" stroke="midnightblue" d="M383.05,-731.7C395.85,-701.67 428.58,-634.54 478,-599.85 485.17,-594.82 493.31,-590.85 501.72,-587.7"/>
<polygon fill="midnightblue" stroke="midnightblue" points="502.93,-590.99 511.3,-584.5 500.7,-584.35 502.93,-590.99"/>
</g>
<!-- Node74 -->
<g id="node18" class="node">
<title>Node74</title>
<g id="a_node18"><a xlink:href="classv8_1_1internal_1_1Decoder.html#af1c09964583ec2dcacafa0830b2f0984" target="_top" xlink:title=" ">
<polygon fill="white" stroke="red" points="511.5,-511.85 511.5,-541.85 630.5,-541.85 630.5,-511.85 511.5,-511.85"/>
<text text-anchor="start" x="519.5" y="-529.85" font-family="Helvetica,sans-Serif" font-size="10.00">v8::internal::Decoder</text>
<text text-anchor="middle" x="571" y="-518.85" font-family="Helvetica,sans-Serif" font-size="10.00">::PrintMemoryOrder</text>
</a>
</g>
</g>
<!-- Node3&#45;&gt;Node74 -->
<g id="edge26" class="edge">
<title>Node3&#45;&gt;Node74</title>
<path fill="none" stroke="midnightblue" d="M380.33,-731.64C389.24,-694.67 417.19,-599.53 478,-550.85 484.93,-545.3 493,-541.03 501.44,-537.74"/>
<polygon fill="midnightblue" stroke="midnightblue" points="502.76,-540.98 511.08,-534.42 500.48,-534.36 502.76,-540.98"/>
</g>
<!-- Node76 -->
<g id="node19" class="node">
<title>Node76</title>
<g id="a_node19"><a xlink:href="classv8_1_1internal_1_1Decoder.html#a5371f0d55535a8b7a53b1a2595322f1c" target="_top" xlink:title=" ">
<polygon fill="white" stroke="red" points="511.5,-462.85 511.5,-492.85 630.5,-492.85 630.5,-462.85 511.5,-462.85"/>
<text text-anchor="start" x="519.5" y="-480.85" font-family="Helvetica,sans-Serif" font-size="10.00">v8::internal::Decoder</text>
<text text-anchor="middle" x="571" y="-469.85" font-family="Helvetica,sans-Serif" font-size="10.00">::PrintRvcShamt</text>
</a>
</g>
</g>
<!-- Node3&#45;&gt;Node76 -->
<g id="edge27" class="edge">
<title>Node3&#45;&gt;Node76</title>
<path fill="none" stroke="midnightblue" d="M378.6,-731.81C383.98,-688.95 405.38,-565.22 478,-501.85 484.85,-495.87 493.01,-491.36 501.6,-487.95"/>
<polygon fill="midnightblue" stroke="midnightblue" points="502.75,-491.26 511.05,-484.67 500.46,-484.64 502.75,-491.26"/>
</g>
<!-- Node78 -->
<g id="node20" class="node">
<title>Node78</title>
<g id="a_node20"><a xlink:href="classv8_1_1internal_1_1Decoder.html#a960544170e5cfee816e612f6b5ac40d1" target="_top" xlink:title=" ">
<polygon fill="white" stroke="red" points="511.5,-413.85 511.5,-443.85 630.5,-443.85 630.5,-413.85 511.5,-413.85"/>
<text text-anchor="start" x="519.5" y="-431.85" font-family="Helvetica,sans-Serif" font-size="10.00">v8::internal::Decoder</text>
<text text-anchor="middle" x="571" y="-420.85" font-family="Helvetica,sans-Serif" font-size="10.00">::PrintRvvLMUL</text>
</a>
</g>
</g>
<!-- Node3&#45;&gt;Node78 -->
<g id="edge28" class="edge">
<title>Node3&#45;&gt;Node78</title>
<path fill="none" stroke="midnightblue" d="M377.44,-731.71C379.69,-683.35 393.5,-531.18 478,-452.85 484.76,-446.59 492.94,-441.91 501.61,-438.44"/>
<polygon fill="midnightblue" stroke="midnightblue" points="502.86,-441.7 511.16,-435.11 500.56,-435.09 502.86,-441.7"/>
</g>
<!-- Node82 -->
<g id="node21" class="node">
<title>Node82</title>
<g id="a_node21"><a xlink:href="classv8_1_1internal_1_1Decoder.html#a8b671cc97763c1fd6624561a2409c8f2" target="_top" xlink:title=" ">
<polygon fill="white" stroke="red" points="511.5,-364.85 511.5,-394.85 630.5,-394.85 630.5,-364.85 511.5,-364.85"/>
<text text-anchor="start" x="519.5" y="-382.85" font-family="Helvetica,sans-Serif" font-size="10.00">v8::internal::Decoder</text>
<text text-anchor="middle" x="571" y="-371.85" font-family="Helvetica,sans-Serif" font-size="10.00">::PrintRvvSEW</text>
</a>
</g>
</g>
<!-- Node3&#45;&gt;Node82 -->
<g id="edge29" class="edge">
<title>Node3&#45;&gt;Node82</title>
<path fill="none" stroke="midnightblue" d="M376.58,-731.55C375.98,-678.03 381.5,-497.39 478,-403.85 484.7,-397.35 492.93,-392.56 501.69,-389.02"/>
<polygon fill="midnightblue" stroke="midnightblue" points="503.05,-392.26 511.35,-385.67 500.75,-385.64 503.05,-392.26"/>
</g>
<!-- Node85 -->
<g id="node22" class="node">
<title>Node85</title>
<g id="a_node22"><a xlink:href="classv8_1_1internal_1_1Decoder.html#aaf6efb0a53cfbaadc82951e218b5b87c" target="_top" xlink:title=" ">
<polygon fill="white" stroke="red" points="511.5,-315.85 511.5,-345.85 630.5,-345.85 630.5,-315.85 511.5,-315.85"/>
<text text-anchor="start" x="519.5" y="-333.85" font-family="Helvetica,sans-Serif" font-size="10.00">v8::internal::Decoder</text>
<text text-anchor="middle" x="571" y="-322.85" font-family="Helvetica,sans-Serif" font-size="10.00">::PrintRvvSimm5</text>
</a>
</g>
</g>
<!-- Node3&#45;&gt;Node85 -->
<g id="edge30" class="edge">
<title>Node3&#45;&gt;Node85</title>
<path fill="none" stroke="midnightblue" d="M378.84,-731.75C387.1,-666.61 422.67,-410.34 478,-354.85 484.59,-348.24 492.76,-343.38 501.48,-339.82"/>
<polygon fill="midnightblue" stroke="midnightblue" points="502.84,-343.05 511.12,-336.44 500.53,-336.44 502.84,-343.05"/>
</g>
<!-- Node87 -->
<g id="node23" class="node">
<title>Node87</title>
<g id="a_node23"><a xlink:href="classv8_1_1internal_1_1Decoder.html#aecae3abfcf8f9caf258708da688f9829" target="_top" xlink:title=" ">
<polygon fill="white" stroke="red" points="511.5,-266.85 511.5,-296.85 630.5,-296.85 630.5,-266.85 511.5,-266.85"/>
<text text-anchor="start" x="519.5" y="-284.85" font-family="Helvetica,sans-Serif" font-size="10.00">v8::internal::Decoder</text>
<text text-anchor="middle" x="571" y="-273.85" font-family="Helvetica,sans-Serif" font-size="10.00">::PrintRvvUimm5</text>
</a>
</g>
</g>
<!-- Node3&#45;&gt;Node87 -->
<g id="edge31" class="edge">
<title>Node3&#45;&gt;Node87</title>
<path fill="none" stroke="midnightblue" d="M378.38,-731.81C385.08,-661.87 416.46,-369.26 478,-305.85 484.65,-298.99 493,-294.01 501.94,-290.4"/>
<polygon fill="midnightblue" stroke="midnightblue" points="503.12,-293.7 511.42,-287.12 500.83,-287.09 503.12,-293.7"/>
</g>
<!-- Node89 -->
<g id="node24" class="node">
<title>Node89</title>
<g id="a_node24"><a xlink:href="classv8_1_1internal_1_1Decoder.html#af0c80c5b9299103fe4ee6e2b2384c2f5" target="_top" xlink:title=" ">
<polygon fill="white" stroke="red" points="511.5,-1421.85 511.5,-1451.85 630.5,-1451.85 630.5,-1421.85 511.5,-1421.85"/>
<text text-anchor="start" x="519.5" y="-1439.85" font-family="Helvetica,sans-Serif" font-size="10.00">v8::internal::Decoder</text>
<text text-anchor="middle" x="571" y="-1428.85" font-family="Helvetica,sans-Serif" font-size="10.00">::PrintRvvVm</text>
</a>
</g>
</g>
<!-- Node3&#45;&gt;Node89 -->
<g id="edge32" class="edge">
<title>Node3&#45;&gt;Node89</title>
<path fill="none" stroke="midnightblue" d="M432.79,-761.86C436.28,-764.4 439.42,-767.37 442,-770.85 521.36,-877.74 414.5,-1251.84 478,-1368.85 489.12,-1389.35 509.39,-1405.34 528.08,-1416.66"/>
<polygon fill="midnightblue" stroke="midnightblue" points="526.39,-1419.72 536.8,-1421.68 529.88,-1413.66 526.39,-1419.72"/>
</g>
<!-- Node91 -->
<g id="node26" class="node">
<title>Node91</title>
<g id="a_node26"><a xlink:href="classv8_1_1internal_1_1Decoder.html#afe904eac9a9b106559a74f8d6b13eb5f" target="_top" xlink:title=" ">
<polygon fill="white" stroke="red" points="511.5,-217.85 511.5,-247.85 630.5,-247.85 630.5,-217.85 511.5,-217.85"/>
<text text-anchor="start" x="519.5" y="-235.85" font-family="Helvetica,sans-Serif" font-size="10.00">v8::internal::Decoder</text>
<text text-anchor="middle" x="571" y="-224.85" font-family="Helvetica,sans-Serif" font-size="10.00">::PrintShamt</text>
</a>
</g>
</g>
<!-- Node3&#45;&gt;Node91 -->
<g id="edge35" class="edge">
<title>Node3&#45;&gt;Node91</title>
<path fill="none" stroke="midnightblue" d="M378.02,-731.67C383.33,-656.87 410.27,-328.19 478,-256.85 484.58,-249.92 492.89,-244.9 501.81,-241.27"/>
<polygon fill="midnightblue" stroke="midnightblue" points="502.98,-244.57 511.28,-237.98 500.68,-237.96 502.98,-244.57"/>
</g>
<!-- Node94 -->
<g id="node27" class="node">
<title>Node94</title>
<g id="a_node27"><a xlink:href="classv8_1_1internal_1_1Decoder.html#a346e228e67bd71d30477f4d05a611149" target="_top" xlink:title=" ">
<polygon fill="white" stroke="red" points="511.5,-168.85 511.5,-198.85 630.5,-198.85 630.5,-168.85 511.5,-168.85"/>
<text text-anchor="start" x="519.5" y="-186.85" font-family="Helvetica,sans-Serif" font-size="10.00">v8::internal::Decoder</text>
<text text-anchor="middle" x="571" y="-175.85" font-family="Helvetica,sans-Serif" font-size="10.00">::PrintShamt32</text>
</a>
</g>
</g>
<!-- Node3&#45;&gt;Node94 -->
<g id="edge36" class="edge">
<title>Node3&#45;&gt;Node94</title>
<path fill="none" stroke="midnightblue" d="M377.7,-731.77C381.69,-652.76 403.99,-287.23 478,-207.85 484.52,-200.86 492.79,-195.81 501.69,-192.17"/>
<polygon fill="midnightblue" stroke="midnightblue" points="502.86,-195.47 511.15,-188.87 500.56,-188.86 502.86,-195.47"/>
</g>
<!-- Node96 -->
<g id="node28" class="node">
<title>Node96</title>
<g id="a_node28"><a xlink:href="classv8_1_1internal_1_1Decoder.html#ac575dd60bdbfb96aa8c5d52b5a5a761d" target="_top" xlink:title=" ">
<polygon fill="white" stroke="red" points="511.5,-1295.85 511.5,-1325.85 630.5,-1325.85 630.5,-1295.85 511.5,-1295.85"/>
<text text-anchor="start" x="519.5" y="-1313.85" font-family="Helvetica,sans-Serif" font-size="10.00">v8::internal::Decoder</text>
<text text-anchor="middle" x="571" y="-1302.85" font-family="Helvetica,sans-Serif" font-size="10.00">::PrintStoreOffset</text>
</a>
</g>
</g>
<!-- Node3&#45;&gt;Node96 -->
<g id="edge37" class="edge">
<title>Node3&#45;&gt;Node96</title>
<path fill="none" stroke="midnightblue" d="M432.75,-761.88C436.25,-764.42 439.4,-767.39 442,-770.85 510.83,-862.63 405.18,-1197.2 478,-1285.85 484.24,-1293.44 492.53,-1298.86 501.59,-1302.7"/>
<polygon fill="midnightblue" stroke="midnightblue" points="500.66,-1306.09 511.25,-1306.16 503.02,-1299.49 500.66,-1306.09"/>
</g>
<!-- Node98 -->
<g id="node29" class="node">
<title>Node98</title>
<g id="a_node29"><a xlink:href="classv8_1_1internal_1_1Decoder.html#a9967ab9e0dabbdfcce3f7415bb97f2f7" target="_top" xlink:title=" ">
<polygon fill="white" stroke="red" points="511.5,-903.85 511.5,-933.85 630.5,-933.85 630.5,-903.85 511.5,-903.85"/>
<text text-anchor="start" x="519.5" y="-921.85" font-family="Helvetica,sans-Serif" font-size="10.00">v8::internal::Decoder</text>
<text text-anchor="middle" x="571" y="-910.85" font-family="Helvetica,sans-Serif" font-size="10.00">::PrintTarget</text>
</a>
</g>
</g>
<!-- Node3&#45;&gt;Node98 -->
<g id="edge38" class="edge">
<title>Node3&#45;&gt;Node98</title>
<path fill="none" stroke="midnightblue" d="M431.03,-761.96C435.06,-764.48 438.8,-767.42 442,-770.85 480.86,-812.49 437.33,-853.97 478,-893.85 484.68,-900.4 492.9,-905.28 501.65,-908.91"/>
<polygon fill="midnightblue" stroke="midnightblue" points="500.71,-912.29 511.31,-912.36 503.07,-905.7 500.71,-912.29"/>
</g>
<!-- Node104 -->
<g id="node31" class="node">
<title>Node104</title>
<g id="a_node31"><a xlink:href="classv8_1_1internal_1_1Decoder.html#aa435f1997bb0ad430411e917d3542f8e" target="_top" xlink:title=" ">
<polygon fill="white" stroke="red" points="511.5,-1099.85 511.5,-1129.85 630.5,-1129.85 630.5,-1099.85 511.5,-1099.85"/>
<text text-anchor="start" x="519.5" y="-1117.85" font-family="Helvetica,sans-Serif" font-size="10.00">v8::internal::Decoder</text>
<text text-anchor="middle" x="571" y="-1106.85" font-family="Helvetica,sans-Serif" font-size="10.00">::PrintUimm</text>
</a>
</g>
</g>
<!-- Node3&#45;&gt;Node104 -->
<g id="edge41" class="edge">
<title>Node3&#45;&gt;Node104</title>
<path fill="none" stroke="midnightblue" d="M432.59,-762.01C436.12,-764.52 439.33,-767.44 442,-770.85 530.01,-883.15 385.11,-981.55 478,-1089.85 484.32,-1097.22 492.57,-1102.52 501.53,-1106.32"/>
<polygon fill="midnightblue" stroke="midnightblue" points="500.49,-1109.66 511.08,-1109.76 502.86,-1103.08 500.49,-1109.66"/>
</g>
<!-- Node105 -->
<g id="node32" class="node">
<title>Node105</title>
<g id="a_node32"><a xlink:href="classv8_1_1internal_1_1Decoder.html#a23a51fa7306d2915500f7e9ae72c48bf" target="_top" xlink:title=" ">
<polygon fill="white" stroke="red" points="511.5,-1246.85 511.5,-1276.85 630.5,-1276.85 630.5,-1246.85 511.5,-1246.85"/>
<text text-anchor="start" x="519.5" y="-1264.85" font-family="Helvetica,sans-Serif" font-size="10.00">v8::internal::Decoder</text>
<text text-anchor="middle" x="571" y="-1253.85" font-family="Helvetica,sans-Serif" font-size="10.00">::PrintVd</text>
</a>
</g>
</g>
<!-- Node3&#45;&gt;Node105 -->
<g id="edge43" class="edge">
<title>Node3&#45;&gt;Node105</title>
<path fill="none" stroke="midnightblue" d="M432.72,-761.91C436.23,-764.44 439.39,-767.4 442,-770.85 504.62,-853.72 411.78,-1156.83 478,-1236.85 484.27,-1244.42 492.57,-1249.83 501.64,-1253.66"/>
<polygon fill="midnightblue" stroke="midnightblue" points="500.71,-1257.05 511.31,-1257.11 503.07,-1250.45 500.71,-1257.05"/>
</g>
<!-- Node109 -->
<g id="node33" class="node">
<title>Node109</title>
<g id="a_node33"><a xlink:href="classv8_1_1internal_1_1Decoder.html#a9ae83826403c53b6c35b09b5312468ac" target="_top" xlink:title=" ">
<polygon fill="white" stroke="red" points="511.5,-1197.85 511.5,-1227.85 630.5,-1227.85 630.5,-1197.85 511.5,-1197.85"/>
<text text-anchor="start" x="519.5" y="-1215.85" font-family="Helvetica,sans-Serif" font-size="10.00">v8::internal::Decoder</text>
<text text-anchor="middle" x="571" y="-1204.85" font-family="Helvetica,sans-Serif" font-size="10.00">::PrintVs1</text>
</a>
</g>
</g>
<!-- Node3&#45;&gt;Node109 -->
<g id="edge44" class="edge">
<title>Node3&#45;&gt;Node109</title>
<path fill="none" stroke="midnightblue" d="M432.69,-761.93C436.2,-764.46 439.37,-767.41 442,-770.85 498.41,-844.81 418.38,-1116.46 478,-1187.85 484.3,-1195.39 492.63,-1200.78 501.7,-1204.61"/>
<polygon fill="midnightblue" stroke="midnightblue" points="500.78,-1208 511.37,-1208.06 503.13,-1201.4 500.78,-1208"/>
</g>
<!-- Node111 -->
<g id="node34" class="node">
<title>Node111</title>
<g id="a_node34"><a xlink:href="classv8_1_1internal_1_1Decoder.html#a229f12b202a90a02322d5ec4db6fa3d5" target="_top" xlink:title=" ">
<polygon fill="white" stroke="red" points="511.5,-1148.85 511.5,-1178.85 630.5,-1178.85 630.5,-1148.85 511.5,-1148.85"/>
<text text-anchor="start" x="519.5" y="-1166.85" font-family="Helvetica,sans-Serif" font-size="10.00">v8::internal::Decoder</text>
<text text-anchor="middle" x="571" y="-1155.85" font-family="Helvetica,sans-Serif" font-size="10.00">::PrintVs2</text>
</a>
</g>
</g>
<!-- Node3&#45;&gt;Node111 -->
<g id="edge45" class="edge">
<title>Node3&#45;&gt;Node111</title>
<path fill="none" stroke="midnightblue" d="M432.64,-761.96C436.17,-764.48 439.35,-767.42 442,-770.85 492.2,-835.9 424.97,-1076.08 478,-1138.85 484.34,-1146.36 492.69,-1151.73 501.78,-1155.55"/>
<polygon fill="midnightblue" stroke="midnightblue" points="500.86,-1158.94 511.45,-1158.99 503.21,-1152.34 500.86,-1158.94"/>
</g>
<!-- Node5&#45;&gt;Node4 -->
<g id="edge5" class="edge">
<title>Node5&#45;&gt;Node4</title>
<path fill="none" stroke="midnightblue" d="M664.09,-1028.16C730.12,-1036.27 817.64,-1047.02 877.65,-1054.39"/>
<polygon fill="midnightblue" stroke="midnightblue" points="877.43,-1057.89 887.78,-1055.64 878.28,-1050.95 877.43,-1057.89"/>
</g>
<!-- Node5&#45;&gt;Node22 -->
<g id="edge6" class="edge">
<title>Node5&#45;&gt;Node22</title>
<path fill="none" stroke="midnightblue" d="M664.29,-1009.12C676.44,-1008.1 688.77,-1007.07 700.57,-1006.08"/>
<polygon fill="midnightblue" stroke="midnightblue" points="701.12,-1009.55 710.79,-1005.23 700.54,-1002.57 701.12,-1009.55"/>
</g>
<!-- Node5&#45;&gt;Node18 -->
<g id="edge8" class="edge">
<title>Node5&#45;&gt;Node18</title>
<path fill="none" stroke="midnightblue" d="M643.52,-1001.82C650.68,-999.03 657.65,-995.74 664,-991.85 708.36,-964.72 745.64,-914.69 763.56,-887.9"/>
<polygon fill="midnightblue" stroke="midnightblue" points="766.53,-889.76 769.07,-879.47 760.67,-885.93 766.53,-889.76"/>
</g>
<!-- Node22&#45;&gt;Node4 -->
<g id="edge7" class="edge">
<title>Node22&#45;&gt;Node4</title>
<path fill="none" stroke="midnightblue" d="M817.6,-1014.94C846.12,-1025.54 883.9,-1039.58 911.18,-1049.72"/>
<polygon fill="midnightblue" stroke="midnightblue" points="910.13,-1053.06 920.72,-1053.27 912.56,-1046.5 910.13,-1053.06"/>
</g>
<!-- Node25&#45;&gt;Node22 -->
<g id="edge10" class="edge">
<title>Node25&#45;&gt;Node22</title>
<path fill="none" stroke="midnightblue" d="M630.72,-977.11C652.54,-980.55 677.6,-984.5 700.65,-988.13"/>
<polygon fill="midnightblue" stroke="midnightblue" points="700.31,-991.62 710.73,-989.72 701.4,-984.7 700.31,-991.62"/>
</g>
<!-- Node25&#45;&gt;Node18 -->
<g id="edge11" class="edge">
<title>Node25&#45;&gt;Node18</title>
<path fill="none" stroke="midnightblue" d="M630.89,-954.83C642.11,-951.52 653.59,-947.54 664,-942.85 698.19,-927.44 733.73,-902.15 755.11,-885.76"/>
<polygon fill="midnightblue" stroke="midnightblue" points="757.36,-888.44 763.1,-879.53 753.06,-882.92 757.36,-888.44"/>
</g>
<!-- Node29&#45;&gt;Node4 -->
<g id="edge13" class="edge">
<title>Node29&#45;&gt;Node4</title>
<path fill="none" stroke="midnightblue" d="M630.62,-67.29C643.03,-71.74 655.07,-78.27 664,-87.85 708.98,-136.11 682.62,-168.21 700,-231.85 789.17,-558.27 911.87,-952.39 940.4,-1043.44"/>
<polygon fill="midnightblue" stroke="midnightblue" points="937.07,-1044.53 943.41,-1053.02 943.75,-1042.43 937.07,-1044.53"/>
</g>
<!-- Node29&#45;&gt;Node18 -->
<g id="edge14" class="edge">
<title>Node29&#45;&gt;Node18</title>
<path fill="none" stroke="midnightblue" d="M630.51,-65.67C643.39,-70.15 655.66,-77.1 664,-87.85 702.55,-137.56 687.61,-591.18 700,-652.85 715.14,-728.26 750.07,-813.27 766.35,-850.57"/>
<polygon fill="midnightblue" stroke="midnightblue" points="763.35,-852.43 770.59,-860.17 769.75,-849.6 763.35,-852.43"/>
</g>
<!-- Node53&#45;&gt;Node4 -->
<g id="edge16" class="edge">
<title>Node53&#45;&gt;Node4</title>
<path fill="none" stroke="midnightblue" d="M630.52,-1065.38C697.38,-1064.85 806.68,-1063.97 877.6,-1063.4"/>
<polygon fill="midnightblue" stroke="midnightblue" points="877.81,-1066.9 887.78,-1063.32 877.75,-1059.9 877.81,-1066.9"/>
</g>
<!-- Node53&#45;&gt;Node18 -->
<g id="edge17" class="edge">
<title>Node53&#45;&gt;Node18</title>
<path fill="none" stroke="midnightblue" d="M630.81,-1057.42C642.64,-1053.73 654.39,-1048.44 664,-1040.85 690.22,-1020.14 682.26,-1003.16 700,-974.85 719.9,-943.1 745.81,-908.02 761.38,-887.51"/>
<polygon fill="midnightblue" stroke="midnightblue" points="764.27,-889.49 767.56,-879.42 758.71,-885.24 764.27,-889.49"/>
</g>
<!-- Node65&#45;&gt;Node18 -->
<g id="edge21" class="edge">
<title>Node65&#45;&gt;Node18</title>
<path fill="none" stroke="midnightblue" d="M630.72,-869.85C649.06,-869.85 669.69,-869.85 689.49,-869.85"/>
<polygon fill="midnightblue" stroke="midnightblue" points="689.75,-873.35 699.75,-869.85 689.75,-866.35 689.75,-873.35"/>
</g>
<!-- Node89&#45;&gt;Node90 -->
<g id="edge33" class="edge">
<title>Node89&#45;&gt;Node90</title>
<path fill="none" stroke="midnightblue" d="M630.72,-1436.85C652.54,-1436.85 677.6,-1436.85 700.65,-1436.85"/>
<polygon fill="midnightblue" stroke="midnightblue" points="700.73,-1440.35 710.73,-1436.85 700.73,-1433.35 700.73,-1440.35"/>
</g>
<!-- Node90&#45;&gt;Node4 -->
<g id="edge34" class="edge">
<title>Node90&#45;&gt;Node4</title>
<path fill="none" stroke="midnightblue" d="M799.35,-1421.71C816.07,-1409.31 838.31,-1390.35 852,-1368.85 913.49,-1272.27 937.2,-1133.07 944.13,-1082.31"/>
<polygon fill="midnightblue" stroke="midnightblue" points="947.6,-1082.73 945.42,-1072.36 940.66,-1081.83 947.6,-1082.73"/>
</g>
<!-- Node98&#45;&gt;Node22 -->
<g id="edge40" class="edge">
<title>Node98&#45;&gt;Node22</title>
<path fill="none" stroke="midnightblue" d="M630.52,-932.06C641.77,-935.17 653.36,-938.79 664,-942.85 690.74,-953.06 719.44,-967.92 740.96,-979.9"/>
<polygon fill="midnightblue" stroke="midnightblue" points="739.29,-982.98 749.72,-984.84 742.73,-976.88 739.29,-982.98"/>
</g>
<!-- Node98&#45;&gt;Node21 -->
<g id="edge39" class="edge">
<title>Node98&#45;&gt;Node21</title>
<path fill="none" stroke="midnightblue" d="M630.58,-913.46C643.14,-909.67 655.25,-903.57 664,-893.85 754.23,-793.62 771.52,-345.24 774.45,-233.26"/>
<polygon fill="midnightblue" stroke="midnightblue" points="777.96,-233.02 774.71,-222.94 770.96,-232.85 777.96,-233.02"/>
</g>
<!-- Node104&#45;&gt;Node22 -->
<g id="edge42" class="edge">
<title>Node104&#45;&gt;Node22</title>
<path fill="none" stroke="midnightblue" d="M630.79,-1102.8C642.14,-1099.39 653.69,-1095.13 664,-1089.85 698.61,-1072.12 732.45,-1042.36 753.49,-1021.95"/>
<polygon fill="midnightblue" stroke="midnightblue" points="755.98,-1024.41 760.64,-1014.89 751.07,-1019.43 755.98,-1024.41"/>
</g>
</g>
</svg>
