<?xml version="1.0" encoding="UTF-8" standalone="no"?>
<!DOCTYPE svg PUBLIC "-//W3C//DTD SVG 1.1//EN"
 "http://www.w3.org/Graphics/SVG/1.1/DTD/svg11.dtd">
<!-- Generated by graphviz version 2.43.0 (0)
 -->
<!-- Title: v8::internal::compiler::JSGraph::Constant Pages: 1 -->
<svg width="954pt" height="403pt"
 viewBox="0.00 0.00 954.00 403.40" xmlns="http://www.w3.org/2000/svg" xmlns:xlink="http://www.w3.org/1999/xlink">
<g id="graph0" class="graph" transform="scale(1 1) rotate(0) translate(4 399.4)">
<title>v8::internal::compiler::JSGraph::Constant</title>
<polygon fill="white" stroke="transparent" points="-4,4 -4,-399.4 950,-399.4 950,4 -4,4"/>
<!-- Node1 -->
<g id="node1" class="node">
<title>Node1</title>
<g id="a_node1"><a xlink:title=" ">
<polygon fill="#bfbfbf" stroke="black" points="0,-244.5 0,-274.5 121,-274.5 121,-244.5 0,-244.5"/>
<text text-anchor="start" x="8" y="-262.5" font-family="Helvetica,sans-Serif" font-size="10.00">v8::internal::compiler</text>
<text text-anchor="middle" x="60.5" y="-251.5" font-family="Helvetica,sans-Serif" font-size="10.00">::JSGraph::Constant</text>
</a>
</g>
</g>
<!-- Node2 -->
<g id="node2" class="node">
<title>Node2</title>
<g id="a_node2"><a xlink:href="flag-definitions_8h.html#a1e4d6c2aea5c663dda8b8fca8b9199a5" target="_top" xlink:title=" ">
<polygon fill="white" stroke="black" points="450.5,-366 450.5,-385 497.5,-385 497.5,-366 450.5,-366"/>
<text text-anchor="middle" x="474" y="-373" font-family="Helvetica,sans-Serif" font-size="10.00">broker</text>
</a>
</g>
</g>
<!-- Node1&#45;&gt;Node2 -->
<g id="edge1" class="edge">
<title>Node1&#45;&gt;Node2</title>
<path fill="none" stroke="midnightblue" d="M69.6,-274.74C83.62,-299.34 115.01,-346.97 157,-366.5 251.83,-410.6 380.57,-394.03 440.2,-382.68"/>
<polygon fill="midnightblue" stroke="midnightblue" points="441.04,-386.08 450.17,-380.71 439.68,-379.22 441.04,-386.08"/>
</g>
<!-- Node3 -->
<g id="node3" class="node">
<title>Node3</title>
<g id="a_node3"><a xlink:href="classv8_1_1internal_1_1compiler_1_1JSGraph.html#a0cb79e2fb730eea055b3ee47add49ac3" target="_top" xlink:title=" ">
<polygon fill="white" stroke="black" points="160,-326.5 160,-356.5 326,-356.5 326,-326.5 160,-326.5"/>
<text text-anchor="start" x="168" y="-344.5" font-family="Helvetica,sans-Serif" font-size="10.00">v8::internal::compiler</text>
<text text-anchor="middle" x="243" y="-333.5" font-family="Helvetica,sans-Serif" font-size="10.00">::JSGraph::ConstantMaybeHole</text>
</a>
</g>
</g>
<!-- Node1&#45;&gt;Node3 -->
<g id="edge2" class="edge">
<title>Node1&#45;&gt;Node3</title>
<path fill="none" stroke="midnightblue" d="M101.21,-274.66C118.1,-283.46 138.2,-294.13 157,-302.5 173.46,-309.83 192.3,-316.63 208.05,-322.72"/>
<polygon fill="midnightblue" stroke="midnightblue" points="206.83,-326 217.42,-326.41 209.4,-319.49 206.83,-326"/>
</g>
<!-- Node4 -->
<g id="node4" class="node">
<title>Node4</title>
<g id="a_node4"><a xlink:href="namespacev8_1_1internal.html#aa6b3743bd5d773c552654f2a6c3efa4a" target="_top" xlink:title=" ">
<polygon fill="white" stroke="black" points="414.5,-309 414.5,-328 533.5,-328 533.5,-309 414.5,-309"/>
<text text-anchor="middle" x="474" y="-316" font-family="Helvetica,sans-Serif" font-size="10.00">v8::internal::DCHECK</text>
</a>
</g>
</g>
<!-- Node1&#45;&gt;Node4 -->
<g id="edge5" class="edge">
<title>Node1&#45;&gt;Node4</title>
<path fill="none" stroke="midnightblue" d="M121.24,-272.06C133.06,-274.35 145.4,-276.61 157,-278.5 241.84,-292.29 340.15,-304.08 404.3,-311.22"/>
<polygon fill="midnightblue" stroke="midnightblue" points="403.97,-314.7 414.29,-312.32 404.74,-307.74 403.97,-314.7"/>
</g>
<!-- Node5 -->
<g id="node5" class="node">
<title>Node5</title>
<g id="a_node5"><a xlink:href="classv8_1_1internal_1_1compiler_1_1JSGraph.html#a4a43048abd1be6c480f78e4c52221ca3" target="_top" xlink:title=" ">
<polygon fill="white" stroke="black" points="157,-200.5 157,-230.5 329,-230.5 329,-200.5 157,-200.5"/>
<text text-anchor="start" x="165" y="-218.5" font-family="Helvetica,sans-Serif" font-size="10.00">v8::internal::compiler</text>
<text text-anchor="middle" x="243" y="-207.5" font-family="Helvetica,sans-Serif" font-size="10.00">::JSGraph::HeapConstantNoHole</text>
</a>
</g>
</g>
<!-- Node1&#45;&gt;Node5 -->
<g id="edge6" class="edge">
<title>Node1&#45;&gt;Node5</title>
<path fill="none" stroke="midnightblue" d="M121.1,-244.97C136.83,-241.14 153.98,-236.96 170.28,-232.98"/>
<polygon fill="midnightblue" stroke="midnightblue" points="171.41,-236.31 180.3,-230.54 169.75,-229.51 171.41,-236.31"/>
</g>
<!-- Node38 -->
<g id="node14" class="node">
<title>Node38</title>
<g id="a_node14"><a xlink:href="namespacev8_1_1internal.html#aea9d736830d86242c4e1cb59a371d3a6" target="_top" xlink:title=" ">
<polygon fill="white" stroke="black" points="190,-250 190,-269 296,-269 296,-250 190,-250"/>
<text text-anchor="middle" x="243" y="-257" font-family="Helvetica,sans-Serif" font-size="10.00">v8::internal::IsNull</text>
</a>
</g>
</g>
<!-- Node1&#45;&gt;Node38 -->
<g id="edge16" class="edge">
<title>Node1&#45;&gt;Node38</title>
<path fill="none" stroke="midnightblue" d="M121.1,-259.5C139.9,-259.5 160.72,-259.5 179.7,-259.5"/>
<polygon fill="midnightblue" stroke="midnightblue" points="179.74,-263 189.74,-259.5 179.74,-256 179.74,-263"/>
</g>
<!-- Node39 -->
<g id="node15" class="node">
<title>Node39</title>
<g id="a_node15"><a xlink:href="classv8_1_1internal_1_1compiler_1_1JSGraph.html#a3cdc4b9f4f26c716107febc5fbcc4d71" target="_top" xlink:title=" ">
<polygon fill="white" stroke="black" points="182.5,-151.5 182.5,-181.5 303.5,-181.5 303.5,-151.5 182.5,-151.5"/>
<text text-anchor="start" x="190.5" y="-169.5" font-family="Helvetica,sans-Serif" font-size="10.00">v8::internal::compiler</text>
<text text-anchor="middle" x="243" y="-158.5" font-family="Helvetica,sans-Serif" font-size="10.00">::JSGraph::isolate</text>
</a>
</g>
</g>
<!-- Node1&#45;&gt;Node39 -->
<g id="edge18" class="edge">
<title>Node1&#45;&gt;Node39</title>
<path fill="none" stroke="midnightblue" d="M79.02,-244.27C97.35,-229.03 127.53,-205.82 157,-191.5 161.93,-189.1 167.13,-186.89 172.44,-184.86"/>
<polygon fill="midnightblue" stroke="midnightblue" points="173.84,-188.07 182.06,-181.39 171.47,-181.49 173.84,-188.07"/>
</g>
<!-- Node40 -->
<g id="node16" class="node">
<title>Node40</title>
<g id="a_node16"><a xlink:href="namespacev8_1_1internal_1_1compiler_1_1js__node__wrapper__utils.html#a315055e92c176ba783a671462cc6a8b2" target="_top" xlink:title=" ">
<polygon fill="white" stroke="black" points="177.5,-91 177.5,-132 308.5,-132 308.5,-91 177.5,-91"/>
<text text-anchor="start" x="185.5" y="-120" font-family="Helvetica,sans-Serif" font-size="10.00">v8::internal::compiler</text>
<text text-anchor="start" x="185.5" y="-109" font-family="Helvetica,sans-Serif" font-size="10.00">::js_node_wrapper_utils</text>
<text text-anchor="middle" x="243" y="-98" font-family="Helvetica,sans-Serif" font-size="10.00">::UndefinedConstant</text>
</a>
</g>
</g>
<!-- Node1&#45;&gt;Node40 -->
<g id="edge19" class="edge">
<title>Node1&#45;&gt;Node40</title>
<path fill="none" stroke="midnightblue" d="M70.1,-244.38C84.85,-219.72 117.25,-170.76 157,-142.5 160.63,-139.92 164.49,-137.53 168.5,-135.33"/>
<polygon fill="midnightblue" stroke="midnightblue" points="170.12,-138.43 177.46,-130.78 166.95,-132.19 170.12,-138.43"/>
</g>
<!-- Node43 -->
<g id="node19" class="node">
<title>Node43</title>
<g id="a_node19"><a xlink:href="namespacev8_1_1internal.html#acdec713c25068019f935e35976f5b666" target="_top" xlink:title=" ">
<polygon fill="white" stroke="black" points="167,-53 167,-72 319,-72 319,-53 167,-53"/>
<text text-anchor="middle" x="243" y="-60" font-family="Helvetica,sans-Serif" font-size="10.00">v8::internal::UNREACHABLE</text>
</a>
</g>
</g>
<!-- Node1&#45;&gt;Node43 -->
<g id="edge22" class="edge">
<title>Node1&#45;&gt;Node43</title>
<path fill="none" stroke="midnightblue" d="M65.05,-244.28C74,-209.54 100.85,-124.11 157,-81.5 159.37,-79.7 161.88,-78.07 164.49,-76.58"/>
<polygon fill="midnightblue" stroke="midnightblue" points="166.26,-79.61 173.72,-72.09 163.2,-73.32 166.26,-79.61"/>
</g>
<!-- Node3&#45;&gt;Node1 -->
<g id="edge4" class="edge">
<title>Node3&#45;&gt;Node1</title>
<path fill="none" stroke="midnightblue" d="M171.16,-326.45C166.33,-324.53 161.57,-322.54 157,-320.5 131.39,-309.1 103.36,-293.43 84.34,-280.52"/>
<polygon fill="midnightblue" stroke="midnightblue" points="86.2,-277.55 76.02,-274.63 82.15,-283.26 86.2,-277.55"/>
</g>
<!-- Node3&#45;&gt;Node2 -->
<g id="edge3" class="edge">
<title>Node3&#45;&gt;Node2</title>
<path fill="none" stroke="midnightblue" d="M326.03,-353.68C365.35,-359.52 410.24,-366.18 439.95,-370.59"/>
<polygon fill="midnightblue" stroke="midnightblue" points="439.77,-374.1 450.17,-372.11 440.79,-367.18 439.77,-374.1"/>
</g>
<!-- Node6 -->
<g id="node6" class="node">
<title>Node6</title>
<g id="a_node6"><a xlink:href="classv8_1_1internal_1_1compiler_1_1MachineGraph.html#a11c81af5c3b260688a80e107fc23d941" target="_top" xlink:title=" ">
<polygon fill="white" stroke="black" points="403,-259.5 403,-289.5 545,-289.5 545,-259.5 403,-259.5"/>
<text text-anchor="start" x="411" y="-277.5" font-family="Helvetica,sans-Serif" font-size="10.00">v8::internal::compiler</text>
<text text-anchor="middle" x="474" y="-266.5" font-family="Helvetica,sans-Serif" font-size="10.00">::MachineGraph::common</text>
</a>
</g>
</g>
<!-- Node5&#45;&gt;Node6 -->
<g id="edge7" class="edge">
<title>Node5&#45;&gt;Node6</title>
<path fill="none" stroke="midnightblue" d="M294.96,-230.59C321.66,-238.42 351.55,-247.06 365,-250.5 374.05,-252.81 383.55,-255.11 393.02,-257.32"/>
<polygon fill="midnightblue" stroke="midnightblue" points="392.31,-260.75 402.84,-259.58 393.88,-253.93 392.31,-260.75"/>
</g>
<!-- Node7 -->
<g id="node7" class="node">
<title>Node7</title>
<g id="a_node7"><a xlink:href="classv8_1_1internal_1_1compiler_1_1CommonNodeCache.html#aed0364b7c925b241036ee1478fb0aa7d" target="_top" xlink:title=" ">
<polygon fill="white" stroke="black" points="365,-210.5 365,-240.5 583,-240.5 583,-210.5 365,-210.5"/>
<text text-anchor="start" x="373" y="-228.5" font-family="Helvetica,sans-Serif" font-size="10.00">v8::internal::compiler</text>
<text text-anchor="middle" x="474" y="-217.5" font-family="Helvetica,sans-Serif" font-size="10.00">::CommonNodeCache::FindHeapConstant</text>
</a>
</g>
</g>
<!-- Node5&#45;&gt;Node7 -->
<g id="edge8" class="edge">
<title>Node5&#45;&gt;Node7</title>
<path fill="none" stroke="midnightblue" d="M329.27,-219.22C337.59,-219.59 346.13,-219.96 354.69,-220.33"/>
<polygon fill="midnightblue" stroke="midnightblue" points="354.61,-223.83 364.75,-220.77 354.91,-216.84 354.61,-223.83"/>
</g>
<!-- Node8 -->
<g id="node8" class="node">
<title>Node8</title>
<g id="a_node8"><a xlink:href="classv8_1_1internal_1_1compiler_1_1MachineGraph.html#a453021fea6ef3030504bb24f34b8c5b6" target="_top" xlink:title=" ">
<polygon fill="white" stroke="black" points="410.5,-161.5 410.5,-191.5 537.5,-191.5 537.5,-161.5 410.5,-161.5"/>
<text text-anchor="start" x="418.5" y="-179.5" font-family="Helvetica,sans-Serif" font-size="10.00">v8::internal::compiler</text>
<text text-anchor="middle" x="474" y="-168.5" font-family="Helvetica,sans-Serif" font-size="10.00">::MachineGraph::graph</text>
</a>
</g>
</g>
<!-- Node5&#45;&gt;Node8 -->
<g id="edge9" class="edge">
<title>Node5&#45;&gt;Node8</title>
<path fill="none" stroke="midnightblue" d="M329.27,-200.98C352.54,-197.02 377.53,-192.76 400.05,-188.92"/>
<polygon fill="midnightblue" stroke="midnightblue" points="400.93,-192.32 410.2,-187.19 399.76,-185.42 400.93,-192.32"/>
</g>
<!-- Node9 -->
<g id="node9" class="node">
<title>Node9</title>
<g id="a_node9"><a xlink:href="namespacev8_1_1internal.html#ac0864a6103167a477642694ed09ca27e" target="_top" xlink:title=" ">
<polygon fill="white" stroke="black" points="410,-123 410,-142 538,-142 538,-123 410,-123"/>
<text text-anchor="middle" x="474" y="-130" font-family="Helvetica,sans-Serif" font-size="10.00">v8::internal::IsAnyHole</text>
</a>
</g>
</g>
<!-- Node5&#45;&gt;Node9 -->
<g id="edge10" class="edge">
<title>Node5&#45;&gt;Node9</title>
<path fill="none" stroke="midnightblue" d="M310.94,-200.46C317.25,-197.91 323.38,-194.95 329,-191.5 349.11,-179.16 344.35,-163.9 365,-152.5 375.63,-146.63 387.65,-142.45 399.72,-139.47"/>
<polygon fill="midnightblue" stroke="midnightblue" points="400.82,-142.81 409.84,-137.24 399.32,-135.98 400.82,-142.81"/>
</g>
<!-- Node10 -->
<g id="node10" class="node">
<title>Node10</title>
<g id="a_node10"><a xlink:href="classv8_1_1internal_1_1compiler_1_1TFGraph.html#acf1cedea6c7aa5e2aaaf3653ea8d5630" target="_top" xlink:title=" ">
<polygon fill="white" stroke="black" points="413.5,-73.5 413.5,-103.5 534.5,-103.5 534.5,-73.5 413.5,-73.5"/>
<text text-anchor="start" x="421.5" y="-91.5" font-family="Helvetica,sans-Serif" font-size="10.00">v8::internal::compiler</text>
<text text-anchor="middle" x="474" y="-80.5" font-family="Helvetica,sans-Serif" font-size="10.00">::TFGraph::NewNode</text>
</a>
</g>
</g>
<!-- Node5&#45;&gt;Node10 -->
<g id="edge11" class="edge">
<title>Node5&#45;&gt;Node10</title>
<path fill="none" stroke="midnightblue" d="M315.96,-200.3C320.62,-197.8 325.04,-194.89 329,-191.5 358.03,-166.71 335.38,-137.59 365,-113.5 375.99,-104.56 389.6,-98.69 403.4,-94.87"/>
<polygon fill="midnightblue" stroke="midnightblue" points="404.55,-98.19 413.45,-92.44 402.91,-91.39 404.55,-98.19"/>
</g>
<!-- Node11 -->
<g id="node11" class="node">
<title>Node11</title>
<g id="a_node11"><a xlink:href="namespacev8_1_1internal_1_1compiler_1_1turboshaft_1_1detail.html#abd60a8b46c2025b9a5ad36b9d1ed9c92" target="_top" xlink:title=" ">
<polygon fill="white" stroke="black" points="825,-115 825,-156 946,-156 946,-115 825,-115"/>
<text text-anchor="start" x="833" y="-144" font-family="Helvetica,sans-Serif" font-size="10.00">v8::internal::compiler</text>
<text text-anchor="start" x="833" y="-133" font-family="Helvetica,sans-Serif" font-size="10.00">::turboshaft::detail::</text>
<text text-anchor="middle" x="885.5" y="-122" font-family="Helvetica,sans-Serif" font-size="10.00">input_count</text>
</a>
</g>
</g>
<!-- Node10&#45;&gt;Node11 -->
<g id="edge12" class="edge">
<title>Node10&#45;&gt;Node11</title>
<path fill="none" stroke="midnightblue" d="M534.61,-98.06C550.72,-101.77 567.87,-106.79 583,-113.5 600.81,-121.39 600.41,-132.68 619,-138.5 691.1,-161.08 713.45,-139.69 789,-138.5 797.34,-138.37 806.1,-138.17 814.78,-137.94"/>
<polygon fill="midnightblue" stroke="midnightblue" points="815,-141.44 824.9,-137.66 814.81,-134.44 815,-141.44"/>
</g>
<!-- Node12 -->
<g id="node12" class="node">
<title>Node12</title>
<g id="a_node12"><a xlink:href="classv8_1_1internal_1_1compiler_1_1TFGraph.html#a89366836c623db73e24508fafbc5f4fa" target="_top" xlink:title=" ">
<polygon fill="white" stroke="red" points="619,-98.5 619,-128.5 789,-128.5 789,-98.5 619,-98.5"/>
<text text-anchor="start" x="627" y="-116.5" font-family="Helvetica,sans-Serif" font-size="10.00">v8::internal::compiler</text>
<text text-anchor="middle" x="704" y="-105.5" font-family="Helvetica,sans-Serif" font-size="10.00">::TFGraph::NewNodeUnchecked</text>
</a>
</g>
</g>
<!-- Node10&#45;&gt;Node12 -->
<g id="edge13" class="edge">
<title>Node10&#45;&gt;Node12</title>
<path fill="none" stroke="midnightblue" d="M534.61,-95.04C557.22,-97.52 583.56,-100.4 608.6,-103.15"/>
<polygon fill="midnightblue" stroke="midnightblue" points="608.55,-106.66 618.87,-104.27 609.31,-99.71 608.55,-106.66"/>
</g>
<!-- Node37 -->
<g id="node13" class="node">
<title>Node37</title>
<g id="a_node13"><a xlink:href="classv8_1_1internal_1_1compiler_1_1Verifier.html#ad4ccd74b2c1820f3e00a863eb4d73515" target="_top" xlink:title=" ">
<polygon fill="white" stroke="black" points="643.5,-49.5 643.5,-79.5 764.5,-79.5 764.5,-49.5 643.5,-49.5"/>
<text text-anchor="start" x="651.5" y="-67.5" font-family="Helvetica,sans-Serif" font-size="10.00">v8::internal::compiler</text>
<text text-anchor="middle" x="704" y="-56.5" font-family="Helvetica,sans-Serif" font-size="10.00">::Verifier::VerifyNode</text>
</a>
</g>
</g>
<!-- Node10&#45;&gt;Node37 -->
<g id="edge15" class="edge">
<title>Node10&#45;&gt;Node37</title>
<path fill="none" stroke="midnightblue" d="M534.61,-82.23C564.85,-79.04 601.76,-75.16 633.31,-71.84"/>
<polygon fill="midnightblue" stroke="midnightblue" points="633.77,-75.31 643.35,-70.78 633.03,-68.35 633.77,-75.31"/>
</g>
<!-- Node12&#45;&gt;Node11 -->
<g id="edge14" class="edge">
<title>Node12&#45;&gt;Node11</title>
<path fill="none" stroke="midnightblue" d="M789.23,-123.82C797.78,-124.87 806.39,-125.93 814.76,-126.95"/>
<polygon fill="midnightblue" stroke="midnightblue" points="814.48,-130.44 824.83,-128.19 815.33,-123.5 814.48,-130.44"/>
</g>
<!-- Node38&#45;&gt;Node4 -->
<g id="edge17" class="edge">
<title>Node38&#45;&gt;Node4</title>
<path fill="none" stroke="midnightblue" d="M282.45,-269.1C297.16,-273.1 314,-278.08 329,-283.5 345.47,-289.45 348.25,-294.39 365,-299.5 377.55,-303.33 391.17,-306.48 404.38,-309.03"/>
<polygon fill="midnightblue" stroke="midnightblue" points="403.91,-312.5 414.37,-310.86 405.17,-305.61 403.91,-312.5"/>
</g>
<!-- Node41 -->
<g id="node17" class="node">
<title>Node41</title>
<g id="a_node17"><a xlink:href="classv8_1_1internal_1_1TNode.html#aef7e09b0f9e153327c5c1eb4dd516e6e" target="_top" xlink:title=" ">
<polygon fill="white" stroke="black" points="419,-24.5 419,-54.5 529,-54.5 529,-24.5 419,-24.5"/>
<text text-anchor="start" x="427" y="-42.5" font-family="Helvetica,sans-Serif" font-size="10.00">v8::internal::TNode</text>
<text text-anchor="middle" x="474" y="-31.5" font-family="Helvetica,sans-Serif" font-size="10.00">::UncheckedCast</text>
</a>
</g>
</g>
<!-- Node40&#45;&gt;Node41 -->
<g id="edge20" class="edge">
<title>Node40&#45;&gt;Node41</title>
<path fill="none" stroke="midnightblue" d="M305.18,-90.94C313.25,-87.93 321.37,-84.74 329,-81.5 345.47,-74.51 348.14,-69.49 365,-63.5 378.97,-58.54 394.34,-54.39 408.98,-51.01"/>
<polygon fill="midnightblue" stroke="midnightblue" points="409.98,-54.37 418.98,-48.79 408.46,-47.54 409.98,-54.37"/>
</g>
<!-- Node42 -->
<g id="node18" class="node">
<title>Node42</title>
<g id="a_node18"><a xlink:href="classv8_1_1internal_1_1TNode.html#a9e45093dda72c5af25effcb8eaef18af" target="_top" xlink:title=" ">
<polygon fill="white" stroke="black" points="649,-0.5 649,-30.5 759,-30.5 759,-0.5 649,-0.5"/>
<text text-anchor="start" x="657" y="-18.5" font-family="Helvetica,sans-Serif" font-size="10.00">v8::internal::TNode</text>
<text text-anchor="middle" x="704" y="-7.5" font-family="Helvetica,sans-Serif" font-size="10.00">::TNode</text>
</a>
</g>
</g>
<!-- Node41&#45;&gt;Node42 -->
<g id="edge21" class="edge">
<title>Node41&#45;&gt;Node42</title>
<path fill="none" stroke="midnightblue" d="M529.03,-33.81C561.99,-30.34 604.3,-25.89 638.94,-22.24"/>
<polygon fill="midnightblue" stroke="midnightblue" points="639.38,-25.72 648.96,-21.19 638.65,-18.75 639.38,-25.72"/>
</g>
</g>
</svg>
