<?xml version="1.0" encoding="UTF-8" standalone="no"?>
<!DOCTYPE svg PUBLIC "-//W3C//DTD SVG 1.1//EN"
 "http://www.w3.org/Graphics/SVG/1.1/DTD/svg11.dtd">
<!-- Generated by graphviz version 2.43.0 (0)
 -->
<!-- Title: v8::internal::OptimizedCompilationInfo::bytecode_array Pages: 1 -->
<svg width="963pt" height="375pt"
 viewBox="0.00 0.00 963.00 374.50" xmlns="http://www.w3.org/2000/svg" xmlns:xlink="http://www.w3.org/1999/xlink">
<g id="graph0" class="graph" transform="scale(1 1) rotate(0) translate(4 370.5)">
<title>v8::internal::OptimizedCompilationInfo::bytecode_array</title>
<polygon fill="white" stroke="transparent" points="-4,4 -4,-370.5 959,-370.5 959,4 -4,4"/>
<!-- Node1 -->
<g id="node1" class="node">
<title>Node1</title>
<g id="a_node1"><a xlink:title=" ">
<polygon fill="#bfbfbf" stroke="black" points="767,-232 767,-262 955,-262 955,-232 767,-232"/>
<text text-anchor="start" x="775" y="-250" font-family="Helvetica,sans-Serif" font-size="10.00">v8::internal::OptimizedCompilation</text>
<text text-anchor="middle" x="861" y="-239" font-family="Helvetica,sans-Serif" font-size="10.00">Info::bytecode_array</text>
</a>
</g>
</g>
<!-- Node2 -->
<g id="node2" class="node">
<title>Node2</title>
<g id="a_node2"><a xlink:href="classv8_1_1internal_1_1compiler_1_1CodeGenerator.html#a66b300247e9913b6e1e1d8b79c7f857c" target="_top" xlink:title=" ">
<polygon fill="white" stroke="black" points="521,-336 521,-366 696,-366 696,-336 521,-336"/>
<text text-anchor="start" x="529" y="-354" font-family="Helvetica,sans-Serif" font-size="10.00">v8::internal::compiler</text>
<text text-anchor="middle" x="608.5" y="-343" font-family="Helvetica,sans-Serif" font-size="10.00">::CodeGenerator::AssembleCode</text>
</a>
</g>
</g>
<!-- Node1&#45;&gt;Node2 -->
<g id="edge1" class="edge">
<title>Node1&#45;&gt;Node2</title>
<path fill="none" stroke="midnightblue" d="M832.36,-268.27C807.25,-286.55 768.51,-312.23 731,-327 720,-331.33 708.11,-334.91 696.23,-337.86"/>
<polygon fill="midnightblue" stroke="midnightblue" points="834.69,-270.9 840.65,-262.14 830.53,-265.27 834.69,-270.9"/>
</g>
<!-- Node4 -->
<g id="node4" class="node">
<title>Node4</title>
<g id="a_node4"><a xlink:href="classv8_1_1internal_1_1compiler_1_1Linkage.html#ae1656adf5fd76105714bd2d8ab804391" target="_top" xlink:title=" ">
<polygon fill="white" stroke="black" points="531,-177 531,-207 686,-207 686,-177 531,-177"/>
<text text-anchor="start" x="539" y="-195" font-family="Helvetica,sans-Serif" font-size="10.00">v8::internal::compiler</text>
<text text-anchor="middle" x="608.5" y="-184" font-family="Helvetica,sans-Serif" font-size="10.00">::Linkage::ComputeIncoming</text>
</a>
</g>
</g>
<!-- Node1&#45;&gt;Node4 -->
<g id="edge3" class="edge">
<title>Node1&#45;&gt;Node4</title>
<path fill="none" stroke="midnightblue" d="M786.79,-229.63C768.58,-225.41 749.1,-220.97 731,-217 715.85,-213.68 699.62,-210.25 684.1,-207.04"/>
<polygon fill="midnightblue" stroke="midnightblue" points="786.22,-233.09 796.76,-231.95 787.81,-226.28 786.22,-233.09"/>
</g>
<!-- Node7 -->
<g id="node7" class="node">
<title>Node7</title>
<g id="a_node7"><a xlink:href="classv8_1_1internal_1_1compiler_1_1CodeGenerator.html#adb32e8af643b0610d5bafbed46dc7bef" target="_top" xlink:title=" ">
<polygon fill="white" stroke="black" points="486,-287 486,-317 731,-317 731,-287 486,-287"/>
<text text-anchor="start" x="494" y="-305" font-family="Helvetica,sans-Serif" font-size="10.00">v8::internal::compiler</text>
<text text-anchor="middle" x="608.5" y="-294" font-family="Helvetica,sans-Serif" font-size="10.00">::CodeGenerator::GenerateDeoptimizationData</text>
</a>
</g>
</g>
<!-- Node1&#45;&gt;Node7 -->
<g id="edge6" class="edge">
<title>Node1&#45;&gt;Node7</title>
<path fill="none" stroke="midnightblue" d="M786.79,-264.37C768.58,-268.59 749.1,-273.03 731,-277 715.85,-280.32 699.62,-283.75 684.1,-286.96"/>
<polygon fill="midnightblue" stroke="midnightblue" points="787.81,-267.72 796.76,-262.05 786.22,-260.91 787.81,-267.72"/>
</g>
<!-- Node10 -->
<g id="node10" class="node">
<title>Node10</title>
<g id="a_node10"><a xlink:href="classv8_1_1internal_1_1compiler_1_1PipelineImpl.html#a3f54d78711b89cddcd8b7dde5f13c931" target="_top" xlink:title=" ">
<polygon fill="white" stroke="black" points="530,-226.5 530,-267.5 687,-267.5 687,-226.5 530,-226.5"/>
<text text-anchor="start" x="538" y="-255.5" font-family="Helvetica,sans-Serif" font-size="10.00">v8::internal::compiler</text>
<text text-anchor="start" x="538" y="-244.5" font-family="Helvetica,sans-Serif" font-size="10.00">::PipelineImpl::InitializeHeap</text>
<text text-anchor="middle" x="608.5" y="-233.5" font-family="Helvetica,sans-Serif" font-size="10.00">Broker</text>
</a>
</g>
</g>
<!-- Node1&#45;&gt;Node10 -->
<g id="edge9" class="edge">
<title>Node1&#45;&gt;Node10</title>
<path fill="none" stroke="midnightblue" d="M756.52,-247C733.37,-247 709.19,-247 687.28,-247"/>
<polygon fill="midnightblue" stroke="midnightblue" points="756.72,-250.5 766.72,-247 756.72,-243.5 756.72,-250.5"/>
</g>
<!-- Node11 -->
<g id="node11" class="node">
<title>Node11</title>
<g id="a_node11"><a xlink:href="namespacev8_1_1internal_1_1compiler.html#a8b2e6ccf1b423a6900d6b447c371b0f3" target="_top" xlink:title=" ">
<polygon fill="white" stroke="black" points="527.5,-112 527.5,-142 689.5,-142 689.5,-112 527.5,-112"/>
<text text-anchor="start" x="535.5" y="-130" font-family="Helvetica,sans-Serif" font-size="10.00">v8::internal::compiler</text>
<text text-anchor="middle" x="608.5" y="-119" font-family="Helvetica,sans-Serif" font-size="10.00">::JsonPrintAllBytecodeSources</text>
</a>
</g>
</g>
<!-- Node1&#45;&gt;Node11 -->
<g id="edge12" class="edge">
<title>Node1&#45;&gt;Node11</title>
<path fill="none" stroke="midnightblue" d="M830.53,-225.91C805.1,-208.4 766.89,-183.75 731,-167 709.87,-157.14 685.63,-148.64 664.39,-142.04"/>
<polygon fill="midnightblue" stroke="midnightblue" points="828.76,-228.94 838.97,-231.78 832.76,-223.19 828.76,-228.94"/>
</g>
<!-- Node3 -->
<g id="node3" class="node">
<title>Node3</title>
<g id="a_node3"><a xlink:href="structv8_1_1internal_1_1compiler_1_1turboshaft_1_1AssembleCodePhase.html#a5af3c3e5dfdfa6aaef3a0ecfc2b0b5a7" target="_top" xlink:title=" ">
<polygon fill="white" stroke="black" points="245,-336 245,-366 450,-366 450,-336 245,-336"/>
<text text-anchor="start" x="253" y="-354" font-family="Helvetica,sans-Serif" font-size="10.00">v8::internal::compiler</text>
<text text-anchor="middle" x="347.5" y="-343" font-family="Helvetica,sans-Serif" font-size="10.00">::turboshaft::AssembleCodePhase::Run</text>
</a>
</g>
</g>
<!-- Node2&#45;&gt;Node3 -->
<g id="edge2" class="edge">
<title>Node2&#45;&gt;Node3</title>
<path fill="none" stroke="midnightblue" d="M510.69,-351C490.97,-351 470.16,-351 450.27,-351"/>
<polygon fill="midnightblue" stroke="midnightblue" points="510.9,-354.5 520.9,-351 510.9,-347.5 510.9,-354.5"/>
</g>
<!-- Node5 -->
<g id="node5" class="node">
<title>Node5</title>
<g id="a_node5"><a xlink:href="classv8_1_1internal_1_1compiler_1_1Pipeline.html#a9c56edadb874e9d9755ff89a01cc43b1" target="_top" xlink:title=" ">
<polygon fill="white" stroke="black" points="11,-181 11,-211 198,-211 198,-181 11,-181"/>
<text text-anchor="start" x="19" y="-199" font-family="Helvetica,sans-Serif" font-size="10.00">v8::internal::compiler</text>
<text text-anchor="middle" x="104.5" y="-188" font-family="Helvetica,sans-Serif" font-size="10.00">::Pipeline::GenerateCodeForTesting</text>
</a>
</g>
</g>
<!-- Node4&#45;&gt;Node5 -->
<g id="edge4" class="edge">
<title>Node4&#45;&gt;Node5</title>
<path fill="none" stroke="midnightblue" d="M520.62,-183.54C497.68,-181.66 472.92,-179.94 450,-179 358.97,-175.25 335.94,-173.48 245,-179 229.78,-179.92 213.68,-181.41 198.03,-183.13"/>
<polygon fill="midnightblue" stroke="midnightblue" points="520.42,-187.04 530.67,-184.38 521,-180.06 520.42,-187.04"/>
</g>
<!-- Node6 -->
<g id="node6" class="node">
<title>Node6</title>
<g id="a_node6"><a xlink:href="classv8_1_1internal_1_1compiler_1_1PipelineCompilationJob.html#aaa2c9c4ddeb9b0fdc813f6af1bafcf23" target="_top" xlink:title=" ">
<polygon fill="white" stroke="black" points="279.5,-188.5 279.5,-229.5 415.5,-229.5 415.5,-188.5 279.5,-188.5"/>
<text text-anchor="start" x="287.5" y="-217.5" font-family="Helvetica,sans-Serif" font-size="10.00">v8::internal::compiler</text>
<text text-anchor="start" x="287.5" y="-206.5" font-family="Helvetica,sans-Serif" font-size="10.00">::PipelineCompilationJob</text>
<text text-anchor="middle" x="347.5" y="-195.5" font-family="Helvetica,sans-Serif" font-size="10.00">::PrepareJobImpl</text>
</a>
</g>
</g>
<!-- Node4&#45;&gt;Node6 -->
<g id="edge5" class="edge">
<title>Node4&#45;&gt;Node6</title>
<path fill="none" stroke="midnightblue" d="M520.84,-197.69C486.58,-199.94 447.81,-202.48 415.73,-204.59"/>
<polygon fill="midnightblue" stroke="midnightblue" points="521.09,-201.18 530.84,-197.03 520.63,-194.19 521.09,-201.18"/>
</g>
<!-- Node8 -->
<g id="node8" class="node">
<title>Node8</title>
<g id="a_node8"><a xlink:href="classv8_1_1internal_1_1compiler_1_1CodeGenerator.html#a90a701a71ad5699639d55b2847f6974a" target="_top" xlink:title=" ">
<polygon fill="white" stroke="black" points="265.5,-287 265.5,-317 429.5,-317 429.5,-287 265.5,-287"/>
<text text-anchor="start" x="273.5" y="-305" font-family="Helvetica,sans-Serif" font-size="10.00">v8::internal::compiler</text>
<text text-anchor="middle" x="347.5" y="-294" font-family="Helvetica,sans-Serif" font-size="10.00">::CodeGenerator::FinalizeCode</text>
</a>
</g>
</g>
<!-- Node7&#45;&gt;Node8 -->
<g id="edge7" class="edge">
<title>Node7&#45;&gt;Node8</title>
<path fill="none" stroke="midnightblue" d="M475.68,-302C460.02,-302 444.41,-302 429.76,-302"/>
<polygon fill="midnightblue" stroke="midnightblue" points="475.96,-305.5 485.96,-302 475.96,-298.5 475.96,-305.5"/>
</g>
<!-- Node9 -->
<g id="node9" class="node">
<title>Node9</title>
<g id="a_node9"><a xlink:href="structv8_1_1internal_1_1compiler_1_1turboshaft_1_1FinalizeCodePhase.html#a3d438bd051ab847fa689d265bb0268ac" target="_top" xlink:title=" ">
<polygon fill="white" stroke="black" points="7.5,-287 7.5,-317 201.5,-317 201.5,-287 7.5,-287"/>
<text text-anchor="start" x="15.5" y="-305" font-family="Helvetica,sans-Serif" font-size="10.00">v8::internal::compiler</text>
<text text-anchor="middle" x="104.5" y="-294" font-family="Helvetica,sans-Serif" font-size="10.00">::turboshaft::FinalizeCodePhase::Run</text>
</a>
</g>
</g>
<!-- Node8&#45;&gt;Node9 -->
<g id="edge8" class="edge">
<title>Node8&#45;&gt;Node9</title>
<path fill="none" stroke="midnightblue" d="M255.1,-302C237.68,-302 219.4,-302 201.83,-302"/>
<polygon fill="midnightblue" stroke="midnightblue" points="255.24,-305.5 265.24,-302 255.24,-298.5 255.24,-305.5"/>
</g>
<!-- Node10&#45;&gt;Node5 -->
<g id="edge10" class="edge">
<title>Node10&#45;&gt;Node5</title>
<path fill="none" stroke="midnightblue" d="M519.68,-251.81C445.88,-254.24 337.88,-254.04 245,-239 210.1,-233.35 171.81,-221.09 144.19,-211.1"/>
<polygon fill="midnightblue" stroke="midnightblue" points="519.99,-255.3 529.86,-251.45 519.74,-248.31 519.99,-255.3"/>
</g>
<!-- Node10&#45;&gt;Node6 -->
<g id="edge11" class="edge">
<title>Node10&#45;&gt;Node6</title>
<path fill="none" stroke="midnightblue" d="M519.84,-234.14C485.79,-229.14 447.42,-223.51 415.63,-218.85"/>
<polygon fill="midnightblue" stroke="midnightblue" points="519.39,-237.61 529.79,-235.6 520.41,-230.68 519.39,-237.61"/>
</g>
<!-- Node12 -->
<g id="node12" class="node">
<title>Node12</title>
<g id="a_node12"><a xlink:href="classv8_1_1internal_1_1compiler_1_1turboshaft_1_1Pipeline.html#aa8b1a2aa56e3393bfd2cc813dad1fb4e" target="_top" xlink:title=" ">
<polygon fill="white" stroke="black" points="287,-90.5 287,-131.5 408,-131.5 408,-90.5 287,-90.5"/>
<text text-anchor="start" x="295" y="-119.5" font-family="Helvetica,sans-Serif" font-size="10.00">v8::internal::compiler</text>
<text text-anchor="start" x="295" y="-108.5" font-family="Helvetica,sans-Serif" font-size="10.00">::turboshaft::Pipeline</text>
<text text-anchor="middle" x="347.5" y="-97.5" font-family="Helvetica,sans-Serif" font-size="10.00">::FinalizeCode</text>
</a>
</g>
</g>
<!-- Node11&#45;&gt;Node12 -->
<g id="edge13" class="edge">
<title>Node11&#45;&gt;Node12</title>
<path fill="none" stroke="midnightblue" d="M517.26,-121.43C481.13,-119.19 440.5,-116.68 408.15,-114.69"/>
<polygon fill="midnightblue" stroke="midnightblue" points="517.13,-124.92 527.32,-122.05 517.56,-117.94 517.13,-124.92"/>
</g>
<!-- Node12&#45;&gt;Node5 -->
<g id="edge16" class="edge">
<title>Node12&#45;&gt;Node5</title>
<path fill="none" stroke="midnightblue" d="M277.25,-132.01C266.25,-136.16 255.16,-140.85 245,-146 227.63,-154.81 226.77,-163.02 209,-171 200.48,-174.82 191.3,-178.11 182.04,-180.93"/>
<polygon fill="midnightblue" stroke="midnightblue" points="278.67,-135.22 286.86,-128.5 276.27,-128.64 278.67,-135.22"/>
</g>
<!-- Node13 -->
<g id="node13" class="node">
<title>Node13</title>
<g id="a_node13"><a xlink:href="classv8_1_1internal_1_1compiler_1_1CodeAssemblerTurboshaftCompilationJob.html#a801821a482beb65aa85d4b2c2e855f14" target="_top" xlink:title=" ">
<polygon fill="white" stroke="black" points="0,-0.5 0,-41.5 209,-41.5 209,-0.5 0,-0.5"/>
<text text-anchor="start" x="8" y="-29.5" font-family="Helvetica,sans-Serif" font-size="10.00">v8::internal::compiler</text>
<text text-anchor="start" x="8" y="-18.5" font-family="Helvetica,sans-Serif" font-size="10.00">::CodeAssemblerTurboshaftCompilation</text>
<text text-anchor="middle" x="104.5" y="-7.5" font-family="Helvetica,sans-Serif" font-size="10.00">Job::FinalizeCode</text>
</a>
</g>
</g>
<!-- Node12&#45;&gt;Node13 -->
<g id="edge14" class="edge">
<title>Node12&#45;&gt;Node13</title>
<path fill="none" stroke="midnightblue" d="M294,-86.19C268.63,-74.69 237.56,-61.32 209,-51 199.94,-47.73 190.33,-44.55 180.77,-41.58"/>
<polygon fill="midnightblue" stroke="midnightblue" points="292.87,-89.52 303.42,-90.49 295.78,-83.15 292.87,-89.52"/>
</g>
<!-- Node14 -->
<g id="node14" class="node">
<title>Node14</title>
<g id="a_node14"><a xlink:href="classv8_1_1internal_1_1compiler_1_1PipelineCompilationJob.html#af6121595a603af6b11f88d67743e79b4" target="_top" xlink:title=" ">
<polygon fill="white" stroke="black" points="36.5,-120.5 36.5,-161.5 172.5,-161.5 172.5,-120.5 36.5,-120.5"/>
<text text-anchor="start" x="44.5" y="-149.5" font-family="Helvetica,sans-Serif" font-size="10.00">v8::internal::compiler</text>
<text text-anchor="start" x="44.5" y="-138.5" font-family="Helvetica,sans-Serif" font-size="10.00">::PipelineCompilationJob</text>
<text text-anchor="middle" x="104.5" y="-127.5" font-family="Helvetica,sans-Serif" font-size="10.00">::FinalizeJobImpl</text>
</a>
</g>
</g>
<!-- Node12&#45;&gt;Node14 -->
<g id="edge15" class="edge">
<title>Node12&#45;&gt;Node14</title>
<path fill="none" stroke="midnightblue" d="M276.98,-119.65C244.24,-123.73 205.35,-128.57 172.89,-132.61"/>
<polygon fill="midnightblue" stroke="midnightblue" points="277.44,-123.12 286.93,-118.42 276.57,-116.18 277.44,-123.12"/>
</g>
<!-- Node15 -->
<g id="node15" class="node">
<title>Node15</title>
<g id="a_node15"><a xlink:href="classv8_1_1internal_1_1compiler_1_1Pipeline.html#a54babd7d2dd601a8f92134d00e672be5" target="_top" xlink:title=" ">
<polygon fill="white" stroke="red" points="3,-60.5 3,-101.5 206,-101.5 206,-60.5 3,-60.5"/>
<text text-anchor="start" x="11" y="-89.5" font-family="Helvetica,sans-Serif" font-size="10.00">v8::internal::compiler</text>
<text text-anchor="start" x="11" y="-78.5" font-family="Helvetica,sans-Serif" font-size="10.00">::Pipeline::GenerateCodeForTurboshaft</text>
<text text-anchor="middle" x="104.5" y="-67.5" font-family="Helvetica,sans-Serif" font-size="10.00">Builtin</text>
</a>
</g>
</g>
<!-- Node12&#45;&gt;Node15 -->
<g id="edge17" class="edge">
<title>Node12&#45;&gt;Node15</title>
<path fill="none" stroke="midnightblue" d="M276.98,-102.35C254.88,-99.59 229.97,-96.49 206.13,-93.53"/>
<polygon fill="midnightblue" stroke="midnightblue" points="276.57,-105.82 286.93,-103.58 277.44,-98.88 276.57,-105.82"/>
</g>
</g>
</svg>
