<?xml version="1.0" encoding="UTF-8" standalone="no"?>
<!DOCTYPE svg PUBLIC "-//W3C//DTD SVG 1.1//EN"
 "http://www.w3.org/Graphics/SVG/1.1/DTD/svg11.dtd">
<!-- Generated by graphviz version 2.43.0 (0)
 -->
<!-- Title: v8::internal::compiler::SimplifiedOperatorBuilder::NewSmiOrObjectElements Pages: 1 -->
<svg width="374pt" height="78pt"
 viewBox="0.00 0.00 374.00 77.50" xmlns="http://www.w3.org/2000/svg" xmlns:xlink="http://www.w3.org/1999/xlink">
<g id="graph0" class="graph" transform="scale(1 1) rotate(0) translate(4 73.5)">
<title>v8::internal::compiler::SimplifiedOperatorBuilder::NewSmiOrObjectElements</title>
<polygon fill="white" stroke="transparent" points="-4,4 -4,-73.5 370,-73.5 370,4 -4,4"/>
<!-- Node1 -->
<g id="node1" class="node">
<title>Node1</title>
<g id="a_node1"><a xlink:title=" ">
<polygon fill="#bfbfbf" stroke="black" points="0,-17 0,-58 152,-58 152,-17 0,-17"/>
<text text-anchor="start" x="8" y="-46" font-family="Helvetica,sans-Serif" font-size="10.00">v8::internal::compiler</text>
<text text-anchor="start" x="8" y="-35" font-family="Helvetica,sans-Serif" font-size="10.00">::SimplifiedOperatorBuilder</text>
<text text-anchor="middle" x="76" y="-24" font-family="Helvetica,sans-Serif" font-size="10.00">::NewSmiOrObjectElements</text>
</a>
</g>
</g>
<!-- Node2 -->
<g id="node2" class="node">
<title>Node2</title>
<g id="a_node2"><a xlink:href="classv8_1_1internal_1_1Zone.html#a619ca7387e66c82e86240c2af8f3f10f" target="_top" xlink:title=" ">
<polygon fill="white" stroke="black" points="211.5,-50 211.5,-69 342.5,-69 342.5,-50 211.5,-50"/>
<text text-anchor="middle" x="277" y="-57" font-family="Helvetica,sans-Serif" font-size="10.00">v8::internal::Zone::New</text>
</a>
</g>
</g>
<!-- Node1&#45;&gt;Node2 -->
<g id="edge1" class="edge">
<title>Node1&#45;&gt;Node2</title>
<path fill="none" stroke="midnightblue" d="M152.23,-45.82C168.21,-47.58 185.08,-49.45 201.05,-51.21"/>
<polygon fill="midnightblue" stroke="midnightblue" points="201.08,-54.74 211.4,-52.36 201.85,-47.78 201.08,-54.74"/>
</g>
<!-- Node3 -->
<g id="node3" class="node">
<title>Node3</title>
<g id="a_node3"><a xlink:href="classv8_1_1internal_1_1compiler_1_1SimplifiedOperatorBuilder.html#a6fafda30d0400ba741daed937db33766" target="_top" xlink:title=" ">
<polygon fill="white" stroke="black" points="188,-0.5 188,-30.5 366,-30.5 366,-0.5 188,-0.5"/>
<text text-anchor="start" x="196" y="-18.5" font-family="Helvetica,sans-Serif" font-size="10.00">v8::internal::compiler</text>
<text text-anchor="middle" x="277" y="-7.5" font-family="Helvetica,sans-Serif" font-size="10.00">::SimplifiedOperatorBuilder::zone</text>
</a>
</g>
</g>
<!-- Node1&#45;&gt;Node3 -->
<g id="edge2" class="edge">
<title>Node1&#45;&gt;Node3</title>
<path fill="none" stroke="midnightblue" d="M152.23,-29.18C160.62,-28.26 169.25,-27.3 177.87,-26.35"/>
<polygon fill="midnightblue" stroke="midnightblue" points="178.41,-29.81 187.96,-25.23 177.64,-22.85 178.41,-29.81"/>
</g>
</g>
</svg>
