<?xml version="1.0" encoding="UTF-8" standalone="no"?>
<!DOCTYPE svg PUBLIC "-//W3C//DTD SVG 1.1//EN"
 "http://www.w3.org/Graphics/SVG/1.1/DTD/svg11.dtd">
<!-- Generated by graphviz version 2.43.0 (0)
 -->
<!-- Title: v8::internal::maglev::MergePointInterpreterFrameState::PrintVirtualObjects Pages: 1 -->
<!--zoomable 284 -->
<svg id="main" version="1.1" xmlns="http://www.w3.org/2000/svg" xmlns:xlink="http://www.w3.org/1999/xlink" xml:space="preserve" onload="init(evt)">
<style type="text/css"><![CDATA[
.edge:hover path { stroke: red; }
.edge:hover polygon { stroke: red; fill: red; }
]]></style>
<script type="text/javascript"><![CDATA[
var edges = document.getElementsByTagName('g');
if (edges && edges.length) {
  for (var i=0;i<edges.length;i++) {
    if (edges[i].id.substr(0,4)=='edge') {
      edges[i].setAttribute('class','edge');
    }
  }
}
]]></script>
        <defs>
                <circle id="rim" cx="0" cy="0" r="7"/>
                <circle id="rim2" cx="0" cy="0" r="3.5"/>
                <g id="zoomPlus">
                        <use xlink:href="#rim" fill="#404040">
                                <set attributeName="fill" to="#808080" begin="zoomplus.mouseover" end="zoomplus.mouseout"/>
                        </use>
                        <path d="M-4,0h8M0,-4v8" fill="none" stroke="white" stroke-width="1.5" pointer-events="none"/>
                </g>
                <g id="zoomMin">
                        <use xlink:href="#rim" fill="#404040">
                                <set attributeName="fill" to="#808080" begin="zoomminus.mouseover" end="zoomminus.mouseout"/>
                        </use>
                        <path d="M-4,0h8" fill="none" stroke="white" stroke-width="1.5" pointer-events="none"/>
                </g>
                <g id="dirArrow">
                        <path fill="none" stroke="white" stroke-width="1.5" d="M0,-3.0v7 M-2.5,-0.5L0,-3.0L2.5,-0.5"/>
                </g>
               <g id="resetDef">
                       <use xlink:href="#rim2" fill="#404040">
                               <set attributeName="fill" to="#808080" begin="reset.mouseover" end="reset.mouseout"/>
                       </use>
               </g>
        </defs>

<script type="text/javascript">
var viewWidth = 718;
var viewHeight = 284;
var sectionId = 'dynsection-77';
</script>
<script xlink:href="svgpan.js"/>
<svg id="graph" class="graph">
<g id="viewport">
<title>v8::internal::maglev::MergePointInterpreterFrameState::PrintVirtualObjects</title>
<polygon fill="white" stroke="transparent" points="-4,4 -4,-280 714,-280 714,4 -4,4"/>
<!-- Node1 -->
<g id="node1" class="node">
<title>Node1</title>
<g id="a_node1"><a xlink:title=" ">
<polygon fill="#bfbfbf" stroke="black" points="0,-89 0,-130 161,-130 161,-89 0,-89"/>
<text text-anchor="start" x="8" y="-118" font-family="Helvetica,sans-Serif" font-size="10.00">v8::internal::maglev</text>
<text text-anchor="start" x="8" y="-107" font-family="Helvetica,sans-Serif" font-size="10.00">::MergePointInterpreterFrame</text>
<text text-anchor="middle" x="80.5" y="-96" font-family="Helvetica,sans-Serif" font-size="10.00">State::PrintVirtualObjects</text>
</a>
</g>
</g>
<!-- Node2 -->
<g id="node2" class="node">
<title>Node2</title>
<g id="a_node2"><a xlink:href="classv8_1_1internal_1_1maglev_1_1VirtualObjectList.html#a48cf98578757054dbc8957bf6b930511" target="_top" xlink:title=" ">
<polygon fill="white" stroke="black" points="218,-122.5 218,-152.5 350,-152.5 350,-122.5 218,-122.5"/>
<text text-anchor="start" x="226" y="-140.5" font-family="Helvetica,sans-Serif" font-size="10.00">v8::internal::maglev</text>
<text text-anchor="middle" x="284" y="-129.5" font-family="Helvetica,sans-Serif" font-size="10.00">::VirtualObjectList::Print</text>
</a>
</g>
</g>
<!-- Node1&#45;&gt;Node2 -->
<g id="edge1" class="edge">
<title>Node1&#45;&gt;Node2</title>
<path fill="none" stroke="midnightblue" d="M161.14,-120.57C176.42,-122.69 192.38,-124.91 207.53,-127.01"/>
<polygon fill="midnightblue" stroke="midnightblue" points="207.48,-130.54 217.87,-128.45 208.45,-123.61 207.48,-130.54"/>
</g>
<!-- Node13 -->
<g id="node10" class="node">
<title>Node13</title>
<g id="a_node10"><a xlink:href="classv8_1_1internal_1_1maglev_1_1CompactInterpreterFrameState.html#ad9f1a10b8fcc5bf0633a9d3e34e58957" target="_top" xlink:title=" ">
<polygon fill="white" stroke="black" points="197,-62 197,-103 371,-103 371,-62 197,-62"/>
<text text-anchor="start" x="205" y="-91" font-family="Helvetica,sans-Serif" font-size="10.00">v8::internal::maglev</text>
<text text-anchor="start" x="205" y="-80" font-family="Helvetica,sans-Serif" font-size="10.00">::CompactInterpreterFrameState</text>
<text text-anchor="middle" x="284" y="-69" font-family="Helvetica,sans-Serif" font-size="10.00">::virtual_objects</text>
</a>
</g>
</g>
<!-- Node1&#45;&gt;Node13 -->
<g id="edge9" class="edge">
<title>Node1&#45;&gt;Node13</title>
<path fill="none" stroke="midnightblue" d="M161.14,-98.83C169.6,-97.7 178.27,-96.53 186.89,-95.38"/>
<polygon fill="midnightblue" stroke="midnightblue" points="187.53,-98.82 196.98,-94.03 186.6,-91.89 187.53,-98.82"/>
</g>
<!-- Node3 -->
<g id="node3" class="node">
<title>Node3</title>
<g id="a_node3"><a xlink:href="classv8_1_1internal_1_1maglev_1_1MaglevGraphLabeller.html#af73e37e0ae4e5de7b9692cad0d3bda5d" target="_top" xlink:title=" ">
<polygon fill="white" stroke="black" points="407,-117 407,-158 534,-158 534,-117 407,-117"/>
<text text-anchor="start" x="415" y="-146" font-family="Helvetica,sans-Serif" font-size="10.00">v8::internal::maglev</text>
<text text-anchor="start" x="415" y="-135" font-family="Helvetica,sans-Serif" font-size="10.00">::MaglevGraphLabeller</text>
<text text-anchor="middle" x="470.5" y="-124" font-family="Helvetica,sans-Serif" font-size="10.00">::PrintNodeLabel</text>
</a>
</g>
</g>
<!-- Node2&#45;&gt;Node3 -->
<g id="edge2" class="edge">
<title>Node2&#45;&gt;Node3</title>
<path fill="none" stroke="midnightblue" d="M350.05,-137.5C365.2,-137.5 381.42,-137.5 396.87,-137.5"/>
<polygon fill="midnightblue" stroke="midnightblue" points="396.9,-141 406.9,-137.5 396.9,-134 396.9,-141"/>
</g>
<!-- Node4 -->
<g id="node4" class="node">
<title>Node4</title>
<g id="a_node4"><a xlink:href="classv8_1_1internal_1_1maglev_1_1VirtualObject.html#aa6a6fa8b75f5cd81a0993d97c50f4b3f" target="_top" xlink:title=" ">
<polygon fill="white" stroke="black" points="570,-245.5 570,-275.5 710,-275.5 710,-245.5 570,-245.5"/>
<text text-anchor="start" x="578" y="-263.5" font-family="Helvetica,sans-Serif" font-size="10.00">v8::internal::maglev</text>
<text text-anchor="middle" x="640" y="-252.5" font-family="Helvetica,sans-Serif" font-size="10.00">::VirtualObject::allocation</text>
</a>
</g>
</g>
<!-- Node3&#45;&gt;Node4 -->
<g id="edge3" class="edge">
<title>Node3&#45;&gt;Node4</title>
<path fill="none" stroke="midnightblue" d="M487.15,-158.06C505,-180.23 536.13,-215.2 570,-236.5 572.6,-238.14 575.33,-239.68 578.13,-241.12"/>
<polygon fill="midnightblue" stroke="midnightblue" points="576.76,-244.35 587.3,-245.45 579.74,-238.02 576.76,-244.35"/>
</g>
<!-- Node5 -->
<g id="node5" class="node">
<title>Node5</title>
<g id="a_node5"><a xlink:href="classv8_1_1internal_1_1maglev_1_1NodeBase.html#ab69dfd83fc1e566e5e431350fb4fe733" target="_top" xlink:title=" ">
<polygon fill="white" stroke="red" points="582.5,-196.5 582.5,-226.5 697.5,-226.5 697.5,-196.5 582.5,-196.5"/>
<text text-anchor="start" x="590.5" y="-214.5" font-family="Helvetica,sans-Serif" font-size="10.00">v8::internal::maglev</text>
<text text-anchor="middle" x="640" y="-203.5" font-family="Helvetica,sans-Serif" font-size="10.00">::NodeBase::Cast</text>
</a>
</g>
</g>
<!-- Node3&#45;&gt;Node5 -->
<g id="edge4" class="edge">
<title>Node3&#45;&gt;Node5</title>
<path fill="none" stroke="midnightblue" d="M509.29,-158.19C527.39,-167.71 549.53,-178.79 570,-187.5 574.37,-189.36 578.93,-191.18 583.54,-192.95"/>
<polygon fill="midnightblue" stroke="midnightblue" points="582.42,-196.27 593.02,-196.48 584.87,-189.71 582.42,-196.27"/>
</g>
<!-- Node7 -->
<g id="node6" class="node">
<title>Node7</title>
<g id="a_node6"><a xlink:href="classv8_1_1internal_1_1maglev_1_1NodeBase.html#ace5ac957234f4b72ecb823938864b15c" target="_top" xlink:title=" ">
<polygon fill="white" stroke="black" points="582.5,-147.5 582.5,-177.5 697.5,-177.5 697.5,-147.5 582.5,-147.5"/>
<text text-anchor="start" x="590.5" y="-165.5" font-family="Helvetica,sans-Serif" font-size="10.00">v8::internal::maglev</text>
<text text-anchor="middle" x="640" y="-154.5" font-family="Helvetica,sans-Serif" font-size="10.00">::NodeBase::has_id</text>
</a>
</g>
</g>
<!-- Node3&#45;&gt;Node7 -->
<g id="edge5" class="edge">
<title>Node3&#45;&gt;Node7</title>
<path fill="none" stroke="midnightblue" d="M534.35,-146.88C546.8,-148.74 559.91,-150.7 572.48,-152.57"/>
<polygon fill="midnightblue" stroke="midnightblue" points="572.01,-156.04 582.42,-154.06 573.05,-149.12 572.01,-156.04"/>
</g>
<!-- Node8 -->
<g id="node7" class="node">
<title>Node8</title>
<g id="a_node7"><a xlink:href="classv8_1_1internal_1_1maglev_1_1NodeBase.html#a6f6b3d7f22a0a34aecd6b463a32f4311" target="_top" xlink:title=" ">
<polygon fill="white" stroke="black" points="582.5,-98.5 582.5,-128.5 697.5,-128.5 697.5,-98.5 582.5,-98.5"/>
<text text-anchor="start" x="590.5" y="-116.5" font-family="Helvetica,sans-Serif" font-size="10.00">v8::internal::maglev</text>
<text text-anchor="middle" x="640" y="-105.5" font-family="Helvetica,sans-Serif" font-size="10.00">::NodeBase::id</text>
</a>
</g>
</g>
<!-- Node3&#45;&gt;Node8 -->
<g id="edge6" class="edge">
<title>Node3&#45;&gt;Node8</title>
<path fill="none" stroke="midnightblue" d="M534.35,-128.5C546.8,-126.71 559.91,-124.83 572.48,-123.03"/>
<polygon fill="midnightblue" stroke="midnightblue" points="573.02,-126.49 582.42,-121.61 572.03,-119.56 573.02,-126.49"/>
</g>
<!-- Node9 -->
<g id="node8" class="node">
<title>Node9</title>
<g id="a_node8"><a xlink:href="classv8_1_1internal_1_1maglev_1_1VirtualObject.html#a9cde26cf5c9364ef4c56b56add091f68" target="_top" xlink:title=" ">
<polygon fill="white" stroke="black" points="582.5,-49.5 582.5,-79.5 697.5,-79.5 697.5,-49.5 582.5,-49.5"/>
<text text-anchor="start" x="590.5" y="-67.5" font-family="Helvetica,sans-Serif" font-size="10.00">v8::internal::maglev</text>
<text text-anchor="middle" x="640" y="-56.5" font-family="Helvetica,sans-Serif" font-size="10.00">::VirtualObject::id</text>
</a>
</g>
</g>
<!-- Node3&#45;&gt;Node9 -->
<g id="edge7" class="edge">
<title>Node3&#45;&gt;Node9</title>
<path fill="none" stroke="midnightblue" d="M511.31,-116.91C529.07,-108.03 550.38,-97.81 570,-89.5 575.06,-87.36 580.37,-85.23 585.71,-83.17"/>
<polygon fill="midnightblue" stroke="midnightblue" points="587.18,-86.35 595.29,-79.54 584.7,-79.81 587.18,-86.35"/>
</g>
<!-- Node10 -->
<g id="node9" class="node">
<title>Node10</title>
<g id="a_node9"><a xlink:href="classv8_1_1internal_1_1maglev_1_1NodeBase.html#a317252af8f98deb2e31a8b5b5aee3c2d" target="_top" xlink:title=" ">
<polygon fill="white" stroke="red" points="582.5,-0.5 582.5,-30.5 697.5,-30.5 697.5,-0.5 582.5,-0.5"/>
<text text-anchor="start" x="590.5" y="-18.5" font-family="Helvetica,sans-Serif" font-size="10.00">v8::internal::maglev</text>
<text text-anchor="middle" x="640" y="-7.5" font-family="Helvetica,sans-Serif" font-size="10.00">::NodeBase::Is</text>
</a>
</g>
</g>
<!-- Node3&#45;&gt;Node10 -->
<g id="edge8" class="edge">
<title>Node3&#45;&gt;Node10</title>
<path fill="none" stroke="midnightblue" d="M487.95,-116.66C506.03,-94.99 536.91,-61.37 570,-40.5 573.15,-38.51 576.48,-36.66 579.9,-34.92"/>
<polygon fill="midnightblue" stroke="midnightblue" points="581.56,-38.01 589.15,-30.62 578.61,-31.67 581.56,-38.01"/>
</g>
</g>
</svg>
        <g id="navigator" transform="translate(0 0)" fill="#404254">
                <rect fill="#f2f5e9" fill-opacity="0.5" stroke="#606060" stroke-width=".5" x="0" y="0" width="60" height="60"/>
                <use id="zoomplus" xlink:href="#zoomPlus" x="17" y="9" onmousedown="handleZoom(evt,'in')"/>
                <use id="zoomminus" xlink:href="#zoomMin" x="42" y="9" onmousedown="handleZoom(evt,'out')"/>
                <use id="reset" xlink:href="#resetDef" x="30" y="36" onmousedown="handleReset()"/>
                <g id="arrowUp" xlink:href="#dirArrow" transform="translate(30 24)" onmousedown="handlePan(0,-1)">
                  <use xlink:href="#rim" fill="#404040">
                        <set attributeName="fill" to="#808080" begin="arrowUp.mouseover" end="arrowUp.mouseout"/>
                  </use>
                  <path fill="none" stroke="white" stroke-width="1.5" d="M0,-3.0v7 M-2.5,-0.5L0,-3.0L2.5,-0.5"/>
                </g>
                <g id="arrowRight" xlink:href="#dirArrow" transform="rotate(90) translate(36 -43)" onmousedown="handlePan(1,0)">
                  <use xlink:href="#rim" fill="#404040">
                        <set attributeName="fill" to="#808080" begin="arrowRight.mouseover" end="arrowRight.mouseout"/>
                  </use>
                  <path fill="none" stroke="white" stroke-width="1.5" d="M0,-3.0v7 M-2.5,-0.5L0,-3.0L2.5,-0.5"/>
                </g>
                <g id="arrowDown" xlink:href="#dirArrow" transform="rotate(180) translate(-30 -48)" onmousedown="handlePan(0,1)">
                  <use xlink:href="#rim" fill="#404040">
                        <set attributeName="fill" to="#808080" begin="arrowDown.mouseover" end="arrowDown.mouseout"/>
                  </use>
                  <path fill="none" stroke="white" stroke-width="1.5" d="M0,-3.0v7 M-2.5,-0.5L0,-3.0L2.5,-0.5"/>
                </g>
                <g id="arrowLeft" xlink:href="#dirArrow" transform="rotate(270) translate(-36 17)" onmousedown="handlePan(-1,0)">
                  <use xlink:href="#rim" fill="#404040">
                        <set attributeName="fill" to="#808080" begin="arrowLeft.mouseover" end="arrowLeft.mouseout"/>
                  </use>
                  <path fill="none" stroke="white" stroke-width="1.5" d="M0,-3.0v7 M-2.5,-0.5L0,-3.0L2.5,-0.5"/>
                </g>
        </g>
        <svg viewBox="0 0 15 15" width="100%" height="30px" preserveAspectRatio="xMaxYMin meet">
         <g id="arrow_out" transform="scale(0.3 0.3)">
          <a xlink:href="classv8_1_1internal_1_1maglev_1_1MergePointInterpreterFrameState_ac7a209913c438267fad217498d7c5655_cgraph_org.svg" target="_base">
           <rect id="button" ry="5" rx="5" y="6" x="6" height="38" width="38"
                fill="#f2f5e9" fill-opacity="0.5" stroke="#606060" stroke-width="1.0"/>
           <path id="arrow"
             d="M 11.500037,31.436501 C 11.940474,20.09759 22.043105,11.32322 32.158766,21.979434 L 37.068811,17.246167 C 37.068811,17.246167 37.088388,32 37.088388,32 L 22.160133,31.978069 C 22.160133,31.978069 26.997745,27.140456 26.997745,27.140456 C 18.528582,18.264221 13.291696,25.230495 11.500037,31.436501 z"
             style="fill:#404040;"/>
          </a>
         </g>
        </svg>
</svg>
