<?xml version="1.0" encoding="UTF-8" standalone="no"?>
<!DOCTYPE svg PUBLIC "-//W3C//DTD SVG 1.1//EN"
 "http://www.w3.org/Graphics/SVG/1.1/DTD/svg11.dtd">
<!-- Generated by graphviz version 2.43.0 (0)
 -->
<!-- Title: cppgc::internal::CompactionWorklists::movable_slots_worklist Pages: 1 -->
<svg width="358pt" height="50pt"
 viewBox="0.00 0.00 358.00 50.00" xmlns="http://www.w3.org/2000/svg" xmlns:xlink="http://www.w3.org/1999/xlink">
<g id="graph0" class="graph" transform="scale(1 1) rotate(0) translate(4 46)">
<title>cppgc::internal::CompactionWorklists::movable_slots_worklist</title>
<polygon fill="white" stroke="transparent" points="-4,4 -4,-46 354,-46 354,4 -4,4"/>
<!-- Node1 -->
<g id="node1" class="node">
<title>Node1</title>
<g id="a_node1"><a xlink:title=" ">
<polygon fill="#bfbfbf" stroke="black" points="197,-0.5 197,-41.5 350,-41.5 350,-0.5 197,-0.5"/>
<text text-anchor="start" x="205" y="-29.5" font-family="Helvetica,sans-Serif" font-size="10.00">cppgc::internal::Compaction</text>
<text text-anchor="start" x="205" y="-18.5" font-family="Helvetica,sans-Serif" font-size="10.00">Worklists::movable_slots</text>
<text text-anchor="middle" x="273.5" y="-7.5" font-family="Helvetica,sans-Serif" font-size="10.00">_worklist</text>
</a>
</g>
</g>
<!-- Node2 -->
<g id="node2" class="node">
<title>Node2</title>
<g id="a_node2"><a xlink:href="classcppgc_1_1internal_1_1BasicMarkingState.html#a0830cd4cb3869fa644ffbdf94cad27ff" target="_top" xlink:title=" ">
<polygon fill="white" stroke="black" points="0,-6 0,-36 161,-36 161,-6 0,-6"/>
<text text-anchor="start" x="8" y="-24" font-family="Helvetica,sans-Serif" font-size="10.00">cppgc::internal::BasicMarking</text>
<text text-anchor="middle" x="80.5" y="-13" font-family="Helvetica,sans-Serif" font-size="10.00">State::BasicMarkingState</text>
</a>
</g>
</g>
<!-- Node1&#45;&gt;Node2 -->
<g id="edge1" class="edge">
<title>Node1&#45;&gt;Node2</title>
<path fill="none" stroke="midnightblue" d="M186.54,-21C178.12,-21 169.6,-21 161.25,-21"/>
<polygon fill="midnightblue" stroke="midnightblue" points="186.74,-24.5 196.74,-21 186.74,-17.5 186.74,-24.5"/>
</g>
</g>
</svg>
