<?xml version="1.0" encoding="UTF-8" standalone="no"?>
<!DOCTYPE svg PUBLIC "-//W3C//DTD SVG 1.1//EN"
 "http://www.w3.org/Graphics/SVG/1.1/DTD/svg11.dtd">
<!-- Generated by graphviz version 2.43.0 (0)
 -->
<!-- Title: v8::EnterV8NoScriptScope&lt; HandleScopeClass &gt; Pages: 1 -->
<svg width="444pt" height="612pt"
 viewBox="0.00 0.00 443.50 612.00" xmlns="http://www.w3.org/2000/svg" xmlns:xlink="http://www.w3.org/1999/xlink">
<g id="graph0" class="graph" transform="scale(1 1) rotate(0) translate(4 608)">
<title>v8::EnterV8NoScriptScope&lt; HandleScopeClass &gt;</title>
<polygon fill="white" stroke="transparent" points="-4,4 -4,-608 439.5,-608 439.5,4 -4,4"/>
<!-- Node1 -->
<g id="node1" class="node">
<title>Node1</title>
<g id="a_node1"><a xlink:title=" ">
<polygon fill="#bfbfbf" stroke="black" points="244.5,-0.5 244.5,-68.5 388.5,-68.5 388.5,-0.5 244.5,-0.5"/>
<text text-anchor="start" x="252.5" y="-56.5" font-family="Helvetica,sans-Serif" font-size="10.00">v8::EnterV8NoScriptScope</text>
<text text-anchor="middle" x="316.5" y="-45.5" font-family="Helvetica,sans-Serif" font-size="10.00">&lt; HandleScopeClass &gt;</text>
<polyline fill="none" stroke="black" points="244.5,-38.5 388.5,-38.5 "/>
<text text-anchor="middle" x="316.5" y="-26.5" font-family="Helvetica,sans-Serif" font-size="10.00"> </text>
<polyline fill="none" stroke="black" points="244.5,-19.5 388.5,-19.5 "/>
<text text-anchor="start" x="252.5" y="-7.5" font-family="Helvetica,sans-Serif" font-size="10.00">+ EnterV8NoScriptScope()</text>
</a>
</g>
</g>
<!-- Node2 -->
<g id="node2" class="node">
<title>Node2</title>
<g id="a_node2"><a xlink:href="classv8_1_1EnterV8InternalScope.html" target="_top" xlink:title=" ">
<polygon fill="white" stroke="black" points="121.5,-116.5 121.5,-261.5 263.5,-261.5 263.5,-116.5 121.5,-116.5"/>
<text text-anchor="start" x="129.5" y="-249.5" font-family="Helvetica,sans-Serif" font-size="10.00">v8::EnterV8InternalScope</text>
<text text-anchor="middle" x="192.5" y="-238.5" font-family="Helvetica,sans-Serif" font-size="10.00">&lt; i::HandleScope, false &gt;</text>
<polyline fill="none" stroke="black" points="121.5,-231.5 263.5,-231.5 "/>
<text text-anchor="start" x="129.5" y="-219.5" font-family="Helvetica,sans-Serif" font-size="10.00">&#45; handle_scope_</text>
<text text-anchor="start" x="129.5" y="-208.5" font-family="Helvetica,sans-Serif" font-size="10.00">&#45; call_depth_scope_</text>
<text text-anchor="start" x="129.5" y="-197.5" font-family="Helvetica,sans-Serif" font-size="10.00">&#45; vm_state_</text>
<polyline fill="none" stroke="black" points="121.5,-190.5 263.5,-190.5 "/>
<text text-anchor="start" x="129.5" y="-178.5" font-family="Helvetica,sans-Serif" font-size="10.00">+ EnterV8InternalScope()</text>
<text text-anchor="start" x="129.5" y="-167.5" font-family="Helvetica,sans-Serif" font-size="10.00">+ EnterV8InternalScope()</text>
<text text-anchor="start" x="129.5" y="-156.5" font-family="Helvetica,sans-Serif" font-size="10.00">+ Escape()</text>
<text text-anchor="start" x="129.5" y="-145.5" font-family="Helvetica,sans-Serif" font-size="10.00">+ EscapeMaybe()</text>
<text text-anchor="start" x="129.5" y="-134.5" font-family="Helvetica,sans-Serif" font-size="10.00">+ EscapeMaybe()</text>
<text text-anchor="start" x="129.5" y="-123.5" font-family="Helvetica,sans-Serif" font-size="10.00">+ requires()</text>
</a>
</g>
</g>
<!-- Node2&#45;&gt;Node1 -->
<g id="edge1" class="edge">
<title>Node2&#45;&gt;Node1</title>
<path fill="none" stroke="midnightblue" d="M257.24,-108.38C268.69,-94.3 280.02,-80.36 289.66,-68.51"/>
<polygon fill="none" stroke="midnightblue" points="254.46,-106.25 250.87,-116.22 259.89,-110.66 254.46,-106.25"/>
</g>
<!-- Node3 -->
<g id="node3" class="node">
<title>Node3</title>
<g id="a_node3"><a xlink:href="classv8_1_1EnterV8InternalScope.html" target="_top" xlink:title=" ">
<polygon fill="white" stroke="black" points="122.5,-309.5 122.5,-443.5 262.5,-443.5 262.5,-309.5 122.5,-309.5"/>
<text text-anchor="start" x="130.5" y="-431.5" font-family="Helvetica,sans-Serif" font-size="10.00">v8::EnterV8InternalScope</text>
<text text-anchor="start" x="130.5" y="-420.5" font-family="Helvetica,sans-Serif" font-size="10.00">&lt; HandleScopeClass, do</text>
<text text-anchor="middle" x="192.5" y="-409.5" font-family="Helvetica,sans-Serif" font-size="10.00">_callback &gt;</text>
<polyline fill="none" stroke="black" points="122.5,-402.5 262.5,-402.5 "/>
<text text-anchor="middle" x="192.5" y="-390.5" font-family="Helvetica,sans-Serif" font-size="10.00"> </text>
<polyline fill="none" stroke="black" points="122.5,-383.5 262.5,-383.5 "/>
<text text-anchor="start" x="130.5" y="-371.5" font-family="Helvetica,sans-Serif" font-size="10.00">+ EnterV8InternalScope()</text>
<text text-anchor="start" x="130.5" y="-360.5" font-family="Helvetica,sans-Serif" font-size="10.00">+ EnterV8InternalScope()</text>
<text text-anchor="start" x="130.5" y="-349.5" font-family="Helvetica,sans-Serif" font-size="10.00">+ Escape()</text>
<text text-anchor="start" x="130.5" y="-338.5" font-family="Helvetica,sans-Serif" font-size="10.00">+ EscapeMaybe()</text>
<text text-anchor="start" x="130.5" y="-327.5" font-family="Helvetica,sans-Serif" font-size="10.00">+ requires()</text>
<text text-anchor="start" x="130.5" y="-316.5" font-family="Helvetica,sans-Serif" font-size="10.00">+ EscapeMaybe()</text>
</a>
</g>
</g>
<!-- Node3&#45;&gt;Node2 -->
<g id="edge2" class="edge">
<title>Node3&#45;&gt;Node2</title>
<path fill="none" stroke="orange" d="M192.5,-299.01C192.5,-286.6 192.5,-273.79 192.5,-261.5"/>
<polygon fill="orange" stroke="orange" points="189,-299.32 192.5,-309.32 196,-299.32 189,-299.32"/>
<text text-anchor="middle" x="257" y="-283" font-family="Helvetica,sans-Serif" font-size="10.00"> &lt; i::HandleScope, false &gt;</text>
</g>
<!-- Node4 -->
<g id="node4" class="node">
<title>Node4</title>
<g id="a_node4"><a xlink:title=" ">
<polygon fill="white" stroke="#bfbfbf" points="0,-519 0,-576 107,-576 107,-519 0,-519"/>
<text text-anchor="middle" x="53.5" y="-564" font-family="Helvetica,sans-Serif" font-size="10.00">HandleScopeClass</text>
<polyline fill="none" stroke="#bfbfbf" points="0,-557 107,-557 "/>
<text text-anchor="middle" x="53.5" y="-545" font-family="Helvetica,sans-Serif" font-size="10.00"> </text>
<polyline fill="none" stroke="#bfbfbf" points="0,-538 107,-538 "/>
<text text-anchor="middle" x="53.5" y="-526" font-family="Helvetica,sans-Serif" font-size="10.00"> </text>
</a>
</g>
</g>
<!-- Node4&#45;&gt;Node3 -->
<g id="edge3" class="edge">
<title>Node4&#45;&gt;Node3</title>
<path fill="none" stroke="#404040" d="M69.9,-518.94C80.45,-501.95 94.88,-480.05 109.5,-462 111.96,-458.96 114.51,-455.91 117.13,-452.87"/>
<polygon fill="none" stroke="#404040" points="117.22,-452.77 118.18,-445.62 125.14,-443.76 124.18,-450.9 117.22,-452.77"/>
<text text-anchor="middle" x="149" y="-465" font-family="Helvetica,sans-Serif" font-size="10.00"> &#45;handle_scope_</text>
</g>
<!-- Node5 -->
<g id="node5" class="node">
<title>Node5</title>
<g id="a_node5"><a xlink:href="classv8_1_1internal_1_1VMState.html" target="_top" xlink:title=" ">
<polygon fill="white" stroke="red" points="125,-491.5 125,-603.5 260,-603.5 260,-491.5 125,-491.5"/>
<text text-anchor="start" x="133" y="-591.5" font-family="Helvetica,sans-Serif" font-size="10.00">v8::internal::VMState</text>
<text text-anchor="middle" x="192.5" y="-580.5" font-family="Helvetica,sans-Serif" font-size="10.00">&lt; v8::OTHER &gt;</text>
<polyline fill="none" stroke="red" points="125,-573.5 260,-573.5 "/>
<text text-anchor="start" x="133" y="-561.5" font-family="Helvetica,sans-Serif" font-size="10.00">&#45; isolate_</text>
<text text-anchor="start" x="133" y="-550.5" font-family="Helvetica,sans-Serif" font-size="10.00">&#45; previous_tag_</text>
<text text-anchor="start" x="133" y="-539.5" font-family="Helvetica,sans-Serif" font-size="10.00">&#45; ExternalCallbackScope</text>
<polyline fill="none" stroke="red" points="125,-532.5 260,-532.5 "/>
<text text-anchor="start" x="133" y="-520.5" font-family="Helvetica,sans-Serif" font-size="10.00">+ VMState()</text>
<text text-anchor="start" x="133" y="-509.5" font-family="Helvetica,sans-Serif" font-size="10.00">+ ~VMState()</text>
<text text-anchor="start" x="133" y="-498.5" font-family="Helvetica,sans-Serif" font-size="10.00">+ isolate()</text>
</a>
</g>
</g>
<!-- Node5&#45;&gt;Node3 -->
<g id="edge4" class="edge">
<title>Node5&#45;&gt;Node3</title>
<path fill="none" stroke="#404040" d="M192.5,-491.16C192.5,-479.87 192.5,-467.79 192.5,-455.88"/>
<polygon fill="none" stroke="#404040" points="192.5,-455.56 188.5,-449.56 192.5,-443.56 196.5,-449.56 192.5,-455.56"/>
<text text-anchor="middle" x="221.5" y="-465" font-family="Helvetica,sans-Serif" font-size="10.00"> &#45;vm_state_</text>
</g>
<!-- Node657 -->
<g id="node6" class="node">
<title>Node657</title>
<g id="a_node6"><a xlink:title=" ">
<polygon fill="white" stroke="#bfbfbf" points="278,-513.5 278,-581.5 395,-581.5 395,-513.5 278,-513.5"/>
<text text-anchor="start" x="286" y="-569.5" font-family="Helvetica,sans-Serif" font-size="10.00">CallDepthScope&lt; do</text>
<text text-anchor="middle" x="336.5" y="-558.5" font-family="Helvetica,sans-Serif" font-size="10.00">_callback &gt;</text>
<polyline fill="none" stroke="#bfbfbf" points="278,-551.5 395,-551.5 "/>
<text text-anchor="middle" x="336.5" y="-539.5" font-family="Helvetica,sans-Serif" font-size="10.00"> </text>
<polyline fill="none" stroke="#bfbfbf" points="278,-532.5 395,-532.5 "/>
<text text-anchor="middle" x="336.5" y="-520.5" font-family="Helvetica,sans-Serif" font-size="10.00"> </text>
</a>
</g>
</g>
<!-- Node657&#45;&gt;Node3 -->
<g id="edge5" class="edge">
<title>Node657&#45;&gt;Node3</title>
<path fill="none" stroke="#404040" d="M308.05,-513.11C293.34,-495.85 274.75,-474.03 256.8,-452.97"/>
<polygon fill="none" stroke="#404040" points="256.68,-452.82 249.74,-450.84 248.89,-443.68 255.83,-445.66 256.68,-452.82"/>
<text text-anchor="middle" x="322" y="-465" font-family="Helvetica,sans-Serif" font-size="10.00"> &#45;call_depth_scope_</text>
</g>
<!-- Node658 -->
<g id="node7" class="node">
<title>Node658</title>
<g id="a_node7"><a xlink:title=" ">
<polygon fill="white" stroke="#bfbfbf" points="281.5,-155 281.5,-223 435.5,-223 435.5,-155 281.5,-155"/>
<text text-anchor="start" x="289.5" y="-211" font-family="Helvetica,sans-Serif" font-size="10.00">DisallowJavascriptExecution</text>
<text text-anchor="middle" x="358.5" y="-200" font-family="Helvetica,sans-Serif" font-size="10.00">DebugOnly</text>
<polyline fill="none" stroke="#bfbfbf" points="281.5,-193 435.5,-193 "/>
<text text-anchor="middle" x="358.5" y="-181" font-family="Helvetica,sans-Serif" font-size="10.00"> </text>
<polyline fill="none" stroke="#bfbfbf" points="281.5,-174 435.5,-174 "/>
<text text-anchor="middle" x="358.5" y="-162" font-family="Helvetica,sans-Serif" font-size="10.00"> </text>
</a>
</g>
</g>
<!-- Node658&#45;&gt;Node1 -->
<g id="edge6" class="edge">
<title>Node658&#45;&gt;Node1</title>
<path fill="none" stroke="#404040" d="M349.39,-154.91C343.36,-133.03 335.39,-104.07 328.8,-80.16"/>
<polygon fill="none" stroke="#404040" points="328.78,-80.09 323.33,-75.37 325.6,-68.53 331.05,-73.25 328.78,-80.09"/>
<text text-anchor="middle" x="378" y="-90" font-family="Helvetica,sans-Serif" font-size="10.00"> &#45;no_script_scope_</text>
</g>
</g>
</svg>
