<?xml version="1.0" encoding="UTF-8" standalone="no"?>
<!DOCTYPE svg PUBLIC "-//W3C//DTD SVG 1.1//EN"
 "http://www.w3.org/Graphics/SVG/1.1/DTD/svg11.dtd">
<!-- Generated by graphviz version 2.43.0 (0)
 -->
<!-- Title: v8::internal::ObjectTemplateInfo Pages: 1 -->
<svg width="184pt" height="204pt"
 viewBox="0.00 0.00 184.00 204.00" xmlns="http://www.w3.org/2000/svg" xmlns:xlink="http://www.w3.org/1999/xlink">
<g id="graph0" class="graph" transform="scale(1 1) rotate(0) translate(4 200)">
<title>v8::internal::ObjectTemplateInfo</title>
<polygon fill="white" stroke="transparent" points="-4,4 -4,-200 180,-200 180,4 -4,4"/>
<!-- Node1 -->
<g id="node1" class="node">
<title>Node1</title>
<g id="a_node1"><a xlink:title=" ">
<polygon fill="#bfbfbf" stroke="black" points="1.5,-0.5 1.5,-79.5 174.5,-79.5 174.5,-0.5 1.5,-0.5"/>
<text text-anchor="middle" x="88" y="-67.5" font-family="Helvetica,sans-Serif" font-size="10.00">v8::internal::ObjectTemplateInfo</text>
<polyline fill="none" stroke="black" points="1.5,-60.5 174.5,-60.5 "/>
<text text-anchor="middle" x="88" y="-48.5" font-family="Helvetica,sans-Serif" font-size="10.00"> </text>
<polyline fill="none" stroke="black" points="1.5,-41.5 174.5,-41.5 "/>
<text text-anchor="start" x="9.5" y="-29.5" font-family="Helvetica,sans-Serif" font-size="10.00">+ GetParent()</text>
<text text-anchor="start" x="9.5" y="-18.5" font-family="Helvetica,sans-Serif" font-size="10.00">+ SealAndPrepareForPromotion</text>
<text text-anchor="start" x="9.5" y="-7.5" font-family="Helvetica,sans-Serif" font-size="10.00">ToReadOnly()</text>
</a>
</g>
</g>
<!-- Node2 -->
<g id="node2" class="node">
<title>Node2</title>
<g id="a_node2"><a xlink:href="classTorqueGeneratedObjectTemplateInfo.html" target="_top" xlink:title=" ">
<polygon fill="white" stroke="black" points="0,-116.5 0,-195.5 176,-195.5 176,-116.5 0,-116.5"/>
<text text-anchor="start" x="8" y="-183.5" font-family="Helvetica,sans-Serif" font-size="10.00">TorqueGeneratedObjectTemplate</text>
<text text-anchor="start" x="8" y="-172.5" font-family="Helvetica,sans-Serif" font-size="10.00">Info&lt; ObjectTemplateInfo,</text>
<text text-anchor="middle" x="88" y="-161.5" font-family="Helvetica,sans-Serif" font-size="10.00"> TemplateInfoWithProperties &gt;</text>
<polyline fill="none" stroke="black" points="0,-154.5 176,-154.5 "/>
<text text-anchor="middle" x="88" y="-142.5" font-family="Helvetica,sans-Serif" font-size="10.00"> </text>
<polyline fill="none" stroke="black" points="0,-135.5 176,-135.5 "/>
<text text-anchor="middle" x="88" y="-123.5" font-family="Helvetica,sans-Serif" font-size="10.00"> </text>
</a>
</g>
</g>
<!-- Node2&#45;&gt;Node1 -->
<g id="edge1" class="edge">
<title>Node2&#45;&gt;Node1</title>
<path fill="none" stroke="midnightblue" d="M88,-106.15C88,-97.26 88,-88.1 88,-79.56"/>
<polygon fill="none" stroke="midnightblue" points="84.5,-106.4 88,-116.4 91.5,-106.4 84.5,-106.4"/>
</g>
</g>
</svg>
