<?xml version="1.0" encoding="UTF-8" standalone="no"?>
<!DOCTYPE svg PUBLIC "-//W3C//DTD SVG 1.1//EN"
 "http://www.w3.org/Graphics/SVG/1.1/DTD/svg11.dtd">
<!-- Generated by graphviz version 2.43.0 (0)
 -->
<!-- Title: v8::internal::Factory::NewOrderedHashSet Pages: 1 -->
<!--zoomable 180 -->
<svg id="main" version="1.1" xmlns="http://www.w3.org/2000/svg" xmlns:xlink="http://www.w3.org/1999/xlink" xml:space="preserve" onload="init(evt)">
<style type="text/css"><![CDATA[
.edge:hover path { stroke: red; }
.edge:hover polygon { stroke: red; fill: red; }
]]></style>
<script type="text/javascript"><![CDATA[
var edges = document.getElementsByTagName('g');
if (edges && edges.length) {
  for (var i=0;i<edges.length;i++) {
    if (edges[i].id.substr(0,4)=='edge') {
      edges[i].setAttribute('class','edge');
    }
  }
}
]]></script>
        <defs>
                <circle id="rim" cx="0" cy="0" r="7"/>
                <circle id="rim2" cx="0" cy="0" r="3.5"/>
                <g id="zoomPlus">
                        <use xlink:href="#rim" fill="#404040">
                                <set attributeName="fill" to="#808080" begin="zoomplus.mouseover" end="zoomplus.mouseout"/>
                        </use>
                        <path d="M-4,0h8M0,-4v8" fill="none" stroke="white" stroke-width="1.5" pointer-events="none"/>
                </g>
                <g id="zoomMin">
                        <use xlink:href="#rim" fill="#404040">
                                <set attributeName="fill" to="#808080" begin="zoomminus.mouseover" end="zoomminus.mouseout"/>
                        </use>
                        <path d="M-4,0h8" fill="none" stroke="white" stroke-width="1.5" pointer-events="none"/>
                </g>
                <g id="dirArrow">
                        <path fill="none" stroke="white" stroke-width="1.5" d="M0,-3.0v7 M-2.5,-0.5L0,-3.0L2.5,-0.5"/>
                </g>
               <g id="resetDef">
                       <use xlink:href="#rim2" fill="#404040">
                               <set attributeName="fill" to="#808080" begin="reset.mouseover" end="reset.mouseout"/>
                       </use>
               </g>
        </defs>

<script type="text/javascript">
var viewWidth = 871;
var viewHeight = 180;
var sectionId = 'dynsection-267';
</script>
<script xlink:href="svgpan.js"/>
<svg id="graph" class="graph">
<g id="viewport">
<title>v8::internal::Factory::NewOrderedHashSet</title>
<polygon fill="white" stroke="transparent" points="-4,4 -4,-175.5 867,-175.5 867,4 -4,4"/>
<!-- Node1 -->
<g id="node1" class="node">
<title>Node1</title>
<g id="a_node1"><a xlink:title=" ">
<polygon fill="#bfbfbf" stroke="black" points="739,-49.5 739,-79.5 863,-79.5 863,-49.5 739,-49.5"/>
<text text-anchor="start" x="747" y="-67.5" font-family="Helvetica,sans-Serif" font-size="10.00">v8::internal::Factory</text>
<text text-anchor="middle" x="801" y="-56.5" font-family="Helvetica,sans-Serif" font-size="10.00">::NewOrderedHashSet</text>
</a>
</g>
</g>
<!-- Node2 -->
<g id="node2" class="node">
<title>Node2</title>
<g id="a_node2"><a xlink:href="classv8_1_1internal_1_1JSSet.html#aa21f201a1d90f8b4aded8f905ea45da4" target="_top" xlink:title=" ">
<polygon fill="white" stroke="black" points="578.5,-101.5 578.5,-131.5 681.5,-131.5 681.5,-101.5 578.5,-101.5"/>
<text text-anchor="start" x="586.5" y="-119.5" font-family="Helvetica,sans-Serif" font-size="10.00">v8::internal::JSSet</text>
<text text-anchor="middle" x="630" y="-108.5" font-family="Helvetica,sans-Serif" font-size="10.00">::Initialize</text>
</a>
</g>
</g>
<!-- Node1&#45;&gt;Node2 -->
<g id="edge1" class="edge">
<title>Node1&#45;&gt;Node2</title>
<path fill="none" stroke="midnightblue" d="M741.44,-82.52C721.32,-88.71 699.03,-95.57 679.77,-101.49"/>
<polygon fill="midnightblue" stroke="midnightblue" points="742.59,-85.83 751.12,-79.54 740.53,-79.14 742.59,-85.83"/>
</g>
<!-- Node27 -->
<g id="node6" class="node">
<title>Node27</title>
<g id="a_node6"><a xlink:href="classv8_1_1internal_1_1JsonStringifier.html#a6d041f0c745ae0da8c0a96a8d8f1fa7f" target="_top" xlink:title=" ">
<polygon fill="white" stroke="black" points="557,-49.5 557,-79.5 703,-79.5 703,-49.5 557,-49.5"/>
<text text-anchor="start" x="565" y="-67.5" font-family="Helvetica,sans-Serif" font-size="10.00">v8::internal::JsonStringifier</text>
<text text-anchor="middle" x="630" y="-56.5" font-family="Helvetica,sans-Serif" font-size="10.00">::InitializeReplacer</text>
</a>
</g>
</g>
<!-- Node1&#45;&gt;Node27 -->
<g id="edge5" class="edge">
<title>Node1&#45;&gt;Node27</title>
<path fill="none" stroke="midnightblue" d="M728.76,-64.5C720.29,-64.5 711.63,-64.5 703.15,-64.5"/>
<polygon fill="midnightblue" stroke="midnightblue" points="728.99,-68 738.99,-64.5 728.99,-61 728.99,-68"/>
</g>
<!-- Node38 -->
<g id="node10" class="node">
<title>Node38</title>
<g id="a_node10"><a xlink:href="classv8_1_1internal_1_1Heap.html#a75b6cb5815adbad1e26a5025b6dba61b" target="_top" xlink:title=" ">
<polygon fill="white" stroke="black" points="578,-0.5 578,-30.5 682,-30.5 682,-0.5 578,-0.5"/>
<text text-anchor="start" x="586" y="-18.5" font-family="Helvetica,sans-Serif" font-size="10.00">v8::internal::Heap</text>
<text text-anchor="middle" x="630" y="-7.5" font-family="Helvetica,sans-Serif" font-size="10.00">::KeepDuringJob</text>
</a>
</g>
</g>
<!-- Node1&#45;&gt;Node38 -->
<g id="edge10" class="edge">
<title>Node1&#45;&gt;Node38</title>
<path fill="none" stroke="midnightblue" d="M738.15,-46.57C719.7,-41.22 699.71,-35.42 682.04,-30.3"/>
<polygon fill="midnightblue" stroke="midnightblue" points="737.34,-49.98 747.92,-49.4 739.29,-43.25 737.34,-49.98"/>
</g>
<!-- Node3 -->
<g id="node3" class="node">
<title>Node3</title>
<g id="a_node3"><a xlink:href="classv8_1_1internal_1_1Factory.html#a7802cd37d0cca0ac0b6b393d2cc54360" target="_top" xlink:title=" ">
<polygon fill="white" stroke="black" points="391.5,-102.5 391.5,-132.5 504.5,-132.5 504.5,-102.5 391.5,-102.5"/>
<text text-anchor="start" x="399.5" y="-120.5" font-family="Helvetica,sans-Serif" font-size="10.00">v8::internal::Factory</text>
<text text-anchor="middle" x="448" y="-109.5" font-family="Helvetica,sans-Serif" font-size="10.00">::NewJSSet</text>
</a>
</g>
</g>
<!-- Node2&#45;&gt;Node3 -->
<g id="edge2" class="edge">
<title>Node2&#45;&gt;Node3</title>
<path fill="none" stroke="midnightblue" d="M568.17,-116.84C547.6,-116.95 524.75,-117.08 504.6,-117.19"/>
<polygon fill="midnightblue" stroke="midnightblue" points="568.4,-120.34 578.38,-116.78 568.36,-113.34 568.4,-120.34"/>
</g>
<!-- Node4 -->
<g id="node4" class="node">
<title>Node4</title>
<g id="a_node4"><a xlink:href="classv8_1_1Set.html#a4fa9826ffcbb58a49e9855ed86a3abac" target="_top" xlink:title="Creates a new empty Set.">
<polygon fill="white" stroke="red" points="218,-152 218,-171 296,-171 296,-152 218,-152"/>
<text text-anchor="middle" x="257" y="-159" font-family="Helvetica,sans-Serif" font-size="10.00">v8::Set::New</text>
</a>
</g>
</g>
<!-- Node3&#45;&gt;Node4 -->
<g id="edge3" class="edge">
<title>Node3&#45;&gt;Node4</title>
<path fill="none" stroke="midnightblue" d="M381.43,-132.76C352.99,-139.39 320.67,-146.91 296.24,-152.6"/>
<polygon fill="midnightblue" stroke="midnightblue" points="382.37,-136.14 391.32,-130.46 380.78,-129.32 382.37,-136.14"/>
</g>
<!-- Node10 -->
<g id="node5" class="node">
<title>Node10</title>
<g id="a_node5"><a xlink:href="classv8_1_1internal_1_1ValueDeserializer.html#af5c4b9eab16e407778a5bf6f47d4ffac" target="_top" xlink:title=" ">
<polygon fill="white" stroke="red" points="175,-102.5 175,-132.5 339,-132.5 339,-102.5 175,-102.5"/>
<text text-anchor="start" x="183" y="-120.5" font-family="Helvetica,sans-Serif" font-size="10.00">v8::internal::ValueDeserializer</text>
<text text-anchor="middle" x="257" y="-109.5" font-family="Helvetica,sans-Serif" font-size="10.00">::ReadJSSet</text>
</a>
</g>
</g>
<!-- Node3&#45;&gt;Node10 -->
<g id="edge4" class="edge">
<title>Node3&#45;&gt;Node10</title>
<path fill="none" stroke="midnightblue" d="M381.15,-117.5C367.61,-117.5 353.21,-117.5 339.2,-117.5"/>
<polygon fill="midnightblue" stroke="midnightblue" points="381.32,-121 391.32,-117.5 381.32,-114 381.32,-121"/>
</g>
<!-- Node28 -->
<g id="node7" class="node">
<title>Node28</title>
<g id="a_node7"><a xlink:href="classv8_1_1internal_1_1JsonStringifier.html#a211cdd810ecd25003ef4719808e66ffa" target="_top" xlink:title=" ">
<polygon fill="white" stroke="black" points="375,-47.5 375,-77.5 521,-77.5 521,-47.5 375,-47.5"/>
<text text-anchor="start" x="383" y="-65.5" font-family="Helvetica,sans-Serif" font-size="10.00">v8::internal::JsonStringifier</text>
<text text-anchor="middle" x="448" y="-54.5" font-family="Helvetica,sans-Serif" font-size="10.00">::Stringify</text>
</a>
</g>
</g>
<!-- Node27&#45;&gt;Node28 -->
<g id="edge6" class="edge">
<title>Node27&#45;&gt;Node28</title>
<path fill="none" stroke="midnightblue" d="M546.56,-63.58C538.09,-63.49 529.54,-63.39 521.19,-63.3"/>
<polygon fill="midnightblue" stroke="midnightblue" points="546.79,-67.09 556.82,-63.7 546.86,-60.09 546.79,-67.09"/>
</g>
<!-- Node29 -->
<g id="node8" class="node">
<title>Node29</title>
<g id="a_node8"><a xlink:href="namespacev8_1_1internal_1_1anonymous__namespace_02json-stringifier_8cc_03.html#aa488d779c529def0b8b2be19fedf15b1" target="_top" xlink:title=" ">
<polygon fill="white" stroke="black" points="179.5,-42 179.5,-83 334.5,-83 334.5,-42 179.5,-42"/>
<text text-anchor="start" x="187.5" y="-71" font-family="Helvetica,sans-Serif" font-size="10.00">v8::internal::anonymous</text>
<text text-anchor="start" x="187.5" y="-60" font-family="Helvetica,sans-Serif" font-size="10.00">_namespace{json&#45;stringifier</text>
<text text-anchor="middle" x="257" y="-49" font-family="Helvetica,sans-Serif" font-size="10.00">::cc}::FastJsonStringify</text>
</a>
</g>
</g>
<!-- Node28&#45;&gt;Node29 -->
<g id="edge7" class="edge">
<title>Node28&#45;&gt;Node29</title>
<path fill="none" stroke="midnightblue" d="M364.48,-62.5C354.56,-62.5 344.45,-62.5 334.62,-62.5"/>
<polygon fill="midnightblue" stroke="midnightblue" points="364.74,-66 374.74,-62.5 364.74,-59 364.74,-66"/>
</g>
<!-- Node30 -->
<g id="node9" class="node">
<title>Node30</title>
<g id="a_node9"><a xlink:href="namespacev8_1_1internal.html#ac2ffdf145d46f49985d5c2c3b98f41a7" target="_top" xlink:title=" ">
<polygon fill="white" stroke="red" points="0,-28 0,-47 139,-47 139,-28 0,-28"/>
<text text-anchor="middle" x="69.5" y="-35" font-family="Helvetica,sans-Serif" font-size="10.00">v8::internal::JsonStringify</text>
</a>
</g>
</g>
<!-- Node28&#45;&gt;Node30 -->
<g id="edge9" class="edge">
<title>Node28&#45;&gt;Node30</title>
<path fill="none" stroke="midnightblue" d="M393.56,-44.57C376.35,-39.63 357.05,-34.96 339,-32.5 271.55,-23.31 193.71,-26.23 139.26,-30.43"/>
<polygon fill="midnightblue" stroke="midnightblue" points="392.84,-48.01 403.43,-47.5 394.83,-41.3 392.84,-48.01"/>
</g>
<!-- Node29&#45;&gt;Node30 -->
<g id="edge8" class="edge">
<title>Node29&#45;&gt;Node30</title>
<path fill="none" stroke="midnightblue" d="M169.38,-50.83C159.23,-49.46 148.98,-48.08 139.12,-46.75"/>
<polygon fill="midnightblue" stroke="midnightblue" points="169.1,-54.32 179.48,-52.19 170.04,-47.38 169.1,-54.32"/>
</g>
</g>
</svg>
        <g id="navigator" transform="translate(0 0)" fill="#404254">
                <rect fill="#f2f5e9" fill-opacity="0.5" stroke="#606060" stroke-width=".5" x="0" y="0" width="60" height="60"/>
                <use id="zoomplus" xlink:href="#zoomPlus" x="17" y="9" onmousedown="handleZoom(evt,'in')"/>
                <use id="zoomminus" xlink:href="#zoomMin" x="42" y="9" onmousedown="handleZoom(evt,'out')"/>
                <use id="reset" xlink:href="#resetDef" x="30" y="36" onmousedown="handleReset()"/>
                <g id="arrowUp" xlink:href="#dirArrow" transform="translate(30 24)" onmousedown="handlePan(0,-1)">
                  <use xlink:href="#rim" fill="#404040">
                        <set attributeName="fill" to="#808080" begin="arrowUp.mouseover" end="arrowUp.mouseout"/>
                  </use>
                  <path fill="none" stroke="white" stroke-width="1.5" d="M0,-3.0v7 M-2.5,-0.5L0,-3.0L2.5,-0.5"/>
                </g>
                <g id="arrowRight" xlink:href="#dirArrow" transform="rotate(90) translate(36 -43)" onmousedown="handlePan(1,0)">
                  <use xlink:href="#rim" fill="#404040">
                        <set attributeName="fill" to="#808080" begin="arrowRight.mouseover" end="arrowRight.mouseout"/>
                  </use>
                  <path fill="none" stroke="white" stroke-width="1.5" d="M0,-3.0v7 M-2.5,-0.5L0,-3.0L2.5,-0.5"/>
                </g>
                <g id="arrowDown" xlink:href="#dirArrow" transform="rotate(180) translate(-30 -48)" onmousedown="handlePan(0,1)">
                  <use xlink:href="#rim" fill="#404040">
                        <set attributeName="fill" to="#808080" begin="arrowDown.mouseover" end="arrowDown.mouseout"/>
                  </use>
                  <path fill="none" stroke="white" stroke-width="1.5" d="M0,-3.0v7 M-2.5,-0.5L0,-3.0L2.5,-0.5"/>
                </g>
                <g id="arrowLeft" xlink:href="#dirArrow" transform="rotate(270) translate(-36 17)" onmousedown="handlePan(-1,0)">
                  <use xlink:href="#rim" fill="#404040">
                        <set attributeName="fill" to="#808080" begin="arrowLeft.mouseover" end="arrowLeft.mouseout"/>
                  </use>
                  <path fill="none" stroke="white" stroke-width="1.5" d="M0,-3.0v7 M-2.5,-0.5L0,-3.0L2.5,-0.5"/>
                </g>
        </g>
        <svg viewBox="0 0 15 15" width="100%" height="30px" preserveAspectRatio="xMaxYMin meet">
         <g id="arrow_out" transform="scale(0.3 0.3)">
          <a xlink:href="classv8_1_1internal_1_1Factory_a912e53bcc0bf576897691b77f4a353cd_icgraph_org.svg" target="_base">
           <rect id="button" ry="5" rx="5" y="6" x="6" height="38" width="38"
                fill="#f2f5e9" fill-opacity="0.5" stroke="#606060" stroke-width="1.0"/>
           <path id="arrow"
             d="M 11.500037,31.436501 C 11.940474,20.09759 22.043105,11.32322 32.158766,21.979434 L 37.068811,17.246167 C 37.068811,17.246167 37.088388,32 37.088388,32 L 22.160133,31.978069 C 22.160133,31.978069 26.997745,27.140456 26.997745,27.140456 C 18.528582,18.264221 13.291696,25.230495 11.500037,31.436501 z"
             style="fill:#404040;"/>
          </a>
         </g>
        </svg>
</svg>
