<?xml version="1.0" encoding="UTF-8" standalone="no"?>
<!DOCTYPE svg PUBLIC "-//W3C//DTD SVG 1.1//EN"
 "http://www.w3.org/Graphics/SVG/1.1/DTD/svg11.dtd">
<!-- Generated by graphviz version 2.43.0 (0)
 -->
<!-- Title: v8::internal::FastConstructStubFrameInfo::FastConstructStubFrameInfo Pages: 1 -->
<!--zoomable 171 -->
<svg id="main" version="1.1" xmlns="http://www.w3.org/2000/svg" xmlns:xlink="http://www.w3.org/1999/xlink" xml:space="preserve" onload="init(evt)">
<style type="text/css"><![CDATA[
.edge:hover path { stroke: red; }
.edge:hover polygon { stroke: red; fill: red; }
]]></style>
<script type="text/javascript"><![CDATA[
var edges = document.getElementsByTagName('g');
if (edges && edges.length) {
  for (var i=0;i<edges.length;i++) {
    if (edges[i].id.substr(0,4)=='edge') {
      edges[i].setAttribute('class','edge');
    }
  }
}
]]></script>
        <defs>
                <circle id="rim" cx="0" cy="0" r="7"/>
                <circle id="rim2" cx="0" cy="0" r="3.5"/>
                <g id="zoomPlus">
                        <use xlink:href="#rim" fill="#404040">
                                <set attributeName="fill" to="#808080" begin="zoomplus.mouseover" end="zoomplus.mouseout"/>
                        </use>
                        <path d="M-4,0h8M0,-4v8" fill="none" stroke="white" stroke-width="1.5" pointer-events="none"/>
                </g>
                <g id="zoomMin">
                        <use xlink:href="#rim" fill="#404040">
                                <set attributeName="fill" to="#808080" begin="zoomminus.mouseover" end="zoomminus.mouseout"/>
                        </use>
                        <path d="M-4,0h8" fill="none" stroke="white" stroke-width="1.5" pointer-events="none"/>
                </g>
                <g id="dirArrow">
                        <path fill="none" stroke="white" stroke-width="1.5" d="M0,-3.0v7 M-2.5,-0.5L0,-3.0L2.5,-0.5"/>
                </g>
               <g id="resetDef">
                       <use xlink:href="#rim2" fill="#404040">
                               <set attributeName="fill" to="#808080" begin="reset.mouseover" end="reset.mouseout"/>
                       </use>
               </g>
        </defs>

<script type="text/javascript">
var viewWidth = 876;
var viewHeight = 171;
var sectionId = 'dynsection-2';
</script>
<script xlink:href="svgpan.js"/>
<svg id="graph" class="graph">
<g id="viewport">
<title>v8::internal::FastConstructStubFrameInfo::FastConstructStubFrameInfo</title>
<polygon fill="white" stroke="transparent" points="-4,4 -4,-166.5 872,-166.5 872,4 -4,4"/>
<!-- Node1 -->
<g id="node1" class="node">
<title>Node1</title>
<g id="a_node1"><a xlink:title=" ">
<polygon fill="#bfbfbf" stroke="black" points="686,-25 686,-66 868,-66 868,-25 686,-25"/>
<text text-anchor="start" x="694" y="-54" font-family="Helvetica,sans-Serif" font-size="10.00">v8::internal::FastConstruct</text>
<text text-anchor="start" x="694" y="-43" font-family="Helvetica,sans-Serif" font-size="10.00">StubFrameInfo::FastConstructStub</text>
<text text-anchor="middle" x="777" y="-32" font-family="Helvetica,sans-Serif" font-size="10.00">FrameInfo</text>
</a>
</g>
</g>
<!-- Node2 -->
<g id="node2" class="node">
<title>Node2</title>
<g id="a_node2"><a xlink:href="classv8_1_1internal_1_1FastConstructStubFrameInfo.html#a82f65e7a5087f8a50686b46b217d8638" target="_top" xlink:title=" ">
<polygon fill="white" stroke="black" points="492,-60.5 492,-90.5 650,-90.5 650,-60.5 492,-60.5"/>
<text text-anchor="start" x="500" y="-78.5" font-family="Helvetica,sans-Serif" font-size="10.00">v8::internal::FastConstruct</text>
<text text-anchor="middle" x="571" y="-67.5" font-family="Helvetica,sans-Serif" font-size="10.00">StubFrameInfo::Conservative</text>
</a>
</g>
</g>
<!-- Node1&#45;&gt;Node2 -->
<g id="edge1" class="edge">
<title>Node1&#45;&gt;Node2</title>
<path fill="none" stroke="midnightblue" d="M675.8,-60.23C667.16,-61.51 658.5,-62.78 650.07,-64.02"/>
<polygon fill="midnightblue" stroke="midnightblue" points="676.54,-63.66 685.93,-58.75 675.53,-56.74 676.54,-63.66"/>
</g>
<!-- Node8 -->
<g id="node7" class="node">
<title>Node8</title>
<g id="a_node7"><a xlink:href="classv8_1_1internal_1_1FastConstructStubFrameInfo.html#ae91a3bbd1690551b8a1c0a7c8e1d4496" target="_top" xlink:title=" ">
<polygon fill="white" stroke="black" points="499,-6.5 499,-36.5 643,-36.5 643,-6.5 499,-6.5"/>
<text text-anchor="start" x="507" y="-24.5" font-family="Helvetica,sans-Serif" font-size="10.00">v8::internal::FastConstruct</text>
<text text-anchor="middle" x="571" y="-13.5" font-family="Helvetica,sans-Serif" font-size="10.00">StubFrameInfo::Precise</text>
</a>
</g>
</g>
<!-- Node1&#45;&gt;Node8 -->
<g id="edge6" class="edge">
<title>Node1&#45;&gt;Node8</title>
<path fill="none" stroke="midnightblue" d="M675.83,-33.72C664.82,-32.42 653.77,-31.12 643.22,-29.88"/>
<polygon fill="midnightblue" stroke="midnightblue" points="675.59,-37.21 685.93,-34.9 676.41,-30.26 675.59,-37.21"/>
</g>
<!-- Node3 -->
<g id="node3" class="node">
<title>Node3</title>
<g id="a_node3"><a xlink:href="classv8_1_1internal_1_1maglev_1_1MaxCallDepthProcessor.html#acfe4dd60c32d32f2a90228e6228f9429" target="_top" xlink:title=" ">
<polygon fill="white" stroke="black" points="280.5,-121 280.5,-162 419.5,-162 419.5,-121 280.5,-121"/>
<text text-anchor="start" x="288.5" y="-150" font-family="Helvetica,sans-Serif" font-size="10.00">v8::internal::maglev</text>
<text text-anchor="start" x="288.5" y="-139" font-family="Helvetica,sans-Serif" font-size="10.00">::MaxCallDepthProcessor</text>
<text text-anchor="middle" x="350" y="-128" font-family="Helvetica,sans-Serif" font-size="10.00">::ConservativeFrameSize</text>
</a>
</g>
</g>
<!-- Node2&#45;&gt;Node3 -->
<g id="edge2" class="edge">
<title>Node2&#45;&gt;Node3</title>
<path fill="none" stroke="midnightblue" d="M513.81,-93.58C495.42,-99.41 474.87,-105.83 456,-111.5 444.29,-115.02 431.81,-118.67 419.7,-122.16"/>
<polygon fill="midnightblue" stroke="midnightblue" points="515.03,-96.87 523.5,-90.5 512.91,-90.2 515.03,-96.87"/>
</g>
<!-- Node6 -->
<g id="node5" class="node">
<title>Node6</title>
<g id="a_node5"><a xlink:href="namespacev8_1_1internal_1_1compiler_1_1anonymous__namespace_02instruction_8cc_03.html#abfa5ffdf98ff56d4af64e8026ca1fb96" target="_top" xlink:title=" ">
<polygon fill="white" stroke="black" points="257.5,-49.5 257.5,-101.5 442.5,-101.5 442.5,-49.5 257.5,-49.5"/>
<text text-anchor="start" x="265.5" y="-89.5" font-family="Helvetica,sans-Serif" font-size="10.00">v8::internal::compiler</text>
<text text-anchor="start" x="265.5" y="-78.5" font-family="Helvetica,sans-Serif" font-size="10.00">::anonymous_namespace</text>
<text text-anchor="start" x="265.5" y="-67.5" font-family="Helvetica,sans-Serif" font-size="10.00">{instruction::cc}::GetConservative</text>
<text text-anchor="middle" x="350" y="-56.5" font-family="Helvetica,sans-Serif" font-size="10.00">FrameSizeInBytes</text>
</a>
</g>
</g>
<!-- Node2&#45;&gt;Node6 -->
<g id="edge4" class="edge">
<title>Node2&#45;&gt;Node6</title>
<path fill="none" stroke="midnightblue" d="M481.64,-75.5C468.77,-75.5 455.5,-75.5 442.56,-75.5"/>
<polygon fill="midnightblue" stroke="midnightblue" points="481.86,-79 491.86,-75.5 481.86,-72 481.86,-79"/>
</g>
<!-- Node4 -->
<g id="node4" class="node">
<title>Node4</title>
<g id="a_node4"><a xlink:href="classv8_1_1internal_1_1maglev_1_1MaxCallDepthProcessor.html#a83afcc6f37c3d7e12de95b8f7ff0c651" target="_top" xlink:title=" ">
<polygon fill="white" stroke="red" points="20.5,-121 20.5,-162 187.5,-162 187.5,-121 20.5,-121"/>
<text text-anchor="start" x="28.5" y="-150" font-family="Helvetica,sans-Serif" font-size="10.00">v8::internal::maglev</text>
<text text-anchor="start" x="28.5" y="-139" font-family="Helvetica,sans-Serif" font-size="10.00">::MaxCallDepthProcessor</text>
<text text-anchor="middle" x="104" y="-128" font-family="Helvetica,sans-Serif" font-size="10.00">::UpdateMaxDeoptedStackSize</text>
</a>
</g>
</g>
<!-- Node3&#45;&gt;Node4 -->
<g id="edge3" class="edge">
<title>Node3&#45;&gt;Node4</title>
<path fill="none" stroke="midnightblue" d="M270.08,-141.5C243.78,-141.5 214.42,-141.5 187.83,-141.5"/>
<polygon fill="midnightblue" stroke="midnightblue" points="270.38,-145 280.38,-141.5 270.38,-138 270.38,-145"/>
</g>
<!-- Node7 -->
<g id="node6" class="node">
<title>Node7</title>
<g id="a_node6"><a xlink:href="namespacev8_1_1internal_1_1compiler_1_1anonymous__namespace_02instruction_8cc_03.html#aa66444e1e49ceb24b742f82acf42be1b" target="_top" xlink:title=" ">
<polygon fill="white" stroke="black" points="0,-49.5 0,-101.5 208,-101.5 208,-49.5 0,-49.5"/>
<text text-anchor="start" x="8" y="-89.5" font-family="Helvetica,sans-Serif" font-size="10.00">v8::internal::compiler</text>
<text text-anchor="start" x="8" y="-78.5" font-family="Helvetica,sans-Serif" font-size="10.00">::anonymous_namespace</text>
<text text-anchor="start" x="8" y="-67.5" font-family="Helvetica,sans-Serif" font-size="10.00">{instruction::cc}::GetTotalConservative</text>
<text text-anchor="middle" x="104" y="-56.5" font-family="Helvetica,sans-Serif" font-size="10.00">FrameSizeInBytes</text>
</a>
</g>
</g>
<!-- Node6&#45;&gt;Node7 -->
<g id="edge5" class="edge">
<title>Node6&#45;&gt;Node7</title>
<path fill="none" stroke="midnightblue" d="M247.18,-75.5C234.27,-75.5 221.05,-75.5 208.13,-75.5"/>
<polygon fill="midnightblue" stroke="midnightblue" points="247.45,-79 257.45,-75.5 247.45,-72 247.45,-79"/>
</g>
<!-- Node9 -->
<g id="node8" class="node">
<title>Node9</title>
<g id="a_node8"><a xlink:href="classv8_1_1internal_1_1Deoptimizer.html#a1c6b594a81516a47eb3c8a757bdf0e7e" target="_top" xlink:title=" ">
<polygon fill="white" stroke="black" points="244,-0.5 244,-30.5 456,-30.5 456,-0.5 244,-0.5"/>
<text text-anchor="start" x="252" y="-18.5" font-family="Helvetica,sans-Serif" font-size="10.00">v8::internal::Deoptimizer</text>
<text text-anchor="middle" x="350" y="-7.5" font-family="Helvetica,sans-Serif" font-size="10.00">::DoComputeConstructInvokeStubFrame</text>
</a>
</g>
</g>
<!-- Node8&#45;&gt;Node9 -->
<g id="edge7" class="edge">
<title>Node8&#45;&gt;Node9</title>
<path fill="none" stroke="midnightblue" d="M488.86,-19.28C478.26,-18.99 467.27,-18.69 456.34,-18.39"/>
<polygon fill="midnightblue" stroke="midnightblue" points="488.8,-22.78 498.9,-19.55 489,-15.78 488.8,-22.78"/>
</g>
<!-- Node10 -->
<g id="node9" class="node">
<title>Node10</title>
<g id="a_node9"><a xlink:href="classv8_1_1internal_1_1Deoptimizer.html#a691d5a9c5e548c7e83e97489f5e43a8b" target="_top" xlink:title=" ">
<polygon fill="white" stroke="red" points="29.5,-0.5 29.5,-30.5 178.5,-30.5 178.5,-0.5 29.5,-0.5"/>
<text text-anchor="start" x="37.5" y="-18.5" font-family="Helvetica,sans-Serif" font-size="10.00">v8::internal::Deoptimizer</text>
<text text-anchor="middle" x="104" y="-7.5" font-family="Helvetica,sans-Serif" font-size="10.00">::DoComputeOutputFrames</text>
</a>
</g>
</g>
<!-- Node9&#45;&gt;Node10 -->
<g id="edge8" class="edge">
<title>Node9&#45;&gt;Node10</title>
<path fill="none" stroke="midnightblue" d="M233.69,-15.5C214.97,-15.5 196.04,-15.5 178.67,-15.5"/>
<polygon fill="midnightblue" stroke="midnightblue" points="233.75,-19 243.75,-15.5 233.75,-12 233.75,-19"/>
</g>
</g>
</svg>
        <g id="navigator" transform="translate(0 0)" fill="#404254">
                <rect fill="#f2f5e9" fill-opacity="0.5" stroke="#606060" stroke-width=".5" x="0" y="0" width="60" height="60"/>
                <use id="zoomplus" xlink:href="#zoomPlus" x="17" y="9" onmousedown="handleZoom(evt,'in')"/>
                <use id="zoomminus" xlink:href="#zoomMin" x="42" y="9" onmousedown="handleZoom(evt,'out')"/>
                <use id="reset" xlink:href="#resetDef" x="30" y="36" onmousedown="handleReset()"/>
                <g id="arrowUp" xlink:href="#dirArrow" transform="translate(30 24)" onmousedown="handlePan(0,-1)">
                  <use xlink:href="#rim" fill="#404040">
                        <set attributeName="fill" to="#808080" begin="arrowUp.mouseover" end="arrowUp.mouseout"/>
                  </use>
                  <path fill="none" stroke="white" stroke-width="1.5" d="M0,-3.0v7 M-2.5,-0.5L0,-3.0L2.5,-0.5"/>
                </g>
                <g id="arrowRight" xlink:href="#dirArrow" transform="rotate(90) translate(36 -43)" onmousedown="handlePan(1,0)">
                  <use xlink:href="#rim" fill="#404040">
                        <set attributeName="fill" to="#808080" begin="arrowRight.mouseover" end="arrowRight.mouseout"/>
                  </use>
                  <path fill="none" stroke="white" stroke-width="1.5" d="M0,-3.0v7 M-2.5,-0.5L0,-3.0L2.5,-0.5"/>
                </g>
                <g id="arrowDown" xlink:href="#dirArrow" transform="rotate(180) translate(-30 -48)" onmousedown="handlePan(0,1)">
                  <use xlink:href="#rim" fill="#404040">
                        <set attributeName="fill" to="#808080" begin="arrowDown.mouseover" end="arrowDown.mouseout"/>
                  </use>
                  <path fill="none" stroke="white" stroke-width="1.5" d="M0,-3.0v7 M-2.5,-0.5L0,-3.0L2.5,-0.5"/>
                </g>
                <g id="arrowLeft" xlink:href="#dirArrow" transform="rotate(270) translate(-36 17)" onmousedown="handlePan(-1,0)">
                  <use xlink:href="#rim" fill="#404040">
                        <set attributeName="fill" to="#808080" begin="arrowLeft.mouseover" end="arrowLeft.mouseout"/>
                  </use>
                  <path fill="none" stroke="white" stroke-width="1.5" d="M0,-3.0v7 M-2.5,-0.5L0,-3.0L2.5,-0.5"/>
                </g>
        </g>
        <svg viewBox="0 0 15 15" width="100%" height="30px" preserveAspectRatio="xMaxYMin meet">
         <g id="arrow_out" transform="scale(0.3 0.3)">
          <a xlink:href="classv8_1_1internal_1_1FastConstructStubFrameInfo_ab6c01c04771ddcd0809376c08a34d10e_icgraph_org.svg" target="_base">
           <rect id="button" ry="5" rx="5" y="6" x="6" height="38" width="38"
                fill="#f2f5e9" fill-opacity="0.5" stroke="#606060" stroke-width="1.0"/>
           <path id="arrow"
             d="M 11.500037,31.436501 C 11.940474,20.09759 22.043105,11.32322 32.158766,21.979434 L 37.068811,17.246167 C 37.068811,17.246167 37.088388,32 37.088388,32 L 22.160133,31.978069 C 22.160133,31.978069 26.997745,27.140456 26.997745,27.140456 C 18.528582,18.264221 13.291696,25.230495 11.500037,31.436501 z"
             style="fill:#404040;"/>
          </a>
         </g>
        </svg>
</svg>
