<?xml version="1.0" encoding="UTF-8" standalone="no"?>
<!DOCTYPE svg PUBLIC "-//W3C//DTD SVG 1.1//EN"
 "http://www.w3.org/Graphics/SVG/1.1/DTD/svg11.dtd">
<!-- Generated by graphviz version 2.43.0 (0)
 -->
<!-- Title: v8::internal::RegExpImpl Pages: 1 -->
<svg width="163pt" height="281pt"
 viewBox="0.00 0.00 163.00 281.00" xmlns="http://www.w3.org/2000/svg" xmlns:xlink="http://www.w3.org/1999/xlink">
<g id="graph0" class="graph" transform="scale(1 1) rotate(0) translate(4 277)">
<title>v8::internal::RegExpImpl</title>
<polygon fill="white" stroke="transparent" points="-4,4 -4,-277 159,-277 159,4 -4,4"/>
<!-- Node1 -->
<g id="node1" class="node">
<title>Node1</title>
<g id="a_node1"><a xlink:title=" ">
<polygon fill="#bfbfbf" stroke="black" points="0,-0.5 0,-178.5 155,-178.5 155,-0.5 0,-0.5"/>
<text text-anchor="middle" x="77.5" y="-166.5" font-family="Helvetica,sans-Serif" font-size="10.00">v8::internal::RegExpImpl</text>
<polyline fill="none" stroke="black" points="0,-159.5 155,-159.5 "/>
<text text-anchor="middle" x="77.5" y="-147.5" font-family="Helvetica,sans-Serif" font-size="10.00"> </text>
<polyline fill="none" stroke="black" points="0,-140.5 155,-140.5 "/>
<text text-anchor="start" x="8" y="-128.5" font-family="Helvetica,sans-Serif" font-size="10.00">+ ToString()</text>
<text text-anchor="start" x="8" y="-117.5" font-family="Helvetica,sans-Serif" font-size="10.00">+ IrregexpInitialize()</text>
<text text-anchor="start" x="8" y="-106.5" font-family="Helvetica,sans-Serif" font-size="10.00">+ IrregexpPrepare()</text>
<text text-anchor="start" x="8" y="-95.5" font-family="Helvetica,sans-Serif" font-size="10.00">+ AtomCompile()</text>
<text text-anchor="start" x="8" y="-84.5" font-family="Helvetica,sans-Serif" font-size="10.00">+ AtomExecRaw()</text>
<text text-anchor="start" x="8" y="-73.5" font-family="Helvetica,sans-Serif" font-size="10.00">+ AtomExecRaw()</text>
<text text-anchor="start" x="8" y="-62.5" font-family="Helvetica,sans-Serif" font-size="10.00">+ AtomExec()</text>
<text text-anchor="start" x="8" y="-51.5" font-family="Helvetica,sans-Serif" font-size="10.00">+ IrregexpExecRaw()</text>
<text text-anchor="start" x="8" y="-40.5" font-family="Helvetica,sans-Serif" font-size="10.00">+ IrregexpExec()</text>
<text text-anchor="start" x="8" y="-29.5" font-family="Helvetica,sans-Serif" font-size="10.00">+ CompileIrregexp()</text>
<text text-anchor="start" x="8" y="-18.5" font-family="Helvetica,sans-Serif" font-size="10.00">+ EnsureCompiledIrregexp()</text>
<text text-anchor="start" x="8" y="-7.5" font-family="Helvetica,sans-Serif" font-size="10.00">+ Compile()</text>
</a>
</g>
</g>
<!-- Node2 -->
<g id="node2" class="node">
<title>Node2</title>
<g id="a_node2"><a xlink:href="classv8_1_1internal_1_1AllStatic.html" target="_top" xlink:title=" ">
<polygon fill="white" stroke="black" points="18,-215.5 18,-272.5 137,-272.5 137,-215.5 18,-215.5"/>
<text text-anchor="middle" x="77.5" y="-260.5" font-family="Helvetica,sans-Serif" font-size="10.00">v8::internal::AllStatic</text>
<polyline fill="none" stroke="black" points="18,-253.5 137,-253.5 "/>
<text text-anchor="middle" x="77.5" y="-241.5" font-family="Helvetica,sans-Serif" font-size="10.00"> </text>
<polyline fill="none" stroke="black" points="18,-234.5 137,-234.5 "/>
<text text-anchor="middle" x="77.5" y="-222.5" font-family="Helvetica,sans-Serif" font-size="10.00"> </text>
</a>
</g>
</g>
<!-- Node2&#45;&gt;Node1 -->
<g id="edge1" class="edge">
<title>Node2&#45;&gt;Node1</title>
<path fill="none" stroke="midnightblue" d="M77.5,-205.37C77.5,-197.09 77.5,-187.98 77.5,-178.62"/>
<polygon fill="none" stroke="midnightblue" points="74,-205.38 77.5,-215.38 81,-205.38 74,-205.38"/>
</g>
</g>
</svg>
