<?xml version="1.0" encoding="UTF-8" standalone="no"?>
<!DOCTYPE svg PUBLIC "-//W3C//DTD SVG 1.1//EN"
 "http://www.w3.org/Graphics/SVG/1.1/DTD/svg11.dtd">
<!-- Generated by graphviz version 2.43.0 (0)
 -->
<!-- Title: v8::internal::compiler::MapRef::is_migration_target Pages: 1 -->
<!--zoomable 305 -->
<svg id="main" version="1.1" xmlns="http://www.w3.org/2000/svg" xmlns:xlink="http://www.w3.org/1999/xlink" xml:space="preserve" onload="init(evt)">
<style type="text/css"><![CDATA[
.edge:hover path { stroke: red; }
.edge:hover polygon { stroke: red; fill: red; }
]]></style>
<script type="text/javascript"><![CDATA[
var edges = document.getElementsByTagName('g');
if (edges && edges.length) {
  for (var i=0;i<edges.length;i++) {
    if (edges[i].id.substr(0,4)=='edge') {
      edges[i].setAttribute('class','edge');
    }
  }
}
]]></script>
        <defs>
                <circle id="rim" cx="0" cy="0" r="7"/>
                <circle id="rim2" cx="0" cy="0" r="3.5"/>
                <g id="zoomPlus">
                        <use xlink:href="#rim" fill="#404040">
                                <set attributeName="fill" to="#808080" begin="zoomplus.mouseover" end="zoomplus.mouseout"/>
                        </use>
                        <path d="M-4,0h8M0,-4v8" fill="none" stroke="white" stroke-width="1.5" pointer-events="none"/>
                </g>
                <g id="zoomMin">
                        <use xlink:href="#rim" fill="#404040">
                                <set attributeName="fill" to="#808080" begin="zoomminus.mouseover" end="zoomminus.mouseout"/>
                        </use>
                        <path d="M-4,0h8" fill="none" stroke="white" stroke-width="1.5" pointer-events="none"/>
                </g>
                <g id="dirArrow">
                        <path fill="none" stroke="white" stroke-width="1.5" d="M0,-3.0v7 M-2.5,-0.5L0,-3.0L2.5,-0.5"/>
                </g>
               <g id="resetDef">
                       <use xlink:href="#rim2" fill="#404040">
                               <set attributeName="fill" to="#808080" begin="reset.mouseover" end="reset.mouseout"/>
                       </use>
               </g>
        </defs>

<script type="text/javascript">
var viewWidth = 813;
var viewHeight = 305;
var sectionId = 'dynsection-45';
</script>
<script xlink:href="svgpan.js"/>
<svg id="graph" class="graph">
<g id="viewport">
<title>v8::internal::compiler::MapRef::is_migration_target</title>
<polygon fill="white" stroke="transparent" points="-4,4 -4,-300.5 809,-300.5 809,4 -4,4"/>
<!-- Node1 -->
<g id="node1" class="node">
<title>Node1</title>
<g id="a_node1"><a xlink:title=" ">
<polygon fill="#bfbfbf" stroke="black" points="679,-139.5 679,-180.5 805,-180.5 805,-139.5 679,-139.5"/>
<text text-anchor="start" x="687" y="-168.5" font-family="Helvetica,sans-Serif" font-size="10.00">v8::internal::compiler</text>
<text text-anchor="start" x="687" y="-157.5" font-family="Helvetica,sans-Serif" font-size="10.00">::MapRef::is_migration</text>
<text text-anchor="middle" x="742" y="-146.5" font-family="Helvetica,sans-Serif" font-size="10.00">_target</text>
</a>
</g>
</g>
<!-- Node2 -->
<g id="node2" class="node">
<title>Node2</title>
<g id="a_node2"><a xlink:href="classv8_1_1internal_1_1maglev_1_1MaglevGraphBuilder.html#affc4145d17f66926fc4ad7b245dd7e5e" target="_top" xlink:title=" ">
<polygon fill="white" stroke="black" points="479,-244 479,-296 641,-296 641,-244 479,-244"/>
<text text-anchor="start" x="487" y="-284" font-family="Helvetica,sans-Serif" font-size="10.00">v8::internal::maglev</text>
<text text-anchor="start" x="487" y="-273" font-family="Helvetica,sans-Serif" font-size="10.00">::MaglevGraphBuilder</text>
<text text-anchor="start" x="487" y="-262" font-family="Helvetica,sans-Serif" font-size="10.00">::BuildTransitionElementsKind</text>
<text text-anchor="middle" x="560" y="-251" font-family="Helvetica,sans-Serif" font-size="10.00">AndCompareMaps</text>
</a>
</g>
</g>
<!-- Node1&#45;&gt;Node2 -->
<g id="edge1" class="edge">
<title>Node1&#45;&gt;Node2</title>
<path fill="none" stroke="midnightblue" d="M709.79,-187.11C691.2,-202.41 666.69,-221.17 643,-235 637.65,-238.12 631.97,-241.12 626.2,-243.96"/>
<polygon fill="midnightblue" stroke="midnightblue" points="712.19,-189.67 717.62,-180.58 707.7,-184.29 712.19,-189.67"/>
</g>
<!-- Node3 -->
<g id="node3" class="node">
<title>Node3</title>
<g id="a_node3"><a xlink:href="classv8_1_1internal_1_1maglev_1_1MaglevGraphBuilder.html#a4661af2bb30e29ebe1f05b92e8b5da61" target="_top" xlink:title=" ">
<polygon fill="white" stroke="black" points="479,-173 479,-225 641,-225 641,-173 479,-173"/>
<text text-anchor="start" x="487" y="-213" font-family="Helvetica,sans-Serif" font-size="10.00">v8::internal::maglev</text>
<text text-anchor="start" x="487" y="-202" font-family="Helvetica,sans-Serif" font-size="10.00">::MaglevGraphBuilder</text>
<text text-anchor="start" x="487" y="-191" font-family="Helvetica,sans-Serif" font-size="10.00">::BuildTransitionElementsKind</text>
<text text-anchor="middle" x="560" y="-180" font-family="Helvetica,sans-Serif" font-size="10.00">OrCheckMap</text>
</a>
</g>
</g>
<!-- Node1&#45;&gt;Node3 -->
<g id="edge2" class="edge">
<title>Node1&#45;&gt;Node3</title>
<path fill="none" stroke="midnightblue" d="M669.03,-175.59C659.91,-177.57 650.53,-179.6 641.3,-181.6"/>
<polygon fill="midnightblue" stroke="midnightblue" points="669.77,-179.01 678.8,-173.48 668.29,-172.17 669.77,-179.01"/>
</g>
<!-- Node4 -->
<g id="node4" class="node">
<title>Node4</title>
<g id="a_node4"><a xlink:href="classv8_1_1internal_1_1maglev_1_1anonymous__namespace_02maglev-graph-builder_8cc_03_1_1KnownMapsMerger.html#ae1be2a5669d1ca6fcd2ea80887f54114" target="_top" xlink:title=" ">
<polygon fill="white" stroke="black" points="489.5,-90.5 489.5,-153.5 630.5,-153.5 630.5,-90.5 489.5,-90.5"/>
<text text-anchor="start" x="497.5" y="-141.5" font-family="Helvetica,sans-Serif" font-size="10.00">v8::internal::maglev</text>
<text text-anchor="start" x="497.5" y="-130.5" font-family="Helvetica,sans-Serif" font-size="10.00">::anonymous_namespace</text>
<text text-anchor="start" x="497.5" y="-119.5" font-family="Helvetica,sans-Serif" font-size="10.00">{maglev&#45;graph&#45;builder</text>
<text text-anchor="start" x="497.5" y="-108.5" font-family="Helvetica,sans-Serif" font-size="10.00">::cc}::KnownMapsMerger</text>
<text text-anchor="middle" x="560" y="-97.5" font-family="Helvetica,sans-Serif" font-size="10.00">::InsertMap</text>
</a>
</g>
</g>
<!-- Node1&#45;&gt;Node4 -->
<g id="edge3" class="edge">
<title>Node1&#45;&gt;Node4</title>
<path fill="none" stroke="midnightblue" d="M668.82,-144.76C656.22,-142.1 643.13,-139.34 630.6,-136.69"/>
<polygon fill="midnightblue" stroke="midnightblue" points="668.29,-148.23 678.8,-146.87 669.74,-141.38 668.29,-148.23"/>
</g>
<!-- Node5 -->
<g id="node5" class="node">
<title>Node5</title>
<g id="a_node5"><a xlink:href="classv8_1_1internal_1_1compiler_1_1JSHeapBroker.html#ac55eeed6a173b43b70e97b2c446e3eee" target="_top" xlink:title=" ">
<polygon fill="white" stroke="black" points="477,-30.5 477,-71.5 643,-71.5 643,-30.5 477,-30.5"/>
<text text-anchor="start" x="485" y="-59.5" font-family="Helvetica,sans-Serif" font-size="10.00">v8::internal::compiler</text>
<text text-anchor="start" x="485" y="-48.5" font-family="Helvetica,sans-Serif" font-size="10.00">::JSHeapBroker::ReadFeedback</text>
<text text-anchor="middle" x="560" y="-37.5" font-family="Helvetica,sans-Serif" font-size="10.00">ForPropertyAccess</text>
</a>
</g>
</g>
<!-- Node1&#45;&gt;Node5 -->
<g id="edge4" class="edge">
<title>Node1&#45;&gt;Node5</title>
<path fill="none" stroke="midnightblue" d="M712.02,-132.39C693.43,-115.8 668.13,-95.21 643,-81 636.93,-77.57 630.39,-74.4 623.75,-71.51"/>
<polygon fill="midnightblue" stroke="midnightblue" points="709.8,-135.1 719.56,-139.23 714.51,-129.92 709.8,-135.1"/>
</g>
<!-- Node6 -->
<g id="node6" class="node">
<title>Node6</title>
<g id="a_node6"><a xlink:href="classv8_1_1internal_1_1compiler_1_1JSHeapBroker.html#a1de6ebfc34be63dd6de0bd0c05076fea" target="_top" xlink:title=" ">
<polygon fill="white" stroke="black" points="268,-30.5 268,-71.5 441,-71.5 441,-30.5 268,-30.5"/>
<text text-anchor="start" x="276" y="-59.5" font-family="Helvetica,sans-Serif" font-size="10.00">v8::internal::compiler</text>
<text text-anchor="start" x="276" y="-48.5" font-family="Helvetica,sans-Serif" font-size="10.00">::JSHeapBroker::GetFeedbackFor</text>
<text text-anchor="middle" x="354.5" y="-37.5" font-family="Helvetica,sans-Serif" font-size="10.00">PropertyAccess</text>
</a>
</g>
</g>
<!-- Node5&#45;&gt;Node6 -->
<g id="edge5" class="edge">
<title>Node5&#45;&gt;Node6</title>
<path fill="none" stroke="midnightblue" d="M466.6,-51C458.18,-51 449.67,-51 441.31,-51"/>
<polygon fill="midnightblue" stroke="midnightblue" points="466.82,-54.5 476.82,-51 466.82,-47.5 466.82,-54.5"/>
</g>
<!-- Node7 -->
<g id="node7" class="node">
<title>Node7</title>
<g id="a_node7"><a xlink:href="classv8_1_1internal_1_1compiler_1_1JSNativeContextSpecialization.html#a0ca7472c4ef9d918be3cd6b557370858" target="_top" xlink:title=" ">
<polygon fill="white" stroke="red" points="0,-60.5 0,-101.5 232,-101.5 232,-60.5 0,-60.5"/>
<text text-anchor="start" x="8" y="-89.5" font-family="Helvetica,sans-Serif" font-size="10.00">v8::internal::compiler</text>
<text text-anchor="start" x="8" y="-78.5" font-family="Helvetica,sans-Serif" font-size="10.00">::JSNativeContextSpecialization</text>
<text text-anchor="middle" x="116" y="-67.5" font-family="Helvetica,sans-Serif" font-size="10.00">::ReduceJSLoadPropertyWithEnumeratedKey</text>
</a>
</g>
</g>
<!-- Node6&#45;&gt;Node7 -->
<g id="edge6" class="edge">
<title>Node6&#45;&gt;Node7</title>
<path fill="none" stroke="midnightblue" d="M257.59,-63.17C249.17,-64.23 240.58,-65.32 232.02,-66.41"/>
<polygon fill="midnightblue" stroke="midnightblue" points="258.3,-66.6 267.78,-61.87 257.42,-59.66 258.3,-66.6"/>
</g>
<!-- Node10 -->
<g id="node8" class="node">
<title>Node10</title>
<g id="a_node8"><a xlink:href="classv8_1_1internal_1_1compiler_1_1JSNativeContextSpecialization.html#a3e05c8fb7b514f968660c2c340c86bd6" target="_top" xlink:title=" ">
<polygon fill="white" stroke="red" points="31,-0.5 31,-41.5 201,-41.5 201,-0.5 31,-0.5"/>
<text text-anchor="start" x="39" y="-29.5" font-family="Helvetica,sans-Serif" font-size="10.00">v8::internal::compiler</text>
<text text-anchor="start" x="39" y="-18.5" font-family="Helvetica,sans-Serif" font-size="10.00">::JSNativeContextSpecialization</text>
<text text-anchor="middle" x="116" y="-7.5" font-family="Helvetica,sans-Serif" font-size="10.00">::ReducePropertyAccess</text>
</a>
</g>
</g>
<!-- Node6&#45;&gt;Node10 -->
<g id="edge7" class="edge">
<title>Node6&#45;&gt;Node10</title>
<path fill="none" stroke="midnightblue" d="M257.78,-38.86C239.06,-36.48 219.55,-34.01 201.24,-31.69"/>
<polygon fill="midnightblue" stroke="midnightblue" points="257.42,-42.34 267.78,-40.13 258.3,-35.4 257.42,-42.34"/>
</g>
</g>
</svg>
        <g id="navigator" transform="translate(0 0)" fill="#404254">
                <rect fill="#f2f5e9" fill-opacity="0.5" stroke="#606060" stroke-width=".5" x="0" y="0" width="60" height="60"/>
                <use id="zoomplus" xlink:href="#zoomPlus" x="17" y="9" onmousedown="handleZoom(evt,'in')"/>
                <use id="zoomminus" xlink:href="#zoomMin" x="42" y="9" onmousedown="handleZoom(evt,'out')"/>
                <use id="reset" xlink:href="#resetDef" x="30" y="36" onmousedown="handleReset()"/>
                <g id="arrowUp" xlink:href="#dirArrow" transform="translate(30 24)" onmousedown="handlePan(0,-1)">
                  <use xlink:href="#rim" fill="#404040">
                        <set attributeName="fill" to="#808080" begin="arrowUp.mouseover" end="arrowUp.mouseout"/>
                  </use>
                  <path fill="none" stroke="white" stroke-width="1.5" d="M0,-3.0v7 M-2.5,-0.5L0,-3.0L2.5,-0.5"/>
                </g>
                <g id="arrowRight" xlink:href="#dirArrow" transform="rotate(90) translate(36 -43)" onmousedown="handlePan(1,0)">
                  <use xlink:href="#rim" fill="#404040">
                        <set attributeName="fill" to="#808080" begin="arrowRight.mouseover" end="arrowRight.mouseout"/>
                  </use>
                  <path fill="none" stroke="white" stroke-width="1.5" d="M0,-3.0v7 M-2.5,-0.5L0,-3.0L2.5,-0.5"/>
                </g>
                <g id="arrowDown" xlink:href="#dirArrow" transform="rotate(180) translate(-30 -48)" onmousedown="handlePan(0,1)">
                  <use xlink:href="#rim" fill="#404040">
                        <set attributeName="fill" to="#808080" begin="arrowDown.mouseover" end="arrowDown.mouseout"/>
                  </use>
                  <path fill="none" stroke="white" stroke-width="1.5" d="M0,-3.0v7 M-2.5,-0.5L0,-3.0L2.5,-0.5"/>
                </g>
                <g id="arrowLeft" xlink:href="#dirArrow" transform="rotate(270) translate(-36 17)" onmousedown="handlePan(-1,0)">
                  <use xlink:href="#rim" fill="#404040">
                        <set attributeName="fill" to="#808080" begin="arrowLeft.mouseover" end="arrowLeft.mouseout"/>
                  </use>
                  <path fill="none" stroke="white" stroke-width="1.5" d="M0,-3.0v7 M-2.5,-0.5L0,-3.0L2.5,-0.5"/>
                </g>
        </g>
        <svg viewBox="0 0 15 15" width="100%" height="30px" preserveAspectRatio="xMaxYMin meet">
         <g id="arrow_out" transform="scale(0.3 0.3)">
          <a xlink:href="classv8_1_1internal_1_1compiler_1_1MapRef_a87b57df75d731dad4db7efc7d4da5cf0_icgraph_org.svg" target="_base">
           <rect id="button" ry="5" rx="5" y="6" x="6" height="38" width="38"
                fill="#f2f5e9" fill-opacity="0.5" stroke="#606060" stroke-width="1.0"/>
           <path id="arrow"
             d="M 11.500037,31.436501 C 11.940474,20.09759 22.043105,11.32322 32.158766,21.979434 L 37.068811,17.246167 C 37.068811,17.246167 37.088388,32 37.088388,32 L 22.160133,31.978069 C 22.160133,31.978069 26.997745,27.140456 26.997745,27.140456 C 18.528582,18.264221 13.291696,25.230495 11.500037,31.436501 z"
             style="fill:#404040;"/>
          </a>
         </g>
        </svg>
</svg>
