<?xml version="1.0" encoding="UTF-8" standalone="no"?>
<!DOCTYPE svg PUBLIC "-//W3C//DTD SVG 1.1//EN"
 "http://www.w3.org/Graphics/SVG/1.1/DTD/svg11.dtd">
<!-- Generated by graphviz version 2.43.0 (0)
 -->
<!-- Title: v8::internal::compiler::MoveOptimizer::CompressMoves Pages: 1 -->
<svg width="1235pt" height="127pt"
 viewBox="0.00 0.00 1235.00 127.00" xmlns="http://www.w3.org/2000/svg" xmlns:xlink="http://www.w3.org/1999/xlink">
<g id="graph0" class="graph" transform="scale(1 1) rotate(0) translate(4 123)">
<title>v8::internal::compiler::MoveOptimizer::CompressMoves</title>
<polygon fill="white" stroke="transparent" points="-4,4 -4,-123 1231,-123 1231,4 -4,4"/>
<!-- Node1 -->
<g id="node1" class="node">
<title>Node1</title>
<g id="a_node1"><a xlink:title=" ">
<polygon fill="#bfbfbf" stroke="black" points="1042,-39.5 1042,-69.5 1227,-69.5 1227,-39.5 1042,-39.5"/>
<text text-anchor="start" x="1050" y="-57.5" font-family="Helvetica,sans-Serif" font-size="10.00">v8::internal::compiler</text>
<text text-anchor="middle" x="1134.5" y="-46.5" font-family="Helvetica,sans-Serif" font-size="10.00">::MoveOptimizer::CompressMoves</text>
</a>
</g>
</g>
<!-- Node2 -->
<g id="node2" class="node">
<title>Node2</title>
<g id="a_node2"><a xlink:href="classv8_1_1internal_1_1compiler_1_1MoveOptimizer.html#a036465b10bbbac7957100e3c0fb95022" target="_top" xlink:title=" ">
<polygon fill="white" stroke="black" points="619,-88.5 619,-118.5 796,-118.5 796,-88.5 619,-88.5"/>
<text text-anchor="start" x="627" y="-106.5" font-family="Helvetica,sans-Serif" font-size="10.00">v8::internal::compiler</text>
<text text-anchor="middle" x="707.5" y="-95.5" font-family="Helvetica,sans-Serif" font-size="10.00">::MoveOptimizer::CompressGaps</text>
</a>
</g>
</g>
<!-- Node1&#45;&gt;Node2 -->
<g id="edge1" class="edge">
<title>Node1&#45;&gt;Node2</title>
<path fill="none" stroke="midnightblue" d="M1054.42,-71.45C1038.45,-74.46 1021.73,-77.33 1006,-79.5 935.68,-89.2 855.42,-95.39 796,-99.05"/>
<polygon fill="midnightblue" stroke="midnightblue" points="1055.1,-74.88 1064.26,-69.56 1053.78,-68.01 1055.1,-74.88"/>
</g>
<!-- Node5 -->
<g id="node5" class="node">
<title>Node5</title>
<g id="a_node5"><a xlink:href="classv8_1_1internal_1_1compiler_1_1MoveOptimizer.html#a22647c6bc89e5b09aa9fc13961163803" target="_top" xlink:title=" ">
<polygon fill="white" stroke="black" points="833,-39.5 833,-69.5 1006,-69.5 1006,-39.5 833,-39.5"/>
<text text-anchor="start" x="841" y="-57.5" font-family="Helvetica,sans-Serif" font-size="10.00">v8::internal::compiler</text>
<text text-anchor="middle" x="919.5" y="-46.5" font-family="Helvetica,sans-Serif" font-size="10.00">::MoveOptimizer::MigrateMoves</text>
</a>
</g>
</g>
<!-- Node1&#45;&gt;Node5 -->
<g id="edge4" class="edge">
<title>Node1&#45;&gt;Node5</title>
<path fill="none" stroke="midnightblue" d="M1031.9,-54.5C1023.32,-54.5 1014.7,-54.5 1006.26,-54.5"/>
<polygon fill="midnightblue" stroke="midnightblue" points="1031.93,-58 1041.93,-54.5 1031.93,-51 1031.93,-58"/>
</g>
<!-- Node7 -->
<g id="node7" class="node">
<title>Node7</title>
<g id="a_node7"><a xlink:href="classv8_1_1internal_1_1compiler_1_1MoveOptimizer.html#a3f0da1309a02af9ac1d82b44afef7832" target="_top" xlink:title=" ">
<polygon fill="white" stroke="black" points="403,-0.5 403,-30.5 582,-30.5 582,-0.5 403,-0.5"/>
<text text-anchor="start" x="411" y="-18.5" font-family="Helvetica,sans-Serif" font-size="10.00">v8::internal::compiler</text>
<text text-anchor="middle" x="492.5" y="-7.5" font-family="Helvetica,sans-Serif" font-size="10.00">::MoveOptimizer::OptimizeMerge</text>
</a>
</g>
</g>
<!-- Node1&#45;&gt;Node7 -->
<g id="edge9" class="edge">
<title>Node1&#45;&gt;Node7</title>
<path fill="none" stroke="midnightblue" d="M1054.76,-37.68C1038.69,-34.82 1021.86,-32.21 1006,-30.5 857.99,-14.5 684.62,-13.01 582.21,-13.89"/>
<polygon fill="midnightblue" stroke="midnightblue" points="1054.18,-41.13 1064.65,-39.5 1055.44,-34.25 1054.18,-41.13"/>
</g>
<!-- Node3 -->
<g id="node3" class="node">
<title>Node3</title>
<g id="a_node3"><a xlink:href="classv8_1_1internal_1_1compiler_1_1MoveOptimizer.html#a80cb8fa53aed4b4e7af65d13b58cf079" target="_top" xlink:title=" ">
<polygon fill="white" stroke="black" points="245,-44.5 245,-74.5 367,-74.5 367,-44.5 245,-44.5"/>
<text text-anchor="start" x="253" y="-62.5" font-family="Helvetica,sans-Serif" font-size="10.00">v8::internal::compiler</text>
<text text-anchor="middle" x="306" y="-51.5" font-family="Helvetica,sans-Serif" font-size="10.00">::MoveOptimizer::Run</text>
</a>
</g>
</g>
<!-- Node2&#45;&gt;Node3 -->
<g id="edge2" class="edge">
<title>Node2&#45;&gt;Node3</title>
<path fill="none" stroke="midnightblue" d="M608.69,-93.01C549.21,-86.59 471.72,-78.17 403,-70.5 391.41,-69.21 379.04,-67.8 367.17,-66.45"/>
<polygon fill="midnightblue" stroke="midnightblue" points="608.51,-96.51 618.83,-94.1 609.26,-89.55 608.51,-96.51"/>
</g>
<!-- Node4 -->
<g id="node4" class="node">
<title>Node4</title>
<g id="a_node4"><a xlink:href="structv8_1_1internal_1_1compiler_1_1turboshaft_1_1OptimizeMovesPhase.html#acac0d1437b5070544bfb732130f9ee9c" target="_top" xlink:title=" ">
<polygon fill="white" stroke="black" points="0,-44.5 0,-74.5 209,-74.5 209,-44.5 0,-44.5"/>
<text text-anchor="start" x="8" y="-62.5" font-family="Helvetica,sans-Serif" font-size="10.00">v8::internal::compiler</text>
<text text-anchor="middle" x="104.5" y="-51.5" font-family="Helvetica,sans-Serif" font-size="10.00">::turboshaft::OptimizeMovesPhase::Run</text>
</a>
</g>
</g>
<!-- Node3&#45;&gt;Node4 -->
<g id="edge3" class="edge">
<title>Node3&#45;&gt;Node4</title>
<path fill="none" stroke="midnightblue" d="M234.84,-59.5C226.47,-59.5 217.8,-59.5 209.08,-59.5"/>
<polygon fill="midnightblue" stroke="midnightblue" points="234.87,-63 244.87,-59.5 234.87,-56 234.87,-63"/>
</g>
<!-- Node6 -->
<g id="node6" class="node">
<title>Node6</title>
<g id="a_node6"><a xlink:href="classv8_1_1internal_1_1compiler_1_1MoveOptimizer.html#a0a52c3c46bfbc78347044851045536dc" target="_top" xlink:title=" ">
<polygon fill="white" stroke="black" points="618,-39.5 618,-69.5 797,-69.5 797,-39.5 618,-39.5"/>
<text text-anchor="start" x="626" y="-57.5" font-family="Helvetica,sans-Serif" font-size="10.00">v8::internal::compiler</text>
<text text-anchor="middle" x="707.5" y="-46.5" font-family="Helvetica,sans-Serif" font-size="10.00">::MoveOptimizer::CompressBlock</text>
</a>
</g>
</g>
<!-- Node5&#45;&gt;Node6 -->
<g id="edge5" class="edge">
<title>Node5&#45;&gt;Node6</title>
<path fill="none" stroke="midnightblue" d="M822.76,-54.5C814.19,-54.5 805.52,-54.5 797.01,-54.5"/>
<polygon fill="midnightblue" stroke="midnightblue" points="822.78,-58 832.78,-54.5 822.78,-51 822.78,-58"/>
</g>
<!-- Node6&#45;&gt;Node3 -->
<g id="edge8" class="edge">
<title>Node6&#45;&gt;Node3</title>
<path fill="none" stroke="midnightblue" d="M607.38,-55.74C532.03,-56.68 430.81,-57.95 367.25,-58.75"/>
<polygon fill="midnightblue" stroke="midnightblue" points="607.88,-59.23 617.84,-55.61 607.79,-52.24 607.88,-59.23"/>
</g>
<!-- Node6&#45;&gt;Node7 -->
<g id="edge6" class="edge">
<title>Node6&#45;&gt;Node7</title>
<path fill="none" stroke="midnightblue" d="M614.59,-37.67C601.59,-35.29 588.3,-32.86 575.5,-30.51"/>
<polygon fill="midnightblue" stroke="midnightblue" points="613.99,-41.12 624.45,-39.48 615.25,-34.23 613.99,-41.12"/>
</g>
<!-- Node7&#45;&gt;Node3 -->
<g id="edge7" class="edge">
<title>Node7&#45;&gt;Node3</title>
<path fill="none" stroke="midnightblue" d="M418.62,-32.88C401.58,-36.94 383.62,-41.23 367.2,-45.14"/>
<polygon fill="midnightblue" stroke="midnightblue" points="419.61,-36.24 428.52,-30.52 417.98,-29.43 419.61,-36.24"/>
</g>
</g>
</svg>
