<?xml version="1.0" encoding="UTF-8" standalone="no"?>
<!DOCTYPE svg PUBLIC "-//W3C//DTD SVG 1.1//EN"
 "http://www.w3.org/Graphics/SVG/1.1/DTD/svg11.dtd">
<!-- Generated by graphviz version 2.43.0 (0)
 -->
<!-- Title: v8::internal::maglev::InterpretedDeoptFrame::data Pages: 1 -->
<svg width="608pt" height="39pt"
 viewBox="0.00 0.00 608.00 39.00" xmlns="http://www.w3.org/2000/svg" xmlns:xlink="http://www.w3.org/1999/xlink">
<g id="graph0" class="graph" transform="scale(1 1) rotate(0) translate(4 35)">
<title>v8::internal::maglev::InterpretedDeoptFrame::data</title>
<polygon fill="white" stroke="transparent" points="-4,4 -4,-35 604,-35 604,4 -4,4"/>
<!-- Node1 -->
<g id="node1" class="node">
<title>Node1</title>
<g id="a_node1"><a xlink:title=" ">
<polygon fill="#bfbfbf" stroke="black" points="0,-0.5 0,-30.5 164,-30.5 164,-0.5 0,-0.5"/>
<text text-anchor="start" x="8" y="-18.5" font-family="Helvetica,sans-Serif" font-size="10.00">v8::internal::maglev</text>
<text text-anchor="middle" x="82" y="-7.5" font-family="Helvetica,sans-Serif" font-size="10.00">::InterpretedDeoptFrame::data</text>
</a>
</g>
</g>
<!-- Node2 -->
<g id="node2" class="node">
<title>Node2</title>
<g id="a_node2"><a xlink:href="classv8_1_1base_1_1DiscriminatedUnion.html#ac3cd334eb23b4bae4d47513f08667899" target="_top" xlink:title=" ">
<polygon fill="white" stroke="black" points="200,-6 200,-25 382,-25 382,-6 200,-6"/>
<text text-anchor="middle" x="291" y="-13" font-family="Helvetica,sans-Serif" font-size="10.00">v8::base::DiscriminatedUnion::get</text>
</a>
</g>
</g>
<!-- Node1&#45;&gt;Node2 -->
<g id="edge1" class="edge">
<title>Node1&#45;&gt;Node2</title>
<path fill="none" stroke="midnightblue" d="M164.22,-15.5C172.6,-15.5 181.19,-15.5 189.75,-15.5"/>
<polygon fill="midnightblue" stroke="midnightblue" points="189.77,-19 199.77,-15.5 189.77,-12 189.77,-19"/>
</g>
<!-- Node3 -->
<g id="node3" class="node">
<title>Node3</title>
<g id="a_node3"><a xlink:href="classv8_1_1base_1_1DiscriminatedUnion.html#af690d19a8bc234a280f26845e1ce0f94" target="_top" xlink:title=" ">
<polygon fill="white" stroke="black" points="418,-6 418,-25 600,-25 600,-6 418,-6"/>
<text text-anchor="middle" x="509" y="-13" font-family="Helvetica,sans-Serif" font-size="10.00">v8::base::DiscriminatedUnion::tag</text>
</a>
</g>
</g>
<!-- Node2&#45;&gt;Node3 -->
<g id="edge2" class="edge">
<title>Node2&#45;&gt;Node3</title>
<path fill="none" stroke="midnightblue" d="M382.04,-15.5C390.53,-15.5 399.16,-15.5 407.74,-15.5"/>
<polygon fill="midnightblue" stroke="midnightblue" points="407.76,-19 417.76,-15.5 407.76,-12 407.76,-19"/>
</g>
</g>
</svg>
