<?xml version="1.0" encoding="UTF-8" standalone="no"?>
<!DOCTYPE svg PUBLIC "-//W3C//DTD SVG 1.1//EN"
 "http://www.w3.org/Graphics/SVG/1.1/DTD/svg11.dtd">
<!-- Generated by graphviz version 2.43.0 (0)
 -->
<!-- Title: v8::internal::CompareOperation::CompareOperation Pages: 1 -->
<!--zoomable 171 -->
<svg id="main" version="1.1" xmlns="http://www.w3.org/2000/svg" xmlns:xlink="http://www.w3.org/1999/xlink" xml:space="preserve" onload="init(evt)">
<style type="text/css"><![CDATA[
.edge:hover path { stroke: red; }
.edge:hover polygon { stroke: red; fill: red; }
]]></style>
<script type="text/javascript"><![CDATA[
var edges = document.getElementsByTagName('g');
if (edges && edges.length) {
  for (var i=0;i<edges.length;i++) {
    if (edges[i].id.substr(0,4)=='edge') {
      edges[i].setAttribute('class','edge');
    }
  }
}
]]></script>
        <defs>
                <circle id="rim" cx="0" cy="0" r="7"/>
                <circle id="rim2" cx="0" cy="0" r="3.5"/>
                <g id="zoomPlus">
                        <use xlink:href="#rim" fill="#404040">
                                <set attributeName="fill" to="#808080" begin="zoomplus.mouseover" end="zoomplus.mouseout"/>
                        </use>
                        <path d="M-4,0h8M0,-4v8" fill="none" stroke="white" stroke-width="1.5" pointer-events="none"/>
                </g>
                <g id="zoomMin">
                        <use xlink:href="#rim" fill="#404040">
                                <set attributeName="fill" to="#808080" begin="zoomminus.mouseover" end="zoomminus.mouseout"/>
                        </use>
                        <path d="M-4,0h8" fill="none" stroke="white" stroke-width="1.5" pointer-events="none"/>
                </g>
                <g id="dirArrow">
                        <path fill="none" stroke="white" stroke-width="1.5" d="M0,-3.0v7 M-2.5,-0.5L0,-3.0L2.5,-0.5"/>
                </g>
               <g id="resetDef">
                       <use xlink:href="#rim2" fill="#404040">
                               <set attributeName="fill" to="#808080" begin="reset.mouseover" end="reset.mouseout"/>
                       </use>
               </g>
        </defs>

<script type="text/javascript">
var viewWidth = 539;
var viewHeight = 171;
var sectionId = 'dynsection-2';
</script>
<script xlink:href="svgpan.js"/>
<svg id="graph" class="graph">
<g id="viewport">
<title>v8::internal::CompareOperation::CompareOperation</title>
<polygon fill="white" stroke="transparent" points="-4,4 -4,-166.5 535,-166.5 535,4 -4,4"/>
<!-- Node1 -->
<g id="node1" class="node">
<title>Node1</title>
<g id="a_node1"><a xlink:title=" ">
<polygon fill="#bfbfbf" stroke="black" points="0,-68.5 0,-98.5 170,-98.5 170,-68.5 0,-68.5"/>
<text text-anchor="start" x="8" y="-86.5" font-family="Helvetica,sans-Serif" font-size="10.00">v8::internal::CompareOperation</text>
<text text-anchor="middle" x="85" y="-75.5" font-family="Helvetica,sans-Serif" font-size="10.00">::CompareOperation</text>
</a>
</g>
</g>
<!-- Node2 -->
<g id="node2" class="node">
<title>Node2</title>
<g id="a_node2"><a xlink:href="namespacev8_1_1internal.html#aa6b3743bd5d773c552654f2a6c3efa4a" target="_top" xlink:title=" ">
<polygon fill="white" stroke="black" points="240.5,-143 240.5,-162 359.5,-162 359.5,-143 240.5,-143"/>
<text text-anchor="middle" x="300" y="-150" font-family="Helvetica,sans-Serif" font-size="10.00">v8::internal::DCHECK</text>
</a>
</g>
</g>
<!-- Node1&#45;&gt;Node2 -->
<g id="edge1" class="edge">
<title>Node1&#45;&gt;Node2</title>
<path fill="none" stroke="midnightblue" d="M117.47,-98.58C141.32,-109.53 175.15,-124.02 206,-133.5 214.79,-136.2 224.17,-138.63 233.46,-140.77"/>
<polygon fill="midnightblue" stroke="midnightblue" points="232.96,-144.25 243.48,-142.99 234.47,-137.41 232.96,-144.25"/>
</g>
<!-- Node3 -->
<g id="node3" class="node">
<title>Node3</title>
<g id="a_node3"><a xlink:href="classv8_1_1base_1_1BitField.html#a70718344d8a4df6c20b3cf9c9b14d0d4" target="_top" xlink:title=" ">
<polygon fill="white" stroke="black" points="249.5,-93.5 249.5,-123.5 350.5,-123.5 350.5,-93.5 249.5,-93.5"/>
<text text-anchor="start" x="257.5" y="-111.5" font-family="Helvetica,sans-Serif" font-size="10.00">v8::base::BitField</text>
<text text-anchor="middle" x="300" y="-100.5" font-family="Helvetica,sans-Serif" font-size="10.00">::encode</text>
</a>
</g>
</g>
<!-- Node1&#45;&gt;Node3 -->
<g id="edge2" class="edge">
<title>Node1&#45;&gt;Node3</title>
<path fill="none" stroke="midnightblue" d="M170.18,-93.38C193.37,-96.1 218.04,-99 239.52,-101.52"/>
<polygon fill="midnightblue" stroke="midnightblue" points="239.12,-105 249.46,-102.69 239.94,-98.04 239.12,-105"/>
</g>
<!-- Node5 -->
<g id="node5" class="node">
<title>Node5</title>
<g id="a_node5"><a xlink:href="classv8_1_1internal_1_1Token.html#a62cc331f6e96e759020975c50a9aef72" target="_top" xlink:title=" ">
<polygon fill="white" stroke="black" points="247,-44.5 247,-74.5 353,-74.5 353,-44.5 247,-44.5"/>
<text text-anchor="start" x="255" y="-62.5" font-family="Helvetica,sans-Serif" font-size="10.00">v8::internal::Token</text>
<text text-anchor="middle" x="300" y="-51.5" font-family="Helvetica,sans-Serif" font-size="10.00">::IsCompareOp</text>
</a>
</g>
</g>
<!-- Node1&#45;&gt;Node5 -->
<g id="edge4" class="edge">
<title>Node1&#45;&gt;Node5</title>
<path fill="none" stroke="midnightblue" d="M170.18,-74.01C192.47,-71.5 216.12,-68.84 236.99,-66.49"/>
<polygon fill="midnightblue" stroke="midnightblue" points="237.45,-69.96 246.99,-65.36 236.66,-63 237.45,-69.96"/>
</g>
<!-- Node6 -->
<g id="node6" class="node">
<title>Node6</title>
<g id="a_node6"><a xlink:href="classv8_1_1internal_1_1CompareOperation.html#a00e45cfc1181a005f30c66b1b723d771" target="_top" xlink:title=" ">
<polygon fill="white" stroke="black" points="206,-6 206,-25 394,-25 394,-6 206,-6"/>
<text text-anchor="middle" x="300" y="-13" font-family="Helvetica,sans-Serif" font-size="10.00">v8::internal::CompareOperation::op</text>
</a>
</g>
</g>
<!-- Node1&#45;&gt;Node6 -->
<g id="edge5" class="edge">
<title>Node1&#45;&gt;Node6</title>
<path fill="none" stroke="midnightblue" d="M118.26,-68.41C142.08,-57.74 175.53,-43.75 206,-34.5 214.8,-31.83 224.19,-29.42 233.48,-27.29"/>
<polygon fill="midnightblue" stroke="midnightblue" points="234.49,-30.65 243.5,-25.08 232.98,-23.81 234.49,-30.65"/>
</g>
<!-- Node4 -->
<g id="node4" class="node">
<title>Node4</title>
<g id="a_node4"><a xlink:href="classv8_1_1base_1_1BitField.html#a634dcf9bf5eb402dea1ec28d543bc55c" target="_top" xlink:title=" ">
<polygon fill="white" stroke="black" points="430,-93.5 430,-123.5 531,-123.5 531,-93.5 430,-93.5"/>
<text text-anchor="start" x="438" y="-111.5" font-family="Helvetica,sans-Serif" font-size="10.00">v8::base::BitField</text>
<text text-anchor="middle" x="480.5" y="-100.5" font-family="Helvetica,sans-Serif" font-size="10.00">::is_valid</text>
</a>
</g>
</g>
<!-- Node3&#45;&gt;Node4 -->
<g id="edge3" class="edge">
<title>Node3&#45;&gt;Node4</title>
<path fill="none" stroke="midnightblue" d="M350.72,-108.5C372.1,-108.5 397.28,-108.5 419.67,-108.5"/>
<polygon fill="midnightblue" stroke="midnightblue" points="419.74,-112 429.74,-108.5 419.74,-105 419.74,-112"/>
</g>
<!-- Node7 -->
<g id="node7" class="node">
<title>Node7</title>
<g id="a_node7"><a xlink:href="classv8_1_1base_1_1BitField.html#a554df4b9ae5f0dc36b4d092bfc2e004b" target="_top" xlink:title=" ">
<polygon fill="white" stroke="black" points="430,-0.5 430,-30.5 531,-30.5 531,-0.5 430,-0.5"/>
<text text-anchor="start" x="438" y="-18.5" font-family="Helvetica,sans-Serif" font-size="10.00">v8::base::BitField</text>
<text text-anchor="middle" x="480.5" y="-7.5" font-family="Helvetica,sans-Serif" font-size="10.00">::decode</text>
</a>
</g>
</g>
<!-- Node6&#45;&gt;Node7 -->
<g id="edge6" class="edge">
<title>Node6&#45;&gt;Node7</title>
<path fill="none" stroke="midnightblue" d="M394.17,-15.5C402.85,-15.5 411.48,-15.5 419.73,-15.5"/>
<polygon fill="midnightblue" stroke="midnightblue" points="419.95,-19 429.95,-15.5 419.95,-12 419.95,-19"/>
</g>
</g>
</svg>
        <g id="navigator" transform="translate(0 0)" fill="#404254">
                <rect fill="#f2f5e9" fill-opacity="0.5" stroke="#606060" stroke-width=".5" x="0" y="0" width="60" height="60"/>
                <use id="zoomplus" xlink:href="#zoomPlus" x="17" y="9" onmousedown="handleZoom(evt,'in')"/>
                <use id="zoomminus" xlink:href="#zoomMin" x="42" y="9" onmousedown="handleZoom(evt,'out')"/>
                <use id="reset" xlink:href="#resetDef" x="30" y="36" onmousedown="handleReset()"/>
                <g id="arrowUp" xlink:href="#dirArrow" transform="translate(30 24)" onmousedown="handlePan(0,-1)">
                  <use xlink:href="#rim" fill="#404040">
                        <set attributeName="fill" to="#808080" begin="arrowUp.mouseover" end="arrowUp.mouseout"/>
                  </use>
                  <path fill="none" stroke="white" stroke-width="1.5" d="M0,-3.0v7 M-2.5,-0.5L0,-3.0L2.5,-0.5"/>
                </g>
                <g id="arrowRight" xlink:href="#dirArrow" transform="rotate(90) translate(36 -43)" onmousedown="handlePan(1,0)">
                  <use xlink:href="#rim" fill="#404040">
                        <set attributeName="fill" to="#808080" begin="arrowRight.mouseover" end="arrowRight.mouseout"/>
                  </use>
                  <path fill="none" stroke="white" stroke-width="1.5" d="M0,-3.0v7 M-2.5,-0.5L0,-3.0L2.5,-0.5"/>
                </g>
                <g id="arrowDown" xlink:href="#dirArrow" transform="rotate(180) translate(-30 -48)" onmousedown="handlePan(0,1)">
                  <use xlink:href="#rim" fill="#404040">
                        <set attributeName="fill" to="#808080" begin="arrowDown.mouseover" end="arrowDown.mouseout"/>
                  </use>
                  <path fill="none" stroke="white" stroke-width="1.5" d="M0,-3.0v7 M-2.5,-0.5L0,-3.0L2.5,-0.5"/>
                </g>
                <g id="arrowLeft" xlink:href="#dirArrow" transform="rotate(270) translate(-36 17)" onmousedown="handlePan(-1,0)">
                  <use xlink:href="#rim" fill="#404040">
                        <set attributeName="fill" to="#808080" begin="arrowLeft.mouseover" end="arrowLeft.mouseout"/>
                  </use>
                  <path fill="none" stroke="white" stroke-width="1.5" d="M0,-3.0v7 M-2.5,-0.5L0,-3.0L2.5,-0.5"/>
                </g>
        </g>
        <svg viewBox="0 0 15 15" width="100%" height="30px" preserveAspectRatio="xMaxYMin meet">
         <g id="arrow_out" transform="scale(0.3 0.3)">
          <a xlink:href="classv8_1_1internal_1_1CompareOperation_aa58b8cb01d343c2122bcb18c43dbced0_cgraph_org.svg" target="_base">
           <rect id="button" ry="5" rx="5" y="6" x="6" height="38" width="38"
                fill="#f2f5e9" fill-opacity="0.5" stroke="#606060" stroke-width="1.0"/>
           <path id="arrow"
             d="M 11.500037,31.436501 C 11.940474,20.09759 22.043105,11.32322 32.158766,21.979434 L 37.068811,17.246167 C 37.068811,17.246167 37.088388,32 37.088388,32 L 22.160133,31.978069 C 22.160133,31.978069 26.997745,27.140456 26.997745,27.140456 C 18.528582,18.264221 13.291696,25.230495 11.500037,31.436501 z"
             style="fill:#404040;"/>
          </a>
         </g>
        </svg>
</svg>
