<?xml version="1.0" encoding="UTF-8" standalone="no"?>
<!DOCTYPE svg PUBLIC "-//W3C//DTD SVG 1.1//EN"
 "http://www.w3.org/Graphics/SVG/1.1/DTD/svg11.dtd">
<!-- Generated by graphviz version 2.43.0 (0)
 -->
<!-- Title: v8::internal::wasm::LinkageAllocator::CanAllocateFP Pages: 1 -->
<svg width="790pt" height="74pt"
 viewBox="0.00 0.00 790.00 74.00" xmlns="http://www.w3.org/2000/svg" xmlns:xlink="http://www.w3.org/1999/xlink">
<g id="graph0" class="graph" transform="scale(1 1) rotate(0) translate(4 70)">
<title>v8::internal::wasm::LinkageAllocator::CanAllocateFP</title>
<polygon fill="white" stroke="transparent" points="-4,4 -4,-70 786,-70 786,4 -4,4"/>
<!-- Node1 -->
<g id="node1" class="node">
<title>Node1</title>
<g id="a_node1"><a xlink:title=" ">
<polygon fill="#bfbfbf" stroke="black" points="672,-24.5 672,-65.5 782,-65.5 782,-24.5 672,-24.5"/>
<text text-anchor="start" x="680" y="-53.5" font-family="Helvetica,sans-Serif" font-size="10.00">v8::internal::wasm</text>
<text text-anchor="start" x="680" y="-42.5" font-family="Helvetica,sans-Serif" font-size="10.00">::LinkageAllocator::</text>
<text text-anchor="middle" x="727" y="-31.5" font-family="Helvetica,sans-Serif" font-size="10.00">CanAllocateFP</text>
</a>
</g>
</g>
<!-- Node2 -->
<g id="node2" class="node">
<title>Node2</title>
<g id="a_node2"><a xlink:href="classv8_1_1internal_1_1wasm_1_1LinkageLocationAllocator.html#ade99d8e250ec0e23abd71c3dc62b1909" target="_top" xlink:title=" ">
<polygon fill="white" stroke="black" points="316,-30 316,-60 490,-60 490,-30 316,-30"/>
<text text-anchor="start" x="324" y="-48" font-family="Helvetica,sans-Serif" font-size="10.00">v8::internal::wasm</text>
<text text-anchor="middle" x="403" y="-37" font-family="Helvetica,sans-Serif" font-size="10.00">::LinkageLocationAllocator::Next</text>
</a>
</g>
</g>
<!-- Node1&#45;&gt;Node2 -->
<g id="edge1" class="edge">
<title>Node1&#45;&gt;Node2</title>
<path fill="none" stroke="midnightblue" d="M661.71,-49.81C653.07,-50.3 644.32,-50.72 636,-51 587.14,-52.63 574.87,-52.2 526,-51 514.45,-50.72 502.28,-50.28 490.29,-49.77"/>
<polygon fill="midnightblue" stroke="midnightblue" points="662,-53.3 671.77,-49.2 661.58,-46.31 662,-53.3"/>
</g>
<!-- Node52 -->
<g id="node5" class="node">
<title>Node52</title>
<g id="a_node5"><a xlink:href="classv8_1_1internal_1_1wasm_1_1LinkageAllocator.html#a5b540690cf61eb431388a182b488aa77" target="_top" xlink:title=" ">
<polygon fill="white" stroke="black" points="526,-0.5 526,-41.5 636,-41.5 636,-0.5 526,-0.5"/>
<text text-anchor="start" x="534" y="-29.5" font-family="Helvetica,sans-Serif" font-size="10.00">v8::internal::wasm</text>
<text text-anchor="start" x="534" y="-18.5" font-family="Helvetica,sans-Serif" font-size="10.00">::LinkageAllocator::</text>
<text text-anchor="middle" x="581" y="-7.5" font-family="Helvetica,sans-Serif" font-size="10.00">NextFpReg</text>
</a>
</g>
</g>
<!-- Node1&#45;&gt;Node52 -->
<g id="edge4" class="edge">
<title>Node1&#45;&gt;Node52</title>
<path fill="none" stroke="midnightblue" d="M662.01,-34.33C653.44,-32.91 644.72,-31.45 636.33,-30.06"/>
<polygon fill="midnightblue" stroke="midnightblue" points="661.53,-37.8 671.97,-36 662.68,-30.9 661.53,-37.8"/>
</g>
<!-- Node3 -->
<g id="node3" class="node">
<title>Node3</title>
<g id="a_node3"><a xlink:href="namespacev8_1_1internal_1_1wasm.html#acea874ae897cefe5b238ef17d516dbad" target="_top" xlink:title=" ">
<polygon fill="white" stroke="black" points="157,-30 157,-60 280,-60 280,-30 157,-30"/>
<text text-anchor="start" x="165" y="-48" font-family="Helvetica,sans-Serif" font-size="10.00">v8::internal::wasm</text>
<text text-anchor="middle" x="218.5" y="-37" font-family="Helvetica,sans-Serif" font-size="10.00">::IterateSignatureImpl</text>
</a>
</g>
</g>
<!-- Node2&#45;&gt;Node3 -->
<g id="edge2" class="edge">
<title>Node2&#45;&gt;Node3</title>
<path fill="none" stroke="midnightblue" d="M305.62,-45C296.93,-45 288.3,-45 280.05,-45"/>
<polygon fill="midnightblue" stroke="midnightblue" points="305.83,-48.5 315.83,-45 305.83,-41.5 305.83,-48.5"/>
</g>
<!-- Node4 -->
<g id="node4" class="node">
<title>Node4</title>
<g id="a_node4"><a xlink:href="namespacev8_1_1internal_1_1compiler.html#a181abc3b6a2f7a635923b2c5d5ed653c" target="_top" xlink:title=" ">
<polygon fill="white" stroke="red" points="0,-30 0,-60 121,-60 121,-30 0,-30"/>
<text text-anchor="start" x="8" y="-48" font-family="Helvetica,sans-Serif" font-size="10.00">v8::internal::compiler</text>
<text text-anchor="middle" x="60.5" y="-37" font-family="Helvetica,sans-Serif" font-size="10.00">::BuildLocations</text>
</a>
</g>
</g>
<!-- Node3&#45;&gt;Node4 -->
<g id="edge3" class="edge">
<title>Node3&#45;&gt;Node4</title>
<path fill="none" stroke="midnightblue" d="M146.47,-45C137.98,-45 129.38,-45 121.07,-45"/>
<polygon fill="midnightblue" stroke="midnightblue" points="146.74,-48.5 156.74,-45 146.74,-41.5 146.74,-48.5"/>
</g>
<!-- Node52&#45;&gt;Node2 -->
<g id="edge5" class="edge">
<title>Node52&#45;&gt;Node2</title>
<path fill="none" stroke="midnightblue" d="M515.75,-29.76C507.4,-30.9 498.75,-32.08 490.11,-33.26"/>
<polygon fill="midnightblue" stroke="midnightblue" points="516.32,-33.22 525.76,-28.4 515.38,-26.28 516.32,-33.22"/>
</g>
</g>
</svg>
