<?xml version="1.0" encoding="UTF-8" standalone="no"?>
<!DOCTYPE svg PUBLIC "-//W3C//DTD SVG 1.1//EN"
 "http://www.w3.org/Graphics/SVG/1.1/DTD/svg11.dtd">
<!-- Generated by graphviz version 2.43.0 (0)
 -->
<!-- Title: v8::internal::wasm::LiftoffVarState::LiftoffVarState Pages: 1 -->
<svg width="470pt" height="198pt"
 viewBox="0.00 0.00 470.00 197.50" xmlns="http://www.w3.org/2000/svg" xmlns:xlink="http://www.w3.org/1999/xlink">
<g id="graph0" class="graph" transform="scale(1 1) rotate(0) translate(4 193.5)">
<title>v8::internal::wasm::LiftoffVarState::LiftoffVarState</title>
<polygon fill="white" stroke="transparent" points="-4,4 -4,-193.5 466,-193.5 466,4 -4,4"/>
<!-- Node1 -->
<g id="node1" class="node">
<title>Node1</title>
<g id="a_node1"><a xlink:title=" ">
<polygon fill="#bfbfbf" stroke="black" points="0,-79.5 0,-120.5 125,-120.5 125,-79.5 0,-79.5"/>
<text text-anchor="start" x="8" y="-108.5" font-family="Helvetica,sans-Serif" font-size="10.00">v8::internal::wasm</text>
<text text-anchor="start" x="8" y="-97.5" font-family="Helvetica,sans-Serif" font-size="10.00">::LiftoffVarState::Liftoff</text>
<text text-anchor="middle" x="62.5" y="-86.5" font-family="Helvetica,sans-Serif" font-size="10.00">VarState</text>
</a>
</g>
</g>
<!-- Node2 -->
<g id="node2" class="node">
<title>Node2</title>
<g id="a_node2"><a xlink:href="classv8_1_1internal_1_1wasm_1_1LiftoffVarState.html#a9db7a79c25b3e6309a4b52ee9c8baf1a" target="_top" xlink:title=" ">
<polygon fill="white" stroke="black" points="173,-159 173,-189 292,-189 292,-159 173,-159"/>
<text text-anchor="start" x="181" y="-177" font-family="Helvetica,sans-Serif" font-size="10.00">v8::internal::wasm</text>
<text text-anchor="middle" x="232.5" y="-166" font-family="Helvetica,sans-Serif" font-size="10.00">::LiftoffVarState::kind</text>
</a>
</g>
</g>
<!-- Node1&#45;&gt;Node2 -->
<g id="edge1" class="edge">
<title>Node1&#45;&gt;Node2</title>
<path fill="none" stroke="midnightblue" d="M100.4,-120.53C118.38,-130.12 140.51,-141.31 161,-150 165.38,-151.86 169.96,-153.68 174.59,-155.43"/>
<polygon fill="midnightblue" stroke="midnightblue" points="173.52,-158.77 184.12,-158.93 175.94,-152.2 173.52,-158.77"/>
</g>
<!-- Node3 -->
<g id="node3" class="node">
<title>Node3</title>
<g id="a_node3"><a xlink:href="classv8_1_1internal_1_1wasm_1_1LiftoffVarState.html#aecafee80437e9dc4bb82dbf97d46019b" target="_top" xlink:title=" ">
<polygon fill="white" stroke="black" points="170,-110 170,-140 295,-140 295,-110 170,-110"/>
<text text-anchor="start" x="178" y="-128" font-family="Helvetica,sans-Serif" font-size="10.00">v8::internal::wasm</text>
<text text-anchor="middle" x="232.5" y="-117" font-family="Helvetica,sans-Serif" font-size="10.00">::LiftoffVarState::offset</text>
</a>
</g>
</g>
<!-- Node1&#45;&gt;Node3 -->
<g id="edge2" class="edge">
<title>Node1&#45;&gt;Node3</title>
<path fill="none" stroke="midnightblue" d="M125.1,-109.17C136.4,-110.85 148.28,-112.62 159.85,-114.34"/>
<polygon fill="midnightblue" stroke="midnightblue" points="159.5,-117.82 169.9,-115.83 160.53,-110.9 159.5,-117.82"/>
</g>
<!-- Node4 -->
<g id="node4" class="node">
<title>Node4</title>
<g id="a_node4"><a xlink:href="classv8_1_1internal_1_1wasm_1_1LiftoffRegister.html#a9bd0779866c41b7b3f7ffe73f3a466a0" target="_top" xlink:title=" ">
<polygon fill="white" stroke="black" points="161,-61 161,-91 304,-91 304,-61 161,-61"/>
<text text-anchor="start" x="169" y="-79" font-family="Helvetica,sans-Serif" font-size="10.00">v8::internal::wasm</text>
<text text-anchor="middle" x="232.5" y="-68" font-family="Helvetica,sans-Serif" font-size="10.00">::LiftoffRegister::reg_class</text>
</a>
</g>
</g>
<!-- Node1&#45;&gt;Node4 -->
<g id="edge3" class="edge">
<title>Node1&#45;&gt;Node4</title>
<path fill="none" stroke="midnightblue" d="M125.1,-91.2C133.45,-90.01 142.11,-88.77 150.73,-87.54"/>
<polygon fill="midnightblue" stroke="midnightblue" points="151.4,-90.98 160.81,-86.1 150.41,-84.05 151.4,-90.98"/>
</g>
<!-- Node8 -->
<g id="node8" class="node">
<title>Node8</title>
<g id="a_node8"><a xlink:href="namespacev8_1_1internal_1_1wasm.html#a1583c3a8b98e77812492713f7b9170ad" target="_top" xlink:title=" ">
<polygon fill="white" stroke="black" points="179,-12 179,-42 286,-42 286,-12 179,-12"/>
<text text-anchor="start" x="187" y="-30" font-family="Helvetica,sans-Serif" font-size="10.00">v8::internal::wasm</text>
<text text-anchor="middle" x="232.5" y="-19" font-family="Helvetica,sans-Serif" font-size="10.00">::reg_class_for</text>
</a>
</g>
</g>
<!-- Node1&#45;&gt;Node8 -->
<g id="edge7" class="edge">
<title>Node1&#45;&gt;Node8</title>
<path fill="none" stroke="midnightblue" d="M102.86,-79.32C120.43,-70.43 141.53,-60.21 161,-52 166.09,-49.86 171.43,-47.73 176.8,-45.69"/>
<polygon fill="midnightblue" stroke="midnightblue" points="178.29,-48.86 186.44,-42.09 175.85,-42.3 178.29,-48.86"/>
</g>
<!-- Node5 -->
<g id="node5" class="node">
<title>Node5</title>
<g id="a_node5"><a xlink:href="classv8_1_1internal_1_1wasm_1_1LiftoffRegister.html#ac549a7093feb711541f124b1f9a68c6f" target="_top" xlink:title=" ">
<polygon fill="white" stroke="black" points="347.5,-110.5 347.5,-151.5 454.5,-151.5 454.5,-110.5 347.5,-110.5"/>
<text text-anchor="start" x="355.5" y="-139.5" font-family="Helvetica,sans-Serif" font-size="10.00">v8::internal::wasm</text>
<text text-anchor="start" x="355.5" y="-128.5" font-family="Helvetica,sans-Serif" font-size="10.00">::LiftoffRegister::is</text>
<text text-anchor="middle" x="401" y="-117.5" font-family="Helvetica,sans-Serif" font-size="10.00">_fp_pair</text>
</a>
</g>
</g>
<!-- Node4&#45;&gt;Node5 -->
<g id="edge4" class="edge">
<title>Node4&#45;&gt;Node5</title>
<path fill="none" stroke="midnightblue" d="M279,-91.03C297.12,-97.01 318.27,-104 337.77,-110.44"/>
<polygon fill="midnightblue" stroke="midnightblue" points="336.9,-113.84 347.49,-113.65 339.09,-107.19 336.9,-113.84"/>
</g>
<!-- Node6 -->
<g id="node6" class="node">
<title>Node6</title>
<g id="a_node6"><a xlink:href="classv8_1_1internal_1_1wasm_1_1LiftoffRegister.html#a77135ea37005f440316679884cb2773d" target="_top" xlink:title=" ">
<polygon fill="white" stroke="black" points="340,-61 340,-91 462,-91 462,-61 340,-61"/>
<text text-anchor="start" x="348" y="-79" font-family="Helvetica,sans-Serif" font-size="10.00">v8::internal::wasm</text>
<text text-anchor="middle" x="401" y="-68" font-family="Helvetica,sans-Serif" font-size="10.00">::LiftoffRegister::is_gp</text>
</a>
</g>
</g>
<!-- Node4&#45;&gt;Node6 -->
<g id="edge5" class="edge">
<title>Node4&#45;&gt;Node6</title>
<path fill="none" stroke="midnightblue" d="M304.11,-76C312.55,-76 321.18,-76 329.62,-76"/>
<polygon fill="midnightblue" stroke="midnightblue" points="329.8,-79.5 339.8,-76 329.8,-72.5 329.8,-79.5"/>
</g>
<!-- Node7 -->
<g id="node7" class="node">
<title>Node7</title>
<g id="a_node7"><a xlink:href="classv8_1_1internal_1_1wasm_1_1LiftoffRegister.html#aa603a39506dc9306ed447cdb910ad967" target="_top" xlink:title=" ">
<polygon fill="white" stroke="black" points="347.5,-0.5 347.5,-41.5 454.5,-41.5 454.5,-0.5 347.5,-0.5"/>
<text text-anchor="start" x="355.5" y="-29.5" font-family="Helvetica,sans-Serif" font-size="10.00">v8::internal::wasm</text>
<text text-anchor="start" x="355.5" y="-18.5" font-family="Helvetica,sans-Serif" font-size="10.00">::LiftoffRegister::is</text>
<text text-anchor="middle" x="401" y="-7.5" font-family="Helvetica,sans-Serif" font-size="10.00">_gp_pair</text>
</a>
</g>
</g>
<!-- Node4&#45;&gt;Node7 -->
<g id="edge6" class="edge">
<title>Node4&#45;&gt;Node7</title>
<path fill="none" stroke="midnightblue" d="M279,-60.97C297.12,-54.99 318.27,-48 337.77,-41.56"/>
<polygon fill="midnightblue" stroke="midnightblue" points="339.09,-44.81 347.49,-38.35 336.9,-38.16 339.09,-44.81"/>
</g>
</g>
</svg>
