<?xml version="1.0" encoding="UTF-8" standalone="no"?>
<!DOCTYPE svg PUBLIC "-//W3C//DTD SVG 1.1//EN"
 "http://www.w3.org/Graphics/SVG/1.1/DTD/svg11.dtd">
<!-- Generated by graphviz version 2.43.0 (0)
 -->
<!-- Title: v8::internal::MemoryChunk::InCodeSpace Pages: 1 -->
<svg width="765pt" height="284pt"
 viewBox="0.00 0.00 765.00 284.00" xmlns="http://www.w3.org/2000/svg" xmlns:xlink="http://www.w3.org/1999/xlink">
<g id="graph0" class="graph" transform="scale(1 1) rotate(0) translate(4 280)">
<title>v8::internal::MemoryChunk::InCodeSpace</title>
<polygon fill="white" stroke="transparent" points="-4,4 -4,-280 761,-280 761,4 -4,4"/>
<!-- Node1 -->
<g id="node1" class="node">
<title>Node1</title>
<g id="a_node1"><a xlink:title=" ">
<polygon fill="#bfbfbf" stroke="black" points="608,-70.5 608,-100.5 757,-100.5 757,-70.5 608,-70.5"/>
<text text-anchor="start" x="616" y="-88.5" font-family="Helvetica,sans-Serif" font-size="10.00">v8::internal::MemoryChunk</text>
<text text-anchor="middle" x="682.5" y="-77.5" font-family="Helvetica,sans-Serif" font-size="10.00">::InCodeSpace</text>
</a>
</g>
</g>
<!-- Node2 -->
<g id="node2" class="node">
<title>Node2</title>
<g id="a_node2"><a xlink:href="classv8_1_1internal_1_1HeapLayout.html#af21f0f74e8bed1d00aab0e877e001759" target="_top" xlink:title=" ">
<polygon fill="white" stroke="black" points="418.5,-98.5 418.5,-128.5 555.5,-128.5 555.5,-98.5 418.5,-98.5"/>
<text text-anchor="start" x="426.5" y="-116.5" font-family="Helvetica,sans-Serif" font-size="10.00">v8::internal::HeapLayout</text>
<text text-anchor="middle" x="487" y="-105.5" font-family="Helvetica,sans-Serif" font-size="10.00">::InCodeSpace</text>
</a>
</g>
</g>
<!-- Node1&#45;&gt;Node2 -->
<g id="edge1" class="edge">
<title>Node1&#45;&gt;Node2</title>
<path fill="none" stroke="midnightblue" d="M597.68,-97.63C583.68,-99.65 569.31,-101.73 555.78,-103.69"/>
<polygon fill="midnightblue" stroke="midnightblue" points="598.4,-101.06 607.79,-96.17 597.4,-94.13 598.4,-101.06"/>
</g>
<!-- Node2166 -->
<g id="node13" class="node">
<title>Node2166</title>
<g id="a_node13"><a xlink:href="classv8_1_1internal_1_1MarkCompactCollector.html#a14b8e9f090e9c7641574ed9829b4fee1" target="_top" xlink:title=" ">
<polygon fill="white" stroke="black" points="402,-38 402,-79 572,-79 572,-38 402,-38"/>
<text text-anchor="start" x="410" y="-67" font-family="Helvetica,sans-Serif" font-size="10.00">v8::internal::MarkCompact</text>
<text text-anchor="start" x="410" y="-56" font-family="Helvetica,sans-Serif" font-size="10.00">Collector::ResetAndRelinkBlack</text>
<text text-anchor="middle" x="487" y="-45" font-family="Helvetica,sans-Serif" font-size="10.00">AllocatedPage</text>
</a>
</g>
</g>
<!-- Node1&#45;&gt;Node2166 -->
<g id="edge12" class="edge">
<title>Node1&#45;&gt;Node2166</title>
<path fill="none" stroke="midnightblue" d="M597.88,-73.83C589.36,-72.64 580.7,-71.44 572.18,-70.25"/>
<polygon fill="midnightblue" stroke="midnightblue" points="597.41,-77.3 607.79,-75.22 598.37,-70.37 597.41,-77.3"/>
</g>
<!-- Node3 -->
<g id="node3" class="node">
<title>Node3</title>
<g id="a_node3"><a xlink:href="classv8_1_1internal_1_1HeapProfiler.html#a29fb4ce7c312ed3f061cc38a7b5751b4" target="_top" xlink:title=" ">
<polygon fill="white" stroke="black" points="193,-196.5 193,-226.5 366,-226.5 366,-196.5 193,-196.5"/>
<text text-anchor="start" x="201" y="-214.5" font-family="Helvetica,sans-Serif" font-size="10.00">v8::internal::HeapProfiler</text>
<text text-anchor="middle" x="279.5" y="-203.5" font-family="Helvetica,sans-Serif" font-size="10.00">::GetDetachedJSWrapperObjects</text>
</a>
</g>
</g>
<!-- Node2&#45;&gt;Node3 -->
<g id="edge2" class="edge">
<title>Node2&#45;&gt;Node3</title>
<path fill="none" stroke="midnightblue" d="M456.85,-134.7C433.3,-151.01 398.8,-173.12 366,-187.5 358.37,-190.84 350.16,-193.84 341.95,-196.5"/>
<polygon fill="midnightblue" stroke="midnightblue" points="459.14,-137.37 465.31,-128.76 455.12,-131.64 459.14,-137.37"/>
</g>
<!-- Node4 -->
<g id="node4" class="node">
<title>Node4</title>
<g id="a_node4"><a xlink:href="classv8_1_1internal_1_1V8HeapExplorer.html#ac21f24fb368c6df8305e037d7021e032" target="_top" xlink:title=" ">
<polygon fill="white" stroke="black" points="201,-147.5 201,-177.5 358,-177.5 358,-147.5 201,-147.5"/>
<text text-anchor="start" x="209" y="-165.5" font-family="Helvetica,sans-Serif" font-size="10.00">v8::internal::V8HeapExplorer</text>
<text text-anchor="middle" x="279.5" y="-154.5" font-family="Helvetica,sans-Serif" font-size="10.00">::IsEssentialObject</text>
</a>
</g>
</g>
<!-- Node2&#45;&gt;Node4 -->
<g id="edge3" class="edge">
<title>Node2&#45;&gt;Node4</title>
<path fill="none" stroke="midnightblue" d="M413.01,-130.9C390.28,-136.32 365.42,-142.25 343.43,-147.49"/>
<polygon fill="midnightblue" stroke="midnightblue" points="414.03,-134.26 422.95,-128.53 412.41,-127.45 414.03,-134.26"/>
</g>
<!-- Node2162 -->
<g id="node9" class="node">
<title>Node2162</title>
<g id="a_node9"><a xlink:href="classv8_1_1internal_1_1WriteBarrier.html#a40f4237648445ff88894d1206f9af78f" target="_top" xlink:title=" ">
<polygon fill="white" stroke="black" points="211,-98.5 211,-128.5 348,-128.5 348,-98.5 211,-98.5"/>
<text text-anchor="start" x="219" y="-116.5" font-family="Helvetica,sans-Serif" font-size="10.00">v8::internal::WriteBarrier</text>
<text text-anchor="middle" x="279.5" y="-105.5" font-family="Helvetica,sans-Serif" font-size="10.00">::Marking</text>
</a>
</g>
</g>
<!-- Node2&#45;&gt;Node2162 -->
<g id="edge8" class="edge">
<title>Node2&#45;&gt;Node2162</title>
<path fill="none" stroke="midnightblue" d="M408.22,-113.5C388.44,-113.5 367.34,-113.5 348.11,-113.5"/>
<polygon fill="midnightblue" stroke="midnightblue" points="408.43,-117 418.43,-113.5 408.43,-110 408.43,-117"/>
</g>
<!-- Node2163 -->
<g id="node10" class="node">
<title>Node2163</title>
<g id="a_node10"><a xlink:href="classv8_1_1internal_1_1SamplingHeapProfiler.html#a39de70ab03f88baaba13c99692d63733" target="_top" xlink:title=" ">
<polygon fill="white" stroke="black" points="205,-49.5 205,-79.5 354,-79.5 354,-49.5 205,-49.5"/>
<text text-anchor="start" x="213" y="-67.5" font-family="Helvetica,sans-Serif" font-size="10.00">v8::internal::SamplingHeap</text>
<text text-anchor="middle" x="279.5" y="-56.5" font-family="Helvetica,sans-Serif" font-size="10.00">Profiler::SampleObject</text>
</a>
</g>
</g>
<!-- Node2&#45;&gt;Node2163 -->
<g id="edge9" class="edge">
<title>Node2&#45;&gt;Node2163</title>
<path fill="none" stroke="midnightblue" d="M413.01,-96.1C390.28,-90.68 365.42,-84.75 343.43,-79.51"/>
<polygon fill="midnightblue" stroke="midnightblue" points="412.41,-99.55 422.95,-98.47 414.03,-92.74 412.41,-99.55"/>
</g>
<!-- Node2165 -->
<g id="node12" class="node">
<title>Node2165</title>
<g id="a_node12"><a xlink:href="classv8_1_1internal_1_1EvacuateNewToOldSpacePageVisitor.html#adf2216bbd8150b14345b02a55cf7e355" target="_top" xlink:title=" ">
<polygon fill="white" stroke="black" points="202,-0.5 202,-30.5 357,-30.5 357,-0.5 202,-0.5"/>
<text text-anchor="start" x="210" y="-18.5" font-family="Helvetica,sans-Serif" font-size="10.00">v8::internal::EvacuateNew</text>
<text text-anchor="middle" x="279.5" y="-7.5" font-family="Helvetica,sans-Serif" font-size="10.00">ToOldSpacePageVisitor::Visit</text>
</a>
</g>
</g>
<!-- Node2&#45;&gt;Node2165 -->
<g id="edge11" class="edge">
<title>Node2&#45;&gt;Node2165</title>
<path fill="none" stroke="midnightblue" d="M410.62,-93.85C407.62,-92.21 404.74,-90.43 402,-88.5 379.9,-72.95 388.22,-54.88 366,-39.5 361.06,-36.08 355.63,-33.14 349.99,-30.62"/>
<polygon fill="midnightblue" stroke="midnightblue" points="409.34,-97.12 419.86,-98.39 412.42,-90.84 409.34,-97.12"/>
</g>
<!-- Node5 -->
<g id="node5" class="node">
<title>Node5</title>
<g id="a_node5"><a xlink:href="classv8_1_1internal_1_1V8HeapExplorer.html#a9c976c253db37dc7ebef4a4ab6f5d142" target="_top" xlink:title=" ">
<polygon fill="white" stroke="red" points="0,-245.5 0,-275.5 157,-275.5 157,-245.5 0,-245.5"/>
<text text-anchor="start" x="8" y="-263.5" font-family="Helvetica,sans-Serif" font-size="10.00">v8::internal::V8HeapExplorer</text>
<text text-anchor="middle" x="78.5" y="-252.5" font-family="Helvetica,sans-Serif" font-size="10.00">::SetHiddenReference</text>
</a>
</g>
</g>
<!-- Node4&#45;&gt;Node5 -->
<g id="edge4" class="edge">
<title>Node4&#45;&gt;Node5</title>
<path fill="none" stroke="midnightblue" d="M202.06,-181.93C198.91,-183.64 195.87,-185.49 193,-187.5 170.86,-203 179.01,-220.83 157,-236.5 152.18,-239.93 146.86,-242.88 141.32,-245.42"/>
<polygon fill="midnightblue" stroke="midnightblue" points="203.71,-185.02 211.18,-177.51 200.65,-178.72 203.71,-185.02"/>
</g>
<!-- Node15 -->
<g id="node6" class="node">
<title>Node15</title>
<g id="a_node6"><a xlink:href="classv8_1_1internal_1_1V8HeapExplorer.html#a11e4079a1bdd57548d4cd3cd5b306b9e" target="_top" xlink:title=" ">
<polygon fill="white" stroke="red" points="0,-196.5 0,-226.5 157,-226.5 157,-196.5 0,-196.5"/>
<text text-anchor="start" x="8" y="-214.5" font-family="Helvetica,sans-Serif" font-size="10.00">v8::internal::V8HeapExplorer</text>
<text text-anchor="middle" x="78.5" y="-203.5" font-family="Helvetica,sans-Serif" font-size="10.00">::SetInternalReference</text>
</a>
</g>
</g>
<!-- Node4&#45;&gt;Node15 -->
<g id="edge5" class="edge">
<title>Node4&#45;&gt;Node15</title>
<path fill="none" stroke="midnightblue" d="M207.52,-179.98C185.59,-185.38 161.64,-191.28 140.44,-196.49"/>
<polygon fill="midnightblue" stroke="midnightblue" points="208.57,-183.32 217.44,-177.53 206.89,-176.53 208.57,-183.32"/>
</g>
<!-- Node2145 -->
<g id="node7" class="node">
<title>Node2145</title>
<g id="a_node7"><a xlink:href="classv8_1_1internal_1_1V8HeapExplorer.html#aceb0d2d8575dee90e46e794215296267" target="_top" xlink:title=" ">
<polygon fill="white" stroke="red" points="0,-147.5 0,-177.5 157,-177.5 157,-147.5 0,-147.5"/>
<text text-anchor="start" x="8" y="-165.5" font-family="Helvetica,sans-Serif" font-size="10.00">v8::internal::V8HeapExplorer</text>
<text text-anchor="middle" x="78.5" y="-154.5" font-family="Helvetica,sans-Serif" font-size="10.00">::SetWeakReference</text>
</a>
</g>
</g>
<!-- Node4&#45;&gt;Node2145 -->
<g id="edge6" class="edge">
<title>Node4&#45;&gt;Node2145</title>
<path fill="none" stroke="midnightblue" d="M190.77,-162.5C179.57,-162.5 168.16,-162.5 157.12,-162.5"/>
<polygon fill="midnightblue" stroke="midnightblue" points="190.99,-166 200.99,-162.5 190.99,-159 190.99,-166"/>
</g>
<!-- Node2150 -->
<g id="node8" class="node">
<title>Node2150</title>
<g id="a_node8"><a xlink:href="classv8_1_1internal_1_1V8HeapExplorer.html#ad2116b4a259a57b12cd429c0087d115a" target="_top" xlink:title=" ">
<polygon fill="white" stroke="red" points="0,-98.5 0,-128.5 157,-128.5 157,-98.5 0,-98.5"/>
<text text-anchor="start" x="8" y="-116.5" font-family="Helvetica,sans-Serif" font-size="10.00">v8::internal::V8HeapExplorer</text>
<text text-anchor="middle" x="78.5" y="-105.5" font-family="Helvetica,sans-Serif" font-size="10.00">::TagObject</text>
</a>
</g>
</g>
<!-- Node4&#45;&gt;Node2150 -->
<g id="edge7" class="edge">
<title>Node4&#45;&gt;Node2150</title>
<path fill="none" stroke="midnightblue" d="M207.52,-145.02C185.59,-139.62 161.64,-133.72 140.44,-128.51"/>
<polygon fill="midnightblue" stroke="midnightblue" points="206.89,-148.47 217.44,-147.47 208.57,-141.68 206.89,-148.47"/>
</g>
<!-- Node2164 -->
<g id="node11" class="node">
<title>Node2164</title>
<g id="a_node11"><a xlink:href="classv8_1_1internal_1_1SamplingHeapProfiler_1_1Observer.html#ade77f36cd9d5ad1bb78975f6e9d0174b" target="_top" xlink:title=" ">
<polygon fill="white" stroke="black" points="4,-49.5 4,-79.5 153,-79.5 153,-49.5 4,-49.5"/>
<text text-anchor="start" x="12" y="-67.5" font-family="Helvetica,sans-Serif" font-size="10.00">v8::internal::SamplingHeap</text>
<text text-anchor="middle" x="78.5" y="-56.5" font-family="Helvetica,sans-Serif" font-size="10.00">Profiler::Observer::Step</text>
</a>
</g>
</g>
<!-- Node2163&#45;&gt;Node2164 -->
<g id="edge10" class="edge">
<title>Node2163&#45;&gt;Node2164</title>
<path fill="none" stroke="midnightblue" d="M194.93,-64.5C181.03,-64.5 166.7,-64.5 153.06,-64.5"/>
<polygon fill="midnightblue" stroke="midnightblue" points="194.97,-68 204.97,-64.5 194.97,-61 194.97,-68"/>
</g>
</g>
</svg>
