<?xml version="1.0" encoding="UTF-8" standalone="no"?>
<!DOCTYPE svg PUBLIC "-//W3C//DTD SVG 1.1//EN"
 "http://www.w3.org/Graphics/SVG/1.1/DTD/svg11.dtd">
<!-- Generated by graphviz version 2.43.0 (0)
 -->
<!-- Title: v8::internal::compiler::turboshaft::detail::GrowingSidetable&lt; T, Key &gt; Pages: 1 -->
<!--zoomable 701 -->
<svg id="main" version="1.1" xmlns="http://www.w3.org/2000/svg" xmlns:xlink="http://www.w3.org/1999/xlink" xml:space="preserve" onload="init(evt)">
<style type="text/css"><![CDATA[
.edge:hover path { stroke: red; }
.edge:hover polygon { stroke: red; fill: red; }
]]></style>
<script type="text/javascript"><![CDATA[
var edges = document.getElementsByTagName('g');
if (edges && edges.length) {
  for (var i=0;i<edges.length;i++) {
    if (edges[i].id.substr(0,4)=='edge') {
      edges[i].setAttribute('class','edge');
    }
  }
}
]]></script>
        <defs>
                <circle id="rim" cx="0" cy="0" r="7"/>
                <circle id="rim2" cx="0" cy="0" r="3.5"/>
                <g id="zoomPlus">
                        <use xlink:href="#rim" fill="#404040">
                                <set attributeName="fill" to="#808080" begin="zoomplus.mouseover" end="zoomplus.mouseout"/>
                        </use>
                        <path d="M-4,0h8M0,-4v8" fill="none" stroke="white" stroke-width="1.5" pointer-events="none"/>
                </g>
                <g id="zoomMin">
                        <use xlink:href="#rim" fill="#404040">
                                <set attributeName="fill" to="#808080" begin="zoomminus.mouseover" end="zoomminus.mouseout"/>
                        </use>
                        <path d="M-4,0h8" fill="none" stroke="white" stroke-width="1.5" pointer-events="none"/>
                </g>
                <g id="dirArrow">
                        <path fill="none" stroke="white" stroke-width="1.5" d="M0,-3.0v7 M-2.5,-0.5L0,-3.0L2.5,-0.5"/>
                </g>
               <g id="resetDef">
                       <use xlink:href="#rim2" fill="#404040">
                               <set attributeName="fill" to="#808080" begin="reset.mouseover" end="reset.mouseout"/>
                       </use>
               </g>
        </defs>

<script type="text/javascript">
var viewWidth = 2089;
var viewHeight = 701;
var sectionId = 'dynsection-0';
</script>
<script xlink:href="svgpan.js"/>
<svg id="graph" class="graph">
<g id="viewport">
<title>v8::internal::compiler::turboshaft::detail::GrowingSidetable&lt; T, Key &gt;</title>
<polygon fill="white" stroke="transparent" points="-4,4 -4,-697 2084.5,-697 2084.5,4 -4,4"/>
<!-- Node1 -->
<g id="node1" class="node">
<title>Node1</title>
<g id="a_node1"><a xlink:title=" ">
<polygon fill="#bfbfbf" stroke="black" points="1009,-547.5 1009,-692.5 1164,-692.5 1164,-547.5 1009,-547.5"/>
<text text-anchor="start" x="1017" y="-680.5" font-family="Helvetica,sans-Serif" font-size="10.00">v8::internal::compiler</text>
<text text-anchor="start" x="1017" y="-669.5" font-family="Helvetica,sans-Serif" font-size="10.00">::turboshaft::detail::</text>
<text text-anchor="middle" x="1086.5" y="-658.5" font-family="Helvetica,sans-Serif" font-size="10.00">GrowingSidetable&lt; T, Key &gt;</text>
<polyline fill="none" stroke="black" points="1009,-651.5 1164,-651.5 "/>
<text text-anchor="start" x="1017" y="-639.5" font-family="Helvetica,sans-Serif" font-size="10.00"># table_</text>
<polyline fill="none" stroke="black" points="1009,-632.5 1164,-632.5 "/>
<text text-anchor="start" x="1017" y="-620.5" font-family="Helvetica,sans-Serif" font-size="10.00">+ operator[]()</text>
<text text-anchor="start" x="1017" y="-609.5" font-family="Helvetica,sans-Serif" font-size="10.00">+ operator[]()</text>
<text text-anchor="start" x="1017" y="-598.5" font-family="Helvetica,sans-Serif" font-size="10.00">+ Reset()</text>
<text text-anchor="start" x="1017" y="-587.5" font-family="Helvetica,sans-Serif" font-size="10.00">+ empty()</text>
<text text-anchor="start" x="1017" y="-576.5" font-family="Helvetica,sans-Serif" font-size="10.00"># GrowingSidetable()</text>
<text text-anchor="start" x="1017" y="-565.5" font-family="Helvetica,sans-Serif" font-size="10.00"># GrowingSidetable()</text>
<text text-anchor="start" x="1017" y="-554.5" font-family="Helvetica,sans-Serif" font-size="10.00"># NextSize()</text>
</a>
</g>
</g>
<!-- Node2 -->
<g id="node2" class="node">
<title>Node2</title>
<g id="a_node2"><a xlink:href="classv8_1_1internal_1_1compiler_1_1turboshaft_1_1GrowingBlockSidetable.html" target="_top" xlink:title=" ">
<polygon fill="white" stroke="black" points="0,-17 0,-118 191,-118 191,-17 0,-17"/>
<text text-anchor="start" x="8" y="-106" font-family="Helvetica,sans-Serif" font-size="10.00">v8::internal::compiler</text>
<text text-anchor="start" x="8" y="-95" font-family="Helvetica,sans-Serif" font-size="10.00">::turboshaft::GrowingBlockSidetable</text>
<text text-anchor="start" x="8" y="-84" font-family="Helvetica,sans-Serif" font-size="10.00">&lt; const v8::internal::maglev::</text>
<text text-anchor="middle" x="95.5" y="-73" font-family="Helvetica,sans-Serif" font-size="10.00">BasicBlock * &gt;</text>
<polyline fill="none" stroke="black" points="0,-66 191,-66 "/>
<text text-anchor="middle" x="95.5" y="-54" font-family="Helvetica,sans-Serif" font-size="10.00"> </text>
<polyline fill="none" stroke="black" points="0,-47 191,-47 "/>
<text text-anchor="start" x="8" y="-35" font-family="Helvetica,sans-Serif" font-size="10.00">+ GrowingBlockSidetable()</text>
<text text-anchor="start" x="8" y="-24" font-family="Helvetica,sans-Serif" font-size="10.00">+ GrowingBlockSidetable()</text>
</a>
</g>
</g>
<!-- Node1&#45;&gt;Node2 -->
<g id="edge1" class="edge">
<title>Node1&#45;&gt;Node2</title>
<path fill="none" stroke="midnightblue" d="M998.92,-612.49C835.34,-598.98 490.96,-563.69 391.5,-500 244.61,-405.94 151.56,-210.25 114.21,-118.29"/>
<polygon fill="none" stroke="midnightblue" points="998.7,-615.99 1008.95,-613.31 999.27,-609.01 998.7,-615.99"/>
</g>
<!-- Node3 -->
<g id="node3" class="node">
<title>Node3</title>
<g id="a_node3"><a xlink:href="classv8_1_1internal_1_1compiler_1_1turboshaft_1_1GrowingBlockSidetable.html" target="_top" xlink:title=" ">
<polygon fill="white" stroke="black" points="209,-22.5 209,-112.5 400,-112.5 400,-22.5 209,-22.5"/>
<text text-anchor="start" x="217" y="-100.5" font-family="Helvetica,sans-Serif" font-size="10.00">v8::internal::compiler</text>
<text text-anchor="start" x="217" y="-89.5" font-family="Helvetica,sans-Serif" font-size="10.00">::turboshaft::GrowingBlockSidetable</text>
<text text-anchor="middle" x="304.5" y="-78.5" font-family="Helvetica,sans-Serif" font-size="10.00">&lt; int &gt;</text>
<polyline fill="none" stroke="black" points="209,-71.5 400,-71.5 "/>
<text text-anchor="middle" x="304.5" y="-59.5" font-family="Helvetica,sans-Serif" font-size="10.00"> </text>
<polyline fill="none" stroke="black" points="209,-52.5 400,-52.5 "/>
<text text-anchor="start" x="217" y="-40.5" font-family="Helvetica,sans-Serif" font-size="10.00">+ GrowingBlockSidetable()</text>
<text text-anchor="start" x="217" y="-29.5" font-family="Helvetica,sans-Serif" font-size="10.00">+ GrowingBlockSidetable()</text>
</a>
</g>
</g>
<!-- Node1&#45;&gt;Node3 -->
<g id="edge2" class="edge">
<title>Node1&#45;&gt;Node3</title>
<path fill="none" stroke="midnightblue" d="M998.5,-607.95C863.59,-589.69 613.48,-550.18 539.5,-500 395.36,-402.22 383.65,-337.33 320.5,-175 312.84,-155.31 308.82,-132.25 306.73,-112.64"/>
<polygon fill="none" stroke="midnightblue" points="998.43,-611.48 1008.8,-609.34 999.36,-604.54 998.43,-611.48"/>
</g>
<!-- Node4 -->
<g id="node4" class="node">
<title>Node4</title>
<g id="a_node4"><a xlink:href="classv8_1_1internal_1_1compiler_1_1turboshaft_1_1GrowingBlockSidetable.html" target="_top" xlink:title=" ">
<polygon fill="white" stroke="black" points="643,-22.5 643,-112.5 834,-112.5 834,-22.5 643,-22.5"/>
<text text-anchor="start" x="651" y="-100.5" font-family="Helvetica,sans-Serif" font-size="10.00">v8::internal::compiler</text>
<text text-anchor="start" x="651" y="-89.5" font-family="Helvetica,sans-Serif" font-size="10.00">::turboshaft::GrowingBlockSidetable</text>
<text text-anchor="middle" x="738.5" y="-78.5" font-family="Helvetica,sans-Serif" font-size="10.00">&lt; std::optional&lt; Snapshot &gt; &gt;</text>
<polyline fill="none" stroke="black" points="643,-71.5 834,-71.5 "/>
<text text-anchor="middle" x="738.5" y="-59.5" font-family="Helvetica,sans-Serif" font-size="10.00"> </text>
<polyline fill="none" stroke="black" points="643,-52.5 834,-52.5 "/>
<text text-anchor="start" x="651" y="-40.5" font-family="Helvetica,sans-Serif" font-size="10.00">+ GrowingBlockSidetable()</text>
<text text-anchor="start" x="651" y="-29.5" font-family="Helvetica,sans-Serif" font-size="10.00">+ GrowingBlockSidetable()</text>
</a>
</g>
</g>
<!-- Node1&#45;&gt;Node4 -->
<g id="edge3" class="edge">
<title>Node1&#45;&gt;Node4</title>
<path fill="none" stroke="midnightblue" d="M1078.56,-537.34C1065.46,-410.79 1038.03,-179.06 1010.5,-153 983.23,-127.19 877.92,-147.44 842.5,-135 826.93,-129.53 811.32,-121.34 797.1,-112.55"/>
<polygon fill="none" stroke="midnightblue" points="1075.08,-537.8 1079.59,-547.39 1082.05,-537.08 1075.08,-537.8"/>
</g>
<!-- Node5 -->
<g id="node5" class="node">
<title>Node5</title>
<g id="a_node5"><a xlink:href="classv8_1_1internal_1_1compiler_1_1turboshaft_1_1GrowingBlockSidetable.html" target="_top" xlink:title=" ">
<polygon fill="white" stroke="black" points="418,-22.5 418,-112.5 625,-112.5 625,-22.5 418,-22.5"/>
<text text-anchor="start" x="426" y="-100.5" font-family="Helvetica,sans-Serif" font-size="10.00">v8::internal::compiler</text>
<text text-anchor="start" x="426" y="-89.5" font-family="Helvetica,sans-Serif" font-size="10.00">::turboshaft::GrowingBlockSidetable</text>
<text text-anchor="middle" x="521.5" y="-78.5" font-family="Helvetica,sans-Serif" font-size="10.00">&lt; std::optional&lt; table_t::Snapshot &gt; &gt;</text>
<polyline fill="none" stroke="black" points="418,-71.5 625,-71.5 "/>
<text text-anchor="middle" x="521.5" y="-59.5" font-family="Helvetica,sans-Serif" font-size="10.00"> </text>
<polyline fill="none" stroke="black" points="418,-52.5 625,-52.5 "/>
<text text-anchor="start" x="426" y="-40.5" font-family="Helvetica,sans-Serif" font-size="10.00">+ GrowingBlockSidetable()</text>
<text text-anchor="start" x="426" y="-29.5" font-family="Helvetica,sans-Serif" font-size="10.00">+ GrowingBlockSidetable()</text>
</a>
</g>
</g>
<!-- Node1&#45;&gt;Node5 -->
<g id="edge4" class="edge">
<title>Node1&#45;&gt;Node5</title>
<path fill="none" stroke="midnightblue" d="M998.77,-613.58C906.3,-603.82 760.6,-576.49 661.5,-500 534.36,-401.86 531.05,-333.23 503.5,-175 499.93,-154.49 502.84,-131.75 507.28,-112.56"/>
<polygon fill="none" stroke="midnightblue" points="998.64,-617.08 1008.94,-614.6 999.34,-610.12 998.64,-617.08"/>
</g>
<!-- Node6 -->
<g id="node6" class="node">
<title>Node6</title>
<g id="a_node6"><a xlink:href="classv8_1_1internal_1_1compiler_1_1turboshaft_1_1GrowingBlockSidetable.html" target="_top" xlink:title=" ">
<polygon fill="white" stroke="black" points="852,-17 852,-118 1043,-118 1043,-17 852,-17"/>
<text text-anchor="start" x="860" y="-106" font-family="Helvetica,sans-Serif" font-size="10.00">v8::internal::compiler</text>
<text text-anchor="start" x="860" y="-95" font-family="Helvetica,sans-Serif" font-size="10.00">::turboshaft::GrowingBlockSidetable</text>
<text text-anchor="start" x="860" y="-84" font-family="Helvetica,sans-Serif" font-size="10.00">&lt; std::optional&lt; v8::internal</text>
<text text-anchor="middle" x="947.5" y="-73" font-family="Helvetica,sans-Serif" font-size="10.00">::Snapshot &gt; &gt;</text>
<polyline fill="none" stroke="black" points="852,-66 1043,-66 "/>
<text text-anchor="middle" x="947.5" y="-54" font-family="Helvetica,sans-Serif" font-size="10.00"> </text>
<polyline fill="none" stroke="black" points="852,-47 1043,-47 "/>
<text text-anchor="start" x="860" y="-35" font-family="Helvetica,sans-Serif" font-size="10.00">+ GrowingBlockSidetable()</text>
<text text-anchor="start" x="860" y="-24" font-family="Helvetica,sans-Serif" font-size="10.00">+ GrowingBlockSidetable()</text>
</a>
</g>
</g>
<!-- Node1&#45;&gt;Node6 -->
<g id="edge5" class="edge">
<title>Node1&#45;&gt;Node6</title>
<path fill="none" stroke="midnightblue" d="M1086.14,-537.07C1084.43,-421.68 1076.62,-218.11 1043.5,-153 1037.06,-140.33 1027.84,-128.72 1017.63,-118.42"/>
<polygon fill="none" stroke="midnightblue" points="1082.64,-537.31 1086.28,-547.27 1089.64,-537.22 1082.64,-537.31"/>
</g>
<!-- Node7 -->
<g id="node7" class="node">
<title>Node7</title>
<g id="a_node7"><a xlink:href="classv8_1_1internal_1_1compiler_1_1turboshaft_1_1GrowingOpIndexSidetable.html" target="_top" xlink:title=" ">
<polygon fill="white" stroke="black" points="1061.5,-0.5 1061.5,-134.5 1239.5,-134.5 1239.5,-0.5 1061.5,-0.5"/>
<text text-anchor="start" x="1069.5" y="-122.5" font-family="Helvetica,sans-Serif" font-size="10.00">v8::internal::compiler</text>
<text text-anchor="start" x="1069.5" y="-111.5" font-family="Helvetica,sans-Serif" font-size="10.00">::turboshaft::GrowingOpIndex</text>
<text text-anchor="start" x="1069.5" y="-100.5" font-family="Helvetica,sans-Serif" font-size="10.00">Sidetable&lt; v8::internal::compiler</text>
<text text-anchor="middle" x="1150.5" y="-89.5" font-family="Helvetica,sans-Serif" font-size="10.00">::turboshaft::Type &gt;</text>
<polyline fill="none" stroke="black" points="1061.5,-82.5 1239.5,-82.5 "/>
<text text-anchor="middle" x="1150.5" y="-70.5" font-family="Helvetica,sans-Serif" font-size="10.00"> </text>
<polyline fill="none" stroke="black" points="1061.5,-63.5 1239.5,-63.5 "/>
<text text-anchor="start" x="1069.5" y="-51.5" font-family="Helvetica,sans-Serif" font-size="10.00">+ GrowingOpIndexSidetable()</text>
<text text-anchor="start" x="1069.5" y="-40.5" font-family="Helvetica,sans-Serif" font-size="10.00">+ GrowingOpIndexSidetable()</text>
<text text-anchor="start" x="1069.5" y="-29.5" font-family="Helvetica,sans-Serif" font-size="10.00">+ operator[]()</text>
<text text-anchor="start" x="1069.5" y="-18.5" font-family="Helvetica,sans-Serif" font-size="10.00">+ operator[]()</text>
<text text-anchor="start" x="1069.5" y="-7.5" font-family="Helvetica,sans-Serif" font-size="10.00">+ SwapData()</text>
</a>
</g>
</g>
<!-- Node1&#45;&gt;Node7 -->
<g id="edge6" class="edge">
<title>Node1&#45;&gt;Node7</title>
<path fill="none" stroke="midnightblue" d="M1090.31,-536.87C1095.51,-443.4 1106.91,-286.38 1129.5,-153 1130.51,-147.04 1131.72,-140.88 1133.03,-134.72"/>
<polygon fill="none" stroke="midnightblue" points="1086.8,-536.94 1089.75,-547.11 1093.79,-537.32 1086.8,-536.94"/>
</g>
<!-- Node8 -->
<g id="node8" class="node">
<title>Node8</title>
<g id="a_node8"><a xlink:href="classv8_1_1internal_1_1compiler_1_1turboshaft_1_1GrowingOpIndexSidetable.html" target="_top" xlink:title=" ">
<polygon fill="white" stroke="black" points="1257.5,-0.5 1257.5,-134.5 1435.5,-134.5 1435.5,-0.5 1257.5,-0.5"/>
<text text-anchor="start" x="1265.5" y="-122.5" font-family="Helvetica,sans-Serif" font-size="10.00">v8::internal::compiler</text>
<text text-anchor="start" x="1265.5" y="-111.5" font-family="Helvetica,sans-Serif" font-size="10.00">::turboshaft::GrowingOpIndex</text>
<text text-anchor="start" x="1265.5" y="-100.5" font-family="Helvetica,sans-Serif" font-size="10.00">Sidetable&lt; v8::internal::compiler</text>
<text text-anchor="middle" x="1346.5" y="-89.5" font-family="Helvetica,sans-Serif" font-size="10.00">::turboshaft::BlockIndex &gt;</text>
<polyline fill="none" stroke="black" points="1257.5,-82.5 1435.5,-82.5 "/>
<text text-anchor="middle" x="1346.5" y="-70.5" font-family="Helvetica,sans-Serif" font-size="10.00"> </text>
<polyline fill="none" stroke="black" points="1257.5,-63.5 1435.5,-63.5 "/>
<text text-anchor="start" x="1265.5" y="-51.5" font-family="Helvetica,sans-Serif" font-size="10.00">+ GrowingOpIndexSidetable()</text>
<text text-anchor="start" x="1265.5" y="-40.5" font-family="Helvetica,sans-Serif" font-size="10.00">+ GrowingOpIndexSidetable()</text>
<text text-anchor="start" x="1265.5" y="-29.5" font-family="Helvetica,sans-Serif" font-size="10.00">+ operator[]()</text>
<text text-anchor="start" x="1265.5" y="-18.5" font-family="Helvetica,sans-Serif" font-size="10.00">+ operator[]()</text>
<text text-anchor="start" x="1265.5" y="-7.5" font-family="Helvetica,sans-Serif" font-size="10.00">+ SwapData()</text>
</a>
</g>
</g>
<!-- Node1&#45;&gt;Node8 -->
<g id="edge7" class="edge">
<title>Node1&#45;&gt;Node8</title>
<path fill="none" stroke="midnightblue" d="M1104.74,-537.27C1134.29,-405.54 1189.99,-160.21 1196.5,-153 1212.89,-134.85 1226.64,-145.96 1248.5,-135 1251.44,-133.53 1254.4,-131.98 1257.35,-130.37"/>
<polygon fill="none" stroke="midnightblue" points="1101.26,-536.8 1102.49,-547.32 1108.09,-538.33 1101.26,-536.8"/>
</g>
<!-- Node9 -->
<g id="node9" class="node">
<title>Node9</title>
<g id="a_node9"><a xlink:href="classv8_1_1internal_1_1compiler_1_1turboshaft_1_1GrowingOpIndexSidetable.html" target="_top" xlink:title=" ">
<polygon fill="white" stroke="black" points="1661.5,-0.5 1661.5,-134.5 1823.5,-134.5 1823.5,-0.5 1661.5,-0.5"/>
<text text-anchor="start" x="1669.5" y="-122.5" font-family="Helvetica,sans-Serif" font-size="10.00">v8::internal::compiler</text>
<text text-anchor="start" x="1669.5" y="-111.5" font-family="Helvetica,sans-Serif" font-size="10.00">::turboshaft::GrowingOpIndex</text>
<text text-anchor="start" x="1669.5" y="-100.5" font-family="Helvetica,sans-Serif" font-size="10.00">Sidetable&lt; std::optional&lt;</text>
<text text-anchor="middle" x="1742.5" y="-89.5" font-family="Helvetica,sans-Serif" font-size="10.00"> table_t::Key &gt; &gt;</text>
<polyline fill="none" stroke="black" points="1661.5,-82.5 1823.5,-82.5 "/>
<text text-anchor="middle" x="1742.5" y="-70.5" font-family="Helvetica,sans-Serif" font-size="10.00"> </text>
<polyline fill="none" stroke="black" points="1661.5,-63.5 1823.5,-63.5 "/>
<text text-anchor="start" x="1669.5" y="-51.5" font-family="Helvetica,sans-Serif" font-size="10.00">+ GrowingOpIndexSidetable()</text>
<text text-anchor="start" x="1669.5" y="-40.5" font-family="Helvetica,sans-Serif" font-size="10.00">+ GrowingOpIndexSidetable()</text>
<text text-anchor="start" x="1669.5" y="-29.5" font-family="Helvetica,sans-Serif" font-size="10.00">+ operator[]()</text>
<text text-anchor="start" x="1669.5" y="-18.5" font-family="Helvetica,sans-Serif" font-size="10.00">+ operator[]()</text>
<text text-anchor="start" x="1669.5" y="-7.5" font-family="Helvetica,sans-Serif" font-size="10.00">+ SwapData()</text>
</a>
</g>
</g>
<!-- Node1&#45;&gt;Node9 -->
<g id="edge8" class="edge">
<title>Node1&#45;&gt;Node9</title>
<path fill="none" stroke="midnightblue" d="M1174.35,-606.79C1360.85,-575.34 1790.78,-472.06 1931.5,-175 1935.69,-166.16 1937.59,-160.65 1931.5,-153 1909.35,-125.16 1886.5,-148.3 1853.5,-135 1843.6,-131.01 1833.56,-126.21 1823.76,-121.04"/>
<polygon fill="none" stroke="midnightblue" points="1173.6,-603.36 1164.3,-608.45 1174.74,-610.27 1173.6,-603.36"/>
</g>
<!-- Node10 -->
<g id="node10" class="node">
<title>Node10</title>
<g id="a_node10"><a xlink:href="classv8_1_1internal_1_1compiler_1_1turboshaft_1_1GrowingOpIndexSidetable.html" target="_top" xlink:title=" ">
<polygon fill="white" stroke="black" points="1453.5,-0.5 1453.5,-134.5 1631.5,-134.5 1631.5,-0.5 1453.5,-0.5"/>
<text text-anchor="start" x="1461.5" y="-122.5" font-family="Helvetica,sans-Serif" font-size="10.00">v8::internal::compiler</text>
<text text-anchor="start" x="1461.5" y="-111.5" font-family="Helvetica,sans-Serif" font-size="10.00">::turboshaft::GrowingOpIndex</text>
<text text-anchor="start" x="1461.5" y="-100.5" font-family="Helvetica,sans-Serif" font-size="10.00">Sidetable&lt; v8::internal::compiler</text>
<text text-anchor="middle" x="1542.5" y="-89.5" font-family="Helvetica,sans-Serif" font-size="10.00">::turboshaft::OpIndex &gt;</text>
<polyline fill="none" stroke="black" points="1453.5,-82.5 1631.5,-82.5 "/>
<text text-anchor="middle" x="1542.5" y="-70.5" font-family="Helvetica,sans-Serif" font-size="10.00"> </text>
<polyline fill="none" stroke="black" points="1453.5,-63.5 1631.5,-63.5 "/>
<text text-anchor="start" x="1461.5" y="-51.5" font-family="Helvetica,sans-Serif" font-size="10.00">+ GrowingOpIndexSidetable()</text>
<text text-anchor="start" x="1461.5" y="-40.5" font-family="Helvetica,sans-Serif" font-size="10.00">+ GrowingOpIndexSidetable()</text>
<text text-anchor="start" x="1461.5" y="-29.5" font-family="Helvetica,sans-Serif" font-size="10.00">+ operator[]()</text>
<text text-anchor="start" x="1461.5" y="-18.5" font-family="Helvetica,sans-Serif" font-size="10.00">+ operator[]()</text>
<text text-anchor="start" x="1461.5" y="-7.5" font-family="Helvetica,sans-Serif" font-size="10.00">+ SwapData()</text>
</a>
</g>
</g>
<!-- Node1&#45;&gt;Node10 -->
<g id="edge9" class="edge">
<title>Node1&#45;&gt;Node10</title>
<path fill="none" stroke="midnightblue" d="M1126.1,-537.82C1188.64,-411.05 1306.76,-177.89 1341.5,-153 1379.28,-125.94 1401.42,-152.44 1444.5,-135 1447.45,-133.8 1450.41,-132.51 1453.36,-131.13"/>
<polygon fill="none" stroke="midnightblue" points="1122.79,-536.62 1121.51,-547.14 1129.07,-539.71 1122.79,-536.62"/>
</g>
<!-- Node11 -->
<g id="node11" class="node">
<title>Node11</title>
<g id="a_node11"><a xlink:href="classv8_1_1internal_1_1compiler_1_1turboshaft_1_1GrowingOpIndexSidetable.html" target="_top" xlink:title=" ">
<polygon fill="white" stroke="black" points="1862.5,-6 1862.5,-129 2080.5,-129 2080.5,-6 1862.5,-6"/>
<text text-anchor="start" x="1870.5" y="-117" font-family="Helvetica,sans-Serif" font-size="10.00">v8::internal::compiler</text>
<text text-anchor="start" x="1870.5" y="-106" font-family="Helvetica,sans-Serif" font-size="10.00">::turboshaft::GrowingOpIndex</text>
<text text-anchor="middle" x="1971.5" y="-95" font-family="Helvetica,sans-Serif" font-size="10.00">Sidetable&lt; v8::internal::SourcePosition &gt;</text>
<polyline fill="none" stroke="black" points="1862.5,-88 2080.5,-88 "/>
<text text-anchor="middle" x="1971.5" y="-76" font-family="Helvetica,sans-Serif" font-size="10.00"> </text>
<polyline fill="none" stroke="black" points="1862.5,-69 2080.5,-69 "/>
<text text-anchor="start" x="1870.5" y="-57" font-family="Helvetica,sans-Serif" font-size="10.00">+ GrowingOpIndexSidetable()</text>
<text text-anchor="start" x="1870.5" y="-46" font-family="Helvetica,sans-Serif" font-size="10.00">+ GrowingOpIndexSidetable()</text>
<text text-anchor="start" x="1870.5" y="-35" font-family="Helvetica,sans-Serif" font-size="10.00">+ operator[]()</text>
<text text-anchor="start" x="1870.5" y="-24" font-family="Helvetica,sans-Serif" font-size="10.00">+ operator[]()</text>
<text text-anchor="start" x="1870.5" y="-13" font-family="Helvetica,sans-Serif" font-size="10.00">+ SwapData()</text>
</a>
</g>
</g>
<!-- Node1&#45;&gt;Node11 -->
<g id="edge10" class="edge">
<title>Node1&#45;&gt;Node11</title>
<path fill="none" stroke="midnightblue" d="M1174.41,-615.72C1295.06,-608.13 1516.06,-583.03 1683.5,-500 1793.51,-445.45 1820.03,-417.56 1890.5,-317 1930.34,-260.14 1951.49,-182.49 1962.06,-129.2"/>
<polygon fill="none" stroke="midnightblue" points="1173.89,-612.24 1164.12,-616.34 1174.31,-619.23 1173.89,-612.24"/>
</g>
<!-- Node12 -->
<g id="node12" class="node">
<title>Node12</title>
<g id="a_node12"><a xlink:href="classv8_1_1internal_1_1compiler_1_1turboshaft_1_1detail_1_1GrowingSidetable.html" target="_top" xlink:title=" ">
<polygon fill="white" stroke="black" points="1347.5,-354.5 1347.5,-499.5 1525.5,-499.5 1525.5,-354.5 1347.5,-354.5"/>
<text text-anchor="start" x="1355.5" y="-487.5" font-family="Helvetica,sans-Serif" font-size="10.00">v8::internal::compiler</text>
<text text-anchor="start" x="1355.5" y="-476.5" font-family="Helvetica,sans-Serif" font-size="10.00">::turboshaft::detail::</text>
<text text-anchor="middle" x="1436.5" y="-465.5" font-family="Helvetica,sans-Serif" font-size="10.00">GrowingSidetable&lt; T, OpIndex &gt;</text>
<polyline fill="none" stroke="black" points="1347.5,-458.5 1525.5,-458.5 "/>
<text text-anchor="start" x="1355.5" y="-446.5" font-family="Helvetica,sans-Serif" font-size="10.00"># table_</text>
<polyline fill="none" stroke="black" points="1347.5,-439.5 1525.5,-439.5 "/>
<text text-anchor="start" x="1355.5" y="-427.5" font-family="Helvetica,sans-Serif" font-size="10.00">+ operator[]()</text>
<text text-anchor="start" x="1355.5" y="-416.5" font-family="Helvetica,sans-Serif" font-size="10.00">+ operator[]()</text>
<text text-anchor="start" x="1355.5" y="-405.5" font-family="Helvetica,sans-Serif" font-size="10.00">+ Reset()</text>
<text text-anchor="start" x="1355.5" y="-394.5" font-family="Helvetica,sans-Serif" font-size="10.00">+ empty()</text>
<text text-anchor="start" x="1355.5" y="-383.5" font-family="Helvetica,sans-Serif" font-size="10.00"># GrowingSidetable()</text>
<text text-anchor="start" x="1355.5" y="-372.5" font-family="Helvetica,sans-Serif" font-size="10.00"># GrowingSidetable()</text>
<text text-anchor="start" x="1355.5" y="-361.5" font-family="Helvetica,sans-Serif" font-size="10.00"># NextSize()</text>
</a>
</g>
</g>
<!-- Node1&#45;&gt;Node12 -->
<g id="edge11" class="edge">
<title>Node1&#45;&gt;Node12</title>
<path fill="none" stroke="orange" d="M1173.85,-594.62C1220.49,-579.51 1277.76,-557.51 1324.5,-529 1338.36,-520.55 1352.07,-510.26 1364.9,-499.53"/>
<polygon fill="orange" stroke="orange" points="1172.53,-591.36 1164.07,-597.74 1174.66,-598.03 1172.53,-591.36"/>
<text text-anchor="middle" x="1377" y="-521" font-family="Helvetica,sans-Serif" font-size="10.00"> &lt; T, OpIndex &gt;</text>
</g>
<!-- Node14 -->
<g id="node14" class="node">
<title>Node14</title>
<g id="a_node14"><a xlink:href="classv8_1_1internal_1_1compiler_1_1turboshaft_1_1detail_1_1GrowingSidetable.html" target="_top" xlink:title=" ">
<polygon fill="white" stroke="black" points="671,-354.5 671,-499.5 862,-499.5 862,-354.5 671,-354.5"/>
<text text-anchor="start" x="679" y="-487.5" font-family="Helvetica,sans-Serif" font-size="10.00">v8::internal::compiler</text>
<text text-anchor="start" x="679" y="-476.5" font-family="Helvetica,sans-Serif" font-size="10.00">::turboshaft::detail::</text>
<text text-anchor="middle" x="766.5" y="-465.5" font-family="Helvetica,sans-Serif" font-size="10.00">GrowingSidetable&lt; T, BlockIndex &gt;</text>
<polyline fill="none" stroke="black" points="671,-458.5 862,-458.5 "/>
<text text-anchor="start" x="679" y="-446.5" font-family="Helvetica,sans-Serif" font-size="10.00"># table_</text>
<polyline fill="none" stroke="black" points="671,-439.5 862,-439.5 "/>
<text text-anchor="start" x="679" y="-427.5" font-family="Helvetica,sans-Serif" font-size="10.00">+ operator[]()</text>
<text text-anchor="start" x="679" y="-416.5" font-family="Helvetica,sans-Serif" font-size="10.00">+ operator[]()</text>
<text text-anchor="start" x="679" y="-405.5" font-family="Helvetica,sans-Serif" font-size="10.00">+ Reset()</text>
<text text-anchor="start" x="679" y="-394.5" font-family="Helvetica,sans-Serif" font-size="10.00">+ empty()</text>
<text text-anchor="start" x="679" y="-383.5" font-family="Helvetica,sans-Serif" font-size="10.00"># GrowingSidetable()</text>
<text text-anchor="start" x="679" y="-372.5" font-family="Helvetica,sans-Serif" font-size="10.00"># GrowingSidetable()</text>
<text text-anchor="start" x="679" y="-361.5" font-family="Helvetica,sans-Serif" font-size="10.00"># NextSize()</text>
</a>
</g>
</g>
<!-- Node1&#45;&gt;Node14 -->
<g id="edge18" class="edge">
<title>Node1&#45;&gt;Node14</title>
<path fill="none" stroke="orange" d="M999.75,-572.51C974.93,-558.83 947.97,-543.61 923.5,-529 903.46,-517.04 882.28,-503.82 862.17,-490.99"/>
<polygon fill="orange" stroke="orange" points="998.33,-575.73 1008.78,-577.47 1001.71,-569.59 998.33,-575.73"/>
<text text-anchor="middle" x="969.5" y="-521" font-family="Helvetica,sans-Serif" font-size="10.00"> &lt; T, BlockIndex &gt;</text>
</g>
<!-- Node13 -->
<g id="node13" class="node">
<title>Node13</title>
<g id="a_node13"><a xlink:href="classv8_1_1internal_1_1compiler_1_1turboshaft_1_1GrowingOpIndexSidetable.html" target="_top" xlink:title=" ">
<polygon fill="white" stroke="black" points="1379.5,-193.5 1379.5,-316.5 1541.5,-316.5 1541.5,-193.5 1379.5,-193.5"/>
<text text-anchor="start" x="1387.5" y="-304.5" font-family="Helvetica,sans-Serif" font-size="10.00">v8::internal::compiler</text>
<text text-anchor="start" x="1387.5" y="-293.5" font-family="Helvetica,sans-Serif" font-size="10.00">::turboshaft::GrowingOpIndex</text>
<text text-anchor="middle" x="1460.5" y="-282.5" font-family="Helvetica,sans-Serif" font-size="10.00">Sidetable&lt; T &gt;</text>
<polyline fill="none" stroke="black" points="1379.5,-275.5 1541.5,-275.5 "/>
<text text-anchor="middle" x="1460.5" y="-263.5" font-family="Helvetica,sans-Serif" font-size="10.00"> </text>
<polyline fill="none" stroke="black" points="1379.5,-256.5 1541.5,-256.5 "/>
<text text-anchor="start" x="1387.5" y="-244.5" font-family="Helvetica,sans-Serif" font-size="10.00">+ GrowingOpIndexSidetable()</text>
<text text-anchor="start" x="1387.5" y="-233.5" font-family="Helvetica,sans-Serif" font-size="10.00">+ GrowingOpIndexSidetable()</text>
<text text-anchor="start" x="1387.5" y="-222.5" font-family="Helvetica,sans-Serif" font-size="10.00">+ operator[]()</text>
<text text-anchor="start" x="1387.5" y="-211.5" font-family="Helvetica,sans-Serif" font-size="10.00">+ operator[]()</text>
<text text-anchor="start" x="1387.5" y="-200.5" font-family="Helvetica,sans-Serif" font-size="10.00">+ SwapData()</text>
</a>
</g>
</g>
<!-- Node12&#45;&gt;Node13 -->
<g id="edge12" class="edge">
<title>Node12&#45;&gt;Node13</title>
<path fill="none" stroke="midnightblue" d="M1448.03,-344.36C1449.34,-335.06 1450.66,-325.72 1451.92,-316.76"/>
<polygon fill="none" stroke="midnightblue" points="1444.54,-344.01 1446.61,-354.4 1451.47,-344.98 1444.54,-344.01"/>
</g>
<!-- Node13&#45;&gt;Node7 -->
<g id="edge13" class="edge">
<title>Node13&#45;&gt;Node7</title>
<path fill="none" stroke="orange" d="M1369.36,-238.44C1322.01,-226.91 1265.26,-207.4 1222.5,-175 1208.18,-164.15 1195.75,-149.59 1185.43,-134.73"/>
<polygon fill="orange" stroke="orange" points="1368.78,-241.9 1379.32,-240.78 1370.38,-235.08 1368.78,-241.9"/>
<text text-anchor="start" x="1222.5" y="-167" font-family="Helvetica,sans-Serif" font-size="10.00"> &lt; v8::internal::compiler</text>
<text text-anchor="middle" x="1282" y="-156" font-family="Helvetica,sans-Serif" font-size="10.00">::turboshaft::Type &gt;</text>
</g>
<!-- Node13&#45;&gt;Node8 -->
<g id="edge14" class="edge">
<title>Node13&#45;&gt;Node8</title>
<path fill="none" stroke="orange" d="M1372.22,-198.77C1365.33,-191.53 1359.23,-183.6 1354.5,-175 1347.8,-162.81 1344.34,-148.63 1342.8,-134.66"/>
<polygon fill="orange" stroke="orange" points="1369.77,-201.27 1379.35,-205.79 1374.68,-196.28 1369.77,-201.27"/>
<text text-anchor="start" x="1354.5" y="-167" font-family="Helvetica,sans-Serif" font-size="10.00"> &lt; v8::internal::compiler</text>
<text text-anchor="middle" x="1418" y="-156" font-family="Helvetica,sans-Serif" font-size="10.00">::turboshaft::BlockIndex &gt;</text>
</g>
<!-- Node13&#45;&gt;Node9 -->
<g id="edge15" class="edge">
<title>Node13&#45;&gt;Node9</title>
<path fill="none" stroke="orange" d="M1550.71,-212.87C1572,-201.7 1594.13,-188.83 1613.5,-175 1625.01,-166.78 1625.85,-162.31 1636.5,-153 1644.48,-146.03 1652.92,-138.9 1661.43,-131.88"/>
<polygon fill="orange" stroke="orange" points="1548.93,-209.85 1541.65,-217.55 1552.14,-216.07 1548.93,-209.85"/>
<text text-anchor="start" x="1636.5" y="-167" font-family="Helvetica,sans-Serif" font-size="10.00"> &lt; std::optional&lt; table</text>
<text text-anchor="middle" x="1692.5" y="-156" font-family="Helvetica,sans-Serif" font-size="10.00">_t::Key &gt; &gt;</text>
</g>
<!-- Node13&#45;&gt;Node10 -->
<g id="edge16" class="edge">
<title>Node13&#45;&gt;Node10</title>
<path fill="none" stroke="orange" d="M1482.15,-183.88C1485.95,-173.4 1490.1,-162.83 1494.5,-153 1497.19,-146.99 1500.17,-140.86 1503.29,-134.77"/>
<polygon fill="orange" stroke="orange" points="1478.8,-182.86 1478.77,-193.46 1485.4,-185.19 1478.8,-182.86"/>
<text text-anchor="start" x="1494.5" y="-167" font-family="Helvetica,sans-Serif" font-size="10.00"> &lt; v8::internal::compiler</text>
<text text-anchor="middle" x="1554" y="-156" font-family="Helvetica,sans-Serif" font-size="10.00">::turboshaft::OpIndex &gt;</text>
</g>
<!-- Node13&#45;&gt;Node11 -->
<g id="edge17" class="edge">
<title>Node13&#45;&gt;Node11</title>
<path fill="none" stroke="orange" d="M1551.54,-233.4C1608.87,-219.37 1683.96,-199 1748.5,-175 1787.26,-160.59 1795.18,-152.81 1832.5,-135 1842.16,-130.39 1852.19,-125.6 1862.24,-120.79"/>
<polygon fill="orange" stroke="orange" points="1550.67,-230.01 1541.78,-235.77 1552.32,-236.81 1550.67,-230.01"/>
<text text-anchor="middle" x="1876.5" y="-161.5" font-family="Helvetica,sans-Serif" font-size="10.00"> &lt; v8::internal::SourcePosition &gt;</text>
</g>
<!-- Node15 -->
<g id="node15" class="node">
<title>Node15</title>
<g id="a_node15"><a xlink:href="classv8_1_1internal_1_1compiler_1_1turboshaft_1_1GrowingBlockSidetable.html" target="_top" xlink:title=" ">
<polygon fill="white" stroke="black" points="563.5,-215.5 563.5,-294.5 783.5,-294.5 783.5,-215.5 563.5,-215.5"/>
<text text-anchor="start" x="571.5" y="-282.5" font-family="Helvetica,sans-Serif" font-size="10.00">v8::internal::compiler</text>
<text text-anchor="middle" x="673.5" y="-271.5" font-family="Helvetica,sans-Serif" font-size="10.00">::turboshaft::GrowingBlockSidetable&lt; T &gt;</text>
<polyline fill="none" stroke="black" points="563.5,-264.5 783.5,-264.5 "/>
<text text-anchor="middle" x="673.5" y="-252.5" font-family="Helvetica,sans-Serif" font-size="10.00"> </text>
<polyline fill="none" stroke="black" points="563.5,-245.5 783.5,-245.5 "/>
<text text-anchor="start" x="571.5" y="-233.5" font-family="Helvetica,sans-Serif" font-size="10.00">+ GrowingBlockSidetable()</text>
<text text-anchor="start" x="571.5" y="-222.5" font-family="Helvetica,sans-Serif" font-size="10.00">+ GrowingBlockSidetable()</text>
</a>
</g>
</g>
<!-- Node14&#45;&gt;Node15 -->
<g id="edge19" class="edge">
<title>Node14&#45;&gt;Node15</title>
<path fill="none" stroke="midnightblue" d="M722.3,-345.21C712.65,-327.57 702.87,-309.69 694.62,-294.61"/>
<polygon fill="none" stroke="midnightblue" points="719.46,-347.3 727.33,-354.4 725.6,-343.94 719.46,-347.3"/>
</g>
<!-- Node15&#45;&gt;Node2 -->
<g id="edge20" class="edge">
<title>Node15&#45;&gt;Node2</title>
<path fill="none" stroke="orange" d="M553.26,-235.46C455.16,-217.62 314.51,-185.75 199.5,-135 188.62,-130.2 177.57,-124.35 166.93,-118.14"/>
<polygon fill="orange" stroke="orange" points="552.75,-238.92 563.21,-237.25 553.99,-232.03 552.75,-238.92"/>
<text text-anchor="start" x="299.5" y="-167" font-family="Helvetica,sans-Serif" font-size="10.00"> &lt; const v8::internal</text>
<text text-anchor="middle" x="360" y="-156" font-family="Helvetica,sans-Serif" font-size="10.00">::maglev::BasicBlock * &gt;</text>
</g>
<!-- Node15&#45;&gt;Node3 -->
<g id="edge21" class="edge">
<title>Node15&#45;&gt;Node3</title>
<path fill="none" stroke="orange" d="M596.51,-210.63C560,-191.24 515.31,-169.16 473.5,-153 445.54,-142.19 435.88,-147.21 408.5,-135 394.51,-128.76 380.22,-120.82 366.89,-112.61"/>
<polygon fill="orange" stroke="orange" points="595.14,-213.87 605.61,-215.5 598.45,-207.7 595.14,-213.87"/>
<text text-anchor="middle" x="544" y="-161.5" font-family="Helvetica,sans-Serif" font-size="10.00"> &lt; int &gt;</text>
</g>
<!-- Node15&#45;&gt;Node4 -->
<g id="edge22" class="edge">
<title>Node15&#45;&gt;Node4</title>
<path fill="none" stroke="orange" d="M690.44,-205.65C700.54,-176.84 713.25,-140.55 723.07,-112.54"/>
<polygon fill="orange" stroke="orange" points="687.13,-204.52 687.13,-215.11 693.74,-206.83 687.13,-204.52"/>
<text text-anchor="middle" x="785.5" y="-161.5" font-family="Helvetica,sans-Serif" font-size="10.00"> &lt; std::optional&lt; Snapshot &gt; &gt;</text>
</g>
<!-- Node15&#45;&gt;Node5 -->
<g id="edge23" class="edge">
<title>Node15&#45;&gt;Node5</title>
<path fill="none" stroke="orange" d="M618.29,-208.26C607.18,-197.87 596.01,-186.5 586.5,-175 570.7,-155.88 556.03,-132.56 544.64,-112.62"/>
<polygon fill="orange" stroke="orange" points="616.22,-211.1 625.96,-215.28 620.95,-205.94 616.22,-211.1"/>
<text text-anchor="start" x="586.5" y="-167" font-family="Helvetica,sans-Serif" font-size="10.00"> &lt; std::optional&lt; table</text>
<text text-anchor="middle" x="642.5" y="-156" font-family="Helvetica,sans-Serif" font-size="10.00">_t::Snapshot &gt; &gt;</text>
</g>
<!-- Node15&#45;&gt;Node6 -->
<g id="edge24" class="edge">
<title>Node15&#45;&gt;Node6</title>
<path fill="none" stroke="orange" d="M793.04,-216.66C818.69,-205.57 844.63,-191.78 866.5,-175 886.59,-159.59 904.25,-137.99 917.92,-118.27"/>
<polygon fill="orange" stroke="orange" points="791.48,-213.53 783.62,-220.63 794.19,-219.98 791.48,-213.53"/>
<text text-anchor="start" x="888.5" y="-167" font-family="Helvetica,sans-Serif" font-size="10.00"> &lt; std::optional&lt; v8</text>
<text text-anchor="middle" x="947.5" y="-156" font-family="Helvetica,sans-Serif" font-size="10.00">::internal::Snapshot &gt; &gt;</text>
</g>
</g>
</svg>
        <g id="navigator" transform="translate(0 0)" fill="#404254">
                <rect fill="#f2f5e9" fill-opacity="0.5" stroke="#606060" stroke-width=".5" x="0" y="0" width="60" height="60"/>
                <use id="zoomplus" xlink:href="#zoomPlus" x="17" y="9" onmousedown="handleZoom(evt,'in')"/>
                <use id="zoomminus" xlink:href="#zoomMin" x="42" y="9" onmousedown="handleZoom(evt,'out')"/>
                <use id="reset" xlink:href="#resetDef" x="30" y="36" onmousedown="handleReset()"/>
                <g id="arrowUp" xlink:href="#dirArrow" transform="translate(30 24)" onmousedown="handlePan(0,-1)">
                  <use xlink:href="#rim" fill="#404040">
                        <set attributeName="fill" to="#808080" begin="arrowUp.mouseover" end="arrowUp.mouseout"/>
                  </use>
                  <path fill="none" stroke="white" stroke-width="1.5" d="M0,-3.0v7 M-2.5,-0.5L0,-3.0L2.5,-0.5"/>
                </g>
                <g id="arrowRight" xlink:href="#dirArrow" transform="rotate(90) translate(36 -43)" onmousedown="handlePan(1,0)">
                  <use xlink:href="#rim" fill="#404040">
                        <set attributeName="fill" to="#808080" begin="arrowRight.mouseover" end="arrowRight.mouseout"/>
                  </use>
                  <path fill="none" stroke="white" stroke-width="1.5" d="M0,-3.0v7 M-2.5,-0.5L0,-3.0L2.5,-0.5"/>
                </g>
                <g id="arrowDown" xlink:href="#dirArrow" transform="rotate(180) translate(-30 -48)" onmousedown="handlePan(0,1)">
                  <use xlink:href="#rim" fill="#404040">
                        <set attributeName="fill" to="#808080" begin="arrowDown.mouseover" end="arrowDown.mouseout"/>
                  </use>
                  <path fill="none" stroke="white" stroke-width="1.5" d="M0,-3.0v7 M-2.5,-0.5L0,-3.0L2.5,-0.5"/>
                </g>
                <g id="arrowLeft" xlink:href="#dirArrow" transform="rotate(270) translate(-36 17)" onmousedown="handlePan(-1,0)">
                  <use xlink:href="#rim" fill="#404040">
                        <set attributeName="fill" to="#808080" begin="arrowLeft.mouseover" end="arrowLeft.mouseout"/>
                  </use>
                  <path fill="none" stroke="white" stroke-width="1.5" d="M0,-3.0v7 M-2.5,-0.5L0,-3.0L2.5,-0.5"/>
                </g>
        </g>
        <svg viewBox="0 0 15 15" width="100%" height="30px" preserveAspectRatio="xMaxYMin meet">
         <g id="arrow_out" transform="scale(0.3 0.3)">
          <a xlink:href="classv8_1_1internal_1_1compiler_1_1turboshaft_1_1detail_1_1GrowingSidetable__inherit__graph_org.svg" target="_base">
           <rect id="button" ry="5" rx="5" y="6" x="6" height="38" width="38"
                fill="#f2f5e9" fill-opacity="0.5" stroke="#606060" stroke-width="1.0"/>
           <path id="arrow"
             d="M 11.500037,31.436501 C 11.940474,20.09759 22.043105,11.32322 32.158766,21.979434 L 37.068811,17.246167 C 37.068811,17.246167 37.088388,32 37.088388,32 L 22.160133,31.978069 C 22.160133,31.978069 26.997745,27.140456 26.997745,27.140456 C 18.528582,18.264221 13.291696,25.230495 11.500037,31.436501 z"
             style="fill:#404040;"/>
          </a>
         </g>
        </svg>
</svg>
