<?xml version="1.0" encoding="UTF-8" standalone="no"?>
<!DOCTYPE svg PUBLIC "-//W3C//DTD SVG 1.1//EN"
 "http://www.w3.org/Graphics/SVG/1.1/DTD/svg11.dtd">
<!-- Generated by graphviz version 2.43.0 (0)
 -->
<!-- Title: v8::internal::StackFrame::ReadPC Pages: 1 -->
<svg width="500pt" height="88pt"
 viewBox="0.00 0.00 500.00 88.00" xmlns="http://www.w3.org/2000/svg" xmlns:xlink="http://www.w3.org/1999/xlink">
<g id="graph0" class="graph" transform="scale(1 1) rotate(0) translate(4 84)">
<title>v8::internal::StackFrame::ReadPC</title>
<polygon fill="white" stroke="transparent" points="-4,4 -4,-84 496,-84 496,4 -4,4"/>
<!-- Node1 -->
<g id="node1" class="node">
<title>Node1</title>
<g id="a_node1"><a xlink:title=" ">
<polygon fill="#bfbfbf" stroke="black" points="0,-24.5 0,-54.5 136,-54.5 136,-24.5 0,-24.5"/>
<text text-anchor="start" x="8" y="-42.5" font-family="Helvetica,sans-Serif" font-size="10.00">v8::internal::StackFrame</text>
<text text-anchor="middle" x="68" y="-31.5" font-family="Helvetica,sans-Serif" font-size="10.00">::ReadPC</text>
</a>
</g>
</g>
<!-- Node2 -->
<g id="node2" class="node">
<title>Node2</title>
<g id="a_node2"><a xlink:href="classv8_1_1internal_1_1PointerAuthentication.html#ae0643b84970415a1b454bfc84cf7a4ad" target="_top" xlink:title=" ">
<polygon fill="white" stroke="black" points="172,-49.5 172,-79.5 356,-79.5 356,-49.5 172,-49.5"/>
<text text-anchor="start" x="180" y="-67.5" font-family="Helvetica,sans-Serif" font-size="10.00">v8::internal::PointerAuthentication</text>
<text text-anchor="middle" x="264" y="-56.5" font-family="Helvetica,sans-Serif" font-size="10.00">::AuthenticatePC</text>
</a>
</g>
</g>
<!-- Node1&#45;&gt;Node2 -->
<g id="edge1" class="edge">
<title>Node1&#45;&gt;Node2</title>
<path fill="none" stroke="midnightblue" d="M136.04,-48.14C144.3,-49.2 152.89,-50.31 161.52,-51.42"/>
<polygon fill="midnightblue" stroke="midnightblue" points="161.3,-54.92 171.66,-52.73 162.19,-47.98 161.3,-54.92"/>
</g>
<!-- Node4 -->
<g id="node4" class="node">
<title>Node4</title>
<g id="a_node4"><a xlink:href="classv8_1_1internal_1_1StackFrame.html#a96bcfb103f36a3425496b3217d037efd" target="_top" xlink:title=" ">
<polygon fill="white" stroke="black" points="196,-0.5 196,-30.5 332,-30.5 332,-0.5 196,-0.5"/>
<text text-anchor="start" x="204" y="-18.5" font-family="Helvetica,sans-Serif" font-size="10.00">v8::internal::StackFrame</text>
<text text-anchor="middle" x="264" y="-7.5" font-family="Helvetica,sans-Serif" font-size="10.00">::pc_address</text>
</a>
</g>
</g>
<!-- Node1&#45;&gt;Node4 -->
<g id="edge3" class="edge">
<title>Node1&#45;&gt;Node4</title>
<path fill="none" stroke="midnightblue" d="M136.04,-31.21C152.09,-29.22 169.36,-27.08 185.83,-25.05"/>
<polygon fill="midnightblue" stroke="midnightblue" points="186.47,-28.49 195.96,-23.79 185.61,-21.55 186.47,-28.49"/>
</g>
<!-- Node3 -->
<g id="node3" class="node">
<title>Node3</title>
<g id="a_node3"><a xlink:href="namespacev8_1_1internal_1_1impl.html#a0dbed5bd135571c37d8a47f2715b28f7" target="_top" xlink:title=" ">
<polygon fill="white" stroke="black" points="392,-49.5 392,-79.5 492,-79.5 492,-49.5 392,-49.5"/>
<text text-anchor="start" x="400" y="-67.5" font-family="Helvetica,sans-Serif" font-size="10.00">v8::internal::impl</text>
<text text-anchor="middle" x="442" y="-56.5" font-family="Helvetica,sans-Serif" font-size="10.00">::AuthPAC</text>
</a>
</g>
</g>
<!-- Node2&#45;&gt;Node3 -->
<g id="edge2" class="edge">
<title>Node2&#45;&gt;Node3</title>
<path fill="none" stroke="midnightblue" d="M356.09,-64.5C364.7,-64.5 373.27,-64.5 381.48,-64.5"/>
<polygon fill="midnightblue" stroke="midnightblue" points="381.64,-68 391.64,-64.5 381.64,-61 381.64,-68"/>
</g>
</g>
</svg>
