<?xml version="1.0" encoding="UTF-8" standalone="no"?>
<!DOCTYPE svg PUBLIC "-//W3C//DTD SVG 1.1//EN"
 "http://www.w3.org/Graphics/SVG/1.1/DTD/svg11.dtd">
<!-- Generated by graphviz version 2.43.0 (0)
 -->
<!-- Title: v8::internal::compiler::GraphAssembler::Call Pages: 1 -->
<svg width="309pt" height="88pt"
 viewBox="0.00 0.00 309.00 88.00" xmlns="http://www.w3.org/2000/svg" xmlns:xlink="http://www.w3.org/1999/xlink">
<g id="graph0" class="graph" transform="scale(1 1) rotate(0) translate(4 84)">
<title>v8::internal::compiler::GraphAssembler::Call</title>
<polygon fill="white" stroke="transparent" points="-4,4 -4,-84 305,-84 305,4 -4,4"/>
<!-- Node1 -->
<g id="node1" class="node">
<title>Node1</title>
<g id="a_node1"><a xlink:title=" ">
<polygon fill="#bfbfbf" stroke="black" points="0,-24.5 0,-54.5 128,-54.5 128,-24.5 0,-24.5"/>
<text text-anchor="start" x="8" y="-42.5" font-family="Helvetica,sans-Serif" font-size="10.00">v8::internal::compiler</text>
<text text-anchor="middle" x="64" y="-31.5" font-family="Helvetica,sans-Serif" font-size="10.00">::GraphAssembler::Call</text>
</a>
</g>
</g>
<!-- Node2 -->
<g id="node2" class="node">
<title>Node2</title>
<g id="a_node2"><a xlink:href="classv8_1_1internal_1_1compiler_1_1GraphAssembler.html#aae15ca6ae4e3a312983552046558e5fd" target="_top" xlink:title=" ">
<polygon fill="white" stroke="black" points="164,-49.5 164,-79.5 301,-79.5 301,-49.5 164,-49.5"/>
<text text-anchor="start" x="172" y="-67.5" font-family="Helvetica,sans-Serif" font-size="10.00">v8::internal::compiler</text>
<text text-anchor="middle" x="232.5" y="-56.5" font-family="Helvetica,sans-Serif" font-size="10.00">::GraphAssembler::graph</text>
</a>
</g>
</g>
<!-- Node1&#45;&gt;Node2 -->
<g id="edge1" class="edge">
<title>Node1&#45;&gt;Node2</title>
<path fill="none" stroke="midnightblue" d="M128.42,-49.02C136.74,-50.27 145.35,-51.56 153.87,-52.84"/>
<polygon fill="midnightblue" stroke="midnightblue" points="153.41,-56.31 163.82,-54.34 154.45,-49.39 153.41,-56.31"/>
</g>
<!-- Node3 -->
<g id="node3" class="node">
<title>Node3</title>
<g id="a_node3"><a xlink:href="classv8_1_1internal_1_1compiler_1_1Operator.html#af8fc1d300ca16f3ec36cc36022f2bdfa" target="_top" xlink:title=" ">
<polygon fill="white" stroke="black" points="172,-0.5 172,-30.5 293,-30.5 293,-0.5 172,-0.5"/>
<text text-anchor="start" x="180" y="-18.5" font-family="Helvetica,sans-Serif" font-size="10.00">v8::internal::compiler</text>
<text text-anchor="middle" x="232.5" y="-7.5" font-family="Helvetica,sans-Serif" font-size="10.00">::Operator::opcode</text>
</a>
</g>
</g>
<!-- Node1&#45;&gt;Node3 -->
<g id="edge2" class="edge">
<title>Node1&#45;&gt;Node3</title>
<path fill="none" stroke="midnightblue" d="M128.42,-30.36C139.33,-28.79 150.72,-27.14 161.78,-25.55"/>
<polygon fill="midnightblue" stroke="midnightblue" points="162.42,-28.99 171.82,-24.1 161.42,-22.07 162.42,-28.99"/>
</g>
</g>
</svg>
