<?xml version="1.0" encoding="UTF-8" standalone="no"?>
<!DOCTYPE svg PUBLIC "-//W3C//DTD SVG 1.1//EN"
 "http://www.w3.org/Graphics/SVG/1.1/DTD/svg11.dtd">
<!-- Generated by graphviz version 2.43.0 (0)
 -->
<!-- Title: v8::internal::anonymous_namespace{elements::cc}::FastElementsAccessor::AddElementsToKeyAccumulatorImpl Pages: 1 -->
<svg width="537pt" height="137pt"
 viewBox="0.00 0.00 537.00 137.00" xmlns="http://www.w3.org/2000/svg" xmlns:xlink="http://www.w3.org/1999/xlink">
<g id="graph0" class="graph" transform="scale(1 1) rotate(0) translate(4 133)">
<title>v8::internal::anonymous_namespace{elements::cc}::FastElementsAccessor::AddElementsToKeyAccumulatorImpl</title>
<polygon fill="white" stroke="transparent" points="-4,4 -4,-133 533,-133 533,4 -4,4"/>
<!-- Node1 -->
<g id="node1" class="node">
<title>Node1</title>
<g id="a_node1"><a xlink:title=" ">
<polygon fill="#bfbfbf" stroke="black" points="0,-38.5 0,-90.5 193,-90.5 193,-38.5 0,-38.5"/>
<text text-anchor="start" x="8" y="-78.5" font-family="Helvetica,sans-Serif" font-size="10.00">v8::internal::anonymous</text>
<text text-anchor="start" x="8" y="-67.5" font-family="Helvetica,sans-Serif" font-size="10.00">_namespace{elements::cc}</text>
<text text-anchor="start" x="8" y="-56.5" font-family="Helvetica,sans-Serif" font-size="10.00">::FastElementsAccessor::</text>
<text text-anchor="middle" x="96.5" y="-45.5" font-family="Helvetica,sans-Serif" font-size="10.00">AddElementsToKeyAccumulatorImpl</text>
</a>
</g>
</g>
<!-- Node2 -->
<g id="node2" class="node">
<title>Node2</title>
<g id="a_node2"><a xlink:href="classv8_1_1internal_1_1KeyAccumulator.html#a4056bb06c6579667767a1bd078c84ba6" target="_top" xlink:title=" ">
<polygon fill="white" stroke="black" points="229,-98.5 229,-128.5 387,-128.5 387,-98.5 229,-98.5"/>
<text text-anchor="start" x="237" y="-116.5" font-family="Helvetica,sans-Serif" font-size="10.00">v8::internal::KeyAccumulator</text>
<text text-anchor="middle" x="308" y="-105.5" font-family="Helvetica,sans-Serif" font-size="10.00">::AddKey</text>
</a>
</g>
</g>
<!-- Node1&#45;&gt;Node2 -->
<g id="edge1" class="edge">
<title>Node1&#45;&gt;Node2</title>
<path fill="none" stroke="midnightblue" d="M193.05,-86.85C206.47,-89.99 220.09,-93.17 233.02,-96.2"/>
<polygon fill="midnightblue" stroke="midnightblue" points="232.23,-99.61 242.76,-98.47 233.82,-92.79 232.23,-99.61"/>
</g>
<!-- Node4 -->
<g id="node4" class="node">
<title>Node4</title>
<g id="a_node4"><a xlink:href="namespacev8_1_1internal.html#a75d3ad581521afd012eb61ef19196d31" target="_top" xlink:title=" ">
<polygon fill="white" stroke="black" points="238,-49.5 238,-79.5 378,-79.5 378,-49.5 238,-49.5"/>
<text text-anchor="start" x="246" y="-67.5" font-family="Helvetica,sans-Serif" font-size="10.00">v8::internal::IsFastPacked</text>
<text text-anchor="middle" x="308" y="-56.5" font-family="Helvetica,sans-Serif" font-size="10.00">ElementsKind</text>
</a>
</g>
</g>
<!-- Node1&#45;&gt;Node4 -->
<g id="edge3" class="edge">
<title>Node1&#45;&gt;Node4</title>
<path fill="none" stroke="midnightblue" d="M193.05,-64.5C204.62,-64.5 216.34,-64.5 227.64,-64.5"/>
<polygon fill="midnightblue" stroke="midnightblue" points="227.88,-68 237.88,-64.5 227.88,-61 227.88,-68"/>
</g>
<!-- Node5 -->
<g id="node5" class="node">
<title>Node5</title>
<g id="a_node5"><a xlink:href="classv8_1_1internal_1_1KeyAccumulator.html#ad558243b1dbdb5d9a8b417180714c66c" target="_top" xlink:title=" ">
<polygon fill="white" stroke="black" points="229,-0.5 229,-30.5 387,-30.5 387,-0.5 229,-0.5"/>
<text text-anchor="start" x="237" y="-18.5" font-family="Helvetica,sans-Serif" font-size="10.00">v8::internal::KeyAccumulator</text>
<text text-anchor="middle" x="308" y="-7.5" font-family="Helvetica,sans-Serif" font-size="10.00">::isolate</text>
</a>
</g>
</g>
<!-- Node1&#45;&gt;Node5 -->
<g id="edge4" class="edge">
<title>Node1&#45;&gt;Node5</title>
<path fill="none" stroke="midnightblue" d="M193.05,-42.15C206.47,-39.01 220.09,-35.83 233.02,-32.8"/>
<polygon fill="midnightblue" stroke="midnightblue" points="233.82,-36.21 242.76,-30.53 232.23,-29.39 233.82,-36.21"/>
</g>
<!-- Node3 -->
<g id="node3" class="node">
<title>Node3</title>
<g id="a_node3"><a xlink:href="namespacev8_1_1internal.html#a73502f55102d18cb764881bc29f35c05" target="_top" xlink:title=" ">
<polygon fill="white" stroke="black" points="423,-98.5 423,-128.5 529,-128.5 529,-98.5 423,-98.5"/>
<text text-anchor="start" x="431" y="-116.5" font-family="Helvetica,sans-Serif" font-size="10.00">v8::internal::direct</text>
<text text-anchor="middle" x="476" y="-105.5" font-family="Helvetica,sans-Serif" font-size="10.00">_handle</text>
</a>
</g>
</g>
<!-- Node2&#45;&gt;Node3 -->
<g id="edge2" class="edge">
<title>Node2&#45;&gt;Node3</title>
<path fill="none" stroke="midnightblue" d="M387.14,-113.5C395.75,-113.5 404.43,-113.5 412.8,-113.5"/>
<polygon fill="midnightblue" stroke="midnightblue" points="412.85,-117 422.85,-113.5 412.85,-110 412.85,-117"/>
</g>
</g>
</svg>
