<?xml version="1.0" encoding="UTF-8" standalone="no"?>
<!DOCTYPE svg PUBLIC "-//W3C//DTD SVG 1.1//EN"
 "http://www.w3.org/Graphics/SVG/1.1/DTD/svg11.dtd">
<!-- Generated by graphviz version 2.43.0 (0)
 -->
<!-- Title: v8::internal::compiler::GraphTrimmer::MarkAsLive Pages: 1 -->
<svg width="564pt" height="137pt"
 viewBox="0.00 0.00 564.00 137.00" xmlns="http://www.w3.org/2000/svg" xmlns:xlink="http://www.w3.org/1999/xlink">
<g id="graph0" class="graph" transform="scale(1 1) rotate(0) translate(4 133)">
<title>v8::internal::compiler::GraphTrimmer::MarkAsLive</title>
<polygon fill="white" stroke="transparent" points="-4,4 -4,-133 560,-133 560,4 -4,4"/>
<!-- Node1 -->
<g id="node1" class="node">
<title>Node1</title>
<g id="a_node1"><a xlink:title=" ">
<polygon fill="#bfbfbf" stroke="black" points="401,-49.5 401,-79.5 556,-79.5 556,-49.5 401,-49.5"/>
<text text-anchor="start" x="409" y="-67.5" font-family="Helvetica,sans-Serif" font-size="10.00">v8::internal::compiler</text>
<text text-anchor="middle" x="478.5" y="-56.5" font-family="Helvetica,sans-Serif" font-size="10.00">::GraphTrimmer::MarkAsLive</text>
</a>
</g>
</g>
<!-- Node2 -->
<g id="node2" class="node">
<title>Node2</title>
<g id="a_node2"><a xlink:href="classv8_1_1internal_1_1compiler_1_1GraphTrimmer.html#afdbaeba88b2dbf5a1dfdef3e70226a18" target="_top" xlink:title=" ">
<polygon fill="white" stroke="black" points="216,-49.5 216,-79.5 365,-79.5 365,-49.5 216,-49.5"/>
<text text-anchor="start" x="224" y="-67.5" font-family="Helvetica,sans-Serif" font-size="10.00">v8::internal::compiler</text>
<text text-anchor="middle" x="290.5" y="-56.5" font-family="Helvetica,sans-Serif" font-size="10.00">::GraphTrimmer::TrimGraph</text>
</a>
</g>
</g>
<!-- Node1&#45;&gt;Node2 -->
<g id="edge1" class="edge">
<title>Node1&#45;&gt;Node2</title>
<path fill="none" stroke="midnightblue" d="M390.74,-64.5C382.15,-64.5 373.49,-64.5 365.06,-64.5"/>
<polygon fill="midnightblue" stroke="midnightblue" points="390.77,-68 400.77,-64.5 390.77,-61 390.77,-68"/>
</g>
<!-- Node3 -->
<g id="node3" class="node">
<title>Node3</title>
<g id="a_node3"><a xlink:href="structv8_1_1internal_1_1compiler_1_1EarlyGraphTrimmingPhase.html#a0cc6c24cce190feaa6dc089846321bdf" target="_top" xlink:title=" ">
<polygon fill="white" stroke="black" points="2,-98.5 2,-128.5 178,-128.5 178,-98.5 2,-98.5"/>
<text text-anchor="start" x="10" y="-116.5" font-family="Helvetica,sans-Serif" font-size="10.00">v8::internal::compiler</text>
<text text-anchor="middle" x="90" y="-105.5" font-family="Helvetica,sans-Serif" font-size="10.00">::EarlyGraphTrimmingPhase::Run</text>
</a>
</g>
</g>
<!-- Node2&#45;&gt;Node3 -->
<g id="edge2" class="edge">
<title>Node2&#45;&gt;Node3</title>
<path fill="none" stroke="midnightblue" d="M218.7,-81.98C196.82,-87.38 172.93,-93.28 151.79,-98.49"/>
<polygon fill="midnightblue" stroke="midnightblue" points="219.72,-85.33 228.59,-79.53 218.05,-78.53 219.72,-85.33"/>
</g>
<!-- Node4 -->
<g id="node4" class="node">
<title>Node4</title>
<g id="a_node4"><a xlink:href="structv8_1_1internal_1_1compiler_1_1LoopPeelingPhase.html#a3069a67a9f637a6240cb550f8da865ea" target="_top" xlink:title=" ">
<polygon fill="white" stroke="black" points="22,-49.5 22,-79.5 158,-79.5 158,-49.5 22,-49.5"/>
<text text-anchor="start" x="30" y="-67.5" font-family="Helvetica,sans-Serif" font-size="10.00">v8::internal::compiler</text>
<text text-anchor="middle" x="90" y="-56.5" font-family="Helvetica,sans-Serif" font-size="10.00">::LoopPeelingPhase::Run</text>
</a>
</g>
</g>
<!-- Node2&#45;&gt;Node4 -->
<g id="edge3" class="edge">
<title>Node2&#45;&gt;Node4</title>
<path fill="none" stroke="midnightblue" d="M205.59,-64.5C189.8,-64.5 173.48,-64.5 158.28,-64.5"/>
<polygon fill="midnightblue" stroke="midnightblue" points="205.87,-68 215.87,-64.5 205.87,-61 205.87,-68"/>
</g>
<!-- Node5 -->
<g id="node5" class="node">
<title>Node5</title>
<g id="a_node5"><a xlink:href="structv8_1_1internal_1_1compiler_1_1MemoryOptimizationPhase.html#a010c9c07549327f07c2f3ad168d59176" target="_top" xlink:title=" ">
<polygon fill="white" stroke="black" points="0,-0.5 0,-30.5 180,-30.5 180,-0.5 0,-0.5"/>
<text text-anchor="start" x="8" y="-18.5" font-family="Helvetica,sans-Serif" font-size="10.00">v8::internal::compiler</text>
<text text-anchor="middle" x="90" y="-7.5" font-family="Helvetica,sans-Serif" font-size="10.00">::MemoryOptimizationPhase::Run</text>
</a>
</g>
</g>
<!-- Node2&#45;&gt;Node5 -->
<g id="edge4" class="edge">
<title>Node2&#45;&gt;Node5</title>
<path fill="none" stroke="midnightblue" d="M218.7,-47.02C196.82,-41.62 172.93,-35.72 151.79,-30.51"/>
<polygon fill="midnightblue" stroke="midnightblue" points="218.05,-50.47 228.59,-49.47 219.72,-43.67 218.05,-50.47"/>
</g>
</g>
</svg>
