<?xml version="1.0" encoding="UTF-8" standalone="no"?>
<!DOCTYPE svg PUBLIC "-//W3C//DTD SVG 1.1//EN"
 "http://www.w3.org/Graphics/SVG/1.1/DTD/svg11.dtd">
<!-- Generated by graphviz version 2.43.0 (0)
 -->
<!-- Title: v8::internal::compiler::JSTypedArrayRef::elements_kind Pages: 1 -->
<svg width="601pt" height="100pt"
 viewBox="0.00 0.00 601.00 99.50" xmlns="http://www.w3.org/2000/svg" xmlns:xlink="http://www.w3.org/1999/xlink">
<g id="graph0" class="graph" transform="scale(1 1) rotate(0) translate(4 95.5)">
<title>v8::internal::compiler::JSTypedArrayRef::elements_kind</title>
<polygon fill="white" stroke="transparent" points="-4,4 -4,-95.5 597,-95.5 597,4 -4,4"/>
<!-- Node1 -->
<g id="node1" class="node">
<title>Node1</title>
<g id="a_node1"><a xlink:title=" ">
<polygon fill="#bfbfbf" stroke="black" points="413,-33 413,-63 593,-63 593,-33 413,-33"/>
<text text-anchor="start" x="421" y="-51" font-family="Helvetica,sans-Serif" font-size="10.00">v8::internal::compiler</text>
<text text-anchor="middle" x="503" y="-40" font-family="Helvetica,sans-Serif" font-size="10.00">::JSTypedArrayRef::elements_kind</text>
</a>
</g>
</g>
<!-- Node2 -->
<g id="node2" class="node">
<title>Node2</title>
<g id="a_node2"><a xlink:href="classv8_1_1internal_1_1compiler_1_1JSTypedArrayRef.html#a97e2ac27a1bfee61114c1f24cd053ffd" target="_top" xlink:title=" ">
<polygon fill="white" stroke="black" points="215,-61 215,-91 354,-91 354,-61 215,-61"/>
<text text-anchor="start" x="223" y="-79" font-family="Helvetica,sans-Serif" font-size="10.00">v8::internal::compiler</text>
<text text-anchor="middle" x="284.5" y="-68" font-family="Helvetica,sans-Serif" font-size="10.00">::JSTypedArrayRef::length</text>
</a>
</g>
</g>
<!-- Node1&#45;&gt;Node2 -->
<g id="edge1" class="edge">
<title>Node1&#45;&gt;Node2</title>
<path fill="none" stroke="midnightblue" d="M402.54,-60.86C386.16,-62.98 369.5,-65.14 354.09,-67.13"/>
<polygon fill="midnightblue" stroke="midnightblue" points="403.22,-64.3 412.69,-59.55 402.32,-57.36 403.22,-64.3"/>
</g>
<!-- Node3 -->
<g id="node3" class="node">
<title>Node3</title>
<g id="a_node3"><a xlink:href="classv8_1_1internal_1_1compiler_1_1TypedOptimization.html#a990f203676cf7220022b3ca6903047b4" target="_top" xlink:title=" ">
<polygon fill="white" stroke="black" points="192,-0.5 192,-41.5 377,-41.5 377,-0.5 192,-0.5"/>
<text text-anchor="start" x="200" y="-29.5" font-family="Helvetica,sans-Serif" font-size="10.00">v8::internal::compiler</text>
<text text-anchor="start" x="200" y="-18.5" font-family="Helvetica,sans-Serif" font-size="10.00">::TypedOptimization::ReduceTyped</text>
<text text-anchor="middle" x="284.5" y="-7.5" font-family="Helvetica,sans-Serif" font-size="10.00">ArrayLength</text>
</a>
</g>
</g>
<!-- Node1&#45;&gt;Node3 -->
<g id="edge2" class="edge">
<title>Node1&#45;&gt;Node3</title>
<path fill="none" stroke="midnightblue" d="M402.7,-35.62C394.16,-34.55 385.54,-33.48 377.05,-32.42"/>
<polygon fill="midnightblue" stroke="midnightblue" points="402.33,-39.1 412.69,-36.86 403.2,-32.15 402.33,-39.1"/>
</g>
<!-- Node4 -->
<g id="node4" class="node">
<title>Node4</title>
<g id="a_node4"><a xlink:href="classv8_1_1internal_1_1compiler_1_1TypedOptimization.html#accda01f62777d3521ef10ebb4effd423" target="_top" xlink:title=" ">
<polygon fill="white" stroke="black" points="0,-6 0,-36 156,-36 156,-6 0,-6"/>
<text text-anchor="start" x="8" y="-24" font-family="Helvetica,sans-Serif" font-size="10.00">v8::internal::compiler</text>
<text text-anchor="middle" x="78" y="-13" font-family="Helvetica,sans-Serif" font-size="10.00">::TypedOptimization::Reduce</text>
</a>
</g>
</g>
<!-- Node3&#45;&gt;Node4 -->
<g id="edge3" class="edge">
<title>Node3&#45;&gt;Node4</title>
<path fill="none" stroke="midnightblue" d="M181.65,-21C173.07,-21 164.47,-21 156.12,-21"/>
<polygon fill="midnightblue" stroke="midnightblue" points="181.72,-24.5 191.72,-21 181.72,-17.5 181.72,-24.5"/>
</g>
</g>
</svg>
