<?xml version="1.0" encoding="UTF-8" standalone="no"?>
<!DOCTYPE svg PUBLIC "-//W3C//DTD SVG 1.1//EN"
 "http://www.w3.org/Graphics/SVG/1.1/DTD/svg11.dtd">
<!-- Generated by graphviz version 2.43.0 (0)
 -->
<!-- Title: v8::internal::OptimizedJSFrame::GetDeoptimizationData Pages: 1 -->
<svg width="575pt" height="160pt"
 viewBox="0.00 0.00 575.00 160.00" xmlns="http://www.w3.org/2000/svg" xmlns:xlink="http://www.w3.org/1999/xlink">
<g id="graph0" class="graph" transform="scale(1 1) rotate(0) translate(4 156)">
<title>v8::internal::OptimizedJSFrame::GetDeoptimizationData</title>
<polygon fill="white" stroke="transparent" points="-4,4 -4,-156 571,-156 571,4 -4,4"/>
<!-- Node1 -->
<g id="node1" class="node">
<title>Node1</title>
<g id="a_node1"><a xlink:title=" ">
<polygon fill="#bfbfbf" stroke="black" points="0,-55.5 0,-85.5 168,-85.5 168,-55.5 0,-55.5"/>
<text text-anchor="start" x="8" y="-73.5" font-family="Helvetica,sans-Serif" font-size="10.00">v8::internal::OptimizedJSFrame</text>
<text text-anchor="middle" x="84" y="-62.5" font-family="Helvetica,sans-Serif" font-size="10.00">::GetDeoptimizationData</text>
</a>
</g>
</g>
<!-- Node2 -->
<g id="node2" class="node">
<title>Node2</title>
<g id="a_node2"><a xlink:href="namespacev8_1_1internal.html#af99e82892963b7932b8865a9c6f400bc" target="_top" xlink:title=" ">
<polygon fill="white" stroke="black" points="208.5,-121.5 208.5,-151.5 351.5,-151.5 351.5,-121.5 208.5,-121.5"/>
<text text-anchor="start" x="216.5" y="-139.5" font-family="Helvetica,sans-Serif" font-size="10.00">v8::internal::CodeKindCan</text>
<text text-anchor="middle" x="280" y="-128.5" font-family="Helvetica,sans-Serif" font-size="10.00">Deoptimize</text>
</a>
</g>
</g>
<!-- Node1&#45;&gt;Node2 -->
<g id="edge1" class="edge">
<title>Node1&#45;&gt;Node2</title>
<path fill="none" stroke="midnightblue" d="M129.51,-85.64C157.97,-95.33 195.07,-107.95 225.19,-118.19"/>
<polygon fill="midnightblue" stroke="midnightblue" points="224.11,-121.52 234.7,-121.43 226.36,-114.89 224.11,-121.52"/>
</g>
<!-- Node4 -->
<g id="node4" class="node">
<title>Node4</title>
<g id="a_node4"><a xlink:href="namespacev8_1_1internal.html#aa6b3743bd5d773c552654f2a6c3efa4a" target="_top" xlink:title=" ">
<polygon fill="white" stroke="black" points="420,-72 420,-91 539,-91 539,-72 420,-72"/>
<text text-anchor="middle" x="479.5" y="-79" font-family="Helvetica,sans-Serif" font-size="10.00">v8::internal::DCHECK</text>
</a>
</g>
</g>
<!-- Node1&#45;&gt;Node4 -->
<g id="edge3" class="edge">
<title>Node1&#45;&gt;Node4</title>
<path fill="none" stroke="midnightblue" d="M168.45,-72.83C240.23,-74.84 342.53,-77.7 409.7,-79.58"/>
<polygon fill="midnightblue" stroke="midnightblue" points="409.66,-83.08 419.76,-79.86 409.86,-76.08 409.66,-83.08"/>
</g>
<!-- Node5 -->
<g id="node5" class="node">
<title>Node5</title>
<g id="a_node5"><a xlink:href="classv8_1_1internal_1_1SafepointEntryBase.html#abcc0c377eb64076bcf7b0bddfb4185f8" target="_top" xlink:title=" ">
<polygon fill="white" stroke="black" points="204,-33.5 204,-63.5 356,-63.5 356,-33.5 204,-33.5"/>
<text text-anchor="start" x="212" y="-51.5" font-family="Helvetica,sans-Serif" font-size="10.00">v8::internal::SafepointEntry</text>
<text text-anchor="middle" x="280" y="-40.5" font-family="Helvetica,sans-Serif" font-size="10.00">Base::deoptimization_index</text>
</a>
</g>
</g>
<!-- Node1&#45;&gt;Node5 -->
<g id="edge4" class="edge">
<title>Node1&#45;&gt;Node5</title>
<path fill="none" stroke="midnightblue" d="M168.12,-61.07C176.53,-60.12 185.08,-59.15 193.51,-58.19"/>
<polygon fill="midnightblue" stroke="midnightblue" points="194.18,-61.64 203.72,-57.04 193.39,-54.69 194.18,-61.64"/>
</g>
<!-- Node6 -->
<g id="node6" class="node">
<title>Node6</title>
<g id="a_node6"><a xlink:href="classv8_1_1internal_1_1SafepointEntryBase.html#aa4ea1de3ef6a66cf216b8409e9dc6e4c" target="_top" xlink:title=" ">
<polygon fill="white" stroke="black" points="392,-0.5 392,-30.5 567,-30.5 567,-0.5 392,-0.5"/>
<text text-anchor="start" x="400" y="-18.5" font-family="Helvetica,sans-Serif" font-size="10.00">v8::internal::SafepointEntry</text>
<text text-anchor="middle" x="479.5" y="-7.5" font-family="Helvetica,sans-Serif" font-size="10.00">Base::has_deoptimization_index</text>
</a>
</g>
</g>
<!-- Node1&#45;&gt;Node6 -->
<g id="edge7" class="edge">
<title>Node1&#45;&gt;Node6</title>
<path fill="none" stroke="midnightblue" d="M114.92,-55.31C138.46,-44.2 172.45,-29.98 204,-23.5 262.24,-11.53 328.88,-9.33 381.92,-10.21"/>
<polygon fill="midnightblue" stroke="midnightblue" points="381.93,-13.71 392,-10.42 382.07,-6.71 381.93,-13.71"/>
</g>
<!-- Node3 -->
<g id="node3" class="node">
<title>Node3</title>
<g id="a_node3"><a xlink:href="namespacev8_1_1internal.html#a16bcb97ead5236fdc74dc4dee75e4577" target="_top" xlink:title=" ">
<polygon fill="white" stroke="black" points="413,-121.5 413,-151.5 546,-151.5 546,-121.5 413,-121.5"/>
<text text-anchor="start" x="421" y="-139.5" font-family="Helvetica,sans-Serif" font-size="10.00">v8::internal::CodeKindIs</text>
<text text-anchor="middle" x="479.5" y="-128.5" font-family="Helvetica,sans-Serif" font-size="10.00">OptimizedJSFunction</text>
</a>
</g>
</g>
<!-- Node2&#45;&gt;Node3 -->
<g id="edge2" class="edge">
<title>Node2&#45;&gt;Node3</title>
<path fill="none" stroke="midnightblue" d="M351.74,-136.5C368.24,-136.5 385.88,-136.5 402.59,-136.5"/>
<polygon fill="midnightblue" stroke="midnightblue" points="402.86,-140 412.86,-136.5 402.86,-133 402.86,-140"/>
</g>
<!-- Node5&#45;&gt;Node4 -->
<g id="edge5" class="edge">
<title>Node5&#45;&gt;Node4</title>
<path fill="none" stroke="midnightblue" d="M356.23,-61.07C374.36,-64.1 393.62,-67.32 411.36,-70.28"/>
<polygon fill="midnightblue" stroke="midnightblue" points="411.17,-73.8 421.61,-71.99 412.32,-66.89 411.17,-73.8"/>
</g>
<!-- Node5&#45;&gt;Node6 -->
<g id="edge6" class="edge">
<title>Node5&#45;&gt;Node6</title>
<path fill="none" stroke="midnightblue" d="M356.23,-35.93C364.61,-34.53 373.24,-33.09 381.84,-31.65"/>
<polygon fill="midnightblue" stroke="midnightblue" points="382.63,-35.07 391.91,-29.97 381.47,-28.16 382.63,-35.07"/>
</g>
</g>
</svg>
