<?xml version="1.0" encoding="UTF-8" standalone="no"?>
<!DOCTYPE svg PUBLIC "-//W3C//DTD SVG 1.1//EN"
 "http://www.w3.org/Graphics/SVG/1.1/DTD/svg11.dtd">
<!-- Generated by graphviz version 2.43.0 (0)
 -->
<!-- Title: v8::internal::compiler::turboshaft::WasmGCTypeAnalyzer::IsReachable Pages: 1 -->
<svg width="534pt" height="137pt"
 viewBox="0.00 0.00 534.00 137.00" xmlns="http://www.w3.org/2000/svg" xmlns:xlink="http://www.w3.org/1999/xlink">
<g id="graph0" class="graph" transform="scale(1 1) rotate(0) translate(4 133)">
<title>v8::internal::compiler::turboshaft::WasmGCTypeAnalyzer::IsReachable</title>
<polygon fill="white" stroke="transparent" points="-4,4 -4,-133 530,-133 530,4 -4,4"/>
<!-- Node1 -->
<g id="node1" class="node">
<title>Node1</title>
<g id="a_node1"><a xlink:title=" ">
<polygon fill="#bfbfbf" stroke="black" points="0,-44 0,-85 188,-85 188,-44 0,-44"/>
<text text-anchor="start" x="8" y="-73" font-family="Helvetica,sans-Serif" font-size="10.00">v8::internal::compiler</text>
<text text-anchor="start" x="8" y="-62" font-family="Helvetica,sans-Serif" font-size="10.00">::turboshaft::WasmGCTypeAnalyzer</text>
<text text-anchor="middle" x="94" y="-51" font-family="Helvetica,sans-Serif" font-size="10.00">::IsReachable</text>
</a>
</g>
</g>
<!-- Node2 -->
<g id="node2" class="node">
<title>Node2</title>
<g id="a_node2"><a xlink:href="classv8_1_1internal_1_1BitVector.html#a95c0fe99904fe4d054c2e7d4bce8ea53" target="_top" xlink:title=" ">
<polygon fill="white" stroke="black" points="236.5,-98.5 236.5,-128.5 358.5,-128.5 358.5,-98.5 236.5,-98.5"/>
<text text-anchor="start" x="244.5" y="-116.5" font-family="Helvetica,sans-Serif" font-size="10.00">v8::internal::BitVector</text>
<text text-anchor="middle" x="297.5" y="-105.5" font-family="Helvetica,sans-Serif" font-size="10.00">::Contains</text>
</a>
</g>
</g>
<!-- Node1&#45;&gt;Node2 -->
<g id="edge1" class="edge">
<title>Node1&#45;&gt;Node2</title>
<path fill="none" stroke="midnightblue" d="M179.58,-85.07C195.22,-88.87 211.39,-92.8 226.53,-96.49"/>
<polygon fill="midnightblue" stroke="midnightblue" points="225.78,-99.9 236.32,-98.87 227.43,-93.1 225.78,-99.9"/>
</g>
<!-- Node4 -->
<g id="node4" class="node">
<title>Node4</title>
<g id="a_node4"><a xlink:href="classv8_1_1internal_1_1compiler_1_1turboshaft_1_1BlockIndex.html#a52fe0f1480e02030fbc95943716f782c" target="_top" xlink:title=" ">
<polygon fill="white" stroke="black" points="224,-49.5 224,-79.5 371,-79.5 371,-49.5 224,-49.5"/>
<text text-anchor="start" x="232" y="-67.5" font-family="Helvetica,sans-Serif" font-size="10.00">v8::internal::compiler</text>
<text text-anchor="middle" x="297.5" y="-56.5" font-family="Helvetica,sans-Serif" font-size="10.00">::turboshaft::BlockIndex::id</text>
</a>
</g>
</g>
<!-- Node1&#45;&gt;Node4 -->
<g id="edge3" class="edge">
<title>Node1&#45;&gt;Node4</title>
<path fill="none" stroke="midnightblue" d="M188.08,-64.5C196.59,-64.5 205.16,-64.5 213.57,-64.5"/>
<polygon fill="midnightblue" stroke="midnightblue" points="213.72,-68 223.72,-64.5 213.72,-61 213.72,-68"/>
</g>
<!-- Node5 -->
<g id="node5" class="node">
<title>Node5</title>
<g id="a_node5"><a xlink:href="classv8_1_1internal_1_1compiler_1_1turboshaft_1_1Block.html#ad6c2f9b5b13eee3121df951653915777" target="_top" xlink:title=" ">
<polygon fill="white" stroke="black" points="228.5,-0.5 228.5,-30.5 366.5,-30.5 366.5,-0.5 228.5,-0.5"/>
<text text-anchor="start" x="236.5" y="-18.5" font-family="Helvetica,sans-Serif" font-size="10.00">v8::internal::compiler</text>
<text text-anchor="middle" x="297.5" y="-7.5" font-family="Helvetica,sans-Serif" font-size="10.00">::turboshaft::Block::index</text>
</a>
</g>
</g>
<!-- Node1&#45;&gt;Node5 -->
<g id="edge4" class="edge">
<title>Node1&#45;&gt;Node5</title>
<path fill="none" stroke="midnightblue" d="M179.58,-43.93C194.63,-40.27 210.18,-36.49 224.82,-32.93"/>
<polygon fill="midnightblue" stroke="midnightblue" points="225.92,-36.27 234.8,-30.5 224.26,-29.46 225.92,-36.27"/>
</g>
<!-- Node3 -->
<g id="node3" class="node">
<title>Node3</title>
<g id="a_node3"><a xlink:href="namespacev8_1_1internal.html#aa6b3743bd5d773c552654f2a6c3efa4a" target="_top" xlink:title=" ">
<polygon fill="white" stroke="black" points="407,-104 407,-123 526,-123 526,-104 407,-104"/>
<text text-anchor="middle" x="466.5" y="-111" font-family="Helvetica,sans-Serif" font-size="10.00">v8::internal::DCHECK</text>
</a>
</g>
</g>
<!-- Node2&#45;&gt;Node3 -->
<g id="edge2" class="edge">
<title>Node2&#45;&gt;Node3</title>
<path fill="none" stroke="midnightblue" d="M358.79,-113.5C371.18,-113.5 384.3,-113.5 396.95,-113.5"/>
<polygon fill="midnightblue" stroke="midnightblue" points="396.97,-117 406.97,-113.5 396.97,-110 396.97,-117"/>
</g>
</g>
</svg>
