<?xml version="1.0" encoding="UTF-8" standalone="no"?>
<!DOCTYPE svg PUBLIC "-//W3C//DTD SVG 1.1//EN"
 "http://www.w3.org/Graphics/SVG/1.1/DTD/svg11.dtd">
<!-- Generated by graphviz version 2.43.0 (0)
 -->
<!-- Title: v8::internal::compiler::turboshaft::Block::OriginForBlockEnd Pages: 1 -->
<svg width="685pt" height="83pt"
 viewBox="0.00 0.00 685.00 83.00" xmlns="http://www.w3.org/2000/svg" xmlns:xlink="http://www.w3.org/1999/xlink">
<g id="graph0" class="graph" transform="scale(1 1) rotate(0) translate(4 79)">
<title>v8::internal::compiler::turboshaft::Block::OriginForBlockEnd</title>
<polygon fill="white" stroke="transparent" points="-4,4 -4,-79 681,-79 681,4 -4,4"/>
<!-- Node1 -->
<g id="node1" class="node">
<title>Node1</title>
<g id="a_node1"><a xlink:title=" ">
<polygon fill="#bfbfbf" stroke="black" points="0,-22.5 0,-63.5 155,-63.5 155,-22.5 0,-22.5"/>
<text text-anchor="start" x="8" y="-51.5" font-family="Helvetica,sans-Serif" font-size="10.00">v8::internal::compiler</text>
<text text-anchor="start" x="8" y="-40.5" font-family="Helvetica,sans-Serif" font-size="10.00">::turboshaft::Block::OriginFor</text>
<text text-anchor="middle" x="77.5" y="-29.5" font-family="Helvetica,sans-Serif" font-size="10.00">BlockEnd</text>
</a>
</g>
</g>
<!-- Node2 -->
<g id="node2" class="node">
<title>Node2</title>
<g id="a_node2"><a xlink:href="namespacev8_1_1internal.html#aa6b3743bd5d773c552654f2a6c3efa4a" target="_top" xlink:title=" ">
<polygon fill="white" stroke="black" points="206.5,-55.5 206.5,-74.5 325.5,-74.5 325.5,-55.5 206.5,-55.5"/>
<text text-anchor="middle" x="266" y="-62.5" font-family="Helvetica,sans-Serif" font-size="10.00">v8::internal::DCHECK</text>
</a>
</g>
</g>
<!-- Node1&#45;&gt;Node2 -->
<g id="edge1" class="edge">
<title>Node1&#45;&gt;Node2</title>
<path fill="none" stroke="midnightblue" d="M155.16,-52.04C168.77,-53.65 182.87,-55.31 196.25,-56.89"/>
<polygon fill="midnightblue" stroke="midnightblue" points="195.97,-60.38 206.31,-58.08 196.79,-53.43 195.97,-60.38"/>
</g>
<!-- Node3 -->
<g id="node3" class="node">
<title>Node3</title>
<g id="a_node3"><a xlink:href="classv8_1_1internal_1_1compiler_1_1turboshaft_1_1Block.html#a7b68a330317b7b7f0c9d6fb64ee1bbd5" target="_top" xlink:title=" ">
<polygon fill="white" stroke="black" points="191,-6 191,-36 341,-36 341,-6 191,-6"/>
<text text-anchor="start" x="199" y="-24" font-family="Helvetica,sans-Serif" font-size="10.00">v8::internal::compiler</text>
<text text-anchor="middle" x="266" y="-13" font-family="Helvetica,sans-Serif" font-size="10.00">::turboshaft::Block::IsBound</text>
</a>
</g>
</g>
<!-- Node1&#45;&gt;Node3 -->
<g id="edge2" class="edge">
<title>Node1&#45;&gt;Node3</title>
<path fill="none" stroke="midnightblue" d="M155.16,-33.96C163.61,-32.96 172.25,-31.94 180.78,-30.93"/>
<polygon fill="midnightblue" stroke="midnightblue" points="181.22,-34.41 190.74,-29.76 180.4,-27.46 181.22,-34.41"/>
</g>
<!-- Node4 -->
<g id="node4" class="node">
<title>Node4</title>
<g id="a_node4"><a xlink:href="classv8_1_1internal_1_1compiler_1_1turboshaft_1_1BlockIndex.html#a1c976079c2d7694c53dd48b26aa23ca9" target="_top" xlink:title=" ">
<polygon fill="white" stroke="black" points="377,-0.5 377,-41.5 509,-41.5 509,-0.5 377,-0.5"/>
<text text-anchor="start" x="385" y="-29.5" font-family="Helvetica,sans-Serif" font-size="10.00">v8::internal::compiler</text>
<text text-anchor="start" x="385" y="-18.5" font-family="Helvetica,sans-Serif" font-size="10.00">::turboshaft::BlockIndex</text>
<text text-anchor="middle" x="443" y="-7.5" font-family="Helvetica,sans-Serif" font-size="10.00">::Invalid</text>
</a>
</g>
</g>
<!-- Node3&#45;&gt;Node4 -->
<g id="edge3" class="edge">
<title>Node3&#45;&gt;Node4</title>
<path fill="none" stroke="midnightblue" d="M341.22,-21C349.63,-21 358.21,-21 366.63,-21"/>
<polygon fill="midnightblue" stroke="midnightblue" points="366.81,-24.5 376.81,-21 366.81,-17.5 366.81,-24.5"/>
</g>
<!-- Node5 -->
<g id="node5" class="node">
<title>Node5</title>
<g id="a_node5"><a xlink:href="classv8_1_1internal_1_1compiler_1_1turboshaft_1_1BlockIndex.html#a058ffeed97187b4936c94c010cdc1159" target="_top" xlink:title=" ">
<polygon fill="white" stroke="black" points="545,-0.5 545,-41.5 677,-41.5 677,-0.5 545,-0.5"/>
<text text-anchor="start" x="553" y="-29.5" font-family="Helvetica,sans-Serif" font-size="10.00">v8::internal::compiler</text>
<text text-anchor="start" x="553" y="-18.5" font-family="Helvetica,sans-Serif" font-size="10.00">::turboshaft::BlockIndex</text>
<text text-anchor="middle" x="611" y="-7.5" font-family="Helvetica,sans-Serif" font-size="10.00">::BlockIndex</text>
</a>
</g>
</g>
<!-- Node4&#45;&gt;Node5 -->
<g id="edge4" class="edge">
<title>Node4&#45;&gt;Node5</title>
<path fill="none" stroke="midnightblue" d="M509.13,-21C517.46,-21 526.04,-21 534.52,-21"/>
<polygon fill="midnightblue" stroke="midnightblue" points="534.78,-24.5 544.78,-21 534.78,-17.5 534.78,-24.5"/>
</g>
</g>
</svg>
