<?xml version="1.0" encoding="UTF-8" standalone="no"?>
<!DOCTYPE svg PUBLIC "-//W3C//DTD SVG 1.1//EN"
 "http://www.w3.org/Graphics/SVG/1.1/DTD/svg11.dtd">
<!-- Generated by graphviz version 2.43.0 (0)
 -->
<!-- Title: v8::internal::wasm::Handlers::s2s_RefNull Pages: 1 -->
<svg width="547pt" height="127pt"
 viewBox="0.00 0.00 547.00 127.00" xmlns="http://www.w3.org/2000/svg" xmlns:xlink="http://www.w3.org/1999/xlink">
<g id="graph0" class="graph" transform="scale(1 1) rotate(0) translate(4 123)">
<title>v8::internal::wasm::Handlers::s2s_RefNull</title>
<polygon fill="white" stroke="transparent" points="-4,4 -4,-123 543,-123 543,4 -4,4"/>
<!-- Node1 -->
<g id="node1" class="node">
<title>Node1</title>
<g id="a_node1"><a xlink:title=" ">
<polygon fill="#bfbfbf" stroke="black" points="0,-44.5 0,-74.5 130,-74.5 130,-44.5 0,-44.5"/>
<text text-anchor="start" x="8" y="-62.5" font-family="Helvetica,sans-Serif" font-size="10.00">v8::internal::wasm</text>
<text text-anchor="middle" x="65" y="-51.5" font-family="Helvetica,sans-Serif" font-size="10.00">::Handlers::s2s_RefNull</text>
</a>
</g>
</g>
<!-- Node2 -->
<g id="node2" class="node">
<title>Node2</title>
<g id="a_node2"><a xlink:href="classv8_1_1internal_1_1wasm_1_1ValueType.html#a071d5aabda4f79d947fe978ecbf0e2a2" target="_top" xlink:title=" ">
<polygon fill="white" stroke="black" points="166,-88.5 166,-118.5 327,-118.5 327,-88.5 166,-88.5"/>
<text text-anchor="start" x="174" y="-106.5" font-family="Helvetica,sans-Serif" font-size="10.00">v8::internal::wasm</text>
<text text-anchor="middle" x="246.5" y="-95.5" font-family="Helvetica,sans-Serif" font-size="10.00">::ValueType::FromRawBitField</text>
</a>
</g>
</g>
<!-- Node1&#45;&gt;Node2 -->
<g id="edge1" class="edge">
<title>Node1&#45;&gt;Node2</title>
<path fill="none" stroke="midnightblue" d="M127.27,-74.52C142.35,-78.22 158.63,-82.21 174.14,-86.01"/>
<polygon fill="midnightblue" stroke="midnightblue" points="173.65,-89.49 184.2,-88.47 175.32,-82.69 173.65,-89.49"/>
</g>
<!-- Node4 -->
<g id="node4" class="node">
<title>Node4</title>
<g id="a_node4"><a xlink:href="namespacev8_1_1internal.html#a8c89f00da07e125218128b9fbf0a321c" target="_top" xlink:title=" ">
<polygon fill="white" stroke="black" points="191,-50 191,-69 302,-69 302,-50 191,-50"/>
<text text-anchor="middle" x="246.5" y="-57" font-family="Helvetica,sans-Serif" font-size="10.00">v8::internal::handle</text>
</a>
</g>
</g>
<!-- Node1&#45;&gt;Node4 -->
<g id="edge3" class="edge">
<title>Node1&#45;&gt;Node4</title>
<path fill="none" stroke="midnightblue" d="M130.04,-59.5C146.55,-59.5 164.33,-59.5 180.87,-59.5"/>
<polygon fill="midnightblue" stroke="midnightblue" points="180.98,-63 190.98,-59.5 180.98,-56 180.98,-63"/>
</g>
<!-- Node5 -->
<g id="node5" class="node">
<title>Node5</title>
<g id="a_node5"><a xlink:href="classv8_1_1internal_1_1wasm_1_1Handlers.html#ae01467ac781eb7551eb82b50cedca3dd" target="_top" xlink:title=" ">
<polygon fill="white" stroke="black" points="192,-0.5 192,-30.5 301,-30.5 301,-0.5 192,-0.5"/>
<text text-anchor="start" x="200" y="-18.5" font-family="Helvetica,sans-Serif" font-size="10.00">v8::internal::wasm</text>
<text text-anchor="middle" x="246.5" y="-7.5" font-family="Helvetica,sans-Serif" font-size="10.00">::Handlers::NextOp</text>
</a>
</g>
</g>
<!-- Node1&#45;&gt;Node5 -->
<g id="edge4" class="edge">
<title>Node1&#45;&gt;Node5</title>
<path fill="none" stroke="midnightblue" d="M127.27,-44.48C144.76,-40.19 163.86,-35.51 181.51,-31.19"/>
<polygon fill="midnightblue" stroke="midnightblue" points="182.83,-34.47 191.71,-28.69 181.16,-27.67 182.83,-34.47"/>
</g>
<!-- Node3 -->
<g id="node3" class="node">
<title>Node3</title>
<g id="a_node3"><a xlink:href="classv8_1_1internal_1_1wasm_1_1ValueTypeBase.html#abddcf416ee392bf76d5ab20d7e91e610" target="_top" xlink:title=" ">
<polygon fill="white" stroke="black" points="363,-88.5 363,-118.5 539,-118.5 539,-88.5 363,-88.5"/>
<text text-anchor="start" x="371" y="-106.5" font-family="Helvetica,sans-Serif" font-size="10.00">v8::internal::wasm</text>
<text text-anchor="middle" x="451" y="-95.5" font-family="Helvetica,sans-Serif" font-size="10.00">::ValueTypeBase::ValueTypeBase</text>
</a>
</g>
</g>
<!-- Node2&#45;&gt;Node3 -->
<g id="edge2" class="edge">
<title>Node2&#45;&gt;Node3</title>
<path fill="none" stroke="midnightblue" d="M327.24,-103.5C335.67,-103.5 344.32,-103.5 352.92,-103.5"/>
<polygon fill="midnightblue" stroke="midnightblue" points="352.98,-107 362.98,-103.5 352.98,-100 352.98,-107"/>
</g>
</g>
</svg>
