<?xml version="1.0" encoding="UTF-8" standalone="no"?>
<!DOCTYPE svg PUBLIC "-//W3C//DTD SVG 1.1//EN"
 "http://www.w3.org/Graphics/SVG/1.1/DTD/svg11.dtd">
<!-- Generated by graphviz version 2.43.0 (0)
 -->
<!-- Title: v8::internal::HeapAllocator::MarkSharedLinearAllocationAreasBlack Pages: 1 -->
<svg width="419pt" height="50pt"
 viewBox="0.00 0.00 419.00 50.00" xmlns="http://www.w3.org/2000/svg" xmlns:xlink="http://www.w3.org/1999/xlink">
<g id="graph0" class="graph" transform="scale(1 1) rotate(0) translate(4 46)">
<title>v8::internal::HeapAllocator::MarkSharedLinearAllocationAreasBlack</title>
<polygon fill="white" stroke="transparent" points="-4,4 -4,-46 415,-46 415,4 -4,4"/>
<!-- Node1 -->
<g id="node1" class="node">
<title>Node1</title>
<g id="a_node1"><a xlink:title=" ">
<polygon fill="#bfbfbf" stroke="black" points="196,-6 196,-36 411,-36 411,-6 196,-6"/>
<text text-anchor="start" x="204" y="-24" font-family="Helvetica,sans-Serif" font-size="10.00">v8::internal::HeapAllocator</text>
<text text-anchor="middle" x="303.5" y="-13" font-family="Helvetica,sans-Serif" font-size="10.00">::MarkSharedLinearAllocationAreasBlack</text>
</a>
</g>
</g>
<!-- Node2 -->
<g id="node2" class="node">
<title>Node2</title>
<g id="a_node2"><a xlink:href="classv8_1_1internal_1_1Heap.html#a72bbd954e7cfa4f655cb255bff3630e6" target="_top" xlink:title=" ">
<polygon fill="white" stroke="black" points="0,-0.5 0,-41.5 160,-41.5 160,-0.5 0,-0.5"/>
<text text-anchor="start" x="8" y="-29.5" font-family="Helvetica,sans-Serif" font-size="10.00">v8::internal::Heap</text>
<text text-anchor="start" x="8" y="-18.5" font-family="Helvetica,sans-Serif" font-size="10.00">::MarkSharedLinearAllocation</text>
<text text-anchor="middle" x="80" y="-7.5" font-family="Helvetica,sans-Serif" font-size="10.00">AreasBlack</text>
</a>
</g>
</g>
<!-- Node1&#45;&gt;Node2 -->
<g id="edge1" class="edge">
<title>Node1&#45;&gt;Node2</title>
<path fill="none" stroke="midnightblue" d="M185.77,-21C177.09,-21 168.47,-21 160.1,-21"/>
<polygon fill="midnightblue" stroke="midnightblue" points="185.97,-24.5 195.97,-21 185.97,-17.5 185.97,-24.5"/>
</g>
</g>
</svg>
