<?xml version="1.0" encoding="UTF-8" standalone="no"?>
<!DOCTYPE svg PUBLIC "-//W3C//DTD SVG 1.1//EN"
 "http://www.w3.org/Graphics/SVG/1.1/DTD/svg11.dtd">
<!-- Generated by graphviz version 2.43.0 (0)
 -->
<!-- Title: v8::internal::FactoryBase::NumberToString Pages: 1 -->
<svg width="653pt" height="116pt"
 viewBox="0.00 0.00 653.00 115.50" xmlns="http://www.w3.org/2000/svg" xmlns:xlink="http://www.w3.org/1999/xlink">
<g id="graph0" class="graph" transform="scale(1 1) rotate(0) translate(4 111.5)">
<title>v8::internal::FactoryBase::NumberToString</title>
<polygon fill="white" stroke="transparent" points="-4,4 -4,-111.5 649,-111.5 649,4 -4,4"/>
<!-- Node1 -->
<g id="node1" class="node">
<title>Node1</title>
<g id="a_node1"><a xlink:title=" ">
<polygon fill="#bfbfbf" stroke="black" points="0,-33 0,-63 137,-63 137,-33 0,-33"/>
<text text-anchor="start" x="8" y="-51" font-family="Helvetica,sans-Serif" font-size="10.00">v8::internal::FactoryBase</text>
<text text-anchor="middle" x="68.5" y="-40" font-family="Helvetica,sans-Serif" font-size="10.00">::NumberToString</text>
</a>
</g>
</g>
<!-- Node2 -->
<g id="node2" class="node">
<title>Node2</title>
<g id="a_node2"><a xlink:href="namespacev8_1_1internal.html#a33a2826557a82e4cd9775aadf0f5711e" target="_top" xlink:title=" ">
<polygon fill="white" stroke="black" points="173,-76.5 173,-95.5 298,-95.5 298,-76.5 173,-76.5"/>
<text text-anchor="middle" x="235.5" y="-83.5" font-family="Helvetica,sans-Serif" font-size="10.00">v8::internal::IsNumber</text>
</a>
</g>
</g>
<!-- Node1&#45;&gt;Node2 -->
<g id="edge1" class="edge">
<title>Node1&#45;&gt;Node2</title>
<path fill="none" stroke="midnightblue" d="M134.71,-63.02C150.82,-66.73 167.85,-70.65 183.19,-74.18"/>
<polygon fill="midnightblue" stroke="midnightblue" points="182.47,-77.61 193,-76.44 184.04,-70.79 182.47,-77.61"/>
</g>
<!-- Node4 -->
<g id="node4" class="node">
<title>Node4</title>
<g id="a_node4"><a xlink:href="namespacev8_1_1internal.html#ac299e59759eecb4621f6bad64d5db952" target="_top" xlink:title=" ">
<polygon fill="white" stroke="black" points="352,-38.5 352,-57.5 457,-57.5 457,-38.5 352,-38.5"/>
<text text-anchor="middle" x="404.5" y="-45.5" font-family="Helvetica,sans-Serif" font-size="10.00">v8::internal::IsSmi</text>
</a>
</g>
</g>
<!-- Node1&#45;&gt;Node4 -->
<g id="edge5" class="edge">
<title>Node1&#45;&gt;Node4</title>
<path fill="none" stroke="midnightblue" d="M137.09,-48C196.97,-48 283.66,-48 341.72,-48"/>
<polygon fill="midnightblue" stroke="midnightblue" points="341.86,-51.5 351.86,-48 341.86,-44.5 341.86,-51.5"/>
</g>
<!-- Node6 -->
<g id="node6" class="node">
<title>Node6</title>
<g id="a_node6"><a xlink:href="flag-definitions_8h.html#adaf90f045d5cd2710edd625b8685472a" target="_top" xlink:title=" ">
<polygon fill="white" stroke="black" points="213.5,-0.5 213.5,-19.5 257.5,-19.5 257.5,-0.5 213.5,-0.5"/>
<text text-anchor="middle" x="235.5" y="-7.5" font-family="Helvetica,sans-Serif" font-size="10.00">mode</text>
</a>
</g>
</g>
<!-- Node1&#45;&gt;Node6 -->
<g id="edge6" class="edge">
<title>Node1&#45;&gt;Node6</title>
<path fill="none" stroke="midnightblue" d="M134.71,-32.98C158.38,-27.53 184.04,-21.62 203.41,-17.16"/>
<polygon fill="midnightblue" stroke="midnightblue" points="204.24,-20.56 213.2,-14.91 202.67,-13.74 204.24,-20.56"/>
</g>
<!-- Node3 -->
<g id="node3" class="node">
<title>Node3</title>
<g id="a_node3"><a xlink:href="namespacev8_1_1internal.html#a53c61c7bac6bd1ede36ec245f2e0a1d8" target="_top" xlink:title=" ">
<polygon fill="white" stroke="black" points="334,-77 334,-107 475,-107 475,-77 334,-77"/>
<text text-anchor="start" x="342" y="-95" font-family="Helvetica,sans-Serif" font-size="10.00">v8::internal::GetPtrCompr</text>
<text text-anchor="middle" x="404.5" y="-84" font-family="Helvetica,sans-Serif" font-size="10.00">CageBase</text>
</a>
</g>
</g>
<!-- Node2&#45;&gt;Node3 -->
<g id="edge2" class="edge">
<title>Node2&#45;&gt;Node3</title>
<path fill="none" stroke="midnightblue" d="M298.21,-88.22C306.56,-88.52 315.22,-88.83 323.82,-89.14"/>
<polygon fill="midnightblue" stroke="midnightblue" points="323.76,-92.64 333.88,-89.5 324.01,-85.64 323.76,-92.64"/>
</g>
<!-- Node2&#45;&gt;Node4 -->
<g id="edge3" class="edge">
<title>Node2&#45;&gt;Node4</title>
<path fill="none" stroke="midnightblue" d="M278.64,-76.41C300.88,-71.35 328.35,-65.1 351.86,-59.75"/>
<polygon fill="midnightblue" stroke="midnightblue" points="352.69,-63.15 361.66,-57.52 351.13,-56.33 352.69,-63.15"/>
</g>
<!-- Node5 -->
<g id="node5" class="node">
<title>Node5</title>
<g id="a_node5"><a xlink:href="classv8_1_1internal_1_1TaggedImpl.html#ac581f955a852851b751735177af20efa" target="_top" xlink:title=" ">
<polygon fill="white" stroke="black" points="511,-33 511,-63 645,-63 645,-33 511,-33"/>
<text text-anchor="start" x="519" y="-51" font-family="Helvetica,sans-Serif" font-size="10.00">v8::internal::TaggedImpl</text>
<text text-anchor="middle" x="578" y="-40" font-family="Helvetica,sans-Serif" font-size="10.00">::IsSmi</text>
</a>
</g>
</g>
<!-- Node4&#45;&gt;Node5 -->
<g id="edge4" class="edge">
<title>Node4&#45;&gt;Node5</title>
<path fill="none" stroke="midnightblue" d="M457.42,-48C471.12,-48 486.19,-48 500.88,-48"/>
<polygon fill="midnightblue" stroke="midnightblue" points="500.96,-51.5 510.96,-48 500.96,-44.5 500.96,-51.5"/>
</g>
</g>
</svg>
