<?xml version="1.0" encoding="UTF-8" standalone="no"?>
<!DOCTYPE svg PUBLIC "-//W3C//DTD SVG 1.1//EN"
 "http://www.w3.org/Graphics/SVG/1.1/DTD/svg11.dtd">
<!-- Generated by graphviz version 2.43.0 (0)
 -->
<!-- Title: v8::internal::ExpressionParsingScope::mark_verified Pages: 1 -->
<!--zoomable 158 -->
<svg id="main" version="1.1" xmlns="http://www.w3.org/2000/svg" xmlns:xlink="http://www.w3.org/1999/xlink" xml:space="preserve" onload="init(evt)">
<style type="text/css"><![CDATA[
.edge:hover path { stroke: red; }
.edge:hover polygon { stroke: red; fill: red; }
]]></style>
<script type="text/javascript"><![CDATA[
var edges = document.getElementsByTagName('g');
if (edges && edges.length) {
  for (var i=0;i<edges.length;i++) {
    if (edges[i].id.substr(0,4)=='edge') {
      edges[i].setAttribute('class','edge');
    }
  }
}
]]></script>
        <defs>
                <circle id="rim" cx="0" cy="0" r="7"/>
                <circle id="rim2" cx="0" cy="0" r="3.5"/>
                <g id="zoomPlus">
                        <use xlink:href="#rim" fill="#404040">
                                <set attributeName="fill" to="#808080" begin="zoomplus.mouseover" end="zoomplus.mouseout"/>
                        </use>
                        <path d="M-4,0h8M0,-4v8" fill="none" stroke="white" stroke-width="1.5" pointer-events="none"/>
                </g>
                <g id="zoomMin">
                        <use xlink:href="#rim" fill="#404040">
                                <set attributeName="fill" to="#808080" begin="zoomminus.mouseover" end="zoomminus.mouseout"/>
                        </use>
                        <path d="M-4,0h8" fill="none" stroke="white" stroke-width="1.5" pointer-events="none"/>
                </g>
                <g id="dirArrow">
                        <path fill="none" stroke="white" stroke-width="1.5" d="M0,-3.0v7 M-2.5,-0.5L0,-3.0L2.5,-0.5"/>
                </g>
               <g id="resetDef">
                       <use xlink:href="#rim2" fill="#404040">
                               <set attributeName="fill" to="#808080" begin="reset.mouseover" end="reset.mouseout"/>
                       </use>
               </g>
        </defs>

<script type="text/javascript">
var viewWidth = 773;
var viewHeight = 158;
var sectionId = 'dynsection-11';
</script>
<script xlink:href="svgpan.js"/>
<svg id="graph" class="graph">
<g id="viewport">
<title>v8::internal::ExpressionParsingScope::mark_verified</title>
<polygon fill="white" stroke="transparent" points="-4,4 -4,-153.5 769,-153.5 769,4 -4,4"/>
<!-- Node1 -->
<g id="node1" class="node">
<title>Node1</title>
<g id="a_node1"><a xlink:title=" ">
<polygon fill="#bfbfbf" stroke="black" points="610,-9 610,-39 765,-39 765,-9 610,-9"/>
<text text-anchor="start" x="618" y="-27" font-family="Helvetica,sans-Serif" font-size="10.00">v8::internal::Expression</text>
<text text-anchor="middle" x="687.5" y="-16" font-family="Helvetica,sans-Serif" font-size="10.00">ParsingScope::mark_verified</text>
</a>
</g>
</g>
<!-- Node2 -->
<g id="node2" class="node">
<title>Node2</title>
<g id="a_node2"><a xlink:href="classv8_1_1internal_1_1ExpressionParsingScope.html#acdedccc7e862c697b36b3b142fffe677" target="_top" xlink:title=" ">
<polygon fill="white" stroke="black" points="443,-31 443,-61 574,-61 574,-31 443,-31"/>
<text text-anchor="start" x="451" y="-49" font-family="Helvetica,sans-Serif" font-size="10.00">v8::internal::Expression</text>
<text text-anchor="middle" x="508.5" y="-38" font-family="Helvetica,sans-Serif" font-size="10.00">ParsingScope::Validate</text>
</a>
</g>
</g>
<!-- Node1&#45;&gt;Node2 -->
<g id="edge1" class="edge">
<title>Node1&#45;&gt;Node2</title>
<path fill="none" stroke="midnightblue" d="M599.75,-34.78C591.09,-35.86 582.4,-36.94 574.03,-37.98"/>
<polygon fill="midnightblue" stroke="midnightblue" points="600.4,-38.23 609.89,-33.52 599.54,-31.28 600.4,-38.23"/>
</g>
<!-- Node1730 -->
<g id="node5" class="node">
<title>Node1730</title>
<g id="a_node5"><a xlink:href="classv8_1_1internal_1_1ExpressionParsingScope.html#a940ca593812fcc6303ba0474f136de23" target="_top" xlink:title=" ">
<polygon fill="white" stroke="black" points="4,-0.5 4,-41.5 187,-41.5 187,-0.5 4,-0.5"/>
<text text-anchor="start" x="12" y="-29.5" font-family="Helvetica,sans-Serif" font-size="10.00">v8::internal::Expression</text>
<text text-anchor="start" x="12" y="-18.5" font-family="Helvetica,sans-Serif" font-size="10.00">ParsingScope::ValidateAndRewrite</text>
<text text-anchor="middle" x="95.5" y="-7.5" font-family="Helvetica,sans-Serif" font-size="10.00">Reference</text>
</a>
</g>
</g>
<!-- Node1&#45;&gt;Node1730 -->
<g id="edge7" class="edge">
<title>Node1&#45;&gt;Node1730</title>
<path fill="none" stroke="midnightblue" d="M599.76,-21.46C591.06,-21.27 582.35,-21.11 574,-21 439.3,-19.2 283.21,-19.69 187.16,-20.28"/>
<polygon fill="midnightblue" stroke="midnightblue" points="599.88,-24.96 609.95,-21.68 600.03,-17.96 599.88,-24.96"/>
</g>
<!-- Node3 -->
<g id="node3" class="node">
<title>Node3</title>
<g id="a_node3"><a xlink:href="classv8_1_1internal_1_1ExpressionParsingScope.html#a0ba221e0a4196b747e1a25eb9d00dfab" target="_top" xlink:title=" ">
<polygon fill="white" stroke="black" points="227,-80 227,-110 407,-110 407,-80 227,-80"/>
<text text-anchor="start" x="235" y="-98" font-family="Helvetica,sans-Serif" font-size="10.00">v8::internal::Expression</text>
<text text-anchor="middle" x="317" y="-87" font-family="Helvetica,sans-Serif" font-size="10.00">ParsingScope::ValidateExpression</text>
</a>
</g>
</g>
<!-- Node2&#45;&gt;Node3 -->
<g id="edge2" class="edge">
<title>Node2&#45;&gt;Node3</title>
<path fill="none" stroke="midnightblue" d="M439.63,-63.55C418.82,-68.93 396.12,-74.8 376.03,-79.99"/>
<polygon fill="midnightblue" stroke="midnightblue" points="440.55,-66.93 449.36,-61.03 438.8,-60.15 440.55,-66.93"/>
</g>
<!-- Node1732 -->
<g id="node7" class="node">
<title>Node1732</title>
<g id="a_node7"><a xlink:href="classv8_1_1internal_1_1ExpressionParsingScope.html#af9b0b7c984f7fa6f83c3eeb6900b3e2f" target="_top" xlink:title=" ">
<polygon fill="white" stroke="black" points="236.5,-31 236.5,-61 397.5,-61 397.5,-31 236.5,-31"/>
<text text-anchor="start" x="244.5" y="-49" font-family="Helvetica,sans-Serif" font-size="10.00">v8::internal::Expression</text>
<text text-anchor="middle" x="317" y="-38" font-family="Helvetica,sans-Serif" font-size="10.00">ParsingScope::ValidatePattern</text>
</a>
</g>
</g>
<!-- Node2&#45;&gt;Node1732 -->
<g id="edge6" class="edge">
<title>Node2&#45;&gt;Node1732</title>
<path fill="none" stroke="midnightblue" d="M432.49,-46C421.09,-46 409.3,-46 397.81,-46"/>
<polygon fill="midnightblue" stroke="midnightblue" points="432.81,-49.5 442.81,-46 432.81,-42.5 432.81,-49.5"/>
</g>
<!-- Node4 -->
<g id="node4" class="node">
<title>Node4</title>
<g id="a_node4"><a xlink:href="classv8_1_1internal_1_1Parser.html#ab1a69bda50cbf7bcd648a868e1a976d7" target="_top" xlink:title=" ">
<polygon fill="white" stroke="red" points="0,-119 0,-149 191,-149 191,-119 0,-119"/>
<text text-anchor="start" x="8" y="-137" font-family="Helvetica,sans-Serif" font-size="10.00">v8::internal::Parser</text>
<text text-anchor="middle" x="95.5" y="-126" font-family="Helvetica,sans-Serif" font-size="10.00">::ParseClassForMemberInitialization</text>
</a>
</g>
</g>
<!-- Node3&#45;&gt;Node4 -->
<g id="edge3" class="edge">
<title>Node3&#45;&gt;Node4</title>
<path fill="none" stroke="midnightblue" d="M221.28,-111.83C207.89,-114.21 194.19,-116.64 181.01,-118.99"/>
<polygon fill="midnightblue" stroke="midnightblue" points="222.22,-115.22 231.45,-110.02 220.99,-108.33 222.22,-115.22"/>
</g>
<!-- Node3&#45;&gt;Node1730 -->
<g id="edge4" class="edge">
<title>Node3&#45;&gt;Node1730</title>
<path fill="none" stroke="midnightblue" d="M249.96,-77.13C242.19,-74.83 234.4,-72.42 227,-70 200.78,-61.41 172.04,-50.76 148.21,-41.58"/>
<polygon fill="midnightblue" stroke="midnightblue" points="249.18,-80.55 259.76,-79.99 251.14,-73.83 249.18,-80.55"/>
</g>
<!-- Node1731 -->
<g id="node6" class="node">
<title>Node1731</title>
<g id="a_node6"><a xlink:href="classv8_1_1internal_1_1ArrowHeadParsingScope.html#ae47572507973b4f6701bb6357191b6e4" target="_top" xlink:title=" ">
<polygon fill="white" stroke="black" points="12,-70 12,-100 179,-100 179,-70 12,-70"/>
<text text-anchor="start" x="20" y="-88" font-family="Helvetica,sans-Serif" font-size="10.00">v8::internal::ArrowHeadParsing</text>
<text text-anchor="middle" x="95.5" y="-77" font-family="Helvetica,sans-Serif" font-size="10.00">Scope::ValidateExpression</text>
</a>
</g>
</g>
<!-- Node3&#45;&gt;Node1731 -->
<g id="edge5" class="edge">
<title>Node3&#45;&gt;Node1731</title>
<path fill="none" stroke="midnightblue" d="M216.37,-90.46C203.98,-89.9 191.42,-89.32 179.33,-88.77"/>
<polygon fill="midnightblue" stroke="midnightblue" points="216.57,-93.97 226.72,-90.93 216.89,-86.98 216.57,-93.97"/>
</g>
</g>
</svg>
        <g id="navigator" transform="translate(0 0)" fill="#404254">
                <rect fill="#f2f5e9" fill-opacity="0.5" stroke="#606060" stroke-width=".5" x="0" y="0" width="60" height="60"/>
                <use id="zoomplus" xlink:href="#zoomPlus" x="17" y="9" onmousedown="handleZoom(evt,'in')"/>
                <use id="zoomminus" xlink:href="#zoomMin" x="42" y="9" onmousedown="handleZoom(evt,'out')"/>
                <use id="reset" xlink:href="#resetDef" x="30" y="36" onmousedown="handleReset()"/>
                <g id="arrowUp" xlink:href="#dirArrow" transform="translate(30 24)" onmousedown="handlePan(0,-1)">
                  <use xlink:href="#rim" fill="#404040">
                        <set attributeName="fill" to="#808080" begin="arrowUp.mouseover" end="arrowUp.mouseout"/>
                  </use>
                  <path fill="none" stroke="white" stroke-width="1.5" d="M0,-3.0v7 M-2.5,-0.5L0,-3.0L2.5,-0.5"/>
                </g>
                <g id="arrowRight" xlink:href="#dirArrow" transform="rotate(90) translate(36 -43)" onmousedown="handlePan(1,0)">
                  <use xlink:href="#rim" fill="#404040">
                        <set attributeName="fill" to="#808080" begin="arrowRight.mouseover" end="arrowRight.mouseout"/>
                  </use>
                  <path fill="none" stroke="white" stroke-width="1.5" d="M0,-3.0v7 M-2.5,-0.5L0,-3.0L2.5,-0.5"/>
                </g>
                <g id="arrowDown" xlink:href="#dirArrow" transform="rotate(180) translate(-30 -48)" onmousedown="handlePan(0,1)">
                  <use xlink:href="#rim" fill="#404040">
                        <set attributeName="fill" to="#808080" begin="arrowDown.mouseover" end="arrowDown.mouseout"/>
                  </use>
                  <path fill="none" stroke="white" stroke-width="1.5" d="M0,-3.0v7 M-2.5,-0.5L0,-3.0L2.5,-0.5"/>
                </g>
                <g id="arrowLeft" xlink:href="#dirArrow" transform="rotate(270) translate(-36 17)" onmousedown="handlePan(-1,0)">
                  <use xlink:href="#rim" fill="#404040">
                        <set attributeName="fill" to="#808080" begin="arrowLeft.mouseover" end="arrowLeft.mouseout"/>
                  </use>
                  <path fill="none" stroke="white" stroke-width="1.5" d="M0,-3.0v7 M-2.5,-0.5L0,-3.0L2.5,-0.5"/>
                </g>
        </g>
        <svg viewBox="0 0 15 15" width="100%" height="30px" preserveAspectRatio="xMaxYMin meet">
         <g id="arrow_out" transform="scale(0.3 0.3)">
          <a xlink:href="classv8_1_1internal_1_1ExpressionParsingScope_a5e2aa75086ccb9b7c0c3059fcd20b0fc_icgraph_org.svg" target="_base">
           <rect id="button" ry="5" rx="5" y="6" x="6" height="38" width="38"
                fill="#f2f5e9" fill-opacity="0.5" stroke="#606060" stroke-width="1.0"/>
           <path id="arrow"
             d="M 11.500037,31.436501 C 11.940474,20.09759 22.043105,11.32322 32.158766,21.979434 L 37.068811,17.246167 C 37.068811,17.246167 37.088388,32 37.088388,32 L 22.160133,31.978069 C 22.160133,31.978069 26.997745,27.140456 26.997745,27.140456 C 18.528582,18.264221 13.291696,25.230495 11.500037,31.436501 z"
             style="fill:#404040;"/>
          </a>
         </g>
        </svg>
</svg>
