<?xml version="1.0" encoding="UTF-8" standalone="no"?>
<!DOCTYPE svg PUBLIC "-//W3C//DTD SVG 1.1//EN"
 "http://www.w3.org/Graphics/SVG/1.1/DTD/svg11.dtd">
<!-- Generated by graphviz version 2.43.0 (0)
 -->
<!-- Title: heap::base::BasicSlotSet::num_buckets Pages: 1 -->
<svg width="690pt" height="296pt"
 viewBox="0.00 0.00 690.00 296.00" xmlns="http://www.w3.org/2000/svg" xmlns:xlink="http://www.w3.org/1999/xlink">
<g id="graph0" class="graph" transform="scale(1 1) rotate(0) translate(4 292)">
<title>heap::base::BasicSlotSet::num_buckets</title>
<polygon fill="white" stroke="transparent" points="-4,4 -4,-292 686,-292 686,4 -4,4"/>
<!-- Node1 -->
<g id="node1" class="node">
<title>Node1</title>
<g id="a_node1"><a xlink:title=" ">
<polygon fill="#bfbfbf" stroke="black" points="545,-208.5 545,-238.5 682,-238.5 682,-208.5 545,-208.5"/>
<text text-anchor="start" x="553" y="-226.5" font-family="Helvetica,sans-Serif" font-size="10.00">heap::base::BasicSlotSet</text>
<text text-anchor="middle" x="613.5" y="-215.5" font-family="Helvetica,sans-Serif" font-size="10.00">::num_buckets</text>
</a>
</g>
</g>
<!-- Node2 -->
<g id="node2" class="node">
<title>Node2</title>
<g id="a_node2"><a xlink:href="classheap_1_1base_1_1BasicSlotSet.html#a2e6f0bbad6a96be97194b6fb3afacb40" target="_top" xlink:title=" ">
<polygon fill="white" stroke="black" points="372,-257.5 372,-287.5 509,-287.5 509,-257.5 372,-257.5"/>
<text text-anchor="start" x="380" y="-275.5" font-family="Helvetica,sans-Serif" font-size="10.00">heap::base::BasicSlotSet</text>
<text text-anchor="middle" x="440.5" y="-264.5" font-family="Helvetica,sans-Serif" font-size="10.00">::Delete</text>
</a>
</g>
</g>
<!-- Node1&#45;&gt;Node2 -->
<g id="edge1" class="edge">
<title>Node1&#45;&gt;Node2</title>
<path fill="none" stroke="midnightblue" d="M550.05,-241.39C531.66,-246.66 511.73,-252.38 494.03,-257.45"/>
<polygon fill="midnightblue" stroke="midnightblue" points="551.15,-244.72 559.8,-238.6 549.22,-237.99 551.15,-244.72"/>
</g>
<!-- Node3 -->
<g id="node3" class="node">
<title>Node3</title>
<g id="a_node3"><a xlink:href="classheap_1_1base_1_1BasicSlotSet.html#a9f20362a64064ef31111de3a51a3475a" target="_top" xlink:title=" ">
<polygon fill="white" stroke="black" points="372,-208.5 372,-238.5 509,-238.5 509,-208.5 372,-208.5"/>
<text text-anchor="start" x="380" y="-226.5" font-family="Helvetica,sans-Serif" font-size="10.00">heap::base::BasicSlotSet</text>
<text text-anchor="middle" x="440.5" y="-215.5" font-family="Helvetica,sans-Serif" font-size="10.00">::set_num_buckets</text>
</a>
</g>
</g>
<!-- Node1&#45;&gt;Node3 -->
<g id="edge2" class="edge">
<title>Node1&#45;&gt;Node3</title>
<path fill="none" stroke="midnightblue" d="M534.9,-223.5C526.31,-223.5 517.61,-223.5 509.15,-223.5"/>
<polygon fill="midnightblue" stroke="midnightblue" points="534.92,-227 544.92,-223.5 534.92,-220 534.92,-227"/>
</g>
<!-- Node5 -->
<g id="node5" class="node">
<title>Node5</title>
<g id="a_node5"><a xlink:href="classheap_1_1base_1_1BasicSlotSet.html#aa694821eee61c56486c071db09034ded" target="_top" xlink:title=" ">
<polygon fill="white" stroke="black" points="372,-122.5 372,-152.5 509,-152.5 509,-122.5 372,-122.5"/>
<text text-anchor="start" x="380" y="-140.5" font-family="Helvetica,sans-Serif" font-size="10.00">heap::base::BasicSlotSet</text>
<text text-anchor="middle" x="440.5" y="-129.5" font-family="Helvetica,sans-Serif" font-size="10.00">::SlotToIndices</text>
</a>
</g>
</g>
<!-- Node1&#45;&gt;Node5 -->
<g id="edge4" class="edge">
<title>Node1&#45;&gt;Node5</title>
<path fill="none" stroke="midnightblue" d="M573.1,-203.69C542.12,-188.1 499.6,-166.72 471.38,-152.53"/>
<polygon fill="midnightblue" stroke="midnightblue" points="571.82,-206.96 582.32,-208.32 574.96,-200.7 571.82,-206.96"/>
</g>
<!-- Node4 -->
<g id="node4" class="node">
<title>Node4</title>
<g id="a_node4"><a xlink:href="classheap_1_1base_1_1BasicSlotSet.html#a22776148d3db2a32eee96d3a9933a25f" target="_top" xlink:title=" ">
<polygon fill="white" stroke="black" points="199,-245.5 199,-275.5 336,-275.5 336,-245.5 199,-245.5"/>
<text text-anchor="start" x="207" y="-263.5" font-family="Helvetica,sans-Serif" font-size="10.00">heap::base::BasicSlotSet</text>
<text text-anchor="middle" x="267.5" y="-252.5" font-family="Helvetica,sans-Serif" font-size="10.00">::Allocate</text>
</a>
</g>
</g>
<!-- Node3&#45;&gt;Node4 -->
<g id="edge3" class="edge">
<title>Node3&#45;&gt;Node4</title>
<path fill="none" stroke="midnightblue" d="M361.9,-240.29C353.31,-242.15 344.61,-244.03 336.15,-245.86"/>
<polygon fill="midnightblue" stroke="midnightblue" points="362.88,-243.66 371.92,-238.12 361.4,-236.82 362.88,-243.66"/>
</g>
<!-- Node6 -->
<g id="node6" class="node">
<title>Node6</title>
<g id="a_node6"><a xlink:href="classheap_1_1base_1_1BasicSlotSet.html#ad4b03aeb7da6857c2ec180a796b98ff0" target="_top" xlink:title=" ">
<polygon fill="white" stroke="black" points="199,-196.5 199,-226.5 336,-226.5 336,-196.5 199,-196.5"/>
<text text-anchor="start" x="207" y="-214.5" font-family="Helvetica,sans-Serif" font-size="10.00">heap::base::BasicSlotSet</text>
<text text-anchor="middle" x="267.5" y="-203.5" font-family="Helvetica,sans-Serif" font-size="10.00">::Contains</text>
</a>
</g>
</g>
<!-- Node5&#45;&gt;Node6 -->
<g id="edge5" class="edge">
<title>Node5&#45;&gt;Node6</title>
<path fill="none" stroke="midnightblue" d="M401.35,-157.16C382,-166.81 357.99,-178.31 336,-187.5 328.66,-190.57 320.76,-193.6 313.06,-196.43"/>
<polygon fill="midnightblue" stroke="midnightblue" points="403.08,-160.2 410.44,-152.58 399.94,-153.95 403.08,-160.2"/>
</g>
<!-- Node8 -->
<g id="node8" class="node">
<title>Node8</title>
<g id="a_node8"><a xlink:href="classheap_1_1base_1_1BasicSlotSet.html#a6c430f384d614fb8c6d03bf39ba83112" target="_top" xlink:title=" ">
<polygon fill="white" stroke="black" points="199,-147.5 199,-177.5 336,-177.5 336,-147.5 199,-147.5"/>
<text text-anchor="start" x="207" y="-165.5" font-family="Helvetica,sans-Serif" font-size="10.00">heap::base::BasicSlotSet</text>
<text text-anchor="middle" x="267.5" y="-154.5" font-family="Helvetica,sans-Serif" font-size="10.00">::Insert</text>
</a>
</g>
</g>
<!-- Node5&#45;&gt;Node8 -->
<g id="edge7" class="edge">
<title>Node5&#45;&gt;Node8</title>
<path fill="none" stroke="midnightblue" d="M361.9,-148.85C353.31,-150.1 344.61,-151.37 336.15,-152.61"/>
<polygon fill="midnightblue" stroke="midnightblue" points="362.53,-152.29 371.92,-147.38 361.52,-145.36 362.53,-152.29"/>
</g>
<!-- Node10 -->
<g id="node10" class="node">
<title>Node10</title>
<g id="a_node10"><a xlink:href="classheap_1_1base_1_1BasicSlotSet.html#a0a23d8b2e0859c85d85eb60459503494" target="_top" xlink:title=" ">
<polygon fill="white" stroke="black" points="199,-98.5 199,-128.5 336,-128.5 336,-98.5 199,-98.5"/>
<text text-anchor="start" x="207" y="-116.5" font-family="Helvetica,sans-Serif" font-size="10.00">heap::base::BasicSlotSet</text>
<text text-anchor="middle" x="267.5" y="-105.5" font-family="Helvetica,sans-Serif" font-size="10.00">::Lookup</text>
</a>
</g>
</g>
<!-- Node5&#45;&gt;Node10 -->
<g id="edge9" class="edge">
<title>Node5&#45;&gt;Node10</title>
<path fill="none" stroke="midnightblue" d="M361.9,-126.61C353.31,-125.4 344.61,-124.18 336.15,-123"/>
<polygon fill="midnightblue" stroke="midnightblue" points="361.53,-130.09 371.92,-128.01 362.5,-123.16 361.53,-130.09"/>
</g>
<!-- Node11 -->
<g id="node11" class="node">
<title>Node11</title>
<g id="a_node11"><a xlink:href="classheap_1_1base_1_1BasicSlotSet.html#aefc31a3f30364e39986f0af557809e9a" target="_top" xlink:title=" ">
<polygon fill="white" stroke="black" points="199,-49.5 199,-79.5 336,-79.5 336,-49.5 199,-49.5"/>
<text text-anchor="start" x="207" y="-67.5" font-family="Helvetica,sans-Serif" font-size="10.00">heap::base::BasicSlotSet</text>
<text text-anchor="middle" x="267.5" y="-56.5" font-family="Helvetica,sans-Serif" font-size="10.00">::Remove</text>
</a>
</g>
</g>
<!-- Node5&#45;&gt;Node11 -->
<g id="edge10" class="edge">
<title>Node5&#45;&gt;Node11</title>
<path fill="none" stroke="midnightblue" d="M399.27,-117.94C380.25,-108.92 357.12,-98.29 336,-89.5 327.92,-86.14 319.22,-82.75 310.83,-79.59"/>
<polygon fill="midnightblue" stroke="midnightblue" points="398,-121.21 408.54,-122.35 401.02,-114.89 398,-121.21"/>
</g>
<!-- Node14 -->
<g id="node13" class="node">
<title>Node14</title>
<g id="a_node13"><a xlink:href="classheap_1_1base_1_1BasicSlotSet.html#a86707289b8d767d8d835b8baa929e3cf" target="_top" xlink:title=" ">
<polygon fill="white" stroke="black" points="199,-0.5 199,-30.5 336,-30.5 336,-0.5 199,-0.5"/>
<text text-anchor="start" x="207" y="-18.5" font-family="Helvetica,sans-Serif" font-size="10.00">heap::base::BasicSlotSet</text>
<text text-anchor="middle" x="267.5" y="-7.5" font-family="Helvetica,sans-Serif" font-size="10.00">::RemoveRange</text>
</a>
</g>
</g>
<!-- Node5&#45;&gt;Node14 -->
<g id="edge12" class="edge">
<title>Node5&#45;&gt;Node14</title>
<path fill="none" stroke="midnightblue" d="M420.1,-114.67C400.7,-93.05 369.06,-60.94 336,-40.5 329.94,-36.75 323.23,-33.44 316.47,-30.54"/>
<polygon fill="midnightblue" stroke="midnightblue" points="417.67,-117.21 426.91,-122.39 422.92,-112.58 417.67,-117.21"/>
</g>
<!-- Node7 -->
<g id="node7" class="node">
<title>Node7</title>
<g id="a_node7"><a xlink:href="classv8_1_1internal_1_1RememberedSet.html#aab1bb39b9878a7e4fa8c021935be4b59" target="_top" xlink:title=" ">
<polygon fill="white" stroke="black" points="9.5,-196.5 9.5,-226.5 153.5,-226.5 153.5,-196.5 9.5,-196.5"/>
<text text-anchor="start" x="17.5" y="-214.5" font-family="Helvetica,sans-Serif" font-size="10.00">v8::internal::Remembered</text>
<text text-anchor="middle" x="81.5" y="-203.5" font-family="Helvetica,sans-Serif" font-size="10.00">Set::Contains</text>
</a>
</g>
</g>
<!-- Node6&#45;&gt;Node7 -->
<g id="edge6" class="edge">
<title>Node6&#45;&gt;Node7</title>
<path fill="none" stroke="midnightblue" d="M188.69,-211.5C177.11,-211.5 165.23,-211.5 153.79,-211.5"/>
<polygon fill="midnightblue" stroke="midnightblue" points="188.77,-215 198.77,-211.5 188.77,-208 188.77,-215"/>
</g>
<!-- Node9 -->
<g id="node9" class="node">
<title>Node9</title>
<g id="a_node9"><a xlink:href="classv8_1_1internal_1_1RememberedSetOperations.html#a745cc36ddd1740a32833fbc20280b127" target="_top" xlink:title=" ">
<polygon fill="white" stroke="black" points="9.5,-147.5 9.5,-177.5 153.5,-177.5 153.5,-147.5 9.5,-147.5"/>
<text text-anchor="start" x="17.5" y="-165.5" font-family="Helvetica,sans-Serif" font-size="10.00">v8::internal::Remembered</text>
<text text-anchor="middle" x="81.5" y="-154.5" font-family="Helvetica,sans-Serif" font-size="10.00">SetOperations::Insert</text>
</a>
</g>
</g>
<!-- Node8&#45;&gt;Node9 -->
<g id="edge8" class="edge">
<title>Node8&#45;&gt;Node9</title>
<path fill="none" stroke="midnightblue" d="M188.69,-162.5C177.11,-162.5 165.23,-162.5 153.79,-162.5"/>
<polygon fill="midnightblue" stroke="midnightblue" points="188.77,-166 198.77,-162.5 188.77,-159 188.77,-166"/>
</g>
<!-- Node12 -->
<g id="node12" class="node">
<title>Node12</title>
<g id="a_node12"><a xlink:href="classv8_1_1internal_1_1RememberedSetOperations.html#a1d97d8fd4f1509dfdc742967dca8232e" target="_top" xlink:title=" ">
<polygon fill="white" stroke="red" points="9.5,-49.5 9.5,-79.5 153.5,-79.5 153.5,-49.5 9.5,-49.5"/>
<text text-anchor="start" x="17.5" y="-67.5" font-family="Helvetica,sans-Serif" font-size="10.00">v8::internal::Remembered</text>
<text text-anchor="middle" x="81.5" y="-56.5" font-family="Helvetica,sans-Serif" font-size="10.00">SetOperations::Remove</text>
</a>
</g>
</g>
<!-- Node11&#45;&gt;Node12 -->
<g id="edge11" class="edge">
<title>Node11&#45;&gt;Node12</title>
<path fill="none" stroke="midnightblue" d="M188.69,-64.5C177.11,-64.5 165.23,-64.5 153.79,-64.5"/>
<polygon fill="midnightblue" stroke="midnightblue" points="188.77,-68 198.77,-64.5 188.77,-61 188.77,-68"/>
</g>
<!-- Node15 -->
<g id="node14" class="node">
<title>Node15</title>
<g id="a_node14"><a xlink:href="classv8_1_1internal_1_1RememberedSetOperations.html#a8decb078f165c6529f81b2f7d1959612" target="_top" xlink:title=" ">
<polygon fill="white" stroke="red" points="0,-0.5 0,-30.5 163,-30.5 163,-0.5 0,-0.5"/>
<text text-anchor="start" x="8" y="-18.5" font-family="Helvetica,sans-Serif" font-size="10.00">v8::internal::Remembered</text>
<text text-anchor="middle" x="81.5" y="-7.5" font-family="Helvetica,sans-Serif" font-size="10.00">SetOperations::RemoveRange</text>
</a>
</g>
</g>
<!-- Node14&#45;&gt;Node15 -->
<g id="edge13" class="edge">
<title>Node14&#45;&gt;Node15</title>
<path fill="none" stroke="midnightblue" d="M188.61,-15.5C180.2,-15.5 171.63,-15.5 163.18,-15.5"/>
<polygon fill="midnightblue" stroke="midnightblue" points="188.77,-19 198.77,-15.5 188.77,-12 188.77,-19"/>
</g>
</g>
</svg>
