<?xml version="1.0" encoding="UTF-8" standalone="no"?>
<!DOCTYPE svg PUBLIC "-//W3C//DTD SVG 1.1//EN"
 "http://www.w3.org/Graphics/SVG/1.1/DTD/svg11.dtd">
<!-- Generated by graphviz version 2.43.0 (0)
 -->
<!-- Title: v8::internal::TranslatedState::Prepare Pages: 1 -->
<svg width="962pt" height="429pt"
 viewBox="0.00 0.00 962.00 429.00" xmlns="http://www.w3.org/2000/svg" xmlns:xlink="http://www.w3.org/1999/xlink">
<g id="graph0" class="graph" transform="scale(1 1) rotate(0) translate(4 425)">
<title>v8::internal::TranslatedState::Prepare</title>
<polygon fill="white" stroke="transparent" points="-4,4 -4,-425 958,-425 958,4 -4,4"/>
<!-- Node1 -->
<g id="node1" class="node">
<title>Node1</title>
<g id="a_node1"><a xlink:title=" ">
<polygon fill="#bfbfbf" stroke="black" points="0,-242.5 0,-272.5 128,-272.5 128,-242.5 0,-242.5"/>
<text text-anchor="start" x="8" y="-260.5" font-family="Helvetica,sans-Serif" font-size="10.00">v8::internal::Translated</text>
<text text-anchor="middle" x="64" y="-249.5" font-family="Helvetica,sans-Serif" font-size="10.00">State::Prepare</text>
</a>
</g>
</g>
<!-- Node2 -->
<g id="node2" class="node">
<title>Node2</title>
<g id="a_node2"><a xlink:href="namespacev8_1_1internal.html#a8c89f00da07e125218128b9fbf0a321c" target="_top" xlink:title=" ">
<polygon fill="white" stroke="black" points="218.5,-292 218.5,-311 329.5,-311 329.5,-292 218.5,-292"/>
<text text-anchor="middle" x="274" y="-299" font-family="Helvetica,sans-Serif" font-size="10.00">v8::internal::handle</text>
</a>
</g>
</g>
<!-- Node1&#45;&gt;Node2 -->
<g id="edge1" class="edge">
<title>Node1&#45;&gt;Node2</title>
<path fill="none" stroke="midnightblue" d="M121.37,-272.51C135.26,-275.99 150.13,-279.54 164,-282.5 178.27,-285.54 193.67,-288.45 208.27,-291.04"/>
<polygon fill="midnightblue" stroke="midnightblue" points="207.78,-294.51 218.23,-292.78 208.98,-287.61 207.78,-294.51"/>
</g>
<!-- Node3 -->
<g id="node3" class="node">
<title>Node3</title>
<g id="a_node3"><a xlink:href="classv8_1_1internal_1_1TranslatedState.html#a3f7e0c9a867318e6ca1277a882667027" target="_top" xlink:title=" ">
<polygon fill="white" stroke="black" points="210,-242.5 210,-272.5 338,-272.5 338,-242.5 210,-242.5"/>
<text text-anchor="start" x="218" y="-260.5" font-family="Helvetica,sans-Serif" font-size="10.00">v8::internal::Translated</text>
<text text-anchor="middle" x="274" y="-249.5" font-family="Helvetica,sans-Serif" font-size="10.00">State::isolate</text>
</a>
</g>
</g>
<!-- Node1&#45;&gt;Node3 -->
<g id="edge2" class="edge">
<title>Node1&#45;&gt;Node3</title>
<path fill="none" stroke="midnightblue" d="M128.25,-257.5C150.74,-257.5 176.25,-257.5 199.52,-257.5"/>
<polygon fill="midnightblue" stroke="midnightblue" points="199.69,-261 209.69,-257.5 199.69,-254 199.69,-261"/>
</g>
<!-- Node4 -->
<g id="node4" class="node">
<title>Node4</title>
<g id="a_node4"><a xlink:href="classv8_1_1internal_1_1TranslatedState.html#ae13d5635d69b456e74ae98754671e404" target="_top" xlink:title=" ">
<polygon fill="white" stroke="black" points="164,-182 164,-223 384,-223 384,-182 164,-182"/>
<text text-anchor="start" x="172" y="-211" font-family="Helvetica,sans-Serif" font-size="10.00">v8::internal::Translated</text>
<text text-anchor="start" x="172" y="-200" font-family="Helvetica,sans-Serif" font-size="10.00">State::UpdateFromPreviouslyMaterialized</text>
<text text-anchor="middle" x="274" y="-189" font-family="Helvetica,sans-Serif" font-size="10.00">Objects</text>
</a>
</g>
</g>
<!-- Node1&#45;&gt;Node4 -->
<g id="edge3" class="edge">
<title>Node1&#45;&gt;Node4</title>
<path fill="none" stroke="midnightblue" d="M121.84,-242.47C141.45,-237.29 163.9,-231.35 185.39,-225.67"/>
<polygon fill="midnightblue" stroke="midnightblue" points="186.41,-229.02 195.18,-223.08 184.62,-222.25 186.41,-229.02"/>
</g>
<!-- Node5 -->
<g id="node5" class="node">
<title>Node5</title>
<g id="a_node5"><a xlink:href="classv8_1_1internal_1_1Isolate.html#a7e2962359009581ba84e6a361f574f61" target="_top" xlink:title=" ">
<polygon fill="white" stroke="black" points="439.5,-351.5 439.5,-381.5 550.5,-381.5 550.5,-351.5 439.5,-351.5"/>
<text text-anchor="start" x="447.5" y="-369.5" font-family="Helvetica,sans-Serif" font-size="10.00">v8::internal::Isolate</text>
<text text-anchor="middle" x="495" y="-358.5" font-family="Helvetica,sans-Serif" font-size="10.00">::factory</text>
</a>
</g>
</g>
<!-- Node4&#45;&gt;Node5 -->
<g id="edge4" class="edge">
<title>Node4&#45;&gt;Node5</title>
<path fill="none" stroke="midnightblue" d="M370.41,-223.08C375.3,-226.1 379.88,-229.55 384,-233.5 420.82,-268.81 383.83,-306.52 420,-342.5 423.07,-345.55 426.53,-348.22 430.24,-350.55"/>
<polygon fill="midnightblue" stroke="midnightblue" points="428.8,-353.74 439.27,-355.38 432.1,-347.57 428.8,-353.74"/>
</g>
<!-- Node6 -->
<g id="node6" class="node">
<title>Node6</title>
<g id="a_node6"><a xlink:href="classv8_1_1internal_1_1MaterializedObjectStore.html#a8436547aef10744b8ac6230e7c6e0a46" target="_top" xlink:title=" ">
<polygon fill="white" stroke="black" points="425.5,-302.5 425.5,-332.5 564.5,-332.5 564.5,-302.5 425.5,-302.5"/>
<text text-anchor="start" x="433.5" y="-320.5" font-family="Helvetica,sans-Serif" font-size="10.00">v8::internal::Materialized</text>
<text text-anchor="middle" x="495" y="-309.5" font-family="Helvetica,sans-Serif" font-size="10.00">ObjectStore::Get</text>
</a>
</g>
</g>
<!-- Node4&#45;&gt;Node6 -->
<g id="edge5" class="edge">
<title>Node4&#45;&gt;Node6</title>
<path fill="none" stroke="midnightblue" d="M367.3,-223.1C373.21,-226.11 378.85,-229.55 384,-233.5 408.69,-252.41 395.66,-274.14 420,-293.5 421.76,-294.9 423.61,-296.22 425.52,-297.46"/>
<polygon fill="midnightblue" stroke="midnightblue" points="423.83,-300.53 434.26,-302.44 427.3,-294.45 423.83,-300.53"/>
</g>
<!-- Node12 -->
<g id="node11" class="node">
<title>Node12</title>
<g id="a_node11"><a xlink:href="classv8_1_1internal_1_1DirectHandle.html#a5c266d7537e00f9125f055cfd0bac808" target="_top" xlink:title=" ">
<polygon fill="white" stroke="black" points="424,-253.5 424,-283.5 566,-283.5 566,-253.5 424,-253.5"/>
<text text-anchor="start" x="432" y="-271.5" font-family="Helvetica,sans-Serif" font-size="10.00">v8::internal::DirectHandle</text>
<text text-anchor="middle" x="495" y="-260.5" font-family="Helvetica,sans-Serif" font-size="10.00">::is_null</text>
</a>
</g>
</g>
<!-- Node4&#45;&gt;Node12 -->
<g id="edge11" class="edge">
<title>Node4&#45;&gt;Node12</title>
<path fill="none" stroke="midnightblue" d="M348.38,-223.03C360.31,-226.47 372.51,-230.04 384,-233.5 401.56,-238.79 420.63,-244.77 437.88,-250.28"/>
<polygon fill="midnightblue" stroke="midnightblue" points="437.21,-253.74 447.8,-253.45 439.35,-247.07 437.21,-253.74"/>
</g>
<!-- Node13 -->
<g id="node12" class="node">
<title>Node13</title>
<g id="a_node12"><a xlink:href="namespacev8_1_1internal.html#a0786c89c1004cb964dc034b138b263fd" target="_top" xlink:title=" ">
<polygon fill="white" stroke="black" points="423.5,-215 423.5,-234 566.5,-234 566.5,-215 423.5,-215"/>
<text text-anchor="middle" x="495" y="-222" font-family="Helvetica,sans-Serif" font-size="10.00">v8::internal::IsHeapObject</text>
</a>
</g>
</g>
<!-- Node4&#45;&gt;Node13 -->
<g id="edge12" class="edge">
<title>Node4&#45;&gt;Node13</title>
<path fill="none" stroke="midnightblue" d="M384.18,-213.47C393.94,-214.45 403.7,-215.43 413.15,-216.38"/>
<polygon fill="midnightblue" stroke="midnightblue" points="412.97,-219.88 423.27,-217.39 413.67,-212.91 412.97,-219.88"/>
</g>
<!-- Node18 -->
<g id="node14" class="node">
<title>Node18</title>
<g id="a_node14"><a xlink:href="classv8_1_1internal_1_1TranslatedValue.html#abc632f5fb2d00e9b3252769e8cdd1ccc" target="_top" xlink:title=" ">
<polygon fill="white" stroke="black" points="420,-165.5 420,-195.5 570,-195.5 570,-165.5 420,-165.5"/>
<text text-anchor="start" x="428" y="-183.5" font-family="Helvetica,sans-Serif" font-size="10.00">v8::internal::Translated</text>
<text text-anchor="middle" x="495" y="-172.5" font-family="Helvetica,sans-Serif" font-size="10.00">Value::IsMaterializedObject</text>
</a>
</g>
</g>
<!-- Node4&#45;&gt;Node18 -->
<g id="edge14" class="edge">
<title>Node4&#45;&gt;Node18</title>
<path fill="none" stroke="midnightblue" d="M384.18,-191.53C392.79,-190.67 401.4,-189.8 409.8,-188.96"/>
<polygon fill="midnightblue" stroke="midnightblue" points="410.32,-192.42 419.92,-187.94 409.62,-185.46 410.32,-192.42"/>
</g>
<!-- Node19 -->
<g id="node15" class="node">
<title>Node19</title>
<g id="a_node15"><a xlink:href="classv8_1_1internal_1_1TranslatedValue.html#a1c452b9f26ef849a89bdfa960853274a" target="_top" xlink:title=" ">
<polygon fill="white" stroke="black" points="621,-138.5 621,-168.5 749,-168.5 749,-138.5 621,-138.5"/>
<text text-anchor="start" x="629" y="-156.5" font-family="Helvetica,sans-Serif" font-size="10.00">v8::internal::Translated</text>
<text text-anchor="middle" x="685" y="-145.5" font-family="Helvetica,sans-Serif" font-size="10.00">Value::kind</text>
</a>
</g>
</g>
<!-- Node4&#45;&gt;Node19 -->
<g id="edge16" class="edge">
<title>Node4&#45;&gt;Node19</title>
<path fill="none" stroke="midnightblue" d="M326.78,-181.96C354.05,-172.21 388.32,-161.59 420,-156.5 483.88,-146.24 557.58,-146.38 610.84,-148.57"/>
<polygon fill="midnightblue" stroke="midnightblue" points="610.73,-152.07 620.88,-149.02 611.05,-145.08 610.73,-152.07"/>
</g>
<!-- Node20 -->
<g id="node16" class="node">
<title>Node20</title>
<g id="a_node16"><a xlink:href="classv8_1_1internal_1_1Isolate.html#ae823722112d86aed4fe90a35c1d8f003" target="_top" xlink:title=" ">
<polygon fill="white" stroke="black" points="420.5,-77.5 420.5,-107.5 569.5,-107.5 569.5,-77.5 420.5,-77.5"/>
<text text-anchor="start" x="428.5" y="-95.5" font-family="Helvetica,sans-Serif" font-size="10.00">v8::internal::Isolate</text>
<text text-anchor="middle" x="495" y="-84.5" font-family="Helvetica,sans-Serif" font-size="10.00">::materialized_object_store</text>
</a>
</g>
</g>
<!-- Node4&#45;&gt;Node20 -->
<g id="edge17" class="edge">
<title>Node4&#45;&gt;Node20</title>
<path fill="none" stroke="midnightblue" d="M309.55,-181.91C338.55,-165 381.33,-140.93 420,-122.5 428,-118.69 436.62,-114.91 445.05,-111.38"/>
<polygon fill="midnightblue" stroke="midnightblue" points="446.53,-114.56 454.45,-107.52 443.87,-108.09 446.53,-114.56"/>
</g>
<!-- Node21 -->
<g id="node17" class="node">
<title>Node21</title>
<g id="a_node17"><a xlink:href="classv8_1_1internal_1_1TranslatedValue.html#a463f797e35bf67ed58a59055d1361757" target="_top" xlink:title=" ">
<polygon fill="white" stroke="black" points="431,-17 431,-58 559,-58 559,-17 431,-17"/>
<text text-anchor="start" x="439" y="-46" font-family="Helvetica,sans-Serif" font-size="10.00">v8::internal::Translated</text>
<text text-anchor="start" x="439" y="-35" font-family="Helvetica,sans-Serif" font-size="10.00">Value::set_initialized</text>
<text text-anchor="middle" x="495" y="-24" font-family="Helvetica,sans-Serif" font-size="10.00">_storage</text>
</a>
</g>
</g>
<!-- Node4&#45;&gt;Node21 -->
<g id="edge18" class="edge">
<title>Node4&#45;&gt;Node21</title>
<path fill="none" stroke="midnightblue" d="M292.8,-181.7C318.44,-152.82 368.37,-100.41 420,-67.5 422.6,-65.84 425.32,-64.24 428.1,-62.71"/>
<polygon fill="midnightblue" stroke="midnightblue" points="429.89,-65.72 437.17,-58.02 426.67,-59.5 429.89,-65.72"/>
</g>
<!-- Node7 -->
<g id="node7" class="node">
<title>Node7</title>
<g id="a_node7"><a xlink:href="classv8_1_1internal_1_1MaterializedObjectStore.html#a53ca59a717a6e9baf507ec8b02c04a2f" target="_top" xlink:title=" ">
<polygon fill="white" stroke="red" points="606,-390.5 606,-420.5 764,-420.5 764,-390.5 606,-390.5"/>
<text text-anchor="start" x="614" y="-408.5" font-family="Helvetica,sans-Serif" font-size="10.00">v8::internal::Materialized</text>
<text text-anchor="middle" x="685" y="-397.5" font-family="Helvetica,sans-Serif" font-size="10.00">ObjectStore::GetStackEntries</text>
</a>
</g>
</g>
<!-- Node6&#45;&gt;Node7 -->
<g id="edge6" class="edge">
<title>Node6&#45;&gt;Node7</title>
<path fill="none" stroke="midnightblue" d="M549.35,-332.51C556.5,-335.39 563.58,-338.7 570,-342.5 588.68,-353.55 587.55,-364.07 606,-375.5 612.59,-379.58 619.83,-383.27 627.16,-386.54"/>
<polygon fill="midnightblue" stroke="midnightblue" points="625.87,-389.8 636.45,-390.47 628.6,-383.35 625.87,-389.8"/>
</g>
<!-- Node9 -->
<g id="node8" class="node">
<title>Node9</title>
<g id="a_node8"><a xlink:href="classv8_1_1internal_1_1MaterializedObjectStore.html#af3e4e1c89e9ddb1f6bca6d6463aba76b" target="_top" xlink:title=" ">
<polygon fill="white" stroke="black" points="807.5,-368.5 807.5,-398.5 946.5,-398.5 946.5,-368.5 807.5,-368.5"/>
<text text-anchor="start" x="815.5" y="-386.5" font-family="Helvetica,sans-Serif" font-size="10.00">v8::internal::Materialized</text>
<text text-anchor="middle" x="877" y="-375.5" font-family="Helvetica,sans-Serif" font-size="10.00">ObjectStore::isolate</text>
</a>
</g>
</g>
<!-- Node6&#45;&gt;Node9 -->
<g id="edge8" class="edge">
<title>Node6&#45;&gt;Node9</title>
<path fill="none" stroke="midnightblue" d="M558.37,-332.5C573.88,-336.01 590.51,-339.57 606,-342.5 670.01,-354.62 743.08,-365.54 797.05,-373.06"/>
<polygon fill="midnightblue" stroke="midnightblue" points="796.86,-376.56 807.24,-374.47 797.82,-369.63 796.86,-376.56"/>
</g>
<!-- Node10 -->
<g id="node9" class="node">
<title>Node10</title>
<g id="a_node9"><a xlink:href="classv8_1_1internal_1_1Handle.html#a5370e41511ebb3dd59333d20f35fe9ab" target="_top" xlink:title=" ">
<polygon fill="white" stroke="black" points="628.5,-302.5 628.5,-332.5 741.5,-332.5 741.5,-302.5 628.5,-302.5"/>
<text text-anchor="start" x="636.5" y="-320.5" font-family="Helvetica,sans-Serif" font-size="10.00">v8::internal::Handle</text>
<text text-anchor="middle" x="685" y="-309.5" font-family="Helvetica,sans-Serif" font-size="10.00">::null</text>
</a>
</g>
</g>
<!-- Node6&#45;&gt;Node10 -->
<g id="edge9" class="edge">
<title>Node6&#45;&gt;Node10</title>
<path fill="none" stroke="midnightblue" d="M564.67,-317.5C582.21,-317.5 601.01,-317.5 618.39,-317.5"/>
<polygon fill="midnightblue" stroke="midnightblue" points="618.44,-321 628.44,-317.5 618.44,-314 618.44,-321"/>
</g>
<!-- Node11 -->
<g id="node10" class="node">
<title>Node11</title>
<g id="a_node10"><a xlink:href="classv8_1_1internal_1_1MaterializedObjectStore.html#af34184266190710fae87c6290ddeb054" target="_top" xlink:title=" ">
<polygon fill="white" stroke="black" points="608.5,-253.5 608.5,-283.5 761.5,-283.5 761.5,-253.5 608.5,-253.5"/>
<text text-anchor="start" x="616.5" y="-271.5" font-family="Helvetica,sans-Serif" font-size="10.00">v8::internal::Materialized</text>
<text text-anchor="middle" x="685" y="-260.5" font-family="Helvetica,sans-Serif" font-size="10.00">ObjectStore::StackIdToIndex</text>
</a>
</g>
</g>
<!-- Node6&#45;&gt;Node11 -->
<g id="edge10" class="edge">
<title>Node6&#45;&gt;Node11</title>
<path fill="none" stroke="midnightblue" d="M553.68,-302.47C573.53,-297.29 595.94,-291.45 616.5,-286.09"/>
<polygon fill="midnightblue" stroke="midnightblue" points="617.63,-289.42 626.43,-283.51 615.87,-282.64 617.63,-289.42"/>
</g>
<!-- Node7&#45;&gt;Node9 -->
<g id="edge7" class="edge">
<title>Node7&#45;&gt;Node9</title>
<path fill="none" stroke="midnightblue" d="M764.1,-396.46C775.07,-395.19 786.36,-393.88 797.34,-392.61"/>
<polygon fill="midnightblue" stroke="midnightblue" points="797.79,-396.08 807.32,-391.45 796.98,-389.13 797.79,-396.08"/>
</g>
<!-- Node14 -->
<g id="node13" class="node">
<title>Node14</title>
<g id="a_node13"><a xlink:href="classv8_1_1internal_1_1TaggedImpl.html#aea3274f07dad292adc478dc20a811210" target="_top" xlink:title=" ">
<polygon fill="white" stroke="red" points="618,-204.5 618,-234.5 752,-234.5 752,-204.5 618,-204.5"/>
<text text-anchor="start" x="626" y="-222.5" font-family="Helvetica,sans-Serif" font-size="10.00">v8::internal::TaggedImpl</text>
<text text-anchor="middle" x="685" y="-211.5" font-family="Helvetica,sans-Serif" font-size="10.00">::IsHeapObject</text>
</a>
</g>
</g>
<!-- Node13&#45;&gt;Node14 -->
<g id="edge13" class="edge">
<title>Node13&#45;&gt;Node14</title>
<path fill="none" stroke="midnightblue" d="M566.54,-222.62C579.91,-222.27 593.95,-221.89 607.49,-221.53"/>
<polygon fill="midnightblue" stroke="midnightblue" points="607.83,-225.03 617.73,-221.26 607.64,-218.03 607.83,-225.03"/>
</g>
<!-- Node18&#45;&gt;Node19 -->
<g id="edge15" class="edge">
<title>Node18&#45;&gt;Node19</title>
<path fill="none" stroke="midnightblue" d="M570.03,-169.87C583.46,-167.94 597.46,-165.93 610.86,-164"/>
<polygon fill="midnightblue" stroke="midnightblue" points="611.58,-167.44 620.98,-162.55 610.58,-160.51 611.58,-167.44"/>
</g>
<!-- Node22 -->
<g id="node18" class="node">
<title>Node22</title>
<g id="a_node18"><a xlink:href="classv8_1_1internal_1_1TranslatedValue.html#aae4e51ea52f91f6b4d2f91ff3f1c3a22" target="_top" xlink:title=" ">
<polygon fill="white" stroke="black" points="800,-22.5 800,-52.5 954,-52.5 954,-22.5 800,-22.5"/>
<text text-anchor="start" x="808" y="-40.5" font-family="Helvetica,sans-Serif" font-size="10.00">v8::internal::Translated</text>
<text text-anchor="middle" x="877" y="-29.5" font-family="Helvetica,sans-Serif" font-size="10.00">Value::materialization_state</text>
</a>
</g>
</g>
<!-- Node21&#45;&gt;Node22 -->
<g id="edge19" class="edge">
<title>Node21&#45;&gt;Node22</title>
<path fill="none" stroke="midnightblue" d="M559.11,-38.84C574.45,-39.12 590.82,-39.36 606,-39.5 676.22,-40.14 693.78,-40.13 764,-39.5 772.32,-39.43 780.98,-39.32 789.64,-39.2"/>
<polygon fill="midnightblue" stroke="midnightblue" points="789.84,-42.69 799.79,-39.04 789.74,-35.69 789.84,-42.69"/>
</g>
<!-- Node23 -->
<g id="node19" class="node">
<title>Node23</title>
<g id="a_node19"><a xlink:href="classv8_1_1internal_1_1TranslatedValue.html#a86223ecb1beef1a8cdefcabf9072bc9d" target="_top" xlink:title=" ">
<polygon fill="white" stroke="black" points="621,-0.5 621,-30.5 749,-30.5 749,-0.5 621,-0.5"/>
<text text-anchor="start" x="629" y="-18.5" font-family="Helvetica,sans-Serif" font-size="10.00">v8::internal::Translated</text>
<text text-anchor="middle" x="685" y="-7.5" font-family="Helvetica,sans-Serif" font-size="10.00">Value::storage</text>
</a>
</g>
</g>
<!-- Node21&#45;&gt;Node23 -->
<g id="edge20" class="edge">
<title>Node21&#45;&gt;Node23</title>
<path fill="none" stroke="midnightblue" d="M559.12,-30.11C575.56,-28.19 593.4,-26.1 610.33,-24.12"/>
<polygon fill="midnightblue" stroke="midnightblue" points="611.2,-27.54 620.72,-22.9 610.38,-20.59 611.2,-27.54"/>
</g>
<!-- Node23&#45;&gt;Node22 -->
<g id="edge21" class="edge">
<title>Node23&#45;&gt;Node22</title>
<path fill="none" stroke="midnightblue" d="M749,-22.8C762.13,-24.31 776.18,-25.94 789.97,-27.54"/>
<polygon fill="midnightblue" stroke="midnightblue" points="789.62,-31.02 799.95,-28.69 790.42,-24.07 789.62,-31.02"/>
</g>
</g>
</svg>
