<?xml version="1.0" encoding="UTF-8" standalone="no"?>
<!DOCTYPE svg PUBLIC "-//W3C//DTD SVG 1.1//EN"
 "http://www.w3.org/Graphics/SVG/1.1/DTD/svg11.dtd">
<!-- Generated by graphviz version 2.43.0 (0)
 -->
<!-- Title: v8::internal::compiler::CallDescriptor::FrameStateCount Pages: 1 -->
<!--zoomable 247 -->
<svg id="main" version="1.1" xmlns="http://www.w3.org/2000/svg" xmlns:xlink="http://www.w3.org/1999/xlink" xml:space="preserve" onload="init(evt)">
<style type="text/css"><![CDATA[
.edge:hover path { stroke: red; }
.edge:hover polygon { stroke: red; fill: red; }
]]></style>
<script type="text/javascript"><![CDATA[
var edges = document.getElementsByTagName('g');
if (edges && edges.length) {
  for (var i=0;i<edges.length;i++) {
    if (edges[i].id.substr(0,4)=='edge') {
      edges[i].setAttribute('class','edge');
    }
  }
}
]]></script>
        <defs>
                <circle id="rim" cx="0" cy="0" r="7"/>
                <circle id="rim2" cx="0" cy="0" r="3.5"/>
                <g id="zoomPlus">
                        <use xlink:href="#rim" fill="#404040">
                                <set attributeName="fill" to="#808080" begin="zoomplus.mouseover" end="zoomplus.mouseout"/>
                        </use>
                        <path d="M-4,0h8M0,-4v8" fill="none" stroke="white" stroke-width="1.5" pointer-events="none"/>
                </g>
                <g id="zoomMin">
                        <use xlink:href="#rim" fill="#404040">
                                <set attributeName="fill" to="#808080" begin="zoomminus.mouseover" end="zoomminus.mouseout"/>
                        </use>
                        <path d="M-4,0h8" fill="none" stroke="white" stroke-width="1.5" pointer-events="none"/>
                </g>
                <g id="dirArrow">
                        <path fill="none" stroke="white" stroke-width="1.5" d="M0,-3.0v7 M-2.5,-0.5L0,-3.0L2.5,-0.5"/>
                </g>
               <g id="resetDef">
                       <use xlink:href="#rim2" fill="#404040">
                               <set attributeName="fill" to="#808080" begin="reset.mouseover" end="reset.mouseout"/>
                       </use>
               </g>
        </defs>

<script type="text/javascript">
var viewWidth = 837;
var viewHeight = 247;
var sectionId = 'dynsection-12';
</script>
<script xlink:href="svgpan.js"/>
<svg id="graph" class="graph">
<g id="viewport">
<title>v8::internal::compiler::CallDescriptor::FrameStateCount</title>
<polygon fill="white" stroke="transparent" points="-4,4 -4,-242.5 833,-242.5 833,4 -4,4"/>
<!-- Node1 -->
<g id="node1" class="node">
<title>Node1</title>
<g id="a_node1"><a xlink:title=" ">
<polygon fill="#bfbfbf" stroke="black" points="647,-85 647,-115 829,-115 829,-85 647,-85"/>
<text text-anchor="start" x="655" y="-103" font-family="Helvetica,sans-Serif" font-size="10.00">v8::internal::compiler</text>
<text text-anchor="middle" x="738" y="-92" font-family="Helvetica,sans-Serif" font-size="10.00">::CallDescriptor::FrameStateCount</text>
</a>
</g>
</g>
<!-- Node2 -->
<g id="node2" class="node">
<title>Node2</title>
<g id="a_node2"><a xlink:href="classv8_1_1internal_1_1compiler_1_1CommonOperatorBuilder.html#ada7520aff32e4ec77e011ccae0be1264" target="_top" xlink:title=" ">
<polygon fill="white" stroke="black" points="442,-159 442,-189 611,-189 611,-159 442,-159"/>
<text text-anchor="start" x="450" y="-177" font-family="Helvetica,sans-Serif" font-size="10.00">v8::internal::compiler</text>
<text text-anchor="middle" x="526.5" y="-166" font-family="Helvetica,sans-Serif" font-size="10.00">::CommonOperatorBuilder::Call</text>
</a>
</g>
</g>
<!-- Node1&#45;&gt;Node2 -->
<g id="edge1" class="edge">
<title>Node1&#45;&gt;Node2</title>
<path fill="none" stroke="midnightblue" d="M691.16,-118.85C667.4,-128.35 637.83,-139.78 611,-149 601.13,-152.39 590.51,-155.77 580.26,-158.9"/>
<polygon fill="midnightblue" stroke="midnightblue" points="692.65,-122.02 700.62,-115.04 690.04,-115.52 692.65,-122.02"/>
</g>
<!-- Node8 -->
<g id="node7" class="node">
<title>Node8</title>
<g id="a_node7"><a xlink:href="structv8_1_1internal_1_1compiler_1_1CallBuffer.html#a29e449bd066e3b975e1a0a508f6e74fd" target="_top" xlink:title=" ">
<polygon fill="white" stroke="black" points="442.5,-110 442.5,-140 610.5,-140 610.5,-110 442.5,-110"/>
<text text-anchor="start" x="450.5" y="-128" font-family="Helvetica,sans-Serif" font-size="10.00">v8::internal::compiler</text>
<text text-anchor="middle" x="526.5" y="-117" font-family="Helvetica,sans-Serif" font-size="10.00">::CallBuffer::frame_state_count</text>
</a>
</g>
</g>
<!-- Node1&#45;&gt;Node8 -->
<g id="edge6" class="edge">
<title>Node1&#45;&gt;Node8</title>
<path fill="none" stroke="midnightblue" d="M636.97,-111.94C628.12,-112.99 619.22,-114.05 610.54,-115.09"/>
<polygon fill="midnightblue" stroke="midnightblue" points="637.42,-115.41 646.94,-110.75 636.59,-108.46 637.42,-115.41"/>
</g>
<!-- Node9 -->
<g id="node8" class="node">
<title>Node9</title>
<g id="a_node8"><a xlink:href="namespacev8_1_1internal_1_1compiler.html#add7bb4a83766b51a9f5acacdeca5ab20" target="_top" xlink:title=" ">
<polygon fill="white" stroke="black" points="466,-61 466,-91 587,-91 587,-61 466,-61"/>
<text text-anchor="start" x="474" y="-79" font-family="Helvetica,sans-Serif" font-size="10.00">v8::internal::compiler</text>
<text text-anchor="middle" x="526.5" y="-68" font-family="Helvetica,sans-Serif" font-size="10.00">::operator&lt;&lt;</text>
</a>
</g>
</g>
<!-- Node1&#45;&gt;Node9 -->
<g id="edge7" class="edge">
<title>Node1&#45;&gt;Node9</title>
<path fill="none" stroke="midnightblue" d="M636.96,-88.54C619.95,-86.59 602.78,-84.62 587.24,-82.84"/>
<polygon fill="midnightblue" stroke="midnightblue" points="636.6,-92.02 646.94,-89.68 637.4,-85.07 636.6,-92.02"/>
</g>
<!-- Node10 -->
<g id="node9" class="node">
<title>Node10</title>
<g id="a_node9"><a xlink:href="classv8_1_1internal_1_1compiler_1_1CommonOperatorBuilder.html#a629a0fd5476b0ea410eb64a6b8f677f6" target="_top" xlink:title=" ">
<polygon fill="white" stroke="black" points="454.5,-0.5 454.5,-41.5 598.5,-41.5 598.5,-0.5 454.5,-0.5"/>
<text text-anchor="start" x="462.5" y="-29.5" font-family="Helvetica,sans-Serif" font-size="10.00">v8::internal::compiler</text>
<text text-anchor="start" x="462.5" y="-18.5" font-family="Helvetica,sans-Serif" font-size="10.00">::CommonOperatorBuilder</text>
<text text-anchor="middle" x="526.5" y="-7.5" font-family="Helvetica,sans-Serif" font-size="10.00">::TailCall</text>
</a>
</g>
</g>
<!-- Node1&#45;&gt;Node10 -->
<g id="edge8" class="edge">
<title>Node1&#45;&gt;Node10</title>
<path fill="none" stroke="midnightblue" d="M689.64,-81.25C666.06,-71.99 637.08,-60.76 611,-51 602.78,-47.92 594.08,-44.73 585.52,-41.62"/>
<polygon fill="midnightblue" stroke="midnightblue" points="688.47,-84.55 699.05,-84.95 691.03,-78.03 688.47,-84.55"/>
</g>
<!-- Node3 -->
<g id="node3" class="node">
<title>Node3</title>
<g id="a_node3"><a xlink:href="classv8_1_1internal_1_1compiler_1_1WasmGraphBuilder.html#a950358e905ab35df0585e89ab599c2b8" target="_top" xlink:title=" ">
<polygon fill="white" stroke="black" points="210,-208 210,-238 406,-238 406,-208 210,-208"/>
<text text-anchor="start" x="218" y="-226" font-family="Helvetica,sans-Serif" font-size="10.00">v8::internal::compiler</text>
<text text-anchor="middle" x="308" y="-215" font-family="Helvetica,sans-Serif" font-size="10.00">::WasmGraphBuilder::BuildWasmCall</text>
</a>
</g>
</g>
<!-- Node2&#45;&gt;Node3 -->
<g id="edge2" class="edge">
<title>Node2&#45;&gt;Node3</title>
<path fill="none" stroke="midnightblue" d="M449.25,-191.26C425.12,-196.72 398.67,-202.71 375.3,-207.99"/>
<polygon fill="midnightblue" stroke="midnightblue" points="450.09,-194.66 459.07,-189.03 448.55,-187.83 450.09,-194.66"/>
</g>
<!-- Node4 -->
<g id="node4" class="node">
<title>Node4</title>
<g id="a_node4"><a xlink:href="classv8_1_1internal_1_1compiler_1_1GraphAssembler.html#a82ed12a64b3c528365d7eeaaa5b17659" target="_top" xlink:title=" ">
<polygon fill="white" stroke="black" points="244,-159 244,-189 372,-189 372,-159 244,-159"/>
<text text-anchor="start" x="252" y="-177" font-family="Helvetica,sans-Serif" font-size="10.00">v8::internal::compiler</text>
<text text-anchor="middle" x="308" y="-166" font-family="Helvetica,sans-Serif" font-size="10.00">::GraphAssembler::Call</text>
</a>
</g>
</g>
<!-- Node2&#45;&gt;Node4 -->
<g id="edge3" class="edge">
<title>Node2&#45;&gt;Node4</title>
<path fill="none" stroke="midnightblue" d="M431.7,-174C411.65,-174 390.92,-174 372.33,-174"/>
<polygon fill="midnightblue" stroke="midnightblue" points="431.8,-177.5 441.8,-174 431.8,-170.5 431.8,-177.5"/>
</g>
<!-- Node5 -->
<g id="node5" class="node">
<title>Node5</title>
<g id="a_node5"><a xlink:href="namespacev8_1_1internal_1_1compiler_1_1anonymous__namespace_02js-typed-lowering_8cc_03.html#a7e772bd0174570dd6798ce24d0cec526" target="_top" xlink:title=" ">
<polygon fill="white" stroke="black" points="237.5,-88 237.5,-140 378.5,-140 378.5,-88 237.5,-88"/>
<text text-anchor="start" x="245.5" y="-128" font-family="Helvetica,sans-Serif" font-size="10.00">v8::internal::compiler</text>
<text text-anchor="start" x="245.5" y="-117" font-family="Helvetica,sans-Serif" font-size="10.00">::anonymous_namespace</text>
<text text-anchor="start" x="245.5" y="-106" font-family="Helvetica,sans-Serif" font-size="10.00">{js&#45;typed&#45;lowering::cc}</text>
<text text-anchor="middle" x="308" y="-95" font-family="Helvetica,sans-Serif" font-size="10.00">::ReduceBuiltin</text>
</a>
</g>
</g>
<!-- Node2&#45;&gt;Node5 -->
<g id="edge4" class="edge">
<title>Node2&#45;&gt;Node5</title>
<path fill="none" stroke="midnightblue" d="M461.38,-156.23C435.32,-149.01 405.15,-140.65 378.56,-133.28"/>
<polygon fill="midnightblue" stroke="midnightblue" points="460.58,-159.64 471.15,-158.94 462.45,-152.89 460.58,-159.64"/>
</g>
<!-- Node6 -->
<g id="node6" class="node">
<title>Node6</title>
<g id="a_node6"><a xlink:href="classv8_1_1internal_1_1compiler_1_1JSTypedLowering.html#a5c85f20b35366c9b59af2c85d1c10c4a" target="_top" xlink:title=" ">
<polygon fill="white" stroke="red" points="0,-99 0,-129 174,-129 174,-99 0,-99"/>
<text text-anchor="start" x="8" y="-117" font-family="Helvetica,sans-Serif" font-size="10.00">v8::internal::compiler</text>
<text text-anchor="middle" x="87" y="-106" font-family="Helvetica,sans-Serif" font-size="10.00">::JSTypedLowering::ReduceJSCall</text>
</a>
</g>
</g>
<!-- Node5&#45;&gt;Node6 -->
<g id="edge5" class="edge">
<title>Node5&#45;&gt;Node6</title>
<path fill="none" stroke="midnightblue" d="M227.39,-114C210.15,-114 191.83,-114 174.34,-114"/>
<polygon fill="midnightblue" stroke="midnightblue" points="227.41,-117.5 237.41,-114 227.41,-110.5 227.41,-117.5"/>
</g>
</g>
</svg>
        <g id="navigator" transform="translate(0 0)" fill="#404254">
                <rect fill="#f2f5e9" fill-opacity="0.5" stroke="#606060" stroke-width=".5" x="0" y="0" width="60" height="60"/>
                <use id="zoomplus" xlink:href="#zoomPlus" x="17" y="9" onmousedown="handleZoom(evt,'in')"/>
                <use id="zoomminus" xlink:href="#zoomMin" x="42" y="9" onmousedown="handleZoom(evt,'out')"/>
                <use id="reset" xlink:href="#resetDef" x="30" y="36" onmousedown="handleReset()"/>
                <g id="arrowUp" xlink:href="#dirArrow" transform="translate(30 24)" onmousedown="handlePan(0,-1)">
                  <use xlink:href="#rim" fill="#404040">
                        <set attributeName="fill" to="#808080" begin="arrowUp.mouseover" end="arrowUp.mouseout"/>
                  </use>
                  <path fill="none" stroke="white" stroke-width="1.5" d="M0,-3.0v7 M-2.5,-0.5L0,-3.0L2.5,-0.5"/>
                </g>
                <g id="arrowRight" xlink:href="#dirArrow" transform="rotate(90) translate(36 -43)" onmousedown="handlePan(1,0)">
                  <use xlink:href="#rim" fill="#404040">
                        <set attributeName="fill" to="#808080" begin="arrowRight.mouseover" end="arrowRight.mouseout"/>
                  </use>
                  <path fill="none" stroke="white" stroke-width="1.5" d="M0,-3.0v7 M-2.5,-0.5L0,-3.0L2.5,-0.5"/>
                </g>
                <g id="arrowDown" xlink:href="#dirArrow" transform="rotate(180) translate(-30 -48)" onmousedown="handlePan(0,1)">
                  <use xlink:href="#rim" fill="#404040">
                        <set attributeName="fill" to="#808080" begin="arrowDown.mouseover" end="arrowDown.mouseout"/>
                  </use>
                  <path fill="none" stroke="white" stroke-width="1.5" d="M0,-3.0v7 M-2.5,-0.5L0,-3.0L2.5,-0.5"/>
                </g>
                <g id="arrowLeft" xlink:href="#dirArrow" transform="rotate(270) translate(-36 17)" onmousedown="handlePan(-1,0)">
                  <use xlink:href="#rim" fill="#404040">
                        <set attributeName="fill" to="#808080" begin="arrowLeft.mouseover" end="arrowLeft.mouseout"/>
                  </use>
                  <path fill="none" stroke="white" stroke-width="1.5" d="M0,-3.0v7 M-2.5,-0.5L0,-3.0L2.5,-0.5"/>
                </g>
        </g>
        <svg viewBox="0 0 15 15" width="100%" height="30px" preserveAspectRatio="xMaxYMin meet">
         <g id="arrow_out" transform="scale(0.3 0.3)">
          <a xlink:href="classv8_1_1internal_1_1compiler_1_1CallDescriptor_a7f4761f0c29077a28969675ab784907c_icgraph_org.svg" target="_base">
           <rect id="button" ry="5" rx="5" y="6" x="6" height="38" width="38"
                fill="#f2f5e9" fill-opacity="0.5" stroke="#606060" stroke-width="1.0"/>
           <path id="arrow"
             d="M 11.500037,31.436501 C 11.940474,20.09759 22.043105,11.32322 32.158766,21.979434 L 37.068811,17.246167 C 37.068811,17.246167 37.088388,32 37.088388,32 L 22.160133,31.978069 C 22.160133,31.978069 26.997745,27.140456 26.997745,27.140456 C 18.528582,18.264221 13.291696,25.230495 11.500037,31.436501 z"
             style="fill:#404040;"/>
          </a>
         </g>
        </svg>
</svg>
