<?xml version="1.0" encoding="UTF-8" standalone="no"?>
<!DOCTYPE svg PUBLIC "-//W3C//DTD SVG 1.1//EN"
 "http://www.w3.org/Graphics/SVG/1.1/DTD/svg11.dtd">
<!-- Generated by graphviz version 2.43.0 (0)
 -->
<!-- Title: v8::internal::MinorMarkSweepCollector::UseBackgroundThreadsInCycle Pages: 1 -->
<!--zoomable 285 -->
<svg id="main" version="1.1" xmlns="http://www.w3.org/2000/svg" xmlns:xlink="http://www.w3.org/1999/xlink" xml:space="preserve" onload="init(evt)">
<style type="text/css"><![CDATA[
.edge:hover path { stroke: red; }
.edge:hover polygon { stroke: red; fill: red; }
]]></style>
<script type="text/javascript"><![CDATA[
var edges = document.getElementsByTagName('g');
if (edges && edges.length) {
  for (var i=0;i<edges.length;i++) {
    if (edges[i].id.substr(0,4)=='edge') {
      edges[i].setAttribute('class','edge');
    }
  }
}
]]></script>
        <defs>
                <circle id="rim" cx="0" cy="0" r="7"/>
                <circle id="rim2" cx="0" cy="0" r="3.5"/>
                <g id="zoomPlus">
                        <use xlink:href="#rim" fill="#404040">
                                <set attributeName="fill" to="#808080" begin="zoomplus.mouseover" end="zoomplus.mouseout"/>
                        </use>
                        <path d="M-4,0h8M0,-4v8" fill="none" stroke="white" stroke-width="1.5" pointer-events="none"/>
                </g>
                <g id="zoomMin">
                        <use xlink:href="#rim" fill="#404040">
                                <set attributeName="fill" to="#808080" begin="zoomminus.mouseover" end="zoomminus.mouseout"/>
                        </use>
                        <path d="M-4,0h8" fill="none" stroke="white" stroke-width="1.5" pointer-events="none"/>
                </g>
                <g id="dirArrow">
                        <path fill="none" stroke="white" stroke-width="1.5" d="M0,-3.0v7 M-2.5,-0.5L0,-3.0L2.5,-0.5"/>
                </g>
               <g id="resetDef">
                       <use xlink:href="#rim2" fill="#404040">
                               <set attributeName="fill" to="#808080" begin="reset.mouseover" end="reset.mouseout"/>
                       </use>
               </g>
        </defs>

<script type="text/javascript">
var viewWidth = 1001;
var viewHeight = 285;
var sectionId = 'dynsection-43';
</script>
<script xlink:href="svgpan.js"/>
<svg id="graph" class="graph">
<g id="viewport">
<title>v8::internal::MinorMarkSweepCollector::UseBackgroundThreadsInCycle</title>
<polygon fill="white" stroke="transparent" points="-4,4 -4,-281 997,-281 997,4 -4,4"/>
<!-- Node1 -->
<g id="node1" class="node">
<title>Node1</title>
<g id="a_node1"><a xlink:title=" ">
<polygon fill="#bfbfbf" stroke="black" points="811,-131 811,-172 993,-172 993,-131 811,-131"/>
<text text-anchor="start" x="819" y="-160" font-family="Helvetica,sans-Serif" font-size="10.00">v8::internal::MinorMarkSweep</text>
<text text-anchor="start" x="819" y="-149" font-family="Helvetica,sans-Serif" font-size="10.00">Collector::UseBackgroundThreads</text>
<text text-anchor="middle" x="902" y="-138" font-family="Helvetica,sans-Serif" font-size="10.00">InCycle</text>
</a>
</g>
</g>
<!-- Node2 -->
<g id="node2" class="node">
<title>Node2</title>
<g id="a_node2"><a xlink:href="classv8_1_1internal_1_1MinorMarkSweepCollector.html#ac933b5beb57063616485eccbaeeddc74" target="_top" xlink:title=" ">
<polygon fill="white" stroke="black" points="212.5,-246.5 212.5,-276.5 375.5,-276.5 375.5,-246.5 212.5,-246.5"/>
<text text-anchor="start" x="220.5" y="-264.5" font-family="Helvetica,sans-Serif" font-size="10.00">v8::internal::MinorMarkSweep</text>
<text text-anchor="middle" x="294" y="-253.5" font-family="Helvetica,sans-Serif" font-size="10.00">Collector::MarkLiveObjects</text>
</a>
</g>
</g>
<!-- Node1&#45;&gt;Node2 -->
<g id="edge1" class="edge">
<title>Node1&#45;&gt;Node2</title>
<path fill="none" stroke="midnightblue" d="M801.08,-169.64C682.11,-191.23 485.74,-226.88 375.86,-246.82"/>
<polygon fill="midnightblue" stroke="midnightblue" points="801.72,-173.08 810.93,-167.85 800.47,-166.19 801.72,-173.08"/>
</g>
<!-- Node4 -->
<g id="node4" class="node">
<title>Node4</title>
<g id="a_node4"><a xlink:href="classv8_1_1internal_1_1ConcurrentMarking.html#aaf8d90cff77b3890a4de513377521ce4" target="_top" xlink:title=" ">
<polygon fill="white" stroke="black" points="425,-136.5 425,-166.5 603,-166.5 603,-136.5 425,-136.5"/>
<text text-anchor="start" x="433" y="-154.5" font-family="Helvetica,sans-Serif" font-size="10.00">v8::internal::Concurrent</text>
<text text-anchor="middle" x="514" y="-143.5" font-family="Helvetica,sans-Serif" font-size="10.00">Marking::RescheduleJobIfNeeded</text>
</a>
</g>
</g>
<!-- Node1&#45;&gt;Node4 -->
<g id="edge3" class="edge">
<title>Node1&#45;&gt;Node4</title>
<path fill="none" stroke="midnightblue" d="M800.92,-151.5C739.69,-151.5 662.07,-151.5 603.16,-151.5"/>
<polygon fill="midnightblue" stroke="midnightblue" points="800.99,-155 810.99,-151.5 800.99,-148 800.99,-155"/>
</g>
<!-- Node1712 -->
<g id="node10" class="node">
<title>Node1712</title>
<g id="a_node10"><a xlink:href="classv8_1_1internal_1_1ConcurrentMarking.html#a17b832823a3616716aa7497fada881ff" target="_top" xlink:title=" ">
<polygon fill="white" stroke="black" points="639,-90.5 639,-120.5 775,-120.5 775,-90.5 639,-90.5"/>
<text text-anchor="start" x="647" y="-108.5" font-family="Helvetica,sans-Serif" font-size="10.00">v8::internal::Concurrent</text>
<text text-anchor="middle" x="707" y="-97.5" font-family="Helvetica,sans-Serif" font-size="10.00">Marking::TryScheduleJob</text>
</a>
</g>
</g>
<!-- Node1&#45;&gt;Node1712 -->
<g id="edge11" class="edge">
<title>Node1&#45;&gt;Node1712</title>
<path fill="none" stroke="midnightblue" d="M805.21,-128.67C793.61,-125.9 781.99,-123.13 771.03,-120.52"/>
<polygon fill="midnightblue" stroke="midnightblue" points="804.4,-132.07 814.94,-130.99 806.03,-125.27 804.4,-132.07"/>
</g>
<!-- Node3 -->
<g id="node3" class="node">
<title>Node3</title>
<g id="a_node3"><a xlink:href="classv8_1_1internal_1_1MinorMarkSweepCollector.html#a44e98c70a1c3b044cb7d268ace089c81" target="_top" xlink:title=" ">
<polygon fill="white" stroke="black" points="0,-246.5 0,-276.5 163,-276.5 163,-246.5 0,-246.5"/>
<text text-anchor="start" x="8" y="-264.5" font-family="Helvetica,sans-Serif" font-size="10.00">v8::internal::MinorMarkSweep</text>
<text text-anchor="middle" x="81.5" y="-253.5" font-family="Helvetica,sans-Serif" font-size="10.00">Collector::CollectGarbage</text>
</a>
</g>
</g>
<!-- Node2&#45;&gt;Node3 -->
<g id="edge2" class="edge">
<title>Node2&#45;&gt;Node3</title>
<path fill="none" stroke="midnightblue" d="M201.93,-261.5C189,-261.5 175.78,-261.5 163.07,-261.5"/>
<polygon fill="midnightblue" stroke="midnightblue" points="202.22,-265 212.22,-261.5 202.22,-258 202.22,-265"/>
</g>
<!-- Node4&#45;&gt;Node2 -->
<g id="edge5" class="edge">
<title>Node4&#45;&gt;Node2</title>
<path fill="none" stroke="midnightblue" d="M483.75,-172.6C450.38,-196.54 399.12,-232.88 389,-237.5 381.65,-240.86 373.74,-243.8 365.76,-246.36"/>
<polygon fill="midnightblue" stroke="midnightblue" points="486.14,-175.19 492.22,-166.51 482.06,-169.51 486.14,-175.19"/>
</g>
<!-- Node5 -->
<g id="node5" class="node">
<title>Node5</title>
<g id="a_node5"><a xlink:href="classv8_1_1internal_1_1PagedNewSpaceAllocatorPolicy.html#adc1b16538196f7f965f56268d85d399e" target="_top" xlink:title=" ">
<polygon fill="white" stroke="black" points="206,-197.5 206,-227.5 382,-227.5 382,-197.5 206,-197.5"/>
<text text-anchor="start" x="214" y="-215.5" font-family="Helvetica,sans-Serif" font-size="10.00">v8::internal::PagedNewSpace</text>
<text text-anchor="middle" x="294" y="-204.5" font-family="Helvetica,sans-Serif" font-size="10.00">AllocatorPolicy::EnsureAllocation</text>
</a>
</g>
</g>
<!-- Node4&#45;&gt;Node5 -->
<g id="edge4" class="edge">
<title>Node4&#45;&gt;Node5</title>
<path fill="none" stroke="midnightblue" d="M452.42,-169.39C432.27,-175.25 409.69,-181.74 389,-187.5 377.29,-190.76 364.73,-194.16 352.72,-197.37"/>
<polygon fill="midnightblue" stroke="midnightblue" points="453.48,-172.72 462.1,-166.56 451.51,-166 453.48,-172.72"/>
</g>
<!-- Node6 -->
<g id="node6" class="node">
<title>Node6</title>
<g id="a_node6"><a xlink:href="classv8_1_1internal_1_1MarkCompactCollector.html#a927eebc2a596cab74de9a052a849d0ea" target="_top" xlink:title=" ">
<polygon fill="white" stroke="black" points="199,-137 199,-178 389,-178 389,-137 199,-137"/>
<text text-anchor="start" x="207" y="-166" font-family="Helvetica,sans-Serif" font-size="10.00">v8::internal::MarkCompact</text>
<text text-anchor="start" x="207" y="-155" font-family="Helvetica,sans-Serif" font-size="10.00">Collector::MaybeEnableBackground</text>
<text text-anchor="middle" x="294" y="-144" font-family="Helvetica,sans-Serif" font-size="10.00">ThreadsInCycle</text>
</a>
</g>
</g>
<!-- Node4&#45;&gt;Node6 -->
<g id="edge6" class="edge">
<title>Node4&#45;&gt;Node6</title>
<path fill="none" stroke="midnightblue" d="M414.92,-154.2C406.32,-154.44 397.63,-154.68 389.07,-154.91"/>
<polygon fill="midnightblue" stroke="midnightblue" points="415.06,-157.7 424.96,-153.92 414.87,-150.7 415.06,-157.7"/>
</g>
<!-- Node1707 -->
<g id="node8" class="node">
<title>Node1707</title>
<g id="a_node8"><a xlink:href="classv8_1_1internal_1_1IncrementalMarking.html#a5271cb60f92aa20258199ee6e5858f49" target="_top" xlink:title=" ">
<polygon fill="white" stroke="red" points="13,-93.5 13,-123.5 150,-123.5 150,-93.5 13,-93.5"/>
<text text-anchor="start" x="21" y="-111.5" font-family="Helvetica,sans-Serif" font-size="10.00">v8::internal::Incremental</text>
<text text-anchor="middle" x="81.5" y="-100.5" font-family="Helvetica,sans-Serif" font-size="10.00">Marking::Step</text>
</a>
</g>
</g>
<!-- Node4&#45;&gt;Node1707 -->
<g id="edge10" class="edge">
<title>Node4&#45;&gt;Node1707</title>
<path fill="none" stroke="midnightblue" d="M433.62,-134.56C418.84,-131.85 403.49,-129.34 389,-127.5 307.16,-117.09 212.26,-112.32 150,-110.18"/>
<polygon fill="midnightblue" stroke="midnightblue" points="433.26,-138.05 443.74,-136.45 434.55,-131.17 433.26,-138.05"/>
</g>
<!-- Node1711 -->
<g id="node9" class="node">
<title>Node1711</title>
<g id="a_node9"><a xlink:href="classv8_1_1internal_1_1ConcurrentMarking.html#afbbcbe61c7b306f93be9ddd1b365b18d" target="_top" xlink:title=" ">
<polygon fill="white" stroke="black" points="228.5,-49.5 228.5,-79.5 359.5,-79.5 359.5,-49.5 228.5,-49.5"/>
<text text-anchor="start" x="236.5" y="-67.5" font-family="Helvetica,sans-Serif" font-size="10.00">v8::internal::Concurrent</text>
<text text-anchor="middle" x="294" y="-56.5" font-family="Helvetica,sans-Serif" font-size="10.00">Marking::Resume</text>
</a>
</g>
</g>
<!-- Node4&#45;&gt;Node1711 -->
<g id="edge9" class="edge">
<title>Node4&#45;&gt;Node1711</title>
<path fill="none" stroke="midnightblue" d="M447.77,-132.82C439.93,-129.76 432.17,-126.32 425,-122.5 407.11,-112.97 406.93,-103.95 389,-94.5 377.94,-88.67 365.54,-83.73 353.47,-79.64"/>
<polygon fill="midnightblue" stroke="midnightblue" points="446.75,-136.18 457.34,-136.37 449.18,-129.61 446.75,-136.18"/>
</g>
<!-- Node7 -->
<g id="node7" class="node">
<title>Node7</title>
<g id="a_node7"><a xlink:href="classv8_1_1internal_1_1MarkCompactCollector.html#a82db441b928fc8abc959d3d4c7c18906" target="_top" xlink:title=" ">
<polygon fill="white" stroke="red" points="8.5,-142.5 8.5,-172.5 154.5,-172.5 154.5,-142.5 8.5,-142.5"/>
<text text-anchor="start" x="16.5" y="-160.5" font-family="Helvetica,sans-Serif" font-size="10.00">v8::internal::MarkCompact</text>
<text text-anchor="middle" x="81.5" y="-149.5" font-family="Helvetica,sans-Serif" font-size="10.00">Collector::CollectGarbage</text>
</a>
</g>
</g>
<!-- Node6&#45;&gt;Node7 -->
<g id="edge7" class="edge">
<title>Node6&#45;&gt;Node7</title>
<path fill="none" stroke="midnightblue" d="M188.76,-157.5C177.27,-157.5 165.77,-157.5 154.8,-157.5"/>
<polygon fill="midnightblue" stroke="midnightblue" points="188.83,-161 198.83,-157.5 188.83,-154 188.83,-161"/>
</g>
<!-- Node6&#45;&gt;Node1707 -->
<g id="edge8" class="edge">
<title>Node6&#45;&gt;Node1707</title>
<path fill="none" stroke="midnightblue" d="M194.61,-134.6C178.43,-130.83 162.03,-127.01 146.95,-123.5"/>
<polygon fill="midnightblue" stroke="midnightblue" points="194.11,-138.07 204.64,-136.93 195.7,-131.26 194.11,-138.07"/>
</g>
<!-- Node1712&#45;&gt;Node4 -->
<g id="edge12" class="edge">
<title>Node1712&#45;&gt;Node4</title>
<path fill="none" stroke="midnightblue" d="M633.61,-122.93C615.08,-127.4 595.33,-132.15 577.35,-136.48"/>
<polygon fill="midnightblue" stroke="midnightblue" points="634.56,-126.31 643.46,-120.56 632.92,-119.5 634.56,-126.31"/>
</g>
<!-- Node1713 -->
<g id="node11" class="node">
<title>Node1713</title>
<g id="a_node11"><a xlink:href="classv8_1_1internal_1_1IncrementalMarking.html#aa2596c8242c2e40791afd0812877275a" target="_top" xlink:title=" ">
<polygon fill="white" stroke="black" points="437.5,-82.5 437.5,-112.5 590.5,-112.5 590.5,-82.5 437.5,-82.5"/>
<text text-anchor="start" x="445.5" y="-100.5" font-family="Helvetica,sans-Serif" font-size="10.00">v8::internal::Incremental</text>
<text text-anchor="middle" x="514" y="-89.5" font-family="Helvetica,sans-Serif" font-size="10.00">Marking::StartMarkingMajor</text>
</a>
</g>
</g>
<!-- Node1712&#45;&gt;Node1713 -->
<g id="edge13" class="edge">
<title>Node1712&#45;&gt;Node1713</title>
<path fill="none" stroke="midnightblue" d="M628.94,-102.27C616.33,-101.74 603.29,-101.2 590.72,-100.67"/>
<polygon fill="midnightblue" stroke="midnightblue" points="628.79,-105.77 638.93,-102.69 629.08,-98.78 628.79,-105.77"/>
</g>
<!-- Node1722 -->
<g id="node13" class="node">
<title>Node1722</title>
<g id="a_node13"><a xlink:href="classv8_1_1internal_1_1IncrementalMarking.html#a3069e76a432ef28d2e37f2f08746c33d" target="_top" xlink:title=" ">
<polygon fill="white" stroke="black" points="437.5,-22.5 437.5,-52.5 590.5,-52.5 590.5,-22.5 437.5,-22.5"/>
<text text-anchor="start" x="445.5" y="-40.5" font-family="Helvetica,sans-Serif" font-size="10.00">v8::internal::Incremental</text>
<text text-anchor="middle" x="514" y="-29.5" font-family="Helvetica,sans-Serif" font-size="10.00">Marking::StartMarkingMinor</text>
</a>
</g>
</g>
<!-- Node1712&#45;&gt;Node1722 -->
<g id="edge15" class="edge">
<title>Node1712&#45;&gt;Node1722</title>
<path fill="none" stroke="midnightblue" d="M654.03,-87C623.66,-76.18 585.81,-62.71 557.27,-52.55"/>
<polygon fill="midnightblue" stroke="midnightblue" points="653.02,-90.35 663.61,-90.41 655.36,-83.76 653.02,-90.35"/>
</g>
<!-- Node1714 -->
<g id="node12" class="node">
<title>Node1714</title>
<g id="a_node12"><a xlink:href="classv8_1_1internal_1_1IncrementalMarking.html#a718dcec3bc8b483af6b626d8a9218764" target="_top" xlink:title=" ">
<polygon fill="white" stroke="red" points="225.5,-0.5 225.5,-30.5 362.5,-30.5 362.5,-0.5 225.5,-0.5"/>
<text text-anchor="start" x="233.5" y="-18.5" font-family="Helvetica,sans-Serif" font-size="10.00">v8::internal::Incremental</text>
<text text-anchor="middle" x="294" y="-7.5" font-family="Helvetica,sans-Serif" font-size="10.00">Marking::Start</text>
</a>
</g>
</g>
<!-- Node1713&#45;&gt;Node1714 -->
<g id="edge14" class="edge">
<title>Node1713&#45;&gt;Node1714</title>
<path fill="none" stroke="midnightblue" d="M462.71,-78.55C450.21,-73.4 436.97,-67.56 425,-61.5 408.27,-53.03 406.28,-46.79 389,-39.5 380.62,-35.96 371.59,-32.85 362.56,-30.14"/>
<polygon fill="midnightblue" stroke="midnightblue" points="461.51,-81.84 472.09,-82.34 464.13,-75.35 461.51,-81.84"/>
</g>
<!-- Node1722&#45;&gt;Node1714 -->
<g id="edge16" class="edge">
<title>Node1722&#45;&gt;Node1714</title>
<path fill="none" stroke="midnightblue" d="M427.31,-28.85C405.91,-26.69 383.25,-24.41 362.85,-22.35"/>
<polygon fill="midnightblue" stroke="midnightblue" points="427.07,-32.35 437.37,-29.87 427.77,-25.38 427.07,-32.35"/>
</g>
</g>
</svg>
        <g id="navigator" transform="translate(0 0)" fill="#404254">
                <rect fill="#f2f5e9" fill-opacity="0.5" stroke="#606060" stroke-width=".5" x="0" y="0" width="60" height="60"/>
                <use id="zoomplus" xlink:href="#zoomPlus" x="17" y="9" onmousedown="handleZoom(evt,'in')"/>
                <use id="zoomminus" xlink:href="#zoomMin" x="42" y="9" onmousedown="handleZoom(evt,'out')"/>
                <use id="reset" xlink:href="#resetDef" x="30" y="36" onmousedown="handleReset()"/>
                <g id="arrowUp" xlink:href="#dirArrow" transform="translate(30 24)" onmousedown="handlePan(0,-1)">
                  <use xlink:href="#rim" fill="#404040">
                        <set attributeName="fill" to="#808080" begin="arrowUp.mouseover" end="arrowUp.mouseout"/>
                  </use>
                  <path fill="none" stroke="white" stroke-width="1.5" d="M0,-3.0v7 M-2.5,-0.5L0,-3.0L2.5,-0.5"/>
                </g>
                <g id="arrowRight" xlink:href="#dirArrow" transform="rotate(90) translate(36 -43)" onmousedown="handlePan(1,0)">
                  <use xlink:href="#rim" fill="#404040">
                        <set attributeName="fill" to="#808080" begin="arrowRight.mouseover" end="arrowRight.mouseout"/>
                  </use>
                  <path fill="none" stroke="white" stroke-width="1.5" d="M0,-3.0v7 M-2.5,-0.5L0,-3.0L2.5,-0.5"/>
                </g>
                <g id="arrowDown" xlink:href="#dirArrow" transform="rotate(180) translate(-30 -48)" onmousedown="handlePan(0,1)">
                  <use xlink:href="#rim" fill="#404040">
                        <set attributeName="fill" to="#808080" begin="arrowDown.mouseover" end="arrowDown.mouseout"/>
                  </use>
                  <path fill="none" stroke="white" stroke-width="1.5" d="M0,-3.0v7 M-2.5,-0.5L0,-3.0L2.5,-0.5"/>
                </g>
                <g id="arrowLeft" xlink:href="#dirArrow" transform="rotate(270) translate(-36 17)" onmousedown="handlePan(-1,0)">
                  <use xlink:href="#rim" fill="#404040">
                        <set attributeName="fill" to="#808080" begin="arrowLeft.mouseover" end="arrowLeft.mouseout"/>
                  </use>
                  <path fill="none" stroke="white" stroke-width="1.5" d="M0,-3.0v7 M-2.5,-0.5L0,-3.0L2.5,-0.5"/>
                </g>
        </g>
        <svg viewBox="0 0 15 15" width="100%" height="30px" preserveAspectRatio="xMaxYMin meet">
         <g id="arrow_out" transform="scale(0.3 0.3)">
          <a xlink:href="classv8_1_1internal_1_1MinorMarkSweepCollector_a858d520b676140b96ede9158adbdad92_icgraph_org.svg" target="_base">
           <rect id="button" ry="5" rx="5" y="6" x="6" height="38" width="38"
                fill="#f2f5e9" fill-opacity="0.5" stroke="#606060" stroke-width="1.0"/>
           <path id="arrow"
             d="M 11.500037,31.436501 C 11.940474,20.09759 22.043105,11.32322 32.158766,21.979434 L 37.068811,17.246167 C 37.068811,17.246167 37.088388,32 37.088388,32 L 22.160133,31.978069 C 22.160133,31.978069 26.997745,27.140456 26.997745,27.140456 C 18.528582,18.264221 13.291696,25.230495 11.500037,31.436501 z"
             style="fill:#404040;"/>
          </a>
         </g>
        </svg>
</svg>
