<?xml version="1.0" encoding="UTF-8" standalone="no"?>
<!DOCTYPE svg PUBLIC "-//W3C//DTD SVG 1.1//EN"
 "http://www.w3.org/Graphics/SVG/1.1/DTD/svg11.dtd">
<!-- Generated by graphviz version 2.43.0 (0)
 -->
<!-- Title: v8::internal::compiler::turboshaft::TypeInferenceReducer::RefineOperationType Pages: 1 -->
<svg width="898pt" height="412pt"
 viewBox="0.00 0.00 898.00 412.03" xmlns="http://www.w3.org/2000/svg" xmlns:xlink="http://www.w3.org/1999/xlink">
<g id="graph0" class="graph" transform="scale(1 1) rotate(0) translate(4 408.03)">
<title>v8::internal::compiler::turboshaft::TypeInferenceReducer::RefineOperationType</title>
<polygon fill="white" stroke="transparent" points="-4,4 -4,-408.03 894,-408.03 894,4 -4,4"/>
<!-- Node1 -->
<g id="node1" class="node">
<title>Node1</title>
<g id="a_node1"><a xlink:title=" ">
<polygon fill="#bfbfbf" stroke="black" points="0,-226.5 0,-267.5 186,-267.5 186,-226.5 0,-226.5"/>
<text text-anchor="start" x="8" y="-255.5" font-family="Helvetica,sans-Serif" font-size="10.00">v8::internal::compiler</text>
<text text-anchor="start" x="8" y="-244.5" font-family="Helvetica,sans-Serif" font-size="10.00">::turboshaft::TypeInferenceReducer</text>
<text text-anchor="middle" x="93" y="-233.5" font-family="Helvetica,sans-Serif" font-size="10.00">::RefineOperationType</text>
</a>
</g>
</g>
<!-- Node2 -->
<g id="node2" class="node">
<title>Node2</title>
<g id="a_node2"><a xlink:href="namespacev8_1_1internal.html#aa6b3743bd5d773c552654f2a6c3efa4a" target="_top" xlink:title=" ">
<polygon fill="white" stroke="black" points="771,-300.5 771,-319.5 890,-319.5 890,-300.5 771,-300.5"/>
<text text-anchor="middle" x="830.5" y="-307.5" font-family="Helvetica,sans-Serif" font-size="10.00">v8::internal::DCHECK</text>
</a>
</g>
</g>
<!-- Node1&#45;&gt;Node2 -->
<g id="edge1" class="edge">
<title>Node1&#45;&gt;Node2</title>
<path fill="none" stroke="midnightblue" d="M107.54,-267.61C128.16,-296.89 170.54,-349.28 222,-370 428.31,-453.06 704.6,-359.63 797.51,-323.24"/>
<polygon fill="midnightblue" stroke="midnightblue" points="798.92,-326.45 806.92,-319.5 796.34,-319.94 798.92,-326.45"/>
</g>
<!-- Node3 -->
<g id="node3" class="node">
<title>Node3</title>
<g id="a_node3"><a xlink:href="namespacev8_1_1internal_1_1compiler_1_1turboshaft.html#a2b5e79bd829824237e784a6cde29309e" target="_top" xlink:title=" ">
<polygon fill="white" stroke="black" points="246.5,-330 246.5,-360 367.5,-360 367.5,-330 246.5,-330"/>
<text text-anchor="start" x="254.5" y="-348" font-family="Helvetica,sans-Serif" font-size="10.00">v8::internal::compiler</text>
<text text-anchor="middle" x="307" y="-337" font-family="Helvetica,sans-Serif" font-size="10.00">::turboshaft::Get</text>
</a>
</g>
</g>
<!-- Node1&#45;&gt;Node3 -->
<g id="edge2" class="edge">
<title>Node1&#45;&gt;Node3</title>
<path fill="none" stroke="midnightblue" d="M124.71,-267.64C149.96,-283.9 187.15,-306.21 222,-321 226.68,-322.99 231.57,-324.86 236.55,-326.62"/>
<polygon fill="midnightblue" stroke="midnightblue" points="235.57,-329.99 246.17,-329.87 237.81,-323.36 235.57,-329.99"/>
</g>
<!-- Node5 -->
<g id="node5" class="node">
<title>Node5</title>
<g id="a_node5"><a xlink:href="classv8_1_1internal_1_1compiler_1_1turboshaft_1_1OpIndex.html#a6d74f117c9a3576288033fcddf160101" target="_top" xlink:title=" ">
<polygon fill="white" stroke="black" points="240,-281 240,-311 374,-311 374,-281 240,-281"/>
<text text-anchor="start" x="248" y="-299" font-family="Helvetica,sans-Serif" font-size="10.00">v8::internal::compiler</text>
<text text-anchor="middle" x="307" y="-288" font-family="Helvetica,sans-Serif" font-size="10.00">::turboshaft::OpIndex::id</text>
</a>
</g>
</g>
<!-- Node1&#45;&gt;Node5 -->
<g id="edge4" class="edge">
<title>Node1&#45;&gt;Node5</title>
<path fill="none" stroke="midnightblue" d="M182.99,-267.57C198.97,-271.26 215.49,-275.08 231.03,-278.67"/>
<polygon fill="midnightblue" stroke="midnightblue" points="230.56,-282.16 241.09,-281 232.14,-275.34 230.56,-282.16"/>
</g>
<!-- Node6 -->
<g id="node6" class="node">
<title>Node6</title>
<g id="a_node6"><a xlink:href="classv8_1_1internal_1_1compiler_1_1turboshaft_1_1Block.html#ad6c2f9b5b13eee3121df951653915777" target="_top" xlink:title=" ">
<polygon fill="white" stroke="black" points="238,-232 238,-262 376,-262 376,-232 238,-232"/>
<text text-anchor="start" x="246" y="-250" font-family="Helvetica,sans-Serif" font-size="10.00">v8::internal::compiler</text>
<text text-anchor="middle" x="307" y="-239" font-family="Helvetica,sans-Serif" font-size="10.00">::turboshaft::Block::index</text>
</a>
</g>
</g>
<!-- Node1&#45;&gt;Node6 -->
<g id="edge5" class="edge">
<title>Node1&#45;&gt;Node6</title>
<path fill="none" stroke="midnightblue" d="M186.06,-247C199.95,-247 214.17,-247 227.73,-247"/>
<polygon fill="midnightblue" stroke="midnightblue" points="227.96,-250.5 237.96,-247 227.96,-243.5 227.96,-250.5"/>
</g>
<!-- Node7 -->
<g id="node7" class="node">
<title>Node7</title>
<g id="a_node7"><a xlink:href="classv8_1_1internal_1_1compiler_1_1turboshaft_1_1SnapshotTable.html#ad390981ba9efdd6e4d3e3f71dafdf062" target="_top" xlink:title=" ">
<polygon fill="white" stroke="black" points="222,-183 222,-213 392,-213 392,-183 222,-183"/>
<text text-anchor="start" x="230" y="-201" font-family="Helvetica,sans-Serif" font-size="10.00">v8::internal::compiler</text>
<text text-anchor="middle" x="307" y="-190" font-family="Helvetica,sans-Serif" font-size="10.00">::turboshaft::SnapshotTable::Set</text>
</a>
</g>
</g>
<!-- Node1&#45;&gt;Node7 -->
<g id="edge6" class="edge">
<title>Node1&#45;&gt;Node7</title>
<path fill="none" stroke="midnightblue" d="M182.99,-226.43C198.97,-222.74 215.49,-218.92 231.03,-215.33"/>
<polygon fill="midnightblue" stroke="midnightblue" points="232.14,-218.66 241.09,-213 230.56,-211.84 232.14,-218.66"/>
</g>
<!-- Node9 -->
<g id="node9" class="node">
<title>Node9</title>
<g id="a_node9"><a xlink:href="namespacev8_1_1internal_1_1compiler.html#ac5ce0c8b21982142b95d15490538c3ef" target="_top" xlink:title=" ">
<polygon fill="white" stroke="black" points="246.5,-132 246.5,-162 367.5,-162 367.5,-132 246.5,-132"/>
<text text-anchor="start" x="254.5" y="-150" font-family="Helvetica,sans-Serif" font-size="10.00">v8::internal::compiler</text>
<text text-anchor="middle" x="307" y="-139" font-family="Helvetica,sans-Serif" font-size="10.00">::ToString</text>
</a>
</g>
</g>
<!-- Node1&#45;&gt;Node9 -->
<g id="edge9" class="edge">
<title>Node1&#45;&gt;Node9</title>
<path fill="none" stroke="midnightblue" d="M125.05,-226.4C150.35,-210.27 187.43,-188.12 222,-173 228.2,-170.29 234.78,-167.74 241.41,-165.37"/>
<polygon fill="midnightblue" stroke="midnightblue" points="242.8,-168.59 251.13,-162.04 240.53,-161.97 242.8,-168.59"/>
</g>
<!-- Node15 -->
<g id="node15" class="node">
<title>Node15</title>
<g id="a_node15"><a xlink:href="classv8_1_1internal_1_1compiler_1_1turboshaft_1_1OpIndex.html#ad3816bb041449b3d13b53d55896c8b77" target="_top" xlink:title=" ">
<polygon fill="white" stroke="black" points="246.5,-36.5 246.5,-77.5 367.5,-77.5 367.5,-36.5 246.5,-36.5"/>
<text text-anchor="start" x="254.5" y="-65.5" font-family="Helvetica,sans-Serif" font-size="10.00">v8::internal::compiler</text>
<text text-anchor="start" x="254.5" y="-54.5" font-family="Helvetica,sans-Serif" font-size="10.00">::turboshaft::OpIndex</text>
<text text-anchor="middle" x="307" y="-43.5" font-family="Helvetica,sans-Serif" font-size="10.00">::valid</text>
</a>
</g>
</g>
<!-- Node1&#45;&gt;Node15 -->
<g id="edge18" class="edge">
<title>Node1&#45;&gt;Node15</title>
<path fill="none" stroke="midnightblue" d="M113.71,-226.34C138.28,-200.93 181.93,-156.86 222,-122 237.14,-108.83 254.59,-95.1 269.65,-83.68"/>
<polygon fill="midnightblue" stroke="midnightblue" points="271.86,-86.4 277.74,-77.59 267.65,-80.81 271.86,-86.4"/>
</g>
<!-- Node4 -->
<g id="node4" class="node">
<title>Node4</title>
<g id="a_node4"><a xlink:href="flag-definitions_8h.html#a06b2b7e5d08192bb493bba69cb19a7a8" target="_top" xlink:title=" ">
<polygon fill="white" stroke="black" points="480.5,-338.5 480.5,-357.5 524.5,-357.5 524.5,-338.5 480.5,-338.5"/>
<text text-anchor="middle" x="502.5" y="-345.5" font-family="Helvetica,sans-Serif" font-size="10.00">graph</text>
</a>
</g>
</g>
<!-- Node3&#45;&gt;Node4 -->
<g id="edge3" class="edge">
<title>Node3&#45;&gt;Node4</title>
<path fill="none" stroke="midnightblue" d="M367.64,-345.92C401.36,-346.45 442.17,-347.08 469.8,-347.51"/>
<polygon fill="midnightblue" stroke="midnightblue" points="470.01,-351.01 480.06,-347.67 470.11,-344.01 470.01,-351.01"/>
</g>
<!-- Node7&#45;&gt;Node2 -->
<g id="edge7" class="edge">
<title>Node7&#45;&gt;Node2</title>
<path fill="none" stroke="midnightblue" d="M378.11,-213.06C383.07,-215.59 387.77,-218.55 392,-222 418.81,-243.86 398.85,-272.38 428,-291 481.37,-325.1 660.91,-320.4 760.87,-314.77"/>
<polygon fill="midnightblue" stroke="midnightblue" points="761.09,-318.26 770.88,-314.19 760.69,-311.28 761.09,-318.26"/>
</g>
<!-- Node8 -->
<g id="node8" class="node">
<title>Node8</title>
<g id="a_node8"><a xlink:href="structv8_1_1internal_1_1compiler_1_1turboshaft_1_1SnapshotTable_1_1SnapshotData.html#ad7ead078aef9029c604f0e09859a6e54" target="_top" xlink:title=" ">
<polygon fill="white" stroke="black" points="428,-240.5 428,-281.5 577,-281.5 577,-240.5 428,-240.5"/>
<text text-anchor="start" x="436" y="-269.5" font-family="Helvetica,sans-Serif" font-size="10.00">v8::internal::compiler</text>
<text text-anchor="start" x="436" y="-258.5" font-family="Helvetica,sans-Serif" font-size="10.00">::turboshaft::SnapshotTable</text>
<text text-anchor="middle" x="502.5" y="-247.5" font-family="Helvetica,sans-Serif" font-size="10.00">::SnapshotData::IsSealed</text>
</a>
</g>
</g>
<!-- Node7&#45;&gt;Node8 -->
<g id="edge8" class="edge">
<title>Node7&#45;&gt;Node8</title>
<path fill="none" stroke="midnightblue" d="M362.83,-213.12C372.58,-215.96 382.61,-218.99 392,-222 406.5,-226.65 421.97,-231.95 436.58,-237.11"/>
<polygon fill="midnightblue" stroke="midnightblue" points="435.43,-240.41 446.03,-240.47 437.78,-233.82 435.43,-240.41"/>
</g>
<!-- Node10 -->
<g id="node10" class="node">
<title>Node10</title>
<g id="a_node10"><a xlink:href="classv8_1_1internal_1_1compiler_1_1BytecodeLivenessState.html#afbad6a4bdf9f7b65e4d1b6e788938c88" target="_top" xlink:title=" ">
<polygon fill="white" stroke="black" points="434,-180.5 434,-221.5 571,-221.5 571,-180.5 434,-180.5"/>
<text text-anchor="start" x="442" y="-209.5" font-family="Helvetica,sans-Serif" font-size="10.00">v8::internal::compiler</text>
<text text-anchor="start" x="442" y="-198.5" font-family="Helvetica,sans-Serif" font-size="10.00">::BytecodeLivenessState</text>
<text text-anchor="middle" x="502.5" y="-187.5" font-family="Helvetica,sans-Serif" font-size="10.00">::AccumulatorIsLive</text>
</a>
</g>
</g>
<!-- Node9&#45;&gt;Node10 -->
<g id="edge10" class="edge">
<title>Node9&#45;&gt;Node10</title>
<path fill="none" stroke="midnightblue" d="M361.9,-162.04C381.11,-167.4 403.15,-173.55 423.95,-179.36"/>
<polygon fill="midnightblue" stroke="midnightblue" points="423.15,-182.77 433.72,-182.09 425.03,-176.03 423.15,-182.77"/>
</g>
<!-- Node12 -->
<g id="node12" class="node">
<title>Node12</title>
<g id="a_node12"><a xlink:href="classv8_1_1internal_1_1compiler_1_1BytecodeLivenessState.html#a793aad6cf78732e1b2e6dd291f766b8d" target="_top" xlink:title=" ">
<polygon fill="white" stroke="black" points="434,-60.5 434,-101.5 571,-101.5 571,-60.5 434,-60.5"/>
<text text-anchor="start" x="442" y="-89.5" font-family="Helvetica,sans-Serif" font-size="10.00">v8::internal::compiler</text>
<text text-anchor="start" x="442" y="-78.5" font-family="Helvetica,sans-Serif" font-size="10.00">::BytecodeLivenessState</text>
<text text-anchor="middle" x="502.5" y="-67.5" font-family="Helvetica,sans-Serif" font-size="10.00">::register_count</text>
</a>
</g>
</g>
<!-- Node9&#45;&gt;Node12 -->
<g id="edge13" class="edge">
<title>Node9&#45;&gt;Node12</title>
<path fill="none" stroke="midnightblue" d="M352.39,-131.86C375.85,-123.86 405.17,-113.86 431.6,-104.84"/>
<polygon fill="midnightblue" stroke="midnightblue" points="432.85,-108.11 441.18,-101.57 430.59,-101.49 432.85,-108.11"/>
</g>
<!-- Node14 -->
<g id="node14" class="node">
<title>Node14</title>
<g id="a_node14"><a xlink:href="classv8_1_1internal_1_1compiler_1_1BytecodeLivenessState.html#ad6690d916f8386e37d529179baa973f2" target="_top" xlink:title=" ">
<polygon fill="white" stroke="black" points="434,-120.5 434,-161.5 571,-161.5 571,-120.5 434,-120.5"/>
<text text-anchor="start" x="442" y="-149.5" font-family="Helvetica,sans-Serif" font-size="10.00">v8::internal::compiler</text>
<text text-anchor="start" x="442" y="-138.5" font-family="Helvetica,sans-Serif" font-size="10.00">::BytecodeLivenessState</text>
<text text-anchor="middle" x="502.5" y="-127.5" font-family="Helvetica,sans-Serif" font-size="10.00">::RegisterIsLive</text>
</a>
</g>
</g>
<!-- Node9&#45;&gt;Node14 -->
<g id="edge15" class="edge">
<title>Node9&#45;&gt;Node14</title>
<path fill="none" stroke="midnightblue" d="M367.64,-145.15C385.43,-144.6 405.19,-143.99 423.95,-143.4"/>
<polygon fill="midnightblue" stroke="midnightblue" points="424.06,-146.9 433.95,-143.09 423.85,-139.91 424.06,-146.9"/>
</g>
<!-- Node11 -->
<g id="node11" class="node">
<title>Node11</title>
<g id="a_node11"><a xlink:href="classv8_1_1internal_1_1BitVector.html#a95c0fe99904fe4d054c2e7d4bce8ea53" target="_top" xlink:title=" ">
<polygon fill="white" stroke="black" points="613,-186 613,-216 735,-216 735,-186 613,-186"/>
<text text-anchor="start" x="621" y="-204" font-family="Helvetica,sans-Serif" font-size="10.00">v8::internal::BitVector</text>
<text text-anchor="middle" x="674" y="-193" font-family="Helvetica,sans-Serif" font-size="10.00">::Contains</text>
</a>
</g>
</g>
<!-- Node10&#45;&gt;Node11 -->
<g id="edge11" class="edge">
<title>Node10&#45;&gt;Node11</title>
<path fill="none" stroke="midnightblue" d="M571.47,-201C581.76,-201 592.39,-201 602.73,-201"/>
<polygon fill="midnightblue" stroke="midnightblue" points="602.95,-204.5 612.95,-201 602.95,-197.5 602.95,-204.5"/>
</g>
<!-- Node11&#45;&gt;Node2 -->
<g id="edge12" class="edge">
<title>Node11&#45;&gt;Node2</title>
<path fill="none" stroke="midnightblue" d="M696.48,-216.16C725.79,-236.83 778.02,-273.68 807.56,-294.52"/>
<polygon fill="midnightblue" stroke="midnightblue" points="805.76,-297.54 815.95,-300.44 809.8,-291.82 805.76,-297.54"/>
</g>
<!-- Node13 -->
<g id="node13" class="node">
<title>Node13</title>
<g id="a_node13"><a xlink:href="classv8_1_1internal_1_1BitVector.html#a57aca0b620092de2f8dce99ce7ac9003" target="_top" xlink:title=" ">
<polygon fill="white" stroke="black" points="613,-96 613,-126 735,-126 735,-96 613,-96"/>
<text text-anchor="start" x="621" y="-114" font-family="Helvetica,sans-Serif" font-size="10.00">v8::internal::BitVector</text>
<text text-anchor="middle" x="674" y="-103" font-family="Helvetica,sans-Serif" font-size="10.00">::length</text>
</a>
</g>
</g>
<!-- Node12&#45;&gt;Node13 -->
<g id="edge14" class="edge">
<title>Node12&#45;&gt;Node13</title>
<path fill="none" stroke="midnightblue" d="M571.47,-93.03C581.87,-94.87 592.62,-96.77 603.06,-98.62"/>
<polygon fill="midnightblue" stroke="midnightblue" points="602.49,-102.08 612.95,-100.37 603.71,-95.18 602.49,-102.08"/>
</g>
<!-- Node14&#45;&gt;Node11 -->
<g id="edge16" class="edge">
<title>Node14&#45;&gt;Node11</title>
<path fill="none" stroke="midnightblue" d="M561.83,-161.65C581.08,-168.46 602.34,-175.99 621.08,-182.62"/>
<polygon fill="midnightblue" stroke="midnightblue" points="620.02,-185.96 630.62,-186 622.36,-179.36 620.02,-185.96"/>
</g>
<!-- Node14&#45;&gt;Node13 -->
<g id="edge17" class="edge">
<title>Node14&#45;&gt;Node13</title>
<path fill="none" stroke="midnightblue" d="M571.47,-128.97C581.87,-127.13 592.62,-125.23 603.06,-123.38"/>
<polygon fill="midnightblue" stroke="midnightblue" points="603.71,-126.82 612.95,-121.63 602.49,-119.92 603.71,-126.82"/>
</g>
<!-- Node16 -->
<g id="node16" class="node">
<title>Node16</title>
<g id="a_node16"><a xlink:href="classv8_1_1internal_1_1compiler_1_1turboshaft_1_1OpIndex.html#a19b67749ed68fc8a4883e936589372cc" target="_top" xlink:title=" ">
<polygon fill="white" stroke="black" points="442,-0.5 442,-41.5 563,-41.5 563,-0.5 442,-0.5"/>
<text text-anchor="start" x="450" y="-29.5" font-family="Helvetica,sans-Serif" font-size="10.00">v8::internal::compiler</text>
<text text-anchor="start" x="450" y="-18.5" font-family="Helvetica,sans-Serif" font-size="10.00">::turboshaft::OpIndex</text>
<text text-anchor="middle" x="502.5" y="-7.5" font-family="Helvetica,sans-Serif" font-size="10.00">::Invalid</text>
</a>
</g>
</g>
<!-- Node15&#45;&gt;Node16 -->
<g id="edge19" class="edge">
<title>Node15&#45;&gt;Node16</title>
<path fill="none" stroke="midnightblue" d="M367.64,-45.91C387.96,-42.12 410.86,-37.86 431.89,-33.95"/>
<polygon fill="midnightblue" stroke="midnightblue" points="432.54,-37.39 441.73,-32.12 431.26,-30.51 432.54,-37.39"/>
</g>
<!-- Node17 -->
<g id="node17" class="node">
<title>Node17</title>
<g id="a_node17"><a xlink:href="classv8_1_1internal_1_1compiler_1_1turboshaft_1_1OpIndex.html#ab4b5fe317c55bec21a921ba9cfcfe995" target="_top" xlink:title=" ">
<polygon fill="white" stroke="black" points="613.5,-0.5 613.5,-41.5 734.5,-41.5 734.5,-0.5 613.5,-0.5"/>
<text text-anchor="start" x="621.5" y="-29.5" font-family="Helvetica,sans-Serif" font-size="10.00">v8::internal::compiler</text>
<text text-anchor="start" x="621.5" y="-18.5" font-family="Helvetica,sans-Serif" font-size="10.00">::turboshaft::OpIndex</text>
<text text-anchor="middle" x="674" y="-7.5" font-family="Helvetica,sans-Serif" font-size="10.00">::OpIndex</text>
</a>
</g>
</g>
<!-- Node16&#45;&gt;Node17 -->
<g id="edge20" class="edge">
<title>Node16&#45;&gt;Node17</title>
<path fill="none" stroke="midnightblue" d="M563.26,-21C576.25,-21 590.09,-21 603.42,-21"/>
<polygon fill="midnightblue" stroke="midnightblue" points="603.49,-24.5 613.49,-21 603.49,-17.5 603.49,-24.5"/>
</g>
</g>
</svg>
