<?xml version="1.0" encoding="UTF-8" standalone="no"?>
<!DOCTYPE svg PUBLIC "-//W3C//DTD SVG 1.1//EN"
 "http://www.w3.org/Graphics/SVG/1.1/DTD/svg11.dtd">
<!-- Generated by graphviz version 2.43.0 (0)
 -->
<!-- Title: v8::internal::interpreter::BytecodeArrayBuilder::parameter_count Pages: 1 -->
<svg width="786pt" height="384pt"
 viewBox="0.00 0.00 786.00 383.50" xmlns="http://www.w3.org/2000/svg" xmlns:xlink="http://www.w3.org/1999/xlink">
<g id="graph0" class="graph" transform="scale(1 1) rotate(0) translate(4 379.5)">
<title>v8::internal::interpreter::BytecodeArrayBuilder::parameter_count</title>
<polygon fill="white" stroke="transparent" points="-4,4 -4,-379.5 782,-379.5 782,4 -4,4"/>
<!-- Node1 -->
<g id="node1" class="node">
<title>Node1</title>
<g id="a_node1"><a xlink:title=" ">
<polygon fill="#bfbfbf" stroke="black" points="648,-186.5 648,-227.5 778,-227.5 778,-186.5 648,-186.5"/>
<text text-anchor="start" x="656" y="-215.5" font-family="Helvetica,sans-Serif" font-size="10.00">v8::internal::interpreter</text>
<text text-anchor="start" x="656" y="-204.5" font-family="Helvetica,sans-Serif" font-size="10.00">::BytecodeArrayBuilder</text>
<text text-anchor="middle" x="713" y="-193.5" font-family="Helvetica,sans-Serif" font-size="10.00">::parameter_count</text>
</a>
</g>
</g>
<!-- Node2 -->
<g id="node2" class="node">
<title>Node2</title>
<g id="a_node2"><a xlink:href="classv8_1_1internal_1_1interpreter_1_1BytecodeArrayBuilder.html#a004f92e9c14473af533e0441df577ae4" target="_top" xlink:title=" ">
<polygon fill="white" stroke="black" points="482,-246.5 482,-287.5 612,-287.5 612,-246.5 482,-246.5"/>
<text text-anchor="start" x="490" y="-275.5" font-family="Helvetica,sans-Serif" font-size="10.00">v8::internal::interpreter</text>
<text text-anchor="start" x="490" y="-264.5" font-family="Helvetica,sans-Serif" font-size="10.00">::BytecodeArrayBuilder</text>
<text text-anchor="middle" x="547" y="-253.5" font-family="Helvetica,sans-Serif" font-size="10.00">::BytecodeArrayBuilder</text>
</a>
</g>
</g>
<!-- Node1&#45;&gt;Node2 -->
<g id="edge1" class="edge">
<title>Node1&#45;&gt;Node2</title>
<path fill="none" stroke="midnightblue" d="M646.09,-231.11C632.23,-236.18 617.73,-241.49 604.27,-246.42"/>
<polygon fill="midnightblue" stroke="midnightblue" points="647.37,-234.37 655.56,-227.65 644.97,-227.8 647.37,-234.37"/>
</g>
<!-- Node3 -->
<g id="node3" class="node">
<title>Node3</title>
<g id="a_node3"><a xlink:href="classv8_1_1internal_1_1interpreter_1_1BytecodeArrayBuilder.html#a21e06aecfceb38a8116222e5455d86d1" target="_top" xlink:title=" ">
<polygon fill="white" stroke="black" points="482,-186.5 482,-227.5 612,-227.5 612,-186.5 482,-186.5"/>
<text text-anchor="start" x="490" y="-215.5" font-family="Helvetica,sans-Serif" font-size="10.00">v8::internal::interpreter</text>
<text text-anchor="start" x="490" y="-204.5" font-family="Helvetica,sans-Serif" font-size="10.00">::BytecodeArrayBuilder</text>
<text text-anchor="middle" x="547" y="-193.5" font-family="Helvetica,sans-Serif" font-size="10.00">::RegisterIsValid</text>
</a>
</g>
</g>
<!-- Node1&#45;&gt;Node3 -->
<g id="edge2" class="edge">
<title>Node1&#45;&gt;Node3</title>
<path fill="none" stroke="midnightblue" d="M637.44,-207C629,-207 620.45,-207 612.16,-207"/>
<polygon fill="midnightblue" stroke="midnightblue" points="637.65,-210.5 647.65,-207 637.65,-203.5 637.65,-210.5"/>
</g>
<!-- Node18 -->
<g id="node13" class="node">
<title>Node18</title>
<g id="a_node13"><a xlink:href="classv8_1_1internal_1_1interpreter_1_1BytecodeArrayBuilder.html#ad2b12cab9707a84d42a58bcab552094f" target="_top" xlink:title=" ">
<polygon fill="white" stroke="black" points="482,-96.5 482,-137.5 612,-137.5 612,-96.5 482,-96.5"/>
<text text-anchor="start" x="490" y="-125.5" font-family="Helvetica,sans-Serif" font-size="10.00">v8::internal::interpreter</text>
<text text-anchor="start" x="490" y="-114.5" font-family="Helvetica,sans-Serif" font-size="10.00">::BytecodeArrayBuilder</text>
<text text-anchor="middle" x="547" y="-103.5" font-family="Helvetica,sans-Serif" font-size="10.00">::ToBytecodeArray</text>
</a>
</g>
</g>
<!-- Node1&#45;&gt;Node18 -->
<g id="edge12" class="edge">
<title>Node1&#45;&gt;Node18</title>
<path fill="none" stroke="midnightblue" d="M665.33,-181.39C640.02,-167.5 609.17,-150.57 585.45,-137.55"/>
<polygon fill="midnightblue" stroke="midnightblue" points="663.92,-184.61 674.38,-186.35 667.29,-178.47 663.92,-184.61"/>
</g>
<!-- Node4 -->
<g id="node4" class="node">
<title>Node4</title>
<g id="a_node4"><a xlink:href="classv8_1_1internal_1_1interpreter_1_1BytecodeArrayBuilder.html#a9c40a9b0a73700c75e3872d509caf0d5" target="_top" xlink:title=" ">
<polygon fill="white" stroke="black" points="253.5,-319.5 253.5,-360.5 432.5,-360.5 432.5,-319.5 253.5,-319.5"/>
<text text-anchor="start" x="261.5" y="-348.5" font-family="Helvetica,sans-Serif" font-size="10.00">v8::internal::interpreter</text>
<text text-anchor="start" x="261.5" y="-337.5" font-family="Helvetica,sans-Serif" font-size="10.00">::BytecodeArrayBuilder</text>
<text text-anchor="middle" x="343" y="-326.5" font-family="Helvetica,sans-Serif" font-size="10.00">::GetInputOutputRegisterOperand</text>
</a>
</g>
</g>
<!-- Node3&#45;&gt;Node4 -->
<g id="edge3" class="edge">
<title>Node3&#45;&gt;Node4</title>
<path fill="none" stroke="midnightblue" d="M485.95,-233.57C484.58,-234.68 483.26,-235.82 482,-237 457.87,-259.55 471.03,-280.45 446,-302 437.91,-308.97 428.42,-314.71 418.55,-319.43"/>
<polygon fill="midnightblue" stroke="midnightblue" points="488.09,-236.34 494.18,-227.67 484.01,-230.65 488.09,-236.34"/>
</g>
<!-- Node6 -->
<g id="node6" class="node">
<title>Node6</title>
<g id="a_node6"><a xlink:href="classv8_1_1internal_1_1interpreter_1_1BytecodeArrayBuilder.html#a07608182011d3079dc3933062e6ce065" target="_top" xlink:title=" ">
<polygon fill="white" stroke="black" points="270,-251.5 270,-292.5 416,-292.5 416,-251.5 270,-251.5"/>
<text text-anchor="start" x="278" y="-280.5" font-family="Helvetica,sans-Serif" font-size="10.00">v8::internal::interpreter</text>
<text text-anchor="start" x="278" y="-269.5" font-family="Helvetica,sans-Serif" font-size="10.00">::BytecodeArrayBuilder</text>
<text text-anchor="middle" x="343" y="-258.5" font-family="Helvetica,sans-Serif" font-size="10.00">::GetInputRegisterOperand</text>
</a>
</g>
</g>
<!-- Node3&#45;&gt;Node6 -->
<g id="edge5" class="edge">
<title>Node3&#45;&gt;Node6</title>
<path fill="none" stroke="midnightblue" d="M472.49,-230.65C451.31,-237.47 428.39,-244.85 407.84,-251.46"/>
<polygon fill="midnightblue" stroke="midnightblue" points="473.64,-233.96 482.09,-227.57 471.49,-227.3 473.64,-233.96"/>
</g>
<!-- Node8 -->
<g id="node8" class="node">
<title>Node8</title>
<g id="a_node8"><a xlink:href="classv8_1_1internal_1_1interpreter_1_1BytecodeArrayBuilder.html#a9f6ae11866613432ecf4d112e870dc31" target="_top" xlink:title=" ">
<polygon fill="white" stroke="black" points="265.5,-186.5 265.5,-227.5 420.5,-227.5 420.5,-186.5 265.5,-186.5"/>
<text text-anchor="start" x="273.5" y="-215.5" font-family="Helvetica,sans-Serif" font-size="10.00">v8::internal::interpreter</text>
<text text-anchor="start" x="273.5" y="-204.5" font-family="Helvetica,sans-Serif" font-size="10.00">::BytecodeArrayBuilder</text>
<text text-anchor="middle" x="343" y="-193.5" font-family="Helvetica,sans-Serif" font-size="10.00">::GetOutputRegisterOperand</text>
</a>
</g>
</g>
<!-- Node3&#45;&gt;Node8 -->
<g id="edge7" class="edge">
<title>Node3&#45;&gt;Node8</title>
<path fill="none" stroke="midnightblue" d="M471.63,-207C455.05,-207 437.43,-207 420.75,-207"/>
<polygon fill="midnightblue" stroke="midnightblue" points="471.81,-210.5 481.81,-207 471.81,-203.5 471.81,-210.5"/>
</g>
<!-- Node10 -->
<g id="node10" class="node">
<title>Node10</title>
<g id="a_node10"><a xlink:href="classv8_1_1internal_1_1interpreter_1_1BytecodeArrayBuilder.html#a4eca3351c3058452bab69589f0187bf6" target="_top" xlink:title=" ">
<polygon fill="white" stroke="black" points="278,-120.5 278,-161.5 408,-161.5 408,-120.5 278,-120.5"/>
<text text-anchor="start" x="286" y="-149.5" font-family="Helvetica,sans-Serif" font-size="10.00">v8::internal::interpreter</text>
<text text-anchor="start" x="286" y="-138.5" font-family="Helvetica,sans-Serif" font-size="10.00">::BytecodeArrayBuilder</text>
<text text-anchor="middle" x="343" y="-127.5" font-family="Helvetica,sans-Serif" font-size="10.00">::RegisterListIsValid</text>
</a>
</g>
</g>
<!-- Node3&#45;&gt;Node10 -->
<g id="edge9" class="edge">
<title>Node3&#45;&gt;Node10</title>
<path fill="none" stroke="midnightblue" d="M473.63,-183.35C451.77,-176.21 427.95,-168.43 406.77,-161.51"/>
<polygon fill="midnightblue" stroke="midnightblue" points="472.6,-186.7 483.19,-186.48 474.77,-180.05 472.6,-186.7"/>
</g>
<!-- Node5 -->
<g id="node5" class="node">
<title>Node5</title>
<g id="a_node5"><a xlink:href="classv8_1_1internal_1_1interpreter_1_1anonymous__namespace_02bytecode-array-builder_8cc_03_1_1Opcb91e90d578fc62e3c76059aeec7b630.html#ae77b773912030462592f2d01861b4ad9" target="_top" xlink:title=" ">
<polygon fill="white" stroke="black" points="0,-323 0,-375 204,-375 204,-323 0,-323"/>
<text text-anchor="start" x="8" y="-363" font-family="Helvetica,sans-Serif" font-size="10.00">v8::internal::interpreter</text>
<text text-anchor="start" x="8" y="-352" font-family="Helvetica,sans-Serif" font-size="10.00">::anonymous_namespace{bytecode</text>
<text text-anchor="start" x="8" y="-341" font-family="Helvetica,sans-Serif" font-size="10.00">&#45;array&#45;builder.cc}::OperandHelper</text>
<text text-anchor="middle" x="102" y="-330" font-family="Helvetica,sans-Serif" font-size="10.00">&lt; OperandType::kRegInOut &gt;::Convert</text>
</a>
</g>
</g>
<!-- Node4&#45;&gt;Node5 -->
<g id="edge4" class="edge">
<title>Node4&#45;&gt;Node5</title>
<path fill="none" stroke="midnightblue" d="M243.16,-343.72C230.37,-344.2 217.24,-344.7 204.41,-345.18"/>
<polygon fill="midnightblue" stroke="midnightblue" points="243.48,-347.21 253.34,-343.34 243.22,-340.22 243.48,-347.21"/>
</g>
<!-- Node7 -->
<g id="node7" class="node">
<title>Node7</title>
<g id="a_node7"><a xlink:href="classv8_1_1internal_1_1interpreter_1_1anonymous__namespace_02bytecode-array-builder_8cc_03_1_1Opd4f03bdbb8dbd630c960fc2e98f07a7e.html#a3a3c8780e640f278b405f0f7d5a4f346" target="_top" xlink:title=" ">
<polygon fill="white" stroke="black" points="6,-252 6,-304 198,-304 198,-252 6,-252"/>
<text text-anchor="start" x="14" y="-292" font-family="Helvetica,sans-Serif" font-size="10.00">v8::internal::interpreter</text>
<text text-anchor="start" x="14" y="-281" font-family="Helvetica,sans-Serif" font-size="10.00">::anonymous_namespace{bytecode</text>
<text text-anchor="start" x="14" y="-270" font-family="Helvetica,sans-Serif" font-size="10.00">&#45;array&#45;builder.cc}::OperandHelper</text>
<text text-anchor="middle" x="102" y="-259" font-family="Helvetica,sans-Serif" font-size="10.00">&lt; OperandType::kReg &gt;::Convert</text>
</a>
</g>
</g>
<!-- Node6&#45;&gt;Node7 -->
<g id="edge6" class="edge">
<title>Node6&#45;&gt;Node7</title>
<path fill="none" stroke="midnightblue" d="M259.77,-274.06C239.97,-274.56 218.65,-275.1 198.31,-275.61"/>
<polygon fill="midnightblue" stroke="midnightblue" points="260.06,-277.56 269.97,-273.81 259.88,-270.56 260.06,-277.56"/>
</g>
<!-- Node9 -->
<g id="node9" class="node">
<title>Node9</title>
<g id="a_node9"><a xlink:href="classv8_1_1internal_1_1interpreter_1_1anonymous__namespace_02bytecode-array-builder_8cc_03_1_1Op9c78ba3f29052962b15f5f9082c23382.html#ac9a0b5b47880b53b4b24c88a7483a957" target="_top" xlink:title=" ">
<polygon fill="white" stroke="black" points="4.5,-181 4.5,-233 199.5,-233 199.5,-181 4.5,-181"/>
<text text-anchor="start" x="12.5" y="-221" font-family="Helvetica,sans-Serif" font-size="10.00">v8::internal::interpreter</text>
<text text-anchor="start" x="12.5" y="-210" font-family="Helvetica,sans-Serif" font-size="10.00">::anonymous_namespace{bytecode</text>
<text text-anchor="start" x="12.5" y="-199" font-family="Helvetica,sans-Serif" font-size="10.00">&#45;array&#45;builder.cc}::OperandHelper</text>
<text text-anchor="middle" x="102" y="-188" font-family="Helvetica,sans-Serif" font-size="10.00">&lt; OperandType::kRegOut &gt;::Convert</text>
</a>
</g>
</g>
<!-- Node8&#45;&gt;Node9 -->
<g id="edge8" class="edge">
<title>Node8&#45;&gt;Node9</title>
<path fill="none" stroke="midnightblue" d="M255.21,-207C237.19,-207 218.1,-207 199.74,-207"/>
<polygon fill="midnightblue" stroke="midnightblue" points="255.39,-210.5 265.39,-207 255.39,-203.5 255.39,-210.5"/>
</g>
<!-- Node11 -->
<g id="node11" class="node">
<title>Node11</title>
<g id="a_node11"><a xlink:href="classv8_1_1internal_1_1interpreter_1_1BytecodeArrayBuilder.html#aa5cfdfdded542151a5c156f00b0b6caf" target="_top" xlink:title=" ">
<polygon fill="white" stroke="red" points="20,-120.5 20,-161.5 184,-161.5 184,-120.5 20,-120.5"/>
<text text-anchor="start" x="28" y="-149.5" font-family="Helvetica,sans-Serif" font-size="10.00">v8::internal::interpreter</text>
<text text-anchor="start" x="28" y="-138.5" font-family="Helvetica,sans-Serif" font-size="10.00">::BytecodeArrayBuilder</text>
<text text-anchor="middle" x="102" y="-127.5" font-family="Helvetica,sans-Serif" font-size="10.00">::GetInputRegisterListOperand</text>
</a>
</g>
</g>
<!-- Node10&#45;&gt;Node11 -->
<g id="edge10" class="edge">
<title>Node10&#45;&gt;Node11</title>
<path fill="none" stroke="midnightblue" d="M267.63,-141C241.21,-141 211.35,-141 184.37,-141"/>
<polygon fill="midnightblue" stroke="midnightblue" points="267.95,-144.5 277.95,-141 267.95,-137.5 267.95,-144.5"/>
</g>
<!-- Node14 -->
<g id="node12" class="node">
<title>Node14</title>
<g id="a_node12"><a xlink:href="classv8_1_1internal_1_1interpreter_1_1BytecodeArrayBuilder.html#a275a9fc3b87d150d22a1abe8c41e0d40" target="_top" xlink:title=" ">
<polygon fill="white" stroke="red" points="16,-60.5 16,-101.5 188,-101.5 188,-60.5 16,-60.5"/>
<text text-anchor="start" x="24" y="-89.5" font-family="Helvetica,sans-Serif" font-size="10.00">v8::internal::interpreter</text>
<text text-anchor="start" x="24" y="-78.5" font-family="Helvetica,sans-Serif" font-size="10.00">::BytecodeArrayBuilder</text>
<text text-anchor="middle" x="102" y="-67.5" font-family="Helvetica,sans-Serif" font-size="10.00">::GetOutputRegisterListOperand</text>
</a>
</g>
</g>
<!-- Node10&#45;&gt;Node14 -->
<g id="edge11" class="edge">
<title>Node10&#45;&gt;Node14</title>
<path fill="none" stroke="midnightblue" d="M268.03,-122.43C241.66,-115.81 211.81,-108.32 184.81,-101.54"/>
<polygon fill="midnightblue" stroke="midnightblue" points="267.4,-125.88 277.95,-124.92 269.11,-119.09 267.4,-125.88"/>
</g>
<!-- Node19 -->
<g id="node14" class="node">
<title>Node19</title>
<g id="a_node14"><a xlink:href="classv8_1_1internal_1_1interpreter_1_1BytecodeGenerator.html#af0752d4fab3ef7af92ee1f1ca52d0967" target="_top" xlink:title=" ">
<polygon fill="white" stroke="black" points="240,-39 240,-69 446,-69 446,-39 240,-39"/>
<text text-anchor="start" x="248" y="-57" font-family="Helvetica,sans-Serif" font-size="10.00">v8::internal::interpreter</text>
<text text-anchor="middle" x="343" y="-46" font-family="Helvetica,sans-Serif" font-size="10.00">::BytecodeGenerator::FinalizeBytecode</text>
</a>
</g>
</g>
<!-- Node18&#45;&gt;Node19 -->
<g id="edge13" class="edge">
<title>Node18&#45;&gt;Node19</title>
<path fill="none" stroke="midnightblue" d="M472.14,-93.96C445.53,-85.66 416.19,-76.52 392.32,-69.07"/>
<polygon fill="midnightblue" stroke="midnightblue" points="471.22,-97.34 481.81,-96.98 473.3,-90.66 471.22,-97.34"/>
</g>
<!-- Node20 -->
<g id="node15" class="node">
<title>Node20</title>
<g id="a_node15"><a xlink:href="classv8_1_1internal_1_1interpreter_1_1InterpreterCompilationJob.html#ac430432ebc5b586eea34e724cb6854c0" target="_top" xlink:title=" ">
<polygon fill="white" stroke="red" points="27.5,-0.5 27.5,-41.5 176.5,-41.5 176.5,-0.5 27.5,-0.5"/>
<text text-anchor="start" x="35.5" y="-29.5" font-family="Helvetica,sans-Serif" font-size="10.00">v8::internal::interpreter</text>
<text text-anchor="start" x="35.5" y="-18.5" font-family="Helvetica,sans-Serif" font-size="10.00">::InterpreterCompilationJob</text>
<text text-anchor="middle" x="102" y="-7.5" font-family="Helvetica,sans-Serif" font-size="10.00">::DoFinalizeJobImpl</text>
</a>
</g>
</g>
<!-- Node19&#45;&gt;Node20 -->
<g id="edge14" class="edge">
<title>Node19&#45;&gt;Node20</title>
<path fill="none" stroke="midnightblue" d="M229.91,-38.52C211.79,-36.02 193.43,-33.49 176.53,-31.15"/>
<polygon fill="midnightblue" stroke="midnightblue" points="229.56,-42.01 239.95,-39.91 230.52,-35.07 229.56,-42.01"/>
</g>
</g>
</svg>
