<?xml version="1.0" encoding="UTF-8" standalone="no"?>
<!DOCTYPE svg PUBLIC "-//W3C//DTD SVG 1.1//EN"
 "http://www.w3.org/Graphics/SVG/1.1/DTD/svg11.dtd">
<!-- Generated by graphviz version 2.43.0 (0)
 -->
<!-- Title: v8::internal::PreparseData::SizeFor Pages: 1 -->
<svg width="429pt" height="39pt"
 viewBox="0.00 0.00 429.00 39.00" xmlns="http://www.w3.org/2000/svg" xmlns:xlink="http://www.w3.org/1999/xlink">
<g id="graph0" class="graph" transform="scale(1 1) rotate(0) translate(4 35)">
<title>v8::internal::PreparseData::SizeFor</title>
<polygon fill="white" stroke="transparent" points="-4,4 -4,-35 425,-35 425,4 -4,4"/>
<!-- Node1 -->
<g id="node1" class="node">
<title>Node1</title>
<g id="a_node1"><a xlink:title=" ">
<polygon fill="#bfbfbf" stroke="black" points="0,-0.5 0,-30.5 144,-30.5 144,-0.5 0,-0.5"/>
<text text-anchor="start" x="8" y="-18.5" font-family="Helvetica,sans-Serif" font-size="10.00">v8::internal::PreparseData</text>
<text text-anchor="middle" x="72" y="-7.5" font-family="Helvetica,sans-Serif" font-size="10.00">::SizeFor</text>
</a>
</g>
</g>
<!-- Node2 -->
<g id="node2" class="node">
<title>Node2</title>
<g id="a_node2"><a xlink:href="classv8_1_1internal_1_1PreparseData.html#a1de76595c302ca0a2e23686ca2245979" target="_top" xlink:title=" ">
<polygon fill="white" stroke="black" points="180,-0.5 180,-30.5 324,-30.5 324,-0.5 180,-0.5"/>
<text text-anchor="start" x="188" y="-18.5" font-family="Helvetica,sans-Serif" font-size="10.00">v8::internal::PreparseData</text>
<text text-anchor="middle" x="252" y="-7.5" font-family="Helvetica,sans-Serif" font-size="10.00">::InnerOffset</text>
</a>
</g>
</g>
<!-- Node1&#45;&gt;Node2 -->
<g id="edge1" class="edge">
<title>Node1&#45;&gt;Node2</title>
<path fill="none" stroke="midnightblue" d="M144.12,-15.5C152.61,-15.5 161.33,-15.5 169.94,-15.5"/>
<polygon fill="midnightblue" stroke="midnightblue" points="170,-19 180,-15.5 170,-12 170,-19"/>
</g>
<!-- Node3 -->
<g id="node3" class="node">
<title>Node3</title>
<g id="a_node3"><a xlink:href="src_2base_2macros_8h.html#a5113f5db9eec9c30ecea57b8d4175f2d" target="_top" xlink:title=" ">
<polygon fill="white" stroke="black" points="360,-6 360,-25 421,-25 421,-6 360,-6"/>
<text text-anchor="middle" x="390.5" y="-13" font-family="Helvetica,sans-Serif" font-size="10.00">RoundUp</text>
</a>
</g>
</g>
<!-- Node2&#45;&gt;Node3 -->
<g id="edge2" class="edge">
<title>Node2&#45;&gt;Node3</title>
<path fill="none" stroke="midnightblue" d="M324.05,-15.5C332.88,-15.5 341.64,-15.5 349.75,-15.5"/>
<polygon fill="midnightblue" stroke="midnightblue" points="349.99,-19 359.99,-15.5 349.99,-12 349.99,-19"/>
</g>
</g>
</svg>
