<?xml version="1.0" encoding="UTF-8" standalone="no"?>
<!DOCTYPE svg PUBLIC "-//W3C//DTD SVG 1.1//EN"
 "http://www.w3.org/Graphics/SVG/1.1/DTD/svg11.dtd">
<!-- Generated by graphviz version 2.43.0 (0)
 -->
<!-- Title: v8::internal::wasm::anonymous_namespace{liftoff&#45;compiler::cc}::LiftoffCompiler::EmitTypeConversion Pages: 1 -->
<!--zoomable 127 -->
<svg id="main" version="1.1" xmlns="http://www.w3.org/2000/svg" xmlns:xlink="http://www.w3.org/1999/xlink" xml:space="preserve" onload="init(evt)">
<style type="text/css"><![CDATA[
.edge:hover path { stroke: red; }
.edge:hover polygon { stroke: red; fill: red; }
]]></style>
<script type="text/javascript"><![CDATA[
var edges = document.getElementsByTagName('g');
if (edges && edges.length) {
  for (var i=0;i<edges.length;i++) {
    if (edges[i].id.substr(0,4)=='edge') {
      edges[i].setAttribute('class','edge');
    }
  }
}
]]></script>
        <defs>
                <circle id="rim" cx="0" cy="0" r="7"/>
                <circle id="rim2" cx="0" cy="0" r="3.5"/>
                <g id="zoomPlus">
                        <use xlink:href="#rim" fill="#404040">
                                <set attributeName="fill" to="#808080" begin="zoomplus.mouseover" end="zoomplus.mouseout"/>
                        </use>
                        <path d="M-4,0h8M0,-4v8" fill="none" stroke="white" stroke-width="1.5" pointer-events="none"/>
                </g>
                <g id="zoomMin">
                        <use xlink:href="#rim" fill="#404040">
                                <set attributeName="fill" to="#808080" begin="zoomminus.mouseover" end="zoomminus.mouseout"/>
                        </use>
                        <path d="M-4,0h8" fill="none" stroke="white" stroke-width="1.5" pointer-events="none"/>
                </g>
                <g id="dirArrow">
                        <path fill="none" stroke="white" stroke-width="1.5" d="M0,-3.0v7 M-2.5,-0.5L0,-3.0L2.5,-0.5"/>
                </g>
               <g id="resetDef">
                       <use xlink:href="#rim2" fill="#404040">
                               <set attributeName="fill" to="#808080" begin="reset.mouseover" end="reset.mouseout"/>
                       </use>
               </g>
        </defs>

<script type="text/javascript">
var viewWidth = 845;
var viewHeight = 127;
var sectionId = 'dynsection-94';
</script>
<script xlink:href="svgpan.js"/>
<svg id="graph" class="graph">
<g id="viewport">
<title>v8::internal::wasm::anonymous_namespace{liftoff&#45;compiler::cc}::LiftoffCompiler::EmitTypeConversion</title>
<polygon fill="white" stroke="transparent" points="-4,4 -4,-122.5 841,-122.5 841,4 -4,4"/>
<!-- Node1 -->
<g id="node1" class="node">
<title>Node1</title>
<g id="a_node1"><a xlink:title=" ">
<polygon fill="#bfbfbf" stroke="black" points="0,-13.5 0,-65.5 200,-65.5 200,-13.5 0,-13.5"/>
<text text-anchor="start" x="8" y="-53.5" font-family="Helvetica,sans-Serif" font-size="10.00">v8::internal::wasm</text>
<text text-anchor="start" x="8" y="-42.5" font-family="Helvetica,sans-Serif" font-size="10.00">::anonymous_namespace</text>
<text text-anchor="start" x="8" y="-31.5" font-family="Helvetica,sans-Serif" font-size="10.00">{liftoff&#45;compiler::cc}</text>
<text text-anchor="middle" x="100" y="-20.5" font-family="Helvetica,sans-Serif" font-size="10.00">::LiftoffCompiler::EmitTypeConversion</text>
</a>
</g>
</g>
<!-- Node2 -->
<g id="node2" class="node">
<title>Node2</title>
<g id="a_node2"><a xlink:href="classv8_1_1internal_1_1wasm_1_1LiftoffRegister.html#afea974be4a8509ca2745cefe9522f434" target="_top" xlink:title=" ">
<polygon fill="white" stroke="black" points="236,-49.5 236,-79.5 345,-79.5 345,-49.5 236,-49.5"/>
<text text-anchor="start" x="244" y="-67.5" font-family="Helvetica,sans-Serif" font-size="10.00">v8::internal::wasm</text>
<text text-anchor="middle" x="290.5" y="-56.5" font-family="Helvetica,sans-Serif" font-size="10.00">::LiftoffRegister::gp</text>
</a>
</g>
</g>
<!-- Node1&#45;&gt;Node2 -->
<g id="edge1" class="edge">
<title>Node1&#45;&gt;Node2</title>
<path fill="none" stroke="midnightblue" d="M200.22,-52.66C208.92,-53.81 217.57,-54.96 225.86,-56.06"/>
<polygon fill="midnightblue" stroke="midnightblue" points="225.4,-59.53 235.77,-57.37 226.32,-52.59 225.4,-59.53"/>
</g>
<!-- Node15 -->
<g id="node8" class="node">
<title>Node15</title>
<g id="a_node8"><a xlink:href="namespacev8_1_1internal_1_1wasm.html#a1583c3a8b98e77812492713f7b9170ad" target="_top" xlink:title=" ">
<polygon fill="white" stroke="black" points="237,-0.5 237,-30.5 344,-30.5 344,-0.5 237,-0.5"/>
<text text-anchor="start" x="245" y="-18.5" font-family="Helvetica,sans-Serif" font-size="10.00">v8::internal::wasm</text>
<text text-anchor="middle" x="290.5" y="-7.5" font-family="Helvetica,sans-Serif" font-size="10.00">::reg_class_for</text>
</a>
</g>
</g>
<!-- Node1&#45;&gt;Node15 -->
<g id="edge8" class="edge">
<title>Node1&#45;&gt;Node15</title>
<path fill="none" stroke="midnightblue" d="M200.22,-26.87C209.17,-25.73 218.07,-24.59 226.58,-23.51"/>
<polygon fill="midnightblue" stroke="midnightblue" points="227.27,-26.95 236.74,-22.22 226.38,-20.01 227.27,-26.95"/>
</g>
<!-- Node3 -->
<g id="node3" class="node">
<title>Node3</title>
<g id="a_node3"><a xlink:href="namespacev8_1_1internal.html#aa6b3743bd5d773c552654f2a6c3efa4a" target="_top" xlink:title=" ">
<polygon fill="white" stroke="black" points="382.5,-99 382.5,-118 501.5,-118 501.5,-99 382.5,-99"/>
<text text-anchor="middle" x="442" y="-106" font-family="Helvetica,sans-Serif" font-size="10.00">v8::internal::DCHECK</text>
</a>
</g>
</g>
<!-- Node2&#45;&gt;Node3 -->
<g id="edge2" class="edge">
<title>Node2&#45;&gt;Node3</title>
<path fill="none" stroke="midnightblue" d="M342.53,-79.52C360.77,-84.89 381.12,-90.88 398.56,-96.01"/>
<polygon fill="midnightblue" stroke="midnightblue" points="397.87,-99.46 408.46,-98.92 399.85,-92.74 397.87,-99.46"/>
</g>
<!-- Node4 -->
<g id="node4" class="node">
<title>Node4</title>
<g id="a_node4"><a xlink:href="classv8_1_1internal_1_1Register.html#a161b31fbba410d1c513ae779df7b9cbb" target="_top" xlink:title=" ">
<polygon fill="white" stroke="black" points="382.5,-49.5 382.5,-79.5 501.5,-79.5 501.5,-49.5 382.5,-49.5"/>
<text text-anchor="start" x="390.5" y="-67.5" font-family="Helvetica,sans-Serif" font-size="10.00">v8::internal::Register</text>
<text text-anchor="middle" x="442" y="-56.5" font-family="Helvetica,sans-Serif" font-size="10.00">::from_code</text>
</a>
</g>
</g>
<!-- Node2&#45;&gt;Node4 -->
<g id="edge3" class="edge">
<title>Node2&#45;&gt;Node4</title>
<path fill="none" stroke="midnightblue" d="M345.05,-64.5C353.82,-64.5 363.01,-64.5 372.08,-64.5"/>
<polygon fill="midnightblue" stroke="midnightblue" points="372.25,-68 382.25,-64.5 372.25,-61 372.25,-68"/>
</g>
<!-- Node14 -->
<g id="node7" class="node">
<title>Node14</title>
<g id="a_node7"><a xlink:href="classv8_1_1internal_1_1wasm_1_1LiftoffRegister.html#a77135ea37005f440316679884cb2773d" target="_top" xlink:title=" ">
<polygon fill="white" stroke="black" points="381,-0.5 381,-30.5 503,-30.5 503,-0.5 381,-0.5"/>
<text text-anchor="start" x="389" y="-18.5" font-family="Helvetica,sans-Serif" font-size="10.00">v8::internal::wasm</text>
<text text-anchor="middle" x="442" y="-7.5" font-family="Helvetica,sans-Serif" font-size="10.00">::LiftoffRegister::is_gp</text>
</a>
</g>
</g>
<!-- Node2&#45;&gt;Node14 -->
<g id="edge7" class="edge">
<title>Node2&#45;&gt;Node14</title>
<path fill="none" stroke="midnightblue" d="M337.57,-49.4C352.71,-44.44 369.69,-38.87 385.45,-33.71"/>
<polygon fill="midnightblue" stroke="midnightblue" points="386.66,-36.99 395.08,-30.55 384.48,-30.34 386.66,-36.99"/>
</g>
<!-- Node5 -->
<g id="node5" class="node">
<title>Node5</title>
<g id="a_node5"><a xlink:href="classv8_1_1internal_1_1RegisterBase.html#ae4f77df87f77114f40f3e8968e1c4a12" target="_top" xlink:title=" ">
<polygon fill="white" stroke="black" points="694,-44 694,-85 837,-85 837,-44 694,-44"/>
<text text-anchor="start" x="702" y="-73" font-family="Helvetica,sans-Serif" font-size="10.00">v8::internal::RegisterBase</text>
<text text-anchor="start" x="702" y="-62" font-family="Helvetica,sans-Serif" font-size="10.00">&lt; Register, kRegAfterLast</text>
<text text-anchor="middle" x="765.5" y="-51" font-family="Helvetica,sans-Serif" font-size="10.00"> &gt;::code</text>
</a>
</g>
</g>
<!-- Node4&#45;&gt;Node5 -->
<g id="edge4" class="edge">
<title>Node4&#45;&gt;Node5</title>
<path fill="none" stroke="midnightblue" d="M501.63,-65.92C513.98,-66.16 526.91,-66.37 539,-66.5 591.89,-67.05 605.11,-67 658,-66.5 666.31,-66.42 674.98,-66.31 683.63,-66.18"/>
<polygon fill="midnightblue" stroke="midnightblue" points="683.81,-69.68 693.75,-66.01 683.7,-62.68 683.81,-69.68"/>
</g>
<!-- Node6 -->
<g id="node6" class="node">
<title>Node6</title>
<g id="a_node6"><a xlink:href="classv8_1_1internal_1_1Register.html#ab09a490595780af1e02a2c1807138f15" target="_top" xlink:title=" ">
<polygon fill="white" stroke="red" points="539,-27.5 539,-57.5 658,-57.5 658,-27.5 539,-27.5"/>
<text text-anchor="start" x="547" y="-45.5" font-family="Helvetica,sans-Serif" font-size="10.00">v8::internal::Register</text>
<text text-anchor="middle" x="598.5" y="-34.5" font-family="Helvetica,sans-Serif" font-size="10.00">::Create</text>
</a>
</g>
</g>
<!-- Node4&#45;&gt;Node6 -->
<g id="edge5" class="edge">
<title>Node4&#45;&gt;Node6</title>
<path fill="none" stroke="midnightblue" d="M501.85,-56.12C510.65,-54.87 519.78,-53.57 528.77,-52.29"/>
<polygon fill="midnightblue" stroke="midnightblue" points="529.41,-55.73 538.81,-50.86 528.42,-48.8 529.41,-55.73"/>
</g>
<!-- Node6&#45;&gt;Node5 -->
<g id="edge6" class="edge">
<title>Node6&#45;&gt;Node5</title>
<path fill="none" stroke="midnightblue" d="M658.14,-50.32C666.46,-51.43 675.14,-52.58 683.79,-53.74"/>
<polygon fill="midnightblue" stroke="midnightblue" points="683.53,-57.24 693.91,-55.09 684.46,-50.3 683.53,-57.24"/>
</g>
</g>
</svg>
        <g id="navigator" transform="translate(0 0)" fill="#404254">
                <rect fill="#f2f5e9" fill-opacity="0.5" stroke="#606060" stroke-width=".5" x="0" y="0" width="60" height="60"/>
                <use id="zoomplus" xlink:href="#zoomPlus" x="17" y="9" onmousedown="handleZoom(evt,'in')"/>
                <use id="zoomminus" xlink:href="#zoomMin" x="42" y="9" onmousedown="handleZoom(evt,'out')"/>
                <use id="reset" xlink:href="#resetDef" x="30" y="36" onmousedown="handleReset()"/>
                <g id="arrowUp" xlink:href="#dirArrow" transform="translate(30 24)" onmousedown="handlePan(0,-1)">
                  <use xlink:href="#rim" fill="#404040">
                        <set attributeName="fill" to="#808080" begin="arrowUp.mouseover" end="arrowUp.mouseout"/>
                  </use>
                  <path fill="none" stroke="white" stroke-width="1.5" d="M0,-3.0v7 M-2.5,-0.5L0,-3.0L2.5,-0.5"/>
                </g>
                <g id="arrowRight" xlink:href="#dirArrow" transform="rotate(90) translate(36 -43)" onmousedown="handlePan(1,0)">
                  <use xlink:href="#rim" fill="#404040">
                        <set attributeName="fill" to="#808080" begin="arrowRight.mouseover" end="arrowRight.mouseout"/>
                  </use>
                  <path fill="none" stroke="white" stroke-width="1.5" d="M0,-3.0v7 M-2.5,-0.5L0,-3.0L2.5,-0.5"/>
                </g>
                <g id="arrowDown" xlink:href="#dirArrow" transform="rotate(180) translate(-30 -48)" onmousedown="handlePan(0,1)">
                  <use xlink:href="#rim" fill="#404040">
                        <set attributeName="fill" to="#808080" begin="arrowDown.mouseover" end="arrowDown.mouseout"/>
                  </use>
                  <path fill="none" stroke="white" stroke-width="1.5" d="M0,-3.0v7 M-2.5,-0.5L0,-3.0L2.5,-0.5"/>
                </g>
                <g id="arrowLeft" xlink:href="#dirArrow" transform="rotate(270) translate(-36 17)" onmousedown="handlePan(-1,0)">
                  <use xlink:href="#rim" fill="#404040">
                        <set attributeName="fill" to="#808080" begin="arrowLeft.mouseover" end="arrowLeft.mouseout"/>
                  </use>
                  <path fill="none" stroke="white" stroke-width="1.5" d="M0,-3.0v7 M-2.5,-0.5L0,-3.0L2.5,-0.5"/>
                </g>
        </g>
        <svg viewBox="0 0 15 15" width="100%" height="30px" preserveAspectRatio="xMaxYMin meet">
         <g id="arrow_out" transform="scale(0.3 0.3)">
          <a xlink:href="classv8_1_1internal_1_1wasm_1_1anonymous__namespace_02liftoff-compiler_8cc_03_1_1LiftoffCompiler_a511319f5e11acbbb0ba72b330c9119bd_cgraph_org.svg" target="_base">
           <rect id="button" ry="5" rx="5" y="6" x="6" height="38" width="38"
                fill="#f2f5e9" fill-opacity="0.5" stroke="#606060" stroke-width="1.0"/>
           <path id="arrow"
             d="M 11.500037,31.436501 C 11.940474,20.09759 22.043105,11.32322 32.158766,21.979434 L 37.068811,17.246167 C 37.068811,17.246167 37.088388,32 37.088388,32 L 22.160133,31.978069 C 22.160133,31.978069 26.997745,27.140456 26.997745,27.140456 C 18.528582,18.264221 13.291696,25.230495 11.500037,31.436501 z"
             style="fill:#404040;"/>
          </a>
         </g>
        </svg>
</svg>
