<?xml version="1.0" encoding="UTF-8" standalone="no"?>
<!DOCTYPE svg PUBLIC "-//W3C//DTD SVG 1.1//EN"
 "http://www.w3.org/Graphics/SVG/1.1/DTD/svg11.dtd">
<!-- Generated by graphviz version 2.43.0 (0)
 -->
<!-- Title: v8::internal::compiler::OtherNumberConstantType Pages: 1 -->
<svg width="261pt" height="364pt"
 viewBox="0.00 0.00 261.00 364.00" xmlns="http://www.w3.org/2000/svg" xmlns:xlink="http://www.w3.org/1999/xlink">
<g id="graph0" class="graph" transform="scale(1 1) rotate(0) translate(4 360)">
<title>v8::internal::compiler::OtherNumberConstantType</title>
<polygon fill="white" stroke="transparent" points="-4,4 -4,-360 257,-360 257,4 -4,4"/>
<!-- Node1 -->
<g id="node1" class="node">
<title>Node1</title>
<g id="a_node1"><a xlink:title=" ">
<polygon fill="#bfbfbf" stroke="black" points="83,-0.5 83,-112.5 246,-112.5 246,-0.5 83,-0.5"/>
<text text-anchor="start" x="91" y="-100.5" font-family="Helvetica,sans-Serif" font-size="10.00">v8::internal::compiler</text>
<text text-anchor="middle" x="164.5" y="-89.5" font-family="Helvetica,sans-Serif" font-size="10.00">::OtherNumberConstantType</text>
<polyline fill="none" stroke="black" points="83,-82.5 246,-82.5 "/>
<text text-anchor="middle" x="164.5" y="-70.5" font-family="Helvetica,sans-Serif" font-size="10.00"> </text>
<polyline fill="none" stroke="black" points="83,-63.5 246,-63.5 "/>
<text text-anchor="start" x="91" y="-51.5" font-family="Helvetica,sans-Serif" font-size="10.00">+ Value()</text>
<text text-anchor="start" x="91" y="-40.5" font-family="Helvetica,sans-Serif" font-size="10.00">+ IsOtherNumberConstant()</text>
<text text-anchor="start" x="91" y="-29.5" font-family="Helvetica,sans-Serif" font-size="10.00">&#45; OtherNumberConstantType()</text>
<text text-anchor="start" x="91" y="-18.5" font-family="Helvetica,sans-Serif" font-size="10.00">&#45; Lub()</text>
<text text-anchor="start" x="91" y="-7.5" font-family="Helvetica,sans-Serif" font-size="10.00">&#45; New()</text>
</a>
</g>
</g>
<!-- Node2 -->
<g id="node2" class="node">
<title>Node2</title>
<g id="a_node2"><a xlink:href="classv8_1_1internal_1_1compiler_1_1TypeBase.html" target="_top" xlink:title=" ">
<polygon fill="white" stroke="black" points="0,-160.5 0,-250.5 121,-250.5 121,-160.5 0,-160.5"/>
<text text-anchor="start" x="8" y="-238.5" font-family="Helvetica,sans-Serif" font-size="10.00">v8::internal::compiler</text>
<text text-anchor="middle" x="60.5" y="-227.5" font-family="Helvetica,sans-Serif" font-size="10.00">::TypeBase</text>
<polyline fill="none" stroke="black" points="0,-220.5 121,-220.5 "/>
<text text-anchor="middle" x="60.5" y="-208.5" font-family="Helvetica,sans-Serif" font-size="10.00"> </text>
<polyline fill="none" stroke="black" points="0,-201.5 121,-201.5 "/>
<text text-anchor="start" x="8" y="-189.5" font-family="Helvetica,sans-Serif" font-size="10.00"># kind()</text>
<text text-anchor="start" x="8" y="-178.5" font-family="Helvetica,sans-Serif" font-size="10.00"># TypeBase()</text>
<text text-anchor="start" x="8" y="-167.5" font-family="Helvetica,sans-Serif" font-size="10.00"># IsKind()</text>
</a>
</g>
</g>
<!-- Node2&#45;&gt;Node1 -->
<g id="edge1" class="edge">
<title>Node2&#45;&gt;Node1</title>
<path fill="none" stroke="midnightblue" d="M97.57,-152.11C106.65,-139.26 116.41,-125.48 125.58,-112.52"/>
<polygon fill="none" stroke="midnightblue" points="94.62,-150.21 91.7,-160.4 100.34,-154.25 94.62,-150.21"/>
</g>
<!-- Node3 -->
<g id="node3" class="node">
<title>Node3</title>
<g id="a_node3"><a xlink:title=" ">
<polygon fill="white" stroke="#bfbfbf" points="41.5,-298.5 41.5,-355.5 79.5,-355.5 79.5,-298.5 41.5,-298.5"/>
<text text-anchor="middle" x="60.5" y="-343.5" font-family="Helvetica,sans-Serif" font-size="10.00">Kind</text>
<polyline fill="none" stroke="#bfbfbf" points="41.5,-336.5 79.5,-336.5 "/>
<text text-anchor="middle" x="60.5" y="-324.5" font-family="Helvetica,sans-Serif" font-size="10.00"> </text>
<polyline fill="none" stroke="#bfbfbf" points="41.5,-317.5 79.5,-317.5 "/>
<text text-anchor="middle" x="60.5" y="-305.5" font-family="Helvetica,sans-Serif" font-size="10.00"> </text>
</a>
</g>
</g>
<!-- Node3&#45;&gt;Node2 -->
<g id="edge2" class="edge">
<title>Node3&#45;&gt;Node2</title>
<path fill="none" stroke="#404040" d="M60.5,-298.28C60.5,-287.73 60.5,-275.29 60.5,-263.03"/>
<polygon fill="none" stroke="#404040" points="60.5,-262.91 56.5,-256.91 60.5,-250.91 64.5,-256.91 60.5,-262.91"/>
<text text-anchor="middle" x="77.5" y="-272" font-family="Helvetica,sans-Serif" font-size="10.00"> &#45;kind_</text>
</g>
<!-- Node4 -->
<g id="node4" class="node">
<title>Node4</title>
<g id="a_node4"><a xlink:title=" ">
<polygon fill="white" stroke="#bfbfbf" points="139.5,-177 139.5,-234 189.5,-234 189.5,-177 139.5,-177"/>
<text text-anchor="middle" x="164.5" y="-222" font-family="Helvetica,sans-Serif" font-size="10.00">double</text>
<polyline fill="none" stroke="#bfbfbf" points="139.5,-215 189.5,-215 "/>
<text text-anchor="middle" x="164.5" y="-203" font-family="Helvetica,sans-Serif" font-size="10.00"> </text>
<polyline fill="none" stroke="#bfbfbf" points="139.5,-196 189.5,-196 "/>
<text text-anchor="middle" x="164.5" y="-184" font-family="Helvetica,sans-Serif" font-size="10.00"> </text>
</a>
</g>
</g>
<!-- Node4&#45;&gt;Node1 -->
<g id="edge3" class="edge">
<title>Node4&#45;&gt;Node1</title>
<path fill="none" stroke="#404040" d="M164.5,-176.85C164.5,-162.12 164.5,-143.29 164.5,-124.97"/>
<polygon fill="none" stroke="#404040" points="164.5,-124.73 160.5,-118.73 164.5,-112.73 168.5,-118.73 164.5,-124.73"/>
<text text-anchor="middle" x="184" y="-134" font-family="Helvetica,sans-Serif" font-size="10.00"> &#45;value_</text>
</g>
<!-- Node5 -->
<g id="node5" class="node">
<title>Node5</title>
<g id="a_node5"><a xlink:title=" ">
<polygon fill="white" stroke="#bfbfbf" points="208,-177 208,-234 253,-234 253,-177 208,-177"/>
<text text-anchor="middle" x="230.5" y="-222" font-family="Helvetica,sans-Serif" font-size="10.00">friend</text>
<polyline fill="none" stroke="#bfbfbf" points="208,-215 253,-215 "/>
<text text-anchor="middle" x="230.5" y="-203" font-family="Helvetica,sans-Serif" font-size="10.00"> </text>
<polyline fill="none" stroke="#bfbfbf" points="208,-196 253,-196 "/>
<text text-anchor="middle" x="230.5" y="-184" font-family="Helvetica,sans-Serif" font-size="10.00"> </text>
</a>
</g>
</g>
<!-- Node5&#45;&gt;Node1 -->
<g id="edge4" class="edge">
<title>Node5&#45;&gt;Node1</title>
<path fill="none" stroke="#404040" d="M223.42,-176.73C219.45,-162.74 213.99,-145.67 207.5,-131 206.41,-128.53 205.25,-126.03 204.05,-123.53"/>
<polygon fill="none" stroke="#404040" points="203.92,-123.29 197.64,-119.75 198.5,-112.58 204.78,-116.13 203.92,-123.29"/>
<text text-anchor="middle" x="227.5" y="-134" font-family="Helvetica,sans-Serif" font-size="10.00"> &#45;Zone</text>
</g>
</g>
</svg>
