<?xml version="1.0" encoding="UTF-8" standalone="no"?>
<!DOCTYPE svg PUBLIC "-//W3C//DTD SVG 1.1//EN"
 "http://www.w3.org/Graphics/SVG/1.1/DTD/svg11.dtd">
<!-- Generated by graphviz version 2.43.0 (0)
 -->
<!-- Title: v8::internal::CodeStubAssembler::LoadBufferData Pages: 1 -->
<!--zoomable 113 -->
<svg id="main" version="1.1" xmlns="http://www.w3.org/2000/svg" xmlns:xlink="http://www.w3.org/1999/xlink" xml:space="preserve" onload="init(evt)">
<style type="text/css"><![CDATA[
.edge:hover path { stroke: red; }
.edge:hover polygon { stroke: red; fill: red; }
]]></style>
<script type="text/javascript"><![CDATA[
var edges = document.getElementsByTagName('g');
if (edges && edges.length) {
  for (var i=0;i<edges.length;i++) {
    if (edges[i].id.substr(0,4)=='edge') {
      edges[i].setAttribute('class','edge');
    }
  }
}
]]></script>
        <defs>
                <circle id="rim" cx="0" cy="0" r="7"/>
                <circle id="rim2" cx="0" cy="0" r="3.5"/>
                <g id="zoomPlus">
                        <use xlink:href="#rim" fill="#404040">
                                <set attributeName="fill" to="#808080" begin="zoomplus.mouseover" end="zoomplus.mouseout"/>
                        </use>
                        <path d="M-4,0h8M0,-4v8" fill="none" stroke="white" stroke-width="1.5" pointer-events="none"/>
                </g>
                <g id="zoomMin">
                        <use xlink:href="#rim" fill="#404040">
                                <set attributeName="fill" to="#808080" begin="zoomminus.mouseover" end="zoomminus.mouseout"/>
                        </use>
                        <path d="M-4,0h8" fill="none" stroke="white" stroke-width="1.5" pointer-events="none"/>
                </g>
                <g id="dirArrow">
                        <path fill="none" stroke="white" stroke-width="1.5" d="M0,-3.0v7 M-2.5,-0.5L0,-3.0L2.5,-0.5"/>
                </g>
               <g id="resetDef">
                       <use xlink:href="#rim2" fill="#404040">
                               <set attributeName="fill" to="#808080" begin="reset.mouseover" end="reset.mouseout"/>
                       </use>
               </g>
        </defs>

<script type="text/javascript">
var viewWidth = 730;
var viewHeight = 113;
var sectionId = 'dynsection-815';
</script>
<script xlink:href="svgpan.js"/>
<svg id="graph" class="graph">
<g id="viewport">
<title>v8::internal::CodeStubAssembler::LoadBufferData</title>
<polygon fill="white" stroke="transparent" points="-4,4 -4,-109 726,-109 726,4 -4,4"/>
<!-- Node1 -->
<g id="node1" class="node">
<title>Node1</title>
<g id="a_node1"><a xlink:title=" ">
<polygon fill="#bfbfbf" stroke="black" points="0,-17 0,-47 176,-47 176,-17 0,-17"/>
<text text-anchor="start" x="8" y="-35" font-family="Helvetica,sans-Serif" font-size="10.00">v8::internal::CodeStubAssembler</text>
<text text-anchor="middle" x="88" y="-24" font-family="Helvetica,sans-Serif" font-size="10.00">::LoadBufferData</text>
</a>
</g>
</g>
<!-- Node2 -->
<g id="node2" class="node">
<title>Node2</title>
<g id="a_node2"><a xlink:href="namespacev8_1_1internal_1_1compiler.html#a364c1534fdf1073625e22f3283e46994" target="_top" xlink:title=" ">
<polygon fill="white" stroke="black" points="212,-39 212,-69 333,-69 333,-39 212,-39"/>
<text text-anchor="start" x="220" y="-57" font-family="Helvetica,sans-Serif" font-size="10.00">v8::internal::compiler</text>
<text text-anchor="middle" x="272.5" y="-46" font-family="Helvetica,sans-Serif" font-size="10.00">::IntPtrConstant</text>
</a>
</g>
</g>
<!-- Node1&#45;&gt;Node2 -->
<g id="edge1" class="edge">
<title>Node1&#45;&gt;Node2</title>
<path fill="none" stroke="midnightblue" d="M176.24,-42.52C184.84,-43.55 193.49,-44.6 201.88,-45.61"/>
<polygon fill="midnightblue" stroke="midnightblue" points="201.61,-49.1 211.96,-46.82 202.45,-42.15 201.61,-49.1"/>
</g>
<!-- Node7 -->
<g id="node7" class="node">
<title>Node7</title>
<g id="a_node7"><a xlink:href="namespacev8.html#afba0b7d3427abb6bfb7e3cd115579e51" target="_top" xlink:title=" ">
<polygon fill="white" stroke="black" points="243.5,-0.5 243.5,-19.5 301.5,-19.5 301.5,-0.5 243.5,-0.5"/>
<text text-anchor="middle" x="272.5" y="-7.5" font-family="Helvetica,sans-Serif" font-size="10.00">v8::Load</text>
</a>
</g>
</g>
<!-- Node1&#45;&gt;Node7 -->
<g id="edge8" class="edge">
<title>Node1&#45;&gt;Node7</title>
<path fill="none" stroke="midnightblue" d="M176.24,-21.48C196.09,-19.09 216.19,-16.67 232.78,-14.67"/>
<polygon fill="midnightblue" stroke="midnightblue" points="233.62,-18.09 243.13,-13.42 232.78,-11.14 233.62,-18.09"/>
</g>
<!-- Node3 -->
<g id="node3" class="node">
<title>Node3</title>
<g id="a_node3"><a xlink:href="classv8_1_1internal_1_1compiler_1_1CommonOperatorBuilder.html#abbf456bd3a941ad5aae1aa0511ce3d6b" target="_top" xlink:title=" ">
<polygon fill="white" stroke="black" points="369,-63.5 369,-104.5 513,-104.5 513,-63.5 369,-63.5"/>
<text text-anchor="start" x="377" y="-92.5" font-family="Helvetica,sans-Serif" font-size="10.00">v8::internal::compiler</text>
<text text-anchor="start" x="377" y="-81.5" font-family="Helvetica,sans-Serif" font-size="10.00">::CommonOperatorBuilder</text>
<text text-anchor="middle" x="441" y="-70.5" font-family="Helvetica,sans-Serif" font-size="10.00">::Int32Constant</text>
</a>
</g>
</g>
<!-- Node2&#45;&gt;Node3 -->
<g id="edge2" class="edge">
<title>Node2&#45;&gt;Node3</title>
<path fill="none" stroke="midnightblue" d="M333.14,-64.75C341.46,-66.24 350.12,-67.8 358.75,-69.36"/>
<polygon fill="midnightblue" stroke="midnightblue" points="358.38,-72.85 368.84,-71.18 359.62,-65.96 358.38,-72.85"/>
</g>
<!-- Node6 -->
<g id="node6" class="node">
<title>Node6</title>
<g id="a_node6"><a xlink:href="classv8_1_1internal_1_1compiler_1_1CommonOperatorBuilder.html#a3eccf294987f3b3536d6748ab6fe1066" target="_top" xlink:title=" ">
<polygon fill="white" stroke="black" points="369,-3.5 369,-44.5 513,-44.5 513,-3.5 369,-3.5"/>
<text text-anchor="start" x="377" y="-32.5" font-family="Helvetica,sans-Serif" font-size="10.00">v8::internal::compiler</text>
<text text-anchor="start" x="377" y="-21.5" font-family="Helvetica,sans-Serif" font-size="10.00">::CommonOperatorBuilder</text>
<text text-anchor="middle" x="441" y="-10.5" font-family="Helvetica,sans-Serif" font-size="10.00">::Int64Constant</text>
</a>
</g>
</g>
<!-- Node2&#45;&gt;Node6 -->
<g id="edge5" class="edge">
<title>Node2&#45;&gt;Node6</title>
<path fill="none" stroke="midnightblue" d="M333.14,-43.25C341.46,-41.76 350.12,-40.2 358.75,-38.64"/>
<polygon fill="midnightblue" stroke="midnightblue" points="359.62,-42.04 368.84,-36.82 358.38,-35.15 359.62,-42.04"/>
</g>
<!-- Node4 -->
<g id="node4" class="node">
<title>Node4</title>
<g id="a_node4"><a xlink:href="classv8_1_1internal_1_1Zone.html#a619ca7387e66c82e86240c2af8f3f10f" target="_top" xlink:title=" ">
<polygon fill="white" stroke="black" points="570,-70.5 570,-89.5 701,-89.5 701,-70.5 570,-70.5"/>
<text text-anchor="middle" x="635.5" y="-77.5" font-family="Helvetica,sans-Serif" font-size="10.00">v8::internal::Zone::New</text>
</a>
</g>
</g>
<!-- Node3&#45;&gt;Node4 -->
<g id="edge3" class="edge">
<title>Node3&#45;&gt;Node4</title>
<path fill="none" stroke="midnightblue" d="M513.13,-82.52C528.19,-82.21 544.12,-81.88 559.32,-81.56"/>
<polygon fill="midnightblue" stroke="midnightblue" points="559.78,-85.05 569.71,-81.35 559.64,-78.05 559.78,-85.05"/>
</g>
<!-- Node5 -->
<g id="node5" class="node">
<title>Node5</title>
<g id="a_node5"><a xlink:href="classv8_1_1internal_1_1compiler_1_1CommonOperatorBuilder.html#af5eda61f30c9b547b244294c7017586b" target="_top" xlink:title=" ">
<polygon fill="white" stroke="black" points="549,-17 549,-47 722,-47 722,-17 549,-17"/>
<text text-anchor="start" x="557" y="-35" font-family="Helvetica,sans-Serif" font-size="10.00">v8::internal::compiler</text>
<text text-anchor="middle" x="635.5" y="-24" font-family="Helvetica,sans-Serif" font-size="10.00">::CommonOperatorBuilder::zone</text>
</a>
</g>
</g>
<!-- Node3&#45;&gt;Node5 -->
<g id="edge4" class="edge">
<title>Node3&#45;&gt;Node5</title>
<path fill="none" stroke="midnightblue" d="M513.13,-64.78C531.39,-59.85 550.94,-54.57 568.9,-49.72"/>
<polygon fill="midnightblue" stroke="midnightblue" points="569.95,-53.06 578.69,-47.07 568.13,-46.3 569.95,-53.06"/>
</g>
<!-- Node6&#45;&gt;Node4 -->
<g id="edge6" class="edge">
<title>Node6&#45;&gt;Node4</title>
<path fill="none" stroke="midnightblue" d="M510.16,-44.57C523.05,-48.41 536.43,-52.36 549,-56 562.33,-59.87 576.87,-63.98 590.1,-67.69"/>
<polygon fill="midnightblue" stroke="midnightblue" points="589.36,-71.12 599.93,-70.44 591.25,-64.38 589.36,-71.12"/>
</g>
<!-- Node6&#45;&gt;Node5 -->
<g id="edge7" class="edge">
<title>Node6&#45;&gt;Node5</title>
<path fill="none" stroke="midnightblue" d="M513.13,-26.96C521.52,-27.3 530.19,-27.66 538.85,-28.02"/>
<polygon fill="midnightblue" stroke="midnightblue" points="538.85,-31.53 548.99,-28.45 539.14,-24.53 538.85,-31.53"/>
</g>
</g>
</svg>
        <g id="navigator" transform="translate(0 0)" fill="#404254">
                <rect fill="#f2f5e9" fill-opacity="0.5" stroke="#606060" stroke-width=".5" x="0" y="0" width="60" height="60"/>
                <use id="zoomplus" xlink:href="#zoomPlus" x="17" y="9" onmousedown="handleZoom(evt,'in')"/>
                <use id="zoomminus" xlink:href="#zoomMin" x="42" y="9" onmousedown="handleZoom(evt,'out')"/>
                <use id="reset" xlink:href="#resetDef" x="30" y="36" onmousedown="handleReset()"/>
                <g id="arrowUp" xlink:href="#dirArrow" transform="translate(30 24)" onmousedown="handlePan(0,-1)">
                  <use xlink:href="#rim" fill="#404040">
                        <set attributeName="fill" to="#808080" begin="arrowUp.mouseover" end="arrowUp.mouseout"/>
                  </use>
                  <path fill="none" stroke="white" stroke-width="1.5" d="M0,-3.0v7 M-2.5,-0.5L0,-3.0L2.5,-0.5"/>
                </g>
                <g id="arrowRight" xlink:href="#dirArrow" transform="rotate(90) translate(36 -43)" onmousedown="handlePan(1,0)">
                  <use xlink:href="#rim" fill="#404040">
                        <set attributeName="fill" to="#808080" begin="arrowRight.mouseover" end="arrowRight.mouseout"/>
                  </use>
                  <path fill="none" stroke="white" stroke-width="1.5" d="M0,-3.0v7 M-2.5,-0.5L0,-3.0L2.5,-0.5"/>
                </g>
                <g id="arrowDown" xlink:href="#dirArrow" transform="rotate(180) translate(-30 -48)" onmousedown="handlePan(0,1)">
                  <use xlink:href="#rim" fill="#404040">
                        <set attributeName="fill" to="#808080" begin="arrowDown.mouseover" end="arrowDown.mouseout"/>
                  </use>
                  <path fill="none" stroke="white" stroke-width="1.5" d="M0,-3.0v7 M-2.5,-0.5L0,-3.0L2.5,-0.5"/>
                </g>
                <g id="arrowLeft" xlink:href="#dirArrow" transform="rotate(270) translate(-36 17)" onmousedown="handlePan(-1,0)">
                  <use xlink:href="#rim" fill="#404040">
                        <set attributeName="fill" to="#808080" begin="arrowLeft.mouseover" end="arrowLeft.mouseout"/>
                  </use>
                  <path fill="none" stroke="white" stroke-width="1.5" d="M0,-3.0v7 M-2.5,-0.5L0,-3.0L2.5,-0.5"/>
                </g>
        </g>
        <svg viewBox="0 0 15 15" width="100%" height="30px" preserveAspectRatio="xMaxYMin meet">
         <g id="arrow_out" transform="scale(0.3 0.3)">
          <a xlink:href="classv8_1_1internal_1_1CodeStubAssembler_a6a2ab8e237778316894577a34275bc23_cgraph_org.svg" target="_base">
           <rect id="button" ry="5" rx="5" y="6" x="6" height="38" width="38"
                fill="#f2f5e9" fill-opacity="0.5" stroke="#606060" stroke-width="1.0"/>
           <path id="arrow"
             d="M 11.500037,31.436501 C 11.940474,20.09759 22.043105,11.32322 32.158766,21.979434 L 37.068811,17.246167 C 37.068811,17.246167 37.088388,32 37.088388,32 L 22.160133,31.978069 C 22.160133,31.978069 26.997745,27.140456 26.997745,27.140456 C 18.528582,18.264221 13.291696,25.230495 11.500037,31.436501 z"
             style="fill:#404040;"/>
          </a>
         </g>
        </svg>
</svg>
