<?xml version="1.0" encoding="UTF-8" standalone="no"?>
<!DOCTYPE svg PUBLIC "-//W3C//DTD SVG 1.1//EN"
 "http://www.w3.org/Graphics/SVG/1.1/DTD/svg11.dtd">
<!-- Generated by graphviz version 2.43.0 (0)
 -->
<!-- Title: v8_inspector::RemoteCallFrameId Pages: 1 -->
<svg width="163pt" height="281pt"
 viewBox="0.00 0.00 163.00 281.00" xmlns="http://www.w3.org/2000/svg" xmlns:xlink="http://www.w3.org/1999/xlink">
<g id="graph0" class="graph" transform="scale(1 1) rotate(0) translate(4 277)">
<title>v8_inspector::RemoteCallFrameId</title>
<polygon fill="white" stroke="transparent" points="-4,4 -4,-277 159,-277 159,4 -4,4"/>
<!-- Node1 -->
<g id="node1" class="node">
<title>Node1</title>
<g id="a_node1"><a xlink:title=" ">
<polygon fill="#bfbfbf" stroke="black" points="6.5,-0.5 6.5,-101.5 148.5,-101.5 148.5,-0.5 6.5,-0.5"/>
<text text-anchor="start" x="14.5" y="-89.5" font-family="Helvetica,sans-Serif" font-size="10.00">v8_inspector::RemoteCall</text>
<text text-anchor="middle" x="77.5" y="-78.5" font-family="Helvetica,sans-Serif" font-size="10.00">FrameId</text>
<polyline fill="none" stroke="black" points="6.5,-71.5 148.5,-71.5 "/>
<text text-anchor="middle" x="77.5" y="-59.5" font-family="Helvetica,sans-Serif" font-size="10.00"> </text>
<polyline fill="none" stroke="black" points="6.5,-52.5 148.5,-52.5 "/>
<text text-anchor="start" x="14.5" y="-40.5" font-family="Helvetica,sans-Serif" font-size="10.00">+ ~RemoteCallFrameId()</text>
<text text-anchor="start" x="14.5" y="-29.5" font-family="Helvetica,sans-Serif" font-size="10.00">+ frameOrdinal()</text>
<text text-anchor="start" x="14.5" y="-18.5" font-family="Helvetica,sans-Serif" font-size="10.00">+ parse()</text>
<text text-anchor="start" x="14.5" y="-7.5" font-family="Helvetica,sans-Serif" font-size="10.00">+ serialize()</text>
</a>
</g>
</g>
<!-- Node2 -->
<g id="node2" class="node">
<title>Node2</title>
<g id="a_node2"><a xlink:href="classv8__inspector_1_1RemoteObjectIdBase.html" target="_top" xlink:title=" ">
<polygon fill="white" stroke="black" points="0,-138.5 0,-272.5 155,-272.5 155,-138.5 0,-138.5"/>
<text text-anchor="start" x="8" y="-260.5" font-family="Helvetica,sans-Serif" font-size="10.00">v8_inspector::RemoteObject</text>
<text text-anchor="middle" x="77.5" y="-249.5" font-family="Helvetica,sans-Serif" font-size="10.00">IdBase</text>
<polyline fill="none" stroke="black" points="0,-242.5 155,-242.5 "/>
<text text-anchor="start" x="8" y="-230.5" font-family="Helvetica,sans-Serif" font-size="10.00"># m_isolateId</text>
<text text-anchor="start" x="8" y="-219.5" font-family="Helvetica,sans-Serif" font-size="10.00"># m_injectedScriptId</text>
<text text-anchor="start" x="8" y="-208.5" font-family="Helvetica,sans-Serif" font-size="10.00"># m_id</text>
<polyline fill="none" stroke="black" points="0,-201.5 155,-201.5 "/>
<text text-anchor="start" x="8" y="-189.5" font-family="Helvetica,sans-Serif" font-size="10.00">+ isolateId()</text>
<text text-anchor="start" x="8" y="-178.5" font-family="Helvetica,sans-Serif" font-size="10.00">+ contextId()</text>
<text text-anchor="start" x="8" y="-167.5" font-family="Helvetica,sans-Serif" font-size="10.00"># RemoteObjectIdBase()</text>
<text text-anchor="start" x="8" y="-156.5" font-family="Helvetica,sans-Serif" font-size="10.00"># ~RemoteObjectIdBase()</text>
<text text-anchor="start" x="8" y="-145.5" font-family="Helvetica,sans-Serif" font-size="10.00"># parseId()</text>
</a>
</g>
</g>
<!-- Node2&#45;&gt;Node1 -->
<g id="edge1" class="edge">
<title>Node2&#45;&gt;Node1</title>
<path fill="none" stroke="midnightblue" d="M77.5,-128.27C77.5,-119.19 77.5,-110.11 77.5,-101.55"/>
<polygon fill="none" stroke="midnightblue" points="74,-128.5 77.5,-138.5 81,-128.5 74,-128.5"/>
</g>
</g>
</svg>
