<?xml version="1.0" encoding="UTF-8" standalone="no"?>
<!DOCTYPE svg PUBLIC "-//W3C//DTD SVG 1.1//EN"
 "http://www.w3.org/Graphics/SVG/1.1/DTD/svg11.dtd">
<!-- Generated by graphviz version 2.43.0 (0)
 -->
<!-- Title: v8::internal::maglev::MergePointInterpreterFrameState::NewForLoop Pages: 1 -->
<svg width="738pt" height="122pt"
 viewBox="0.00 0.00 738.00 121.50" xmlns="http://www.w3.org/2000/svg" xmlns:xlink="http://www.w3.org/1999/xlink">
<g id="graph0" class="graph" transform="scale(1 1) rotate(0) translate(4 117.5)">
<title>v8::internal::maglev::MergePointInterpreterFrameState::NewForLoop</title>
<polygon fill="white" stroke="transparent" points="-4,4 -4,-117.5 734,-117.5 734,4 -4,4"/>
<!-- Node1 -->
<g id="node1" class="node">
<title>Node1</title>
<g id="a_node1"><a xlink:title=" ">
<polygon fill="#bfbfbf" stroke="black" points="569,-33.5 569,-74.5 730,-74.5 730,-33.5 569,-33.5"/>
<text text-anchor="start" x="577" y="-62.5" font-family="Helvetica,sans-Serif" font-size="10.00">v8::internal::maglev</text>
<text text-anchor="start" x="577" y="-51.5" font-family="Helvetica,sans-Serif" font-size="10.00">::MergePointInterpreterFrame</text>
<text text-anchor="middle" x="649.5" y="-40.5" font-family="Helvetica,sans-Serif" font-size="10.00">State::NewForLoop</text>
</a>
</g>
</g>
<!-- Node2 -->
<g id="node2" class="node">
<title>Node2</title>
<g id="a_node2"><a xlink:href="classv8_1_1internal_1_1maglev_1_1MaglevGraphBuilder_1_1MaglevSubGraphBuilder.html#aff7071914a1cb6a914dfa45b9dabe141" target="_top" xlink:title=" ">
<polygon fill="white" stroke="black" points="393,-61 393,-113 533,-113 533,-61 393,-61"/>
<text text-anchor="start" x="401" y="-101" font-family="Helvetica,sans-Serif" font-size="10.00">v8::internal::maglev</text>
<text text-anchor="start" x="401" y="-90" font-family="Helvetica,sans-Serif" font-size="10.00">::MaglevGraphBuilder</text>
<text text-anchor="start" x="401" y="-79" font-family="Helvetica,sans-Serif" font-size="10.00">::MaglevSubGraphBuilder</text>
<text text-anchor="middle" x="463" y="-68" font-family="Helvetica,sans-Serif" font-size="10.00">::BeginLoop</text>
</a>
</g>
</g>
<!-- Node1&#45;&gt;Node2 -->
<g id="edge1" class="edge">
<title>Node1&#45;&gt;Node2</title>
<path fill="none" stroke="midnightblue" d="M558.83,-70.04C550.21,-71.58 541.55,-73.13 533.17,-74.63"/>
<polygon fill="midnightblue" stroke="midnightblue" points="559.69,-73.44 568.92,-68.23 558.46,-66.55 559.69,-73.44"/>
</g>
<!-- Node4 -->
<g id="node4" class="node">
<title>Node4</title>
<g id="a_node4"><a xlink:href="classv8_1_1internal_1_1maglev_1_1MaglevGraphBuilder.html#aaf48f39e7196ad0de78dba221efc7cbe" target="_top" xlink:title=" ">
<polygon fill="white" stroke="black" points="402,-0.5 402,-41.5 524,-41.5 524,-0.5 402,-0.5"/>
<text text-anchor="start" x="410" y="-29.5" font-family="Helvetica,sans-Serif" font-size="10.00">v8::internal::maglev</text>
<text text-anchor="start" x="410" y="-18.5" font-family="Helvetica,sans-Serif" font-size="10.00">::MaglevGraphBuilder</text>
<text text-anchor="middle" x="463" y="-7.5" font-family="Helvetica,sans-Serif" font-size="10.00">::BuildMergeStates</text>
</a>
</g>
</g>
<!-- Node1&#45;&gt;Node4 -->
<g id="edge3" class="edge">
<title>Node1&#45;&gt;Node4</title>
<path fill="none" stroke="midnightblue" d="M559.01,-37.99C547.18,-35.88 535.29,-33.75 524.12,-31.75"/>
<polygon fill="midnightblue" stroke="midnightblue" points="558.46,-41.45 568.92,-39.77 559.69,-34.56 558.46,-41.45"/>
</g>
<!-- Node3 -->
<g id="node3" class="node">
<title>Node3</title>
<g id="a_node3"><a xlink:href="classv8_1_1internal_1_1maglev_1_1MaglevGraphBuilder.html#af473ccc5c0682ff049095baf1c84400c" target="_top" xlink:title=" ">
<polygon fill="white" stroke="black" points="185,-66.5 185,-107.5 357,-107.5 357,-66.5 185,-66.5"/>
<text text-anchor="start" x="193" y="-95.5" font-family="Helvetica,sans-Serif" font-size="10.00">v8::internal::maglev</text>
<text text-anchor="start" x="193" y="-84.5" font-family="Helvetica,sans-Serif" font-size="10.00">::MaglevGraphBuilder</text>
<text text-anchor="middle" x="271" y="-73.5" font-family="Helvetica,sans-Serif" font-size="10.00">::TryReduceArrayIteratingBuiltin</text>
</a>
</g>
</g>
<!-- Node2&#45;&gt;Node3 -->
<g id="edge2" class="edge">
<title>Node2&#45;&gt;Node3</title>
<path fill="none" stroke="midnightblue" d="M382.72,-87C374.31,-87 365.74,-87 357.27,-87"/>
<polygon fill="midnightblue" stroke="midnightblue" points="382.87,-90.5 392.87,-87 382.87,-83.5 382.87,-90.5"/>
</g>
<!-- Node5 -->
<g id="node5" class="node">
<title>Node5</title>
<g id="a_node5"><a xlink:href="classv8_1_1internal_1_1maglev_1_1MaglevGraphBuilder.html#a9c4a65170c3aaa4618456d3fdfbac324" target="_top" xlink:title=" ">
<polygon fill="white" stroke="black" points="210,-0.5 210,-41.5 332,-41.5 332,-0.5 210,-0.5"/>
<text text-anchor="start" x="218" y="-29.5" font-family="Helvetica,sans-Serif" font-size="10.00">v8::internal::maglev</text>
<text text-anchor="start" x="218" y="-18.5" font-family="Helvetica,sans-Serif" font-size="10.00">::MaglevGraphBuilder</text>
<text text-anchor="middle" x="271" y="-7.5" font-family="Helvetica,sans-Serif" font-size="10.00">::Build</text>
</a>
</g>
</g>
<!-- Node4&#45;&gt;Node5 -->
<g id="edge4" class="edge">
<title>Node4&#45;&gt;Node5</title>
<path fill="none" stroke="midnightblue" d="M391.78,-21C372.16,-21 351.03,-21 332.05,-21"/>
<polygon fill="midnightblue" stroke="midnightblue" points="391.88,-24.5 401.88,-21 391.88,-17.5 391.88,-24.5"/>
</g>
<!-- Node6 -->
<g id="node6" class="node">
<title>Node6</title>
<g id="a_node6"><a xlink:href="classv8_1_1internal_1_1maglev_1_1MaglevCompiler.html#a855dbf2e8befa361861cd8ab8f54199b" target="_top" xlink:title=" ">
<polygon fill="white" stroke="black" points="0,-6 0,-36 149,-36 149,-6 0,-6"/>
<text text-anchor="start" x="8" y="-24" font-family="Helvetica,sans-Serif" font-size="10.00">v8::internal::maglev</text>
<text text-anchor="middle" x="74.5" y="-13" font-family="Helvetica,sans-Serif" font-size="10.00">::MaglevCompiler::Compile</text>
</a>
</g>
</g>
<!-- Node5&#45;&gt;Node6 -->
<g id="edge5" class="edge">
<title>Node5&#45;&gt;Node6</title>
<path fill="none" stroke="midnightblue" d="M199.71,-21C183.27,-21 165.71,-21 149.12,-21"/>
<polygon fill="midnightblue" stroke="midnightblue" points="199.79,-24.5 209.79,-21 199.79,-17.5 199.79,-24.5"/>
</g>
</g>
</svg>
