<?xml version="1.0" encoding="UTF-8" standalone="no"?>
<!DOCTYPE svg PUBLIC "-//W3C//DTD SVG 1.1//EN"
 "http://www.w3.org/Graphics/SVG/1.1/DTD/svg11.dtd">
<!-- Generated by graphviz version 2.43.0 (0)
 -->
<!-- Title: v8_inspector::InjectedScript::ContextScope::findInjectedScript Pages: 1 -->
<!--zoomable 176 -->
<svg id="main" version="1.1" xmlns="http://www.w3.org/2000/svg" xmlns:xlink="http://www.w3.org/1999/xlink" xml:space="preserve" onload="init(evt)">
<style type="text/css"><![CDATA[
.edge:hover path { stroke: red; }
.edge:hover polygon { stroke: red; fill: red; }
]]></style>
<script type="text/javascript"><![CDATA[
var edges = document.getElementsByTagName('g');
if (edges && edges.length) {
  for (var i=0;i<edges.length;i++) {
    if (edges[i].id.substr(0,4)=='edge') {
      edges[i].setAttribute('class','edge');
    }
  }
}
]]></script>
        <defs>
                <circle id="rim" cx="0" cy="0" r="7"/>
                <circle id="rim2" cx="0" cy="0" r="3.5"/>
                <g id="zoomPlus">
                        <use xlink:href="#rim" fill="#404040">
                                <set attributeName="fill" to="#808080" begin="zoomplus.mouseover" end="zoomplus.mouseout"/>
                        </use>
                        <path d="M-4,0h8M0,-4v8" fill="none" stroke="white" stroke-width="1.5" pointer-events="none"/>
                </g>
                <g id="zoomMin">
                        <use xlink:href="#rim" fill="#404040">
                                <set attributeName="fill" to="#808080" begin="zoomminus.mouseover" end="zoomminus.mouseout"/>
                        </use>
                        <path d="M-4,0h8" fill="none" stroke="white" stroke-width="1.5" pointer-events="none"/>
                </g>
                <g id="dirArrow">
                        <path fill="none" stroke="white" stroke-width="1.5" d="M0,-3.0v7 M-2.5,-0.5L0,-3.0L2.5,-0.5"/>
                </g>
               <g id="resetDef">
                       <use xlink:href="#rim2" fill="#404040">
                               <set attributeName="fill" to="#808080" begin="reset.mouseover" end="reset.mouseout"/>
                       </use>
               </g>
        </defs>

<script type="text/javascript">
var viewWidth = 828;
var viewHeight = 176;
var sectionId = 'dynsection-2';
</script>
<script xlink:href="svgpan.js"/>
<svg id="graph" class="graph">
<g id="viewport">
<title>v8_inspector::InjectedScript::ContextScope::findInjectedScript</title>
<polygon fill="white" stroke="transparent" points="-4,4 -4,-172 824,-172 824,4 -4,4"/>
<!-- Node1 -->
<g id="node1" class="node">
<title>Node1</title>
<g id="a_node1"><a xlink:title=" ">
<polygon fill="#bfbfbf" stroke="black" points="0,-71.5 0,-101.5 181,-101.5 181,-71.5 0,-71.5"/>
<text text-anchor="start" x="8" y="-89.5" font-family="Helvetica,sans-Serif" font-size="10.00">v8_inspector::InjectedScript</text>
<text text-anchor="middle" x="90.5" y="-78.5" font-family="Helvetica,sans-Serif" font-size="10.00">::ContextScope::findInjectedScript</text>
</a>
</g>
</g>
<!-- Node2 -->
<g id="node2" class="node">
<title>Node2</title>
<g id="a_node2"><a xlink:href="classv8__inspector_1_1V8InspectorSessionImpl.html#a384bbebc2f73baf2016f7c071ce8ce7c" target="_top" xlink:title=" ">
<polygon fill="white" stroke="black" points="217,-71.5 217,-101.5 384,-101.5 384,-71.5 217,-71.5"/>
<text text-anchor="start" x="225" y="-89.5" font-family="Helvetica,sans-Serif" font-size="10.00">v8_inspector::V8Inspector</text>
<text text-anchor="middle" x="300.5" y="-78.5" font-family="Helvetica,sans-Serif" font-size="10.00">SessionImpl::findInjectedScript</text>
</a>
</g>
</g>
<!-- Node1&#45;&gt;Node2 -->
<g id="edge1" class="edge">
<title>Node1&#45;&gt;Node2</title>
<path fill="none" stroke="midnightblue" d="M181.22,-86.5C189.66,-86.5 198.23,-86.5 206.7,-86.5"/>
<polygon fill="midnightblue" stroke="midnightblue" points="206.97,-90 216.97,-86.5 206.97,-83 206.97,-90"/>
</g>
<!-- Node3 -->
<g id="node3" class="node">
<title>Node3</title>
<g id="a_node3"><a xlink:href="classv8__inspector_1_1InspectedContext.html#afdc1898d764520c947e2610c77346fc5" target="_top" xlink:title=" ">
<polygon fill="white" stroke="black" points="432,-137.5 432,-167.5 602,-167.5 602,-137.5 432,-137.5"/>
<text text-anchor="start" x="440" y="-155.5" font-family="Helvetica,sans-Serif" font-size="10.00">v8_inspector::InspectedContext</text>
<text text-anchor="middle" x="517" y="-144.5" font-family="Helvetica,sans-Serif" font-size="10.00">::createInjectedScript</text>
</a>
</g>
</g>
<!-- Node2&#45;&gt;Node3 -->
<g id="edge2" class="edge">
<title>Node2&#45;&gt;Node3</title>
<path fill="none" stroke="midnightblue" d="M350.44,-101.56C382.18,-111.32 423.7,-124.1 457.22,-134.41"/>
<polygon fill="midnightblue" stroke="midnightblue" points="456.31,-137.8 466.9,-137.39 458.37,-131.11 456.31,-137.8"/>
</g>
<!-- Node4 -->
<g id="node4" class="node">
<title>Node4</title>
<g id="a_node4"><a xlink:href="classv8__inspector_1_1InspectedContext.html#abe68fb99f6d03d0cc08acdf239217dd5" target="_top" xlink:title=" ">
<polygon fill="white" stroke="black" points="650,-115.5 650,-145.5 820,-145.5 820,-115.5 650,-115.5"/>
<text text-anchor="start" x="658" y="-133.5" font-family="Helvetica,sans-Serif" font-size="10.00">v8_inspector::InspectedContext</text>
<text text-anchor="middle" x="735" y="-122.5" font-family="Helvetica,sans-Serif" font-size="10.00">::getInjectedScript</text>
</a>
</g>
</g>
<!-- Node2&#45;&gt;Node4 -->
<g id="edge5" class="edge">
<title>Node2&#45;&gt;Node4</title>
<path fill="none" stroke="midnightblue" d="M384.12,-94.91C457.1,-102.33 563.47,-113.15 639.74,-120.91"/>
<polygon fill="midnightblue" stroke="midnightblue" points="639.52,-124.41 649.83,-121.94 640.23,-117.44 639.52,-124.41"/>
</g>
<!-- Node5 -->
<g id="node5" class="node">
<title>Node5</title>
<g id="a_node5"><a xlink:href="classv8__inspector_1_1V8InspectorImpl.html#a550d24d7ca6eb1ab57669eab2efe3df2" target="_top" xlink:title=" ">
<polygon fill="white" stroke="black" points="445.5,-49.5 445.5,-79.5 588.5,-79.5 588.5,-49.5 445.5,-49.5"/>
<text text-anchor="start" x="453.5" y="-67.5" font-family="Helvetica,sans-Serif" font-size="10.00">v8_inspector::V8Inspector</text>
<text text-anchor="middle" x="517" y="-56.5" font-family="Helvetica,sans-Serif" font-size="10.00">Impl::getContext</text>
</a>
</g>
</g>
<!-- Node2&#45;&gt;Node5 -->
<g id="edge4" class="edge">
<title>Node2&#45;&gt;Node5</title>
<path fill="none" stroke="midnightblue" d="M384.12,-78.03C400.84,-76.31 418.39,-74.51 435.05,-72.8"/>
<polygon fill="midnightblue" stroke="midnightblue" points="435.69,-76.25 445.28,-71.75 434.98,-69.29 435.69,-76.25"/>
</g>
<!-- Node6 -->
<g id="node6" class="node">
<title>Node6</title>
<g id="a_node6"><a xlink:href="classv8__inspector_1_1InjectedScript.html#a3962d99cc34ac149e791f2d4391df557" target="_top" xlink:title=" ">
<polygon fill="white" stroke="black" points="420,-0.5 420,-30.5 614,-30.5 614,-0.5 420,-0.5"/>
<text text-anchor="start" x="428" y="-18.5" font-family="Helvetica,sans-Serif" font-size="10.00">v8_inspector::InjectedScript</text>
<text text-anchor="middle" x="517" y="-7.5" font-family="Helvetica,sans-Serif" font-size="10.00">::setCustomObjectFormatterEnabled</text>
</a>
</g>
</g>
<!-- Node2&#45;&gt;Node6 -->
<g id="edge6" class="edge">
<title>Node2&#45;&gt;Node6</title>
<path fill="none" stroke="midnightblue" d="M337.15,-71.42C360.48,-61.86 391.76,-49.63 420,-40.5 427.83,-37.97 436.09,-35.51 444.33,-33.19"/>
<polygon fill="midnightblue" stroke="midnightblue" points="445.27,-36.56 453.98,-30.53 443.41,-29.81 445.27,-36.56"/>
</g>
<!-- Node3&#45;&gt;Node4 -->
<g id="edge3" class="edge">
<title>Node3&#45;&gt;Node4</title>
<path fill="none" stroke="midnightblue" d="M602.13,-143.93C614.47,-142.67 627.24,-141.37 639.77,-140.1"/>
<polygon fill="midnightblue" stroke="midnightblue" points="640.15,-143.58 649.74,-139.08 639.44,-136.61 640.15,-143.58"/>
</g>
</g>
</svg>
        <g id="navigator" transform="translate(0 0)" fill="#404254">
                <rect fill="#f2f5e9" fill-opacity="0.5" stroke="#606060" stroke-width=".5" x="0" y="0" width="60" height="60"/>
                <use id="zoomplus" xlink:href="#zoomPlus" x="17" y="9" onmousedown="handleZoom(evt,'in')"/>
                <use id="zoomminus" xlink:href="#zoomMin" x="42" y="9" onmousedown="handleZoom(evt,'out')"/>
                <use id="reset" xlink:href="#resetDef" x="30" y="36" onmousedown="handleReset()"/>
                <g id="arrowUp" xlink:href="#dirArrow" transform="translate(30 24)" onmousedown="handlePan(0,-1)">
                  <use xlink:href="#rim" fill="#404040">
                        <set attributeName="fill" to="#808080" begin="arrowUp.mouseover" end="arrowUp.mouseout"/>
                  </use>
                  <path fill="none" stroke="white" stroke-width="1.5" d="M0,-3.0v7 M-2.5,-0.5L0,-3.0L2.5,-0.5"/>
                </g>
                <g id="arrowRight" xlink:href="#dirArrow" transform="rotate(90) translate(36 -43)" onmousedown="handlePan(1,0)">
                  <use xlink:href="#rim" fill="#404040">
                        <set attributeName="fill" to="#808080" begin="arrowRight.mouseover" end="arrowRight.mouseout"/>
                  </use>
                  <path fill="none" stroke="white" stroke-width="1.5" d="M0,-3.0v7 M-2.5,-0.5L0,-3.0L2.5,-0.5"/>
                </g>
                <g id="arrowDown" xlink:href="#dirArrow" transform="rotate(180) translate(-30 -48)" onmousedown="handlePan(0,1)">
                  <use xlink:href="#rim" fill="#404040">
                        <set attributeName="fill" to="#808080" begin="arrowDown.mouseover" end="arrowDown.mouseout"/>
                  </use>
                  <path fill="none" stroke="white" stroke-width="1.5" d="M0,-3.0v7 M-2.5,-0.5L0,-3.0L2.5,-0.5"/>
                </g>
                <g id="arrowLeft" xlink:href="#dirArrow" transform="rotate(270) translate(-36 17)" onmousedown="handlePan(-1,0)">
                  <use xlink:href="#rim" fill="#404040">
                        <set attributeName="fill" to="#808080" begin="arrowLeft.mouseover" end="arrowLeft.mouseout"/>
                  </use>
                  <path fill="none" stroke="white" stroke-width="1.5" d="M0,-3.0v7 M-2.5,-0.5L0,-3.0L2.5,-0.5"/>
                </g>
        </g>
        <svg viewBox="0 0 15 15" width="100%" height="30px" preserveAspectRatio="xMaxYMin meet">
         <g id="arrow_out" transform="scale(0.3 0.3)">
          <a xlink:href="classv8__inspector_1_1InjectedScript_1_1ContextScope_a3a79ff56bbc231847cd12abfd564536f_cgraph_org.svg" target="_base">
           <rect id="button" ry="5" rx="5" y="6" x="6" height="38" width="38"
                fill="#f2f5e9" fill-opacity="0.5" stroke="#606060" stroke-width="1.0"/>
           <path id="arrow"
             d="M 11.500037,31.436501 C 11.940474,20.09759 22.043105,11.32322 32.158766,21.979434 L 37.068811,17.246167 C 37.068811,17.246167 37.088388,32 37.088388,32 L 22.160133,31.978069 C 22.160133,31.978069 26.997745,27.140456 26.997745,27.140456 C 18.528582,18.264221 13.291696,25.230495 11.500037,31.436501 z"
             style="fill:#404040;"/>
          </a>
         </g>
        </svg>
</svg>
