<?xml version="1.0" encoding="UTF-8" standalone="no"?>
<!DOCTYPE svg PUBLIC "-//W3C//DTD SVG 1.1//EN"
 "http://www.w3.org/Graphics/SVG/1.1/DTD/svg11.dtd">
<!-- Generated by graphviz version 2.43.0 (0)
 -->
<!-- Title: v8::internal::compiler::turboshaft::TypeInferenceAnalysis::GetType Pages: 1 -->
<svg width="1066pt" height="896pt"
 viewBox="0.00 0.00 1066.00 895.72" xmlns="http://www.w3.org/2000/svg" xmlns:xlink="http://www.w3.org/1999/xlink">
<g id="graph0" class="graph" transform="scale(1 1) rotate(0) translate(4 891.72)">
<title>v8::internal::compiler::turboshaft::TypeInferenceAnalysis::GetType</title>
<polygon fill="white" stroke="transparent" points="-4,4 -4,-891.72 1062,-891.72 1062,4 -4,4"/>
<!-- Node1 -->
<g id="node1" class="node">
<title>Node1</title>
<g id="a_node1"><a xlink:title=" ">
<polygon fill="#bfbfbf" stroke="black" points="0,-599.5 0,-640.5 188,-640.5 188,-599.5 0,-599.5"/>
<text text-anchor="start" x="8" y="-628.5" font-family="Helvetica,sans-Serif" font-size="10.00">v8::internal::compiler</text>
<text text-anchor="start" x="8" y="-617.5" font-family="Helvetica,sans-Serif" font-size="10.00">::turboshaft::TypeInferenceAnalysis</text>
<text text-anchor="middle" x="94" y="-606.5" font-family="Helvetica,sans-Serif" font-size="10.00">::GetType</text>
</a>
</g>
</g>
<!-- Node2 -->
<g id="node2" class="node">
<title>Node2</title>
<g id="a_node2"><a xlink:href="classv8_1_1internal_1_1compiler_1_1turboshaft_1_1Graph.html#abfcf27ccb67ca6cd5bc59e83d56cab53" target="_top" xlink:title=" ">
<polygon fill="white" stroke="black" points="252.5,-761 252.5,-791 383.5,-791 383.5,-761 252.5,-761"/>
<text text-anchor="start" x="260.5" y="-779" font-family="Helvetica,sans-Serif" font-size="10.00">v8::internal::compiler</text>
<text text-anchor="middle" x="318" y="-768" font-family="Helvetica,sans-Serif" font-size="10.00">::turboshaft::Graph::Get</text>
</a>
</g>
</g>
<!-- Node1&#45;&gt;Node2 -->
<g id="edge1" class="edge">
<title>Node1&#45;&gt;Node2</title>
<path fill="none" stroke="midnightblue" d="M124.48,-640.72C166.85,-670.49 244.55,-725.09 287.13,-755.01"/>
<polygon fill="midnightblue" stroke="midnightblue" points="285.22,-757.94 295.41,-760.83 289.24,-752.22 285.22,-757.94"/>
</g>
<!-- Node8 -->
<g id="node8" class="node">
<title>Node8</title>
<g id="a_node8"><a xlink:href="classv8_1_1internal_1_1compiler_1_1turboshaft_1_1TypeInferenceAnalysis.html#ae55320537a7d156a54a8b9c0123c2efa" target="_top" xlink:title=" ">
<polygon fill="white" stroke="black" points="224,-654.5 224,-695.5 412,-695.5 412,-654.5 224,-654.5"/>
<text text-anchor="start" x="232" y="-683.5" font-family="Helvetica,sans-Serif" font-size="10.00">v8::internal::compiler</text>
<text text-anchor="start" x="232" y="-672.5" font-family="Helvetica,sans-Serif" font-size="10.00">::turboshaft::TypeInferenceAnalysis</text>
<text text-anchor="middle" x="318" y="-661.5" font-family="Helvetica,sans-Serif" font-size="10.00">::GetTypeOrInvalid</text>
</a>
</g>
</g>
<!-- Node1&#45;&gt;Node8 -->
<g id="edge7" class="edge">
<title>Node1&#45;&gt;Node8</title>
<path fill="none" stroke="midnightblue" d="M177.98,-640.56C193.03,-644.29 208.82,-648.2 224.14,-651.99"/>
<polygon fill="midnightblue" stroke="midnightblue" points="223.57,-655.46 234.12,-654.47 225.26,-648.66 223.57,-655.46"/>
</g>
<!-- Node11 -->
<g id="node11" class="node">
<title>Node11</title>
<g id="a_node11"><a xlink:href="classv8_1_1internal_1_1compiler_1_1turboshaft_1_1Type.html#ae3e511778831a0102fe24156f434dff5" target="_top" xlink:title=" ">
<polygon fill="white" stroke="black" points="244,-605 244,-635 392,-635 392,-605 244,-605"/>
<text text-anchor="start" x="252" y="-623" font-family="Helvetica,sans-Serif" font-size="10.00">v8::internal::compiler</text>
<text text-anchor="middle" x="318" y="-612" font-family="Helvetica,sans-Serif" font-size="10.00">::turboshaft::Type::IsInvalid</text>
</a>
</g>
</g>
<!-- Node1&#45;&gt;Node11 -->
<g id="edge10" class="edge">
<title>Node1&#45;&gt;Node11</title>
<path fill="none" stroke="midnightblue" d="M188.18,-620C203.32,-620 218.91,-620 233.79,-620"/>
<polygon fill="midnightblue" stroke="midnightblue" points="233.96,-623.5 243.96,-620 233.96,-616.5 233.96,-623.5"/>
</g>
<!-- Node12 -->
<g id="node12" class="node">
<title>Node12</title>
<g id="a_node12"><a xlink:href="structv8_1_1internal_1_1compiler_1_1turboshaft_1_1Operation.html#aa142150a92f82f332c21755f5d2a89e9" target="_top" xlink:title=" ">
<polygon fill="white" stroke="black" points="255,-544.5 255,-585.5 381,-585.5 381,-544.5 255,-544.5"/>
<text text-anchor="start" x="263" y="-573.5" font-family="Helvetica,sans-Serif" font-size="10.00">v8::internal::compiler</text>
<text text-anchor="start" x="263" y="-562.5" font-family="Helvetica,sans-Serif" font-size="10.00">::turboshaft::Operation</text>
<text text-anchor="middle" x="318" y="-551.5" font-family="Helvetica,sans-Serif" font-size="10.00">::outputs_rep</text>
</a>
</g>
</g>
<!-- Node1&#45;&gt;Node12 -->
<g id="edge11" class="edge">
<title>Node1&#45;&gt;Node12</title>
<path fill="none" stroke="midnightblue" d="M177.98,-599.44C199.99,-593.99 223.57,-588.15 244.94,-582.85"/>
<polygon fill="midnightblue" stroke="midnightblue" points="246.05,-586.18 254.92,-580.38 244.37,-579.39 246.05,-586.18"/>
</g>
<!-- Node13 -->
<g id="node13" class="node">
<title>Node13</title>
<g id="a_node13"><a xlink:href="classv8_1_1internal_1_1compiler_1_1turboshaft_1_1Typer.html#a70eccf15f839695e3085a13c4ffce827" target="_top" xlink:title=" ">
<polygon fill="white" stroke="black" points="244,-330.5 244,-371.5 392,-371.5 392,-330.5 244,-330.5"/>
<text text-anchor="start" x="252" y="-359.5" font-family="Helvetica,sans-Serif" font-size="10.00">v8::internal::compiler</text>
<text text-anchor="start" x="252" y="-348.5" font-family="Helvetica,sans-Serif" font-size="10.00">::turboshaft::Typer::TypeFor</text>
<text text-anchor="middle" x="318" y="-337.5" font-family="Helvetica,sans-Serif" font-size="10.00">Representation</text>
</a>
</g>
</g>
<!-- Node1&#45;&gt;Node13 -->
<g id="edge12" class="edge">
<title>Node1&#45;&gt;Node13</title>
<path fill="none" stroke="midnightblue" d="M112.05,-599.34C151.36,-551.71 248.39,-434.13 293.39,-379.61"/>
<polygon fill="midnightblue" stroke="midnightblue" points="296.22,-381.67 299.89,-371.73 290.83,-377.22 296.22,-381.67"/>
</g>
<!-- Node3 -->
<g id="node3" class="node">
<title>Node3</title>
<g id="a_node3"><a xlink:href="namespacev8_1_1internal.html#aa6b3743bd5d773c552654f2a6c3efa4a" target="_top" xlink:title=" ">
<polygon fill="white" stroke="black" points="939,-453.5 939,-472.5 1058,-472.5 1058,-453.5 939,-453.5"/>
<text text-anchor="middle" x="998.5" y="-460.5" font-family="Helvetica,sans-Serif" font-size="10.00">v8::internal::DCHECK</text>
</a>
</g>
</g>
<!-- Node2&#45;&gt;Node3 -->
<g id="edge2" class="edge">
<title>Node2&#45;&gt;Node3</title>
<path fill="none" stroke="midnightblue" d="M348.38,-791.14C441.11,-836.59 731.55,-960.71 903,-828 959.14,-784.54 987.99,-552.66 995.49,-482.88"/>
<polygon fill="midnightblue" stroke="midnightblue" points="998.99,-483.1 996.55,-472.79 992.02,-482.37 998.99,-483.1"/>
</g>
<!-- Node4 -->
<g id="node4" class="node">
<title>Node4</title>
<g id="a_node4"><a xlink:href="classv8_1_1internal_1_1compiler_1_1turboshaft_1_1OperationBuffer.html#a1b5eaa3791ba2f478be13a64389ce0f0" target="_top" xlink:title=" ">
<polygon fill="white" stroke="black" points="455,-786 455,-816 634,-816 634,-786 455,-786"/>
<text text-anchor="start" x="463" y="-804" font-family="Helvetica,sans-Serif" font-size="10.00">v8::internal::compiler</text>
<text text-anchor="middle" x="544.5" y="-793" font-family="Helvetica,sans-Serif" font-size="10.00">::turboshaft::OperationBuffer::Get</text>
</a>
</g>
</g>
<!-- Node2&#45;&gt;Node4 -->
<g id="edge3" class="edge">
<title>Node2&#45;&gt;Node4</title>
<path fill="none" stroke="midnightblue" d="M383.63,-783.2C402.67,-785.32 423.95,-787.69 444.61,-789.99"/>
<polygon fill="midnightblue" stroke="midnightblue" points="444.37,-793.48 454.7,-791.11 445.14,-786.53 444.37,-793.48"/>
</g>
<!-- Node7 -->
<g id="node7" class="node">
<title>Node7</title>
<g id="a_node7"><a xlink:href="namespacev8_1_1internal_1_1compiler_1_1turboshaft.html#a692a5ec52f1fc99364bab539d051887f" target="_top" xlink:title=" ">
<polygon fill="white" stroke="black" points="473.5,-737 473.5,-767 615.5,-767 615.5,-737 473.5,-737"/>
<text text-anchor="start" x="481.5" y="-755" font-family="Helvetica,sans-Serif" font-size="10.00">v8::internal::compiler</text>
<text text-anchor="middle" x="544.5" y="-744" font-family="Helvetica,sans-Serif" font-size="10.00">::turboshaft::OpcodeIndex</text>
</a>
</g>
</g>
<!-- Node2&#45;&gt;Node7 -->
<g id="edge6" class="edge">
<title>Node2&#45;&gt;Node7</title>
<path fill="none" stroke="midnightblue" d="M383.63,-769.09C408.45,-766.44 437.07,-763.38 463.19,-760.59"/>
<polygon fill="midnightblue" stroke="midnightblue" points="463.87,-764.03 473.44,-759.49 463.12,-757.07 463.87,-764.03"/>
</g>
<!-- Node5 -->
<g id="node5" class="node">
<title>Node5</title>
<g id="a_node5"><a xlink:href="classv8_1_1internal_1_1compiler_1_1turboshaft_1_1OpIndex.html#a6cf044ac66106a137238983b6a8b8de4" target="_top" xlink:title=" ">
<polygon fill="white" stroke="black" points="729.5,-777.5 729.5,-818.5 850.5,-818.5 850.5,-777.5 729.5,-777.5"/>
<text text-anchor="start" x="737.5" y="-806.5" font-family="Helvetica,sans-Serif" font-size="10.00">v8::internal::compiler</text>
<text text-anchor="start" x="737.5" y="-795.5" font-family="Helvetica,sans-Serif" font-size="10.00">::turboshaft::OpIndex</text>
<text text-anchor="middle" x="790" y="-784.5" font-family="Helvetica,sans-Serif" font-size="10.00">::offset</text>
</a>
</g>
</g>
<!-- Node4&#45;&gt;Node5 -->
<g id="edge4" class="edge">
<title>Node4&#45;&gt;Node5</title>
<path fill="none" stroke="midnightblue" d="M634.1,-799.91C662.07,-799.56 692.57,-799.19 719.05,-798.86"/>
<polygon fill="midnightblue" stroke="midnightblue" points="719.41,-802.36 729.36,-798.73 719.32,-795.36 719.41,-802.36"/>
</g>
<!-- Node6 -->
<g id="node6" class="node">
<title>Node6</title>
<g id="a_node6"><a xlink:href="classv8_1_1internal_1_1compiler_1_1turboshaft_1_1OperationBuffer.html#a24f3cfe4c7354b4047fd6e2951b95a81" target="_top" xlink:title=" ">
<polygon fill="white" stroke="black" points="699.5,-728 699.5,-758 880.5,-758 880.5,-728 699.5,-728"/>
<text text-anchor="start" x="707.5" y="-746" font-family="Helvetica,sans-Serif" font-size="10.00">v8::internal::compiler</text>
<text text-anchor="middle" x="790" y="-735" font-family="Helvetica,sans-Serif" font-size="10.00">::turboshaft::OperationBuffer::size</text>
</a>
</g>
</g>
<!-- Node4&#45;&gt;Node6 -->
<g id="edge5" class="edge">
<title>Node4&#45;&gt;Node6</title>
<path fill="none" stroke="midnightblue" d="M605.32,-785.97C639.14,-777.47 675.08,-768.45 677,-768 687.8,-765.44 699.19,-762.81 710.42,-760.27"/>
<polygon fill="midnightblue" stroke="midnightblue" points="711.24,-763.67 720.23,-758.05 709.7,-756.84 711.24,-763.67"/>
</g>
<!-- Node9 -->
<g id="node9" class="node">
<title>Node9</title>
<g id="a_node9"><a xlink:href="classv8_1_1internal_1_1compiler_1_1turboshaft_1_1SnapshotTable.html#a238c3dce77468919fbd5da613e6ca784" target="_top" xlink:title=" ">
<polygon fill="white" stroke="black" points="458.5,-688 458.5,-718 630.5,-718 630.5,-688 458.5,-688"/>
<text text-anchor="start" x="466.5" y="-706" font-family="Helvetica,sans-Serif" font-size="10.00">v8::internal::compiler</text>
<text text-anchor="middle" x="544.5" y="-695" font-family="Helvetica,sans-Serif" font-size="10.00">::turboshaft::SnapshotTable::Get</text>
</a>
</g>
</g>
<!-- Node8&#45;&gt;Node9 -->
<g id="edge8" class="edge">
<title>Node8&#45;&gt;Node9</title>
<path fill="none" stroke="midnightblue" d="M412.26,-686.63C424.21,-688.12 436.46,-689.65 448.44,-691.14"/>
<polygon fill="midnightblue" stroke="midnightblue" points="448.07,-694.63 458.43,-692.39 448.94,-687.68 448.07,-694.63"/>
</g>
<!-- Node10 -->
<g id="node10" class="node">
<title>Node10</title>
<g id="a_node10"><a xlink:href="classv8_1_1internal_1_1compiler_1_1turboshaft_1_1Type.html#a3897d70b138b3aaf209df47a1f8269c2" target="_top" xlink:title=" ">
<polygon fill="white" stroke="black" points="474.5,-639 474.5,-669 614.5,-669 614.5,-639 474.5,-639"/>
<text text-anchor="start" x="482.5" y="-657" font-family="Helvetica,sans-Serif" font-size="10.00">v8::internal::compiler</text>
<text text-anchor="middle" x="544.5" y="-646" font-family="Helvetica,sans-Serif" font-size="10.00">::turboshaft::Type::Invalid</text>
</a>
</g>
</g>
<!-- Node8&#45;&gt;Node10 -->
<g id="edge9" class="edge">
<title>Node8&#45;&gt;Node10</title>
<path fill="none" stroke="midnightblue" d="M412.26,-666.28C429.52,-664.66 447.39,-662.99 464.19,-661.42"/>
<polygon fill="midnightblue" stroke="midnightblue" points="464.86,-664.87 474.49,-660.45 464.21,-657.9 464.86,-664.87"/>
</g>
<!-- Node14 -->
<g id="node14" class="node">
<title>Node14</title>
<g id="a_node14"><a xlink:href="classv8_1_1internal_1_1compiler_1_1turboshaft_1_1Type.html#a907221686b0319c4c7c43c1357ac6513" target="_top" xlink:title=" ">
<polygon fill="white" stroke="black" points="482,-590 482,-620 607,-620 607,-590 482,-590"/>
<text text-anchor="start" x="490" y="-608" font-family="Helvetica,sans-Serif" font-size="10.00">v8::internal::compiler</text>
<text text-anchor="middle" x="544.5" y="-597" font-family="Helvetica,sans-Serif" font-size="10.00">::turboshaft::Type::Any</text>
</a>
</g>
</g>
<!-- Node13&#45;&gt;Node14 -->
<g id="edge13" class="edge">
<title>Node13&#45;&gt;Node14</title>
<path fill="none" stroke="midnightblue" d="M329.51,-371.76C356.85,-425.43 429.35,-565.61 448,-580 455.18,-585.53 463.46,-589.85 472.09,-593.21"/>
<polygon fill="midnightblue" stroke="midnightblue" points="470.96,-596.52 481.56,-596.5 473.26,-589.91 470.96,-596.52"/>
</g>
<!-- Node15 -->
<g id="node15" class="node">
<title>Node15</title>
<g id="a_node15"><a xlink:href="classv8_1_1internal_1_1compiler_1_1turboshaft_1_1WordType.html#a5ee26e4f9bdb9949b6631c3200d1ceb8" target="_top" xlink:title=" ">
<polygon fill="white" stroke="black" points="469.5,-541 469.5,-571 619.5,-571 619.5,-541 469.5,-541"/>
<text text-anchor="start" x="477.5" y="-559" font-family="Helvetica,sans-Serif" font-size="10.00">v8::internal::compiler</text>
<text text-anchor="middle" x="544.5" y="-548" font-family="Helvetica,sans-Serif" font-size="10.00">::turboshaft::WordType::Any</text>
</a>
</g>
</g>
<!-- Node13&#45;&gt;Node15 -->
<g id="edge14" class="edge">
<title>Node13&#45;&gt;Node15</title>
<path fill="none" stroke="midnightblue" d="M327.89,-371.58C345.25,-409.25 387.34,-489.28 448,-531 451.76,-533.58 455.76,-535.9 459.92,-537.98"/>
<polygon fill="midnightblue" stroke="midnightblue" points="458.7,-541.26 469.26,-542.15 461.56,-534.87 458.7,-541.26"/>
</g>
<!-- Node30 -->
<g id="node17" class="node">
<title>Node30</title>
<g id="a_node17"><a xlink:href="classv8_1_1internal_1_1compiler_1_1turboshaft_1_1RegisterRepresentation.html#a373ec17b6f087f2ea8549305d9eddaed" target="_top" xlink:title=" ">
<polygon fill="white" stroke="black" points="448,-480.5 448,-521.5 641,-521.5 641,-480.5 448,-480.5"/>
<text text-anchor="start" x="456" y="-509.5" font-family="Helvetica,sans-Serif" font-size="10.00">v8::internal::compiler</text>
<text text-anchor="start" x="456" y="-498.5" font-family="Helvetica,sans-Serif" font-size="10.00">::turboshaft::RegisterRepresentation</text>
<text text-anchor="middle" x="544.5" y="-487.5" font-family="Helvetica,sans-Serif" font-size="10.00">::Compressed</text>
</a>
</g>
</g>
<!-- Node13&#45;&gt;Node30 -->
<g id="edge16" class="edge">
<title>Node13&#45;&gt;Node30</title>
<path fill="none" stroke="midnightblue" d="M336.07,-371.81C358.93,-398.42 401.99,-444.24 448,-471 451.19,-472.86 454.51,-474.61 457.92,-476.27"/>
<polygon fill="midnightblue" stroke="midnightblue" points="456.55,-479.49 467.1,-480.43 459.44,-473.12 456.55,-479.49"/>
</g>
<!-- Node32 -->
<g id="node19" class="node">
<title>Node32</title>
<g id="a_node19"><a xlink:href="classv8_1_1internal_1_1compiler_1_1turboshaft_1_1RegisterRepresentation.html#a7ae7f282bc7ad4593320bb849a73b4e4" target="_top" xlink:title=" ">
<polygon fill="white" stroke="black" points="448,-420.5 448,-461.5 641,-461.5 641,-420.5 448,-420.5"/>
<text text-anchor="start" x="456" y="-449.5" font-family="Helvetica,sans-Serif" font-size="10.00">v8::internal::compiler</text>
<text text-anchor="start" x="456" y="-438.5" font-family="Helvetica,sans-Serif" font-size="10.00">::turboshaft::RegisterRepresentation</text>
<text text-anchor="middle" x="544.5" y="-427.5" font-family="Helvetica,sans-Serif" font-size="10.00">::Float32</text>
</a>
</g>
</g>
<!-- Node13&#45;&gt;Node32 -->
<g id="edge18" class="edge">
<title>Node13&#45;&gt;Node32</title>
<path fill="none" stroke="midnightblue" d="M359.65,-371.58C384.76,-383.87 417.83,-399.3 448,-411 453.4,-413.09 459.01,-415.15 464.68,-417.14"/>
<polygon fill="midnightblue" stroke="midnightblue" points="463.68,-420.5 474.27,-420.43 465.95,-413.88 463.68,-420.5"/>
</g>
<!-- Node33 -->
<g id="node20" class="node">
<title>Node33</title>
<g id="a_node20"><a xlink:href="classv8_1_1internal_1_1compiler_1_1turboshaft_1_1RegisterRepresentation.html#a5d222e67f5f7187fd20bb3c2cc7bc110" target="_top" xlink:title=" ">
<polygon fill="white" stroke="black" points="448,-360.5 448,-401.5 641,-401.5 641,-360.5 448,-360.5"/>
<text text-anchor="start" x="456" y="-389.5" font-family="Helvetica,sans-Serif" font-size="10.00">v8::internal::compiler</text>
<text text-anchor="start" x="456" y="-378.5" font-family="Helvetica,sans-Serif" font-size="10.00">::turboshaft::RegisterRepresentation</text>
<text text-anchor="middle" x="544.5" y="-367.5" font-family="Helvetica,sans-Serif" font-size="10.00">::Float64</text>
</a>
</g>
</g>
<!-- Node13&#45;&gt;Node33 -->
<g id="edge20" class="edge">
<title>Node13&#45;&gt;Node33</title>
<path fill="none" stroke="midnightblue" d="M392.2,-360.78C406.79,-362.73 422.38,-364.82 437.81,-366.88"/>
<polygon fill="midnightblue" stroke="midnightblue" points="437.54,-370.37 447.92,-368.23 438.47,-363.43 437.54,-370.37"/>
</g>
<!-- Node34 -->
<g id="node21" class="node">
<title>Node34</title>
<g id="a_node21"><a xlink:href="classv8_1_1internal_1_1compiler_1_1turboshaft_1_1RegisterRepresentation.html#a49ef31a09de67cdeb2a1babcafca9170" target="_top" xlink:title=" ">
<polygon fill="white" stroke="black" points="448,-300.5 448,-341.5 641,-341.5 641,-300.5 448,-300.5"/>
<text text-anchor="start" x="456" y="-329.5" font-family="Helvetica,sans-Serif" font-size="10.00">v8::internal::compiler</text>
<text text-anchor="start" x="456" y="-318.5" font-family="Helvetica,sans-Serif" font-size="10.00">::turboshaft::RegisterRepresentation</text>
<text text-anchor="middle" x="544.5" y="-307.5" font-family="Helvetica,sans-Serif" font-size="10.00">::Simd128</text>
</a>
</g>
</g>
<!-- Node13&#45;&gt;Node34 -->
<g id="edge22" class="edge">
<title>Node13&#45;&gt;Node34</title>
<path fill="none" stroke="midnightblue" d="M392.2,-341.22C406.79,-339.27 422.38,-337.18 437.81,-335.12"/>
<polygon fill="midnightblue" stroke="midnightblue" points="438.47,-338.57 447.92,-333.77 437.54,-331.63 438.47,-338.57"/>
</g>
<!-- Node35 -->
<g id="node22" class="node">
<title>Node35</title>
<g id="a_node22"><a xlink:href="classv8_1_1internal_1_1compiler_1_1turboshaft_1_1RegisterRepresentation.html#a8dd7178edb523753da107b08c2199988" target="_top" xlink:title=" ">
<polygon fill="white" stroke="black" points="448,-240.5 448,-281.5 641,-281.5 641,-240.5 448,-240.5"/>
<text text-anchor="start" x="456" y="-269.5" font-family="Helvetica,sans-Serif" font-size="10.00">v8::internal::compiler</text>
<text text-anchor="start" x="456" y="-258.5" font-family="Helvetica,sans-Serif" font-size="10.00">::turboshaft::RegisterRepresentation</text>
<text text-anchor="middle" x="544.5" y="-247.5" font-family="Helvetica,sans-Serif" font-size="10.00">::Simd256</text>
</a>
</g>
</g>
<!-- Node13&#45;&gt;Node35 -->
<g id="edge24" class="edge">
<title>Node13&#45;&gt;Node35</title>
<path fill="none" stroke="midnightblue" d="M359.65,-330.42C384.76,-318.13 417.83,-302.7 448,-291 453.4,-288.91 459.01,-286.85 464.68,-284.86"/>
<polygon fill="midnightblue" stroke="midnightblue" points="465.95,-288.12 474.27,-281.57 463.68,-281.5 465.95,-288.12"/>
</g>
<!-- Node36 -->
<g id="node23" class="node">
<title>Node36</title>
<g id="a_node23"><a xlink:href="classv8_1_1internal_1_1compiler_1_1turboshaft_1_1RegisterRepresentation.html#af4dcbabd802a274e26ec8f5a1af68b1b" target="_top" xlink:title=" ">
<polygon fill="white" stroke="black" points="448,-180.5 448,-221.5 641,-221.5 641,-180.5 448,-180.5"/>
<text text-anchor="start" x="456" y="-209.5" font-family="Helvetica,sans-Serif" font-size="10.00">v8::internal::compiler</text>
<text text-anchor="start" x="456" y="-198.5" font-family="Helvetica,sans-Serif" font-size="10.00">::turboshaft::RegisterRepresentation</text>
<text text-anchor="middle" x="544.5" y="-187.5" font-family="Helvetica,sans-Serif" font-size="10.00">::Tagged</text>
</a>
</g>
</g>
<!-- Node13&#45;&gt;Node36 -->
<g id="edge26" class="edge">
<title>Node13&#45;&gt;Node36</title>
<path fill="none" stroke="midnightblue" d="M336.07,-330.19C358.93,-303.58 401.99,-257.76 448,-231 451.19,-229.14 454.51,-227.39 457.92,-225.73"/>
<polygon fill="midnightblue" stroke="midnightblue" points="459.44,-228.88 467.1,-221.57 456.55,-222.51 459.44,-228.88"/>
</g>
<!-- Node37 -->
<g id="node24" class="node">
<title>Node37</title>
<g id="a_node24"><a xlink:href="classv8_1_1internal_1_1compiler_1_1turboshaft_1_1RegisterRepresentation.html#a37395e4eba8296a2db1c30f3d7039e33" target="_top" xlink:title=" ">
<polygon fill="white" stroke="black" points="448,-0.5 448,-41.5 641,-41.5 641,-0.5 448,-0.5"/>
<text text-anchor="start" x="456" y="-29.5" font-family="Helvetica,sans-Serif" font-size="10.00">v8::internal::compiler</text>
<text text-anchor="start" x="456" y="-18.5" font-family="Helvetica,sans-Serif" font-size="10.00">::turboshaft::RegisterRepresentation</text>
<text text-anchor="middle" x="544.5" y="-7.5" font-family="Helvetica,sans-Serif" font-size="10.00">::value</text>
</a>
</g>
</g>
<!-- Node13&#45;&gt;Node37 -->
<g id="edge28" class="edge">
<title>Node13&#45;&gt;Node37</title>
<path fill="none" stroke="midnightblue" d="M321.86,-330.49C330.46,-276.55 361.11,-129.47 448,-51 449.33,-49.8 450.71,-48.65 452.13,-47.54"/>
<polygon fill="midnightblue" stroke="midnightblue" points="454.4,-50.23 460.67,-41.69 450.44,-44.45 454.4,-50.23"/>
</g>
<!-- Node40 -->
<g id="node26" class="node">
<title>Node40</title>
<g id="a_node26"><a xlink:href="classv8_1_1internal_1_1compiler_1_1turboshaft_1_1RegisterRepresentation.html#a598694a7b6b5c3ceffe89a31a8fdde8b" target="_top" xlink:title=" ">
<polygon fill="white" stroke="black" points="448,-120.5 448,-161.5 641,-161.5 641,-120.5 448,-120.5"/>
<text text-anchor="start" x="456" y="-149.5" font-family="Helvetica,sans-Serif" font-size="10.00">v8::internal::compiler</text>
<text text-anchor="start" x="456" y="-138.5" font-family="Helvetica,sans-Serif" font-size="10.00">::turboshaft::RegisterRepresentation</text>
<text text-anchor="middle" x="544.5" y="-127.5" font-family="Helvetica,sans-Serif" font-size="10.00">::Word32</text>
</a>
</g>
</g>
<!-- Node13&#45;&gt;Node40 -->
<g id="edge31" class="edge">
<title>Node13&#45;&gt;Node40</title>
<path fill="none" stroke="midnightblue" d="M328.22,-330.41C345.99,-293.07 388.52,-214.06 448,-171 450.09,-169.48 452.27,-168.04 454.5,-166.67"/>
<polygon fill="midnightblue" stroke="midnightblue" points="456.36,-169.65 463.4,-161.74 452.96,-163.53 456.36,-169.65"/>
</g>
<!-- Node41 -->
<g id="node27" class="node">
<title>Node41</title>
<g id="a_node27"><a xlink:href="classv8_1_1internal_1_1compiler_1_1turboshaft_1_1RegisterRepresentation.html#ab5e3c653af2621026db9a5ebf587d368" target="_top" xlink:title=" ">
<polygon fill="white" stroke="black" points="448,-60.5 448,-101.5 641,-101.5 641,-60.5 448,-60.5"/>
<text text-anchor="start" x="456" y="-89.5" font-family="Helvetica,sans-Serif" font-size="10.00">v8::internal::compiler</text>
<text text-anchor="start" x="456" y="-78.5" font-family="Helvetica,sans-Serif" font-size="10.00">::turboshaft::RegisterRepresentation</text>
<text text-anchor="middle" x="544.5" y="-67.5" font-family="Helvetica,sans-Serif" font-size="10.00">::Word64</text>
</a>
</g>
</g>
<!-- Node13&#45;&gt;Node41 -->
<g id="edge33" class="edge">
<title>Node13&#45;&gt;Node41</title>
<path fill="none" stroke="midnightblue" d="M324.35,-330.23C337.37,-283.86 375.09,-171.29 448,-111 449.74,-109.56 451.55,-108.19 453.42,-106.88"/>
<polygon fill="midnightblue" stroke="midnightblue" points="455.31,-109.83 461.95,-101.57 451.61,-103.89 455.31,-109.83"/>
</g>
<!-- Node16 -->
<g id="node16" class="node">
<title>Node16</title>
<g id="a_node16"><a xlink:href="classv8_1_1internal_1_1compiler_1_1turboshaft_1_1WordType.html#aded6e3ba3637f732a69c53d6d7d1c825" target="_top" xlink:title=" ">
<polygon fill="white" stroke="red" points="727.5,-535.5 727.5,-576.5 852.5,-576.5 852.5,-535.5 727.5,-535.5"/>
<text text-anchor="start" x="735.5" y="-564.5" font-family="Helvetica,sans-Serif" font-size="10.00">v8::internal::compiler</text>
<text text-anchor="start" x="735.5" y="-553.5" font-family="Helvetica,sans-Serif" font-size="10.00">::turboshaft::WordType</text>
<text text-anchor="middle" x="790" y="-542.5" font-family="Helvetica,sans-Serif" font-size="10.00">::Range</text>
</a>
</g>
</g>
<!-- Node15&#45;&gt;Node16 -->
<g id="edge15" class="edge">
<title>Node15&#45;&gt;Node16</title>
<path fill="none" stroke="midnightblue" d="M619.55,-556C650.47,-556 686.28,-556 716.98,-556"/>
<polygon fill="midnightblue" stroke="midnightblue" points="717.18,-559.5 727.18,-556 717.18,-552.5 717.18,-559.5"/>
</g>
<!-- Node31 -->
<g id="node18" class="node">
<title>Node31</title>
<g id="a_node18"><a xlink:href="classv8_1_1internal_1_1compiler_1_1turboshaft_1_1RegisterRepresentation.html#a3276210a46fbdf6c83d07354715aae77" target="_top" xlink:title=" ">
<polygon fill="white" stroke="black" points="693.5,-270.5 693.5,-311.5 886.5,-311.5 886.5,-270.5 693.5,-270.5"/>
<text text-anchor="start" x="701.5" y="-299.5" font-family="Helvetica,sans-Serif" font-size="10.00">v8::internal::compiler</text>
<text text-anchor="start" x="701.5" y="-288.5" font-family="Helvetica,sans-Serif" font-size="10.00">::turboshaft::RegisterRepresentation</text>
<text text-anchor="middle" x="790" y="-277.5" font-family="Helvetica,sans-Serif" font-size="10.00">::RegisterRepresentation</text>
</a>
</g>
</g>
<!-- Node30&#45;&gt;Node31 -->
<g id="edge17" class="edge">
<title>Node30&#45;&gt;Node31</title>
<path fill="none" stroke="midnightblue" d="M624.37,-480.37C630.2,-477.61 635.81,-474.5 641,-471 700.43,-430.91 748.5,-360.08 772.46,-320.27"/>
<polygon fill="midnightblue" stroke="midnightblue" points="775.53,-321.95 777.61,-311.56 769.5,-318.38 775.53,-321.95"/>
</g>
<!-- Node32&#45;&gt;Node31 -->
<g id="edge19" class="edge">
<title>Node32&#45;&gt;Node31</title>
<path fill="none" stroke="midnightblue" d="M620.4,-420.5C627.51,-417.66 634.49,-414.49 641,-411 687.35,-386.11 733.23,-345.83 761.34,-318.89"/>
<polygon fill="midnightblue" stroke="midnightblue" points="764.04,-321.14 768.78,-311.67 759.17,-316.12 764.04,-321.14"/>
</g>
<!-- Node33&#45;&gt;Node31 -->
<g id="edge21" class="edge">
<title>Node33&#45;&gt;Node31</title>
<path fill="none" stroke="midnightblue" d="M613.29,-360.45C622.64,-357.4 632.09,-354.2 641,-351 671.23,-340.14 704.4,-326.83 731.67,-315.5"/>
<polygon fill="midnightblue" stroke="midnightblue" points="733.17,-318.67 741.05,-311.58 730.48,-312.21 733.17,-318.67"/>
</g>
<!-- Node34&#45;&gt;Node31 -->
<g id="edge23" class="edge">
<title>Node34&#45;&gt;Node31</title>
<path fill="none" stroke="midnightblue" d="M641.04,-309.23C654.87,-307.53 669.17,-305.76 683.19,-304.04"/>
<polygon fill="midnightblue" stroke="midnightblue" points="683.84,-307.48 693.34,-302.79 682.98,-300.54 683.84,-307.48"/>
</g>
<!-- Node35&#45;&gt;Node31 -->
<g id="edge25" class="edge">
<title>Node35&#45;&gt;Node31</title>
<path fill="none" stroke="midnightblue" d="M641.04,-272.77C654.87,-274.47 669.17,-276.24 683.19,-277.96"/>
<polygon fill="midnightblue" stroke="midnightblue" points="682.98,-281.46 693.34,-279.21 683.84,-274.52 682.98,-281.46"/>
</g>
<!-- Node36&#45;&gt;Node31 -->
<g id="edge27" class="edge">
<title>Node36&#45;&gt;Node31</title>
<path fill="none" stroke="midnightblue" d="M613.29,-221.55C622.64,-224.6 632.09,-227.8 641,-231 671.23,-241.86 704.4,-255.17 731.67,-266.5"/>
<polygon fill="midnightblue" stroke="midnightblue" points="730.48,-269.79 741.05,-270.42 733.17,-263.33 730.48,-269.79"/>
</g>
<!-- Node38 -->
<g id="node25" class="node">
<title>Node38</title>
<g id="a_node25"><a xlink:href="classv8_1_1internal_1_1compiler_1_1turboshaft_1_1MaybeRegisterRepresentation.html#a7ca3679e1e4078bdc49c2f9a07c877a3" target="_top" xlink:title=" ">
<polygon fill="white" stroke="red" points="677,-120.5 677,-161.5 903,-161.5 903,-120.5 677,-120.5"/>
<text text-anchor="start" x="685" y="-149.5" font-family="Helvetica,sans-Serif" font-size="10.00">v8::internal::compiler</text>
<text text-anchor="start" x="685" y="-138.5" font-family="Helvetica,sans-Serif" font-size="10.00">::turboshaft::MaybeRegisterRepresentation</text>
<text text-anchor="middle" x="790" y="-127.5" font-family="Helvetica,sans-Serif" font-size="10.00">::value</text>
</a>
</g>
</g>
<!-- Node37&#45;&gt;Node38 -->
<g id="edge29" class="edge">
<title>Node37&#45;&gt;Node38</title>
<path fill="none" stroke="midnightblue" d="M617.39,-41.51C625.46,-44.42 633.48,-47.59 641,-51 680.35,-68.83 722.13,-94.98 751.23,-114.51"/>
<polygon fill="midnightblue" stroke="midnightblue" points="749.6,-117.63 759.84,-120.34 753.53,-111.83 749.6,-117.63"/>
</g>
<!-- Node38&#45;&gt;Node3 -->
<g id="edge30" class="edge">
<title>Node38&#45;&gt;Node3</title>
<path fill="none" stroke="midnightblue" d="M814.31,-161.77C838.7,-184.39 876.99,-222.51 903,-261 944.83,-322.9 977.29,-406.24 990.74,-443.54"/>
<polygon fill="midnightblue" stroke="midnightblue" points="987.51,-444.92 994.16,-453.18 994.11,-442.58 987.51,-444.92"/>
</g>
<!-- Node40&#45;&gt;Node31 -->
<g id="edge32" class="edge">
<title>Node40&#45;&gt;Node31</title>
<path fill="none" stroke="midnightblue" d="M620.4,-161.5C627.51,-164.34 634.49,-167.51 641,-171 687.35,-195.89 733.23,-236.17 761.34,-263.11"/>
<polygon fill="midnightblue" stroke="midnightblue" points="759.17,-265.88 768.78,-270.33 764.04,-260.86 759.17,-265.88"/>
</g>
<!-- Node41&#45;&gt;Node31 -->
<g id="edge34" class="edge">
<title>Node41&#45;&gt;Node31</title>
<path fill="none" stroke="midnightblue" d="M626.39,-101.55C631.57,-104.32 636.5,-107.45 641,-111 665.43,-130.25 658.29,-146.16 677,-171 702.38,-204.68 735.84,-239.52 759.56,-262.93"/>
<polygon fill="midnightblue" stroke="midnightblue" points="757.3,-265.61 766.9,-270.11 762.2,-260.61 757.3,-265.61"/>
</g>
</g>
</svg>
