<?xml version="1.0" encoding="UTF-8" standalone="no"?>
<!DOCTYPE svg PUBLIC "-//W3C//DTD SVG 1.1//EN"
 "http://www.w3.org/Graphics/SVG/1.1/DTD/svg11.dtd">
<!-- Generated by graphviz version 2.43.0 (0)
 -->
<!-- Title: v8::internal::compiler::BytecodeGraphBuilder::BuildLoopHeaderEnvironment Pages: 1 -->
<svg width="349pt" height="100pt"
 viewBox="0.00 0.00 349.00 99.50" xmlns="http://www.w3.org/2000/svg" xmlns:xlink="http://www.w3.org/1999/xlink">
<g id="graph0" class="graph" transform="scale(1 1) rotate(0) translate(4 95.5)">
<title>v8::internal::compiler::BytecodeGraphBuilder::BuildLoopHeaderEnvironment</title>
<polygon fill="white" stroke="transparent" points="-4,4 -4,-95.5 345,-95.5 345,4 -4,4"/>
<!-- Node1 -->
<g id="node1" class="node">
<title>Node1</title>
<g id="a_node1"><a xlink:title=" ">
<polygon fill="#bfbfbf" stroke="black" points="0,-27.5 0,-68.5 168,-68.5 168,-27.5 0,-27.5"/>
<text text-anchor="start" x="8" y="-56.5" font-family="Helvetica,sans-Serif" font-size="10.00">v8::internal::compiler</text>
<text text-anchor="start" x="8" y="-45.5" font-family="Helvetica,sans-Serif" font-size="10.00">::BytecodeGraphBuilder</text>
<text text-anchor="middle" x="84" y="-34.5" font-family="Helvetica,sans-Serif" font-size="10.00">::BuildLoopHeaderEnvironment</text>
</a>
</g>
</g>
<!-- Node2 -->
<g id="node2" class="node">
<title>Node2</title>
<g id="a_node2"><a xlink:href="structv8_1_1internal_1_1compiler_1_1LoopInfo.html#ac829ac27a8252bf8e95ed8f7886091df" target="_top" xlink:title=" ">
<polygon fill="white" stroke="black" points="206,-61 206,-91 339,-91 339,-61 206,-61"/>
<text text-anchor="start" x="214" y="-79" font-family="Helvetica,sans-Serif" font-size="10.00">v8::internal::compiler</text>
<text text-anchor="middle" x="272.5" y="-68" font-family="Helvetica,sans-Serif" font-size="10.00">::LoopInfo::assignments</text>
</a>
</g>
</g>
<!-- Node1&#45;&gt;Node2 -->
<g id="edge1" class="edge">
<title>Node1&#45;&gt;Node2</title>
<path fill="none" stroke="midnightblue" d="M168.16,-60.49C177.33,-61.86 186.64,-63.26 195.72,-64.62"/>
<polygon fill="midnightblue" stroke="midnightblue" points="195.44,-68.12 205.85,-66.14 196.48,-61.2 195.44,-68.12"/>
</g>
<!-- Node3 -->
<g id="node3" class="node">
<title>Node3</title>
<g id="a_node3"><a xlink:href="structv8_1_1internal_1_1compiler_1_1LoopInfo.html#afb5bd77621b4fb74da2c122a03e6e53e" target="_top" xlink:title=" ">
<polygon fill="white" stroke="black" points="204,-0.5 204,-41.5 341,-41.5 341,-0.5 204,-0.5"/>
<text text-anchor="start" x="212" y="-29.5" font-family="Helvetica,sans-Serif" font-size="10.00">v8::internal::compiler</text>
<text text-anchor="start" x="212" y="-18.5" font-family="Helvetica,sans-Serif" font-size="10.00">::LoopInfo::resume_jump</text>
<text text-anchor="middle" x="272.5" y="-7.5" font-family="Helvetica,sans-Serif" font-size="10.00">_targets</text>
</a>
</g>
</g>
<!-- Node1&#45;&gt;Node3 -->
<g id="edge2" class="edge">
<title>Node1&#45;&gt;Node3</title>
<path fill="none" stroke="midnightblue" d="M168.16,-35.96C176.75,-34.72 185.45,-33.46 193.97,-32.22"/>
<polygon fill="midnightblue" stroke="midnightblue" points="194.48,-35.69 203.88,-30.79 193.48,-28.76 194.48,-35.69"/>
</g>
</g>
</svg>
