<?xml version="1.0" encoding="UTF-8" standalone="no"?>
<!DOCTYPE svg PUBLIC "-//W3C//DTD SVG 1.1//EN"
 "http://www.w3.org/Graphics/SVG/1.1/DTD/svg11.dtd">
<!-- Generated by graphviz version 2.43.0 (0)
 -->
<!-- Title: v8::internal::compiler::PackNode::Nodes Pages: 1 -->
<svg width="1176pt" height="112pt"
 viewBox="0.00 0.00 1176.00 112.16" xmlns="http://www.w3.org/2000/svg" xmlns:xlink="http://www.w3.org/1999/xlink">
<g id="graph0" class="graph" transform="scale(1 1) rotate(0) translate(4 108.16)">
<title>v8::internal::compiler::PackNode::Nodes</title>
<polygon fill="white" stroke="transparent" points="-4,4 -4,-108.16 1172,-108.16 1172,4 -4,4"/>
<!-- Node1 -->
<g id="node1" class="node">
<title>Node1</title>
<g id="a_node1"><a xlink:title=" ">
<polygon fill="#bfbfbf" stroke="black" points="1047,-16.66 1047,-46.66 1168,-46.66 1168,-16.66 1047,-16.66"/>
<text text-anchor="start" x="1055" y="-34.66" font-family="Helvetica,sans-Serif" font-size="10.00">v8::internal::compiler</text>
<text text-anchor="middle" x="1107.5" y="-23.66" font-family="Helvetica,sans-Serif" font-size="10.00">::PackNode::Nodes</text>
</a>
</g>
</g>
<!-- Node2 -->
<g id="node2" class="node">
<title>Node2</title>
<g id="a_node2"><a xlink:href="classv8_1_1internal_1_1compiler_1_1Revectorizer.html#a5cfb6d8f6cc795d60f448e74087f6a04" target="_top" xlink:title=" ">
<polygon fill="white" stroke="black" points="637.5,-73.66 637.5,-103.66 806.5,-103.66 806.5,-73.66 637.5,-73.66"/>
<text text-anchor="start" x="645.5" y="-91.66" font-family="Helvetica,sans-Serif" font-size="10.00">v8::internal::compiler</text>
<text text-anchor="middle" x="722" y="-80.66" font-family="Helvetica,sans-Serif" font-size="10.00">::Revectorizer::DecideVectorize</text>
</a>
</g>
</g>
<!-- Node1&#45;&gt;Node2 -->
<g id="edge1" class="edge">
<title>Node1&#45;&gt;Node2</title>
<path fill="none" stroke="midnightblue" d="M1074.01,-51.94C1056.13,-61.97 1033.13,-73.1 1011,-78.66 943.67,-95.57 864.73,-97.09 806.53,-94.93"/>
<polygon fill="midnightblue" stroke="midnightblue" points="1075.95,-54.86 1082.86,-46.83 1072.45,-48.8 1075.95,-54.86"/>
</g>
<!-- Node6 -->
<g id="node5" class="node">
<title>Node6</title>
<g id="a_node5"><a xlink:href="classv8_1_1internal_1_1compiler_1_1Revectorizer.html#aa890c3403c472800007dd4162d0d228b" target="_top" xlink:title=" ">
<polygon fill="white" stroke="black" points="853,-38.66 853,-68.66 1011,-68.66 1011,-38.66 853,-38.66"/>
<text text-anchor="start" x="861" y="-56.66" font-family="Helvetica,sans-Serif" font-size="10.00">v8::internal::compiler</text>
<text text-anchor="middle" x="932" y="-45.66" font-family="Helvetica,sans-Serif" font-size="10.00">::Revectorizer::SetEffectInput</text>
</a>
</g>
</g>
<!-- Node1&#45;&gt;Node6 -->
<g id="edge4" class="edge">
<title>Node1&#45;&gt;Node6</title>
<path fill="none" stroke="midnightblue" d="M1036.69,-40.51C1028.31,-41.58 1019.7,-42.67 1011.2,-43.75"/>
<polygon fill="midnightblue" stroke="midnightblue" points="1037.31,-43.96 1046.79,-39.23 1036.43,-37.02 1037.31,-43.96"/>
</g>
<!-- Node7 -->
<g id="node6" class="node">
<title>Node7</title>
<g id="a_node6"><a xlink:href="classv8_1_1internal_1_1compiler_1_1Revectorizer.html#aea306d18e8de371f591c36e30db8d9ea" target="_top" xlink:title=" ">
<polygon fill="white" stroke="black" points="627,-16.66 627,-46.66 817,-46.66 817,-16.66 627,-16.66"/>
<text text-anchor="start" x="635" y="-34.66" font-family="Helvetica,sans-Serif" font-size="10.00">v8::internal::compiler</text>
<text text-anchor="middle" x="722" y="-23.66" font-family="Helvetica,sans-Serif" font-size="10.00">::Revectorizer::SetMemoryOpInputs</text>
</a>
</g>
</g>
<!-- Node1&#45;&gt;Node7 -->
<g id="edge8" class="edge">
<title>Node1&#45;&gt;Node7</title>
<path fill="none" stroke="midnightblue" d="M1036.77,-30.03C1028.1,-29.88 1019.34,-29.75 1011,-29.66 940.78,-28.93 923.22,-29.12 853,-29.66 841.38,-29.75 829.17,-29.89 817.08,-30.04"/>
<polygon fill="midnightblue" stroke="midnightblue" points="1036.84,-33.53 1046.9,-30.22 1036.97,-26.53 1036.84,-33.53"/>
</g>
<!-- Node8 -->
<g id="node7" class="node">
<title>Node8</title>
<g id="a_node7"><a xlink:href="classv8_1_1internal_1_1compiler_1_1Revectorizer.html#ad02e27f8b865e41f0c9d0432e93d8097" target="_top" xlink:title=" ">
<polygon fill="white" stroke="black" points="436,-16.66 436,-46.66 591,-46.66 591,-16.66 436,-16.66"/>
<text text-anchor="start" x="444" y="-34.66" font-family="Helvetica,sans-Serif" font-size="10.00">v8::internal::compiler</text>
<text text-anchor="middle" x="513.5" y="-23.66" font-family="Helvetica,sans-Serif" font-size="10.00">::Revectorizer::VectorizeTree</text>
</a>
</g>
</g>
<!-- Node1&#45;&gt;Node8 -->
<g id="edge9" class="edge">
<title>Node1&#45;&gt;Node8</title>
<path fill="none" stroke="midnightblue" d="M1036.71,-21C943.19,-8.31 772.16,9.27 627,-6.66 608.5,-8.69 588.6,-12.55 570.75,-16.63"/>
<polygon fill="midnightblue" stroke="midnightblue" points="1036.51,-24.5 1046.9,-22.4 1037.47,-17.57 1036.51,-24.5"/>
</g>
<!-- Node3 -->
<g id="node3" class="node">
<title>Node3</title>
<g id="a_node3"><a xlink:href="classv8_1_1internal_1_1compiler_1_1Revectorizer.html#aaec132d9479ba4f584a24a3020c67bae" target="_top" xlink:title=" ">
<polygon fill="white" stroke="black" points="221,-38.66 221,-68.66 400,-68.66 400,-38.66 221,-38.66"/>
<text text-anchor="start" x="229" y="-56.66" font-family="Helvetica,sans-Serif" font-size="10.00">v8::internal::compiler</text>
<text text-anchor="middle" x="310.5" y="-45.66" font-family="Helvetica,sans-Serif" font-size="10.00">::Revectorizer::ReduceStoreChain</text>
</a>
</g>
</g>
<!-- Node2&#45;&gt;Node3 -->
<g id="edge2" class="edge">
<title>Node2&#45;&gt;Node3</title>
<path fill="none" stroke="midnightblue" d="M626.83,-80.61C558.65,-74.79 467.09,-66.96 400.2,-61.24"/>
<polygon fill="midnightblue" stroke="midnightblue" points="626.88,-84.13 637.14,-81.49 627.48,-77.16 626.88,-84.13"/>
</g>
<!-- Node4 -->
<g id="node4" class="node">
<title>Node4</title>
<g id="a_node4"><a xlink:href="classv8_1_1internal_1_1compiler_1_1Revectorizer.html#a7d8ac7edd131cd5d18a8d3f66a9c1b8a" target="_top" xlink:title=" ">
<polygon fill="white" stroke="red" points="0,-38.66 0,-68.66 185,-68.66 185,-38.66 0,-38.66"/>
<text text-anchor="start" x="8" y="-56.66" font-family="Helvetica,sans-Serif" font-size="10.00">v8::internal::compiler</text>
<text text-anchor="middle" x="92.5" y="-45.66" font-family="Helvetica,sans-Serif" font-size="10.00">::Revectorizer::ReduceStoreChains</text>
</a>
</g>
</g>
<!-- Node3&#45;&gt;Node4 -->
<g id="edge3" class="edge">
<title>Node3&#45;&gt;Node4</title>
<path fill="none" stroke="midnightblue" d="M210.45,-53.66C202,-53.66 193.48,-53.66 185.09,-53.66"/>
<polygon fill="midnightblue" stroke="midnightblue" points="210.71,-57.16 220.71,-53.66 210.71,-50.16 210.71,-57.16"/>
</g>
<!-- Node6&#45;&gt;Node7 -->
<g id="edge5" class="edge">
<title>Node6&#45;&gt;Node7</title>
<path fill="none" stroke="midnightblue" d="M842.76,-44.33C834.33,-43.44 825.76,-42.53 817.27,-41.63"/>
<polygon fill="midnightblue" stroke="midnightblue" points="842.64,-47.84 852.96,-45.41 843.38,-40.87 842.64,-47.84"/>
</g>
<!-- Node7&#45;&gt;Node8 -->
<g id="edge6" class="edge">
<title>Node7&#45;&gt;Node8</title>
<path fill="none" stroke="midnightblue" d="M616.74,-31.66C608.15,-31.66 599.56,-31.66 591.23,-31.66"/>
<polygon fill="midnightblue" stroke="midnightblue" points="616.81,-35.16 626.81,-31.66 616.81,-28.16 616.81,-35.16"/>
</g>
<!-- Node8&#45;&gt;Node3 -->
<g id="edge7" class="edge">
<title>Node8&#45;&gt;Node3</title>
<path fill="none" stroke="midnightblue" d="M425.74,-41.16C417.31,-42.08 408.75,-43.02 400.3,-43.94"/>
<polygon fill="midnightblue" stroke="midnightblue" points="426.38,-44.61 435.94,-40.04 425.62,-37.65 426.38,-44.61"/>
</g>
</g>
</svg>
