<?xml version="1.0" encoding="UTF-8" standalone="no"?>
<!DOCTYPE svg PUBLIC "-//W3C//DTD SVG 1.1//EN"
 "http://www.w3.org/Graphics/SVG/1.1/DTD/svg11.dtd">
<!-- Generated by graphviz version 2.43.0 (0)
 -->
<!-- Title: v8::internal::DescriptorArray::SetSortedKey Pages: 1 -->
<!--zoomable 284 -->
<svg id="main" version="1.1" xmlns="http://www.w3.org/2000/svg" xmlns:xlink="http://www.w3.org/1999/xlink" xml:space="preserve" onload="init(evt)">
<style type="text/css"><![CDATA[
.edge:hover path { stroke: red; }
.edge:hover polygon { stroke: red; fill: red; }
]]></style>
<script type="text/javascript"><![CDATA[
var edges = document.getElementsByTagName('g');
if (edges && edges.length) {
  for (var i=0;i<edges.length;i++) {
    if (edges[i].id.substr(0,4)=='edge') {
      edges[i].setAttribute('class','edge');
    }
  }
}
]]></script>
        <defs>
                <circle id="rim" cx="0" cy="0" r="7"/>
                <circle id="rim2" cx="0" cy="0" r="3.5"/>
                <g id="zoomPlus">
                        <use xlink:href="#rim" fill="#404040">
                                <set attributeName="fill" to="#808080" begin="zoomplus.mouseover" end="zoomplus.mouseout"/>
                        </use>
                        <path d="M-4,0h8M0,-4v8" fill="none" stroke="white" stroke-width="1.5" pointer-events="none"/>
                </g>
                <g id="zoomMin">
                        <use xlink:href="#rim" fill="#404040">
                                <set attributeName="fill" to="#808080" begin="zoomminus.mouseover" end="zoomminus.mouseout"/>
                        </use>
                        <path d="M-4,0h8" fill="none" stroke="white" stroke-width="1.5" pointer-events="none"/>
                </g>
                <g id="dirArrow">
                        <path fill="none" stroke="white" stroke-width="1.5" d="M0,-3.0v7 M-2.5,-0.5L0,-3.0L2.5,-0.5"/>
                </g>
               <g id="resetDef">
                       <use xlink:href="#rim2" fill="#404040">
                               <set attributeName="fill" to="#808080" begin="reset.mouseover" end="reset.mouseout"/>
                       </use>
               </g>
        </defs>

<script type="text/javascript">
var viewWidth = 686;
var viewHeight = 284;
var sectionId = 'dynsection-61';
</script>
<script xlink:href="svgpan.js"/>
<svg id="graph" class="graph">
<g id="viewport">
<title>v8::internal::DescriptorArray::SetSortedKey</title>
<polygon fill="white" stroke="transparent" points="-4,4 -4,-280 682,-280 682,4 -4,4"/>
<!-- Node1 -->
<g id="node1" class="node">
<title>Node1</title>
<g id="a_node1"><a xlink:title=" ">
<polygon fill="#bfbfbf" stroke="black" points="0,-110.5 0,-140.5 128,-140.5 128,-110.5 0,-110.5"/>
<text text-anchor="start" x="8" y="-128.5" font-family="Helvetica,sans-Serif" font-size="10.00">v8::internal::Descriptor</text>
<text text-anchor="middle" x="64" y="-117.5" font-family="Helvetica,sans-Serif" font-size="10.00">Array::SetSortedKey</text>
</a>
</g>
</g>
<!-- Node2 -->
<g id="node2" class="node">
<title>Node2</title>
<g id="a_node2"><a xlink:href="classv8_1_1internal_1_1DescriptorArray.html#a00b0ba4d26603e3232e87645af71e285" target="_top" xlink:title=" ">
<polygon fill="white" stroke="black" points="177,-183.5 177,-213.5 305,-213.5 305,-183.5 177,-183.5"/>
<text text-anchor="start" x="185" y="-201.5" font-family="Helvetica,sans-Serif" font-size="10.00">v8::internal::Descriptor</text>
<text text-anchor="middle" x="241" y="-190.5" font-family="Helvetica,sans-Serif" font-size="10.00">Array::GetDetails</text>
</a>
</g>
</g>
<!-- Node1&#45;&gt;Node2 -->
<g id="edge1" class="edge">
<title>Node1&#45;&gt;Node2</title>
<path fill="none" stroke="midnightblue" d="M101.26,-140.63C128.24,-151.88 165.27,-167.33 194.28,-179.43"/>
<polygon fill="midnightblue" stroke="midnightblue" points="193.21,-182.77 203.79,-183.39 195.9,-176.31 193.21,-182.77"/>
</g>
<!-- Node6 -->
<g id="node6" class="node">
<title>Node6</title>
<g id="a_node6"><a xlink:href="classv8_1_1internal_1_1PropertyDetails.html#af35118c94c3ec2e26d6ff018c7432f71" target="_top" xlink:title=" ">
<polygon fill="white" stroke="black" points="164,-37.5 164,-67.5 318,-67.5 318,-37.5 164,-37.5"/>
<text text-anchor="start" x="172" y="-55.5" font-family="Helvetica,sans-Serif" font-size="10.00">v8::internal::PropertyDetails</text>
<text text-anchor="middle" x="241" y="-44.5" font-family="Helvetica,sans-Serif" font-size="10.00">::set_pointer</text>
</a>
</g>
</g>
<!-- Node1&#45;&gt;Node6 -->
<g id="edge5" class="edge">
<title>Node1&#45;&gt;Node6</title>
<path fill="none" stroke="midnightblue" d="M101.26,-110.37C128.24,-99.12 165.27,-83.67 194.28,-71.57"/>
<polygon fill="midnightblue" stroke="midnightblue" points="195.9,-74.69 203.79,-67.61 193.21,-68.23 195.9,-74.69"/>
</g>
<!-- Node8 -->
<g id="node8" class="node">
<title>Node8</title>
<g id="a_node8"><a xlink:href="classv8_1_1internal_1_1DescriptorArray.html#a8b0ea18e16ec497c0751b0d49103ad5a" target="_top" xlink:title=" ">
<polygon fill="white" stroke="black" points="177,-110.5 177,-140.5 305,-140.5 305,-110.5 177,-110.5"/>
<text text-anchor="start" x="185" y="-128.5" font-family="Helvetica,sans-Serif" font-size="10.00">v8::internal::Descriptor</text>
<text text-anchor="middle" x="241" y="-117.5" font-family="Helvetica,sans-Serif" font-size="10.00">Array::SetDetails</text>
</a>
</g>
</g>
<!-- Node1&#45;&gt;Node8 -->
<g id="edge7" class="edge">
<title>Node1&#45;&gt;Node8</title>
<path fill="none" stroke="midnightblue" d="M128.18,-125.5C140.69,-125.5 153.93,-125.5 166.75,-125.5"/>
<polygon fill="midnightblue" stroke="midnightblue" points="166.91,-129 176.91,-125.5 166.91,-122 166.91,-129"/>
</g>
<!-- Node3 -->
<g id="node3" class="node">
<title>Node3</title>
<g id="a_node3"><a xlink:href="classv8_1_1internal_1_1InternalIndex.html#a8d405aded63c405c86fd03e1ff104408" target="_top" xlink:title=" ">
<polygon fill="white" stroke="black" points="359.5,-196.5 359.5,-226.5 502.5,-226.5 502.5,-196.5 359.5,-196.5"/>
<text text-anchor="start" x="367.5" y="-214.5" font-family="Helvetica,sans-Serif" font-size="10.00">v8::internal::InternalIndex</text>
<text text-anchor="middle" x="431" y="-203.5" font-family="Helvetica,sans-Serif" font-size="10.00">::as_int</text>
</a>
</g>
</g>
<!-- Node2&#45;&gt;Node3 -->
<g id="edge2" class="edge">
<title>Node2&#45;&gt;Node3</title>
<path fill="none" stroke="midnightblue" d="M305.12,-202.86C319.25,-203.84 334.43,-204.89 349.16,-205.91"/>
<polygon fill="midnightblue" stroke="midnightblue" points="349.05,-209.41 359.27,-206.61 349.54,-202.43 349.05,-209.41"/>
</g>
<!-- Node4 -->
<g id="node4" class="node">
<title>Node4</title>
<g id="a_node4"><a xlink:href="classv8_1_1internal_1_1DescriptorArray.html#ae54af5784a6aad3efe92d2f0822ff2a4" target="_top" xlink:title=" ">
<polygon fill="white" stroke="black" points="356.5,-147.5 356.5,-177.5 505.5,-177.5 505.5,-147.5 356.5,-147.5"/>
<text text-anchor="start" x="364.5" y="-165.5" font-family="Helvetica,sans-Serif" font-size="10.00">v8::internal::Descriptor</text>
<text text-anchor="middle" x="431" y="-154.5" font-family="Helvetica,sans-Serif" font-size="10.00">Array::OffsetOfDescriptorAt</text>
</a>
</g>
</g>
<!-- Node2&#45;&gt;Node4 -->
<g id="edge3" class="edge">
<title>Node2&#45;&gt;Node4</title>
<path fill="none" stroke="midnightblue" d="M305.12,-186.41C318.34,-183.88 332.48,-181.17 346.31,-178.53"/>
<polygon fill="midnightblue" stroke="midnightblue" points="347.15,-181.93 356.31,-176.61 345.84,-175.05 347.15,-181.93"/>
</g>
<!-- Node5 -->
<g id="node5" class="node">
<title>Node5</title>
<g id="a_node5"><a xlink:href="classv8_1_1internal_1_1TaggedField.html#a4770a848d0443cef29f15fd93e96a9ef" target="_top" xlink:title=" ">
<polygon fill="white" stroke="black" points="363,-245.5 363,-275.5 499,-275.5 499,-245.5 363,-245.5"/>
<text text-anchor="start" x="371" y="-263.5" font-family="Helvetica,sans-Serif" font-size="10.00">v8::internal::TaggedField</text>
<text text-anchor="middle" x="431" y="-252.5" font-family="Helvetica,sans-Serif" font-size="10.00">::Relaxed_Load</text>
</a>
</g>
</g>
<!-- Node2&#45;&gt;Node5 -->
<g id="edge4" class="edge">
<title>Node2&#45;&gt;Node5</title>
<path fill="none" stroke="midnightblue" d="M285.54,-213.51C306.25,-220.59 331.36,-229.09 354,-236.5 359.87,-238.42 366,-240.4 372.12,-242.36"/>
<polygon fill="midnightblue" stroke="midnightblue" points="371.11,-245.72 381.71,-245.42 373.24,-239.05 371.11,-245.72"/>
</g>
<!-- Node7 -->
<g id="node7" class="node">
<title>Node7</title>
<g id="a_node7"><a xlink:href="classv8_1_1internal_1_1PropertyDetails.html#a1f237784dda408cff3bdd72d092c42f7" target="_top" xlink:title=" ">
<polygon fill="white" stroke="black" points="354,-0.5 354,-30.5 508,-30.5 508,-0.5 354,-0.5"/>
<text text-anchor="start" x="362" y="-18.5" font-family="Helvetica,sans-Serif" font-size="10.00">v8::internal::PropertyDetails</text>
<text text-anchor="middle" x="431" y="-7.5" font-family="Helvetica,sans-Serif" font-size="10.00">::PropertyDetails</text>
</a>
</g>
</g>
<!-- Node6&#45;&gt;Node7 -->
<g id="edge6" class="edge">
<title>Node6&#45;&gt;Node7</title>
<path fill="none" stroke="midnightblue" d="M318.2,-37.5C326.61,-35.85 335.22,-34.15 343.74,-32.48"/>
<polygon fill="midnightblue" stroke="midnightblue" points="344.56,-35.88 353.7,-30.52 343.21,-29.01 344.56,-35.88"/>
</g>
<!-- Node8&#45;&gt;Node3 -->
<g id="edge8" class="edge">
<title>Node8&#45;&gt;Node3</title>
<path fill="none" stroke="midnightblue" d="M266.19,-140.75C288.41,-154.3 322.55,-173.99 354,-187.5 358.45,-189.41 363.11,-191.25 367.83,-193"/>
<polygon fill="midnightblue" stroke="midnightblue" points="366.98,-196.41 377.58,-196.46 369.32,-189.82 366.98,-196.41"/>
</g>
<!-- Node8&#45;&gt;Node4 -->
<g id="edge11" class="edge">
<title>Node8&#45;&gt;Node4</title>
<path fill="none" stroke="midnightblue" d="M305.12,-137.92C318.34,-140.53 332.48,-143.31 346.31,-146.03"/>
<polygon fill="midnightblue" stroke="midnightblue" points="345.83,-149.5 356.31,-148 347.18,-142.63 345.83,-149.5"/>
</g>
<!-- Node9 -->
<g id="node9" class="node">
<title>Node9</title>
<g id="a_node9"><a xlink:href="classv8_1_1internal_1_1PropertyDetails.html#aea15931d0c6e3ce2e3937218a298a0f9" target="_top" xlink:title=" ">
<polygon fill="white" stroke="black" points="354,-98.5 354,-128.5 508,-128.5 508,-98.5 354,-98.5"/>
<text text-anchor="start" x="362" y="-116.5" font-family="Helvetica,sans-Serif" font-size="10.00">v8::internal::PropertyDetails</text>
<text text-anchor="middle" x="431" y="-105.5" font-family="Helvetica,sans-Serif" font-size="10.00">::AsSmi</text>
</a>
</g>
</g>
<!-- Node8&#45;&gt;Node9 -->
<g id="edge9" class="edge">
<title>Node8&#45;&gt;Node9</title>
<path fill="none" stroke="midnightblue" d="M305.12,-121.47C317.41,-120.69 330.49,-119.85 343.39,-119.03"/>
<polygon fill="midnightblue" stroke="midnightblue" points="343.91,-122.5 353.67,-118.37 343.47,-115.52 343.91,-122.5"/>
</g>
<!-- Node20 -->
<g id="node11" class="node">
<title>Node20</title>
<g id="a_node11"><a xlink:href="classv8_1_1internal_1_1TaggedField.html#a448be01990f69375bc7f94eb6448a67c" target="_top" xlink:title=" ">
<polygon fill="white" stroke="black" points="363,-49.5 363,-79.5 499,-79.5 499,-49.5 363,-49.5"/>
<text text-anchor="start" x="371" y="-67.5" font-family="Helvetica,sans-Serif" font-size="10.00">v8::internal::TaggedField</text>
<text text-anchor="middle" x="431" y="-56.5" font-family="Helvetica,sans-Serif" font-size="10.00">::Relaxed_Store</text>
</a>
</g>
</g>
<!-- Node8&#45;&gt;Node20 -->
<g id="edge12" class="edge">
<title>Node8&#45;&gt;Node20</title>
<path fill="none" stroke="midnightblue" d="M288.47,-110.42C314.33,-102.03 346.7,-91.53 373.95,-82.69"/>
<polygon fill="midnightblue" stroke="midnightblue" points="375.31,-85.93 383.74,-79.51 373.15,-79.27 375.31,-85.93"/>
</g>
<!-- Node10 -->
<g id="node10" class="node">
<title>Node10</title>
<g id="a_node10"><a xlink:href="classv8_1_1internal_1_1Smi.html#afe7f07102d90ccce48cbe677c88a0645" target="_top" xlink:title=" ">
<polygon fill="white" stroke="red" points="559.5,-98.5 559.5,-128.5 662.5,-128.5 662.5,-98.5 559.5,-98.5"/>
<text text-anchor="start" x="567.5" y="-116.5" font-family="Helvetica,sans-Serif" font-size="10.00">v8::internal::Smi::</text>
<text text-anchor="middle" x="611" y="-105.5" font-family="Helvetica,sans-Serif" font-size="10.00">FromInt</text>
</a>
</g>
</g>
<!-- Node9&#45;&gt;Node10 -->
<g id="edge10" class="edge">
<title>Node9&#45;&gt;Node10</title>
<path fill="none" stroke="midnightblue" d="M508,-113.5C521.72,-113.5 535.86,-113.5 549.08,-113.5"/>
<polygon fill="midnightblue" stroke="midnightblue" points="549.46,-117 559.46,-113.5 549.46,-110 549.46,-117"/>
</g>
<!-- Node21 -->
<g id="node12" class="node">
<title>Node21</title>
<g id="a_node12"><a xlink:href="namespacev8_1_1base.html#a00edf83b5d65612ce19389ada4d812d7" target="_top" xlink:title=" ">
<polygon fill="white" stroke="red" points="544,-55 544,-74 678,-74 678,-55 544,-55"/>
<text text-anchor="middle" x="611" y="-62" font-family="Helvetica,sans-Serif" font-size="10.00">v8::base::Relaxed_Store</text>
</a>
</g>
</g>
<!-- Node20&#45;&gt;Node21 -->
<g id="edge13" class="edge">
<title>Node20&#45;&gt;Node21</title>
<path fill="none" stroke="midnightblue" d="M499.04,-64.5C510.4,-64.5 522.26,-64.5 533.83,-64.5"/>
<polygon fill="midnightblue" stroke="midnightblue" points="533.91,-68 543.91,-64.5 533.91,-61 533.91,-68"/>
</g>
</g>
</svg>
        <g id="navigator" transform="translate(0 0)" fill="#404254">
                <rect fill="#f2f5e9" fill-opacity="0.5" stroke="#606060" stroke-width=".5" x="0" y="0" width="60" height="60"/>
                <use id="zoomplus" xlink:href="#zoomPlus" x="17" y="9" onmousedown="handleZoom(evt,'in')"/>
                <use id="zoomminus" xlink:href="#zoomMin" x="42" y="9" onmousedown="handleZoom(evt,'out')"/>
                <use id="reset" xlink:href="#resetDef" x="30" y="36" onmousedown="handleReset()"/>
                <g id="arrowUp" xlink:href="#dirArrow" transform="translate(30 24)" onmousedown="handlePan(0,-1)">
                  <use xlink:href="#rim" fill="#404040">
                        <set attributeName="fill" to="#808080" begin="arrowUp.mouseover" end="arrowUp.mouseout"/>
                  </use>
                  <path fill="none" stroke="white" stroke-width="1.5" d="M0,-3.0v7 M-2.5,-0.5L0,-3.0L2.5,-0.5"/>
                </g>
                <g id="arrowRight" xlink:href="#dirArrow" transform="rotate(90) translate(36 -43)" onmousedown="handlePan(1,0)">
                  <use xlink:href="#rim" fill="#404040">
                        <set attributeName="fill" to="#808080" begin="arrowRight.mouseover" end="arrowRight.mouseout"/>
                  </use>
                  <path fill="none" stroke="white" stroke-width="1.5" d="M0,-3.0v7 M-2.5,-0.5L0,-3.0L2.5,-0.5"/>
                </g>
                <g id="arrowDown" xlink:href="#dirArrow" transform="rotate(180) translate(-30 -48)" onmousedown="handlePan(0,1)">
                  <use xlink:href="#rim" fill="#404040">
                        <set attributeName="fill" to="#808080" begin="arrowDown.mouseover" end="arrowDown.mouseout"/>
                  </use>
                  <path fill="none" stroke="white" stroke-width="1.5" d="M0,-3.0v7 M-2.5,-0.5L0,-3.0L2.5,-0.5"/>
                </g>
                <g id="arrowLeft" xlink:href="#dirArrow" transform="rotate(270) translate(-36 17)" onmousedown="handlePan(-1,0)">
                  <use xlink:href="#rim" fill="#404040">
                        <set attributeName="fill" to="#808080" begin="arrowLeft.mouseover" end="arrowLeft.mouseout"/>
                  </use>
                  <path fill="none" stroke="white" stroke-width="1.5" d="M0,-3.0v7 M-2.5,-0.5L0,-3.0L2.5,-0.5"/>
                </g>
        </g>
        <svg viewBox="0 0 15 15" width="100%" height="30px" preserveAspectRatio="xMaxYMin meet">
         <g id="arrow_out" transform="scale(0.3 0.3)">
          <a xlink:href="classv8_1_1internal_1_1DescriptorArray_a621c6edb83af3d30bccefbfee213df39_cgraph_org.svg" target="_base">
           <rect id="button" ry="5" rx="5" y="6" x="6" height="38" width="38"
                fill="#f2f5e9" fill-opacity="0.5" stroke="#606060" stroke-width="1.0"/>
           <path id="arrow"
             d="M 11.500037,31.436501 C 11.940474,20.09759 22.043105,11.32322 32.158766,21.979434 L 37.068811,17.246167 C 37.068811,17.246167 37.088388,32 37.088388,32 L 22.160133,31.978069 C 22.160133,31.978069 26.997745,27.140456 26.997745,27.140456 C 18.528582,18.264221 13.291696,25.230495 11.500037,31.436501 z"
             style="fill:#404040;"/>
          </a>
         </g>
        </svg>
</svg>
