<?xml version="1.0" encoding="UTF-8" standalone="no"?>
<!DOCTYPE svg PUBLIC "-//W3C//DTD SVG 1.1//EN"
 "http://www.w3.org/Graphics/SVG/1.1/DTD/svg11.dtd">
<!-- Generated by graphviz version 2.43.0 (0)
 -->
<!-- Title: v8::internal::wasm::ZoneBuffer::begin Pages: 1 -->
<svg width="309pt" height="110pt"
 viewBox="0.00 0.00 309.00 110.00" xmlns="http://www.w3.org/2000/svg" xmlns:xlink="http://www.w3.org/1999/xlink">
<g id="graph0" class="graph" transform="scale(1 1) rotate(0) translate(4 106)">
<title>v8::internal::wasm::ZoneBuffer::begin</title>
<polygon fill="white" stroke="transparent" points="-4,4 -4,-106 305,-106 305,4 -4,4"/>
<!-- Node1 -->
<g id="node1" class="node">
<title>Node1</title>
<g id="a_node1"><a xlink:title=" ">
<polygon fill="#bfbfbf" stroke="black" points="191,-36 191,-66 301,-66 301,-36 191,-36"/>
<text text-anchor="start" x="199" y="-54" font-family="Helvetica,sans-Serif" font-size="10.00">v8::internal::wasm</text>
<text text-anchor="middle" x="246" y="-43" font-family="Helvetica,sans-Serif" font-size="10.00">::ZoneBuffer::begin</text>
</a>
</g>
</g>
<!-- Node2 -->
<g id="node2" class="node">
<title>Node2</title>
<g id="a_node2"><a xlink:href="classv8_1_1internal_1_1wasm_1_1WasmFunctionBuilder.html#a659c33918ed9a4b35f2073b2996a0358" target="_top" xlink:title=" ">
<polygon fill="white" stroke="black" points="0,-60.5 0,-101.5 155,-101.5 155,-60.5 0,-60.5"/>
<text text-anchor="start" x="8" y="-89.5" font-family="Helvetica,sans-Serif" font-size="10.00">v8::internal::wasm</text>
<text text-anchor="start" x="8" y="-78.5" font-family="Helvetica,sans-Serif" font-size="10.00">::WasmFunctionBuilder</text>
<text text-anchor="middle" x="77.5" y="-67.5" font-family="Helvetica,sans-Serif" font-size="10.00">::WriteAsmWasmOffsetTable</text>
</a>
</g>
</g>
<!-- Node1&#45;&gt;Node2 -->
<g id="edge1" class="edge">
<title>Node1&#45;&gt;Node2</title>
<path fill="none" stroke="midnightblue" d="M180.88,-62.55C172.49,-64.06 163.84,-65.62 155.27,-67.17"/>
<polygon fill="midnightblue" stroke="midnightblue" points="181.72,-65.96 190.94,-60.74 180.48,-59.07 181.72,-65.96"/>
</g>
<!-- Node3 -->
<g id="node3" class="node">
<title>Node3</title>
<g id="a_node3"><a xlink:href="classv8_1_1internal_1_1wasm_1_1WasmFunctionBuilder.html#acf4518d800b07f99cc19533a143b356e" target="_top" xlink:title=" ">
<polygon fill="white" stroke="black" points="13.5,-0.5 13.5,-41.5 141.5,-41.5 141.5,-0.5 13.5,-0.5"/>
<text text-anchor="start" x="21.5" y="-29.5" font-family="Helvetica,sans-Serif" font-size="10.00">v8::internal::wasm</text>
<text text-anchor="start" x="21.5" y="-18.5" font-family="Helvetica,sans-Serif" font-size="10.00">::WasmFunctionBuilder</text>
<text text-anchor="middle" x="77.5" y="-7.5" font-family="Helvetica,sans-Serif" font-size="10.00">::WriteBody</text>
</a>
</g>
</g>
<!-- Node1&#45;&gt;Node3 -->
<g id="edge2" class="edge">
<title>Node1&#45;&gt;Node3</title>
<path fill="none" stroke="midnightblue" d="M180.78,-39.43C167.9,-37.11 154.39,-34.67 141.55,-32.36"/>
<polygon fill="midnightblue" stroke="midnightblue" points="180.48,-42.93 190.94,-41.26 181.72,-36.04 180.48,-42.93"/>
</g>
</g>
</svg>
