<?xml version="1.0" encoding="UTF-8" standalone="no"?>
<!DOCTYPE svg PUBLIC "-//W3C//DTD SVG 1.1//EN"
 "http://www.w3.org/Graphics/SVG/1.1/DTD/svg11.dtd">
<!-- Generated by graphviz version 2.43.0 (0)
 -->
<!-- Title: v8::internal::StringSetShape Pages: 1 -->
<svg width="284pt" height="150pt"
 viewBox="0.00 0.00 284.00 150.00" xmlns="http://www.w3.org/2000/svg" xmlns:xlink="http://www.w3.org/1999/xlink">
<g id="graph0" class="graph" transform="scale(1 1) rotate(0) translate(4 146)">
<title>v8::internal::StringSetShape</title>
<polygon fill="white" stroke="transparent" points="-4,4 -4,-146 280,-146 280,4 -4,4"/>
<!-- Node1 -->
<g id="node1" class="node">
<title>Node1</title>
<g id="a_node1"><a xlink:title=" ">
<polygon fill="#bfbfbf" stroke="black" points="43,-0.5 43,-19.5 195,-19.5 195,-0.5 43,-0.5"/>
<text text-anchor="middle" x="119" y="-7.5" font-family="Helvetica,sans-Serif" font-size="10.00">v8::internal::StringSetShape</text>
</a>
</g>
</g>
<!-- Node2 -->
<g id="node2" class="node">
<title>Node2</title>
<g id="a_node2"><a xlink:href="classv8_1_1internal_1_1BaseShape.html" target="_top" xlink:title=" ">
<polygon fill="white" stroke="black" points="0,-111.5 0,-141.5 132,-141.5 132,-111.5 0,-111.5"/>
<text text-anchor="start" x="8" y="-129.5" font-family="Helvetica,sans-Serif" font-size="10.00">v8::internal::BaseShape</text>
<text text-anchor="middle" x="66" y="-118.5" font-family="Helvetica,sans-Serif" font-size="10.00">&lt; Tagged&lt; String &gt; &gt;</text>
</a>
</g>
</g>
<!-- Node2&#45;&gt;Node1 -->
<g id="edge1" class="edge">
<title>Node2&#45;&gt;Node1</title>
<path fill="none" stroke="midnightblue" d="M76.83,-102.11C88.66,-76.54 107,-36.92 115.02,-19.59"/>
<polygon fill="midnightblue" stroke="midnightblue" points="73.52,-100.91 72.5,-111.46 79.88,-103.86 73.52,-100.91"/>
</g>
<!-- Node3 -->
<g id="node3" class="node">
<title>Node3</title>
<g id="a_node3"><a xlink:title=" ">
<polygon fill="white" stroke="#bfbfbf" points="150.5,-117 150.5,-136 193.5,-136 193.5,-117 150.5,-117"/>
<text text-anchor="middle" x="172" y="-124" font-family="Helvetica,sans-Serif" font-size="10.00">const</text>
</a>
</g>
</g>
<!-- Node3&#45;&gt;Node1 -->
<g id="edge2" class="edge">
<title>Node3&#45;&gt;Node1</title>
<path fill="none" stroke="#9a32cd" stroke-dasharray="5,2" d="M163.67,-107.5C152.11,-82.53 131.67,-38.36 123.03,-19.71"/>
<polygon fill="#9a32cd" stroke="#9a32cd" points="160.64,-109.29 168.02,-116.89 166.99,-106.35 160.64,-109.29"/>
<text text-anchor="middle" x="216" y="-85" font-family="Helvetica,sans-Serif" font-size="10.00"> kDoHashSpreading</text>
<text text-anchor="middle" x="216" y="-74" font-family="Helvetica,sans-Serif" font-size="10.00">kEntrySize</text>
<text text-anchor="middle" x="216" y="-63" font-family="Helvetica,sans-Serif" font-size="10.00">kHashBits</text>
<text text-anchor="middle" x="216" y="-52" font-family="Helvetica,sans-Serif" font-size="10.00">kMatchNeedsHoleCheck</text>
<text text-anchor="middle" x="216" y="-41" font-family="Helvetica,sans-Serif" font-size="10.00">kPrefixSize</text>
</g>
</g>
</svg>
