<?xml version="1.0" encoding="UTF-8" standalone="no"?>
<!DOCTYPE svg PUBLIC "-//W3C//DTD SVG 1.1//EN"
 "http://www.w3.org/Graphics/SVG/1.1/DTD/svg11.dtd">
<!-- Generated by graphviz version 2.43.0 (0)
 -->
<!-- Title: v8::internal::WasmJSFunction::IsWasmJSFunction Pages: 1 -->
<svg width="1128pt" height="875pt"
 viewBox="0.00 0.00 1128.00 874.50" xmlns="http://www.w3.org/2000/svg" xmlns:xlink="http://www.w3.org/1999/xlink">
<g id="graph0" class="graph" transform="scale(1 1) rotate(0) translate(4 870.5)">
<title>v8::internal::WasmJSFunction::IsWasmJSFunction</title>
<polygon fill="white" stroke="transparent" points="-4,4 -4,-870.5 1124,-870.5 1124,4 -4,4"/>
<!-- Node1 -->
<g id="node1" class="node">
<title>Node1</title>
<g id="a_node1"><a xlink:title=" ">
<polygon fill="#bfbfbf" stroke="black" points="962,-183.5 962,-213.5 1120,-213.5 1120,-183.5 962,-183.5"/>
<text text-anchor="start" x="970" y="-201.5" font-family="Helvetica,sans-Serif" font-size="10.00">v8::internal::WasmJSFunction</text>
<text text-anchor="middle" x="1041" y="-190.5" font-family="Helvetica,sans-Serif" font-size="10.00">::IsWasmJSFunction</text>
</a>
</g>
</g>
<!-- Node2 -->
<g id="node2" class="node">
<title>Node2</title>
<g id="a_node2"><a xlink:href="classv8_1_1internal_1_1WasmTableObject.html#a155821336cf0ba7fe765cc56e972c22a" target="_top" xlink:title=" ">
<polygon fill="white" stroke="black" points="724,-320.5 724,-350.5 889,-350.5 889,-320.5 724,-320.5"/>
<text text-anchor="start" x="732" y="-338.5" font-family="Helvetica,sans-Serif" font-size="10.00">v8::internal::WasmTableObject</text>
<text text-anchor="middle" x="806.5" y="-327.5" font-family="Helvetica,sans-Serif" font-size="10.00">::GetFunctionTableEntry</text>
</a>
</g>
</g>
<!-- Node1&#45;&gt;Node2 -->
<g id="edge1" class="edge">
<title>Node1&#45;&gt;Node2</title>
<path fill="none" stroke="midnightblue" d="M1023.17,-221.98C1003.1,-248.12 967.08,-289.57 926,-311.5 914.61,-317.58 901.86,-322.12 889.05,-325.52"/>
<polygon fill="midnightblue" stroke="midnightblue" points="1026.14,-223.85 1029.35,-213.75 1020.54,-219.65 1026.14,-223.85"/>
</g>
<!-- Node3 -->
<g id="node3" class="node">
<title>Node3</title>
<g id="a_node3"><a xlink:href="classv8_1_1internal_1_1WasmExternalFunction.html#ac2a96212bef554982c768f1c04f72d20" target="_top" xlink:title=" ">
<polygon fill="white" stroke="black" points="714.5,-183.5 714.5,-213.5 898.5,-213.5 898.5,-183.5 714.5,-183.5"/>
<text text-anchor="start" x="722.5" y="-201.5" font-family="Helvetica,sans-Serif" font-size="10.00">v8::internal::WasmExternal</text>
<text text-anchor="middle" x="806.5" y="-190.5" font-family="Helvetica,sans-Serif" font-size="10.00">Function::IsWasmExternalFunction</text>
</a>
</g>
</g>
<!-- Node1&#45;&gt;Node3 -->
<g id="edge2" class="edge">
<title>Node1&#45;&gt;Node3</title>
<path fill="none" stroke="midnightblue" d="M951.81,-198.5C934.41,-198.5 916.12,-198.5 898.63,-198.5"/>
<polygon fill="midnightblue" stroke="midnightblue" points="951.93,-202 961.93,-198.5 951.93,-195 951.93,-202"/>
</g>
<!-- Node5 -->
<g id="node5" class="node">
<title>Node5</title>
<g id="a_node5"><a xlink:href="namespacev8_1_1internal_1_1wasm.html#a3e2697d50763bb9f401d4c992e24a074" target="_top" xlink:title=" ">
<polygon fill="white" stroke="black" points="520,-268.5 520,-298.5 627,-298.5 627,-268.5 520,-268.5"/>
<text text-anchor="start" x="528" y="-286.5" font-family="Helvetica,sans-Serif" font-size="10.00">v8::internal::wasm</text>
<text text-anchor="middle" x="573.5" y="-275.5" font-family="Helvetica,sans-Serif" font-size="10.00">::JSToWasmObject</text>
</a>
</g>
</g>
<!-- Node1&#45;&gt;Node5 -->
<g id="edge19" class="edge">
<title>Node1&#45;&gt;Node5</title>
<path fill="none" stroke="midnightblue" d="M960.64,-215.65C949.04,-218.03 937.22,-220.38 926,-222.5 820.17,-242.49 793.05,-243.73 687,-262.5 667.44,-265.96 645.99,-269.92 627.12,-273.47"/>
<polygon fill="midnightblue" stroke="midnightblue" points="961.68,-219.01 970.76,-213.56 960.26,-212.15 961.68,-219.01"/>
</g>
<!-- Node37 -->
<g id="node19" class="node">
<title>Node37</title>
<g id="a_node19"><a xlink:href="namespacev8_1_1internal.html#a7f5bd6d4c3b703807505ce375db655da" target="_top" xlink:title=" ">
<polygon fill="white" stroke="black" points="744.5,-134.5 744.5,-164.5 868.5,-164.5 868.5,-134.5 744.5,-134.5"/>
<text text-anchor="start" x="752.5" y="-152.5" font-family="Helvetica,sans-Serif" font-size="10.00">v8::internal::RUNTIME</text>
<text text-anchor="middle" x="806.5" y="-141.5" font-family="Helvetica,sans-Serif" font-size="10.00">_FUNCTION</text>
</a>
</g>
</g>
<!-- Node1&#45;&gt;Node37 -->
<g id="edge20" class="edge">
<title>Node1&#45;&gt;Node37</title>
<path fill="none" stroke="midnightblue" d="M962.15,-181.25C950.05,-178.62 937.69,-175.97 926,-173.5 907.41,-169.58 887.16,-165.43 868.74,-161.71"/>
<polygon fill="midnightblue" stroke="midnightblue" points="961.71,-184.74 972.22,-183.45 963.2,-177.9 961.71,-184.74"/>
</g>
<!-- Node38 -->
<g id="node20" class="node">
<title>Node38</title>
<g id="a_node20"><a xlink:href="classv8_1_1internal_1_1WasmTableObject.html#a4d17c6f8f0a18a656e9037595396372f" target="_top" xlink:title=" ">
<polygon fill="white" stroke="black" points="724,-271.5 724,-301.5 889,-301.5 889,-271.5 724,-271.5"/>
<text text-anchor="start" x="732" y="-289.5" font-family="Helvetica,sans-Serif" font-size="10.00">v8::internal::WasmTableObject</text>
<text text-anchor="middle" x="806.5" y="-278.5" font-family="Helvetica,sans-Serif" font-size="10.00">::SetFunctionTableEntry</text>
</a>
</g>
</g>
<!-- Node1&#45;&gt;Node38 -->
<g id="edge21" class="edge">
<title>Node1&#45;&gt;Node38</title>
<path fill="none" stroke="midnightblue" d="M1005.49,-218.61C983.34,-230.87 953.65,-246.12 926,-256.5 910.7,-262.25 893.89,-267.25 877.85,-271.44"/>
<polygon fill="midnightblue" stroke="midnightblue" points="1007.48,-221.51 1014.49,-213.56 1004.05,-215.4 1007.48,-221.51"/>
</g>
<!-- Node57 -->
<g id="node30" class="node">
<title>Node57</title>
<g id="a_node30"><a xlink:href="namespacev8_1_1anonymous__namespace_02wasm-js_8cc_03.html#a82b07981395ae632c3887915a53d27a2" target="_top" xlink:title=" ">
<polygon fill="white" stroke="black" points="694,-52.5 694,-82.5 919,-82.5 919,-52.5 694,-52.5"/>
<text text-anchor="start" x="702" y="-70.5" font-family="Helvetica,sans-Serif" font-size="10.00">v8::anonymous_namespace</text>
<text text-anchor="middle" x="806.5" y="-59.5" font-family="Helvetica,sans-Serif" font-size="10.00">{wasm&#45;js::cc}::WebAssemblyFunctionType</text>
</a>
</g>
</g>
<!-- Node1&#45;&gt;Node57 -->
<g id="edge33" class="edge">
<title>Node1&#45;&gt;Node57</title>
<path fill="none" stroke="midnightblue" d="M1010.17,-177.64C987.55,-162.19 955.42,-141.03 926,-124.5 898.34,-108.95 865.78,-93.48 841.8,-82.59"/>
<polygon fill="midnightblue" stroke="midnightblue" points="1008.43,-180.69 1018.66,-183.47 1012.4,-174.92 1008.43,-180.69"/>
</g>
<!-- Node59 -->
<g id="node32" class="node">
<title>Node59</title>
<g id="a_node32"><a xlink:href="namespacev8_1_1anonymous__namespace_02wasm-js_8cc_03.html#ab0c0a787d5c8f47ec9cd549345c95fad" target="_top" xlink:title=" ">
<polygon fill="white" stroke="black" points="687,-3.5 687,-33.5 926,-33.5 926,-3.5 687,-3.5"/>
<text text-anchor="start" x="695" y="-21.5" font-family="Helvetica,sans-Serif" font-size="10.00">v8::anonymous_namespace</text>
<text text-anchor="middle" x="806.5" y="-10.5" font-family="Helvetica,sans-Serif" font-size="10.00">{wasm&#45;js::cc}::WebAssemblySuspendingImpl</text>
</a>
</g>
</g>
<!-- Node1&#45;&gt;Node59 -->
<g id="edge35" class="edge">
<title>Node1&#45;&gt;Node59</title>
<path fill="none" stroke="midnightblue" d="M1029.07,-173.62C1012.27,-138.47 976.64,-74.94 926,-42.5 920.61,-39.05 914.82,-36.08 908.81,-33.52"/>
<polygon fill="midnightblue" stroke="midnightblue" points="1026.11,-175.55 1033.49,-183.14 1032.46,-172.6 1026.11,-175.55"/>
</g>
<!-- Node4 -->
<g id="node4" class="node">
<title>Node4</title>
<g id="a_node4"><a xlink:href="structv8_1_1internal_1_1CastTraits_3_01WasmExternalFunction_01_4.html#a497fbcfdae177f8b54b45c84b4aed2d7" target="_top" xlink:title=" ">
<polygon fill="white" stroke="black" points="503.5,-208 503.5,-249 643.5,-249 643.5,-208 503.5,-208"/>
<text text-anchor="start" x="511.5" y="-237" font-family="Helvetica,sans-Serif" font-size="10.00">v8::internal::CastTraits</text>
<text text-anchor="start" x="511.5" y="-226" font-family="Helvetica,sans-Serif" font-size="10.00">&lt; WasmExternalFunction</text>
<text text-anchor="middle" x="573.5" y="-215" font-family="Helvetica,sans-Serif" font-size="10.00"> &gt;::AllowFrom</text>
</a>
</g>
</g>
<!-- Node3&#45;&gt;Node4 -->
<g id="edge3" class="edge">
<title>Node3&#45;&gt;Node4</title>
<path fill="none" stroke="midnightblue" d="M704.24,-211.65C683.81,-214.3 662.78,-217.03 643.76,-219.51"/>
<polygon fill="midnightblue" stroke="midnightblue" points="704.74,-215.12 714.2,-210.36 703.84,-208.17 704.74,-215.12"/>
</g>
<!-- Node3&#45;&gt;Node5 -->
<g id="edge4" class="edge">
<title>Node3&#45;&gt;Node5</title>
<path fill="none" stroke="midnightblue" d="M715.75,-216.62C705.81,-219.97 696.03,-223.9 687,-228.5 668.44,-237.96 669.22,-248.42 651,-258.5 643.54,-262.63 635.29,-266.2 627.06,-269.26"/>
<polygon fill="midnightblue" stroke="midnightblue" points="716.84,-219.95 725.31,-213.59 714.72,-213.28 716.84,-219.95"/>
</g>
<!-- Node35 -->
<g id="node17" class="node">
<title>Node35</title>
<g id="a_node17"><a xlink:href="classv8_1_1internal_1_1wasm_1_1InstanceBuilder.html#af8b0f7163912ee8ba7dc6cfaec3c0138" target="_top" xlink:title=" ">
<polygon fill="white" stroke="black" points="502.5,-148 502.5,-189 644.5,-189 644.5,-148 502.5,-148"/>
<text text-anchor="start" x="510.5" y="-177" font-family="Helvetica,sans-Serif" font-size="10.00">v8::internal::wasm</text>
<text text-anchor="start" x="510.5" y="-166" font-family="Helvetica,sans-Serif" font-size="10.00">::InstanceBuilder::Process</text>
<text text-anchor="middle" x="573.5" y="-155" font-family="Helvetica,sans-Serif" font-size="10.00">ImportedFunction</text>
</a>
</g>
</g>
<!-- Node3&#45;&gt;Node35 -->
<g id="edge16" class="edge">
<title>Node3&#45;&gt;Node35</title>
<path fill="none" stroke="midnightblue" d="M704.12,-185.33C684.12,-182.74 663.54,-180.06 644.83,-177.63"/>
<polygon fill="midnightblue" stroke="midnightblue" points="703.84,-188.83 714.2,-186.64 704.74,-181.88 703.84,-188.83"/>
</g>
<!-- Node36 -->
<g id="node18" class="node">
<title>Node36</title>
<g id="a_node18"><a xlink:href="namespacev8_1_1internal.html#a1adf0384864c9464f2ed628352deabee" target="_top" xlink:title=" ">
<polygon fill="white" stroke="black" points="511.5,-98.5 511.5,-128.5 635.5,-128.5 635.5,-98.5 511.5,-98.5"/>
<text text-anchor="start" x="519.5" y="-116.5" font-family="Helvetica,sans-Serif" font-size="10.00">v8::internal::RUNTIME</text>
<text text-anchor="middle" x="573.5" y="-105.5" font-family="Helvetica,sans-Serif" font-size="10.00">_FUNCTION</text>
</a>
</g>
</g>
<!-- Node3&#45;&gt;Node36 -->
<g id="edge18" class="edge">
<title>Node3&#45;&gt;Node36</title>
<path fill="none" stroke="midnightblue" d="M704.63,-181.43C698.53,-179.11 692.6,-176.48 687,-173.5 667.31,-163.01 670.1,-150.04 651,-138.5 644.66,-134.67 637.67,-131.35 630.56,-128.5"/>
<polygon fill="midnightblue" stroke="midnightblue" points="703.74,-184.82 714.33,-184.81 706.05,-178.22 703.74,-184.82"/>
</g>
<!-- Node6 -->
<g id="node6" class="node">
<title>Node6</title>
<g id="a_node6"><a xlink:href="namespacev8_1_1anonymous__namespace_02wasm-js_8cc_03_1_1anonymous__namespace_02wasm-js_8cc_03.html#a0c59b1dfcb356042e275ff204f1127be" target="_top" xlink:title=" ">
<polygon fill="white" stroke="red" points="276,-173.5 276,-225.5 429,-225.5 429,-173.5 276,-173.5"/>
<text text-anchor="start" x="284" y="-213.5" font-family="Helvetica,sans-Serif" font-size="10.00">v8::anonymous_namespace</text>
<text text-anchor="start" x="284" y="-202.5" font-family="Helvetica,sans-Serif" font-size="10.00">{wasm&#45;js::cc}::anonymous</text>
<text text-anchor="start" x="284" y="-191.5" font-family="Helvetica,sans-Serif" font-size="10.00">_namespace{wasm&#45;js::cc}</text>
<text text-anchor="middle" x="352.5" y="-180.5" font-family="Helvetica,sans-Serif" font-size="10.00">::EncodeExceptionValues</text>
</a>
</g>
</g>
<!-- Node5&#45;&gt;Node6 -->
<g id="edge5" class="edge">
<title>Node5&#45;&gt;Node6</title>
<path fill="none" stroke="midnightblue" d="M510.66,-264.8C505.64,-262.83 500.69,-260.72 496,-258.5 478.84,-250.38 477.12,-243.71 460,-235.5 450.23,-230.82 439.7,-226.47 429.18,-222.54"/>
<polygon fill="midnightblue" stroke="midnightblue" points="509.78,-268.21 520.37,-268.43 512.23,-261.65 509.78,-268.21"/>
</g>
<!-- Node8 -->
<g id="node7" class="node">
<title>Node8</title>
<g id="a_node7"><a xlink:href="classv8_1_1internal_1_1WasmTableObject.html#aaa393ceb64344c386d966b5b1c6e9a16" target="_top" xlink:title=" ">
<polygon fill="white" stroke="red" points="270,-403.5 270,-433.5 435,-433.5 435,-403.5 270,-403.5"/>
<text text-anchor="start" x="278" y="-421.5" font-family="Helvetica,sans-Serif" font-size="10.00">v8::internal::WasmTableObject</text>
<text text-anchor="middle" x="352.5" y="-410.5" font-family="Helvetica,sans-Serif" font-size="10.00">::JSToWasmElement</text>
</a>
</g>
</g>
<!-- Node5&#45;&gt;Node8 -->
<g id="edge6" class="edge">
<title>Node5&#45;&gt;Node8</title>
<path fill="none" stroke="midnightblue" d="M555.38,-306.54C535.34,-331.8 499.79,-371.64 460,-393.5 452.26,-397.75 443.82,-401.28 435.18,-404.22"/>
<polygon fill="midnightblue" stroke="midnightblue" points="558.19,-308.62 561.56,-298.58 552.66,-304.32 558.19,-308.62"/>
</g>
<!-- Node12 -->
<g id="node10" class="node">
<title>Node12</title>
<g id="a_node10"><a xlink:href="namespacev8_1_1internal_1_1wasm.html#af45c6ff2b232226ab6fe2deaf3600bf3" target="_top" xlink:title=" ">
<polygon fill="white" stroke="black" points="299,-63.5 299,-93.5 406,-93.5 406,-63.5 299,-63.5"/>
<text text-anchor="start" x="307" y="-81.5" font-family="Helvetica,sans-Serif" font-size="10.00">v8::internal::wasm</text>
<text text-anchor="middle" x="352.5" y="-70.5" font-family="Helvetica,sans-Serif" font-size="10.00">::JSToWasmObject</text>
</a>
</g>
</g>
<!-- Node5&#45;&gt;Node12 -->
<g id="edge9" class="edge">
<title>Node5&#45;&gt;Node12</title>
<path fill="none" stroke="midnightblue" d="M510.39,-269.7C505.04,-266.67 500.11,-262.99 496,-258.5 448.23,-206.35 509.95,-153.57 460,-103.5 445.92,-89.38 425.47,-82.64 406.25,-79.6"/>
<polygon fill="midnightblue" stroke="midnightblue" points="509.18,-273 519.71,-274.19 512.22,-266.7 509.18,-273"/>
</g>
<!-- Node13 -->
<g id="node11" class="node">
<title>Node13</title>
<g id="a_node11"><a xlink:href="classv8_1_1internal_1_1wasm_1_1WasmInterpreterRuntime.html#a29c451b2b3dbcd36f925d842890a1657" target="_top" xlink:title=" ">
<polygon fill="white" stroke="red" points="279.5,-453 279.5,-494 425.5,-494 425.5,-453 279.5,-453"/>
<text text-anchor="start" x="287.5" y="-482" font-family="Helvetica,sans-Serif" font-size="10.00">v8::internal::wasm</text>
<text text-anchor="start" x="287.5" y="-471" font-family="Helvetica,sans-Serif" font-size="10.00">::WasmInterpreterRuntime</text>
<text text-anchor="middle" x="352.5" y="-460" font-family="Helvetica,sans-Serif" font-size="10.00">::JSToWasmObject</text>
</a>
</g>
</g>
<!-- Node5&#45;&gt;Node13 -->
<g id="edge10" class="edge">
<title>Node5&#45;&gt;Node13</title>
<path fill="none" stroke="midnightblue" d="M561.85,-308.05C545.26,-343.37 509.9,-408.16 460,-443.5 449.73,-450.77 437.75,-456.29 425.6,-460.47"/>
<polygon fill="midnightblue" stroke="midnightblue" points="565.05,-309.47 566.03,-298.92 558.68,-306.55 565.05,-309.47"/>
</g>
<!-- Node21 -->
<g id="node12" class="node">
<title>Node21</title>
<g id="a_node12"><a xlink:href="classv8_1_1internal_1_1wasm_1_1InstanceBuilder.html#ab312bd78f66545c510a7670c7da5e2ab" target="_top" xlink:title=" ">
<polygon fill="white" stroke="black" points="281.5,-343 281.5,-384 423.5,-384 423.5,-343 281.5,-343"/>
<text text-anchor="start" x="289.5" y="-372" font-family="Helvetica,sans-Serif" font-size="10.00">v8::internal::wasm</text>
<text text-anchor="start" x="289.5" y="-361" font-family="Helvetica,sans-Serif" font-size="10.00">::InstanceBuilder::Process</text>
<text text-anchor="middle" x="352.5" y="-350" font-family="Helvetica,sans-Serif" font-size="10.00">ImportedGlobal</text>
</a>
</g>
</g>
<!-- Node5&#45;&gt;Node21 -->
<g id="edge11" class="edge">
<title>Node5&#45;&gt;Node21</title>
<path fill="none" stroke="midnightblue" d="M532.89,-302.78C511.59,-312.72 484.69,-324.59 460,-333.5 448.35,-337.71 435.8,-341.7 423.56,-345.32"/>
<polygon fill="midnightblue" stroke="midnightblue" points="534.4,-305.94 541.95,-298.51 531.41,-299.61 534.4,-305.94"/>
</g>
<!-- Node32 -->
<g id="node14" class="node">
<title>Node32</title>
<g id="a_node14"><a xlink:href="namespacev8_1_1internal.html#a80b9d115705986c32e4fb76878d45563" target="_top" xlink:title=" ">
<polygon fill="white" stroke="black" points="290.5,-293.5 290.5,-323.5 414.5,-323.5 414.5,-293.5 290.5,-293.5"/>
<text text-anchor="start" x="298.5" y="-311.5" font-family="Helvetica,sans-Serif" font-size="10.00">v8::internal::RUNTIME</text>
<text text-anchor="middle" x="352.5" y="-300.5" font-family="Helvetica,sans-Serif" font-size="10.00">_FUNCTION</text>
</a>
</g>
</g>
<!-- Node5&#45;&gt;Node32 -->
<g id="edge13" class="edge">
<title>Node5&#45;&gt;Node32</title>
<path fill="none" stroke="midnightblue" d="M509.48,-290.69C479.69,-294.1 444.26,-298.14 414.7,-301.51"/>
<polygon fill="midnightblue" stroke="midnightblue" points="510.23,-294.13 519.77,-289.52 509.43,-287.18 510.23,-294.13"/>
</g>
<!-- Node33 -->
<g id="node15" class="node">
<title>Node33</title>
<g id="a_node15"><a xlink:href="namespacev8_1_1anonymous__namespace_02wasm-js_8cc_03.html#ac6db6d9d019560128460f337b6d48055" target="_top" xlink:title=" ">
<polygon fill="white" stroke="black" points="245,-244.5 245,-274.5 460,-274.5 460,-244.5 245,-244.5"/>
<text text-anchor="start" x="253" y="-262.5" font-family="Helvetica,sans-Serif" font-size="10.00">v8::anonymous_namespace</text>
<text text-anchor="middle" x="352.5" y="-251.5" font-family="Helvetica,sans-Serif" font-size="10.00">{wasm&#45;js::cc}::WebAssemblyGlobalImpl</text>
</a>
</g>
</g>
<!-- Node5&#45;&gt;Node33 -->
<g id="edge14" class="edge">
<title>Node5&#45;&gt;Node33</title>
<path fill="none" stroke="midnightblue" d="M509.82,-276.63C494.32,-274.93 477.29,-273.07 460.33,-271.21"/>
<polygon fill="midnightblue" stroke="midnightblue" points="509.44,-280.11 519.77,-277.72 510.21,-273.15 509.44,-280.11"/>
</g>
<!-- Node34 -->
<g id="node16" class="node">
<title>Node34</title>
<g id="a_node16"><a xlink:href="namespacev8_1_1anonymous__namespace_02wasm-js_8cc_03.html#a0445641ba7db42f32e5fc96d543b9bfb" target="_top" xlink:title=" ">
<polygon fill="white" stroke="black" points="256,-113 256,-154 449,-154 449,-113 256,-113"/>
<text text-anchor="start" x="264" y="-142" font-family="Helvetica,sans-Serif" font-size="10.00">v8::anonymous_namespace</text>
<text text-anchor="start" x="264" y="-131" font-family="Helvetica,sans-Serif" font-size="10.00">{wasm&#45;js::cc}::WebAssemblyGlobal</text>
<text text-anchor="middle" x="352.5" y="-120" font-family="Helvetica,sans-Serif" font-size="10.00">SetValueImpl</text>
</a>
</g>
</g>
<!-- Node5&#45;&gt;Node34 -->
<g id="edge15" class="edge">
<title>Node5&#45;&gt;Node34</title>
<path fill="none" stroke="midnightblue" d="M510.51,-268.85C505.22,-265.99 500.27,-262.58 496,-258.5 463.34,-227.32 493.3,-194 460,-163.5 456.18,-160 451.97,-156.9 447.51,-154.16"/>
<polygon fill="midnightblue" stroke="midnightblue" points="509.12,-272.06 519.66,-273.15 512.09,-265.73 509.12,-272.06"/>
</g>
<!-- Node10 -->
<g id="node8" class="node">
<title>Node10</title>
<g id="a_node8"><a xlink:href="namespacev8_1_1anonymous__namespace_02wasm-js_8cc_03.html#af8c6d861773fb2c5a56b9929ec87d2df" target="_top" xlink:title=" ">
<polygon fill="white" stroke="black" points="0,-348.5 0,-378.5 209,-378.5 209,-348.5 0,-348.5"/>
<text text-anchor="start" x="8" y="-366.5" font-family="Helvetica,sans-Serif" font-size="10.00">v8::anonymous_namespace</text>
<text text-anchor="middle" x="104.5" y="-355.5" font-family="Helvetica,sans-Serif" font-size="10.00">{wasm&#45;js::cc}::WebAssemblyTableImpl</text>
</a>
</g>
</g>
<!-- Node8&#45;&gt;Node10 -->
<g id="edge7" class="edge">
<title>Node8&#45;&gt;Node10</title>
<path fill="none" stroke="midnightblue" d="M274.33,-401.25C241.72,-393.95 204.09,-385.54 172.64,-378.51"/>
<polygon fill="midnightblue" stroke="midnightblue" points="273.76,-404.7 284.28,-403.47 275.28,-397.87 273.76,-404.7"/>
</g>
<!-- Node11 -->
<g id="node9" class="node">
<title>Node11</title>
<g id="a_node9"><a xlink:href="namespacev8_1_1anonymous__namespace_02wasm-js_8cc_03.html#a93e08326b017c12ec308795bc251bf91" target="_top" xlink:title=" ">
<polygon fill="white" stroke="black" points="11,-398 11,-439 198,-439 198,-398 11,-398"/>
<text text-anchor="start" x="19" y="-427" font-family="Helvetica,sans-Serif" font-size="10.00">v8::anonymous_namespace</text>
<text text-anchor="start" x="19" y="-416" font-family="Helvetica,sans-Serif" font-size="10.00">{wasm&#45;js::cc}::WebAssemblyTable</text>
<text text-anchor="middle" x="104.5" y="-405" font-family="Helvetica,sans-Serif" font-size="10.00">SetImpl</text>
</a>
</g>
</g>
<!-- Node8&#45;&gt;Node11 -->
<g id="edge8" class="edge">
<title>Node8&#45;&gt;Node11</title>
<path fill="none" stroke="midnightblue" d="M259.86,-418.5C239.76,-418.5 218.47,-418.5 198.33,-418.5"/>
<polygon fill="midnightblue" stroke="midnightblue" points="259.93,-422 269.93,-418.5 259.93,-415 259.93,-422"/>
</g>
<!-- Node22 -->
<g id="node13" class="node">
<title>Node22</title>
<g id="a_node13"><a xlink:href="classv8_1_1internal_1_1wasm_1_1InstanceBuilder.html#a1dd661a91a2054913525990d4d6def25" target="_top" xlink:title=" ">
<polygon fill="white" stroke="red" points="33.5,-151 33.5,-192 175.5,-192 175.5,-151 33.5,-151"/>
<text text-anchor="start" x="41.5" y="-180" font-family="Helvetica,sans-Serif" font-size="10.00">v8::internal::wasm</text>
<text text-anchor="start" x="41.5" y="-169" font-family="Helvetica,sans-Serif" font-size="10.00">::InstanceBuilder::Process</text>
<text text-anchor="middle" x="104.5" y="-158" font-family="Helvetica,sans-Serif" font-size="10.00">Imports</text>
</a>
</g>
</g>
<!-- Node21&#45;&gt;Node22 -->
<g id="edge12" class="edge">
<title>Node21&#45;&gt;Node22</title>
<path fill="none" stroke="midnightblue" d="M271.89,-346.72C262.46,-343.12 253.26,-338.76 245,-333.5 186.31,-296.11 138.76,-226.59 117.51,-192.06"/>
<polygon fill="midnightblue" stroke="midnightblue" points="270.78,-350.04 281.37,-350.08 273.12,-343.44 270.78,-350.04"/>
</g>
<!-- Node35&#45;&gt;Node22 -->
<g id="edge17" class="edge">
<title>Node35&#45;&gt;Node22</title>
<path fill="none" stroke="midnightblue" d="M501.12,-142.04C499.34,-140.6 497.62,-139.09 496,-137.5 466.99,-109.07 493.91,-75.86 460,-53.5 380.23,-0.9 334.73,-20.64 245,-53.5 191.98,-72.92 145.25,-122.38 121.69,-150.72"/>
<polygon fill="midnightblue" stroke="midnightblue" points="499.2,-144.96 509.39,-147.87 503.24,-139.25 499.2,-144.96"/>
</g>
<!-- Node39 -->
<g id="node21" class="node">
<title>Node39</title>
<g id="a_node21"><a xlink:href="classv8_1_1internal_1_1WasmTableObject.html#acfdec070b48fe34a36f7aa7fed63a969" target="_top" xlink:title=" ">
<polygon fill="white" stroke="black" points="259,-579 259,-598 446,-598 446,-579 259,-579"/>
<text text-anchor="middle" x="352.5" y="-586" font-family="Helvetica,sans-Serif" font-size="10.00">v8::internal::WasmTableObject::Set</text>
</a>
</g>
</g>
<!-- Node38&#45;&gt;Node39 -->
<g id="edge22" class="edge">
<title>Node38&#45;&gt;Node39</title>
<path fill="none" stroke="midnightblue" d="M713.96,-301C704.63,-303.89 695.48,-307.35 687,-311.5 568.31,-369.57 562.09,-419.61 460,-503.5 426.19,-531.28 385.63,-563.3 365.73,-578.92"/>
<polygon fill="midnightblue" stroke="midnightblue" points="715.08,-304.32 723.72,-298.19 713.14,-297.59 715.08,-304.32"/>
</g>
<!-- Node39&#45;&gt;Node10 -->
<g id="edge31" class="edge">
<title>Node39&#45;&gt;Node10</title>
<path fill="none" stroke="midnightblue" d="M325.02,-573.68C300.86,-558.87 265.85,-533.96 245,-503.5 214.75,-459.31 248.11,-425.09 209,-388.5 204.95,-384.71 200.43,-381.47 195.6,-378.69"/>
<polygon fill="midnightblue" stroke="midnightblue" points="323.31,-576.74 333.69,-578.85 326.89,-570.72 323.31,-576.74"/>
</g>
<!-- Node39&#45;&gt;Node11 -->
<g id="edge32" class="edge">
<title>Node39&#45;&gt;Node11</title>
<path fill="none" stroke="midnightblue" d="M328.08,-573.09C305.23,-557.34 270.3,-531.3 245,-503.5 225.34,-481.89 232.49,-465.87 209,-448.5 204.19,-444.94 198.96,-441.8 193.5,-439.04"/>
<polygon fill="midnightblue" stroke="midnightblue" points="326.25,-576.08 336.49,-578.8 330.18,-570.29 326.25,-576.08"/>
</g>
<!-- Node40 -->
<g id="node22" class="node">
<title>Node40</title>
<g id="a_node22"><a xlink:href="classv8_1_1internal_1_1WasmTrustedInstanceData.html#ad5fa0df8fba113e186afd8a1b10b8161" target="_top" xlink:title=" ">
<polygon fill="white" stroke="red" points="19,-775.5 19,-805.5 190,-805.5 190,-775.5 19,-775.5"/>
<text text-anchor="start" x="27" y="-793.5" font-family="Helvetica,sans-Serif" font-size="10.00">v8::internal::WasmTrusted</text>
<text text-anchor="middle" x="104.5" y="-782.5" font-family="Helvetica,sans-Serif" font-size="10.00">InstanceData::CopyTableEntries</text>
</a>
</g>
</g>
<!-- Node39&#45;&gt;Node40 -->
<g id="edge23" class="edge">
<title>Node39&#45;&gt;Node40</title>
<path fill="none" stroke="midnightblue" d="M342.12,-607.17C322.66,-643.88 274.23,-725.44 209,-766.5 203.15,-770.18 196.79,-773.3 190.19,-775.95"/>
<polygon fill="midnightblue" stroke="midnightblue" points="345.34,-608.57 346.83,-598.08 339.12,-605.35 345.34,-608.57"/>
</g>
<!-- Node43 -->
<g id="node23" class="node">
<title>Node43</title>
<g id="a_node23"><a xlink:href="classv8_1_1internal_1_1WasmTableObject.html#abd200bd6702d0b1d288516cb0f7173fc" target="_top" xlink:title=" ">
<polygon fill="white" stroke="red" points="22,-726.5 22,-756.5 187,-756.5 187,-726.5 22,-726.5"/>
<text text-anchor="start" x="30" y="-744.5" font-family="Helvetica,sans-Serif" font-size="10.00">v8::internal::WasmTableObject</text>
<text text-anchor="middle" x="104.5" y="-733.5" font-family="Helvetica,sans-Serif" font-size="10.00">::Fill</text>
</a>
</g>
</g>
<!-- Node39&#45;&gt;Node43 -->
<g id="edge24" class="edge">
<title>Node39&#45;&gt;Node43</title>
<path fill="none" stroke="midnightblue" d="M337.62,-605.81C314.19,-633.8 263.94,-688.77 209,-717.5 202.13,-721.09 194.74,-724.15 187.16,-726.75"/>
<polygon fill="midnightblue" stroke="midnightblue" points="340.35,-607.99 344,-598.05 334.95,-603.54 340.35,-607.99"/>
</g>
<!-- Node46 -->
<g id="node24" class="node">
<title>Node46</title>
<g id="a_node24"><a xlink:href="classv8_1_1internal_1_1WasmTableObject.html#ad51363b96ea8a38d2957f46f2767b4de" target="_top" xlink:title=" ">
<polygon fill="white" stroke="red" points="22,-677.5 22,-707.5 187,-707.5 187,-677.5 22,-677.5"/>
<text text-anchor="start" x="30" y="-695.5" font-family="Helvetica,sans-Serif" font-size="10.00">v8::internal::WasmTableObject</text>
<text text-anchor="middle" x="104.5" y="-684.5" font-family="Helvetica,sans-Serif" font-size="10.00">::Grow</text>
</a>
</g>
</g>
<!-- Node39&#45;&gt;Node46 -->
<g id="edge25" class="edge">
<title>Node39&#45;&gt;Node46</title>
<path fill="none" stroke="midnightblue" d="M329.19,-603.68C301.95,-621.58 253.92,-651.09 209,-668.5 200.31,-671.87 191.03,-674.84 181.72,-677.44"/>
<polygon fill="midnightblue" stroke="midnightblue" points="331.21,-606.54 337.6,-598.09 327.34,-600.71 331.21,-606.54"/>
</g>
<!-- Node49 -->
<g id="node25" class="node">
<title>Node49</title>
<g id="a_node25"><a xlink:href="classv8_1_1internal_1_1WasmTrustedInstanceData.html#a77178e357a3856cdbbeb238b075f45e4" target="_top" xlink:title=" ">
<polygon fill="white" stroke="red" points="23.5,-628.5 23.5,-658.5 185.5,-658.5 185.5,-628.5 23.5,-628.5"/>
<text text-anchor="start" x="31.5" y="-646.5" font-family="Helvetica,sans-Serif" font-size="10.00">v8::internal::WasmTrusted</text>
<text text-anchor="middle" x="104.5" y="-635.5" font-family="Helvetica,sans-Serif" font-size="10.00">InstanceData::InitTableEntries</text>
</a>
</g>
</g>
<!-- Node39&#45;&gt;Node49 -->
<g id="edge26" class="edge">
<title>Node39&#45;&gt;Node49</title>
<path fill="none" stroke="midnightblue" d="M298.91,-600.26C262.15,-608.48 212.72,-619.53 173.04,-628.4"/>
<polygon fill="midnightblue" stroke="midnightblue" points="299.94,-603.62 308.93,-598.02 298.41,-596.78 299.94,-603.62"/>
</g>
<!-- Node52 -->
<g id="node26" class="node">
<title>Node52</title>
<g id="a_node26"><a xlink:href="classv8_1_1internal_1_1wasm_1_1InstanceBuilder.html#adde97133349687e93ab015b5f98ef6bc" target="_top" xlink:title=" ">
<polygon fill="white" stroke="red" points="28,-568 28,-609 181,-609 181,-568 28,-568"/>
<text text-anchor="start" x="36" y="-597" font-family="Helvetica,sans-Serif" font-size="10.00">v8::internal::wasm</text>
<text text-anchor="start" x="36" y="-586" font-family="Helvetica,sans-Serif" font-size="10.00">::InstanceBuilder::LoadTable</text>
<text text-anchor="middle" x="104.5" y="-575" font-family="Helvetica,sans-Serif" font-size="10.00">Segments</text>
</a>
</g>
</g>
<!-- Node39&#45;&gt;Node52 -->
<g id="edge27" class="edge">
<title>Node39&#45;&gt;Node52</title>
<path fill="none" stroke="midnightblue" d="M248.56,-588.5C226,-588.5 202.51,-588.5 181.24,-588.5"/>
<polygon fill="midnightblue" stroke="midnightblue" points="248.85,-592 258.85,-588.5 248.85,-585 248.85,-592"/>
</g>
<!-- Node54 -->
<g id="node27" class="node">
<title>Node54</title>
<g id="a_node27"><a xlink:href="namespacev8_1_1internal.html#a6771e62376cd6938939c05799b7b4aa5" target="_top" xlink:title=" ">
<polygon fill="white" stroke="black" points="42.5,-518.5 42.5,-548.5 166.5,-548.5 166.5,-518.5 42.5,-518.5"/>
<text text-anchor="start" x="50.5" y="-536.5" font-family="Helvetica,sans-Serif" font-size="10.00">v8::internal::RUNTIME</text>
<text text-anchor="middle" x="104.5" y="-525.5" font-family="Helvetica,sans-Serif" font-size="10.00">_FUNCTION</text>
</a>
</g>
</g>
<!-- Node39&#45;&gt;Node54 -->
<g id="edge28" class="edge">
<title>Node39&#45;&gt;Node54</title>
<path fill="none" stroke="midnightblue" d="M298.91,-576.74C260.22,-568.09 207.52,-556.31 166.89,-547.23"/>
<polygon fill="midnightblue" stroke="midnightblue" points="298.41,-580.22 308.93,-578.98 299.94,-573.38 298.41,-580.22"/>
</g>
<!-- Node55 -->
<g id="node28" class="node">
<title>Node55</title>
<g id="a_node28"><a xlink:href="classv8_1_1internal_1_1wasm_1_1InstanceBuilder.html#a2d8bc64719afc7f939af91de40590dd4" target="_top" xlink:title=" ">
<polygon fill="white" stroke="red" points="31.5,-458 31.5,-499 177.5,-499 177.5,-458 31.5,-458"/>
<text text-anchor="start" x="39.5" y="-487" font-family="Helvetica,sans-Serif" font-size="10.00">v8::internal::wasm</text>
<text text-anchor="start" x="39.5" y="-476" font-family="Helvetica,sans-Serif" font-size="10.00">::InstanceBuilder::SetTable</text>
<text text-anchor="middle" x="104.5" y="-465" font-family="Helvetica,sans-Serif" font-size="10.00">InitialValues</text>
</a>
</g>
</g>
<!-- Node39&#45;&gt;Node55 -->
<g id="edge29" class="edge">
<title>Node39&#45;&gt;Node55</title>
<path fill="none" stroke="midnightblue" d="M328.09,-573.45C300.48,-556.21 252.8,-527.95 209,-509.5 199.06,-505.31 188.36,-501.44 177.75,-497.96"/>
<polygon fill="midnightblue" stroke="midnightblue" points="326.32,-576.48 336.65,-578.85 330.06,-570.56 326.32,-576.48"/>
</g>
<!-- Node56 -->
<g id="node29" class="node">
<title>Node56</title>
<g id="a_node29"><a xlink:href="classv8_1_1internal_1_1wasm_1_1WasmInterpreterRuntime.html#a1f27017be297eb306725fd1933bda6dc" target="_top" xlink:title=" ">
<polygon fill="white" stroke="black" points="31.5,-825 31.5,-866 177.5,-866 177.5,-825 31.5,-825"/>
<text text-anchor="start" x="39.5" y="-854" font-family="Helvetica,sans-Serif" font-size="10.00">v8::internal::wasm</text>
<text text-anchor="start" x="39.5" y="-843" font-family="Helvetica,sans-Serif" font-size="10.00">::WasmInterpreterRuntime</text>
<text text-anchor="middle" x="104.5" y="-832" font-family="Helvetica,sans-Serif" font-size="10.00">::TableSet</text>
</a>
</g>
</g>
<!-- Node39&#45;&gt;Node56 -->
<g id="edge30" class="edge">
<title>Node39&#45;&gt;Node56</title>
<path fill="none" stroke="midnightblue" d="M344.81,-607.98C328.69,-651.93 283.48,-759.33 209,-815.5 199.66,-822.54 188.72,-827.93 177.5,-832.06"/>
<polygon fill="midnightblue" stroke="midnightblue" points="348.14,-609.06 348.2,-598.47 341.54,-606.71 348.14,-609.06"/>
</g>
<!-- Node58 -->
<g id="node31" class="node">
<title>Node58</title>
<g id="a_node31"><a xlink:href="classv8_1_1internal_1_1WasmJs.html#a9d48e1db9cb027ddf92cd6dcfb0f7779" target="_top" xlink:title=" ">
<polygon fill="white" stroke="black" points="511.5,-49.5 511.5,-79.5 635.5,-79.5 635.5,-49.5 511.5,-49.5"/>
<text text-anchor="start" x="519.5" y="-67.5" font-family="Helvetica,sans-Serif" font-size="10.00">v8::internal::WasmJs</text>
<text text-anchor="middle" x="573.5" y="-56.5" font-family="Helvetica,sans-Serif" font-size="10.00">::InstallTypeReflection</text>
</a>
</g>
</g>
<!-- Node57&#45;&gt;Node58 -->
<g id="edge34" class="edge">
<title>Node57&#45;&gt;Node58</title>
<path fill="none" stroke="midnightblue" d="M683.39,-65.91C666.81,-65.7 650.42,-65.49 635.57,-65.29"/>
<polygon fill="midnightblue" stroke="midnightblue" points="683.68,-69.42 693.72,-66.05 683.77,-62.42 683.68,-69.42"/>
</g>
<!-- Node60 -->
<g id="node33" class="node">
<title>Node60</title>
<g id="a_node33"><a xlink:href="classv8_1_1internal_1_1WasmJs.html#a7180b759209d4540ac7339cd21e399f9" target="_top" xlink:title=" ">
<polygon fill="white" stroke="black" points="496,-0.5 496,-30.5 651,-30.5 651,-0.5 496,-0.5"/>
<text text-anchor="start" x="504" y="-18.5" font-family="Helvetica,sans-Serif" font-size="10.00">v8::internal::WasmJs</text>
<text text-anchor="middle" x="573.5" y="-7.5" font-family="Helvetica,sans-Serif" font-size="10.00">::InstallJSPromiseIntegration</text>
</a>
</g>
</g>
<!-- Node59&#45;&gt;Node60 -->
<g id="edge36" class="edge">
<title>Node59&#45;&gt;Node60</title>
<path fill="none" stroke="midnightblue" d="M676.7,-16.83C667.99,-16.71 659.38,-16.6 651.08,-16.49"/>
<polygon fill="midnightblue" stroke="midnightblue" points="676.91,-20.33 686.95,-16.96 677,-13.33 676.91,-20.33"/>
</g>
</g>
</svg>
