<?xml version="1.0" encoding="UTF-8" standalone="no"?>
<!DOCTYPE svg PUBLIC "-//W3C//DTD SVG 1.1//EN"
 "http://www.w3.org/Graphics/SVG/1.1/DTD/svg11.dtd">
<!-- Generated by graphviz version 2.43.0 (0)
 -->
<!-- Title: v8::internal::MacroAssemblerBase::ReadOnlyRootPtr Pages: 1 -->
<!--zoomable 302 -->
<svg id="main" version="1.1" xmlns="http://www.w3.org/2000/svg" xmlns:xlink="http://www.w3.org/1999/xlink" xml:space="preserve" onload="init(evt)">
<style type="text/css"><![CDATA[
.edge:hover path { stroke: red; }
.edge:hover polygon { stroke: red; fill: red; }
]]></style>
<script type="text/javascript"><![CDATA[
var edges = document.getElementsByTagName('g');
if (edges && edges.length) {
  for (var i=0;i<edges.length;i++) {
    if (edges[i].id.substr(0,4)=='edge') {
      edges[i].setAttribute('class','edge');
    }
  }
}
]]></script>
        <defs>
                <circle id="rim" cx="0" cy="0" r="7"/>
                <circle id="rim2" cx="0" cy="0" r="3.5"/>
                <g id="zoomPlus">
                        <use xlink:href="#rim" fill="#404040">
                                <set attributeName="fill" to="#808080" begin="zoomplus.mouseover" end="zoomplus.mouseout"/>
                        </use>
                        <path d="M-4,0h8M0,-4v8" fill="none" stroke="white" stroke-width="1.5" pointer-events="none"/>
                </g>
                <g id="zoomMin">
                        <use xlink:href="#rim" fill="#404040">
                                <set attributeName="fill" to="#808080" begin="zoomminus.mouseover" end="zoomminus.mouseout"/>
                        </use>
                        <path d="M-4,0h8" fill="none" stroke="white" stroke-width="1.5" pointer-events="none"/>
                </g>
                <g id="dirArrow">
                        <path fill="none" stroke="white" stroke-width="1.5" d="M0,-3.0v7 M-2.5,-0.5L0,-3.0L2.5,-0.5"/>
                </g>
               <g id="resetDef">
                       <use xlink:href="#rim2" fill="#404040">
                               <set attributeName="fill" to="#808080" begin="reset.mouseover" end="reset.mouseout"/>
                       </use>
               </g>
        </defs>

<script type="text/javascript">
var viewWidth = 879;
var viewHeight = 302;
var sectionId = 'dynsection-25';
</script>
<script xlink:href="svgpan.js"/>
<svg id="graph" class="graph">
<g id="viewport">
<title>v8::internal::MacroAssemblerBase::ReadOnlyRootPtr</title>
<polygon fill="white" stroke="transparent" points="-4,4 -4,-298 875,-298 875,4 -4,4"/>
<!-- Node1 -->
<g id="node1" class="node">
<title>Node1</title>
<g id="a_node1"><a xlink:title=" ">
<polygon fill="#bfbfbf" stroke="black" points="0,-132.5 0,-162.5 160,-162.5 160,-132.5 0,-132.5"/>
<text text-anchor="start" x="8" y="-150.5" font-family="Helvetica,sans-Serif" font-size="10.00">v8::internal::MacroAssembler</text>
<text text-anchor="middle" x="80" y="-139.5" font-family="Helvetica,sans-Serif" font-size="10.00">Base::ReadOnlyRootPtr</text>
</a>
</g>
</g>
<!-- Node2 -->
<g id="node2" class="node">
<title>Node2</title>
<g id="a_node2"><a xlink:href="classv8_1_1internal_1_1MacroAssemblerBase.html#a3504f2df8d641d7f8bd1b9864f30b58f" target="_top" xlink:title=" ">
<polygon fill="white" stroke="black" points="206,-263.5 206,-293.5 366,-293.5 366,-263.5 206,-263.5"/>
<text text-anchor="start" x="214" y="-281.5" font-family="Helvetica,sans-Serif" font-size="10.00">v8::internal::MacroAssembler</text>
<text text-anchor="middle" x="286" y="-270.5" font-family="Helvetica,sans-Serif" font-size="10.00">Base::CanBeImmediate</text>
</a>
</g>
</g>
<!-- Node1&#45;&gt;Node2 -->
<g id="edge1" class="edge">
<title>Node1&#45;&gt;Node2</title>
<path fill="none" stroke="midnightblue" d="M93.07,-162.74C112.34,-186.02 152.36,-230.29 196,-254.5 199.27,-256.31 202.69,-258 206.19,-259.56"/>
<polygon fill="midnightblue" stroke="midnightblue" points="205.07,-262.88 215.65,-263.41 207.71,-256.4 205.07,-262.88"/>
</g>
<!-- Node4 -->
<g id="node4" class="node">
<title>Node4</title>
<g id="a_node4"><a xlink:href="classv8_1_1internal_1_1V8HeapCompressionSchemeImpl.html#a32b0882ddefd922d7fd6a795217ec827" target="_top" xlink:title=" ">
<polygon fill="white" stroke="black" points="196,-214.5 196,-244.5 376,-244.5 376,-214.5 196,-214.5"/>
<text text-anchor="start" x="204" y="-232.5" font-family="Helvetica,sans-Serif" font-size="10.00">v8::internal::V8HeapCompression</text>
<text text-anchor="middle" x="286" y="-221.5" font-family="Helvetica,sans-Serif" font-size="10.00">SchemeImpl::CompressObject</text>
</a>
</g>
</g>
<!-- Node1&#45;&gt;Node4 -->
<g id="edge3" class="edge">
<title>Node1&#45;&gt;Node4</title>
<path fill="none" stroke="midnightblue" d="M112.37,-162.7C135.28,-173.56 167.25,-188.19 196,-199.5 206.22,-203.52 217.23,-207.51 227.9,-211.19"/>
<polygon fill="midnightblue" stroke="midnightblue" points="226.98,-214.57 237.57,-214.49 229.23,-207.95 226.98,-214.57"/>
</g>
<!-- Node5 -->
<g id="node5" class="node">
<title>Node5</title>
<g id="a_node5"><a xlink:href="namespacev8_1_1internal.html#aa6b3743bd5d773c552654f2a6c3efa4a" target="_top" xlink:title=" ">
<polygon fill="white" stroke="black" points="752,-154 752,-173 871,-173 871,-154 752,-154"/>
<text text-anchor="middle" x="811.5" y="-161" font-family="Helvetica,sans-Serif" font-size="10.00">v8::internal::DCHECK</text>
</a>
</g>
</g>
<!-- Node1&#45;&gt;Node5 -->
<g id="edge4" class="edge">
<title>Node1&#45;&gt;Node5</title>
<path fill="none" stroke="midnightblue" d="M160.28,-162.34C172.21,-164.07 184.4,-165.55 196,-166.5 393.45,-182.7 627.8,-173.82 741.61,-167.72"/>
<polygon fill="midnightblue" stroke="midnightblue" points="742.11,-171.2 751.91,-167.16 741.73,-164.21 742.11,-171.2"/>
</g>
<!-- Node6 -->
<g id="node6" class="node">
<title>Node6</title>
<g id="a_node6"><a xlink:href="namespacev8_1_1internal.html#a0786c89c1004cb964dc034b138b263fd" target="_top" xlink:title=" ">
<polygon fill="white" stroke="black" points="214.5,-138 214.5,-157 357.5,-157 357.5,-138 214.5,-138"/>
<text text-anchor="middle" x="286" y="-145" font-family="Helvetica,sans-Serif" font-size="10.00">v8::internal::IsHeapObject</text>
</a>
</g>
</g>
<!-- Node1&#45;&gt;Node6 -->
<g id="edge5" class="edge">
<title>Node1&#45;&gt;Node6</title>
<path fill="none" stroke="midnightblue" d="M160.16,-147.5C174.49,-147.5 189.46,-147.5 203.84,-147.5"/>
<polygon fill="midnightblue" stroke="midnightblue" points="204.2,-151 214.2,-147.5 204.2,-144 204.2,-151"/>
</g>
<!-- Node10 -->
<g id="node9" class="node">
<title>Node10</title>
<g id="a_node9"><a xlink:href="classv8_1_1internal_1_1MacroAssemblerBase.html#abd05e085ee32fb49ec542f2a0b821288" target="_top" xlink:title=" ">
<polygon fill="white" stroke="black" points="206,-88.5 206,-118.5 366,-118.5 366,-88.5 206,-88.5"/>
<text text-anchor="start" x="214" y="-106.5" font-family="Helvetica,sans-Serif" font-size="10.00">v8::internal::MacroAssembler</text>
<text text-anchor="middle" x="286" y="-95.5" font-family="Helvetica,sans-Serif" font-size="10.00">Base::isolate</text>
</a>
</g>
</g>
<!-- Node1&#45;&gt;Node10 -->
<g id="edge9" class="edge">
<title>Node1&#45;&gt;Node10</title>
<path fill="none" stroke="midnightblue" d="M150.63,-132.48C168.26,-128.68 187.33,-124.57 205.41,-120.67"/>
<polygon fill="midnightblue" stroke="midnightblue" points="206.3,-124.06 215.33,-118.53 204.82,-117.21 206.3,-124.06"/>
</g>
<!-- Node11 -->
<g id="node10" class="node">
<title>Node11</title>
<g id="a_node10"><a xlink:href="classv8_1_1internal_1_1TaggedImpl.html#a4dba1b2eafcf7a414910966f950540c9" target="_top" xlink:title=" ">
<polygon fill="white" stroke="black" points="209,-50 209,-69 363,-69 363,-50 209,-50"/>
<text text-anchor="middle" x="286" y="-57" font-family="Helvetica,sans-Serif" font-size="10.00">v8::internal::TaggedImpl::ptr</text>
</a>
</g>
</g>
<!-- Node1&#45;&gt;Node11 -->
<g id="edge10" class="edge">
<title>Node1&#45;&gt;Node11</title>
<path fill="none" stroke="midnightblue" d="M101.52,-132.31C123.72,-116.58 160.69,-92.41 196,-78.5 202.67,-75.87 209.77,-73.58 216.94,-71.58"/>
<polygon fill="midnightblue" stroke="midnightblue" points="217.93,-74.94 226.73,-69.04 216.17,-68.17 217.93,-74.94"/>
</g>
<!-- Node12 -->
<g id="node11" class="node">
<title>Node12</title>
<g id="a_node11"><a xlink:href="classv8_1_1internal_1_1Isolate.html#a3600858dfb405ce24551f99bd9fe2c2c" target="_top" xlink:title=" ">
<polygon fill="white" stroke="black" points="230.5,-0.5 230.5,-30.5 341.5,-30.5 341.5,-0.5 230.5,-0.5"/>
<text text-anchor="start" x="238.5" y="-18.5" font-family="Helvetica,sans-Serif" font-size="10.00">v8::internal::Isolate</text>
<text text-anchor="middle" x="286" y="-7.5" font-family="Helvetica,sans-Serif" font-size="10.00">::root</text>
</a>
</g>
</g>
<!-- Node1&#45;&gt;Node12 -->
<g id="edge11" class="edge">
<title>Node1&#45;&gt;Node12</title>
<path fill="none" stroke="midnightblue" d="M93.11,-132.32C112.42,-109.11 152.48,-64.93 196,-40.5 203.63,-36.22 212.04,-32.63 220.56,-29.63"/>
<polygon fill="midnightblue" stroke="midnightblue" points="221.76,-32.91 230.18,-26.48 219.59,-26.26 221.76,-32.91"/>
</g>
<!-- Node3 -->
<g id="node3" class="node">
<title>Node3</title>
<g id="a_node3"><a xlink:href="classv8_1_1internal_1_1RootsTable.html#ad47c272de267376aa79f8a01df182077" target="_top" xlink:title=" ">
<polygon fill="white" stroke="black" points="413.5,-263.5 413.5,-293.5 544.5,-293.5 544.5,-263.5 413.5,-263.5"/>
<text text-anchor="start" x="421.5" y="-281.5" font-family="Helvetica,sans-Serif" font-size="10.00">v8::internal::RootsTable</text>
<text text-anchor="middle" x="479" y="-270.5" font-family="Helvetica,sans-Serif" font-size="10.00">::IsReadOnly</text>
</a>
</g>
</g>
<!-- Node2&#45;&gt;Node3 -->
<g id="edge2" class="edge">
<title>Node2&#45;&gt;Node3</title>
<path fill="none" stroke="midnightblue" d="M366.07,-278.5C378.33,-278.5 390.97,-278.5 403.14,-278.5"/>
<polygon fill="midnightblue" stroke="midnightblue" points="403.24,-282 413.24,-278.5 403.24,-275 403.24,-282"/>
</g>
<!-- Node7 -->
<g id="node7" class="node">
<title>Node7</title>
<g id="a_node7"><a xlink:href="classv8_1_1internal_1_1TaggedImpl.html#aea3274f07dad292adc478dc20a811210" target="_top" xlink:title=" ">
<polygon fill="white" stroke="black" points="412,-126.5 412,-156.5 546,-156.5 546,-126.5 412,-126.5"/>
<text text-anchor="start" x="420" y="-144.5" font-family="Helvetica,sans-Serif" font-size="10.00">v8::internal::TaggedImpl</text>
<text text-anchor="middle" x="479" y="-133.5" font-family="Helvetica,sans-Serif" font-size="10.00">::IsHeapObject</text>
</a>
</g>
</g>
<!-- Node6&#45;&gt;Node7 -->
<g id="edge6" class="edge">
<title>Node6&#45;&gt;Node7</title>
<path fill="none" stroke="midnightblue" d="M357.58,-145.28C371.86,-144.83 386.94,-144.36 401.41,-143.91"/>
<polygon fill="midnightblue" stroke="midnightblue" points="401.94,-147.39 411.83,-143.58 401.72,-140.39 401.94,-147.39"/>
</g>
<!-- Node8 -->
<g id="node8" class="node">
<title>Node8</title>
<g id="a_node8"><a xlink:href="classv8_1_1internal_1_1TaggedImpl.html#a209e77c01b1a10fa47c29d3a25caaed2" target="_top" xlink:title=" ">
<polygon fill="white" stroke="red" points="582,-126.5 582,-156.5 716,-156.5 716,-126.5 582,-126.5"/>
<text text-anchor="start" x="590" y="-144.5" font-family="Helvetica,sans-Serif" font-size="10.00">v8::internal::TaggedImpl</text>
<text text-anchor="middle" x="649" y="-133.5" font-family="Helvetica,sans-Serif" font-size="10.00">::IsStrong</text>
</a>
</g>
</g>
<!-- Node7&#45;&gt;Node8 -->
<g id="edge7" class="edge">
<title>Node7&#45;&gt;Node8</title>
<path fill="none" stroke="midnightblue" d="M546.4,-141.5C554.68,-141.5 563.2,-141.5 571.62,-141.5"/>
<polygon fill="midnightblue" stroke="midnightblue" points="571.81,-145 581.81,-141.5 571.81,-138 571.81,-145"/>
</g>
<!-- Node8&#45;&gt;Node5 -->
<g id="edge8" class="edge">
<title>Node8&#45;&gt;Node5</title>
<path fill="none" stroke="midnightblue" d="M716.21,-150.58C724.71,-151.74 733.43,-152.94 741.97,-154.11"/>
<polygon fill="midnightblue" stroke="midnightblue" points="741.5,-157.58 751.89,-155.47 742.45,-150.64 741.5,-157.58"/>
</g>
</g>
</svg>
        <g id="navigator" transform="translate(0 0)" fill="#404254">
                <rect fill="#f2f5e9" fill-opacity="0.5" stroke="#606060" stroke-width=".5" x="0" y="0" width="60" height="60"/>
                <use id="zoomplus" xlink:href="#zoomPlus" x="17" y="9" onmousedown="handleZoom(evt,'in')"/>
                <use id="zoomminus" xlink:href="#zoomMin" x="42" y="9" onmousedown="handleZoom(evt,'out')"/>
                <use id="reset" xlink:href="#resetDef" x="30" y="36" onmousedown="handleReset()"/>
                <g id="arrowUp" xlink:href="#dirArrow" transform="translate(30 24)" onmousedown="handlePan(0,-1)">
                  <use xlink:href="#rim" fill="#404040">
                        <set attributeName="fill" to="#808080" begin="arrowUp.mouseover" end="arrowUp.mouseout"/>
                  </use>
                  <path fill="none" stroke="white" stroke-width="1.5" d="M0,-3.0v7 M-2.5,-0.5L0,-3.0L2.5,-0.5"/>
                </g>
                <g id="arrowRight" xlink:href="#dirArrow" transform="rotate(90) translate(36 -43)" onmousedown="handlePan(1,0)">
                  <use xlink:href="#rim" fill="#404040">
                        <set attributeName="fill" to="#808080" begin="arrowRight.mouseover" end="arrowRight.mouseout"/>
                  </use>
                  <path fill="none" stroke="white" stroke-width="1.5" d="M0,-3.0v7 M-2.5,-0.5L0,-3.0L2.5,-0.5"/>
                </g>
                <g id="arrowDown" xlink:href="#dirArrow" transform="rotate(180) translate(-30 -48)" onmousedown="handlePan(0,1)">
                  <use xlink:href="#rim" fill="#404040">
                        <set attributeName="fill" to="#808080" begin="arrowDown.mouseover" end="arrowDown.mouseout"/>
                  </use>
                  <path fill="none" stroke="white" stroke-width="1.5" d="M0,-3.0v7 M-2.5,-0.5L0,-3.0L2.5,-0.5"/>
                </g>
                <g id="arrowLeft" xlink:href="#dirArrow" transform="rotate(270) translate(-36 17)" onmousedown="handlePan(-1,0)">
                  <use xlink:href="#rim" fill="#404040">
                        <set attributeName="fill" to="#808080" begin="arrowLeft.mouseover" end="arrowLeft.mouseout"/>
                  </use>
                  <path fill="none" stroke="white" stroke-width="1.5" d="M0,-3.0v7 M-2.5,-0.5L0,-3.0L2.5,-0.5"/>
                </g>
        </g>
        <svg viewBox="0 0 15 15" width="100%" height="30px" preserveAspectRatio="xMaxYMin meet">
         <g id="arrow_out" transform="scale(0.3 0.3)">
          <a xlink:href="classv8_1_1internal_1_1MacroAssemblerBase_a86d57eb247d5fd429fd7f83d97a0bf9d_cgraph_org.svg" target="_base">
           <rect id="button" ry="5" rx="5" y="6" x="6" height="38" width="38"
                fill="#f2f5e9" fill-opacity="0.5" stroke="#606060" stroke-width="1.0"/>
           <path id="arrow"
             d="M 11.500037,31.436501 C 11.940474,20.09759 22.043105,11.32322 32.158766,21.979434 L 37.068811,17.246167 C 37.068811,17.246167 37.088388,32 37.088388,32 L 22.160133,31.978069 C 22.160133,31.978069 26.997745,27.140456 26.997745,27.140456 C 18.528582,18.264221 13.291696,25.230495 11.500037,31.436501 z"
             style="fill:#404040;"/>
          </a>
         </g>
        </svg>
</svg>
