<?xml version="1.0" encoding="UTF-8" standalone="no"?>
<!DOCTYPE svg PUBLIC "-//W3C//DTD SVG 1.1//EN"
 "http://www.w3.org/Graphics/SVG/1.1/DTD/svg11.dtd">
<!-- Generated by graphviz version 2.43.0 (0)
 -->
<!-- Title: v8::internal::maglev::ValueNode::GetMachineRepresentation Pages: 1 -->
<svg width="744pt" height="144pt"
 viewBox="0.00 0.00 744.00 143.50" xmlns="http://www.w3.org/2000/svg" xmlns:xlink="http://www.w3.org/1999/xlink">
<g id="graph0" class="graph" transform="scale(1 1) rotate(0) translate(4 139.5)">
<title>v8::internal::maglev::ValueNode::GetMachineRepresentation</title>
<polygon fill="white" stroke="transparent" points="-4,4 -4,-139.5 740,-139.5 740,4 -4,4"/>
<!-- Node1 -->
<g id="node1" class="node">
<title>Node1</title>
<g id="a_node1"><a xlink:title=" ">
<polygon fill="#bfbfbf" stroke="black" points="0,-61 0,-91 214,-91 214,-61 0,-61"/>
<text text-anchor="start" x="8" y="-79" font-family="Helvetica,sans-Serif" font-size="10.00">v8::internal::maglev</text>
<text text-anchor="middle" x="107" y="-68" font-family="Helvetica,sans-Serif" font-size="10.00">::ValueNode::GetMachineRepresentation</text>
</a>
</g>
</g>
<!-- Node2 -->
<g id="node2" class="node">
<title>Node2</title>
<g id="a_node2"><a xlink:href="classv8_1_1internal_1_1MachineType.html#aba018b7917005c2607051556a2f85ffe" target="_top" xlink:title=" ">
<polygon fill="white" stroke="black" points="271.5,-105 271.5,-135 413.5,-135 413.5,-105 271.5,-105"/>
<text text-anchor="start" x="279.5" y="-123" font-family="Helvetica,sans-Serif" font-size="10.00">v8::internal::MachineType</text>
<text text-anchor="middle" x="342.5" y="-112" font-family="Helvetica,sans-Serif" font-size="10.00">::PointerRepresentation</text>
</a>
</g>
</g>
<!-- Node1&#45;&gt;Node2 -->
<g id="edge1" class="edge">
<title>Node1&#45;&gt;Node2</title>
<path fill="none" stroke="midnightblue" d="M187.7,-91.02C211.4,-95.48 237.37,-100.38 261.11,-104.85"/>
<polygon fill="midnightblue" stroke="midnightblue" points="260.66,-108.33 271.14,-106.74 261.96,-101.45 260.66,-108.33"/>
</g>
<!-- Node3 -->
<g id="node3" class="node">
<title>Node3</title>
<g id="a_node3"><a xlink:href="classv8_1_1internal_1_1maglev_1_1NodeBase.html#af88af8dd683f7784ae6ace6d6c701d31" target="_top" xlink:title=" ">
<polygon fill="white" stroke="black" points="471,-61 471,-91 599,-91 599,-61 471,-61"/>
<text text-anchor="start" x="479" y="-79" font-family="Helvetica,sans-Serif" font-size="10.00">v8::internal::maglev</text>
<text text-anchor="middle" x="535" y="-68" font-family="Helvetica,sans-Serif" font-size="10.00">::NodeBase::properties</text>
</a>
</g>
</g>
<!-- Node1&#45;&gt;Node3 -->
<g id="edge2" class="edge">
<title>Node1&#45;&gt;Node3</title>
<path fill="none" stroke="midnightblue" d="M214.12,-76C290.89,-76 392.65,-76 460.58,-76"/>
<polygon fill="midnightblue" stroke="midnightblue" points="460.76,-79.5 470.76,-76 460.76,-72.5 460.76,-79.5"/>
</g>
<!-- Node5 -->
<g id="node5" class="node">
<title>Node5</title>
<g id="a_node5"><a xlink:href="classv8_1_1internal_1_1maglev_1_1ValueNode.html#a297f65d44e3751ed017367c6ba3a90ef" target="_top" xlink:title=" ">
<polygon fill="white" stroke="black" points="250,-17 250,-47 435,-47 435,-17 250,-17"/>
<text text-anchor="start" x="258" y="-35" font-family="Helvetica,sans-Serif" font-size="10.00">v8::internal::maglev</text>
<text text-anchor="middle" x="342.5" y="-24" font-family="Helvetica,sans-Serif" font-size="10.00">::ValueNode::value_representation</text>
</a>
</g>
</g>
<!-- Node1&#45;&gt;Node5 -->
<g id="edge4" class="edge">
<title>Node1&#45;&gt;Node5</title>
<path fill="none" stroke="midnightblue" d="M187.7,-60.98C208.35,-57.09 230.72,-52.88 251.83,-48.9"/>
<polygon fill="midnightblue" stroke="midnightblue" points="252.58,-52.32 261.76,-47.03 251.28,-45.44 252.58,-52.32"/>
</g>
<!-- Node4 -->
<g id="node4" class="node">
<title>Node4</title>
<g id="a_node4"><a xlink:href="classv8_1_1base_1_1BitField.html#a554df4b9ae5f0dc36b4d092bfc2e004b" target="_top" xlink:title=" ">
<polygon fill="white" stroke="black" points="635,-33 635,-63 736,-63 736,-33 635,-33"/>
<text text-anchor="start" x="643" y="-51" font-family="Helvetica,sans-Serif" font-size="10.00">v8::base::BitField</text>
<text text-anchor="middle" x="685.5" y="-40" font-family="Helvetica,sans-Serif" font-size="10.00">::decode</text>
</a>
</g>
</g>
<!-- Node3&#45;&gt;Node4 -->
<g id="edge3" class="edge">
<title>Node3&#45;&gt;Node4</title>
<path fill="none" stroke="midnightblue" d="M599.41,-64.04C607.81,-62.46 616.41,-60.84 624.75,-59.27"/>
<polygon fill="midnightblue" stroke="midnightblue" points="625.59,-62.67 634.77,-57.38 624.3,-55.79 625.59,-62.67"/>
</g>
<!-- Node5&#45;&gt;Node3 -->
<g id="edge5" class="edge">
<title>Node5&#45;&gt;Node3</title>
<path fill="none" stroke="midnightblue" d="M408.53,-47.02C425.38,-50.91 443.63,-55.13 460.87,-59.11"/>
<polygon fill="midnightblue" stroke="midnightblue" points="460.35,-62.58 470.88,-61.42 461.92,-55.76 460.35,-62.58"/>
</g>
<!-- Node6 -->
<g id="node6" class="node">
<title>Node6</title>
<g id="a_node6"><a xlink:href="classv8_1_1internal_1_1maglev_1_1OpProperties.html#a9f989420e0ea0d6e75a761dc60903761" target="_top" xlink:title=" ">
<polygon fill="white" stroke="black" points="475.5,-0.5 475.5,-41.5 594.5,-41.5 594.5,-0.5 475.5,-0.5"/>
<text text-anchor="start" x="483.5" y="-29.5" font-family="Helvetica,sans-Serif" font-size="10.00">v8::internal::maglev</text>
<text text-anchor="start" x="483.5" y="-18.5" font-family="Helvetica,sans-Serif" font-size="10.00">::OpProperties::value</text>
<text text-anchor="middle" x="535" y="-7.5" font-family="Helvetica,sans-Serif" font-size="10.00">_representation</text>
</a>
</g>
</g>
<!-- Node5&#45;&gt;Node6 -->
<g id="edge6" class="edge">
<title>Node5&#45;&gt;Node6</title>
<path fill="none" stroke="midnightblue" d="M435.12,-26.71C445.31,-26.12 455.55,-25.53 465.38,-24.96"/>
<polygon fill="midnightblue" stroke="midnightblue" points="465.68,-28.45 475.46,-24.38 465.27,-21.46 465.68,-28.45"/>
</g>
<!-- Node6&#45;&gt;Node4 -->
<g id="edge7" class="edge">
<title>Node6&#45;&gt;Node4</title>
<path fill="none" stroke="midnightblue" d="M594.69,-31.67C604.66,-33.48 615.03,-35.37 625.02,-37.19"/>
<polygon fill="midnightblue" stroke="midnightblue" points="624.39,-40.63 634.86,-38.97 625.65,-33.74 624.39,-40.63"/>
</g>
</g>
</svg>
