<?xml version="1.0" encoding="UTF-8" standalone="no"?>
<!DOCTYPE svg PUBLIC "-//W3C//DTD SVG 1.1//EN"
 "http://www.w3.org/Graphics/SVG/1.1/DTD/svg11.dtd">
<!-- Generated by graphviz version 2.43.0 (0)
 -->
<!-- Title: v8::internal::Factory::NewJSArrayBuffer Pages: 1 -->
<!--zoomable 492 -->
<svg id="main" version="1.1" xmlns="http://www.w3.org/2000/svg" xmlns:xlink="http://www.w3.org/1999/xlink" xml:space="preserve" onload="init(evt)">
<style type="text/css"><![CDATA[
.edge:hover path { stroke: red; }
.edge:hover polygon { stroke: red; fill: red; }
]]></style>
<script type="text/javascript"><![CDATA[
var edges = document.getElementsByTagName('g');
if (edges && edges.length) {
  for (var i=0;i<edges.length;i++) {
    if (edges[i].id.substr(0,4)=='edge') {
      edges[i].setAttribute('class','edge');
    }
  }
}
]]></script>
        <defs>
                <circle id="rim" cx="0" cy="0" r="7"/>
                <circle id="rim2" cx="0" cy="0" r="3.5"/>
                <g id="zoomPlus">
                        <use xlink:href="#rim" fill="#404040">
                                <set attributeName="fill" to="#808080" begin="zoomplus.mouseover" end="zoomplus.mouseout"/>
                        </use>
                        <path d="M-4,0h8M0,-4v8" fill="none" stroke="white" stroke-width="1.5" pointer-events="none"/>
                </g>
                <g id="zoomMin">
                        <use xlink:href="#rim" fill="#404040">
                                <set attributeName="fill" to="#808080" begin="zoomminus.mouseover" end="zoomminus.mouseout"/>
                        </use>
                        <path d="M-4,0h8" fill="none" stroke="white" stroke-width="1.5" pointer-events="none"/>
                </g>
                <g id="dirArrow">
                        <path fill="none" stroke="white" stroke-width="1.5" d="M0,-3.0v7 M-2.5,-0.5L0,-3.0L2.5,-0.5"/>
                </g>
               <g id="resetDef">
                       <use xlink:href="#rim2" fill="#404040">
                               <set attributeName="fill" to="#808080" begin="reset.mouseover" end="reset.mouseout"/>
                       </use>
               </g>
        </defs>

<script type="text/javascript">
var viewWidth = 879;
var viewHeight = 492;
var sectionId = 'dynsection-176';
</script>
<script xlink:href="svgpan.js"/>
<svg id="graph" class="graph">
<g id="viewport">
<title>v8::internal::Factory::NewJSArrayBuffer</title>
<polygon fill="white" stroke="transparent" points="-4,4 -4,-488.35 875,-488.35 875,4 -4,4"/>
<!-- Node1 -->
<g id="node1" class="node">
<title>Node1</title>
<g id="a_node1"><a xlink:title=" ">
<polygon fill="#bfbfbf" stroke="black" points="0,-331 0,-361 113,-361 113,-331 0,-331"/>
<text text-anchor="start" x="8" y="-349" font-family="Helvetica,sans-Serif" font-size="10.00">v8::internal::Factory</text>
<text text-anchor="middle" x="56.5" y="-338" font-family="Helvetica,sans-Serif" font-size="10.00">::NewJSArrayBuffer</text>
</a>
</g>
</g>
<!-- Node2 -->
<g id="node2" class="node">
<title>Node2</title>
<g id="a_node2"><a xlink:href="classv8_1_1internal_1_1Factory.html#a7ac37ce08b9f8eae9f45701872d1949d" target="_top" xlink:title=" ">
<polygon fill="white" stroke="black" points="755,-285 755,-315 868,-315 868,-285 755,-285"/>
<text text-anchor="start" x="763" y="-303" font-family="Helvetica,sans-Serif" font-size="10.00">v8::internal::Factory</text>
<text text-anchor="middle" x="811.5" y="-292" font-family="Helvetica,sans-Serif" font-size="10.00">::isolate</text>
</a>
</g>
</g>
<!-- Node1&#45;&gt;Node2 -->
<g id="edge1" class="edge">
<title>Node1&#45;&gt;Node2</title>
<path fill="none" stroke="midnightblue" d="M85.23,-361.08C179.84,-410.34 496.25,-556.8 716,-440 761.99,-415.55 789.66,-357.63 802.28,-324.46"/>
<polygon fill="midnightblue" stroke="midnightblue" points="805.59,-325.62 805.72,-315.02 799.01,-323.22 805.59,-325.62"/>
</g>
<!-- Node3 -->
<g id="node3" class="node">
<title>Node3</title>
<g id="a_node3"><a xlink:href="classv8_1_1internal_1_1Factory.html#ad2c55e5f426c5266376a9c5434fa1891" target="_top" xlink:title=" ">
<polygon fill="white" stroke="black" points="149,-263 149,-293 280,-293 280,-263 149,-263"/>
<text text-anchor="start" x="157" y="-281" font-family="Helvetica,sans-Serif" font-size="10.00">v8::internal::Factory</text>
<text text-anchor="middle" x="214.5" y="-270" font-family="Helvetica,sans-Serif" font-size="10.00">::NewJSObjectFromMap</text>
</a>
</g>
</g>
<!-- Node1&#45;&gt;Node3 -->
<g id="edge2" class="edge">
<title>Node1&#45;&gt;Node3</title>
<path fill="none" stroke="midnightblue" d="M92.12,-330.91C114.94,-320.96 145.03,-307.85 169.54,-297.16"/>
<polygon fill="midnightblue" stroke="midnightblue" points="171.21,-300.25 178.98,-293.05 168.41,-293.84 171.21,-300.25"/>
</g>
<!-- Node3&#45;&gt;Node2 -->
<g id="edge18" class="edge">
<title>Node3&#45;&gt;Node2</title>
<path fill="none" stroke="midnightblue" d="M280.03,-284.47C342.58,-290.39 440.18,-298.72 525,-302 609.83,-305.28 631.12,-302.9 716,-302 725.16,-301.9 734.81,-301.75 744.32,-301.58"/>
<polygon fill="midnightblue" stroke="midnightblue" points="744.61,-305.07 754.54,-301.38 744.47,-298.07 744.61,-305.07"/>
</g>
<!-- Node4 -->
<g id="node4" class="node">
<title>Node4</title>
<g id="a_node4"><a xlink:href="classv8_1_1internal_1_1Factory.html#a36cf37558cc25f7856cf6aa66f85182d" target="_top" xlink:title=" ">
<polygon fill="white" stroke="black" points="316,-197 316,-227 489,-227 489,-197 316,-197"/>
<text text-anchor="start" x="324" y="-215" font-family="Helvetica,sans-Serif" font-size="10.00">v8::internal::Factory</text>
<text text-anchor="middle" x="402.5" y="-204" font-family="Helvetica,sans-Serif" font-size="10.00">::AllocateRawWithAllocationSite</text>
</a>
</g>
</g>
<!-- Node3&#45;&gt;Node4 -->
<g id="edge3" class="edge">
<title>Node3&#45;&gt;Node4</title>
<path fill="none" stroke="midnightblue" d="M258.17,-262.86C285.35,-253.22 320.72,-240.66 349.53,-230.44"/>
<polygon fill="midnightblue" stroke="midnightblue" points="350.77,-233.71 359.03,-227.07 348.43,-227.12 350.77,-233.71"/>
</g>
<!-- Node38 -->
<g id="node8" class="node">
<title>Node38</title>
<g id="a_node8"><a xlink:href="namespacev8_1_1internal.html#aa6b3743bd5d773c552654f2a6c3efa4a" target="_top" xlink:title=" ">
<polygon fill="white" stroke="black" points="752,-85.5 752,-104.5 871,-104.5 871,-85.5 752,-85.5"/>
<text text-anchor="middle" x="811.5" y="-92.5" font-family="Helvetica,sans-Serif" font-size="10.00">v8::internal::DCHECK</text>
</a>
</g>
</g>
<!-- Node3&#45;&gt;Node38 -->
<g id="edge12" class="edge">
<title>Node3&#45;&gt;Node38</title>
<path fill="none" stroke="midnightblue" d="M229.69,-262.82C270.49,-220.49 393.67,-102.02 525,-67 607.02,-45.13 631.99,-54.82 716,-67 736.1,-69.92 757.88,-76.15 775.46,-81.99"/>
<polygon fill="midnightblue" stroke="midnightblue" points="774.68,-85.43 785.28,-85.36 776.95,-78.81 774.68,-85.43"/>
</g>
<!-- Node83 -->
<g id="node10" class="node">
<title>Node83</title>
<g id="a_node10"><a xlink:href="namespacev8_1_1internal.html#a8c89f00da07e125218128b9fbf0a321c" target="_top" xlink:title=" ">
<polygon fill="white" stroke="black" points="347,-0.5 347,-19.5 458,-19.5 458,-0.5 347,-0.5"/>
<text text-anchor="middle" x="402.5" y="-7.5" font-family="Helvetica,sans-Serif" font-size="10.00">v8::internal::handle</text>
</a>
</g>
</g>
<!-- Node3&#45;&gt;Node83 -->
<g id="edge13" class="edge">
<title>Node3&#45;&gt;Node83</title>
<path fill="none" stroke="midnightblue" d="M217.18,-262.78C222.74,-219.99 244.45,-97.63 316,-34 322.14,-28.54 329.44,-24.31 337.13,-21.04"/>
<polygon fill="midnightblue" stroke="midnightblue" points="338.51,-24.26 346.67,-17.5 336.08,-17.7 338.51,-24.26"/>
</g>
<!-- Node557 -->
<g id="node11" class="node">
<title>Node557</title>
<g id="a_node11"><a xlink:href="classv8_1_1internal_1_1Factory.html#af863470758a433a18b1eaf85eeb6f1cf" target="_top" xlink:title=" ">
<polygon fill="white" stroke="black" points="327,-351 327,-381 478,-381 478,-351 327,-351"/>
<text text-anchor="start" x="335" y="-369" font-family="Helvetica,sans-Serif" font-size="10.00">v8::internal::Factory</text>
<text text-anchor="middle" x="402.5" y="-358" font-family="Helvetica,sans-Serif" font-size="10.00">::InitializeJSObjectFromMap</text>
</a>
</g>
</g>
<!-- Node3&#45;&gt;Node557 -->
<g id="edge14" class="edge">
<title>Node3&#45;&gt;Node557</title>
<path fill="none" stroke="midnightblue" d="M238.8,-293.11C258.75,-305.65 288.54,-323.39 316,-336 324.81,-340.04 334.33,-343.88 343.7,-347.37"/>
<polygon fill="midnightblue" stroke="midnightblue" points="342.8,-350.76 353.39,-350.88 345.18,-344.18 342.8,-350.76"/>
</g>
<!-- Node4&#45;&gt;Node2 -->
<g id="edge11" class="edge">
<title>Node4&#45;&gt;Node2</title>
<path fill="none" stroke="midnightblue" d="M489.33,-215.62C553.04,-220.13 641.42,-230.26 716,-253 737.19,-259.46 759.45,-270.31 777.04,-279.95"/>
<polygon fill="midnightblue" stroke="midnightblue" points="775.34,-283.01 785.78,-284.86 778.77,-276.91 775.34,-283.01"/>
</g>
<!-- Node5 -->
<g id="node5" class="node">
<title>Node5</title>
<g id="a_node5"><a xlink:href="classv8_1_1internal_1_1HeapAllocator.html#a04e5c266efea1115ef1cae705d5433a1" target="_top" xlink:title=" ">
<polygon fill="white" stroke="red" points="547,-77 547,-107 694,-107 694,-77 547,-77"/>
<text text-anchor="start" x="555" y="-95" font-family="Helvetica,sans-Serif" font-size="10.00">v8::internal::HeapAllocator</text>
<text text-anchor="middle" x="620.5" y="-84" font-family="Helvetica,sans-Serif" font-size="10.00">::AllocateRawWith</text>
</a>
</g>
</g>
<!-- Node4&#45;&gt;Node5 -->
<g id="edge4" class="edge">
<title>Node4&#45;&gt;Node5</title>
<path fill="none" stroke="midnightblue" d="M418.15,-196.95C439.64,-175.75 481.85,-137.31 525,-116 528.84,-114.1 532.85,-112.35 536.95,-110.72"/>
<polygon fill="midnightblue" stroke="midnightblue" points="538.47,-113.89 546.65,-107.16 536.06,-107.32 538.47,-113.89"/>
</g>
<!-- Node553 -->
<g id="node6" class="node">
<title>Node553</title>
<g id="a_node6"><a xlink:href="classv8_1_1internal_1_1Factory.html#a97a3d56395ff68662a25bcd5b5b9611c" target="_top" xlink:title=" ">
<polygon fill="white" stroke="red" points="564,-263 564,-293 677,-293 677,-263 564,-263"/>
<text text-anchor="start" x="572" y="-281" font-family="Helvetica,sans-Serif" font-size="10.00">v8::internal::Factory</text>
<text text-anchor="middle" x="620.5" y="-270" font-family="Helvetica,sans-Serif" font-size="10.00">::allocator</text>
</a>
</g>
</g>
<!-- Node4&#45;&gt;Node553 -->
<g id="edge5" class="edge">
<title>Node4&#45;&gt;Node553</title>
<path fill="none" stroke="midnightblue" d="M452.78,-227.06C484.74,-236.82 526.55,-249.6 560.31,-259.91"/>
<polygon fill="midnightblue" stroke="midnightblue" points="559.47,-263.32 570.05,-262.89 561.51,-256.62 559.47,-263.32"/>
</g>
<!-- Node555 -->
<g id="node7" class="node">
<title>Node555</title>
<g id="a_node7"><a xlink:href="classv8_1_1internal_1_1Factory.html#a218953232725b0f5d69fcf4ed920e540" target="_top" xlink:title=" ">
<polygon fill="white" stroke="black" points="540.5,-126 540.5,-156 700.5,-156 700.5,-126 540.5,-126"/>
<text text-anchor="start" x="548.5" y="-144" font-family="Helvetica,sans-Serif" font-size="10.00">v8::internal::Factory</text>
<text text-anchor="middle" x="620.5" y="-133" font-family="Helvetica,sans-Serif" font-size="10.00">::InitializeAllocationMemento</text>
</a>
</g>
</g>
<!-- Node4&#45;&gt;Node555 -->
<g id="edge7" class="edge">
<title>Node4&#45;&gt;Node555</title>
<path fill="none" stroke="midnightblue" d="M438.98,-196.97C463,-187.12 495.59,-174.39 525,-165 531.82,-162.82 538.96,-160.71 546.14,-158.7"/>
<polygon fill="midnightblue" stroke="midnightblue" points="547.19,-162.04 555.92,-156.03 545.35,-155.29 547.19,-162.04"/>
</g>
<!-- Node556 -->
<g id="node9" class="node">
<title>Node556</title>
<g id="a_node9"><a xlink:href="classv8_1_1internal_1_1DirectHandle.html#a5c266d7537e00f9125f055cfd0bac808" target="_top" xlink:title=" ">
<polygon fill="white" stroke="black" points="549.5,-175 549.5,-205 691.5,-205 691.5,-175 549.5,-175"/>
<text text-anchor="start" x="557.5" y="-193" font-family="Helvetica,sans-Serif" font-size="10.00">v8::internal::DirectHandle</text>
<text text-anchor="middle" x="620.5" y="-182" font-family="Helvetica,sans-Serif" font-size="10.00">::is_null</text>
</a>
</g>
</g>
<!-- Node4&#45;&gt;Node556 -->
<g id="edge10" class="edge">
<title>Node4&#45;&gt;Node556</title>
<path fill="none" stroke="midnightblue" d="M489.18,-203.27C505.66,-201.59 522.87,-199.84 539.18,-198.18"/>
<polygon fill="midnightblue" stroke="midnightblue" points="539.61,-201.66 549.2,-197.16 538.9,-194.69 539.61,-201.66"/>
</g>
<!-- Node553&#45;&gt;Node2 -->
<g id="edge6" class="edge">
<title>Node553&#45;&gt;Node2</title>
<path fill="none" stroke="midnightblue" d="M677.18,-284.48C698.43,-286.95 722.84,-289.8 744.93,-292.37"/>
<polygon fill="midnightblue" stroke="midnightblue" points="744.55,-295.85 754.89,-293.53 745.36,-288.89 744.55,-295.85"/>
</g>
<!-- Node555&#45;&gt;Node2 -->
<g id="edge9" class="edge">
<title>Node555&#45;&gt;Node2</title>
<path fill="none" stroke="midnightblue" d="M699.81,-156.04C705.51,-158.57 710.99,-161.54 716,-165 756.78,-193.17 785.65,-245.04 800.05,-275.63"/>
<polygon fill="midnightblue" stroke="midnightblue" points="796.87,-277.11 804.21,-284.76 803.24,-274.21 796.87,-277.11"/>
</g>
<!-- Node555&#45;&gt;Node38 -->
<g id="edge8" class="edge">
<title>Node555&#45;&gt;Node38</title>
<path fill="none" stroke="midnightblue" d="M683.39,-125.94C708.73,-119.77 737.63,-112.74 761.47,-106.93"/>
<polygon fill="midnightblue" stroke="midnightblue" points="762.46,-110.29 771.35,-104.53 760.81,-103.49 762.46,-110.29"/>
</g>
<!-- Node558 -->
<g id="node12" class="node">
<title>Node558</title>
<g id="a_node12"><a xlink:href="classv8_1_1internal_1_1CppHeapObjectWrapper.html#a393761bc5e2e9b0fdeeaba3cbe6ba20e" target="_top" xlink:title=" ">
<polygon fill="white" stroke="black" points="525,-400 525,-430 716,-430 716,-400 525,-400"/>
<text text-anchor="start" x="533" y="-418" font-family="Helvetica,sans-Serif" font-size="10.00">v8::internal::CppHeapObject</text>
<text text-anchor="middle" x="620.5" y="-407" font-family="Helvetica,sans-Serif" font-size="10.00">Wrapper::InitializeCppHeapWrapper</text>
</a>
</g>
</g>
<!-- Node557&#45;&gt;Node558 -->
<g id="edge15" class="edge">
<title>Node557&#45;&gt;Node558</title>
<path fill="none" stroke="midnightblue" d="M469.78,-381.03C493.1,-386.33 519.49,-392.31 543.55,-397.77"/>
<polygon fill="midnightblue" stroke="midnightblue" points="542.82,-401.19 553.35,-399.99 544.37,-394.37 542.82,-401.19"/>
</g>
<!-- Node559 -->
<g id="node13" class="node">
<title>Node559</title>
<g id="a_node13"><a xlink:href="classv8_1_1internal_1_1Factory.html#a8718cdd665ab884f42fe66007ab21114" target="_top" xlink:title=" ">
<polygon fill="white" stroke="black" points="555.5,-351 555.5,-381 685.5,-381 685.5,-351 555.5,-351"/>
<text text-anchor="start" x="563.5" y="-369" font-family="Helvetica,sans-Serif" font-size="10.00">v8::internal::Factory</text>
<text text-anchor="middle" x="620.5" y="-358" font-family="Helvetica,sans-Serif" font-size="10.00">::InitializeJSObjectBody</text>
</a>
</g>
</g>
<!-- Node557&#45;&gt;Node559 -->
<g id="edge16" class="edge">
<title>Node557&#45;&gt;Node559</title>
<path fill="none" stroke="midnightblue" d="M478.14,-366C499.82,-366 523.5,-366 545.17,-366"/>
<polygon fill="midnightblue" stroke="midnightblue" points="545.29,-369.5 555.29,-366 545.29,-362.5 545.29,-369.5"/>
</g>
<!-- Node559&#45;&gt;Node2 -->
<g id="edge17" class="edge">
<title>Node559&#45;&gt;Node2</title>
<path fill="none" stroke="midnightblue" d="M670.72,-350.95C685.35,-346.33 701.37,-341.1 716,-336 731.37,-330.64 747.99,-324.44 762.96,-318.71"/>
<polygon fill="midnightblue" stroke="midnightblue" points="764.44,-321.89 772.52,-315.03 761.93,-315.36 764.44,-321.89"/>
</g>
</g>
</svg>
        <g id="navigator" transform="translate(0 0)" fill="#404254">
                <rect fill="#f2f5e9" fill-opacity="0.5" stroke="#606060" stroke-width=".5" x="0" y="0" width="60" height="60"/>
                <use id="zoomplus" xlink:href="#zoomPlus" x="17" y="9" onmousedown="handleZoom(evt,'in')"/>
                <use id="zoomminus" xlink:href="#zoomMin" x="42" y="9" onmousedown="handleZoom(evt,'out')"/>
                <use id="reset" xlink:href="#resetDef" x="30" y="36" onmousedown="handleReset()"/>
                <g id="arrowUp" xlink:href="#dirArrow" transform="translate(30 24)" onmousedown="handlePan(0,-1)">
                  <use xlink:href="#rim" fill="#404040">
                        <set attributeName="fill" to="#808080" begin="arrowUp.mouseover" end="arrowUp.mouseout"/>
                  </use>
                  <path fill="none" stroke="white" stroke-width="1.5" d="M0,-3.0v7 M-2.5,-0.5L0,-3.0L2.5,-0.5"/>
                </g>
                <g id="arrowRight" xlink:href="#dirArrow" transform="rotate(90) translate(36 -43)" onmousedown="handlePan(1,0)">
                  <use xlink:href="#rim" fill="#404040">
                        <set attributeName="fill" to="#808080" begin="arrowRight.mouseover" end="arrowRight.mouseout"/>
                  </use>
                  <path fill="none" stroke="white" stroke-width="1.5" d="M0,-3.0v7 M-2.5,-0.5L0,-3.0L2.5,-0.5"/>
                </g>
                <g id="arrowDown" xlink:href="#dirArrow" transform="rotate(180) translate(-30 -48)" onmousedown="handlePan(0,1)">
                  <use xlink:href="#rim" fill="#404040">
                        <set attributeName="fill" to="#808080" begin="arrowDown.mouseover" end="arrowDown.mouseout"/>
                  </use>
                  <path fill="none" stroke="white" stroke-width="1.5" d="M0,-3.0v7 M-2.5,-0.5L0,-3.0L2.5,-0.5"/>
                </g>
                <g id="arrowLeft" xlink:href="#dirArrow" transform="rotate(270) translate(-36 17)" onmousedown="handlePan(-1,0)">
                  <use xlink:href="#rim" fill="#404040">
                        <set attributeName="fill" to="#808080" begin="arrowLeft.mouseover" end="arrowLeft.mouseout"/>
                  </use>
                  <path fill="none" stroke="white" stroke-width="1.5" d="M0,-3.0v7 M-2.5,-0.5L0,-3.0L2.5,-0.5"/>
                </g>
        </g>
        <svg viewBox="0 0 15 15" width="100%" height="30px" preserveAspectRatio="xMaxYMin meet">
         <g id="arrow_out" transform="scale(0.3 0.3)">
          <a xlink:href="classv8_1_1internal_1_1Factory_ad8628a3ae8c2623d4f4679134b930381_cgraph_org.svg" target="_base">
           <rect id="button" ry="5" rx="5" y="6" x="6" height="38" width="38"
                fill="#f2f5e9" fill-opacity="0.5" stroke="#606060" stroke-width="1.0"/>
           <path id="arrow"
             d="M 11.500037,31.436501 C 11.940474,20.09759 22.043105,11.32322 32.158766,21.979434 L 37.068811,17.246167 C 37.068811,17.246167 37.088388,32 37.088388,32 L 22.160133,31.978069 C 22.160133,31.978069 26.997745,27.140456 26.997745,27.140456 C 18.528582,18.264221 13.291696,25.230495 11.500037,31.436501 z"
             style="fill:#404040;"/>
          </a>
         </g>
        </svg>
</svg>
