<?xml version="1.0" encoding="UTF-8" standalone="no"?>
<!DOCTYPE svg PUBLIC "-//W3C//DTD SVG 1.1//EN"
 "http://www.w3.org/Graphics/SVG/1.1/DTD/svg11.dtd">
<!-- Generated by graphviz version 2.43.0 (0)
 -->
<!-- Title: v8::internal::BufferedCharacterStream::ReadBlock Pages: 1 -->
<svg width="363pt" height="78pt"
 viewBox="0.00 0.00 363.00 77.50" xmlns="http://www.w3.org/2000/svg" xmlns:xlink="http://www.w3.org/1999/xlink">
<g id="graph0" class="graph" transform="scale(1 1) rotate(0) translate(4 73.5)">
<title>v8::internal::BufferedCharacterStream::ReadBlock</title>
<polygon fill="white" stroke="transparent" points="-4,4 -4,-73.5 359,-73.5 359,4 -4,4"/>
<!-- Node1 -->
<g id="node1" class="node">
<title>Node1</title>
<g id="a_node1"><a xlink:title=" ">
<polygon fill="#bfbfbf" stroke="black" points="0,-22.5 0,-52.5 167,-52.5 167,-22.5 0,-22.5"/>
<text text-anchor="start" x="8" y="-40.5" font-family="Helvetica,sans-Serif" font-size="10.00">v8::internal::BufferedCharacter</text>
<text text-anchor="middle" x="83.5" y="-29.5" font-family="Helvetica,sans-Serif" font-size="10.00">Stream::ReadBlock</text>
</a>
</g>
</g>
<!-- Node2 -->
<g id="node2" class="node">
<title>Node2</title>
<g id="a_node2"><a xlink:href="namespacev8_1_1internal.html#a97a2bf2e1b8fac6ada79dd7ec47ffcfe" target="_top" xlink:title=" ">
<polygon fill="white" stroke="black" points="213.5,-50 213.5,-69 344.5,-69 344.5,-50 213.5,-50"/>
<text text-anchor="middle" x="279" y="-57" font-family="Helvetica,sans-Serif" font-size="10.00">v8::internal::CopyChars</text>
</a>
</g>
</g>
<!-- Node1&#45;&gt;Node2 -->
<g id="edge1" class="edge">
<title>Node1&#45;&gt;Node2</title>
<path fill="none" stroke="midnightblue" d="M167.12,-46.89C179.12,-48.26 191.41,-49.66 203.24,-51"/>
<polygon fill="midnightblue" stroke="midnightblue" points="203.17,-54.51 213.5,-52.17 203.96,-47.56 203.17,-54.51"/>
</g>
<!-- Node3 -->
<g id="node3" class="node">
<title>Node3</title>
<g id="a_node3"><a xlink:href="classv8_1_1internal_1_1Utf16CharacterStream.html#a62781098d4df487da7dd94582f5617d1" target="_top" xlink:title=" ">
<polygon fill="white" stroke="black" points="203,-0.5 203,-30.5 355,-30.5 355,-0.5 203,-0.5"/>
<text text-anchor="start" x="211" y="-18.5" font-family="Helvetica,sans-Serif" font-size="10.00">v8::internal::Utf16Character</text>
<text text-anchor="middle" x="279" y="-7.5" font-family="Helvetica,sans-Serif" font-size="10.00">Stream::runtime_call_stats</text>
</a>
</g>
</g>
<!-- Node1&#45;&gt;Node3 -->
<g id="edge2" class="edge">
<title>Node1&#45;&gt;Node3</title>
<path fill="none" stroke="midnightblue" d="M167.12,-28.11C175.52,-27.15 184.06,-26.18 192.49,-25.22"/>
<polygon fill="midnightblue" stroke="midnightblue" points="193.16,-28.67 202.7,-24.06 192.37,-21.71 193.16,-28.67"/>
</g>
</g>
</svg>
