<?xml version="1.0" encoding="UTF-8" standalone="no"?>
<!DOCTYPE svg PUBLIC "-//W3C//DTD SVG 1.1//EN"
 "http://www.w3.org/Graphics/SVG/1.1/DTD/svg11.dtd">
<!-- Generated by graphviz version 2.43.0 (0)
 -->
<!-- Title: v8::internal::compiler::RpoNumber::IsNext Pages: 1 -->
<svg width="1089pt" height="176pt"
 viewBox="0.00 0.00 1089.00 175.50" xmlns="http://www.w3.org/2000/svg" xmlns:xlink="http://www.w3.org/1999/xlink">
<g id="graph0" class="graph" transform="scale(1 1) rotate(0) translate(4 171.5)">
<title>v8::internal::compiler::RpoNumber::IsNext</title>
<polygon fill="white" stroke="transparent" points="-4,4 -4,-171.5 1085,-171.5 1085,4 -4,4"/>
<!-- Node1 -->
<g id="node1" class="node">
<title>Node1</title>
<g id="a_node1"><a xlink:title=" ">
<polygon fill="#bfbfbf" stroke="black" points="960,-71.5 960,-101.5 1081,-101.5 1081,-71.5 960,-71.5"/>
<text text-anchor="start" x="968" y="-89.5" font-family="Helvetica,sans-Serif" font-size="10.00">v8::internal::compiler</text>
<text text-anchor="middle" x="1020.5" y="-78.5" font-family="Helvetica,sans-Serif" font-size="10.00">::RpoNumber::IsNext</text>
</a>
</g>
</g>
<!-- Node2 -->
<g id="node2" class="node">
<title>Node2</title>
<g id="a_node2"><a xlink:href="classv8_1_1internal_1_1compiler_1_1LinearScanAllocator.html#af090759a2b6c76166a297fe5343fbbe9" target="_top" xlink:title=" ">
<polygon fill="white" stroke="black" points="754.5,-94 754.5,-135 875.5,-135 875.5,-94 754.5,-94"/>
<text text-anchor="start" x="762.5" y="-123" font-family="Helvetica,sans-Serif" font-size="10.00">v8::internal::compiler</text>
<text text-anchor="start" x="762.5" y="-112" font-family="Helvetica,sans-Serif" font-size="10.00">::LinearScanAllocator</text>
<text text-anchor="middle" x="815" y="-101" font-family="Helvetica,sans-Serif" font-size="10.00">::AllocateRegisters</text>
</a>
</g>
</g>
<!-- Node1&#45;&gt;Node2 -->
<g id="edge1" class="edge">
<title>Node1&#45;&gt;Node2</title>
<path fill="none" stroke="midnightblue" d="M949.68,-96.11C925.6,-99.42 898.87,-103.1 875.68,-106.29"/>
<polygon fill="midnightblue" stroke="midnightblue" points="950.39,-99.54 959.82,-94.71 949.43,-92.61 950.39,-99.54"/>
</g>
<!-- Node3 -->
<g id="node3" class="node">
<title>Node3</title>
<g id="a_node3"><a xlink:href="classv8_1_1internal_1_1compiler_1_1CodeGenerator.html#a31be35fe306b50a3c39e5e412bc76e0e" target="_top" xlink:title=" ">
<polygon fill="white" stroke="black" points="706,-44.5 706,-74.5 924,-74.5 924,-44.5 706,-44.5"/>
<text text-anchor="start" x="714" y="-62.5" font-family="Helvetica,sans-Serif" font-size="10.00">v8::internal::compiler</text>
<text text-anchor="middle" x="815" y="-51.5" font-family="Helvetica,sans-Serif" font-size="10.00">::CodeGenerator::IsNextInAssemblyOrder</text>
</a>
</g>
</g>
<!-- Node1&#45;&gt;Node3 -->
<g id="edge2" class="edge">
<title>Node1&#45;&gt;Node3</title>
<path fill="none" stroke="midnightblue" d="M949.86,-77.26C941.56,-76.16 932.93,-75.01 924.25,-73.86"/>
<polygon fill="midnightblue" stroke="midnightblue" points="949.44,-80.74 959.82,-78.58 950.37,-73.8 949.44,-80.74"/>
</g>
<!-- Node4 -->
<g id="node4" class="node">
<title>Node4</title>
<g id="a_node4"><a xlink:href="classv8_1_1internal_1_1compiler_1_1CodeGenerator.html#a05a551c8c1f59899bcaa7e875e3f5b8b" target="_top" xlink:title=" ">
<polygon fill="white" stroke="black" points="473,-88.5 473,-118.5 670,-118.5 670,-88.5 473,-88.5"/>
<text text-anchor="start" x="481" y="-106.5" font-family="Helvetica,sans-Serif" font-size="10.00">v8::internal::compiler</text>
<text text-anchor="middle" x="571.5" y="-95.5" font-family="Helvetica,sans-Serif" font-size="10.00">::CodeGenerator::AssembleArchJump</text>
</a>
</g>
</g>
<!-- Node3&#45;&gt;Node4 -->
<g id="edge3" class="edge">
<title>Node3&#45;&gt;Node4</title>
<path fill="none" stroke="midnightblue" d="M721.6,-76.34C699.67,-80.33 676.42,-84.57 654.97,-88.47"/>
<polygon fill="midnightblue" stroke="midnightblue" points="722.35,-79.76 731.56,-74.52 721.1,-72.87 722.35,-79.76"/>
</g>
<!-- Node6 -->
<g id="node6" class="node">
<title>Node6</title>
<g id="a_node6"><a xlink:href="classv8_1_1internal_1_1compiler_1_1CodeGenerator.html#ab0e0c8cccac3a8c90e8b34c2ab98ab2f" target="_top" xlink:title=" ">
<polygon fill="white" stroke="red" points="0,-63.5 0,-93.5 202,-93.5 202,-63.5 0,-63.5"/>
<text text-anchor="start" x="8" y="-81.5" font-family="Helvetica,sans-Serif" font-size="10.00">v8::internal::compiler</text>
<text text-anchor="middle" x="101" y="-70.5" font-family="Helvetica,sans-Serif" font-size="10.00">::CodeGenerator::AssembleInstruction</text>
</a>
</g>
</g>
<!-- Node3&#45;&gt;Node6 -->
<g id="edge7" class="edge">
<title>Node3&#45;&gt;Node6</title>
<path fill="none" stroke="midnightblue" d="M695.67,-62.66C557.67,-66.34 331.94,-72.36 202.22,-75.83"/>
<polygon fill="midnightblue" stroke="midnightblue" points="695.96,-66.15 705.86,-62.39 695.77,-59.15 695.96,-66.15"/>
</g>
<!-- Node10 -->
<g id="node7" class="node">
<title>Node10</title>
<g id="a_node7"><a xlink:href="classv8_1_1internal_1_1compiler_1_1CodeGenerator.html#a6ce9bd529a4a89eda628466e4eba0525" target="_top" xlink:title=" ">
<polygon fill="white" stroke="black" points="238,-0.5 238,-30.5 437,-30.5 437,-0.5 238,-0.5"/>
<text text-anchor="start" x="246" y="-18.5" font-family="Helvetica,sans-Serif" font-size="10.00">v8::internal::compiler</text>
<text text-anchor="middle" x="337.5" y="-7.5" font-family="Helvetica,sans-Serif" font-size="10.00">::CodeGenerator::ComputeBranchInfo</text>
</a>
</g>
</g>
<!-- Node3&#45;&gt;Node10 -->
<g id="edge8" class="edge">
<title>Node3&#45;&gt;Node10</title>
<path fill="none" stroke="midnightblue" d="M695.68,-47.93C686.99,-47.1 678.36,-46.28 670,-45.5 591.75,-38.16 503.09,-30.15 437.15,-24.25"/>
<polygon fill="midnightblue" stroke="midnightblue" points="695.6,-51.44 705.89,-48.91 696.27,-44.47 695.6,-51.44"/>
</g>
<!-- Node5 -->
<g id="node5" class="node">
<title>Node5</title>
<g id="a_node5"><a xlink:href="classv8_1_1internal_1_1compiler_1_1CodeGenerator.html#a272c7f0291804d3d65cf46b586d70977" target="_top" xlink:title=" ">
<polygon fill="white" stroke="black" points="251.5,-126 251.5,-167 423.5,-167 423.5,-126 251.5,-126"/>
<text text-anchor="start" x="259.5" y="-155" font-family="Helvetica,sans-Serif" font-size="10.00">v8::internal::compiler</text>
<text text-anchor="start" x="259.5" y="-144" font-family="Helvetica,sans-Serif" font-size="10.00">::CodeGenerator::AssembleArch</text>
<text text-anchor="middle" x="337.5" y="-133" font-family="Helvetica,sans-Serif" font-size="10.00">Instruction</text>
</a>
</g>
</g>
<!-- Node4&#45;&gt;Node5 -->
<g id="edge4" class="edge">
<title>Node4&#45;&gt;Node5</title>
<path fill="none" stroke="midnightblue" d="M479.51,-120.36C461.08,-123.78 441.76,-127.36 423.53,-130.74"/>
<polygon fill="midnightblue" stroke="midnightblue" points="480.16,-123.8 489.36,-118.54 478.89,-116.92 480.16,-123.8"/>
</g>
<!-- Node4&#45;&gt;Node6 -->
<g id="edge6" class="edge">
<title>Node4&#45;&gt;Node6</title>
<path fill="none" stroke="midnightblue" d="M462.47,-97.74C384.11,-93.55 278.87,-87.94 202.34,-83.85"/>
<polygon fill="midnightblue" stroke="midnightblue" points="462.68,-101.25 472.86,-98.29 463.06,-94.26 462.68,-101.25"/>
</g>
<!-- Node5&#45;&gt;Node6 -->
<g id="edge5" class="edge">
<title>Node5&#45;&gt;Node6</title>
<path fill="none" stroke="midnightblue" d="M255.65,-123.06C221.88,-113.26 183.65,-102.18 153.76,-93.51"/>
<polygon fill="midnightblue" stroke="midnightblue" points="254.93,-126.49 265.51,-125.91 256.88,-119.77 254.93,-126.49"/>
</g>
<!-- Node10&#45;&gt;Node6 -->
<g id="edge9" class="edge">
<title>Node10&#45;&gt;Node6</title>
<path fill="none" stroke="midnightblue" d="M270.82,-33.15C235.25,-42.7 191.77,-54.38 157.85,-63.5"/>
<polygon fill="midnightblue" stroke="midnightblue" points="271.88,-36.48 280.63,-30.51 270.06,-29.72 271.88,-36.48"/>
</g>
</g>
</svg>
