<?xml version="1.0" encoding="UTF-8" standalone="no"?>
<!DOCTYPE svg PUBLIC "-//W3C//DTD SVG 1.1//EN"
 "http://www.w3.org/Graphics/SVG/1.1/DTD/svg11.dtd">
<!-- Generated by graphviz version 2.43.0 (0)
 -->
<!-- Title: v8::internal::interpreter::Bytecodes::IsRegisterOperandType Pages: 1 -->
<!--zoomable 1603 -->
<svg id="main" version="1.1" xmlns="http://www.w3.org/2000/svg" xmlns:xlink="http://www.w3.org/1999/xlink" xml:space="preserve" onload="init(evt)">
<style type="text/css"><![CDATA[
.edge:hover path { stroke: red; }
.edge:hover polygon { stroke: red; fill: red; }
]]></style>
<script type="text/javascript"><![CDATA[
var edges = document.getElementsByTagName('g');
if (edges && edges.length) {
  for (var i=0;i<edges.length;i++) {
    if (edges[i].id.substr(0,4)=='edge') {
      edges[i].setAttribute('class','edge');
    }
  }
}
]]></script>
        <defs>
                <circle id="rim" cx="0" cy="0" r="7"/>
                <circle id="rim2" cx="0" cy="0" r="3.5"/>
                <g id="zoomPlus">
                        <use xlink:href="#rim" fill="#404040">
                                <set attributeName="fill" to="#808080" begin="zoomplus.mouseover" end="zoomplus.mouseout"/>
                        </use>
                        <path d="M-4,0h8M0,-4v8" fill="none" stroke="white" stroke-width="1.5" pointer-events="none"/>
                </g>
                <g id="zoomMin">
                        <use xlink:href="#rim" fill="#404040">
                                <set attributeName="fill" to="#808080" begin="zoomminus.mouseover" end="zoomminus.mouseout"/>
                        </use>
                        <path d="M-4,0h8" fill="none" stroke="white" stroke-width="1.5" pointer-events="none"/>
                </g>
                <g id="dirArrow">
                        <path fill="none" stroke="white" stroke-width="1.5" d="M0,-3.0v7 M-2.5,-0.5L0,-3.0L2.5,-0.5"/>
                </g>
               <g id="resetDef">
                       <use xlink:href="#rim2" fill="#404040">
                               <set attributeName="fill" to="#808080" begin="reset.mouseover" end="reset.mouseout"/>
                       </use>
               </g>
        </defs>

<script type="text/javascript">
var viewWidth = 1352;
var viewHeight = 1603;
var sectionId = 'dynsection-34';
</script>
<script xlink:href="svgpan.js"/>
<svg id="graph" class="graph">
<g id="viewport">
<title>v8::internal::interpreter::Bytecodes::IsRegisterOperandType</title>
<polygon fill="white" stroke="transparent" points="-4,4 -4,-1599 1348,-1599 1348,4 -4,4"/>
<!-- Node1 -->
<g id="node1" class="node">
<title>Node1</title>
<g id="a_node1"><a xlink:title=" ">
<polygon fill="#bfbfbf" stroke="black" points="1152,-1185 1152,-1215 1344,-1215 1344,-1185 1152,-1185"/>
<text text-anchor="start" x="1160" y="-1203" font-family="Helvetica,sans-Serif" font-size="10.00">v8::internal::interpreter</text>
<text text-anchor="middle" x="1248" y="-1192" font-family="Helvetica,sans-Serif" font-size="10.00">::Bytecodes::IsRegisterOperandType</text>
</a>
</g>
</g>
<!-- Node2 -->
<g id="node2" class="node">
<title>Node2</title>
<g id="a_node2"><a xlink:href="classv8_1_1internal_1_1interpreter_1_1InterpreterAssembler.html#ae5937ebe987064276be4b03d0b603c64" target="_top" xlink:title=" ">
<polygon fill="white" stroke="black" points="955,-1373.5 955,-1414.5 1085,-1414.5 1085,-1373.5 955,-1373.5"/>
<text text-anchor="start" x="963" y="-1402.5" font-family="Helvetica,sans-Serif" font-size="10.00">v8::internal::interpreter</text>
<text text-anchor="start" x="963" y="-1391.5" font-family="Helvetica,sans-Serif" font-size="10.00">::InterpreterAssembler</text>
<text text-anchor="middle" x="1020" y="-1380.5" font-family="Helvetica,sans-Serif" font-size="10.00">::BytecodeOperandReg</text>
</a>
</g>
</g>
<!-- Node1&#45;&gt;Node2 -->
<g id="edge1" class="edge">
<title>Node1&#45;&gt;Node2</title>
<path fill="none" stroke="midnightblue" d="M1221.61,-1221.79C1177.65,-1259.53 1087.94,-1336.54 1044.98,-1373.42"/>
<polygon fill="midnightblue" stroke="midnightblue" points="1223.96,-1224.39 1229.27,-1215.22 1219.4,-1219.08 1223.96,-1224.39"/>
</g>
<!-- Node10 -->
<g id="node10" class="node">
<title>Node10</title>
<g id="a_node10"><a xlink:href="classv8_1_1internal_1_1interpreter_1_1BytecodeDecoder.html#ae6898ac65e67590041d7a368a952f167" target="_top" xlink:title=" ">
<polygon fill="white" stroke="black" points="924,-1179.5 924,-1220.5 1116,-1220.5 1116,-1179.5 924,-1179.5"/>
<text text-anchor="start" x="932" y="-1208.5" font-family="Helvetica,sans-Serif" font-size="10.00">v8::internal::interpreter</text>
<text text-anchor="start" x="932" y="-1197.5" font-family="Helvetica,sans-Serif" font-size="10.00">::BytecodeDecoder::DecodeRegister</text>
<text text-anchor="middle" x="1020" y="-1186.5" font-family="Helvetica,sans-Serif" font-size="10.00">Operand</text>
</a>
</g>
</g>
<!-- Node1&#45;&gt;Node10 -->
<g id="edge9" class="edge">
<title>Node1&#45;&gt;Node10</title>
<path fill="none" stroke="midnightblue" d="M1141.78,-1200C1133.21,-1200 1124.58,-1200 1116.08,-1200"/>
<polygon fill="midnightblue" stroke="midnightblue" points="1141.81,-1203.5 1151.81,-1200 1141.81,-1196.5 1141.81,-1203.5"/>
</g>
<!-- Node107 -->
<g id="node37" class="node">
<title>Node107</title>
<g id="a_node37"><a xlink:href="classv8_1_1internal_1_1interpreter_1_1BytecodeArrayIterator.html#aa34796b0edfd2ca0d4466204424ef594" target="_top" xlink:title=" ">
<polygon fill="white" stroke="black" points="944,-1119.5 944,-1160.5 1096,-1160.5 1096,-1119.5 944,-1119.5"/>
<text text-anchor="start" x="952" y="-1148.5" font-family="Helvetica,sans-Serif" font-size="10.00">v8::internal::interpreter</text>
<text text-anchor="start" x="952" y="-1137.5" font-family="Helvetica,sans-Serif" font-size="10.00">::BytecodeArrayIterator</text>
<text text-anchor="middle" x="1020" y="-1126.5" font-family="Helvetica,sans-Serif" font-size="10.00">::GetRegisterOperandRange</text>
</a>
</g>
</g>
<!-- Node1&#45;&gt;Node107 -->
<g id="edge41" class="edge">
<title>Node1&#45;&gt;Node107</title>
<path fill="none" stroke="midnightblue" d="M1180.34,-1182.3C1153.9,-1175.28 1123.36,-1167.18 1096.14,-1159.95"/>
<polygon fill="midnightblue" stroke="midnightblue" points="1179.7,-1185.75 1190.26,-1184.94 1181.5,-1178.99 1179.7,-1185.75"/>
</g>
<!-- Node3 -->
<g id="node3" class="node">
<title>Node3</title>
<g id="a_node3"><a xlink:href="classv8_1_1internal_1_1interpreter_1_1InterpreterAssembler.html#a6b93f8629babd9528b9f886b89ff82d3" target="_top" xlink:title=" ">
<polygon fill="white" stroke="black" points="703,-1553.5 703,-1594.5 879,-1594.5 879,-1553.5 703,-1553.5"/>
<text text-anchor="start" x="711" y="-1582.5" font-family="Helvetica,sans-Serif" font-size="10.00">v8::internal::interpreter</text>
<text text-anchor="start" x="711" y="-1571.5" font-family="Helvetica,sans-Serif" font-size="10.00">::InterpreterAssembler</text>
<text text-anchor="middle" x="791" y="-1560.5" font-family="Helvetica,sans-Serif" font-size="10.00">::GetRegisterListAtOperandIndex</text>
</a>
</g>
</g>
<!-- Node2&#45;&gt;Node3 -->
<g id="edge2" class="edge">
<title>Node2&#45;&gt;Node3</title>
<path fill="none" stroke="midnightblue" d="M1000.81,-1423.19C978.31,-1457 936.92,-1512.1 888,-1544 882.59,-1547.53 876.74,-1550.67 870.68,-1553.45"/>
<polygon fill="midnightblue" stroke="midnightblue" points="1003.84,-1424.96 1006.39,-1414.67 997.98,-1421.13 1003.84,-1424.96"/>
</g>
<!-- Node4 -->
<g id="node4" class="node">
<title>Node4</title>
<g id="a_node4"><a xlink:href="classv8_1_1internal_1_1interpreter_1_1InterpreterAssembler.html#a3210618a3cea8cae59fc7a070e08726a" target="_top" xlink:title=" ">
<polygon fill="white" stroke="black" points="708.5,-1493.5 708.5,-1534.5 873.5,-1534.5 873.5,-1493.5 708.5,-1493.5"/>
<text text-anchor="start" x="716.5" y="-1522.5" font-family="Helvetica,sans-Serif" font-size="10.00">v8::internal::interpreter</text>
<text text-anchor="start" x="716.5" y="-1511.5" font-family="Helvetica,sans-Serif" font-size="10.00">::InterpreterAssembler</text>
<text text-anchor="middle" x="791" y="-1500.5" font-family="Helvetica,sans-Serif" font-size="10.00">::LoadRegisterAtOperandIndex</text>
</a>
</g>
</g>
<!-- Node2&#45;&gt;Node4 -->
<g id="edge3" class="edge">
<title>Node2&#45;&gt;Node4</title>
<path fill="none" stroke="midnightblue" d="M985.63,-1421.1C960.13,-1440.74 923.45,-1466.77 888,-1484 880.93,-1487.43 873.38,-1490.59 865.74,-1493.46"/>
<polygon fill="midnightblue" stroke="midnightblue" points="988.09,-1423.62 993.83,-1414.71 983.79,-1418.1 988.09,-1423.62"/>
</g>
<!-- Node6 -->
<g id="node6" class="node">
<title>Node6</title>
<g id="a_node6"><a xlink:href="classv8_1_1internal_1_1interpreter_1_1InterpreterAssembler.html#a3317f2d7e705147bae581061b96ebb47" target="_top" xlink:title=" ">
<polygon fill="white" stroke="black" points="699.5,-1433.5 699.5,-1474.5 882.5,-1474.5 882.5,-1433.5 699.5,-1433.5"/>
<text text-anchor="start" x="707.5" y="-1462.5" font-family="Helvetica,sans-Serif" font-size="10.00">v8::internal::interpreter</text>
<text text-anchor="start" x="707.5" y="-1451.5" font-family="Helvetica,sans-Serif" font-size="10.00">::InterpreterAssembler</text>
<text text-anchor="middle" x="791" y="-1440.5" font-family="Helvetica,sans-Serif" font-size="10.00">::LoadRegisterPairAtOperandIndex</text>
</a>
</g>
</g>
<!-- Node2&#45;&gt;Node6 -->
<g id="edge5" class="edge">
<title>Node2&#45;&gt;Node6</title>
<path fill="none" stroke="midnightblue" d="M945.06,-1413.54C920.93,-1419.92 894.08,-1427.02 869.69,-1433.47"/>
<polygon fill="midnightblue" stroke="midnightblue" points="946.09,-1416.89 954.86,-1410.95 944.3,-1410.12 946.09,-1416.89"/>
</g>
<!-- Node7 -->
<g id="node7" class="node">
<title>Node7</title>
<g id="a_node7"><a xlink:href="classv8_1_1internal_1_1interpreter_1_1InterpreterAssembler.html#a3441d8b557876ab9fd167c6fb69c7193" target="_top" xlink:title=" ">
<polygon fill="white" stroke="black" points="707.5,-1373.5 707.5,-1414.5 874.5,-1414.5 874.5,-1373.5 707.5,-1373.5"/>
<text text-anchor="start" x="715.5" y="-1402.5" font-family="Helvetica,sans-Serif" font-size="10.00">v8::internal::interpreter</text>
<text text-anchor="start" x="715.5" y="-1391.5" font-family="Helvetica,sans-Serif" font-size="10.00">::InterpreterAssembler</text>
<text text-anchor="middle" x="791" y="-1380.5" font-family="Helvetica,sans-Serif" font-size="10.00">::StoreRegisterAtOperandIndex</text>
</a>
</g>
</g>
<!-- Node2&#45;&gt;Node7 -->
<g id="edge6" class="edge">
<title>Node2&#45;&gt;Node7</title>
<path fill="none" stroke="midnightblue" d="M944.74,-1394C922.33,-1394 897.59,-1394 874.67,-1394"/>
<polygon fill="midnightblue" stroke="midnightblue" points="944.86,-1397.5 954.86,-1394 944.86,-1390.5 944.86,-1397.5"/>
</g>
<!-- Node8 -->
<g id="node8" class="node">
<title>Node8</title>
<g id="a_node8"><a xlink:href="classv8_1_1internal_1_1interpreter_1_1InterpreterAssembler.html#a680f37ae7f9919dc835e014b5827fea5" target="_top" xlink:title=" ">
<polygon fill="white" stroke="black" points="698.5,-1313.5 698.5,-1354.5 883.5,-1354.5 883.5,-1313.5 698.5,-1313.5"/>
<text text-anchor="start" x="706.5" y="-1342.5" font-family="Helvetica,sans-Serif" font-size="10.00">v8::internal::interpreter</text>
<text text-anchor="start" x="706.5" y="-1331.5" font-family="Helvetica,sans-Serif" font-size="10.00">::InterpreterAssembler</text>
<text text-anchor="middle" x="791" y="-1320.5" font-family="Helvetica,sans-Serif" font-size="10.00">::StoreRegisterPairAtOperandIndex</text>
</a>
</g>
</g>
<!-- Node2&#45;&gt;Node8 -->
<g id="edge7" class="edge">
<title>Node2&#45;&gt;Node8</title>
<path fill="none" stroke="midnightblue" d="M945.06,-1374.46C920.93,-1368.08 894.08,-1360.98 869.69,-1354.53"/>
<polygon fill="midnightblue" stroke="midnightblue" points="944.3,-1377.88 954.86,-1377.05 946.09,-1371.11 944.3,-1377.88"/>
</g>
<!-- Node9 -->
<g id="node9" class="node">
<title>Node9</title>
<g id="a_node9"><a xlink:href="classv8_1_1internal_1_1interpreter_1_1InterpreterAssembler.html#ab99e1cb53d153a743f9ff23619ec8b8b" target="_top" xlink:title=" ">
<polygon fill="white" stroke="black" points="694,-1253.5 694,-1294.5 888,-1294.5 888,-1253.5 694,-1253.5"/>
<text text-anchor="start" x="702" y="-1282.5" font-family="Helvetica,sans-Serif" font-size="10.00">v8::internal::interpreter</text>
<text text-anchor="start" x="702" y="-1271.5" font-family="Helvetica,sans-Serif" font-size="10.00">::InterpreterAssembler</text>
<text text-anchor="middle" x="791" y="-1260.5" font-family="Helvetica,sans-Serif" font-size="10.00">::StoreRegisterTripleAtOperandIndex</text>
</a>
</g>
</g>
<!-- Node2&#45;&gt;Node9 -->
<g id="edge8" class="edge">
<title>Node2&#45;&gt;Node9</title>
<path fill="none" stroke="midnightblue" d="M985.63,-1366.9C960.13,-1347.26 923.45,-1321.23 888,-1304 880.93,-1300.57 873.38,-1297.41 865.74,-1294.54"/>
<polygon fill="midnightblue" stroke="midnightblue" points="983.79,-1369.9 993.83,-1373.29 988.09,-1364.38 983.79,-1369.9"/>
</g>
<!-- Node5 -->
<g id="node5" class="node">
<title>Node5</title>
<g id="a_node5"><a xlink:href="classv8_1_1internal_1_1interpreter_1_1InterpreterAssembler.html#a1e6cce90922682ba7560559e3a673e16" target="_top" xlink:title=" ">
<polygon fill="white" stroke="black" points="426,-1493.5 426,-1534.5 594,-1534.5 594,-1493.5 426,-1493.5"/>
<text text-anchor="start" x="434" y="-1522.5" font-family="Helvetica,sans-Serif" font-size="10.00">v8::internal::interpreter</text>
<text text-anchor="start" x="434" y="-1511.5" font-family="Helvetica,sans-Serif" font-size="10.00">::InterpreterAssembler</text>
<text text-anchor="middle" x="510" y="-1500.5" font-family="Helvetica,sans-Serif" font-size="10.00">::CallJSWithSpreadAndDispatch</text>
</a>
</g>
</g>
<!-- Node4&#45;&gt;Node5 -->
<g id="edge4" class="edge">
<title>Node4&#45;&gt;Node5</title>
<path fill="none" stroke="midnightblue" d="M697.94,-1514C664.49,-1514 626.92,-1514 594.27,-1514"/>
<polygon fill="midnightblue" stroke="midnightblue" points="698.18,-1517.5 708.18,-1514 698.18,-1510.5 698.18,-1517.5"/>
</g>
<!-- Node11 -->
<g id="node11" class="node">
<title>Node11</title>
<g id="a_node11"><a xlink:href="classv8_1_1internal_1_1interpreter_1_1BytecodeDecoder.html#afd020b7e7f50a953a88dfe82dd01c694" target="_top" xlink:title=" ">
<polygon fill="white" stroke="black" points="434,-1210 434,-1240 586,-1240 586,-1210 434,-1210"/>
<text text-anchor="start" x="442" y="-1228" font-family="Helvetica,sans-Serif" font-size="10.00">v8::internal::interpreter</text>
<text text-anchor="middle" x="510" y="-1217" font-family="Helvetica,sans-Serif" font-size="10.00">::BytecodeDecoder::Decode</text>
</a>
</g>
</g>
<!-- Node10&#45;&gt;Node11 -->
<g id="edge10" class="edge">
<title>Node10&#45;&gt;Node11</title>
<path fill="none" stroke="midnightblue" d="M913.55,-1205.19C815.89,-1210 673.04,-1217.03 586.37,-1221.29"/>
<polygon fill="midnightblue" stroke="midnightblue" points="913.93,-1208.68 923.75,-1204.69 913.59,-1201.68 913.93,-1208.68"/>
</g>
<!-- Node26 -->
<g id="node17" class="node">
<title>Node26</title>
<g id="a_node17"><a xlink:href="classv8_1_1internal_1_1interpreter_1_1BytecodeDecoder.html#a6847328e2bbccba309ab2b2ab24c4703" target="_top" xlink:title=" ">
<polygon fill="white" stroke="black" points="695,-1155.5 695,-1196.5 887,-1196.5 887,-1155.5 695,-1155.5"/>
<text text-anchor="start" x="703" y="-1184.5" font-family="Helvetica,sans-Serif" font-size="10.00">v8::internal::interpreter</text>
<text text-anchor="start" x="703" y="-1173.5" font-family="Helvetica,sans-Serif" font-size="10.00">::BytecodeDecoder::DecodeRegister</text>
<text text-anchor="middle" x="791" y="-1162.5" font-family="Helvetica,sans-Serif" font-size="10.00">ListOperand</text>
</a>
</g>
</g>
<!-- Node10&#45;&gt;Node26 -->
<g id="edge17" class="edge">
<title>Node10&#45;&gt;Node26</title>
<path fill="none" stroke="midnightblue" d="M913.71,-1188.87C904.82,-1187.93 895.85,-1186.98 887.04,-1186.05"/>
<polygon fill="midnightblue" stroke="midnightblue" points="913.41,-1192.36 923.72,-1189.93 914.14,-1185.39 913.41,-1192.36"/>
</g>
<!-- Node27 -->
<g id="node18" class="node">
<title>Node27</title>
<g id="a_node18"><a xlink:href="classv8_1_1internal_1_1interpreter_1_1BytecodeArrayIterator.html#a24254861c6a7f3250ed22fe23b4eac0a" target="_top" xlink:title=" ">
<polygon fill="white" stroke="black" points="725.5,-574.5 725.5,-615.5 856.5,-615.5 856.5,-574.5 725.5,-574.5"/>
<text text-anchor="start" x="733.5" y="-603.5" font-family="Helvetica,sans-Serif" font-size="10.00">v8::internal::interpreter</text>
<text text-anchor="start" x="733.5" y="-592.5" font-family="Helvetica,sans-Serif" font-size="10.00">::BytecodeArrayIterator</text>
<text text-anchor="middle" x="791" y="-581.5" font-family="Helvetica,sans-Serif" font-size="10.00">::GetRegisterOperand</text>
</a>
</g>
</g>
<!-- Node10&#45;&gt;Node27 -->
<g id="edge19" class="edge">
<title>Node10&#45;&gt;Node27</title>
<path fill="none" stroke="midnightblue" d="M926.87,-1172.9C925.88,-1171.97 924.92,-1171 924,-1170 846.2,-1085.7 803.49,-708.69 794.03,-615.76"/>
<polygon fill="midnightblue" stroke="midnightblue" points="925,-1175.9 934.98,-1179.47 929.41,-1170.46 925,-1175.9"/>
</g>
<!-- Node12 -->
<g id="node12" class="node">
<title>Node12</title>
<g id="a_node12"><a xlink:href="classv8_1_1internal_1_1BytecodeArray.html#a2789bf083a6fb2037c76785e89ee74e3" target="_top" xlink:title=" ">
<polygon fill="white" stroke="black" points="176,-1330 176,-1360 326,-1360 326,-1330 176,-1330"/>
<text text-anchor="start" x="184" y="-1348" font-family="Helvetica,sans-Serif" font-size="10.00">v8::internal::BytecodeArray</text>
<text text-anchor="middle" x="251" y="-1337" font-family="Helvetica,sans-Serif" font-size="10.00">::Disassemble</text>
</a>
</g>
</g>
<!-- Node11&#45;&gt;Node12 -->
<g id="edge11" class="edge">
<title>Node11&#45;&gt;Node12</title>
<path fill="none" stroke="midnightblue" d="M474.23,-1245.09C437.98,-1265.55 379.14,-1297.39 326,-1320 317.76,-1323.5 308.86,-1326.86 300.17,-1329.92"/>
<polygon fill="midnightblue" stroke="midnightblue" points="475.97,-1248.13 482.94,-1240.15 472.52,-1242.04 475.97,-1248.13"/>
</g>
<!-- Node13 -->
<g id="node13" class="node">
<title>Node13</title>
<g id="a_node13"><a xlink:href="classv8_1_1internal_1_1maglev_1_1MaglevGraphBuilder.html#a56b0fd50a976eb619c766b36acf8beea" target="_top" xlink:title=" ">
<polygon fill="white" stroke="black" points="190,-1269.5 190,-1310.5 312,-1310.5 312,-1269.5 190,-1269.5"/>
<text text-anchor="start" x="198" y="-1298.5" font-family="Helvetica,sans-Serif" font-size="10.00">v8::internal::maglev</text>
<text text-anchor="start" x="198" y="-1287.5" font-family="Helvetica,sans-Serif" font-size="10.00">::MaglevGraphBuilder</text>
<text text-anchor="middle" x="251" y="-1276.5" font-family="Helvetica,sans-Serif" font-size="10.00">::MarkBytecodeDead</text>
</a>
</g>
</g>
<!-- Node11&#45;&gt;Node13 -->
<g id="edge12" class="edge">
<title>Node11&#45;&gt;Node13</title>
<path fill="none" stroke="midnightblue" d="M439.5,-1242.58C399.71,-1252.64 350.29,-1265.14 312.17,-1274.78"/>
<polygon fill="midnightblue" stroke="midnightblue" points="440.56,-1245.92 449.39,-1240.08 438.84,-1239.13 440.56,-1245.92"/>
</g>
<!-- Node14 -->
<g id="node14" class="node">
<title>Node14</title>
<g id="a_node14"><a xlink:href="classv8_1_1internal_1_1maglev_1_1MaglevGraphBuilder.html#aca17e7a533a577e8ec8fe5ca12d91d5e" target="_top" xlink:title=" ">
<polygon fill="white" stroke="red" points="9,-1244.5 9,-1285.5 131,-1285.5 131,-1244.5 9,-1244.5"/>
<text text-anchor="start" x="17" y="-1273.5" font-family="Helvetica,sans-Serif" font-size="10.00">v8::internal::maglev</text>
<text text-anchor="start" x="17" y="-1262.5" font-family="Helvetica,sans-Serif" font-size="10.00">::MaglevGraphBuilder</text>
<text text-anchor="middle" x="70" y="-1251.5" font-family="Helvetica,sans-Serif" font-size="10.00">::VisitSingleBytecode</text>
</a>
</g>
</g>
<!-- Node11&#45;&gt;Node14 -->
<g id="edge16" class="edge">
<title>Node11&#45;&gt;Node14</title>
<path fill="none" stroke="midnightblue" d="M423.7,-1232.79C337.67,-1240.65 207.04,-1252.58 131.24,-1259.5"/>
<polygon fill="midnightblue" stroke="midnightblue" points="424.06,-1236.27 433.71,-1231.88 423.43,-1229.3 424.06,-1236.27"/>
</g>
<!-- Node18 -->
<g id="node15" class="node">
<title>Node18</title>
<g id="a_node15"><a xlink:href="classv8_1_1internal_1_1BytecodeArray.html#ab169a671be80e1119191565a87334d27" target="_top" xlink:title=" ">
<polygon fill="white" stroke="black" points="176,-1182 176,-1212 326,-1212 326,-1182 176,-1182"/>
<text text-anchor="start" x="184" y="-1200" font-family="Helvetica,sans-Serif" font-size="10.00">v8::internal::BytecodeArray</text>
<text text-anchor="middle" x="251" y="-1189" font-family="Helvetica,sans-Serif" font-size="10.00">::PrintJson</text>
</a>
</g>
</g>
<!-- Node11&#45;&gt;Node18 -->
<g id="edge14" class="edge">
<title>Node11&#45;&gt;Node18</title>
<path fill="none" stroke="midnightblue" d="M423.87,-1215.73C392.3,-1212.29 356.76,-1208.41 326.23,-1205.09"/>
<polygon fill="midnightblue" stroke="midnightblue" points="423.65,-1219.22 433.97,-1216.83 424.41,-1212.26 423.65,-1219.22"/>
</g>
<!-- Node19 -->
<g id="node16" class="node">
<title>Node19</title>
<g id="a_node16"><a xlink:href="classv8_1_1internal_1_1interpreter_1_1BytecodeArrayIterator.html#a40d5edc9f9f6314280480b6d189793cc" target="_top" xlink:title=" ">
<polygon fill="white" stroke="red" points="185.5,-1121.5 185.5,-1162.5 316.5,-1162.5 316.5,-1121.5 185.5,-1121.5"/>
<text text-anchor="start" x="193.5" y="-1150.5" font-family="Helvetica,sans-Serif" font-size="10.00">v8::internal::interpreter</text>
<text text-anchor="start" x="193.5" y="-1139.5" font-family="Helvetica,sans-Serif" font-size="10.00">::BytecodeArrayIterator</text>
<text text-anchor="middle" x="251" y="-1128.5" font-family="Helvetica,sans-Serif" font-size="10.00">::PrintTo</text>
</a>
</g>
</g>
<!-- Node11&#45;&gt;Node19 -->
<g id="edge15" class="edge">
<title>Node11&#45;&gt;Node19</title>
<path fill="none" stroke="midnightblue" d="M440.6,-1207.34C415.7,-1200.54 387.44,-1192.38 362,-1184 342.49,-1177.57 321.34,-1169.71 302.85,-1162.55"/>
<polygon fill="midnightblue" stroke="midnightblue" points="439.76,-1210.74 450.32,-1209.97 441.59,-1203.98 439.76,-1210.74"/>
</g>
<!-- Node13&#45;&gt;Node14 -->
<g id="edge13" class="edge">
<title>Node13&#45;&gt;Node14</title>
<path fill="none" stroke="midnightblue" d="M179.55,-1280.16C163.57,-1277.93 146.75,-1275.58 131.25,-1273.41"/>
<polygon fill="midnightblue" stroke="midnightblue" points="179.51,-1283.69 189.9,-1281.61 180.48,-1276.76 179.51,-1283.69"/>
</g>
<!-- Node26&#45;&gt;Node11 -->
<g id="edge18" class="edge">
<title>Node26&#45;&gt;Node11</title>
<path fill="none" stroke="midnightblue" d="M684.67,-1194.5C651.84,-1200.26 616.32,-1206.5 586.01,-1211.83"/>
<polygon fill="midnightblue" stroke="midnightblue" points="685.52,-1197.9 694.76,-1192.73 684.31,-1191.01 685.52,-1197.9"/>
</g>
<!-- Node28 -->
<g id="node19" class="node">
<title>Node28</title>
<g id="a_node19"><a xlink:href="classv8_1_1internal_1_1maglev_1_1MaglevGraphBuilder.html#a7c52f7abcda48bc219150c655b3e1c4a" target="_top" xlink:title=" ">
<polygon fill="white" stroke="black" points="432.5,-1122 432.5,-1174 587.5,-1174 587.5,-1122 432.5,-1122"/>
<text text-anchor="start" x="440.5" y="-1162" font-family="Helvetica,sans-Serif" font-size="10.00">v8::internal::maglev</text>
<text text-anchor="start" x="440.5" y="-1151" font-family="Helvetica,sans-Serif" font-size="10.00">::MaglevGraphBuilder</text>
<text text-anchor="start" x="440.5" y="-1140" font-family="Helvetica,sans-Serif" font-size="10.00">::BuildTruncatingInt32Binary</text>
<text text-anchor="middle" x="510" y="-1129" font-family="Helvetica,sans-Serif" font-size="10.00">OperationNodeForToNumber</text>
</a>
</g>
</g>
<!-- Node27&#45;&gt;Node28 -->
<g id="edge20" class="edge">
<title>Node27&#45;&gt;Node28</title>
<path fill="none" stroke="midnightblue" d="M786.14,-625.55C772.99,-724.94 726.91,-1036.72 658,-1107 639.45,-1125.92 612.96,-1136.31 587.57,-1141.96"/>
<polygon fill="midnightblue" stroke="midnightblue" points="789.62,-625.92 787.45,-615.55 782.68,-625.02 789.62,-625.92"/>
</g>
<!-- Node29 -->
<g id="node20" class="node">
<title>Node29</title>
<g id="a_node20"><a xlink:href="namespacev8_1_1internal_1_1anonymous__namespace_02isolate_8cc_03.html#afd6976083718d821121a1edabfd4ca74" target="_top" xlink:title=" ">
<polygon fill="white" stroke="black" points="0,-599.5 0,-640.5 140,-640.5 140,-599.5 0,-599.5"/>
<text text-anchor="start" x="8" y="-628.5" font-family="Helvetica,sans-Serif" font-size="10.00">v8::internal::anonymous</text>
<text text-anchor="start" x="8" y="-617.5" font-family="Helvetica,sans-Serif" font-size="10.00">_namespace{isolate::cc}</text>
<text text-anchor="middle" x="70" y="-606.5" font-family="Helvetica,sans-Serif" font-size="10.00">::CallsCatchMethod</text>
</a>
</g>
</g>
<!-- Node27&#45;&gt;Node29 -->
<g id="edge21" class="edge">
<title>Node27&#45;&gt;Node29</title>
<path fill="none" stroke="midnightblue" d="M786.35,-625.61C774.13,-722.32 731.25,-1018.2 658,-1074 605.67,-1113.86 419.71,-1105.56 362,-1074 182.93,-976.08 97.82,-715.71 76.5,-640.57"/>
<polygon fill="midnightblue" stroke="midnightblue" points="789.83,-625.96 787.59,-615.6 782.89,-625.09 789.83,-625.96"/>
</g>
<!-- Node30 -->
<g id="node21" class="node">
<title>Node30</title>
<g id="a_node21"><a xlink:href="classv8_1_1internal_1_1BreakIterator.html#a1802fa093bf35182f8c0785bdc731c2f" target="_top" xlink:title=" ">
<polygon fill="white" stroke="red" points="438.5,-1034 438.5,-1064 581.5,-1064 581.5,-1034 438.5,-1034"/>
<text text-anchor="start" x="446.5" y="-1052" font-family="Helvetica,sans-Serif" font-size="10.00">v8::internal::BreakIterator</text>
<text text-anchor="middle" x="510" y="-1041" font-family="Helvetica,sans-Serif" font-size="10.00">::GetBreakLocation</text>
</a>
</g>
</g>
<!-- Node27&#45;&gt;Node30 -->
<g id="edge22" class="edge">
<title>Node27&#45;&gt;Node30</title>
<path fill="none" stroke="midnightblue" d="M790.67,-626.35C790.52,-706.21 778.26,-918.44 658,-1024 637.28,-1042.19 608.36,-1049.57 581.65,-1051.99"/>
<polygon fill="midnightblue" stroke="midnightblue" points="794.16,-625.97 790.62,-615.98 787.16,-626 794.16,-625.97"/>
</g>
<!-- Node87 -->
<g id="node22" class="node">
<title>Node87</title>
<g id="a_node22"><a xlink:href="classv8_1_1internal_1_1interpreter_1_1BytecodeArrayIterator.html#aace4863d06041d48fd25ff806094d135" target="_top" xlink:title=" ">
<polygon fill="white" stroke="red" points="440.5,-973.5 440.5,-1014.5 579.5,-1014.5 579.5,-973.5 440.5,-973.5"/>
<text text-anchor="start" x="448.5" y="-1002.5" font-family="Helvetica,sans-Serif" font-size="10.00">v8::internal::interpreter</text>
<text text-anchor="start" x="448.5" y="-991.5" font-family="Helvetica,sans-Serif" font-size="10.00">::BytecodeArrayIterator</text>
<text text-anchor="middle" x="510" y="-980.5" font-family="Helvetica,sans-Serif" font-size="10.00">::GetRegisterListOperand</text>
</a>
</g>
</g>
<!-- Node27&#45;&gt;Node87 -->
<g id="edge23" class="edge">
<title>Node27&#45;&gt;Node87</title>
<path fill="none" stroke="midnightblue" d="M788.69,-625.68C783.92,-696.89 761.66,-874.12 658,-964 636.55,-982.6 606.72,-990.8 579.53,-994.08"/>
<polygon fill="midnightblue" stroke="midnightblue" points="792.2,-625.77 789.3,-615.58 785.21,-625.35 792.2,-625.77"/>
</g>
<!-- Node89 -->
<g id="node23" class="node">
<title>Node89</title>
<g id="a_node23"><a xlink:href="classv8_1_1internal_1_1interpreter_1_1BytecodeArrayIterator.html#a8ea9c6e7e31d397abfe4b0f2f86446ba" target="_top" xlink:title=" ">
<polygon fill="white" stroke="red" points="440,-913.5 440,-954.5 580,-954.5 580,-913.5 440,-913.5"/>
<text text-anchor="start" x="448" y="-942.5" font-family="Helvetica,sans-Serif" font-size="10.00">v8::internal::interpreter</text>
<text text-anchor="start" x="448" y="-931.5" font-family="Helvetica,sans-Serif" font-size="10.00">::BytecodeArrayIterator</text>
<text text-anchor="middle" x="510" y="-920.5" font-family="Helvetica,sans-Serif" font-size="10.00">::GetRegisterPairOperand</text>
</a>
</g>
</g>
<!-- Node27&#45;&gt;Node89 -->
<g id="edge24" class="edge">
<title>Node27&#45;&gt;Node89</title>
<path fill="none" stroke="midnightblue" d="M786.41,-625.6C777.3,-688.51 747.32,-832.54 658,-905 636.28,-922.62 606.88,-930.55 580.08,-933.83"/>
<polygon fill="midnightblue" stroke="midnightblue" points="789.9,-625.91 787.78,-615.52 782.96,-624.96 789.9,-625.91"/>
</g>
<!-- Node91 -->
<g id="node24" class="node">
<title>Node91</title>
<g id="a_node24"><a xlink:href="structv8_1_1internal_1_1maglev_1_1anonymous__namespace_02maglev-graph-builder_8cc_03_1_1GetResul11d2848f834255c65bbbe8c8aaedb0e3.html#ab16fd53f6b314a33623910521decbd9e" target="_top" xlink:title=" ">
<polygon fill="white" stroke="black" points="375,-821 375,-895 645,-895 645,-821 375,-821"/>
<text text-anchor="start" x="383" y="-883" font-family="Helvetica,sans-Serif" font-size="10.00">v8::internal::maglev</text>
<text text-anchor="start" x="383" y="-872" font-family="Helvetica,sans-Serif" font-size="10.00">::anonymous_namespace</text>
<text text-anchor="start" x="383" y="-861" font-family="Helvetica,sans-Serif" font-size="10.00">{maglev&#45;graph&#45;builder.cc}</text>
<text text-anchor="start" x="383" y="-850" font-family="Helvetica,sans-Serif" font-size="10.00">::GetResultLocationAndSizeHelper</text>
<text text-anchor="start" x="383" y="-839" font-family="Helvetica,sans-Serif" font-size="10.00">&lt; index, interpreter::OperandType</text>
<text text-anchor="middle" x="510" y="-828" font-family="Helvetica,sans-Serif" font-size="10.00">::kRegOut, operands... &gt;::GetResultLocationAndSize</text>
</a>
</g>
</g>
<!-- Node27&#45;&gt;Node91 -->
<g id="edge25" class="edge">
<title>Node27&#45;&gt;Node91</title>
<path fill="none" stroke="midnightblue" d="M779.58,-625.33C761.94,-672.24 721.75,-762.14 658,-812 653.89,-815.21 649.56,-818.2 645.05,-820.99"/>
<polygon fill="midnightblue" stroke="midnightblue" points="782.94,-626.33 783.1,-615.74 776.37,-623.92 782.94,-626.33"/>
</g>
<!-- Node92 -->
<g id="node25" class="node">
<title>Node92</title>
<g id="a_node25"><a xlink:href="structv8_1_1internal_1_1maglev_1_1anonymous__namespace_02maglev-graph-builder_8cc_03_1_1GetResul0669f56c7b5e1bd94f29b03b890ecda2.html#a130f29d832f09a3226351d2f1d05c604" target="_top" xlink:title=" ">
<polygon fill="white" stroke="black" points="366,-728 366,-802 654,-802 654,-728 366,-728"/>
<text text-anchor="start" x="374" y="-790" font-family="Helvetica,sans-Serif" font-size="10.00">v8::internal::maglev</text>
<text text-anchor="start" x="374" y="-779" font-family="Helvetica,sans-Serif" font-size="10.00">::anonymous_namespace</text>
<text text-anchor="start" x="374" y="-768" font-family="Helvetica,sans-Serif" font-size="10.00">{maglev&#45;graph&#45;builder.cc}</text>
<text text-anchor="start" x="374" y="-757" font-family="Helvetica,sans-Serif" font-size="10.00">::GetResultLocationAndSizeHelper</text>
<text text-anchor="start" x="374" y="-746" font-family="Helvetica,sans-Serif" font-size="10.00">&lt; index, interpreter::OperandType</text>
<text text-anchor="middle" x="510" y="-735" font-family="Helvetica,sans-Serif" font-size="10.00">::kRegOutPair, operands... &gt;::GetResultLocationAndSize</text>
</a>
</g>
</g>
<!-- Node27&#45;&gt;Node92 -->
<g id="edge26" class="edge">
<title>Node27&#45;&gt;Node92</title>
<path fill="none" stroke="midnightblue" d="M766.65,-623.43C742.24,-651.43 701.49,-693.59 658,-719 652.57,-722.17 646.91,-725.15 641.08,-727.94"/>
<polygon fill="midnightblue" stroke="midnightblue" points="769.53,-625.45 773.38,-615.58 764.21,-620.89 769.53,-625.45"/>
</g>
<!-- Node93 -->
<g id="node26" class="node">
<title>Node93</title>
<g id="a_node26"><a xlink:href="structv8_1_1internal_1_1maglev_1_1anonymous__namespace_02maglev-graph-builder_8cc_03_1_1GetResul835ee3a845253f5e1b746ba8a409f521.html#aeaa597c6ae8bebd00cdc205f0ee61a53" target="_top" xlink:title=" ">
<polygon fill="white" stroke="black" points="362,-635 362,-709 658,-709 658,-635 362,-635"/>
<text text-anchor="start" x="370" y="-697" font-family="Helvetica,sans-Serif" font-size="10.00">v8::internal::maglev</text>
<text text-anchor="start" x="370" y="-686" font-family="Helvetica,sans-Serif" font-size="10.00">::anonymous_namespace</text>
<text text-anchor="start" x="370" y="-675" font-family="Helvetica,sans-Serif" font-size="10.00">{maglev&#45;graph&#45;builder.cc}</text>
<text text-anchor="start" x="370" y="-664" font-family="Helvetica,sans-Serif" font-size="10.00">::GetResultLocationAndSizeHelper</text>
<text text-anchor="start" x="370" y="-653" font-family="Helvetica,sans-Serif" font-size="10.00">&lt; index, interpreter::OperandType</text>
<text text-anchor="middle" x="510" y="-642" font-family="Helvetica,sans-Serif" font-size="10.00">::kRegOutTriple, operands... &gt;::GetResultLocationAndSize</text>
</a>
</g>
</g>
<!-- Node27&#45;&gt;Node93 -->
<g id="edge27" class="edge">
<title>Node27&#45;&gt;Node93</title>
<path fill="none" stroke="midnightblue" d="M715.52,-615.55C693.83,-621.54 669.43,-628.28 645.24,-634.95"/>
<polygon fill="midnightblue" stroke="midnightblue" points="716.58,-618.89 725.29,-612.86 714.72,-612.15 716.58,-618.89"/>
</g>
<!-- Node94 -->
<g id="node27" class="node">
<title>Node94</title>
<g id="a_node27"><a xlink:href="classv8_1_1internal_1_1interpreter_1_1BytecodeArrayIterator.html#a119b99fa562ca398d6020bd79b4850a2" target="_top" xlink:title=" ">
<polygon fill="white" stroke="black" points="444.5,-574.5 444.5,-615.5 575.5,-615.5 575.5,-574.5 444.5,-574.5"/>
<text text-anchor="start" x="452.5" y="-603.5" font-family="Helvetica,sans-Serif" font-size="10.00">v8::internal::interpreter</text>
<text text-anchor="start" x="452.5" y="-592.5" font-family="Helvetica,sans-Serif" font-size="10.00">::BytecodeArrayIterator</text>
<text text-anchor="middle" x="510" y="-581.5" font-family="Helvetica,sans-Serif" font-size="10.00">::GetStarTargetRegister</text>
</a>
</g>
</g>
<!-- Node27&#45;&gt;Node94 -->
<g id="edge28" class="edge">
<title>Node27&#45;&gt;Node94</title>
<path fill="none" stroke="midnightblue" d="M715.06,-595C671.61,-595 617.45,-595 575.84,-595"/>
<polygon fill="midnightblue" stroke="midnightblue" points="715.29,-598.5 725.29,-595 715.29,-591.5 715.29,-598.5"/>
</g>
<!-- Node95 -->
<g id="node28" class="node">
<title>Node95</title>
<g id="a_node28"><a xlink:href="namespacev8_1_1internal_1_1anonymous__namespace_02isolate_8cc_03.html#a267416289d48106f86e9934905bd1ece" target="_top" xlink:title=" ">
<polygon fill="white" stroke="black" points="181,-550.5 181,-591.5 321,-591.5 321,-550.5 181,-550.5"/>
<text text-anchor="start" x="189" y="-579.5" font-family="Helvetica,sans-Serif" font-size="10.00">v8::internal::anonymous</text>
<text text-anchor="start" x="189" y="-568.5" font-family="Helvetica,sans-Serif" font-size="10.00">_namespace{isolate::cc}</text>
<text text-anchor="middle" x="251" y="-557.5" font-family="Helvetica,sans-Serif" font-size="10.00">::TouchesRegister</text>
</a>
</g>
</g>
<!-- Node27&#45;&gt;Node95 -->
<g id="edge34" class="edge">
<title>Node27&#45;&gt;Node95</title>
<path fill="none" stroke="midnightblue" d="M715.47,-575.01C696.84,-570.86 676.81,-567.11 658,-565 540.31,-551.79 402.24,-558.51 321.22,-564.68"/>
<polygon fill="midnightblue" stroke="midnightblue" points="714.84,-578.46 725.37,-577.28 716.4,-571.63 714.84,-578.46"/>
</g>
<!-- Node96 -->
<g id="node29" class="node">
<title>Node96</title>
<g id="a_node29"><a xlink:href="classv8_1_1internal_1_1Debug.html#aa1da4ff25228851107f81ef494b15746" target="_top" xlink:title=" ">
<polygon fill="white" stroke="black" points="434.5,-476.5 434.5,-517.5 585.5,-517.5 585.5,-476.5 434.5,-476.5"/>
<text text-anchor="start" x="442.5" y="-505.5" font-family="Helvetica,sans-Serif" font-size="10.00">v8::internal::Debug</text>
<text text-anchor="start" x="442.5" y="-494.5" font-family="Helvetica,sans-Serif" font-size="10.00">::PerformSideEffectCheckAt</text>
<text text-anchor="middle" x="510" y="-483.5" font-family="Helvetica,sans-Serif" font-size="10.00">Bytecode</text>
</a>
</g>
</g>
<!-- Node27&#45;&gt;Node96 -->
<g id="edge32" class="edge">
<title>Node27&#45;&gt;Node96</title>
<path fill="none" stroke="midnightblue" d="M743.33,-569.74C718.52,-557.09 687.19,-542.31 658,-532 634.87,-523.83 609.03,-516.96 585.54,-511.53"/>
<polygon fill="midnightblue" stroke="midnightblue" points="742,-573 752.5,-574.47 745.21,-566.78 742,-573"/>
</g>
<!-- Node97 -->
<g id="node30" class="node">
<title>Node97</title>
<g id="a_node30"><a xlink:href="classv8_1_1internal_1_1baseline_1_1BaselineCompiler.html#aedaf8a92f8e15b514d4bd7eed5b5790c" target="_top" xlink:title=" ">
<polygon fill="white" stroke="red" points="432.5,-416.5 432.5,-457.5 587.5,-457.5 587.5,-416.5 432.5,-416.5"/>
<text text-anchor="start" x="440.5" y="-445.5" font-family="Helvetica,sans-Serif" font-size="10.00">v8::internal::baseline</text>
<text text-anchor="start" x="440.5" y="-434.5" font-family="Helvetica,sans-Serif" font-size="10.00">::BaselineCompiler::Register</text>
<text text-anchor="middle" x="510" y="-423.5" font-family="Helvetica,sans-Serif" font-size="10.00">Operand</text>
</a>
</g>
</g>
<!-- Node27&#45;&gt;Node97 -->
<g id="edge33" class="edge">
<title>Node27&#45;&gt;Node97</title>
<path fill="none" stroke="midnightblue" d="M768.88,-566.55C745.26,-536.88 704.19,-491.38 658,-467 636.58,-455.69 611.32,-448.64 587.84,-444.25"/>
<polygon fill="midnightblue" stroke="midnightblue" points="766.16,-568.74 775.07,-574.47 771.67,-564.43 766.16,-568.74"/>
</g>
<!-- Node101 -->
<g id="node31" class="node">
<title>Node101</title>
<g id="a_node31"><a xlink:href="namespacev8_1_1internal_1_1compiler_1_1anonymous__namespace_02bytecode-analysis_8cc_03.html#a16671b3fcd3f0b163f1c5da93573b1d7" target="_top" xlink:title=" ">
<polygon fill="white" stroke="red" points="439.5,-345 439.5,-397 580.5,-397 580.5,-345 439.5,-345"/>
<text text-anchor="start" x="447.5" y="-385" font-family="Helvetica,sans-Serif" font-size="10.00">v8::internal::compiler</text>
<text text-anchor="start" x="447.5" y="-374" font-family="Helvetica,sans-Serif" font-size="10.00">::anonymous_namespace</text>
<text text-anchor="start" x="447.5" y="-363" font-family="Helvetica,sans-Serif" font-size="10.00">{bytecode&#45;analysis::cc}</text>
<text text-anchor="middle" x="510" y="-352" font-family="Helvetica,sans-Serif" font-size="10.00">::UpdateAssignments</text>
</a>
</g>
</g>
<!-- Node27&#45;&gt;Node101 -->
<g id="edge35" class="edge">
<title>Node27&#45;&gt;Node101</title>
<path fill="none" stroke="midnightblue" d="M777.37,-565.17C758.02,-523.19 716.96,-447.28 658,-407 635.33,-391.51 606.67,-382.67 580.69,-377.63"/>
<polygon fill="midnightblue" stroke="midnightblue" points="774.2,-566.66 781.5,-574.34 780.58,-563.78 774.2,-566.66"/>
</g>
<!-- Node102 -->
<g id="node32" class="node">
<title>Node102</title>
<g id="a_node32"><a xlink:href="namespacev8_1_1internal_1_1compiler_1_1anonymous__namespace_02bytecode-analysis_8cc_03.html#a066865ebe0c816fd38b5eb8bb99ca271" target="_top" xlink:title=" ">
<polygon fill="white" stroke="black" points="439.5,-274 439.5,-326 580.5,-326 580.5,-274 439.5,-274"/>
<text text-anchor="start" x="447.5" y="-314" font-family="Helvetica,sans-Serif" font-size="10.00">v8::internal::compiler</text>
<text text-anchor="start" x="447.5" y="-303" font-family="Helvetica,sans-Serif" font-size="10.00">::anonymous_namespace</text>
<text text-anchor="start" x="447.5" y="-292" font-family="Helvetica,sans-Serif" font-size="10.00">{bytecode&#45;analysis::cc}</text>
<text text-anchor="middle" x="510" y="-281" font-family="Helvetica,sans-Serif" font-size="10.00">::UpdateInLiveness</text>
</a>
</g>
</g>
<!-- Node27&#45;&gt;Node102 -->
<g id="edge36" class="edge">
<title>Node27&#45;&gt;Node102</title>
<path fill="none" stroke="midnightblue" d="M783.34,-564.71C769.74,-510.21 733.45,-395.75 658,-336 636.17,-318.71 607.21,-309.56 580.77,-304.79"/>
<polygon fill="midnightblue" stroke="midnightblue" points="779.95,-565.57 785.7,-574.47 786.76,-563.93 779.95,-565.57"/>
</g>
<!-- Node103 -->
<g id="node33" class="node">
<title>Node103</title>
<g id="a_node33"><a xlink:href="namespacev8_1_1internal_1_1compiler_1_1anonymous__namespace_02bytecode-analysis_8cc_03.html#a0d3343b43b27fed979fde7c412159b3b" target="_top" xlink:title=" ">
<polygon fill="white" stroke="black" points="422.5,-203 422.5,-255 597.5,-255 597.5,-203 422.5,-203"/>
<text text-anchor="start" x="430.5" y="-243" font-family="Helvetica,sans-Serif" font-size="10.00">v8::internal::compiler</text>
<text text-anchor="start" x="430.5" y="-232" font-family="Helvetica,sans-Serif" font-size="10.00">::anonymous_namespace</text>
<text text-anchor="start" x="430.5" y="-221" font-family="Helvetica,sans-Serif" font-size="10.00">{bytecode&#45;analysis::cc}</text>
<text text-anchor="middle" x="510" y="-210" font-family="Helvetica,sans-Serif" font-size="10.00">::UpdateInLivenessForInOperand</text>
</a>
</g>
</g>
<!-- Node27&#45;&gt;Node103 -->
<g id="edge37" class="edge">
<title>Node27&#45;&gt;Node103</title>
<path fill="none" stroke="midnightblue" d="M786.94,-564.18C778.75,-498.68 750.23,-345.11 658,-265 641.14,-250.35 619.27,-241.46 597.58,-236.12"/>
<polygon fill="midnightblue" stroke="midnightblue" points="783.49,-564.74 788.13,-574.27 790.44,-563.93 783.49,-564.74"/>
</g>
<!-- Node104 -->
<g id="node34" class="node">
<title>Node104</title>
<g id="a_node34"><a xlink:href="namespacev8_1_1internal_1_1compiler_1_1anonymous__namespace_02bytecode-analysis_8cc_03.html#a06504de747474dba3e4019606bc6156c" target="_top" xlink:title=" ">
<polygon fill="white" stroke="black" points="418.5,-132 418.5,-184 601.5,-184 601.5,-132 418.5,-132"/>
<text text-anchor="start" x="426.5" y="-172" font-family="Helvetica,sans-Serif" font-size="10.00">v8::internal::compiler</text>
<text text-anchor="start" x="426.5" y="-161" font-family="Helvetica,sans-Serif" font-size="10.00">::anonymous_namespace</text>
<text text-anchor="start" x="426.5" y="-150" font-family="Helvetica,sans-Serif" font-size="10.00">{bytecode&#45;analysis::cc}</text>
<text text-anchor="middle" x="510" y="-139" font-family="Helvetica,sans-Serif" font-size="10.00">::UpdateInLivenessForOutOperand</text>
</a>
</g>
</g>
<!-- Node27&#45;&gt;Node104 -->
<g id="edge38" class="edge">
<title>Node27&#45;&gt;Node104</title>
<path fill="none" stroke="midnightblue" d="M789.44,-564.09C786.32,-488.92 767.49,-295.28 658,-194 642.47,-179.64 622.18,-170.75 601.64,-165.31"/>
<polygon fill="midnightblue" stroke="midnightblue" points="785.95,-564.43 789.79,-574.3 792.94,-564.18 785.95,-564.43"/>
</g>
<!-- Node105 -->
<g id="node35" class="node">
<title>Node105</title>
<g id="a_node35"><a xlink:href="namespacev8_1_1internal_1_1compiler_1_1anonymous__namespace_02bytecode-analysis_8cc_03.html#a3a4c1269aecbf276369cd5a68e5590e8" target="_top" xlink:title=" ">
<polygon fill="white" stroke="black" points="439.5,-61 439.5,-113 580.5,-113 580.5,-61 439.5,-61"/>
<text text-anchor="start" x="447.5" y="-101" font-family="Helvetica,sans-Serif" font-size="10.00">v8::internal::compiler</text>
<text text-anchor="start" x="447.5" y="-90" font-family="Helvetica,sans-Serif" font-size="10.00">::anonymous_namespace</text>
<text text-anchor="start" x="447.5" y="-79" font-family="Helvetica,sans-Serif" font-size="10.00">{bytecode&#45;analysis::cc}</text>
<text text-anchor="middle" x="510" y="-68" font-family="Helvetica,sans-Serif" font-size="10.00">::UpdateOutLiveness</text>
</a>
</g>
</g>
<!-- Node27&#45;&gt;Node105 -->
<g id="edge39" class="edge">
<title>Node27&#45;&gt;Node105</title>
<path fill="none" stroke="midnightblue" d="M785.5,-564.27C771.05,-469.75 722.98,-185.9 658,-123 637.52,-103.17 607.99,-93.68 580.77,-89.33"/>
<polygon fill="midnightblue" stroke="midnightblue" points="782.07,-564.97 787.02,-574.33 788.99,-563.92 782.07,-564.97"/>
</g>
<!-- Node106 -->
<g id="node36" class="node">
<title>Node106</title>
<g id="a_node36"><a xlink:href="classv8_1_1internal_1_1maglev_1_1MaglevGraphBuilder.html#abf39422f5fce704f52c884613fd7b501" target="_top" xlink:title=" ">
<polygon fill="white" stroke="black" points="441.5,-0.5 441.5,-41.5 578.5,-41.5 578.5,-0.5 441.5,-0.5"/>
<text text-anchor="start" x="449.5" y="-29.5" font-family="Helvetica,sans-Serif" font-size="10.00">v8::internal::maglev</text>
<text text-anchor="start" x="449.5" y="-18.5" font-family="Helvetica,sans-Serif" font-size="10.00">::MaglevGraphBuilder</text>
<text text-anchor="middle" x="510" y="-7.5" font-family="Helvetica,sans-Serif" font-size="10.00">::VisitCompareOperation</text>
</a>
</g>
</g>
<!-- Node27&#45;&gt;Node106 -->
<g id="edge40" class="edge">
<title>Node27&#45;&gt;Node106</title>
<path fill="none" stroke="midnightblue" d="M786.79,-564.17C775.33,-460.18 733.08,-124.82 658,-52 637.12,-31.75 606.55,-23.26 578.68,-20.13"/>
<polygon fill="midnightblue" stroke="midnightblue" points="783.33,-564.75 787.89,-574.32 790.29,-564 783.33,-564.75"/>
</g>
<!-- Node94&#45;&gt;Node29 -->
<g id="edge29" class="edge">
<title>Node94&#45;&gt;Node29</title>
<path fill="none" stroke="midnightblue" d="M434.33,-599.26C351.93,-603.97 220.39,-611.47 140.24,-616.05"/>
<polygon fill="midnightblue" stroke="midnightblue" points="434.59,-602.75 444.37,-598.69 434.19,-595.76 434.59,-602.75"/>
</g>
<!-- Node94&#45;&gt;Node95 -->
<g id="edge30" class="edge">
<title>Node94&#45;&gt;Node95</title>
<path fill="none" stroke="midnightblue" d="M434.12,-588.01C398.41,-584.67 355.97,-580.71 321.05,-577.45"/>
<polygon fill="midnightblue" stroke="midnightblue" points="434.2,-591.53 444.48,-588.97 434.85,-584.56 434.2,-591.53"/>
</g>
<!-- Node95&#45;&gt;Node29 -->
<g id="edge31" class="edge">
<title>Node95&#45;&gt;Node29</title>
<path fill="none" stroke="midnightblue" d="M170.98,-592.63C160.66,-595.46 150.16,-598.33 140.02,-601.11"/>
<polygon fill="midnightblue" stroke="midnightblue" points="172.07,-595.96 180.79,-589.94 170.22,-589.21 172.07,-595.96"/>
</g>
</g>
</svg>
        <g id="navigator" transform="translate(0 0)" fill="#404254">
                <rect fill="#f2f5e9" fill-opacity="0.5" stroke="#606060" stroke-width=".5" x="0" y="0" width="60" height="60"/>
                <use id="zoomplus" xlink:href="#zoomPlus" x="17" y="9" onmousedown="handleZoom(evt,'in')"/>
                <use id="zoomminus" xlink:href="#zoomMin" x="42" y="9" onmousedown="handleZoom(evt,'out')"/>
                <use id="reset" xlink:href="#resetDef" x="30" y="36" onmousedown="handleReset()"/>
                <g id="arrowUp" xlink:href="#dirArrow" transform="translate(30 24)" onmousedown="handlePan(0,-1)">
                  <use xlink:href="#rim" fill="#404040">
                        <set attributeName="fill" to="#808080" begin="arrowUp.mouseover" end="arrowUp.mouseout"/>
                  </use>
                  <path fill="none" stroke="white" stroke-width="1.5" d="M0,-3.0v7 M-2.5,-0.5L0,-3.0L2.5,-0.5"/>
                </g>
                <g id="arrowRight" xlink:href="#dirArrow" transform="rotate(90) translate(36 -43)" onmousedown="handlePan(1,0)">
                  <use xlink:href="#rim" fill="#404040">
                        <set attributeName="fill" to="#808080" begin="arrowRight.mouseover" end="arrowRight.mouseout"/>
                  </use>
                  <path fill="none" stroke="white" stroke-width="1.5" d="M0,-3.0v7 M-2.5,-0.5L0,-3.0L2.5,-0.5"/>
                </g>
                <g id="arrowDown" xlink:href="#dirArrow" transform="rotate(180) translate(-30 -48)" onmousedown="handlePan(0,1)">
                  <use xlink:href="#rim" fill="#404040">
                        <set attributeName="fill" to="#808080" begin="arrowDown.mouseover" end="arrowDown.mouseout"/>
                  </use>
                  <path fill="none" stroke="white" stroke-width="1.5" d="M0,-3.0v7 M-2.5,-0.5L0,-3.0L2.5,-0.5"/>
                </g>
                <g id="arrowLeft" xlink:href="#dirArrow" transform="rotate(270) translate(-36 17)" onmousedown="handlePan(-1,0)">
                  <use xlink:href="#rim" fill="#404040">
                        <set attributeName="fill" to="#808080" begin="arrowLeft.mouseover" end="arrowLeft.mouseout"/>
                  </use>
                  <path fill="none" stroke="white" stroke-width="1.5" d="M0,-3.0v7 M-2.5,-0.5L0,-3.0L2.5,-0.5"/>
                </g>
        </g>
        <svg viewBox="0 0 15 15" width="100%" height="30px" preserveAspectRatio="xMaxYMin meet">
         <g id="arrow_out" transform="scale(0.3 0.3)">
          <a xlink:href="classv8_1_1internal_1_1interpreter_1_1Bytecodes_a7d3c91ed23038a19976d8af9da043f51_icgraph_org.svg" target="_base">
           <rect id="button" ry="5" rx="5" y="6" x="6" height="38" width="38"
                fill="#f2f5e9" fill-opacity="0.5" stroke="#606060" stroke-width="1.0"/>
           <path id="arrow"
             d="M 11.500037,31.436501 C 11.940474,20.09759 22.043105,11.32322 32.158766,21.979434 L 37.068811,17.246167 C 37.068811,17.246167 37.088388,32 37.088388,32 L 22.160133,31.978069 C 22.160133,31.978069 26.997745,27.140456 26.997745,27.140456 C 18.528582,18.264221 13.291696,25.230495 11.500037,31.436501 z"
             style="fill:#404040;"/>
          </a>
         </g>
        </svg>
</svg>
