<?xml version="1.0" encoding="UTF-8" standalone="no"?>
<!DOCTYPE svg PUBLIC "-//W3C//DTD SVG 1.1//EN"
 "http://www.w3.org/Graphics/SVG/1.1/DTD/svg11.dtd">
<!-- Generated by graphviz version 2.43.0 (0)
 -->
<!-- Title: v8::internal::Isolate::GetDetailedStackTrace Pages: 1 -->
<svg width="741pt" height="199pt"
 viewBox="0.00 0.00 741.00 199.00" xmlns="http://www.w3.org/2000/svg" xmlns:xlink="http://www.w3.org/1999/xlink">
<g id="graph0" class="graph" transform="scale(1 1) rotate(0) translate(4 195)">
<title>v8::internal::Isolate::GetDetailedStackTrace</title>
<polygon fill="white" stroke="transparent" points="-4,4 -4,-195 737,-195 737,4 -4,4"/>
<!-- Node1 -->
<g id="node1" class="node">
<title>Node1</title>
<g id="a_node1"><a xlink:title=" ">
<polygon fill="#bfbfbf" stroke="black" points="599,-84 599,-114 733,-114 733,-84 599,-84"/>
<text text-anchor="start" x="607" y="-102" font-family="Helvetica,sans-Serif" font-size="10.00">v8::internal::Isolate</text>
<text text-anchor="middle" x="666" y="-91" font-family="Helvetica,sans-Serif" font-size="10.00">::GetDetailedStackTrace</text>
</a>
</g>
</g>
<!-- Node2 -->
<g id="node2" class="node">
<title>Node2</title>
<g id="a_node2"><a xlink:href="classv8_1_1internal_1_1Isolate.html#a2ee40f8df62796dd86892895d15acea2" target="_top" xlink:title=" ">
<polygon fill="white" stroke="black" points="389,-149.5 389,-190.5 563,-190.5 563,-149.5 389,-149.5"/>
<text text-anchor="start" x="397" y="-178.5" font-family="Helvetica,sans-Serif" font-size="10.00">v8::internal::Isolate</text>
<text text-anchor="start" x="397" y="-167.5" font-family="Helvetica,sans-Serif" font-size="10.00">::ComputeLocationFromDetailed</text>
<text text-anchor="middle" x="476" y="-156.5" font-family="Helvetica,sans-Serif" font-size="10.00">StackTrace</text>
</a>
</g>
</g>
<!-- Node1&#45;&gt;Node2 -->
<g id="edge1" class="edge">
<title>Node1&#45;&gt;Node2</title>
<path fill="none" stroke="midnightblue" d="M615.53,-117.68C589.68,-127.45 557.98,-139.42 531.43,-149.44"/>
<polygon fill="midnightblue" stroke="midnightblue" points="617.01,-120.86 625.13,-114.06 614.54,-114.32 617.01,-120.86"/>
</g>
<!-- Node3 -->
<g id="node3" class="node">
<title>Node3</title>
<g id="a_node3"><a xlink:href="classv8_1_1internal_1_1Isolate.html#a7ac64567b7738e472a8a1866fb2c0e45" target="_top" xlink:title=" ">
<polygon fill="white" stroke="black" points="182,-155 182,-185 353,-185 353,-155 182,-155"/>
<text text-anchor="start" x="190" y="-173" font-family="Helvetica,sans-Serif" font-size="10.00">v8::internal::Isolate</text>
<text text-anchor="middle" x="267.5" y="-162" font-family="Helvetica,sans-Serif" font-size="10.00">::CreateMessageFromException</text>
</a>
</g>
</g>
<!-- Node1&#45;&gt;Node3 -->
<g id="edge10" class="edge">
<title>Node1&#45;&gt;Node3</title>
<path fill="none" stroke="midnightblue" d="M588.76,-108.31C533.15,-115.59 456.1,-126.7 389,-140 367.64,-144.23 344.38,-149.8 324.04,-154.98"/>
<polygon fill="midnightblue" stroke="midnightblue" points="589.42,-111.76 598.89,-107 588.52,-104.81 589.42,-111.76"/>
</g>
<!-- Node7 -->
<g id="node5" class="node">
<title>Node7</title>
<g id="a_node5"><a xlink:href="classv8_1_1internal_1_1Isolate.html#a49dd507dae45924de46eae4d728914e8" target="_top" xlink:title=" ">
<polygon fill="white" stroke="black" points="420.5,-62 420.5,-92 531.5,-92 531.5,-62 420.5,-62"/>
<text text-anchor="start" x="428.5" y="-80" font-family="Helvetica,sans-Serif" font-size="10.00">v8::internal::Isolate</text>
<text text-anchor="middle" x="476" y="-69" font-family="Helvetica,sans-Serif" font-size="10.00">::CreateMessage</text>
</a>
</g>
</g>
<!-- Node1&#45;&gt;Node7 -->
<g id="edge4" class="edge">
<title>Node1&#45;&gt;Node7</title>
<path fill="none" stroke="midnightblue" d="M588.79,-90.08C569.66,-87.84 549.51,-85.49 531.67,-83.4"/>
<polygon fill="midnightblue" stroke="midnightblue" points="588.64,-93.59 598.98,-91.27 589.46,-86.64 588.64,-93.59"/>
</g>
<!-- Node1617 -->
<g id="node11" class="node">
<title>Node1617</title>
<g id="a_node11"><a xlink:href="classv8_1_1Exception.html#a62caf8be647c85c2c7283e03be80f92c" target="_top" xlink:title="Returns the original stack trace that was captured at the creation time of a given exception,...">
<polygon fill="white" stroke="black" points="397,-18.5 397,-37.5 555,-37.5 555,-18.5 397,-18.5"/>
<text text-anchor="middle" x="476" y="-25.5" font-family="Helvetica,sans-Serif" font-size="10.00">v8::Exception::GetStackTrace</text>
</a>
</g>
</g>
<!-- Node1&#45;&gt;Node1617 -->
<g id="edge11" class="edge">
<title>Node1&#45;&gt;Node1617</title>
<path fill="none" stroke="midnightblue" d="M625.57,-79.65C606.87,-70.88 584.05,-60.76 563,-53 547.24,-47.19 529.48,-41.83 514.2,-37.58"/>
<polygon fill="midnightblue" stroke="midnightblue" points="624.13,-82.85 634.67,-83.97 627.13,-76.52 624.13,-82.85"/>
</g>
<!-- Node2&#45;&gt;Node3 -->
<g id="edge2" class="edge">
<title>Node2&#45;&gt;Node3</title>
<path fill="none" stroke="midnightblue" d="M378.87,-170C370.27,-170 361.61,-170 353.11,-170"/>
<polygon fill="midnightblue" stroke="midnightblue" points="378.92,-173.5 388.92,-170 378.92,-166.5 378.92,-173.5"/>
</g>
<!-- Node4 -->
<g id="node4" class="node">
<title>Node4</title>
<g id="a_node4"><a xlink:href="namespacev8_1_1debug.html#ae772dcd539310f6f78135af6c4b6ff7f" target="_top" xlink:title=" ">
<polygon fill="white" stroke="red" points="0,-158 0,-188 146,-188 146,-158 0,-158"/>
<text text-anchor="start" x="8" y="-176" font-family="Helvetica,sans-Serif" font-size="10.00">v8::debug::CreateMessage</text>
<text text-anchor="middle" x="73" y="-165" font-family="Helvetica,sans-Serif" font-size="10.00">FromException</text>
</a>
</g>
</g>
<!-- Node3&#45;&gt;Node4 -->
<g id="edge3" class="edge">
<title>Node3&#45;&gt;Node4</title>
<path fill="none" stroke="midnightblue" d="M171.7,-171.48C163.09,-171.61 154.47,-171.75 146.1,-171.88"/>
<polygon fill="midnightblue" stroke="midnightblue" points="171.84,-174.98 181.79,-171.32 171.73,-167.98 171.84,-174.98"/>
</g>
<!-- Node8 -->
<g id="node6" class="node">
<title>Node8</title>
<g id="a_node6"><a xlink:href="classv8_1_1Exception.html#a05bdd41395488f34482eadaafc70b6cb" target="_top" xlink:title="Creates an error message for the given exception.">
<polygon fill="white" stroke="black" points="185.5,-114.5 185.5,-133.5 349.5,-133.5 349.5,-114.5 185.5,-114.5"/>
<text text-anchor="middle" x="267.5" y="-121.5" font-family="Helvetica,sans-Serif" font-size="10.00">v8::Exception::CreateMessage</text>
</a>
</g>
</g>
<!-- Node7&#45;&gt;Node8 -->
<g id="edge5" class="edge">
<title>Node7&#45;&gt;Node8</title>
<path fill="none" stroke="midnightblue" d="M410.57,-91.67C377.96,-99.09 339.3,-107.89 310.55,-114.43"/>
<polygon fill="midnightblue" stroke="midnightblue" points="411.5,-95.04 420.47,-89.41 409.95,-88.22 411.5,-95.04"/>
</g>
<!-- Node10 -->
<g id="node8" class="node">
<title>Node10</title>
<g id="a_node8"><a xlink:href="classv8_1_1internal_1_1Isolate.html#a422d2bfc60912499bf3854870e4f7b12" target="_top" xlink:title=" ">
<polygon fill="white" stroke="black" points="199.5,-61 199.5,-91 335.5,-91 335.5,-61 199.5,-61"/>
<text text-anchor="start" x="207.5" y="-79" font-family="Helvetica,sans-Serif" font-size="10.00">v8::internal::Isolate</text>
<text text-anchor="middle" x="267.5" y="-68" font-family="Helvetica,sans-Serif" font-size="10.00">::CreateMessageOrAbort</text>
</a>
</g>
</g>
<!-- Node7&#45;&gt;Node10 -->
<g id="edge7" class="edge">
<title>Node7&#45;&gt;Node10</title>
<path fill="none" stroke="midnightblue" d="M410.47,-76.69C386.63,-76.57 359.57,-76.44 335.51,-76.32"/>
<polygon fill="midnightblue" stroke="midnightblue" points="410.46,-80.19 420.47,-76.74 410.49,-73.19 410.46,-80.19"/>
</g>
<!-- Node9 -->
<g id="node7" class="node">
<title>Node9</title>
<g id="a_node7"><a xlink:href="classv8_1_1Shell.html#abcaa88b75e84e38f76419e6f698a89ae" target="_top" xlink:title=" ">
<polygon fill="white" stroke="black" points="5.5,-109 5.5,-139 140.5,-139 140.5,-109 5.5,-109"/>
<text text-anchor="start" x="13.5" y="-127" font-family="Helvetica,sans-Serif" font-size="10.00">v8::Shell::PromiseReject</text>
<text text-anchor="middle" x="73" y="-116" font-family="Helvetica,sans-Serif" font-size="10.00">Callback</text>
</a>
</g>
</g>
<!-- Node8&#45;&gt;Node9 -->
<g id="edge6" class="edge">
<title>Node8&#45;&gt;Node9</title>
<path fill="none" stroke="midnightblue" d="M175.23,-124C163.6,-124 151.86,-124 140.71,-124"/>
<polygon fill="midnightblue" stroke="midnightblue" points="175.42,-127.5 185.42,-124 175.42,-120.5 175.42,-127.5"/>
</g>
<!-- Node11 -->
<g id="node9" class="node">
<title>Node11</title>
<g id="a_node9"><a xlink:href="namespacev8_1_1internal.html#a633a2c5e7a05a1f697f1320ebb59a48d" target="_top" xlink:title=" ">
<polygon fill="white" stroke="black" points="11,-60 11,-90 135,-90 135,-60 11,-60"/>
<text text-anchor="start" x="19" y="-78" font-family="Helvetica,sans-Serif" font-size="10.00">v8::internal::RUNTIME</text>
<text text-anchor="middle" x="73" y="-67" font-family="Helvetica,sans-Serif" font-size="10.00">_FUNCTION</text>
</a>
</g>
</g>
<!-- Node10&#45;&gt;Node11 -->
<g id="edge8" class="edge">
<title>Node10&#45;&gt;Node11</title>
<path fill="none" stroke="midnightblue" d="M189.24,-75.6C171.2,-75.5 152.24,-75.41 135.02,-75.32"/>
<polygon fill="midnightblue" stroke="midnightblue" points="189.42,-79.1 199.44,-75.65 189.46,-72.1 189.42,-79.1"/>
</g>
<!-- Node12 -->
<g id="node10" class="node">
<title>Node12</title>
<g id="a_node10"><a xlink:href="classv8_1_1internal_1_1Isolate.html#a5819188db3266ad85f50d20a1e254459" target="_top" xlink:title=" ">
<polygon fill="white" stroke="red" points="17.5,-11 17.5,-41 128.5,-41 128.5,-11 17.5,-11"/>
<text text-anchor="start" x="25.5" y="-29" font-family="Helvetica,sans-Serif" font-size="10.00">v8::internal::Isolate</text>
<text text-anchor="middle" x="73" y="-18" font-family="Helvetica,sans-Serif" font-size="10.00">::Throw</text>
</a>
</g>
</g>
<!-- Node10&#45;&gt;Node12 -->
<g id="edge9" class="edge">
<title>Node10&#45;&gt;Node12</title>
<path fill="none" stroke="midnightblue" d="M199.05,-58.48C176.05,-52.51 150.63,-45.9 128.75,-40.22"/>
<polygon fill="midnightblue" stroke="midnightblue" points="198.18,-61.87 208.74,-61 199.94,-55.1 198.18,-61.87"/>
</g>
<!-- Node815 -->
<g id="node12" class="node">
<title>Node815</title>
<g id="a_node12"><a xlink:href="classv8__inspector_1_1InjectedScript_1_1ProtocolPromiseHandler.html#ac778ce3c61c93994e395977b87fffb64" target="_top" xlink:title=" ">
<polygon fill="white" stroke="black" points="191.5,-0.5 191.5,-41.5 343.5,-41.5 343.5,-0.5 191.5,-0.5"/>
<text text-anchor="start" x="199.5" y="-29.5" font-family="Helvetica,sans-Serif" font-size="10.00">v8_inspector::InjectedScript</text>
<text text-anchor="start" x="199.5" y="-18.5" font-family="Helvetica,sans-Serif" font-size="10.00">::ProtocolPromiseHandler</text>
<text text-anchor="middle" x="267.5" y="-7.5" font-family="Helvetica,sans-Serif" font-size="10.00">::catchCallback</text>
</a>
</g>
</g>
<!-- Node1617&#45;&gt;Node815 -->
<g id="edge12" class="edge">
<title>Node1617&#45;&gt;Node815</title>
<path fill="none" stroke="midnightblue" d="M386.59,-25C372.27,-24.52 357.57,-24.02 343.61,-23.55"/>
<polygon fill="midnightblue" stroke="midnightblue" points="386.82,-28.51 396.93,-25.35 387.06,-21.52 386.82,-28.51"/>
</g>
</g>
</svg>
