<?xml version="1.0" encoding="UTF-8" standalone="no"?>
<!DOCTYPE svg PUBLIC "-//W3C//DTD SVG 1.1//EN"
 "http://www.w3.org/Graphics/SVG/1.1/DTD/svg11.dtd">
<!-- Generated by graphviz version 2.43.0 (0)
 -->
<!-- Title: v8::internal::anonymous_namespace{js&#45;date&#45;time&#45;format::cc}::SpecialTimeZoneMap::SpecialTimeZoneMap Pages: 1 -->
<svg width="474pt" height="142pt"
 viewBox="0.00 0.00 474.00 142.00" xmlns="http://www.w3.org/2000/svg" xmlns:xlink="http://www.w3.org/1999/xlink">
<g id="graph0" class="graph" transform="scale(1 1) rotate(0) translate(4 138)">
<title>v8::internal::anonymous_namespace{js&#45;date&#45;time&#45;format::cc}::SpecialTimeZoneMap::SpecialTimeZoneMap</title>
<polygon fill="white" stroke="transparent" points="-4,4 -4,-138 470,-138 470,4 -4,4"/>
<!-- Node1 -->
<g id="node1" class="node">
<title>Node1</title>
<g id="a_node1"><a xlink:title=" ">
<polygon fill="#bfbfbf" stroke="black" points="0,-41 0,-93 188,-93 188,-41 0,-41"/>
<text text-anchor="start" x="8" y="-81" font-family="Helvetica,sans-Serif" font-size="10.00">v8::internal::anonymous</text>
<text text-anchor="start" x="8" y="-70" font-family="Helvetica,sans-Serif" font-size="10.00">_namespace{js&#45;date&#45;time</text>
<text text-anchor="start" x="8" y="-59" font-family="Helvetica,sans-Serif" font-size="10.00">&#45;format::cc}::SpecialTimeZoneMap</text>
<text text-anchor="middle" x="94" y="-48" font-family="Helvetica,sans-Serif" font-size="10.00">::SpecialTimeZoneMap</text>
</a>
</g>
</g>
<!-- Node2 -->
<g id="node2" class="node">
<title>Node2</title>
<g id="a_node2"><a xlink:href="namespacev8_1_1bigint.html#a6d4d2ce18897aba0f90b3208eca29a5b" target="_top" xlink:title=" ">
<polygon fill="white" stroke="black" points="224,-57.5 224,-76.5 311,-76.5 311,-57.5 224,-57.5"/>
<text text-anchor="middle" x="267.5" y="-64.5" font-family="Helvetica,sans-Serif" font-size="10.00">v8::bigint::Add</text>
</a>
</g>
</g>
<!-- Node1&#45;&gt;Node2 -->
<g id="edge1" class="edge">
<title>Node1&#45;&gt;Node2</title>
<path fill="none" stroke="midnightblue" d="M188.03,-67C196.78,-67 205.42,-67 213.6,-67"/>
<polygon fill="midnightblue" stroke="midnightblue" points="213.68,-70.5 223.68,-67 213.68,-63.5 213.68,-70.5"/>
</g>
<!-- Node3 -->
<g id="node3" class="node">
<title>Node3</title>
<g id="a_node3"><a xlink:href="namespacev8_1_1bigint.html#afb32f55cbb695a68cdfddafc4cb59306" target="_top" xlink:title=" ">
<polygon fill="white" stroke="black" points="347,-114.5 347,-133.5 466,-133.5 466,-114.5 347,-114.5"/>
<text text-anchor="middle" x="406.5" y="-121.5" font-family="Helvetica,sans-Serif" font-size="10.00">v8::bigint::digit_add2</text>
</a>
</g>
</g>
<!-- Node2&#45;&gt;Node3 -->
<g id="edge2" class="edge">
<title>Node2&#45;&gt;Node3</title>
<path fill="none" stroke="midnightblue" d="M286.58,-76.63C302.29,-84.78 325.79,-96.47 347,-105 352.39,-107.17 358.14,-109.28 363.85,-111.25"/>
<polygon fill="midnightblue" stroke="midnightblue" points="362.74,-114.57 373.34,-114.43 364.97,-107.93 362.74,-114.57"/>
</g>
<!-- Node4 -->
<g id="node4" class="node">
<title>Node4</title>
<g id="a_node4"><a xlink:href="namespacev8_1_1bigint.html#a7c3c6ce0c415265af39ab35c25f27f17" target="_top" xlink:title=" ">
<polygon fill="white" stroke="black" points="347,-76.5 347,-95.5 466,-95.5 466,-76.5 347,-76.5"/>
<text text-anchor="middle" x="406.5" y="-83.5" font-family="Helvetica,sans-Serif" font-size="10.00">v8::bigint::digit_add3</text>
</a>
</g>
</g>
<!-- Node2&#45;&gt;Node4 -->
<g id="edge3" class="edge">
<title>Node2&#45;&gt;Node4</title>
<path fill="none" stroke="midnightblue" d="M311.1,-72.91C319.31,-74.05 328.12,-75.27 336.92,-76.49"/>
<polygon fill="midnightblue" stroke="midnightblue" points="336.44,-79.96 346.83,-77.86 337.4,-73.02 336.44,-79.96"/>
</g>
<!-- Node5 -->
<g id="node5" class="node">
<title>Node5</title>
<g id="a_node5"><a xlink:href="classv8_1_1bigint_1_1Digits.html#acb996e60d50dcd932cb15fc4131cfadb" target="_top" xlink:title=" ">
<polygon fill="white" stroke="black" points="347.5,-38.5 347.5,-57.5 465.5,-57.5 465.5,-38.5 347.5,-38.5"/>
<text text-anchor="middle" x="406.5" y="-45.5" font-family="Helvetica,sans-Serif" font-size="10.00">v8::bigint::Digits::len</text>
</a>
</g>
</g>
<!-- Node2&#45;&gt;Node5 -->
<g id="edge4" class="edge">
<title>Node2&#45;&gt;Node5</title>
<path fill="none" stroke="midnightblue" d="M311.1,-61.09C319.43,-59.94 328.36,-58.7 337.29,-57.46"/>
<polygon fill="midnightblue" stroke="midnightblue" points="337.9,-60.91 347.33,-56.07 336.94,-53.97 337.9,-60.91"/>
</g>
<!-- Node6 -->
<g id="node6" class="node">
<title>Node6</title>
<g id="a_node6"><a xlink:href="flag-definitions_8h.html#acef733af0cd52e464ef990347581e777" target="_top" xlink:title=" ">
<polygon fill="white" stroke="black" points="392,-0.5 392,-19.5 421,-19.5 421,-0.5 392,-0.5"/>
<text text-anchor="middle" x="406.5" y="-7.5" font-family="Helvetica,sans-Serif" font-size="10.00">X</text>
</a>
</g>
</g>
<!-- Node2&#45;&gt;Node6 -->
<g id="edge5" class="edge">
<title>Node2&#45;&gt;Node6</title>
<path fill="none" stroke="midnightblue" d="M286.58,-57.37C302.29,-49.22 325.79,-37.53 347,-29 358.41,-24.41 371.4,-20.1 382.23,-16.76"/>
<polygon fill="midnightblue" stroke="midnightblue" points="383.27,-20.1 391.84,-13.86 381.25,-13.4 383.27,-20.1"/>
</g>
</g>
</svg>
