<?xml version="1.0" encoding="UTF-8" standalone="no"?>
<!DOCTYPE svg PUBLIC "-//W3C//DTD SVG 1.1//EN"
 "http://www.w3.org/Graphics/SVG/1.1/DTD/svg11.dtd">
<!-- Generated by graphviz version 2.43.0 (0)
 -->
<!-- Title: v8::internal::compiler::turboshaft::Int64LoweringReducer::LowerPopCount Pages: 1 -->
<svg width="870pt" height="394pt"
 viewBox="0.00 0.00 870.00 394.00" xmlns="http://www.w3.org/2000/svg" xmlns:xlink="http://www.w3.org/1999/xlink">
<g id="graph0" class="graph" transform="scale(1 1) rotate(0) translate(4 390)">
<title>v8::internal::compiler::turboshaft::Int64LoweringReducer::LowerPopCount</title>
<polygon fill="white" stroke="transparent" points="-4,4 -4,-390 866,-390 866,4 -4,4"/>
<!-- Node1 -->
<g id="node1" class="node">
<title>Node1</title>
<g id="a_node1"><a xlink:title=" ">
<polygon fill="#bfbfbf" stroke="black" points="0,-330.5 0,-371.5 187,-371.5 187,-330.5 0,-330.5"/>
<text text-anchor="start" x="8" y="-359.5" font-family="Helvetica,sans-Serif" font-size="10.00">v8::internal::compiler</text>
<text text-anchor="start" x="8" y="-348.5" font-family="Helvetica,sans-Serif" font-size="10.00">::turboshaft::Int64LoweringReducer</text>
<text text-anchor="middle" x="93.5" y="-337.5" font-family="Helvetica,sans-Serif" font-size="10.00">::LowerPopCount</text>
</a>
</g>
</g>
<!-- Node2 -->
<g id="node2" class="node">
<title>Node2</title>
<g id="a_node2"><a xlink:href="namespacev8_1_1internal.html#aa6b3743bd5d773c552654f2a6c3efa4a" target="_top" xlink:title=" ">
<polygon fill="white" stroke="black" points="706,-366.5 706,-385.5 825,-385.5 825,-366.5 706,-366.5"/>
<text text-anchor="middle" x="765.5" y="-373.5" font-family="Helvetica,sans-Serif" font-size="10.00">v8::internal::DCHECK</text>
</a>
</g>
</g>
<!-- Node1&#45;&gt;Node2 -->
<g id="edge1" class="edge">
<title>Node1&#45;&gt;Node2</title>
<path fill="none" stroke="midnightblue" d="M187.14,-355.45C199.2,-356 211.4,-356.53 223,-357 392.92,-363.95 592.91,-370.56 695.75,-373.84"/>
<polygon fill="midnightblue" stroke="midnightblue" points="695.89,-377.35 706,-374.17 696.11,-370.35 695.89,-377.35"/>
</g>
<!-- Node3 -->
<g id="node3" class="node">
<title>Node3</title>
<g id="a_node3"><a xlink:href="classv8_1_1internal_1_1compiler_1_1turboshaft_1_1Int64LoweringReducer.html#aeeb07245b69346af06cfed43fd5b42ca" target="_top" xlink:title=" ">
<polygon fill="white" stroke="black" points="223,-306.5 223,-347.5 410,-347.5 410,-306.5 223,-306.5"/>
<text text-anchor="start" x="231" y="-335.5" font-family="Helvetica,sans-Serif" font-size="10.00">v8::internal::compiler</text>
<text text-anchor="start" x="231" y="-324.5" font-family="Helvetica,sans-Serif" font-size="10.00">::turboshaft::Int64LoweringReducer</text>
<text text-anchor="middle" x="316.5" y="-313.5" font-family="Helvetica,sans-Serif" font-size="10.00">::Unpack</text>
</a>
</g>
</g>
<!-- Node1&#45;&gt;Node3 -->
<g id="edge2" class="edge">
<title>Node1&#45;&gt;Node3</title>
<path fill="none" stroke="midnightblue" d="M187.26,-340.93C195.75,-340 204.39,-339.07 212.96,-338.14"/>
<polygon fill="midnightblue" stroke="midnightblue" points="213.41,-341.61 222.97,-337.05 212.65,-334.65 213.41,-341.61"/>
</g>
<!-- Node3&#45;&gt;Node2 -->
<g id="edge12" class="edge">
<title>Node3&#45;&gt;Node2</title>
<path fill="none" stroke="midnightblue" d="M410.12,-337.15C495.16,-346.48 619.24,-360.08 695.77,-368.47"/>
<polygon fill="midnightblue" stroke="midnightblue" points="695.46,-371.95 705.78,-369.56 696.22,-364.99 695.46,-371.95"/>
</g>
<!-- Node4 -->
<g id="node4" class="node">
<title>Node4</title>
<g id="a_node4"><a xlink:href="classv8_1_1internal_1_1compiler_1_1turboshaft_1_1Int64LoweringReducer.html#a3434f440c0dc0b98c6d76b8718e5e693" target="_top" xlink:title=" ">
<polygon fill="white" stroke="black" points="446,-213.5 446,-254.5 633,-254.5 633,-213.5 446,-213.5"/>
<text text-anchor="start" x="454" y="-242.5" font-family="Helvetica,sans-Serif" font-size="10.00">v8::internal::compiler</text>
<text text-anchor="start" x="454" y="-231.5" font-family="Helvetica,sans-Serif" font-size="10.00">::turboshaft::Int64LoweringReducer</text>
<text text-anchor="middle" x="539.5" y="-220.5" font-family="Helvetica,sans-Serif" font-size="10.00">::CheckPairOrPairOp</text>
</a>
</g>
</g>
<!-- Node3&#45;&gt;Node4 -->
<g id="edge3" class="edge">
<title>Node3&#45;&gt;Node4</title>
<path fill="none" stroke="midnightblue" d="M366.27,-306.48C399.88,-292.33 444.7,-273.47 480.19,-258.54"/>
<polygon fill="midnightblue" stroke="midnightblue" points="481.61,-261.74 489.47,-254.63 478.9,-255.29 481.61,-261.74"/>
</g>
<!-- Node4&#45;&gt;Node2 -->
<g id="edge4" class="edge">
<title>Node4&#45;&gt;Node2</title>
<path fill="none" stroke="midnightblue" d="M563.72,-254.53C582.68,-271.48 610,-296.35 633,-319 649.58,-335.32 648.63,-345.76 669,-357 677.35,-361.61 686.65,-365.11 696.09,-367.76"/>
<polygon fill="midnightblue" stroke="midnightblue" points="695.38,-371.2 705.94,-370.24 697.09,-364.41 695.38,-371.2"/>
</g>
<!-- Node5 -->
<g id="node5" class="node">
<title>Node5</title>
<g id="a_node5"><a xlink:href="namespacev8_1_1internal_1_1compiler_1_1turboshaft.html#a2b5e79bd829824237e784a6cde29309e" target="_top" xlink:title=" ">
<polygon fill="white" stroke="red" points="705,-317 705,-347 826,-347 826,-317 705,-317"/>
<text text-anchor="start" x="713" y="-335" font-family="Helvetica,sans-Serif" font-size="10.00">v8::internal::compiler</text>
<text text-anchor="middle" x="765.5" y="-324" font-family="Helvetica,sans-Serif" font-size="10.00">::turboshaft::Get</text>
</a>
</g>
</g>
<!-- Node4&#45;&gt;Node5 -->
<g id="edge5" class="edge">
<title>Node4&#45;&gt;Node5</title>
<path fill="none" stroke="midnightblue" d="M570.7,-254.6C596,-271.06 633.56,-293.67 669,-308 677.32,-311.37 686.25,-314.36 695.18,-316.99"/>
<polygon fill="midnightblue" stroke="midnightblue" points="694.27,-320.38 704.84,-319.71 696.17,-313.64 694.27,-320.38"/>
</g>
<!-- Node7 -->
<g id="node6" class="node">
<title>Node7</title>
<g id="a_node6"><a xlink:href="classv8_1_1internal_1_1compiler_1_1CallDescriptor.html#ac32e75cec9e9b7b495f409ee537e7ee0" target="_top" xlink:title=" ">
<polygon fill="white" stroke="black" points="680.5,-268 680.5,-298 850.5,-298 850.5,-268 680.5,-268"/>
<text text-anchor="start" x="688.5" y="-286" font-family="Helvetica,sans-Serif" font-size="10.00">v8::internal::compiler</text>
<text text-anchor="middle" x="765.5" y="-275" font-family="Helvetica,sans-Serif" font-size="10.00">::CallDescriptor::GetReturnType</text>
</a>
</g>
</g>
<!-- Node4&#45;&gt;Node7 -->
<g id="edge6" class="edge">
<title>Node4&#45;&gt;Node7</title>
<path fill="none" stroke="midnightblue" d="M633.23,-254.28C650.73,-258.11 668.89,-262.08 685.91,-265.81"/>
<polygon fill="midnightblue" stroke="midnightblue" points="685.27,-269.25 695.79,-267.97 686.76,-262.41 685.27,-269.25"/>
</g>
<!-- Node8 -->
<g id="node7" class="node">
<title>Node8</title>
<g id="a_node7"><a xlink:href="classv8_1_1internal_1_1MachineType.html#aea718e82fd1e2c5ffaeef1cc6d699b0e" target="_top" xlink:title=" ">
<polygon fill="white" stroke="red" points="694.5,-219 694.5,-249 836.5,-249 836.5,-219 694.5,-219"/>
<text text-anchor="start" x="702.5" y="-237" font-family="Helvetica,sans-Serif" font-size="10.00">v8::internal::MachineType</text>
<text text-anchor="middle" x="765.5" y="-226" font-family="Helvetica,sans-Serif" font-size="10.00">::Int32</text>
</a>
</g>
</g>
<!-- Node4&#45;&gt;Node8 -->
<g id="edge7" class="edge">
<title>Node4&#45;&gt;Node8</title>
<path fill="none" stroke="midnightblue" d="M633.23,-234C650.17,-234 667.72,-234 684.26,-234"/>
<polygon fill="midnightblue" stroke="midnightblue" points="684.42,-237.5 694.42,-234 684.42,-230.5 684.42,-237.5"/>
</g>
<!-- Node10 -->
<g id="node8" class="node">
<title>Node10</title>
<g id="a_node8"><a xlink:href="classv8_1_1internal_1_1compiler_1_1turboshaft_1_1OperationMatcher.html#a05d6b60871569e8839c72692cde1902c" target="_top" xlink:title=" ">
<polygon fill="white" stroke="black" points="675.5,-170 675.5,-200 855.5,-200 855.5,-170 675.5,-170"/>
<text text-anchor="start" x="683.5" y="-188" font-family="Helvetica,sans-Serif" font-size="10.00">v8::internal::compiler</text>
<text text-anchor="middle" x="765.5" y="-177" font-family="Helvetica,sans-Serif" font-size="10.00">::turboshaft::OperationMatcher::Is</text>
</a>
</g>
</g>
<!-- Node4&#45;&gt;Node10 -->
<g id="edge8" class="edge">
<title>Node4&#45;&gt;Node10</title>
<path fill="none" stroke="midnightblue" d="M633.23,-213.72C650.73,-209.89 668.89,-205.92 685.91,-202.19"/>
<polygon fill="midnightblue" stroke="midnightblue" points="686.76,-205.59 695.79,-200.03 685.27,-198.75 686.76,-205.59"/>
</g>
<!-- Node11 -->
<g id="node9" class="node">
<title>Node11</title>
<g id="a_node9"><a xlink:href="classv8_1_1internal_1_1compiler_1_1CallDescriptor.html#ab012c1bf1397cdd52d75bf468ea35c54" target="_top" xlink:title=" ">
<polygon fill="white" stroke="black" points="686.5,-121 686.5,-151 844.5,-151 844.5,-121 686.5,-121"/>
<text text-anchor="start" x="694.5" y="-139" font-family="Helvetica,sans-Serif" font-size="10.00">v8::internal::compiler</text>
<text text-anchor="middle" x="765.5" y="-128" font-family="Helvetica,sans-Serif" font-size="10.00">::CallDescriptor::ReturnCount</text>
</a>
</g>
</g>
<!-- Node4&#45;&gt;Node11 -->
<g id="edge9" class="edge">
<title>Node4&#45;&gt;Node11</title>
<path fill="none" stroke="midnightblue" d="M571.29,-213.46C596.63,-197.32 633.94,-175.26 669,-161 675.19,-158.48 681.7,-156.15 688.3,-154.01"/>
<polygon fill="midnightblue" stroke="midnightblue" points="689.49,-157.31 698.01,-151.01 687.42,-150.62 689.49,-157.31"/>
</g>
<!-- Node12 -->
<g id="node10" class="node">
<title>Node12</title>
<g id="a_node10"><a xlink:href="classv8_1_1internal_1_1compiler_1_1turboshaft_1_1OperationMatcher.html#a737acaa492363230088ce7b3434286bd" target="_top" xlink:title=" ">
<polygon fill="white" stroke="black" points="682.5,-60.5 682.5,-101.5 848.5,-101.5 848.5,-60.5 682.5,-60.5"/>
<text text-anchor="start" x="690.5" y="-89.5" font-family="Helvetica,sans-Serif" font-size="10.00">v8::internal::compiler</text>
<text text-anchor="start" x="690.5" y="-78.5" font-family="Helvetica,sans-Serif" font-size="10.00">::turboshaft::OperationMatcher</text>
<text text-anchor="middle" x="765.5" y="-67.5" font-family="Helvetica,sans-Serif" font-size="10.00">::TryCast</text>
</a>
</g>
</g>
<!-- Node4&#45;&gt;Node12 -->
<g id="edge10" class="edge">
<title>Node4&#45;&gt;Node12</title>
<path fill="none" stroke="midnightblue" d="M557.06,-213.35C579.67,-186.43 622.73,-139.52 669,-112 672.62,-109.84 676.41,-107.82 680.31,-105.92"/>
<polygon fill="midnightblue" stroke="midnightblue" points="681.9,-109.04 689.56,-101.71 679.01,-102.67 681.9,-109.04"/>
</g>
<!-- Node13 -->
<g id="node11" class="node">
<title>Node13</title>
<g id="a_node11"><a xlink:href="classv8_1_1internal_1_1compiler_1_1turboshaft_1_1RegisterRepresentation.html#a598694a7b6b5c3ceffe89a31a8fdde8b" target="_top" xlink:title=" ">
<polygon fill="white" stroke="red" points="669,-0.5 669,-41.5 862,-41.5 862,-0.5 669,-0.5"/>
<text text-anchor="start" x="677" y="-29.5" font-family="Helvetica,sans-Serif" font-size="10.00">v8::internal::compiler</text>
<text text-anchor="start" x="677" y="-18.5" font-family="Helvetica,sans-Serif" font-size="10.00">::turboshaft::RegisterRepresentation</text>
<text text-anchor="middle" x="765.5" y="-7.5" font-family="Helvetica,sans-Serif" font-size="10.00">::Word32</text>
</a>
</g>
</g>
<!-- Node4&#45;&gt;Node13 -->
<g id="edge11" class="edge">
<title>Node4&#45;&gt;Node13</title>
<path fill="none" stroke="midnightblue" d="M549.43,-213.36C566.86,-175.52 608.99,-94.89 669,-51 671.09,-49.47 673.25,-48.02 675.48,-46.65"/>
<polygon fill="midnightblue" stroke="midnightblue" points="677.34,-49.62 684.37,-41.68 673.93,-43.51 677.34,-49.62"/>
</g>
</g>
</svg>
