<?xml version="1.0" encoding="UTF-8" standalone="no"?>
<!DOCTYPE svg PUBLIC "-//W3C//DTD SVG 1.1//EN"
 "http://www.w3.org/Graphics/SVG/1.1/DTD/svg11.dtd">
<!-- Generated by graphviz version 2.43.0 (0)
 -->
<!-- Title: v8::internal::compiler::turboshaft::AccessBuilderTS Pages: 1 -->
<svg width="253pt" height="215pt"
 viewBox="0.00 0.00 252.50 215.00" xmlns="http://www.w3.org/2000/svg" xmlns:xlink="http://www.w3.org/1999/xlink">
<g id="graph0" class="graph" transform="scale(1 1) rotate(0) translate(4 211)">
<title>v8::internal::compiler::turboshaft::AccessBuilderTS</title>
<polygon fill="white" stroke="transparent" points="-4,4 -4,-211 248.5,-211 248.5,4 -4,4"/>
<!-- Node1 -->
<g id="node1" class="node">
<title>Node1</title>
<g id="a_node1"><a xlink:title=" ">
<polygon fill="#bfbfbf" stroke="black" points="34,-0.5 34,-101.5 195,-101.5 195,-0.5 34,-0.5"/>
<text text-anchor="start" x="42" y="-89.5" font-family="Helvetica,sans-Serif" font-size="10.00">v8::internal::compiler</text>
<text text-anchor="middle" x="114.5" y="-78.5" font-family="Helvetica,sans-Serif" font-size="10.00">::turboshaft::AccessBuilderTS</text>
<polyline fill="none" stroke="black" points="34,-71.5 195,-71.5 "/>
<text text-anchor="middle" x="114.5" y="-59.5" font-family="Helvetica,sans-Serif" font-size="10.00"> </text>
<polyline fill="none" stroke="black" points="34,-52.5 195,-52.5 "/>
<text text-anchor="start" x="42" y="-40.5" font-family="Helvetica,sans-Serif" font-size="10.00">+ TF_FIELD_ACCESS()</text>
<text text-anchor="start" x="42" y="-29.5" font-family="Helvetica,sans-Serif" font-size="10.00">+ ForMap()</text>
<text text-anchor="start" x="42" y="-18.5" font-family="Helvetica,sans-Serif" font-size="10.00">+ ForFeedbackVectorLength()</text>
<text text-anchor="start" x="42" y="-7.5" font-family="Helvetica,sans-Serif" font-size="10.00">+ ForFixedArrayElement()</text>
</a>
</g>
</g>
<!-- Node2 -->
<g id="node2" class="node">
<title>Node2</title>
<g id="a_node2"><a xlink:href="classv8_1_1internal_1_1AllStatic.html" target="_top" xlink:title=" ">
<polygon fill="white" stroke="black" points="0,-149.5 0,-206.5 119,-206.5 119,-149.5 0,-149.5"/>
<text text-anchor="middle" x="59.5" y="-194.5" font-family="Helvetica,sans-Serif" font-size="10.00">v8::internal::AllStatic</text>
<polyline fill="none" stroke="black" points="0,-187.5 119,-187.5 "/>
<text text-anchor="middle" x="59.5" y="-175.5" font-family="Helvetica,sans-Serif" font-size="10.00"> </text>
<polyline fill="none" stroke="black" points="0,-168.5 119,-168.5 "/>
<text text-anchor="middle" x="59.5" y="-156.5" font-family="Helvetica,sans-Serif" font-size="10.00"> </text>
</a>
</g>
</g>
<!-- Node2&#45;&gt;Node1 -->
<g id="edge1" class="edge">
<title>Node2&#45;&gt;Node1</title>
<path fill="none" stroke="midnightblue" d="M75.77,-140.02C81.04,-128.04 86.98,-114.55 92.59,-101.8"/>
<polygon fill="none" stroke="midnightblue" points="72.53,-138.7 71.71,-149.26 78.94,-141.51 72.53,-138.7"/>
</g>
<!-- Node3 -->
<g id="node3" class="node">
<title>Node3</title>
<g id="a_node3"><a xlink:title=" ">
<polygon fill="white" stroke="#bfbfbf" points="137,-149.5 137,-206.5 202,-206.5 202,-149.5 137,-149.5"/>
<text text-anchor="middle" x="169.5" y="-194.5" font-family="Helvetica,sans-Serif" font-size="10.00">constexpr</text>
<polyline fill="none" stroke="#bfbfbf" points="137,-187.5 202,-187.5 "/>
<text text-anchor="middle" x="169.5" y="-175.5" font-family="Helvetica,sans-Serif" font-size="10.00"> </text>
<polyline fill="none" stroke="#bfbfbf" points="137,-168.5 202,-168.5 "/>
<text text-anchor="middle" x="169.5" y="-156.5" font-family="Helvetica,sans-Serif" font-size="10.00"> </text>
</a>
</g>
</g>
<!-- Node3&#45;&gt;Node1 -->
<g id="edge2" class="edge">
<title>Node3&#45;&gt;Node1</title>
<path fill="none" stroke="#404040" d="M157.29,-149.26C152.55,-138.47 146.9,-125.65 141.3,-112.91"/>
<polygon fill="none" stroke="#404040" points="141.25,-112.79 135.17,-108.9 136.41,-101.8 142.49,-105.68 141.25,-112.79"/>
<text text-anchor="middle" x="196.5" y="-123" font-family="Helvetica,sans-Serif" font-size="10.00"> +is_array_buffer_v</text>
</g>
</g>
</svg>
