<?xml version="1.0" encoding="UTF-8" standalone="no"?>
<!DOCTYPE svg PUBLIC "-//W3C//DTD SVG 1.1//EN"
 "http://www.w3.org/Graphics/SVG/1.1/DTD/svg11.dtd">
<!-- Generated by graphviz version 2.43.0 (0)
 -->
<!-- Title: v8::internal::MarkingVisitorBase::VisitDescriptorArray Pages: 1 -->
<!--zoomable 1232 -->
<svg id="main" version="1.1" xmlns="http://www.w3.org/2000/svg" xmlns:xlink="http://www.w3.org/1999/xlink" xml:space="preserve" onload="init(evt)">
<style type="text/css"><![CDATA[
.edge:hover path { stroke: red; }
.edge:hover polygon { stroke: red; fill: red; }
]]></style>
<script type="text/javascript"><![CDATA[
var edges = document.getElementsByTagName('g');
if (edges && edges.length) {
  for (var i=0;i<edges.length;i++) {
    if (edges[i].id.substr(0,4)=='edge') {
      edges[i].setAttribute('class','edge');
    }
  }
}
]]></script>
        <defs>
                <circle id="rim" cx="0" cy="0" r="7"/>
                <circle id="rim2" cx="0" cy="0" r="3.5"/>
                <g id="zoomPlus">
                        <use xlink:href="#rim" fill="#404040">
                                <set attributeName="fill" to="#808080" begin="zoomplus.mouseover" end="zoomplus.mouseout"/>
                        </use>
                        <path d="M-4,0h8M0,-4v8" fill="none" stroke="white" stroke-width="1.5" pointer-events="none"/>
                </g>
                <g id="zoomMin">
                        <use xlink:href="#rim" fill="#404040">
                                <set attributeName="fill" to="#808080" begin="zoomminus.mouseover" end="zoomminus.mouseout"/>
                        </use>
                        <path d="M-4,0h8" fill="none" stroke="white" stroke-width="1.5" pointer-events="none"/>
                </g>
                <g id="dirArrow">
                        <path fill="none" stroke="white" stroke-width="1.5" d="M0,-3.0v7 M-2.5,-0.5L0,-3.0L2.5,-0.5"/>
                </g>
               <g id="resetDef">
                       <use xlink:href="#rim2" fill="#404040">
                               <set attributeName="fill" to="#808080" begin="reset.mouseover" end="reset.mouseout"/>
                       </use>
               </g>
        </defs>

<script type="text/javascript">
var viewWidth = 1077;
var viewHeight = 1232;
var sectionId = 'dynsection-12';
</script>
<script xlink:href="svgpan.js"/>
<svg id="graph" class="graph">
<g id="viewport">
<title>v8::internal::MarkingVisitorBase::VisitDescriptorArray</title>
<polygon fill="white" stroke="transparent" points="-4,4 -4,-1227.5 1073,-1227.5 1073,4 -4,4"/>
<!-- Node1 -->
<g id="node1" class="node">
<title>Node1</title>
<g id="a_node1"><a xlink:title=" ">
<polygon fill="#bfbfbf" stroke="black" points="0,-1027 0,-1057 149,-1057 149,-1027 0,-1027"/>
<text text-anchor="start" x="8" y="-1045" font-family="Helvetica,sans-Serif" font-size="10.00">v8::internal::MarkingVisitor</text>
<text text-anchor="middle" x="74.5" y="-1034" font-family="Helvetica,sans-Serif" font-size="10.00">Base::VisitDescriptorArray</text>
</a>
</g>
</g>
<!-- Node2 -->
<g id="node2" class="node">
<title>Node2</title>
<g id="a_node2"><a xlink:href="classv8_1_1internal_1_1DescriptorArrayMarkingState.html#a0cfdd735298315c8999fe13ffef18330" target="_top" xlink:title=" ">
<polygon fill="white" stroke="black" points="185,-1138.5 185,-1179.5 386,-1179.5 386,-1138.5 185,-1138.5"/>
<text text-anchor="start" x="193" y="-1167.5" font-family="Helvetica,sans-Serif" font-size="10.00">v8::internal::Descriptor</text>
<text text-anchor="start" x="193" y="-1156.5" font-family="Helvetica,sans-Serif" font-size="10.00">ArrayMarkingState::AcquireDescriptor</text>
<text text-anchor="middle" x="285.5" y="-1145.5" font-family="Helvetica,sans-Serif" font-size="10.00">RangeToMark</text>
</a>
</g>
</g>
<!-- Node1&#45;&gt;Node2 -->
<g id="edge1" class="edge">
<title>Node1&#45;&gt;Node2</title>
<path fill="none" stroke="midnightblue" d="M102.4,-1057.06C136.91,-1076.38 197.29,-1110.18 239.01,-1133.53"/>
<polygon fill="midnightblue" stroke="midnightblue" points="237.44,-1136.66 247.87,-1138.49 240.85,-1130.56 237.44,-1136.66"/>
</g>
<!-- Node7 -->
<g id="node6" class="node">
<title>Node7</title>
<g id="a_node6"><a xlink:href="namespacev8_1_1internal_1_1compiler.html#a51dcb90ae077172b12d63271c7e7ba0c" target="_top" xlink:title=" ">
<polygon fill="white" stroke="black" points="213,-1051.5 213,-1070.5 358,-1070.5 358,-1051.5 213,-1051.5"/>
<text text-anchor="middle" x="285.5" y="-1058.5" font-family="Helvetica,sans-Serif" font-size="10.00">v8::internal::compiler::end</text>
</a>
</g>
</g>
<!-- Node1&#45;&gt;Node7 -->
<g id="edge5" class="edge">
<title>Node1&#45;&gt;Node7</title>
<path fill="none" stroke="midnightblue" d="M149.19,-1048.7C166.48,-1050.27 185,-1051.95 202.63,-1053.56"/>
<polygon fill="midnightblue" stroke="midnightblue" points="202.61,-1057.07 212.88,-1054.49 203.24,-1050.1 202.61,-1057.07"/>
</g>
<!-- Node10 -->
<g id="node9" class="node">
<title>Node10</title>
<g id="a_node9"><a xlink:href="flag-definitions_8h.html#a3df0b28b666e942ffb9d7d04acdb9715" target="_top" xlink:title=" ">
<polygon fill="white" stroke="black" points="500,-1007.5 500,-1026.5 536,-1026.5 536,-1007.5 500,-1007.5"/>
<text text-anchor="middle" x="518" y="-1014.5" font-family="Helvetica,sans-Serif" font-size="10.00">size</text>
</a>
</g>
</g>
<!-- Node1&#45;&gt;Node10 -->
<g id="edge8" class="edge">
<title>Node1&#45;&gt;Node10</title>
<path fill="none" stroke="midnightblue" d="M149.4,-1037.82C249.39,-1032.15 422.94,-1022.33 489.73,-1018.54"/>
<polygon fill="midnightblue" stroke="midnightblue" points="490.07,-1022.03 499.86,-1017.97 489.67,-1015.04 490.07,-1022.03"/>
</g>
<!-- Node11 -->
<g id="node10" class="node">
<title>Node11</title>
<g id="a_node10"><a xlink:href="namespacev8_1_1internal_1_1torque.html#aa08bf8d98528d0bb3f16c9f255b9a381" target="_top" xlink:title=" ">
<polygon fill="white" stroke="black" points="230.5,-584 230.5,-614 340.5,-614 340.5,-584 230.5,-584"/>
<text text-anchor="start" x="238.5" y="-602" font-family="Helvetica,sans-Serif" font-size="10.00">v8::internal::torque</text>
<text text-anchor="middle" x="285.5" y="-591" font-family="Helvetica,sans-Serif" font-size="10.00">::SizeOf</text>
</a>
</g>
</g>
<!-- Node1&#45;&gt;Node11 -->
<g id="edge9" class="edge">
<title>Node1&#45;&gt;Node11</title>
<path fill="none" stroke="midnightblue" d="M82.69,-1026.75C113.53,-961.39 234.71,-704.54 272.9,-623.58"/>
<polygon fill="midnightblue" stroke="midnightblue" points="276.23,-624.72 277.34,-614.18 269.9,-621.74 276.23,-624.72"/>
</g>
<!-- Node3 -->
<g id="node3" class="node">
<title>Node3</title>
<g id="a_node3"><a xlink:href="classv8_1_1internal_1_1DescriptorArrayMarkingState.html#abf5c119f1e9c82e750b985d551ced482" target="_top" xlink:title=" ">
<polygon fill="white" stroke="black" points="437.5,-1193 437.5,-1223 598.5,-1223 598.5,-1193 437.5,-1193"/>
<text text-anchor="start" x="445.5" y="-1211" font-family="Helvetica,sans-Serif" font-size="10.00">v8::internal::Descriptor</text>
<text text-anchor="middle" x="518" y="-1200" font-family="Helvetica,sans-Serif" font-size="10.00">ArrayMarkingState::NewState</text>
</a>
</g>
</g>
<!-- Node2&#45;&gt;Node3 -->
<g id="edge2" class="edge">
<title>Node2&#45;&gt;Node3</title>
<path fill="none" stroke="midnightblue" d="M383.25,-1179.57C400.96,-1183.33 419.28,-1187.23 436.46,-1190.88"/>
<polygon fill="midnightblue" stroke="midnightblue" points="435.92,-1194.34 446.43,-1193 437.37,-1187.49 435.92,-1194.34"/>
</g>
<!-- Node4 -->
<g id="node4" class="node">
<title>Node4</title>
<g id="a_node4"><a xlink:href="classv8_1_1internal_1_1DescriptorArrayMarkingState.html#ad3e1e13e30db73dcd169ec896def10c6" target="_top" xlink:title=" ">
<polygon fill="white" stroke="black" points="435,-1144 435,-1174 601,-1174 601,-1144 435,-1144"/>
<text text-anchor="start" x="443" y="-1162" font-family="Helvetica,sans-Serif" font-size="10.00">v8::internal::Descriptor</text>
<text text-anchor="middle" x="518" y="-1151" font-family="Helvetica,sans-Serif" font-size="10.00">ArrayMarkingState::SwapState</text>
</a>
</g>
</g>
<!-- Node2&#45;&gt;Node4 -->
<g id="edge3" class="edge">
<title>Node2&#45;&gt;Node4</title>
<path fill="none" stroke="midnightblue" d="M386.26,-1159C399.03,-1159 412.06,-1159 424.7,-1159"/>
<polygon fill="midnightblue" stroke="midnightblue" points="424.74,-1162.5 434.74,-1159 424.74,-1155.5 424.74,-1162.5"/>
</g>
<!-- Node5 -->
<g id="node5" class="node">
<title>Node5</title>
<g id="a_node5"><a xlink:href="namespacev8_1_1base.html#af18fed44cbab8ec804cf910ac80d9d66" target="_top" xlink:title=" ">
<polygon fill="white" stroke="red" points="681.5,-1144 681.5,-1174 821.5,-1174 821.5,-1144 681.5,-1144"/>
<text text-anchor="start" x="689.5" y="-1162" font-family="Helvetica,sans-Serif" font-size="10.00">v8::base::AcquireRelease</text>
<text text-anchor="middle" x="751.5" y="-1151" font-family="Helvetica,sans-Serif" font-size="10.00">_CompareAndSwap</text>
</a>
</g>
</g>
<!-- Node4&#45;&gt;Node5 -->
<g id="edge4" class="edge">
<title>Node4&#45;&gt;Node5</title>
<path fill="none" stroke="midnightblue" d="M601.27,-1159C624.04,-1159 648.69,-1159 671.28,-1159"/>
<polygon fill="midnightblue" stroke="midnightblue" points="671.5,-1162.5 681.5,-1159 671.5,-1155.5 671.5,-1162.5"/>
</g>
<!-- Node8 -->
<g id="node7" class="node">
<title>Node8</title>
<g id="a_node7"><a xlink:href="classv8_1_1internal_1_1compiler_1_1Node_1_1Uses.html#aba0b04d7aa29dae3edbd2ba11a35ce81" target="_top" xlink:title=" ">
<polygon fill="white" stroke="black" points="457.5,-1095 457.5,-1125 578.5,-1125 578.5,-1095 457.5,-1095"/>
<text text-anchor="start" x="465.5" y="-1113" font-family="Helvetica,sans-Serif" font-size="10.00">v8::internal::compiler</text>
<text text-anchor="middle" x="518" y="-1102" font-family="Helvetica,sans-Serif" font-size="10.00">::Node::Uses::end</text>
</a>
</g>
</g>
<!-- Node7&#45;&gt;Node8 -->
<g id="edge6" class="edge">
<title>Node7&#45;&gt;Node8</title>
<path fill="none" stroke="midnightblue" d="M331.22,-1070.51C364.15,-1077.51 409.56,-1087.16 447.24,-1095.17"/>
<polygon fill="midnightblue" stroke="midnightblue" points="446.63,-1098.62 457.14,-1097.28 448.09,-1091.77 446.63,-1098.62"/>
</g>
<!-- Node9 -->
<g id="node8" class="node">
<title>Node9</title>
<g id="a_node8"><a xlink:href="classv8_1_1internal_1_1compiler_1_1Node.html#a9ebd76ae3786acc626d9c4f3cc3f8557" target="_top" xlink:title=" ">
<polygon fill="white" stroke="black" points="457.5,-1046 457.5,-1076 578.5,-1076 578.5,-1046 457.5,-1046"/>
<text text-anchor="start" x="465.5" y="-1064" font-family="Helvetica,sans-Serif" font-size="10.00">v8::internal::compiler</text>
<text text-anchor="middle" x="518" y="-1053" font-family="Helvetica,sans-Serif" font-size="10.00">::Node::uses</text>
</a>
</g>
</g>
<!-- Node7&#45;&gt;Node9 -->
<g id="edge7" class="edge">
<title>Node7&#45;&gt;Node9</title>
<path fill="none" stroke="midnightblue" d="M358.17,-1061C386.53,-1061 419.03,-1061 447.21,-1061"/>
<polygon fill="midnightblue" stroke="midnightblue" points="447.38,-1064.5 457.38,-1061 447.38,-1057.5 447.38,-1064.5"/>
</g>
<!-- Node11&#45;&gt;Node10 -->
<g id="edge53" class="edge">
<title>Node11&#45;&gt;Node10</title>
<path fill="none" stroke="midnightblue" d="M286.85,-614.19C289.06,-672.7 305.13,-885.53 422,-993 440.34,-1009.87 468.79,-1015.29 489.78,-1016.84"/>
<polygon fill="midnightblue" stroke="midnightblue" points="489.82,-1020.35 499.98,-1017.34 490.17,-1013.36 489.82,-1020.35"/>
</g>
<!-- Node12 -->
<g id="node11" class="node">
<title>Node12</title>
<g id="a_node11"><a xlink:href="classv8_1_1internal_1_1torque_1_1TargetArchitecture.html#a27d7a48499ad94973b11c9cdb3709d61" target="_top" xlink:title=" ">
<polygon fill="white" stroke="black" points="690.5,-1064.5 690.5,-1105.5 812.5,-1105.5 812.5,-1064.5 690.5,-1064.5"/>
<text text-anchor="start" x="698.5" y="-1093.5" font-family="Helvetica,sans-Serif" font-size="10.00">v8::internal::torque</text>
<text text-anchor="start" x="698.5" y="-1082.5" font-family="Helvetica,sans-Serif" font-size="10.00">::TargetArchitecture</text>
<text text-anchor="middle" x="751.5" y="-1071.5" font-family="Helvetica,sans-Serif" font-size="10.00">::CppHeapPointerSize</text>
</a>
</g>
</g>
<!-- Node11&#45;&gt;Node12 -->
<g id="edge10" class="edge">
<title>Node11&#45;&gt;Node12</title>
<path fill="none" stroke="midnightblue" d="M287.49,-614.16C291.9,-668.88 314.63,-857.89 422,-952 487.99,-1009.84 542.65,-946.92 614,-998 638.36,-1015.44 626.12,-1036.9 650,-1055 659.09,-1061.89 669.75,-1067.21 680.67,-1071.31"/>
<polygon fill="midnightblue" stroke="midnightblue" points="679.7,-1074.67 690.29,-1074.6 681.97,-1068.05 679.7,-1074.67"/>
</g>
<!-- Node14 -->
<g id="node13" class="node">
<title>Node14</title>
<g id="a_node13"><a xlink:href="classv8_1_1internal_1_1torque_1_1TargetArchitecture.html#acc7595776e4e5d792e6cfa29f0b8abe2" target="_top" xlink:title=" ">
<polygon fill="white" stroke="black" points="692.5,-1004.5 692.5,-1045.5 810.5,-1045.5 810.5,-1004.5 692.5,-1004.5"/>
<text text-anchor="start" x="700.5" y="-1033.5" font-family="Helvetica,sans-Serif" font-size="10.00">v8::internal::torque</text>
<text text-anchor="start" x="700.5" y="-1022.5" font-family="Helvetica,sans-Serif" font-size="10.00">::TargetArchitecture</text>
<text text-anchor="middle" x="751.5" y="-1011.5" font-family="Helvetica,sans-Serif" font-size="10.00">::ExternalPointerSize</text>
</a>
</g>
</g>
<!-- Node11&#45;&gt;Node14 -->
<g id="edge12" class="edge">
<title>Node11&#45;&gt;Node14</title>
<path fill="none" stroke="midnightblue" d="M288.42,-614.09C295.66,-664.47 325.94,-828.46 422,-912 488.8,-970.09 535.56,-923.96 614,-965 632.45,-974.66 631.65,-985.15 650,-995 660.11,-1000.43 671.34,-1005 682.52,-1008.81"/>
<polygon fill="midnightblue" stroke="midnightblue" points="681.71,-1012.23 692.3,-1011.96 683.86,-1005.56 681.71,-1012.23"/>
</g>
<!-- Node15 -->
<g id="node14" class="node">
<title>Node15</title>
<g id="a_node14"><a xlink:href="classv8_1_1internal_1_1torque_1_1TypeOracle.html#a6fb9de45233da6f13d0c6ef15809df73" target="_top" xlink:title=" ">
<polygon fill="white" stroke="black" points="651,-955 651,-985 852,-985 852,-955 651,-955"/>
<text text-anchor="start" x="659" y="-973" font-family="Helvetica,sans-Serif" font-size="10.00">v8::internal::torque</text>
<text text-anchor="middle" x="751.5" y="-962" font-family="Helvetica,sans-Serif" font-size="10.00">::TypeOracle::GetCppHeapPointerType</text>
</a>
</g>
</g>
<!-- Node11&#45;&gt;Node15 -->
<g id="edge14" class="edge">
<title>Node11&#45;&gt;Node15</title>
<path fill="none" stroke="midnightblue" d="M289.67,-614.16C300.01,-659.88 337.13,-797.58 422,-869 490.21,-926.39 531.53,-893.15 614,-927 630.74,-933.87 633.07,-939.63 650,-946 655.84,-948.2 661.95,-950.24 668.14,-952.13"/>
<polygon fill="midnightblue" stroke="midnightblue" points="667.34,-955.55 677.92,-954.98 669.3,-948.82 667.34,-955.55"/>
</g>
<!-- Node16 -->
<g id="node15" class="node">
<title>Node16</title>
<g id="a_node15"><a xlink:href="classv8_1_1internal_1_1torque_1_1TypeOracle.html#a3ead918b241b903b78f316efc9142df1" target="_top" xlink:title=" ">
<polygon fill="white" stroke="black" points="653,-906 653,-936 850,-936 850,-906 653,-906"/>
<text text-anchor="start" x="661" y="-924" font-family="Helvetica,sans-Serif" font-size="10.00">v8::internal::torque</text>
<text text-anchor="middle" x="751.5" y="-913" font-family="Helvetica,sans-Serif" font-size="10.00">::TypeOracle::GetExternalPointerType</text>
</a>
</g>
</g>
<!-- Node11&#45;&gt;Node16 -->
<g id="edge16" class="edge">
<title>Node11&#45;&gt;Node16</title>
<path fill="none" stroke="midnightblue" d="M291.34,-614.15C305.02,-654.53 347.86,-765.58 422,-824 505.47,-889.77 547.72,-867.16 650,-896 658.99,-898.54 668.47,-901.07 677.87,-903.5"/>
<polygon fill="midnightblue" stroke="midnightblue" points="677.06,-906.91 687.62,-905.99 678.8,-900.13 677.06,-906.91"/>
</g>
<!-- Node17 -->
<g id="node16" class="node">
<title>Node17</title>
<g id="a_node16"><a xlink:href="classv8_1_1internal_1_1torque_1_1TypeOracle.html#a131a398c848334b7de9679bb5bc0fef2" target="_top" xlink:title=" ">
<polygon fill="white" stroke="black" points="653,-845.5 653,-886.5 850,-886.5 850,-845.5 653,-845.5"/>
<text text-anchor="start" x="661" y="-874.5" font-family="Helvetica,sans-Serif" font-size="10.00">v8::internal::torque</text>
<text text-anchor="start" x="661" y="-863.5" font-family="Helvetica,sans-Serif" font-size="10.00">::TypeOracle::GetFloat64OrUndefined</text>
<text text-anchor="middle" x="751.5" y="-852.5" font-family="Helvetica,sans-Serif" font-size="10.00">OrHoleType</text>
</a>
</g>
</g>
<!-- Node11&#45;&gt;Node17 -->
<g id="edge18" class="edge">
<title>Node11&#45;&gt;Node17</title>
<path fill="none" stroke="midnightblue" d="M293.83,-614.04C311.17,-648 358.09,-730.98 422,-774 487.91,-818.37 574.95,-841.5 642.88,-853.47"/>
<polygon fill="midnightblue" stroke="midnightblue" points="642.31,-856.92 652.76,-855.15 643.49,-850.02 642.31,-856.92"/>
</g>
<!-- Node18 -->
<g id="node17" class="node">
<title>Node18</title>
<g id="a_node17"><a xlink:href="classv8_1_1internal_1_1torque_1_1TypeOracle.html#af20e4c6c29275c6e87c47caa36c23317" target="_top" xlink:title=" ">
<polygon fill="white" stroke="black" points="672,-796 672,-826 831,-826 831,-796 672,-796"/>
<text text-anchor="start" x="680" y="-814" font-family="Helvetica,sans-Serif" font-size="10.00">v8::internal::torque</text>
<text text-anchor="middle" x="751.5" y="-803" font-family="Helvetica,sans-Serif" font-size="10.00">::TypeOracle::GetFloat64Type</text>
</a>
</g>
</g>
<!-- Node11&#45;&gt;Node18 -->
<g id="edge20" class="edge">
<title>Node11&#45;&gt;Node18</title>
<path fill="none" stroke="midnightblue" d="M298.12,-614.33C319.54,-641.49 368.05,-698.03 422,-728 496.99,-769.65 593.14,-790.78 662.01,-801.26"/>
<polygon fill="midnightblue" stroke="midnightblue" points="661.56,-804.73 671.97,-802.73 662.59,-797.8 661.56,-804.73"/>
</g>
<!-- Node19 -->
<g id="node18" class="node">
<title>Node19</title>
<g id="a_node18"><a xlink:href="classv8_1_1internal_1_1torque_1_1TypeOracle.html#a5357914ee2aec8066b48e1e674c25b08" target="_top" xlink:title=" ">
<polygon fill="white" stroke="black" points="678,-747 678,-777 825,-777 825,-747 678,-747"/>
<text text-anchor="start" x="686" y="-765" font-family="Helvetica,sans-Serif" font-size="10.00">v8::internal::torque</text>
<text text-anchor="middle" x="751.5" y="-754" font-family="Helvetica,sans-Serif" font-size="10.00">::TypeOracle::GetInt16Type</text>
</a>
</g>
</g>
<!-- Node11&#45;&gt;Node19 -->
<g id="edge22" class="edge">
<title>Node11&#45;&gt;Node19</title>
<path fill="none" stroke="midnightblue" d="M305.03,-614.11C330.07,-633.77 376.79,-667.87 422,-687 501.94,-720.82 599.58,-740.63 667.53,-751.31"/>
<polygon fill="midnightblue" stroke="midnightblue" points="667.34,-754.82 677.76,-752.88 668.41,-747.9 667.34,-754.82"/>
</g>
<!-- Node20 -->
<g id="node19" class="node">
<title>Node20</title>
<g id="a_node19"><a xlink:href="classv8_1_1internal_1_1torque_1_1TypeOracle.html#a347d263cbb82d865e37d0a220f43eea3" target="_top" xlink:title=" ">
<polygon fill="white" stroke="black" points="678,-698 678,-728 825,-728 825,-698 678,-698"/>
<text text-anchor="start" x="686" y="-716" font-family="Helvetica,sans-Serif" font-size="10.00">v8::internal::torque</text>
<text text-anchor="middle" x="751.5" y="-705" font-family="Helvetica,sans-Serif" font-size="10.00">::TypeOracle::GetInt32Type</text>
</a>
</g>
</g>
<!-- Node11&#45;&gt;Node20 -->
<g id="edge24" class="edge">
<title>Node11&#45;&gt;Node20</title>
<path fill="none" stroke="midnightblue" d="M318.14,-614.04C345.19,-626.35 385.42,-643.42 422,-654 504.06,-677.74 600.56,-693.71 667.64,-702.98"/>
<polygon fill="midnightblue" stroke="midnightblue" points="667.36,-706.47 677.74,-704.35 668.3,-699.53 667.36,-706.47"/>
</g>
<!-- Node21 -->
<g id="node20" class="node">
<title>Node21</title>
<g id="a_node20"><a xlink:href="classv8_1_1internal_1_1torque_1_1TypeOracle.html#a4592d15746a33114c82971e9ea5c83a2" target="_top" xlink:title=" ">
<polygon fill="white" stroke="black" points="681,-649 681,-679 822,-679 822,-649 681,-649"/>
<text text-anchor="start" x="689" y="-667" font-family="Helvetica,sans-Serif" font-size="10.00">v8::internal::torque</text>
<text text-anchor="middle" x="751.5" y="-656" font-family="Helvetica,sans-Serif" font-size="10.00">::TypeOracle::GetInt8Type</text>
</a>
</g>
</g>
<!-- Node11&#45;&gt;Node21 -->
<g id="edge26" class="edge">
<title>Node11&#45;&gt;Node21</title>
<path fill="none" stroke="midnightblue" d="M340.63,-612.44C365.32,-618.19 395.01,-624.59 422,-629 506.53,-642.82 604.22,-652.42 670.96,-658.03"/>
<polygon fill="midnightblue" stroke="midnightblue" points="670.73,-661.52 680.98,-658.86 671.31,-654.55 670.73,-661.52"/>
</g>
<!-- Node22 -->
<g id="node21" class="node">
<title>Node22</title>
<g id="a_node21"><a xlink:href="classv8_1_1internal_1_1torque_1_1TypeOracle.html#a57e50df22efd7d4f87bf06521315c5b8" target="_top" xlink:title=" ">
<polygon fill="white" stroke="black" points="677,-600 677,-630 826,-630 826,-600 677,-600"/>
<text text-anchor="start" x="685" y="-618" font-family="Helvetica,sans-Serif" font-size="10.00">v8::internal::torque</text>
<text text-anchor="middle" x="751.5" y="-607" font-family="Helvetica,sans-Serif" font-size="10.00">::TypeOracle::GetIntPtrType</text>
</a>
</g>
</g>
<!-- Node11&#45;&gt;Node22 -->
<g id="edge28" class="edge">
<title>Node11&#45;&gt;Node22</title>
<path fill="none" stroke="midnightblue" d="M340.8,-605.82C365.53,-608.62 395.2,-611.54 422,-613 504.98,-617.53 599.91,-617.55 666.32,-616.73"/>
<polygon fill="midnightblue" stroke="midnightblue" points="666.77,-620.22 676.72,-616.59 666.68,-613.22 666.77,-620.22"/>
</g>
<!-- Node23 -->
<g id="node22" class="node">
<title>Node23</title>
<g id="a_node22"><a xlink:href="classv8_1_1internal_1_1torque_1_1TypeOracle.html#aef0c269e6d1fff53c7bc6c3c05f2534f" target="_top" xlink:title=" ">
<polygon fill="white" stroke="black" points="650,-551 650,-581 853,-581 853,-551 650,-551"/>
<text text-anchor="start" x="658" y="-569" font-family="Helvetica,sans-Serif" font-size="10.00">v8::internal::torque</text>
<text text-anchor="middle" x="751.5" y="-558" font-family="Helvetica,sans-Serif" font-size="10.00">::TypeOracle::GetProtectedPointerType</text>
</a>
</g>
</g>
<!-- Node11&#45;&gt;Node23 -->
<g id="edge30" class="edge">
<title>Node11&#45;&gt;Node23</title>
<path fill="none" stroke="midnightblue" d="M340.63,-595.15C413.64,-589.96 545.36,-580.59 639.79,-573.87"/>
<polygon fill="midnightblue" stroke="midnightblue" points="640.23,-577.35 649.96,-573.15 639.73,-570.37 640.23,-577.35"/>
</g>
<!-- Node24 -->
<g id="node23" class="node">
<title>Node24</title>
<g id="a_node23"><a xlink:href="classv8_1_1internal_1_1torque_1_1TypeOracle.html#a1ffdcced7713b9f40191b339f91ba719" target="_top" xlink:title=" ">
<polygon fill="white" stroke="black" points="673,-502 673,-532 830,-532 830,-502 673,-502"/>
<text text-anchor="start" x="681" y="-520" font-family="Helvetica,sans-Serif" font-size="10.00">v8::internal::torque</text>
<text text-anchor="middle" x="751.5" y="-509" font-family="Helvetica,sans-Serif" font-size="10.00">::TypeOracle::GetRawPtrType</text>
</a>
</g>
</g>
<!-- Node11&#45;&gt;Node24 -->
<g id="edge32" class="edge">
<title>Node11&#45;&gt;Node24</title>
<path fill="none" stroke="midnightblue" d="M340.57,-589.42C365.38,-585.02 395.18,-579.74 422,-575 503.64,-560.56 596.69,-544.14 662.87,-532.46"/>
<polygon fill="midnightblue" stroke="midnightblue" points="663.6,-535.88 672.84,-530.7 662.39,-528.99 663.6,-535.88"/>
</g>
<!-- Node25 -->
<g id="node24" class="node">
<title>Node25</title>
<g id="a_node24"><a xlink:href="classv8_1_1internal_1_1torque_1_1TypeOracle.html#a57be7e072d645cb2f0cfa2b0ed6083b7" target="_top" xlink:title=" ">
<polygon fill="white" stroke="black" points="673,-453 673,-483 830,-483 830,-453 673,-453"/>
<text text-anchor="start" x="681" y="-471" font-family="Helvetica,sans-Serif" font-size="10.00">v8::internal::torque</text>
<text text-anchor="middle" x="751.5" y="-460" font-family="Helvetica,sans-Serif" font-size="10.00">::TypeOracle::GetTaggedType</text>
</a>
</g>
</g>
<!-- Node11&#45;&gt;Node25 -->
<g id="edge34" class="edge">
<title>Node11&#45;&gt;Node25</title>
<path fill="none" stroke="midnightblue" d="M313.95,-583.87C340.75,-569.72 383.07,-549.03 422,-537 504.73,-511.44 529.76,-524.02 614,-504 630.28,-500.13 633.88,-497.47 650,-493 659.07,-490.49 668.63,-487.96 678.1,-485.53"/>
<polygon fill="midnightblue" stroke="midnightblue" points="679.08,-488.89 687.91,-483.03 677.36,-482.1 679.08,-488.89"/>
</g>
<!-- Node26 -->
<g id="node25" class="node">
<title>Node26</title>
<g id="a_node25"><a xlink:href="classv8_1_1internal_1_1torque_1_1TypeOracle.html#a77cea4f1dac65ae9ac4cfcfb160aee56" target="_top" xlink:title=" ">
<polygon fill="white" stroke="black" points="422,-464 422,-494 614,-494 614,-464 422,-464"/>
<text text-anchor="start" x="430" y="-482" font-family="Helvetica,sans-Serif" font-size="10.00">v8::internal::torque</text>
<text text-anchor="middle" x="518" y="-471" font-family="Helvetica,sans-Serif" font-size="10.00">::TypeOracle::GetTrustedPointerType</text>
</a>
</g>
</g>
<!-- Node11&#45;&gt;Node26 -->
<g id="edge36" class="edge">
<title>Node11&#45;&gt;Node26</title>
<path fill="none" stroke="midnightblue" d="M305.66,-583.74C331,-564.16 377.67,-530.2 422,-509 431.01,-504.69 440.79,-500.8 450.53,-497.36"/>
<polygon fill="midnightblue" stroke="midnightblue" points="451.89,-500.59 460.24,-494.06 449.64,-493.96 451.89,-500.59"/>
</g>
<!-- Node27 -->
<g id="node26" class="node">
<title>Node27</title>
<g id="a_node26"><a xlink:href="classv8_1_1internal_1_1torque_1_1TypeOracle.html#a68193823390f40c75daec282262d1569" target="_top" xlink:title=" ">
<polygon fill="white" stroke="black" points="440.5,-415 440.5,-445 595.5,-445 595.5,-415 440.5,-415"/>
<text text-anchor="start" x="448.5" y="-433" font-family="Helvetica,sans-Serif" font-size="10.00">v8::internal::torque</text>
<text text-anchor="middle" x="518" y="-422" font-family="Helvetica,sans-Serif" font-size="10.00">::TypeOracle::GetUint16Type</text>
</a>
</g>
</g>
<!-- Node11&#45;&gt;Node27 -->
<g id="edge38" class="edge">
<title>Node11&#45;&gt;Node27</title>
<path fill="none" stroke="midnightblue" d="M296.42,-583.74C316.46,-554.19 364.76,-489.04 422,-455 425.63,-452.84 429.44,-450.87 433.37,-449.06"/>
<polygon fill="midnightblue" stroke="midnightblue" points="434.85,-452.24 442.72,-445.15 432.15,-445.78 434.85,-452.24"/>
</g>
<!-- Node28 -->
<g id="node27" class="node">
<title>Node28</title>
<g id="a_node27"><a xlink:href="classv8_1_1internal_1_1torque_1_1TypeOracle.html#aba390d31ec42712830b100c2032fdd43" target="_top" xlink:title=" ">
<polygon fill="white" stroke="black" points="440.5,-366 440.5,-396 595.5,-396 595.5,-366 440.5,-366"/>
<text text-anchor="start" x="448.5" y="-384" font-family="Helvetica,sans-Serif" font-size="10.00">v8::internal::torque</text>
<text text-anchor="middle" x="518" y="-373" font-family="Helvetica,sans-Serif" font-size="10.00">::TypeOracle::GetUint32Type</text>
</a>
</g>
</g>
<!-- Node11&#45;&gt;Node28 -->
<g id="edge40" class="edge">
<title>Node11&#45;&gt;Node28</title>
<path fill="none" stroke="midnightblue" d="M292.63,-583.98C308.33,-547.48 353.62,-453.59 422,-406 424.89,-403.99 427.93,-402.14 431.07,-400.44"/>
<polygon fill="midnightblue" stroke="midnightblue" points="432.71,-403.54 440.19,-396.04 429.67,-397.24 432.71,-403.54"/>
</g>
<!-- Node29 -->
<g id="node28" class="node">
<title>Node29</title>
<g id="a_node28"><a xlink:href="classv8_1_1internal_1_1torque_1_1TypeOracle.html#aaf6daedc6d17226add094ac2759e1d73" target="_top" xlink:title=" ">
<polygon fill="white" stroke="black" points="443.5,-317 443.5,-347 592.5,-347 592.5,-317 443.5,-317"/>
<text text-anchor="start" x="451.5" y="-335" font-family="Helvetica,sans-Serif" font-size="10.00">v8::internal::torque</text>
<text text-anchor="middle" x="518" y="-324" font-family="Helvetica,sans-Serif" font-size="10.00">::TypeOracle::GetUint8Type</text>
</a>
</g>
</g>
<!-- Node11&#45;&gt;Node29 -->
<g id="edge42" class="edge">
<title>Node11&#45;&gt;Node29</title>
<path fill="none" stroke="midnightblue" d="M290.48,-583.75C302.47,-540.92 342.43,-418.61 422,-357 425.66,-354.16 429.62,-351.65 433.77,-349.41"/>
<polygon fill="midnightblue" stroke="midnightblue" points="435.58,-352.43 443.1,-344.97 432.57,-346.11 435.58,-352.43"/>
</g>
<!-- Node30 -->
<g id="node29" class="node">
<title>Node30</title>
<g id="a_node29"><a xlink:href="classv8_1_1internal_1_1torque_1_1TypeOracle.html#aee614132c024ffb16e4b2b8884243346" target="_top" xlink:title=" ">
<polygon fill="white" stroke="black" points="440,-268 440,-298 596,-298 596,-268 440,-268"/>
<text text-anchor="start" x="448" y="-286" font-family="Helvetica,sans-Serif" font-size="10.00">v8::internal::torque</text>
<text text-anchor="middle" x="518" y="-275" font-family="Helvetica,sans-Serif" font-size="10.00">::TypeOracle::GetUIntPtrType</text>
</a>
</g>
</g>
<!-- Node11&#45;&gt;Node30 -->
<g id="edge44" class="edge">
<title>Node11&#45;&gt;Node30</title>
<path fill="none" stroke="midnightblue" d="M288.92,-583.91C297.44,-535.73 330.7,-384.3 422,-308 424.77,-305.69 427.72,-303.59 430.82,-301.68"/>
<polygon fill="midnightblue" stroke="midnightblue" points="432.74,-304.62 439.88,-296.79 429.42,-298.46 432.74,-304.62"/>
</g>
<!-- Node31 -->
<g id="node30" class="node">
<title>Node31</title>
<g id="a_node30"><a xlink:href="classv8_1_1internal_1_1torque_1_1TypeOracle.html#a5bb87e62002ead7be1c1f72476904d36" target="_top" xlink:title=" ">
<polygon fill="white" stroke="black" points="446.5,-219 446.5,-249 589.5,-249 589.5,-219 446.5,-219"/>
<text text-anchor="start" x="454.5" y="-237" font-family="Helvetica,sans-Serif" font-size="10.00">v8::internal::torque</text>
<text text-anchor="middle" x="518" y="-226" font-family="Helvetica,sans-Serif" font-size="10.00">::TypeOracle::GetVoidType</text>
</a>
</g>
</g>
<!-- Node11&#45;&gt;Node31 -->
<g id="edge46" class="edge">
<title>Node11&#45;&gt;Node31</title>
<path fill="none" stroke="midnightblue" d="M287.82,-583.73C293.3,-530.31 318.98,-350.17 422,-259 426.5,-255.02 431.56,-251.66 436.94,-248.82"/>
<polygon fill="midnightblue" stroke="midnightblue" points="438.64,-251.9 446.26,-244.54 435.71,-245.54 438.64,-251.9"/>
</g>
<!-- Node32 -->
<g id="node31" class="node">
<title>Node32</title>
<g id="a_node31"><a xlink:href="classv8_1_1internal_1_1torque_1_1TargetArchitecture.html#a0a012f01e0e87ee39702ae02cd49d8fa" target="_top" xlink:title=" ">
<polygon fill="white" stroke="black" points="456,-158.5 456,-199.5 580,-199.5 580,-158.5 456,-158.5"/>
<text text-anchor="start" x="464" y="-187.5" font-family="Helvetica,sans-Serif" font-size="10.00">v8::internal::torque</text>
<text text-anchor="start" x="464" y="-176.5" font-family="Helvetica,sans-Serif" font-size="10.00">::TargetArchitecture</text>
<text text-anchor="middle" x="518" y="-165.5" font-family="Helvetica,sans-Serif" font-size="10.00">::ProtectedPointerSize</text>
</a>
</g>
</g>
<!-- Node11&#45;&gt;Node32 -->
<g id="edge48" class="edge">
<title>Node11&#45;&gt;Node32</title>
<path fill="none" stroke="midnightblue" d="M287.16,-583.84C290.51,-526.37 310.17,-319.65 422,-210 428.9,-203.24 437.28,-197.95 446.19,-193.82"/>
<polygon fill="midnightblue" stroke="midnightblue" points="447.72,-196.98 455.62,-189.92 445.04,-190.51 447.72,-196.98"/>
</g>
<!-- Node33 -->
<g id="node32" class="node">
<title>Node33</title>
<g id="a_node32"><a xlink:href="classv8_1_1internal_1_1torque_1_1TargetArchitecture.html#a9fb427c56fdc46fa1a7ceb40cd06e8ac" target="_top" xlink:title=" ">
<polygon fill="white" stroke="black" points="695.5,-158.5 695.5,-199.5 807.5,-199.5 807.5,-158.5 695.5,-158.5"/>
<text text-anchor="start" x="703.5" y="-187.5" font-family="Helvetica,sans-Serif" font-size="10.00">v8::internal::torque</text>
<text text-anchor="start" x="703.5" y="-176.5" font-family="Helvetica,sans-Serif" font-size="10.00">::TargetArchitecture</text>
<text text-anchor="middle" x="751.5" y="-165.5" font-family="Helvetica,sans-Serif" font-size="10.00">::TaggedSize</text>
</a>
</g>
</g>
<!-- Node11&#45;&gt;Node33 -->
<g id="edge54" class="edge">
<title>Node11&#45;&gt;Node33</title>
<path fill="none" stroke="midnightblue" d="M288.67,-583.7C299.27,-511.24 348.17,-203.88 422,-149 502.88,-88.88 627.79,-125.59 697.98,-154.41"/>
<polygon fill="midnightblue" stroke="midnightblue" points="696.93,-157.77 707.51,-158.42 699.64,-151.32 696.93,-157.77"/>
</g>
<!-- Node34 -->
<g id="node33" class="node">
<title>Node34</title>
<g id="a_node33"><a xlink:href="classv8_1_1internal_1_1torque_1_1TargetArchitecture.html#a4a25da395bd8ed6a2d45aa0acdd7b27f" target="_top" xlink:title=" ">
<polygon fill="white" stroke="black" points="462,-60.5 462,-101.5 574,-101.5 574,-60.5 462,-60.5"/>
<text text-anchor="start" x="470" y="-89.5" font-family="Helvetica,sans-Serif" font-size="10.00">v8::internal::torque</text>
<text text-anchor="start" x="470" y="-78.5" font-family="Helvetica,sans-Serif" font-size="10.00">::TargetArchitecture</text>
<text text-anchor="middle" x="518" y="-67.5" font-family="Helvetica,sans-Serif" font-size="10.00">::RawPtrSize</text>
</a>
</g>
</g>
<!-- Node11&#45;&gt;Node34 -->
<g id="edge51" class="edge">
<title>Node11&#45;&gt;Node34</title>
<path fill="none" stroke="midnightblue" d="M286.1,-583.67C285.23,-518.12 290.53,-258.36 422,-116 430.2,-107.12 440.85,-100.49 452.03,-95.53"/>
<polygon fill="midnightblue" stroke="midnightblue" points="453.52,-98.71 461.52,-91.76 450.93,-92.21 453.52,-98.71"/>
</g>
<!-- Node35 -->
<g id="node34" class="node">
<title>Node35</title>
<g id="a_node34"><a xlink:href="classv8_1_1internal_1_1torque_1_1TargetArchitecture.html#a78c1b75d9cda56b3cb7ec554cf60adc2" target="_top" xlink:title=" ">
<polygon fill="white" stroke="black" points="461.5,-0.5 461.5,-41.5 574.5,-41.5 574.5,-0.5 461.5,-0.5"/>
<text text-anchor="start" x="469.5" y="-29.5" font-family="Helvetica,sans-Serif" font-size="10.00">v8::internal::torque</text>
<text text-anchor="start" x="469.5" y="-18.5" font-family="Helvetica,sans-Serif" font-size="10.00">::TargetArchitecture</text>
<text text-anchor="middle" x="518" y="-7.5" font-family="Helvetica,sans-Serif" font-size="10.00">::TrustedPointerSize</text>
</a>
</g>
</g>
<!-- Node11&#45;&gt;Node35 -->
<g id="edge55" class="edge">
<title>Node11&#45;&gt;Node35</title>
<path fill="none" stroke="midnightblue" d="M288.23,-583.95C297.69,-504.32 345.46,-132.56 422,-51 430.14,-42.33 440.76,-36.15 451.93,-31.75"/>
<polygon fill="midnightblue" stroke="midnightblue" points="453.12,-35.05 461.42,-28.46 450.82,-28.44 453.12,-35.05"/>
</g>
<!-- Node13 -->
<g id="node12" class="node">
<title>Node13</title>
<g id="a_node12"><a xlink:href="classv8_1_1base_1_1ContextualVariable.html#a607480951af48e066ea9236f3d6af928" target="_top" xlink:title=" ">
<polygon fill="white" stroke="black" points="889,-531.5 889,-550.5 1069,-550.5 1069,-531.5 889,-531.5"/>
<text text-anchor="middle" x="979" y="-538.5" font-family="Helvetica,sans-Serif" font-size="10.00">v8::base::ContextualVariable::Get</text>
</a>
</g>
</g>
<!-- Node12&#45;&gt;Node13 -->
<g id="edge11" class="edge">
<title>Node12&#45;&gt;Node13</title>
<path fill="none" stroke="midnightblue" d="M812.59,-1077.83C827.51,-1073.38 842.28,-1066.29 853,-1055 923.44,-980.83 965.94,-646.55 975.79,-560.99"/>
<polygon fill="midnightblue" stroke="midnightblue" points="979.29,-561.15 976.94,-550.82 972.34,-560.37 979.29,-561.15"/>
</g>
<!-- Node14&#45;&gt;Node13 -->
<g id="edge13" class="edge">
<title>Node14&#45;&gt;Node13</title>
<path fill="none" stroke="midnightblue" d="M810.53,-1018.14C826.06,-1013.74 841.66,-1006.58 853,-995 916.09,-930.54 963.28,-639.93 975.12,-560.89"/>
<polygon fill="midnightblue" stroke="midnightblue" points="978.61,-561.22 976.6,-550.82 971.68,-560.2 978.61,-561.22"/>
</g>
<!-- Node15&#45;&gt;Node13 -->
<g id="edge15" class="edge">
<title>Node15&#45;&gt;Node13</title>
<path fill="none" stroke="midnightblue" d="M840.93,-954.97C845.27,-952.4 849.33,-949.43 853,-946 968.24,-838.02 978.11,-626.45 978.29,-560.87"/>
<polygon fill="midnightblue" stroke="midnightblue" points="981.79,-560.67 978.24,-550.68 974.79,-560.7 981.79,-560.67"/>
</g>
<!-- Node16&#45;&gt;Node13 -->
<g id="edge17" class="edge">
<title>Node16&#45;&gt;Node13</title>
<path fill="none" stroke="midnightblue" d="M838.91,-905.97C843.98,-903.17 848.74,-899.87 853,-896 955.41,-802.87 973.92,-620.77 977.27,-560.73"/>
<polygon fill="midnightblue" stroke="midnightblue" points="980.76,-560.85 977.74,-550.69 973.77,-560.52 980.76,-560.85"/>
</g>
<!-- Node17&#45;&gt;Node13 -->
<g id="edge19" class="edge">
<title>Node17&#45;&gt;Node13</title>
<path fill="none" stroke="midnightblue" d="M840.14,-845.37C844.73,-842.63 849.07,-839.52 853,-836 938.92,-759.1 967.65,-613.32 975.48,-560.62"/>
<polygon fill="midnightblue" stroke="midnightblue" points="978.96,-560.98 976.88,-550.59 972.03,-560.01 978.96,-560.98"/>
</g>
<!-- Node18&#45;&gt;Node13 -->
<g id="edge21" class="edge">
<title>Node18&#45;&gt;Node13</title>
<path fill="none" stroke="midnightblue" d="M831.1,-799.46C838.96,-796.24 846.45,-792.16 853,-787 929.45,-726.74 963.29,-607.14 974,-560.38"/>
<polygon fill="midnightblue" stroke="midnightblue" points="977.42,-561.12 976.14,-550.61 970.58,-559.63 977.42,-561.12"/>
</g>
<!-- Node19&#45;&gt;Node13 -->
<g id="edge23" class="edge">
<title>Node19&#45;&gt;Node13</title>
<path fill="none" stroke="midnightblue" d="M825.18,-751.81C835.08,-748.43 844.68,-743.94 853,-738 917.93,-691.66 956.94,-600.03 971.48,-560.22"/>
<polygon fill="midnightblue" stroke="midnightblue" points="974.83,-561.24 974.86,-550.65 968.23,-558.91 974.83,-561.24"/>
</g>
<!-- Node20&#45;&gt;Node13 -->
<g id="edge25" class="edge">
<title>Node20&#45;&gt;Node13</title>
<path fill="none" stroke="midnightblue" d="M825.01,-701.59C834.83,-698.38 844.45,-694.27 853,-689 906.98,-655.76 949.24,-591.23 967.77,-559.51"/>
<polygon fill="midnightblue" stroke="midnightblue" points="970.83,-561.21 972.75,-550.79 964.75,-557.74 970.83,-561.21"/>
</g>
<!-- Node21&#45;&gt;Node13 -->
<g id="edge27" class="edge">
<title>Node21&#45;&gt;Node13</title>
<path fill="none" stroke="midnightblue" d="M822,-651.61C832.65,-648.52 843.32,-644.7 853,-640 896.69,-618.78 939.21,-580.14 961.64,-557.93"/>
<polygon fill="midnightblue" stroke="midnightblue" points="964.4,-560.12 968.96,-550.56 959.43,-555.19 964.4,-560.12"/>
</g>
<!-- Node22&#45;&gt;Node13 -->
<g id="edge29" class="edge">
<title>Node22&#45;&gt;Node13</title>
<path fill="none" stroke="midnightblue" d="M821.26,-600C831.95,-597.26 842.83,-594.23 853,-591 885.84,-580.57 922.31,-565.57 947.34,-554.72"/>
<polygon fill="midnightblue" stroke="midnightblue" points="948.91,-557.86 956.67,-550.64 946.11,-551.45 948.91,-557.86"/>
</g>
<!-- Node23&#45;&gt;Node13 -->
<g id="edge31" class="edge">
<title>Node23&#45;&gt;Node13</title>
<path fill="none" stroke="midnightblue" d="M853.05,-554.85C862.73,-553.78 872.52,-552.69 882.15,-551.63"/>
<polygon fill="midnightblue" stroke="midnightblue" points="882.56,-555.1 892.11,-550.52 881.79,-548.15 882.56,-555.1"/>
</g>
<!-- Node24&#45;&gt;Node13 -->
<g id="edge33" class="edge">
<title>Node24&#45;&gt;Node13</title>
<path fill="none" stroke="midnightblue" d="M830.1,-525.26C845.72,-526.92 862.33,-528.69 878.57,-530.42"/>
<polygon fill="midnightblue" stroke="midnightblue" points="878.31,-533.91 888.62,-531.49 879.05,-526.95 878.31,-533.91"/>
</g>
<!-- Node25&#45;&gt;Node13 -->
<g id="edge35" class="edge">
<title>Node25&#45;&gt;Node13</title>
<path fill="none" stroke="midnightblue" d="M817.97,-483.05C829.7,-486.1 841.77,-489.46 853,-493 885.3,-503.18 921.31,-517.31 946.35,-527.61"/>
<polygon fill="midnightblue" stroke="midnightblue" points="945.13,-530.89 955.71,-531.49 947.81,-524.42 945.13,-530.89"/>
</g>
<!-- Node26&#45;&gt;Node13 -->
<g id="edge37" class="edge">
<title>Node26&#45;&gt;Node13</title>
<path fill="none" stroke="midnightblue" d="M580.44,-463.95C591.63,-461.07 603.19,-458.02 614,-455 630.12,-450.51 633.45,-446.47 650,-444 739.23,-430.67 767.65,-414.77 853,-444 899.26,-459.84 941.63,-500.55 963.15,-523.89"/>
<polygon fill="midnightblue" stroke="midnightblue" points="960.57,-526.26 969.86,-531.35 965.77,-521.57 960.57,-526.26"/>
</g>
<!-- Node27&#45;&gt;Node13 -->
<g id="edge39" class="edge">
<title>Node27&#45;&gt;Node13</title>
<path fill="none" stroke="midnightblue" d="M580.02,-414.95C648.97,-401.02 763.26,-387.33 853,-423 903.83,-443.2 945.95,-494.96 965.78,-522.74"/>
<polygon fill="midnightblue" stroke="midnightblue" points="963.05,-524.94 971.63,-531.16 968.79,-520.95 963.05,-524.94"/>
</g>
<!-- Node28&#45;&gt;Node13 -->
<g id="edge41" class="edge">
<title>Node28&#45;&gt;Node13</title>
<path fill="none" stroke="midnightblue" d="M595.81,-367.85C666.36,-359.5 771.94,-356.63 853,-396 909.63,-423.5 950.89,-489.68 968.52,-522.25"/>
<polygon fill="midnightblue" stroke="midnightblue" points="965.47,-523.98 973.23,-531.2 971.67,-520.72 965.47,-523.98"/>
</g>
<!-- Node29&#45;&gt;Node13 -->
<g id="edge43" class="edge">
<title>Node29&#45;&gt;Node13</title>
<path fill="none" stroke="midnightblue" d="M592.72,-320.35C664.19,-312.86 773.21,-311.83 853,-358 918.14,-395.7 956.71,-482.63 971.29,-521.55"/>
<polygon fill="midnightblue" stroke="midnightblue" points="968.08,-522.95 974.76,-531.17 974.66,-520.57 968.08,-522.95"/>
</g>
<!-- Node30&#45;&gt;Node13 -->
<g id="edge45" class="edge">
<title>Node30&#45;&gt;Node13</title>
<path fill="none" stroke="midnightblue" d="M596.24,-270.19C668.56,-262.43 776.63,-262.09 853,-312 929.71,-362.13 963.24,-476.06 973.93,-521.63"/>
<polygon fill="midnightblue" stroke="midnightblue" points="970.53,-522.44 976.12,-531.43 977.36,-520.91 970.53,-522.44"/>
</g>
<!-- Node31&#45;&gt;Node13 -->
<g id="edge47" class="edge">
<title>Node31&#45;&gt;Node13</title>
<path fill="none" stroke="midnightblue" d="M589.58,-220.55C662.42,-210.77 775.97,-207.4 853,-262 942.76,-325.62 969.12,-469.14 975.89,-521.45"/>
<polygon fill="midnightblue" stroke="midnightblue" points="972.42,-521.91 977.09,-531.43 979.38,-521.08 972.42,-521.91"/>
</g>
<!-- Node32&#45;&gt;Node33 -->
<g id="edge49" class="edge">
<title>Node32&#45;&gt;Node33</title>
<path fill="none" stroke="midnightblue" d="M580.13,-179C612.54,-179 652.37,-179 685.37,-179"/>
<polygon fill="midnightblue" stroke="midnightblue" points="685.37,-182.5 695.37,-179 685.37,-175.5 685.37,-182.5"/>
</g>
<!-- Node33&#45;&gt;Node13 -->
<g id="edge50" class="edge">
<title>Node33&#45;&gt;Node13</title>
<path fill="none" stroke="midnightblue" d="M807.64,-192.41C823.9,-198.59 840.64,-207.44 853,-220 940.53,-308.94 968.42,-466.15 975.74,-521.25"/>
<polygon fill="midnightblue" stroke="midnightblue" points="972.29,-521.91 977,-531.4 979.24,-521.04 972.29,-521.91"/>
</g>
<!-- Node34&#45;&gt;Node13 -->
<g id="edge52" class="edge">
<title>Node34&#45;&gt;Node13</title>
<path fill="none" stroke="midnightblue" d="M574.07,-76.38C647.06,-73.4 775.6,-79.53 853,-149 966.84,-251.18 977.69,-456.7 978.2,-521.18"/>
<polygon fill="midnightblue" stroke="midnightblue" points="974.7,-521.22 978.2,-531.22 981.7,-521.22 974.7,-521.22"/>
</g>
<!-- Node35&#45;&gt;Node13 -->
<g id="edge56" class="edge">
<title>Node35&#45;&gt;Node13</title>
<path fill="none" stroke="midnightblue" d="M574.59,-12.77C647.85,-5.26 776.4,-4.16 853,-73 922.16,-135.15 965.1,-439.11 975.52,-520.77"/>
<polygon fill="midnightblue" stroke="midnightblue" points="972.11,-521.66 976.82,-531.15 979.05,-520.79 972.11,-521.66"/>
</g>
</g>
</svg>
        <g id="navigator" transform="translate(0 0)" fill="#404254">
                <rect fill="#f2f5e9" fill-opacity="0.5" stroke="#606060" stroke-width=".5" x="0" y="0" width="60" height="60"/>
                <use id="zoomplus" xlink:href="#zoomPlus" x="17" y="9" onmousedown="handleZoom(evt,'in')"/>
                <use id="zoomminus" xlink:href="#zoomMin" x="42" y="9" onmousedown="handleZoom(evt,'out')"/>
                <use id="reset" xlink:href="#resetDef" x="30" y="36" onmousedown="handleReset()"/>
                <g id="arrowUp" xlink:href="#dirArrow" transform="translate(30 24)" onmousedown="handlePan(0,-1)">
                  <use xlink:href="#rim" fill="#404040">
                        <set attributeName="fill" to="#808080" begin="arrowUp.mouseover" end="arrowUp.mouseout"/>
                  </use>
                  <path fill="none" stroke="white" stroke-width="1.5" d="M0,-3.0v7 M-2.5,-0.5L0,-3.0L2.5,-0.5"/>
                </g>
                <g id="arrowRight" xlink:href="#dirArrow" transform="rotate(90) translate(36 -43)" onmousedown="handlePan(1,0)">
                  <use xlink:href="#rim" fill="#404040">
                        <set attributeName="fill" to="#808080" begin="arrowRight.mouseover" end="arrowRight.mouseout"/>
                  </use>
                  <path fill="none" stroke="white" stroke-width="1.5" d="M0,-3.0v7 M-2.5,-0.5L0,-3.0L2.5,-0.5"/>
                </g>
                <g id="arrowDown" xlink:href="#dirArrow" transform="rotate(180) translate(-30 -48)" onmousedown="handlePan(0,1)">
                  <use xlink:href="#rim" fill="#404040">
                        <set attributeName="fill" to="#808080" begin="arrowDown.mouseover" end="arrowDown.mouseout"/>
                  </use>
                  <path fill="none" stroke="white" stroke-width="1.5" d="M0,-3.0v7 M-2.5,-0.5L0,-3.0L2.5,-0.5"/>
                </g>
                <g id="arrowLeft" xlink:href="#dirArrow" transform="rotate(270) translate(-36 17)" onmousedown="handlePan(-1,0)">
                  <use xlink:href="#rim" fill="#404040">
                        <set attributeName="fill" to="#808080" begin="arrowLeft.mouseover" end="arrowLeft.mouseout"/>
                  </use>
                  <path fill="none" stroke="white" stroke-width="1.5" d="M0,-3.0v7 M-2.5,-0.5L0,-3.0L2.5,-0.5"/>
                </g>
        </g>
        <svg viewBox="0 0 15 15" width="100%" height="30px" preserveAspectRatio="xMaxYMin meet">
         <g id="arrow_out" transform="scale(0.3 0.3)">
          <a xlink:href="classv8_1_1internal_1_1MarkingVisitorBase_adbedc8048ac09f3dd80c1b49f8ab03fb_cgraph_org.svg" target="_base">
           <rect id="button" ry="5" rx="5" y="6" x="6" height="38" width="38"
                fill="#f2f5e9" fill-opacity="0.5" stroke="#606060" stroke-width="1.0"/>
           <path id="arrow"
             d="M 11.500037,31.436501 C 11.940474,20.09759 22.043105,11.32322 32.158766,21.979434 L 37.068811,17.246167 C 37.068811,17.246167 37.088388,32 37.088388,32 L 22.160133,31.978069 C 22.160133,31.978069 26.997745,27.140456 26.997745,27.140456 C 18.528582,18.264221 13.291696,25.230495 11.500037,31.436501 z"
             style="fill:#404040;"/>
          </a>
         </g>
        </svg>
</svg>
