<?xml version="1.0" encoding="UTF-8" standalone="no"?>
<!DOCTYPE svg PUBLIC "-//W3C//DTD SVG 1.1//EN"
 "http://www.w3.org/Graphics/SVG/1.1/DTD/svg11.dtd">
<!-- Generated by graphviz version 2.43.0 (0)
 -->
<!-- Title: v8::internal::compiler::FrameState::outer_frame_state Pages: 1 -->
<svg width="340pt" height="127pt"
 viewBox="0.00 0.00 340.00 126.50" xmlns="http://www.w3.org/2000/svg" xmlns:xlink="http://www.w3.org/1999/xlink">
<g id="graph0" class="graph" transform="scale(1 1) rotate(0) translate(4 122.5)">
<title>v8::internal::compiler::FrameState::outer_frame_state</title>
<polygon fill="white" stroke="transparent" points="-4,4 -4,-122.5 336,-122.5 336,4 -4,4"/>
<!-- Node1 -->
<g id="node1" class="node">
<title>Node1</title>
<g id="a_node1"><a xlink:title=" ">
<polygon fill="#bfbfbf" stroke="black" points="0,-49.5 0,-79.5 175,-79.5 175,-49.5 0,-49.5"/>
<text text-anchor="start" x="8" y="-67.5" font-family="Helvetica,sans-Serif" font-size="10.00">v8::internal::compiler</text>
<text text-anchor="middle" x="87.5" y="-56.5" font-family="Helvetica,sans-Serif" font-size="10.00">::FrameState::outer_frame_state</text>
</a>
</g>
</g>
<!-- Node2 -->
<g id="node2" class="node">
<title>Node2</title>
<g id="a_node2"><a xlink:href="namespacev8_1_1internal.html#aa6b3743bd5d773c552654f2a6c3efa4a" target="_top" xlink:title=" ">
<polygon fill="white" stroke="black" points="212,-99 212,-118 331,-118 331,-99 212,-99"/>
<text text-anchor="middle" x="271.5" y="-106" font-family="Helvetica,sans-Serif" font-size="10.00">v8::internal::DCHECK</text>
</a>
</g>
</g>
<!-- Node1&#45;&gt;Node2 -->
<g id="edge1" class="edge">
<title>Node1&#45;&gt;Node2</title>
<path fill="none" stroke="midnightblue" d="M150.63,-79.52C173.65,-85.09 199.43,-91.32 221.16,-96.57"/>
<polygon fill="midnightblue" stroke="midnightblue" points="220.61,-100.04 231.15,-98.99 222.26,-93.24 220.61,-100.04"/>
</g>
<!-- Node3 -->
<g id="node3" class="node">
<title>Node3</title>
<g id="a_node3"><a xlink:href="classv8_1_1internal_1_1compiler_1_1Node.html#a01f11c63a02469daba1e55c2bba16f05" target="_top" xlink:title=" ">
<polygon fill="white" stroke="black" points="211,-49.5 211,-79.5 332,-79.5 332,-49.5 211,-49.5"/>
<text text-anchor="start" x="219" y="-67.5" font-family="Helvetica,sans-Serif" font-size="10.00">v8::internal::compiler</text>
<text text-anchor="middle" x="271.5" y="-56.5" font-family="Helvetica,sans-Serif" font-size="10.00">::Node::InputAt</text>
</a>
</g>
</g>
<!-- Node1&#45;&gt;Node3 -->
<g id="edge2" class="edge">
<title>Node1&#45;&gt;Node3</title>
<path fill="none" stroke="midnightblue" d="M175.24,-64.5C183.83,-64.5 192.47,-64.5 200.86,-64.5"/>
<polygon fill="midnightblue" stroke="midnightblue" points="200.94,-68 210.94,-64.5 200.94,-61 200.94,-68"/>
</g>
<!-- Node4 -->
<g id="node4" class="node">
<title>Node4</title>
<g id="a_node4"><a xlink:href="classv8_1_1internal_1_1compiler_1_1NodeWrapper.html#aabd632600eee664601a76a25a9f562ef" target="_top" xlink:title=" ">
<polygon fill="white" stroke="black" points="211,-0.5 211,-30.5 332,-30.5 332,-0.5 211,-0.5"/>
<text text-anchor="start" x="219" y="-18.5" font-family="Helvetica,sans-Serif" font-size="10.00">v8::internal::compiler</text>
<text text-anchor="middle" x="271.5" y="-7.5" font-family="Helvetica,sans-Serif" font-size="10.00">::NodeWrapper::node</text>
</a>
</g>
</g>
<!-- Node1&#45;&gt;Node4 -->
<g id="edge3" class="edge">
<title>Node1&#45;&gt;Node4</title>
<path fill="none" stroke="midnightblue" d="M144.59,-49.4C163.62,-44.27 185.06,-38.5 204.77,-33.2"/>
<polygon fill="midnightblue" stroke="midnightblue" points="205.85,-36.53 214.59,-30.55 204.03,-29.77 205.85,-36.53"/>
</g>
</g>
</svg>
