<?xml version="1.0" encoding="UTF-8" standalone="no"?>
<!DOCTYPE svg PUBLIC "-//W3C//DTD SVG 1.1//EN"
 "http://www.w3.org/Graphics/SVG/1.1/DTD/svg11.dtd">
<!-- Generated by graphviz version 2.43.0 (0)
 -->
<!-- Title: v8::internal::compiler::turboshaft::GraphVisitor::MapToNewGraph Pages: 1 -->
<svg width="586pt" height="628pt"
 viewBox="0.00 0.00 586.00 628.00" xmlns="http://www.w3.org/2000/svg" xmlns:xlink="http://www.w3.org/1999/xlink">
<g id="graph0" class="graph" transform="scale(1 1) rotate(0) translate(4 624)">
<title>v8::internal::compiler::turboshaft::GraphVisitor::MapToNewGraph</title>
<polygon fill="white" stroke="transparent" points="-4,4 -4,-624 582,-624 582,4 -4,4"/>
<!-- Node1 -->
<g id="node1" class="node">
<title>Node1</title>
<g id="a_node1"><a xlink:title=" ">
<polygon fill="#bfbfbf" stroke="black" points="439,-300.5 439,-341.5 578,-341.5 578,-300.5 439,-300.5"/>
<text text-anchor="start" x="447" y="-329.5" font-family="Helvetica,sans-Serif" font-size="10.00">v8::internal::compiler</text>
<text text-anchor="start" x="447" y="-318.5" font-family="Helvetica,sans-Serif" font-size="10.00">::turboshaft::GraphVisitor</text>
<text text-anchor="middle" x="508.5" y="-307.5" font-family="Helvetica,sans-Serif" font-size="10.00">::MapToNewGraph</text>
</a>
</g>
</g>
<!-- Node2 -->
<g id="node2" class="node">
<title>Node2</title>
<g id="a_node2"><a xlink:href="classv8_1_1internal_1_1compiler_1_1turboshaft_1_1GraphVisitor.html#a286b6f031c2d070465e48c37acc4c410" target="_top" xlink:title=" ">
<polygon fill="white" stroke="black" points="214,-578.5 214,-619.5 381,-619.5 381,-578.5 214,-578.5"/>
<text text-anchor="start" x="222" y="-607.5" font-family="Helvetica,sans-Serif" font-size="10.00">v8::internal::compiler</text>
<text text-anchor="start" x="222" y="-596.5" font-family="Helvetica,sans-Serif" font-size="10.00">::turboshaft::GraphVisitor</text>
<text text-anchor="middle" x="297.5" y="-585.5" font-family="Helvetica,sans-Serif" font-size="10.00">::AssembleOutputGraphBranch</text>
</a>
</g>
</g>
<!-- Node1&#45;&gt;Node2 -->
<g id="edge1" class="edge">
<title>Node1&#45;&gt;Node2</title>
<path fill="none" stroke="midnightblue" d="M503.21,-351.82C494.27,-404.23 468.72,-510.69 403,-569 396.58,-574.7 389.13,-579.32 381.24,-583.07"/>
<polygon fill="midnightblue" stroke="midnightblue" points="506.69,-352.22 504.83,-341.79 499.78,-351.11 506.69,-352.22"/>
</g>
<!-- Node3 -->
<g id="node3" class="node">
<title>Node3</title>
<g id="a_node3"><a xlink:href="classv8_1_1internal_1_1compiler_1_1turboshaft_1_1GraphVisitor.html#a44f6ddb018827181ed09d6ceea5fec42" target="_top" xlink:title=" ">
<polygon fill="white" stroke="black" points="221.5,-518.5 221.5,-559.5 373.5,-559.5 373.5,-518.5 221.5,-518.5"/>
<text text-anchor="start" x="229.5" y="-547.5" font-family="Helvetica,sans-Serif" font-size="10.00">v8::internal::compiler</text>
<text text-anchor="start" x="229.5" y="-536.5" font-family="Helvetica,sans-Serif" font-size="10.00">::turboshaft::GraphVisitor</text>
<text text-anchor="middle" x="297.5" y="-525.5" font-family="Helvetica,sans-Serif" font-size="10.00">::AssembleOutputGraphCall</text>
</a>
</g>
</g>
<!-- Node1&#45;&gt;Node3 -->
<g id="edge2" class="edge">
<title>Node1&#45;&gt;Node3</title>
<path fill="none" stroke="midnightblue" d="M498.76,-351.32C485.18,-393.05 454.99,-467.68 403,-509 394.36,-515.87 384.2,-521.17 373.69,-525.25"/>
<polygon fill="midnightblue" stroke="midnightblue" points="502.13,-352.3 501.79,-341.71 495.45,-350.2 502.13,-352.3"/>
</g>
<!-- Node4 -->
<g id="node4" class="node">
<title>Node4</title>
<g id="a_node4"><a xlink:href="classv8_1_1internal_1_1compiler_1_1turboshaft_1_1GraphVisitor.html#a0e0bc832161fd4a1ba63b936d0a1fea8" target="_top" xlink:title=" ">
<polygon fill="white" stroke="black" points="192,-458.5 192,-499.5 403,-499.5 403,-458.5 192,-458.5"/>
<text text-anchor="start" x="200" y="-487.5" font-family="Helvetica,sans-Serif" font-size="10.00">v8::internal::compiler</text>
<text text-anchor="start" x="200" y="-476.5" font-family="Helvetica,sans-Serif" font-size="10.00">::turboshaft::GraphVisitor</text>
<text text-anchor="middle" x="297.5" y="-465.5" font-family="Helvetica,sans-Serif" font-size="10.00">::AssembleOutputGraphCheckException</text>
</a>
</g>
</g>
<!-- Node1&#45;&gt;Node4 -->
<g id="edge3" class="edge">
<title>Node1&#45;&gt;Node4</title>
<path fill="none" stroke="midnightblue" d="M489.37,-350.41C470.84,-378.2 439.65,-419.2 403,-444 394.68,-449.63 385.38,-454.42 375.85,-458.48"/>
<polygon fill="midnightblue" stroke="midnightblue" points="492.4,-352.18 494.93,-341.9 486.54,-348.36 492.4,-352.18"/>
</g>
<!-- Node5 -->
<g id="node5" class="node">
<title>Node5</title>
<g id="a_node5"><a xlink:href="classv8_1_1internal_1_1compiler_1_1turboshaft_1_1GraphVisitor.html#affa491c6c6ee525ffb2592aaa7acb41a" target="_top" xlink:title=" ">
<polygon fill="white" stroke="black" points="0,-324.5 0,-365.5 156,-365.5 156,-324.5 0,-324.5"/>
<text text-anchor="start" x="8" y="-353.5" font-family="Helvetica,sans-Serif" font-size="10.00">v8::internal::compiler</text>
<text text-anchor="start" x="8" y="-342.5" font-family="Helvetica,sans-Serif" font-size="10.00">::turboshaft::GraphVisitor</text>
<text text-anchor="middle" x="78" y="-331.5" font-family="Helvetica,sans-Serif" font-size="10.00">::AssembleOutputGraphGoto</text>
</a>
</g>
</g>
<!-- Node1&#45;&gt;Node5 -->
<g id="edge4" class="edge">
<title>Node1&#45;&gt;Node5</title>
<path fill="none" stroke="midnightblue" d="M484.73,-349.41C465.54,-370.91 435.99,-398.75 403,-411 315.09,-443.64 282.52,-435.5 192,-411 159.54,-402.22 126.85,-381.53 105.04,-365.64"/>
<polygon fill="midnightblue" stroke="midnightblue" points="487.4,-351.67 491.31,-341.82 482.12,-347.08 487.4,-351.67"/>
</g>
<!-- Node6 -->
<g id="node6" class="node">
<title>Node6</title>
<g id="a_node6"><a xlink:href="classv8_1_1internal_1_1compiler_1_1turboshaft_1_1GraphVisitor.html#a5c24447d7e70346aed1f49e928ec495c" target="_top" xlink:title=" ">
<polygon fill="white" stroke="black" points="223.5,-360.5 223.5,-401.5 371.5,-401.5 371.5,-360.5 223.5,-360.5"/>
<text text-anchor="start" x="231.5" y="-389.5" font-family="Helvetica,sans-Serif" font-size="10.00">v8::internal::compiler</text>
<text text-anchor="start" x="231.5" y="-378.5" font-family="Helvetica,sans-Serif" font-size="10.00">::turboshaft::GraphVisitor</text>
<text text-anchor="middle" x="297.5" y="-367.5" font-family="Helvetica,sans-Serif" font-size="10.00">::AssembleOutputGraphPhi</text>
</a>
</g>
</g>
<!-- Node1&#45;&gt;Node6 -->
<g id="edge5" class="edge">
<title>Node1&#45;&gt;Node6</title>
<path fill="none" stroke="midnightblue" d="M429.1,-343.51C409.75,-349.06 389.14,-354.98 370.13,-360.44"/>
<polygon fill="midnightblue" stroke="midnightblue" points="430.13,-346.85 438.78,-340.73 428.2,-340.12 430.13,-346.85"/>
</g>
<!-- Node7 -->
<g id="node7" class="node">
<title>Node7</title>
<g id="a_node7"><a xlink:href="classv8_1_1internal_1_1compiler_1_1turboshaft_1_1GraphVisitor.html#a2a346e48c9cf86bed7f5dff7737588e4" target="_top" xlink:title=" ">
<polygon fill="white" stroke="black" points="215,-300.5 215,-341.5 380,-341.5 380,-300.5 215,-300.5"/>
<text text-anchor="start" x="223" y="-329.5" font-family="Helvetica,sans-Serif" font-size="10.00">v8::internal::compiler</text>
<text text-anchor="start" x="223" y="-318.5" font-family="Helvetica,sans-Serif" font-size="10.00">::turboshaft::GraphVisitor</text>
<text text-anchor="middle" x="297.5" y="-307.5" font-family="Helvetica,sans-Serif" font-size="10.00">::AssembleOutputGraphSwitch</text>
</a>
</g>
</g>
<!-- Node1&#45;&gt;Node7 -->
<g id="edge6" class="edge">
<title>Node1&#45;&gt;Node7</title>
<path fill="none" stroke="midnightblue" d="M428.56,-321C412.8,-321 396.21,-321 380.36,-321"/>
<polygon fill="midnightblue" stroke="midnightblue" points="428.78,-324.5 438.78,-321 428.78,-317.5 428.78,-324.5"/>
</g>
<!-- Node8 -->
<g id="node8" class="node">
<title>Node8</title>
<g id="a_node8"><a xlink:href="classv8_1_1internal_1_1compiler_1_1turboshaft_1_1GraphVisitor.html#aa10e2664402f6a2a81f6df24ae159832" target="_top" xlink:title=" ">
<polygon fill="white" stroke="black" points="228,-240.5 228,-281.5 367,-281.5 367,-240.5 228,-240.5"/>
<text text-anchor="start" x="236" y="-269.5" font-family="Helvetica,sans-Serif" font-size="10.00">v8::internal::compiler</text>
<text text-anchor="start" x="236" y="-258.5" font-family="Helvetica,sans-Serif" font-size="10.00">::turboshaft::GraphVisitor</text>
<text text-anchor="middle" x="297.5" y="-247.5" font-family="Helvetica,sans-Serif" font-size="10.00">::FixLoopPhis</text>
</a>
</g>
</g>
<!-- Node1&#45;&gt;Node8 -->
<g id="edge7" class="edge">
<title>Node1&#45;&gt;Node8</title>
<path fill="none" stroke="midnightblue" d="M428.95,-298.45C408.67,-292.63 387,-286.41 367.27,-280.74"/>
<polygon fill="midnightblue" stroke="midnightblue" points="428.2,-301.88 438.78,-301.27 430.13,-295.15 428.2,-301.88"/>
</g>
<!-- Node9 -->
<g id="node9" class="node">
<title>Node9</title>
<g id="a_node9"><a xlink:href="classv8_1_1internal_1_1compiler_1_1turboshaft_1_1GraphVisitor.html#ab815e53ea31bbcbe40528d4cb8d45170" target="_top" xlink:title=" ">
<polygon fill="white" stroke="black" points="228,-180.5 228,-221.5 367,-221.5 367,-180.5 228,-180.5"/>
<text text-anchor="start" x="236" y="-209.5" font-family="Helvetica,sans-Serif" font-size="10.00">v8::internal::compiler</text>
<text text-anchor="start" x="236" y="-198.5" font-family="Helvetica,sans-Serif" font-size="10.00">::turboshaft::GraphVisitor</text>
<text text-anchor="middle" x="297.5" y="-187.5" font-family="Helvetica,sans-Serif" font-size="10.00">::MapToNewGraph</text>
</a>
</g>
</g>
<!-- Node1&#45;&gt;Node9 -->
<g id="edge9" class="edge">
<title>Node1&#45;&gt;Node9</title>
<path fill="none" stroke="midnightblue" d="M481.53,-292.91C461.74,-273.04 432.89,-247.14 403,-231 391.87,-224.99 379.41,-220.07 367.08,-216.08"/>
<polygon fill="midnightblue" stroke="midnightblue" points="479.16,-295.5 488.66,-300.2 484.17,-290.61 479.16,-295.5"/>
</g>
<!-- Node10 -->
<g id="node10" class="node">
<title>Node10</title>
<g id="a_node10"><a xlink:href="classv8_1_1internal_1_1compiler_1_1turboshaft_1_1GraphVisitor.html#a940a66e204143d91e6b53320c4e9bcae" target="_top" xlink:title=" ">
<polygon fill="white" stroke="black" points="228,-120.5 228,-161.5 367,-161.5 367,-120.5 228,-120.5"/>
<text text-anchor="start" x="236" y="-149.5" font-family="Helvetica,sans-Serif" font-size="10.00">v8::internal::compiler</text>
<text text-anchor="start" x="236" y="-138.5" font-family="Helvetica,sans-Serif" font-size="10.00">::turboshaft::GraphVisitor</text>
<text text-anchor="middle" x="297.5" y="-127.5" font-family="Helvetica,sans-Serif" font-size="10.00">::OriginForBlockStart</text>
</a>
</g>
</g>
<!-- Node1&#45;&gt;Node10 -->
<g id="edge10" class="edge">
<title>Node1&#45;&gt;Node10</title>
<path fill="none" stroke="midnightblue" d="M494.3,-290.96C477.79,-256.88 446.35,-202.01 403,-171 392.33,-163.37 379.75,-157.67 367.09,-153.42"/>
<polygon fill="midnightblue" stroke="midnightblue" points="491.32,-292.85 498.74,-300.41 497.65,-289.87 491.32,-292.85"/>
</g>
<!-- Node11 -->
<g id="node11" class="node">
<title>Node11</title>
<g id="a_node11"><a xlink:href="classv8_1_1internal_1_1compiler_1_1turboshaft_1_1GraphVisitor.html#a5d8148619459dee35980ee5f2fc533d3" target="_top" xlink:title=" ">
<polygon fill="white" stroke="black" points="228,-60.5 228,-101.5 367,-101.5 367,-60.5 228,-60.5"/>
<text text-anchor="start" x="236" y="-89.5" font-family="Helvetica,sans-Serif" font-size="10.00">v8::internal::compiler</text>
<text text-anchor="start" x="236" y="-78.5" font-family="Helvetica,sans-Serif" font-size="10.00">::turboshaft::GraphVisitor</text>
<text text-anchor="middle" x="297.5" y="-67.5" font-family="Helvetica,sans-Serif" font-size="10.00">::VisitBlock</text>
</a>
</g>
</g>
<!-- Node1&#45;&gt;Node11 -->
<g id="edge11" class="edge">
<title>Node1&#45;&gt;Node11</title>
<path fill="none" stroke="midnightblue" d="M500.6,-290.27C488.69,-244.4 459.91,-158.38 403,-111 392.7,-102.43 380.08,-96.3 367.21,-91.92"/>
<polygon fill="midnightblue" stroke="midnightblue" points="497.26,-291.36 503.08,-300.22 504.06,-289.67 497.26,-291.36"/>
</g>
<!-- Node12 -->
<g id="node12" class="node">
<title>Node12</title>
<g id="a_node12"><a xlink:href="classv8_1_1internal_1_1compiler_1_1turboshaft_1_1GraphVisitor.html#a8052248e038c99334fc5691051c11e22" target="_top" xlink:title=" ">
<polygon fill="white" stroke="black" points="228,-0.5 228,-41.5 367,-41.5 367,-0.5 228,-0.5"/>
<text text-anchor="start" x="236" y="-29.5" font-family="Helvetica,sans-Serif" font-size="10.00">v8::internal::compiler</text>
<text text-anchor="start" x="236" y="-18.5" font-family="Helvetica,sans-Serif" font-size="10.00">::turboshaft::GraphVisitor</text>
<text text-anchor="middle" x="297.5" y="-7.5" font-family="Helvetica,sans-Serif" font-size="10.00">::VisitBlockBody</text>
</a>
</g>
</g>
<!-- Node1&#45;&gt;Node12 -->
<g id="edge12" class="edge">
<title>Node1&#45;&gt;Node12</title>
<path fill="none" stroke="midnightblue" d="M504.44,-290.3C497.2,-234.41 473.93,-115.83 403,-51 392.9,-41.77 380.14,-35.36 367.03,-30.91"/>
<polygon fill="midnightblue" stroke="midnightblue" points="500.97,-290.79 505.64,-300.3 507.92,-289.95 500.97,-290.79"/>
</g>
<!-- Node8&#45;&gt;Node5 -->
<g id="edge8" class="edge">
<title>Node8&#45;&gt;Node5</title>
<path fill="none" stroke="midnightblue" d="M218.27,-281.91C209.34,-284.76 200.42,-287.8 192,-291 166.69,-300.6 139.27,-313.64 117.78,-324.5"/>
<polygon fill="midnightblue" stroke="midnightblue" points="219.43,-285.22 227.95,-278.91 217.36,-278.53 219.43,-285.22"/>
</g>
</g>
</svg>
