<?xml version="1.0" encoding="UTF-8" standalone="no"?>
<!DOCTYPE svg PUBLIC "-//W3C//DTD SVG 1.1//EN"
 "http://www.w3.org/Graphics/SVG/1.1/DTD/svg11.dtd">
<!-- Generated by graphviz version 2.43.0 (0)
 -->
<!-- Title: v8::internal::wasm::ImmediatesPrinter::BlockType Pages: 1 -->
<svg width="716pt" height="244pt"
 viewBox="0.00 0.00 716.00 243.50" xmlns="http://www.w3.org/2000/svg" xmlns:xlink="http://www.w3.org/1999/xlink">
<g id="graph0" class="graph" transform="scale(1 1) rotate(0) translate(4 239.5)">
<title>v8::internal::wasm::ImmediatesPrinter::BlockType</title>
<polygon fill="white" stroke="transparent" points="-4,4 -4,-239.5 712,-239.5 712,4 -4,4"/>
<!-- Node1 -->
<g id="node1" class="node">
<title>Node1</title>
<g id="a_node1"><a xlink:title=" ">
<polygon fill="#bfbfbf" stroke="black" points="0,-138 0,-179 113,-179 113,-138 0,-138"/>
<text text-anchor="start" x="8" y="-167" font-family="Helvetica,sans-Serif" font-size="10.00">v8::internal::wasm</text>
<text text-anchor="start" x="8" y="-156" font-family="Helvetica,sans-Serif" font-size="10.00">::ImmediatesPrinter</text>
<text text-anchor="middle" x="56.5" y="-145" font-family="Helvetica,sans-Serif" font-size="10.00">::BlockType</text>
</a>
</g>
</g>
<!-- Node2 -->
<g id="node2" class="node">
<title>Node2</title>
<g id="a_node2"><a xlink:href="classv8_1_1internal_1_1Signature.html#ac0ffd15df03eada986882388bb76c0af" target="_top" xlink:title=" ">
<polygon fill="white" stroke="black" points="149,-212 149,-231 292,-231 292,-212 149,-212"/>
<text text-anchor="middle" x="220.5" y="-219" font-family="Helvetica,sans-Serif" font-size="10.00">v8::internal::Signature::all</text>
</a>
</g>
</g>
<!-- Node1&#45;&gt;Node2 -->
<g id="edge1" class="edge">
<title>Node1&#45;&gt;Node2</title>
<path fill="none" stroke="midnightblue" d="M103.77,-179.02C118.17,-185.19 134.16,-191.82 149,-197.5 159.07,-201.35 170.05,-205.24 180.29,-208.73"/>
<polygon fill="midnightblue" stroke="midnightblue" points="179.23,-212.07 189.82,-211.95 181.47,-205.44 179.23,-212.07"/>
</g>
<!-- Node3 -->
<g id="node3" class="node">
<title>Node3</title>
<g id="a_node3"><a xlink:href="classv8_1_1internal_1_1wasm_1_1ImmediatesPrinter.html#a39dd0eaef62241ecb488a4814dccba46" target="_top" xlink:title=" ">
<polygon fill="white" stroke="black" points="353,-194 353,-235 466,-235 466,-194 353,-194"/>
<text text-anchor="start" x="361" y="-223" font-family="Helvetica,sans-Serif" font-size="10.00">v8::internal::wasm</text>
<text text-anchor="start" x="361" y="-212" font-family="Helvetica,sans-Serif" font-size="10.00">::ImmediatesPrinter</text>
<text text-anchor="middle" x="409.5" y="-201" font-family="Helvetica,sans-Serif" font-size="10.00">::names</text>
</a>
</g>
</g>
<!-- Node1&#45;&gt;Node3 -->
<g id="edge2" class="edge">
<title>Node1&#45;&gt;Node3</title>
<path fill="none" stroke="midnightblue" d="M113.12,-167.37C175.54,-177.33 276.72,-193.48 342.94,-204.04"/>
<polygon fill="midnightblue" stroke="midnightblue" points="342.43,-207.5 352.85,-205.62 343.53,-200.59 342.43,-207.5"/>
</g>
<!-- Node4 -->
<g id="node4" class="node">
<title>Node4</title>
<g id="a_node4"><a xlink:href="classv8_1_1internal_1_1wasm_1_1ImmediatesPrinter.html#a29e082fba05c698ed9cf5b1f231f5261" target="_top" xlink:title=" ">
<polygon fill="white" stroke="black" points="164,-114 164,-155 277,-155 277,-114 164,-114"/>
<text text-anchor="start" x="172" y="-143" font-family="Helvetica,sans-Serif" font-size="10.00">v8::internal::wasm</text>
<text text-anchor="start" x="172" y="-132" font-family="Helvetica,sans-Serif" font-size="10.00">::ImmediatesPrinter</text>
<text text-anchor="middle" x="220.5" y="-121" font-family="Helvetica,sans-Serif" font-size="10.00">::PrintSignature</text>
</a>
</g>
</g>
<!-- Node1&#45;&gt;Node4 -->
<g id="edge3" class="edge">
<title>Node1&#45;&gt;Node4</title>
<path fill="none" stroke="midnightblue" d="M113.25,-150.24C126.31,-148.31 140.33,-146.23 153.78,-144.24"/>
<polygon fill="midnightblue" stroke="midnightblue" points="154.54,-147.66 163.92,-142.73 153.52,-140.74 154.54,-147.66"/>
</g>
<!-- Node6 -->
<g id="node6" class="node">
<title>Node6</title>
<g id="a_node6"><a xlink:href="namespacev8_1_1internal_1_1wasm.html#a81251854c862c305158319cd9f2e526d" target="_top" xlink:title=" ">
<polygon fill="white" stroke="black" points="344,-46.5 344,-76.5 475,-76.5 475,-46.5 344,-46.5"/>
<text text-anchor="start" x="352" y="-64.5" font-family="Helvetica,sans-Serif" font-size="10.00">v8::internal::wasm</text>
<text text-anchor="middle" x="409.5" y="-53.5" font-family="Helvetica,sans-Serif" font-size="10.00">::PrintSignatureOneLine</text>
</a>
</g>
</g>
<!-- Node1&#45;&gt;Node6 -->
<g id="edge11" class="edge">
<title>Node1&#45;&gt;Node6</title>
<path fill="none" stroke="midnightblue" d="M86.2,-137.82C103.58,-126.28 126.64,-112.63 149,-104.5 209.08,-82.66 281.04,-71.85 333.93,-66.53"/>
<polygon fill="midnightblue" stroke="midnightblue" points="334.29,-70.01 343.91,-65.57 333.62,-63.05 334.29,-70.01"/>
</g>
<!-- Node4&#45;&gt;Node3 -->
<g id="edge5" class="edge">
<title>Node4&#45;&gt;Node3</title>
<path fill="none" stroke="midnightblue" d="M263.13,-155.01C282.65,-164.39 306.34,-175.4 328,-184.5 332.98,-186.59 338.17,-188.7 343.4,-190.76"/>
<polygon fill="midnightblue" stroke="midnightblue" points="342.25,-194.07 352.84,-194.44 344.79,-187.55 342.25,-194.07"/>
</g>
<!-- Node5 -->
<g id="node5" class="node">
<title>Node5</title>
<g id="a_node5"><a xlink:href="structv8_1_1internal_1_1wasm_1_1WasmModule.html#a3afd8a65f37ef25ae73380555291ce94" target="_top" xlink:title=" ">
<polygon fill="white" stroke="black" points="328,-144.5 328,-174.5 491,-174.5 491,-144.5 328,-144.5"/>
<text text-anchor="start" x="336" y="-162.5" font-family="Helvetica,sans-Serif" font-size="10.00">v8::internal::wasm</text>
<text text-anchor="middle" x="409.5" y="-151.5" font-family="Helvetica,sans-Serif" font-size="10.00">::WasmModule::has_signature</text>
</a>
</g>
</g>
<!-- Node4&#45;&gt;Node5 -->
<g id="edge4" class="edge">
<title>Node4&#45;&gt;Node5</title>
<path fill="none" stroke="midnightblue" d="M277.1,-141.93C289.92,-143.65 303.89,-145.51 317.77,-147.37"/>
<polygon fill="midnightblue" stroke="midnightblue" points="317.48,-150.86 327.85,-148.72 318.4,-143.92 317.48,-150.86"/>
</g>
<!-- Node4&#45;&gt;Node6 -->
<g id="edge6" class="edge">
<title>Node4&#45;&gt;Node6</title>
<path fill="none" stroke="midnightblue" d="M264.01,-113.9C283.31,-104.93 306.57,-94.62 328,-86.5 334.16,-84.17 340.64,-81.88 347.14,-79.7"/>
<polygon fill="midnightblue" stroke="midnightblue" points="348.24,-83.02 356.65,-76.58 346.05,-76.37 348.24,-83.02"/>
</g>
<!-- Node40 -->
<g id="node9" class="node">
<title>Node40</title>
<g id="a_node9"><a xlink:href="structv8_1_1internal_1_1wasm_1_1WasmModule.html#aa72e4b93688732ef9e761ffae039df66" target="_top" xlink:title=" ">
<polygon fill="white" stroke="black" points="339.5,-95.5 339.5,-125.5 479.5,-125.5 479.5,-95.5 339.5,-95.5"/>
<text text-anchor="start" x="347.5" y="-113.5" font-family="Helvetica,sans-Serif" font-size="10.00">v8::internal::wasm</text>
<text text-anchor="middle" x="409.5" y="-102.5" font-family="Helvetica,sans-Serif" font-size="10.00">::WasmModule::signature</text>
</a>
</g>
</g>
<!-- Node4&#45;&gt;Node40 -->
<g id="edge9" class="edge">
<title>Node4&#45;&gt;Node40</title>
<path fill="none" stroke="midnightblue" d="M277.1,-127.36C293.39,-125.27 311.53,-122.95 329,-120.7"/>
<polygon fill="midnightblue" stroke="midnightblue" points="329.71,-124.14 339.19,-119.4 328.82,-117.2 329.71,-124.14"/>
</g>
<!-- Node7 -->
<g id="node7" class="node">
<title>Node7</title>
<g id="a_node7"><a xlink:href="classv8_1_1internal_1_1wasm_1_1NamesProvider.html#a2ea9a79cc89d909f0f35f6c8c51938d2" target="_top" xlink:title=" ">
<polygon fill="white" stroke="red" points="527,-49.5 527,-79.5 708,-79.5 708,-49.5 527,-49.5"/>
<text text-anchor="start" x="535" y="-67.5" font-family="Helvetica,sans-Serif" font-size="10.00">v8::internal::wasm</text>
<text text-anchor="middle" x="617.5" y="-56.5" font-family="Helvetica,sans-Serif" font-size="10.00">::NamesProvider::PrintLocalName</text>
</a>
</g>
</g>
<!-- Node6&#45;&gt;Node7 -->
<g id="edge7" class="edge">
<title>Node6&#45;&gt;Node7</title>
<path fill="none" stroke="midnightblue" d="M475.11,-62.44C488.31,-62.63 502.49,-62.84 516.59,-63.05"/>
<polygon fill="midnightblue" stroke="midnightblue" points="516.78,-66.55 526.83,-63.19 516.88,-59.55 516.78,-66.55"/>
</g>
<!-- Node38 -->
<g id="node8" class="node">
<title>Node38</title>
<g id="a_node8"><a xlink:href="classv8_1_1internal_1_1wasm_1_1NamesProvider.html#a3c78f64e5b196f385696145e26246667" target="_top" xlink:title=" ">
<polygon fill="white" stroke="red" points="529.5,-0.5 529.5,-30.5 705.5,-30.5 705.5,-0.5 529.5,-0.5"/>
<text text-anchor="start" x="537.5" y="-18.5" font-family="Helvetica,sans-Serif" font-size="10.00">v8::internal::wasm</text>
<text text-anchor="middle" x="617.5" y="-7.5" font-family="Helvetica,sans-Serif" font-size="10.00">::NamesProvider::PrintValueType</text>
</a>
</g>
</g>
<!-- Node6&#45;&gt;Node38 -->
<g id="edge8" class="edge">
<title>Node6&#45;&gt;Node38</title>
<path fill="none" stroke="midnightblue" d="M475.11,-47.07C495.49,-42.52 518.2,-37.45 539.35,-32.73"/>
<polygon fill="midnightblue" stroke="midnightblue" points="540.27,-36.11 549.27,-30.51 538.75,-29.28 540.27,-36.11"/>
</g>
<!-- Node18 -->
<g id="node10" class="node">
<title>Node18</title>
<g id="a_node10"><a xlink:href="namespacev8_1_1internal.html#aa6b3743bd5d773c552654f2a6c3efa4a" target="_top" xlink:title=" ">
<polygon fill="white" stroke="black" points="558,-101 558,-120 677,-120 677,-101 558,-101"/>
<text text-anchor="middle" x="617.5" y="-108" font-family="Helvetica,sans-Serif" font-size="10.00">v8::internal::DCHECK</text>
</a>
</g>
</g>
<!-- Node40&#45;&gt;Node18 -->
<g id="edge10" class="edge">
<title>Node40&#45;&gt;Node18</title>
<path fill="none" stroke="midnightblue" d="M479.67,-110.5C501.56,-110.5 525.76,-110.5 547.63,-110.5"/>
<polygon fill="midnightblue" stroke="midnightblue" points="547.83,-114 557.83,-110.5 547.83,-107 547.83,-114"/>
</g>
</g>
</svg>
