<?xml version="1.0" encoding="UTF-8" standalone="no"?>
<!DOCTYPE svg PUBLIC "-//W3C//DTD SVG 1.1//EN"
 "http://www.w3.org/Graphics/SVG/1.1/DTD/svg11.dtd">
<!-- Generated by graphviz version 2.43.0 (0)
 -->
<!-- Title: v8::internal::FeedbackCollectorReducer::SmiBitwiseOr Pages: 1 -->
<svg width="412pt" height="137pt"
 viewBox="0.00 0.00 412.00 137.00" xmlns="http://www.w3.org/2000/svg" xmlns:xlink="http://www.w3.org/1999/xlink">
<g id="graph0" class="graph" transform="scale(1 1) rotate(0) translate(4 133)">
<title>v8::internal::FeedbackCollectorReducer::SmiBitwiseOr</title>
<polygon fill="white" stroke="transparent" points="-4,4 -4,-133 408,-133 408,4 -4,4"/>
<!-- Node1 -->
<g id="node1" class="node">
<title>Node1</title>
<g id="a_node1"><a xlink:title=" ">
<polygon fill="#bfbfbf" stroke="black" points="236,-49.5 236,-79.5 404,-79.5 404,-49.5 236,-49.5"/>
<text text-anchor="start" x="244" y="-67.5" font-family="Helvetica,sans-Serif" font-size="10.00">v8::internal::FeedbackCollector</text>
<text text-anchor="middle" x="320" y="-56.5" font-family="Helvetica,sans-Serif" font-size="10.00">Reducer::SmiBitwiseOr</text>
</a>
</g>
</g>
<!-- Node2 -->
<g id="node2" class="node">
<title>Node2</title>
<g id="a_node2"><a xlink:href="classv8_1_1internal_1_1FeedbackCollectorReducer.html#a6a6a63eb087c8e7077499f0b2c0e0f80" target="_top" xlink:title=" ">
<polygon fill="white" stroke="black" points="0,-98.5 0,-128.5 200,-128.5 200,-98.5 0,-98.5"/>
<text text-anchor="start" x="8" y="-116.5" font-family="Helvetica,sans-Serif" font-size="10.00">v8::internal::FeedbackCollector</text>
<text text-anchor="middle" x="100" y="-105.5" font-family="Helvetica,sans-Serif" font-size="10.00">Reducer::CombineExceptionFeedback</text>
</a>
</g>
</g>
<!-- Node1&#45;&gt;Node2 -->
<g id="edge1" class="edge">
<title>Node1&#45;&gt;Node2</title>
<path fill="none" stroke="midnightblue" d="M242.22,-81.76C217.93,-87.22 191.29,-93.21 167.76,-98.49"/>
<polygon fill="midnightblue" stroke="midnightblue" points="243.12,-85.14 252.11,-79.53 241.59,-78.31 243.12,-85.14"/>
</g>
<!-- Node3 -->
<g id="node3" class="node">
<title>Node3</title>
<g id="a_node3"><a xlink:href="classv8_1_1internal_1_1FeedbackCollectorReducer.html#a0fee8eb3f14f40e986745f9f279407f8" target="_top" xlink:title=" ">
<polygon fill="white" stroke="black" points="16,-49.5 16,-79.5 184,-79.5 184,-49.5 16,-49.5"/>
<text text-anchor="start" x="24" y="-67.5" font-family="Helvetica,sans-Serif" font-size="10.00">v8::internal::FeedbackCollector</text>
<text text-anchor="middle" x="100" y="-56.5" font-family="Helvetica,sans-Serif" font-size="10.00">Reducer::CombineFeedback</text>
</a>
</g>
</g>
<!-- Node1&#45;&gt;Node3 -->
<g id="edge2" class="edge">
<title>Node1&#45;&gt;Node3</title>
<path fill="none" stroke="midnightblue" d="M225.93,-64.5C212.05,-64.5 197.82,-64.5 184.17,-64.5"/>
<polygon fill="midnightblue" stroke="midnightblue" points="225.96,-68 235.96,-64.5 225.96,-61 225.96,-68"/>
</g>
<!-- Node4 -->
<g id="node4" class="node">
<title>Node4</title>
<g id="a_node4"><a xlink:href="classv8_1_1internal_1_1FeedbackCollectorReducer.html#a19c7ca5a05b20b273560764150cca58a" target="_top" xlink:title=" ">
<polygon fill="white" stroke="black" points="16,-0.5 16,-30.5 184,-30.5 184,-0.5 16,-0.5"/>
<text text-anchor="start" x="24" y="-18.5" font-family="Helvetica,sans-Serif" font-size="10.00">v8::internal::FeedbackCollector</text>
<text text-anchor="middle" x="100" y="-7.5" font-family="Helvetica,sans-Serif" font-size="10.00">Reducer::UpdateFeedback</text>
</a>
</g>
</g>
<!-- Node1&#45;&gt;Node4 -->
<g id="edge3" class="edge">
<title>Node1&#45;&gt;Node4</title>
<path fill="none" stroke="midnightblue" d="M242.22,-47.24C217.93,-41.78 191.29,-35.79 167.76,-30.51"/>
<polygon fill="midnightblue" stroke="midnightblue" points="241.59,-50.69 252.11,-49.47 243.12,-43.86 241.59,-50.69"/>
</g>
</g>
</svg>
