<?xml version="1.0" encoding="UTF-8" standalone="no"?>
<!DOCTYPE svg PUBLIC "-//W3C//DTD SVG 1.1//EN"
 "http://www.w3.org/Graphics/SVG/1.1/DTD/svg11.dtd">
<!-- Generated by graphviz version 2.43.0 (0)
 -->
<!-- Title: v8::internal::Heap::SetOldGenerationAndGlobalAllocationLimit Pages: 1 -->
<svg width="531pt" height="50pt"
 viewBox="0.00 0.00 531.00 50.00" xmlns="http://www.w3.org/2000/svg" xmlns:xlink="http://www.w3.org/1999/xlink">
<g id="graph0" class="graph" transform="scale(1 1) rotate(0) translate(4 46)">
<title>v8::internal::Heap::SetOldGenerationAndGlobalAllocationLimit</title>
<polygon fill="white" stroke="transparent" points="-4,4 -4,-46 527,-46 527,4 -4,4"/>
<!-- Node1 -->
<g id="node1" class="node">
<title>Node1</title>
<g id="a_node1"><a xlink:title=" ">
<polygon fill="#bfbfbf" stroke="black" points="0,-0.5 0,-41.5 159,-41.5 159,-0.5 0,-0.5"/>
<text text-anchor="start" x="8" y="-29.5" font-family="Helvetica,sans-Serif" font-size="10.00">v8::internal::Heap</text>
<text text-anchor="start" x="8" y="-18.5" font-family="Helvetica,sans-Serif" font-size="10.00">::SetOldGenerationAndGlobal</text>
<text text-anchor="middle" x="79.5" y="-7.5" font-family="Helvetica,sans-Serif" font-size="10.00">AllocationLimit</text>
</a>
</g>
</g>
<!-- Node2 -->
<g id="node2" class="node">
<title>Node2</title>
<g id="a_node2"><a xlink:href="classv8_1_1internal_1_1Heap.html#ae5160ad63bc51ff7b36e8f247be48f63" target="_top" xlink:title=" ">
<polygon fill="white" stroke="black" points="195,-6 195,-36 299,-36 299,-6 195,-6"/>
<text text-anchor="start" x="203" y="-24" font-family="Helvetica,sans-Serif" font-size="10.00">v8::internal::Heap</text>
<text text-anchor="middle" x="247" y="-13" font-family="Helvetica,sans-Serif" font-size="10.00">::isolate</text>
</a>
</g>
</g>
<!-- Node1&#45;&gt;Node2 -->
<g id="edge1" class="edge">
<title>Node1&#45;&gt;Node2</title>
<path fill="none" stroke="midnightblue" d="M159.37,-21C167.8,-21 176.29,-21 184.47,-21"/>
<polygon fill="midnightblue" stroke="midnightblue" points="184.66,-24.5 194.66,-21 184.66,-17.5 184.66,-24.5"/>
</g>
<!-- Node3 -->
<g id="node3" class="node">
<title>Node3</title>
<g id="a_node3"><a xlink:href="classv8_1_1internal_1_1Isolate.html#aa4fc16731ddc7000e4eb0dfe81392a38" target="_top" xlink:title=" ">
<polygon fill="white" stroke="black" points="335,-6 335,-36 446,-36 446,-6 335,-6"/>
<text text-anchor="start" x="343" y="-24" font-family="Helvetica,sans-Serif" font-size="10.00">v8::internal::Isolate</text>
<text text-anchor="middle" x="390.5" y="-13" font-family="Helvetica,sans-Serif" font-size="10.00">::FromHeap</text>
</a>
</g>
</g>
<!-- Node2&#45;&gt;Node3 -->
<g id="edge2" class="edge">
<title>Node2&#45;&gt;Node3</title>
<path fill="none" stroke="midnightblue" d="M299.08,-21C307.3,-21 315.9,-21 324.39,-21"/>
<polygon fill="midnightblue" stroke="midnightblue" points="324.67,-24.5 334.67,-21 324.67,-17.5 324.67,-24.5"/>
</g>
<!-- Node4 -->
<g id="node4" class="node">
<title>Node4</title>
<g id="a_node4"><a xlink:href="flag-definitions_8h.html#a761e4e5929b1553283fd6a532822bb17" target="_top" xlink:title=" ">
<polygon fill="white" stroke="black" points="482,-11.5 482,-30.5 523,-30.5 523,-11.5 482,-11.5"/>
<text text-anchor="middle" x="502.5" y="-18.5" font-family="Helvetica,sans-Serif" font-size="10.00">heap</text>
</a>
</g>
</g>
<!-- Node3&#45;&gt;Node4 -->
<g id="edge3" class="edge">
<title>Node3&#45;&gt;Node4</title>
<path fill="none" stroke="midnightblue" d="M446.18,-21C455,-21 463.83,-21 471.77,-21"/>
<polygon fill="midnightblue" stroke="midnightblue" points="471.95,-24.5 481.95,-21 471.95,-17.5 471.95,-24.5"/>
</g>
</g>
</svg>
