<?xml version="1.0" encoding="UTF-8" standalone="no"?>
<!DOCTYPE svg PUBLIC "-//W3C//DTD SVG 1.1//EN"
 "http://www.w3.org/Graphics/SVG/1.1/DTD/svg11.dtd">
<!-- Generated by graphviz version 2.43.0 (0)
 -->
<!-- Title: v8::internal::compiler::LiveRange::AdvanceLastProcessedMarker Pages: 1 -->
<!--zoomable 279 -->
<svg id="main" version="1.1" xmlns="http://www.w3.org/2000/svg" xmlns:xlink="http://www.w3.org/1999/xlink" xml:space="preserve" onload="init(evt)">
<style type="text/css"><![CDATA[
.edge:hover path { stroke: red; }
.edge:hover polygon { stroke: red; fill: red; }
]]></style>
<script type="text/javascript"><![CDATA[
var edges = document.getElementsByTagName('g');
if (edges && edges.length) {
  for (var i=0;i<edges.length;i++) {
    if (edges[i].id.substr(0,4)=='edge') {
      edges[i].setAttribute('class','edge');
    }
  }
}
]]></script>
        <defs>
                <circle id="rim" cx="0" cy="0" r="7"/>
                <circle id="rim2" cx="0" cy="0" r="3.5"/>
                <g id="zoomPlus">
                        <use xlink:href="#rim" fill="#404040">
                                <set attributeName="fill" to="#808080" begin="zoomplus.mouseover" end="zoomplus.mouseout"/>
                        </use>
                        <path d="M-4,0h8M0,-4v8" fill="none" stroke="white" stroke-width="1.5" pointer-events="none"/>
                </g>
                <g id="zoomMin">
                        <use xlink:href="#rim" fill="#404040">
                                <set attributeName="fill" to="#808080" begin="zoomminus.mouseover" end="zoomminus.mouseout"/>
                        </use>
                        <path d="M-4,0h8" fill="none" stroke="white" stroke-width="1.5" pointer-events="none"/>
                </g>
                <g id="dirArrow">
                        <path fill="none" stroke="white" stroke-width="1.5" d="M0,-3.0v7 M-2.5,-0.5L0,-3.0L2.5,-0.5"/>
                </g>
               <g id="resetDef">
                       <use xlink:href="#rim2" fill="#404040">
                               <set attributeName="fill" to="#808080" begin="reset.mouseover" end="reset.mouseout"/>
                       </use>
               </g>
        </defs>

<script type="text/javascript">
var viewWidth = 954;
var viewHeight = 279;
var sectionId = 'dynsection-4';
</script>
<script xlink:href="svgpan.js"/>
<svg id="graph" class="graph">
<g id="viewport">
<title>v8::internal::compiler::LiveRange::AdvanceLastProcessedMarker</title>
<polygon fill="white" stroke="transparent" points="-4,4 -4,-275 950,-275 950,4 -4,4"/>
<!-- Node1 -->
<g id="node1" class="node">
<title>Node1</title>
<g id="a_node1"><a xlink:title=" ">
<polygon fill="#bfbfbf" stroke="black" points="755,-90.5 755,-131.5 946,-131.5 946,-90.5 755,-90.5"/>
<text text-anchor="start" x="763" y="-119.5" font-family="Helvetica,sans-Serif" font-size="10.00">v8::internal::compiler</text>
<text text-anchor="start" x="763" y="-108.5" font-family="Helvetica,sans-Serif" font-size="10.00">::LiveRange::AdvanceLastProcessed</text>
<text text-anchor="middle" x="850.5" y="-97.5" font-family="Helvetica,sans-Serif" font-size="10.00">Marker</text>
</a>
</g>
</g>
<!-- Node2 -->
<g id="node2" class="node">
<title>Node2</title>
<g id="a_node2"><a xlink:href="classv8_1_1internal_1_1compiler_1_1LiveRange.html#ac87b589e55269cc7430cf2e22048d6dc" target="_top" xlink:title=" ">
<polygon fill="white" stroke="black" points="579.5,-72 579.5,-102 700.5,-102 700.5,-72 579.5,-72"/>
<text text-anchor="start" x="587.5" y="-90" font-family="Helvetica,sans-Serif" font-size="10.00">v8::internal::compiler</text>
<text text-anchor="middle" x="640" y="-79" font-family="Helvetica,sans-Serif" font-size="10.00">::LiveRange::Covers</text>
</a>
</g>
</g>
<!-- Node1&#45;&gt;Node2 -->
<g id="edge1" class="edge">
<title>Node1&#45;&gt;Node2</title>
<path fill="none" stroke="midnightblue" d="M744.77,-98.94C729.62,-97.2 714.49,-95.46 700.65,-93.87"/>
<polygon fill="midnightblue" stroke="midnightblue" points="744.37,-102.42 754.71,-100.09 745.17,-95.47 744.37,-102.42"/>
</g>
<!-- Node11 -->
<g id="node10" class="node">
<title>Node11</title>
<g id="a_node10"><a xlink:href="classv8_1_1internal_1_1compiler_1_1LiveRange.html#a5241741f85f3101df0b0646fa30b3f90" target="_top" xlink:title=" ">
<polygon fill="white" stroke="black" points="561,-126 561,-156 719,-156 719,-126 561,-126"/>
<text text-anchor="start" x="569" y="-144" font-family="Helvetica,sans-Serif" font-size="10.00">v8::internal::compiler</text>
<text text-anchor="middle" x="640" y="-133" font-family="Helvetica,sans-Serif" font-size="10.00">::LiveRange::FirstIntersection</text>
</a>
</g>
</g>
<!-- Node1&#45;&gt;Node11 -->
<g id="edge10" class="edge">
<title>Node1&#45;&gt;Node11</title>
<path fill="none" stroke="midnightblue" d="M744.61,-126.09C735.99,-127.33 727.38,-128.57 719.02,-129.77"/>
<polygon fill="midnightblue" stroke="midnightblue" points="745.31,-129.53 754.71,-124.64 744.31,-122.6 745.31,-129.53"/>
</g>
<!-- Node3 -->
<g id="node3" class="node">
<title>Node3</title>
<g id="a_node3"><a xlink:href="classv8_1_1internal_1_1compiler_1_1LinearScanAllocator.html#a5c4704b7051ad2b63b3feb9d75e6d24b" target="_top" xlink:title=" ">
<polygon fill="white" stroke="black" points="383.5,-60.5 383.5,-101.5 504.5,-101.5 504.5,-60.5 383.5,-60.5"/>
<text text-anchor="start" x="391.5" y="-89.5" font-family="Helvetica,sans-Serif" font-size="10.00">v8::internal::compiler</text>
<text text-anchor="start" x="391.5" y="-78.5" font-family="Helvetica,sans-Serif" font-size="10.00">::LinearScanAllocator</text>
<text text-anchor="middle" x="444" y="-67.5" font-family="Helvetica,sans-Serif" font-size="10.00">::ForwardStateTo</text>
</a>
</g>
</g>
<!-- Node2&#45;&gt;Node3 -->
<g id="edge2" class="edge">
<title>Node2&#45;&gt;Node3</title>
<path fill="none" stroke="midnightblue" d="M569.28,-84.84C548.15,-84.19 525.15,-83.48 504.75,-82.85"/>
<polygon fill="midnightblue" stroke="midnightblue" points="569.37,-88.35 579.48,-85.16 569.59,-81.35 569.37,-88.35"/>
</g>
<!-- Node5 -->
<g id="node5" class="node">
<title>Node5</title>
<g id="a_node5"><a xlink:href="classv8_1_1internal_1_1compiler_1_1LinearScanAllocator.html#a6fed4d5fc9a70d0b58e2fcca0c3f3c17" target="_top" xlink:title=" ">
<polygon fill="white" stroke="black" points="366.5,-180.5 366.5,-221.5 521.5,-221.5 521.5,-180.5 366.5,-180.5"/>
<text text-anchor="start" x="374.5" y="-209.5" font-family="Helvetica,sans-Serif" font-size="10.00">v8::internal::compiler</text>
<text text-anchor="start" x="374.5" y="-198.5" font-family="Helvetica,sans-Serif" font-size="10.00">::LinearScanAllocator</text>
<text text-anchor="middle" x="444" y="-187.5" font-family="Helvetica,sans-Serif" font-size="10.00">::MaybeSpillPreviousRanges</text>
</a>
</g>
</g>
<!-- Node2&#45;&gt;Node5 -->
<g id="edge4" class="edge">
<title>Node2&#45;&gt;Node5</title>
<path fill="none" stroke="midnightblue" d="M577.1,-106.58C571.38,-109.62 565.91,-113.07 561,-117 538.48,-135.02 547.59,-153.07 525,-171 520.58,-174.5 515.72,-177.63 510.63,-180.41"/>
<polygon fill="midnightblue" stroke="midnightblue" points="578.76,-109.67 586.23,-102.16 575.71,-103.37 578.76,-109.67"/>
</g>
<!-- Node9 -->
<g id="node8" class="node">
<title>Node9</title>
<g id="a_node8"><a xlink:href="classv8_1_1internal_1_1compiler_1_1ReferenceMapPopulator.html#aa5b8cd9b9b7b7ce4b30f775a6f1c3cf6" target="_top" xlink:title=" ">
<polygon fill="white" stroke="black" points="373.5,-0.5 373.5,-41.5 514.5,-41.5 514.5,-0.5 373.5,-0.5"/>
<text text-anchor="start" x="381.5" y="-29.5" font-family="Helvetica,sans-Serif" font-size="10.00">v8::internal::compiler</text>
<text text-anchor="start" x="381.5" y="-18.5" font-family="Helvetica,sans-Serif" font-size="10.00">::ReferenceMapPopulator</text>
<text text-anchor="middle" x="444" y="-7.5" font-family="Helvetica,sans-Serif" font-size="10.00">::PopulateReferenceMaps</text>
</a>
</g>
</g>
<!-- Node2&#45;&gt;Node9 -->
<g id="edge8" class="edge">
<title>Node2&#45;&gt;Node9</title>
<path fill="none" stroke="midnightblue" d="M584.93,-68.6C560.23,-60.2 530.89,-50.22 505.47,-41.57"/>
<polygon fill="midnightblue" stroke="midnightblue" points="583.9,-71.95 594.49,-71.86 586.15,-65.32 583.9,-71.95"/>
</g>
<!-- Node4 -->
<g id="node4" class="node">
<title>Node4</title>
<g id="a_node4"><a xlink:href="classv8_1_1internal_1_1compiler_1_1LinearScanAllocator.html#af090759a2b6c76166a297fe5343fbbe9" target="_top" xlink:title=" ">
<polygon fill="white" stroke="black" points="181.5,-90.5 181.5,-131.5 302.5,-131.5 302.5,-90.5 181.5,-90.5"/>
<text text-anchor="start" x="189.5" y="-119.5" font-family="Helvetica,sans-Serif" font-size="10.00">v8::internal::compiler</text>
<text text-anchor="start" x="189.5" y="-108.5" font-family="Helvetica,sans-Serif" font-size="10.00">::LinearScanAllocator</text>
<text text-anchor="middle" x="242" y="-97.5" font-family="Helvetica,sans-Serif" font-size="10.00">::AllocateRegisters</text>
</a>
</g>
</g>
<!-- Node3&#45;&gt;Node4 -->
<g id="edge3" class="edge">
<title>Node3&#45;&gt;Node4</title>
<path fill="none" stroke="midnightblue" d="M373.24,-91.46C350.26,-94.91 324.94,-98.71 302.77,-102.03"/>
<polygon fill="midnightblue" stroke="midnightblue" points="373.89,-94.91 383.26,-89.96 372.86,-87.98 373.89,-94.91"/>
</g>
<!-- Node6 -->
<g id="node6" class="node">
<title>Node6</title>
<g id="a_node6"><a xlink:href="classv8_1_1internal_1_1compiler_1_1LinearScanAllocator.html#a6d24c5c5d84256f82d4cadd17382a8ad" target="_top" xlink:title=" ">
<polygon fill="white" stroke="red" points="0,-204.5 0,-245.5 121,-245.5 121,-204.5 0,-204.5"/>
<text text-anchor="start" x="8" y="-233.5" font-family="Helvetica,sans-Serif" font-size="10.00">v8::internal::compiler</text>
<text text-anchor="start" x="8" y="-222.5" font-family="Helvetica,sans-Serif" font-size="10.00">::LinearScanAllocator</text>
<text text-anchor="middle" x="60.5" y="-211.5" font-family="Helvetica,sans-Serif" font-size="10.00">::AllocateBlockedReg</text>
</a>
</g>
</g>
<!-- Node5&#45;&gt;Node6 -->
<g id="edge5" class="edge">
<title>Node5&#45;&gt;Node6</title>
<path fill="none" stroke="midnightblue" d="M355.88,-206.48C284.1,-211 184.22,-217.28 121.23,-221.24"/>
<polygon fill="midnightblue" stroke="midnightblue" points="356.5,-209.95 366.26,-205.83 356.06,-202.96 356.5,-209.95"/>
</g>
<!-- Node8 -->
<g id="node7" class="node">
<title>Node8</title>
<g id="a_node7"><a xlink:href="classv8_1_1internal_1_1compiler_1_1LinearScanAllocator.html#ae544af93c72d257cd72f5d910736a84f" target="_top" xlink:title=" ">
<polygon fill="white" stroke="black" points="171,-229.5 171,-270.5 313,-270.5 313,-229.5 171,-229.5"/>
<text text-anchor="start" x="179" y="-258.5" font-family="Helvetica,sans-Serif" font-size="10.00">v8::internal::compiler</text>
<text text-anchor="start" x="179" y="-247.5" font-family="Helvetica,sans-Serif" font-size="10.00">::LinearScanAllocator</text>
<text text-anchor="middle" x="242" y="-236.5" font-family="Helvetica,sans-Serif" font-size="10.00">::SplitAndSpillIntersecting</text>
</a>
</g>
</g>
<!-- Node5&#45;&gt;Node8 -->
<g id="edge6" class="edge">
<title>Node5&#45;&gt;Node8</title>
<path fill="none" stroke="midnightblue" d="M356.37,-222.23C341.99,-225.75 327.23,-229.36 313.32,-232.77"/>
<polygon fill="midnightblue" stroke="midnightblue" points="357.37,-225.58 366.25,-219.8 355.7,-218.78 357.37,-225.58"/>
</g>
<!-- Node8&#45;&gt;Node6 -->
<g id="edge7" class="edge">
<title>Node8&#45;&gt;Node6</title>
<path fill="none" stroke="midnightblue" d="M160.73,-238.82C147.42,-236.97 133.84,-235.07 121.16,-233.31"/>
<polygon fill="midnightblue" stroke="midnightblue" points="160.44,-242.31 170.83,-240.23 161.41,-235.38 160.44,-242.31"/>
</g>
<!-- Node10 -->
<g id="node9" class="node">
<title>Node10</title>
<g id="a_node9"><a xlink:href="structv8_1_1internal_1_1compiler_1_1turboshaft_1_1PopulateReferenceMapsPhase.html#a9a8140a906f74d3f5a574062e6aa513a" target="_top" xlink:title=" ">
<polygon fill="white" stroke="black" points="157,-0.5 157,-41.5 327,-41.5 327,-0.5 157,-0.5"/>
<text text-anchor="start" x="165" y="-29.5" font-family="Helvetica,sans-Serif" font-size="10.00">v8::internal::compiler</text>
<text text-anchor="start" x="165" y="-18.5" font-family="Helvetica,sans-Serif" font-size="10.00">::turboshaft::PopulateReference</text>
<text text-anchor="middle" x="242" y="-7.5" font-family="Helvetica,sans-Serif" font-size="10.00">MapsPhase::Run</text>
</a>
</g>
</g>
<!-- Node9&#45;&gt;Node10 -->
<g id="edge9" class="edge">
<title>Node9&#45;&gt;Node10</title>
<path fill="none" stroke="midnightblue" d="M363.08,-21C351.28,-21 339.1,-21 327.22,-21"/>
<polygon fill="midnightblue" stroke="midnightblue" points="363.33,-24.5 373.33,-21 363.33,-17.5 363.33,-24.5"/>
</g>
<!-- Node11&#45;&gt;Node8 -->
<g id="edge11" class="edge">
<title>Node11&#45;&gt;Node8</title>
<path fill="none" stroke="midnightblue" d="M618.58,-163.59C597.51,-185.19 562.51,-216.55 525,-231 456.55,-257.38 371.87,-259.43 313.27,-256.57"/>
<polygon fill="midnightblue" stroke="midnightblue" points="621.33,-165.78 625.69,-156.12 616.26,-160.95 621.33,-165.78"/>
</g>
<!-- Node12 -->
<g id="node11" class="node">
<title>Node12</title>
<g id="a_node11"><a xlink:href="classv8_1_1internal_1_1compiler_1_1LinearScanAllocator.html#a6fd695b68d9387413f667e660232ef1b" target="_top" xlink:title=" ">
<polygon fill="white" stroke="black" points="363,-120.5 363,-161.5 525,-161.5 525,-120.5 363,-120.5"/>
<text text-anchor="start" x="371" y="-149.5" font-family="Helvetica,sans-Serif" font-size="10.00">v8::internal::compiler</text>
<text text-anchor="start" x="371" y="-138.5" font-family="Helvetica,sans-Serif" font-size="10.00">::LinearScanAllocator</text>
<text text-anchor="middle" x="444" y="-127.5" font-family="Helvetica,sans-Serif" font-size="10.00">::UpdateDeferredFixedRanges</text>
</a>
</g>
</g>
<!-- Node11&#45;&gt;Node12 -->
<g id="edge12" class="edge">
<title>Node11&#45;&gt;Node12</title>
<path fill="none" stroke="midnightblue" d="M550.91,-141C542.31,-141 533.63,-141 525.12,-141"/>
<polygon fill="midnightblue" stroke="midnightblue" points="550.93,-144.5 560.93,-141 550.93,-137.5 550.93,-144.5"/>
</g>
<!-- Node12&#45;&gt;Node4 -->
<g id="edge13" class="edge">
<title>Node12&#45;&gt;Node4</title>
<path fill="none" stroke="midnightblue" d="M352.83,-127.48C335.8,-124.92 318.38,-122.31 302.58,-119.94"/>
<polygon fill="midnightblue" stroke="midnightblue" points="352.4,-130.95 362.8,-128.97 353.43,-124.03 352.4,-130.95"/>
</g>
</g>
</svg>
        <g id="navigator" transform="translate(0 0)" fill="#404254">
                <rect fill="#f2f5e9" fill-opacity="0.5" stroke="#606060" stroke-width=".5" x="0" y="0" width="60" height="60"/>
                <use id="zoomplus" xlink:href="#zoomPlus" x="17" y="9" onmousedown="handleZoom(evt,'in')"/>
                <use id="zoomminus" xlink:href="#zoomMin" x="42" y="9" onmousedown="handleZoom(evt,'out')"/>
                <use id="reset" xlink:href="#resetDef" x="30" y="36" onmousedown="handleReset()"/>
                <g id="arrowUp" xlink:href="#dirArrow" transform="translate(30 24)" onmousedown="handlePan(0,-1)">
                  <use xlink:href="#rim" fill="#404040">
                        <set attributeName="fill" to="#808080" begin="arrowUp.mouseover" end="arrowUp.mouseout"/>
                  </use>
                  <path fill="none" stroke="white" stroke-width="1.5" d="M0,-3.0v7 M-2.5,-0.5L0,-3.0L2.5,-0.5"/>
                </g>
                <g id="arrowRight" xlink:href="#dirArrow" transform="rotate(90) translate(36 -43)" onmousedown="handlePan(1,0)">
                  <use xlink:href="#rim" fill="#404040">
                        <set attributeName="fill" to="#808080" begin="arrowRight.mouseover" end="arrowRight.mouseout"/>
                  </use>
                  <path fill="none" stroke="white" stroke-width="1.5" d="M0,-3.0v7 M-2.5,-0.5L0,-3.0L2.5,-0.5"/>
                </g>
                <g id="arrowDown" xlink:href="#dirArrow" transform="rotate(180) translate(-30 -48)" onmousedown="handlePan(0,1)">
                  <use xlink:href="#rim" fill="#404040">
                        <set attributeName="fill" to="#808080" begin="arrowDown.mouseover" end="arrowDown.mouseout"/>
                  </use>
                  <path fill="none" stroke="white" stroke-width="1.5" d="M0,-3.0v7 M-2.5,-0.5L0,-3.0L2.5,-0.5"/>
                </g>
                <g id="arrowLeft" xlink:href="#dirArrow" transform="rotate(270) translate(-36 17)" onmousedown="handlePan(-1,0)">
                  <use xlink:href="#rim" fill="#404040">
                        <set attributeName="fill" to="#808080" begin="arrowLeft.mouseover" end="arrowLeft.mouseout"/>
                  </use>
                  <path fill="none" stroke="white" stroke-width="1.5" d="M0,-3.0v7 M-2.5,-0.5L0,-3.0L2.5,-0.5"/>
                </g>
        </g>
        <svg viewBox="0 0 15 15" width="100%" height="30px" preserveAspectRatio="xMaxYMin meet">
         <g id="arrow_out" transform="scale(0.3 0.3)">
          <a xlink:href="classv8_1_1internal_1_1compiler_1_1LiveRange_a334b28998fa5ece02a84a9b42c2a4128_icgraph_org.svg" target="_base">
           <rect id="button" ry="5" rx="5" y="6" x="6" height="38" width="38"
                fill="#f2f5e9" fill-opacity="0.5" stroke="#606060" stroke-width="1.0"/>
           <path id="arrow"
             d="M 11.500037,31.436501 C 11.940474,20.09759 22.043105,11.32322 32.158766,21.979434 L 37.068811,17.246167 C 37.068811,17.246167 37.088388,32 37.088388,32 L 22.160133,31.978069 C 22.160133,31.978069 26.997745,27.140456 26.997745,27.140456 C 18.528582,18.264221 13.291696,25.230495 11.500037,31.436501 z"
             style="fill:#404040;"/>
          </a>
         </g>
        </svg>
</svg>
