<?xml version="1.0" encoding="UTF-8" standalone="no"?>
<!DOCTYPE svg PUBLIC "-//W3C//DTD SVG 1.1//EN"
 "http://www.w3.org/Graphics/SVG/1.1/DTD/svg11.dtd">
<!-- Generated by graphviz version 2.43.0 (0)
 -->
<!-- Title: v8::internal::compiler::JSIntrinsicLowering::ReduceAsyncFunctionAwait Pages: 1 -->
<!--zoomable 469 -->
<svg id="main" version="1.1" xmlns="http://www.w3.org/2000/svg" xmlns:xlink="http://www.w3.org/1999/xlink" xml:space="preserve" onload="init(evt)">
<style type="text/css"><![CDATA[
.edge:hover path { stroke: red; }
.edge:hover polygon { stroke: red; fill: red; }
]]></style>
<script type="text/javascript"><![CDATA[
var edges = document.getElementsByTagName('g');
if (edges && edges.length) {
  for (var i=0;i<edges.length;i++) {
    if (edges[i].id.substr(0,4)=='edge') {
      edges[i].setAttribute('class','edge');
    }
  }
}
]]></script>
        <defs>
                <circle id="rim" cx="0" cy="0" r="7"/>
                <circle id="rim2" cx="0" cy="0" r="3.5"/>
                <g id="zoomPlus">
                        <use xlink:href="#rim" fill="#404040">
                                <set attributeName="fill" to="#808080" begin="zoomplus.mouseover" end="zoomplus.mouseout"/>
                        </use>
                        <path d="M-4,0h8M0,-4v8" fill="none" stroke="white" stroke-width="1.5" pointer-events="none"/>
                </g>
                <g id="zoomMin">
                        <use xlink:href="#rim" fill="#404040">
                                <set attributeName="fill" to="#808080" begin="zoomminus.mouseover" end="zoomminus.mouseout"/>
                        </use>
                        <path d="M-4,0h8" fill="none" stroke="white" stroke-width="1.5" pointer-events="none"/>
                </g>
                <g id="dirArrow">
                        <path fill="none" stroke="white" stroke-width="1.5" d="M0,-3.0v7 M-2.5,-0.5L0,-3.0L2.5,-0.5"/>
                </g>
               <g id="resetDef">
                       <use xlink:href="#rim2" fill="#404040">
                               <set attributeName="fill" to="#808080" begin="reset.mouseover" end="reset.mouseout"/>
                       </use>
               </g>
        </defs>

<script type="text/javascript">
var viewWidth = 888;
var viewHeight = 469;
var sectionId = 'dynsection-23';
</script>
<script xlink:href="svgpan.js"/>
<svg id="graph" class="graph">
<g id="viewport">
<title>v8::internal::compiler::JSIntrinsicLowering::ReduceAsyncFunctionAwait</title>
<polygon fill="white" stroke="transparent" points="-4,4 -4,-464.5 884,-464.5 884,4 -4,4"/>
<!-- Node1 -->
<g id="node1" class="node">
<title>Node1</title>
<g id="a_node1"><a xlink:title=" ">
<polygon fill="#bfbfbf" stroke="black" points="0,-140.5 0,-181.5 157,-181.5 157,-140.5 0,-140.5"/>
<text text-anchor="start" x="8" y="-169.5" font-family="Helvetica,sans-Serif" font-size="10.00">v8::internal::compiler</text>
<text text-anchor="start" x="8" y="-158.5" font-family="Helvetica,sans-Serif" font-size="10.00">::JSIntrinsicLowering</text>
<text text-anchor="middle" x="78.5" y="-147.5" font-family="Helvetica,sans-Serif" font-size="10.00">::ReduceAsyncFunctionAwait</text>
</a>
</g>
</g>
<!-- Node2 -->
<g id="node2" class="node">
<title>Node2</title>
<g id="a_node2"><a xlink:href="classv8_1_1internal_1_1Builtins.html#afde37c1114e5e614718f3f96fe26b371" target="_top" xlink:title=" ">
<polygon fill="white" stroke="black" points="196,-304 196,-334 311,-334 311,-304 196,-304"/>
<text text-anchor="start" x="204" y="-322" font-family="Helvetica,sans-Serif" font-size="10.00">v8::internal::Builtins</text>
<text text-anchor="middle" x="253.5" y="-311" font-family="Helvetica,sans-Serif" font-size="10.00">::CallableFor</text>
</a>
</g>
</g>
<!-- Node1&#45;&gt;Node2 -->
<g id="edge1" class="edge">
<title>Node1&#45;&gt;Node2</title>
<path fill="none" stroke="midnightblue" d="M102.12,-181.66C134.68,-211.39 194.52,-266.05 228.06,-296.68"/>
<polygon fill="midnightblue" stroke="midnightblue" points="225.85,-299.4 235.6,-303.56 230.57,-294.23 225.85,-299.4"/>
</g>
<!-- Node13 -->
<g id="node11" class="node">
<title>Node13</title>
<g id="a_node11"><a xlink:href="classv8_1_1internal_1_1compiler_1_1JSIntrinsicLowering.html#a0cec7585364cd20dc391768f3779b96d" target="_top" xlink:title=" ">
<polygon fill="white" stroke="black" points="193,-140.5 193,-181.5 314,-181.5 314,-140.5 193,-140.5"/>
<text text-anchor="start" x="201" y="-169.5" font-family="Helvetica,sans-Serif" font-size="10.00">v8::internal::compiler</text>
<text text-anchor="start" x="201" y="-158.5" font-family="Helvetica,sans-Serif" font-size="10.00">::JSIntrinsicLowering</text>
<text text-anchor="middle" x="253.5" y="-147.5" font-family="Helvetica,sans-Serif" font-size="10.00">::Change</text>
</a>
</g>
</g>
<!-- Node1&#45;&gt;Node13 -->
<g id="edge12" class="edge">
<title>Node1&#45;&gt;Node13</title>
<path fill="none" stroke="midnightblue" d="M157.14,-161C165.64,-161 174.25,-161 182.64,-161"/>
<polygon fill="midnightblue" stroke="midnightblue" points="182.74,-164.5 192.74,-161 182.74,-157.5 182.74,-164.5"/>
</g>
<!-- Node34 -->
<g id="node19" class="node">
<title>Node34</title>
<g id="a_node19"><a xlink:href="classv8_1_1internal_1_1compiler_1_1JSIntrinsicLowering.html#a1c5a4df23e62141e702ca1e6447d8e3b" target="_top" xlink:title=" ">
<polygon fill="white" stroke="black" points="193,-55.5 193,-96.5 314,-96.5 314,-55.5 193,-55.5"/>
<text text-anchor="start" x="201" y="-84.5" font-family="Helvetica,sans-Serif" font-size="10.00">v8::internal::compiler</text>
<text text-anchor="start" x="201" y="-73.5" font-family="Helvetica,sans-Serif" font-size="10.00">::JSIntrinsicLowering</text>
<text text-anchor="middle" x="253.5" y="-62.5" font-family="Helvetica,sans-Serif" font-size="10.00">::isolate</text>
</a>
</g>
</g>
<!-- Node1&#45;&gt;Node34 -->
<g id="edge20" class="edge">
<title>Node1&#45;&gt;Node34</title>
<path fill="none" stroke="midnightblue" d="M121.38,-140.42C145.51,-128.57 176.03,-113.57 201.55,-101.03"/>
<polygon fill="midnightblue" stroke="midnightblue" points="203.28,-104.08 210.71,-96.53 200.19,-97.8 203.28,-104.08"/>
</g>
<!-- Node3 -->
<g id="node3" class="node">
<title>Node3</title>
<g id="a_node3"><a xlink:href="classv8_1_1internal_1_1Isolate.html#a6cb0edf57f829ea37a9a48a3e6bc007d" target="_top" xlink:title=" ">
<polygon fill="white" stroke="black" points="390,-402 390,-432 501,-432 501,-402 390,-402"/>
<text text-anchor="start" x="398" y="-420" font-family="Helvetica,sans-Serif" font-size="10.00">v8::internal::Isolate</text>
<text text-anchor="middle" x="445.5" y="-409" font-family="Helvetica,sans-Serif" font-size="10.00">::builtins</text>
</a>
</g>
</g>
<!-- Node2&#45;&gt;Node3 -->
<g id="edge2" class="edge">
<title>Node2&#45;&gt;Node3</title>
<path fill="none" stroke="midnightblue" d="M269.69,-334.04C287.47,-350.83 318.52,-377.64 350,-393 359.34,-397.56 369.63,-401.31 379.88,-404.38"/>
<polygon fill="midnightblue" stroke="midnightblue" points="379.1,-407.79 389.67,-407.12 380.98,-401.05 379.1,-407.79"/>
</g>
<!-- Node4 -->
<g id="node4" class="node">
<title>Node4</title>
<g id="a_node4"><a xlink:href="classv8_1_1internal_1_1Builtins.html#a367ccf19db3a413d1ba69c16127771ef" target="_top" xlink:title=" ">
<polygon fill="white" stroke="black" points="370.5,-353 370.5,-383 520.5,-383 520.5,-353 370.5,-353"/>
<text text-anchor="start" x="378.5" y="-371" font-family="Helvetica,sans-Serif" font-size="10.00">v8::internal::Builtins</text>
<text text-anchor="middle" x="445.5" y="-360" font-family="Helvetica,sans-Serif" font-size="10.00">::CallInterfaceDescriptorFor</text>
</a>
</g>
</g>
<!-- Node2&#45;&gt;Node4 -->
<g id="edge3" class="edge">
<title>Node2&#45;&gt;Node4</title>
<path fill="none" stroke="midnightblue" d="M311.04,-333.87C323.85,-337.22 337.39,-340.75 350,-344 358.13,-346.1 366.65,-348.28 375.12,-350.44"/>
<polygon fill="midnightblue" stroke="midnightblue" points="374.44,-353.88 385,-352.96 376.17,-347.1 374.44,-353.88"/>
</g>
<!-- Node11 -->
<g id="node9" class="node">
<title>Node11</title>
<g id="a_node9"><a xlink:href="classv8_1_1internal_1_1Builtins.html#a2260f6f209a0b9af26f64d5cf774018b" target="_top" xlink:title=" ">
<polygon fill="white" stroke="black" points="388,-304 388,-334 503,-334 503,-304 388,-304"/>
<text text-anchor="start" x="396" y="-322" font-family="Helvetica,sans-Serif" font-size="10.00">v8::internal::Builtins</text>
<text text-anchor="middle" x="445.5" y="-311" font-family="Helvetica,sans-Serif" font-size="10.00">::code</text>
</a>
</g>
</g>
<!-- Node2&#45;&gt;Node11 -->
<g id="edge8" class="edge">
<title>Node2&#45;&gt;Node11</title>
<path fill="none" stroke="midnightblue" d="M311.25,-319C332.11,-319 355.93,-319 377.6,-319"/>
<polygon fill="midnightblue" stroke="midnightblue" points="377.72,-322.5 387.72,-319 377.72,-315.5 377.72,-322.5"/>
</g>
<!-- Node12 -->
<g id="node10" class="node">
<title>Node12</title>
<g id="a_node10"><a xlink:href="classv8_1_1internal_1_1Builtins.html#a2a4ab319b3b14dc0a1b6cc7967d27523" target="_top" xlink:title=" ">
<polygon fill="white" stroke="black" points="388,-255 388,-285 503,-285 503,-255 388,-255"/>
<text text-anchor="start" x="396" y="-273" font-family="Helvetica,sans-Serif" font-size="10.00">v8::internal::Builtins</text>
<text text-anchor="middle" x="445.5" y="-262" font-family="Helvetica,sans-Serif" font-size="10.00">::code_handle</text>
</a>
</g>
</g>
<!-- Node2&#45;&gt;Node12 -->
<g id="edge10" class="edge">
<title>Node2&#45;&gt;Node12</title>
<path fill="none" stroke="midnightblue" d="M311.25,-304.36C332.21,-298.96 356.14,-292.79 377.89,-287.18"/>
<polygon fill="midnightblue" stroke="midnightblue" points="378.91,-290.53 387.72,-284.64 377.16,-283.75 378.91,-290.53"/>
</g>
<!-- Node5 -->
<g id="node5" class="node">
<title>Node5</title>
<g id="a_node5"><a xlink:href="classv8_1_1internal_1_1Builtins.html#a85bd333e169172efd29f4563a8f827d1" target="_top" xlink:title=" ">
<polygon fill="white" stroke="black" points="595.5,-430 595.5,-460 710.5,-460 710.5,-430 595.5,-430"/>
<text text-anchor="start" x="603.5" y="-448" font-family="Helvetica,sans-Serif" font-size="10.00">v8::internal::Builtins</text>
<text text-anchor="middle" x="653" y="-437" font-family="Helvetica,sans-Serif" font-size="10.00">::BUILTIN_LIST</text>
</a>
</g>
</g>
<!-- Node4&#45;&gt;Node5 -->
<g id="edge4" class="edge">
<title>Node4&#45;&gt;Node5</title>
<path fill="none" stroke="midnightblue" d="M516.32,-383.03C524.83,-385.86 533.24,-389.16 541,-393 559.16,-402 559.07,-411.54 577,-421 580.44,-422.81 584.04,-424.52 587.72,-426.12"/>
<polygon fill="midnightblue" stroke="midnightblue" points="586.42,-429.37 597.01,-429.89 589.05,-422.89 586.42,-429.37"/>
</g>
<!-- Node6 -->
<g id="node6" class="node">
<title>Node6</title>
<g id="a_node6"><a xlink:href="classv8_1_1internal_1_1Builtins.html#a15914b4795b1c5acb776fa776d48b6a3" target="_top" xlink:title=" ">
<polygon fill="white" stroke="red" points="595.5,-381 595.5,-411 710.5,-411 710.5,-381 595.5,-381"/>
<text text-anchor="start" x="603.5" y="-399" font-family="Helvetica,sans-Serif" font-size="10.00">v8::internal::Builtins</text>
<text text-anchor="middle" x="653" y="-388" font-family="Helvetica,sans-Serif" font-size="10.00">::KindOf</text>
</a>
</g>
</g>
<!-- Node4&#45;&gt;Node6 -->
<g id="edge5" class="edge">
<title>Node4&#45;&gt;Node6</title>
<path fill="none" stroke="midnightblue" d="M520.69,-378.11C541.83,-380.99 564.73,-384.11 585.39,-386.92"/>
<polygon fill="midnightblue" stroke="midnightblue" points="584.96,-390.4 595.34,-388.28 585.9,-383.46 584.96,-390.4"/>
</g>
<!-- Node10 -->
<g id="node8" class="node">
<title>Node10</title>
<g id="a_node8"><a xlink:href="namespacev8_1_1internal.html#acdec713c25068019f935e35976f5b666" target="_top" xlink:title=" ">
<polygon fill="white" stroke="black" points="577,-342.5 577,-361.5 729,-361.5 729,-342.5 577,-342.5"/>
<text text-anchor="middle" x="653" y="-349.5" font-family="Helvetica,sans-Serif" font-size="10.00">v8::internal::UNREACHABLE</text>
</a>
</g>
</g>
<!-- Node4&#45;&gt;Node10 -->
<g id="edge7" class="edge">
<title>Node4&#45;&gt;Node10</title>
<path fill="none" stroke="midnightblue" d="M520.69,-362.22C535.69,-361.06 551.56,-359.82 566.9,-358.63"/>
<polygon fill="midnightblue" stroke="midnightblue" points="567.18,-362.11 576.88,-357.85 566.64,-355.14 567.18,-362.11"/>
</g>
<!-- Node9 -->
<g id="node7" class="node">
<title>Node9</title>
<g id="a_node7"><a xlink:href="classv8_1_1internal_1_1Builtins.html#a6e1264346a2d6519ac478f560345af39" target="_top" xlink:title=" ">
<polygon fill="white" stroke="red" points="765,-299 765,-329 880,-329 880,-299 765,-299"/>
<text text-anchor="start" x="773" y="-317" font-family="Helvetica,sans-Serif" font-size="10.00">v8::internal::Builtins</text>
<text text-anchor="middle" x="822.5" y="-306" font-family="Helvetica,sans-Serif" font-size="10.00">::ToInt</text>
</a>
</g>
</g>
<!-- Node6&#45;&gt;Node9 -->
<g id="edge6" class="edge">
<title>Node6&#45;&gt;Node9</title>
<path fill="none" stroke="midnightblue" d="M704.65,-380.89C712.92,-377.92 721.29,-374.6 729,-371 750.83,-360.8 773.9,-346.59 791.55,-334.91"/>
<polygon fill="midnightblue" stroke="midnightblue" points="793.89,-337.55 800.24,-329.07 789.99,-331.74 793.89,-337.55"/>
</g>
<!-- Node11&#45;&gt;Node9 -->
<g id="edge9" class="edge">
<title>Node11&#45;&gt;Node9</title>
<path fill="none" stroke="midnightblue" d="M503.05,-318.25C570.43,-317.35 682.87,-315.85 754.53,-314.89"/>
<polygon fill="midnightblue" stroke="midnightblue" points="754.85,-318.39 764.8,-314.76 754.75,-311.39 754.85,-318.39"/>
</g>
<!-- Node12&#45;&gt;Node9 -->
<g id="edge11" class="edge">
<title>Node12&#45;&gt;Node9</title>
<path fill="none" stroke="midnightblue" d="M503.05,-276.63C570.43,-284.54 682.87,-297.73 754.53,-306.14"/>
<polygon fill="midnightblue" stroke="midnightblue" points="754.46,-309.66 764.8,-307.35 755.28,-302.71 754.46,-309.66"/>
</g>
<!-- Node14 -->
<g id="node12" class="node">
<title>Node14</title>
<g id="a_node12"><a xlink:href="classv8_1_1internal_1_1compiler_1_1NodeProperties.html#a0819fb9249218d0f7a50189f049925e6" target="_top" xlink:title=" ">
<polygon fill="white" stroke="black" points="368.5,-171 368.5,-201 522.5,-201 522.5,-171 368.5,-171"/>
<text text-anchor="start" x="376.5" y="-189" font-family="Helvetica,sans-Serif" font-size="10.00">v8::internal::compiler</text>
<text text-anchor="middle" x="445.5" y="-178" font-family="Helvetica,sans-Serif" font-size="10.00">::NodeProperties::ChangeOp</text>
</a>
</g>
</g>
<!-- Node13&#45;&gt;Node14 -->
<g id="edge13" class="edge">
<title>Node13&#45;&gt;Node14</title>
<path fill="none" stroke="midnightblue" d="M314.1,-168.84C328.07,-170.68 343.23,-172.68 358.11,-174.63"/>
<polygon fill="midnightblue" stroke="midnightblue" points="357.98,-178.15 368.35,-175.98 358.89,-171.21 357.98,-178.15"/>
</g>
<!-- Node17 -->
<g id="node15" class="node">
<title>Node17</title>
<g id="a_node15"><a xlink:href="classv8_1_1internal_1_1compiler_1_1NodeProperties.html#a163c391399bcf0c397bafd43cdb5969b" target="_top" xlink:title=" ">
<polygon fill="white" stroke="black" points="350,-110.5 350,-151.5 541,-151.5 541,-110.5 350,-110.5"/>
<text text-anchor="start" x="358" y="-139.5" font-family="Helvetica,sans-Serif" font-size="10.00">v8::internal::compiler</text>
<text text-anchor="start" x="358" y="-128.5" font-family="Helvetica,sans-Serif" font-size="10.00">::NodeProperties::RemoveNonValue</text>
<text text-anchor="middle" x="445.5" y="-117.5" font-family="Helvetica,sans-Serif" font-size="10.00">Inputs</text>
</a>
</g>
</g>
<!-- Node13&#45;&gt;Node17 -->
<g id="edge16" class="edge">
<title>Node13&#45;&gt;Node17</title>
<path fill="none" stroke="midnightblue" d="M314.1,-151.59C322.4,-150.28 331.12,-148.9 339.96,-147.51"/>
<polygon fill="midnightblue" stroke="midnightblue" points="340.63,-150.94 349.96,-145.93 339.54,-144.03 340.63,-150.94"/>
</g>
<!-- Node15 -->
<g id="node13" class="node">
<title>Node15</title>
<g id="a_node13"><a xlink:href="classv8_1_1internal_1_1compiler_1_1Node.html#a70d7d14d1ecd6ee3eb9321b2f549a237" target="_top" xlink:title=" ">
<polygon fill="white" stroke="black" points="592.5,-217 592.5,-247 713.5,-247 713.5,-217 592.5,-217"/>
<text text-anchor="start" x="600.5" y="-235" font-family="Helvetica,sans-Serif" font-size="10.00">v8::internal::compiler</text>
<text text-anchor="middle" x="653" y="-224" font-family="Helvetica,sans-Serif" font-size="10.00">::Node::set_op</text>
</a>
</g>
</g>
<!-- Node14&#45;&gt;Node15 -->
<g id="edge14" class="edge">
<title>Node14&#45;&gt;Node15</title>
<path fill="none" stroke="midnightblue" d="M513.79,-201.06C535.71,-205.97 560.1,-211.43 582.2,-216.38"/>
<polygon fill="midnightblue" stroke="midnightblue" points="581.66,-219.84 592.18,-218.61 583.19,-213.01 581.66,-219.84"/>
</g>
<!-- Node16 -->
<g id="node14" class="node">
<title>Node16</title>
<g id="a_node14"><a xlink:href="classv8_1_1internal_1_1compiler_1_1Verifier.html#ad4ccd74b2c1820f3e00a863eb4d73515" target="_top" xlink:title=" ">
<polygon fill="white" stroke="black" points="592.5,-168 592.5,-198 713.5,-198 713.5,-168 592.5,-168"/>
<text text-anchor="start" x="600.5" y="-186" font-family="Helvetica,sans-Serif" font-size="10.00">v8::internal::compiler</text>
<text text-anchor="middle" x="653" y="-175" font-family="Helvetica,sans-Serif" font-size="10.00">::Verifier::VerifyNode</text>
</a>
</g>
</g>
<!-- Node14&#45;&gt;Node16 -->
<g id="edge15" class="edge">
<title>Node14&#45;&gt;Node16</title>
<path fill="none" stroke="midnightblue" d="M522.73,-184.89C542.19,-184.6 563.01,-184.3 582.14,-184.02"/>
<polygon fill="midnightblue" stroke="midnightblue" points="582.32,-187.52 592.27,-183.87 582.22,-180.52 582.32,-187.52"/>
</g>
<!-- Node18 -->
<g id="node16" class="node">
<title>Node18</title>
<g id="a_node16"><a xlink:href="classv8_1_1internal_1_1compiler_1_1Node.html#a3da04276e5cf4a3bceaa3c5aa84a7fb7" target="_top" xlink:title=" ">
<polygon fill="white" stroke="black" points="592.5,-119 592.5,-149 713.5,-149 713.5,-119 592.5,-119"/>
<text text-anchor="start" x="600.5" y="-137" font-family="Helvetica,sans-Serif" font-size="10.00">v8::internal::compiler</text>
<text text-anchor="middle" x="653" y="-126" font-family="Helvetica,sans-Serif" font-size="10.00">::Node::op</text>
</a>
</g>
</g>
<!-- Node17&#45;&gt;Node18 -->
<g id="edge17" class="edge">
<title>Node17&#45;&gt;Node18</title>
<path fill="none" stroke="midnightblue" d="M541.13,-132.38C554.93,-132.58 568.92,-132.79 582.11,-132.98"/>
<polygon fill="midnightblue" stroke="midnightblue" points="582.44,-136.48 592.49,-133.13 582.55,-129.49 582.44,-136.48"/>
</g>
<!-- Node19 -->
<g id="node17" class="node">
<title>Node19</title>
<g id="a_node17"><a xlink:href="classv8_1_1internal_1_1compiler_1_1Node.html#a8c0c7263c189a8e52b9354e5539362c5" target="_top" xlink:title=" ">
<polygon fill="white" stroke="red" points="589,-70 589,-100 717,-100 717,-70 589,-70"/>
<text text-anchor="start" x="597" y="-88" font-family="Helvetica,sans-Serif" font-size="10.00">v8::internal::compiler</text>
<text text-anchor="middle" x="653" y="-77" font-family="Helvetica,sans-Serif" font-size="10.00">::Node::TrimInputCount</text>
</a>
</g>
</g>
<!-- Node17&#45;&gt;Node19 -->
<g id="edge18" class="edge">
<title>Node17&#45;&gt;Node19</title>
<path fill="none" stroke="midnightblue" d="M538.13,-110.49C551.78,-107.43 565.69,-104.32 578.89,-101.37"/>
<polygon fill="midnightblue" stroke="midnightblue" points="579.83,-104.74 588.82,-99.14 578.3,-97.91 579.83,-104.74"/>
</g>
<!-- Node33 -->
<g id="node18" class="node">
<title>Node33</title>
<g id="a_node18"><a xlink:href="classv8_1_1internal_1_1compiler_1_1Operator.html#a2ea0f97044ee07b76f525f48360a75ce" target="_top" xlink:title=" ">
<polygon fill="white" stroke="black" points="577,-21 577,-51 729,-51 729,-21 577,-21"/>
<text text-anchor="start" x="585" y="-39" font-family="Helvetica,sans-Serif" font-size="10.00">v8::internal::compiler</text>
<text text-anchor="middle" x="653" y="-28" font-family="Helvetica,sans-Serif" font-size="10.00">::Operator::ValueInputCount</text>
</a>
</g>
</g>
<!-- Node17&#45;&gt;Node33 -->
<g id="edge19" class="edge">
<title>Node17&#45;&gt;Node33</title>
<path fill="none" stroke="midnightblue" d="M523.41,-110.5C529.56,-107.7 535.5,-104.54 541,-101 561.1,-88.04 556.99,-74.1 577,-61 580.11,-58.96 583.4,-57.08 586.8,-55.33"/>
<polygon fill="midnightblue" stroke="midnightblue" points="588.42,-58.44 596.01,-51.04 585.47,-52.09 588.42,-58.44"/>
</g>
<!-- Node35 -->
<g id="node20" class="node">
<title>Node35</title>
<g id="a_node20"><a xlink:href="classv8_1_1internal_1_1compiler_1_1JSGraph.html#a3cdc4b9f4f26c716107febc5fbcc4d71" target="_top" xlink:title=" ">
<polygon fill="white" stroke="black" points="385,-61 385,-91 506,-91 506,-61 385,-61"/>
<text text-anchor="start" x="393" y="-79" font-family="Helvetica,sans-Serif" font-size="10.00">v8::internal::compiler</text>
<text text-anchor="middle" x="445.5" y="-68" font-family="Helvetica,sans-Serif" font-size="10.00">::JSGraph::isolate</text>
</a>
</g>
</g>
<!-- Node34&#45;&gt;Node35 -->
<g id="edge21" class="edge">
<title>Node34&#45;&gt;Node35</title>
<path fill="none" stroke="midnightblue" d="M314.1,-76C333.28,-76 354.71,-76 374.57,-76"/>
<polygon fill="midnightblue" stroke="midnightblue" points="374.79,-79.5 384.79,-76 374.79,-72.5 374.79,-79.5"/>
</g>
<!-- Node36 -->
<g id="node21" class="node">
<title>Node36</title>
<g id="a_node21"><a xlink:href="classv8_1_1internal_1_1compiler_1_1JSIntrinsicLowering.html#a3019cc97cfee1153f40a09c1a95328cb" target="_top" xlink:title=" ">
<polygon fill="white" stroke="black" points="385,-0.5 385,-41.5 506,-41.5 506,-0.5 385,-0.5"/>
<text text-anchor="start" x="393" y="-29.5" font-family="Helvetica,sans-Serif" font-size="10.00">v8::internal::compiler</text>
<text text-anchor="start" x="393" y="-18.5" font-family="Helvetica,sans-Serif" font-size="10.00">::JSIntrinsicLowering</text>
<text text-anchor="middle" x="445.5" y="-7.5" font-family="Helvetica,sans-Serif" font-size="10.00">::jsgraph</text>
</a>
</g>
</g>
<!-- Node34&#45;&gt;Node36 -->
<g id="edge22" class="edge">
<title>Node34&#45;&gt;Node36</title>
<path fill="none" stroke="midnightblue" d="M314.1,-58.75C333.46,-53.14 355.1,-46.88 375.11,-41.09"/>
<polygon fill="midnightblue" stroke="midnightblue" points="376.16,-44.43 384.79,-38.28 374.21,-37.7 376.16,-44.43"/>
</g>
</g>
</svg>
        <g id="navigator" transform="translate(0 0)" fill="#404254">
                <rect fill="#f2f5e9" fill-opacity="0.5" stroke="#606060" stroke-width=".5" x="0" y="0" width="60" height="60"/>
                <use id="zoomplus" xlink:href="#zoomPlus" x="17" y="9" onmousedown="handleZoom(evt,'in')"/>
                <use id="zoomminus" xlink:href="#zoomMin" x="42" y="9" onmousedown="handleZoom(evt,'out')"/>
                <use id="reset" xlink:href="#resetDef" x="30" y="36" onmousedown="handleReset()"/>
                <g id="arrowUp" xlink:href="#dirArrow" transform="translate(30 24)" onmousedown="handlePan(0,-1)">
                  <use xlink:href="#rim" fill="#404040">
                        <set attributeName="fill" to="#808080" begin="arrowUp.mouseover" end="arrowUp.mouseout"/>
                  </use>
                  <path fill="none" stroke="white" stroke-width="1.5" d="M0,-3.0v7 M-2.5,-0.5L0,-3.0L2.5,-0.5"/>
                </g>
                <g id="arrowRight" xlink:href="#dirArrow" transform="rotate(90) translate(36 -43)" onmousedown="handlePan(1,0)">
                  <use xlink:href="#rim" fill="#404040">
                        <set attributeName="fill" to="#808080" begin="arrowRight.mouseover" end="arrowRight.mouseout"/>
                  </use>
                  <path fill="none" stroke="white" stroke-width="1.5" d="M0,-3.0v7 M-2.5,-0.5L0,-3.0L2.5,-0.5"/>
                </g>
                <g id="arrowDown" xlink:href="#dirArrow" transform="rotate(180) translate(-30 -48)" onmousedown="handlePan(0,1)">
                  <use xlink:href="#rim" fill="#404040">
                        <set attributeName="fill" to="#808080" begin="arrowDown.mouseover" end="arrowDown.mouseout"/>
                  </use>
                  <path fill="none" stroke="white" stroke-width="1.5" d="M0,-3.0v7 M-2.5,-0.5L0,-3.0L2.5,-0.5"/>
                </g>
                <g id="arrowLeft" xlink:href="#dirArrow" transform="rotate(270) translate(-36 17)" onmousedown="handlePan(-1,0)">
                  <use xlink:href="#rim" fill="#404040">
                        <set attributeName="fill" to="#808080" begin="arrowLeft.mouseover" end="arrowLeft.mouseout"/>
                  </use>
                  <path fill="none" stroke="white" stroke-width="1.5" d="M0,-3.0v7 M-2.5,-0.5L0,-3.0L2.5,-0.5"/>
                </g>
        </g>
        <svg viewBox="0 0 15 15" width="100%" height="30px" preserveAspectRatio="xMaxYMin meet">
         <g id="arrow_out" transform="scale(0.3 0.3)">
          <a xlink:href="classv8_1_1internal_1_1compiler_1_1JSIntrinsicLowering_a409ec042e737285270590001753bf8e1_cgraph_org.svg" target="_base">
           <rect id="button" ry="5" rx="5" y="6" x="6" height="38" width="38"
                fill="#f2f5e9" fill-opacity="0.5" stroke="#606060" stroke-width="1.0"/>
           <path id="arrow"
             d="M 11.500037,31.436501 C 11.940474,20.09759 22.043105,11.32322 32.158766,21.979434 L 37.068811,17.246167 C 37.068811,17.246167 37.088388,32 37.088388,32 L 22.160133,31.978069 C 22.160133,31.978069 26.997745,27.140456 26.997745,27.140456 C 18.528582,18.264221 13.291696,25.230495 11.500037,31.436501 z"
             style="fill:#404040;"/>
          </a>
         </g>
        </svg>
</svg>
