<?xml version="1.0" encoding="UTF-8" standalone="no"?>
<!DOCTYPE svg PUBLIC "-//W3C//DTD SVG 1.1//EN"
 "http://www.w3.org/Graphics/SVG/1.1/DTD/svg11.dtd">
<!-- Generated by graphviz version 2.43.0 (0)
 -->
<!-- Title: v8::internal::StubFrame::LookupExceptionHandlerInTable Pages: 1 -->
<!--zoomable 709 -->
<svg id="main" version="1.1" xmlns="http://www.w3.org/2000/svg" xmlns:xlink="http://www.w3.org/1999/xlink" xml:space="preserve" onload="init(evt)">
<style type="text/css"><![CDATA[
.edge:hover path { stroke: red; }
.edge:hover polygon { stroke: red; fill: red; }
]]></style>
<script type="text/javascript"><![CDATA[
var edges = document.getElementsByTagName('g');
if (edges && edges.length) {
  for (var i=0;i<edges.length;i++) {
    if (edges[i].id.substr(0,4)=='edge') {
      edges[i].setAttribute('class','edge');
    }
  }
}
]]></script>
        <defs>
                <circle id="rim" cx="0" cy="0" r="7"/>
                <circle id="rim2" cx="0" cy="0" r="3.5"/>
                <g id="zoomPlus">
                        <use xlink:href="#rim" fill="#404040">
                                <set attributeName="fill" to="#808080" begin="zoomplus.mouseover" end="zoomplus.mouseout"/>
                        </use>
                        <path d="M-4,0h8M0,-4v8" fill="none" stroke="white" stroke-width="1.5" pointer-events="none"/>
                </g>
                <g id="zoomMin">
                        <use xlink:href="#rim" fill="#404040">
                                <set attributeName="fill" to="#808080" begin="zoomminus.mouseover" end="zoomminus.mouseout"/>
                        </use>
                        <path d="M-4,0h8" fill="none" stroke="white" stroke-width="1.5" pointer-events="none"/>
                </g>
                <g id="dirArrow">
                        <path fill="none" stroke="white" stroke-width="1.5" d="M0,-3.0v7 M-2.5,-0.5L0,-3.0L2.5,-0.5"/>
                </g>
               <g id="resetDef">
                       <use xlink:href="#rim2" fill="#404040">
                               <set attributeName="fill" to="#808080" begin="reset.mouseover" end="reset.mouseout"/>
                       </use>
               </g>
        </defs>

<script type="text/javascript">
var viewWidth = 947;
var viewHeight = 709;
var sectionId = 'dynsection-2';
</script>
<script xlink:href="svgpan.js"/>
<svg id="graph" class="graph">
<g id="viewport">
<title>v8::internal::StubFrame::LookupExceptionHandlerInTable</title>
<polygon fill="white" stroke="transparent" points="-4,4 -4,-705 943,-705 943,4 -4,4"/>
<!-- Node1 -->
<g id="node1" class="node">
<title>Node1</title>
<g id="a_node1"><a xlink:title=" ">
<polygon fill="#bfbfbf" stroke="black" points="0,-554.5 0,-584.5 178,-584.5 178,-554.5 0,-554.5"/>
<text text-anchor="start" x="8" y="-572.5" font-family="Helvetica,sans-Serif" font-size="10.00">v8::internal::StubFrame</text>
<text text-anchor="middle" x="89" y="-561.5" font-family="Helvetica,sans-Serif" font-size="10.00">::LookupExceptionHandlerInTable</text>
</a>
</g>
</g>
<!-- Node2 -->
<g id="node2" class="node">
<title>Node2</title>
<g id="a_node2"><a xlink:href="namespacev8_1_1internal.html#aa6b3743bd5d773c552654f2a6c3efa4a" target="_top" xlink:title=" ">
<polygon fill="white" stroke="black" points="225.5,-604 225.5,-623 344.5,-623 344.5,-604 225.5,-604"/>
<text text-anchor="middle" x="285" y="-611" font-family="Helvetica,sans-Serif" font-size="10.00">v8::internal::DCHECK</text>
</a>
</g>
</g>
<!-- Node1&#45;&gt;Node2 -->
<g id="edge1" class="edge">
<title>Node1&#45;&gt;Node2</title>
<path fill="none" stroke="midnightblue" d="M156.22,-584.52C180.99,-590.14 208.74,-596.43 232.03,-601.71"/>
<polygon fill="midnightblue" stroke="midnightblue" points="231.53,-605.19 242.06,-603.99 233.08,-598.36 231.53,-605.19"/>
</g>
<!-- Node3 -->
<g id="node3" class="node">
<title>Node3</title>
<g id="a_node3"><a xlink:href="classv8_1_1internal_1_1StackFrame.html#a2ebe1b6b333f623e0959c6d2f06fc0c7" target="_top" xlink:title=" ">
<polygon fill="white" stroke="black" points="217,-554.5 217,-584.5 353,-584.5 353,-554.5 217,-554.5"/>
<text text-anchor="start" x="225" y="-572.5" font-family="Helvetica,sans-Serif" font-size="10.00">v8::internal::StackFrame</text>
<text text-anchor="middle" x="285" y="-561.5" font-family="Helvetica,sans-Serif" font-size="10.00">::LookupCodeAndOffset</text>
</a>
</g>
</g>
<!-- Node1&#45;&gt;Node3 -->
<g id="edge2" class="edge">
<title>Node1&#45;&gt;Node3</title>
<path fill="none" stroke="midnightblue" d="M178.2,-569.5C187.76,-569.5 197.43,-569.5 206.84,-569.5"/>
<polygon fill="midnightblue" stroke="midnightblue" points="206.93,-573 216.93,-569.5 206.93,-566 206.93,-573"/>
</g>
<!-- Node44 -->
<g id="node10" class="node">
<title>Node44</title>
<g id="a_node10"><a xlink:href="classv8_1_1internal_1_1HandlerTable.html#af62d31c389403c24a2c8adccfd650413" target="_top" xlink:title=" ">
<polygon fill="white" stroke="black" points="214,-227.5 214,-257.5 356,-257.5 356,-227.5 214,-227.5"/>
<text text-anchor="start" x="222" y="-245.5" font-family="Helvetica,sans-Serif" font-size="10.00">v8::internal::HandlerTable</text>
<text text-anchor="middle" x="285" y="-234.5" font-family="Helvetica,sans-Serif" font-size="10.00">::LookupReturn</text>
</a>
</g>
</g>
<!-- Node1&#45;&gt;Node44 -->
<g id="edge11" class="edge">
<title>Node1&#45;&gt;Node44</title>
<path fill="none" stroke="midnightblue" d="M99.1,-554.17C130.09,-501.92 231.75,-330.58 269.61,-266.75"/>
<polygon fill="midnightblue" stroke="midnightblue" points="272.83,-268.19 274.92,-257.8 266.81,-264.61 272.83,-268.19"/>
</g>
<!-- Node4 -->
<g id="node4" class="node">
<title>Node4</title>
<g id="a_node4"><a xlink:href="classv8_1_1internal_1_1StackFrame.html#ad223188e01fabf0116775655b3cf83a9" target="_top" xlink:title=" ">
<polygon fill="white" stroke="black" points="392,-576.5 392,-606.5 556,-606.5 556,-576.5 392,-576.5"/>
<text text-anchor="start" x="400" y="-594.5" font-family="Helvetica,sans-Serif" font-size="10.00">v8::internal::StackFrame</text>
<text text-anchor="middle" x="474" y="-583.5" font-family="Helvetica,sans-Serif" font-size="10.00">::GcSafeLookupCodeAndOffset</text>
</a>
</g>
</g>
<!-- Node3&#45;&gt;Node4 -->
<g id="edge3" class="edge">
<title>Node3&#45;&gt;Node4</title>
<path fill="none" stroke="midnightblue" d="M353.25,-577.41C362.57,-578.51 372.28,-579.65 381.95,-580.79"/>
<polygon fill="midnightblue" stroke="midnightblue" points="381.65,-584.28 391.99,-581.97 382.47,-577.33 381.65,-584.28"/>
</g>
<!-- Node32 -->
<g id="node6" class="node">
<title>Node32</title>
<g id="a_node6"><a xlink:href="classv8_1_1internal_1_1StackFrame.html#aa833f02441454c45d09c5bf51a699a20" target="_top" xlink:title=" ">
<polygon fill="white" stroke="black" points="603,-670.5 603,-700.5 739,-700.5 739,-670.5 603,-670.5"/>
<text text-anchor="start" x="611" y="-688.5" font-family="Helvetica,sans-Serif" font-size="10.00">v8::internal::StackFrame</text>
<text text-anchor="middle" x="671" y="-677.5" font-family="Helvetica,sans-Serif" font-size="10.00">::isolate</text>
</a>
</g>
</g>
<!-- Node3&#45;&gt;Node32 -->
<g id="edge10" class="edge">
<title>Node3&#45;&gt;Node32</title>
<path fill="none" stroke="midnightblue" d="M332.49,-584.58C340.45,-587.6 348.55,-590.94 356,-594.5 372.92,-602.58 374.7,-609.27 392,-616.5 457.25,-643.77 535.79,-662.04 592.73,-672.89"/>
<polygon fill="midnightblue" stroke="midnightblue" points="592.27,-676.36 602.74,-674.76 593.56,-669.48 592.27,-676.36"/>
</g>
<!-- Node43 -->
<g id="node9" class="node">
<title>Node43</title>
<g id="a_node9"><a xlink:href="flag-definitions_8h.html#a761e4e5929b1553283fd6a532822bb17" target="_top" xlink:title=" ">
<polygon fill="white" stroke="black" points="453.5,-538 453.5,-557 494.5,-557 494.5,-538 453.5,-538"/>
<text text-anchor="middle" x="474" y="-545" font-family="Helvetica,sans-Serif" font-size="10.00">heap</text>
</a>
</g>
</g>
<!-- Node3&#45;&gt;Node43 -->
<g id="edge9" class="edge">
<title>Node3&#45;&gt;Node43</title>
<path fill="none" stroke="midnightblue" d="M353.25,-561.59C384.08,-557.96 419.05,-553.85 443.21,-551.01"/>
<polygon fill="midnightblue" stroke="midnightblue" points="443.65,-554.48 453.17,-549.83 442.83,-547.53 443.65,-554.48"/>
</g>
<!-- Node5 -->
<g id="node5" class="node">
<title>Node5</title>
<g id="a_node5"><a xlink:href="namespacev8_1_1internal_1_1anonymous__namespace_02frames_8cc_03.html#a289bb9cbaf19d6b333601b46e521c578" target="_top" xlink:title=" ">
<polygon fill="white" stroke="red" points="600.5,-610 600.5,-651 741.5,-651 741.5,-610 600.5,-610"/>
<text text-anchor="start" x="608.5" y="-639" font-family="Helvetica,sans-Serif" font-size="10.00">v8::internal::anonymous</text>
<text text-anchor="start" x="608.5" y="-628" font-family="Helvetica,sans-Serif" font-size="10.00">_namespace{frames::cc}</text>
<text text-anchor="middle" x="671" y="-617" font-family="Helvetica,sans-Serif" font-size="10.00">::GetContainingCode</text>
</a>
</g>
</g>
<!-- Node4&#45;&gt;Node5 -->
<g id="edge4" class="edge">
<title>Node4&#45;&gt;Node5</title>
<path fill="none" stroke="midnightblue" d="M550.11,-606.52C563.28,-609.16 577.02,-611.9 590.31,-614.56"/>
<polygon fill="midnightblue" stroke="midnightblue" points="589.87,-618.04 600.36,-616.57 591.24,-611.18 589.87,-618.04"/>
</g>
<!-- Node4&#45;&gt;Node32 -->
<g id="edge5" class="edge">
<title>Node4&#45;&gt;Node32</title>
<path fill="none" stroke="midnightblue" d="M501.35,-606.59C517.24,-615.73 537.84,-627.68 556,-638.5 572.11,-648.09 574.95,-652.69 592,-660.5 596.93,-662.76 602.12,-664.9 607.39,-666.9"/>
<polygon fill="midnightblue" stroke="midnightblue" points="606.31,-670.24 616.9,-670.37 608.7,-663.66 606.31,-670.24"/>
</g>
<!-- Node33 -->
<g id="node7" class="node">
<title>Node33</title>
<g id="a_node7"><a xlink:href="classv8_1_1internal_1_1StackFrame.html#af8a7ad08c8c2389378855162e89b11ef" target="_top" xlink:title=" ">
<polygon fill="white" stroke="red" points="592,-560.5 592,-590.5 750,-590.5 750,-560.5 592,-560.5"/>
<text text-anchor="start" x="600" y="-578.5" font-family="Helvetica,sans-Serif" font-size="10.00">v8::internal::StackFrame</text>
<text text-anchor="middle" x="671" y="-567.5" font-family="Helvetica,sans-Serif" font-size="10.00">::maybe_unauthenticated_pc</text>
</a>
</g>
</g>
<!-- Node4&#45;&gt;Node33 -->
<g id="edge6" class="edge">
<title>Node4&#45;&gt;Node33</title>
<path fill="none" stroke="midnightblue" d="M556,-584.85C564.5,-584.16 573.17,-583.44 581.75,-582.74"/>
<polygon fill="midnightblue" stroke="midnightblue" points="582.07,-586.23 591.75,-581.92 581.5,-579.25 582.07,-586.23"/>
</g>
<!-- Node37 -->
<g id="node8" class="node">
<title>Node37</title>
<g id="a_node8"><a xlink:href="classv8_1_1internal_1_1StackFrame.html#abc14319996484cb09f941a893aa96525" target="_top" xlink:title=" ">
<polygon fill="white" stroke="red" points="786,-544 786,-563 939,-563 939,-544 786,-544"/>
<text text-anchor="middle" x="862.5" y="-551" font-family="Helvetica,sans-Serif" font-size="10.00">v8::internal::StackFrame::pc</text>
</a>
</g>
</g>
<!-- Node4&#45;&gt;Node37 -->
<g id="edge8" class="edge">
<title>Node4&#45;&gt;Node37</title>
<path fill="none" stroke="midnightblue" d="M526.23,-576.5C536.16,-573.36 546.45,-569.95 556,-566.5 572.3,-560.6 575,-554.9 592,-551.5 652.56,-539.39 722.31,-540.3 775.68,-544.02"/>
<polygon fill="midnightblue" stroke="midnightblue" points="775.56,-547.52 785.79,-544.77 776.08,-540.54 775.56,-547.52"/>
</g>
<!-- Node33&#45;&gt;Node37 -->
<g id="edge7" class="edge">
<title>Node33&#45;&gt;Node37</title>
<path fill="none" stroke="midnightblue" d="M750.17,-566.42C758.67,-565.44 767.36,-564.43 775.94,-563.43"/>
<polygon fill="midnightblue" stroke="midnightblue" points="776.42,-566.9 785.95,-562.27 775.61,-559.95 776.42,-566.9"/>
</g>
<!-- Node45 -->
<g id="node11" class="node">
<title>Node45</title>
<g id="a_node11"><a xlink:href="namespacev8_1_1internal_1_1compiler.html#ae72af9053b45630a01be9a6140820b5a" target="_top" xlink:title=" ">
<polygon fill="white" stroke="black" points="413.5,-423.5 413.5,-453.5 534.5,-453.5 534.5,-423.5 413.5,-423.5"/>
<text text-anchor="start" x="421.5" y="-441.5" font-family="Helvetica,sans-Serif" font-size="10.00">v8::internal::compiler</text>
<text text-anchor="middle" x="474" y="-430.5" font-family="Helvetica,sans-Serif" font-size="10.00">::begin</text>
</a>
</g>
</g>
<!-- Node44&#45;&gt;Node45 -->
<g id="edge12" class="edge">
<title>Node44&#45;&gt;Node45</title>
<path fill="none" stroke="midnightblue" d="M291.74,-257.66C304.71,-289.94 339.3,-366 392,-408.5 396.9,-412.45 402.38,-415.92 408.1,-418.95"/>
<polygon fill="midnightblue" stroke="midnightblue" points="406.74,-422.17 417.26,-423.35 409.77,-415.86 406.74,-422.17"/>
</g>
<!-- Node48 -->
<g id="node14" class="node">
<title>Node48</title>
<g id="a_node14"><a xlink:href="namespacev8_1_1internal_1_1compiler.html#a51dcb90ae077172b12d63271c7e7ba0c" target="_top" xlink:title=" ">
<polygon fill="white" stroke="black" points="401.5,-380 401.5,-399 546.5,-399 546.5,-380 401.5,-380"/>
<text text-anchor="middle" x="474" y="-387" font-family="Helvetica,sans-Serif" font-size="10.00">v8::internal::compiler::end</text>
</a>
</g>
</g>
<!-- Node44&#45;&gt;Node48 -->
<g id="edge15" class="edge">
<title>Node44&#45;&gt;Node48</title>
<path fill="none" stroke="midnightblue" d="M294.34,-257.53C309.92,-284.16 346.06,-339.53 392,-368.5 396.76,-371.5 401.94,-374.08 407.29,-376.28"/>
<polygon fill="midnightblue" stroke="midnightblue" points="406.48,-379.72 417.08,-379.87 408.9,-373.14 406.48,-379.72"/>
</g>
<!-- Node50 -->
<g id="node16" class="node">
<title>Node50</title>
<g id="a_node16"><a xlink:href="classv8_1_1internal_1_1HandlerTable.html#ac0ddbd66dfb26ff4bf5c41f310113770" target="_top" xlink:title=" ">
<polygon fill="white" stroke="black" points="403,-328.5 403,-358.5 545,-358.5 545,-328.5 403,-328.5"/>
<text text-anchor="start" x="411" y="-346.5" font-family="Helvetica,sans-Serif" font-size="10.00">v8::internal::HandlerTable</text>
<text text-anchor="middle" x="474" y="-335.5" font-family="Helvetica,sans-Serif" font-size="10.00">::GetReturnHandler</text>
</a>
</g>
</g>
<!-- Node44&#45;&gt;Node50 -->
<g id="edge18" class="edge">
<title>Node44&#45;&gt;Node50</title>
<path fill="none" stroke="midnightblue" d="M305.46,-257.58C326.09,-273.08 360.05,-297.17 392,-313.5 399.86,-317.52 408.38,-321.27 416.86,-324.67"/>
<polygon fill="midnightblue" stroke="midnightblue" points="415.77,-328.01 426.36,-328.36 418.3,-321.48 415.77,-328.01"/>
</g>
<!-- Node52 -->
<g id="node18" class="node">
<title>Node52</title>
<g id="a_node18"><a xlink:href="classv8_1_1internal_1_1HandlerTable.html#a2deadbbd6405c66f9d5739c89f5f4873" target="_top" xlink:title=" ">
<polygon fill="white" stroke="black" points="600,-276.5 600,-306.5 742,-306.5 742,-276.5 600,-276.5"/>
<text text-anchor="start" x="608" y="-294.5" font-family="Helvetica,sans-Serif" font-size="10.00">v8::internal::HandlerTable</text>
<text text-anchor="middle" x="671" y="-283.5" font-family="Helvetica,sans-Serif" font-size="10.00">::NumberOfReturnEntries</text>
</a>
</g>
</g>
<!-- Node44&#45;&gt;Node52 -->
<g id="edge21" class="edge">
<title>Node44&#45;&gt;Node52</title>
<path fill="none" stroke="midnightblue" d="M319.63,-257.53C340.11,-265.93 367.05,-275.65 392,-280.5 457.73,-293.27 533.79,-295.43 589.72,-294.74"/>
<polygon fill="midnightblue" stroke="midnightblue" points="589.98,-298.23 599.92,-294.57 589.86,-291.23 589.98,-298.23"/>
</g>
<!-- Node53 -->
<g id="node19" class="node">
<title>Node53</title>
<g id="a_node19"><a xlink:href="namespacev8_1_1internal.html#a1dca4103f53c337817629ca6ce123043" target="_top" xlink:title=" ">
<polygon fill="white" stroke="black" points="408.5,-252 408.5,-271 539.5,-271 539.5,-252 408.5,-252"/>
<text text-anchor="middle" x="474" y="-259" font-family="Helvetica,sans-Serif" font-size="10.00">v8::internal::operator!=</text>
</a>
</g>
</g>
<!-- Node44&#45;&gt;Node53 -->
<g id="edge22" class="edge">
<title>Node44&#45;&gt;Node53</title>
<path fill="none" stroke="midnightblue" d="M356.16,-249.63C369.92,-251.03 384.4,-252.5 398.31,-253.91"/>
<polygon fill="midnightblue" stroke="midnightblue" points="398.01,-257.4 408.31,-254.93 398.71,-250.43 398.01,-257.4"/>
</g>
<!-- Node54 -->
<g id="node20" class="node">
<title>Node54</title>
<g id="a_node20"><a xlink:href="namespacev8_1_1internal.html#aed26aac3c05949f8ebe6c970cebc655f" target="_top" xlink:title=" ">
<polygon fill="white" stroke="black" points="406,-214 406,-233 542,-233 542,-214 406,-214"/>
<text text-anchor="middle" x="474" y="-221" font-family="Helvetica,sans-Serif" font-size="10.00">v8::internal::operator++</text>
</a>
</g>
</g>
<!-- Node44&#45;&gt;Node54 -->
<g id="edge23" class="edge">
<title>Node44&#45;&gt;Node54</title>
<path fill="none" stroke="midnightblue" d="M356.16,-235.37C369.13,-234.05 382.74,-232.67 395.89,-231.33"/>
<polygon fill="midnightblue" stroke="midnightblue" points="396.26,-234.82 405.85,-230.32 395.55,-227.85 396.26,-234.82"/>
</g>
<!-- Node55 -->
<g id="node21" class="node">
<title>Node55</title>
<g id="a_node21"><a xlink:href="namespacev8_1_1base_1_1internal.html#a24fbd7c28e47821fa5c632f1d9debfde" target="_top" xlink:title=" ">
<polygon fill="white" stroke="black" points="423.5,-164.5 423.5,-194.5 524.5,-194.5 524.5,-164.5 423.5,-164.5"/>
<text text-anchor="start" x="431.5" y="-182.5" font-family="Helvetica,sans-Serif" font-size="10.00">v8::base::internal</text>
<text text-anchor="middle" x="474" y="-171.5" font-family="Helvetica,sans-Serif" font-size="10.00">::operator&#45;</text>
</a>
</g>
</g>
<!-- Node44&#45;&gt;Node55 -->
<g id="edge24" class="edge">
<title>Node44&#45;&gt;Node55</title>
<path fill="none" stroke="midnightblue" d="M326.62,-227.45C346.3,-220.29 370.3,-211.73 392,-204.5 398.91,-202.2 406.18,-199.85 413.4,-197.56"/>
<polygon fill="midnightblue" stroke="midnightblue" points="414.7,-200.82 423.2,-194.49 412.61,-194.14 414.7,-200.82"/>
</g>
<!-- Node56 -->
<g id="node22" class="node">
<title>Node56</title>
<g id="a_node22"><a xlink:href="namespacev8_1_1internal.html#aab55cc06a83c496032b78f6f6e7ec6b7" target="_top" xlink:title=" ">
<polygon fill="white" stroke="black" points="410.5,-126 410.5,-145 537.5,-145 537.5,-126 410.5,-126"/>
<text text-anchor="middle" x="474" y="-133" font-family="Helvetica,sans-Serif" font-size="10.00">v8::internal::operator&#45;&#45;</text>
</a>
</g>
</g>
<!-- Node44&#45;&gt;Node56 -->
<g id="edge25" class="edge">
<title>Node44&#45;&gt;Node56</title>
<path fill="none" stroke="midnightblue" d="M299.93,-227.49C318.9,-207.97 354.75,-174.17 392,-155.5 397.61,-152.69 403.64,-150.26 409.79,-148.15"/>
<polygon fill="midnightblue" stroke="midnightblue" points="411,-151.44 419.5,-145.12 408.91,-144.76 411,-151.44"/>
</g>
<!-- Node57 -->
<g id="node23" class="node">
<title>Node57</title>
<g id="a_node23"><a xlink:href="namespacecppgc_1_1internal.html#a0a9df40ff00579fb0f229d98b7a90eaf" target="_top" xlink:title=" ">
<polygon fill="white" stroke="black" points="398,-88 398,-107 550,-107 550,-88 398,-88"/>
<text text-anchor="middle" x="474" y="-95" font-family="Helvetica,sans-Serif" font-size="10.00">cppgc::internal::operator&lt;=</text>
</a>
</g>
</g>
<!-- Node44&#45;&gt;Node57 -->
<g id="edge26" class="edge">
<title>Node44&#45;&gt;Node57</title>
<path fill="none" stroke="midnightblue" d="M294.28,-227.36C309.75,-200.57 345.72,-144.93 392,-116.5 395.43,-114.39 399.08,-112.52 402.85,-110.85"/>
<polygon fill="midnightblue" stroke="midnightblue" points="404.39,-114.01 412.44,-107.12 401.85,-107.48 404.39,-114.01"/>
</g>
<!-- Node58 -->
<g id="node24" class="node">
<title>Node58</title>
<g id="a_node24"><a xlink:href="namespacev8_1_1internal.html#ac447aa6048fea02c560db5a8e349d4cb" target="_top" xlink:title=" ">
<polygon fill="white" stroke="black" points="406,-50 406,-69 542,-69 542,-50 406,-50"/>
<text text-anchor="middle" x="474" y="-57" font-family="Helvetica,sans-Serif" font-size="10.00">v8::internal::operator==</text>
</a>
</g>
</g>
<!-- Node44&#45;&gt;Node58 -->
<g id="edge27" class="edge">
<title>Node44&#45;&gt;Node58</title>
<path fill="none" stroke="midnightblue" d="M291.41,-227.01C303.72,-194.12 337.12,-117.16 392,-78.5 394.72,-76.59 397.6,-74.86 400.59,-73.31"/>
<polygon fill="midnightblue" stroke="midnightblue" points="402.18,-76.44 409.87,-69.16 399.31,-70.05 402.18,-76.44"/>
</g>
<!-- Node59 -->
<g id="node25" class="node">
<title>Node59</title>
<g id="a_node25"><a xlink:href="namespacev8_1_1internal_1_1wasm.html#a0dc6377b617bf569ed28973352a44899" target="_top" xlink:title=" ">
<polygon fill="white" stroke="black" points="420.5,-0.5 420.5,-30.5 527.5,-30.5 527.5,-0.5 420.5,-0.5"/>
<text text-anchor="start" x="428.5" y="-18.5" font-family="Helvetica,sans-Serif" font-size="10.00">v8::internal::wasm</text>
<text text-anchor="middle" x="474" y="-7.5" font-family="Helvetica,sans-Serif" font-size="10.00">::value_type</text>
</a>
</g>
</g>
<!-- Node44&#45;&gt;Node59 -->
<g id="edge28" class="edge">
<title>Node44&#45;&gt;Node59</title>
<path fill="none" stroke="midnightblue" d="M289.65,-227.27C299.45,-189.75 329.87,-92.14 392,-40.5 397.6,-35.84 404.07,-32.05 410.85,-28.97"/>
<polygon fill="midnightblue" stroke="midnightblue" points="412.28,-32.17 420.25,-25.18 409.66,-25.67 412.28,-32.17"/>
</g>
<!-- Node46 -->
<g id="node12" class="node">
<title>Node46</title>
<g id="a_node12"><a xlink:href="classv8_1_1internal_1_1compiler_1_1Node_1_1Uses.html#aa720f51bb6b18aacb86d212fb1ee7144" target="_top" xlink:title=" ">
<polygon fill="white" stroke="black" points="610.5,-472.5 610.5,-502.5 731.5,-502.5 731.5,-472.5 610.5,-472.5"/>
<text text-anchor="start" x="618.5" y="-490.5" font-family="Helvetica,sans-Serif" font-size="10.00">v8::internal::compiler</text>
<text text-anchor="middle" x="671" y="-479.5" font-family="Helvetica,sans-Serif" font-size="10.00">::Node::Uses::begin</text>
</a>
</g>
</g>
<!-- Node45&#45;&gt;Node46 -->
<g id="edge13" class="edge">
<title>Node45&#45;&gt;Node46</title>
<path fill="none" stroke="midnightblue" d="M534.57,-453.47C555.45,-458.72 579.08,-464.65 600.69,-470.08"/>
<polygon fill="midnightblue" stroke="midnightblue" points="599.91,-473.5 610.46,-472.54 601.62,-466.71 599.91,-473.5"/>
</g>
<!-- Node47 -->
<g id="node13" class="node">
<title>Node47</title>
<g id="a_node13"><a xlink:href="classv8_1_1internal_1_1compiler_1_1Node.html#a9ebd76ae3786acc626d9c4f3cc3f8557" target="_top" xlink:title=" ">
<polygon fill="white" stroke="black" points="610.5,-423.5 610.5,-453.5 731.5,-453.5 731.5,-423.5 610.5,-423.5"/>
<text text-anchor="start" x="618.5" y="-441.5" font-family="Helvetica,sans-Serif" font-size="10.00">v8::internal::compiler</text>
<text text-anchor="middle" x="671" y="-430.5" font-family="Helvetica,sans-Serif" font-size="10.00">::Node::uses</text>
</a>
</g>
</g>
<!-- Node45&#45;&gt;Node47 -->
<g id="edge14" class="edge">
<title>Node45&#45;&gt;Node47</title>
<path fill="none" stroke="midnightblue" d="M534.57,-438.5C555.35,-438.5 578.87,-438.5 600.4,-438.5"/>
<polygon fill="midnightblue" stroke="midnightblue" points="600.46,-442 610.46,-438.5 600.46,-435 600.46,-442"/>
</g>
<!-- Node48&#45;&gt;Node47 -->
<g id="edge17" class="edge">
<title>Node48&#45;&gt;Node47</title>
<path fill="none" stroke="midnightblue" d="M513.06,-399.06C537.86,-405.29 570.95,-413.61 600.35,-421"/>
<polygon fill="midnightblue" stroke="midnightblue" points="599.61,-424.42 610.16,-423.46 601.31,-417.63 599.61,-424.42"/>
</g>
<!-- Node49 -->
<g id="node15" class="node">
<title>Node49</title>
<g id="a_node15"><a xlink:href="classv8_1_1internal_1_1compiler_1_1Node_1_1Uses.html#aba0b04d7aa29dae3edbd2ba11a35ce81" target="_top" xlink:title=" ">
<polygon fill="white" stroke="black" points="610.5,-374.5 610.5,-404.5 731.5,-404.5 731.5,-374.5 610.5,-374.5"/>
<text text-anchor="start" x="618.5" y="-392.5" font-family="Helvetica,sans-Serif" font-size="10.00">v8::internal::compiler</text>
<text text-anchor="middle" x="671" y="-381.5" font-family="Helvetica,sans-Serif" font-size="10.00">::Node::Uses::end</text>
</a>
</g>
</g>
<!-- Node48&#45;&gt;Node49 -->
<g id="edge16" class="edge">
<title>Node48&#45;&gt;Node49</title>
<path fill="none" stroke="midnightblue" d="M546.5,-389.5C564.04,-389.5 582.79,-389.5 600.24,-389.5"/>
<polygon fill="midnightblue" stroke="midnightblue" points="600.35,-393 610.35,-389.5 600.35,-386 600.35,-393"/>
</g>
<!-- Node51 -->
<g id="node17" class="node">
<title>Node51</title>
<g id="a_node17"><a xlink:href="classv8_1_1base_1_1BitField.html#a554df4b9ae5f0dc36b4d092bfc2e004b" target="_top" xlink:title=" ">
<polygon fill="white" stroke="black" points="620.5,-325.5 620.5,-355.5 721.5,-355.5 721.5,-325.5 620.5,-325.5"/>
<text text-anchor="start" x="628.5" y="-343.5" font-family="Helvetica,sans-Serif" font-size="10.00">v8::base::BitField</text>
<text text-anchor="middle" x="671" y="-332.5" font-family="Helvetica,sans-Serif" font-size="10.00">::decode</text>
</a>
</g>
</g>
<!-- Node50&#45;&gt;Node51 -->
<g id="edge19" class="edge">
<title>Node50&#45;&gt;Node51</title>
<path fill="none" stroke="midnightblue" d="M545.12,-342.42C566.42,-342.09 589.61,-341.74 610.17,-341.42"/>
<polygon fill="midnightblue" stroke="midnightblue" points="610.39,-344.92 620.34,-341.26 610.29,-337.92 610.39,-344.92"/>
</g>
<!-- Node50&#45;&gt;Node52 -->
<g id="edge20" class="edge">
<title>Node50&#45;&gt;Node52</title>
<path fill="none" stroke="midnightblue" d="M531.4,-328.46C554.04,-322.42 580.29,-315.42 603.83,-309.15"/>
<polygon fill="midnightblue" stroke="midnightblue" points="604.96,-312.47 613.72,-306.51 603.16,-305.7 604.96,-312.47"/>
</g>
<!-- Node60 -->
<g id="node26" class="node">
<title>Node60</title>
<g id="a_node26"><a xlink:href="namespacev8_1_1internal.html#acdec713c25068019f935e35976f5b666" target="_top" xlink:title=" ">
<polygon fill="white" stroke="black" points="595,-6 595,-25 747,-25 747,-6 595,-6"/>
<text text-anchor="middle" x="671" y="-13" font-family="Helvetica,sans-Serif" font-size="10.00">v8::internal::UNREACHABLE</text>
</a>
</g>
</g>
<!-- Node59&#45;&gt;Node60 -->
<g id="edge29" class="edge">
<title>Node59&#45;&gt;Node60</title>
<path fill="none" stroke="midnightblue" d="M527.51,-15.5C545.09,-15.5 565.17,-15.5 584.6,-15.5"/>
<polygon fill="midnightblue" stroke="midnightblue" points="584.68,-19 594.68,-15.5 584.68,-12 584.68,-19"/>
</g>
</g>
</svg>
        <g id="navigator" transform="translate(0 0)" fill="#404254">
                <rect fill="#f2f5e9" fill-opacity="0.5" stroke="#606060" stroke-width=".5" x="0" y="0" width="60" height="60"/>
                <use id="zoomplus" xlink:href="#zoomPlus" x="17" y="9" onmousedown="handleZoom(evt,'in')"/>
                <use id="zoomminus" xlink:href="#zoomMin" x="42" y="9" onmousedown="handleZoom(evt,'out')"/>
                <use id="reset" xlink:href="#resetDef" x="30" y="36" onmousedown="handleReset()"/>
                <g id="arrowUp" xlink:href="#dirArrow" transform="translate(30 24)" onmousedown="handlePan(0,-1)">
                  <use xlink:href="#rim" fill="#404040">
                        <set attributeName="fill" to="#808080" begin="arrowUp.mouseover" end="arrowUp.mouseout"/>
                  </use>
                  <path fill="none" stroke="white" stroke-width="1.5" d="M0,-3.0v7 M-2.5,-0.5L0,-3.0L2.5,-0.5"/>
                </g>
                <g id="arrowRight" xlink:href="#dirArrow" transform="rotate(90) translate(36 -43)" onmousedown="handlePan(1,0)">
                  <use xlink:href="#rim" fill="#404040">
                        <set attributeName="fill" to="#808080" begin="arrowRight.mouseover" end="arrowRight.mouseout"/>
                  </use>
                  <path fill="none" stroke="white" stroke-width="1.5" d="M0,-3.0v7 M-2.5,-0.5L0,-3.0L2.5,-0.5"/>
                </g>
                <g id="arrowDown" xlink:href="#dirArrow" transform="rotate(180) translate(-30 -48)" onmousedown="handlePan(0,1)">
                  <use xlink:href="#rim" fill="#404040">
                        <set attributeName="fill" to="#808080" begin="arrowDown.mouseover" end="arrowDown.mouseout"/>
                  </use>
                  <path fill="none" stroke="white" stroke-width="1.5" d="M0,-3.0v7 M-2.5,-0.5L0,-3.0L2.5,-0.5"/>
                </g>
                <g id="arrowLeft" xlink:href="#dirArrow" transform="rotate(270) translate(-36 17)" onmousedown="handlePan(-1,0)">
                  <use xlink:href="#rim" fill="#404040">
                        <set attributeName="fill" to="#808080" begin="arrowLeft.mouseover" end="arrowLeft.mouseout"/>
                  </use>
                  <path fill="none" stroke="white" stroke-width="1.5" d="M0,-3.0v7 M-2.5,-0.5L0,-3.0L2.5,-0.5"/>
                </g>
        </g>
        <svg viewBox="0 0 15 15" width="100%" height="30px" preserveAspectRatio="xMaxYMin meet">
         <g id="arrow_out" transform="scale(0.3 0.3)">
          <a xlink:href="classv8_1_1internal_1_1StubFrame_aae83ed93e50b7c5a0d54b7ceed643d9c_cgraph_org.svg" target="_base">
           <rect id="button" ry="5" rx="5" y="6" x="6" height="38" width="38"
                fill="#f2f5e9" fill-opacity="0.5" stroke="#606060" stroke-width="1.0"/>
           <path id="arrow"
             d="M 11.500037,31.436501 C 11.940474,20.09759 22.043105,11.32322 32.158766,21.979434 L 37.068811,17.246167 C 37.068811,17.246167 37.088388,32 37.088388,32 L 22.160133,31.978069 C 22.160133,31.978069 26.997745,27.140456 26.997745,27.140456 C 18.528582,18.264221 13.291696,25.230495 11.500037,31.436501 z"
             style="fill:#404040;"/>
          </a>
         </g>
        </svg>
</svg>
