<?xml version="1.0" encoding="UTF-8" standalone="no"?>
<!DOCTYPE svg PUBLIC "-//W3C//DTD SVG 1.1//EN"
 "http://www.w3.org/Graphics/SVG/1.1/DTD/svg11.dtd">
<!-- Generated by graphviz version 2.43.0 (0)
 -->
<!-- Title: v8::Object::GetCreationContextChecked Pages: 1 -->
<!--zoomable 138 -->
<svg id="main" version="1.1" xmlns="http://www.w3.org/2000/svg" xmlns:xlink="http://www.w3.org/1999/xlink" xml:space="preserve" onload="init(evt)">
<style type="text/css"><![CDATA[
.edge:hover path { stroke: red; }
.edge:hover polygon { stroke: red; fill: red; }
]]></style>
<script type="text/javascript"><![CDATA[
var edges = document.getElementsByTagName('g');
if (edges && edges.length) {
  for (var i=0;i<edges.length;i++) {
    if (edges[i].id.substr(0,4)=='edge') {
      edges[i].setAttribute('class','edge');
    }
  }
}
]]></script>
        <defs>
                <circle id="rim" cx="0" cy="0" r="7"/>
                <circle id="rim2" cx="0" cy="0" r="3.5"/>
                <g id="zoomPlus">
                        <use xlink:href="#rim" fill="#404040">
                                <set attributeName="fill" to="#808080" begin="zoomplus.mouseover" end="zoomplus.mouseout"/>
                        </use>
                        <path d="M-4,0h8M0,-4v8" fill="none" stroke="white" stroke-width="1.5" pointer-events="none"/>
                </g>
                <g id="zoomMin">
                        <use xlink:href="#rim" fill="#404040">
                                <set attributeName="fill" to="#808080" begin="zoomminus.mouseover" end="zoomminus.mouseout"/>
                        </use>
                        <path d="M-4,0h8" fill="none" stroke="white" stroke-width="1.5" pointer-events="none"/>
                </g>
                <g id="dirArrow">
                        <path fill="none" stroke="white" stroke-width="1.5" d="M0,-3.0v7 M-2.5,-0.5L0,-3.0L2.5,-0.5"/>
                </g>
               <g id="resetDef">
                       <use xlink:href="#rim2" fill="#404040">
                               <set attributeName="fill" to="#808080" begin="reset.mouseover" end="reset.mouseout"/>
                       </use>
               </g>
        </defs>

<script type="text/javascript">
var viewWidth = 704;
var viewHeight = 138;
var sectionId = 'dynsection-33';
</script>
<script xlink:href="svgpan.js"/>
<svg id="graph" class="graph">
<g id="viewport">
<title>v8::Object::GetCreationContextChecked</title>
<polygon fill="white" stroke="transparent" points="-4,4 -4,-133.5 700,-133.5 700,4 -4,4"/>
<!-- Node1 -->
<g id="node1" class="node">
<title>Node1</title>
<g id="a_node1"><a xlink:title=" ">
<polygon fill="#bfbfbf" stroke="black" points="0,-44 0,-74 169,-74 169,-44 0,-44"/>
<text text-anchor="start" x="8" y="-62" font-family="Helvetica,sans-Serif" font-size="10.00">v8::Object::GetCreationContext</text>
<text text-anchor="middle" x="84.5" y="-51" font-family="Helvetica,sans-Serif" font-size="10.00">Checked</text>
</a>
</g>
</g>
<!-- Node2 -->
<g id="node2" class="node">
<title>Node2</title>
<g id="a_node2"><a xlink:href="classv8_1_1internal_1_1Isolate.html#a05a2b08b2b0f2d5aef8dc053e2ea3d9b" target="_top" xlink:title=" ">
<polygon fill="white" stroke="black" points="231,-99 231,-129 342,-129 342,-99 231,-99"/>
<text text-anchor="start" x="239" y="-117" font-family="Helvetica,sans-Serif" font-size="10.00">v8::internal::Isolate</text>
<text text-anchor="middle" x="286.5" y="-106" font-family="Helvetica,sans-Serif" font-size="10.00">::Current</text>
</a>
</g>
</g>
<!-- Node1&#45;&gt;Node2 -->
<g id="edge1" class="edge">
<title>Node1&#45;&gt;Node2</title>
<path fill="none" stroke="midnightblue" d="M140.15,-74.03C165.17,-80.91 195,-89.11 221.11,-96.29"/>
<polygon fill="midnightblue" stroke="midnightblue" points="220.35,-99.71 230.92,-98.99 222.2,-92.96 220.35,-99.71"/>
</g>
<!-- Node4 -->
<g id="node4" class="node">
<title>Node4</title>
<g id="a_node4"><a xlink:href="namespacev8_1_1anonymous__namespace_02api_8cc_03.html#a7aff3f76676fc1e961963d4db2ec2968" target="_top" xlink:title=" ">
<polygon fill="white" stroke="black" points="205,-38.5 205,-79.5 368,-79.5 368,-38.5 205,-38.5"/>
<text text-anchor="start" x="213" y="-67.5" font-family="Helvetica,sans-Serif" font-size="10.00">v8::anonymous_namespace</text>
<text text-anchor="start" x="213" y="-56.5" font-family="Helvetica,sans-Serif" font-size="10.00">{api::cc}::GetCreationContext</text>
<text text-anchor="middle" x="286.5" y="-45.5" font-family="Helvetica,sans-Serif" font-size="10.00">CheckedImpl</text>
</a>
</g>
</g>
<!-- Node1&#45;&gt;Node4 -->
<g id="edge3" class="edge">
<title>Node1&#45;&gt;Node4</title>
<path fill="none" stroke="midnightblue" d="M169.16,-59C177.53,-59 186.06,-59 194.5,-59"/>
<polygon fill="midnightblue" stroke="midnightblue" points="194.74,-62.5 204.74,-59 194.74,-55.5 194.74,-62.5"/>
</g>
<!-- Node9 -->
<g id="node7" class="node">
<title>Node9</title>
<g id="a_node7"><a xlink:href="classv8_1_1Utils.html#a9d3ed89b4ca4e995ba472f8091ea424f" target="_top" xlink:title=" ">
<polygon fill="white" stroke="black" points="210.5,-0.5 210.5,-19.5 362.5,-19.5 362.5,-0.5 210.5,-0.5"/>
<text text-anchor="middle" x="286.5" y="-7.5" font-family="Helvetica,sans-Serif" font-size="10.00">v8::Utils::OpenDirectHandle</text>
</a>
</g>
</g>
<!-- Node1&#45;&gt;Node9 -->
<g id="edge6" class="edge">
<title>Node1&#45;&gt;Node9</title>
<path fill="none" stroke="midnightblue" d="M144.72,-43.96C163.94,-39.12 185.36,-33.78 205,-29 214.53,-26.68 224.7,-24.25 234.49,-21.92"/>
<polygon fill="midnightblue" stroke="midnightblue" points="235.59,-25.26 244.52,-19.55 233.98,-18.45 235.59,-25.26"/>
</g>
<!-- Node3 -->
<g id="node3" class="node">
<title>Node3</title>
<g id="a_node3"><a xlink:href="classv8_1_1internal_1_1Factory.html#a7ac37ce08b9f8eae9f45701872d1949d" target="_top" xlink:title=" ">
<polygon fill="white" stroke="black" points="404,-99 404,-129 517,-129 517,-99 404,-99"/>
<text text-anchor="start" x="412" y="-117" font-family="Helvetica,sans-Serif" font-size="10.00">v8::internal::Factory</text>
<text text-anchor="middle" x="460.5" y="-106" font-family="Helvetica,sans-Serif" font-size="10.00">::isolate</text>
</a>
</g>
</g>
<!-- Node2&#45;&gt;Node3 -->
<g id="edge2" class="edge">
<title>Node2&#45;&gt;Node3</title>
<path fill="none" stroke="midnightblue" d="M342.39,-114C358.68,-114 376.68,-114 393.59,-114"/>
<polygon fill="midnightblue" stroke="midnightblue" points="393.95,-117.5 403.95,-114 393.95,-110.5 393.95,-117.5"/>
</g>
<!-- Node5 -->
<g id="node5" class="node">
<title>Node5</title>
<g id="a_node5"><a xlink:href="classv8_1_1Utils.html#a1a1e634bae095bf6ff0ed2d9d737be00" target="_top" xlink:title=" ">
<polygon fill="white" stroke="black" points="406,-49.5 406,-68.5 515,-68.5 515,-49.5 406,-49.5"/>
<text text-anchor="middle" x="460.5" y="-56.5" font-family="Helvetica,sans-Serif" font-size="10.00">v8::Utils::ApiCheck</text>
</a>
</g>
</g>
<!-- Node4&#45;&gt;Node5 -->
<g id="edge4" class="edge">
<title>Node4&#45;&gt;Node5</title>
<path fill="none" stroke="midnightblue" d="M368.21,-59C377.37,-59 386.61,-59 395.51,-59"/>
<polygon fill="midnightblue" stroke="midnightblue" points="395.78,-62.5 405.78,-59 395.78,-55.5 395.78,-62.5"/>
</g>
<!-- Node6 -->
<g id="node6" class="node">
<title>Node6</title>
<g id="a_node6"><a xlink:href="classv8_1_1Utils.html#ada484ca14c019e18695f4a98dbe33796" target="_top" xlink:title=" ">
<polygon fill="white" stroke="red" points="553,-49.5 553,-68.5 696,-68.5 696,-49.5 553,-49.5"/>
<text text-anchor="middle" x="624.5" y="-56.5" font-family="Helvetica,sans-Serif" font-size="10.00">v8::Utils::ReportApiFailure</text>
</a>
</g>
</g>
<!-- Node5&#45;&gt;Node6 -->
<g id="edge5" class="edge">
<title>Node5&#45;&gt;Node6</title>
<path fill="none" stroke="midnightblue" d="M515.44,-59C524.23,-59 533.5,-59 542.76,-59"/>
<polygon fill="midnightblue" stroke="midnightblue" points="542.79,-62.5 552.79,-59 542.79,-55.5 542.79,-62.5"/>
</g>
<!-- Node10 -->
<g id="node8" class="node">
<title>Node10</title>
<g id="a_node8"><a xlink:href="namespacev8_1_1internal.html#a8c89f00da07e125218128b9fbf0a321c" target="_top" xlink:title=" ">
<polygon fill="white" stroke="black" points="405,-0.5 405,-19.5 516,-19.5 516,-0.5 405,-0.5"/>
<text text-anchor="middle" x="460.5" y="-7.5" font-family="Helvetica,sans-Serif" font-size="10.00">v8::internal::handle</text>
</a>
</g>
</g>
<!-- Node9&#45;&gt;Node10 -->
<g id="edge7" class="edge">
<title>Node9&#45;&gt;Node10</title>
<path fill="none" stroke="midnightblue" d="M362.69,-10C373.34,-10 384.2,-10 394.63,-10"/>
<polygon fill="midnightblue" stroke="midnightblue" points="394.89,-13.5 404.89,-10 394.89,-6.5 394.89,-13.5"/>
</g>
</g>
</svg>
        <g id="navigator" transform="translate(0 0)" fill="#404254">
                <rect fill="#f2f5e9" fill-opacity="0.5" stroke="#606060" stroke-width=".5" x="0" y="0" width="60" height="60"/>
                <use id="zoomplus" xlink:href="#zoomPlus" x="17" y="9" onmousedown="handleZoom(evt,'in')"/>
                <use id="zoomminus" xlink:href="#zoomMin" x="42" y="9" onmousedown="handleZoom(evt,'out')"/>
                <use id="reset" xlink:href="#resetDef" x="30" y="36" onmousedown="handleReset()"/>
                <g id="arrowUp" xlink:href="#dirArrow" transform="translate(30 24)" onmousedown="handlePan(0,-1)">
                  <use xlink:href="#rim" fill="#404040">
                        <set attributeName="fill" to="#808080" begin="arrowUp.mouseover" end="arrowUp.mouseout"/>
                  </use>
                  <path fill="none" stroke="white" stroke-width="1.5" d="M0,-3.0v7 M-2.5,-0.5L0,-3.0L2.5,-0.5"/>
                </g>
                <g id="arrowRight" xlink:href="#dirArrow" transform="rotate(90) translate(36 -43)" onmousedown="handlePan(1,0)">
                  <use xlink:href="#rim" fill="#404040">
                        <set attributeName="fill" to="#808080" begin="arrowRight.mouseover" end="arrowRight.mouseout"/>
                  </use>
                  <path fill="none" stroke="white" stroke-width="1.5" d="M0,-3.0v7 M-2.5,-0.5L0,-3.0L2.5,-0.5"/>
                </g>
                <g id="arrowDown" xlink:href="#dirArrow" transform="rotate(180) translate(-30 -48)" onmousedown="handlePan(0,1)">
                  <use xlink:href="#rim" fill="#404040">
                        <set attributeName="fill" to="#808080" begin="arrowDown.mouseover" end="arrowDown.mouseout"/>
                  </use>
                  <path fill="none" stroke="white" stroke-width="1.5" d="M0,-3.0v7 M-2.5,-0.5L0,-3.0L2.5,-0.5"/>
                </g>
                <g id="arrowLeft" xlink:href="#dirArrow" transform="rotate(270) translate(-36 17)" onmousedown="handlePan(-1,0)">
                  <use xlink:href="#rim" fill="#404040">
                        <set attributeName="fill" to="#808080" begin="arrowLeft.mouseover" end="arrowLeft.mouseout"/>
                  </use>
                  <path fill="none" stroke="white" stroke-width="1.5" d="M0,-3.0v7 M-2.5,-0.5L0,-3.0L2.5,-0.5"/>
                </g>
        </g>
        <svg viewBox="0 0 15 15" width="100%" height="30px" preserveAspectRatio="xMaxYMin meet">
         <g id="arrow_out" transform="scale(0.3 0.3)">
          <a xlink:href="classv8_1_1Object_ac2596b2bea7c963c1312f3071c560cbf_cgraph_org.svg" target="_base">
           <rect id="button" ry="5" rx="5" y="6" x="6" height="38" width="38"
                fill="#f2f5e9" fill-opacity="0.5" stroke="#606060" stroke-width="1.0"/>
           <path id="arrow"
             d="M 11.500037,31.436501 C 11.940474,20.09759 22.043105,11.32322 32.158766,21.979434 L 37.068811,17.246167 C 37.068811,17.246167 37.088388,32 37.088388,32 L 22.160133,31.978069 C 22.160133,31.978069 26.997745,27.140456 26.997745,27.140456 C 18.528582,18.264221 13.291696,25.230495 11.500037,31.436501 z"
             style="fill:#404040;"/>
          </a>
         </g>
        </svg>
</svg>
