<?xml version="1.0" encoding="UTF-8" standalone="no"?>
<!DOCTYPE svg PUBLIC "-//W3C//DTD SVG 1.1//EN"
 "http://www.w3.org/Graphics/SVG/1.1/DTD/svg11.dtd">
<!-- Generated by graphviz version 2.43.0 (0)
 -->
<!-- Title: v8::internal::ConsStringIterator::Reset Pages: 1 -->
<!--zoomable 257 -->
<svg id="main" version="1.1" xmlns="http://www.w3.org/2000/svg" xmlns:xlink="http://www.w3.org/1999/xlink" xml:space="preserve" onload="init(evt)">
<style type="text/css"><![CDATA[
.edge:hover path { stroke: red; }
.edge:hover polygon { stroke: red; fill: red; }
]]></style>
<script type="text/javascript"><![CDATA[
var edges = document.getElementsByTagName('g');
if (edges && edges.length) {
  for (var i=0;i<edges.length;i++) {
    if (edges[i].id.substr(0,4)=='edge') {
      edges[i].setAttribute('class','edge');
    }
  }
}
]]></script>
        <defs>
                <circle id="rim" cx="0" cy="0" r="7"/>
                <circle id="rim2" cx="0" cy="0" r="3.5"/>
                <g id="zoomPlus">
                        <use xlink:href="#rim" fill="#404040">
                                <set attributeName="fill" to="#808080" begin="zoomplus.mouseover" end="zoomplus.mouseout"/>
                        </use>
                        <path d="M-4,0h8M0,-4v8" fill="none" stroke="white" stroke-width="1.5" pointer-events="none"/>
                </g>
                <g id="zoomMin">
                        <use xlink:href="#rim" fill="#404040">
                                <set attributeName="fill" to="#808080" begin="zoomminus.mouseover" end="zoomminus.mouseout"/>
                        </use>
                        <path d="M-4,0h8" fill="none" stroke="white" stroke-width="1.5" pointer-events="none"/>
                </g>
                <g id="dirArrow">
                        <path fill="none" stroke="white" stroke-width="1.5" d="M0,-3.0v7 M-2.5,-0.5L0,-3.0L2.5,-0.5"/>
                </g>
               <g id="resetDef">
                       <use xlink:href="#rim2" fill="#404040">
                               <set attributeName="fill" to="#808080" begin="reset.mouseover" end="reset.mouseout"/>
                       </use>
               </g>
        </defs>

<script type="text/javascript">
var viewWidth = 704;
var viewHeight = 257;
var sectionId = 'dynsection-13';
</script>
<script xlink:href="svgpan.js"/>
<svg id="graph" class="graph">
<g id="viewport">
<title>v8::internal::ConsStringIterator::Reset</title>
<polygon fill="white" stroke="transparent" points="-4,4 -4,-253 700,-253 700,4 -4,4"/>
<!-- Node1 -->
<g id="node1" class="node">
<title>Node1</title>
<g id="a_node1"><a xlink:title=" ">
<polygon fill="#bfbfbf" stroke="black" points="565,-160.5 565,-190.5 696,-190.5 696,-160.5 565,-160.5"/>
<text text-anchor="start" x="573" y="-178.5" font-family="Helvetica,sans-Serif" font-size="10.00">v8::internal::ConsString</text>
<text text-anchor="middle" x="630.5" y="-167.5" font-family="Helvetica,sans-Serif" font-size="10.00">Iterator::Reset</text>
</a>
</g>
</g>
<!-- Node2 -->
<g id="node2" class="node">
<title>Node2</title>
<g id="a_node2"><a xlink:href="classv8_1_1internal_1_1ConsStringIterator.html#a04f5e76f72222e2711f76a291d76aba4" target="_top" xlink:title=" ">
<polygon fill="white" stroke="black" points="179,-218.5 179,-248.5 310,-248.5 310,-218.5 179,-218.5"/>
<text text-anchor="start" x="187" y="-236.5" font-family="Helvetica,sans-Serif" font-size="10.00">v8::internal::ConsString</text>
<text text-anchor="middle" x="244.5" y="-225.5" font-family="Helvetica,sans-Serif" font-size="10.00">Iterator::Continue</text>
</a>
</g>
</g>
<!-- Node1&#45;&gt;Node2 -->
<g id="edge1" class="edge">
<title>Node1&#45;&gt;Node2</title>
<path fill="none" stroke="midnightblue" d="M597.42,-195.95C578.34,-206.94 553.21,-219.45 529,-225.5 455.67,-243.83 368.36,-243.05 310.19,-239.49"/>
<polygon fill="midnightblue" stroke="midnightblue" points="599.45,-198.82 606.27,-190.71 595.88,-192.8 599.45,-198.82"/>
</g>
<!-- Node3 -->
<g id="node3" class="node">
<title>Node3</title>
<g id="a_node3"><a xlink:href="classv8_1_1internal_1_1StringComparator_1_1State.html#ae8ea0bcba84f366b2795256f1c53dd88" target="_top" xlink:title=" ">
<polygon fill="white" stroke="black" points="365,-136.5 365,-166.5 529,-166.5 529,-136.5 365,-136.5"/>
<text text-anchor="start" x="373" y="-154.5" font-family="Helvetica,sans-Serif" font-size="10.00">v8::internal::StringComparator</text>
<text text-anchor="middle" x="447" y="-143.5" font-family="Helvetica,sans-Serif" font-size="10.00">::State::Init</text>
</a>
</g>
</g>
<!-- Node1&#45;&gt;Node3 -->
<g id="edge2" class="edge">
<title>Node1&#45;&gt;Node3</title>
<path fill="none" stroke="midnightblue" d="M555.07,-165.66C546.51,-164.53 537.76,-163.37 529.12,-162.23"/>
<polygon fill="midnightblue" stroke="midnightblue" points="554.63,-169.13 565,-166.97 555.54,-162.19 554.63,-169.13"/>
</g>
<!-- Node5 -->
<g id="node5" class="node">
<title>Node5</title>
<g id="a_node5"><a xlink:href="classv8_1_1internal_1_1StringCharacterStream.html#a37dd9665362c497b967dee5a9f003f0e" target="_top" xlink:title=" ">
<polygon fill="white" stroke="black" points="370,-85.5 370,-115.5 524,-115.5 524,-85.5 370,-85.5"/>
<text text-anchor="start" x="378" y="-103.5" font-family="Helvetica,sans-Serif" font-size="10.00">v8::internal::StringCharacter</text>
<text text-anchor="middle" x="447" y="-92.5" font-family="Helvetica,sans-Serif" font-size="10.00">Stream::Reset</text>
</a>
</g>
</g>
<!-- Node1&#45;&gt;Node5 -->
<g id="edge4" class="edge">
<title>Node1&#45;&gt;Node5</title>
<path fill="none" stroke="midnightblue" d="M591.44,-155.95C572.85,-146.76 550.01,-135.98 529,-127.5 518.55,-123.28 507.17,-119.19 496.33,-115.52"/>
<polygon fill="midnightblue" stroke="midnightblue" points="589.95,-159.12 600.46,-160.45 593.08,-152.86 589.95,-159.12"/>
</g>
<!-- Node11 -->
<g id="node11" class="node">
<title>Node11</title>
<g id="a_node11"><a xlink:href="classv8_1_1internal_1_1ConsStringIterator.html#a22499b0e651fee8d82aba03b26a39ffe" target="_top" xlink:title=" ">
<polygon fill="white" stroke="black" points="381.5,-185.5 381.5,-215.5 512.5,-215.5 512.5,-185.5 381.5,-185.5"/>
<text text-anchor="start" x="389.5" y="-203.5" font-family="Helvetica,sans-Serif" font-size="10.00">v8::internal::ConsString</text>
<text text-anchor="middle" x="447" y="-192.5" font-family="Helvetica,sans-Serif" font-size="10.00">Iterator::Search</text>
</a>
</g>
</g>
<!-- Node1&#45;&gt;Node11 -->
<g id="edge10" class="edge">
<title>Node1&#45;&gt;Node11</title>
<path fill="none" stroke="midnightblue" d="M554.89,-185.78C540.86,-187.71 526.3,-189.72 512.6,-191.6"/>
<polygon fill="midnightblue" stroke="midnightblue" points="555.57,-189.22 565,-184.38 554.61,-182.28 555.57,-189.22"/>
</g>
<!-- Node4 -->
<g id="node4" class="node">
<title>Node4</title>
<g id="a_node4"><a xlink:href="classv8_1_1internal_1_1StringComparator.html#adb1b20b0dbe00deefdfbc30ab4c1bb6b" target="_top" xlink:title=" ">
<polygon fill="white" stroke="black" points="162.5,-147.5 162.5,-177.5 326.5,-177.5 326.5,-147.5 162.5,-147.5"/>
<text text-anchor="start" x="170.5" y="-165.5" font-family="Helvetica,sans-Serif" font-size="10.00">v8::internal::StringComparator</text>
<text text-anchor="middle" x="244.5" y="-154.5" font-family="Helvetica,sans-Serif" font-size="10.00">::Equals</text>
</a>
</g>
</g>
<!-- Node3&#45;&gt;Node4 -->
<g id="edge3" class="edge">
<title>Node3&#45;&gt;Node4</title>
<path fill="none" stroke="midnightblue" d="M354.63,-156.51C345.27,-157.03 335.8,-157.55 326.55,-158.05"/>
<polygon fill="midnightblue" stroke="midnightblue" points="354.94,-160 364.74,-155.96 354.56,-153.01 354.94,-160"/>
</g>
<!-- Node6 -->
<g id="node6" class="node">
<title>Node6</title>
<g id="a_node6"><a xlink:href="classv8_1_1internal_1_1StringCharacterStream.html#a8db90a670259838d240285dea3e95ee1" target="_top" xlink:title=" ">
<polygon fill="white" stroke="black" points="160,-98.5 160,-128.5 329,-128.5 329,-98.5 160,-98.5"/>
<text text-anchor="start" x="168" y="-116.5" font-family="Helvetica,sans-Serif" font-size="10.00">v8::internal::StringCharacter</text>
<text text-anchor="middle" x="244.5" y="-105.5" font-family="Helvetica,sans-Serif" font-size="10.00">Stream::StringCharacterStream</text>
</a>
</g>
</g>
<!-- Node5&#45;&gt;Node6 -->
<g id="edge5" class="edge">
<title>Node5&#45;&gt;Node6</title>
<path fill="none" stroke="midnightblue" d="M359.85,-106.09C349.7,-106.74 339.35,-107.41 329.24,-108.07"/>
<polygon fill="midnightblue" stroke="midnightblue" points="360.16,-109.57 369.91,-105.43 359.71,-102.59 360.16,-109.57"/>
</g>
<!-- Node7 -->
<g id="node7" class="node">
<title>Node7</title>
<g id="a_node7"><a xlink:href="classv8_1_1internal_1_1String.html#ae41af71f351bd05d8af7a7815b5a6faa" target="_top" xlink:title=" ">
<polygon fill="white" stroke="black" points="191,-49.5 191,-79.5 298,-79.5 298,-49.5 191,-49.5"/>
<text text-anchor="start" x="199" y="-67.5" font-family="Helvetica,sans-Serif" font-size="10.00">v8::internal::String</text>
<text text-anchor="middle" x="244.5" y="-56.5" font-family="Helvetica,sans-Serif" font-size="10.00">::ToCString</text>
</a>
</g>
</g>
<!-- Node5&#45;&gt;Node7 -->
<g id="edge6" class="edge">
<title>Node5&#45;&gt;Node7</title>
<path fill="none" stroke="midnightblue" d="M360,-85.06C338.98,-81.28 317.11,-77.36 298.17,-73.96"/>
<polygon fill="midnightblue" stroke="midnightblue" points="359.45,-88.52 369.91,-86.84 360.69,-81.63 359.45,-88.52"/>
</g>
<!-- Node10 -->
<g id="node10" class="node">
<title>Node10</title>
<g id="a_node10"><a xlink:href="classv8_1_1internal_1_1String.html#a642feba624127740fd29009651525870" target="_top" xlink:title=" ">
<polygon fill="white" stroke="black" points="191,-0.5 191,-30.5 298,-30.5 298,-0.5 191,-0.5"/>
<text text-anchor="start" x="199" y="-18.5" font-family="Helvetica,sans-Serif" font-size="10.00">v8::internal::String</text>
<text text-anchor="middle" x="244.5" y="-7.5" font-family="Helvetica,sans-Serif" font-size="10.00">::ToStdString</text>
</a>
</g>
</g>
<!-- Node5&#45;&gt;Node10 -->
<g id="edge9" class="edge">
<title>Node5&#45;&gt;Node10</title>
<path fill="none" stroke="midnightblue" d="M410.74,-80.27C387.92,-67.72 357.29,-51.88 329,-40.5 319.17,-36.55 308.48,-32.89 298.12,-29.66"/>
<polygon fill="midnightblue" stroke="midnightblue" points="409.26,-83.45 419.7,-85.25 412.66,-77.33 409.26,-83.45"/>
</g>
<!-- Node8 -->
<g id="node8" class="node">
<title>Node8</title>
<g id="a_node8"><a xlink:href="namespacev8_1_1internal.html#ada70c99c552ccff58e2f7830dcac5995" target="_top" xlink:title=" ">
<polygon fill="white" stroke="black" points="0,-74.5 0,-104.5 124,-104.5 124,-74.5 0,-74.5"/>
<text text-anchor="start" x="8" y="-92.5" font-family="Helvetica,sans-Serif" font-size="10.00">v8::internal::RUNTIME</text>
<text text-anchor="middle" x="62" y="-81.5" font-family="Helvetica,sans-Serif" font-size="10.00">_FUNCTION</text>
</a>
</g>
</g>
<!-- Node7&#45;&gt;Node8 -->
<g id="edge7" class="edge">
<title>Node7&#45;&gt;Node8</title>
<path fill="none" stroke="midnightblue" d="M180.78,-73.19C162.39,-75.73 142.31,-78.51 124.03,-81.05"/>
<polygon fill="midnightblue" stroke="midnightblue" points="181.38,-76.64 190.81,-71.8 180.42,-69.7 181.38,-76.64"/>
</g>
<!-- Node9 -->
<g id="node9" class="node">
<title>Node9</title>
<g id="a_node9"><a xlink:href="classv8_1_1internal_1_1String.html#a82d68cd8ffddb65cd050615288877e2a" target="_top" xlink:title=" ">
<polygon fill="white" stroke="black" points="8.5,-25.5 8.5,-55.5 115.5,-55.5 115.5,-25.5 8.5,-25.5"/>
<text text-anchor="start" x="16.5" y="-43.5" font-family="Helvetica,sans-Serif" font-size="10.00">v8::internal::String</text>
<text text-anchor="middle" x="62" y="-32.5" font-family="Helvetica,sans-Serif" font-size="10.00">::ToCString</text>
</a>
</g>
</g>
<!-- Node7&#45;&gt;Node9 -->
<g id="edge8" class="edge">
<title>Node7&#45;&gt;Node9</title>
<path fill="none" stroke="midnightblue" d="M180.62,-56.14C159.45,-53.32 136.06,-50.21 115.76,-47.52"/>
<polygon fill="midnightblue" stroke="midnightblue" points="180.43,-59.65 190.81,-57.49 181.36,-52.71 180.43,-59.65"/>
</g>
<!-- Node11&#45;&gt;Node2 -->
<g id="edge11" class="edge">
<title>Node11&#45;&gt;Node2</title>
<path fill="none" stroke="midnightblue" d="M371.42,-212.78C351.33,-216.08 329.77,-219.63 310.27,-222.84"/>
<polygon fill="midnightblue" stroke="midnightblue" points="372.16,-216.2 381.46,-211.12 371.02,-209.29 372.16,-216.2"/>
</g>
</g>
</svg>
        <g id="navigator" transform="translate(0 0)" fill="#404254">
                <rect fill="#f2f5e9" fill-opacity="0.5" stroke="#606060" stroke-width=".5" x="0" y="0" width="60" height="60"/>
                <use id="zoomplus" xlink:href="#zoomPlus" x="17" y="9" onmousedown="handleZoom(evt,'in')"/>
                <use id="zoomminus" xlink:href="#zoomMin" x="42" y="9" onmousedown="handleZoom(evt,'out')"/>
                <use id="reset" xlink:href="#resetDef" x="30" y="36" onmousedown="handleReset()"/>
                <g id="arrowUp" xlink:href="#dirArrow" transform="translate(30 24)" onmousedown="handlePan(0,-1)">
                  <use xlink:href="#rim" fill="#404040">
                        <set attributeName="fill" to="#808080" begin="arrowUp.mouseover" end="arrowUp.mouseout"/>
                  </use>
                  <path fill="none" stroke="white" stroke-width="1.5" d="M0,-3.0v7 M-2.5,-0.5L0,-3.0L2.5,-0.5"/>
                </g>
                <g id="arrowRight" xlink:href="#dirArrow" transform="rotate(90) translate(36 -43)" onmousedown="handlePan(1,0)">
                  <use xlink:href="#rim" fill="#404040">
                        <set attributeName="fill" to="#808080" begin="arrowRight.mouseover" end="arrowRight.mouseout"/>
                  </use>
                  <path fill="none" stroke="white" stroke-width="1.5" d="M0,-3.0v7 M-2.5,-0.5L0,-3.0L2.5,-0.5"/>
                </g>
                <g id="arrowDown" xlink:href="#dirArrow" transform="rotate(180) translate(-30 -48)" onmousedown="handlePan(0,1)">
                  <use xlink:href="#rim" fill="#404040">
                        <set attributeName="fill" to="#808080" begin="arrowDown.mouseover" end="arrowDown.mouseout"/>
                  </use>
                  <path fill="none" stroke="white" stroke-width="1.5" d="M0,-3.0v7 M-2.5,-0.5L0,-3.0L2.5,-0.5"/>
                </g>
                <g id="arrowLeft" xlink:href="#dirArrow" transform="rotate(270) translate(-36 17)" onmousedown="handlePan(-1,0)">
                  <use xlink:href="#rim" fill="#404040">
                        <set attributeName="fill" to="#808080" begin="arrowLeft.mouseover" end="arrowLeft.mouseout"/>
                  </use>
                  <path fill="none" stroke="white" stroke-width="1.5" d="M0,-3.0v7 M-2.5,-0.5L0,-3.0L2.5,-0.5"/>
                </g>
        </g>
        <svg viewBox="0 0 15 15" width="100%" height="30px" preserveAspectRatio="xMaxYMin meet">
         <g id="arrow_out" transform="scale(0.3 0.3)">
          <a xlink:href="classv8_1_1internal_1_1ConsStringIterator_a1162d8f94d1ddcf46c73c660f3ebdf15_icgraph_org.svg" target="_base">
           <rect id="button" ry="5" rx="5" y="6" x="6" height="38" width="38"
                fill="#f2f5e9" fill-opacity="0.5" stroke="#606060" stroke-width="1.0"/>
           <path id="arrow"
             d="M 11.500037,31.436501 C 11.940474,20.09759 22.043105,11.32322 32.158766,21.979434 L 37.068811,17.246167 C 37.068811,17.246167 37.088388,32 37.088388,32 L 22.160133,31.978069 C 22.160133,31.978069 26.997745,27.140456 26.997745,27.140456 C 18.528582,18.264221 13.291696,25.230495 11.500037,31.436501 z"
             style="fill:#404040;"/>
          </a>
         </g>
        </svg>
</svg>
