<?xml version="1.0" encoding="UTF-8" standalone="no"?>
<!DOCTYPE svg PUBLIC "-//W3C//DTD SVG 1.1//EN"
 "http://www.w3.org/Graphics/SVG/1.1/DTD/svg11.dtd">
<!-- Generated by graphviz version 2.43.0 (0)
 -->
<!-- Title: v8::TypedArray Pages: 1 -->
<!--zoomable 446 -->
<svg id="main" version="1.1" xmlns="http://www.w3.org/2000/svg" xmlns:xlink="http://www.w3.org/1999/xlink" xml:space="preserve" onload="init(evt)">
<style type="text/css"><![CDATA[
.edge:hover path { stroke: red; }
.edge:hover polygon { stroke: red; fill: red; }
]]></style>
<script type="text/javascript"><![CDATA[
var edges = document.getElementsByTagName('g');
if (edges && edges.length) {
  for (var i=0;i<edges.length;i++) {
    if (edges[i].id.substr(0,4)=='edge') {
      edges[i].setAttribute('class','edge');
    }
  }
}
]]></script>
        <defs>
                <circle id="rim" cx="0" cy="0" r="7"/>
                <circle id="rim2" cx="0" cy="0" r="3.5"/>
                <g id="zoomPlus">
                        <use xlink:href="#rim" fill="#404040">
                                <set attributeName="fill" to="#808080" begin="zoomplus.mouseover" end="zoomplus.mouseout"/>
                        </use>
                        <path d="M-4,0h8M0,-4v8" fill="none" stroke="white" stroke-width="1.5" pointer-events="none"/>
                </g>
                <g id="zoomMin">
                        <use xlink:href="#rim" fill="#404040">
                                <set attributeName="fill" to="#808080" begin="zoomminus.mouseover" end="zoomminus.mouseout"/>
                        </use>
                        <path d="M-4,0h8" fill="none" stroke="white" stroke-width="1.5" pointer-events="none"/>
                </g>
                <g id="dirArrow">
                        <path fill="none" stroke="white" stroke-width="1.5" d="M0,-3.0v7 M-2.5,-0.5L0,-3.0L2.5,-0.5"/>
                </g>
               <g id="resetDef">
                       <use xlink:href="#rim2" fill="#404040">
                               <set attributeName="fill" to="#808080" begin="reset.mouseover" end="reset.mouseout"/>
                       </use>
               </g>
        </defs>

<script type="text/javascript">
var viewWidth = 708;
var viewHeight = 446;
var sectionId = 'dynsection-0';
</script>
<script xlink:href="svgpan.js"/>
<svg id="graph" class="graph">
<g id="viewport">
<title>v8::TypedArray</title>
<polygon fill="white" stroke="transparent" points="-4,4 -4,-442 704,-442 704,4 -4,4"/>
<!-- Node1 -->
<g id="node1" class="node">
<title>Node1</title>
<g id="a_node1"><a xlink:title=" ">
<polygon fill="#bfbfbf" stroke="black" points="444,-209.5 444,-228.5 533,-228.5 533,-209.5 444,-209.5"/>
<text text-anchor="middle" x="488.5" y="-216.5" font-family="Helvetica,sans-Serif" font-size="10.00">v8::TypedArray</text>
</a>
</g>
</g>
<!-- Node6 -->
<g id="node6" class="node">
<title>Node6</title>
<g id="a_node6"><a xlink:href="classv8_1_1BigInt64Array.html" target="_top" xlink:title=" ">
<polygon fill="white" stroke="black" points="584,-418.5 584,-437.5 685,-437.5 685,-418.5 584,-418.5"/>
<text text-anchor="middle" x="634.5" y="-425.5" font-family="Helvetica,sans-Serif" font-size="10.00">v8::BigInt64Array</text>
</a>
</g>
</g>
<!-- Node1&#45;&gt;Node6 -->
<g id="edge5" class="edge">
<title>Node1&#45;&gt;Node6</title>
<path fill="none" stroke="midnightblue" d="M492.14,-238.93C498.33,-277.52 517.35,-362.73 569,-409 573.35,-412.89 578.46,-415.99 583.87,-418.46"/>
<polygon fill="midnightblue" stroke="midnightblue" points="495.53,-237.92 490.62,-228.54 488.61,-238.94 495.53,-237.92"/>
</g>
<!-- Node7 -->
<g id="node7" class="node">
<title>Node7</title>
<g id="a_node7"><a xlink:href="classv8_1_1BigUint64Array.html" target="_top" xlink:title=" ">
<polygon fill="white" stroke="black" points="580,-380.5 580,-399.5 689,-399.5 689,-380.5 580,-380.5"/>
<text text-anchor="middle" x="634.5" y="-387.5" font-family="Helvetica,sans-Serif" font-size="10.00">v8::BigUint64Array</text>
</a>
</g>
</g>
<!-- Node1&#45;&gt;Node7 -->
<g id="edge6" class="edge">
<title>Node1&#45;&gt;Node7</title>
<path fill="none" stroke="midnightblue" d="M494.47,-238.96C503.61,-271.49 526.18,-335.83 569,-371 573.69,-374.85 579.14,-377.92 584.84,-380.37"/>
<polygon fill="midnightblue" stroke="midnightblue" points="497.74,-237.64 491.79,-228.88 490.98,-239.44 497.74,-237.64"/>
</g>
<!-- Node8 -->
<g id="node8" class="node">
<title>Node8</title>
<g id="a_node8"><a xlink:href="classv8_1_1Float16Array.html" target="_top" xlink:title=" ">
<polygon fill="white" stroke="black" points="585.5,-342.5 585.5,-361.5 683.5,-361.5 683.5,-342.5 585.5,-342.5"/>
<text text-anchor="middle" x="634.5" y="-349.5" font-family="Helvetica,sans-Serif" font-size="10.00">v8::Float16Array</text>
</a>
</g>
</g>
<!-- Node1&#45;&gt;Node8 -->
<g id="edge7" class="edge">
<title>Node1&#45;&gt;Node8</title>
<path fill="none" stroke="midnightblue" d="M497.71,-237.88C509.7,-263.27 534.41,-308.09 569,-333 574.4,-336.89 580.59,-339.99 586.96,-342.46"/>
<polygon fill="midnightblue" stroke="midnightblue" points="500.81,-236.25 493.48,-228.6 494.44,-239.15 500.81,-236.25"/>
</g>
<!-- Node9 -->
<g id="node9" class="node">
<title>Node9</title>
<g id="a_node9"><a xlink:href="classv8_1_1Float32Array.html" target="_top" xlink:title=" ">
<polygon fill="white" stroke="black" points="585.5,-304.5 585.5,-323.5 683.5,-323.5 683.5,-304.5 585.5,-304.5"/>
<text text-anchor="middle" x="634.5" y="-311.5" font-family="Helvetica,sans-Serif" font-size="10.00">v8::Float32Array</text>
</a>
</g>
</g>
<!-- Node1&#45;&gt;Node9 -->
<g id="edge8" class="edge">
<title>Node1&#45;&gt;Node9</title>
<path fill="none" stroke="midnightblue" d="M503.71,-236.84C518.35,-254.08 542.68,-279.77 569,-295 575.57,-298.8 582.96,-301.9 590.33,-304.4"/>
<polygon fill="midnightblue" stroke="midnightblue" points="506.05,-234.17 496.98,-228.69 500.65,-238.63 506.05,-234.17"/>
</g>
<!-- Node10 -->
<g id="node10" class="node">
<title>Node10</title>
<g id="a_node10"><a xlink:href="classv8_1_1Float64Array.html" target="_top" xlink:title=" ">
<polygon fill="white" stroke="black" points="585.5,-266.5 585.5,-285.5 683.5,-285.5 683.5,-266.5 585.5,-266.5"/>
<text text-anchor="middle" x="634.5" y="-273.5" font-family="Helvetica,sans-Serif" font-size="10.00">v8::Float64Array</text>
</a>
</g>
</g>
<!-- Node1&#45;&gt;Node10 -->
<g id="edge9" class="edge">
<title>Node1&#45;&gt;Node10</title>
<path fill="none" stroke="midnightblue" d="M516.74,-233.35C531.87,-240.98 551.19,-250.17 569,-257 578.05,-260.47 588.01,-263.69 597.34,-266.45"/>
<polygon fill="midnightblue" stroke="midnightblue" points="517.95,-230.04 507.45,-228.6 514.76,-236.27 517.95,-230.04"/>
</g>
<!-- Node11 -->
<g id="node11" class="node">
<title>Node11</title>
<g id="a_node11"><a xlink:href="classv8_1_1Int16Array.html" target="_top" xlink:title=" ">
<polygon fill="white" stroke="black" points="591.5,-228.5 591.5,-247.5 677.5,-247.5 677.5,-228.5 591.5,-228.5"/>
<text text-anchor="middle" x="634.5" y="-235.5" font-family="Helvetica,sans-Serif" font-size="10.00">v8::Int16Array</text>
</a>
</g>
</g>
<!-- Node1&#45;&gt;Node11 -->
<g id="edge10" class="edge">
<title>Node1&#45;&gt;Node11</title>
<path fill="none" stroke="midnightblue" d="M543.25,-226.09C559.03,-228.17 576.07,-230.42 591.04,-232.4"/>
<polygon fill="midnightblue" stroke="midnightblue" points="543.47,-222.59 533.1,-224.75 542.55,-229.53 543.47,-222.59"/>
</g>
<!-- Node12 -->
<g id="node12" class="node">
<title>Node12</title>
<g id="a_node12"><a xlink:href="classv8_1_1Int32Array.html" target="_top" xlink:title=" ">
<polygon fill="white" stroke="black" points="591.5,-190.5 591.5,-209.5 677.5,-209.5 677.5,-190.5 591.5,-190.5"/>
<text text-anchor="middle" x="634.5" y="-197.5" font-family="Helvetica,sans-Serif" font-size="10.00">v8::Int32Array</text>
</a>
</g>
</g>
<!-- Node1&#45;&gt;Node12 -->
<g id="edge11" class="edge">
<title>Node1&#45;&gt;Node12</title>
<path fill="none" stroke="midnightblue" d="M543.25,-211.91C559.03,-209.83 576.07,-207.58 591.04,-205.6"/>
<polygon fill="midnightblue" stroke="midnightblue" points="542.55,-208.47 533.1,-213.25 543.47,-215.41 542.55,-208.47"/>
</g>
<!-- Node13 -->
<g id="node13" class="node">
<title>Node13</title>
<g id="a_node13"><a xlink:href="classv8_1_1Int8Array.html" target="_top" xlink:title=" ">
<polygon fill="white" stroke="black" points="594.5,-152.5 594.5,-171.5 674.5,-171.5 674.5,-152.5 594.5,-152.5"/>
<text text-anchor="middle" x="634.5" y="-159.5" font-family="Helvetica,sans-Serif" font-size="10.00">v8::Int8Array</text>
</a>
</g>
</g>
<!-- Node1&#45;&gt;Node13 -->
<g id="edge12" class="edge">
<title>Node1&#45;&gt;Node13</title>
<path fill="none" stroke="midnightblue" d="M516.74,-204.65C531.87,-197.02 551.19,-187.83 569,-181 578.05,-177.53 588.01,-174.31 597.34,-171.55"/>
<polygon fill="midnightblue" stroke="midnightblue" points="514.76,-201.73 507.45,-209.4 517.95,-207.96 514.76,-201.73"/>
</g>
<!-- Node14 -->
<g id="node14" class="node">
<title>Node14</title>
<g id="a_node14"><a xlink:href="classv8_1_1Uint16Array.html" target="_top" xlink:title=" ">
<polygon fill="white" stroke="black" points="588,-114.5 588,-133.5 681,-133.5 681,-114.5 588,-114.5"/>
<text text-anchor="middle" x="634.5" y="-121.5" font-family="Helvetica,sans-Serif" font-size="10.00">v8::Uint16Array</text>
</a>
</g>
</g>
<!-- Node1&#45;&gt;Node14 -->
<g id="edge13" class="edge">
<title>Node1&#45;&gt;Node14</title>
<path fill="none" stroke="midnightblue" d="M503.71,-201.16C518.35,-183.92 542.68,-158.23 569,-143 575.57,-139.2 582.96,-136.1 590.33,-133.6"/>
<polygon fill="midnightblue" stroke="midnightblue" points="500.65,-199.37 496.98,-209.31 506.05,-203.83 500.65,-199.37"/>
</g>
<!-- Node15 -->
<g id="node15" class="node">
<title>Node15</title>
<g id="a_node15"><a xlink:href="classv8_1_1Uint32Array.html" target="_top" xlink:title=" ">
<polygon fill="white" stroke="black" points="588,-76.5 588,-95.5 681,-95.5 681,-76.5 588,-76.5"/>
<text text-anchor="middle" x="634.5" y="-83.5" font-family="Helvetica,sans-Serif" font-size="10.00">v8::Uint32Array</text>
</a>
</g>
</g>
<!-- Node1&#45;&gt;Node15 -->
<g id="edge14" class="edge">
<title>Node1&#45;&gt;Node15</title>
<path fill="none" stroke="midnightblue" d="M497.71,-200.12C509.7,-174.73 534.41,-129.91 569,-105 574.68,-100.91 581.25,-97.69 587.96,-95.16"/>
<polygon fill="midnightblue" stroke="midnightblue" points="494.44,-198.85 493.48,-209.4 500.81,-201.75 494.44,-198.85"/>
</g>
<!-- Node16 -->
<g id="node16" class="node">
<title>Node16</title>
<g id="a_node16"><a xlink:href="classv8_1_1Uint8Array.html" target="_top" xlink:title=" ">
<polygon fill="white" stroke="black" points="591,-38.5 591,-57.5 678,-57.5 678,-38.5 591,-38.5"/>
<text text-anchor="middle" x="634.5" y="-45.5" font-family="Helvetica,sans-Serif" font-size="10.00">v8::Uint8Array</text>
</a>
</g>
</g>
<!-- Node1&#45;&gt;Node16 -->
<g id="edge15" class="edge">
<title>Node1&#45;&gt;Node16</title>
<path fill="none" stroke="midnightblue" d="M494.47,-199.04C503.61,-166.51 526.18,-102.17 569,-67 575.31,-61.81 583,-58.04 590.83,-55.3"/>
<polygon fill="midnightblue" stroke="midnightblue" points="490.98,-198.56 491.79,-209.12 497.74,-200.36 490.98,-198.56"/>
</g>
<!-- Node17 -->
<g id="node17" class="node">
<title>Node17</title>
<g id="a_node17"><a xlink:href="classv8_1_1Uint8ClampedArray.html" target="_top" xlink:title=" ">
<polygon fill="white" stroke="black" points="569,-0.5 569,-19.5 700,-19.5 700,-0.5 569,-0.5"/>
<text text-anchor="middle" x="634.5" y="-7.5" font-family="Helvetica,sans-Serif" font-size="10.00">v8::Uint8ClampedArray</text>
</a>
</g>
</g>
<!-- Node1&#45;&gt;Node17 -->
<g id="edge16" class="edge">
<title>Node1&#45;&gt;Node17</title>
<path fill="none" stroke="midnightblue" d="M492.14,-199.07C498.33,-160.48 517.35,-75.27 569,-29 573.35,-25.11 578.46,-22.01 583.87,-19.54"/>
<polygon fill="midnightblue" stroke="midnightblue" points="488.61,-199.06 490.62,-209.46 495.53,-200.08 488.61,-199.06"/>
</g>
<!-- Node2 -->
<g id="node2" class="node">
<title>Node2</title>
<g id="a_node2"><a xlink:href="classv8_1_1ArrayBufferView.html" target="_top" xlink:title=" ">
<polygon fill="white" stroke="black" points="294,-209.5 294,-228.5 408,-228.5 408,-209.5 294,-209.5"/>
<text text-anchor="middle" x="351" y="-216.5" font-family="Helvetica,sans-Serif" font-size="10.00">v8::ArrayBufferView</text>
</a>
</g>
</g>
<!-- Node2&#45;&gt;Node1 -->
<g id="edge1" class="edge">
<title>Node2&#45;&gt;Node1</title>
<path fill="none" stroke="midnightblue" d="M418.43,-219C427.11,-219 435.82,-219 443.99,-219"/>
<polygon fill="midnightblue" stroke="midnightblue" points="418.29,-215.5 408.29,-219 418.29,-222.5 418.29,-215.5"/>
</g>
<!-- Node3 -->
<g id="node3" class="node">
<title>Node3</title>
<g id="a_node3"><a xlink:href="classv8_1_1Object.html" target="_top" xlink:title=" ">
<polygon fill="white" stroke="black" points="192,-209.5 192,-228.5 258,-228.5 258,-209.5 192,-209.5"/>
<text text-anchor="middle" x="225" y="-216.5" font-family="Helvetica,sans-Serif" font-size="10.00">v8::Object</text>
</a>
</g>
</g>
<!-- Node3&#45;&gt;Node2 -->
<g id="edge2" class="edge">
<title>Node3&#45;&gt;Node2</title>
<path fill="none" stroke="midnightblue" d="M268.35,-219C276.57,-219 285.3,-219 293.89,-219"/>
<polygon fill="midnightblue" stroke="midnightblue" points="268.26,-215.5 258.26,-219 268.26,-222.5 268.26,-215.5"/>
</g>
<!-- Node4 -->
<g id="node4" class="node">
<title>Node4</title>
<g id="a_node4"><a xlink:href="classv8_1_1Value.html" target="_top" xlink:title=" ">
<polygon fill="white" stroke="black" points="94,-209.5 94,-228.5 156,-228.5 156,-209.5 94,-209.5"/>
<text text-anchor="middle" x="125" y="-216.5" font-family="Helvetica,sans-Serif" font-size="10.00">v8::Value</text>
</a>
</g>
</g>
<!-- Node4&#45;&gt;Node3 -->
<g id="edge3" class="edge">
<title>Node4&#45;&gt;Node3</title>
<path fill="none" stroke="midnightblue" d="M166.28,-219C174.74,-219 183.56,-219 191.69,-219"/>
<polygon fill="midnightblue" stroke="midnightblue" points="166.2,-215.5 156.2,-219 166.2,-222.5 166.2,-215.5"/>
</g>
<!-- Node5 -->
<g id="node5" class="node">
<title>Node5</title>
<g id="a_node5"><a xlink:href="classv8_1_1Data.html" target="_top" xlink:title=" ">
<polygon fill="white" stroke="black" points="0,-209.5 0,-228.5 58,-228.5 58,-209.5 0,-209.5"/>
<text text-anchor="middle" x="29" y="-216.5" font-family="Helvetica,sans-Serif" font-size="10.00">v8::Data</text>
</a>
</g>
</g>
<!-- Node5&#45;&gt;Node4 -->
<g id="edge4" class="edge">
<title>Node5&#45;&gt;Node4</title>
<path fill="none" stroke="midnightblue" d="M68.31,-219C76.82,-219 85.72,-219 93.85,-219"/>
<polygon fill="midnightblue" stroke="midnightblue" points="68.2,-215.5 58.2,-219 68.2,-222.5 68.2,-215.5"/>
</g>
</g>
</svg>
        <g id="navigator" transform="translate(0 0)" fill="#404254">
                <rect fill="#f2f5e9" fill-opacity="0.5" stroke="#606060" stroke-width=".5" x="0" y="0" width="60" height="60"/>
                <use id="zoomplus" xlink:href="#zoomPlus" x="17" y="9" onmousedown="handleZoom(evt,'in')"/>
                <use id="zoomminus" xlink:href="#zoomMin" x="42" y="9" onmousedown="handleZoom(evt,'out')"/>
                <use id="reset" xlink:href="#resetDef" x="30" y="36" onmousedown="handleReset()"/>
                <g id="arrowUp" xlink:href="#dirArrow" transform="translate(30 24)" onmousedown="handlePan(0,-1)">
                  <use xlink:href="#rim" fill="#404040">
                        <set attributeName="fill" to="#808080" begin="arrowUp.mouseover" end="arrowUp.mouseout"/>
                  </use>
                  <path fill="none" stroke="white" stroke-width="1.5" d="M0,-3.0v7 M-2.5,-0.5L0,-3.0L2.5,-0.5"/>
                </g>
                <g id="arrowRight" xlink:href="#dirArrow" transform="rotate(90) translate(36 -43)" onmousedown="handlePan(1,0)">
                  <use xlink:href="#rim" fill="#404040">
                        <set attributeName="fill" to="#808080" begin="arrowRight.mouseover" end="arrowRight.mouseout"/>
                  </use>
                  <path fill="none" stroke="white" stroke-width="1.5" d="M0,-3.0v7 M-2.5,-0.5L0,-3.0L2.5,-0.5"/>
                </g>
                <g id="arrowDown" xlink:href="#dirArrow" transform="rotate(180) translate(-30 -48)" onmousedown="handlePan(0,1)">
                  <use xlink:href="#rim" fill="#404040">
                        <set attributeName="fill" to="#808080" begin="arrowDown.mouseover" end="arrowDown.mouseout"/>
                  </use>
                  <path fill="none" stroke="white" stroke-width="1.5" d="M0,-3.0v7 M-2.5,-0.5L0,-3.0L2.5,-0.5"/>
                </g>
                <g id="arrowLeft" xlink:href="#dirArrow" transform="rotate(270) translate(-36 17)" onmousedown="handlePan(-1,0)">
                  <use xlink:href="#rim" fill="#404040">
                        <set attributeName="fill" to="#808080" begin="arrowLeft.mouseover" end="arrowLeft.mouseout"/>
                  </use>
                  <path fill="none" stroke="white" stroke-width="1.5" d="M0,-3.0v7 M-2.5,-0.5L0,-3.0L2.5,-0.5"/>
                </g>
        </g>
        <svg viewBox="0 0 15 15" width="100%" height="30px" preserveAspectRatio="xMaxYMin meet">
         <g id="arrow_out" transform="scale(0.3 0.3)">
          <a xlink:href="classv8_1_1TypedArray__inherit__graph_org.svg" target="_base">
           <rect id="button" ry="5" rx="5" y="6" x="6" height="38" width="38"
                fill="#f2f5e9" fill-opacity="0.5" stroke="#606060" stroke-width="1.0"/>
           <path id="arrow"
             d="M 11.500037,31.436501 C 11.940474,20.09759 22.043105,11.32322 32.158766,21.979434 L 37.068811,17.246167 C 37.068811,17.246167 37.088388,32 37.088388,32 L 22.160133,31.978069 C 22.160133,31.978069 26.997745,27.140456 26.997745,27.140456 C 18.528582,18.264221 13.291696,25.230495 11.500037,31.436501 z"
             style="fill:#404040;"/>
          </a>
         </g>
        </svg>
</svg>
