<?xml version="1.0" encoding="UTF-8" standalone="no"?>
<!DOCTYPE svg PUBLIC "-//W3C//DTD SVG 1.1//EN"
 "http://www.w3.org/Graphics/SVG/1.1/DTD/svg11.dtd">
<!-- Generated by graphviz version 2.43.0 (0)
 -->
<!-- Title: v8::internal::wasm::Decoder::read_prefixed_opcode Pages: 1 -->
<svg width="435pt" height="106pt"
 viewBox="0.00 0.00 435.00 106.00" xmlns="http://www.w3.org/2000/svg" xmlns:xlink="http://www.w3.org/1999/xlink">
<g id="graph0" class="graph" transform="scale(1 1) rotate(0) translate(4 102)">
<title>v8::internal::wasm::Decoder::read_prefixed_opcode</title>
<polygon fill="white" stroke="transparent" points="-4,4 -4,-102 431,-102 431,4 -4,4"/>
<!-- Node1 -->
<g id="node1" class="node">
<title>Node1</title>
<g id="a_node1"><a xlink:title=" ">
<polygon fill="#bfbfbf" stroke="black" points="0,-19 0,-60 135,-60 135,-19 0,-19"/>
<text text-anchor="start" x="8" y="-48" font-family="Helvetica,sans-Serif" font-size="10.00">v8::internal::wasm</text>
<text text-anchor="start" x="8" y="-37" font-family="Helvetica,sans-Serif" font-size="10.00">::Decoder::read_prefixed</text>
<text text-anchor="middle" x="67.5" y="-26" font-family="Helvetica,sans-Serif" font-size="10.00">_opcode</text>
</a>
</g>
</g>
<!-- Node2 -->
<g id="node2" class="node">
<title>Node2</title>
<g id="a_node2"><a xlink:href="classv8_1_1internal_1_1wasm_1_1Decoder.html#a4da7d0dc7e10f7e310809e2265587032" target="_top" xlink:title=" ">
<polygon fill="white" stroke="black" points="171,-49.5 171,-79.5 278,-79.5 278,-49.5 171,-49.5"/>
<text text-anchor="start" x="179" y="-67.5" font-family="Helvetica,sans-Serif" font-size="10.00">v8::internal::wasm</text>
<text text-anchor="middle" x="224.5" y="-56.5" font-family="Helvetica,sans-Serif" font-size="10.00">::Decoder::errorf</text>
</a>
</g>
</g>
<!-- Node1&#45;&gt;Node2 -->
<g id="edge1" class="edge">
<title>Node1&#45;&gt;Node2</title>
<path fill="none" stroke="midnightblue" d="M135.13,-50.25C143.74,-51.64 152.54,-53.05 161.08,-54.43"/>
<polygon fill="midnightblue" stroke="midnightblue" points="160.53,-57.89 170.96,-56.03 161.64,-50.98 160.53,-57.89"/>
</g>
<!-- Node4 -->
<g id="node4" class="node">
<title>Node4</title>
<g id="a_node4"><a xlink:href="classv8_1_1internal_1_1wasm_1_1Decoder.html#a68da590406313256e42a52308c02289d" target="_top" xlink:title=" ">
<polygon fill="white" stroke="black" points="171,-0.5 171,-30.5 278,-30.5 278,-0.5 171,-0.5"/>
<text text-anchor="start" x="179" y="-18.5" font-family="Helvetica,sans-Serif" font-size="10.00">v8::internal::wasm</text>
<text text-anchor="middle" x="224.5" y="-7.5" font-family="Helvetica,sans-Serif" font-size="10.00">::Decoder::pc</text>
</a>
</g>
</g>
<!-- Node1&#45;&gt;Node4 -->
<g id="edge4" class="edge">
<title>Node1&#45;&gt;Node4</title>
<path fill="none" stroke="midnightblue" d="M135.13,-29.18C143.65,-27.86 152.35,-26.52 160.8,-25.21"/>
<polygon fill="midnightblue" stroke="midnightblue" points="161.61,-28.62 170.96,-23.64 160.54,-21.71 161.61,-28.62"/>
</g>
<!-- Node3 -->
<g id="node3" class="node">
<title>Node3</title>
<g id="a_node3"><a xlink:href="classv8_1_1internal_1_1wasm_1_1Decoder.html#ab9ad31b5a9b617078aeb067b6bc91175" target="_top" xlink:title=" ">
<polygon fill="white" stroke="black" points="314,-49.5 314,-79.5 427,-79.5 427,-49.5 314,-49.5"/>
<text text-anchor="start" x="322" y="-67.5" font-family="Helvetica,sans-Serif" font-size="10.00">v8::internal::wasm</text>
<text text-anchor="middle" x="370.5" y="-56.5" font-family="Helvetica,sans-Serif" font-size="10.00">::Decoder::pc_offset</text>
</a>
</g>
</g>
<!-- Node2&#45;&gt;Node3 -->
<g id="edge2" class="edge">
<title>Node2&#45;&gt;Node3</title>
<path fill="none" stroke="midnightblue" d="M278.3,-64.5C286.52,-64.5 295.1,-64.5 303.56,-64.5"/>
<polygon fill="midnightblue" stroke="midnightblue" points="303.8,-68 313.8,-64.5 303.8,-61 303.8,-68"/>
</g>
<!-- Node3&#45;&gt;Node3 -->
<g id="edge3" class="edge">
<title>Node3&#45;&gt;Node3</title>
<path fill="none" stroke="midnightblue" d="M345.06,-79.66C338.92,-89.06 347.4,-98 370.5,-98 384.58,-98 393.22,-94.68 396.44,-89.96"/>
<polygon fill="midnightblue" stroke="midnightblue" points="399.92,-89.48 395.94,-79.66 392.93,-89.82 399.92,-89.48"/>
</g>
</g>
</svg>
