<?xml version="1.0" encoding="UTF-8" standalone="no"?>
<!DOCTYPE svg PUBLIC "-//W3C//DTD SVG 1.1//EN"
 "http://www.w3.org/Graphics/SVG/1.1/DTD/svg11.dtd">
<!-- Generated by graphviz version 2.43.0 (0)
 -->
<!-- Title: v8::internal::Object::OptimalRepresentation Pages: 1 -->
<svg width="1071pt" height="476pt"
 viewBox="0.00 0.00 1071.00 475.50" xmlns="http://www.w3.org/2000/svg" xmlns:xlink="http://www.w3.org/1999/xlink">
<g id="graph0" class="graph" transform="scale(1 1) rotate(0) translate(4 471.5)">
<title>v8::internal::Object::OptimalRepresentation</title>
<polygon fill="white" stroke="transparent" points="-4,4 -4,-471.5 1067,-471.5 1067,4 -4,4"/>
<!-- Node1 -->
<g id="node1" class="node">
<title>Node1</title>
<g id="a_node1"><a xlink:title=" ">
<polygon fill="#bfbfbf" stroke="black" points="927,-264.5 927,-294.5 1063,-294.5 1063,-264.5 927,-264.5"/>
<text text-anchor="start" x="935" y="-282.5" font-family="Helvetica,sans-Serif" font-size="10.00">v8::internal::Object</text>
<text text-anchor="middle" x="995" y="-271.5" font-family="Helvetica,sans-Serif" font-size="10.00">::OptimalRepresentation</text>
</a>
</g>
</g>
<!-- Node2 -->
<g id="node2" class="node">
<title>Node2</title>
<g id="a_node2"><a xlink:href="namespacev8_1_1internal_1_1anonymous__namespace_02runtime-classes_8cc_03.html#ac72cc2319d409ffd883663597cfdfbac" target="_top" xlink:title=" ">
<polygon fill="white" stroke="black" points="692.5,-407 692.5,-448 869.5,-448 869.5,-407 692.5,-407"/>
<text text-anchor="start" x="700.5" y="-436" font-family="Helvetica,sans-Serif" font-size="10.00">v8::internal::anonymous</text>
<text text-anchor="start" x="700.5" y="-425" font-family="Helvetica,sans-Serif" font-size="10.00">_namespace{runtime&#45;classes</text>
<text text-anchor="middle" x="781" y="-414" font-family="Helvetica,sans-Serif" font-size="10.00">::cc}::AddDescriptorsByTemplate</text>
</a>
</g>
</g>
<!-- Node1&#45;&gt;Node2 -->
<g id="edge1" class="edge">
<title>Node1&#45;&gt;Node2</title>
<path fill="none" stroke="midnightblue" d="M979.57,-303.13C961.96,-329.97 929.69,-373.2 891,-397.5 884.35,-401.68 877.12,-405.28 869.65,-408.39"/>
<polygon fill="midnightblue" stroke="midnightblue" points="982.52,-305.01 984.97,-294.7 976.63,-301.23 982.52,-305.01"/>
</g>
<!-- Node3 -->
<g id="node3" class="node">
<title>Node3</title>
<g id="a_node3"><a xlink:href="classv8_1_1internal_1_1Map.html#a229d550b8b5873e04504c98357ae7bca" target="_top" xlink:title=" ">
<polygon fill="white" stroke="black" points="727.5,-357.5 727.5,-387.5 834.5,-387.5 834.5,-357.5 727.5,-357.5"/>
<text text-anchor="start" x="735.5" y="-375.5" font-family="Helvetica,sans-Serif" font-size="10.00">v8::internal::Map::</text>
<text text-anchor="middle" x="781" y="-364.5" font-family="Helvetica,sans-Serif" font-size="10.00">CopyWithConstant</text>
</a>
</g>
</g>
<!-- Node1&#45;&gt;Node3 -->
<g id="edge2" class="edge">
<title>Node1&#45;&gt;Node3</title>
<path fill="none" stroke="midnightblue" d="M967.9,-301.02C947.98,-316.41 919.23,-336.45 891,-348.5 873.27,-356.07 852.85,-361.38 834.52,-365.05"/>
<polygon fill="midnightblue" stroke="midnightblue" points="970.18,-303.68 975.87,-294.75 965.85,-298.18 970.18,-303.68"/>
</g>
<!-- Node4 -->
<g id="node4" class="node">
<title>Node4</title>
<g id="a_node4"><a xlink:href="classv8_1_1internal_1_1Descriptor.html#a99e8701798dba98e56a94b2e66d053c0" target="_top" xlink:title=" ">
<polygon fill="white" stroke="black" points="717,-308.5 717,-338.5 845,-338.5 845,-308.5 717,-308.5"/>
<text text-anchor="start" x="725" y="-326.5" font-family="Helvetica,sans-Serif" font-size="10.00">v8::internal::Descriptor</text>
<text text-anchor="middle" x="781" y="-315.5" font-family="Helvetica,sans-Serif" font-size="10.00">::DataConstant</text>
</a>
</g>
</g>
<!-- Node1&#45;&gt;Node4 -->
<g id="edge3" class="edge">
<title>Node1&#45;&gt;Node4</title>
<path fill="none" stroke="midnightblue" d="M916.94,-295.49C893.31,-300.4 867.61,-305.73 845.03,-310.42"/>
<polygon fill="midnightblue" stroke="midnightblue" points="917.84,-298.88 926.92,-293.42 916.42,-292.03 917.84,-298.88"/>
</g>
<!-- Node58 -->
<g id="node14" class="node">
<title>Node58</title>
<g id="a_node14"><a xlink:href="classv8_1_1internal_1_1Map.html#a403b476f61c7ae94d260cd9e6ef77e6e" target="_top" xlink:title=" ">
<polygon fill="white" stroke="black" points="467.5,-160.5 467.5,-190.5 606.5,-190.5 606.5,-160.5 467.5,-160.5"/>
<text text-anchor="start" x="475.5" y="-178.5" font-family="Helvetica,sans-Serif" font-size="10.00">v8::internal::Map::</text>
<text text-anchor="middle" x="537" y="-167.5" font-family="Helvetica,sans-Serif" font-size="10.00">TransitionToDataProperty</text>
</a>
</g>
</g>
<!-- Node1&#45;&gt;Node58 -->
<g id="edge14" class="edge">
<title>Node1&#45;&gt;Node58</title>
<path fill="none" stroke="midnightblue" d="M969.37,-257.86C949.62,-241.85 920.43,-221.06 891,-210.5 796.52,-176.59 679.24,-171.68 606.5,-172.58"/>
<polygon fill="midnightblue" stroke="midnightblue" points="967.3,-260.69 977.23,-264.39 971.77,-255.31 967.3,-260.69"/>
</g>
<!-- Node1678 -->
<g id="node20" class="node">
<title>Node1678</title>
<g id="a_node20"><a xlink:href="classv8_1_1internal_1_1JSDataObjectBuilder.html#afac1fc472ec1381027dbeb3244aecf83" target="_top" xlink:title=" ">
<polygon fill="white" stroke="black" points="440.5,-220.5 440.5,-250.5 633.5,-250.5 633.5,-220.5 440.5,-220.5"/>
<text text-anchor="start" x="448.5" y="-238.5" font-family="Helvetica,sans-Serif" font-size="10.00">v8::internal::JSDataObject</text>
<text text-anchor="middle" x="537" y="-227.5" font-family="Helvetica,sans-Serif" font-size="10.00">Builder::TryAddFastPropertyForValue</text>
</a>
</g>
</g>
<!-- Node1&#45;&gt;Node1678 -->
<g id="edge20" class="edge">
<title>Node1&#45;&gt;Node1678</title>
<path fill="none" stroke="midnightblue" d="M916.71,-277.71C851.12,-275.53 754.62,-270.78 671,-260.5 650.71,-258.01 628.85,-254.32 608.83,-250.54"/>
<polygon fill="midnightblue" stroke="midnightblue" points="916.86,-281.22 926.97,-278.04 917.08,-274.22 916.86,-281.22"/>
</g>
<!-- Node1679 -->
<g id="node21" class="node">
<title>Node1679</title>
<g id="a_node21"><a xlink:href="classv8_1_1internal_1_1JSDataObjectBuilder.html#a05582d806e60f25e8e184f9b0364bb69" target="_top" xlink:title=" ">
<polygon fill="white" stroke="black" points="688.5,-220.5 688.5,-250.5 873.5,-250.5 873.5,-220.5 688.5,-220.5"/>
<text text-anchor="start" x="696.5" y="-238.5" font-family="Helvetica,sans-Serif" font-size="10.00">v8::internal::JSDataObject</text>
<text text-anchor="middle" x="781" y="-227.5" font-family="Helvetica,sans-Serif" font-size="10.00">Builder::TryGeneralizeFieldToValue</text>
</a>
</g>
</g>
<!-- Node1&#45;&gt;Node1679 -->
<g id="edge21" class="edge">
<title>Node1&#45;&gt;Node1679</title>
<path fill="none" stroke="midnightblue" d="M917.04,-263.53C896.64,-259.29 874.67,-254.73 854.51,-250.55"/>
<polygon fill="midnightblue" stroke="midnightblue" points="916.42,-266.97 926.92,-265.58 917.84,-260.12 916.42,-266.97"/>
</g>
<!-- Node1680 -->
<g id="node22" class="node">
<title>Node1680</title>
<g id="a_node22"><a xlink:href="namespacev8_1_1internal_1_1anonymous__namespace_02map_8cc_03.html#aa7b636ac6f724e45aa43cebef52e84ff" target="_top" xlink:title=" ">
<polygon fill="white" stroke="black" points="671,-122 671,-163 891,-163 891,-122 671,-122"/>
<text text-anchor="start" x="679" y="-151" font-family="Helvetica,sans-Serif" font-size="10.00">v8::internal::anonymous</text>
<text text-anchor="start" x="679" y="-140" font-family="Helvetica,sans-Serif" font-size="10.00">_namespace{map::cc}::UpdateDescriptor</text>
<text text-anchor="middle" x="781" y="-129" font-family="Helvetica,sans-Serif" font-size="10.00">ForValue</text>
</a>
</g>
</g>
<!-- Node1&#45;&gt;Node1680 -->
<g id="edge23" class="edge">
<title>Node1&#45;&gt;Node1680</title>
<path fill="none" stroke="midnightblue" d="M976.35,-256.56C957.52,-233.54 925.68,-198.55 891,-177.5 881.83,-171.93 871.67,-167.15 861.36,-163.08"/>
<polygon fill="midnightblue" stroke="midnightblue" points="973.7,-258.84 982.68,-264.45 979.16,-254.46 973.7,-258.84"/>
</g>
<!-- Node5 -->
<g id="node5" class="node">
<title>Node5</title>
<g id="a_node5"><a xlink:href="classv8_1_1internal_1_1ObjectDescriptor.html#a479d1d4fb48ab1644259a5351b1a7ee6" target="_top" xlink:title=" ">
<polygon fill="white" stroke="black" points="457,-269.5 457,-299.5 617,-299.5 617,-269.5 457,-269.5"/>
<text text-anchor="start" x="465" y="-287.5" font-family="Helvetica,sans-Serif" font-size="10.00">v8::internal::ObjectDescriptor</text>
<text text-anchor="middle" x="537" y="-276.5" font-family="Helvetica,sans-Serif" font-size="10.00">::AddConstant</text>
</a>
</g>
</g>
<!-- Node4&#45;&gt;Node5 -->
<g id="edge4" class="edge">
<title>Node4&#45;&gt;Node5</title>
<path fill="none" stroke="midnightblue" d="M706.55,-311.66C678.36,-307.12 646.08,-301.92 617.36,-297.29"/>
<polygon fill="midnightblue" stroke="midnightblue" points="706.3,-315.17 716.73,-313.3 707.42,-308.26 706.3,-315.17"/>
</g>
<!-- Node11 -->
<g id="node7" class="node">
<title>Node11</title>
<g id="a_node7"><a xlink:href="namespacev8_1_1internal_1_1anonymous__namespace_02literal-objects_8cc_03.html#af686e23032250d9c806f3e64f3fce165" target="_top" xlink:title=" ">
<polygon fill="white" stroke="black" points="439,-426 439,-467 635,-467 635,-426 439,-426"/>
<text text-anchor="start" x="447" y="-455" font-family="Helvetica,sans-Serif" font-size="10.00">v8::internal::anonymous</text>
<text text-anchor="start" x="447" y="-444" font-family="Helvetica,sans-Serif" font-size="10.00">_namespace{literal&#45;objects</text>
<text text-anchor="middle" x="537" y="-433" font-family="Helvetica,sans-Serif" font-size="10.00">::cc}::AddToDescriptorArrayTemplate</text>
</a>
</g>
</g>
<!-- Node4&#45;&gt;Node11 -->
<g id="edge6" class="edge">
<title>Node4&#45;&gt;Node11</title>
<path fill="none" stroke="midnightblue" d="M706.9,-331.34C694.08,-335.12 681.51,-340.59 671,-348.5 644.62,-368.36 660.33,-392.31 635,-413.5 629.27,-418.29 622.81,-422.4 616.01,-425.92"/>
<polygon fill="midnightblue" stroke="midnightblue" points="707.93,-334.69 716.72,-328.78 706.16,-327.92 707.93,-334.69"/>
</g>
<!-- Node13 -->
<g id="node9" class="node">
<title>Node13</title>
<g id="a_node9"><a xlink:href="classv8_1_1internal_1_1MapUpdater.html#afcd7e18d8dd0b89d46573672d45c8e59" target="_top" xlink:title=" ">
<polygon fill="white" stroke="black" points="468,-373.5 468,-403.5 606,-403.5 606,-373.5 468,-373.5"/>
<text text-anchor="start" x="476" y="-391.5" font-family="Helvetica,sans-Serif" font-size="10.00">v8::internal::MapUpdater</text>
<text text-anchor="middle" x="537" y="-380.5" font-family="Helvetica,sans-Serif" font-size="10.00">::BuildDescriptorArray</text>
</a>
</g>
</g>
<!-- Node4&#45;&gt;Node13 -->
<g id="edge9" class="edge">
<title>Node4&#45;&gt;Node13</title>
<path fill="none" stroke="midnightblue" d="M706.97,-339.54C694.92,-342.39 682.58,-345.43 671,-348.5 642.33,-356.09 610.51,-365.62 585.18,-373.47"/>
<polygon fill="midnightblue" stroke="midnightblue" points="708.06,-342.88 717,-337.2 706.46,-336.07 708.06,-342.88"/>
</g>
<!-- Node54 -->
<g id="node11" class="node">
<title>Node54</title>
<g id="a_node11"><a xlink:href="classv8_1_1internal_1_1JSSharedStruct.html#ad31f42e338736760e9e952f0f6352b32" target="_top" xlink:title=" ">
<polygon fill="white" stroke="black" points="462.5,-318.5 462.5,-348.5 611.5,-348.5 611.5,-318.5 462.5,-318.5"/>
<text text-anchor="start" x="470.5" y="-336.5" font-family="Helvetica,sans-Serif" font-size="10.00">v8::internal::JSSharedStruct</text>
<text text-anchor="middle" x="537" y="-325.5" font-family="Helvetica,sans-Serif" font-size="10.00">::CreateInstanceMap</text>
</a>
</g>
</g>
<!-- Node4&#45;&gt;Node54 -->
<g id="edge11" class="edge">
<title>Node4&#45;&gt;Node54</title>
<path fill="none" stroke="midnightblue" d="M706.71,-326.53C676.59,-327.77 641.78,-329.21 611.62,-330.46"/>
<polygon fill="midnightblue" stroke="midnightblue" points="706.89,-330.02 716.73,-326.11 706.6,-323.03 706.89,-330.02"/>
</g>
<!-- Node6 -->
<g id="node6" class="node">
<title>Node6</title>
<g id="a_node6"><a xlink:href="classv8_1_1internal_1_1ClassBoilerplate.html#ac42f55bd0031c76c690863988e0581f1" target="_top" xlink:title=" ">
<polygon fill="white" stroke="red" points="0,-348 0,-367 185,-367 185,-348 0,-348"/>
<text text-anchor="middle" x="92.5" y="-355" font-family="Helvetica,sans-Serif" font-size="10.00">v8::internal::ClassBoilerplate::New</text>
</a>
</g>
</g>
<!-- Node5&#45;&gt;Node6 -->
<g id="edge5" class="edge">
<title>Node5&#45;&gt;Node6</title>
<path fill="none" stroke="midnightblue" d="M446.87,-273.91C382.94,-269.05 295.33,-268.06 221,-287.5 175.07,-299.51 127.84,-331.63 105.99,-347.85"/>
<polygon fill="midnightblue" stroke="midnightblue" points="446.68,-277.4 456.92,-274.72 447.24,-270.42 446.68,-277.4"/>
</g>
<!-- Node12 -->
<g id="node8" class="node">
<title>Node12</title>
<g id="a_node8"><a xlink:href="classv8_1_1internal_1_1ObjectDescriptor.html#acfa32100fcfe09ee29bca95a58055661" target="_top" xlink:title=" ">
<polygon fill="white" stroke="black" points="232,-433.5 232,-463.5 392,-463.5 392,-433.5 232,-433.5"/>
<text text-anchor="start" x="240" y="-451.5" font-family="Helvetica,sans-Serif" font-size="10.00">v8::internal::ObjectDescriptor</text>
<text text-anchor="middle" x="312" y="-440.5" font-family="Helvetica,sans-Serif" font-size="10.00">::AddNamedProperty</text>
</a>
</g>
</g>
<!-- Node11&#45;&gt;Node12 -->
<g id="edge7" class="edge">
<title>Node11&#45;&gt;Node12</title>
<path fill="none" stroke="midnightblue" d="M428.55,-447.46C416.27,-447.57 403.93,-447.68 392.11,-447.79"/>
<polygon fill="midnightblue" stroke="midnightblue" points="428.87,-450.96 438.84,-447.37 428.81,-443.96 428.87,-450.96"/>
</g>
<!-- Node12&#45;&gt;Node6 -->
<g id="edge8" class="edge">
<title>Node12&#45;&gt;Node6</title>
<path fill="none" stroke="midnightblue" d="M237.79,-430.46C232.06,-428.6 226.4,-426.61 221,-424.5 178.84,-408.04 132.56,-381.36 109.06,-367.14"/>
<polygon fill="midnightblue" stroke="midnightblue" points="236.89,-433.85 247.48,-433.47 238.97,-427.16 236.89,-433.85"/>
</g>
<!-- Node14 -->
<g id="node10" class="node">
<title>Node14</title>
<g id="a_node10"><a xlink:href="classv8_1_1internal_1_1MapUpdater.html#a65be75fff70ffb063e04326adc452f45" target="_top" xlink:title=" ">
<polygon fill="white" stroke="red" points="243,-384.5 243,-414.5 381,-414.5 381,-384.5 243,-384.5"/>
<text text-anchor="start" x="251" y="-402.5" font-family="Helvetica,sans-Serif" font-size="10.00">v8::internal::MapUpdater</text>
<text text-anchor="middle" x="312" y="-391.5" font-family="Helvetica,sans-Serif" font-size="10.00">::ConstructNewMap</text>
</a>
</g>
</g>
<!-- Node13&#45;&gt;Node14 -->
<g id="edge10" class="edge">
<title>Node13&#45;&gt;Node14</title>
<path fill="none" stroke="midnightblue" d="M457.71,-392.36C432.72,-393.59 405.29,-394.95 381.09,-396.14"/>
<polygon fill="midnightblue" stroke="midnightblue" points="458.07,-395.85 467.88,-391.86 457.72,-388.86 458.07,-395.85"/>
</g>
<!-- Node55 -->
<g id="node12" class="node">
<title>Node55</title>
<g id="a_node12"><a xlink:href="namespacev8_1_1internal.html#a0c0b51a53ab143111194bbd83d310861" target="_top" xlink:title=" ">
<polygon fill="white" stroke="black" points="254,-346 254,-365 370,-365 370,-346 254,-346"/>
<text text-anchor="middle" x="312" y="-353" font-family="Helvetica,sans-Serif" font-size="10.00">v8::internal::BUILTIN</text>
</a>
</g>
</g>
<!-- Node54&#45;&gt;Node55 -->
<g id="edge12" class="edge">
<title>Node54&#45;&gt;Node55</title>
<path fill="none" stroke="midnightblue" d="M452.4,-341.75C425.04,-344.45 395.28,-347.38 370.31,-349.85"/>
<polygon fill="midnightblue" stroke="midnightblue" points="452.76,-345.23 462.36,-340.76 452.07,-338.26 452.76,-345.23"/>
</g>
<!-- Node56 -->
<g id="node13" class="node">
<title>Node56</title>
<g id="a_node13"><a xlink:href="classv8_1_1internal_1_1SharedStructTypeRegistry.html#a26060b82be16ffa4443cb7f907f91bdd" target="_top" xlink:title=" ">
<polygon fill="white" stroke="red" points="227.5,-296.5 227.5,-326.5 396.5,-326.5 396.5,-296.5 227.5,-296.5"/>
<text text-anchor="start" x="235.5" y="-314.5" font-family="Helvetica,sans-Serif" font-size="10.00">v8::internal::SharedStruct</text>
<text text-anchor="middle" x="312" y="-303.5" font-family="Helvetica,sans-Serif" font-size="10.00">TypeRegistry::RegisterNoThrow</text>
</a>
</g>
</g>
<!-- Node54&#45;&gt;Node56 -->
<g id="edge13" class="edge">
<title>Node54&#45;&gt;Node56</title>
<path fill="none" stroke="midnightblue" d="M452.36,-325.25C434.12,-323.45 414.82,-321.55 396.59,-319.75"/>
<polygon fill="midnightblue" stroke="midnightblue" points="452.07,-328.74 462.36,-326.24 452.76,-321.77 452.07,-328.74"/>
</g>
<!-- Node59 -->
<g id="node15" class="node">
<title>Node59</title>
<g id="a_node15"><a xlink:href="classv8_1_1internal_1_1DictionaryTemplateInfo.html#a6b806a3ba771087490a9649e941f4537" target="_top" xlink:title=" ">
<polygon fill="white" stroke="black" points="237.5,-208.5 237.5,-238.5 386.5,-238.5 386.5,-208.5 237.5,-208.5"/>
<text text-anchor="start" x="245.5" y="-226.5" font-family="Helvetica,sans-Serif" font-size="10.00">v8::internal::Dictionary</text>
<text text-anchor="middle" x="312" y="-215.5" font-family="Helvetica,sans-Serif" font-size="10.00">TemplateInfo::NewInstance</text>
</a>
</g>
</g>
<!-- Node58&#45;&gt;Node59 -->
<g id="edge15" class="edge">
<title>Node58&#45;&gt;Node59</title>
<path fill="none" stroke="midnightblue" d="M457.4,-192.42C433.17,-197.63 406.66,-203.34 383.04,-208.42"/>
<polygon fill="midnightblue" stroke="midnightblue" points="458.23,-195.82 467.27,-190.29 456.76,-188.98 458.23,-195.82"/>
</g>
<!-- Node61 -->
<g id="node17" class="node">
<title>Node61</title>
<g id="a_node17"><a xlink:href="classv8_1_1internal_1_1LookupIterator.html#a72676993e2fca438e90249c27396cc1b" target="_top" xlink:title=" ">
<polygon fill="white" stroke="black" points="221,-159.5 221,-189.5 403,-189.5 403,-159.5 221,-159.5"/>
<text text-anchor="start" x="229" y="-177.5" font-family="Helvetica,sans-Serif" font-size="10.00">v8::internal::LookupIterator</text>
<text text-anchor="middle" x="312" y="-166.5" font-family="Helvetica,sans-Serif" font-size="10.00">::PrepareTransitionToDataProperty</text>
</a>
</g>
</g>
<!-- Node58&#45;&gt;Node61 -->
<g id="edge17" class="edge">
<title>Node58&#45;&gt;Node61</title>
<path fill="none" stroke="midnightblue" d="M457.16,-175.15C439.72,-175.07 421.12,-174.98 403.27,-174.9"/>
<polygon fill="midnightblue" stroke="midnightblue" points="457.26,-178.65 467.27,-175.19 457.29,-171.65 457.26,-178.65"/>
</g>
<!-- Node60 -->
<g id="node16" class="node">
<title>Node60</title>
<g id="a_node16"><a xlink:href="classv8_1_1DictionaryTemplate.html#ad33ae441cd86af9ae9856e04a0ed192f" target="_top" xlink:title="Creates a new instance of this template.">
<polygon fill="white" stroke="black" points="27.5,-208.5 27.5,-238.5 157.5,-238.5 157.5,-208.5 27.5,-208.5"/>
<text text-anchor="start" x="35.5" y="-226.5" font-family="Helvetica,sans-Serif" font-size="10.00">v8::DictionaryTemplate</text>
<text text-anchor="middle" x="92.5" y="-215.5" font-family="Helvetica,sans-Serif" font-size="10.00">::NewInstance</text>
</a>
</g>
</g>
<!-- Node59&#45;&gt;Node60 -->
<g id="edge16" class="edge">
<title>Node59&#45;&gt;Node60</title>
<path fill="none" stroke="midnightblue" d="M227.22,-223.5C204.11,-223.5 179.4,-223.5 157.6,-223.5"/>
<polygon fill="midnightblue" stroke="midnightblue" points="227.36,-227 237.36,-223.5 227.36,-220 227.36,-227"/>
</g>
<!-- Node62 -->
<g id="node18" class="node">
<title>Node62</title>
<g id="a_node18"><a xlink:href="classv8_1_1internal_1_1StoreIC.html#a30cc8a121d0e99db5a1dd3708bfeb0e7" target="_top" xlink:title=" ">
<polygon fill="white" stroke="red" points="36,-80.5 36,-110.5 149,-110.5 149,-80.5 36,-80.5"/>
<text text-anchor="start" x="44" y="-98.5" font-family="Helvetica,sans-Serif" font-size="10.00">v8::internal::StoreIC</text>
<text text-anchor="middle" x="92.5" y="-87.5" font-family="Helvetica,sans-Serif" font-size="10.00">::LookupForWrite</text>
</a>
</g>
</g>
<!-- Node61&#45;&gt;Node62 -->
<g id="edge18" class="edge">
<title>Node61&#45;&gt;Node62</title>
<path fill="none" stroke="midnightblue" d="M242.59,-156.5C235.26,-154.28 227.95,-151.92 221,-149.5 187.98,-137.97 151.31,-122.11 125.8,-110.56"/>
<polygon fill="midnightblue" stroke="midnightblue" points="241.98,-159.97 252.56,-159.46 243.97,-153.26 241.98,-159.97"/>
</g>
<!-- Node70 -->
<g id="node19" class="node">
<title>Node70</title>
<g id="a_node19"><a xlink:href="classv8_1_1internal_1_1Object.html#a90f62fcfc68f42918c3a06a510871a32" target="_top" xlink:title=" ">
<polygon fill="white" stroke="red" points="3,-159.5 3,-189.5 182,-189.5 182,-159.5 3,-159.5"/>
<text text-anchor="start" x="11" y="-177.5" font-family="Helvetica,sans-Serif" font-size="10.00">v8::internal::Object</text>
<text text-anchor="middle" x="92.5" y="-166.5" font-family="Helvetica,sans-Serif" font-size="10.00">::TransitionAndWriteDataProperty</text>
</a>
</g>
</g>
<!-- Node61&#45;&gt;Node70 -->
<g id="edge19" class="edge">
<title>Node61&#45;&gt;Node70</title>
<path fill="none" stroke="midnightblue" d="M210.96,-174.5C201.32,-174.5 191.59,-174.5 182.07,-174.5"/>
<polygon fill="midnightblue" stroke="midnightblue" points="210.96,-178 220.96,-174.5 210.96,-171 210.96,-178"/>
</g>
<!-- Node1679&#45;&gt;Node1678 -->
<g id="edge22" class="edge">
<title>Node1679&#45;&gt;Node1678</title>
<path fill="none" stroke="midnightblue" d="M678.08,-235.5C663.4,-235.5 648.35,-235.5 633.8,-235.5"/>
<polygon fill="midnightblue" stroke="midnightblue" points="678.17,-239 688.17,-235.5 678.17,-232 678.17,-239"/>
</g>
<!-- Node1680&#45;&gt;Node58 -->
<g id="edge29" class="edge">
<title>Node1680&#45;&gt;Node58</title>
<path fill="none" stroke="midnightblue" d="M660.7,-158.77C642.15,-161.3 623.54,-163.84 606.63,-166.14"/>
<polygon fill="midnightblue" stroke="midnightblue" points="661.25,-162.23 670.68,-157.41 660.3,-155.29 661.25,-162.23"/>
</g>
<!-- Node1681 -->
<g id="node23" class="node">
<title>Node1681</title>
<g id="a_node23"><a xlink:href="classv8_1_1internal_1_1Map.html#a4b623960cae5d15c3eb2fd456ba3ce69" target="_top" xlink:title=" ">
<polygon fill="white" stroke="black" points="470,-77.5 470,-107.5 604,-107.5 604,-77.5 470,-77.5"/>
<text text-anchor="start" x="478" y="-95.5" font-family="Helvetica,sans-Serif" font-size="10.00">v8::internal::Map::</text>
<text text-anchor="middle" x="537" y="-84.5" font-family="Helvetica,sans-Serif" font-size="10.00">PrepareForDataProperty</text>
</a>
</g>
</g>
<!-- Node1680&#45;&gt;Node1681 -->
<g id="edge24" class="edge">
<title>Node1680&#45;&gt;Node1681</title>
<path fill="none" stroke="midnightblue" d="M670.53,-119.88C647.93,-115.21 624.79,-110.43 604.3,-106.2"/>
<polygon fill="midnightblue" stroke="midnightblue" points="670.02,-123.35 680.52,-121.95 671.44,-116.5 670.02,-123.35"/>
</g>
<!-- Node1682 -->
<g id="node24" class="node">
<title>Node1682</title>
<g id="a_node24"><a xlink:href="classv8_1_1internal_1_1LookupIterator.html#a78ea3b6c5a9a372b45571adf0596ec9f" target="_top" xlink:title=" ">
<polygon fill="white" stroke="red" points="237.5,-49.5 237.5,-79.5 386.5,-79.5 386.5,-49.5 237.5,-49.5"/>
<text text-anchor="start" x="245.5" y="-67.5" font-family="Helvetica,sans-Serif" font-size="10.00">v8::internal::LookupIterator</text>
<text text-anchor="middle" x="312" y="-56.5" font-family="Helvetica,sans-Serif" font-size="10.00">::PrepareForDataProperty</text>
</a>
</g>
</g>
<!-- Node1681&#45;&gt;Node1682 -->
<g id="edge25" class="edge">
<title>Node1681&#45;&gt;Node1682</title>
<path fill="none" stroke="midnightblue" d="M460,-82.96C436.29,-79.98 410.19,-76.7 386.64,-73.75"/>
<polygon fill="midnightblue" stroke="midnightblue" points="459.64,-86.44 470,-84.21 460.51,-79.49 459.64,-86.44"/>
</g>
<!-- Node1685 -->
<g id="node25" class="node">
<title>Node1685</title>
<g id="a_node25"><a xlink:href="classv8_1_1internal_1_1LookupIterator.html#a9b032333f7af05d6739e103f7ca32efb" target="_top" xlink:title=" ">
<polygon fill="white" stroke="red" points="237.5,-0.5 237.5,-30.5 386.5,-30.5 386.5,-0.5 237.5,-0.5"/>
<text text-anchor="start" x="245.5" y="-18.5" font-family="Helvetica,sans-Serif" font-size="10.00">v8::internal::LookupIterator</text>
<text text-anchor="middle" x="312" y="-7.5" font-family="Helvetica,sans-Serif" font-size="10.00">::ReconfigureDataProperty</text>
</a>
</g>
</g>
<!-- Node1681&#45;&gt;Node1685 -->
<g id="edge27" class="edge">
<title>Node1681&#45;&gt;Node1685</title>
<path fill="none" stroke="midnightblue" d="M491.96,-73.43C466.29,-62.69 433.13,-49.48 403,-39.5 393.48,-36.35 383.3,-33.31 373.32,-30.53"/>
<polygon fill="midnightblue" stroke="midnightblue" points="490.84,-76.75 501.41,-77.41 493.56,-70.3 490.84,-76.75"/>
</g>
<!-- Node1687 -->
<g id="node26" class="node">
<title>Node1687</title>
<g id="a_node26"><a xlink:href="namespacev8_1_1internal_1_1anonymous__namespace_02js-objects_8cc_03.html#a308093fc0b7e89344fdac2678eea06a6" target="_top" xlink:title=" ">
<polygon fill="white" stroke="red" points="231,-99 231,-140 393,-140 393,-99 231,-99"/>
<text text-anchor="start" x="239" y="-128" font-family="Helvetica,sans-Serif" font-size="10.00">v8::internal::anonymous</text>
<text text-anchor="start" x="239" y="-117" font-family="Helvetica,sans-Serif" font-size="10.00">_namespace{js&#45;objects</text>
<text text-anchor="middle" x="312" y="-106" font-family="Helvetica,sans-Serif" font-size="10.00">::cc}::TryFastAddDataProperty</text>
</a>
</g>
</g>
<!-- Node1681&#45;&gt;Node1687 -->
<g id="edge28" class="edge">
<title>Node1681&#45;&gt;Node1687</title>
<path fill="none" stroke="midnightblue" d="M459.92,-101.71C438.35,-104.32 414.82,-107.17 393.03,-109.81"/>
<polygon fill="midnightblue" stroke="midnightblue" points="460.49,-105.17 470,-100.49 459.65,-98.22 460.49,-105.17"/>
</g>
<!-- Node1682&#45;&gt;Node62 -->
<g id="edge26" class="edge">
<title>Node1682&#45;&gt;Node62</title>
<path fill="none" stroke="midnightblue" d="M227.44,-76.41C201.23,-80.15 172.96,-84.17 149.18,-87.56"/>
<polygon fill="midnightblue" stroke="midnightblue" points="227.96,-79.87 237.36,-75 226.97,-72.94 227.96,-79.87"/>
</g>
</g>
</svg>
