<?xml version="1.0" encoding="UTF-8" standalone="no"?>
<!DOCTYPE svg PUBLIC "-//W3C//DTD SVG 1.1//EN"
 "http://www.w3.org/Graphics/SVG/1.1/DTD/svg11.dtd">
<!-- Generated by graphviz version 2.43.0 (0)
 -->
<!-- Title: v8::internal::UnaryOperation::expression Pages: 1 -->
<!--zoomable 230 -->
<svg id="main" version="1.1" xmlns="http://www.w3.org/2000/svg" xmlns:xlink="http://www.w3.org/1999/xlink" xml:space="preserve" onload="init(evt)">
<style type="text/css"><![CDATA[
.edge:hover path { stroke: red; }
.edge:hover polygon { stroke: red; fill: red; }
]]></style>
<script type="text/javascript"><![CDATA[
var edges = document.getElementsByTagName('g');
if (edges && edges.length) {
  for (var i=0;i<edges.length;i++) {
    if (edges[i].id.substr(0,4)=='edge') {
      edges[i].setAttribute('class','edge');
    }
  }
}
]]></script>
        <defs>
                <circle id="rim" cx="0" cy="0" r="7"/>
                <circle id="rim2" cx="0" cy="0" r="3.5"/>
                <g id="zoomPlus">
                        <use xlink:href="#rim" fill="#404040">
                                <set attributeName="fill" to="#808080" begin="zoomplus.mouseover" end="zoomplus.mouseout"/>
                        </use>
                        <path d="M-4,0h8M0,-4v8" fill="none" stroke="white" stroke-width="1.5" pointer-events="none"/>
                </g>
                <g id="zoomMin">
                        <use xlink:href="#rim" fill="#404040">
                                <set attributeName="fill" to="#808080" begin="zoomminus.mouseover" end="zoomminus.mouseout"/>
                        </use>
                        <path d="M-4,0h8" fill="none" stroke="white" stroke-width="1.5" pointer-events="none"/>
                </g>
                <g id="dirArrow">
                        <path fill="none" stroke="white" stroke-width="1.5" d="M0,-3.0v7 M-2.5,-0.5L0,-3.0L2.5,-0.5"/>
                </g>
               <g id="resetDef">
                       <use xlink:href="#rim2" fill="#404040">
                               <set attributeName="fill" to="#808080" begin="reset.mouseover" end="reset.mouseout"/>
                       </use>
               </g>
        </defs>

<script type="text/javascript">
var viewWidth = 759;
var viewHeight = 230;
var sectionId = 'dynsection-3';
</script>
<script xlink:href="svgpan.js"/>
<svg id="graph" class="graph">
<g id="viewport">
<title>v8::internal::UnaryOperation::expression</title>
<polygon fill="white" stroke="transparent" points="-4,4 -4,-226 755,-226 755,4 -4,4"/>
<!-- Node1 -->
<g id="node1" class="node">
<title>Node1</title>
<g id="a_node1"><a xlink:title=" ">
<polygon fill="#bfbfbf" stroke="black" points="596,-98.5 596,-128.5 751,-128.5 751,-98.5 596,-98.5"/>
<text text-anchor="start" x="604" y="-116.5" font-family="Helvetica,sans-Serif" font-size="10.00">v8::internal::UnaryOperation</text>
<text text-anchor="middle" x="673.5" y="-105.5" font-family="Helvetica,sans-Serif" font-size="10.00">::expression</text>
</a>
</g>
</g>
<!-- Node2 -->
<g id="node2" class="node">
<title>Node2</title>
<g id="a_node2"><a xlink:href="namespacev8_1_1internal.html#a976f30cf2b81aba248d2091d1b69aca1" target="_top" xlink:title=" ">
<polygon fill="white" stroke="black" points="396,-197 396,-216 545,-216 545,-197 396,-197"/>
<text text-anchor="middle" x="470.5" y="-204" font-family="Helvetica,sans-Serif" font-size="10.00">v8::internal::IsVoidOfLiteral</text>
</a>
</g>
</g>
<!-- Node1&#45;&gt;Node2 -->
<g id="edge1" class="edge">
<title>Node1&#45;&gt;Node2</title>
<path fill="none" stroke="midnightblue" d="M646.11,-134.96C624.28,-151.66 591.79,-174.18 560,-187.5 550.87,-191.32 540.87,-194.42 530.99,-196.91"/>
<polygon fill="midnightblue" stroke="midnightblue" points="648.48,-137.55 654.22,-128.64 644.18,-132.03 648.48,-137.55"/>
</g>
<!-- Node5 -->
<g id="node5" class="node">
<title>Node5</title>
<g id="a_node5"><a xlink:href="classv8_1_1internal_1_1interpreter_1_1BytecodeGenerator.html#ab694e7c8d2cfd80987ba24f96092d054" target="_top" xlink:title=" ">
<polygon fill="white" stroke="black" points="382,-147.5 382,-177.5 559,-177.5 559,-147.5 382,-147.5"/>
<text text-anchor="start" x="390" y="-165.5" font-family="Helvetica,sans-Serif" font-size="10.00">v8::internal::interpreter</text>
<text text-anchor="middle" x="470.5" y="-154.5" font-family="Helvetica,sans-Serif" font-size="10.00">::BytecodeGenerator::VisitDelete</text>
</a>
</g>
</g>
<!-- Node1&#45;&gt;Node5 -->
<g id="edge4" class="edge">
<title>Node1&#45;&gt;Node5</title>
<path fill="none" stroke="midnightblue" d="M601.11,-130.9C578.87,-136.32 554.56,-142.25 533.06,-147.49"/>
<polygon fill="midnightblue" stroke="midnightblue" points="601.94,-134.3 610.83,-128.53 600.28,-127.5 601.94,-134.3"/>
</g>
<!-- Node6 -->
<g id="node6" class="node">
<title>Node6</title>
<g id="a_node6"><a xlink:href="classv8_1_1internal_1_1interpreter_1_1BytecodeGenerator.html#a02d541cf0ecbd44834b72971b6e52259" target="_top" xlink:title=" ">
<polygon fill="white" stroke="black" points="389.5,-98.5 389.5,-128.5 551.5,-128.5 551.5,-98.5 389.5,-98.5"/>
<text text-anchor="start" x="397.5" y="-116.5" font-family="Helvetica,sans-Serif" font-size="10.00">v8::internal::interpreter</text>
<text text-anchor="middle" x="470.5" y="-105.5" font-family="Helvetica,sans-Serif" font-size="10.00">::BytecodeGenerator::VisitNot</text>
</a>
</g>
</g>
<!-- Node1&#45;&gt;Node6 -->
<g id="edge5" class="edge">
<title>Node1&#45;&gt;Node6</title>
<path fill="none" stroke="midnightblue" d="M585.62,-113.5C574.29,-113.5 562.73,-113.5 551.52,-113.5"/>
<polygon fill="midnightblue" stroke="midnightblue" points="585.94,-117 595.94,-113.5 585.94,-110 585.94,-117"/>
</g>
<!-- Node7 -->
<g id="node7" class="node">
<title>Node7</title>
<g id="a_node7"><a xlink:href="classv8_1_1internal_1_1interpreter_1_1BytecodeGenerator.html#a76136383af4a654ff91f2bde6a11d4de" target="_top" xlink:title=" ">
<polygon fill="white" stroke="black" points="381,-49.5 381,-79.5 560,-79.5 560,-49.5 381,-49.5"/>
<text text-anchor="start" x="389" y="-67.5" font-family="Helvetica,sans-Serif" font-size="10.00">v8::internal::interpreter</text>
<text text-anchor="middle" x="470.5" y="-56.5" font-family="Helvetica,sans-Serif" font-size="10.00">::BytecodeGenerator::VisitTypeOf</text>
</a>
</g>
</g>
<!-- Node1&#45;&gt;Node7 -->
<g id="edge6" class="edge">
<title>Node1&#45;&gt;Node7</title>
<path fill="none" stroke="midnightblue" d="M601.11,-96.1C578.87,-90.68 554.56,-84.75 533.06,-79.51"/>
<polygon fill="midnightblue" stroke="midnightblue" points="600.28,-99.5 610.83,-98.47 601.94,-92.7 600.28,-99.5"/>
</g>
<!-- Node8 -->
<g id="node8" class="node">
<title>Node8</title>
<g id="a_node8"><a xlink:href="classv8_1_1internal_1_1interpreter_1_1BytecodeGenerator.html#aeb77ca1e7bf08d9ae07a6cd05df14dba" target="_top" xlink:title=" ">
<polygon fill="white" stroke="black" points="387.5,-0.5 387.5,-30.5 553.5,-30.5 553.5,-0.5 387.5,-0.5"/>
<text text-anchor="start" x="395.5" y="-18.5" font-family="Helvetica,sans-Serif" font-size="10.00">v8::internal::interpreter</text>
<text text-anchor="middle" x="470.5" y="-7.5" font-family="Helvetica,sans-Serif" font-size="10.00">::BytecodeGenerator::VisitVoid</text>
</a>
</g>
</g>
<!-- Node1&#45;&gt;Node8 -->
<g id="edge7" class="edge">
<title>Node1&#45;&gt;Node8</title>
<path fill="none" stroke="midnightblue" d="M645.04,-92.31C623.05,-76.2 590.89,-54.5 560,-40.5 551.71,-36.74 542.73,-33.42 533.76,-30.52"/>
<polygon fill="midnightblue" stroke="midnightblue" points="643.11,-95.24 653.22,-98.4 647.29,-89.62 643.11,-95.24"/>
</g>
<!-- Node3 -->
<g id="node3" class="node">
<title>Node3</title>
<g id="a_node3"><a xlink:href="namespacev8_1_1internal.html#a859d528c8b9763b9c154e29af7080cd0" target="_top" xlink:title=" ">
<polygon fill="white" stroke="black" points="206,-191.5 206,-221.5 345,-221.5 345,-191.5 206,-191.5"/>
<text text-anchor="start" x="214" y="-209.5" font-family="Helvetica,sans-Serif" font-size="10.00">v8::internal::MatchLiteral</text>
<text text-anchor="middle" x="275.5" y="-198.5" font-family="Helvetica,sans-Serif" font-size="10.00">CompareUndefined</text>
</a>
</g>
</g>
<!-- Node2&#45;&gt;Node3 -->
<g id="edge2" class="edge">
<title>Node2&#45;&gt;Node3</title>
<path fill="none" stroke="midnightblue" d="M385.69,-206.5C372.12,-206.5 358.2,-206.5 345.05,-206.5"/>
<polygon fill="midnightblue" stroke="midnightblue" points="385.98,-210 395.98,-206.5 385.98,-203 385.98,-210"/>
</g>
<!-- Node4 -->
<g id="node4" class="node">
<title>Node4</title>
<g id="a_node4"><a xlink:href="classv8_1_1internal_1_1CompareOperation.html#aab66b8096d3e5be49701799ac650529d" target="_top" xlink:title=" ">
<polygon fill="white" stroke="black" points="0,-191.5 0,-221.5 170,-221.5 170,-191.5 0,-191.5"/>
<text text-anchor="start" x="8" y="-209.5" font-family="Helvetica,sans-Serif" font-size="10.00">v8::internal::CompareOperation</text>
<text text-anchor="middle" x="85" y="-198.5" font-family="Helvetica,sans-Serif" font-size="10.00">::IsLiteralCompareUndefined</text>
</a>
</g>
</g>
<!-- Node3&#45;&gt;Node4 -->
<g id="edge3" class="edge">
<title>Node3&#45;&gt;Node4</title>
<path fill="none" stroke="midnightblue" d="M195.75,-206.5C187.33,-206.5 178.75,-206.5 170.27,-206.5"/>
<polygon fill="midnightblue" stroke="midnightblue" points="195.91,-210 205.91,-206.5 195.91,-203 195.91,-210"/>
</g>
</g>
</svg>
        <g id="navigator" transform="translate(0 0)" fill="#404254">
                <rect fill="#f2f5e9" fill-opacity="0.5" stroke="#606060" stroke-width=".5" x="0" y="0" width="60" height="60"/>
                <use id="zoomplus" xlink:href="#zoomPlus" x="17" y="9" onmousedown="handleZoom(evt,'in')"/>
                <use id="zoomminus" xlink:href="#zoomMin" x="42" y="9" onmousedown="handleZoom(evt,'out')"/>
                <use id="reset" xlink:href="#resetDef" x="30" y="36" onmousedown="handleReset()"/>
                <g id="arrowUp" xlink:href="#dirArrow" transform="translate(30 24)" onmousedown="handlePan(0,-1)">
                  <use xlink:href="#rim" fill="#404040">
                        <set attributeName="fill" to="#808080" begin="arrowUp.mouseover" end="arrowUp.mouseout"/>
                  </use>
                  <path fill="none" stroke="white" stroke-width="1.5" d="M0,-3.0v7 M-2.5,-0.5L0,-3.0L2.5,-0.5"/>
                </g>
                <g id="arrowRight" xlink:href="#dirArrow" transform="rotate(90) translate(36 -43)" onmousedown="handlePan(1,0)">
                  <use xlink:href="#rim" fill="#404040">
                        <set attributeName="fill" to="#808080" begin="arrowRight.mouseover" end="arrowRight.mouseout"/>
                  </use>
                  <path fill="none" stroke="white" stroke-width="1.5" d="M0,-3.0v7 M-2.5,-0.5L0,-3.0L2.5,-0.5"/>
                </g>
                <g id="arrowDown" xlink:href="#dirArrow" transform="rotate(180) translate(-30 -48)" onmousedown="handlePan(0,1)">
                  <use xlink:href="#rim" fill="#404040">
                        <set attributeName="fill" to="#808080" begin="arrowDown.mouseover" end="arrowDown.mouseout"/>
                  </use>
                  <path fill="none" stroke="white" stroke-width="1.5" d="M0,-3.0v7 M-2.5,-0.5L0,-3.0L2.5,-0.5"/>
                </g>
                <g id="arrowLeft" xlink:href="#dirArrow" transform="rotate(270) translate(-36 17)" onmousedown="handlePan(-1,0)">
                  <use xlink:href="#rim" fill="#404040">
                        <set attributeName="fill" to="#808080" begin="arrowLeft.mouseover" end="arrowLeft.mouseout"/>
                  </use>
                  <path fill="none" stroke="white" stroke-width="1.5" d="M0,-3.0v7 M-2.5,-0.5L0,-3.0L2.5,-0.5"/>
                </g>
        </g>
        <svg viewBox="0 0 15 15" width="100%" height="30px" preserveAspectRatio="xMaxYMin meet">
         <g id="arrow_out" transform="scale(0.3 0.3)">
          <a xlink:href="classv8_1_1internal_1_1UnaryOperation_a9cb9a4c9ec63fcb8c753e77f5a001d5f_icgraph_org.svg" target="_base">
           <rect id="button" ry="5" rx="5" y="6" x="6" height="38" width="38"
                fill="#f2f5e9" fill-opacity="0.5" stroke="#606060" stroke-width="1.0"/>
           <path id="arrow"
             d="M 11.500037,31.436501 C 11.940474,20.09759 22.043105,11.32322 32.158766,21.979434 L 37.068811,17.246167 C 37.068811,17.246167 37.088388,32 37.088388,32 L 22.160133,31.978069 C 22.160133,31.978069 26.997745,27.140456 26.997745,27.140456 C 18.528582,18.264221 13.291696,25.230495 11.500037,31.436501 z"
             style="fill:#404040;"/>
          </a>
         </g>
        </svg>
</svg>
