<?xml version="1.0" encoding="UTF-8" standalone="no"?>
<!DOCTYPE svg PUBLIC "-//W3C//DTD SVG 1.1//EN"
 "http://www.w3.org/Graphics/SVG/1.1/DTD/svg11.dtd">
<!-- Generated by graphviz version 2.43.0 (0)
 -->
<!-- Title: v8::internal::torque::TypeOracle::GetBoolType Pages: 1 -->
<svg width="660pt" height="122pt"
 viewBox="0.00 0.00 660.00 121.50" xmlns="http://www.w3.org/2000/svg" xmlns:xlink="http://www.w3.org/1999/xlink">
<g id="graph0" class="graph" transform="scale(1 1) rotate(0) translate(4 117.5)">
<title>v8::internal::torque::TypeOracle::GetBoolType</title>
<polygon fill="white" stroke="transparent" points="-4,4 -4,-117.5 656,-117.5 656,4 -4,4"/>
<!-- Node1 -->
<g id="node1" class="node">
<title>Node1</title>
<g id="a_node1"><a xlink:title=" ">
<polygon fill="#bfbfbf" stroke="black" points="508,-61 508,-91 652,-91 652,-61 508,-61"/>
<text text-anchor="start" x="516" y="-79" font-family="Helvetica,sans-Serif" font-size="10.00">v8::internal::torque</text>
<text text-anchor="middle" x="580" y="-68" font-family="Helvetica,sans-Serif" font-size="10.00">::TypeOracle::GetBoolType</text>
</a>
</g>
</g>
<!-- Node2 -->
<g id="node2" class="node">
<title>Node2</title>
<g id="a_node2"><a xlink:href="classv8_1_1internal_1_1torque_1_1TypeVisitor.html#a468d68e600b0e5ee96dbba41b816f634" target="_top" xlink:title=" ">
<polygon fill="white" stroke="black" points="0,-83 0,-113 149,-113 149,-83 0,-83"/>
<text text-anchor="start" x="8" y="-101" font-family="Helvetica,sans-Serif" font-size="10.00">v8::internal::torque</text>
<text text-anchor="middle" x="74.5" y="-90" font-family="Helvetica,sans-Serif" font-size="10.00">::TypeVisitor::ComputeType</text>
</a>
</g>
</g>
<!-- Node1&#45;&gt;Node2 -->
<g id="edge1" class="edge">
<title>Node1&#45;&gt;Node2</title>
<path fill="none" stroke="midnightblue" d="M512.67,-93.26C499.3,-96.06 485.27,-98.53 472,-100 359.96,-112.41 229.03,-108.13 149.21,-103.43"/>
<polygon fill="midnightblue" stroke="midnightblue" points="513.73,-96.61 522.75,-91.06 512.24,-89.77 513.73,-96.61"/>
</g>
<!-- Node3 -->
<g id="node3" class="node">
<title>Node3</title>
<g id="a_node3"><a xlink:href="namespacev8_1_1internal_1_1torque.html#a8c38d57c3e2a70b0a3984b1255fd37d6" target="_top" xlink:title=" ">
<polygon fill="white" stroke="black" points="348,-61 348,-91 464,-91 464,-61 348,-61"/>
<text text-anchor="start" x="356" y="-79" font-family="Helvetica,sans-Serif" font-size="10.00">v8::internal::torque</text>
<text text-anchor="middle" x="406" y="-68" font-family="Helvetica,sans-Serif" font-size="10.00">::Is32BitIntegralType</text>
</a>
</g>
</g>
<!-- Node1&#45;&gt;Node3 -->
<g id="edge2" class="edge">
<title>Node1&#45;&gt;Node3</title>
<path fill="none" stroke="midnightblue" d="M497.29,-76C486.06,-76 474.74,-76 464.09,-76"/>
<polygon fill="midnightblue" stroke="midnightblue" points="497.55,-79.5 507.55,-76 497.55,-72.5 497.55,-79.5"/>
</g>
<!-- Node5 -->
<g id="node5" class="node">
<title>Node5</title>
<g id="a_node5"><a xlink:href="classv8_1_1internal_1_1torque_1_1ImplementationVisitor.html#aef144eb48b4ec09f43c051d73731172f" target="_top" xlink:title=" ">
<polygon fill="white" stroke="black" points="340,-0.5 340,-41.5 472,-41.5 472,-0.5 340,-0.5"/>
<text text-anchor="start" x="348" y="-29.5" font-family="Helvetica,sans-Serif" font-size="10.00">v8::internal::torque</text>
<text text-anchor="start" x="348" y="-18.5" font-family="Helvetica,sans-Serif" font-size="10.00">::ImplementationVisitor</text>
<text text-anchor="middle" x="406" y="-7.5" font-family="Helvetica,sans-Serif" font-size="10.00">::Visit</text>
</a>
</g>
</g>
<!-- Node1&#45;&gt;Node5 -->
<g id="edge5" class="edge">
<title>Node1&#45;&gt;Node5</title>
<path fill="none" stroke="midnightblue" d="M522.11,-57.81C505.85,-52.61 488.02,-46.91 471.35,-41.58"/>
<polygon fill="midnightblue" stroke="midnightblue" points="521.41,-61.26 532,-60.97 523.54,-54.59 521.41,-61.26"/>
</g>
<!-- Node4 -->
<g id="node4" class="node">
<title>Node4</title>
<g id="a_node4"><a xlink:href="namespacev8_1_1internal_1_1torque.html#a9ee3258a79a193e1cc1132de1a334942" target="_top" xlink:title=" ">
<polygon fill="white" stroke="black" points="185,-61 185,-91 304,-91 304,-61 185,-61"/>
<text text-anchor="start" x="193" y="-79" font-family="Helvetica,sans-Serif" font-size="10.00">v8::internal::torque</text>
<text text-anchor="middle" x="244.5" y="-68" font-family="Helvetica,sans-Serif" font-size="10.00">::IsAllowedAsBitField</text>
</a>
</g>
</g>
<!-- Node3&#45;&gt;Node4 -->
<g id="edge3" class="edge">
<title>Node3&#45;&gt;Node4</title>
<path fill="none" stroke="midnightblue" d="M337.73,-76C326.56,-76 315.05,-76 304.11,-76"/>
<polygon fill="midnightblue" stroke="midnightblue" points="337.87,-79.5 347.87,-76 337.87,-72.5 337.87,-79.5"/>
</g>
<!-- Node4&#45;&gt;Node2 -->
<g id="edge4" class="edge">
<title>Node4&#45;&gt;Node2</title>
<path fill="none" stroke="midnightblue" d="M174.66,-85.01C166.3,-86.11 157.72,-87.23 149.29,-88.34"/>
<polygon fill="midnightblue" stroke="midnightblue" points="175.28,-88.46 184.74,-83.69 174.37,-81.52 175.28,-88.46"/>
</g>
</g>
</svg>
