<?xml version="1.0" encoding="UTF-8" standalone="no"?>
<!DOCTYPE svg PUBLIC "-//W3C//DTD SVG 1.1//EN"
 "http://www.w3.org/Graphics/SVG/1.1/DTD/svg11.dtd">
<!-- Generated by graphviz version 2.43.0 (0)
 -->
<!-- Title: v8::internal::compiler::SimplifiedOperatorBuilder::CheckEqualsInternalizedString Pages: 1 -->
<svg width="797pt" height="170pt"
 viewBox="0.00 0.00 797.00 170.00" xmlns="http://www.w3.org/2000/svg" xmlns:xlink="http://www.w3.org/1999/xlink">
<g id="graph0" class="graph" transform="scale(1 1) rotate(0) translate(4 166)">
<title>v8::internal::compiler::SimplifiedOperatorBuilder::CheckEqualsInternalizedString</title>
<polygon fill="white" stroke="transparent" points="-4,4 -4,-166 793,-166 793,4 -4,4"/>
<!-- Node1 -->
<g id="node1" class="node">
<title>Node1</title>
<g id="a_node1"><a xlink:title=" ">
<polygon fill="#bfbfbf" stroke="black" points="618,-29.5 618,-70.5 789,-70.5 789,-29.5 618,-29.5"/>
<text text-anchor="start" x="626" y="-58.5" font-family="Helvetica,sans-Serif" font-size="10.00">v8::internal::compiler</text>
<text text-anchor="start" x="626" y="-47.5" font-family="Helvetica,sans-Serif" font-size="10.00">::SimplifiedOperatorBuilder</text>
<text text-anchor="middle" x="703.5" y="-36.5" font-family="Helvetica,sans-Serif" font-size="10.00">::CheckEqualsInternalizedString</text>
</a>
</g>
</g>
<!-- Node2 -->
<g id="node2" class="node">
<title>Node2</title>
<g id="a_node2"><a xlink:href="classv8_1_1internal_1_1compiler_1_1JSNativeContextSpecialization.html#a34ea0928484fc864b22cfbfbff860878" target="_top" xlink:title=" ">
<polygon fill="white" stroke="black" points="412,-29.5 412,-70.5 582,-70.5 582,-29.5 412,-29.5"/>
<text text-anchor="start" x="420" y="-58.5" font-family="Helvetica,sans-Serif" font-size="10.00">v8::internal::compiler</text>
<text text-anchor="start" x="420" y="-47.5" font-family="Helvetica,sans-Serif" font-size="10.00">::JSNativeContextSpecialization</text>
<text text-anchor="middle" x="497" y="-36.5" font-family="Helvetica,sans-Serif" font-size="10.00">::BuildCheckEqualsName</text>
</a>
</g>
</g>
<!-- Node1&#45;&gt;Node2 -->
<g id="edge1" class="edge">
<title>Node1&#45;&gt;Node2</title>
<path fill="none" stroke="midnightblue" d="M607.59,-50C599.13,-50 590.61,-50 582.26,-50"/>
<polygon fill="midnightblue" stroke="midnightblue" points="607.85,-53.5 617.85,-50 607.85,-46.5 607.85,-53.5"/>
</g>
<!-- Node3 -->
<g id="node3" class="node">
<title>Node3</title>
<g id="a_node3"><a xlink:href="classv8_1_1internal_1_1compiler_1_1JSNativeContextSpecialization.html#aecf1b84f4a6b6c6661be23ad5ffab993" target="_top" xlink:title=" ">
<polygon fill="white" stroke="black" points="206,-57.5 206,-98.5 376,-98.5 376,-57.5 206,-57.5"/>
<text text-anchor="start" x="214" y="-86.5" font-family="Helvetica,sans-Serif" font-size="10.00">v8::internal::compiler</text>
<text text-anchor="start" x="214" y="-75.5" font-family="Helvetica,sans-Serif" font-size="10.00">::JSNativeContextSpecialization</text>
<text text-anchor="middle" x="291" y="-64.5" font-family="Helvetica,sans-Serif" font-size="10.00">::ReduceGlobalAccess</text>
</a>
</g>
</g>
<!-- Node2&#45;&gt;Node3 -->
<g id="edge2" class="edge">
<title>Node2&#45;&gt;Node3</title>
<path fill="none" stroke="midnightblue" d="M401.88,-62.92C393.34,-64.09 384.73,-65.27 376.29,-66.43"/>
<polygon fill="midnightblue" stroke="midnightblue" points="402.42,-66.38 411.85,-61.55 401.46,-59.44 402.42,-66.38"/>
</g>
<!-- Node7 -->
<g id="node6" class="node">
<title>Node7</title>
<g id="a_node6"><a xlink:href="classv8_1_1internal_1_1compiler_1_1JSNativeContextSpecialization.html#a0a29cda1a9a6efb232eb544e32fa31f5" target="_top" xlink:title=" ">
<polygon fill="white" stroke="red" points="0,-0.5 0,-41.5 170,-41.5 170,-0.5 0,-0.5"/>
<text text-anchor="start" x="8" y="-29.5" font-family="Helvetica,sans-Serif" font-size="10.00">v8::internal::compiler</text>
<text text-anchor="start" x="8" y="-18.5" font-family="Helvetica,sans-Serif" font-size="10.00">::JSNativeContextSpecialization</text>
<text text-anchor="middle" x="85" y="-7.5" font-family="Helvetica,sans-Serif" font-size="10.00">::ReduceNamedAccess</text>
</a>
</g>
</g>
<!-- Node2&#45;&gt;Node7 -->
<g id="edge6" class="edge">
<title>Node2&#45;&gt;Node7</title>
<path fill="none" stroke="midnightblue" d="M401.43,-43.31C331.66,-38.38 237.57,-31.72 170.35,-26.97"/>
<polygon fill="midnightblue" stroke="midnightblue" points="401.32,-46.81 411.54,-44.03 401.82,-39.83 401.32,-46.81"/>
</g>
<!-- Node4 -->
<g id="node4" class="node">
<title>Node4</title>
<g id="a_node4"><a xlink:href="classv8_1_1internal_1_1compiler_1_1JSNativeContextSpecialization.html#a2c5fc027481f30d6417a160d988b4fab" target="_top" xlink:title=" ">
<polygon fill="white" stroke="red" points="0,-120.5 0,-161.5 170,-161.5 170,-120.5 0,-120.5"/>
<text text-anchor="start" x="8" y="-149.5" font-family="Helvetica,sans-Serif" font-size="10.00">v8::internal::compiler</text>
<text text-anchor="start" x="8" y="-138.5" font-family="Helvetica,sans-Serif" font-size="10.00">::JSNativeContextSpecialization</text>
<text text-anchor="middle" x="85" y="-127.5" font-family="Helvetica,sans-Serif" font-size="10.00">::ReduceJSLoadGlobal</text>
</a>
</g>
</g>
<!-- Node3&#45;&gt;Node4 -->
<g id="edge3" class="edge">
<title>Node3&#45;&gt;Node4</title>
<path fill="none" stroke="midnightblue" d="M213.73,-101.56C193.58,-107.78 172,-114.44 152.42,-120.49"/>
<polygon fill="midnightblue" stroke="midnightblue" points="214.96,-104.84 223.49,-98.54 212.9,-98.15 214.96,-104.84"/>
</g>
<!-- Node6 -->
<g id="node5" class="node">
<title>Node6</title>
<g id="a_node5"><a xlink:href="classv8_1_1internal_1_1compiler_1_1JSNativeContextSpecialization.html#a5e9c0502c1259f7bea4ded210b54ad21" target="_top" xlink:title=" ">
<polygon fill="white" stroke="red" points="0,-60.5 0,-101.5 170,-101.5 170,-60.5 0,-60.5"/>
<text text-anchor="start" x="8" y="-89.5" font-family="Helvetica,sans-Serif" font-size="10.00">v8::internal::compiler</text>
<text text-anchor="start" x="8" y="-78.5" font-family="Helvetica,sans-Serif" font-size="10.00">::JSNativeContextSpecialization</text>
<text text-anchor="middle" x="85" y="-67.5" font-family="Helvetica,sans-Serif" font-size="10.00">::ReduceJSStoreGlobal</text>
</a>
</g>
</g>
<!-- Node3&#45;&gt;Node6 -->
<g id="edge4" class="edge">
<title>Node3&#45;&gt;Node6</title>
<path fill="none" stroke="midnightblue" d="M195.6,-79.39C187.15,-79.51 178.64,-79.64 170.29,-79.76"/>
<polygon fill="midnightblue" stroke="midnightblue" points="195.9,-82.88 205.85,-79.24 195.8,-75.89 195.9,-82.88"/>
</g>
<!-- Node3&#45;&gt;Node7 -->
<g id="edge5" class="edge">
<title>Node3&#45;&gt;Node7</title>
<path fill="none" stroke="midnightblue" d="M206.71,-54.73C191.08,-50.36 174.85,-45.82 159.54,-41.55"/>
<polygon fill="midnightblue" stroke="midnightblue" points="205.78,-58.1 216.35,-57.42 207.66,-51.36 205.78,-58.1"/>
</g>
</g>
</svg>
