<?xml version="1.0" encoding="UTF-8" standalone="no"?>
<!DOCTYPE svg PUBLIC "-//W3C//DTD SVG 1.1//EN"
 "http://www.w3.org/Graphics/SVG/1.1/DTD/svg11.dtd">
<!-- Generated by graphviz version 2.43.0 (0)
 -->
<!-- Title: v8::internal::torque::cpp::File Pages: 1 -->
<svg width="434pt" height="513pt"
 viewBox="0.00 0.00 433.50 513.00" xmlns="http://www.w3.org/2000/svg" xmlns:xlink="http://www.w3.org/1999/xlink">
<g id="graph0" class="graph" transform="scale(1 1) rotate(0) translate(4 509)">
<title>v8::internal::torque::cpp::File</title>
<polygon fill="white" stroke="transparent" points="-4,4 -4,-509 429.5,-509 429.5,4 -4,4"/>
<!-- Node1 -->
<g id="node1" class="node">
<title>Node1</title>
<g id="a_node1"><a xlink:title=" ">
<polygon fill="#bfbfbf" stroke="black" points="156.5,-0.5 156.5,-167.5 284.5,-167.5 284.5,-0.5 156.5,-0.5"/>
<text text-anchor="start" x="164.5" y="-155.5" font-family="Helvetica,sans-Serif" font-size="10.00">v8::internal::torque</text>
<text text-anchor="middle" x="220.5" y="-144.5" font-family="Helvetica,sans-Serif" font-size="10.00">::cpp::File</text>
<polyline fill="none" stroke="black" points="156.5,-137.5 284.5,-137.5 "/>
<text text-anchor="middle" x="220.5" y="-125.5" font-family="Helvetica,sans-Serif" font-size="10.00"> </text>
<polyline fill="none" stroke="black" points="156.5,-118.5 284.5,-118.5 "/>
<text text-anchor="start" x="164.5" y="-106.5" font-family="Helvetica,sans-Serif" font-size="10.00">+ File()</text>
<text text-anchor="start" x="164.5" y="-95.5" font-family="Helvetica,sans-Serif" font-size="10.00">+ BeginIncludeGuard()</text>
<text text-anchor="start" x="164.5" y="-84.5" font-family="Helvetica,sans-Serif" font-size="10.00">+ EndIncludeGuard()</text>
<text text-anchor="start" x="164.5" y="-73.5" font-family="Helvetica,sans-Serif" font-size="10.00">+ BeginNamespace()</text>
<text text-anchor="start" x="164.5" y="-62.5" font-family="Helvetica,sans-Serif" font-size="10.00">+ BeginNamespace()</text>
<text text-anchor="start" x="164.5" y="-51.5" font-family="Helvetica,sans-Serif" font-size="10.00">+ EndNamespace()</text>
<text text-anchor="start" x="164.5" y="-40.5" font-family="Helvetica,sans-Serif" font-size="10.00">+ EndNamespace()</text>
<text text-anchor="start" x="164.5" y="-29.5" font-family="Helvetica,sans-Serif" font-size="10.00">+ AddInclude()</text>
<text text-anchor="start" x="164.5" y="-18.5" font-family="Helvetica,sans-Serif" font-size="10.00">+ operator&lt;&lt;()</text>
<text text-anchor="start" x="164.5" y="-7.5" font-family="Helvetica,sans-Serif" font-size="10.00"># s()</text>
</a>
</g>
</g>
<!-- Node2 -->
<g id="node2" class="node">
<title>Node2</title>
<g id="a_node2"><a xlink:title=" ">
<polygon fill="white" stroke="#bfbfbf" points="0,-215.5 0,-272.5 135,-272.5 135,-215.5 0,-215.5"/>
<text text-anchor="middle" x="67.5" y="-260.5" font-family="Helvetica,sans-Serif" font-size="10.00">std::stack&lt; std::string &gt;</text>
<polyline fill="none" stroke="#bfbfbf" points="0,-253.5 135,-253.5 "/>
<text text-anchor="start" x="8" y="-241.5" font-family="Helvetica,sans-Serif" font-size="10.00">+ elements</text>
<polyline fill="none" stroke="#bfbfbf" points="0,-234.5 135,-234.5 "/>
<text text-anchor="middle" x="67.5" y="-222.5" font-family="Helvetica,sans-Serif" font-size="10.00"> </text>
</a>
</g>
</g>
<!-- Node2&#45;&gt;Node1 -->
<g id="edge1" class="edge">
<title>Node2&#45;&gt;Node1</title>
<path fill="none" stroke="#404040" d="M94.15,-215.48C109.14,-200 128.65,-179.85 147.85,-160.03"/>
<polygon fill="none" stroke="#404040" points="147.98,-159.89 149.28,-152.8 156.33,-151.27 155.03,-158.36 147.98,-159.89"/>
<text text-anchor="middle" x="158.5" y="-189" font-family="Helvetica,sans-Serif" font-size="10.00"> &#45;namespaces_</text>
</g>
<!-- Node3 -->
<g id="node3" class="node">
<title>Node3</title>
<g id="a_node3"><a xlink:title=" ">
<polygon fill="white" stroke="#bfbfbf" points="12.5,-326 12.5,-383 104.5,-383 104.5,-326 12.5,-326"/>
<text text-anchor="middle" x="58.5" y="-371" font-family="Helvetica,sans-Serif" font-size="10.00">std::stack&lt; T &gt;</text>
<polyline fill="none" stroke="#bfbfbf" points="12.5,-364 104.5,-364 "/>
<text text-anchor="middle" x="58.5" y="-352" font-family="Helvetica,sans-Serif" font-size="10.00"> </text>
<polyline fill="none" stroke="#bfbfbf" points="12.5,-345 104.5,-345 "/>
<text text-anchor="middle" x="58.5" y="-333" font-family="Helvetica,sans-Serif" font-size="10.00"> </text>
</a>
</g>
</g>
<!-- Node3&#45;&gt;Node2 -->
<g id="edge2" class="edge">
<title>Node3&#45;&gt;Node2</title>
<path fill="none" stroke="orange" d="M61.62,-315.85C62.8,-301.64 64.12,-285.74 65.21,-272.61"/>
<polygon fill="orange" stroke="orange" points="58.13,-315.58 60.79,-325.84 65.11,-316.16 58.13,-315.58"/>
<text text-anchor="middle" x="102" y="-294" font-family="Helvetica,sans-Serif" font-size="10.00"> &lt; std::string &gt;</text>
</g>
<!-- Node4 -->
<g id="node4" class="node">
<title>Node4</title>
<g id="a_node4"><a xlink:title=" ">
<polygon fill="white" stroke="#bfbfbf" points="44,-442 44,-499 73,-499 73,-442 44,-442"/>
<text text-anchor="middle" x="58.5" y="-487" font-family="Helvetica,sans-Serif" font-size="10.00">T</text>
<polyline fill="none" stroke="#bfbfbf" points="44,-480 73,-480 "/>
<text text-anchor="middle" x="58.5" y="-468" font-family="Helvetica,sans-Serif" font-size="10.00"> </text>
<polyline fill="none" stroke="#bfbfbf" points="44,-461 73,-461 "/>
<text text-anchor="middle" x="58.5" y="-449" font-family="Helvetica,sans-Serif" font-size="10.00"> </text>
</a>
</g>
</g>
<!-- Node4&#45;&gt;Node3 -->
<g id="edge3" class="edge">
<title>Node4&#45;&gt;Node3</title>
<path fill="none" stroke="#404040" d="M58.5,-441.9C58.5,-428 58.5,-410.89 58.5,-395.57"/>
<polygon fill="none" stroke="#404040" points="58.5,-395.24 54.5,-389.24 58.5,-383.24 62.5,-389.24 58.5,-395.24"/>
<text text-anchor="middle" x="87.5" y="-410" font-family="Helvetica,sans-Serif" font-size="10.00"> +elements</text>
</g>
<!-- Node5 -->
<g id="node5" class="node">
<title>Node5</title>
<g id="a_node5"><a xlink:title=" ">
<polygon fill="white" stroke="#bfbfbf" points="158.5,-215.5 158.5,-272.5 282.5,-272.5 282.5,-215.5 158.5,-215.5"/>
<text text-anchor="middle" x="220.5" y="-260.5" font-family="Helvetica,sans-Serif" font-size="10.00">std::set&lt; std::string &gt;</text>
<polyline fill="none" stroke="#bfbfbf" points="158.5,-253.5 282.5,-253.5 "/>
<text text-anchor="middle" x="220.5" y="-241.5" font-family="Helvetica,sans-Serif" font-size="10.00"> </text>
<polyline fill="none" stroke="#bfbfbf" points="158.5,-234.5 282.5,-234.5 "/>
<text text-anchor="middle" x="220.5" y="-222.5" font-family="Helvetica,sans-Serif" font-size="10.00"> </text>
</a>
</g>
</g>
<!-- Node5&#45;&gt;Node1 -->
<g id="edge4" class="edge">
<title>Node5&#45;&gt;Node1</title>
<path fill="none" stroke="#404040" d="M220.5,-215.48C220.5,-205.12 220.5,-192.67 220.5,-179.63"/>
<polygon fill="none" stroke="#404040" points="220.5,-179.54 216.5,-173.54 220.5,-167.54 224.5,-173.54 220.5,-179.54"/>
<text text-anchor="middle" x="247" y="-189" font-family="Helvetica,sans-Serif" font-size="10.00"> &#45;includes_</text>
</g>
<!-- Node6 -->
<g id="node6" class="node">
<title>Node6</title>
<g id="a_node6"><a xlink:title=" ">
<polygon fill="white" stroke="#bfbfbf" points="123,-326 123,-383 188,-383 188,-326 123,-326"/>
<text text-anchor="middle" x="155.5" y="-371" font-family="Helvetica,sans-Serif" font-size="10.00">std::string</text>
<polyline fill="none" stroke="#bfbfbf" points="123,-364 188,-364 "/>
<text text-anchor="middle" x="155.5" y="-352" font-family="Helvetica,sans-Serif" font-size="10.00"> </text>
<polyline fill="none" stroke="#bfbfbf" points="123,-345 188,-345 "/>
<text text-anchor="middle" x="155.5" y="-333" font-family="Helvetica,sans-Serif" font-size="10.00"> </text>
</a>
</g>
</g>
<!-- Node6&#45;&gt;Node5 -->
<g id="edge5" class="edge">
<title>Node6&#45;&gt;Node5</title>
<path fill="none" stroke="#404040" d="M172.07,-325.84C179.86,-312.83 189.28,-297.11 197.73,-283.01"/>
<polygon fill="none" stroke="#404040" points="197.79,-282.9 197.44,-275.7 203.96,-272.61 204.31,-279.81 197.79,-282.9"/>
<text text-anchor="middle" x="209.5" y="-294" font-family="Helvetica,sans-Serif" font-size="10.00"> +keys</text>
</g>
<!-- Node7 -->
<g id="node7" class="node">
<title>Node7</title>
<g id="a_node7"><a xlink:title=" ">
<polygon fill="white" stroke="#bfbfbf" points="103.5,-436.5 103.5,-504.5 207.5,-504.5 207.5,-436.5 103.5,-436.5"/>
<text text-anchor="start" x="111.5" y="-492.5" font-family="Helvetica,sans-Serif" font-size="10.00">std::basic_string&lt;</text>
<text text-anchor="middle" x="155.5" y="-481.5" font-family="Helvetica,sans-Serif" font-size="10.00"> Char &gt;</text>
<polyline fill="none" stroke="#bfbfbf" points="103.5,-474.5 207.5,-474.5 "/>
<text text-anchor="middle" x="155.5" y="-462.5" font-family="Helvetica,sans-Serif" font-size="10.00"> </text>
<polyline fill="none" stroke="#bfbfbf" points="103.5,-455.5 207.5,-455.5 "/>
<text text-anchor="middle" x="155.5" y="-443.5" font-family="Helvetica,sans-Serif" font-size="10.00"> </text>
</a>
</g>
</g>
<!-- Node7&#45;&gt;Node6 -->
<g id="edge6" class="edge">
<title>Node7&#45;&gt;Node6</title>
<path fill="none" stroke="midnightblue" d="M155.5,-426.03C155.5,-411.67 155.5,-396.1 155.5,-383.24"/>
<polygon fill="none" stroke="midnightblue" points="152,-426.22 155.5,-436.22 159,-426.22 152,-426.22"/>
</g>
<!-- Node8 -->
<g id="node8" class="node">
<title>Node8</title>
<g id="a_node8"><a xlink:title=" ">
<polygon fill="white" stroke="#bfbfbf" points="206.5,-326 206.5,-383 288.5,-383 288.5,-326 206.5,-326"/>
<text text-anchor="middle" x="247.5" y="-371" font-family="Helvetica,sans-Serif" font-size="10.00">std::set&lt; K &gt;</text>
<polyline fill="none" stroke="#bfbfbf" points="206.5,-364 288.5,-364 "/>
<text text-anchor="middle" x="247.5" y="-352" font-family="Helvetica,sans-Serif" font-size="10.00"> </text>
<polyline fill="none" stroke="#bfbfbf" points="206.5,-345 288.5,-345 "/>
<text text-anchor="middle" x="247.5" y="-333" font-family="Helvetica,sans-Serif" font-size="10.00"> </text>
</a>
</g>
</g>
<!-- Node8&#45;&gt;Node5 -->
<g id="edge7" class="edge">
<title>Node8&#45;&gt;Node5</title>
<path fill="none" stroke="orange" d="M238.13,-315.85C234.59,-301.64 230.64,-285.74 227.37,-272.61"/>
<polygon fill="orange" stroke="orange" points="234.81,-316.98 240.62,-325.84 241.6,-315.29 234.81,-316.98"/>
<text text-anchor="middle" x="272" y="-294" font-family="Helvetica,sans-Serif" font-size="10.00"> &lt; std::string &gt;</text>
</g>
<!-- Node9 -->
<g id="node9" class="node">
<title>Node9</title>
<g id="a_node9"><a xlink:title=" ">
<polygon fill="white" stroke="#bfbfbf" points="233,-442 233,-499 262,-499 262,-442 233,-442"/>
<text text-anchor="middle" x="247.5" y="-487" font-family="Helvetica,sans-Serif" font-size="10.00">K</text>
<polyline fill="none" stroke="#bfbfbf" points="233,-480 262,-480 "/>
<text text-anchor="middle" x="247.5" y="-468" font-family="Helvetica,sans-Serif" font-size="10.00"> </text>
<polyline fill="none" stroke="#bfbfbf" points="233,-461 262,-461 "/>
<text text-anchor="middle" x="247.5" y="-449" font-family="Helvetica,sans-Serif" font-size="10.00"> </text>
</a>
</g>
</g>
<!-- Node9&#45;&gt;Node8 -->
<g id="edge8" class="edge">
<title>Node9&#45;&gt;Node8</title>
<path fill="none" stroke="#404040" d="M247.5,-441.9C247.5,-428 247.5,-410.89 247.5,-395.57"/>
<polygon fill="none" stroke="#404040" points="247.5,-395.24 243.5,-389.24 247.5,-383.24 251.5,-389.24 247.5,-395.24"/>
<text text-anchor="middle" x="264.5" y="-410" font-family="Helvetica,sans-Serif" font-size="10.00"> +keys</text>
</g>
<!-- Node10 -->
<g id="node10" class="node">
<title>Node10</title>
<g id="a_node10"><a xlink:title=" ">
<polygon fill="white" stroke="#bfbfbf" points="302.5,-215.5 302.5,-272.5 380.5,-272.5 380.5,-215.5 302.5,-215.5"/>
<text text-anchor="middle" x="341.5" y="-260.5" font-family="Helvetica,sans-Serif" font-size="10.00">std::ostream</text>
<polyline fill="none" stroke="#bfbfbf" points="302.5,-253.5 380.5,-253.5 "/>
<text text-anchor="middle" x="341.5" y="-241.5" font-family="Helvetica,sans-Serif" font-size="10.00"> </text>
<polyline fill="none" stroke="#bfbfbf" points="302.5,-234.5 380.5,-234.5 "/>
<text text-anchor="middle" x="341.5" y="-222.5" font-family="Helvetica,sans-Serif" font-size="10.00"> </text>
</a>
</g>
</g>
<!-- Node10&#45;&gt;Node1 -->
<g id="edge9" class="edge">
<title>Node10&#45;&gt;Node1</title>
<path fill="none" stroke="#404040" d="M320.42,-215.48C312.01,-204.49 301.79,-191.14 291.13,-177.23"/>
<polygon fill="none" stroke="#404040" points="291,-177.06 284.18,-174.73 283.71,-167.54 290.53,-169.87 291,-177.06"/>
<text text-anchor="middle" x="330" y="-189" font-family="Helvetica,sans-Serif" font-size="10.00"> &#45;stream_</text>
</g>
<!-- Node11 -->
<g id="node11" class="node">
<title>Node11</title>
<g id="a_node11"><a xlink:title=" ">
<polygon fill="white" stroke="#bfbfbf" points="307,-320.5 307,-388.5 416,-388.5 416,-320.5 307,-320.5"/>
<text text-anchor="start" x="315" y="-376.5" font-family="Helvetica,sans-Serif" font-size="10.00">std::basic_ostream</text>
<text text-anchor="middle" x="361.5" y="-365.5" font-family="Helvetica,sans-Serif" font-size="10.00">&lt; Char &gt;</text>
<polyline fill="none" stroke="#bfbfbf" points="307,-358.5 416,-358.5 "/>
<text text-anchor="middle" x="361.5" y="-346.5" font-family="Helvetica,sans-Serif" font-size="10.00"> </text>
<polyline fill="none" stroke="#bfbfbf" points="307,-339.5 416,-339.5 "/>
<text text-anchor="middle" x="361.5" y="-327.5" font-family="Helvetica,sans-Serif" font-size="10.00"> </text>
</a>
</g>
</g>
<!-- Node11&#45;&gt;Node10 -->
<g id="edge10" class="edge">
<title>Node11&#45;&gt;Node10</title>
<path fill="none" stroke="midnightblue" d="M353.56,-310.44C351.23,-297.78 348.74,-284.27 346.63,-272.83"/>
<polygon fill="none" stroke="midnightblue" points="350.14,-311.16 355.39,-320.36 357.02,-309.89 350.14,-311.16"/>
</g>
<!-- Node12 -->
<g id="node12" class="node">
<title>Node12</title>
<g id="a_node12"><a xlink:title=" ">
<polygon fill="white" stroke="#bfbfbf" points="297.5,-442 297.5,-499 425.5,-499 425.5,-442 297.5,-442"/>
<text text-anchor="middle" x="361.5" y="-487" font-family="Helvetica,sans-Serif" font-size="10.00">std::basic_ios&lt; Char &gt;</text>
<polyline fill="none" stroke="#bfbfbf" points="297.5,-480 425.5,-480 "/>
<text text-anchor="middle" x="361.5" y="-468" font-family="Helvetica,sans-Serif" font-size="10.00"> </text>
<polyline fill="none" stroke="#bfbfbf" points="297.5,-461 425.5,-461 "/>
<text text-anchor="middle" x="361.5" y="-449" font-family="Helvetica,sans-Serif" font-size="10.00"> </text>
</a>
</g>
</g>
<!-- Node12&#45;&gt;Node11 -->
<g id="edge11" class="edge">
<title>Node12&#45;&gt;Node11</title>
<path fill="none" stroke="midnightblue" d="M361.5,-431.64C361.5,-417.69 361.5,-402.01 361.5,-388.52"/>
<polygon fill="none" stroke="midnightblue" points="358,-431.9 361.5,-441.9 365,-431.9 358,-431.9"/>
</g>
</g>
</svg>
