<?xml version="1.0" encoding="UTF-8" standalone="no"?>
<!DOCTYPE svg PUBLIC "-//W3C//DTD SVG 1.1//EN"
 "http://www.w3.org/Graphics/SVG/1.1/DTD/svg11.dtd">
<!-- Generated by graphviz version 2.43.0 (0)
 -->
<!-- Title: v8::internal::compiler::Node::IsDead Pages: 1 -->
<!--zoomable 942 -->
<svg id="main" version="1.1" xmlns="http://www.w3.org/2000/svg" xmlns:xlink="http://www.w3.org/1999/xlink" xml:space="preserve" onload="init(evt)">
<style type="text/css"><![CDATA[
.edge:hover path { stroke: red; }
.edge:hover polygon { stroke: red; fill: red; }
]]></style>
<script type="text/javascript"><![CDATA[
var edges = document.getElementsByTagName('g');
if (edges && edges.length) {
  for (var i=0;i<edges.length;i++) {
    if (edges[i].id.substr(0,4)=='edge') {
      edges[i].setAttribute('class','edge');
    }
  }
}
]]></script>
        <defs>
                <circle id="rim" cx="0" cy="0" r="7"/>
                <circle id="rim2" cx="0" cy="0" r="3.5"/>
                <g id="zoomPlus">
                        <use xlink:href="#rim" fill="#404040">
                                <set attributeName="fill" to="#808080" begin="zoomplus.mouseover" end="zoomplus.mouseout"/>
                        </use>
                        <path d="M-4,0h8M0,-4v8" fill="none" stroke="white" stroke-width="1.5" pointer-events="none"/>
                </g>
                <g id="zoomMin">
                        <use xlink:href="#rim" fill="#404040">
                                <set attributeName="fill" to="#808080" begin="zoomminus.mouseover" end="zoomminus.mouseout"/>
                        </use>
                        <path d="M-4,0h8" fill="none" stroke="white" stroke-width="1.5" pointer-events="none"/>
                </g>
                <g id="dirArrow">
                        <path fill="none" stroke="white" stroke-width="1.5" d="M0,-3.0v7 M-2.5,-0.5L0,-3.0L2.5,-0.5"/>
                </g>
               <g id="resetDef">
                       <use xlink:href="#rim2" fill="#404040">
                               <set attributeName="fill" to="#808080" begin="reset.mouseover" end="reset.mouseout"/>
                       </use>
               </g>
        </defs>

<script type="text/javascript">
var viewWidth = 818;
var viewHeight = 942;
var sectionId = 'dynsection-33';
</script>
<script xlink:href="svgpan.js"/>
<svg id="graph" class="graph">
<g id="viewport">
<title>v8::internal::compiler::Node::IsDead</title>
<polygon fill="white" stroke="transparent" points="-4,4 -4,-937.5 814,-937.5 814,4 -4,4"/>
<!-- Node1 -->
<g id="node1" class="node">
<title>Node1</title>
<g id="a_node1"><a xlink:title=" ">
<polygon fill="#bfbfbf" stroke="black" points="689,-413.5 689,-443.5 810,-443.5 810,-413.5 689,-413.5"/>
<text text-anchor="start" x="697" y="-431.5" font-family="Helvetica,sans-Serif" font-size="10.00">v8::internal::compiler</text>
<text text-anchor="middle" x="749.5" y="-420.5" font-family="Helvetica,sans-Serif" font-size="10.00">::Node::IsDead</text>
</a>
</g>
</g>
<!-- Node2 -->
<g id="node2" class="node">
<title>Node2</title>
<g id="a_node2"><a xlink:href="classv8_1_1internal_1_1compiler_1_1JSInliningHeuristic.html#aa74c825a3782aa899312b7ea57d74e85" target="_top" xlink:title=" ">
<polygon fill="white" stroke="black" points="497.5,-868 497.5,-909 618.5,-909 618.5,-868 497.5,-868"/>
<text text-anchor="start" x="505.5" y="-897" font-family="Helvetica,sans-Serif" font-size="10.00">v8::internal::compiler</text>
<text text-anchor="start" x="505.5" y="-886" font-family="Helvetica,sans-Serif" font-size="10.00">::JSInliningHeuristic</text>
<text text-anchor="middle" x="558" y="-875" font-family="Helvetica,sans-Serif" font-size="10.00">::Finalize</text>
</a>
</g>
</g>
<!-- Node1&#45;&gt;Node2 -->
<g id="edge1" class="edge">
<title>Node1&#45;&gt;Node2</title>
<path fill="none" stroke="midnightblue" d="M746.19,-453.55C738.08,-536.12 708.41,-797.85 653,-858.5 643.87,-868.49 631.43,-875.17 618.58,-879.64"/>
<polygon fill="midnightblue" stroke="midnightblue" points="749.67,-453.84 747.15,-443.55 742.71,-453.17 749.67,-453.84"/>
</g>
<!-- Node3 -->
<g id="node3" class="node">
<title>Node3</title>
<g id="a_node3"><a xlink:href="classv8_1_1internal_1_1compiler_1_1LateEscapeAnalysis.html#a05393c3548d911bdfcf8912d34d34d11" target="_top" xlink:title=" ">
<polygon fill="white" stroke="black" points="495.5,-808 495.5,-849 620.5,-849 620.5,-808 495.5,-808"/>
<text text-anchor="start" x="503.5" y="-837" font-family="Helvetica,sans-Serif" font-size="10.00">v8::internal::compiler</text>
<text text-anchor="start" x="503.5" y="-826" font-family="Helvetica,sans-Serif" font-size="10.00">::LateEscapeAnalysis::</text>
<text text-anchor="middle" x="558" y="-815" font-family="Helvetica,sans-Serif" font-size="10.00">Finalize</text>
</a>
</g>
</g>
<!-- Node1&#45;&gt;Node3 -->
<g id="edge2" class="edge">
<title>Node1&#45;&gt;Node3</title>
<path fill="none" stroke="midnightblue" d="M745.23,-453.43C734.97,-528.03 701.21,-747.49 653,-798.5 644.29,-807.71 632.76,-814.11 620.77,-818.54"/>
<polygon fill="midnightblue" stroke="midnightblue" points="748.7,-453.89 746.57,-443.51 741.76,-452.95 748.7,-453.89"/>
</g>
<!-- Node4 -->
<g id="node4" class="node">
<title>Node4</title>
<g id="a_node4"><a xlink:href="classv8_1_1internal_1_1compiler_1_1ValueNumberingReducer.html#a326c22e597d0f404b75f0ebd41d7b2f0" target="_top" xlink:title=" ">
<polygon fill="white" stroke="black" points="470.5,-758.5 470.5,-788.5 645.5,-788.5 645.5,-758.5 470.5,-758.5"/>
<text text-anchor="start" x="478.5" y="-776.5" font-family="Helvetica,sans-Serif" font-size="10.00">v8::internal::compiler</text>
<text text-anchor="middle" x="558" y="-765.5" font-family="Helvetica,sans-Serif" font-size="10.00">::ValueNumberingReducer::Grow</text>
</a>
</g>
</g>
<!-- Node1&#45;&gt;Node4 -->
<g id="edge3" class="edge">
<title>Node1&#45;&gt;Node4</title>
<path fill="none" stroke="midnightblue" d="M748.85,-453.67C748.27,-513.97 738.03,-667.74 653,-749.5 649.48,-752.89 645.55,-755.81 641.35,-758.34"/>
<polygon fill="midnightblue" stroke="midnightblue" points="752.35,-453.54 748.87,-443.54 745.35,-453.53 752.35,-453.54"/>
</g>
<!-- Node5 -->
<g id="node5" class="node">
<title>Node5</title>
<g id="a_node5"><a xlink:href="namespacev8_1_1internal_1_1compiler_1_1anonymous__namespace_02load-elimination_8cc_03.html#a287bcf87a75175398da1ba4cfd4035d2" target="_top" xlink:title=" ">
<polygon fill="white" stroke="black" points="487.5,-687.5 487.5,-739.5 628.5,-739.5 628.5,-687.5 487.5,-687.5"/>
<text text-anchor="start" x="495.5" y="-727.5" font-family="Helvetica,sans-Serif" font-size="10.00">v8::internal::compiler</text>
<text text-anchor="start" x="495.5" y="-716.5" font-family="Helvetica,sans-Serif" font-size="10.00">::anonymous_namespace</text>
<text text-anchor="start" x="495.5" y="-705.5" font-family="Helvetica,sans-Serif" font-size="10.00">{load&#45;elimination::cc}</text>
<text text-anchor="middle" x="558" y="-694.5" font-family="Helvetica,sans-Serif" font-size="10.00">::IsRename</text>
</a>
</g>
</g>
<!-- Node1&#45;&gt;Node5 -->
<g id="edge4" class="edge">
<title>Node1&#45;&gt;Node5</title>
<path fill="none" stroke="midnightblue" d="M745.7,-453.99C738.91,-503.84 717.11,-614.93 653,-678.5 646.08,-685.37 637.68,-690.9 628.79,-695.36"/>
<polygon fill="midnightblue" stroke="midnightblue" points="749.21,-454.13 747,-443.77 742.27,-453.25 749.21,-454.13"/>
</g>
<!-- Node28 -->
<g id="node12" class="node">
<title>Node28</title>
<g id="a_node12"><a xlink:href="classv8_1_1internal_1_1compiler_1_1GraphTrimmer.html#ae0f9ea06634a87d05a82446a2dcdb4b4" target="_top" xlink:title=" ">
<polygon fill="white" stroke="black" points="480.5,-638.5 480.5,-668.5 635.5,-668.5 635.5,-638.5 480.5,-638.5"/>
<text text-anchor="start" x="488.5" y="-656.5" font-family="Helvetica,sans-Serif" font-size="10.00">v8::internal::compiler</text>
<text text-anchor="middle" x="558" y="-645.5" font-family="Helvetica,sans-Serif" font-size="10.00">::GraphTrimmer::MarkAsLive</text>
</a>
</g>
</g>
<!-- Node1&#45;&gt;Node28 -->
<g id="edge11" class="edge">
<title>Node1&#45;&gt;Node28</title>
<path fill="none" stroke="midnightblue" d="M743.66,-453.52C734.09,-496.04 708.69,-582.29 653,-628.5 647.8,-632.81 641.93,-636.39 635.73,-639.35"/>
<polygon fill="midnightblue" stroke="midnightblue" points="747.09,-454.21 745.76,-443.7 740.24,-452.75 747.09,-454.21"/>
</g>
<!-- Node33 -->
<g id="node17" class="node">
<title>Node33</title>
<g id="a_node17"><a xlink:href="classv8_1_1internal_1_1compiler_1_1LoadElimination_1_1AbstractField.html#ab2e20d7530f444a9031bf38d0781515b" target="_top" xlink:title=" ">
<polygon fill="white" stroke="black" points="472.5,-578 472.5,-619 643.5,-619 643.5,-578 472.5,-578"/>
<text text-anchor="start" x="480.5" y="-607" font-family="Helvetica,sans-Serif" font-size="10.00">v8::internal::compiler</text>
<text text-anchor="start" x="480.5" y="-596" font-family="Helvetica,sans-Serif" font-size="10.00">::LoadElimination::AbstractField</text>
<text text-anchor="middle" x="558" y="-585" font-family="Helvetica,sans-Serif" font-size="10.00">::Merge</text>
</a>
</g>
</g>
<!-- Node1&#45;&gt;Node33 -->
<g id="edge16" class="edge">
<title>Node1&#45;&gt;Node33</title>
<path fill="none" stroke="midnightblue" d="M738.05,-452.89C723.47,-484.13 694.08,-537.88 653,-568.5 648.33,-571.98 643.24,-575.07 637.93,-577.8"/>
<polygon fill="midnightblue" stroke="midnightblue" points="741.33,-454.15 742.27,-443.6 734.95,-451.26 741.33,-454.15"/>
</g>
<!-- Node35 -->
<g id="node19" class="node">
<title>Node35</title>
<g id="a_node19"><a xlink:href="classv8_1_1internal_1_1compiler_1_1ValueNumberingReducer.html#a3f49dd1deee724ec21fce3cd9c38b38a" target="_top" xlink:title=" ">
<polygon fill="white" stroke="black" points="486.5,-518 486.5,-559 629.5,-559 629.5,-518 486.5,-518"/>
<text text-anchor="start" x="494.5" y="-547" font-family="Helvetica,sans-Serif" font-size="10.00">v8::internal::compiler</text>
<text text-anchor="start" x="494.5" y="-536" font-family="Helvetica,sans-Serif" font-size="10.00">::ValueNumberingReducer</text>
<text text-anchor="middle" x="558" y="-525" font-family="Helvetica,sans-Serif" font-size="10.00">::Reduce</text>
</a>
</g>
</g>
<!-- Node1&#45;&gt;Node35 -->
<g id="edge18" class="edge">
<title>Node1&#45;&gt;Node35</title>
<path fill="none" stroke="midnightblue" d="M727.1,-450.69C708.86,-468.49 681.19,-492.99 653,-508.5 645.65,-512.55 637.66,-516.14 629.56,-519.32"/>
<polygon fill="midnightblue" stroke="midnightblue" points="729.69,-453.05 734.31,-443.52 724.76,-448.09 729.69,-453.05"/>
</g>
<!-- Node14 -->
<g id="node20" class="node">
<title>Node14</title>
<g id="a_node20"><a xlink:href="classv8_1_1internal_1_1compiler_1_1LoadElimination.html#afed2ba6da8b0c401cba5c1cd561b4d51" target="_top" xlink:title=" ">
<polygon fill="white" stroke="red" points="463,-468.5 463,-498.5 653,-498.5 653,-468.5 463,-468.5"/>
<text text-anchor="start" x="471" y="-486.5" font-family="Helvetica,sans-Serif" font-size="10.00">v8::internal::compiler</text>
<text text-anchor="middle" x="558" y="-475.5" font-family="Helvetica,sans-Serif" font-size="10.00">::LoadElimination::ReduceLoadField</text>
</a>
</g>
</g>
<!-- Node1&#45;&gt;Node14 -->
<g id="edge19" class="edge">
<title>Node1&#45;&gt;Node14</title>
<path fill="none" stroke="midnightblue" d="M692.32,-446.6C679.43,-450.63 665.77,-454.8 653,-458.5 641.4,-461.86 628.95,-465.3 617.03,-468.5"/>
<polygon fill="midnightblue" stroke="midnightblue" points="693.5,-449.9 701.99,-443.56 691.41,-443.22 693.5,-449.9"/>
</g>
<!-- Node36 -->
<g id="node21" class="node">
<title>Node36</title>
<g id="a_node21"><a xlink:href="classv8_1_1internal_1_1compiler_1_1CsaLoadElimination.html#a248d528b1e59bb60082be1db274d4298" target="_top" xlink:title=" ">
<polygon fill="white" stroke="black" points="492,-408 492,-449 624,-449 624,-408 492,-408"/>
<text text-anchor="start" x="500" y="-437" font-family="Helvetica,sans-Serif" font-size="10.00">v8::internal::compiler</text>
<text text-anchor="start" x="500" y="-426" font-family="Helvetica,sans-Serif" font-size="10.00">::CsaLoadElimination::</text>
<text text-anchor="middle" x="558" y="-415" font-family="Helvetica,sans-Serif" font-size="10.00">ReduceLoadFromObject</text>
</a>
</g>
</g>
<!-- Node1&#45;&gt;Node36 -->
<g id="edge20" class="edge">
<title>Node1&#45;&gt;Node36</title>
<path fill="none" stroke="midnightblue" d="M678.52,-428.5C660.79,-428.5 641.81,-428.5 624.32,-428.5"/>
<polygon fill="midnightblue" stroke="midnightblue" points="678.8,-432 688.8,-428.5 678.8,-425 678.8,-432"/>
</g>
<!-- Node38 -->
<g id="node23" class="node">
<title>Node38</title>
<g id="a_node23"><a xlink:href="classv8_1_1internal_1_1compiler_1_1WasmLoadElimination.html#ac66304107d0017cf85c852d92741c6d0" target="_top" xlink:title=" ">
<polygon fill="white" stroke="black" points="468.5,-222 468.5,-263 647.5,-263 647.5,-222 468.5,-222"/>
<text text-anchor="start" x="476.5" y="-251" font-family="Helvetica,sans-Serif" font-size="10.00">v8::internal::compiler</text>
<text text-anchor="start" x="476.5" y="-240" font-family="Helvetica,sans-Serif" font-size="10.00">::WasmLoadElimination</text>
<text text-anchor="middle" x="558" y="-229" font-family="Helvetica,sans-Serif" font-size="10.00">::ReduceLoadLikeFromImmutable</text>
</a>
</g>
</g>
<!-- Node1&#45;&gt;Node38 -->
<g id="edge22" class="edge">
<title>Node1&#45;&gt;Node38</title>
<path fill="none" stroke="midnightblue" d="M738.94,-403.96C724.87,-370.85 695.57,-312.04 653,-277.5 646.1,-271.9 638.22,-267.15 630.03,-263.12"/>
<polygon fill="midnightblue" stroke="midnightblue" points="735.77,-405.45 742.82,-413.36 742.24,-402.78 735.77,-405.45"/>
</g>
<!-- Node43 -->
<g id="node28" class="node">
<title>Node43</title>
<g id="a_node28"><a xlink:href="classv8_1_1internal_1_1compiler_1_1WasmLoadElimination.html#a1aa7314eb860926fbfc9777793cd412c" target="_top" xlink:title=" ">
<polygon fill="white" stroke="black" points="221.5,-345 221.5,-386 421.5,-386 421.5,-345 221.5,-345"/>
<text text-anchor="start" x="229.5" y="-374" font-family="Helvetica,sans-Serif" font-size="10.00">v8::internal::compiler</text>
<text text-anchor="start" x="229.5" y="-363" font-family="Helvetica,sans-Serif" font-size="10.00">::WasmLoadElimination</text>
<text text-anchor="middle" x="321.5" y="-352" font-family="Helvetica,sans-Serif" font-size="10.00">::ReduceStringPrepareForGetCodeunit</text>
</a>
</g>
</g>
<!-- Node1&#45;&gt;Node43 -->
<g id="edge29" class="edge">
<title>Node1&#45;&gt;Node43</title>
<path fill="none" stroke="midnightblue" d="M729.35,-405.56C711.76,-386.44 683.82,-360.6 653,-349.5 571.11,-320.02 470.4,-331.04 401.82,-344.94"/>
<polygon fill="midnightblue" stroke="midnightblue" points="726.96,-408.14 736.23,-413.28 732.19,-403.49 726.96,-408.14"/>
</g>
<!-- Node44 -->
<g id="node29" class="node">
<title>Node44</title>
<g id="a_node29"><a xlink:href="classv8_1_1internal_1_1compiler_1_1GraphReducer.html#a4a0f9062fa936af64e1ccec21a9039c2" target="_top" xlink:title=" ">
<polygon fill="white" stroke="black" points="483,-123.5 483,-153.5 633,-153.5 633,-123.5 483,-123.5"/>
<text text-anchor="start" x="491" y="-141.5" font-family="Helvetica,sans-Serif" font-size="10.00">v8::internal::compiler</text>
<text text-anchor="middle" x="558" y="-130.5" font-family="Helvetica,sans-Serif" font-size="10.00">::GraphReducer::ReduceTop</text>
</a>
</g>
</g>
<!-- Node1&#45;&gt;Node44 -->
<g id="edge31" class="edge">
<title>Node1&#45;&gt;Node44</title>
<path fill="none" stroke="midnightblue" d="M746.93,-403.13C742.27,-350.43 723.98,-228.63 653,-163.5 647.28,-158.25 640.57,-154.08 633.43,-150.77"/>
<polygon fill="midnightblue" stroke="midnightblue" points="743.46,-403.59 747.73,-413.28 750.43,-403.04 743.46,-403.59"/>
</g>
<!-- Node54 -->
<g id="node32" class="node">
<title>Node54</title>
<g id="a_node32"><a xlink:href="classv8_1_1internal_1_1compiler_1_1WasmLoadElimination.html#a2f9b5f7d37997ab995e7055a3305cbad" target="_top" xlink:title=" ">
<polygon fill="white" stroke="black" points="254.5,-285 254.5,-326 388.5,-326 388.5,-285 254.5,-285"/>
<text text-anchor="start" x="262.5" y="-314" font-family="Helvetica,sans-Serif" font-size="10.00">v8::internal::compiler</text>
<text text-anchor="start" x="262.5" y="-303" font-family="Helvetica,sans-Serif" font-size="10.00">::WasmLoadElimination</text>
<text text-anchor="middle" x="321.5" y="-292" font-family="Helvetica,sans-Serif" font-size="10.00">::ReduceWasmStructGet</text>
</a>
</g>
</g>
<!-- Node1&#45;&gt;Node54 -->
<g id="edge34" class="edge">
<title>Node1&#45;&gt;Node54</title>
<path fill="none" stroke="midnightblue" d="M734.05,-404.65C717.75,-380.18 688.79,-343.39 653,-326.5 568.51,-286.63 458.11,-288.92 388.74,-295.9"/>
<polygon fill="midnightblue" stroke="midnightblue" points="731.31,-406.85 739.67,-413.35 737.19,-403.05 731.31,-406.85"/>
</g>
<!-- Node55 -->
<g id="node33" class="node">
<title>Node55</title>
<g id="a_node33"><a xlink:href="classv8_1_1internal_1_1compiler_1_1GraphReducer.html#a8954ce4fc9f4ef7c3260ec54c71b943f" target="_top" xlink:title=" ">
<polygon fill="white" stroke="black" points="465,-172.5 465,-202.5 651,-202.5 651,-172.5 465,-172.5"/>
<text text-anchor="start" x="473" y="-190.5" font-family="Helvetica,sans-Serif" font-size="10.00">v8::internal::compiler</text>
<text text-anchor="middle" x="558" y="-179.5" font-family="Helvetica,sans-Serif" font-size="10.00">::GraphReducer::ReplaceWithValue</text>
</a>
</g>
</g>
<!-- Node1&#45;&gt;Node55 -->
<g id="edge36" class="edge">
<title>Node1&#45;&gt;Node55</title>
<path fill="none" stroke="midnightblue" d="M744.58,-403.15C736.22,-357.89 712.32,-263.2 653,-212.5 648.51,-208.66 643.49,-205.4 638.16,-202.64"/>
<polygon fill="midnightblue" stroke="midnightblue" points="741.18,-404.03 746.34,-413.28 748.08,-402.83 741.18,-404.03"/>
</g>
<!-- Node56 -->
<g id="node34" class="node">
<title>Node56</title>
<g id="a_node34"><a xlink:href="namespacev8_1_1internal_1_1compiler_1_1anonymous__namespace_02typed-optimization_8cc_03.html#aa9d77ab5696df4ca3359c9c797133d4b" target="_top" xlink:title=" ">
<polygon fill="white" stroke="black" points="477,-0.5 477,-52.5 639,-52.5 639,-0.5 477,-0.5"/>
<text text-anchor="start" x="485" y="-40.5" font-family="Helvetica,sans-Serif" font-size="10.00">v8::internal::compiler</text>
<text text-anchor="start" x="485" y="-29.5" font-family="Helvetica,sans-Serif" font-size="10.00">::anonymous_namespace</text>
<text text-anchor="start" x="485" y="-18.5" font-family="Helvetica,sans-Serif" font-size="10.00">{typed&#45;optimization::cc}</text>
<text text-anchor="middle" x="558" y="-7.5" font-family="Helvetica,sans-Serif" font-size="10.00">::ResolveSameValueRenames</text>
</a>
</g>
</g>
<!-- Node1&#45;&gt;Node56 -->
<g id="edge37" class="edge">
<title>Node1&#45;&gt;Node56</title>
<path fill="none" stroke="midnightblue" d="M749.1,-403.13C749.24,-338.6 740.88,-166.23 653,-65.5 648.82,-60.71 643.95,-56.49 638.68,-52.78"/>
<polygon fill="midnightblue" stroke="midnightblue" points="745.6,-403.18 749,-413.21 752.6,-403.25 745.6,-403.18"/>
</g>
<!-- Node59 -->
<g id="node37" class="node">
<title>Node59</title>
<g id="a_node37"><a xlink:href="classv8_1_1internal_1_1compiler_1_1GraphTrimmer.html#ab9e55dcb8d7e33ff7d9d5b3019165dc3" target="_top" xlink:title=" ">
<polygon fill="white" stroke="black" points="483.5,-74.5 483.5,-104.5 632.5,-104.5 632.5,-74.5 483.5,-74.5"/>
<text text-anchor="start" x="491.5" y="-92.5" font-family="Helvetica,sans-Serif" font-size="10.00">v8::internal::compiler</text>
<text text-anchor="middle" x="558" y="-81.5" font-family="Helvetica,sans-Serif" font-size="10.00">::GraphTrimmer::TrimGraph</text>
</a>
</g>
</g>
<!-- Node1&#45;&gt;Node59 -->
<g id="edge40" class="edge">
<title>Node1&#45;&gt;Node59</title>
<path fill="none" stroke="midnightblue" d="M748.6,-403.14C747.39,-343.7 735.8,-194.43 653,-114.5 647.17,-108.87 640.22,-104.47 632.78,-101.04"/>
<polygon fill="midnightblue" stroke="midnightblue" points="745.1,-403.51 748.72,-413.46 752.1,-403.42 745.1,-403.51"/>
</g>
<!-- Node60 -->
<g id="node38" class="node">
<title>Node60</title>
<g id="a_node38"><a xlink:href="classv8_1_1internal_1_1compiler_1_1MemoryOptimizer.html#a3fb781ccb149f701fb0f0425c4749a13" target="_top" xlink:title=" ">
<polygon fill="white" stroke="black" points="476,-358.5 476,-388.5 640,-388.5 640,-358.5 476,-358.5"/>
<text text-anchor="start" x="484" y="-376.5" font-family="Helvetica,sans-Serif" font-size="10.00">v8::internal::compiler</text>
<text text-anchor="middle" x="558" y="-365.5" font-family="Helvetica,sans-Serif" font-size="10.00">::MemoryOptimizer::VisitNode</text>
</a>
</g>
</g>
<!-- Node1&#45;&gt;Node60 -->
<g id="edge41" class="edge">
<title>Node1&#45;&gt;Node60</title>
<path fill="none" stroke="midnightblue" d="M692.32,-410.4C679.43,-406.37 665.77,-402.2 653,-398.5 641.4,-395.14 628.95,-391.7 617.03,-388.5"/>
<polygon fill="midnightblue" stroke="midnightblue" points="691.41,-413.78 701.99,-413.44 693.5,-407.1 691.41,-413.78"/>
</g>
<!-- Node6 -->
<g id="node6" class="node">
<title>Node6</title>
<g id="a_node6"><a xlink:href="namespacev8_1_1internal_1_1compiler_1_1anonymous__namespace_02load-elimination_8cc_03.html#afb6d07838914cc87b4ecc17733059a28" target="_top" xlink:title=" ">
<polygon fill="white" stroke="black" points="251,-687.5 251,-739.5 392,-739.5 392,-687.5 251,-687.5"/>
<text text-anchor="start" x="259" y="-727.5" font-family="Helvetica,sans-Serif" font-size="10.00">v8::internal::compiler</text>
<text text-anchor="start" x="259" y="-716.5" font-family="Helvetica,sans-Serif" font-size="10.00">::anonymous_namespace</text>
<text text-anchor="start" x="259" y="-705.5" font-family="Helvetica,sans-Serif" font-size="10.00">{load&#45;elimination::cc}</text>
<text text-anchor="middle" x="321.5" y="-694.5" font-family="Helvetica,sans-Serif" font-size="10.00">::MayAlias</text>
</a>
</g>
</g>
<!-- Node5&#45;&gt;Node6 -->
<g id="edge5" class="edge">
<title>Node5&#45;&gt;Node6</title>
<path fill="none" stroke="midnightblue" d="M477.28,-713.5C449.72,-713.5 419.07,-713.5 392.36,-713.5"/>
<polygon fill="midnightblue" stroke="midnightblue" points="477.28,-717 487.28,-713.5 477.28,-710 477.28,-717"/>
</g>
<!-- Node7 -->
<g id="node7" class="node">
<title>Node7</title>
<g id="a_node7"><a xlink:href="namespacev8_1_1internal_1_1compiler_1_1anonymous__namespace_02load-elimination_8cc_03.html#ab71ec6965db10749b52459c66604f892" target="_top" xlink:title=" ">
<polygon fill="white" stroke="black" points="251,-758.5 251,-810.5 392,-810.5 392,-758.5 251,-758.5"/>
<text text-anchor="start" x="259" y="-798.5" font-family="Helvetica,sans-Serif" font-size="10.00">v8::internal::compiler</text>
<text text-anchor="start" x="259" y="-787.5" font-family="Helvetica,sans-Serif" font-size="10.00">::anonymous_namespace</text>
<text text-anchor="start" x="259" y="-776.5" font-family="Helvetica,sans-Serif" font-size="10.00">{load&#45;elimination::cc}</text>
<text text-anchor="middle" x="321.5" y="-765.5" font-family="Helvetica,sans-Serif" font-size="10.00">::ResolveRenames</text>
</a>
</g>
</g>
<!-- Node5&#45;&gt;Node7 -->
<g id="edge6" class="edge">
<title>Node5&#45;&gt;Node7</title>
<path fill="none" stroke="midnightblue" d="M477.64,-737.53C449.99,-745.9 419.18,-755.23 392.36,-763.35"/>
<polygon fill="midnightblue" stroke="midnightblue" points="478.72,-740.86 487.28,-734.61 476.69,-734.16 478.72,-740.86"/>
</g>
<!-- Node8 -->
<g id="node8" class="node">
<title>Node8</title>
<g id="a_node8"><a xlink:href="classv8_1_1internal_1_1compiler_1_1LoadElimination_1_1AbstractMaps.html#a6d917b2ca3c8dd5019e09937acb6565f" target="_top" xlink:title=" ">
<polygon fill="white" stroke="black" points="3,-760 3,-801 177,-801 177,-760 3,-760"/>
<text text-anchor="start" x="11" y="-789" font-family="Helvetica,sans-Serif" font-size="10.00">v8::internal::compiler</text>
<text text-anchor="start" x="11" y="-778" font-family="Helvetica,sans-Serif" font-size="10.00">::LoadElimination::AbstractMaps</text>
<text text-anchor="middle" x="90" y="-767" font-family="Helvetica,sans-Serif" font-size="10.00">::AbstractMaps</text>
</a>
</g>
</g>
<!-- Node7&#45;&gt;Node8 -->
<g id="edge7" class="edge">
<title>Node7&#45;&gt;Node8</title>
<path fill="none" stroke="midnightblue" d="M240.48,-783.11C219.98,-782.75 197.86,-782.36 177.08,-782"/>
<polygon fill="midnightblue" stroke="midnightblue" points="240.65,-786.61 250.71,-783.28 240.77,-779.61 240.65,-786.61"/>
</g>
<!-- Node9 -->
<g id="node9" class="node">
<title>Node9</title>
<g id="a_node9"><a xlink:href="classv8_1_1internal_1_1compiler_1_1LoadElimination_1_1AbstractMaps.html#ac7d76d42085c9cd189ec550353ebb171" target="_top" xlink:title=" ">
<polygon fill="white" stroke="red" points="3,-700 3,-741 177,-741 177,-700 3,-700"/>
<text text-anchor="start" x="11" y="-729" font-family="Helvetica,sans-Serif" font-size="10.00">v8::internal::compiler</text>
<text text-anchor="start" x="11" y="-718" font-family="Helvetica,sans-Serif" font-size="10.00">::LoadElimination::AbstractMaps</text>
<text text-anchor="middle" x="90" y="-707" font-family="Helvetica,sans-Serif" font-size="10.00">::Extend</text>
</a>
</g>
</g>
<!-- Node7&#45;&gt;Node9 -->
<g id="edge8" class="edge">
<title>Node7&#45;&gt;Node9</title>
<path fill="none" stroke="midnightblue" d="M241,-762.33C216.29,-755.44 189.15,-747.87 164.84,-741.09"/>
<polygon fill="midnightblue" stroke="midnightblue" points="240.14,-765.72 250.71,-765.04 242.02,-758.98 240.14,-765.72"/>
</g>
<!-- Node23 -->
<g id="node10" class="node">
<title>Node23</title>
<g id="a_node10"><a xlink:href="classv8_1_1internal_1_1compiler_1_1LoadElimination_1_1AbstractMaps.html#a08f2c59abd8807d6d4ca9818e2cb5278" target="_top" xlink:title=" ">
<polygon fill="white" stroke="black" points="3,-892 3,-933 177,-933 177,-892 3,-892"/>
<text text-anchor="start" x="11" y="-921" font-family="Helvetica,sans-Serif" font-size="10.00">v8::internal::compiler</text>
<text text-anchor="start" x="11" y="-910" font-family="Helvetica,sans-Serif" font-size="10.00">::LoadElimination::AbstractMaps</text>
<text text-anchor="middle" x="90" y="-899" font-family="Helvetica,sans-Serif" font-size="10.00">::Lookup</text>
</a>
</g>
</g>
<!-- Node7&#45;&gt;Node23 -->
<g id="edge9" class="edge">
<title>Node7&#45;&gt;Node23</title>
<path fill="none" stroke="midnightblue" d="M280.6,-816.94C253.48,-837.79 216.1,-864.3 180,-882.5 173.3,-885.88 166.14,-889.01 158.89,-891.88"/>
<polygon fill="midnightblue" stroke="midnightblue" points="282.92,-819.56 288.67,-810.66 278.63,-814.03 282.92,-819.56"/>
</g>
<!-- Node24 -->
<g id="node11" class="node">
<title>Node24</title>
<g id="a_node11"><a xlink:href="namespacev8_1_1internal_1_1compiler_1_1anonymous__namespace_02load-elimination_8cc_03.html#ac6e43701d8e76d5aec7897e445965212" target="_top" xlink:title=" ">
<polygon fill="white" stroke="red" points="19.5,-820.5 19.5,-872.5 160.5,-872.5 160.5,-820.5 19.5,-820.5"/>
<text text-anchor="start" x="27.5" y="-860.5" font-family="Helvetica,sans-Serif" font-size="10.00">v8::internal::compiler</text>
<text text-anchor="start" x="27.5" y="-849.5" font-family="Helvetica,sans-Serif" font-size="10.00">::anonymous_namespace</text>
<text text-anchor="start" x="27.5" y="-838.5" font-family="Helvetica,sans-Serif" font-size="10.00">{load&#45;elimination::cc}</text>
<text text-anchor="middle" x="90" y="-827.5" font-family="Helvetica,sans-Serif" font-size="10.00">::MustAlias</text>
</a>
</g>
</g>
<!-- Node7&#45;&gt;Node24 -->
<g id="edge10" class="edge">
<title>Node7&#45;&gt;Node24</title>
<path fill="none" stroke="midnightblue" d="M240.87,-806.01C214.83,-813.05 186.12,-820.8 160.86,-827.63"/>
<polygon fill="midnightblue" stroke="midnightblue" points="241.97,-809.34 250.71,-803.35 240.14,-802.58 241.97,-809.34"/>
</g>
<!-- Node29 -->
<g id="node13" class="node">
<title>Node29</title>
<g id="a_node13"><a xlink:href="classv8_1_1internal_1_1compiler_1_1GraphTrimmer.html#afdbaeba88b2dbf5a1dfdef3e70226a18" target="_top" xlink:title=" ">
<polygon fill="white" stroke="black" points="247,-638.5 247,-668.5 396,-668.5 396,-638.5 247,-638.5"/>
<text text-anchor="start" x="255" y="-656.5" font-family="Helvetica,sans-Serif" font-size="10.00">v8::internal::compiler</text>
<text text-anchor="middle" x="321.5" y="-645.5" font-family="Helvetica,sans-Serif" font-size="10.00">::GraphTrimmer::TrimGraph</text>
</a>
</g>
</g>
<!-- Node28&#45;&gt;Node29 -->
<g id="edge12" class="edge">
<title>Node28&#45;&gt;Node29</title>
<path fill="none" stroke="midnightblue" d="M469.96,-653.5C445.73,-653.5 419.65,-653.5 396.26,-653.5"/>
<polygon fill="midnightblue" stroke="midnightblue" points="470.22,-657 480.22,-653.5 470.22,-650 470.22,-657"/>
</g>
<!-- Node30 -->
<g id="node14" class="node">
<title>Node30</title>
<g id="a_node14"><a xlink:href="structv8_1_1internal_1_1compiler_1_1EarlyGraphTrimmingPhase.html#a0cc6c24cce190feaa6dc089846321bdf" target="_top" xlink:title=" ">
<polygon fill="white" stroke="black" points="2,-642.5 2,-672.5 178,-672.5 178,-642.5 2,-642.5"/>
<text text-anchor="start" x="10" y="-660.5" font-family="Helvetica,sans-Serif" font-size="10.00">v8::internal::compiler</text>
<text text-anchor="middle" x="90" y="-649.5" font-family="Helvetica,sans-Serif" font-size="10.00">::EarlyGraphTrimmingPhase::Run</text>
</a>
</g>
</g>
<!-- Node29&#45;&gt;Node30 -->
<g id="edge13" class="edge">
<title>Node29&#45;&gt;Node30</title>
<path fill="none" stroke="midnightblue" d="M236.78,-654.96C217.7,-655.29 197.39,-655.65 178.17,-655.98"/>
<polygon fill="midnightblue" stroke="midnightblue" points="237,-658.46 246.94,-654.78 236.88,-651.46 237,-658.46"/>
</g>
<!-- Node31 -->
<g id="node15" class="node">
<title>Node31</title>
<g id="a_node15"><a xlink:href="structv8_1_1internal_1_1compiler_1_1LoopPeelingPhase.html#a3069a67a9f637a6240cb550f8da865ea" target="_top" xlink:title=" ">
<polygon fill="white" stroke="black" points="22,-593.5 22,-623.5 158,-623.5 158,-593.5 22,-593.5"/>
<text text-anchor="start" x="30" y="-611.5" font-family="Helvetica,sans-Serif" font-size="10.00">v8::internal::compiler</text>
<text text-anchor="middle" x="90" y="-600.5" font-family="Helvetica,sans-Serif" font-size="10.00">::LoopPeelingPhase::Run</text>
</a>
</g>
</g>
<!-- Node29&#45;&gt;Node31 -->
<g id="edge14" class="edge">
<title>Node29&#45;&gt;Node31</title>
<path fill="none" stroke="midnightblue" d="M236.79,-637.09C210.97,-632.02 182.88,-626.52 158.31,-621.7"/>
<polygon fill="midnightblue" stroke="midnightblue" points="236.45,-640.59 246.94,-639.08 237.8,-633.72 236.45,-640.59"/>
</g>
<!-- Node32 -->
<g id="node16" class="node">
<title>Node32</title>
<g id="a_node16"><a xlink:href="structv8_1_1internal_1_1compiler_1_1MemoryOptimizationPhase.html#a010c9c07549327f07c2f3ad168d59176" target="_top" xlink:title=" ">
<polygon fill="white" stroke="black" points="0,-474.5 0,-504.5 180,-504.5 180,-474.5 0,-474.5"/>
<text text-anchor="start" x="8" y="-492.5" font-family="Helvetica,sans-Serif" font-size="10.00">v8::internal::compiler</text>
<text text-anchor="middle" x="90" y="-481.5" font-family="Helvetica,sans-Serif" font-size="10.00">::MemoryOptimizationPhase::Run</text>
</a>
</g>
</g>
<!-- Node29&#45;&gt;Node32 -->
<g id="edge15" class="edge">
<title>Node29&#45;&gt;Node32</title>
<path fill="none" stroke="midnightblue" d="M237.34,-638.99C229.85,-636.1 222.61,-632.65 216,-628.5 194.59,-615.08 196.65,-603.51 180,-584.5 154.69,-555.6 123.75,-523.19 105.81,-504.67"/>
<polygon fill="midnightblue" stroke="midnightblue" points="236.34,-642.34 246.93,-642.34 238.65,-635.74 236.34,-642.34"/>
</g>
<!-- Node34 -->
<g id="node18" class="node">
<title>Node34</title>
<g id="a_node18"><a xlink:href="classv8_1_1internal_1_1compiler_1_1LoadElimination_1_1AbstractState.html#a3d8b7b564d1ec92f002dee6828f6554d" target="_top" xlink:title=" ">
<polygon fill="white" stroke="black" points="235,-578 235,-619 408,-619 408,-578 235,-578"/>
<text text-anchor="start" x="243" y="-607" font-family="Helvetica,sans-Serif" font-size="10.00">v8::internal::compiler</text>
<text text-anchor="start" x="243" y="-596" font-family="Helvetica,sans-Serif" font-size="10.00">::LoadElimination::AbstractState</text>
<text text-anchor="middle" x="321.5" y="-585" font-family="Helvetica,sans-Serif" font-size="10.00">::FieldsMerge</text>
</a>
</g>
</g>
<!-- Node33&#45;&gt;Node34 -->
<g id="edge17" class="edge">
<title>Node33&#45;&gt;Node34</title>
<path fill="none" stroke="midnightblue" d="M461.97,-598.5C444.18,-598.5 425.7,-598.5 408.22,-598.5"/>
<polygon fill="midnightblue" stroke="midnightblue" points="462.34,-602 472.34,-598.5 462.34,-595 462.34,-602"/>
</g>
<!-- Node37 -->
<g id="node22" class="node">
<title>Node37</title>
<g id="a_node22"><a xlink:href="classv8_1_1internal_1_1compiler_1_1CsaLoadElimination.html#a99d57bf20d717ee3fc4013c6b2cbb76a" target="_top" xlink:title=" ">
<polygon fill="white" stroke="black" points="259,-455 259,-496 384,-496 384,-455 259,-455"/>
<text text-anchor="start" x="267" y="-484" font-family="Helvetica,sans-Serif" font-size="10.00">v8::internal::compiler</text>
<text text-anchor="start" x="267" y="-473" font-family="Helvetica,sans-Serif" font-size="10.00">::CsaLoadElimination::</text>
<text text-anchor="middle" x="321.5" y="-462" font-family="Helvetica,sans-Serif" font-size="10.00">Reduce</text>
</a>
</g>
</g>
<!-- Node36&#45;&gt;Node37 -->
<g id="edge21" class="edge">
<title>Node36&#45;&gt;Node37</title>
<path fill="none" stroke="midnightblue" d="M481.91,-443.55C450.3,-449.88 413.98,-457.16 384,-463.17"/>
<polygon fill="midnightblue" stroke="midnightblue" points="482.87,-446.93 491.99,-441.53 481.5,-440.06 482.87,-446.93"/>
</g>
<!-- Node39 -->
<g id="node24" class="node">
<title>Node39</title>
<g id="a_node24"><a xlink:href="classv8_1_1internal_1_1compiler_1_1WasmLoadElimination.html#ab88c3f2242e975e08e73536a4fb4daaf" target="_top" xlink:title=" ">
<polygon fill="white" stroke="black" points="248,-165 248,-206 395,-206 395,-165 248,-165"/>
<text text-anchor="start" x="256" y="-194" font-family="Helvetica,sans-Serif" font-size="10.00">v8::internal::compiler</text>
<text text-anchor="start" x="256" y="-183" font-family="Helvetica,sans-Serif" font-size="10.00">::WasmLoadElimination</text>
<text text-anchor="middle" x="321.5" y="-172" font-family="Helvetica,sans-Serif" font-size="10.00">::ReduceAnyConvertExtern</text>
</a>
</g>
</g>
<!-- Node38&#45;&gt;Node39 -->
<g id="edge23" class="edge">
<title>Node38&#45;&gt;Node39</title>
<path fill="none" stroke="midnightblue" d="M462.45,-219.52C439.98,-214.05 416.34,-208.31 395.03,-203.13"/>
<polygon fill="midnightblue" stroke="midnightblue" points="461.8,-222.96 472.34,-221.92 463.45,-216.16 461.8,-222.96"/>
</g>
<!-- Node41 -->
<g id="node26" class="node">
<title>Node41</title>
<g id="a_node26"><a xlink:href="classv8_1_1internal_1_1compiler_1_1WasmLoadElimination.html#a45314cf9c75972cfe6674642b2f10111" target="_top" xlink:title=" ">
<polygon fill="white" stroke="black" points="256,-105 256,-146 387,-146 387,-105 256,-105"/>
<text text-anchor="start" x="264" y="-134" font-family="Helvetica,sans-Serif" font-size="10.00">v8::internal::compiler</text>
<text text-anchor="start" x="264" y="-123" font-family="Helvetica,sans-Serif" font-size="10.00">::WasmLoadElimination</text>
<text text-anchor="middle" x="321.5" y="-112" font-family="Helvetica,sans-Serif" font-size="10.00">::ReduceStringAsWtf16</text>
</a>
</g>
</g>
<!-- Node38&#45;&gt;Node41 -->
<g id="edge25" class="edge">
<title>Node38&#45;&gt;Node41</title>
<path fill="none" stroke="midnightblue" d="M469.28,-216.94C467.11,-215.54 465.02,-214.06 463,-212.5 439.3,-194.17 450.97,-173.48 427,-155.5 415.37,-146.78 401.29,-140.59 387.27,-136.2"/>
<polygon fill="midnightblue" stroke="midnightblue" points="467.53,-219.97 477.93,-221.98 471.05,-213.92 467.53,-219.97"/>
</g>
<!-- Node42 -->
<g id="node27" class="node">
<title>Node42</title>
<g id="a_node27"><a xlink:href="classv8_1_1internal_1_1compiler_1_1WasmLoadElimination.html#af85b5fdd5c5a06273d6d74b0733552ac" target="_top" xlink:title=" ">
<polygon fill="white" stroke="black" points="247.5,-225 247.5,-266 395.5,-266 395.5,-225 247.5,-225"/>
<text text-anchor="start" x="255.5" y="-254" font-family="Helvetica,sans-Serif" font-size="10.00">v8::internal::compiler</text>
<text text-anchor="start" x="255.5" y="-243" font-family="Helvetica,sans-Serif" font-size="10.00">::WasmLoadElimination</text>
<text text-anchor="middle" x="321.5" y="-232" font-family="Helvetica,sans-Serif" font-size="10.00">::ReduceWasmArrayLength</text>
</a>
</g>
</g>
<!-- Node38&#45;&gt;Node42 -->
<g id="edge27" class="edge">
<title>Node38&#45;&gt;Node42</title>
<path fill="none" stroke="midnightblue" d="M458.13,-243.76C437.18,-244.03 415.42,-244.31 395.62,-244.56"/>
<polygon fill="midnightblue" stroke="midnightblue" points="458.39,-247.26 468.35,-243.63 458.3,-240.26 458.39,-247.26"/>
</g>
<!-- Node40 -->
<g id="node25" class="node">
<title>Node40</title>
<g id="a_node25"><a xlink:href="classv8_1_1internal_1_1compiler_1_1WasmLoadElimination.html#ab472d1a372cfdb24771c528ec135c24c" target="_top" xlink:title=" ">
<polygon fill="white" stroke="black" points="24.5,-225 24.5,-266 155.5,-266 155.5,-225 24.5,-225"/>
<text text-anchor="start" x="32.5" y="-254" font-family="Helvetica,sans-Serif" font-size="10.00">v8::internal::compiler</text>
<text text-anchor="start" x="32.5" y="-243" font-family="Helvetica,sans-Serif" font-size="10.00">::WasmLoadElimination</text>
<text text-anchor="middle" x="90" y="-232" font-family="Helvetica,sans-Serif" font-size="10.00">::Reduce</text>
</a>
</g>
</g>
<!-- Node39&#45;&gt;Node40 -->
<g id="edge24" class="edge">
<title>Node39&#45;&gt;Node40</title>
<path fill="none" stroke="midnightblue" d="M238.05,-207.06C210.99,-214.13 181.32,-221.89 155.77,-228.57"/>
<polygon fill="midnightblue" stroke="midnightblue" points="239.1,-210.4 247.88,-204.48 237.32,-203.63 239.1,-210.4"/>
</g>
<!-- Node41&#45;&gt;Node40 -->
<g id="edge26" class="edge">
<title>Node41&#45;&gt;Node40</title>
<path fill="none" stroke="midnightblue" d="M246.38,-143.32C235.96,-146.81 225.56,-150.86 216,-155.5 177.51,-174.18 138.3,-204.67 114.31,-224.9"/>
<polygon fill="midnightblue" stroke="midnightblue" points="247.47,-146.65 255.93,-140.27 245.33,-139.98 247.47,-146.65"/>
</g>
<!-- Node42&#45;&gt;Node40 -->
<g id="edge28" class="edge">
<title>Node42&#45;&gt;Node40</title>
<path fill="none" stroke="midnightblue" d="M237.12,-245.5C210.33,-245.5 181.06,-245.5 155.81,-245.5"/>
<polygon fill="midnightblue" stroke="midnightblue" points="237.25,-249 247.25,-245.5 237.25,-242 237.25,-249"/>
</g>
<!-- Node43&#45;&gt;Node40 -->
<g id="edge30" class="edge">
<title>Node43&#45;&gt;Node40</title>
<path fill="none" stroke="midnightblue" d="M229.13,-341.32C224.64,-339.49 220.23,-337.55 216,-335.5 177.51,-316.82 138.3,-286.33 114.31,-266.1"/>
<polygon fill="midnightblue" stroke="midnightblue" points="227.88,-344.59 238.47,-344.91 230.39,-338.06 227.88,-344.59"/>
</g>
<!-- Node45 -->
<g id="node30" class="node">
<title>Node45</title>
<g id="a_node30"><a xlink:href="classv8_1_1internal_1_1compiler_1_1GraphReducer.html#a29a312f60ff837b899dd53414bd69753" target="_top" xlink:title=" ">
<polygon fill="white" stroke="black" points="242,-55.5 242,-85.5 401,-85.5 401,-55.5 242,-55.5"/>
<text text-anchor="start" x="250" y="-73.5" font-family="Helvetica,sans-Serif" font-size="10.00">v8::internal::compiler</text>
<text text-anchor="middle" x="321.5" y="-62.5" font-family="Helvetica,sans-Serif" font-size="10.00">::GraphReducer::ReduceNode</text>
</a>
</g>
</g>
<!-- Node44&#45;&gt;Node45 -->
<g id="edge32" class="edge">
<title>Node44&#45;&gt;Node45</title>
<path fill="none" stroke="midnightblue" d="M480.05,-120.45C474.23,-118.6 468.49,-116.61 463,-114.5 446.12,-107.99 443.93,-101.88 427,-95.5 417.05,-91.75 406.35,-88.43 395.73,-85.54"/>
<polygon fill="midnightblue" stroke="midnightblue" points="479.3,-123.88 489.89,-123.43 481.33,-117.18 479.3,-123.88"/>
</g>
<!-- Node46 -->
<g id="node31" class="node">
<title>Node46</title>
<g id="a_node31"><a xlink:href="classv8_1_1internal_1_1compiler_1_1GraphReducer.html#a5bbd1eaf3d27ed84b49d1b43e3e31958" target="_top" xlink:title=" ">
<polygon fill="white" stroke="red" points="8.5,-55.5 8.5,-85.5 171.5,-85.5 171.5,-55.5 8.5,-55.5"/>
<text text-anchor="start" x="16.5" y="-73.5" font-family="Helvetica,sans-Serif" font-size="10.00">v8::internal::compiler</text>
<text text-anchor="middle" x="90" y="-62.5" font-family="Helvetica,sans-Serif" font-size="10.00">::GraphReducer::ReduceGraph</text>
</a>
</g>
</g>
<!-- Node45&#45;&gt;Node46 -->
<g id="edge33" class="edge">
<title>Node45&#45;&gt;Node46</title>
<path fill="none" stroke="midnightblue" d="M231.6,-70.5C211.81,-70.5 190.94,-70.5 171.51,-70.5"/>
<polygon fill="midnightblue" stroke="midnightblue" points="231.84,-74 241.84,-70.5 231.84,-67 231.84,-74"/>
</g>
<!-- Node54&#45;&gt;Node40 -->
<g id="edge35" class="edge">
<title>Node54&#45;&gt;Node40</title>
<path fill="none" stroke="midnightblue" d="M244.44,-285.62C215.74,-278.11 183.39,-269.65 155.82,-262.45"/>
<polygon fill="midnightblue" stroke="midnightblue" points="243.87,-289.08 254.43,-288.23 245.64,-282.31 243.87,-289.08"/>
</g>
<!-- Node57 -->
<g id="node35" class="node">
<title>Node57</title>
<g id="a_node35"><a xlink:href="classv8_1_1internal_1_1compiler_1_1TypedOptimization.html#a5177653cd58f356a4895278d73136b41" target="_top" xlink:title=" ">
<polygon fill="white" stroke="black" points="216,-6.5 216,-36.5 427,-36.5 427,-6.5 216,-6.5"/>
<text text-anchor="start" x="224" y="-24.5" font-family="Helvetica,sans-Serif" font-size="10.00">v8::internal::compiler</text>
<text text-anchor="middle" x="321.5" y="-13.5" font-family="Helvetica,sans-Serif" font-size="10.00">::TypedOptimization::ReduceSameValue</text>
</a>
</g>
</g>
<!-- Node56&#45;&gt;Node57 -->
<g id="edge38" class="edge">
<title>Node56&#45;&gt;Node57</title>
<path fill="none" stroke="midnightblue" d="M466.67,-24.57C453.7,-24.3 440.28,-24.01 427.06,-23.73"/>
<polygon fill="midnightblue" stroke="midnightblue" points="466.88,-28.08 476.95,-24.79 467.03,-21.08 466.88,-28.08"/>
</g>
<!-- Node58 -->
<g id="node36" class="node">
<title>Node58</title>
<g id="a_node36"><a xlink:href="classv8_1_1internal_1_1compiler_1_1TypedOptimization.html#accda01f62777d3521ef10ebb4effd423" target="_top" xlink:title=" ">
<polygon fill="white" stroke="black" points="12,-6.5 12,-36.5 168,-36.5 168,-6.5 12,-6.5"/>
<text text-anchor="start" x="20" y="-24.5" font-family="Helvetica,sans-Serif" font-size="10.00">v8::internal::compiler</text>
<text text-anchor="middle" x="90" y="-13.5" font-family="Helvetica,sans-Serif" font-size="10.00">::TypedOptimization::Reduce</text>
</a>
</g>
</g>
<!-- Node57&#45;&gt;Node58 -->
<g id="edge39" class="edge">
<title>Node57&#45;&gt;Node58</title>
<path fill="none" stroke="midnightblue" d="M205.63,-21.5C192.9,-21.5 180.17,-21.5 168.07,-21.5"/>
<polygon fill="midnightblue" stroke="midnightblue" points="205.82,-25 215.82,-21.5 205.82,-18 205.82,-25"/>
</g>
<!-- Node61 -->
<g id="node39" class="node">
<title>Node61</title>
<g id="a_node39"><a xlink:href="classv8_1_1internal_1_1compiler_1_1MemoryOptimizer.html#a8ef1148e82af3bdce225833270367510" target="_top" xlink:title=" ">
<polygon fill="white" stroke="black" points="241,-405.5 241,-435.5 402,-435.5 402,-405.5 241,-405.5"/>
<text text-anchor="start" x="249" y="-423.5" font-family="Helvetica,sans-Serif" font-size="10.00">v8::internal::compiler</text>
<text text-anchor="middle" x="321.5" y="-412.5" font-family="Helvetica,sans-Serif" font-size="10.00">::MemoryOptimizer::Optimize</text>
</a>
</g>
</g>
<!-- Node60&#45;&gt;Node61 -->
<g id="edge42" class="edge">
<title>Node60&#45;&gt;Node61</title>
<path fill="none" stroke="midnightblue" d="M472.18,-390.5C447.73,-395.4 421.24,-400.71 397.44,-405.48"/>
<polygon fill="midnightblue" stroke="midnightblue" points="473.04,-393.9 482.16,-388.5 471.67,-387.03 473.04,-393.9"/>
</g>
<!-- Node61&#45;&gt;Node32 -->
<g id="edge43" class="edge">
<title>Node61&#45;&gt;Node32</title>
<path fill="none" stroke="midnightblue" d="M243.12,-438.06C233.95,-440.42 224.74,-442.92 216,-445.5 186.98,-454.05 154.79,-465.43 130.35,-474.47"/>
<polygon fill="midnightblue" stroke="midnightblue" points="244.21,-441.39 253.05,-435.55 242.5,-434.61 244.21,-441.39"/>
</g>
</g>
</svg>
        <g id="navigator" transform="translate(0 0)" fill="#404254">
                <rect fill="#f2f5e9" fill-opacity="0.5" stroke="#606060" stroke-width=".5" x="0" y="0" width="60" height="60"/>
                <use id="zoomplus" xlink:href="#zoomPlus" x="17" y="9" onmousedown="handleZoom(evt,'in')"/>
                <use id="zoomminus" xlink:href="#zoomMin" x="42" y="9" onmousedown="handleZoom(evt,'out')"/>
                <use id="reset" xlink:href="#resetDef" x="30" y="36" onmousedown="handleReset()"/>
                <g id="arrowUp" xlink:href="#dirArrow" transform="translate(30 24)" onmousedown="handlePan(0,-1)">
                  <use xlink:href="#rim" fill="#404040">
                        <set attributeName="fill" to="#808080" begin="arrowUp.mouseover" end="arrowUp.mouseout"/>
                  </use>
                  <path fill="none" stroke="white" stroke-width="1.5" d="M0,-3.0v7 M-2.5,-0.5L0,-3.0L2.5,-0.5"/>
                </g>
                <g id="arrowRight" xlink:href="#dirArrow" transform="rotate(90) translate(36 -43)" onmousedown="handlePan(1,0)">
                  <use xlink:href="#rim" fill="#404040">
                        <set attributeName="fill" to="#808080" begin="arrowRight.mouseover" end="arrowRight.mouseout"/>
                  </use>
                  <path fill="none" stroke="white" stroke-width="1.5" d="M0,-3.0v7 M-2.5,-0.5L0,-3.0L2.5,-0.5"/>
                </g>
                <g id="arrowDown" xlink:href="#dirArrow" transform="rotate(180) translate(-30 -48)" onmousedown="handlePan(0,1)">
                  <use xlink:href="#rim" fill="#404040">
                        <set attributeName="fill" to="#808080" begin="arrowDown.mouseover" end="arrowDown.mouseout"/>
                  </use>
                  <path fill="none" stroke="white" stroke-width="1.5" d="M0,-3.0v7 M-2.5,-0.5L0,-3.0L2.5,-0.5"/>
                </g>
                <g id="arrowLeft" xlink:href="#dirArrow" transform="rotate(270) translate(-36 17)" onmousedown="handlePan(-1,0)">
                  <use xlink:href="#rim" fill="#404040">
                        <set attributeName="fill" to="#808080" begin="arrowLeft.mouseover" end="arrowLeft.mouseout"/>
                  </use>
                  <path fill="none" stroke="white" stroke-width="1.5" d="M0,-3.0v7 M-2.5,-0.5L0,-3.0L2.5,-0.5"/>
                </g>
        </g>
        <svg viewBox="0 0 15 15" width="100%" height="30px" preserveAspectRatio="xMaxYMin meet">
         <g id="arrow_out" transform="scale(0.3 0.3)">
          <a xlink:href="classv8_1_1internal_1_1compiler_1_1Node_a1e54359973b7bcd056395db3b1b69229_icgraph_org.svg" target="_base">
           <rect id="button" ry="5" rx="5" y="6" x="6" height="38" width="38"
                fill="#f2f5e9" fill-opacity="0.5" stroke="#606060" stroke-width="1.0"/>
           <path id="arrow"
             d="M 11.500037,31.436501 C 11.940474,20.09759 22.043105,11.32322 32.158766,21.979434 L 37.068811,17.246167 C 37.068811,17.246167 37.088388,32 37.088388,32 L 22.160133,31.978069 C 22.160133,31.978069 26.997745,27.140456 26.997745,27.140456 C 18.528582,18.264221 13.291696,25.230495 11.500037,31.436501 z"
             style="fill:#404040;"/>
          </a>
         </g>
        </svg>
</svg>
