<?xml version="1.0" encoding="UTF-8" standalone="no"?>
<!DOCTYPE svg PUBLIC "-//W3C//DTD SVG 1.1//EN"
 "http://www.w3.org/Graphics/SVG/1.1/DTD/svg11.dtd">
<!-- Generated by graphviz version 2.43.0 (0)
 -->
<!-- Title: v8::internal::ShadowRealmBuiltinsAssembler::CreateImportValueFulfilledFunctionContext Pages: 1 -->
<!--zoomable 247 -->
<svg id="main" version="1.1" xmlns="http://www.w3.org/2000/svg" xmlns:xlink="http://www.w3.org/1999/xlink" xml:space="preserve" onload="init(evt)">
<style type="text/css"><![CDATA[
.edge:hover path { stroke: red; }
.edge:hover polygon { stroke: red; fill: red; }
]]></style>
<script type="text/javascript"><![CDATA[
var edges = document.getElementsByTagName('g');
if (edges && edges.length) {
  for (var i=0;i<edges.length;i++) {
    if (edges[i].id.substr(0,4)=='edge') {
      edges[i].setAttribute('class','edge');
    }
  }
}
]]></script>
        <defs>
                <circle id="rim" cx="0" cy="0" r="7"/>
                <circle id="rim2" cx="0" cy="0" r="3.5"/>
                <g id="zoomPlus">
                        <use xlink:href="#rim" fill="#404040">
                                <set attributeName="fill" to="#808080" begin="zoomplus.mouseover" end="zoomplus.mouseout"/>
                        </use>
                        <path d="M-4,0h8M0,-4v8" fill="none" stroke="white" stroke-width="1.5" pointer-events="none"/>
                </g>
                <g id="zoomMin">
                        <use xlink:href="#rim" fill="#404040">
                                <set attributeName="fill" to="#808080" begin="zoomminus.mouseover" end="zoomminus.mouseout"/>
                        </use>
                        <path d="M-4,0h8" fill="none" stroke="white" stroke-width="1.5" pointer-events="none"/>
                </g>
                <g id="dirArrow">
                        <path fill="none" stroke="white" stroke-width="1.5" d="M0,-3.0v7 M-2.5,-0.5L0,-3.0L2.5,-0.5"/>
                </g>
               <g id="resetDef">
                       <use xlink:href="#rim2" fill="#404040">
                               <set attributeName="fill" to="#808080" begin="reset.mouseover" end="reset.mouseout"/>
                       </use>
               </g>
        </defs>

<script type="text/javascript">
var viewWidth = 846;
var viewHeight = 247;
var sectionId = 'dynsection-6';
</script>
<script xlink:href="svgpan.js"/>
<svg id="graph" class="graph">
<g id="viewport">
<title>v8::internal::ShadowRealmBuiltinsAssembler::CreateImportValueFulfilledFunctionContext</title>
<polygon fill="white" stroke="transparent" points="-4,4 -4,-242.5 842,-242.5 842,4 -4,4"/>
<!-- Node1 -->
<g id="node1" class="node">
<title>Node1</title>
<g id="a_node1"><a xlink:title=" ">
<polygon fill="#bfbfbf" stroke="black" points="0,-153.5 0,-194.5 176,-194.5 176,-153.5 0,-153.5"/>
<text text-anchor="start" x="8" y="-182.5" font-family="Helvetica,sans-Serif" font-size="10.00">v8::internal::ShadowRealm</text>
<text text-anchor="start" x="8" y="-171.5" font-family="Helvetica,sans-Serif" font-size="10.00">BuiltinsAssembler::CreateImport</text>
<text text-anchor="middle" x="88" y="-160.5" font-family="Helvetica,sans-Serif" font-size="10.00">ValueFulfilledFunctionContext</text>
</a>
</g>
</g>
<!-- Node2 -->
<g id="node2" class="node">
<title>Node2</title>
<g id="a_node2"><a xlink:href="classv8_1_1internal_1_1CodeStubAssembler.html#abef52a591a30f0162f022637a56c7d91" target="_top" xlink:title=" ">
<polygon fill="white" stroke="black" points="212,-159 212,-189 412,-189 412,-159 212,-159"/>
<text text-anchor="start" x="220" y="-177" font-family="Helvetica,sans-Serif" font-size="10.00">v8::internal::CodeStubAssembler</text>
<text text-anchor="middle" x="312" y="-166" font-family="Helvetica,sans-Serif" font-size="10.00">::StoreContextElementNoWriteBarrier</text>
</a>
</g>
</g>
<!-- Node1&#45;&gt;Node2 -->
<g id="edge1" class="edge">
<title>Node1&#45;&gt;Node2</title>
<path fill="none" stroke="midnightblue" d="M176.1,-174C184.48,-174 193.06,-174 201.62,-174"/>
<polygon fill="midnightblue" stroke="midnightblue" points="201.65,-177.5 211.65,-174 201.65,-170.5 201.65,-177.5"/>
</g>
<!-- Node3 -->
<g id="node3" class="node">
<title>Node3</title>
<g id="a_node3"><a xlink:href="classv8_1_1internal_1_1compiler_1_1CodeAssembler.html#a24b1bfe286ec10b56edc3a8bca1f939f" target="_top" xlink:title=" ">
<polygon fill="white" stroke="black" points="448,-208 448,-238 623,-238 623,-208 448,-208"/>
<text text-anchor="start" x="456" y="-226" font-family="Helvetica,sans-Serif" font-size="10.00">v8::internal::compiler</text>
<text text-anchor="middle" x="535.5" y="-215" font-family="Helvetica,sans-Serif" font-size="10.00">::CodeAssembler::IntPtrConstant</text>
</a>
</g>
</g>
<!-- Node2&#45;&gt;Node3 -->
<g id="edge2" class="edge">
<title>Node2&#45;&gt;Node3</title>
<path fill="none" stroke="midnightblue" d="M380.96,-189.03C404.88,-194.33 431.95,-200.31 456.62,-205.77"/>
<polygon fill="midnightblue" stroke="midnightblue" points="456.15,-209.25 466.67,-207.99 457.66,-202.42 456.15,-209.25"/>
</g>
<!-- Node5 -->
<g id="node5" class="node">
<title>Node5</title>
<g id="a_node5"><a xlink:href="classv8_1_1internal_1_1Context.html#a229602c9c46cec8381e5bab8e0f335d0" target="_top" xlink:title=" ">
<polygon fill="white" stroke="black" points="477.5,-159 477.5,-189 593.5,-189 593.5,-159 477.5,-159"/>
<text text-anchor="start" x="485.5" y="-177" font-family="Helvetica,sans-Serif" font-size="10.00">v8::internal::Context</text>
<text text-anchor="middle" x="535.5" y="-166" font-family="Helvetica,sans-Serif" font-size="10.00">::SlotOffset</text>
</a>
</g>
</g>
<!-- Node2&#45;&gt;Node5 -->
<g id="edge4" class="edge">
<title>Node2&#45;&gt;Node5</title>
<path fill="none" stroke="midnightblue" d="M412.09,-174C430.77,-174 449.9,-174 467.31,-174"/>
<polygon fill="midnightblue" stroke="midnightblue" points="467.35,-177.5 477.35,-174 467.35,-170.5 467.35,-177.5"/>
</g>
<!-- Node8 -->
<g id="node7" class="node">
<title>Node8</title>
<g id="a_node7"><a xlink:href="classv8_1_1internal_1_1compiler_1_1CodeAssembler.html#af7b8ce0236c4ed3e289c6aa041049517" target="_top" xlink:title=" ">
<polygon fill="white" stroke="black" points="450.5,-77.5 450.5,-118.5 620.5,-118.5 620.5,-77.5 450.5,-77.5"/>
<text text-anchor="start" x="458.5" y="-106.5" font-family="Helvetica,sans-Serif" font-size="10.00">v8::internal::compiler</text>
<text text-anchor="start" x="458.5" y="-95.5" font-family="Helvetica,sans-Serif" font-size="10.00">::CodeAssembler::StoreNoWrite</text>
<text text-anchor="middle" x="535.5" y="-84.5" font-family="Helvetica,sans-Serif" font-size="10.00">Barrier</text>
</a>
</g>
</g>
<!-- Node2&#45;&gt;Node8 -->
<g id="edge6" class="edge">
<title>Node2&#45;&gt;Node8</title>
<path fill="none" stroke="midnightblue" d="M356.76,-158.98C387.53,-148.43 429.35,-134.08 464.7,-121.95"/>
<polygon fill="midnightblue" stroke="midnightblue" points="466.16,-125.15 474.48,-118.59 463.88,-118.53 466.16,-125.15"/>
</g>
<!-- Node4 -->
<g id="node4" class="node">
<title>Node4</title>
<g id="a_node4"><a xlink:href="classv8_1_1internal_1_1compiler_1_1CodeAssembler.html#a73e60713b1c509a488abf9fad8fbd6fd" target="_top" xlink:title=" ">
<polygon fill="white" stroke="black" points="678,-208 678,-238 819,-238 819,-208 678,-208"/>
<text text-anchor="start" x="686" y="-226" font-family="Helvetica,sans-Serif" font-size="10.00">v8::internal::compiler</text>
<text text-anchor="middle" x="748.5" y="-215" font-family="Helvetica,sans-Serif" font-size="10.00">::CodeAssembler::jsgraph</text>
</a>
</g>
</g>
<!-- Node3&#45;&gt;Node4 -->
<g id="edge3" class="edge">
<title>Node3&#45;&gt;Node4</title>
<path fill="none" stroke="midnightblue" d="M623.24,-223C637.87,-223 653,-223 667.46,-223"/>
<polygon fill="midnightblue" stroke="midnightblue" points="667.84,-226.5 677.84,-223 667.84,-219.5 667.84,-226.5"/>
</g>
<!-- Node6 -->
<g id="node6" class="node">
<title>Node6</title>
<g id="a_node6"><a xlink:href="classv8_1_1internal_1_1Context.html#ac9c1d8cee7f4a34d22d021551a0ec40b" target="_top" xlink:title=" ">
<polygon fill="white" stroke="red" points="690.5,-159 690.5,-189 806.5,-189 806.5,-159 690.5,-159"/>
<text text-anchor="start" x="698.5" y="-177" font-family="Helvetica,sans-Serif" font-size="10.00">v8::internal::Context</text>
<text text-anchor="middle" x="748.5" y="-166" font-family="Helvetica,sans-Serif" font-size="10.00">::OffsetOfElementAt</text>
</a>
</g>
</g>
<!-- Node5&#45;&gt;Node6 -->
<g id="edge5" class="edge">
<title>Node5&#45;&gt;Node6</title>
<path fill="none" stroke="midnightblue" d="M593.6,-174C620.34,-174 652.38,-174 680.28,-174"/>
<polygon fill="midnightblue" stroke="midnightblue" points="680.35,-177.5 690.35,-174 680.35,-170.5 680.35,-177.5"/>
</g>
<!-- Node9 -->
<g id="node8" class="node">
<title>Node9</title>
<g id="a_node8"><a xlink:href="namespacev8_1_1internal.html#a8738aa6c6b977e485b333b17ca822208" target="_top" xlink:title=" ">
<polygon fill="white" stroke="black" points="676.5,-110 676.5,-140 820.5,-140 820.5,-110 676.5,-110"/>
<text text-anchor="start" x="684.5" y="-128" font-family="Helvetica,sans-Serif" font-size="10.00">v8::internal::CanBeTagged</text>
<text text-anchor="middle" x="748.5" y="-117" font-family="Helvetica,sans-Serif" font-size="10.00">Pointer</text>
</a>
</g>
</g>
<!-- Node8&#45;&gt;Node9 -->
<g id="edge7" class="edge">
<title>Node8&#45;&gt;Node9</title>
<path fill="none" stroke="midnightblue" d="M620.8,-108.79C635.72,-110.7 651.24,-112.68 666.08,-114.58"/>
<polygon fill="midnightblue" stroke="midnightblue" points="665.87,-118.08 676.23,-115.88 666.76,-111.14 665.87,-118.08"/>
</g>
<!-- Node10 -->
<g id="node9" class="node">
<title>Node10</title>
<g id="a_node9"><a xlink:href="classv8_1_1internal_1_1compiler_1_1CodeAssembler.html#aa7955829e7f5fde26a9548ef2eb0d007" target="_top" xlink:title=" ">
<polygon fill="white" stroke="black" points="659,-61 659,-91 838,-91 838,-61 659,-61"/>
<text text-anchor="start" x="667" y="-79" font-family="Helvetica,sans-Serif" font-size="10.00">v8::internal::compiler</text>
<text text-anchor="middle" x="748.5" y="-68" font-family="Helvetica,sans-Serif" font-size="10.00">::CodeAssembler::raw_assembler</text>
</a>
</g>
</g>
<!-- Node8&#45;&gt;Node10 -->
<g id="edge8" class="edge">
<title>Node8&#45;&gt;Node10</title>
<path fill="none" stroke="midnightblue" d="M620.8,-89.21C629.99,-88.25 639.4,-87.27 648.74,-86.3"/>
<polygon fill="midnightblue" stroke="midnightblue" points="649.26,-89.76 658.84,-85.24 648.53,-82.8 649.26,-89.76"/>
</g>
<!-- Node11 -->
<g id="node10" class="node">
<title>Node11</title>
<g id="a_node10"><a xlink:href="classv8_1_1internal_1_1compiler_1_1RawMachineAssembler.html#a0372c812c2e2c4963011c2e6fc798a7a" target="_top" xlink:title=" ">
<polygon fill="white" stroke="red" points="680,-0.5 680,-41.5 817,-41.5 817,-0.5 680,-0.5"/>
<text text-anchor="start" x="688" y="-29.5" font-family="Helvetica,sans-Serif" font-size="10.00">v8::internal::compiler</text>
<text text-anchor="start" x="688" y="-18.5" font-family="Helvetica,sans-Serif" font-size="10.00">::RawMachineAssembler</text>
<text text-anchor="middle" x="748.5" y="-7.5" font-family="Helvetica,sans-Serif" font-size="10.00">::Store</text>
</a>
</g>
</g>
<!-- Node8&#45;&gt;Node11 -->
<g id="edge9" class="edge">
<title>Node8&#45;&gt;Node11</title>
<path fill="none" stroke="midnightblue" d="M588.79,-77.42C610.44,-69.03 635.86,-59.36 659,-51 664.57,-48.99 670.35,-46.94 676.18,-44.91"/>
<polygon fill="midnightblue" stroke="midnightblue" points="677.67,-48.09 685.98,-41.51 675.38,-41.48 677.67,-48.09"/>
</g>
</g>
</svg>
        <g id="navigator" transform="translate(0 0)" fill="#404254">
                <rect fill="#f2f5e9" fill-opacity="0.5" stroke="#606060" stroke-width=".5" x="0" y="0" width="60" height="60"/>
                <use id="zoomplus" xlink:href="#zoomPlus" x="17" y="9" onmousedown="handleZoom(evt,'in')"/>
                <use id="zoomminus" xlink:href="#zoomMin" x="42" y="9" onmousedown="handleZoom(evt,'out')"/>
                <use id="reset" xlink:href="#resetDef" x="30" y="36" onmousedown="handleReset()"/>
                <g id="arrowUp" xlink:href="#dirArrow" transform="translate(30 24)" onmousedown="handlePan(0,-1)">
                  <use xlink:href="#rim" fill="#404040">
                        <set attributeName="fill" to="#808080" begin="arrowUp.mouseover" end="arrowUp.mouseout"/>
                  </use>
                  <path fill="none" stroke="white" stroke-width="1.5" d="M0,-3.0v7 M-2.5,-0.5L0,-3.0L2.5,-0.5"/>
                </g>
                <g id="arrowRight" xlink:href="#dirArrow" transform="rotate(90) translate(36 -43)" onmousedown="handlePan(1,0)">
                  <use xlink:href="#rim" fill="#404040">
                        <set attributeName="fill" to="#808080" begin="arrowRight.mouseover" end="arrowRight.mouseout"/>
                  </use>
                  <path fill="none" stroke="white" stroke-width="1.5" d="M0,-3.0v7 M-2.5,-0.5L0,-3.0L2.5,-0.5"/>
                </g>
                <g id="arrowDown" xlink:href="#dirArrow" transform="rotate(180) translate(-30 -48)" onmousedown="handlePan(0,1)">
                  <use xlink:href="#rim" fill="#404040">
                        <set attributeName="fill" to="#808080" begin="arrowDown.mouseover" end="arrowDown.mouseout"/>
                  </use>
                  <path fill="none" stroke="white" stroke-width="1.5" d="M0,-3.0v7 M-2.5,-0.5L0,-3.0L2.5,-0.5"/>
                </g>
                <g id="arrowLeft" xlink:href="#dirArrow" transform="rotate(270) translate(-36 17)" onmousedown="handlePan(-1,0)">
                  <use xlink:href="#rim" fill="#404040">
                        <set attributeName="fill" to="#808080" begin="arrowLeft.mouseover" end="arrowLeft.mouseout"/>
                  </use>
                  <path fill="none" stroke="white" stroke-width="1.5" d="M0,-3.0v7 M-2.5,-0.5L0,-3.0L2.5,-0.5"/>
                </g>
        </g>
        <svg viewBox="0 0 15 15" width="100%" height="30px" preserveAspectRatio="xMaxYMin meet">
         <g id="arrow_out" transform="scale(0.3 0.3)">
          <a xlink:href="classv8_1_1internal_1_1ShadowRealmBuiltinsAssembler_a00771e6c1938b22d87cbc346f957ab40_cgraph_org.svg" target="_base">
           <rect id="button" ry="5" rx="5" y="6" x="6" height="38" width="38"
                fill="#f2f5e9" fill-opacity="0.5" stroke="#606060" stroke-width="1.0"/>
           <path id="arrow"
             d="M 11.500037,31.436501 C 11.940474,20.09759 22.043105,11.32322 32.158766,21.979434 L 37.068811,17.246167 C 37.068811,17.246167 37.088388,32 37.088388,32 L 22.160133,31.978069 C 22.160133,31.978069 26.997745,27.140456 26.997745,27.140456 C 18.528582,18.264221 13.291696,25.230495 11.500037,31.436501 z"
             style="fill:#404040;"/>
          </a>
         </g>
        </svg>
</svg>
