<?xml version="1.0" encoding="UTF-8" standalone="no"?>
<!DOCTYPE svg PUBLIC "-//W3C//DTD SVG 1.1//EN"
 "http://www.w3.org/Graphics/SVG/1.1/DTD/svg11.dtd">
<!-- Generated by graphviz version 2.43.0 (0)
 -->
<!-- Title: v8::internal::StringCharacterStream::WriteUtf8Bytes Pages: 1 -->
<!--zoomable 355 -->
<svg id="main" version="1.1" xmlns="http://www.w3.org/2000/svg" xmlns:xlink="http://www.w3.org/1999/xlink" xml:space="preserve" onload="init(evt)">
<style type="text/css"><![CDATA[
.edge:hover path { stroke: red; }
.edge:hover polygon { stroke: red; fill: red; }
]]></style>
<script type="text/javascript"><![CDATA[
var edges = document.getElementsByTagName('g');
if (edges && edges.length) {
  for (var i=0;i<edges.length;i++) {
    if (edges[i].id.substr(0,4)=='edge') {
      edges[i].setAttribute('class','edge');
    }
  }
}
]]></script>
        <defs>
                <circle id="rim" cx="0" cy="0" r="7"/>
                <circle id="rim2" cx="0" cy="0" r="3.5"/>
                <g id="zoomPlus">
                        <use xlink:href="#rim" fill="#404040">
                                <set attributeName="fill" to="#808080" begin="zoomplus.mouseover" end="zoomplus.mouseout"/>
                        </use>
                        <path d="M-4,0h8M0,-4v8" fill="none" stroke="white" stroke-width="1.5" pointer-events="none"/>
                </g>
                <g id="zoomMin">
                        <use xlink:href="#rim" fill="#404040">
                                <set attributeName="fill" to="#808080" begin="zoomminus.mouseover" end="zoomminus.mouseout"/>
                        </use>
                        <path d="M-4,0h8" fill="none" stroke="white" stroke-width="1.5" pointer-events="none"/>
                </g>
                <g id="dirArrow">
                        <path fill="none" stroke="white" stroke-width="1.5" d="M0,-3.0v7 M-2.5,-0.5L0,-3.0L2.5,-0.5"/>
                </g>
               <g id="resetDef">
                       <use xlink:href="#rim2" fill="#404040">
                               <set attributeName="fill" to="#808080" begin="reset.mouseover" end="reset.mouseout"/>
                       </use>
               </g>
        </defs>

<script type="text/javascript">
var viewWidth = 812;
var viewHeight = 355;
var sectionId = 'dynsection-10';
</script>
<script xlink:href="svgpan.js"/>
<svg id="graph" class="graph">
<g id="viewport">
<title>v8::internal::StringCharacterStream::WriteUtf8Bytes</title>
<polygon fill="white" stroke="transparent" points="-4,4 -4,-350.5 808,-350.5 808,4 -4,4"/>
<!-- Node1 -->
<g id="node1" class="node">
<title>Node1</title>
<g id="a_node1"><a xlink:title=" ">
<polygon fill="#bfbfbf" stroke="black" points="0,-153.5 0,-183.5 154,-183.5 154,-153.5 0,-153.5"/>
<text text-anchor="start" x="8" y="-171.5" font-family="Helvetica,sans-Serif" font-size="10.00">v8::internal::StringCharacter</text>
<text text-anchor="middle" x="77" y="-160.5" font-family="Helvetica,sans-Serif" font-size="10.00">Stream::WriteUtf8Bytes</text>
</a>
</g>
</g>
<!-- Node2 -->
<g id="node2" class="node">
<title>Node2</title>
<g id="a_node2"><a xlink:href="classunibrow_1_1Utf8.html#acf0af099acd418650bf1a8080f14e926" target="_top" xlink:title=" ">
<polygon fill="white" stroke="black" points="205.5,-251 205.5,-270 328.5,-270 328.5,-251 205.5,-251"/>
<text text-anchor="middle" x="267" y="-258" font-family="Helvetica,sans-Serif" font-size="10.00">unibrow::Utf8::Encode</text>
</a>
</g>
</g>
<!-- Node1&#45;&gt;Node2 -->
<g id="edge1" class="edge">
<title>Node1&#45;&gt;Node2</title>
<path fill="none" stroke="midnightblue" d="M109.04,-183.69C144.7,-201.14 202.71,-229.53 237.33,-246.47"/>
<polygon fill="midnightblue" stroke="midnightblue" points="235.92,-249.68 246.44,-250.93 239,-243.39 235.92,-249.68"/>
</g>
<!-- Node7 -->
<g id="node7" class="node">
<title>Node7</title>
<g id="a_node7"><a xlink:href="classv8_1_1internal_1_1StringCharacterStream.html#a78769916c2be83815a1a5b1a849d73fe" target="_top" xlink:title=" ">
<polygon fill="white" stroke="black" points="190,-131.5 190,-161.5 344,-161.5 344,-131.5 190,-131.5"/>
<text text-anchor="start" x="198" y="-149.5" font-family="Helvetica,sans-Serif" font-size="10.00">v8::internal::StringCharacter</text>
<text text-anchor="middle" x="267" y="-138.5" font-family="Helvetica,sans-Serif" font-size="10.00">Stream::GetNext</text>
</a>
</g>
</g>
<!-- Node1&#45;&gt;Node7 -->
<g id="edge8" class="edge">
<title>Node1&#45;&gt;Node7</title>
<path fill="none" stroke="midnightblue" d="M154.2,-159.58C162.61,-158.6 171.22,-157.59 179.74,-156.59"/>
<polygon fill="midnightblue" stroke="midnightblue" points="180.17,-160.07 189.7,-155.43 179.36,-153.12 180.17,-160.07"/>
</g>
<!-- Node9 -->
<g id="node9" class="node">
<title>Node9</title>
<g id="a_node9"><a xlink:href="classv8_1_1internal_1_1StringCharacterStream.html#a5f6356cddd0737cffccb427d703009b0" target="_top" xlink:title=" ">
<polygon fill="white" stroke="black" points="190,-66.5 190,-96.5 344,-96.5 344,-66.5 190,-66.5"/>
<text text-anchor="start" x="198" y="-84.5" font-family="Helvetica,sans-Serif" font-size="10.00">v8::internal::StringCharacter</text>
<text text-anchor="middle" x="267" y="-73.5" font-family="Helvetica,sans-Serif" font-size="10.00">Stream::HasMore</text>
</a>
</g>
</g>
<!-- Node1&#45;&gt;Node9 -->
<g id="edge10" class="edge">
<title>Node1&#45;&gt;Node9</title>
<path fill="none" stroke="midnightblue" d="M110.75,-153.35C142.19,-138.79 189.83,-116.75 224.04,-100.92"/>
<polygon fill="midnightblue" stroke="midnightblue" points="225.71,-104 233.31,-96.63 222.77,-97.65 225.71,-104"/>
</g>
<!-- Node14 -->
<g id="node14" class="node">
<title>Node14</title>
<g id="a_node14"><a xlink:href="classunibrow_1_1Utf8.html#a5c6a30a8610649fee6dbb05057862113" target="_top" xlink:title=" ">
<polygon fill="white" stroke="black" points="206.5,-181 206.5,-200 327.5,-200 327.5,-181 206.5,-181"/>
<text text-anchor="middle" x="267" y="-188" font-family="Helvetica,sans-Serif" font-size="10.00">unibrow::Utf8::Length</text>
</a>
</g>
</g>
<!-- Node1&#45;&gt;Node14 -->
<g id="edge17" class="edge">
<title>Node1&#45;&gt;Node14</title>
<path fill="none" stroke="midnightblue" d="M154.2,-177.42C168.07,-179.04 182.47,-180.73 196.15,-182.33"/>
<polygon fill="midnightblue" stroke="midnightblue" points="196.1,-185.84 206.44,-183.53 196.92,-178.89 196.1,-185.84"/>
</g>
<!-- Node3 -->
<g id="node3" class="node">
<title>Node3</title>
<g id="a_node3"><a xlink:href="classunibrow_1_1Utf16.html#aac66a94947867b52f783c206f7f798ac" target="_top" xlink:title=" ">
<polygon fill="white" stroke="black" points="380,-327 380,-346 583,-346 583,-327 380,-327"/>
<text text-anchor="middle" x="481.5" y="-334" font-family="Helvetica,sans-Serif" font-size="10.00">unibrow::Utf16::CombineSurrogatePair</text>
</a>
</g>
</g>
<!-- Node2&#45;&gt;Node3 -->
<g id="edge2" class="edge">
<title>Node2&#45;&gt;Node3</title>
<path fill="none" stroke="midnightblue" d="M285.77,-270.11C307.48,-281.53 345.58,-300.53 380,-312.5 393.36,-317.14 408.03,-321.21 421.93,-324.6"/>
<polygon fill="midnightblue" stroke="midnightblue" points="421.35,-328.06 431.88,-326.95 422.96,-321.25 421.35,-328.06"/>
</g>
<!-- Node4 -->
<g id="node4" class="node">
<title>Node4</title>
<g id="a_node4"><a xlink:href="classunibrow_1_1Utf16.html#ada29066756f075feb4786ec1b6d50f71" target="_top" xlink:title=" ">
<polygon fill="white" stroke="black" points="625,-213 625,-232 798,-232 798,-213 625,-213"/>
<text text-anchor="middle" x="711.5" y="-220" font-family="Helvetica,sans-Serif" font-size="10.00">unibrow::Utf16::IsLeadSurrogate</text>
</a>
</g>
</g>
<!-- Node2&#45;&gt;Node4 -->
<g id="edge3" class="edge">
<title>Node2&#45;&gt;Node4</title>
<path fill="none" stroke="midnightblue" d="M328.52,-258.43C392.03,-255.88 494.73,-250.72 583,-241.5 602.81,-239.43 624.25,-236.5 643.8,-233.57"/>
<polygon fill="midnightblue" stroke="midnightblue" points="644.47,-237 653.83,-232.03 643.42,-230.08 644.47,-237"/>
</g>
<!-- Node5 -->
<g id="node5" class="node">
<title>Node5</title>
<g id="a_node5"><a xlink:href="classunibrow_1_1Utf16.html#a8ab0761452dd5c57d5a90c6af999b5d7" target="_top" xlink:title=" ">
<polygon fill="white" stroke="black" points="398,-213 398,-232 565,-232 565,-213 398,-213"/>
<text text-anchor="middle" x="481.5" y="-220" font-family="Helvetica,sans-Serif" font-size="10.00">unibrow::Utf16::IsSurrogatePair</text>
</a>
</g>
</g>
<!-- Node2&#45;&gt;Node5 -->
<g id="edge4" class="edge">
<title>Node2&#45;&gt;Node5</title>
<path fill="none" stroke="midnightblue" d="M321.35,-250.96C350.4,-245.77 386.53,-239.3 417.02,-233.85"/>
<polygon fill="midnightblue" stroke="midnightblue" points="417.9,-237.25 427.13,-232.04 416.67,-230.36 417.9,-237.25"/>
</g>
<!-- Node6 -->
<g id="node6" class="node">
<title>Node6</title>
<g id="a_node6"><a xlink:href="classunibrow_1_1Utf16.html#abb3a01f7302f952deaad31b667fd83a8" target="_top" xlink:title=" ">
<polygon fill="white" stroke="black" points="626.5,-270 626.5,-289 796.5,-289 796.5,-270 626.5,-270"/>
<text text-anchor="middle" x="711.5" y="-277" font-family="Helvetica,sans-Serif" font-size="10.00">unibrow::Utf16::IsTrailSurrogate</text>
</a>
</g>
</g>
<!-- Node2&#45;&gt;Node6 -->
<g id="edge7" class="edge">
<title>Node2&#45;&gt;Node6</title>
<path fill="none" stroke="midnightblue" d="M328.62,-269.3C345.24,-271.38 363.29,-273.33 380,-274.5 459.33,-280.04 549.63,-281.05 615.77,-280.81"/>
<polygon fill="midnightblue" stroke="midnightblue" points="616.19,-284.3 626.17,-280.76 616.15,-277.3 616.19,-284.3"/>
</g>
<!-- Node5&#45;&gt;Node4 -->
<g id="edge5" class="edge">
<title>Node5&#45;&gt;Node4</title>
<path fill="none" stroke="midnightblue" d="M565.14,-222.5C581.18,-222.5 598.12,-222.5 614.54,-222.5"/>
<polygon fill="midnightblue" stroke="midnightblue" points="614.69,-226 624.69,-222.5 614.69,-219 614.69,-226"/>
</g>
<!-- Node5&#45;&gt;Node6 -->
<g id="edge6" class="edge">
<title>Node5&#45;&gt;Node6</title>
<path fill="none" stroke="midnightblue" d="M520.66,-232.04C559.63,-241.78 620.22,-256.93 662.44,-267.48"/>
<polygon fill="midnightblue" stroke="midnightblue" points="661.66,-270.9 672.21,-269.93 663.36,-264.11 661.66,-270.9"/>
</g>
<!-- Node8 -->
<g id="node8" class="node">
<title>Node8</title>
<g id="a_node8"><a xlink:href="namespacev8_1_1internal.html#aa6b3743bd5d773c552654f2a6c3efa4a" target="_top" xlink:title=" ">
<polygon fill="white" stroke="black" points="652,-99 652,-118 771,-118 771,-99 652,-99"/>
<text text-anchor="middle" x="711.5" y="-106" font-family="Helvetica,sans-Serif" font-size="10.00">v8::internal::DCHECK</text>
</a>
</g>
</g>
<!-- Node7&#45;&gt;Node8 -->
<g id="edge9" class="edge">
<title>Node7&#45;&gt;Node8</title>
<path fill="none" stroke="midnightblue" d="M344.07,-139.97C427.72,-132.78 560.94,-121.34 641.61,-114.42"/>
<polygon fill="midnightblue" stroke="midnightblue" points="642.01,-117.89 651.67,-113.55 641.41,-110.92 642.01,-117.89"/>
</g>
<!-- Node9&#45;&gt;Node8 -->
<g id="edge11" class="edge">
<title>Node9&#45;&gt;Node8</title>
<path fill="none" stroke="midnightblue" d="M344.21,-86.28C356.19,-87.03 368.43,-87.79 380,-88.5 470.59,-94.07 575.16,-100.38 642,-104.39"/>
<polygon fill="midnightblue" stroke="midnightblue" points="641.8,-107.89 651.99,-104.99 642.22,-100.9 641.8,-107.89"/>
</g>
<!-- Node10 -->
<g id="node10" class="node">
<title>Node10</title>
<g id="a_node10"><a xlink:href="classv8_1_1internal_1_1ConsStringIterator.html#a088fe894852d660946ffb2a935960150" target="_top" xlink:title=" ">
<polygon fill="white" stroke="black" points="416,-0.5 416,-30.5 547,-30.5 547,-0.5 416,-0.5"/>
<text text-anchor="start" x="424" y="-18.5" font-family="Helvetica,sans-Serif" font-size="10.00">v8::internal::ConsString</text>
<text text-anchor="middle" x="481.5" y="-7.5" font-family="Helvetica,sans-Serif" font-size="10.00">Iterator::Next</text>
</a>
</g>
</g>
<!-- Node9&#45;&gt;Node10 -->
<g id="edge12" class="edge">
<title>Node9&#45;&gt;Node10</title>
<path fill="none" stroke="midnightblue" d="M304.68,-66.43C326.36,-57.85 354.48,-47.3 380,-39.5 388.35,-36.95 397.16,-34.5 405.95,-32.21"/>
<polygon fill="midnightblue" stroke="midnightblue" points="407.02,-35.55 415.84,-29.68 405.29,-28.76 407.02,-35.55"/>
</g>
<!-- Node11 -->
<g id="node11" class="node">
<title>Node11</title>
<g id="a_node11"><a xlink:href="classv8_1_1internal_1_1String.html#af304ec459c2694527130185cc15dd569" target="_top" xlink:title=" ">
<polygon fill="white" stroke="black" points="428,-49.5 428,-79.5 535,-79.5 535,-49.5 428,-49.5"/>
<text text-anchor="start" x="436" y="-67.5" font-family="Helvetica,sans-Serif" font-size="10.00">v8::internal::String</text>
<text text-anchor="middle" x="481.5" y="-56.5" font-family="Helvetica,sans-Serif" font-size="10.00">::VisitFlat</text>
</a>
</g>
</g>
<!-- Node9&#45;&gt;Node11 -->
<g id="edge13" class="edge">
<title>Node9&#45;&gt;Node11</title>
<path fill="none" stroke="midnightblue" d="M344.12,-75.41C368.29,-73.48 394.73,-71.36 417.84,-69.51"/>
<polygon fill="midnightblue" stroke="midnightblue" points="418.17,-73 427.86,-68.71 417.61,-66.02 418.17,-73"/>
</g>
<!-- Node11&#45;&gt;Node8 -->
<g id="edge14" class="edge">
<title>Node11&#45;&gt;Node8</title>
<path fill="none" stroke="midnightblue" d="M535.09,-74.65C569.71,-81.33 615.1,-90.09 651.04,-97.02"/>
<polygon fill="midnightblue" stroke="midnightblue" points="650.42,-100.47 660.9,-98.93 651.75,-93.6 650.42,-100.47"/>
</g>
<!-- Node12 -->
<g id="node12" class="node">
<title>Node12</title>
<g id="a_node12"><a xlink:href="classv8_1_1internal_1_1SharedStringAccessGuardIfNeeded.html#a90c21c7e3cfb4babbfa1a35bf606d364" target="_top" xlink:title=" ">
<polygon fill="white" stroke="black" points="623.5,-0.5 623.5,-30.5 799.5,-30.5 799.5,-0.5 623.5,-0.5"/>
<text text-anchor="start" x="631.5" y="-18.5" font-family="Helvetica,sans-Serif" font-size="10.00">v8::internal::SharedString</text>
<text text-anchor="middle" x="711.5" y="-7.5" font-family="Helvetica,sans-Serif" font-size="10.00">AccessGuardIfNeeded::IsNeeded</text>
</a>
</g>
</g>
<!-- Node11&#45;&gt;Node12 -->
<g id="edge15" class="edge">
<title>Node11&#45;&gt;Node12</title>
<path fill="none" stroke="midnightblue" d="M535.09,-53.2C563.34,-47.13 598.75,-39.52 630.34,-32.73"/>
<polygon fill="midnightblue" stroke="midnightblue" points="631.41,-36.08 640.45,-30.55 629.94,-29.23 631.41,-36.08"/>
</g>
<!-- Node13 -->
<g id="node13" class="node">
<title>Node13</title>
<g id="a_node13"><a xlink:href="classv8_1_1internal_1_1SharedStringAccessGuardIfNeeded.html#ab6c21fca52e33d911bf7a47b40ee4264" target="_top" xlink:title=" ">
<polygon fill="white" stroke="black" points="619,-49.5 619,-79.5 804,-79.5 804,-49.5 619,-49.5"/>
<text text-anchor="start" x="627" y="-67.5" font-family="Helvetica,sans-Serif" font-size="10.00">v8::internal::SharedString</text>
<text text-anchor="middle" x="711.5" y="-56.5" font-family="Helvetica,sans-Serif" font-size="10.00">AccessGuardIfNeeded::NotNeeded</text>
</a>
</g>
</g>
<!-- Node11&#45;&gt;Node13 -->
<g id="edge16" class="edge">
<title>Node11&#45;&gt;Node13</title>
<path fill="none" stroke="midnightblue" d="M535.09,-64.5C557.04,-64.5 583.31,-64.5 608.75,-64.5"/>
<polygon fill="midnightblue" stroke="midnightblue" points="608.83,-68 618.83,-64.5 608.83,-61 608.83,-68"/>
</g>
<!-- Node14&#45;&gt;Node4 -->
<g id="edge18" class="edge">
<title>Node14&#45;&gt;Node4</title>
<path fill="none" stroke="midnightblue" d="M327.64,-191.07C391.08,-192.12 494.32,-195.09 583,-203.5 603.39,-205.43 625.5,-208.42 645.5,-211.45"/>
<polygon fill="midnightblue" stroke="midnightblue" points="645.01,-214.91 655.43,-212.98 646.08,-207.99 645.01,-214.91"/>
</g>
<!-- Node14&#45;&gt;Node5 -->
<g id="edge19" class="edge">
<title>Node14&#45;&gt;Node5</title>
<path fill="none" stroke="midnightblue" d="M327.76,-199.5C352.36,-203.2 381.1,-207.53 406.98,-211.43"/>
<polygon fill="midnightblue" stroke="midnightblue" points="406.7,-214.93 417.11,-212.95 407.74,-208 406.7,-214.93"/>
</g>
</g>
</svg>
        <g id="navigator" transform="translate(0 0)" fill="#404254">
                <rect fill="#f2f5e9" fill-opacity="0.5" stroke="#606060" stroke-width=".5" x="0" y="0" width="60" height="60"/>
                <use id="zoomplus" xlink:href="#zoomPlus" x="17" y="9" onmousedown="handleZoom(evt,'in')"/>
                <use id="zoomminus" xlink:href="#zoomMin" x="42" y="9" onmousedown="handleZoom(evt,'out')"/>
                <use id="reset" xlink:href="#resetDef" x="30" y="36" onmousedown="handleReset()"/>
                <g id="arrowUp" xlink:href="#dirArrow" transform="translate(30 24)" onmousedown="handlePan(0,-1)">
                  <use xlink:href="#rim" fill="#404040">
                        <set attributeName="fill" to="#808080" begin="arrowUp.mouseover" end="arrowUp.mouseout"/>
                  </use>
                  <path fill="none" stroke="white" stroke-width="1.5" d="M0,-3.0v7 M-2.5,-0.5L0,-3.0L2.5,-0.5"/>
                </g>
                <g id="arrowRight" xlink:href="#dirArrow" transform="rotate(90) translate(36 -43)" onmousedown="handlePan(1,0)">
                  <use xlink:href="#rim" fill="#404040">
                        <set attributeName="fill" to="#808080" begin="arrowRight.mouseover" end="arrowRight.mouseout"/>
                  </use>
                  <path fill="none" stroke="white" stroke-width="1.5" d="M0,-3.0v7 M-2.5,-0.5L0,-3.0L2.5,-0.5"/>
                </g>
                <g id="arrowDown" xlink:href="#dirArrow" transform="rotate(180) translate(-30 -48)" onmousedown="handlePan(0,1)">
                  <use xlink:href="#rim" fill="#404040">
                        <set attributeName="fill" to="#808080" begin="arrowDown.mouseover" end="arrowDown.mouseout"/>
                  </use>
                  <path fill="none" stroke="white" stroke-width="1.5" d="M0,-3.0v7 M-2.5,-0.5L0,-3.0L2.5,-0.5"/>
                </g>
                <g id="arrowLeft" xlink:href="#dirArrow" transform="rotate(270) translate(-36 17)" onmousedown="handlePan(-1,0)">
                  <use xlink:href="#rim" fill="#404040">
                        <set attributeName="fill" to="#808080" begin="arrowLeft.mouseover" end="arrowLeft.mouseout"/>
                  </use>
                  <path fill="none" stroke="white" stroke-width="1.5" d="M0,-3.0v7 M-2.5,-0.5L0,-3.0L2.5,-0.5"/>
                </g>
        </g>
        <svg viewBox="0 0 15 15" width="100%" height="30px" preserveAspectRatio="xMaxYMin meet">
         <g id="arrow_out" transform="scale(0.3 0.3)">
          <a xlink:href="classv8_1_1internal_1_1StringCharacterStream_a5c1516f0eb8ef18fc946d3d3b950bf80_cgraph_org.svg" target="_base">
           <rect id="button" ry="5" rx="5" y="6" x="6" height="38" width="38"
                fill="#f2f5e9" fill-opacity="0.5" stroke="#606060" stroke-width="1.0"/>
           <path id="arrow"
             d="M 11.500037,31.436501 C 11.940474,20.09759 22.043105,11.32322 32.158766,21.979434 L 37.068811,17.246167 C 37.068811,17.246167 37.088388,32 37.088388,32 L 22.160133,31.978069 C 22.160133,31.978069 26.997745,27.140456 26.997745,27.140456 C 18.528582,18.264221 13.291696,25.230495 11.500037,31.436501 z"
             style="fill:#404040;"/>
          </a>
         </g>
        </svg>
</svg>
