<?xml version="1.0" encoding="UTF-8" standalone="no"?>
<!DOCTYPE svg PUBLIC "-//W3C//DTD SVG 1.1//EN"
 "http://www.w3.org/Graphics/SVG/1.1/DTD/svg11.dtd">
<!-- Generated by graphviz version 2.43.0 (0)
 -->
<!-- Title: v8::internal::Debug::ThreadLocal Pages: 1 -->
<svg width="866pt" height="1267pt"
 viewBox="0.00 0.00 865.50 1267.00" xmlns="http://www.w3.org/2000/svg" xmlns:xlink="http://www.w3.org/1999/xlink">
<g id="graph0" class="graph" transform="scale(1 1) rotate(0) translate(4 1263)">
<title>v8::internal::Debug::ThreadLocal</title>
<polygon fill="white" stroke="transparent" points="-4,4 -4,-1263 861.5,-1263 861.5,4 -4,4"/>
<!-- Node1 -->
<g id="node1" class="node">
<title>Node1</title>
<g id="a_node1"><a xlink:title=" ">
<polygon fill="#bfbfbf" stroke="black" points="318.5,-0.5 318.5,-68.5 428.5,-68.5 428.5,-0.5 318.5,-0.5"/>
<text text-anchor="start" x="326.5" y="-56.5" font-family="Helvetica,sans-Serif" font-size="10.00">v8::internal::Debug</text>
<text text-anchor="middle" x="373.5" y="-45.5" font-family="Helvetica,sans-Serif" font-size="10.00">::ThreadLocal</text>
<polyline fill="none" stroke="black" points="318.5,-38.5 428.5,-38.5 "/>
<text text-anchor="middle" x="373.5" y="-26.5" font-family="Helvetica,sans-Serif" font-size="10.00"> </text>
<polyline fill="none" stroke="black" points="318.5,-19.5 428.5,-19.5 "/>
<text text-anchor="middle" x="373.5" y="-7.5" font-family="Helvetica,sans-Serif" font-size="10.00"> </text>
</a>
</g>
</g>
<!-- Node2 -->
<g id="node2" class="node">
<title>Node2</title>
<g id="a_node2"><a xlink:title=" ">
<polygon fill="white" stroke="#bfbfbf" points="0,-342 0,-399 63,-399 63,-342 0,-342"/>
<text text-anchor="middle" x="31.5" y="-387" font-family="Helvetica,sans-Serif" font-size="10.00">Atomic32</text>
<polyline fill="none" stroke="#bfbfbf" points="0,-380 63,-380 "/>
<text text-anchor="middle" x="31.5" y="-368" font-family="Helvetica,sans-Serif" font-size="10.00"> </text>
<polyline fill="none" stroke="#bfbfbf" points="0,-361 63,-361 "/>
<text text-anchor="middle" x="31.5" y="-349" font-family="Helvetica,sans-Serif" font-size="10.00"> </text>
</a>
</g>
</g>
<!-- Node2&#45;&gt;Node1 -->
<g id="edge1" class="edge">
<title>Node2&#45;&gt;Node1</title>
<path fill="none" stroke="#404040" d="M21.99,-341.67C4.84,-285.75 -23.97,-158.92 39.5,-87 73.67,-48.28 218.77,-38.46 306.09,-36.1"/>
<polygon fill="none" stroke="#404040" points="306.28,-36.1 312.18,-31.96 318.27,-35.81 312.37,-39.95 306.28,-36.1"/>
<text text-anchor="middle" x="100" y="-156" font-family="Helvetica,sans-Serif" font-size="10.00"> +current_debug_scope_</text>
</g>
<!-- Node3 -->
<g id="node3" class="node">
<title>Node3</title>
<g id="a_node3"><a xlink:title=" ">
<polygon fill="white" stroke="#bfbfbf" points="134,-342 134,-399 217,-399 217,-342 134,-342"/>
<text text-anchor="middle" x="175.5" y="-387" font-family="Helvetica,sans-Serif" font-size="10.00">StackFrameId</text>
<polyline fill="none" stroke="#bfbfbf" points="134,-380 217,-380 "/>
<text text-anchor="middle" x="175.5" y="-368" font-family="Helvetica,sans-Serif" font-size="10.00"> </text>
<polyline fill="none" stroke="#bfbfbf" points="134,-361 217,-361 "/>
<text text-anchor="middle" x="175.5" y="-349" font-family="Helvetica,sans-Serif" font-size="10.00"> </text>
</a>
</g>
</g>
<!-- Node3&#45;&gt;Node1 -->
<g id="edge2" class="edge">
<title>Node3&#45;&gt;Node1</title>
<path fill="none" stroke="#404040" d="M172.27,-341.82C165.52,-278.55 152.91,-125.83 183.5,-87 198.85,-67.51 257.91,-53.56 306.16,-45.14"/>
<polygon fill="none" stroke="#404040" points="306.32,-45.11 311.58,-40.17 318.16,-43.12 312.91,-48.06 306.32,-45.11"/>
<text text-anchor="middle" x="231" y="-161.5" font-family="Helvetica,sans-Serif" font-size="10.00"> +break_frame_id_</text>
<text text-anchor="middle" x="231" y="-150.5" font-family="Helvetica,sans-Serif" font-size="10.00">+restart_frame_id_</text>
</g>
<!-- Node4 -->
<g id="node4" class="node">
<title>Node4</title>
<g id="a_node4"><a xlink:href="classv8_1_1internal_1_1Tagged.html" target="_top" xlink:title=" ">
<polygon fill="white" stroke="black" points="235.5,-248.5 235.5,-492.5 367.5,-492.5 367.5,-248.5 235.5,-248.5"/>
<text text-anchor="start" x="243.5" y="-480.5" font-family="Helvetica,sans-Serif" font-size="10.00">v8::internal::Tagged</text>
<text text-anchor="middle" x="301.5" y="-469.5" font-family="Helvetica,sans-Serif" font-size="10.00">&lt; v8::internal::Object &gt;</text>
<polyline fill="none" stroke="black" points="235.5,-462.5 367.5,-462.5 "/>
<text text-anchor="start" x="243.5" y="-450.5" font-family="Helvetica,sans-Serif" font-size="10.00">+ T</text>
<text text-anchor="start" x="243.5" y="-439.5" font-family="Helvetica,sans-Serif" font-size="10.00">+ T</text>
<text text-anchor="start" x="243.5" y="-428.5" font-family="Helvetica,sans-Serif" font-size="10.00">+ this</text>
<text text-anchor="start" x="243.5" y="-417.5" font-family="Helvetica,sans-Serif" font-size="10.00">&#45; T</text>
<polyline fill="none" stroke="black" points="235.5,-410.5 367.5,-410.5 "/>
<text text-anchor="start" x="243.5" y="-398.5" font-family="Helvetica,sans-Serif" font-size="10.00">+ Tagged()</text>
<text text-anchor="start" x="243.5" y="-387.5" font-family="Helvetica,sans-Serif" font-size="10.00">+ Tagged()</text>
<text text-anchor="start" x="243.5" y="-376.5" font-family="Helvetica,sans-Serif" font-size="10.00">+ Tagged()</text>
<text text-anchor="start" x="243.5" y="-365.5" font-family="Helvetica,sans-Serif" font-size="10.00">+ Tagged()</text>
<text text-anchor="start" x="243.5" y="-354.5" font-family="Helvetica,sans-Serif" font-size="10.00">+ operator=()</text>
<text text-anchor="start" x="243.5" y="-343.5" font-family="Helvetica,sans-Serif" font-size="10.00">+ operator&#45;&gt;()</text>
<text text-anchor="start" x="243.5" y="-332.5" font-family="Helvetica,sans-Serif" font-size="10.00">+ cast()</text>
<text text-anchor="start" x="243.5" y="-321.5" font-family="Helvetica,sans-Serif" font-size="10.00">&#45; Tagged()</text>
<text text-anchor="start" x="243.5" y="-310.5" font-family="Helvetica,sans-Serif" font-size="10.00">&#45; operator_star_impl()</text>
<text text-anchor="start" x="243.5" y="-299.5" font-family="Helvetica,sans-Serif" font-size="10.00">&#45; operator_star_impl()</text>
<text text-anchor="start" x="243.5" y="-288.5" font-family="Helvetica,sans-Serif" font-size="10.00">&#45; operator_arrow_impl()</text>
<text text-anchor="start" x="243.5" y="-277.5" font-family="Helvetica,sans-Serif" font-size="10.00">&#45; operator_arrow_impl()</text>
<text text-anchor="start" x="243.5" y="-266.5" font-family="Helvetica,sans-Serif" font-size="10.00">&#45; ToRawPtr()</text>
<text text-anchor="start" x="243.5" y="-255.5" font-family="Helvetica,sans-Serif" font-size="10.00">&#45; ToRawPtr()</text>
</a>
</g>
</g>
<!-- Node4&#45;&gt;Node1 -->
<g id="edge3" class="edge">
<title>Node4&#45;&gt;Node1</title>
<path fill="none" stroke="#404040" d="M286.72,-248.21C281.28,-184.68 279.6,-114.5 294.5,-87 298.19,-80.2 303.2,-74.15 308.93,-68.82"/>
<polygon fill="none" stroke="#404040" points="309.16,-68.63 311.26,-61.73 318.44,-61.01 316.34,-67.91 309.16,-68.63"/>
<text text-anchor="start" x="294.5" y="-178" font-family="Helvetica,sans-Serif" font-size="10.00"> +ignore_step_into_function</text>
<text text-anchor="middle" x="363.5" y="-167" font-family="Helvetica,sans-Serif" font-size="10.00">_</text>
<text text-anchor="middle" x="363.5" y="-156" font-family="Helvetica,sans-Serif" font-size="10.00">+muted_function_</text>
<text text-anchor="middle" x="363.5" y="-145" font-family="Helvetica,sans-Serif" font-size="10.00">+return_value_</text>
<text text-anchor="middle" x="363.5" y="-134" font-family="Helvetica,sans-Serif" font-size="10.00">+suspended_generator_</text>
</g>
<!-- Node5 -->
<g id="node5" class="node">
<title>Node5</title>
<g id="a_node5"><a xlink:href="classv8_1_1internal_1_1Tagged_3_01HeapObject_01_4.html" target="_top" xlink:title=" ">
<polygon fill="white" stroke="black" points="359.5,-788.5 359.5,-999.5 483.5,-999.5 483.5,-788.5 359.5,-788.5"/>
<text text-anchor="start" x="367.5" y="-987.5" font-family="Helvetica,sans-Serif" font-size="10.00">detail::BaseForTagged</text>
<text text-anchor="start" x="367.5" y="-976.5" font-family="Helvetica,sans-Serif" font-size="10.00">&lt; v8::internal::Object</text>
<text text-anchor="middle" x="421.5" y="-965.5" font-family="Helvetica,sans-Serif" font-size="10.00"> &gt;::type</text>
<polyline fill="none" stroke="black" points="359.5,-958.5 483.5,-958.5 "/>
<text text-anchor="middle" x="421.5" y="-946.5" font-family="Helvetica,sans-Serif" font-size="10.00"> </text>
<polyline fill="none" stroke="black" points="359.5,-939.5 483.5,-939.5 "/>
<text text-anchor="start" x="367.5" y="-927.5" font-family="Helvetica,sans-Serif" font-size="10.00">+ Tagged()</text>
<text text-anchor="start" x="367.5" y="-916.5" font-family="Helvetica,sans-Serif" font-size="10.00">+ Tagged()</text>
<text text-anchor="start" x="367.5" y="-905.5" font-family="Helvetica,sans-Serif" font-size="10.00">+ operator=()</text>
<text text-anchor="start" x="367.5" y="-894.5" font-family="Helvetica,sans-Serif" font-size="10.00">+ Tagged()</text>
<text text-anchor="start" x="367.5" y="-883.5" font-family="Helvetica,sans-Serif" font-size="10.00">+ operator&#45;&gt;()</text>
<text text-anchor="start" x="367.5" y="-872.5" font-family="Helvetica,sans-Serif" font-size="10.00">+ is_null()</text>
<text text-anchor="start" x="367.5" y="-861.5" font-family="Helvetica,sans-Serif" font-size="10.00">+ IsHeapObject()</text>
<text text-anchor="start" x="367.5" y="-850.5" font-family="Helvetica,sans-Serif" font-size="10.00">+ IsSmi()</text>
<text text-anchor="start" x="367.5" y="-839.5" font-family="Helvetica,sans-Serif" font-size="10.00">+ Tagged()</text>
<text text-anchor="start" x="367.5" y="-828.5" font-family="Helvetica,sans-Serif" font-size="10.00">+ address()</text>
<text text-anchor="start" x="367.5" y="-817.5" font-family="Helvetica,sans-Serif" font-size="10.00">+ cast()</text>
<text text-anchor="start" x="367.5" y="-806.5" font-family="Helvetica,sans-Serif" font-size="10.00"># Tagged()</text>
<text text-anchor="start" x="367.5" y="-795.5" font-family="Helvetica,sans-Serif" font-size="10.00">&#45; ToRawPtr()</text>
</a>
</g>
</g>
<!-- Node5&#45;&gt;Node4 -->
<g id="edge4" class="edge">
<title>Node5&#45;&gt;Node4</title>
<path fill="none" stroke="midnightblue" d="M407.17,-778.32C396.21,-701.79 378.8,-599.38 354.5,-511 352.85,-505 351.05,-498.91 349.13,-492.78"/>
<polygon fill="none" stroke="midnightblue" points="403.74,-779.05 408.61,-788.46 410.67,-778.07 403.74,-779.05"/>
</g>
<!-- Node6 -->
<g id="node6" class="node">
<title>Node6</title>
<g id="a_node6"><a xlink:href="classv8_1_1internal_1_1TaggedImpl.html" target="_top" xlink:title=" ">
<polygon fill="white" stroke="red" points="355,-1047.5 355,-1258.5 462,-1258.5 462,-1047.5 355,-1047.5"/>
<text text-anchor="middle" x="408.5" y="-1246.5" font-family="Helvetica,sans-Serif" font-size="10.00">StrongTaggedBase</text>
<polyline fill="none" stroke="red" points="355,-1239.5 462,-1239.5 "/>
<text text-anchor="start" x="363" y="-1227.5" font-family="Helvetica,sans-Serif" font-size="10.00">+ kIsFull</text>
<text text-anchor="start" x="363" y="-1216.5" font-family="Helvetica,sans-Serif" font-size="10.00">+ kCanBeWeak</text>
<text text-anchor="start" x="363" y="-1205.5" font-family="Helvetica,sans-Serif" font-size="10.00">&#45; ptr_</text>
<polyline fill="none" stroke="red" points="355,-1198.5 462,-1198.5 "/>
<text text-anchor="start" x="363" y="-1186.5" font-family="Helvetica,sans-Serif" font-size="10.00">+ TaggedImpl()</text>
<text text-anchor="start" x="363" y="-1175.5" font-family="Helvetica,sans-Serif" font-size="10.00">+ TaggedImpl()</text>
<text text-anchor="start" x="363" y="-1164.5" font-family="Helvetica,sans-Serif" font-size="10.00">+ operator bool()</text>
<text text-anchor="start" x="363" y="-1153.5" font-family="Helvetica,sans-Serif" font-size="10.00">+ operator==()</text>
<text text-anchor="start" x="363" y="-1142.5" font-family="Helvetica,sans-Serif" font-size="10.00">+ operator!=()</text>
<text text-anchor="start" x="363" y="-1131.5" font-family="Helvetica,sans-Serif" font-size="10.00">+ SafeEquals()</text>
<text text-anchor="start" x="363" y="-1120.5" font-family="Helvetica,sans-Serif" font-size="10.00">+ operator&lt;()</text>
<text text-anchor="start" x="363" y="-1109.5" font-family="Helvetica,sans-Serif" font-size="10.00">+ ptr()</text>
<text text-anchor="start" x="363" y="-1098.5" font-family="Helvetica,sans-Serif" font-size="10.00">+ IsObject()</text>
<text text-anchor="start" x="363" y="-1087.5" font-family="Helvetica,sans-Serif" font-size="10.00">+ IsSmi()</text>
<text text-anchor="start" x="363" y="-1076.5" font-family="Helvetica,sans-Serif" font-size="10.00">and 26 more...</text>
<text text-anchor="start" x="363" y="-1065.5" font-family="Helvetica,sans-Serif" font-size="10.00"># ptr_location()</text>
<text text-anchor="start" x="363" y="-1054.5" font-family="Helvetica,sans-Serif" font-size="10.00"># ptr_location()</text>
</a>
</g>
</g>
<!-- Node6&#45;&gt;Node5 -->
<g id="edge5" class="edge">
<title>Node6&#45;&gt;Node5</title>
<path fill="none" stroke="midnightblue" d="M414.29,-1037.47C414.93,-1024.95 415.57,-1012.25 416.2,-999.86"/>
<polygon fill="none" stroke="midnightblue" points="410.8,-1037.3 413.79,-1047.47 417.79,-1037.66 410.8,-1037.3"/>
</g>
<!-- Node12 -->
<g id="node9" class="node">
<title>Node12</title>
<g id="a_node9"><a xlink:href="classv8_1_1internal_1_1Tagged_3_01HeapObject_01_4.html" target="_top" xlink:title=" ">
<polygon fill="white" stroke="black" points="217.5,-794 217.5,-994 341.5,-994 341.5,-794 217.5,-794"/>
<text text-anchor="start" x="225.5" y="-982" font-family="Helvetica,sans-Serif" font-size="10.00">detail::BaseForTagged</text>
<text text-anchor="middle" x="279.5" y="-971" font-family="Helvetica,sans-Serif" font-size="10.00">&lt; T &gt;::type</text>
<polyline fill="none" stroke="black" points="217.5,-964 341.5,-964 "/>
<text text-anchor="middle" x="279.5" y="-952" font-family="Helvetica,sans-Serif" font-size="10.00"> </text>
<polyline fill="none" stroke="black" points="217.5,-945 341.5,-945 "/>
<text text-anchor="start" x="225.5" y="-933" font-family="Helvetica,sans-Serif" font-size="10.00">+ Tagged()</text>
<text text-anchor="start" x="225.5" y="-922" font-family="Helvetica,sans-Serif" font-size="10.00">+ Tagged()</text>
<text text-anchor="start" x="225.5" y="-911" font-family="Helvetica,sans-Serif" font-size="10.00">+ operator=()</text>
<text text-anchor="start" x="225.5" y="-900" font-family="Helvetica,sans-Serif" font-size="10.00">+ Tagged()</text>
<text text-anchor="start" x="225.5" y="-889" font-family="Helvetica,sans-Serif" font-size="10.00">+ operator&#45;&gt;()</text>
<text text-anchor="start" x="225.5" y="-878" font-family="Helvetica,sans-Serif" font-size="10.00">+ is_null()</text>
<text text-anchor="start" x="225.5" y="-867" font-family="Helvetica,sans-Serif" font-size="10.00">+ IsHeapObject()</text>
<text text-anchor="start" x="225.5" y="-856" font-family="Helvetica,sans-Serif" font-size="10.00">+ IsSmi()</text>
<text text-anchor="start" x="225.5" y="-845" font-family="Helvetica,sans-Serif" font-size="10.00">+ Tagged()</text>
<text text-anchor="start" x="225.5" y="-834" font-family="Helvetica,sans-Serif" font-size="10.00">+ address()</text>
<text text-anchor="start" x="225.5" y="-823" font-family="Helvetica,sans-Serif" font-size="10.00">+ cast()</text>
<text text-anchor="start" x="225.5" y="-812" font-family="Helvetica,sans-Serif" font-size="10.00"># Tagged()</text>
<text text-anchor="start" x="225.5" y="-801" font-family="Helvetica,sans-Serif" font-size="10.00">&#45; ToRawPtr()</text>
</a>
</g>
</g>
<!-- Node6&#45;&gt;Node12 -->
<g id="edge9" class="edge">
<title>Node6&#45;&gt;Node12</title>
<path fill="none" stroke="midnightblue" d="M393.7,-1037.64C390.58,-1030.7 386.89,-1024.08 382.5,-1018 372.95,-1004.77 362.5,-1011.05 350.5,-1000 347.59,-997.32 344.73,-994.49 341.94,-991.56"/>
<polygon fill="none" stroke="midnightblue" points="390.6,-1039.31 397.59,-1047.27 397.09,-1036.69 390.6,-1039.31"/>
</g>
<!-- Node10 -->
<g id="node7" class="node">
<title>Node10</title>
<g id="a_node7"><a xlink:title=" ">
<polygon fill="white" stroke="#bfbfbf" points="188,-1124.5 188,-1181.5 253,-1181.5 253,-1124.5 188,-1124.5"/>
<text text-anchor="middle" x="220.5" y="-1169.5" font-family="Helvetica,sans-Serif" font-size="10.00">constexpr</text>
<polyline fill="none" stroke="#bfbfbf" points="188,-1162.5 253,-1162.5 "/>
<text text-anchor="middle" x="220.5" y="-1150.5" font-family="Helvetica,sans-Serif" font-size="10.00"> </text>
<polyline fill="none" stroke="#bfbfbf" points="188,-1143.5 253,-1143.5 "/>
<text text-anchor="middle" x="220.5" y="-1131.5" font-family="Helvetica,sans-Serif" font-size="10.00"> </text>
</a>
</g>
</g>
<!-- Node10&#45;&gt;Node5 -->
<g id="edge6" class="edge">
<title>Node10&#45;&gt;Node5</title>
<path fill="none" stroke="#404040" d="M245.68,-1124.49C272.61,-1094.64 316.09,-1045.16 350.5,-1000 351.05,-999.28 351.6,-998.55 352.15,-997.82"/>
<polygon fill="none" stroke="#404040" points="352.18,-997.79 352.55,-990.58 359.34,-988.15 358.97,-995.36 352.18,-997.79"/>
<text text-anchor="middle" x="368" y="-1021" font-family="Helvetica,sans-Serif" font-size="10.00"> +HeapObject</text>
</g>
<!-- Node11 -->
<g id="node8" class="node">
<title>Node11</title>
<g id="a_node8"><a xlink:href="classv8_1_1internal_1_1Tagged.html" target="_top" xlink:title=" ">
<polygon fill="white" stroke="black" points="111,-540.5 111,-740.5 252,-740.5 252,-540.5 111,-540.5"/>
<text text-anchor="middle" x="181.5" y="-728.5" font-family="Helvetica,sans-Serif" font-size="10.00">v8::internal::Tagged&lt; T &gt;</text>
<polyline fill="none" stroke="black" points="111,-721.5 252,-721.5 "/>
<text text-anchor="middle" x="181.5" y="-709.5" font-family="Helvetica,sans-Serif" font-size="10.00"> </text>
<polyline fill="none" stroke="black" points="111,-702.5 252,-702.5 "/>
<text text-anchor="start" x="119" y="-690.5" font-family="Helvetica,sans-Serif" font-size="10.00">+ Tagged()</text>
<text text-anchor="start" x="119" y="-679.5" font-family="Helvetica,sans-Serif" font-size="10.00">+ Tagged()</text>
<text text-anchor="start" x="119" y="-668.5" font-family="Helvetica,sans-Serif" font-size="10.00">+ operator=()</text>
<text text-anchor="start" x="119" y="-657.5" font-family="Helvetica,sans-Serif" font-size="10.00">+ Tagged()</text>
<text text-anchor="start" x="119" y="-646.5" font-family="Helvetica,sans-Serif" font-size="10.00">+ operator&#45;&gt;()</text>
<text text-anchor="start" x="119" y="-635.5" font-family="Helvetica,sans-Serif" font-size="10.00">+ Tagged()</text>
<text text-anchor="start" x="119" y="-624.5" font-family="Helvetica,sans-Serif" font-size="10.00">+ cast()</text>
<text text-anchor="start" x="119" y="-613.5" font-family="Helvetica,sans-Serif" font-size="10.00">&#45; Tagged()</text>
<text text-anchor="start" x="119" y="-602.5" font-family="Helvetica,sans-Serif" font-size="10.00">&#45; operator_star_impl()</text>
<text text-anchor="start" x="119" y="-591.5" font-family="Helvetica,sans-Serif" font-size="10.00">&#45; operator_arrow_impl()</text>
<text text-anchor="start" x="119" y="-580.5" font-family="Helvetica,sans-Serif" font-size="10.00">&#45; operator_star_impl()</text>
<text text-anchor="start" x="119" y="-569.5" font-family="Helvetica,sans-Serif" font-size="10.00">&#45; operator_arrow_impl()</text>
<text text-anchor="start" x="119" y="-558.5" font-family="Helvetica,sans-Serif" font-size="10.00">&#45; ToRawPtr()</text>
<text text-anchor="start" x="119" y="-547.5" font-family="Helvetica,sans-Serif" font-size="10.00">&#45; ToRawPtr()</text>
</a>
</g>
</g>
<!-- Node10&#45;&gt;Node11 -->
<g id="edge11" class="edge">
<title>Node10&#45;&gt;Node11</title>
<path fill="none" stroke="#404040" d="M213.6,-1124.48C206.36,-1094.2 195.36,-1043.98 190.5,-1000 181.39,-917.52 179.33,-823.74 179.44,-752.79"/>
<polygon fill="none" stroke="#404040" points="179.44,-752.71 175.46,-746.7 179.48,-740.71 183.46,-746.73 179.44,-752.71"/>
<text text-anchor="middle" x="199.5" y="-891.5" font-family="Helvetica,sans-Serif" font-size="10.00"> +T</text>
</g>
<!-- Node10&#45;&gt;Node12 -->
<g id="edge10" class="edge">
<title>Node10&#45;&gt;Node12</title>
<path fill="none" stroke="#404040" d="M217.28,-1124.4C214.89,-1097.02 213.28,-1054.07 221.5,-1018 222.43,-1013.91 223.52,-1009.79 224.73,-1005.66"/>
<polygon fill="none" stroke="#404040" points="224.78,-1005.49 222.8,-998.56 228.44,-994.06 230.42,-1001 224.78,-1005.49"/>
<text text-anchor="middle" x="256" y="-1021" font-family="Helvetica,sans-Serif" font-size="10.00"> +HeapObject</text>
</g>
<!-- Node11&#45;&gt;Node4 -->
<g id="edge7" class="edge">
<title>Node11&#45;&gt;Node4</title>
<path fill="none" stroke="orange" d="M226.66,-531.08C229.62,-524.27 232.58,-517.53 235.5,-511 238.18,-505.01 240.94,-498.88 243.76,-492.71"/>
<polygon fill="orange" stroke="orange" points="223.39,-529.82 222.63,-540.39 229.81,-532.6 223.39,-529.82"/>
<text text-anchor="middle" x="295" y="-514" font-family="Helvetica,sans-Serif" font-size="10.00"> &lt; v8::internal::Object &gt;</text>
</g>
<!-- Node11&#45;&gt;Node11 -->
<g id="edge12" class="edge">
<title>Node11&#45;&gt;Node11</title>
<path fill="none" stroke="#404040" d="M252.33,-661.59C262.87,-658.31 270,-651.28 270,-640.5 270,-634.1 267.49,-629.02 263.24,-625.27"/>
<polygon fill="none" stroke="#404040" points="262.9,-625.08 255.72,-625.77 252.33,-619.41 259.5,-618.72 262.9,-625.08"/>
<text text-anchor="middle" x="279" y="-638" font-family="Helvetica,sans-Serif" font-size="10.00"> +T</text>
</g>
<!-- Node12&#45;&gt;Node11 -->
<g id="edge8" class="edge">
<title>Node12&#45;&gt;Node11</title>
<path fill="none" stroke="midnightblue" d="M237.22,-784.49C231.57,-769.99 225.8,-755.19 220.22,-740.86"/>
<polygon fill="none" stroke="midnightblue" points="234.02,-785.91 240.91,-793.96 240.54,-783.37 234.02,-785.91"/>
</g>
<!-- Node13 -->
<g id="node10" class="node">
<title>Node13</title>
<g id="a_node10"><a xlink:title=" ">
<polygon fill="white" stroke="#bfbfbf" points="27.5,-865.5 27.5,-922.5 81.5,-922.5 81.5,-865.5 27.5,-865.5"/>
<text text-anchor="middle" x="54.5" y="-910.5" font-family="Helvetica,sans-Serif" font-size="10.00">return *</text>
<polyline fill="none" stroke="#bfbfbf" points="27.5,-903.5 81.5,-903.5 "/>
<text text-anchor="middle" x="54.5" y="-891.5" font-family="Helvetica,sans-Serif" font-size="10.00"> </text>
<polyline fill="none" stroke="#bfbfbf" points="27.5,-884.5 81.5,-884.5 "/>
<text text-anchor="middle" x="54.5" y="-872.5" font-family="Helvetica,sans-Serif" font-size="10.00"> </text>
</a>
</g>
</g>
<!-- Node13&#45;&gt;Node11 -->
<g id="edge13" class="edge">
<title>Node13&#45;&gt;Node11</title>
<path fill="none" stroke="#404040" d="M62.18,-865.14C68.56,-843.58 78.52,-813.24 90.5,-788 96.26,-775.87 102.79,-763.49 109.65,-751.32"/>
<polygon fill="none" stroke="#404040" points="109.78,-751.1 109.3,-743.9 115.76,-740.69 116.24,-747.89 109.78,-751.1"/>
<text text-anchor="middle" x="118.5" y="-762" font-family="Helvetica,sans-Serif" font-size="10.00"> +this</text>
</g>
<!-- Node14 -->
<g id="node11" class="node">
<title>Node14</title>
<g id="a_node11"><a xlink:title=" ">
<polygon fill="white" stroke="#bfbfbf" points="100,-865.5 100,-922.5 145,-922.5 145,-865.5 100,-865.5"/>
<text text-anchor="middle" x="122.5" y="-910.5" font-family="Helvetica,sans-Serif" font-size="10.00">friend</text>
<polyline fill="none" stroke="#bfbfbf" points="100,-903.5 145,-903.5 "/>
<text text-anchor="middle" x="122.5" y="-891.5" font-family="Helvetica,sans-Serif" font-size="10.00"> </text>
<polyline fill="none" stroke="#bfbfbf" points="100,-884.5 145,-884.5 "/>
<text text-anchor="middle" x="122.5" y="-872.5" font-family="Helvetica,sans-Serif" font-size="10.00"> </text>
</a>
</g>
</g>
<!-- Node14&#45;&gt;Node11 -->
<g id="edge14" class="edge">
<title>Node14&#45;&gt;Node11</title>
<path fill="none" stroke="#404040" d="M129.04,-865.12C135.47,-837.71 145.71,-794.06 155.44,-752.57"/>
<polygon fill="none" stroke="#404040" points="155.5,-752.33 152.98,-745.58 158.24,-740.65 160.76,-747.4 155.5,-752.33"/>
<text text-anchor="middle" x="161" y="-762" font-family="Helvetica,sans-Serif" font-size="10.00"> &#45;T</text>
</g>
<!-- Node15 -->
<g id="node12" class="node">
<title>Node15</title>
<g id="a_node12"><a xlink:title=" ">
<polygon fill="white" stroke="#bfbfbf" points="420,-342 420,-399 489,-399 489,-342 420,-342"/>
<text text-anchor="middle" x="454.5" y="-387" font-family="Helvetica,sans-Serif" font-size="10.00">StepAction</text>
<polyline fill="none" stroke="#bfbfbf" points="420,-380 489,-380 "/>
<text text-anchor="middle" x="454.5" y="-368" font-family="Helvetica,sans-Serif" font-size="10.00"> </text>
<polyline fill="none" stroke="#bfbfbf" points="420,-361 489,-361 "/>
<text text-anchor="middle" x="454.5" y="-349" font-family="Helvetica,sans-Serif" font-size="10.00"> </text>
</a>
</g>
</g>
<!-- Node15&#45;&gt;Node1 -->
<g id="edge15" class="edge">
<title>Node15&#45;&gt;Node1</title>
<path fill="none" stroke="#404040" d="M454.97,-341.64C455.59,-279.4 454.63,-131.07 432.5,-87 430.93,-83.87 429.07,-80.84 427.01,-77.94"/>
<polygon fill="none" stroke="#404040" points="426.9,-77.81 420.01,-75.71 419.29,-68.53 426.19,-70.63 426.9,-77.81"/>
<text text-anchor="middle" x="501" y="-156" font-family="Helvetica,sans-Serif" font-size="10.00"> +last_step_action_</text>
</g>
<!-- Node16 -->
<g id="node13" class="node">
<title>Node16</title>
<g id="a_node13"><a xlink:href="classint.html" target="_top" xlink:title=" ">
<polygon fill="white" stroke="black" points="560,-342 560,-399 589,-399 589,-342 560,-342"/>
<text text-anchor="middle" x="574.5" y="-387" font-family="Helvetica,sans-Serif" font-size="10.00">int</text>
<polyline fill="none" stroke="black" points="560,-380 589,-380 "/>
<text text-anchor="middle" x="574.5" y="-368" font-family="Helvetica,sans-Serif" font-size="10.00"> </text>
<polyline fill="none" stroke="black" points="560,-361 589,-361 "/>
<text text-anchor="middle" x="574.5" y="-349" font-family="Helvetica,sans-Serif" font-size="10.00"> </text>
</a>
</g>
</g>
<!-- Node16&#45;&gt;Node1 -->
<g id="edge16" class="edge">
<title>Node16&#45;&gt;Node1</title>
<path fill="none" stroke="#404040" d="M574.11,-341.67C572.91,-274.29 568.36,-106.44 552.5,-87 538.08,-69.33 485.2,-55.49 440.63,-46.63"/>
<polygon fill="none" stroke="#404040" points="440.39,-46.59 433.75,-49.38 428.61,-44.32 435.26,-41.53 440.39,-46.59"/>
<text text-anchor="start" x="570.5" y="-222" font-family="Helvetica,sans-Serif" font-size="10.00"> +last_breakpoint_id</text>
<text text-anchor="middle" x="625.5" y="-211" font-family="Helvetica,sans-Serif" font-size="10.00">_</text>
<text text-anchor="start" x="570.5" y="-200" font-family="Helvetica,sans-Serif" font-size="10.00">+last_bytecode</text>
<text text-anchor="middle" x="625.5" y="-189" font-family="Helvetica,sans-Serif" font-size="10.00">_offset_</text>
<text text-anchor="start" x="570.5" y="-178" font-family="Helvetica,sans-Serif" font-size="10.00">+last_frame_count</text>
<text text-anchor="middle" x="625.5" y="-167" font-family="Helvetica,sans-Serif" font-size="10.00">_</text>
<text text-anchor="start" x="570.5" y="-156" font-family="Helvetica,sans-Serif" font-size="10.00">+last_statement</text>
<text text-anchor="middle" x="625.5" y="-145" font-family="Helvetica,sans-Serif" font-size="10.00">_position_</text>
<text text-anchor="start" x="570.5" y="-134" font-family="Helvetica,sans-Serif" font-size="10.00">+muted_position</text>
<text text-anchor="middle" x="625.5" y="-123" font-family="Helvetica,sans-Serif" font-size="10.00">_</text>
<text text-anchor="start" x="570.5" y="-112" font-family="Helvetica,sans-Serif" font-size="10.00">+restart_inline</text>
<text text-anchor="middle" x="625.5" y="-101" font-family="Helvetica,sans-Serif" font-size="10.00">_frame_index_</text>
<text text-anchor="middle" x="625.5" y="-90" font-family="Helvetica,sans-Serif" font-size="10.00">+target_frame_count_</text>
</g>
<!-- Node17 -->
<g id="node14" class="node">
<title>Node17</title>
<g id="a_node14"><a xlink:title=" ">
<polygon fill="white" stroke="#bfbfbf" points="688.5,-342 688.5,-399 726.5,-399 726.5,-342 688.5,-342"/>
<text text-anchor="middle" x="707.5" y="-387" font-family="Helvetica,sans-Serif" font-size="10.00">bool</text>
<polyline fill="none" stroke="#bfbfbf" points="688.5,-380 726.5,-380 "/>
<text text-anchor="middle" x="707.5" y="-368" font-family="Helvetica,sans-Serif" font-size="10.00"> </text>
<polyline fill="none" stroke="#bfbfbf" points="688.5,-361 726.5,-361 "/>
<text text-anchor="middle" x="707.5" y="-349" font-family="Helvetica,sans-Serif" font-size="10.00"> </text>
</a>
</g>
</g>
<!-- Node17&#45;&gt;Node1 -->
<g id="edge17" class="edge">
<title>Node17&#45;&gt;Node1</title>
<path fill="none" stroke="#404040" d="M715.07,-341.91C728.6,-285.86 749.81,-157.96 684.5,-87 652.51,-52.24 522.23,-40.94 440.78,-37.27"/>
<polygon fill="none" stroke="#404040" points="440.63,-37.26 434.47,-41.01 428.64,-36.76 434.8,-33.02 440.63,-37.26"/>
<text text-anchor="start" x="728.5" y="-183.5" font-family="Helvetica,sans-Serif" font-size="10.00"> +break_on_next_function</text>
<text text-anchor="middle" x="793" y="-172.5" font-family="Helvetica,sans-Serif" font-size="10.00">_call_</text>
<text text-anchor="start" x="728.5" y="-161.5" font-family="Helvetica,sans-Serif" font-size="10.00">+fast_forward_to_return</text>
<text text-anchor="middle" x="793" y="-150.5" font-family="Helvetica,sans-Serif" font-size="10.00">_</text>
<text text-anchor="start" x="728.5" y="-139.5" font-family="Helvetica,sans-Serif" font-size="10.00">+scheduled_break</text>
<text text-anchor="middle" x="793" y="-128.5" font-family="Helvetica,sans-Serif" font-size="10.00">_on_next_function_call_</text>
</g>
</g>
</svg>
