<?xml version="1.0" encoding="UTF-8" standalone="no"?>
<!DOCTYPE svg PUBLIC "-//W3C//DTD SVG 1.1//EN"
 "http://www.w3.org/Graphics/SVG/1.1/DTD/svg11.dtd">
<!-- Generated by graphviz version 2.43.0 (0)
 -->
<!-- Title: v8::internal::MinorMarkSweepCollector::marking_worklists Pages: 1 -->
<!--zoomable 236 -->
<svg id="main" version="1.1" xmlns="http://www.w3.org/2000/svg" xmlns:xlink="http://www.w3.org/1999/xlink" xml:space="preserve" onload="init(evt)">
<style type="text/css"><![CDATA[
.edge:hover path { stroke: red; }
.edge:hover polygon { stroke: red; fill: red; }
]]></style>
<script type="text/javascript"><![CDATA[
var edges = document.getElementsByTagName('g');
if (edges && edges.length) {
  for (var i=0;i<edges.length;i++) {
    if (edges[i].id.substr(0,4)=='edge') {
      edges[i].setAttribute('class','edge');
    }
  }
}
]]></script>
        <defs>
                <circle id="rim" cx="0" cy="0" r="7"/>
                <circle id="rim2" cx="0" cy="0" r="3.5"/>
                <g id="zoomPlus">
                        <use xlink:href="#rim" fill="#404040">
                                <set attributeName="fill" to="#808080" begin="zoomplus.mouseover" end="zoomplus.mouseout"/>
                        </use>
                        <path d="M-4,0h8M0,-4v8" fill="none" stroke="white" stroke-width="1.5" pointer-events="none"/>
                </g>
                <g id="zoomMin">
                        <use xlink:href="#rim" fill="#404040">
                                <set attributeName="fill" to="#808080" begin="zoomminus.mouseover" end="zoomminus.mouseout"/>
                        </use>
                        <path d="M-4,0h8" fill="none" stroke="white" stroke-width="1.5" pointer-events="none"/>
                </g>
                <g id="dirArrow">
                        <path fill="none" stroke="white" stroke-width="1.5" d="M0,-3.0v7 M-2.5,-0.5L0,-3.0L2.5,-0.5"/>
                </g>
               <g id="resetDef">
                       <use xlink:href="#rim2" fill="#404040">
                               <set attributeName="fill" to="#808080" begin="reset.mouseover" end="reset.mouseout"/>
                       </use>
               </g>
        </defs>

<script type="text/javascript">
var viewWidth = 1158;
var viewHeight = 236;
var sectionId = 'dynsection-15';
</script>
<script xlink:href="svgpan.js"/>
<svg id="graph" class="graph">
<g id="viewport">
<title>v8::internal::MinorMarkSweepCollector::marking_worklists</title>
<polygon fill="white" stroke="transparent" points="-4,4 -4,-232 1154,-232 1154,4 -4,4"/>
<!-- Node1 -->
<g id="node1" class="node">
<title>Node1</title>
<g id="a_node1"><a xlink:title=" ">
<polygon fill="#bfbfbf" stroke="black" points="987,-118.5 987,-148.5 1150,-148.5 1150,-118.5 987,-118.5"/>
<text text-anchor="start" x="995" y="-136.5" font-family="Helvetica,sans-Serif" font-size="10.00">v8::internal::MinorMarkSweep</text>
<text text-anchor="middle" x="1068.5" y="-125.5" font-family="Helvetica,sans-Serif" font-size="10.00">Collector::marking_worklists</text>
</a>
</g>
</g>
<!-- Node2 -->
<g id="node2" class="node">
<title>Node2</title>
<g id="a_node2"><a xlink:href="classv8_1_1internal_1_1MarkingBarrier.html#a19db35a0d14cf2c4d81a6d1046c7fc79" target="_top" xlink:title=" ">
<polygon fill="white" stroke="black" points="800,-142.5 800,-172.5 951,-172.5 951,-142.5 800,-142.5"/>
<text text-anchor="start" x="808" y="-160.5" font-family="Helvetica,sans-Serif" font-size="10.00">v8::internal::MarkingBarrier</text>
<text text-anchor="middle" x="875.5" y="-149.5" font-family="Helvetica,sans-Serif" font-size="10.00">::Activate</text>
</a>
</g>
</g>
<!-- Node1&#45;&gt;Node2 -->
<g id="edge1" class="edge">
<title>Node1&#45;&gt;Node2</title>
<path fill="none" stroke="midnightblue" d="M976.75,-144.9C968.18,-145.98 959.56,-147.06 951.16,-148.12"/>
<polygon fill="midnightblue" stroke="midnightblue" points="977.29,-148.36 986.78,-143.64 976.42,-141.42 977.29,-148.36"/>
</g>
<!-- Node1712 -->
<g id="node7" class="node">
<title>Node1712</title>
<g id="a_node7"><a xlink:href="classv8_1_1internal_1_1ConcurrentMarking.html#a17b832823a3616716aa7497fada881ff" target="_top" xlink:title=" ">
<polygon fill="white" stroke="black" points="620.5,-93.5 620.5,-123.5 756.5,-123.5 756.5,-93.5 620.5,-93.5"/>
<text text-anchor="start" x="628.5" y="-111.5" font-family="Helvetica,sans-Serif" font-size="10.00">v8::internal::Concurrent</text>
<text text-anchor="middle" x="688.5" y="-100.5" font-family="Helvetica,sans-Serif" font-size="10.00">Marking::TryScheduleJob</text>
</a>
</g>
</g>
<!-- Node1&#45;&gt;Node1712 -->
<g id="edge6" class="edge">
<title>Node1&#45;&gt;Node1712</title>
<path fill="none" stroke="midnightblue" d="M976.64,-127.49C908.94,-123.01 818,-117 756.75,-112.95"/>
<polygon fill="midnightblue" stroke="midnightblue" points="976.66,-131 986.87,-128.17 977.13,-124.02 976.66,-131"/>
</g>
<!-- Node3 -->
<g id="node3" class="node">
<title>Node3</title>
<g id="a_node3"><a xlink:href="classv8_1_1internal_1_1MarkingBarrier.html#aec35d384187033f1eabbff341ecea58a" target="_top" xlink:title=" ">
<polygon fill="white" stroke="black" points="613,-142.5 613,-172.5 764,-172.5 764,-142.5 613,-142.5"/>
<text text-anchor="start" x="621" y="-160.5" font-family="Helvetica,sans-Serif" font-size="10.00">v8::internal::MarkingBarrier</text>
<text text-anchor="middle" x="688.5" y="-149.5" font-family="Helvetica,sans-Serif" font-size="10.00">::ActivateAll</text>
</a>
</g>
</g>
<!-- Node2&#45;&gt;Node3 -->
<g id="edge2" class="edge">
<title>Node2&#45;&gt;Node3</title>
<path fill="none" stroke="midnightblue" d="M789.53,-157.5C781.07,-157.5 772.53,-157.5 764.19,-157.5"/>
<polygon fill="midnightblue" stroke="midnightblue" points="789.79,-161 799.79,-157.5 789.79,-154 789.79,-161"/>
</g>
<!-- Node1710 -->
<g id="node5" class="node">
<title>Node1710</title>
<g id="a_node5"><a xlink:href="classv8_1_1internal_1_1MarkingBarrier.html#aeeadde214eaaccbe2182e11773c14914" target="_top" xlink:title=" ">
<polygon fill="white" stroke="black" points="613,-191.5 613,-221.5 764,-221.5 764,-191.5 613,-191.5"/>
<text text-anchor="start" x="621" y="-209.5" font-family="Helvetica,sans-Serif" font-size="10.00">v8::internal::MarkingBarrier</text>
<text text-anchor="middle" x="688.5" y="-198.5" font-family="Helvetica,sans-Serif" font-size="10.00">::ActivateYoung</text>
</a>
</g>
</g>
<!-- Node2&#45;&gt;Node1710 -->
<g id="edge4" class="edge">
<title>Node2&#45;&gt;Node1710</title>
<path fill="none" stroke="midnightblue" d="M807.96,-175.12C787.72,-180.48 765.68,-186.32 746.16,-191.49"/>
<polygon fill="midnightblue" stroke="midnightblue" points="808.97,-178.48 817.74,-172.53 807.17,-171.71 808.97,-178.48"/>
</g>
<!-- Node4 -->
<g id="node4" class="node">
<title>Node4</title>
<g id="a_node4"><a xlink:href="classv8_1_1internal_1_1IncrementalMarking.html#aa2596c8242c2e40791afd0812877275a" target="_top" xlink:title=" ">
<polygon fill="white" stroke="red" points="411.5,-142.5 411.5,-172.5 564.5,-172.5 564.5,-142.5 411.5,-142.5"/>
<text text-anchor="start" x="419.5" y="-160.5" font-family="Helvetica,sans-Serif" font-size="10.00">v8::internal::Incremental</text>
<text text-anchor="middle" x="488" y="-149.5" font-family="Helvetica,sans-Serif" font-size="10.00">Marking::StartMarkingMajor</text>
</a>
</g>
</g>
<!-- Node3&#45;&gt;Node4 -->
<g id="edge3" class="edge">
<title>Node3&#45;&gt;Node4</title>
<path fill="none" stroke="midnightblue" d="M602.69,-157.5C590.06,-157.5 577.11,-157.5 564.68,-157.5"/>
<polygon fill="midnightblue" stroke="midnightblue" points="602.74,-161 612.74,-157.5 602.74,-154 602.74,-161"/>
</g>
<!-- Node1711 -->
<g id="node6" class="node">
<title>Node1711</title>
<g id="a_node6"><a xlink:href="classv8_1_1internal_1_1IncrementalMarking.html#a3069e76a432ef28d2e37f2f08746c33d" target="_top" xlink:title=" ">
<polygon fill="white" stroke="red" points="411.5,-191.5 411.5,-221.5 564.5,-221.5 564.5,-191.5 411.5,-191.5"/>
<text text-anchor="start" x="419.5" y="-209.5" font-family="Helvetica,sans-Serif" font-size="10.00">v8::internal::Incremental</text>
<text text-anchor="middle" x="488" y="-198.5" font-family="Helvetica,sans-Serif" font-size="10.00">Marking::StartMarkingMinor</text>
</a>
</g>
</g>
<!-- Node1710&#45;&gt;Node1711 -->
<g id="edge5" class="edge">
<title>Node1710&#45;&gt;Node1711</title>
<path fill="none" stroke="midnightblue" d="M602.69,-206.5C590.06,-206.5 577.11,-206.5 564.68,-206.5"/>
<polygon fill="midnightblue" stroke="midnightblue" points="602.74,-210 612.74,-206.5 602.74,-203 602.74,-210"/>
</g>
<!-- Node1712&#45;&gt;Node4 -->
<g id="edge14" class="edge">
<title>Node1712&#45;&gt;Node4</title>
<path fill="none" stroke="midnightblue" d="M616.7,-125.98C594.82,-131.38 570.93,-137.28 549.79,-142.49"/>
<polygon fill="midnightblue" stroke="midnightblue" points="617.72,-129.33 626.59,-123.53 616.05,-122.53 617.72,-129.33"/>
</g>
<!-- Node1712&#45;&gt;Node1711 -->
<g id="edge15" class="edge">
<title>Node1712&#45;&gt;Node1711</title>
<path fill="none" stroke="midnightblue" d="M619.47,-128.26C617.23,-129.58 615.07,-131 613,-132.5 590.86,-148.62 599.5,-166.89 577,-182.5 572.06,-185.93 566.64,-188.87 561,-191.39"/>
<polygon fill="midnightblue" stroke="midnightblue" points="621.19,-131.31 628.41,-123.55 617.93,-125.11 621.19,-131.31"/>
</g>
<!-- Node1713 -->
<g id="node8" class="node">
<title>Node1713</title>
<g id="a_node8"><a xlink:href="classv8_1_1internal_1_1ConcurrentMarking.html#aaf8d90cff77b3890a4de513377521ce4" target="_top" xlink:title=" ">
<polygon fill="white" stroke="black" points="399,-93.5 399,-123.5 577,-123.5 577,-93.5 399,-93.5"/>
<text text-anchor="start" x="407" y="-111.5" font-family="Helvetica,sans-Serif" font-size="10.00">v8::internal::Concurrent</text>
<text text-anchor="middle" x="488" y="-100.5" font-family="Helvetica,sans-Serif" font-size="10.00">Marking::RescheduleJobIfNeeded</text>
</a>
</g>
</g>
<!-- Node1712&#45;&gt;Node1713 -->
<g id="edge7" class="edge">
<title>Node1712&#45;&gt;Node1713</title>
<path fill="none" stroke="midnightblue" d="M610.1,-108.5C599.33,-108.5 588.2,-108.5 577.25,-108.5"/>
<polygon fill="midnightblue" stroke="midnightblue" points="610.3,-112 620.3,-108.5 610.3,-105 610.3,-112"/>
</g>
<!-- Node1714 -->
<g id="node9" class="node">
<title>Node1714</title>
<g id="a_node9"><a xlink:href="classv8_1_1internal_1_1PagedNewSpaceAllocatorPolicy.html#adc1b16538196f7f965f56268d85d399e" target="_top" xlink:title=" ">
<polygon fill="white" stroke="black" points="180,-197.5 180,-227.5 356,-227.5 356,-197.5 180,-197.5"/>
<text text-anchor="start" x="188" y="-215.5" font-family="Helvetica,sans-Serif" font-size="10.00">v8::internal::PagedNewSpace</text>
<text text-anchor="middle" x="268" y="-204.5" font-family="Helvetica,sans-Serif" font-size="10.00">AllocatorPolicy::EnsureAllocation</text>
</a>
</g>
</g>
<!-- Node1713&#45;&gt;Node1714 -->
<g id="edge8" class="edge">
<title>Node1713&#45;&gt;Node1714</title>
<path fill="none" stroke="midnightblue" d="M405.45,-128.23C403.22,-129.56 401.07,-130.98 399,-132.5 375.14,-150 387,-171.19 363,-188.5 358.22,-191.95 352.99,-194.9 347.52,-197.43"/>
<polygon fill="midnightblue" stroke="midnightblue" points="407.15,-131.3 414.36,-123.53 403.88,-125.11 407.15,-131.3"/>
</g>
<!-- Node1715 -->
<g id="node10" class="node">
<title>Node1715</title>
<g id="a_node10"><a xlink:href="classv8_1_1internal_1_1MinorMarkSweepCollector.html#ac933b5beb57063616485eccbaeeddc74" target="_top" xlink:title=" ">
<polygon fill="white" stroke="red" points="186.5,-148.5 186.5,-178.5 349.5,-178.5 349.5,-148.5 186.5,-148.5"/>
<text text-anchor="start" x="194.5" y="-166.5" font-family="Helvetica,sans-Serif" font-size="10.00">v8::internal::MinorMarkSweep</text>
<text text-anchor="middle" x="268" y="-155.5" font-family="Helvetica,sans-Serif" font-size="10.00">Collector::MarkLiveObjects</text>
</a>
</g>
</g>
<!-- Node1713&#45;&gt;Node1715 -->
<g id="edge9" class="edge">
<title>Node1713&#45;&gt;Node1715</title>
<path fill="none" stroke="midnightblue" d="M417.49,-126.04C388.85,-133.26 356,-141.55 328.5,-148.49"/>
<polygon fill="midnightblue" stroke="midnightblue" points="418.59,-129.37 427.43,-123.53 416.88,-122.58 418.59,-129.37"/>
</g>
<!-- Node1717 -->
<g id="node11" class="node">
<title>Node1717</title>
<g id="a_node11"><a xlink:href="classv8_1_1internal_1_1MarkCompactCollector.html#a927eebc2a596cab74de9a052a849d0ea" target="_top" xlink:title=" ">
<polygon fill="white" stroke="red" points="173,-88 173,-129 363,-129 363,-88 173,-88"/>
<text text-anchor="start" x="181" y="-117" font-family="Helvetica,sans-Serif" font-size="10.00">v8::internal::MarkCompact</text>
<text text-anchor="start" x="181" y="-106" font-family="Helvetica,sans-Serif" font-size="10.00">Collector::MaybeEnableBackground</text>
<text text-anchor="middle" x="268" y="-95" font-family="Helvetica,sans-Serif" font-size="10.00">ThreadsInCycle</text>
</a>
</g>
</g>
<!-- Node1713&#45;&gt;Node1717 -->
<g id="edge10" class="edge">
<title>Node1713&#45;&gt;Node1717</title>
<path fill="none" stroke="midnightblue" d="M388.92,-108.5C380.32,-108.5 371.63,-108.5 363.07,-108.5"/>
<polygon fill="midnightblue" stroke="midnightblue" points="388.96,-112 398.96,-108.5 388.96,-105 388.96,-112"/>
</g>
<!-- Node1721 -->
<g id="node12" class="node">
<title>Node1721</title>
<g id="a_node12"><a xlink:href="classv8_1_1internal_1_1IncrementalMarking.html#a5271cb60f92aa20258199ee6e5858f49" target="_top" xlink:title=" ">
<polygon fill="white" stroke="red" points="0,-68.5 0,-98.5 137,-98.5 137,-68.5 0,-68.5"/>
<text text-anchor="start" x="8" y="-86.5" font-family="Helvetica,sans-Serif" font-size="10.00">v8::internal::Incremental</text>
<text text-anchor="middle" x="68.5" y="-75.5" font-family="Helvetica,sans-Serif" font-size="10.00">Marking::Step</text>
</a>
</g>
</g>
<!-- Node1713&#45;&gt;Node1721 -->
<g id="edge13" class="edge">
<title>Node1713&#45;&gt;Node1721</title>
<path fill="none" stroke="midnightblue" d="M427.13,-90.98C406.95,-85.89 384.17,-81.02 363,-78.5 279.15,-68.5 257.42,-76.46 173,-78.5 161.4,-78.78 149.08,-79.24 137.13,-79.76"/>
<polygon fill="midnightblue" stroke="midnightblue" points="426.26,-94.37 436.82,-93.49 428.01,-87.59 426.26,-94.37"/>
</g>
<!-- Node1725 -->
<g id="node13" class="node">
<title>Node1725</title>
<g id="a_node13"><a xlink:href="classv8_1_1internal_1_1ConcurrentMarking.html#afbbcbe61c7b306f93be9ddd1b365b18d" target="_top" xlink:title=" ">
<polygon fill="white" stroke="black" points="202.5,-0.5 202.5,-30.5 333.5,-30.5 333.5,-0.5 202.5,-0.5"/>
<text text-anchor="start" x="210.5" y="-18.5" font-family="Helvetica,sans-Serif" font-size="10.00">v8::internal::Concurrent</text>
<text text-anchor="middle" x="268" y="-7.5" font-family="Helvetica,sans-Serif" font-size="10.00">Marking::Resume</text>
</a>
</g>
</g>
<!-- Node1713&#45;&gt;Node1725 -->
<g id="edge12" class="edge">
<title>Node1713&#45;&gt;Node1725</title>
<path fill="none" stroke="midnightblue" d="M451.6,-88.59C427.18,-75.33 393.7,-58.1 363,-45.5 349.69,-40.04 334.99,-34.93 321.25,-30.53"/>
<polygon fill="midnightblue" stroke="midnightblue" points="450.04,-91.72 460.49,-93.46 453.4,-85.58 450.04,-91.72"/>
</g>
<!-- Node1717&#45;&gt;Node1721 -->
<g id="edge11" class="edge">
<title>Node1717&#45;&gt;Node1721</title>
<path fill="none" stroke="midnightblue" d="M162.73,-95.3C154.09,-94.21 145.51,-93.12 137.25,-92.08"/>
<polygon fill="midnightblue" stroke="midnightblue" points="162.52,-98.8 172.88,-96.59 163.4,-91.86 162.52,-98.8"/>
</g>
</g>
</svg>
        <g id="navigator" transform="translate(0 0)" fill="#404254">
                <rect fill="#f2f5e9" fill-opacity="0.5" stroke="#606060" stroke-width=".5" x="0" y="0" width="60" height="60"/>
                <use id="zoomplus" xlink:href="#zoomPlus" x="17" y="9" onmousedown="handleZoom(evt,'in')"/>
                <use id="zoomminus" xlink:href="#zoomMin" x="42" y="9" onmousedown="handleZoom(evt,'out')"/>
                <use id="reset" xlink:href="#resetDef" x="30" y="36" onmousedown="handleReset()"/>
                <g id="arrowUp" xlink:href="#dirArrow" transform="translate(30 24)" onmousedown="handlePan(0,-1)">
                  <use xlink:href="#rim" fill="#404040">
                        <set attributeName="fill" to="#808080" begin="arrowUp.mouseover" end="arrowUp.mouseout"/>
                  </use>
                  <path fill="none" stroke="white" stroke-width="1.5" d="M0,-3.0v7 M-2.5,-0.5L0,-3.0L2.5,-0.5"/>
                </g>
                <g id="arrowRight" xlink:href="#dirArrow" transform="rotate(90) translate(36 -43)" onmousedown="handlePan(1,0)">
                  <use xlink:href="#rim" fill="#404040">
                        <set attributeName="fill" to="#808080" begin="arrowRight.mouseover" end="arrowRight.mouseout"/>
                  </use>
                  <path fill="none" stroke="white" stroke-width="1.5" d="M0,-3.0v7 M-2.5,-0.5L0,-3.0L2.5,-0.5"/>
                </g>
                <g id="arrowDown" xlink:href="#dirArrow" transform="rotate(180) translate(-30 -48)" onmousedown="handlePan(0,1)">
                  <use xlink:href="#rim" fill="#404040">
                        <set attributeName="fill" to="#808080" begin="arrowDown.mouseover" end="arrowDown.mouseout"/>
                  </use>
                  <path fill="none" stroke="white" stroke-width="1.5" d="M0,-3.0v7 M-2.5,-0.5L0,-3.0L2.5,-0.5"/>
                </g>
                <g id="arrowLeft" xlink:href="#dirArrow" transform="rotate(270) translate(-36 17)" onmousedown="handlePan(-1,0)">
                  <use xlink:href="#rim" fill="#404040">
                        <set attributeName="fill" to="#808080" begin="arrowLeft.mouseover" end="arrowLeft.mouseout"/>
                  </use>
                  <path fill="none" stroke="white" stroke-width="1.5" d="M0,-3.0v7 M-2.5,-0.5L0,-3.0L2.5,-0.5"/>
                </g>
        </g>
        <svg viewBox="0 0 15 15" width="100%" height="30px" preserveAspectRatio="xMaxYMin meet">
         <g id="arrow_out" transform="scale(0.3 0.3)">
          <a xlink:href="classv8_1_1internal_1_1MinorMarkSweepCollector_afae19cb86b363f2ce7075ec0e309a649_icgraph_org.svg" target="_base">
           <rect id="button" ry="5" rx="5" y="6" x="6" height="38" width="38"
                fill="#f2f5e9" fill-opacity="0.5" stroke="#606060" stroke-width="1.0"/>
           <path id="arrow"
             d="M 11.500037,31.436501 C 11.940474,20.09759 22.043105,11.32322 32.158766,21.979434 L 37.068811,17.246167 C 37.068811,17.246167 37.088388,32 37.088388,32 L 22.160133,31.978069 C 22.160133,31.978069 26.997745,27.140456 26.997745,27.140456 C 18.528582,18.264221 13.291696,25.230495 11.500037,31.436501 z"
             style="fill:#404040;"/>
          </a>
         </g>
        </svg>
</svg>
