<?xml version="1.0" encoding="UTF-8" standalone="no"?>
<!DOCTYPE svg PUBLIC "-//W3C//DTD SVG 1.1//EN"
 "http://www.w3.org/Graphics/SVG/1.1/DTD/svg11.dtd">
<!-- Generated by graphviz version 2.43.0 (0)
 -->
<!-- Title: v8::internal::compiler::JSCreateLiteralOpNode::Parameters Pages: 1 -->
<svg width="823pt" height="315pt"
 viewBox="0.00 0.00 823.00 315.00" xmlns="http://www.w3.org/2000/svg" xmlns:xlink="http://www.w3.org/1999/xlink">
<g id="graph0" class="graph" transform="scale(1 1) rotate(0) translate(4 311)">
<title>v8::internal::compiler::JSCreateLiteralOpNode::Parameters</title>
<polygon fill="white" stroke="transparent" points="-4,4 -4,-311 819,-311 819,4 -4,4"/>
<!-- Node1 -->
<g id="node1" class="node">
<title>Node1</title>
<g id="a_node1"><a xlink:title=" ">
<polygon fill="#bfbfbf" stroke="black" points="681,-60.5 681,-101.5 815,-101.5 815,-60.5 681,-60.5"/>
<text text-anchor="start" x="689" y="-89.5" font-family="Helvetica,sans-Serif" font-size="10.00">v8::internal::compiler</text>
<text text-anchor="start" x="689" y="-78.5" font-family="Helvetica,sans-Serif" font-size="10.00">::JSCreateLiteralOpNode</text>
<text text-anchor="middle" x="748" y="-67.5" font-family="Helvetica,sans-Serif" font-size="10.00">::Parameters</text>
</a>
</g>
</g>
<!-- Node2 -->
<g id="node2" class="node">
<title>Node2</title>
<g id="a_node2"><a xlink:href="classv8_1_1internal_1_1compiler_1_1JSCallReducer.html#a5d4b7cc324a159f0c08de9613f339db2" target="_top" xlink:title=" ">
<polygon fill="white" stroke="black" points="461.5,-120.5 461.5,-161.5 637.5,-161.5 637.5,-120.5 461.5,-120.5"/>
<text text-anchor="start" x="469.5" y="-149.5" font-family="Helvetica,sans-Serif" font-size="10.00">v8::internal::compiler</text>
<text text-anchor="start" x="469.5" y="-138.5" font-family="Helvetica,sans-Serif" font-size="10.00">::JSCallReducer::ReduceCallOr</text>
<text text-anchor="middle" x="549.5" y="-127.5" font-family="Helvetica,sans-Serif" font-size="10.00">ConstructWithArrayLikeOrSpread</text>
</a>
</g>
</g>
<!-- Node1&#45;&gt;Node2 -->
<g id="edge1" class="edge">
<title>Node1&#45;&gt;Node2</title>
<path fill="none" stroke="midnightblue" d="M671.11,-104.17C653.54,-109.54 634.97,-115.21 617.8,-120.45"/>
<polygon fill="midnightblue" stroke="midnightblue" points="672.21,-107.5 680.75,-101.23 670.16,-100.8 672.21,-107.5"/>
</g>
<!-- Node13 -->
<g id="node11" class="node">
<title>Node13</title>
<g id="a_node11"><a xlink:href="classv8_1_1internal_1_1compiler_1_1JSCreateLowering.html#a55b85c37b4a47ad8fe9cf1b16106890d" target="_top" xlink:title=" ">
<polygon fill="white" stroke="black" points="454,-60.5 454,-101.5 645,-101.5 645,-60.5 454,-60.5"/>
<text text-anchor="start" x="462" y="-89.5" font-family="Helvetica,sans-Serif" font-size="10.00">v8::internal::compiler</text>
<text text-anchor="start" x="462" y="-78.5" font-family="Helvetica,sans-Serif" font-size="10.00">::JSCreateLowering::ReduceJSCreate</text>
<text text-anchor="middle" x="549.5" y="-67.5" font-family="Helvetica,sans-Serif" font-size="10.00">LiteralArrayOrObject</text>
</a>
</g>
</g>
<!-- Node1&#45;&gt;Node13 -->
<g id="edge13" class="edge">
<title>Node1&#45;&gt;Node13</title>
<path fill="none" stroke="midnightblue" d="M670.65,-81C662.27,-81 653.66,-81 645.09,-81"/>
<polygon fill="midnightblue" stroke="midnightblue" points="670.75,-84.5 680.75,-81 670.75,-77.5 670.75,-84.5"/>
</g>
<!-- Node15 -->
<g id="node13" class="node">
<title>Node15</title>
<g id="a_node13"><a xlink:href="classv8_1_1internal_1_1compiler_1_1JSCreateLowering.html#ae9ddaa38693ed7284e1c38d09b4085c5" target="_top" xlink:title=" ">
<polygon fill="white" stroke="black" points="454,-0.5 454,-41.5 645,-41.5 645,-0.5 454,-0.5"/>
<text text-anchor="start" x="462" y="-29.5" font-family="Helvetica,sans-Serif" font-size="10.00">v8::internal::compiler</text>
<text text-anchor="start" x="462" y="-18.5" font-family="Helvetica,sans-Serif" font-size="10.00">::JSCreateLowering::ReduceJSCreate</text>
<text text-anchor="middle" x="549.5" y="-7.5" font-family="Helvetica,sans-Serif" font-size="10.00">LiteralRegExp</text>
</a>
</g>
</g>
<!-- Node1&#45;&gt;Node15 -->
<g id="edge15" class="edge">
<title>Node1&#45;&gt;Node15</title>
<path fill="none" stroke="midnightblue" d="M671.11,-57.83C653.54,-52.46 634.97,-46.79 617.8,-41.55"/>
<polygon fill="midnightblue" stroke="midnightblue" points="670.16,-61.2 680.75,-60.77 672.21,-54.5 670.16,-61.2"/>
</g>
<!-- Node3 -->
<g id="node3" class="node">
<title>Node3</title>
<g id="a_node3"><a xlink:href="classv8_1_1internal_1_1compiler_1_1JSCallReducer.html#a4b61bbd5bc4f21aa5225b026fd0dbc7a" target="_top" xlink:title=" ">
<polygon fill="white" stroke="black" points="244,-238.5 244,-279.5 404,-279.5 404,-238.5 244,-238.5"/>
<text text-anchor="start" x="252" y="-267.5" font-family="Helvetica,sans-Serif" font-size="10.00">v8::internal::compiler</text>
<text text-anchor="start" x="252" y="-256.5" font-family="Helvetica,sans-Serif" font-size="10.00">::JSCallReducer::ReduceJSCall</text>
<text text-anchor="middle" x="324" y="-245.5" font-family="Helvetica,sans-Serif" font-size="10.00">WithArrayLike</text>
</a>
</g>
</g>
<!-- Node2&#45;&gt;Node3 -->
<g id="edge2" class="edge">
<title>Node2&#45;&gt;Node3</title>
<path fill="none" stroke="midnightblue" d="M514.65,-167.73C489.21,-186.83 452.88,-212.03 418,-229 410.98,-232.41 403.48,-235.57 395.9,-238.45"/>
<polygon fill="midnightblue" stroke="midnightblue" points="516.99,-170.35 522.84,-161.51 512.76,-164.77 516.99,-170.35"/>
</g>
<!-- Node9 -->
<g id="node7" class="node">
<title>Node9</title>
<g id="a_node7"><a xlink:href="classv8_1_1internal_1_1compiler_1_1JSCallReducer.html#a668aa2417cae55990cd493b8bac046e0" target="_top" xlink:title=" ">
<polygon fill="white" stroke="black" points="244,-178.5 244,-219.5 404,-219.5 404,-178.5 244,-178.5"/>
<text text-anchor="start" x="252" y="-207.5" font-family="Helvetica,sans-Serif" font-size="10.00">v8::internal::compiler</text>
<text text-anchor="start" x="252" y="-196.5" font-family="Helvetica,sans-Serif" font-size="10.00">::JSCallReducer::ReduceJSCall</text>
<text text-anchor="middle" x="324" y="-185.5" font-family="Helvetica,sans-Serif" font-size="10.00">WithSpread</text>
</a>
</g>
</g>
<!-- Node2&#45;&gt;Node9 -->
<g id="edge6" class="edge">
<title>Node2&#45;&gt;Node9</title>
<path fill="none" stroke="midnightblue" d="M459.58,-164.08C441.22,-168.84 421.99,-173.83 404.01,-178.5"/>
<polygon fill="midnightblue" stroke="midnightblue" points="460.59,-167.43 469.39,-161.53 458.83,-160.65 460.59,-167.43"/>
</g>
<!-- Node10 -->
<g id="node8" class="node">
<title>Node10</title>
<g id="a_node8"><a xlink:href="classv8_1_1internal_1_1compiler_1_1JSCallReducer.html#aa41072c80d83296a42c05ada064eb2d7" target="_top" xlink:title=" ">
<polygon fill="white" stroke="black" points="230,-58.5 230,-99.5 418,-99.5 418,-58.5 230,-58.5"/>
<text text-anchor="start" x="238" y="-87.5" font-family="Helvetica,sans-Serif" font-size="10.00">v8::internal::compiler</text>
<text text-anchor="start" x="238" y="-76.5" font-family="Helvetica,sans-Serif" font-size="10.00">::JSCallReducer::ReduceJSConstruct</text>
<text text-anchor="middle" x="324" y="-65.5" font-family="Helvetica,sans-Serif" font-size="10.00">WithArrayLike</text>
</a>
</g>
</g>
<!-- Node2&#45;&gt;Node10 -->
<g id="edge8" class="edge">
<title>Node2&#45;&gt;Node10</title>
<path fill="none" stroke="midnightblue" d="M464.59,-117.72C443.01,-111.74 419.95,-105.34 398.91,-99.5"/>
<polygon fill="midnightblue" stroke="midnightblue" points="463.82,-121.14 474.39,-120.44 465.69,-114.4 463.82,-121.14"/>
</g>
<!-- Node12 -->
<g id="node10" class="node">
<title>Node12</title>
<g id="a_node10"><a xlink:href="classv8_1_1internal_1_1compiler_1_1JSCallReducer.html#aba6fdc56e0d56831aba024f22bc47019" target="_top" xlink:title=" ">
<polygon fill="white" stroke="black" points="230,-118.5 230,-159.5 418,-159.5 418,-118.5 230,-118.5"/>
<text text-anchor="start" x="238" y="-147.5" font-family="Helvetica,sans-Serif" font-size="10.00">v8::internal::compiler</text>
<text text-anchor="start" x="238" y="-136.5" font-family="Helvetica,sans-Serif" font-size="10.00">::JSCallReducer::ReduceJSConstruct</text>
<text text-anchor="middle" x="324" y="-125.5" font-family="Helvetica,sans-Serif" font-size="10.00">WithSpread</text>
</a>
</g>
</g>
<!-- Node2&#45;&gt;Node12 -->
<g id="edge11" class="edge">
<title>Node2&#45;&gt;Node12</title>
<path fill="none" stroke="midnightblue" d="M451.37,-140.13C440.33,-140.03 429.09,-139.93 418.09,-139.83"/>
<polygon fill="midnightblue" stroke="midnightblue" points="451.42,-143.63 461.45,-140.22 451.48,-136.63 451.42,-143.63"/>
</g>
<!-- Node4 -->
<g id="node4" class="node">
<title>Node4</title>
<g id="a_node4"><a xlink:href="classv8_1_1internal_1_1compiler_1_1JSCallReducer.html#abf441e16cdaa5b1d3be850e853803674" target="_top" xlink:title=" ">
<polygon fill="white" stroke="red" points="31,-145 31,-175 163,-175 163,-145 31,-145"/>
<text text-anchor="start" x="39" y="-163" font-family="Helvetica,sans-Serif" font-size="10.00">v8::internal::compiler</text>
<text text-anchor="middle" x="97" y="-152" font-family="Helvetica,sans-Serif" font-size="10.00">::JSCallReducer::Reduce</text>
</a>
</g>
</g>
<!-- Node3&#45;&gt;Node4 -->
<g id="edge3" class="edge">
<title>Node3&#45;&gt;Node4</title>
<path fill="none" stroke="midnightblue" d="M243.61,-234.81C238.96,-232.96 234.39,-231.02 230,-229 212.96,-221.18 210.44,-216.02 194,-207 173.34,-195.66 149.55,-184.01 130.82,-175.14"/>
<polygon fill="midnightblue" stroke="midnightblue" points="242.65,-238.19 253.24,-238.5 245.15,-231.65 242.65,-238.19"/>
</g>
<!-- Node6 -->
<g id="node5" class="node">
<title>Node6</title>
<g id="a_node5"><a xlink:href="classv8_1_1internal_1_1compiler_1_1JSCallReducer.html#a451473545fc835ea914254843f1082f5" target="_top" xlink:title=" ">
<polygon fill="white" stroke="red" points="10.5,-265.5 10.5,-306.5 183.5,-306.5 183.5,-265.5 10.5,-265.5"/>
<text text-anchor="start" x="18.5" y="-294.5" font-family="Helvetica,sans-Serif" font-size="10.00">v8::internal::compiler</text>
<text text-anchor="start" x="18.5" y="-283.5" font-family="Helvetica,sans-Serif" font-size="10.00">::JSCallReducer::ReduceFunction</text>
<text text-anchor="middle" x="97" y="-272.5" font-family="Helvetica,sans-Serif" font-size="10.00">PrototypeApply</text>
</a>
</g>
</g>
<!-- Node3&#45;&gt;Node6 -->
<g id="edge4" class="edge">
<title>Node3&#45;&gt;Node6</title>
<path fill="none" stroke="midnightblue" d="M233.82,-269.7C217.31,-271.68 200.11,-273.75 183.71,-275.71"/>
<polygon fill="midnightblue" stroke="midnightblue" points="234.48,-273.15 243.99,-268.48 233.64,-266.2 234.48,-273.15"/>
</g>
<!-- Node8 -->
<g id="node6" class="node">
<title>Node8</title>
<g id="a_node6"><a xlink:href="classv8_1_1internal_1_1compiler_1_1JSCallReducer.html#a925f869569123ada738b7953d5938fe4" target="_top" xlink:title=" ">
<polygon fill="white" stroke="red" points="0,-216 0,-246 194,-246 194,-216 0,-216"/>
<text text-anchor="start" x="8" y="-234" font-family="Helvetica,sans-Serif" font-size="10.00">v8::internal::compiler</text>
<text text-anchor="middle" x="97" y="-223" font-family="Helvetica,sans-Serif" font-size="10.00">::JSCallReducer::ReduceReflectApply</text>
</a>
</g>
</g>
<!-- Node3&#45;&gt;Node8 -->
<g id="edge5" class="edge">
<title>Node3&#45;&gt;Node8</title>
<path fill="none" stroke="midnightblue" d="M233.69,-247.89C220.72,-246.27 207.32,-244.6 194.22,-242.97"/>
<polygon fill="midnightblue" stroke="midnightblue" points="233.63,-251.41 243.99,-249.17 234.5,-244.46 233.63,-251.41"/>
</g>
<!-- Node9&#45;&gt;Node4 -->
<g id="edge7" class="edge">
<title>Node9&#45;&gt;Node4</title>
<path fill="none" stroke="midnightblue" d="M233.95,-183.56C210.29,-179.46 185.18,-175.11 163.07,-171.28"/>
<polygon fill="midnightblue" stroke="midnightblue" points="233.54,-187.05 243.99,-185.3 234.73,-180.15 233.54,-187.05"/>
</g>
<!-- Node10&#45;&gt;Node4 -->
<g id="edge9" class="edge">
<title>Node10&#45;&gt;Node4</title>
<path fill="none" stroke="midnightblue" d="M248.13,-102.74C241.98,-104.82 235.88,-106.92 230,-109 197.81,-120.4 161.66,-134.46 135.34,-144.92"/>
<polygon fill="midnightblue" stroke="midnightblue" points="249.42,-106 257.8,-99.51 247.21,-99.36 249.42,-106"/>
</g>
<!-- Node11 -->
<g id="node9" class="node">
<title>Node11</title>
<g id="a_node9"><a xlink:href="classv8_1_1internal_1_1compiler_1_1JSCallReducer.html#a16f28461061a2d331d29b72cf1bb982e" target="_top" xlink:title=" ">
<polygon fill="white" stroke="red" points="14,-58.5 14,-99.5 180,-99.5 180,-58.5 14,-58.5"/>
<text text-anchor="start" x="22" y="-87.5" font-family="Helvetica,sans-Serif" font-size="10.00">v8::internal::compiler</text>
<text text-anchor="start" x="22" y="-76.5" font-family="Helvetica,sans-Serif" font-size="10.00">::JSCallReducer::ReduceReflect</text>
<text text-anchor="middle" x="97" y="-65.5" font-family="Helvetica,sans-Serif" font-size="10.00">Construct</text>
</a>
</g>
</g>
<!-- Node10&#45;&gt;Node11 -->
<g id="edge10" class="edge">
<title>Node10&#45;&gt;Node11</title>
<path fill="none" stroke="midnightblue" d="M219.78,-79C206.54,-79 193.13,-79 180.29,-79"/>
<polygon fill="midnightblue" stroke="midnightblue" points="219.86,-82.5 229.86,-79 219.86,-75.5 219.86,-82.5"/>
</g>
<!-- Node12&#45;&gt;Node4 -->
<g id="edge12" class="edge">
<title>Node12&#45;&gt;Node4</title>
<path fill="none" stroke="midnightblue" d="M219.84,-148.63C200.6,-150.42 180.99,-152.25 163.29,-153.91"/>
<polygon fill="midnightblue" stroke="midnightblue" points="220.23,-152.11 229.86,-147.69 219.58,-145.14 220.23,-152.11"/>
</g>
<!-- Node14 -->
<g id="node12" class="node">
<title>Node14</title>
<g id="a_node12"><a xlink:href="classv8_1_1internal_1_1compiler_1_1JSCreateLowering.html#a61676b71f60e5a2c69c9bc3a1d35c7fc" target="_top" xlink:title=" ">
<polygon fill="white" stroke="black" points="249,-8 249,-38 399,-38 399,-8 249,-8"/>
<text text-anchor="start" x="257" y="-26" font-family="Helvetica,sans-Serif" font-size="10.00">v8::internal::compiler</text>
<text text-anchor="middle" x="324" y="-15" font-family="Helvetica,sans-Serif" font-size="10.00">::JSCreateLowering::Reduce</text>
</a>
</g>
</g>
<!-- Node13&#45;&gt;Node14 -->
<g id="edge14" class="edge">
<title>Node13&#45;&gt;Node14</title>
<path fill="none" stroke="midnightblue" d="M459.59,-57.93C433.79,-51.23 406.29,-44.09 382.91,-38.03"/>
<polygon fill="midnightblue" stroke="midnightblue" points="458.83,-61.35 469.39,-60.47 460.59,-54.57 458.83,-61.35"/>
</g>
<!-- Node15&#45;&gt;Node14 -->
<g id="edge16" class="edge">
<title>Node15&#45;&gt;Node14</title>
<path fill="none" stroke="midnightblue" d="M443.42,-21.94C428.5,-22.07 413.42,-22.21 399.25,-22.34"/>
<polygon fill="midnightblue" stroke="midnightblue" points="443.75,-25.44 453.72,-21.85 443.68,-18.44 443.75,-25.44"/>
</g>
</g>
</svg>
