<?xml version="1.0" encoding="UTF-8" standalone="no"?>
<!DOCTYPE svg PUBLIC "-//W3C//DTD SVG 1.1//EN"
 "http://www.w3.org/Graphics/SVG/1.1/DTD/svg11.dtd">
<!-- Generated by graphviz version 2.43.0 (0)
 -->
<!-- Title: v8::internal::ProfilingMigrationObserver::Move Pages: 1 -->
<svg width="681pt" height="203pt"
 viewBox="0.00 0.00 681.00 202.50" xmlns="http://www.w3.org/2000/svg" xmlns:xlink="http://www.w3.org/1999/xlink">
<g id="graph0" class="graph" transform="scale(1 1) rotate(0) translate(4 198.5)">
<title>v8::internal::ProfilingMigrationObserver::Move</title>
<polygon fill="white" stroke="transparent" points="-4,4 -4,-198.5 677,-198.5 677,4 -4,4"/>
<!-- Node1 -->
<g id="node1" class="node">
<title>Node1</title>
<g id="a_node1"><a xlink:title=" ">
<polygon fill="#bfbfbf" stroke="black" points="0,-66 0,-96 164,-96 164,-66 0,-66"/>
<text text-anchor="start" x="8" y="-84" font-family="Helvetica,sans-Serif" font-size="10.00">v8::internal::ProfilingMigration</text>
<text text-anchor="middle" x="82" y="-73" font-family="Helvetica,sans-Serif" font-size="10.00">Observer::Move</text>
</a>
</g>
</g>
<!-- Node2 -->
<g id="node2" class="node">
<title>Node2</title>
<g id="a_node2"><a xlink:href="classv8_1_1internal_1_1Heap.html#ae5160ad63bc51ff7b36e8f247be48f63" target="_top" xlink:title=" ">
<polygon fill="white" stroke="black" points="200,-139 200,-169 304,-169 304,-139 200,-139"/>
<text text-anchor="start" x="208" y="-157" font-family="Helvetica,sans-Serif" font-size="10.00">v8::internal::Heap</text>
<text text-anchor="middle" x="252" y="-146" font-family="Helvetica,sans-Serif" font-size="10.00">::isolate</text>
</a>
</g>
</g>
<!-- Node1&#45;&gt;Node2 -->
<g id="edge1" class="edge">
<title>Node1&#45;&gt;Node2</title>
<path fill="none" stroke="midnightblue" d="M117.81,-96.13C143.6,-107.33 178.95,-122.69 206.75,-134.77"/>
<polygon fill="midnightblue" stroke="midnightblue" points="205.67,-138.12 216.23,-138.89 208.46,-131.7 205.67,-138.12"/>
</g>
<!-- Node5 -->
<g id="node5" class="node">
<title>Node5</title>
<g id="a_node5"><a xlink:href="classv8_1_1internal_1_1Heap.html#a4b0fd946ef07698c78c89b373c38c52b" target="_top" xlink:title=" ">
<polygon fill="white" stroke="black" points="200,-66 200,-96 304,-96 304,-66 200,-66"/>
<text text-anchor="start" x="208" y="-84" font-family="Helvetica,sans-Serif" font-size="10.00">v8::internal::Heap</text>
<text text-anchor="middle" x="252" y="-73" font-family="Helvetica,sans-Serif" font-size="10.00">::OnMoveEvent</text>
</a>
</g>
</g>
<!-- Node1&#45;&gt;Node5 -->
<g id="edge4" class="edge">
<title>Node1&#45;&gt;Node5</title>
<path fill="none" stroke="midnightblue" d="M164.05,-81C172.54,-81 181.08,-81 189.31,-81"/>
<polygon fill="midnightblue" stroke="midnightblue" points="189.54,-84.5 199.54,-81 189.54,-77.5 189.54,-84.5"/>
</g>
<!-- Node10 -->
<g id="node10" class="node">
<title>Node10</title>
<g id="a_node10"><a xlink:href="flag-definitions_8h.html#a3df0b28b666e942ffb9d7d04acdb9715" target="_top" xlink:title=" ">
<polygon fill="white" stroke="black" points="576.5,-0.5 576.5,-19.5 612.5,-19.5 612.5,-0.5 576.5,-0.5"/>
<text text-anchor="middle" x="594.5" y="-7.5" font-family="Helvetica,sans-Serif" font-size="10.00">size</text>
</a>
</g>
</g>
<!-- Node1&#45;&gt;Node10 -->
<g id="edge10" class="edge">
<title>Node1&#45;&gt;Node10</title>
<path fill="none" stroke="midnightblue" d="M122.31,-65.93C172.09,-47.73 260.92,-18.16 340,-7 401.61,1.69 417.78,-6.18 480,-7 509.44,-7.39 543.16,-8.35 566.14,-9.07"/>
<polygon fill="midnightblue" stroke="midnightblue" points="566.09,-12.57 576.2,-9.4 566.32,-5.58 566.09,-12.57"/>
</g>
<!-- Node3 -->
<g id="node3" class="node">
<title>Node3</title>
<g id="a_node3"><a xlink:href="classv8_1_1internal_1_1Isolate.html#aa4fc16731ddc7000e4eb0dfe81392a38" target="_top" xlink:title=" ">
<polygon fill="white" stroke="black" points="354.5,-164 354.5,-194 465.5,-194 465.5,-164 354.5,-164"/>
<text text-anchor="start" x="362.5" y="-182" font-family="Helvetica,sans-Serif" font-size="10.00">v8::internal::Isolate</text>
<text text-anchor="middle" x="410" y="-171" font-family="Helvetica,sans-Serif" font-size="10.00">::FromHeap</text>
</a>
</g>
</g>
<!-- Node2&#45;&gt;Node3 -->
<g id="edge2" class="edge">
<title>Node2&#45;&gt;Node3</title>
<path fill="none" stroke="midnightblue" d="M304.08,-162.19C316.9,-164.24 330.82,-166.47 344.21,-168.62"/>
<polygon fill="midnightblue" stroke="midnightblue" points="343.88,-172.11 354.31,-170.24 344.99,-165.2 343.88,-172.11"/>
</g>
<!-- Node4 -->
<g id="node4" class="node">
<title>Node4</title>
<g id="a_node4"><a xlink:href="flag-definitions_8h.html#a761e4e5929b1553283fd6a532822bb17" target="_top" xlink:title=" ">
<polygon fill="white" stroke="black" points="574,-169.5 574,-188.5 615,-188.5 615,-169.5 574,-169.5"/>
<text text-anchor="middle" x="594.5" y="-176.5" font-family="Helvetica,sans-Serif" font-size="10.00">heap</text>
</a>
</g>
</g>
<!-- Node3&#45;&gt;Node4 -->
<g id="edge3" class="edge">
<title>Node3&#45;&gt;Node4</title>
<path fill="none" stroke="midnightblue" d="M465.76,-179C497.87,-179 537.2,-179 563.67,-179"/>
<polygon fill="midnightblue" stroke="midnightblue" points="563.82,-182.5 573.82,-179 563.82,-175.5 563.82,-182.5"/>
</g>
<!-- Node6 -->
<g id="node6" class="node">
<title>Node6</title>
<g id="a_node6"><a xlink:href="classv8_1_1internal_1_1Tagged_3_01HeapObject_01_4.html#a07c12d3bf0972861e1c5aefabd00971f" target="_top" xlink:title=" ">
<polygon fill="white" stroke="black" points="340,-115 340,-145 480,-145 480,-115 340,-115"/>
<text text-anchor="start" x="348" y="-133" font-family="Helvetica,sans-Serif" font-size="10.00">v8::internal::Tagged</text>
<text text-anchor="middle" x="410" y="-122" font-family="Helvetica,sans-Serif" font-size="10.00">&lt; HeapObject &gt;::address</text>
</a>
</g>
</g>
<!-- Node5&#45;&gt;Node6 -->
<g id="edge5" class="edge">
<title>Node5&#45;&gt;Node6</title>
<path fill="none" stroke="midnightblue" d="M301.08,-96.1C317.02,-101.11 334.92,-106.73 351.5,-111.94"/>
<polygon fill="midnightblue" stroke="midnightblue" points="350.49,-115.29 361.08,-114.95 352.59,-108.61 350.49,-115.29"/>
</g>
<!-- Node8 -->
<g id="node8" class="node">
<title>Node8</title>
<g id="a_node8"><a xlink:href="classv8_1_1internal_1_1Heap.html#a245314f42506e7ae43c2f57aafb7a08d" target="_top" xlink:title=" ">
<polygon fill="white" stroke="black" points="358,-66 358,-96 462,-96 462,-66 358,-66"/>
<text text-anchor="start" x="366" y="-84" font-family="Helvetica,sans-Serif" font-size="10.00">v8::internal::Heap</text>
<text text-anchor="middle" x="410" y="-73" font-family="Helvetica,sans-Serif" font-size="10.00">::heap_profiler</text>
</a>
</g>
</g>
<!-- Node5&#45;&gt;Node8 -->
<g id="edge7" class="edge">
<title>Node5&#45;&gt;Node8</title>
<path fill="none" stroke="midnightblue" d="M304.08,-81C317.95,-81 333.12,-81 347.5,-81"/>
<polygon fill="midnightblue" stroke="midnightblue" points="347.81,-84.5 357.81,-81 347.8,-77.5 347.81,-84.5"/>
</g>
<!-- Node9 -->
<g id="node9" class="node">
<title>Node9</title>
<g id="a_node9"><a xlink:href="classv8_1_1internal_1_1HeapProfiler.html#a8b042db71e07c728ba40fbaecc6fad70" target="_top" xlink:title=" ">
<polygon fill="white" stroke="black" points="341,-17 341,-47 479,-47 479,-17 341,-17"/>
<text text-anchor="start" x="349" y="-35" font-family="Helvetica,sans-Serif" font-size="10.00">v8::internal::HeapProfiler</text>
<text text-anchor="middle" x="410" y="-24" font-family="Helvetica,sans-Serif" font-size="10.00">::ObjectMoveEvent</text>
</a>
</g>
</g>
<!-- Node5&#45;&gt;Node9 -->
<g id="edge8" class="edge">
<title>Node5&#45;&gt;Node9</title>
<path fill="none" stroke="midnightblue" d="M301.08,-65.9C317.02,-60.89 334.92,-55.27 351.5,-50.06"/>
<polygon fill="midnightblue" stroke="midnightblue" points="352.59,-53.39 361.08,-47.05 350.49,-46.71 352.59,-53.39"/>
</g>
<!-- Node7 -->
<g id="node7" class="node">
<title>Node7</title>
<g id="a_node7"><a xlink:href="classv8_1_1internal_1_1TaggedImpl.html#a4dba1b2eafcf7a414910966f950540c9" target="_top" xlink:title=" ">
<polygon fill="white" stroke="black" points="516,-109.5 516,-150.5 673,-150.5 673,-109.5 516,-109.5"/>
<text text-anchor="start" x="524" y="-138.5" font-family="Helvetica,sans-Serif" font-size="10.00">v8::internal::TaggedImpl</text>
<text text-anchor="start" x="524" y="-127.5" font-family="Helvetica,sans-Serif" font-size="10.00">&lt; HeapObjectReferenceType</text>
<text text-anchor="middle" x="594.5" y="-116.5" font-family="Helvetica,sans-Serif" font-size="10.00">::STRONG, Address &gt;::ptr</text>
</a>
</g>
</g>
<!-- Node6&#45;&gt;Node7 -->
<g id="edge6" class="edge">
<title>Node6&#45;&gt;Node7</title>
<path fill="none" stroke="midnightblue" d="M480.26,-130C488.59,-130 497.19,-130 505.74,-130"/>
<polygon fill="midnightblue" stroke="midnightblue" points="505.74,-133.5 515.74,-130 505.74,-126.5 505.74,-133.5"/>
</g>
<!-- Node9&#45;&gt;Node10 -->
<g id="edge9" class="edge">
<title>Node9&#45;&gt;Node10</title>
<path fill="none" stroke="midnightblue" d="M479.22,-23.78C509.46,-20.13 543.31,-16.05 566.27,-13.28"/>
<polygon fill="midnightblue" stroke="midnightblue" points="566.79,-16.75 576.3,-12.07 565.95,-9.8 566.79,-16.75"/>
</g>
</g>
</svg>
