<?xml version="1.0" encoding="UTF-8" standalone="no"?>
<!DOCTYPE svg PUBLIC "-//W3C//DTD SVG 1.1//EN"
 "http://www.w3.org/Graphics/SVG/1.1/DTD/svg11.dtd">
<!-- Generated by graphviz version 2.43.0 (0)
 -->
<!-- Title: v8_inspector::V8InspectorClient::ensureDefaultContextInGroup Pages: 1 -->
<svg width="826pt" height="529pt"
 viewBox="0.00 0.00 826.00 529.00" xmlns="http://www.w3.org/2000/svg" xmlns:xlink="http://www.w3.org/1999/xlink">
<g id="graph0" class="graph" transform="scale(1 1) rotate(0) translate(4 525)">
<title>v8_inspector::V8InspectorClient::ensureDefaultContextInGroup</title>
<polygon fill="white" stroke="transparent" points="-4,4 -4,-525 822,-525 822,4 -4,4"/>
<!-- Node1 -->
<g id="node1" class="node">
<title>Node1</title>
<g id="a_node1"><a xlink:title=" ">
<polygon fill="#bfbfbf" stroke="black" points="621,-122.5 621,-152.5 818,-152.5 818,-122.5 621,-122.5"/>
<text text-anchor="start" x="629" y="-140.5" font-family="Helvetica,sans-Serif" font-size="10.00">v8_inspector::V8Inspector</text>
<text text-anchor="middle" x="719.5" y="-129.5" font-family="Helvetica,sans-Serif" font-size="10.00">Client::ensureDefaultContextInGroup</text>
</a>
</g>
</g>
<!-- Node2 -->
<g id="node2" class="node">
<title>Node2</title>
<g id="a_node2"><a xlink:href="classv8__inspector_1_1V8Debugger.html#a4913c3a3320733c8f9c454cbdd426d88" target="_top" xlink:title=" ">
<polygon fill="white" stroke="black" points="426,-343.5 426,-373.5 571,-373.5 571,-343.5 426,-343.5"/>
<text text-anchor="start" x="434" y="-361.5" font-family="Helvetica,sans-Serif" font-size="10.00">v8_inspector::V8Debugger</text>
<text text-anchor="middle" x="498.5" y="-350.5" font-family="Helvetica,sans-Serif" font-size="10.00">::continueProgram</text>
</a>
</g>
</g>
<!-- Node1&#45;&gt;Node2 -->
<g id="edge1" class="edge">
<title>Node1&#45;&gt;Node2</title>
<path fill="none" stroke="midnightblue" d="M696.27,-159.93C651.62,-204.99 552.08,-305.44 514.37,-343.5"/>
<polygon fill="midnightblue" stroke="midnightblue" points="698.89,-162.26 703.45,-152.69 693.92,-157.33 698.89,-162.26"/>
</g>
<!-- Node15 -->
<g id="node15" class="node">
<title>Node15</title>
<g id="a_node15"><a xlink:href="namespacev8__inspector_1_1anonymous__namespace_02v8-runtime-agent-impl_8cc_03.html#a88be14bdb7ebb518e021504e74389dc3" target="_top" xlink:title=" ">
<polygon fill="white" stroke="black" points="412,-117 412,-158 585,-158 585,-117 412,-117"/>
<text text-anchor="start" x="420" y="-146" font-family="Helvetica,sans-Serif" font-size="10.00">v8_inspector::anonymous</text>
<text text-anchor="start" x="420" y="-135" font-family="Helvetica,sans-Serif" font-size="10.00">_namespace{v8&#45;runtime</text>
<text text-anchor="middle" x="498.5" y="-124" font-family="Helvetica,sans-Serif" font-size="10.00">&#45;agent&#45;impl::cc}::ensureContext</text>
</a>
</g>
</g>
<!-- Node1&#45;&gt;Node15 -->
<g id="edge14" class="edge">
<title>Node1&#45;&gt;Node15</title>
<path fill="none" stroke="midnightblue" d="M610.81,-137.5C602.24,-137.5 593.65,-137.5 585.26,-137.5"/>
<polygon fill="midnightblue" stroke="midnightblue" points="610.85,-141 620.85,-137.5 610.85,-134 610.85,-141"/>
</g>
<!-- Node21 -->
<g id="node21" class="node">
<title>Node21</title>
<g id="a_node21"><a xlink:href="classv8__inspector_1_1V8RuntimeAgentImpl.html#ac0a49cfef9de1a045c767861253af3df" target="_top" xlink:title=" ">
<polygon fill="white" stroke="black" points="415,-67.5 415,-97.5 582,-97.5 582,-67.5 415,-67.5"/>
<text text-anchor="start" x="423" y="-85.5" font-family="Helvetica,sans-Serif" font-size="10.00">v8_inspector::V8RuntimeAgent</text>
<text text-anchor="middle" x="498.5" y="-74.5" font-family="Helvetica,sans-Serif" font-size="10.00">Impl::terminateExecution</text>
</a>
</g>
</g>
<!-- Node1&#45;&gt;Node21 -->
<g id="edge20" class="edge">
<title>Node1&#45;&gt;Node21</title>
<path fill="none" stroke="midnightblue" d="M648.67,-119.96C619.9,-112.74 586.9,-104.45 559.27,-97.51"/>
<polygon fill="midnightblue" stroke="midnightblue" points="648.11,-123.43 658.66,-122.47 649.81,-116.64 648.11,-123.43"/>
</g>
<!-- Node3 -->
<g id="node3" class="node">
<title>Node3</title>
<g id="a_node3"><a xlink:href="classv8__inspector_1_1V8Debugger.html#af7f8c0db48845b6dbdbef2a8456a75f6" target="_top" xlink:title=" ">
<polygon fill="white" stroke="black" points="217,-490.5 217,-520.5 362,-520.5 362,-490.5 217,-490.5"/>
<text text-anchor="start" x="225" y="-508.5" font-family="Helvetica,sans-Serif" font-size="10.00">v8_inspector::V8Debugger</text>
<text text-anchor="middle" x="289.5" y="-497.5" font-family="Helvetica,sans-Serif" font-size="10.00">::continueToLocation</text>
</a>
</g>
</g>
<!-- Node2&#45;&gt;Node3 -->
<g id="edge2" class="edge">
<title>Node2&#45;&gt;Node3</title>
<path fill="none" stroke="midnightblue" d="M480.6,-381.86C459.29,-409.65 420.06,-455.53 376,-481.5 370.16,-484.94 363.79,-487.91 357.27,-490.47"/>
<polygon fill="midnightblue" stroke="midnightblue" points="483.41,-383.95 486.63,-373.86 477.81,-379.74 483.41,-383.95"/>
</g>
<!-- Node5 -->
<g id="node5" class="node">
<title>Node5</title>
<g id="a_node5"><a xlink:href="classv8__inspector_1_1V8Debugger.html#af18436f3fbd64c6957ddefa0a4651717" target="_top" xlink:title=" ">
<polygon fill="white" stroke="black" points="217,-441.5 217,-471.5 362,-471.5 362,-441.5 217,-441.5"/>
<text text-anchor="start" x="225" y="-459.5" font-family="Helvetica,sans-Serif" font-size="10.00">v8_inspector::V8Debugger</text>
<text text-anchor="middle" x="289.5" y="-448.5" font-family="Helvetica,sans-Serif" font-size="10.00">::restartFrame</text>
</a>
</g>
</g>
<!-- Node2&#45;&gt;Node5 -->
<g id="edge4" class="edge">
<title>Node2&#45;&gt;Node5</title>
<path fill="none" stroke="midnightblue" d="M468.26,-379.46C444.39,-395.78 409.28,-418.02 376,-432.5 368.37,-435.82 360.15,-438.81 351.93,-441.46"/>
<polygon fill="midnightblue" stroke="midnightblue" points="470.29,-382.31 476.52,-373.74 466.31,-376.56 470.29,-382.31"/>
</g>
<!-- Node8 -->
<g id="node8" class="node">
<title>Node8</title>
<g id="a_node8"><a xlink:href="classv8__inspector_1_1V8DebuggerAgentImpl.html#a163df781f8df26a4c616120e25bc3e4d" target="_top" xlink:title=" ">
<polygon fill="white" stroke="black" points="217,-392.5 217,-422.5 362,-422.5 362,-392.5 217,-392.5"/>
<text text-anchor="start" x="225" y="-410.5" font-family="Helvetica,sans-Serif" font-size="10.00">v8_inspector::V8Debugger</text>
<text text-anchor="middle" x="289.5" y="-399.5" font-family="Helvetica,sans-Serif" font-size="10.00">AgentImpl::resume</text>
</a>
</g>
</g>
<!-- Node2&#45;&gt;Node8 -->
<g id="edge7" class="edge">
<title>Node2&#45;&gt;Node8</title>
<path fill="none" stroke="midnightblue" d="M423.98,-375.9C401.08,-381.32 376.04,-387.25 353.89,-392.49"/>
<polygon fill="midnightblue" stroke="midnightblue" points="425.06,-379.24 433.99,-373.53 423.45,-372.43 425.06,-379.24"/>
</g>
<!-- Node9 -->
<g id="node9" class="node">
<title>Node9</title>
<g id="a_node9"><a xlink:href="classv8__inspector_1_1V8Debugger.html#ad460f005b6a38b45cfd7b5c57ffc650c" target="_top" xlink:title=" ">
<polygon fill="white" stroke="black" points="217,-343.5 217,-373.5 362,-373.5 362,-343.5 217,-343.5"/>
<text text-anchor="start" x="225" y="-361.5" font-family="Helvetica,sans-Serif" font-size="10.00">v8_inspector::V8Debugger</text>
<text text-anchor="middle" x="289.5" y="-350.5" font-family="Helvetica,sans-Serif" font-size="10.00">::stepIntoStatement</text>
</a>
</g>
</g>
<!-- Node2&#45;&gt;Node9 -->
<g id="edge8" class="edge">
<title>Node2&#45;&gt;Node9</title>
<path fill="none" stroke="midnightblue" d="M415.66,-358.5C397.93,-358.5 379.32,-358.5 362.03,-358.5"/>
<polygon fill="midnightblue" stroke="midnightblue" points="415.97,-362 425.97,-358.5 415.97,-355 415.97,-362"/>
</g>
<!-- Node11 -->
<g id="node11" class="node">
<title>Node11</title>
<g id="a_node11"><a xlink:href="classv8__inspector_1_1V8Debugger.html#a3db97e0eef3b15d646710ca8b9de3e19" target="_top" xlink:title=" ">
<polygon fill="white" stroke="black" points="217,-294.5 217,-324.5 362,-324.5 362,-294.5 217,-294.5"/>
<text text-anchor="start" x="225" y="-312.5" font-family="Helvetica,sans-Serif" font-size="10.00">v8_inspector::V8Debugger</text>
<text text-anchor="middle" x="289.5" y="-301.5" font-family="Helvetica,sans-Serif" font-size="10.00">::stepOutOfFunction</text>
</a>
</g>
</g>
<!-- Node2&#45;&gt;Node11 -->
<g id="edge10" class="edge">
<title>Node2&#45;&gt;Node11</title>
<path fill="none" stroke="midnightblue" d="M423.98,-341.1C401.08,-335.68 376.04,-329.75 353.89,-324.51"/>
<polygon fill="midnightblue" stroke="midnightblue" points="423.45,-344.57 433.99,-343.47 425.06,-337.76 423.45,-344.57"/>
</g>
<!-- Node13 -->
<g id="node13" class="node">
<title>Node13</title>
<g id="a_node13"><a xlink:href="classv8__inspector_1_1V8Debugger.html#aee2e024bc84b983d1d33f9847e9ee5ce" target="_top" xlink:title=" ">
<polygon fill="white" stroke="black" points="217,-245.5 217,-275.5 362,-275.5 362,-245.5 217,-245.5"/>
<text text-anchor="start" x="225" y="-263.5" font-family="Helvetica,sans-Serif" font-size="10.00">v8_inspector::V8Debugger</text>
<text text-anchor="middle" x="289.5" y="-252.5" font-family="Helvetica,sans-Serif" font-size="10.00">::stepOverStatement</text>
</a>
</g>
</g>
<!-- Node2&#45;&gt;Node13 -->
<g id="edge12" class="edge">
<title>Node2&#45;&gt;Node13</title>
<path fill="none" stroke="midnightblue" d="M467.74,-337.65C443.83,-321.65 408.93,-299.92 376,-285.5 367.64,-281.84 358.59,-278.54 349.62,-275.63"/>
<polygon fill="midnightblue" stroke="midnightblue" points="465.78,-340.55 476.03,-343.26 469.71,-334.76 465.78,-340.55"/>
</g>
<!-- Node4 -->
<g id="node4" class="node">
<title>Node4</title>
<g id="a_node4"><a xlink:href="classv8__inspector_1_1V8DebuggerAgentImpl.html#a5f1b78c8f28cb0c861369f4a15772ee9" target="_top" xlink:title=" ">
<polygon fill="white" stroke="black" points="0,-490.5 0,-520.5 167,-520.5 167,-490.5 0,-490.5"/>
<text text-anchor="start" x="8" y="-508.5" font-family="Helvetica,sans-Serif" font-size="10.00">v8_inspector::V8Debugger</text>
<text text-anchor="middle" x="83.5" y="-497.5" font-family="Helvetica,sans-Serif" font-size="10.00">AgentImpl::continueToLocation</text>
</a>
</g>
</g>
<!-- Node3&#45;&gt;Node4 -->
<g id="edge3" class="edge">
<title>Node3&#45;&gt;Node4</title>
<path fill="none" stroke="midnightblue" d="M206.56,-505.5C193.57,-505.5 180.14,-505.5 167.13,-505.5"/>
<polygon fill="midnightblue" stroke="midnightblue" points="206.86,-509 216.86,-505.5 206.86,-502 206.86,-509"/>
</g>
<!-- Node6 -->
<g id="node6" class="node">
<title>Node6</title>
<g id="a_node6"><a xlink:href="classv8__inspector_1_1V8DebuggerAgentImpl.html#a52d58ffb81a33875afb090613740d9e4" target="_top" xlink:title=" ">
<polygon fill="white" stroke="black" points="11,-441.5 11,-471.5 156,-471.5 156,-441.5 11,-441.5"/>
<text text-anchor="start" x="19" y="-459.5" font-family="Helvetica,sans-Serif" font-size="10.00">v8_inspector::V8Debugger</text>
<text text-anchor="middle" x="83.5" y="-448.5" font-family="Helvetica,sans-Serif" font-size="10.00">AgentImpl::restartFrame</text>
</a>
</g>
</g>
<!-- Node5&#45;&gt;Node6 -->
<g id="edge5" class="edge">
<title>Node5&#45;&gt;Node6</title>
<path fill="none" stroke="midnightblue" d="M206.61,-456.5C189.96,-456.5 172.57,-456.5 156.31,-456.5"/>
<polygon fill="midnightblue" stroke="midnightblue" points="206.86,-460 216.86,-456.5 206.86,-453 206.86,-460"/>
</g>
<!-- Node7 -->
<g id="node7" class="node">
<title>Node7</title>
<g id="a_node7"><a xlink:href="classv8__inspector_1_1V8DebuggerAgentImpl.html#ab3209e7f98d117565d162ce665d9e357" target="_top" xlink:title=" ">
<polygon fill="white" stroke="black" points="9,-392.5 9,-422.5 158,-422.5 158,-392.5 9,-392.5"/>
<text text-anchor="start" x="17" y="-410.5" font-family="Helvetica,sans-Serif" font-size="10.00">v8_inspector::V8Debugger</text>
<text text-anchor="middle" x="83.5" y="-399.5" font-family="Helvetica,sans-Serif" font-size="10.00">AgentImpl::setScriptSource</text>
</a>
</g>
</g>
<!-- Node5&#45;&gt;Node7 -->
<g id="edge6" class="edge">
<title>Node5&#45;&gt;Node7</title>
<path fill="none" stroke="midnightblue" d="M216.04,-439.1C193.48,-433.68 168.8,-427.75 146.97,-422.51"/>
<polygon fill="midnightblue" stroke="midnightblue" points="215.37,-442.53 225.91,-441.47 217,-435.73 215.37,-442.53"/>
</g>
<!-- Node10 -->
<g id="node10" class="node">
<title>Node10</title>
<g id="a_node10"><a xlink:href="classv8__inspector_1_1V8DebuggerAgentImpl.html#a0a78b7c0d20918a3662073d57076eb5f" target="_top" xlink:title=" ">
<polygon fill="white" stroke="black" points="11,-343.5 11,-373.5 156,-373.5 156,-343.5 11,-343.5"/>
<text text-anchor="start" x="19" y="-361.5" font-family="Helvetica,sans-Serif" font-size="10.00">v8_inspector::V8Debugger</text>
<text text-anchor="middle" x="83.5" y="-350.5" font-family="Helvetica,sans-Serif" font-size="10.00">AgentImpl::stepInto</text>
</a>
</g>
</g>
<!-- Node9&#45;&gt;Node10 -->
<g id="edge9" class="edge">
<title>Node9&#45;&gt;Node10</title>
<path fill="none" stroke="midnightblue" d="M206.61,-358.5C189.96,-358.5 172.57,-358.5 156.31,-358.5"/>
<polygon fill="midnightblue" stroke="midnightblue" points="206.86,-362 216.86,-358.5 206.86,-355 206.86,-362"/>
</g>
<!-- Node12 -->
<g id="node12" class="node">
<title>Node12</title>
<g id="a_node12"><a xlink:href="classv8__inspector_1_1V8DebuggerAgentImpl.html#af1e8d4eb551f077dbbd21fbe5384a98e" target="_top" xlink:title=" ">
<polygon fill="white" stroke="black" points="11,-294.5 11,-324.5 156,-324.5 156,-294.5 11,-294.5"/>
<text text-anchor="start" x="19" y="-312.5" font-family="Helvetica,sans-Serif" font-size="10.00">v8_inspector::V8Debugger</text>
<text text-anchor="middle" x="83.5" y="-301.5" font-family="Helvetica,sans-Serif" font-size="10.00">AgentImpl::stepOut</text>
</a>
</g>
</g>
<!-- Node11&#45;&gt;Node12 -->
<g id="edge11" class="edge">
<title>Node11&#45;&gt;Node12</title>
<path fill="none" stroke="midnightblue" d="M206.61,-309.5C189.96,-309.5 172.57,-309.5 156.31,-309.5"/>
<polygon fill="midnightblue" stroke="midnightblue" points="206.86,-313 216.86,-309.5 206.86,-306 206.86,-313"/>
</g>
<!-- Node14 -->
<g id="node14" class="node">
<title>Node14</title>
<g id="a_node14"><a xlink:href="classv8__inspector_1_1V8DebuggerAgentImpl.html#a3fb2d42d17e9c4d04795bcb806401723" target="_top" xlink:title=" ">
<polygon fill="white" stroke="black" points="11,-245.5 11,-275.5 156,-275.5 156,-245.5 11,-245.5"/>
<text text-anchor="start" x="19" y="-263.5" font-family="Helvetica,sans-Serif" font-size="10.00">v8_inspector::V8Debugger</text>
<text text-anchor="middle" x="83.5" y="-252.5" font-family="Helvetica,sans-Serif" font-size="10.00">AgentImpl::stepOver</text>
</a>
</g>
</g>
<!-- Node13&#45;&gt;Node14 -->
<g id="edge13" class="edge">
<title>Node13&#45;&gt;Node14</title>
<path fill="none" stroke="midnightblue" d="M206.61,-260.5C189.96,-260.5 172.57,-260.5 156.31,-260.5"/>
<polygon fill="midnightblue" stroke="midnightblue" points="206.86,-264 216.86,-260.5 206.86,-257 206.86,-264"/>
</g>
<!-- Node16 -->
<g id="node16" class="node">
<title>Node16</title>
<g id="a_node16"><a xlink:href="classv8__inspector_1_1V8RuntimeAgentImpl.html#ad966725a6910104ea4c3b0d7cc72537f" target="_top" xlink:title=" ">
<polygon fill="white" stroke="black" points="206,-196.5 206,-226.5 373,-226.5 373,-196.5 206,-196.5"/>
<text text-anchor="start" x="214" y="-214.5" font-family="Helvetica,sans-Serif" font-size="10.00">v8_inspector::V8RuntimeAgent</text>
<text text-anchor="middle" x="289.5" y="-203.5" font-family="Helvetica,sans-Serif" font-size="10.00">Impl::callFunctionOn</text>
</a>
</g>
</g>
<!-- Node15&#45;&gt;Node16 -->
<g id="edge15" class="edge">
<title>Node15&#45;&gt;Node16</title>
<path fill="none" stroke="midnightblue" d="M441.77,-162.03C421.29,-170.62 397.78,-179.99 376,-187.5 366.96,-190.62 357.29,-193.63 347.82,-196.41"/>
<polygon fill="midnightblue" stroke="midnightblue" points="443.41,-165.14 451.25,-158.02 440.68,-158.69 443.41,-165.14"/>
</g>
<!-- Node17 -->
<g id="node17" class="node">
<title>Node17</title>
<g id="a_node17"><a xlink:href="classv8__inspector_1_1V8RuntimeAgentImpl.html#a9209e8752ba6fce3a9b1c066a93077d0" target="_top" xlink:title=" ">
<polygon fill="white" stroke="black" points="206,-147.5 206,-177.5 373,-177.5 373,-147.5 206,-147.5"/>
<text text-anchor="start" x="214" y="-165.5" font-family="Helvetica,sans-Serif" font-size="10.00">v8_inspector::V8RuntimeAgent</text>
<text text-anchor="middle" x="289.5" y="-154.5" font-family="Helvetica,sans-Serif" font-size="10.00">Impl::compileScript</text>
</a>
</g>
</g>
<!-- Node15&#45;&gt;Node17 -->
<g id="edge16" class="edge">
<title>Node15&#45;&gt;Node17</title>
<path fill="none" stroke="midnightblue" d="M401.86,-149.05C392.26,-150.21 382.57,-151.38 373.13,-152.52"/>
<polygon fill="midnightblue" stroke="midnightblue" points="402.3,-152.52 411.81,-147.85 401.46,-145.57 402.3,-152.52"/>
</g>
<!-- Node18 -->
<g id="node18" class="node">
<title>Node18</title>
<g id="a_node18"><a xlink:href="classv8__inspector_1_1V8RuntimeAgentImpl.html#aca10102bdba7ff951e26b2d8b8040702" target="_top" xlink:title=" ">
<polygon fill="white" stroke="black" points="206,-98.5 206,-128.5 373,-128.5 373,-98.5 206,-98.5"/>
<text text-anchor="start" x="214" y="-116.5" font-family="Helvetica,sans-Serif" font-size="10.00">v8_inspector::V8RuntimeAgent</text>
<text text-anchor="middle" x="289.5" y="-105.5" font-family="Helvetica,sans-Serif" font-size="10.00">Impl::evaluate</text>
</a>
</g>
</g>
<!-- Node15&#45;&gt;Node18 -->
<g id="edge17" class="edge">
<title>Node15&#45;&gt;Node18</title>
<path fill="none" stroke="midnightblue" d="M401.86,-126.41C392.26,-125.3 382.57,-124.18 373.13,-123.08"/>
<polygon fill="midnightblue" stroke="midnightblue" points="401.47,-129.89 411.81,-127.57 402.28,-122.94 401.47,-129.89"/>
</g>
<!-- Node19 -->
<g id="node19" class="node">
<title>Node19</title>
<g id="a_node19"><a xlink:href="classv8__inspector_1_1V8RuntimeAgentImpl.html#ad8c60b2c4cae3abdc609b9866f5d43f7" target="_top" xlink:title=" ">
<polygon fill="white" stroke="black" points="203,-49.5 203,-79.5 376,-79.5 376,-49.5 203,-49.5"/>
<text text-anchor="start" x="211" y="-67.5" font-family="Helvetica,sans-Serif" font-size="10.00">v8_inspector::V8RuntimeAgent</text>
<text text-anchor="middle" x="289.5" y="-56.5" font-family="Helvetica,sans-Serif" font-size="10.00">Impl::globalLexicalScopeNames</text>
</a>
</g>
</g>
<!-- Node15&#45;&gt;Node19 -->
<g id="edge18" class="edge">
<title>Node15&#45;&gt;Node19</title>
<path fill="none" stroke="midnightblue" d="M426.46,-113.35C421.54,-111.44 416.68,-109.48 412,-107.5 395.53,-100.52 392.65,-96.04 376,-89.5 366.93,-85.94 357.15,-82.62 347.55,-79.63"/>
<polygon fill="midnightblue" stroke="midnightblue" points="425.37,-116.68 435.96,-116.96 427.85,-110.14 425.37,-116.68"/>
</g>
<!-- Node20 -->
<g id="node20" class="node">
<title>Node20</title>
<g id="a_node20"><a xlink:href="classv8__inspector_1_1V8RuntimeAgentImpl.html#a78fa774454c0e851c378f32c0e044c44" target="_top" xlink:title=" ">
<polygon fill="white" stroke="black" points="206,-0.5 206,-30.5 373,-30.5 373,-0.5 206,-0.5"/>
<text text-anchor="start" x="214" y="-18.5" font-family="Helvetica,sans-Serif" font-size="10.00">v8_inspector::V8RuntimeAgent</text>
<text text-anchor="middle" x="289.5" y="-7.5" font-family="Helvetica,sans-Serif" font-size="10.00">Impl::runScript</text>
</a>
</g>
</g>
<!-- Node15&#45;&gt;Node20 -->
<g id="edge19" class="edge">
<title>Node15&#45;&gt;Node20</title>
<path fill="none" stroke="midnightblue" d="M416.73,-111.26C415.1,-110.06 413.52,-108.81 412,-107.5 386.08,-85.19 402.62,-60.97 376,-39.5 371.8,-36.11 367.15,-33.2 362.25,-30.7"/>
<polygon fill="midnightblue" stroke="midnightblue" points="414.98,-114.29 425.27,-116.82 418.8,-108.43 414.98,-114.29"/>
</g>
</g>
</svg>
