<?xml version="1.0" encoding="UTF-8" standalone="no"?>
<!DOCTYPE svg PUBLIC "-//W3C//DTD SVG 1.1//EN"
 "http://www.w3.org/Graphics/SVG/1.1/DTD/svg11.dtd">
<!-- Generated by graphviz version 2.43.0 (0)
 -->
<!-- Title: v8::internal::compiler::CallDescriptor::GetOffsetToReturns Pages: 1 -->
<!--zoomable 572 -->
<svg id="main" version="1.1" xmlns="http://www.w3.org/2000/svg" xmlns:xlink="http://www.w3.org/1999/xlink" xml:space="preserve" onload="init(evt)">
<style type="text/css"><![CDATA[
.edge:hover path { stroke: red; }
.edge:hover polygon { stroke: red; fill: red; }
]]></style>
<script type="text/javascript"><![CDATA[
var edges = document.getElementsByTagName('g');
if (edges && edges.length) {
  for (var i=0;i<edges.length;i++) {
    if (edges[i].id.substr(0,4)=='edge') {
      edges[i].setAttribute('class','edge');
    }
  }
}
]]></script>
        <defs>
                <circle id="rim" cx="0" cy="0" r="7"/>
                <circle id="rim2" cx="0" cy="0" r="3.5"/>
                <g id="zoomPlus">
                        <use xlink:href="#rim" fill="#404040">
                                <set attributeName="fill" to="#808080" begin="zoomplus.mouseover" end="zoomplus.mouseout"/>
                        </use>
                        <path d="M-4,0h8M0,-4v8" fill="none" stroke="white" stroke-width="1.5" pointer-events="none"/>
                </g>
                <g id="zoomMin">
                        <use xlink:href="#rim" fill="#404040">
                                <set attributeName="fill" to="#808080" begin="zoomminus.mouseover" end="zoomminus.mouseout"/>
                        </use>
                        <path d="M-4,0h8" fill="none" stroke="white" stroke-width="1.5" pointer-events="none"/>
                </g>
                <g id="dirArrow">
                        <path fill="none" stroke="white" stroke-width="1.5" d="M0,-3.0v7 M-2.5,-0.5L0,-3.0L2.5,-0.5"/>
                </g>
               <g id="resetDef">
                       <use xlink:href="#rim2" fill="#404040">
                               <set attributeName="fill" to="#808080" begin="reset.mouseover" end="reset.mouseout"/>
                       </use>
               </g>
        </defs>

<script type="text/javascript">
var viewWidth = 804;
var viewHeight = 572;
var sectionId = 'dynsection-18';
</script>
<script xlink:href="svgpan.js"/>
<svg id="graph" class="graph">
<g id="viewport">
<title>v8::internal::compiler::CallDescriptor::GetOffsetToReturns</title>
<polygon fill="white" stroke="transparent" points="-4,4 -4,-568 800,-568 800,4 -4,4"/>
<!-- Node1 -->
<g id="node1" class="node">
<title>Node1</title>
<g id="a_node1"><a xlink:title=" ">
<polygon fill="#bfbfbf" stroke="black" points="0,-178 0,-219 155,-219 155,-178 0,-178"/>
<text text-anchor="start" x="8" y="-207" font-family="Helvetica,sans-Serif" font-size="10.00">v8::internal::compiler</text>
<text text-anchor="start" x="8" y="-196" font-family="Helvetica,sans-Serif" font-size="10.00">::CallDescriptor::GetOffsetTo</text>
<text text-anchor="middle" x="77.5" y="-185" font-family="Helvetica,sans-Serif" font-size="10.00">Returns</text>
</a>
</g>
</g>
<!-- Node2 -->
<g id="node2" class="node">
<title>Node2</title>
<g id="a_node2"><a xlink:href="namespacev8_1_1internal.html#a440ffe371dade72e74d6f2286e90c1ba" target="_top" xlink:title=" ">
<polygon fill="white" stroke="black" points="216,-533.5 216,-563.5 361,-563.5 361,-533.5 216,-533.5"/>
<text text-anchor="start" x="224" y="-551.5" font-family="Helvetica,sans-Serif" font-size="10.00">v8::internal::AddArgument</text>
<text text-anchor="middle" x="288.5" y="-540.5" font-family="Helvetica,sans-Serif" font-size="10.00">PaddingSlots</text>
</a>
</g>
</g>
<!-- Node1&#45;&gt;Node2 -->
<g id="edge1" class="edge">
<title>Node1&#45;&gt;Node2</title>
<path fill="none" stroke="midnightblue" d="M79.58,-219.07C83.66,-275.37 102.81,-433.49 191,-518.5 195.64,-522.97 200.94,-526.78 206.61,-530.02"/>
<polygon fill="midnightblue" stroke="midnightblue" points="205.28,-533.27 215.78,-534.66 208.44,-527.03 205.28,-533.27"/>
</g>
<!-- Node4 -->
<g id="node4" class="node">
<title>Node4</title>
<g id="a_node4"><a xlink:href="namespacev8_1_1internal.html#aa6b3743bd5d773c552654f2a6c3efa4a" target="_top" xlink:title=" ">
<polygon fill="white" stroke="black" points="453,-457 453,-476 572,-476 572,-457 453,-457"/>
<text text-anchor="middle" x="512.5" y="-464" font-family="Helvetica,sans-Serif" font-size="10.00">v8::internal::DCHECK</text>
</a>
</g>
</g>
<!-- Node1&#45;&gt;Node4 -->
<g id="edge3" class="edge">
<title>Node1&#45;&gt;Node4</title>
<path fill="none" stroke="midnightblue" d="M90.12,-219.08C108.15,-249.4 145.59,-306.17 191,-340.5 272.65,-402.23 388.44,-437.75 456.19,-454.51"/>
<polygon fill="midnightblue" stroke="midnightblue" points="455.69,-457.99 466.23,-456.94 457.33,-451.18 455.69,-457.99"/>
</g>
<!-- Node5 -->
<g id="node5" class="node">
<title>Node5</title>
<g id="a_node5"><a xlink:href="classv8_1_1internal_1_1LinkageLocation.html#a897db92ebdb3b4f6db4fbe5e4c82063b" target="_top" xlink:title=" ">
<polygon fill="white" stroke="black" points="639,-413.5 639,-443.5 796,-443.5 796,-413.5 639,-413.5"/>
<text text-anchor="start" x="647" y="-431.5" font-family="Helvetica,sans-Serif" font-size="10.00">v8::internal::LinkageLocation</text>
<text text-anchor="middle" x="717.5" y="-420.5" font-family="Helvetica,sans-Serif" font-size="10.00">::GetLocation</text>
</a>
</g>
</g>
<!-- Node1&#45;&gt;Node5 -->
<g id="edge4" class="edge">
<title>Node1&#45;&gt;Node5</title>
<path fill="none" stroke="midnightblue" d="M84.59,-219.09C97.55,-259.51 131.67,-349.75 191,-400.5 274.13,-471.61 314.3,-466.31 422,-485.5 501.2,-499.61 524.72,-504.05 603,-485.5 632.8,-478.44 663.66,-462.27 685.67,-448.94"/>
<polygon fill="midnightblue" stroke="midnightblue" points="687.59,-451.88 694.24,-443.63 683.9,-445.93 687.59,-451.88"/>
</g>
<!-- Node6 -->
<g id="node6" class="node">
<title>Node6</title>
<g id="a_node6"><a xlink:href="classv8_1_1internal_1_1compiler_1_1CallDescriptor.html#a85006c7bd20c5a74400fdffa6276e9ea" target="_top" xlink:title=" ">
<polygon fill="white" stroke="black" points="211,-290 211,-331 366,-331 366,-290 211,-290"/>
<text text-anchor="start" x="219" y="-319" font-family="Helvetica,sans-Serif" font-size="10.00">v8::internal::compiler</text>
<text text-anchor="start" x="219" y="-308" font-family="Helvetica,sans-Serif" font-size="10.00">::CallDescriptor::GetOffsetTo</text>
<text text-anchor="middle" x="288.5" y="-297" font-family="Helvetica,sans-Serif" font-size="10.00">FirstUnusedStackSlot</text>
</a>
</g>
</g>
<!-- Node1&#45;&gt;Node6 -->
<g id="edge5" class="edge">
<title>Node1&#45;&gt;Node6</title>
<path fill="none" stroke="midnightblue" d="M116.83,-219.04C151.49,-237.61 202.64,-265.02 239.9,-284.99"/>
<polygon fill="midnightblue" stroke="midnightblue" points="238.59,-288.26 249.06,-289.9 241.89,-282.09 238.59,-288.26"/>
</g>
<!-- Node15 -->
<g id="node12" class="node">
<title>Node15</title>
<g id="a_node12"><a xlink:href="classv8_1_1internal_1_1LinkageLocation.html#a6560eb18bf67347a54083baf3e9b2daa" target="_top" xlink:title=" ">
<polygon fill="white" stroke="black" points="434,-183.5 434,-213.5 591,-213.5 591,-183.5 434,-183.5"/>
<text text-anchor="start" x="442" y="-201.5" font-family="Helvetica,sans-Serif" font-size="10.00">v8::internal::LinkageLocation</text>
<text text-anchor="middle" x="512.5" y="-190.5" font-family="Helvetica,sans-Serif" font-size="10.00">::IsCallerFrameSlot</text>
</a>
</g>
</g>
<!-- Node1&#45;&gt;Node15 -->
<g id="edge18" class="edge">
<title>Node1&#45;&gt;Node15</title>
<path fill="none" stroke="midnightblue" d="M155.41,-198.5C230.54,-198.5 344.75,-198.5 423.46,-198.5"/>
<polygon fill="midnightblue" stroke="midnightblue" points="423.85,-202 433.85,-198.5 423.85,-195 423.85,-202"/>
</g>
<!-- Node16 -->
<g id="node13" class="node">
<title>Node16</title>
<g id="a_node13"><a xlink:href="classv8_1_1internal_1_1LinkageLocation.html#ac3fb18206691002882e896268ffb97c4" target="_top" xlink:title=" ">
<polygon fill="white" stroke="red" points="639,-183.5 639,-213.5 796,-213.5 796,-183.5 639,-183.5"/>
<text text-anchor="start" x="647" y="-201.5" font-family="Helvetica,sans-Serif" font-size="10.00">v8::internal::LinkageLocation</text>
<text text-anchor="middle" x="717.5" y="-190.5" font-family="Helvetica,sans-Serif" font-size="10.00">::IsRegister</text>
</a>
</g>
</g>
<!-- Node1&#45;&gt;Node16 -->
<g id="edge19" class="edge">
<title>Node1&#45;&gt;Node16</title>
<path fill="none" stroke="midnightblue" d="M155.17,-187.39C257.54,-174.26 444.4,-156.24 603,-173.5 618.3,-175.17 634.56,-178.06 649.85,-181.3"/>
<polygon fill="midnightblue" stroke="midnightblue" points="649.22,-184.74 659.74,-183.47 650.73,-177.91 649.22,-184.74"/>
</g>
<!-- Node18 -->
<g id="node14" class="node">
<title>Node18</title>
<g id="a_node14"><a xlink:href="classv8_1_1internal_1_1compiler_1_1CallDescriptor.html#ac88f73514ae75c393e16717debfd7661" target="_top" xlink:title=" ">
<polygon fill="white" stroke="black" points="194.5,-98.5 194.5,-128.5 382.5,-128.5 382.5,-98.5 194.5,-98.5"/>
<text text-anchor="start" x="202.5" y="-116.5" font-family="Helvetica,sans-Serif" font-size="10.00">v8::internal::compiler</text>
<text text-anchor="middle" x="288.5" y="-105.5" font-family="Helvetica,sans-Serif" font-size="10.00">::CallDescriptor::GetReturnLocation</text>
</a>
</g>
</g>
<!-- Node1&#45;&gt;Node18 -->
<g id="edge17" class="edge">
<title>Node1&#45;&gt;Node18</title>
<path fill="none" stroke="midnightblue" d="M116.89,-177.91C138.33,-166.88 165.74,-153.53 191,-143.5 201.59,-139.29 213.03,-135.29 224.19,-131.66"/>
<polygon fill="midnightblue" stroke="midnightblue" points="225.43,-134.93 233.9,-128.56 223.31,-128.26 225.43,-134.93"/>
</g>
<!-- Node19 -->
<g id="node15" class="node">
<title>Node19</title>
<g id="a_node15"><a xlink:href="classv8_1_1internal_1_1compiler_1_1CallDescriptor.html#a8b77fbb2fa2c3c40431dc1ad5aa4227a" target="_top" xlink:title=" ">
<polygon fill="white" stroke="black" points="191,-49.5 191,-79.5 386,-79.5 386,-49.5 191,-49.5"/>
<text text-anchor="start" x="199" y="-67.5" font-family="Helvetica,sans-Serif" font-size="10.00">v8::internal::compiler</text>
<text text-anchor="middle" x="288.5" y="-56.5" font-family="Helvetica,sans-Serif" font-size="10.00">::CallDescriptor::ParameterSlotCount</text>
</a>
</g>
</g>
<!-- Node1&#45;&gt;Node19 -->
<g id="edge20" class="edge">
<title>Node1&#45;&gt;Node19</title>
<path fill="none" stroke="midnightblue" d="M93.98,-177.7C113.72,-152.69 150.21,-111.26 191,-88.5 194.28,-86.67 197.71,-84.97 201.22,-83.41"/>
<polygon fill="midnightblue" stroke="midnightblue" points="202.76,-86.56 210.71,-79.55 200.13,-80.07 202.76,-86.56"/>
</g>
<!-- Node20 -->
<g id="node16" class="node">
<title>Node20</title>
<g id="a_node16"><a xlink:href="classv8_1_1internal_1_1compiler_1_1CallDescriptor.html#ab012c1bf1397cdd52d75bf468ea35c54" target="_top" xlink:title=" ">
<polygon fill="white" stroke="black" points="209.5,-0.5 209.5,-30.5 367.5,-30.5 367.5,-0.5 209.5,-0.5"/>
<text text-anchor="start" x="217.5" y="-18.5" font-family="Helvetica,sans-Serif" font-size="10.00">v8::internal::compiler</text>
<text text-anchor="middle" x="288.5" y="-7.5" font-family="Helvetica,sans-Serif" font-size="10.00">::CallDescriptor::ReturnCount</text>
</a>
</g>
</g>
<!-- Node1&#45;&gt;Node20 -->
<g id="edge21" class="edge">
<title>Node1&#45;&gt;Node20</title>
<path fill="none" stroke="midnightblue" d="M87.23,-177.85C102.83,-143.57 138.79,-75.17 191,-39.5 193.78,-37.6 196.7,-35.85 199.71,-34.24"/>
<polygon fill="midnightblue" stroke="midnightblue" points="201.49,-37.27 209.02,-29.81 198.49,-30.95 201.49,-37.27"/>
</g>
<!-- Node3 -->
<g id="node3" class="node">
<title>Node3</title>
<g id="a_node3"><a xlink:href="namespacev8_1_1internal.html#acd38bb6e1776004e1aca3c1d17f49e2e" target="_top" xlink:title=" ">
<polygon fill="white" stroke="black" points="430.5,-533.5 430.5,-563.5 594.5,-563.5 594.5,-533.5 430.5,-533.5"/>
<text text-anchor="start" x="438.5" y="-551.5" font-family="Helvetica,sans-Serif" font-size="10.00">v8::internal::ArgumentPadding</text>
<text text-anchor="middle" x="512.5" y="-540.5" font-family="Helvetica,sans-Serif" font-size="10.00">Slots</text>
</a>
</g>
</g>
<!-- Node2&#45;&gt;Node3 -->
<g id="edge2" class="edge">
<title>Node2&#45;&gt;Node3</title>
<path fill="none" stroke="midnightblue" d="M361.27,-548.5C380.04,-548.5 400.53,-548.5 420.17,-548.5"/>
<polygon fill="midnightblue" stroke="midnightblue" points="420.35,-552 430.35,-548.5 420.35,-545 420.35,-552"/>
</g>
<!-- Node6&#45;&gt;Node4 -->
<g id="edge6" class="edge">
<title>Node6&#45;&gt;Node4</title>
<path fill="none" stroke="midnightblue" d="M320.3,-331.19C340.37,-345.56 366.38,-365.94 386,-387.5 405.67,-409.11 398.34,-425.37 422,-442.5 428.41,-447.14 435.67,-450.89 443.21,-453.91"/>
<polygon fill="midnightblue" stroke="midnightblue" points="442.27,-457.29 452.86,-457.36 444.62,-450.7 442.27,-457.29"/>
</g>
<!-- Node6&#45;&gt;Node5 -->
<g id="edge8" class="edge">
<title>Node6&#45;&gt;Node5</title>
<path fill="none" stroke="midnightblue" d="M315.27,-331.01C350.3,-358.69 409.98,-405.07 422,-409.5 488.35,-433.95 568.76,-437.56 628.78,-435.69"/>
<polygon fill="midnightblue" stroke="midnightblue" points="629.12,-439.18 638.98,-435.32 628.86,-432.19 629.12,-439.18"/>
</g>
<!-- Node7 -->
<g id="node7" class="node">
<title>Node7</title>
<g id="a_node7"><a xlink:href="classv8_1_1internal_1_1compiler_1_1CallDescriptor.html#adf28efe9f798c3e0d4f018ef7a2b37af" target="_top" xlink:title=" ">
<polygon fill="white" stroke="black" points="422,-320.5 422,-350.5 603,-350.5 603,-320.5 422,-320.5"/>
<text text-anchor="start" x="430" y="-338.5" font-family="Helvetica,sans-Serif" font-size="10.00">v8::internal::compiler</text>
<text text-anchor="middle" x="512.5" y="-327.5" font-family="Helvetica,sans-Serif" font-size="10.00">::CallDescriptor::GetInputLocation</text>
</a>
</g>
</g>
<!-- Node6&#45;&gt;Node7 -->
<g id="edge7" class="edge">
<title>Node6&#45;&gt;Node7</title>
<path fill="none" stroke="midnightblue" d="M366.21,-319.14C380.91,-320.79 396.5,-322.55 411.81,-324.27"/>
<polygon fill="midnightblue" stroke="midnightblue" points="411.48,-327.76 421.81,-325.4 412.26,-320.8 411.48,-327.76"/>
</g>
<!-- Node8 -->
<g id="node8" class="node">
<title>Node8</title>
<g id="a_node8"><a xlink:href="classv8_1_1internal_1_1LinkageLocation.html#a4fa803da6b9345f20eca2de3f62a5aca" target="_top" xlink:title=" ">
<polygon fill="white" stroke="black" points="434,-271.5 434,-301.5 591,-301.5 591,-271.5 434,-271.5"/>
<text text-anchor="start" x="442" y="-289.5" font-family="Helvetica,sans-Serif" font-size="10.00">v8::internal::LinkageLocation</text>
<text text-anchor="middle" x="512.5" y="-278.5" font-family="Helvetica,sans-Serif" font-size="10.00">::GetSizeInPointers</text>
</a>
</g>
</g>
<!-- Node6&#45;&gt;Node8 -->
<g id="edge9" class="edge">
<title>Node6&#45;&gt;Node8</title>
<path fill="none" stroke="midnightblue" d="M366.21,-302.21C384.7,-300.21 404.59,-298.06 423.54,-296.01"/>
<polygon fill="midnightblue" stroke="midnightblue" points="424.09,-299.47 433.66,-294.92 423.34,-292.51 424.09,-299.47"/>
</g>
<!-- Node14 -->
<g id="node11" class="node">
<title>Node14</title>
<g id="a_node11"><a xlink:href="classv8_1_1internal_1_1compiler_1_1CallDescriptor.html#ac583cfac8e7cf666fde7238bfbd3d305" target="_top" xlink:title=" ">
<polygon fill="white" stroke="black" points="437,-369.5 437,-399.5 588,-399.5 588,-369.5 437,-369.5"/>
<text text-anchor="start" x="445" y="-387.5" font-family="Helvetica,sans-Serif" font-size="10.00">v8::internal::compiler</text>
<text text-anchor="middle" x="512.5" y="-376.5" font-family="Helvetica,sans-Serif" font-size="10.00">::CallDescriptor::InputCount</text>
</a>
</g>
</g>
<!-- Node6&#45;&gt;Node14 -->
<g id="edge12" class="edge">
<title>Node6&#45;&gt;Node14</title>
<path fill="none" stroke="midnightblue" d="M340.37,-331.04C364.84,-340.58 394.73,-351.72 422,-360.5 428.48,-362.59 435.27,-364.64 442.08,-366.61"/>
<polygon fill="midnightblue" stroke="midnightblue" points="441.47,-370.08 452.04,-369.44 443.38,-363.34 441.47,-370.08"/>
</g>
<!-- Node6&#45;&gt;Node15 -->
<g id="edge13" class="edge">
<title>Node6&#45;&gt;Node15</title>
<path fill="none" stroke="midnightblue" d="M318.39,-289.9C344.52,-271.94 384.53,-246.08 422,-228.5 430.9,-224.32 440.55,-220.46 450.1,-216.98"/>
<polygon fill="midnightblue" stroke="midnightblue" points="451.32,-220.26 459.59,-213.64 448.99,-213.66 451.32,-220.26"/>
</g>
<!-- Node6&#45;&gt;Node16 -->
<g id="edge16" class="edge">
<title>Node6&#45;&gt;Node16</title>
<path fill="none" stroke="midnightblue" d="M339.9,-289.92C364.4,-280.42 394.44,-269.5 422,-261.5 427.22,-259.98 550.1,-233.82 635.46,-215.69"/>
<polygon fill="midnightblue" stroke="midnightblue" points="636.36,-219.08 645.41,-213.58 634.91,-212.23 636.36,-219.08"/>
</g>
<!-- Node9 -->
<g id="node9" class="node">
<title>Node9</title>
<g id="a_node9"><a xlink:href="namespacev8_1_1internal.html#ae385b3d768c3fbe2a06d31972053c94b" target="_top" xlink:title=" ">
<polygon fill="white" stroke="red" points="648,-301.5 648,-331.5 787,-331.5 787,-301.5 648,-301.5"/>
<text text-anchor="start" x="656" y="-319.5" font-family="Helvetica,sans-Serif" font-size="10.00">v8::internal::ElementSize</text>
<text text-anchor="middle" x="717.5" y="-308.5" font-family="Helvetica,sans-Serif" font-size="10.00">InPointers</text>
</a>
</g>
</g>
<!-- Node8&#45;&gt;Node9 -->
<g id="edge10" class="edge">
<title>Node8&#45;&gt;Node9</title>
<path fill="none" stroke="midnightblue" d="M591.11,-297.97C606.45,-300.24 622.55,-302.62 637.92,-304.89"/>
<polygon fill="midnightblue" stroke="midnightblue" points="637.49,-308.36 647.89,-306.36 638.51,-301.44 637.49,-308.36"/>
</g>
<!-- Node13 -->
<g id="node10" class="node">
<title>Node13</title>
<g id="a_node10"><a xlink:href="classv8_1_1internal_1_1LinkageLocation.html#a4cf4a8fddabbaf760817351b4881f558" target="_top" xlink:title=" ">
<polygon fill="white" stroke="black" points="639,-252.5 639,-282.5 796,-282.5 796,-252.5 639,-252.5"/>
<text text-anchor="start" x="647" y="-270.5" font-family="Helvetica,sans-Serif" font-size="10.00">v8::internal::LinkageLocation</text>
<text text-anchor="middle" x="717.5" y="-259.5" font-family="Helvetica,sans-Serif" font-size="10.00">::GetType</text>
</a>
</g>
</g>
<!-- Node8&#45;&gt;Node13 -->
<g id="edge11" class="edge">
<title>Node8&#45;&gt;Node13</title>
<path fill="none" stroke="midnightblue" d="M591.11,-279.24C603.48,-278.08 616.35,-276.87 628.92,-275.7"/>
<polygon fill="midnightblue" stroke="midnightblue" points="629.3,-279.18 638.93,-274.76 628.65,-272.21 629.3,-279.18"/>
</g>
<!-- Node15&#45;&gt;Node5 -->
<g id="edge14" class="edge">
<title>Node15&#45;&gt;Node5</title>
<path fill="none" stroke="midnightblue" d="M542.79,-213.67C561.96,-224.79 586.43,-241.43 603,-261.5 627.82,-291.57 617.79,-308.79 639,-341.5 654.56,-365.49 676.56,-389.51 693.15,-406.22"/>
<polygon fill="midnightblue" stroke="midnightblue" points="690.78,-408.8 700.35,-413.35 695.71,-403.82 690.78,-408.8"/>
</g>
<!-- Node15&#45;&gt;Node16 -->
<g id="edge15" class="edge">
<title>Node15&#45;&gt;Node16</title>
<path fill="none" stroke="midnightblue" d="M591.11,-198.5C603.48,-198.5 616.35,-198.5 628.92,-198.5"/>
<polygon fill="midnightblue" stroke="midnightblue" points="628.93,-202 638.93,-198.5 628.93,-195 628.93,-202"/>
</g>
</g>
</svg>
        <g id="navigator" transform="translate(0 0)" fill="#404254">
                <rect fill="#f2f5e9" fill-opacity="0.5" stroke="#606060" stroke-width=".5" x="0" y="0" width="60" height="60"/>
                <use id="zoomplus" xlink:href="#zoomPlus" x="17" y="9" onmousedown="handleZoom(evt,'in')"/>
                <use id="zoomminus" xlink:href="#zoomMin" x="42" y="9" onmousedown="handleZoom(evt,'out')"/>
                <use id="reset" xlink:href="#resetDef" x="30" y="36" onmousedown="handleReset()"/>
                <g id="arrowUp" xlink:href="#dirArrow" transform="translate(30 24)" onmousedown="handlePan(0,-1)">
                  <use xlink:href="#rim" fill="#404040">
                        <set attributeName="fill" to="#808080" begin="arrowUp.mouseover" end="arrowUp.mouseout"/>
                  </use>
                  <path fill="none" stroke="white" stroke-width="1.5" d="M0,-3.0v7 M-2.5,-0.5L0,-3.0L2.5,-0.5"/>
                </g>
                <g id="arrowRight" xlink:href="#dirArrow" transform="rotate(90) translate(36 -43)" onmousedown="handlePan(1,0)">
                  <use xlink:href="#rim" fill="#404040">
                        <set attributeName="fill" to="#808080" begin="arrowRight.mouseover" end="arrowRight.mouseout"/>
                  </use>
                  <path fill="none" stroke="white" stroke-width="1.5" d="M0,-3.0v7 M-2.5,-0.5L0,-3.0L2.5,-0.5"/>
                </g>
                <g id="arrowDown" xlink:href="#dirArrow" transform="rotate(180) translate(-30 -48)" onmousedown="handlePan(0,1)">
                  <use xlink:href="#rim" fill="#404040">
                        <set attributeName="fill" to="#808080" begin="arrowDown.mouseover" end="arrowDown.mouseout"/>
                  </use>
                  <path fill="none" stroke="white" stroke-width="1.5" d="M0,-3.0v7 M-2.5,-0.5L0,-3.0L2.5,-0.5"/>
                </g>
                <g id="arrowLeft" xlink:href="#dirArrow" transform="rotate(270) translate(-36 17)" onmousedown="handlePan(-1,0)">
                  <use xlink:href="#rim" fill="#404040">
                        <set attributeName="fill" to="#808080" begin="arrowLeft.mouseover" end="arrowLeft.mouseout"/>
                  </use>
                  <path fill="none" stroke="white" stroke-width="1.5" d="M0,-3.0v7 M-2.5,-0.5L0,-3.0L2.5,-0.5"/>
                </g>
        </g>
        <svg viewBox="0 0 15 15" width="100%" height="30px" preserveAspectRatio="xMaxYMin meet">
         <g id="arrow_out" transform="scale(0.3 0.3)">
          <a xlink:href="classv8_1_1internal_1_1compiler_1_1CallDescriptor_ae8afa09ca2609cf29e00176960ff3eb8_cgraph_org.svg" target="_base">
           <rect id="button" ry="5" rx="5" y="6" x="6" height="38" width="38"
                fill="#f2f5e9" fill-opacity="0.5" stroke="#606060" stroke-width="1.0"/>
           <path id="arrow"
             d="M 11.500037,31.436501 C 11.940474,20.09759 22.043105,11.32322 32.158766,21.979434 L 37.068811,17.246167 C 37.068811,17.246167 37.088388,32 37.088388,32 L 22.160133,31.978069 C 22.160133,31.978069 26.997745,27.140456 26.997745,27.140456 C 18.528582,18.264221 13.291696,25.230495 11.500037,31.436501 z"
             style="fill:#404040;"/>
          </a>
         </g>
        </svg>
</svg>
