<?xml version="1.0" encoding="UTF-8" standalone="no"?>
<!DOCTYPE svg PUBLIC "-//W3C//DTD SVG 1.1//EN"
 "http://www.w3.org/Graphics/SVG/1.1/DTD/svg11.dtd">
<!-- Generated by graphviz version 2.43.0 (0)
 -->
<!-- Title: v8::internal::compiler::Schedule::GetBlockById Pages: 1 -->
<svg width="812pt" height="99pt"
 viewBox="0.00 0.00 812.00 99.00" xmlns="http://www.w3.org/2000/svg" xmlns:xlink="http://www.w3.org/1999/xlink">
<g id="graph0" class="graph" transform="scale(1 1) rotate(0) translate(4 95)">
<title>v8::internal::compiler::Schedule::GetBlockById</title>
<polygon fill="white" stroke="transparent" points="-4,4 -4,-95 808,-95 808,4 -4,4"/>
<!-- Node1 -->
<g id="node1" class="node">
<title>Node1</title>
<g id="a_node1"><a xlink:title=" ">
<polygon fill="#bfbfbf" stroke="black" points="665,-24.5 665,-54.5 804,-54.5 804,-24.5 665,-24.5"/>
<text text-anchor="start" x="673" y="-42.5" font-family="Helvetica,sans-Serif" font-size="10.00">v8::internal::compiler</text>
<text text-anchor="middle" x="734.5" y="-31.5" font-family="Helvetica,sans-Serif" font-size="10.00">::Schedule::GetBlockById</text>
</a>
</g>
</g>
<!-- Node2 -->
<g id="node2" class="node">
<title>Node2</title>
<g id="a_node2"><a xlink:href="classv8_1_1internal_1_1compiler_1_1ScheduleVerifier.html#ac9dd5c8cf231784a64601369e0b3d596" target="_top" xlink:title=" ">
<polygon fill="white" stroke="black" points="483.5,-49.5 483.5,-79.5 609.5,-79.5 609.5,-49.5 483.5,-49.5"/>
<text text-anchor="start" x="491.5" y="-67.5" font-family="Helvetica,sans-Serif" font-size="10.00">v8::internal::compiler</text>
<text text-anchor="middle" x="546.5" y="-56.5" font-family="Helvetica,sans-Serif" font-size="10.00">::ScheduleVerifier::Run</text>
</a>
</g>
</g>
<!-- Node1&#45;&gt;Node2 -->
<g id="edge1" class="edge">
<title>Node1&#45;&gt;Node2</title>
<path fill="none" stroke="midnightblue" d="M654.52,-50.12C639.58,-52.12 624.14,-54.2 609.8,-56.13"/>
<polygon fill="midnightblue" stroke="midnightblue" points="655.32,-53.54 664.77,-48.74 654.39,-46.6 655.32,-53.54"/>
</g>
<!-- Node6 -->
<g id="node5" class="node">
<title>Node6</title>
<g id="a_node5"><a xlink:href="classv8_1_1internal_1_1compiler_1_1Scheduler.html#afcfe8a68238b50746505ce5c1deac5d6" target="_top" xlink:title=" ">
<polygon fill="white" stroke="black" points="464,-0.5 464,-30.5 629,-30.5 629,-0.5 464,-0.5"/>
<text text-anchor="start" x="472" y="-18.5" font-family="Helvetica,sans-Serif" font-size="10.00">v8::internal::compiler</text>
<text text-anchor="middle" x="546.5" y="-7.5" font-family="Helvetica,sans-Serif" font-size="10.00">::Scheduler::SealFinalSchedule</text>
</a>
</g>
</g>
<!-- Node1&#45;&gt;Node6 -->
<g id="edge4" class="edge">
<title>Node1&#45;&gt;Node6</title>
<path fill="none" stroke="midnightblue" d="M654.6,-29.32C646.19,-28.23 637.61,-27.13 629.17,-26.04"/>
<polygon fill="midnightblue" stroke="midnightblue" points="654.4,-32.82 664.77,-30.63 655.3,-25.88 654.4,-32.82"/>
</g>
<!-- Node3 -->
<g id="node3" class="node">
<title>Node3</title>
<g id="a_node3"><a xlink:href="namespacev8_1_1internal_1_1compiler_1_1anonymous__namespace_02pipeline_8cc_03.html#a13014e7cda4725ad40e496733f9229e6" target="_top" xlink:title=" ">
<polygon fill="white" stroke="black" points="249,-38.5 249,-90.5 428,-90.5 428,-38.5 249,-38.5"/>
<text text-anchor="start" x="257" y="-78.5" font-family="Helvetica,sans-Serif" font-size="10.00">v8::internal::compiler</text>
<text text-anchor="start" x="257" y="-67.5" font-family="Helvetica,sans-Serif" font-size="10.00">::anonymous_namespace</text>
<text text-anchor="start" x="257" y="-56.5" font-family="Helvetica,sans-Serif" font-size="10.00">{pipeline::cc}::TraceScheduleAnd</text>
<text text-anchor="middle" x="338.5" y="-45.5" font-family="Helvetica,sans-Serif" font-size="10.00">Verify</text>
</a>
</g>
</g>
<!-- Node2&#45;&gt;Node3 -->
<g id="edge2" class="edge">
<title>Node2&#45;&gt;Node3</title>
<path fill="none" stroke="midnightblue" d="M473.02,-64.5C458.49,-64.5 443.08,-64.5 428.09,-64.5"/>
<polygon fill="midnightblue" stroke="midnightblue" points="473.41,-68 483.41,-64.5 473.41,-61 473.41,-68"/>
</g>
<!-- Node4 -->
<g id="node4" class="node">
<title>Node4</title>
<g id="a_node4"><a xlink:href="classv8_1_1internal_1_1compiler_1_1PipelineImpl.html#a9bd8f49b2a05485218286b16c63a0d6c" target="_top" xlink:title=" ">
<polygon fill="white" stroke="red" points="0,-49.5 0,-79.5 213,-79.5 213,-49.5 0,-49.5"/>
<text text-anchor="start" x="8" y="-67.5" font-family="Helvetica,sans-Serif" font-size="10.00">v8::internal::compiler</text>
<text text-anchor="middle" x="106.5" y="-56.5" font-family="Helvetica,sans-Serif" font-size="10.00">::PipelineImpl::ComputeScheduledGraph</text>
</a>
</g>
</g>
<!-- Node3&#45;&gt;Node4 -->
<g id="edge3" class="edge">
<title>Node3&#45;&gt;Node4</title>
<path fill="none" stroke="midnightblue" d="M238.73,-64.5C230.32,-64.5 221.8,-64.5 213.35,-64.5"/>
<polygon fill="midnightblue" stroke="midnightblue" points="238.91,-68 248.9,-64.5 238.9,-61 238.91,-68"/>
</g>
</g>
</svg>
