<?xml version="1.0" encoding="UTF-8" standalone="no"?>
<!DOCTYPE svg PUBLIC "-//W3C//DTD SVG 1.1//EN"
 "http://www.w3.org/Graphics/SVG/1.1/DTD/svg11.dtd">
<!-- Generated by graphviz version 2.43.0 (0)
 -->
<!-- Title: v8::internal::compiler::JSCallReducer::ReducePromiseConstructor Pages: 1 -->
<!--zoomable 140 -->
<svg id="main" version="1.1" xmlns="http://www.w3.org/2000/svg" xmlns:xlink="http://www.w3.org/1999/xlink" xml:space="preserve" onload="init(evt)">
<style type="text/css"><![CDATA[
.edge:hover path { stroke: red; }
.edge:hover polygon { stroke: red; fill: red; }
]]></style>
<script type="text/javascript"><![CDATA[
var edges = document.getElementsByTagName('g');
if (edges && edges.length) {
  for (var i=0;i<edges.length;i++) {
    if (edges[i].id.substr(0,4)=='edge') {
      edges[i].setAttribute('class','edge');
    }
  }
}
]]></script>
        <defs>
                <circle id="rim" cx="0" cy="0" r="7"/>
                <circle id="rim2" cx="0" cy="0" r="3.5"/>
                <g id="zoomPlus">
                        <use xlink:href="#rim" fill="#404040">
                                <set attributeName="fill" to="#808080" begin="zoomplus.mouseover" end="zoomplus.mouseout"/>
                        </use>
                        <path d="M-4,0h8M0,-4v8" fill="none" stroke="white" stroke-width="1.5" pointer-events="none"/>
                </g>
                <g id="zoomMin">
                        <use xlink:href="#rim" fill="#404040">
                                <set attributeName="fill" to="#808080" begin="zoomminus.mouseover" end="zoomminus.mouseout"/>
                        </use>
                        <path d="M-4,0h8" fill="none" stroke="white" stroke-width="1.5" pointer-events="none"/>
                </g>
                <g id="dirArrow">
                        <path fill="none" stroke="white" stroke-width="1.5" d="M0,-3.0v7 M-2.5,-0.5L0,-3.0L2.5,-0.5"/>
                </g>
               <g id="resetDef">
                       <use xlink:href="#rim2" fill="#404040">
                               <set attributeName="fill" to="#808080" begin="reset.mouseover" end="reset.mouseout"/>
                       </use>
               </g>
        </defs>

<script type="text/javascript">
var viewWidth = 1042;
var viewHeight = 140;
var sectionId = 'dynsection-186';
</script>
<script xlink:href="svgpan.js"/>
<svg id="graph" class="graph">
<g id="viewport">
<title>v8::internal::compiler::JSCallReducer::ReducePromiseConstructor</title>
<polygon fill="white" stroke="transparent" points="-4,4 -4,-136 1038,-136 1038,4 -4,4"/>
<!-- Node1 -->
<g id="node1" class="node">
<title>Node1</title>
<g id="a_node1"><a xlink:title=" ">
<polygon fill="#bfbfbf" stroke="black" points="862,-72 862,-113 1034,-113 1034,-72 862,-72"/>
<text text-anchor="start" x="870" y="-101" font-family="Helvetica,sans-Serif" font-size="10.00">v8::internal::compiler</text>
<text text-anchor="start" x="870" y="-90" font-family="Helvetica,sans-Serif" font-size="10.00">::JSCallReducer::ReducePromise</text>
<text text-anchor="middle" x="948" y="-79" font-family="Helvetica,sans-Serif" font-size="10.00">Constructor</text>
</a>
</g>
</g>
<!-- Node2 -->
<g id="node2" class="node">
<title>Node2</title>
<g id="a_node2"><a xlink:href="classv8_1_1internal_1_1compiler_1_1JSCallReducer.html#a6af7f115b76d5a1bea0d9e4bb8c00add" target="_top" xlink:title=" ">
<polygon fill="white" stroke="black" points="638,-77.5 638,-107.5 826,-107.5 826,-77.5 638,-77.5"/>
<text text-anchor="start" x="646" y="-95.5" font-family="Helvetica,sans-Serif" font-size="10.00">v8::internal::compiler</text>
<text text-anchor="middle" x="732" y="-84.5" font-family="Helvetica,sans-Serif" font-size="10.00">::JSCallReducer::ReduceJSConstruct</text>
</a>
</g>
</g>
<!-- Node1&#45;&gt;Node2 -->
<g id="edge1" class="edge">
<title>Node1&#45;&gt;Node2</title>
<path fill="none" stroke="midnightblue" d="M851.62,-92.5C843.22,-92.5 834.73,-92.5 826.34,-92.5"/>
<polygon fill="midnightblue" stroke="midnightblue" points="851.81,-96 861.81,-92.5 851.81,-89 851.81,-96"/>
</g>
<!-- Node3 -->
<g id="node3" class="node">
<title>Node3</title>
<g id="a_node3"><a xlink:href="classv8_1_1internal_1_1compiler_1_1JSCallReducer.html#abf441e16cdaa5b1d3be850e853803674" target="_top" xlink:title=" ">
<polygon fill="white" stroke="black" points="192,-101.5 192,-131.5 324,-131.5 324,-101.5 192,-101.5"/>
<text text-anchor="start" x="200" y="-119.5" font-family="Helvetica,sans-Serif" font-size="10.00">v8::internal::compiler</text>
<text text-anchor="middle" x="258" y="-108.5" font-family="Helvetica,sans-Serif" font-size="10.00">::JSCallReducer::Reduce</text>
</a>
</g>
</g>
<!-- Node2&#45;&gt;Node3 -->
<g id="edge2" class="edge">
<title>Node2&#45;&gt;Node3</title>
<path fill="none" stroke="midnightblue" d="M668.97,-109.95C647.89,-115.07 624.09,-119.97 602,-122.5 505.7,-133.55 393.22,-128.13 324.04,-122.71"/>
<polygon fill="midnightblue" stroke="midnightblue" points="669.9,-113.32 678.75,-107.51 668.21,-106.53 669.9,-113.32"/>
</g>
<!-- Node5 -->
<g id="node5" class="node">
<title>Node5</title>
<g id="a_node5"><a xlink:href="classv8_1_1internal_1_1compiler_1_1JSCallReducer.html#ac350600d2e0ec951a36315e45a3ef895" target="_top" xlink:title=" ">
<polygon fill="white" stroke="black" points="382,-0.5 382,-52.5 602,-52.5 602,-0.5 382,-0.5"/>
<text text-anchor="start" x="390" y="-40.5" font-family="Helvetica,sans-Serif" font-size="10.00">v8::internal::compiler</text>
<text text-anchor="start" x="390" y="-29.5" font-family="Helvetica,sans-Serif" font-size="10.00">::JSCallReducer::ReduceCallOr</text>
<text text-anchor="start" x="390" y="-18.5" font-family="Helvetica,sans-Serif" font-size="10.00">ConstructWithArrayLikeOrSpreadOfCreate</text>
<text text-anchor="middle" x="492" y="-7.5" font-family="Helvetica,sans-Serif" font-size="10.00">Arguments</text>
</a>
</g>
</g>
<!-- Node2&#45;&gt;Node5 -->
<g id="edge4" class="edge">
<title>Node2&#45;&gt;Node5</title>
<path fill="none" stroke="midnightblue" d="M666.77,-74.69C642.17,-67.87 613.57,-59.93 586.76,-52.5"/>
<polygon fill="midnightblue" stroke="midnightblue" points="666.12,-78.14 676.7,-77.44 668,-71.4 666.12,-78.14"/>
</g>
<!-- Node15 -->
<g id="node7" class="node">
<title>Node15</title>
<g id="a_node7"><a xlink:href="classv8_1_1internal_1_1compiler_1_1JSCallReducer.html#a5b208be8bb58e3ce1c5594968a4a4bc5" target="_top" xlink:title=" ">
<polygon fill="white" stroke="black" points="398,-72 398,-113 586,-113 586,-72 398,-72"/>
<text text-anchor="start" x="406" y="-101" font-family="Helvetica,sans-Serif" font-size="10.00">v8::internal::compiler</text>
<text text-anchor="start" x="406" y="-90" font-family="Helvetica,sans-Serif" font-size="10.00">::JSCallReducer::ReduceJSConstruct</text>
<text text-anchor="middle" x="492" y="-79" font-family="Helvetica,sans-Serif" font-size="10.00">ForwardAllArgs</text>
</a>
</g>
</g>
<!-- Node2&#45;&gt;Node15 -->
<g id="edge6" class="edge">
<title>Node2&#45;&gt;Node15</title>
<path fill="none" stroke="midnightblue" d="M627.96,-92.5C614.13,-92.5 600.01,-92.5 586.37,-92.5"/>
<polygon fill="midnightblue" stroke="midnightblue" points="627.96,-96 637.96,-92.5 627.96,-89 627.96,-96"/>
</g>
<!-- Node4 -->
<g id="node4" class="node">
<title>Node4</title>
<g id="a_node4"><a xlink:href="classv8_1_1internal_1_1compiler_1_1JSCallReducer.html#ab49b50a9fc062e9bfda06cb5ccb00301" target="_top" xlink:title=" ">
<polygon fill="white" stroke="black" points="0,-101.5 0,-131.5 134,-131.5 134,-101.5 0,-101.5"/>
<text text-anchor="start" x="8" y="-119.5" font-family="Helvetica,sans-Serif" font-size="10.00">v8::internal::compiler</text>
<text text-anchor="middle" x="67" y="-108.5" font-family="Helvetica,sans-Serif" font-size="10.00">::JSCallReducer::Finalize</text>
</a>
</g>
</g>
<!-- Node3&#45;&gt;Node4 -->
<g id="edge3" class="edge">
<title>Node3&#45;&gt;Node4</title>
<path fill="none" stroke="midnightblue" d="M181.74,-116.5C165.99,-116.5 149.51,-116.5 134.13,-116.5"/>
<polygon fill="midnightblue" stroke="midnightblue" points="181.96,-120 191.96,-116.5 181.96,-113 181.96,-120"/>
</g>
<!-- Node6 -->
<g id="node6" class="node">
<title>Node6</title>
<g id="a_node6"><a xlink:href="classv8_1_1internal_1_1compiler_1_1JSCallReducer.html#a5d4b7cc324a159f0c08de9613f339db2" target="_top" xlink:title=" ">
<polygon fill="white" stroke="red" points="170,-6 170,-47 346,-47 346,-6 170,-6"/>
<text text-anchor="start" x="178" y="-35" font-family="Helvetica,sans-Serif" font-size="10.00">v8::internal::compiler</text>
<text text-anchor="start" x="178" y="-24" font-family="Helvetica,sans-Serif" font-size="10.00">::JSCallReducer::ReduceCallOr</text>
<text text-anchor="middle" x="258" y="-13" font-family="Helvetica,sans-Serif" font-size="10.00">ConstructWithArrayLikeOrSpread</text>
</a>
</g>
</g>
<!-- Node5&#45;&gt;Node6 -->
<g id="edge5" class="edge">
<title>Node5&#45;&gt;Node6</title>
<path fill="none" stroke="midnightblue" d="M371.67,-26.5C363.04,-26.5 354.44,-26.5 346.05,-26.5"/>
<polygon fill="midnightblue" stroke="midnightblue" points="371.79,-30 381.79,-26.5 371.79,-23 371.79,-30"/>
</g>
<!-- Node15&#45;&gt;Node3 -->
<g id="edge7" class="edge">
<title>Node15&#45;&gt;Node3</title>
<path fill="none" stroke="midnightblue" d="M387.77,-103.18C366.17,-105.41 343.98,-107.71 324.23,-109.75"/>
<polygon fill="midnightblue" stroke="midnightblue" points="388.39,-106.63 397.97,-102.12 387.67,-99.67 388.39,-106.63"/>
</g>
</g>
</svg>
        <g id="navigator" transform="translate(0 0)" fill="#404254">
                <rect fill="#f2f5e9" fill-opacity="0.5" stroke="#606060" stroke-width=".5" x="0" y="0" width="60" height="60"/>
                <use id="zoomplus" xlink:href="#zoomPlus" x="17" y="9" onmousedown="handleZoom(evt,'in')"/>
                <use id="zoomminus" xlink:href="#zoomMin" x="42" y="9" onmousedown="handleZoom(evt,'out')"/>
                <use id="reset" xlink:href="#resetDef" x="30" y="36" onmousedown="handleReset()"/>
                <g id="arrowUp" xlink:href="#dirArrow" transform="translate(30 24)" onmousedown="handlePan(0,-1)">
                  <use xlink:href="#rim" fill="#404040">
                        <set attributeName="fill" to="#808080" begin="arrowUp.mouseover" end="arrowUp.mouseout"/>
                  </use>
                  <path fill="none" stroke="white" stroke-width="1.5" d="M0,-3.0v7 M-2.5,-0.5L0,-3.0L2.5,-0.5"/>
                </g>
                <g id="arrowRight" xlink:href="#dirArrow" transform="rotate(90) translate(36 -43)" onmousedown="handlePan(1,0)">
                  <use xlink:href="#rim" fill="#404040">
                        <set attributeName="fill" to="#808080" begin="arrowRight.mouseover" end="arrowRight.mouseout"/>
                  </use>
                  <path fill="none" stroke="white" stroke-width="1.5" d="M0,-3.0v7 M-2.5,-0.5L0,-3.0L2.5,-0.5"/>
                </g>
                <g id="arrowDown" xlink:href="#dirArrow" transform="rotate(180) translate(-30 -48)" onmousedown="handlePan(0,1)">
                  <use xlink:href="#rim" fill="#404040">
                        <set attributeName="fill" to="#808080" begin="arrowDown.mouseover" end="arrowDown.mouseout"/>
                  </use>
                  <path fill="none" stroke="white" stroke-width="1.5" d="M0,-3.0v7 M-2.5,-0.5L0,-3.0L2.5,-0.5"/>
                </g>
                <g id="arrowLeft" xlink:href="#dirArrow" transform="rotate(270) translate(-36 17)" onmousedown="handlePan(-1,0)">
                  <use xlink:href="#rim" fill="#404040">
                        <set attributeName="fill" to="#808080" begin="arrowLeft.mouseover" end="arrowLeft.mouseout"/>
                  </use>
                  <path fill="none" stroke="white" stroke-width="1.5" d="M0,-3.0v7 M-2.5,-0.5L0,-3.0L2.5,-0.5"/>
                </g>
        </g>
        <svg viewBox="0 0 15 15" width="100%" height="30px" preserveAspectRatio="xMaxYMin meet">
         <g id="arrow_out" transform="scale(0.3 0.3)">
          <a xlink:href="classv8_1_1internal_1_1compiler_1_1JSCallReducer_ac26c862013682b1df2de5bcc1a05d18c_icgraph_org.svg" target="_base">
           <rect id="button" ry="5" rx="5" y="6" x="6" height="38" width="38"
                fill="#f2f5e9" fill-opacity="0.5" stroke="#606060" stroke-width="1.0"/>
           <path id="arrow"
             d="M 11.500037,31.436501 C 11.940474,20.09759 22.043105,11.32322 32.158766,21.979434 L 37.068811,17.246167 C 37.068811,17.246167 37.088388,32 37.088388,32 L 22.160133,31.978069 C 22.160133,31.978069 26.997745,27.140456 26.997745,27.140456 C 18.528582,18.264221 13.291696,25.230495 11.500037,31.436501 z"
             style="fill:#404040;"/>
          </a>
         </g>
        </svg>
</svg>
