<?xml version="1.0" encoding="UTF-8" standalone="no"?>
<!DOCTYPE svg PUBLIC "-//W3C//DTD SVG 1.1//EN"
 "http://www.w3.org/Graphics/SVG/1.1/DTD/svg11.dtd">
<!-- Generated by graphviz version 2.43.0 (0)
 -->
<!-- Title: v8::internal::AstNodeFactory::NewVariableProxy Pages: 1 -->
<svg width="773pt" height="455pt"
 viewBox="0.00 0.00 773.00 455.00" xmlns="http://www.w3.org/2000/svg" xmlns:xlink="http://www.w3.org/1999/xlink">
<g id="graph0" class="graph" transform="scale(1 1) rotate(0) translate(4 451)">
<title>v8::internal::AstNodeFactory::NewVariableProxy</title>
<polygon fill="white" stroke="transparent" points="-4,4 -4,-451 769,-451 769,4 -4,4"/>
<!-- Node1 -->
<g id="node1" class="node">
<title>Node1</title>
<g id="a_node1"><a xlink:title=" ">
<polygon fill="#bfbfbf" stroke="black" points="610,-263.5 610,-293.5 765,-293.5 765,-263.5 610,-263.5"/>
<text text-anchor="start" x="618" y="-281.5" font-family="Helvetica,sans-Serif" font-size="10.00">v8::internal::AstNodeFactory</text>
<text text-anchor="middle" x="687.5" y="-270.5" font-family="Helvetica,sans-Serif" font-size="10.00">::NewVariableProxy</text>
</a>
</g>
</g>
<!-- Node2 -->
<g id="node2" class="node">
<title>Node2</title>
<g id="a_node2"><a xlink:href="classv8_1_1internal_1_1PreParser.html#ad6794076089f1db83ce3d0808619c2d9" target="_top" xlink:title=" ">
<polygon fill="white" stroke="black" points="400,-388.5 400,-418.5 564,-418.5 564,-388.5 400,-388.5"/>
<text text-anchor="start" x="408" y="-406.5" font-family="Helvetica,sans-Serif" font-size="10.00">v8::internal::PreParser</text>
<text text-anchor="middle" x="482" y="-395.5" font-family="Helvetica,sans-Serif" font-size="10.00">::ExpressionFromPrivateName</text>
</a>
</g>
</g>
<!-- Node1&#45;&gt;Node2 -->
<g id="edge1" class="edge">
<title>Node1&#45;&gt;Node2</title>
<path fill="none" stroke="midnightblue" d="M667.24,-301.22C646.49,-324.27 611.4,-359.32 574,-379.5 567.67,-382.91 560.83,-385.86 553.84,-388.41"/>
<polygon fill="midnightblue" stroke="midnightblue" points="669.96,-303.43 673.96,-293.62 664.71,-298.8 669.96,-303.43"/>
</g>
<!-- Node3 -->
<g id="node3" class="node">
<title>Node3</title>
<g id="a_node3"><a xlink:href="classv8_1_1internal_1_1DeclarationScope.html#a56f7fd704501c58f743d8e8c573a8fde" target="_top" xlink:title=" ">
<polygon fill="white" stroke="black" points="390,-263.5 390,-293.5 574,-293.5 574,-263.5 390,-263.5"/>
<text text-anchor="start" x="398" y="-281.5" font-family="Helvetica,sans-Serif" font-size="10.00">v8::internal::Declaration</text>
<text text-anchor="middle" x="482" y="-270.5" font-family="Helvetica,sans-Serif" font-size="10.00">Scope::HoistSloppyBlockFunctions</text>
</a>
</g>
</g>
<!-- Node1&#45;&gt;Node3 -->
<g id="edge2" class="edge">
<title>Node1&#45;&gt;Node3</title>
<path fill="none" stroke="midnightblue" d="M599.69,-278.5C591.29,-278.5 582.75,-278.5 574.3,-278.5"/>
<polygon fill="midnightblue" stroke="midnightblue" points="599.86,-282 609.86,-278.5 599.86,-275 599.86,-282"/>
</g>
<!-- Node1734 -->
<g id="node10" class="node">
<title>Node1734</title>
<g id="a_node10"><a xlink:href="classv8_1_1internal_1_1Scope.html#a4e3b8fe58ed80d9d7da528b43d61e618" target="_top" xlink:title=" ">
<polygon fill="white" stroke="black" points="428.5,-127.5 428.5,-157.5 535.5,-157.5 535.5,-127.5 428.5,-127.5"/>
<text text-anchor="start" x="436.5" y="-145.5" font-family="Helvetica,sans-Serif" font-size="10.00">v8::internal::Scope</text>
<text text-anchor="middle" x="482" y="-134.5" font-family="Helvetica,sans-Serif" font-size="10.00">::NewUnresolved</text>
</a>
</g>
</g>
<!-- Node1&#45;&gt;Node1734 -->
<g id="edge9" class="edge">
<title>Node1&#45;&gt;Node1734</title>
<path fill="none" stroke="midnightblue" d="M655.38,-257.7C614.08,-230.1 542.16,-182.04 505.66,-157.64"/>
<polygon fill="midnightblue" stroke="midnightblue" points="653.69,-260.78 663.94,-263.43 657.57,-254.96 653.69,-260.78"/>
</g>
<!-- Node1741 -->
<g id="node16" class="node">
<title>Node1741</title>
<g id="a_node16"><a xlink:href="classv8_1_1internal_1_1Rewriter.html#ad567c4f7ba8d84a84edc594c46bfa0f6" target="_top" xlink:title=" ">
<polygon fill="white" stroke="black" points="422.5,-339.5 422.5,-369.5 541.5,-369.5 541.5,-339.5 422.5,-339.5"/>
<text text-anchor="start" x="430.5" y="-357.5" font-family="Helvetica,sans-Serif" font-size="10.00">v8::internal::Rewriter</text>
<text text-anchor="middle" x="482" y="-346.5" font-family="Helvetica,sans-Serif" font-size="10.00">::RewriteBody</text>
</a>
</g>
</g>
<!-- Node1&#45;&gt;Node1741 -->
<g id="edge15" class="edge">
<title>Node1&#45;&gt;Node1741</title>
<path fill="none" stroke="midnightblue" d="M636.79,-297.06C601.98,-310.07 556.05,-327.22 523.47,-339.39"/>
<polygon fill="midnightblue" stroke="midnightblue" points="638.15,-300.29 646.29,-293.52 635.7,-293.74 638.15,-300.29"/>
</g>
<!-- Node1744 -->
<g id="node19" class="node">
<title>Node1744</title>
<g id="a_node19"><a xlink:href="classv8_1_1internal_1_1Processor.html#a50365754de1be5320dc3bfd29e4ca004" target="_top" xlink:title=" ">
<polygon fill="white" stroke="black" points="419.5,-26.5 419.5,-56.5 544.5,-56.5 544.5,-26.5 419.5,-26.5"/>
<text text-anchor="start" x="427.5" y="-44.5" font-family="Helvetica,sans-Serif" font-size="10.00">v8::internal::Processor</text>
<text text-anchor="middle" x="482" y="-33.5" font-family="Helvetica,sans-Serif" font-size="10.00">::SetResult</text>
</a>
</g>
</g>
<!-- Node1&#45;&gt;Node1744 -->
<g id="edge20" class="edge">
<title>Node1&#45;&gt;Node1744</title>
<path fill="none" stroke="midnightblue" d="M672.41,-254.63C652.63,-222.07 614.46,-162.75 574,-118.5 552.21,-94.67 523.19,-71.29 503.84,-56.66"/>
<polygon fill="midnightblue" stroke="midnightblue" points="669.57,-256.68 677.72,-263.45 675.56,-253.07 669.57,-256.68"/>
</g>
<!-- Node4 -->
<g id="node4" class="node">
<title>Node4</title>
<g id="a_node4"><a xlink:href="classv8_1_1internal_1_1DeclarationScope.html#a090845694a80550e3fc356b8568989b3" target="_top" xlink:title=" ">
<polygon fill="white" stroke="black" points="197.5,-318.5 197.5,-348.5 331.5,-348.5 331.5,-318.5 197.5,-318.5"/>
<text text-anchor="start" x="205.5" y="-336.5" font-family="Helvetica,sans-Serif" font-size="10.00">v8::internal::Declaration</text>
<text text-anchor="middle" x="264.5" y="-325.5" font-family="Helvetica,sans-Serif" font-size="10.00">Scope::Analyze</text>
</a>
</g>
</g>
<!-- Node3&#45;&gt;Node4 -->
<g id="edge3" class="edge">
<title>Node3&#45;&gt;Node4</title>
<path fill="none" stroke="midnightblue" d="M412.29,-296.04C383.98,-303.26 351.51,-311.55 324.32,-318.49"/>
<polygon fill="midnightblue" stroke="midnightblue" points="413.29,-299.39 422.11,-293.53 411.56,-292.61 413.29,-299.39"/>
</g>
<!-- Node1731 -->
<g id="node6" class="node">
<title>Node1731</title>
<g id="a_node6"><a xlink:href="classv8_1_1internal_1_1Parser.html#a183fbc7259cbdd7ff97eaa900a781f9a" target="_top" xlink:title=" ">
<polygon fill="white" stroke="black" points="188.5,-258 188.5,-299 340.5,-299 340.5,-258 188.5,-258"/>
<text text-anchor="start" x="196.5" y="-287" font-family="Helvetica,sans-Serif" font-size="10.00">v8::internal::Parser</text>
<text text-anchor="start" x="196.5" y="-276" font-family="Helvetica,sans-Serif" font-size="10.00">::InsertSloppyBlockFunction</text>
<text text-anchor="middle" x="264.5" y="-265" font-family="Helvetica,sans-Serif" font-size="10.00">VarBindings</text>
</a>
</g>
</g>
<!-- Node3&#45;&gt;Node1731 -->
<g id="edge5" class="edge">
<title>Node3&#45;&gt;Node1731</title>
<path fill="none" stroke="midnightblue" d="M379.86,-278.5C366.65,-278.5 353.31,-278.5 340.63,-278.5"/>
<polygon fill="midnightblue" stroke="midnightblue" points="379.92,-282 389.92,-278.5 379.92,-275 379.92,-282"/>
</g>
<!-- Node1732 -->
<g id="node8" class="node">
<title>Node1732</title>
<g id="a_node8"><a xlink:href="classv8_1_1internal_1_1PreParser.html#a8766444b9b9058b547b4ff1e437abb76" target="_top" xlink:title=" ">
<polygon fill="white" stroke="black" points="202.5,-208.5 202.5,-238.5 326.5,-238.5 326.5,-208.5 202.5,-208.5"/>
<text text-anchor="start" x="210.5" y="-226.5" font-family="Helvetica,sans-Serif" font-size="10.00">v8::internal::PreParser</text>
<text text-anchor="middle" x="264.5" y="-215.5" font-family="Helvetica,sans-Serif" font-size="10.00">::PreParseFunction</text>
</a>
</g>
</g>
<!-- Node3&#45;&gt;Node1732 -->
<g id="edge7" class="edge">
<title>Node3&#45;&gt;Node1732</title>
<path fill="none" stroke="midnightblue" d="M412.29,-260.96C383.98,-253.74 351.51,-245.45 324.32,-238.51"/>
<polygon fill="midnightblue" stroke="midnightblue" points="411.56,-264.39 422.11,-263.47 413.29,-257.61 411.56,-264.39"/>
</g>
<!-- Node5 -->
<g id="node5" class="node">
<title>Node5</title>
<g id="a_node5"><a xlink:href="classv8_1_1internal_1_1Parser.html#af6f3e4dc3c200b465349a7db88afd23b" target="_top" xlink:title=" ">
<polygon fill="white" stroke="red" points="0.5,-367.5 0.5,-397.5 138.5,-397.5 138.5,-367.5 0.5,-367.5"/>
<text text-anchor="start" x="8.5" y="-385.5" font-family="Helvetica,sans-Serif" font-size="10.00">v8::internal::Parser</text>
<text text-anchor="middle" x="69.5" y="-374.5" font-family="Helvetica,sans-Serif" font-size="10.00">::PostProcessParseResult</text>
</a>
</g>
</g>
<!-- Node4&#45;&gt;Node5 -->
<g id="edge4" class="edge">
<title>Node4&#45;&gt;Node5</title>
<path fill="none" stroke="midnightblue" d="M194.38,-351.05C173.18,-356.43 150.07,-362.3 129.61,-367.49"/>
<polygon fill="midnightblue" stroke="midnightblue" points="195.45,-354.39 204.28,-348.53 193.73,-347.6 195.45,-354.39"/>
</g>
<!-- Node1727 -->
<g id="node7" class="node">
<title>Node1727</title>
<g id="a_node7"><a xlink:href="classv8_1_1internal_1_1Parser.html#ac50d8f030c1eabb93d81f55ab5dc9919" target="_top" xlink:title=" ">
<polygon fill="white" stroke="red" points="15.5,-290.5 15.5,-320.5 123.5,-320.5 123.5,-290.5 15.5,-290.5"/>
<text text-anchor="start" x="23.5" y="-308.5" font-family="Helvetica,sans-Serif" font-size="10.00">v8::internal::Parser</text>
<text text-anchor="middle" x="69.5" y="-297.5" font-family="Helvetica,sans-Serif" font-size="10.00">::DoParseProgram</text>
</a>
</g>
</g>
<!-- Node1731&#45;&gt;Node1727 -->
<g id="edge6" class="edge">
<title>Node1731&#45;&gt;Node1727</title>
<path fill="none" stroke="midnightblue" d="M178.37,-290.41C159.77,-293.01 140.6,-295.69 123.68,-298.06"/>
<polygon fill="midnightblue" stroke="midnightblue" points="178.91,-293.87 188.33,-289.02 177.94,-286.94 178.91,-293.87"/>
</g>
<!-- Node1733 -->
<g id="node9" class="node">
<title>Node1733</title>
<g id="a_node9"><a xlink:href="classv8_1_1internal_1_1Parser.html#a340621fa70aba81b7ab592c802e6290f" target="_top" xlink:title=" ">
<polygon fill="white" stroke="red" points="15.5,-208.5 15.5,-238.5 123.5,-238.5 123.5,-208.5 15.5,-208.5"/>
<text text-anchor="start" x="23.5" y="-226.5" font-family="Helvetica,sans-Serif" font-size="10.00">v8::internal::Parser</text>
<text text-anchor="middle" x="69.5" y="-215.5" font-family="Helvetica,sans-Serif" font-size="10.00">::SkipFunction</text>
</a>
</g>
</g>
<!-- Node1732&#45;&gt;Node1733 -->
<g id="edge8" class="edge">
<title>Node1732&#45;&gt;Node1733</title>
<path fill="none" stroke="midnightblue" d="M192.18,-223.5C169.51,-223.5 144.84,-223.5 123.69,-223.5"/>
<polygon fill="midnightblue" stroke="midnightblue" points="192.43,-227 202.43,-223.5 192.43,-220 192.43,-227"/>
</g>
<!-- Node1735 -->
<g id="node11" class="node">
<title>Node1735</title>
<g id="a_node11"><a xlink:href="classv8_1_1internal_1_1Parser.html#a8cdfa0f2b53aae9f75e79f4d005ea54d" target="_top" xlink:title=" ">
<polygon fill="white" stroke="black" points="175,-148 175,-189 354,-189 354,-148 175,-148"/>
<text text-anchor="start" x="183" y="-177" font-family="Helvetica,sans-Serif" font-size="10.00">v8::internal::Parser</text>
<text text-anchor="start" x="183" y="-166" font-family="Helvetica,sans-Serif" font-size="10.00">::CreateSyntheticContextVariable</text>
<text text-anchor="middle" x="264.5" y="-155" font-family="Helvetica,sans-Serif" font-size="10.00">Proxy</text>
</a>
</g>
</g>
<!-- Node1734&#45;&gt;Node1735 -->
<g id="edge10" class="edge">
<title>Node1734&#45;&gt;Node1735</title>
<path fill="none" stroke="midnightblue" d="M418.08,-150.09C398.11,-152.5 375.64,-155.21 354.2,-157.8"/>
<polygon fill="midnightblue" stroke="midnightblue" points="418.77,-153.53 428.28,-148.86 417.94,-146.58 418.77,-153.53"/>
</g>
<!-- Node1739 -->
<g id="node14" class="node">
<title>Node1739</title>
<g id="a_node14"><a xlink:href="classv8_1_1internal_1_1PreParser.html#a92554f4013e9c6024607c7ae21902203" target="_top" xlink:title=" ">
<polygon fill="white" stroke="black" points="194.5,-98.5 194.5,-128.5 334.5,-128.5 334.5,-98.5 194.5,-98.5"/>
<text text-anchor="start" x="202.5" y="-116.5" font-family="Helvetica,sans-Serif" font-size="10.00">v8::internal::PreParser</text>
<text text-anchor="middle" x="264.5" y="-105.5" font-family="Helvetica,sans-Serif" font-size="10.00">::NewSuperCallReference</text>
</a>
</g>
</g>
<!-- Node1734&#45;&gt;Node1739 -->
<g id="edge13" class="edge">
<title>Node1734&#45;&gt;Node1739</title>
<path fill="none" stroke="midnightblue" d="M418.12,-134.04C391.98,-130.52 361.55,-126.43 334.77,-122.82"/>
<polygon fill="midnightblue" stroke="midnightblue" points="417.91,-137.54 428.28,-135.41 418.84,-130.6 417.91,-137.54"/>
</g>
<!-- Node1740 -->
<g id="node15" class="node">
<title>Node1740</title>
<g id="a_node15"><a xlink:href="classv8_1_1internal_1_1ParserBase.html#a938f563c74b9e2d6f5f4adbe876175cf" target="_top" xlink:title=" ">
<polygon fill="white" stroke="black" points="198.5,-49.5 198.5,-79.5 330.5,-79.5 330.5,-49.5 198.5,-49.5"/>
<text text-anchor="start" x="206.5" y="-67.5" font-family="Helvetica,sans-Serif" font-size="10.00">v8::internal::ParserBase</text>
<text text-anchor="middle" x="264.5" y="-56.5" font-family="Helvetica,sans-Serif" font-size="10.00">::NewUnresolved</text>
</a>
</g>
</g>
<!-- Node1734&#45;&gt;Node1740 -->
<g id="edge14" class="edge">
<title>Node1734&#45;&gt;Node1740</title>
<path fill="none" stroke="midnightblue" d="M438.65,-123.33C414.19,-112.63 382.68,-99.49 354,-89.5 343.9,-85.98 333.02,-82.59 322.47,-79.5"/>
<polygon fill="midnightblue" stroke="midnightblue" points="437.44,-126.62 448,-127.44 440.26,-120.21 437.44,-126.62"/>
</g>
<!-- Node1736 -->
<g id="node12" class="node">
<title>Node1736</title>
<g id="a_node12"><a xlink:href="classv8_1_1internal_1_1Parser.html#a0ca2b9f1ef009e2f65e9153d0d79ea32" target="_top" xlink:title=" ">
<polygon fill="white" stroke="black" points="0,-156.5 0,-186.5 139,-186.5 139,-156.5 0,-156.5"/>
<text text-anchor="start" x="8" y="-174.5" font-family="Helvetica,sans-Serif" font-size="10.00">v8::internal::Parser</text>
<text text-anchor="middle" x="69.5" y="-163.5" font-family="Helvetica,sans-Serif" font-size="10.00">::DeclarePublicClassField</text>
</a>
</g>
</g>
<!-- Node1735&#45;&gt;Node1736 -->
<g id="edge11" class="edge">
<title>Node1735&#45;&gt;Node1736</title>
<path fill="none" stroke="midnightblue" d="M164.77,-170.03C156.13,-170.17 147.51,-170.3 139.19,-170.43"/>
<polygon fill="midnightblue" stroke="midnightblue" points="164.96,-173.53 174.91,-169.88 164.85,-166.53 164.96,-173.53"/>
</g>
<!-- Node1737 -->
<g id="node13" class="node">
<title>Node1737</title>
<g id="a_node13"><a xlink:href="classv8_1_1internal_1_1Parser.html#a4a301f4fe6bd653c26169497aafea286" target="_top" xlink:title=" ">
<polygon fill="white" stroke="red" points="5,-107.5 5,-137.5 134,-137.5 134,-107.5 5,-107.5"/>
<text text-anchor="start" x="13" y="-125.5" font-family="Helvetica,sans-Serif" font-size="10.00">v8::internal::Parser</text>
<text text-anchor="middle" x="69.5" y="-114.5" font-family="Helvetica,sans-Serif" font-size="10.00">::NewAutoAccessorInfo</text>
</a>
</g>
</g>
<!-- Node1735&#45;&gt;Node1737 -->
<g id="edge12" class="edge">
<title>Node1735&#45;&gt;Node1737</title>
<path fill="none" stroke="midnightblue" d="M167.71,-145.67C156.11,-142.9 144.49,-140.13 133.53,-137.52"/>
<polygon fill="midnightblue" stroke="midnightblue" points="166.9,-149.07 177.44,-147.99 168.53,-142.27 166.9,-149.07"/>
</g>
<!-- Node1742 -->
<g id="node17" class="node">
<title>Node1742</title>
<g id="a_node17"><a xlink:href="classv8_1_1internal_1_1Parser.html#acdd8a83e94875b2526886b45ea5a4302" target="_top" xlink:title=" ">
<polygon fill="white" stroke="black" points="207.5,-367.5 207.5,-397.5 321.5,-397.5 321.5,-367.5 207.5,-367.5"/>
<text text-anchor="start" x="215.5" y="-385.5" font-family="Helvetica,sans-Serif" font-size="10.00">v8::internal::Parser</text>
<text text-anchor="middle" x="264.5" y="-374.5" font-family="Helvetica,sans-Serif" font-size="10.00">::ParseREPLProgram</text>
</a>
</g>
</g>
<!-- Node1741&#45;&gt;Node1742 -->
<g id="edge16" class="edge">
<title>Node1741&#45;&gt;Node1742</title>
<path fill="none" stroke="midnightblue" d="M412.28,-363.43C383.11,-367.22 349.53,-371.58 321.86,-375.18"/>
<polygon fill="midnightblue" stroke="midnightblue" points="412.93,-366.87 422.4,-362.11 412.03,-359.93 412.93,-366.87"/>
</g>
<!-- Node1743 -->
<g id="node18" class="node">
<title>Node1743</title>
<g id="a_node18"><a xlink:href="classv8_1_1internal_1_1Rewriter.html#a441cc852e7542271ff95edf5af3101c8" target="_top" xlink:title=" ">
<polygon fill="white" stroke="black" points="205,-416.5 205,-446.5 324,-446.5 324,-416.5 205,-416.5"/>
<text text-anchor="start" x="213" y="-434.5" font-family="Helvetica,sans-Serif" font-size="10.00">v8::internal::Rewriter</text>
<text text-anchor="middle" x="264.5" y="-423.5" font-family="Helvetica,sans-Serif" font-size="10.00">::Rewrite</text>
</a>
</g>
</g>
<!-- Node1741&#45;&gt;Node1743 -->
<g id="edge18" class="edge">
<title>Node1741&#45;&gt;Node1743</title>
<path fill="none" stroke="midnightblue" d="M412.83,-370.04C404.96,-372.76 397.19,-375.9 390,-379.5 371.88,-388.58 372.14,-398.45 354,-407.5 344.74,-412.12 334.48,-415.94 324.32,-419.07"/>
<polygon fill="midnightblue" stroke="midnightblue" points="414.01,-373.33 422.45,-366.92 411.86,-366.68 414.01,-373.33"/>
</g>
<!-- Node1742&#45;&gt;Node1727 -->
<g id="edge17" class="edge">
<title>Node1742&#45;&gt;Node1727</title>
<path fill="none" stroke="midnightblue" d="M197.54,-366.22C189.86,-363.86 182.21,-361.27 175,-358.5 147.28,-347.84 117.19,-332.1 96.45,-320.54"/>
<polygon fill="midnightblue" stroke="midnightblue" points="196.65,-369.61 207.23,-369.1 198.64,-362.9 196.65,-369.61"/>
</g>
<!-- Node1743&#45;&gt;Node5 -->
<g id="edge19" class="edge">
<title>Node1743&#45;&gt;Node5</title>
<path fill="none" stroke="midnightblue" d="M194.89,-414.08C173.66,-408.69 150.46,-402.8 129.91,-397.58"/>
<polygon fill="midnightblue" stroke="midnightblue" points="194.25,-417.53 204.81,-416.6 195.98,-410.75 194.25,-417.53"/>
</g>
<!-- Node1745 -->
<g id="node20" class="node">
<title>Node1745</title>
<g id="a_node20"><a xlink:href="classv8_1_1internal_1_1Processor.html#a7c4589695dcd10e2bc35cf10970db8cd" target="_top" xlink:title=" ">
<polygon fill="white" stroke="black" points="196,-0.5 196,-30.5 333,-30.5 333,-0.5 196,-0.5"/>
<text text-anchor="start" x="204" y="-18.5" font-family="Helvetica,sans-Serif" font-size="10.00">v8::internal::Processor</text>
<text text-anchor="middle" x="264.5" y="-7.5" font-family="Helvetica,sans-Serif" font-size="10.00">::AssignUndefinedBefore</text>
</a>
</g>
</g>
<!-- Node1744&#45;&gt;Node1745 -->
<g id="edge21" class="edge">
<title>Node1744&#45;&gt;Node1745</title>
<path fill="none" stroke="midnightblue" d="M409.3,-32.85C384.8,-29.89 357.49,-26.6 333.31,-23.68"/>
<polygon fill="midnightblue" stroke="midnightblue" points="408.9,-36.33 419.25,-34.05 409.74,-29.38 408.9,-36.33"/>
</g>
<!-- Node1746 -->
<g id="node21" class="node">
<title>Node1746</title>
<g id="a_node21"><a xlink:href="classv8_1_1internal_1_1Processor.html#ab1bc96069f41d2e5b3de1ab320213750" target="_top" xlink:title=" ">
<polygon fill="white" stroke="black" points="1,-0.5 1,-30.5 138,-30.5 138,-0.5 1,-0.5"/>
<text text-anchor="start" x="9" y="-18.5" font-family="Helvetica,sans-Serif" font-size="10.00">v8::internal::Processor</text>
<text text-anchor="middle" x="69.5" y="-7.5" font-family="Helvetica,sans-Serif" font-size="10.00">::VisitIterationStatement</text>
</a>
</g>
</g>
<!-- Node1745&#45;&gt;Node1746 -->
<g id="edge22" class="edge">
<title>Node1745&#45;&gt;Node1746</title>
<path fill="none" stroke="midnightblue" d="M185.78,-15.5C170.06,-15.5 153.64,-15.5 138.29,-15.5"/>
<polygon fill="midnightblue" stroke="midnightblue" points="186,-19 196,-15.5 186,-12 186,-19"/>
</g>
</g>
</svg>
