<?xml version="1.0" encoding="UTF-8" standalone="no"?>
<!DOCTYPE svg PUBLIC "-//W3C//DTD SVG 1.1//EN"
 "http://www.w3.org/Graphics/SVG/1.1/DTD/svg11.dtd">
<!-- Generated by graphviz version 2.43.0 (0)
 -->
<!-- Title: v8::internal::maglev::MergePointInterpreterFrameState::IsUnreachableByForwardEdge Pages: 1 -->
<svg width="642pt" height="110pt"
 viewBox="0.00 0.00 642.00 110.00" xmlns="http://www.w3.org/2000/svg" xmlns:xlink="http://www.w3.org/1999/xlink">
<g id="graph0" class="graph" transform="scale(1 1) rotate(0) translate(4 106)">
<title>v8::internal::maglev::MergePointInterpreterFrameState::IsUnreachableByForwardEdge</title>
<polygon fill="white" stroke="transparent" points="-4,4 -4,-106 638,-106 638,4 -4,4"/>
<!-- Node1 -->
<g id="node1" class="node">
<title>Node1</title>
<g id="a_node1"><a xlink:title=" ">
<polygon fill="#bfbfbf" stroke="black" points="440,-30.5 440,-71.5 634,-71.5 634,-30.5 440,-30.5"/>
<text text-anchor="start" x="448" y="-59.5" font-family="Helvetica,sans-Serif" font-size="10.00">v8::internal::maglev</text>
<text text-anchor="start" x="448" y="-48.5" font-family="Helvetica,sans-Serif" font-size="10.00">::MergePointInterpreterFrame</text>
<text text-anchor="middle" x="537" y="-37.5" font-family="Helvetica,sans-Serif" font-size="10.00">State::IsUnreachableByForwardEdge</text>
</a>
</g>
</g>
<!-- Node2 -->
<g id="node2" class="node">
<title>Node2</title>
<g id="a_node2"><a xlink:href="classv8_1_1internal_1_1maglev_1_1StraightForwardRegisterAllocator.html#ac480121182714ec62e9e0219c1fb4aa1" target="_top" xlink:title=" ">
<polygon fill="white" stroke="black" points="220,-60.5 220,-101.5 404,-101.5 404,-60.5 220,-60.5"/>
<text text-anchor="start" x="228" y="-89.5" font-family="Helvetica,sans-Serif" font-size="10.00">v8::internal::maglev</text>
<text text-anchor="start" x="228" y="-78.5" font-family="Helvetica,sans-Serif" font-size="10.00">::StraightForwardRegisterAllocator</text>
<text text-anchor="middle" x="312" y="-67.5" font-family="Helvetica,sans-Serif" font-size="10.00">::AllocateRegisters</text>
</a>
</g>
</g>
<!-- Node1&#45;&gt;Node2 -->
<g id="edge1" class="edge">
<title>Node1&#45;&gt;Node2</title>
<path fill="none" stroke="midnightblue" d="M429.82,-65.28C421.28,-66.43 412.71,-67.59 404.29,-68.72"/>
<polygon fill="midnightblue" stroke="midnightblue" points="430.37,-68.74 439.81,-63.94 429.43,-61.8 430.37,-68.74"/>
</g>
<!-- Node4 -->
<g id="node4" class="node">
<title>Node4</title>
<g id="a_node4"><a xlink:href="classv8_1_1internal_1_1maglev_1_1MergePointInterpreterFrameState.html#a12e6292ac7918b115a45c02538b376c1" target="_top" xlink:title=" ">
<polygon fill="white" stroke="black" points="231.5,-0.5 231.5,-41.5 392.5,-41.5 392.5,-0.5 231.5,-0.5"/>
<text text-anchor="start" x="239.5" y="-29.5" font-family="Helvetica,sans-Serif" font-size="10.00">v8::internal::maglev</text>
<text text-anchor="start" x="239.5" y="-18.5" font-family="Helvetica,sans-Serif" font-size="10.00">::MergePointInterpreterFrame</text>
<text text-anchor="middle" x="312" y="-7.5" font-family="Helvetica,sans-Serif" font-size="10.00">State::IsUnreachable</text>
</a>
</g>
</g>
<!-- Node1&#45;&gt;Node4 -->
<g id="edge3" class="edge">
<title>Node1&#45;&gt;Node4</title>
<path fill="none" stroke="midnightblue" d="M429.85,-36.72C417.38,-35.04 404.83,-33.35 392.81,-31.74"/>
<polygon fill="midnightblue" stroke="midnightblue" points="429.43,-40.2 439.81,-38.06 430.37,-33.26 429.43,-40.2"/>
</g>
<!-- Node3 -->
<g id="node3" class="node">
<title>Node3</title>
<g id="a_node3"><a xlink:href="classv8_1_1internal_1_1maglev_1_1StraightForwardRegisterAllocator.html#a26cd581118765612cdd701cb3af08789" target="_top" xlink:title=" ">
<polygon fill="white" stroke="black" points="0,-60.5 0,-101.5 184,-101.5 184,-60.5 0,-60.5"/>
<text text-anchor="start" x="8" y="-89.5" font-family="Helvetica,sans-Serif" font-size="10.00">v8::internal::maglev</text>
<text text-anchor="start" x="8" y="-78.5" font-family="Helvetica,sans-Serif" font-size="10.00">::StraightForwardRegisterAllocator</text>
<text text-anchor="middle" x="92" y="-67.5" font-family="Helvetica,sans-Serif" font-size="10.00">::StraightForwardRegisterAllocator</text>
</a>
</g>
</g>
<!-- Node2&#45;&gt;Node3 -->
<g id="edge2" class="edge">
<title>Node2&#45;&gt;Node3</title>
<path fill="none" stroke="midnightblue" d="M209.53,-81C201.07,-81 192.55,-81 184.17,-81"/>
<polygon fill="midnightblue" stroke="midnightblue" points="209.81,-84.5 219.81,-81 209.81,-77.5 209.81,-84.5"/>
</g>
</g>
</svg>
