<?xml version="1.0" encoding="UTF-8" standalone="no"?>
<!DOCTYPE svg PUBLIC "-//W3C//DTD SVG 1.1//EN"
 "http://www.w3.org/Graphics/SVG/1.1/DTD/svg11.dtd">
<!-- Generated by graphviz version 2.43.0 (0)
 -->
<!-- Title: v8::internal::Factory::NewSharedFunctionInfoForBuiltin Pages: 1 -->
<svg width="1025pt" height="712pt"
 viewBox="0.00 0.00 1025.00 711.50" xmlns="http://www.w3.org/2000/svg" xmlns:xlink="http://www.w3.org/1999/xlink">
<g id="graph0" class="graph" transform="scale(1 1) rotate(0) translate(4 707.5)">
<title>v8::internal::Factory::NewSharedFunctionInfoForBuiltin</title>
<polygon fill="white" stroke="transparent" points="-4,4 -4,-707.5 1021,-707.5 1021,4 -4,4"/>
<!-- Node1 -->
<g id="node1" class="node">
<title>Node1</title>
<g id="a_node1"><a xlink:title=" ">
<polygon fill="#bfbfbf" stroke="black" points="832,-328.5 832,-358.5 1017,-358.5 1017,-328.5 832,-328.5"/>
<text text-anchor="start" x="840" y="-346.5" font-family="Helvetica,sans-Serif" font-size="10.00">v8::internal::Factory</text>
<text text-anchor="middle" x="924.5" y="-335.5" font-family="Helvetica,sans-Serif" font-size="10.00">::NewSharedFunctionInfoForBuiltin</text>
</a>
</g>
</g>
<!-- Node2 -->
<g id="node2" class="node">
<title>Node2</title>
<g id="a_node2"><a xlink:href="namespacev8_1_1internal.html#acde21b8f764c113bb5bb961bda4abca2" target="_top" xlink:title=" ">
<polygon fill="white" stroke="black" points="632,-684 632,-703 748,-703 748,-684 632,-684"/>
<text text-anchor="middle" x="690" y="-691" font-family="Helvetica,sans-Serif" font-size="10.00">v8::internal::BUILTIN</text>
</a>
</g>
</g>
<!-- Node1&#45;&gt;Node2 -->
<g id="edge1" class="edge">
<title>Node1&#45;&gt;Node2</title>
<path fill="none" stroke="midnightblue" d="M921.86,-368.79C916.34,-431.41 892.92,-594.34 796,-674.5 782.65,-685.54 765.05,-691.05 748.08,-693.6"/>
<polygon fill="midnightblue" stroke="midnightblue" points="925.36,-368.89 922.67,-358.64 918.38,-368.33 925.36,-368.89"/>
</g>
<!-- Node3 -->
<g id="node3" class="node">
<title>Node3</title>
<g id="a_node3"><a xlink:href="namespacev8_1_1internal_1_1anonymous__namespace_02builtins-intl_8cc_03.html#a3cd84733458ca650d1b54676c88643ce" target="_top" xlink:title=" ">
<polygon fill="white" stroke="black" points="615.5,-624 615.5,-665 764.5,-665 764.5,-624 615.5,-624"/>
<text text-anchor="start" x="623.5" y="-653" font-family="Helvetica,sans-Serif" font-size="10.00">v8::internal::anonymous</text>
<text text-anchor="start" x="623.5" y="-642" font-family="Helvetica,sans-Serif" font-size="10.00">_namespace{builtins&#45;intl</text>
<text text-anchor="middle" x="690" y="-631" font-family="Helvetica,sans-Serif" font-size="10.00">::cc}::CreateBoundFunction</text>
</a>
</g>
</g>
<!-- Node1&#45;&gt;Node3 -->
<g id="edge2" class="edge">
<title>Node1&#45;&gt;Node3</title>
<path fill="none" stroke="midnightblue" d="M918.89,-368.77C907.77,-422.33 874.38,-547.85 796,-614.5 786.9,-622.24 775.92,-627.98 764.54,-632.25"/>
<polygon fill="midnightblue" stroke="midnightblue" points="922.36,-369.25 920.88,-358.76 915.49,-367.89 922.36,-369.25"/>
</g>
<!-- Node7 -->
<g id="node7" class="node">
<title>Node7</title>
<g id="a_node7"><a xlink:href="namespacev8_1_1internal_1_1wasm.html#ab965d861f0864392f3486cef73e42103" target="_top" xlink:title=" ">
<polygon fill="white" stroke="black" points="614,-564 614,-605 766,-605 766,-564 614,-564"/>
<text text-anchor="start" x="622" y="-593" font-family="Helvetica,sans-Serif" font-size="10.00">v8::internal::wasm</text>
<text text-anchor="start" x="622" y="-582" font-family="Helvetica,sans-Serif" font-size="10.00">::CreateFunctionForCompile</text>
<text text-anchor="middle" x="690" y="-571" font-family="Helvetica,sans-Serif" font-size="10.00">TimeImport</text>
</a>
</g>
</g>
<!-- Node1&#45;&gt;Node7 -->
<g id="edge6" class="edge">
<title>Node1&#45;&gt;Node7</title>
<path fill="none" stroke="midnightblue" d="M915.39,-368.32C899.64,-412.56 860.69,-505.04 796,-554.5 787.11,-561.29 776.75,-566.55 766.05,-570.62"/>
<polygon fill="midnightblue" stroke="midnightblue" points="918.77,-369.25 918.73,-358.66 912.15,-366.96 918.77,-369.25"/>
</g>
<!-- Node17 -->
<g id="node10" class="node">
<title>Node17</title>
<g id="a_node10"><a xlink:href="namespacev8_1_1internal_1_1anonymous__namespace_02setup-heap-internal_8cc_03.html#ab91c7a6ef4191c829ba97d3afbc1411d" target="_top" xlink:title=" ">
<polygon fill="white" stroke="black" points="584,-504 584,-545 796,-545 796,-504 584,-504"/>
<text text-anchor="start" x="592" y="-533" font-family="Helvetica,sans-Serif" font-size="10.00">v8::internal::anonymous</text>
<text text-anchor="start" x="592" y="-522" font-family="Helvetica,sans-Serif" font-size="10.00">_namespace{setup&#45;heap</text>
<text text-anchor="middle" x="690" y="-511" font-family="Helvetica,sans-Serif" font-size="10.00">&#45;internal::cc}::CreateSharedFunctionInfo</text>
</a>
</g>
</g>
<!-- Node1&#45;&gt;Node17 -->
<g id="edge9" class="edge">
<title>Node1&#45;&gt;Node17</title>
<path fill="none" stroke="midnightblue" d="M909.57,-367.64C889.01,-401.13 847.36,-461.3 796,-494.5 790.51,-498.05 784.59,-501.19 778.46,-503.96"/>
<polygon fill="midnightblue" stroke="midnightblue" points="912.65,-369.32 914.8,-358.95 906.65,-365.71 912.65,-369.32"/>
</g>
<!-- Node20 -->
<g id="node13" class="node">
<title>Node20</title>
<g id="a_node13"><a xlink:href="namespacev8_1_1internal_1_1anonymous__namespace_02bootstrapper_8cc_03.html#abff1ae1252c05a357e9f8c01e43479d9" target="_top" xlink:title=" ">
<polygon fill="white" stroke="black" points="604.5,-432.5 604.5,-484.5 775.5,-484.5 775.5,-432.5 604.5,-432.5"/>
<text text-anchor="start" x="612.5" y="-472.5" font-family="Helvetica,sans-Serif" font-size="10.00">v8::internal::anonymous</text>
<text text-anchor="start" x="612.5" y="-461.5" font-family="Helvetica,sans-Serif" font-size="10.00">_namespace{bootstrapper</text>
<text text-anchor="start" x="612.5" y="-450.5" font-family="Helvetica,sans-Serif" font-size="10.00">::cc}::CreateSharedFunctionInfo</text>
<text text-anchor="middle" x="690" y="-439.5" font-family="Helvetica,sans-Serif" font-size="10.00">ForBuiltin</text>
</a>
</g>
</g>
<!-- Node1&#45;&gt;Node20 -->
<g id="edge12" class="edge">
<title>Node1&#45;&gt;Node20</title>
<path fill="none" stroke="midnightblue" d="M893.87,-364.53C868.7,-381.72 831.15,-405.84 796,-422.5 788.6,-426.01 780.76,-429.34 772.84,-432.46"/>
<polygon fill="midnightblue" stroke="midnightblue" points="895.99,-367.31 902.23,-358.75 892.02,-361.55 895.99,-367.31"/>
</g>
<!-- Node50 -->
<g id="node23" class="node">
<title>Node50</title>
<g id="a_node23"><a xlink:href="namespacev8_1_1internal_1_1anonymous__namespace_02bootstrapper_8cc_03.html#ab2dd37737bbca06e741d22f235191eda" target="_top" xlink:title=" ">
<polygon fill="white" stroke="black" points="590.5,-372 590.5,-413 789.5,-413 789.5,-372 590.5,-372"/>
<text text-anchor="start" x="598.5" y="-401" font-family="Helvetica,sans-Serif" font-size="10.00">v8::internal::anonymous</text>
<text text-anchor="start" x="598.5" y="-390" font-family="Helvetica,sans-Serif" font-size="10.00">_namespace{bootstrapper</text>
<text text-anchor="middle" x="690" y="-379" font-family="Helvetica,sans-Serif" font-size="10.00">::cc}::CreateSharedObjectConstructor</text>
</a>
</g>
</g>
<!-- Node1&#45;&gt;Node50 -->
<g id="edge25" class="edge">
<title>Node1&#45;&gt;Node50</title>
<path fill="none" stroke="midnightblue" d="M842.08,-360.66C824.72,-364.32 806.21,-368.22 788.32,-371.99"/>
<polygon fill="midnightblue" stroke="midnightblue" points="843.1,-364.02 852.16,-358.53 841.66,-357.17 843.1,-364.02"/>
</g>
<!-- Node51 -->
<g id="node24" class="node">
<title>Node51</title>
<g id="a_node24"><a xlink:href="namespacev8_1_1debug.html#a5bef8feaa2a782766ee54ea5d6ead6c6" target="_top" xlink:title=" ">
<polygon fill="white" stroke="black" points="630.5,-334 630.5,-353 749.5,-353 749.5,-334 630.5,-334"/>
<text text-anchor="middle" x="690" y="-341" font-family="Helvetica,sans-Serif" font-size="10.00">v8::debug::GetBuiltin</text>
</a>
</g>
</g>
<!-- Node1&#45;&gt;Node51 -->
<g id="edge26" class="edge">
<title>Node1&#45;&gt;Node51</title>
<path fill="none" stroke="midnightblue" d="M821.81,-343.5C797.13,-343.5 771.56,-343.5 749.64,-343.5"/>
<polygon fill="midnightblue" stroke="midnightblue" points="821.94,-347 831.94,-343.5 821.94,-340 821.94,-347"/>
</g>
<!-- Node39 -->
<g id="node25" class="node">
<title>Node39</title>
<g id="a_node25"><a xlink:href="classv8_1_1internal_1_1Genesis.html#aa0d157369a5d88cbcf39cbb9a2f2dced" target="_top" xlink:title=" ">
<polygon fill="white" stroke="red" points="631.5,-284.5 631.5,-314.5 748.5,-314.5 748.5,-284.5 631.5,-284.5"/>
<text text-anchor="start" x="639.5" y="-302.5" font-family="Helvetica,sans-Serif" font-size="10.00">v8::internal::Genesis</text>
<text text-anchor="middle" x="690" y="-291.5" font-family="Helvetica,sans-Serif" font-size="10.00">::InitializeConsole</text>
</a>
</g>
</g>
<!-- Node1&#45;&gt;Node39 -->
<g id="edge27" class="edge">
<title>Node1&#45;&gt;Node39</title>
<path fill="none" stroke="midnightblue" d="M834.11,-326.58C805.46,-321.16 774.5,-315.3 748.73,-310.43"/>
<polygon fill="midnightblue" stroke="midnightblue" points="833.66,-330.06 844.14,-328.48 834.96,-323.18 833.66,-330.06"/>
</g>
<!-- Node52 -->
<g id="node26" class="node">
<title>Node52</title>
<g id="a_node26"><a xlink:href="namespacev8_1_1internal_1_1anonymous__namespace_02builtins-console_8cc_03.html#a868a5ac82f1ef8c9c36e0f0cfee5a15c" target="_top" xlink:title=" ">
<polygon fill="white" stroke="black" points="609.5,-224 609.5,-265 770.5,-265 770.5,-224 609.5,-224"/>
<text text-anchor="start" x="617.5" y="-253" font-family="Helvetica,sans-Serif" font-size="10.00">v8::internal::anonymous</text>
<text text-anchor="start" x="617.5" y="-242" font-family="Helvetica,sans-Serif" font-size="10.00">_namespace{builtins&#45;console</text>
<text text-anchor="middle" x="690" y="-231" font-family="Helvetica,sans-Serif" font-size="10.00">::cc}::InstallContextFunction</text>
</a>
</g>
</g>
<!-- Node1&#45;&gt;Node52 -->
<g id="edge28" class="edge">
<title>Node1&#45;&gt;Node52</title>
<path fill="none" stroke="midnightblue" d="M890.05,-323.24C864.84,-308.58 829.08,-289.04 796,-275.5 786.85,-271.76 777.09,-268.25 767.34,-265.05"/>
<polygon fill="midnightblue" stroke="midnightblue" points="888.43,-326.35 898.83,-328.4 891.98,-320.32 888.43,-326.35"/>
</g>
<!-- Node53 -->
<g id="node27" class="node">
<title>Node53</title>
<g id="a_node27"><a xlink:href="classv8_1_1internal_1_1wasm_1_1JSPrototypesSetup.html#a3181eec6ef8134fc00b3f22eb78bf986" target="_top" xlink:title=" ">
<polygon fill="white" stroke="black" points="634,-164 634,-205 746,-205 746,-164 634,-164"/>
<text text-anchor="start" x="642" y="-193" font-family="Helvetica,sans-Serif" font-size="10.00">v8::internal::wasm</text>
<text text-anchor="start" x="642" y="-182" font-family="Helvetica,sans-Serif" font-size="10.00">::JSPrototypesSetup</text>
<text text-anchor="middle" x="690" y="-171" font-family="Helvetica,sans-Serif" font-size="10.00">::MakeConstructor</text>
</a>
</g>
</g>
<!-- Node1&#45;&gt;Node53 -->
<g id="edge29" class="edge">
<title>Node1&#45;&gt;Node53</title>
<path fill="none" stroke="midnightblue" d="M906.45,-319.96C884.23,-290.95 842.65,-242.13 796,-214.5 780.83,-205.51 762.82,-199.1 746.05,-194.57"/>
<polygon fill="midnightblue" stroke="midnightblue" points="903.9,-322.39 912.71,-328.28 909.49,-318.18 903.9,-322.39"/>
</g>
<!-- Node58 -->
<g id="node32" class="node">
<title>Node58</title>
<g id="a_node32"><a xlink:href="classv8_1_1internal_1_1FeedbackVector.html#a18812803ee92750220af27f8e6cb4afa" target="_top" xlink:title=" ">
<polygon fill="white" stroke="black" points="612.5,-114.5 612.5,-144.5 767.5,-144.5 767.5,-114.5 612.5,-114.5"/>
<text text-anchor="start" x="620.5" y="-132.5" font-family="Helvetica,sans-Serif" font-size="10.00">v8::internal::FeedbackVector</text>
<text text-anchor="middle" x="690" y="-121.5" font-family="Helvetica,sans-Serif" font-size="10.00">::NewForTesting</text>
</a>
</g>
</g>
<!-- Node1&#45;&gt;Node58 -->
<g id="edge34" class="edge">
<title>Node1&#45;&gt;Node58</title>
<path fill="none" stroke="midnightblue" d="M914.01,-318.98C896.9,-278.18 856.9,-196.66 796,-154.5 787.45,-148.58 777.67,-144.05 767.6,-140.59"/>
<polygon fill="midnightblue" stroke="midnightblue" points="910.84,-320.5 917.86,-328.43 917.32,-317.85 910.84,-320.5"/>
</g>
<!-- Node61 -->
<g id="node35" class="node">
<title>Node61</title>
<g id="a_node35"><a xlink:href="classv8_1_1internal_1_1Factory.html#ace1a5073876277af88fd15800a2c9bbd" target="_top" xlink:title=" ">
<polygon fill="white" stroke="black" points="622.5,-65.5 622.5,-95.5 757.5,-95.5 757.5,-65.5 622.5,-65.5"/>
<text text-anchor="start" x="630.5" y="-83.5" font-family="Helvetica,sans-Serif" font-size="10.00">v8::internal::Factory</text>
<text text-anchor="middle" x="690" y="-72.5" font-family="Helvetica,sans-Serif" font-size="10.00">::NewFunctionForTesting</text>
</a>
</g>
</g>
<!-- Node1&#45;&gt;Node61 -->
<g id="edge37" class="edge">
<title>Node1&#45;&gt;Node61</title>
<path fill="none" stroke="midnightblue" d="M917.51,-318.69C904.38,-269.85 868.31,-161.2 796,-105.5 784.87,-96.92 771.24,-91.23 757.55,-87.46"/>
<polygon fill="midnightblue" stroke="midnightblue" points="914.14,-319.62 920.03,-328.42 920.91,-317.87 914.14,-319.62"/>
</g>
<!-- Node43 -->
<g id="node36" class="node">
<title>Node43</title>
<g id="a_node36"><a xlink:href="classv8_1_1internal_1_1WasmJs.html#ad9d30fdd56a8c38868338f9635ca9be9" target="_top" xlink:title=" ">
<polygon fill="white" stroke="red" points="630,-16.5 630,-46.5 750,-46.5 750,-16.5 630,-16.5"/>
<text text-anchor="start" x="638" y="-34.5" font-family="Helvetica,sans-Serif" font-size="10.00">v8::internal::WasmJs</text>
<text text-anchor="middle" x="690" y="-23.5" font-family="Helvetica,sans-Serif" font-size="10.00">::PrepareForSnapshot</text>
</a>
</g>
</g>
<!-- Node1&#45;&gt;Node43 -->
<g id="edge38" class="edge">
<title>Node1&#45;&gt;Node43</title>
<path fill="none" stroke="midnightblue" d="M919.86,-318.05C910.42,-261.73 879.74,-126.07 796,-56.5 783.1,-45.78 766.39,-39.5 750.1,-35.87"/>
<polygon fill="midnightblue" stroke="midnightblue" points="916.45,-318.88 921.48,-328.21 923.36,-317.78 916.45,-318.88"/>
</g>
<!-- Node4 -->
<g id="node4" class="node">
<title>Node4</title>
<g id="a_node4"><a xlink:href="namespacev8_1_1internal.html#a45f7a379e91e2131d7f416ec76a1de81" target="_top" xlink:title=" ">
<polygon fill="white" stroke="black" points="390.5,-684 390.5,-703 506.5,-703 506.5,-684 390.5,-684"/>
<text text-anchor="middle" x="448.5" y="-691" font-family="Helvetica,sans-Serif" font-size="10.00">v8::internal::BUILTIN</text>
</a>
</g>
</g>
<!-- Node3&#45;&gt;Node4 -->
<g id="edge3" class="edge">
<title>Node3&#45;&gt;Node4</title>
<path fill="none" stroke="midnightblue" d="M605.13,-662.62C586.35,-666.6 566.5,-670.75 548,-674.5 532.38,-677.67 515.35,-681 499.9,-683.97"/>
<polygon fill="midnightblue" stroke="midnightblue" points="606.09,-665.99 615.15,-660.49 604.64,-659.15 606.09,-665.99"/>
</g>
<!-- Node5 -->
<g id="node5" class="node">
<title>Node5</title>
<g id="a_node5"><a xlink:href="classv8_1_1internal_1_1compiler_1_1JSCallReducer.html#a5943395a63a8988f89f841287636de03" target="_top" xlink:title=" ">
<polygon fill="white" stroke="black" points="362,-624 362,-665 535,-665 535,-624 362,-624"/>
<text text-anchor="start" x="370" y="-653" font-family="Helvetica,sans-Serif" font-size="10.00">v8::internal::compiler</text>
<text text-anchor="start" x="370" y="-642" font-family="Helvetica,sans-Serif" font-size="10.00">::JSCallReducer::ReduceFunction</text>
<text text-anchor="middle" x="448.5" y="-631" font-family="Helvetica,sans-Serif" font-size="10.00">PrototypeBind</text>
</a>
</g>
</g>
<!-- Node3&#45;&gt;Node5 -->
<g id="edge4" class="edge">
<title>Node3&#45;&gt;Node5</title>
<path fill="none" stroke="midnightblue" d="M604.95,-644.5C582.37,-644.5 557.91,-644.5 535.24,-644.5"/>
<polygon fill="midnightblue" stroke="midnightblue" points="605.19,-648 615.19,-644.5 605.19,-641 605.19,-648"/>
</g>
<!-- Node6 -->
<g id="node6" class="node">
<title>Node6</title>
<g id="a_node6"><a xlink:href="classv8_1_1internal_1_1compiler_1_1JSCallReducer.html#a7458fac0fc3c5d072d0076b5d86b97b8" target="_top" xlink:title=" ">
<polygon fill="white" stroke="black" points="153,-635.5 153,-665.5 313,-665.5 313,-635.5 153,-635.5"/>
<text text-anchor="start" x="161" y="-653.5" font-family="Helvetica,sans-Serif" font-size="10.00">v8::internal::compiler</text>
<text text-anchor="middle" x="233" y="-642.5" font-family="Helvetica,sans-Serif" font-size="10.00">::JSCallReducer::ReduceJSCall</text>
</a>
</g>
</g>
<!-- Node5&#45;&gt;Node6 -->
<g id="edge5" class="edge">
<title>Node5&#45;&gt;Node6</title>
<path fill="none" stroke="midnightblue" d="M351.61,-647.19C338.72,-647.56 325.61,-647.93 313.06,-648.28"/>
<polygon fill="midnightblue" stroke="midnightblue" points="351.99,-650.69 361.89,-646.91 351.8,-643.69 351.99,-650.69"/>
</g>
<!-- Node8 -->
<g id="node8" class="node">
<title>Node8</title>
<g id="a_node8"><a xlink:href="classv8_1_1internal_1_1wasm_1_1InstanceBuilder.html#a1a1ad8fdce6b621e61b911257faf452e" target="_top" xlink:title=" ">
<polygon fill="white" stroke="black" points="377,-564 377,-605 520,-605 520,-564 377,-564"/>
<text text-anchor="start" x="385" y="-593" font-family="Helvetica,sans-Serif" font-size="10.00">v8::internal::wasm</text>
<text text-anchor="start" x="385" y="-582" font-family="Helvetica,sans-Serif" font-size="10.00">::InstanceBuilder::Sanitize</text>
<text text-anchor="middle" x="448.5" y="-571" font-family="Helvetica,sans-Serif" font-size="10.00">Imports</text>
</a>
</g>
</g>
<!-- Node7&#45;&gt;Node8 -->
<g id="edge7" class="edge">
<title>Node7&#45;&gt;Node8</title>
<path fill="none" stroke="midnightblue" d="M603.56,-584.5C576.28,-584.5 546.4,-584.5 520.27,-584.5"/>
<polygon fill="midnightblue" stroke="midnightblue" points="603.88,-588 613.88,-584.5 603.88,-581 603.88,-588"/>
</g>
<!-- Node9 -->
<g id="node9" class="node">
<title>Node9</title>
<g id="a_node9"><a xlink:href="classv8_1_1internal_1_1wasm_1_1InstanceBuilder.html#a938db18c8e2421c00cc0d7f430d66d69" target="_top" xlink:title=" ">
<polygon fill="white" stroke="red" points="168.5,-586.5 168.5,-616.5 297.5,-616.5 297.5,-586.5 168.5,-586.5"/>
<text text-anchor="start" x="176.5" y="-604.5" font-family="Helvetica,sans-Serif" font-size="10.00">v8::internal::wasm</text>
<text text-anchor="middle" x="233" y="-593.5" font-family="Helvetica,sans-Serif" font-size="10.00">::InstanceBuilder::Build</text>
</a>
</g>
</g>
<!-- Node8&#45;&gt;Node9 -->
<g id="edge8" class="edge">
<title>Node8&#45;&gt;Node9</title>
<path fill="none" stroke="midnightblue" d="M366.71,-590.93C343.91,-592.75 319.42,-594.7 297.77,-596.42"/>
<polygon fill="midnightblue" stroke="midnightblue" points="367.01,-594.42 376.7,-590.14 366.46,-587.44 367.01,-594.42"/>
</g>
<!-- Node18 -->
<g id="node11" class="node">
<title>Node18</title>
<g id="a_node11"><a xlink:href="classv8_1_1internal_1_1Heap.html#a12f896bda691e0e7248ee53a68e35175" target="_top" xlink:title=" ">
<polygon fill="white" stroke="black" points="369,-512.5 369,-542.5 528,-542.5 528,-512.5 369,-512.5"/>
<text text-anchor="start" x="377" y="-530.5" font-family="Helvetica,sans-Serif" font-size="10.00">v8::internal::Heap</text>
<text text-anchor="middle" x="448.5" y="-519.5" font-family="Helvetica,sans-Serif" font-size="10.00">::CreateInitialMutableObjects</text>
</a>
</g>
</g>
<!-- Node17&#45;&gt;Node18 -->
<g id="edge10" class="edge">
<title>Node17&#45;&gt;Node18</title>
<path fill="none" stroke="midnightblue" d="M573.82,-525.94C558.36,-526.14 542.81,-526.33 528.18,-526.51"/>
<polygon fill="midnightblue" stroke="midnightblue" points="574,-529.44 583.95,-525.82 573.91,-522.44 574,-529.44"/>
</g>
<!-- Node19 -->
<g id="node12" class="node">
<title>Node19</title>
<g id="a_node12"><a xlink:href="classv8_1_1internal_1_1Heap.html#ad8b34edc0e6513912aa66da90c6c7fac" target="_top" xlink:title=" ">
<polygon fill="white" stroke="black" points="154.5,-537.5 154.5,-567.5 311.5,-567.5 311.5,-537.5 154.5,-537.5"/>
<text text-anchor="start" x="162.5" y="-555.5" font-family="Helvetica,sans-Serif" font-size="10.00">v8::internal::Heap</text>
<text text-anchor="middle" x="233" y="-544.5" font-family="Helvetica,sans-Serif" font-size="10.00">::CreateMutableHeapObjects</text>
</a>
</g>
</g>
<!-- Node18&#45;&gt;Node19 -->
<g id="edge11" class="edge">
<title>Node18&#45;&gt;Node19</title>
<path fill="none" stroke="midnightblue" d="M358.74,-537.89C343.13,-539.72 326.99,-541.61 311.71,-543.4"/>
<polygon fill="midnightblue" stroke="midnightblue" points="359.38,-541.34 368.91,-536.7 358.57,-534.39 359.38,-541.34"/>
</g>
<!-- Node21 -->
<g id="node14" class="node">
<title>Node21</title>
<g id="a_node14"><a xlink:href="namespacev8_1_1internal_1_1anonymous__namespace_02bootstrapper_8cc_03.html#a8a6a679e69ee5cf6cb2d9ee7c8d08775" target="_top" xlink:title=" ">
<polygon fill="white" stroke="black" points="366,-444 366,-485 531,-485 531,-444 366,-444"/>
<text text-anchor="start" x="374" y="-473" font-family="Helvetica,sans-Serif" font-size="10.00">v8::internal::anonymous</text>
<text text-anchor="start" x="374" y="-462" font-family="Helvetica,sans-Serif" font-size="10.00">_namespace{bootstrapper</text>
<text text-anchor="middle" x="448.5" y="-451" font-family="Helvetica,sans-Serif" font-size="10.00">::cc}::CreateFunctionForBuiltin</text>
</a>
</g>
</g>
<!-- Node20&#45;&gt;Node21 -->
<g id="edge13" class="edge">
<title>Node20&#45;&gt;Node21</title>
<path fill="none" stroke="midnightblue" d="M594.13,-460.88C573.36,-461.4 551.55,-461.94 531.35,-462.45"/>
<polygon fill="midnightblue" stroke="midnightblue" points="594.32,-464.37 604.22,-460.62 594.14,-457.38 594.32,-464.37"/>
</g>
<!-- Node25 -->
<g id="node17" class="node">
<title>Node25</title>
<g id="a_node17"><a xlink:href="namespacev8_1_1internal_1_1anonymous__namespace_02bootstrapper_8cc_03.html#a8ae123f600b3b6995d2111ec80f783e3" target="_top" xlink:title=" ">
<polygon fill="white" stroke="black" points="366,-372.5 366,-424.5 531,-424.5 531,-372.5 366,-372.5"/>
<text text-anchor="start" x="374" y="-412.5" font-family="Helvetica,sans-Serif" font-size="10.00">v8::internal::anonymous</text>
<text text-anchor="start" x="374" y="-401.5" font-family="Helvetica,sans-Serif" font-size="10.00">_namespace{bootstrapper</text>
<text text-anchor="start" x="374" y="-390.5" font-family="Helvetica,sans-Serif" font-size="10.00">::cc}::CreateFunctionForBuiltin</text>
<text text-anchor="middle" x="448.5" y="-379.5" font-family="Helvetica,sans-Serif" font-size="10.00">WithoutPrototype</text>
</a>
</g>
</g>
<!-- Node20&#45;&gt;Node25 -->
<g id="edge16" class="edge">
<title>Node20&#45;&gt;Node25</title>
<path fill="none" stroke="midnightblue" d="M594.41,-434.8C573.56,-429.58 551.64,-424.09 531.35,-419"/>
<polygon fill="midnightblue" stroke="midnightblue" points="593.67,-438.23 604.22,-437.26 595.37,-431.44 593.67,-438.23"/>
</g>
<!-- Node47 -->
<g id="node20" class="node">
<title>Node47</title>
<g id="a_node20"><a xlink:href="namespacev8_1_1internal_1_1anonymous__namespace_02bootstrapper_8cc_03.html#aabf5879ab99812e21dae275a676c95b9" target="_top" xlink:title=" ">
<polygon fill="white" stroke="black" points="366,-275.5 366,-327.5 531,-327.5 531,-275.5 366,-275.5"/>
<text text-anchor="start" x="374" y="-315.5" font-family="Helvetica,sans-Serif" font-size="10.00">v8::internal::anonymous</text>
<text text-anchor="start" x="374" y="-304.5" font-family="Helvetica,sans-Serif" font-size="10.00">_namespace{bootstrapper</text>
<text text-anchor="start" x="374" y="-293.5" font-family="Helvetica,sans-Serif" font-size="10.00">::cc}::CreateFunctionForBuiltin</text>
<text text-anchor="middle" x="448.5" y="-282.5" font-family="Helvetica,sans-Serif" font-size="10.00">WithPrototype</text>
</a>
</g>
</g>
<!-- Node20&#45;&gt;Node47 -->
<g id="edge21" class="edge">
<title>Node20&#45;&gt;Node47</title>
<path fill="none" stroke="midnightblue" d="M595.33,-430.43C591.36,-428 587.56,-425.36 584,-422.5 560.05,-403.27 569.57,-385.37 548,-363.5 534.31,-349.62 516.94,-337.39 500.62,-327.54"/>
<polygon fill="midnightblue" stroke="midnightblue" points="593.82,-433.6 604.25,-435.44 597.25,-427.5 593.82,-433.6"/>
</g>
<!-- Node22 -->
<g id="node15" class="node">
<title>Node22</title>
<g id="a_node15"><a xlink:href="classv8_1_1internal_1_1Genesis.html#a48c8a11ffe55318a53866b72a7da6bb3" target="_top" xlink:title=" ">
<polygon fill="white" stroke="red" points="169,-488.5 169,-518.5 297,-518.5 297,-488.5 169,-488.5"/>
<text text-anchor="start" x="177" y="-506.5" font-family="Helvetica,sans-Serif" font-size="10.00">v8::internal::Genesis</text>
<text text-anchor="middle" x="233" y="-495.5" font-family="Helvetica,sans-Serif" font-size="10.00">::CreateEmptyFunction</text>
</a>
</g>
</g>
<!-- Node21&#45;&gt;Node22 -->
<g id="edge14" class="edge">
<title>Node21&#45;&gt;Node22</title>
<path fill="none" stroke="midnightblue" d="M355.93,-481.23C336.18,-484.84 315.72,-488.57 297.33,-491.93"/>
<polygon fill="midnightblue" stroke="midnightblue" points="356.66,-484.65 365.87,-479.41 355.4,-477.77 356.66,-484.65"/>
</g>
<!-- Node24 -->
<g id="node16" class="node">
<title>Node24</title>
<g id="a_node16"><a xlink:href="classv8_1_1internal_1_1Genesis.html#ac36fe3099e592fba839f52adf16238bc" target="_top" xlink:title=" ">
<polygon fill="white" stroke="red" points="0,-372.5 0,-402.5 117,-402.5 117,-372.5 0,-372.5"/>
<text text-anchor="start" x="8" y="-390.5" font-family="Helvetica,sans-Serif" font-size="10.00">v8::internal::Genesis</text>
<text text-anchor="middle" x="58.5" y="-379.5" font-family="Helvetica,sans-Serif" font-size="10.00">::InitializeGlobal</text>
</a>
</g>
</g>
<!-- Node21&#45;&gt;Node24 -->
<g id="edge15" class="edge">
<title>Node21&#45;&gt;Node24</title>
<path fill="none" stroke="midnightblue" d="M355.67,-467.12C296.58,-466.36 218.81,-460.75 153,-440.5 125.89,-432.16 98.01,-415.04 79.83,-402.5"/>
<polygon fill="midnightblue" stroke="midnightblue" points="355.7,-470.62 365.73,-467.21 355.76,-463.62 355.7,-470.62"/>
</g>
<!-- Node26 -->
<g id="node18" class="node">
<title>Node26</title>
<g id="a_node18"><a xlink:href="classv8_1_1internal_1_1Genesis.html#aa9fa4379e233dffb08de708ba8d78678" target="_top" xlink:title=" ">
<polygon fill="white" stroke="red" points="155.5,-400.5 155.5,-430.5 310.5,-430.5 310.5,-400.5 155.5,-400.5"/>
<text text-anchor="start" x="163.5" y="-418.5" font-family="Helvetica,sans-Serif" font-size="10.00">v8::internal::Genesis</text>
<text text-anchor="middle" x="233" y="-407.5" font-family="Helvetica,sans-Serif" font-size="10.00">::GetThrowTypeErrorIntrinsic</text>
</a>
</g>
</g>
<!-- Node25&#45;&gt;Node26 -->
<g id="edge17" class="edge">
<title>Node25&#45;&gt;Node26</title>
<path fill="none" stroke="midnightblue" d="M355.58,-405.82C340.6,-407.01 325.23,-408.24 310.67,-409.4"/>
<polygon fill="midnightblue" stroke="midnightblue" points="356.18,-409.28 365.87,-405 355.62,-402.3 356.18,-409.28"/>
</g>
<!-- Node29 -->
<g id="node19" class="node">
<title>Node29</title>
<g id="a_node19"><a xlink:href="namespacev8_1_1internal_1_1anonymous__namespace_02bootstrapper_8cc_03.html#a5202c1677fa1d819a2bdc43591306d28" target="_top" xlink:title=" ">
<polygon fill="white" stroke="red" points="157,-340 157,-381 309,-381 309,-340 157,-340"/>
<text text-anchor="start" x="165" y="-369" font-family="Helvetica,sans-Serif" font-size="10.00">v8::internal::anonymous</text>
<text text-anchor="start" x="165" y="-358" font-family="Helvetica,sans-Serif" font-size="10.00">_namespace{bootstrapper</text>
<text text-anchor="middle" x="233" y="-347" font-family="Helvetica,sans-Serif" font-size="10.00">::cc}::SimpleCreateFunction</text>
</a>
</g>
</g>
<!-- Node25&#45;&gt;Node29 -->
<g id="edge19" class="edge">
<title>Node25&#45;&gt;Node29</title>
<path fill="none" stroke="midnightblue" d="M355.75,-382.17C340.24,-379.41 324.3,-376.57 309.27,-373.9"/>
<polygon fill="midnightblue" stroke="midnightblue" points="355.41,-385.66 365.87,-383.97 356.64,-378.77 355.41,-385.66"/>
</g>
<!-- Node26&#45;&gt;Node24 -->
<g id="edge18" class="edge">
<title>Node26&#45;&gt;Node24</title>
<path fill="none" stroke="midnightblue" d="M145.34,-401.43C135.74,-399.88 126.15,-398.32 117.03,-396.84"/>
<polygon fill="midnightblue" stroke="midnightblue" points="144.9,-404.91 155.33,-403.06 146.02,-398 144.9,-404.91"/>
</g>
<!-- Node29&#45;&gt;Node24 -->
<g id="edge20" class="edge">
<title>Node29&#45;&gt;Node24</title>
<path fill="none" stroke="midnightblue" d="M146.78,-373.84C136.7,-375.42 126.6,-377 117.03,-378.5"/>
<polygon fill="midnightblue" stroke="midnightblue" points="147.5,-377.27 156.84,-372.26 146.42,-370.35 147.5,-377.27"/>
</g>
<!-- Node47&#45;&gt;Node24 -->
<g id="edge24" class="edge">
<title>Node47&#45;&gt;Node24</title>
<path fill="none" stroke="midnightblue" d="M355.7,-300.08C296.46,-301.69 218.52,-308.58 153,-330.5 125.05,-339.85 96.67,-358.77 78.63,-372.25"/>
<polygon fill="midnightblue" stroke="midnightblue" points="355.87,-303.58 365.79,-299.86 355.71,-296.58 355.87,-303.58"/>
</g>
<!-- Node48 -->
<g id="node21" class="node">
<title>Node48</title>
<g id="a_node21"><a xlink:href="namespacev8_1_1internal_1_1anonymous__namespace_02bootstrapper_8cc_03.html#a18477dd3e089ca24ca728b53bd874f74" target="_top" xlink:title=" ">
<polygon fill="white" stroke="black" points="160,-242 160,-283 306,-283 306,-242 160,-242"/>
<text text-anchor="start" x="168" y="-271" font-family="Helvetica,sans-Serif" font-size="10.00">v8::internal::anonymous</text>
<text text-anchor="start" x="168" y="-260" font-family="Helvetica,sans-Serif" font-size="10.00">_namespace{bootstrapper</text>
<text text-anchor="middle" x="233" y="-249" font-family="Helvetica,sans-Serif" font-size="10.00">::cc}::CreateFunction</text>
</a>
</g>
</g>
<!-- Node47&#45;&gt;Node48 -->
<g id="edge22" class="edge">
<title>Node47&#45;&gt;Node48</title>
<path fill="none" stroke="midnightblue" d="M355.64,-284.72C339.09,-281.7 322.05,-278.58 306.16,-275.68"/>
<polygon fill="midnightblue" stroke="midnightblue" points="355.4,-288.23 365.87,-286.59 356.66,-281.35 355.4,-288.23"/>
</g>
<!-- Node49 -->
<g id="node22" class="node">
<title>Node49</title>
<g id="a_node22"><a xlink:href="classv8_1_1internal_1_1Genesis.html#ae7194ecc8fbc7ad014a24d697db194cd" target="_top" xlink:title=" ">
<polygon fill="white" stroke="red" points="174.5,-192.5 174.5,-222.5 291.5,-222.5 291.5,-192.5 174.5,-192.5"/>
<text text-anchor="start" x="182.5" y="-210.5" font-family="Helvetica,sans-Serif" font-size="10.00">v8::internal::Genesis</text>
<text text-anchor="middle" x="233" y="-199.5" font-family="Helvetica,sans-Serif" font-size="10.00">::CreateNewGlobals</text>
</a>
</g>
</g>
<!-- Node47&#45;&gt;Node49 -->
<g id="edge23" class="edge">
<title>Node47&#45;&gt;Node49</title>
<path fill="none" stroke="midnightblue" d="M392.47,-270.62C368.49,-257.87 339.79,-243.52 313,-232.5 304.35,-228.94 295,-225.58 285.87,-222.54"/>
<polygon fill="midnightblue" stroke="midnightblue" points="390.95,-273.78 401.41,-275.42 394.26,-267.61 390.95,-273.78"/>
</g>
<!-- Node54 -->
<g id="node28" class="node">
<title>Node54</title>
<g id="a_node28"><a xlink:href="classv8_1_1internal_1_1wasm_1_1JSPrototypesSetup.html#a4721230e6f9f66b862bee6530578b15b" target="_top" xlink:title=" ">
<polygon fill="white" stroke="black" points="387.5,-169.5 387.5,-221.5 509.5,-221.5 509.5,-169.5 387.5,-169.5"/>
<text text-anchor="start" x="395.5" y="-209.5" font-family="Helvetica,sans-Serif" font-size="10.00">v8::internal::wasm</text>
<text text-anchor="start" x="395.5" y="-198.5" font-family="Helvetica,sans-Serif" font-size="10.00">::JSPrototypesSetup</text>
<text text-anchor="start" x="395.5" y="-187.5" font-family="Helvetica,sans-Serif" font-size="10.00">::ConfigurePrototypes</text>
<text text-anchor="middle" x="448.5" y="-176.5" font-family="Helvetica,sans-Serif" font-size="10.00">_Direct_Impl</text>
</a>
</g>
</g>
<!-- Node53&#45;&gt;Node54 -->
<g id="edge30" class="edge">
<title>Node53&#45;&gt;Node54</title>
<path fill="none" stroke="midnightblue" d="M623.47,-187.51C587.88,-189.14 544.19,-191.15 509.5,-192.74"/>
<polygon fill="midnightblue" stroke="midnightblue" points="623.92,-190.99 633.75,-187.04 623.6,-184 623.92,-190.99"/>
</g>
<!-- Node56 -->
<g id="node30" class="node">
<title>Node56</title>
<g id="a_node30"><a xlink:href="classv8_1_1internal_1_1wasm_1_1JSPrototypesSetup.html#a64418732b2fc5fb9640822accc9b912e" target="_top" xlink:title=" ">
<polygon fill="white" stroke="black" points="387.5,-98.5 387.5,-150.5 509.5,-150.5 509.5,-98.5 387.5,-98.5"/>
<text text-anchor="start" x="395.5" y="-138.5" font-family="Helvetica,sans-Serif" font-size="10.00">v8::internal::wasm</text>
<text text-anchor="start" x="395.5" y="-127.5" font-family="Helvetica,sans-Serif" font-size="10.00">::JSPrototypesSetup</text>
<text text-anchor="start" x="395.5" y="-116.5" font-family="Helvetica,sans-Serif" font-size="10.00">::ConfigurePrototypes</text>
<text text-anchor="middle" x="448.5" y="-105.5" font-family="Helvetica,sans-Serif" font-size="10.00">_Modular_Impl</text>
</a>
</g>
</g>
<!-- Node53&#45;&gt;Node56 -->
<g id="edge32" class="edge">
<title>Node53&#45;&gt;Node56</title>
<path fill="none" stroke="midnightblue" d="M623.93,-168.2C588.26,-159.26 544.34,-148.26 509.5,-139.53"/>
<polygon fill="midnightblue" stroke="midnightblue" points="623.2,-171.62 633.75,-170.66 624.9,-164.83 623.2,-171.62"/>
</g>
<!-- Node55 -->
<g id="node29" class="node">
<title>Node55</title>
<g id="a_node29"><a xlink:href="classv8_1_1internal_1_1wasm_1_1JSPrototypesSetup.html#abcf336c7c1eea99d9309106a15a17f58" target="_top" xlink:title=" ">
<polygon fill="white" stroke="black" points="172,-121.5 172,-173.5 294,-173.5 294,-121.5 172,-121.5"/>
<text text-anchor="start" x="180" y="-161.5" font-family="Helvetica,sans-Serif" font-size="10.00">v8::internal::wasm</text>
<text text-anchor="start" x="180" y="-150.5" font-family="Helvetica,sans-Serif" font-size="10.00">::JSPrototypesSetup</text>
<text text-anchor="start" x="180" y="-139.5" font-family="Helvetica,sans-Serif" font-size="10.00">::ConfigurePrototypes</text>
<text text-anchor="middle" x="233" y="-128.5" font-family="Helvetica,sans-Serif" font-size="10.00">_Direct</text>
</a>
</g>
</g>
<!-- Node54&#45;&gt;Node55 -->
<g id="edge31" class="edge">
<title>Node54&#45;&gt;Node55</title>
<path fill="none" stroke="midnightblue" d="M377.36,-179.73C350.52,-173.7 320.17,-166.87 294.33,-161.06"/>
<polygon fill="midnightblue" stroke="midnightblue" points="376.94,-183.22 387.46,-182 378.47,-176.39 376.94,-183.22"/>
</g>
<!-- Node57 -->
<g id="node31" class="node">
<title>Node57</title>
<g id="a_node31"><a xlink:href="classv8_1_1internal_1_1wasm_1_1JSPrototypesSetup.html#a6d162cc49009c4df4cb37f7ea861ae1b" target="_top" xlink:title=" ">
<polygon fill="white" stroke="black" points="172,-50.5 172,-102.5 294,-102.5 294,-50.5 172,-50.5"/>
<text text-anchor="start" x="180" y="-90.5" font-family="Helvetica,sans-Serif" font-size="10.00">v8::internal::wasm</text>
<text text-anchor="start" x="180" y="-79.5" font-family="Helvetica,sans-Serif" font-size="10.00">::JSPrototypesSetup</text>
<text text-anchor="start" x="180" y="-68.5" font-family="Helvetica,sans-Serif" font-size="10.00">::ConfigurePrototypes</text>
<text text-anchor="middle" x="233" y="-57.5" font-family="Helvetica,sans-Serif" font-size="10.00">_Modular</text>
</a>
</g>
</g>
<!-- Node56&#45;&gt;Node57 -->
<g id="edge33" class="edge">
<title>Node56&#45;&gt;Node57</title>
<path fill="none" stroke="midnightblue" d="M377.36,-108.73C350.52,-102.7 320.17,-95.87 294.33,-90.06"/>
<polygon fill="midnightblue" stroke="midnightblue" points="376.94,-112.22 387.46,-111 378.47,-105.39 376.94,-112.22"/>
</g>
<!-- Node59 -->
<g id="node33" class="node">
<title>Node59</title>
<g id="a_node33"><a xlink:href="classv8_1_1internal_1_1FeedbackVector.html#a178f3f154b55431d7cfe80a2fb4ce314" target="_top" xlink:title=" ">
<polygon fill="white" stroke="black" points="355.5,-49.5 355.5,-79.5 541.5,-79.5 541.5,-49.5 355.5,-49.5"/>
<text text-anchor="start" x="363.5" y="-67.5" font-family="Helvetica,sans-Serif" font-size="10.00">v8::internal::FeedbackVector</text>
<text text-anchor="middle" x="448.5" y="-56.5" font-family="Helvetica,sans-Serif" font-size="10.00">::NewWithOneBinarySlotForTesting</text>
</a>
</g>
</g>
<!-- Node58&#45;&gt;Node59 -->
<g id="edge35" class="edge">
<title>Node58&#45;&gt;Node59</title>
<path fill="none" stroke="midnightblue" d="M605.01,-111.84C597.85,-109.87 590.77,-107.75 584,-105.5 567.39,-99.97 564.54,-95.23 548,-89.5 537.5,-85.86 526.2,-82.5 515.13,-79.5"/>
<polygon fill="midnightblue" stroke="midnightblue" points="604.22,-115.25 614.79,-114.43 606.02,-108.48 604.22,-115.25"/>
</g>
<!-- Node60 -->
<g id="node34" class="node">
<title>Node60</title>
<g id="a_node34"><a xlink:href="classv8_1_1internal_1_1FeedbackVector.html#af929b92352ff33f35a15804d7ba67c4e" target="_top" xlink:title=" ">
<polygon fill="white" stroke="black" points="349,-0.5 349,-30.5 548,-30.5 548,-0.5 349,-0.5"/>
<text text-anchor="start" x="357" y="-18.5" font-family="Helvetica,sans-Serif" font-size="10.00">v8::internal::FeedbackVector</text>
<text text-anchor="middle" x="448.5" y="-7.5" font-family="Helvetica,sans-Serif" font-size="10.00">::NewWithOneCompareSlotForTesting</text>
</a>
</g>
</g>
<!-- Node58&#45;&gt;Node60 -->
<g id="edge36" class="edge">
<title>Node58&#45;&gt;Node60</title>
<path fill="none" stroke="midnightblue" d="M603.02,-116.46C596.24,-113.49 589.79,-109.88 584,-105.5 557.36,-85.33 574.49,-59.86 548,-39.5 543.53,-36.07 538.65,-33.12 533.51,-30.59"/>
<polygon fill="midnightblue" stroke="midnightblue" points="601.84,-119.75 612.43,-120.11 604.38,-113.23 601.84,-119.75"/>
</g>
</g>
</svg>
