<?xml version="1.0" encoding="UTF-8" standalone="no"?>
<!DOCTYPE svg PUBLIC "-//W3C//DTD SVG 1.1//EN"
 "http://www.w3.org/Graphics/SVG/1.1/DTD/svg11.dtd">
<!-- Generated by graphviz version 2.43.0 (0)
 -->
<!-- Title: v8::internal::IndirectPointerSlot::Relaxed_LoadHandle Pages: 1 -->
<svg width="668pt" height="159pt"
 viewBox="0.00 0.00 668.00 159.00" xmlns="http://www.w3.org/2000/svg" xmlns:xlink="http://www.w3.org/1999/xlink">
<g id="graph0" class="graph" transform="scale(1 1) rotate(0) translate(4 155)">
<title>v8::internal::IndirectPointerSlot::Relaxed_LoadHandle</title>
<polygon fill="white" stroke="transparent" points="-4,4 -4,-155 664,-155 664,4 -4,4"/>
<!-- Node1 -->
<g id="node1" class="node">
<title>Node1</title>
<g id="a_node1"><a xlink:title=" ">
<polygon fill="#bfbfbf" stroke="black" points="0,-79.5 0,-109.5 149,-109.5 149,-79.5 0,-79.5"/>
<text text-anchor="start" x="8" y="-97.5" font-family="Helvetica,sans-Serif" font-size="10.00">v8::internal::IndirectPointer</text>
<text text-anchor="middle" x="74.5" y="-86.5" font-family="Helvetica,sans-Serif" font-size="10.00">Slot::Relaxed_LoadHandle</text>
</a>
</g>
</g>
<!-- Node2 -->
<g id="node2" class="node">
<title>Node2</title>
<g id="a_node2"><a xlink:href="classv8_1_1internal_1_1SlotBase.html#abbe82566f5865b2a4f282fb86e7d0783" target="_top" xlink:title=" ">
<polygon fill="white" stroke="black" points="185,-98.5 185,-150.5 322,-150.5 322,-98.5 185,-98.5"/>
<text text-anchor="start" x="193" y="-138.5" font-family="Helvetica,sans-Serif" font-size="10.00">v8::internal::SlotBase</text>
<text text-anchor="start" x="193" y="-127.5" font-family="Helvetica,sans-Serif" font-size="10.00">&lt; IndirectPointerSlot,</text>
<text text-anchor="start" x="193" y="-116.5" font-family="Helvetica,sans-Serif" font-size="10.00"> IndirectPointerHandle,</text>
<text text-anchor="middle" x="253.5" y="-105.5" font-family="Helvetica,sans-Serif" font-size="10.00"> kTaggedSize &gt;::location</text>
</a>
</g>
</g>
<!-- Node1&#45;&gt;Node2 -->
<g id="edge1" class="edge">
<title>Node1&#45;&gt;Node2</title>
<path fill="none" stroke="midnightblue" d="M149.03,-106.96C157.56,-108.41 166.28,-109.89 174.87,-111.34"/>
<polygon fill="midnightblue" stroke="midnightblue" points="174.42,-114.82 184.87,-113.04 175.59,-107.91 174.42,-114.82"/>
</g>
<!-- Node3 -->
<g id="node3" class="node">
<title>Node3</title>
<g id="a_node3"><a xlink:href="classv8_1_1base_1_1AsAtomicImpl.html#ae17a848e6e9140dda698d2f1395d6cff" target="_top" xlink:title=" ">
<polygon fill="white" stroke="black" points="187.5,-49.5 187.5,-79.5 319.5,-79.5 319.5,-49.5 187.5,-49.5"/>
<text text-anchor="start" x="195.5" y="-67.5" font-family="Helvetica,sans-Serif" font-size="10.00">v8::base::AsAtomicImpl</text>
<text text-anchor="middle" x="253.5" y="-56.5" font-family="Helvetica,sans-Serif" font-size="10.00">::Relaxed_Load</text>
</a>
</g>
</g>
<!-- Node1&#45;&gt;Node3 -->
<g id="edge2" class="edge">
<title>Node1&#45;&gt;Node3</title>
<path fill="none" stroke="midnightblue" d="M149.03,-82.04C158.37,-80.45 167.95,-78.83 177.32,-77.24"/>
<polygon fill="midnightblue" stroke="midnightblue" points="178.12,-80.66 187.39,-75.54 176.95,-73.76 178.12,-80.66"/>
</g>
<!-- Node4 -->
<g id="node4" class="node">
<title>Node4</title>
<g id="a_node4"><a xlink:href="namespacev8_1_1base.html#a2e581b5cd5e9342670c135a3b365160c" target="_top" xlink:title=" ">
<polygon fill="white" stroke="black" points="370.5,-99 370.5,-118 501.5,-118 501.5,-99 370.5,-99"/>
<text text-anchor="middle" x="436" y="-106" font-family="Helvetica,sans-Serif" font-size="10.00">v8::base::Relaxed_Load</text>
</a>
</g>
</g>
<!-- Node3&#45;&gt;Node4 -->
<g id="edge3" class="edge">
<title>Node3&#45;&gt;Node4</title>
<path fill="none" stroke="midnightblue" d="M316.11,-79.52C338.95,-85.09 364.51,-91.32 386.07,-96.57"/>
<polygon fill="midnightblue" stroke="midnightblue" points="385.43,-100.02 395.98,-98.99 387.09,-93.22 385.43,-100.02"/>
</g>
<!-- Node6 -->
<g id="node6" class="node">
<title>Node6</title>
<g id="a_node6"><a xlink:href="structv8_1_1base_1_1AsAtomicImpl_1_1cast__helper.html#a1775b69ef47cfda6007011ba817c34bb" target="_top" xlink:title=" ">
<polygon fill="white" stroke="black" points="358,-49.5 358,-79.5 514,-79.5 514,-49.5 358,-49.5"/>
<text text-anchor="start" x="366" y="-67.5" font-family="Helvetica,sans-Serif" font-size="10.00">v8::base::AsAtomicImpl</text>
<text text-anchor="middle" x="436" y="-56.5" font-family="Helvetica,sans-Serif" font-size="10.00">::cast_helper::to_return_type</text>
</a>
</g>
</g>
<!-- Node3&#45;&gt;Node6 -->
<g id="edge5" class="edge">
<title>Node3&#45;&gt;Node6</title>
<path fill="none" stroke="midnightblue" d="M319.66,-64.5C328.79,-64.5 338.28,-64.5 347.73,-64.5"/>
<polygon fill="midnightblue" stroke="midnightblue" points="347.94,-68 357.94,-64.5 347.94,-61 347.94,-68"/>
</g>
<!-- Node7 -->
<g id="node7" class="node">
<title>Node7</title>
<g id="a_node7"><a xlink:href="classv8_1_1base_1_1AsAtomicImpl.html#a0d7f971291a74254ada607c6c0b0759a" target="_top" xlink:title=" ">
<polygon fill="white" stroke="black" points="370,-0.5 370,-30.5 502,-30.5 502,-0.5 370,-0.5"/>
<text text-anchor="start" x="378" y="-18.5" font-family="Helvetica,sans-Serif" font-size="10.00">v8::base::AsAtomicImpl</text>
<text text-anchor="middle" x="436" y="-7.5" font-family="Helvetica,sans-Serif" font-size="10.00">::to_storage_addr</text>
</a>
</g>
</g>
<!-- Node3&#45;&gt;Node7 -->
<g id="edge6" class="edge">
<title>Node3&#45;&gt;Node7</title>
<path fill="none" stroke="midnightblue" d="M310.13,-49.4C329,-44.27 350.26,-38.5 369.81,-33.2"/>
<polygon fill="midnightblue" stroke="midnightblue" points="370.82,-36.55 379.55,-30.55 368.99,-29.79 370.82,-36.55"/>
</g>
<!-- Node5 -->
<g id="node5" class="node">
<title>Node5</title>
<g id="a_node5"><a xlink:href="namespacev8_1_1base_1_1helper.html#a1e7e6daeef4677bbe103d0c111e2cdaa" target="_top" xlink:title=" ">
<polygon fill="white" stroke="black" points="550,-93.5 550,-123.5 660,-123.5 660,-93.5 550,-93.5"/>
<text text-anchor="start" x="558" y="-111.5" font-family="Helvetica,sans-Serif" font-size="10.00">v8::base::helper::to</text>
<text text-anchor="middle" x="605" y="-100.5" font-family="Helvetica,sans-Serif" font-size="10.00">_std_atomic_const</text>
</a>
</g>
</g>
<!-- Node4&#45;&gt;Node5 -->
<g id="edge4" class="edge">
<title>Node4&#45;&gt;Node5</title>
<path fill="none" stroke="midnightblue" d="M501.57,-108.5C514.04,-108.5 527.12,-108.5 539.59,-108.5"/>
<polygon fill="midnightblue" stroke="midnightblue" points="539.9,-112 549.9,-108.5 539.9,-105 539.9,-112"/>
</g>
</g>
</svg>
