<?xml version="1.0" encoding="UTF-8" standalone="no"?>
<!DOCTYPE svg PUBLIC "-//W3C//DTD SVG 1.1//EN"
 "http://www.w3.org/Graphics/SVG/1.1/DTD/svg11.dtd">
<!-- Generated by graphviz version 2.43.0 (0)
 -->
<!-- Title: v8::internal::wasm::LiftoffAssembler::LoadLane Pages: 1 -->
<!--zoomable 427 -->
<svg id="main" version="1.1" xmlns="http://www.w3.org/2000/svg" xmlns:xlink="http://www.w3.org/1999/xlink" xml:space="preserve" onload="init(evt)">
<style type="text/css"><![CDATA[
.edge:hover path { stroke: red; }
.edge:hover polygon { stroke: red; fill: red; }
]]></style>
<script type="text/javascript"><![CDATA[
var edges = document.getElementsByTagName('g');
if (edges && edges.length) {
  for (var i=0;i<edges.length;i++) {
    if (edges[i].id.substr(0,4)=='edge') {
      edges[i].setAttribute('class','edge');
    }
  }
}
]]></script>
        <defs>
                <circle id="rim" cx="0" cy="0" r="7"/>
                <circle id="rim2" cx="0" cy="0" r="3.5"/>
                <g id="zoomPlus">
                        <use xlink:href="#rim" fill="#404040">
                                <set attributeName="fill" to="#808080" begin="zoomplus.mouseover" end="zoomplus.mouseout"/>
                        </use>
                        <path d="M-4,0h8M0,-4v8" fill="none" stroke="white" stroke-width="1.5" pointer-events="none"/>
                </g>
                <g id="zoomMin">
                        <use xlink:href="#rim" fill="#404040">
                                <set attributeName="fill" to="#808080" begin="zoomminus.mouseover" end="zoomminus.mouseout"/>
                        </use>
                        <path d="M-4,0h8" fill="none" stroke="white" stroke-width="1.5" pointer-events="none"/>
                </g>
                <g id="dirArrow">
                        <path fill="none" stroke="white" stroke-width="1.5" d="M0,-3.0v7 M-2.5,-0.5L0,-3.0L2.5,-0.5"/>
                </g>
               <g id="resetDef">
                       <use xlink:href="#rim2" fill="#404040">
                               <set attributeName="fill" to="#808080" begin="reset.mouseover" end="reset.mouseout"/>
                       </use>
               </g>
        </defs>

<script type="text/javascript">
var viewWidth = 536;
var viewHeight = 427;
var sectionId = 'dynsection-671';
</script>
<script xlink:href="svgpan.js"/>
<svg id="graph" class="graph">
<g id="viewport">
<title>v8::internal::wasm::LiftoffAssembler::LoadLane</title>
<polygon fill="white" stroke="transparent" points="-4,4 -4,-423 532,-423 532,4 -4,4"/>
<!-- Node1 -->
<g id="node1" class="node">
<title>Node1</title>
<g id="a_node1"><a xlink:title=" ">
<polygon fill="#bfbfbf" stroke="black" points="0,-142 0,-183 108,-183 108,-142 0,-142"/>
<text text-anchor="start" x="8" y="-171" font-family="Helvetica,sans-Serif" font-size="10.00">v8::internal::wasm</text>
<text text-anchor="start" x="8" y="-160" font-family="Helvetica,sans-Serif" font-size="10.00">::LiftoffAssembler::</text>
<text text-anchor="middle" x="54" y="-149" font-family="Helvetica,sans-Serif" font-size="10.00">LoadLane</text>
</a>
</g>
</g>
<!-- Node2 -->
<g id="node2" class="node">
<title>Node2</title>
<g id="a_node2"><a xlink:href="namespacev8_1_1internal_1_1wasm_1_1liftoff.html#a3226690f4e640f2806e91abb2ad4a570" target="_top" xlink:title=" ">
<polygon fill="white" stroke="black" points="158.5,-320 158.5,-361 289.5,-361 289.5,-320 158.5,-320"/>
<text text-anchor="start" x="166.5" y="-349" font-family="Helvetica,sans-Serif" font-size="10.00">v8::internal::wasm</text>
<text text-anchor="start" x="166.5" y="-338" font-family="Helvetica,sans-Serif" font-size="10.00">::liftoff::CalculateActual</text>
<text text-anchor="middle" x="224" y="-327" font-family="Helvetica,sans-Serif" font-size="10.00">Address</text>
</a>
</g>
</g>
<!-- Node1&#45;&gt;Node2 -->
<g id="edge1" class="edge">
<title>Node1&#45;&gt;Node2</title>
<path fill="none" stroke="midnightblue" d="M67.01,-183.28C82.6,-209.13 111.65,-253.74 144,-285.5 154.66,-295.96 167.5,-305.83 179.71,-314.23"/>
<polygon fill="midnightblue" stroke="midnightblue" points="177.77,-317.14 188.02,-319.81 181.67,-311.33 177.77,-317.14"/>
</g>
<!-- Node6 -->
<g id="node6" class="node">
<title>Node6</title>
<g id="a_node6"><a xlink:href="namespacev8_1_1internal_1_1wasm_1_1liftoff.html#a912812ceac52bc2b20365f74f7812add" target="_top" xlink:title=" ">
<polygon fill="white" stroke="black" points="146.5,-245.5 146.5,-275.5 301.5,-275.5 301.5,-245.5 146.5,-245.5"/>
<text text-anchor="start" x="154.5" y="-263.5" font-family="Helvetica,sans-Serif" font-size="10.00">v8::internal::wasm</text>
<text text-anchor="middle" x="224" y="-252.5" font-family="Helvetica,sans-Serif" font-size="10.00">::liftoff::GetSimd128Register</text>
</a>
</g>
</g>
<!-- Node1&#45;&gt;Node6 -->
<g id="edge5" class="edge">
<title>Node1&#45;&gt;Node6</title>
<path fill="none" stroke="midnightblue" d="M74.83,-183.03C91.82,-199.56 117.64,-222.3 144,-236.5 147.45,-238.36 151.06,-240.1 154.77,-241.71"/>
<polygon fill="midnightblue" stroke="midnightblue" points="153.54,-244.99 164.12,-245.49 156.16,-238.5 153.54,-244.99"/>
</g>
<!-- Node9 -->
<g id="node9" class="node">
<title>Node9</title>
<g id="a_node9"><a xlink:href="classv8_1_1internal_1_1wasm_1_1LiftoffRegister.html#a07b3baff5528ee1d17cd00c64f90f58e" target="_top" xlink:title=" ">
<polygon fill="white" stroke="black" points="157.5,-147.5 157.5,-177.5 290.5,-177.5 290.5,-147.5 157.5,-147.5"/>
<text text-anchor="start" x="165.5" y="-165.5" font-family="Helvetica,sans-Serif" font-size="10.00">v8::internal::wasm</text>
<text text-anchor="middle" x="224" y="-154.5" font-family="Helvetica,sans-Serif" font-size="10.00">::LiftoffRegister::high_fp</text>
</a>
</g>
</g>
<!-- Node1&#45;&gt;Node9 -->
<g id="edge8" class="edge">
<title>Node1&#45;&gt;Node9</title>
<path fill="none" stroke="midnightblue" d="M108.16,-162.5C120.57,-162.5 134.02,-162.5 147.2,-162.5"/>
<polygon fill="midnightblue" stroke="midnightblue" points="147.2,-166 157.2,-162.5 147.2,-159 147.2,-166"/>
</g>
<!-- Node12 -->
<g id="node12" class="node">
<title>Node12</title>
<g id="a_node12"><a xlink:href="classv8_1_1internal_1_1MacroAssembler.html#a392cda081a5bff4cd7a30e623944864e" target="_top" xlink:title=" ">
<polygon fill="white" stroke="black" points="144,-98.5 144,-128.5 304,-128.5 304,-98.5 144,-98.5"/>
<text text-anchor="start" x="152" y="-116.5" font-family="Helvetica,sans-Serif" font-size="10.00">v8::internal::MacroAssembler</text>
<text text-anchor="middle" x="224" y="-105.5" font-family="Helvetica,sans-Serif" font-size="10.00">::LoadLane</text>
</a>
</g>
</g>
<!-- Node1&#45;&gt;Node12 -->
<g id="edge12" class="edge">
<title>Node1&#45;&gt;Node12</title>
<path fill="none" stroke="midnightblue" d="M108.16,-147C125.03,-142.07 143.84,-136.59 161.26,-131.51"/>
<polygon fill="midnightblue" stroke="midnightblue" points="162.72,-134.73 171.34,-128.57 160.76,-128.01 162.72,-134.73"/>
</g>
<!-- Node13 -->
<g id="node13" class="node">
<title>Node13</title>
<g id="a_node13"><a xlink:href="classv8_1_1internal_1_1wasm_1_1LiftoffRegister.html#adf001491dfc58502a1f147be37d42a04" target="_top" xlink:title=" ">
<polygon fill="white" stroke="black" points="159.5,-196.5 159.5,-226.5 288.5,-226.5 288.5,-196.5 159.5,-196.5"/>
<text text-anchor="start" x="167.5" y="-214.5" font-family="Helvetica,sans-Serif" font-size="10.00">v8::internal::wasm</text>
<text text-anchor="middle" x="224" y="-203.5" font-family="Helvetica,sans-Serif" font-size="10.00">::LiftoffRegister::low_fp</text>
</a>
</g>
</g>
<!-- Node1&#45;&gt;Node13 -->
<g id="edge13" class="edge">
<title>Node1&#45;&gt;Node13</title>
<path fill="none" stroke="midnightblue" d="M108.16,-178C125.03,-182.93 143.84,-188.41 161.26,-193.49"/>
<polygon fill="midnightblue" stroke="midnightblue" points="160.76,-196.99 171.34,-196.43 162.72,-190.27 160.76,-196.99"/>
</g>
<!-- Node14 -->
<g id="node14" class="node">
<title>Node14</title>
<g id="a_node14"><a xlink:href="classv8_1_1internal_1_1MacroAssembler.html#a3f2c5ff0e35897142fdc1515f32dafdd" target="_top" xlink:title=" ">
<polygon fill="white" stroke="black" points="144,-49.5 144,-79.5 304,-79.5 304,-49.5 144,-49.5"/>
<text text-anchor="start" x="152" y="-67.5" font-family="Helvetica,sans-Serif" font-size="10.00">v8::internal::MacroAssembler</text>
<text text-anchor="middle" x="224" y="-56.5" font-family="Helvetica,sans-Serif" font-size="10.00">::Move</text>
</a>
</g>
</g>
<!-- Node1&#45;&gt;Node14 -->
<g id="edge17" class="edge">
<title>Node1&#45;&gt;Node14</title>
<path fill="none" stroke="midnightblue" d="M74.83,-141.97C91.82,-125.44 117.64,-102.7 144,-88.5 147.45,-86.64 151.06,-84.9 154.77,-83.29"/>
<polygon fill="midnightblue" stroke="midnightblue" points="156.16,-86.5 164.12,-79.51 153.54,-80.01 156.16,-86.5"/>
</g>
<!-- Node15 -->
<g id="node15" class="node">
<title>Node15</title>
<g id="a_node15"><a xlink:href="classv8_1_1internal_1_1AssemblerBase.html#aba9d70b93c0a4747c3c0c5ef494ac23f" target="_top" xlink:title=" ">
<polygon fill="white" stroke="black" points="147,-0.5 147,-30.5 301,-30.5 301,-0.5 147,-0.5"/>
<text text-anchor="start" x="155" y="-18.5" font-family="Helvetica,sans-Serif" font-size="10.00">v8::internal::AssemblerBase</text>
<text text-anchor="middle" x="224" y="-7.5" font-family="Helvetica,sans-Serif" font-size="10.00">::pc_offset</text>
</a>
</g>
</g>
<!-- Node1&#45;&gt;Node15 -->
<g id="edge18" class="edge">
<title>Node1&#45;&gt;Node15</title>
<path fill="none" stroke="midnightblue" d="M64.58,-141.87C78.33,-114.48 106.24,-66.44 144,-39.5 146.09,-38.01 148.28,-36.6 150.54,-35.29"/>
<polygon fill="midnightblue" stroke="midnightblue" points="152.28,-38.33 159.55,-30.63 149.06,-32.11 152.28,-38.33"/>
</g>
<!-- Node3 -->
<g id="node3" class="node">
<title>Node3</title>
<g id="a_node3"><a xlink:href="classv8_1_1internal_1_1UseScratchRegisterScope.html#a18d5cc87e6ecaf4f254b626487145a37" target="_top" xlink:title=" ">
<polygon fill="white" stroke="black" points="367.5,-388.5 367.5,-418.5 500.5,-418.5 500.5,-388.5 367.5,-388.5"/>
<text text-anchor="start" x="375.5" y="-406.5" font-family="Helvetica,sans-Serif" font-size="10.00">v8::internal::UseScratch</text>
<text text-anchor="middle" x="434" y="-395.5" font-family="Helvetica,sans-Serif" font-size="10.00">RegisterScope::Acquire</text>
</a>
</g>
</g>
<!-- Node2&#45;&gt;Node3 -->
<g id="edge2" class="edge">
<title>Node2&#45;&gt;Node3</title>
<path fill="none" stroke="midnightblue" d="M285.08,-361.06C302.71,-366.9 322.07,-373.13 340,-378.5 348.06,-380.91 356.54,-383.34 364.97,-385.69"/>
<polygon fill="midnightblue" stroke="midnightblue" points="364.24,-389.12 374.81,-388.4 366.1,-382.37 364.24,-389.12"/>
</g>
<!-- Node4 -->
<g id="node4" class="node">
<title>Node4</title>
<g id="a_node4"><a xlink:href="classv8_1_1internal_1_1Assembler.html#a4b9a88ea4a7a7474f53ec8bd8e90a61e" target="_top" xlink:title=" ">
<polygon fill="white" stroke="black" points="357,-350 357,-369 511,-369 511,-350 357,-350"/>
<text text-anchor="middle" x="434" y="-357" font-family="Helvetica,sans-Serif" font-size="10.00">v8::internal::Assembler::add</text>
</a>
</g>
</g>
<!-- Node2&#45;&gt;Node4 -->
<g id="edge3" class="edge">
<title>Node2&#45;&gt;Node4</title>
<path fill="none" stroke="midnightblue" d="M289.67,-346.41C307.67,-348.05 327.5,-349.86 346.53,-351.6"/>
<polygon fill="midnightblue" stroke="midnightblue" points="346.42,-355.11 356.7,-352.53 347.06,-348.13 346.42,-355.11"/>
</g>
<!-- Node5 -->
<g id="node5" class="node">
<title>Node5</title>
<g id="a_node5"><a xlink:href="classv8_1_1internal_1_1MacroAssembler.html#a1ef8a84916eb1566c2b7d40c1cedbc22" target="_top" xlink:title=" ">
<polygon fill="white" stroke="black" points="340,-312 340,-331 528,-331 528,-312 340,-312"/>
<text text-anchor="middle" x="434" y="-319" font-family="Helvetica,sans-Serif" font-size="10.00">v8::internal::MacroAssembler::mov</text>
</a>
</g>
</g>
<!-- Node2&#45;&gt;Node5 -->
<g id="edge4" class="edge">
<title>Node2&#45;&gt;Node5</title>
<path fill="none" stroke="midnightblue" d="M289.67,-334.59C302.31,-333.44 315.86,-332.2 329.4,-330.96"/>
<polygon fill="midnightblue" stroke="midnightblue" points="330.09,-334.41 339.74,-330.02 329.46,-327.44 330.09,-334.41"/>
</g>
<!-- Node7 -->
<g id="node7" class="node">
<title>Node7</title>
<g id="a_node7"><a xlink:href="classv8_1_1internal_1_1RegisterBase.html#ae4f77df87f77114f40f3e8968e1c4a12" target="_top" xlink:title=" ">
<polygon fill="white" stroke="black" points="362.5,-262.5 362.5,-292.5 505.5,-292.5 505.5,-262.5 362.5,-262.5"/>
<text text-anchor="start" x="370.5" y="-280.5" font-family="Helvetica,sans-Serif" font-size="10.00">v8::internal::RegisterBase</text>
<text text-anchor="middle" x="434" y="-269.5" font-family="Helvetica,sans-Serif" font-size="10.00">::code</text>
</a>
</g>
</g>
<!-- Node6&#45;&gt;Node7 -->
<g id="edge6" class="edge">
<title>Node6&#45;&gt;Node7</title>
<path fill="none" stroke="midnightblue" d="M301.57,-266.76C318.06,-268.11 335.56,-269.54 352.21,-270.9"/>
<polygon fill="midnightblue" stroke="midnightblue" points="352.2,-274.41 362.46,-271.73 352.77,-267.43 352.2,-274.41"/>
</g>
<!-- Node8 -->
<g id="node8" class="node">
<title>Node8</title>
<g id="a_node8"><a xlink:href="classv8_1_1internal_1_1RegisterBase.html#a7b1dbf8b42ce2e2f8ac87134064661b0" target="_top" xlink:title=" ">
<polygon fill="white" stroke="black" points="340,-202 340,-243 528,-243 528,-202 340,-202"/>
<text text-anchor="start" x="348" y="-231" font-family="Helvetica,sans-Serif" font-size="10.00">v8::internal::RegisterBase</text>
<text text-anchor="start" x="348" y="-220" font-family="Helvetica,sans-Serif" font-size="10.00">&lt; QwNeonRegister, kSimd128After</text>
<text text-anchor="middle" x="434" y="-209" font-family="Helvetica,sans-Serif" font-size="10.00">Last &gt;::from_code</text>
</a>
</g>
</g>
<!-- Node6&#45;&gt;Node8 -->
<g id="edge7" class="edge">
<title>Node6&#45;&gt;Node8</title>
<path fill="none" stroke="midnightblue" d="M301.57,-246.51C310.76,-244.83 320.27,-243.09 329.77,-241.36"/>
<polygon fill="midnightblue" stroke="midnightblue" points="330.44,-244.79 339.65,-239.55 329.19,-237.91 330.44,-244.79"/>
</g>
<!-- Node9&#45;&gt;Node8 -->
<g id="edge10" class="edge">
<title>Node9&#45;&gt;Node8</title>
<path fill="none" stroke="midnightblue" d="M277.22,-177.56C299.85,-184.09 326.87,-191.88 352,-199.13"/>
<polygon fill="midnightblue" stroke="midnightblue" points="351.32,-202.58 361.89,-201.99 353.26,-195.85 351.32,-202.58"/>
</g>
<!-- Node10 -->
<g id="node10" class="node">
<title>Node10</title>
<g id="a_node10"><a xlink:href="namespacev8_1_1internal.html#aa6b3743bd5d773c552654f2a6c3efa4a" target="_top" xlink:title=" ">
<polygon fill="white" stroke="black" points="374.5,-104 374.5,-123 493.5,-123 493.5,-104 374.5,-104"/>
<text text-anchor="middle" x="434" y="-111" font-family="Helvetica,sans-Serif" font-size="10.00">v8::internal::DCHECK</text>
</a>
</g>
</g>
<!-- Node9&#45;&gt;Node10 -->
<g id="edge9" class="edge">
<title>Node9&#45;&gt;Node10</title>
<path fill="none" stroke="midnightblue" d="M280.13,-147.48C299.05,-142.49 320.4,-137.05 340,-132.5 350.81,-129.99 362.38,-127.48 373.55,-125.15"/>
<polygon fill="midnightblue" stroke="midnightblue" points="374.57,-128.51 383.66,-123.07 373.16,-121.66 374.57,-128.51"/>
</g>
<!-- Node11 -->
<g id="node11" class="node">
<title>Node11</title>
<g id="a_node11"><a xlink:href="classv8_1_1internal_1_1wasm_1_1LiftoffRegister.html#ac549a7093feb711541f124b1f9a68c6f" target="_top" xlink:title=" ">
<polygon fill="white" stroke="black" points="380.5,-142 380.5,-183 487.5,-183 487.5,-142 380.5,-142"/>
<text text-anchor="start" x="388.5" y="-171" font-family="Helvetica,sans-Serif" font-size="10.00">v8::internal::wasm</text>
<text text-anchor="start" x="388.5" y="-160" font-family="Helvetica,sans-Serif" font-size="10.00">::LiftoffRegister::is</text>
<text text-anchor="middle" x="434" y="-149" font-family="Helvetica,sans-Serif" font-size="10.00">_fp_pair</text>
</a>
</g>
</g>
<!-- Node9&#45;&gt;Node11 -->
<g id="edge11" class="edge">
<title>Node9&#45;&gt;Node11</title>
<path fill="none" stroke="midnightblue" d="M290.53,-162.5C315.96,-162.5 344.96,-162.5 370.14,-162.5"/>
<polygon fill="midnightblue" stroke="midnightblue" points="370.3,-166 380.3,-162.5 370.3,-159 370.3,-166"/>
</g>
<!-- Node13&#45;&gt;Node8 -->
<g id="edge15" class="edge">
<title>Node13&#45;&gt;Node8</title>
<path fill="none" stroke="midnightblue" d="M288.54,-214.86C301.61,-215.55 315.7,-216.3 329.76,-217.04"/>
<polygon fill="midnightblue" stroke="midnightblue" points="329.82,-220.55 339.99,-217.58 330.19,-213.56 329.82,-220.55"/>
</g>
<!-- Node13&#45;&gt;Node10 -->
<g id="edge14" class="edge">
<title>Node13&#45;&gt;Node10</title>
<path fill="none" stroke="midnightblue" d="M288.62,-196.61C294.07,-194.04 299.3,-191.02 304,-187.5 327.38,-169.98 315.83,-148.91 340,-132.5 347.33,-127.52 355.68,-123.8 364.31,-121.02"/>
<polygon fill="midnightblue" stroke="midnightblue" points="365.44,-124.34 374.12,-118.27 363.55,-117.6 365.44,-124.34"/>
</g>
<!-- Node13&#45;&gt;Node11 -->
<g id="edge16" class="edge">
<title>Node13&#45;&gt;Node11</title>
<path fill="none" stroke="midnightblue" d="M288.54,-196.53C314.48,-190.42 344.41,-183.37 370.27,-177.28"/>
<polygon fill="midnightblue" stroke="midnightblue" points="371.41,-180.61 380.34,-174.91 369.8,-173.79 371.41,-180.61"/>
</g>
</g>
</svg>
        <g id="navigator" transform="translate(0 0)" fill="#404254">
                <rect fill="#f2f5e9" fill-opacity="0.5" stroke="#606060" stroke-width=".5" x="0" y="0" width="60" height="60"/>
                <use id="zoomplus" xlink:href="#zoomPlus" x="17" y="9" onmousedown="handleZoom(evt,'in')"/>
                <use id="zoomminus" xlink:href="#zoomMin" x="42" y="9" onmousedown="handleZoom(evt,'out')"/>
                <use id="reset" xlink:href="#resetDef" x="30" y="36" onmousedown="handleReset()"/>
                <g id="arrowUp" xlink:href="#dirArrow" transform="translate(30 24)" onmousedown="handlePan(0,-1)">
                  <use xlink:href="#rim" fill="#404040">
                        <set attributeName="fill" to="#808080" begin="arrowUp.mouseover" end="arrowUp.mouseout"/>
                  </use>
                  <path fill="none" stroke="white" stroke-width="1.5" d="M0,-3.0v7 M-2.5,-0.5L0,-3.0L2.5,-0.5"/>
                </g>
                <g id="arrowRight" xlink:href="#dirArrow" transform="rotate(90) translate(36 -43)" onmousedown="handlePan(1,0)">
                  <use xlink:href="#rim" fill="#404040">
                        <set attributeName="fill" to="#808080" begin="arrowRight.mouseover" end="arrowRight.mouseout"/>
                  </use>
                  <path fill="none" stroke="white" stroke-width="1.5" d="M0,-3.0v7 M-2.5,-0.5L0,-3.0L2.5,-0.5"/>
                </g>
                <g id="arrowDown" xlink:href="#dirArrow" transform="rotate(180) translate(-30 -48)" onmousedown="handlePan(0,1)">
                  <use xlink:href="#rim" fill="#404040">
                        <set attributeName="fill" to="#808080" begin="arrowDown.mouseover" end="arrowDown.mouseout"/>
                  </use>
                  <path fill="none" stroke="white" stroke-width="1.5" d="M0,-3.0v7 M-2.5,-0.5L0,-3.0L2.5,-0.5"/>
                </g>
                <g id="arrowLeft" xlink:href="#dirArrow" transform="rotate(270) translate(-36 17)" onmousedown="handlePan(-1,0)">
                  <use xlink:href="#rim" fill="#404040">
                        <set attributeName="fill" to="#808080" begin="arrowLeft.mouseover" end="arrowLeft.mouseout"/>
                  </use>
                  <path fill="none" stroke="white" stroke-width="1.5" d="M0,-3.0v7 M-2.5,-0.5L0,-3.0L2.5,-0.5"/>
                </g>
        </g>
        <svg viewBox="0 0 15 15" width="100%" height="30px" preserveAspectRatio="xMaxYMin meet">
         <g id="arrow_out" transform="scale(0.3 0.3)">
          <a xlink:href="classv8_1_1internal_1_1wasm_1_1LiftoffAssembler_a5e2c7679ec365a5c5c6d9c195bfbad7e_cgraph_org.svg" target="_base">
           <rect id="button" ry="5" rx="5" y="6" x="6" height="38" width="38"
                fill="#f2f5e9" fill-opacity="0.5" stroke="#606060" stroke-width="1.0"/>
           <path id="arrow"
             d="M 11.500037,31.436501 C 11.940474,20.09759 22.043105,11.32322 32.158766,21.979434 L 37.068811,17.246167 C 37.068811,17.246167 37.088388,32 37.088388,32 L 22.160133,31.978069 C 22.160133,31.978069 26.997745,27.140456 26.997745,27.140456 C 18.528582,18.264221 13.291696,25.230495 11.500037,31.436501 z"
             style="fill:#404040;"/>
          </a>
         </g>
        </svg>
</svg>
