<?xml version="1.0" encoding="UTF-8" standalone="no"?>
<!DOCTYPE svg PUBLIC "-//W3C//DTD SVG 1.1//EN"
 "http://www.w3.org/Graphics/SVG/1.1/DTD/svg11.dtd">
<!-- Generated by graphviz version 2.43.0 (0)
 -->
<!-- Title: v8::internal::WritableRelocInfo::set_wasm_canonical_sig_id Pages: 1 -->
<svg width="737pt" height="165pt"
 viewBox="0.00 0.00 737.00 165.00" xmlns="http://www.w3.org/2000/svg" xmlns:xlink="http://www.w3.org/1999/xlink">
<g id="graph0" class="graph" transform="scale(1 1) rotate(0) translate(4 161)">
<title>v8::internal::WritableRelocInfo::set_wasm_canonical_sig_id</title>
<polygon fill="white" stroke="transparent" points="-4,4 -4,-161 733,-161 733,4 -4,4"/>
<!-- Node1 -->
<g id="node1" class="node">
<title>Node1</title>
<g id="a_node1"><a xlink:title=" ">
<polygon fill="#bfbfbf" stroke="black" points="0,-33 0,-63 176,-63 176,-33 0,-33"/>
<text text-anchor="start" x="8" y="-51" font-family="Helvetica,sans-Serif" font-size="10.00">v8::internal::WritableReloc</text>
<text text-anchor="middle" x="88" y="-40" font-family="Helvetica,sans-Serif" font-size="10.00">Info::set_wasm_canonical_sig_id</text>
</a>
</g>
</g>
<!-- Node2 -->
<g id="node2" class="node">
<title>Node2</title>
<g id="a_node2"><a xlink:href="classv8_1_1internal_1_1Assembler.html#a3f3c68f83b184811b8dd2c8552eeacb4" target="_top" xlink:title=" ">
<polygon fill="white" stroke="black" points="212,-33 212,-63 348,-63 348,-33 212,-33"/>
<text text-anchor="start" x="220" y="-51" font-family="Helvetica,sans-Serif" font-size="10.00">v8::internal::Assembler</text>
<text text-anchor="middle" x="280" y="-40" font-family="Helvetica,sans-Serif" font-size="10.00">::set_uint32_constant_at</text>
</a>
</g>
</g>
<!-- Node1&#45;&gt;Node2 -->
<g id="edge1" class="edge">
<title>Node1&#45;&gt;Node2</title>
<path fill="none" stroke="midnightblue" d="M176.21,-48C184.75,-48 193.36,-48 201.78,-48"/>
<polygon fill="midnightblue" stroke="midnightblue" points="201.94,-51.5 211.94,-48 201.94,-44.5 201.94,-51.5"/>
</g>
<!-- Node3 -->
<g id="node3" class="node">
<title>Node3</title>
<g id="a_node3"><a xlink:href="classv8_1_1internal_1_1Assembler.html#a86a074fb3017beda27ddf9a0848d8ec0" target="_top" xlink:title=" ">
<polygon fill="white" stroke="black" points="384.5,-82.5 384.5,-123.5 514.5,-123.5 514.5,-82.5 384.5,-82.5"/>
<text text-anchor="start" x="392.5" y="-111.5" font-family="Helvetica,sans-Serif" font-size="10.00">v8::internal::Assembler</text>
<text text-anchor="start" x="392.5" y="-100.5" font-family="Helvetica,sans-Serif" font-size="10.00">::constant_pool_entry</text>
<text text-anchor="middle" x="449.5" y="-89.5" font-family="Helvetica,sans-Serif" font-size="10.00">_address</text>
</a>
</g>
</g>
<!-- Node2&#45;&gt;Node3 -->
<g id="edge2" class="edge">
<title>Node2&#45;&gt;Node3</title>
<path fill="none" stroke="midnightblue" d="M326.77,-63.03C341.99,-68.03 359.34,-73.72 376.07,-79.22"/>
<polygon fill="midnightblue" stroke="midnightblue" points="375.24,-82.63 385.83,-82.42 377.42,-75.98 375.24,-82.63"/>
</g>
<!-- Node7 -->
<g id="node7" class="node">
<title>Node7</title>
<g id="a_node7"><a xlink:href="classv8_1_1internal_1_1Assembler.html#a13ef90d3a9fe547a0e203d93d620abbc" target="_top" xlink:title=" ">
<polygon fill="white" stroke="red" points="566.5,-0.5 566.5,-19.5 713.5,-19.5 713.5,-0.5 566.5,-0.5"/>
<text text-anchor="middle" x="640" y="-7.5" font-family="Helvetica,sans-Serif" font-size="10.00">v8::internal::Assembler::pc</text>
</a>
</g>
</g>
<!-- Node2&#45;&gt;Node7 -->
<g id="edge10" class="edge">
<title>Node2&#45;&gt;Node7</title>
<path fill="none" stroke="midnightblue" d="M334.62,-32.98C350.41,-29.1 367.79,-25.36 384,-23 441.15,-14.68 506.17,-11.46 556.25,-10.31"/>
<polygon fill="midnightblue" stroke="midnightblue" points="556.45,-13.81 566.38,-10.1 556.31,-6.81 556.45,-13.81"/>
</g>
<!-- Node9 -->
<g id="node8" class="node">
<title>Node9</title>
<g id="a_node8"><a xlink:href="classv8_1_1internal_1_1Assembler.html#a90829cc5a5cbcefd48c521084dad0343" target="_top" xlink:title=" ">
<polygon fill="white" stroke="black" points="384,-33 384,-63 515,-63 515,-33 384,-33"/>
<text text-anchor="start" x="392" y="-51" font-family="Helvetica,sans-Serif" font-size="10.00">v8::internal::Assembler</text>
<text text-anchor="middle" x="449.5" y="-40" font-family="Helvetica,sans-Serif" font-size="10.00">::is_constant_pool_load</text>
</a>
</g>
</g>
<!-- Node2&#45;&gt;Node9 -->
<g id="edge7" class="edge">
<title>Node2&#45;&gt;Node9</title>
<path fill="none" stroke="midnightblue" d="M348.16,-48C356.51,-48 365.09,-48 373.54,-48"/>
<polygon fill="midnightblue" stroke="midnightblue" points="373.77,-51.5 383.77,-48 373.77,-44.5 373.77,-51.5"/>
</g>
<!-- Node4 -->
<g id="node4" class="node">
<title>Node4</title>
<g id="a_node4"><a xlink:href="namespacev8_1_1internal.html#aa6b3743bd5d773c552654f2a6c3efa4a" target="_top" xlink:title=" ">
<polygon fill="white" stroke="black" points="580.5,-137.5 580.5,-156.5 699.5,-156.5 699.5,-137.5 580.5,-137.5"/>
<text text-anchor="middle" x="640" y="-144.5" font-family="Helvetica,sans-Serif" font-size="10.00">v8::internal::DCHECK</text>
</a>
</g>
</g>
<!-- Node3&#45;&gt;Node4 -->
<g id="edge3" class="edge">
<title>Node3&#45;&gt;Node4</title>
<path fill="none" stroke="midnightblue" d="M514.76,-119.3C526.79,-122.26 539.27,-125.27 551,-128 561.38,-130.41 572.48,-132.89 583.17,-135.22"/>
<polygon fill="midnightblue" stroke="midnightblue" points="582.75,-138.71 593.27,-137.41 584.23,-131.87 582.75,-138.71"/>
</g>
<!-- Node5 -->
<g id="node5" class="node">
<title>Node5</title>
<g id="a_node5"><a xlink:href="classv8_1_1internal_1_1Assembler.html#aef8c00038e26e809c6f18a36a3d980c1" target="_top" xlink:title=" ">
<polygon fill="white" stroke="black" points="551,-88 551,-118 729,-118 729,-88 551,-88"/>
<text text-anchor="start" x="559" y="-106" font-family="Helvetica,sans-Serif" font-size="10.00">v8::internal::Assembler</text>
<text text-anchor="middle" x="640" y="-95" font-family="Helvetica,sans-Serif" font-size="10.00">::GetLdrRegisterImmediateOffset</text>
</a>
</g>
</g>
<!-- Node3&#45;&gt;Node5 -->
<g id="edge4" class="edge">
<title>Node3&#45;&gt;Node5</title>
<path fill="none" stroke="midnightblue" d="M514.58,-103C523.03,-103 531.85,-103 540.71,-103"/>
<polygon fill="midnightblue" stroke="midnightblue" points="540.72,-106.5 550.72,-103 540.72,-99.5 540.72,-106.5"/>
</g>
<!-- Node6 -->
<g id="node6" class="node">
<title>Node6</title>
<g id="a_node6"><a xlink:href="classv8_1_1internal_1_1Assembler.html#ac948fea5fb853a002dddbea633e61536" target="_top" xlink:title=" ">
<polygon fill="white" stroke="black" points="570,-39 570,-69 710,-69 710,-39 570,-39"/>
<text text-anchor="start" x="578" y="-57" font-family="Helvetica,sans-Serif" font-size="10.00">v8::internal::Assembler</text>
<text text-anchor="middle" x="640" y="-46" font-family="Helvetica,sans-Serif" font-size="10.00">::IsLdrPcImmediateOffset</text>
</a>
</g>
</g>
<!-- Node3&#45;&gt;Node6 -->
<g id="edge5" class="edge">
<title>Node3&#45;&gt;Node6</title>
<path fill="none" stroke="midnightblue" d="M514.58,-86.34C532.86,-81.59 552.82,-76.4 571.31,-71.6"/>
<polygon fill="midnightblue" stroke="midnightblue" points="572.31,-74.95 581.11,-69.05 570.55,-68.18 572.31,-74.95"/>
</g>
<!-- Node3&#45;&gt;Node7 -->
<g id="edge6" class="edge">
<title>Node3&#45;&gt;Node7</title>
<path fill="none" stroke="midnightblue" d="M500.78,-82.4C505.77,-79.55 510.61,-76.41 515,-73 534.96,-57.5 529.44,-42.18 551,-29 554.43,-26.9 558.05,-25.04 561.8,-23.38"/>
<polygon fill="midnightblue" stroke="midnightblue" points="563.3,-26.55 571.34,-19.65 560.75,-20.03 563.3,-26.55"/>
</g>
<!-- Node9&#45;&gt;Node6 -->
<g id="edge8" class="edge">
<title>Node9&#45;&gt;Node6</title>
<path fill="none" stroke="midnightblue" d="M515.11,-50.06C529.48,-50.51 544.88,-51 559.77,-51.48"/>
<polygon fill="midnightblue" stroke="midnightblue" points="559.86,-54.98 569.97,-51.8 560.09,-47.99 559.86,-54.98"/>
</g>
<!-- Node9&#45;&gt;Node7 -->
<g id="edge9" class="edge">
<title>Node9&#45;&gt;Node7</title>
<path fill="none" stroke="midnightblue" d="M515.11,-34.98C536.72,-30.62 560.65,-25.79 581.67,-21.56"/>
<polygon fill="midnightblue" stroke="midnightblue" points="582.62,-24.94 591.74,-19.53 581.24,-18.07 582.62,-24.94"/>
</g>
</g>
</svg>
