<?xml version="1.0" encoding="UTF-8" standalone="no"?>
<!DOCTYPE svg PUBLIC "-//W3C//DTD SVG 1.1//EN"
 "http://www.w3.org/Graphics/SVG/1.1/DTD/svg11.dtd">
<!-- Generated by graphviz version 2.43.0 (0)
 -->
<!-- Title: v8::internal::Factory::NewJSPromise Pages: 1 -->
<svg width="1249pt" height="929pt"
 viewBox="0.00 0.00 1249.00 929.00" xmlns="http://www.w3.org/2000/svg" xmlns:xlink="http://www.w3.org/1999/xlink">
<g id="graph0" class="graph" transform="scale(1 1) rotate(0) translate(4 925)">
<title>v8::internal::Factory::NewJSPromise</title>
<polygon fill="white" stroke="transparent" points="-4,4 -4,-925 1245,-925 1245,4 -4,4"/>
<!-- Node1 -->
<g id="node1" class="node">
<title>Node1</title>
<g id="a_node1"><a xlink:title=" ">
<polygon fill="#bfbfbf" stroke="black" points="1128,-672 1128,-702 1241,-702 1241,-672 1128,-672"/>
<text text-anchor="start" x="1136" y="-690" font-family="Helvetica,sans-Serif" font-size="10.00">v8::internal::Factory</text>
<text text-anchor="middle" x="1184.5" y="-679" font-family="Helvetica,sans-Serif" font-size="10.00">::NewJSPromise</text>
</a>
</g>
</g>
<!-- Node2 -->
<g id="node2" class="node">
<title>Node2</title>
<g id="a_node2"><a xlink:href="classv8_1_1internal_1_1SyntheticModule.html#ae7dd8f3d00fb86440480074417a8b186" target="_top" xlink:title=" ">
<polygon fill="white" stroke="black" points="925,-814 925,-844 1085,-844 1085,-814 925,-814"/>
<text text-anchor="start" x="933" y="-832" font-family="Helvetica,sans-Serif" font-size="10.00">v8::internal::SyntheticModule</text>
<text text-anchor="middle" x="1005" y="-821" font-family="Helvetica,sans-Serif" font-size="10.00">::Evaluate</text>
</a>
</g>
</g>
<!-- Node1&#45;&gt;Node2 -->
<g id="edge1" class="edge">
<title>Node1&#45;&gt;Node2</title>
<path fill="none" stroke="midnightblue" d="M1171.12,-710.98C1156.02,-737.85 1127.99,-780.81 1092,-805 1086.85,-808.46 1081.22,-811.42 1075.37,-813.96"/>
<polygon fill="midnightblue" stroke="midnightblue" points="1174.19,-712.66 1175.91,-702.2 1168.05,-709.3 1174.19,-712.66"/>
</g>
<!-- Node3 -->
<g id="node3" class="node">
<title>Node3</title>
<g id="a_node3"><a xlink:href="classv8_1_1internal_1_1Module.html#a35cd34fba5af19fe2b4615d0594809c2" target="_top" xlink:title=" ">
<polygon fill="white" stroke="black" points="707,-858 707,-888 821,-888 821,-858 707,-858"/>
<text text-anchor="start" x="715" y="-876" font-family="Helvetica,sans-Serif" font-size="10.00">v8::internal::Module</text>
<text text-anchor="middle" x="764" y="-865" font-family="Helvetica,sans-Serif" font-size="10.00">::Evaluate</text>
</a>
</g>
</g>
<!-- Node1&#45;&gt;Node3 -->
<g id="edge7" class="edge">
<title>Node1&#45;&gt;Node3</title>
<path fill="none" stroke="midnightblue" d="M1177.94,-711.94C1167.99,-750.01 1143.21,-821.62 1092,-854 1009.45,-906.19 890.48,-896.91 821.12,-885.14"/>
<polygon fill="midnightblue" stroke="midnightblue" points="1181.36,-712.7 1180.36,-702.15 1174.56,-711.02 1181.36,-712.7"/>
</g>
<!-- Node6 -->
<g id="node6" class="node">
<title>Node6</title>
<g id="a_node6"><a xlink:href="classv8_1_1internal_1_1SourceTextModule.html#a16af970b80d955f33319150a95549306" target="_top" xlink:title=" ">
<polygon fill="white" stroke="black" points="210,-814 210,-844 341,-844 341,-814 210,-814"/>
<text text-anchor="start" x="218" y="-832" font-family="Helvetica,sans-Serif" font-size="10.00">v8::internal::SourceText</text>
<text text-anchor="middle" x="275.5" y="-821" font-family="Helvetica,sans-Serif" font-size="10.00">Module::Evaluate</text>
</a>
</g>
</g>
<!-- Node1&#45;&gt;Node6 -->
<g id="edge8" class="edge">
<title>Node1&#45;&gt;Node6</title>
<path fill="none" stroke="midnightblue" d="M1125.49,-704.69C1114.46,-707.53 1102.94,-710.14 1092,-712 786.29,-764 692.81,-671.19 396,-761 358.07,-772.48 319.09,-797.66 296.36,-813.95"/>
<polygon fill="midnightblue" stroke="midnightblue" points="1126.7,-707.99 1135.46,-702.03 1124.9,-701.22 1126.7,-707.99"/>
</g>
<!-- Node7 -->
<g id="node7" class="node">
<title>Node7</title>
<g id="a_node7"><a xlink:href="classv8_1_1internal_1_1SourceTextModule.html#a83ef89397f0806e7e51648ab7185fd06" target="_top" xlink:title=" ">
<polygon fill="white" stroke="black" points="924,-765 924,-795 1086,-795 1086,-765 924,-765"/>
<text text-anchor="start" x="932" y="-783" font-family="Helvetica,sans-Serif" font-size="10.00">v8::internal::SourceText</text>
<text text-anchor="middle" x="1005" y="-772" font-family="Helvetica,sans-Serif" font-size="10.00">Module::ExecuteAsyncModule</text>
</a>
</g>
</g>
<!-- Node1&#45;&gt;Node7 -->
<g id="edge9" class="edge">
<title>Node1&#45;&gt;Node7</title>
<path fill="none" stroke="midnightblue" d="M1153.34,-708.04C1135.88,-719.73 1113.21,-734.07 1092,-745 1077.81,-752.31 1061.74,-759.2 1047.36,-764.9"/>
<polygon fill="midnightblue" stroke="midnightblue" points="1155.65,-710.71 1161.96,-702.2 1151.72,-704.91 1155.65,-710.71"/>
</g>
<!-- Node10 -->
<g id="node10" class="node">
<title>Node10</title>
<g id="a_node10"><a xlink:href="classv8_1_1internal_1_1JSAtomicsMutex.html#a11ead00d22c8ccbb4ff02c13c7f86cdd" target="_top" xlink:title=" ">
<polygon fill="white" stroke="black" points="926,-672 926,-702 1084,-702 1084,-672 926,-672"/>
<text text-anchor="start" x="934" y="-690" font-family="Helvetica,sans-Serif" font-size="10.00">v8::internal::JSAtomicsMutex</text>
<text text-anchor="middle" x="1005" y="-679" font-family="Helvetica,sans-Serif" font-size="10.00">::LockAsyncWrapperForWait</text>
</a>
</g>
</g>
<!-- Node1&#45;&gt;Node10 -->
<g id="edge13" class="edge">
<title>Node1&#45;&gt;Node10</title>
<path fill="none" stroke="midnightblue" d="M1117.58,-687C1106.72,-687 1095.36,-687 1084.23,-687"/>
<polygon fill="midnightblue" stroke="midnightblue" points="1117.82,-690.5 1127.82,-687 1117.82,-683.5 1117.82,-690.5"/>
</g>
<!-- Node12 -->
<g id="node12" class="node">
<title>Node12</title>
<g id="a_node12"><a xlink:href="classv8_1_1internal_1_1JSAtomicsMutex.html#ae91cc5f649b3e630c487c544613a67af" target="_top" xlink:title=" ">
<polygon fill="white" stroke="black" points="926,-623 926,-653 1084,-653 1084,-623 926,-623"/>
<text text-anchor="start" x="934" y="-641" font-family="Helvetica,sans-Serif" font-size="10.00">v8::internal::JSAtomicsMutex</text>
<text text-anchor="middle" x="1005" y="-630" font-family="Helvetica,sans-Serif" font-size="10.00">::LockOrEnqueuePromise</text>
</a>
</g>
</g>
<!-- Node1&#45;&gt;Node12 -->
<g id="edge15" class="edge">
<title>Node1&#45;&gt;Node12</title>
<path fill="none" stroke="midnightblue" d="M1118.94,-669.18C1099.78,-663.89 1078.98,-658.15 1060.52,-653.05"/>
<polygon fill="midnightblue" stroke="midnightblue" points="1118.22,-672.61 1128.8,-671.9 1120.09,-665.86 1118.22,-672.61"/>
</g>
<!-- Node14 -->
<g id="node14" class="node">
<title>Node14</title>
<g id="a_node14"><a xlink:href="classv8_1_1Promise_1_1Resolver.html#a39d73fbb8db9bb44de553674e2d39409" target="_top" xlink:title="Create a new resolver, along with an associated promise in pending state.">
<polygon fill="white" stroke="black" points="929.5,-361.5 929.5,-380.5 1080.5,-380.5 1080.5,-361.5 929.5,-361.5"/>
<text text-anchor="middle" x="1005" y="-368.5" font-family="Helvetica,sans-Serif" font-size="10.00">v8::Promise::Resolver::New</text>
</a>
</g>
</g>
<!-- Node1&#45;&gt;Node14 -->
<g id="edge17" class="edge">
<title>Node1&#45;&gt;Node14</title>
<path fill="none" stroke="midnightblue" d="M1169.85,-662.7C1133.53,-598.04 1035.65,-423.78 1011.46,-380.72"/>
<polygon fill="midnightblue" stroke="midnightblue" points="1166.99,-664.75 1174.94,-671.76 1173.09,-661.33 1166.99,-664.75"/>
</g>
<!-- Node52 -->
<g id="node31" class="node">
<title>Node52</title>
<g id="a_node31"><a xlink:href="classv8_1_1internal_1_1FutexEmulation.html#a5b7d42b92773aeab3587c46d86d68d24" target="_top" xlink:title=" ">
<polygon fill="white" stroke="black" points="927.5,-245 927.5,-275 1082.5,-275 1082.5,-245 927.5,-245"/>
<text text-anchor="start" x="935.5" y="-263" font-family="Helvetica,sans-Serif" font-size="10.00">v8::internal::FutexEmulation</text>
<text text-anchor="middle" x="1005" y="-252" font-family="Helvetica,sans-Serif" font-size="10.00">::WaitAsync</text>
</a>
</g>
</g>
<!-- Node1&#45;&gt;Node52 -->
<g id="edge38" class="edge">
<title>Node1&#45;&gt;Node52</title>
<path fill="none" stroke="midnightblue" d="M1180.78,-661.54C1173.69,-603.36 1150.95,-457.59 1092,-352 1074.63,-320.88 1044.51,-292.09 1024.92,-275.28"/>
<polygon fill="midnightblue" stroke="midnightblue" points="1177.32,-662.13 1181.96,-671.66 1184.28,-661.32 1177.32,-662.13"/>
</g>
<!-- Node54 -->
<g id="node33" class="node">
<title>Node54</title>
<g id="a_node33"><a xlink:href="classv8_1_1internal_1_1JSAtomicsCondition.html#a0a626b72e905bbeccb72b5f15d9bafbb" target="_top" xlink:title=" ">
<polygon fill="white" stroke="black" points="918,-62 918,-92 1092,-92 1092,-62 918,-62"/>
<text text-anchor="start" x="926" y="-80" font-family="Helvetica,sans-Serif" font-size="10.00">v8::internal::JSAtomicsCondition</text>
<text text-anchor="middle" x="1005" y="-69" font-family="Helvetica,sans-Serif" font-size="10.00">::WaitAsync</text>
</a>
</g>
</g>
<!-- Node1&#45;&gt;Node54 -->
<g id="edge40" class="edge">
<title>Node1&#45;&gt;Node54</title>
<path fill="none" stroke="midnightblue" d="M1181.02,-661.73C1173.63,-592.08 1148.64,-392.13 1092,-236 1071.67,-179.95 1034.14,-119.51 1016.15,-92.08"/>
<polygon fill="midnightblue" stroke="midnightblue" points="1177.55,-662.18 1182.06,-671.77 1184.51,-661.46 1177.55,-662.18"/>
</g>
<!-- Node2&#45;&gt;Node3 -->
<g id="edge2" class="edge">
<title>Node2&#45;&gt;Node3</title>
<path fill="none" stroke="midnightblue" d="M914.71,-845.44C883.43,-851.2 849.19,-857.5 821.37,-862.62"/>
<polygon fill="midnightblue" stroke="midnightblue" points="915.55,-848.84 924.75,-843.59 914.28,-841.96 915.55,-848.84"/>
</g>
<!-- Node4 -->
<g id="node4" class="node">
<title>Node4</title>
<g id="a_node4"><a xlink:href="classv8_1_1Module.html#a1f1758265a4082595757c3251bb40e0f" target="_top" xlink:title="Evaluates the module and its dependencies.">
<polygon fill="white" stroke="black" points="443.5,-901.5 443.5,-920.5 562.5,-920.5 562.5,-901.5 443.5,-901.5"/>
<text text-anchor="middle" x="503" y="-908.5" font-family="Helvetica,sans-Serif" font-size="10.00">v8::Module::Evaluate</text>
</a>
</g>
</g>
<!-- Node3&#45;&gt;Node4 -->
<g id="edge3" class="edge">
<title>Node3&#45;&gt;Node4</title>
<path fill="none" stroke="midnightblue" d="M696.82,-882.71C655.46,-888.78 602.67,-896.52 562.79,-902.37"/>
<polygon fill="midnightblue" stroke="midnightblue" points="697.41,-886.16 706.8,-881.25 696.4,-879.23 697.41,-886.16"/>
</g>
<!-- Node5 -->
<g id="node5" class="node">
<title>Node5</title>
<g id="a_node5"><a xlink:href="classv8_1_1internal_1_1SourceTextModule.html#aee41dbff77e4cd606c98fab152c5e6a8" target="_top" xlink:title=" ">
<polygon fill="white" stroke="black" points="417.5,-814 417.5,-844 588.5,-844 588.5,-814 417.5,-814"/>
<text text-anchor="start" x="425.5" y="-832" font-family="Helvetica,sans-Serif" font-size="10.00">v8::internal::SourceText</text>
<text text-anchor="middle" x="503" y="-821" font-family="Helvetica,sans-Serif" font-size="10.00">Module::InnerModuleEvaluation</text>
</a>
</g>
</g>
<!-- Node3&#45;&gt;Node5 -->
<g id="edge4" class="edge">
<title>Node3&#45;&gt;Node5</title>
<path fill="none" stroke="midnightblue" d="M696.83,-861.76C663.92,-856.17 623.78,-849.35 588.65,-843.38"/>
<polygon fill="midnightblue" stroke="midnightblue" points="696.36,-865.23 706.8,-863.45 697.53,-858.33 696.36,-865.23"/>
</g>
<!-- Node5&#45;&gt;Node6 -->
<g id="edge5" class="edge">
<title>Node5&#45;&gt;Node6</title>
<path fill="none" stroke="midnightblue" d="M407.24,-829C384.97,-829 361.74,-829 341.14,-829"/>
<polygon fill="midnightblue" stroke="midnightblue" points="407.39,-832.5 417.39,-829 407.39,-825.5 407.39,-832.5"/>
</g>
<!-- Node6&#45;&gt;Node3 -->
<g id="edge6" class="edge">
<title>Node6&#45;&gt;Node3</title>
<path fill="none" stroke="midnightblue" d="M349.12,-846.06C364.53,-849.15 380.74,-852.02 396,-854 505.46,-868.2 634.58,-871.88 706.8,-872.78"/>
<polygon fill="midnightblue" stroke="midnightblue" points="349.64,-842.59 339.14,-844 348.23,-849.45 349.64,-842.59"/>
</g>
<!-- Node7&#45;&gt;Node5 -->
<g id="edge12" class="edge">
<title>Node7&#45;&gt;Node5</title>
<path fill="none" stroke="midnightblue" d="M942.37,-797.58C923.18,-802.4 901.85,-807.09 882,-810 781.88,-824.69 665.43,-828.58 588.52,-829.35"/>
<polygon fill="midnightblue" stroke="midnightblue" points="943.37,-800.94 952.19,-795.06 941.63,-794.16 943.37,-800.94"/>
</g>
<!-- Node8 -->
<g id="node8" class="node">
<title>Node8</title>
<g id="a_node8"><a xlink:href="classv8_1_1internal_1_1SourceTextModule.html#af7f56bdc7c74084b2f14515ab9830650" target="_top" xlink:title=" ">
<polygon fill="white" stroke="black" points="678.5,-759.5 678.5,-800.5 849.5,-800.5 849.5,-759.5 678.5,-759.5"/>
<text text-anchor="start" x="686.5" y="-788.5" font-family="Helvetica,sans-Serif" font-size="10.00">v8::internal::SourceText</text>
<text text-anchor="start" x="686.5" y="-777.5" font-family="Helvetica,sans-Serif" font-size="10.00">Module::AsyncModuleExecution</text>
<text text-anchor="middle" x="764" y="-766.5" font-family="Helvetica,sans-Serif" font-size="10.00">Fulfilled</text>
</a>
</g>
</g>
<!-- Node7&#45;&gt;Node8 -->
<g id="edge10" class="edge">
<title>Node7&#45;&gt;Node8</title>
<path fill="none" stroke="midnightblue" d="M913.56,-780C892.55,-780 870.27,-780 849.54,-780"/>
<polygon fill="midnightblue" stroke="midnightblue" points="913.75,-783.5 923.75,-780 913.75,-776.5 913.75,-783.5"/>
</g>
<!-- Node9 -->
<g id="node9" class="node">
<title>Node9</title>
<g id="a_node9"><a xlink:href="namespacev8_1_1internal.html#a7f96468b89bd31f4656bc2785e177f6a" target="_top" xlink:title=" ">
<polygon fill="white" stroke="black" points="445,-770.5 445,-789.5 561,-789.5 561,-770.5 445,-770.5"/>
<text text-anchor="middle" x="503" y="-777.5" font-family="Helvetica,sans-Serif" font-size="10.00">v8::internal::BUILTIN</text>
</a>
</g>
</g>
<!-- Node8&#45;&gt;Node9 -->
<g id="edge11" class="edge">
<title>Node8&#45;&gt;Node9</title>
<path fill="none" stroke="midnightblue" d="M668.18,-780C632.29,-780 592.56,-780 561.18,-780"/>
<polygon fill="midnightblue" stroke="midnightblue" points="668.19,-783.5 678.19,-780 668.19,-776.5 668.19,-783.5"/>
</g>
<!-- Node11 -->
<g id="node11" class="node">
<title>Node11</title>
<g id="a_node11"><a xlink:href="namespacev8_1_1internal.html#a2f03cb43dd947d5be045a4052c887b34" target="_top" xlink:title=" ">
<polygon fill="white" stroke="black" points="706,-683.5 706,-702.5 822,-702.5 822,-683.5 706,-683.5"/>
<text text-anchor="middle" x="764" y="-690.5" font-family="Helvetica,sans-Serif" font-size="10.00">v8::internal::BUILTIN</text>
</a>
</g>
</g>
<!-- Node10&#45;&gt;Node11 -->
<g id="edge14" class="edge">
<title>Node10&#45;&gt;Node11</title>
<path fill="none" stroke="midnightblue" d="M915.72,-689.22C884.48,-690 850.18,-690.86 822.21,-691.56"/>
<polygon fill="midnightblue" stroke="midnightblue" points="915.83,-692.71 925.74,-688.96 915.66,-685.72 915.83,-692.71"/>
</g>
<!-- Node13 -->
<g id="node13" class="node">
<title>Node13</title>
<g id="a_node13"><a xlink:href="namespacev8_1_1internal.html#a613b812ebe3b08325c5f369455018b46" target="_top" xlink:title=" ">
<polygon fill="white" stroke="black" points="706,-645.5 706,-664.5 822,-664.5 822,-645.5 706,-645.5"/>
<text text-anchor="middle" x="764" y="-652.5" font-family="Helvetica,sans-Serif" font-size="10.00">v8::internal::BUILTIN</text>
</a>
</g>
</g>
<!-- Node12&#45;&gt;Node13 -->
<g id="edge16" class="edge">
<title>Node12&#45;&gt;Node13</title>
<path fill="none" stroke="midnightblue" d="M915.72,-644.28C884.48,-646.5 850.18,-648.94 822.21,-650.93"/>
<polygon fill="midnightblue" stroke="midnightblue" points="916.02,-647.77 925.74,-643.57 915.52,-640.78 916.02,-647.77"/>
</g>
<!-- Node15 -->
<g id="node15" class="node">
<title>Node15</title>
<g id="a_node15"><a xlink:href="classv8__inspector_1_1InjectedScript_1_1ProtocolPromiseHandler.html#ac11292cfba0a77a9a14df61d787c2014" target="_top" xlink:title=" ">
<polygon fill="white" stroke="black" points="682,-214 682,-244 846,-244 846,-214 682,-214"/>
<text text-anchor="start" x="690" y="-232" font-family="Helvetica,sans-Serif" font-size="10.00">v8_inspector::InjectedScript</text>
<text text-anchor="middle" x="764" y="-221" font-family="Helvetica,sans-Serif" font-size="10.00">::ProtocolPromiseHandler::add</text>
</a>
</g>
</g>
<!-- Node14&#45;&gt;Node15 -->
<g id="edge18" class="edge">
<title>Node14&#45;&gt;Node15</title>
<path fill="none" stroke="midnightblue" d="M987.2,-353.89C956.75,-323.02 894.44,-260.59 882,-254 870.9,-248.11 858.51,-243.61 846.06,-240.17"/>
<polygon fill="midnightblue" stroke="midnightblue" points="985.03,-356.67 994.54,-361.34 990.02,-351.76 985.03,-356.67"/>
</g>
<!-- Node22 -->
<g id="node17" class="node">
<title>Node22</title>
<g id="a_node17"><a xlink:href="classv8_1_1Shell.html#a9a27fc787b741806d3039c66a44cc9d5" target="_top" xlink:title=" ">
<polygon fill="white" stroke="black" points="191,-165 191,-195 360,-195 360,-165 191,-165"/>
<text text-anchor="start" x="199" y="-183" font-family="Helvetica,sans-Serif" font-size="10.00">v8::Shell::DoHostImportModule</text>
<text text-anchor="middle" x="275.5" y="-172" font-family="Helvetica,sans-Serif" font-size="10.00">Dynamically</text>
</a>
</g>
</g>
<!-- Node14&#45;&gt;Node22 -->
<g id="edge20" class="edge">
<title>Node14&#45;&gt;Node22</title>
<path fill="none" stroke="midnightblue" d="M982.79,-355.14C963.21,-339.42 934.7,-313.59 918,-285 887.97,-233.61 929.41,-191.99 882,-156 801.4,-94.81 500.01,-139.14 355.18,-164.95"/>
<polygon fill="midnightblue" stroke="midnightblue" points="980.8,-358.03 990.83,-361.44 985.11,-352.52 980.8,-358.03"/>
</g>
<!-- Node23 -->
<g id="node18" class="node">
<title>Node23</title>
<g id="a_node18"><a xlink:href="classv8_1_1Shell.html#ae6e891b9483f7ea1f32931e51bfec1c2" target="_top" xlink:title=" ">
<polygon fill="white" stroke="red" points="0,-383 0,-413 155,-413 155,-383 0,-383"/>
<text text-anchor="start" x="8" y="-401" font-family="Helvetica,sans-Serif" font-size="10.00">v8::Shell::HostImportModule</text>
<text text-anchor="middle" x="77.5" y="-390" font-family="Helvetica,sans-Serif" font-size="10.00">WithPhaseDynamically</text>
</a>
</g>
</g>
<!-- Node14&#45;&gt;Node23 -->
<g id="edge24" class="edge">
<title>Node14&#45;&gt;Node23</title>
<path fill="none" stroke="midnightblue" d="M1000.41,-390.63C990.78,-436.74 959.69,-551.55 882,-598 789.3,-653.42 499.76,-627.96 396,-598 266.44,-560.59 138.81,-452.92 94.7,-413.07"/>
<polygon fill="midnightblue" stroke="midnightblue" points="1003.86,-391.19 1002.36,-380.7 996.99,-389.84 1003.86,-391.19"/>
</g>
<!-- Node29 -->
<g id="node19" class="node">
<title>Node29</title>
<g id="a_node19"><a xlink:href="classv8_1_1internal_1_1GCExtension.html#a7bc79e3b4e83f7ea3fdab30a134c8ac7" target="_top" xlink:title=" ">
<polygon fill="white" stroke="black" points="683.5,-88.5 683.5,-107.5 844.5,-107.5 844.5,-88.5 683.5,-88.5"/>
<text text-anchor="middle" x="764" y="-95.5" font-family="Helvetica,sans-Serif" font-size="10.00">v8::internal::GCExtension::GC</text>
</a>
</g>
</g>
<!-- Node14&#45;&gt;Node29 -->
<g id="edge22" class="edge">
<title>Node14&#45;&gt;Node29</title>
<path fill="none" stroke="midnightblue" d="M982.1,-355.08C962.28,-339.48 933.82,-313.87 918,-285 882.34,-219.94 934.85,-174.06 882,-122 871.81,-111.96 858.61,-105.59 844.77,-101.64"/>
<polygon fill="midnightblue" stroke="midnightblue" points="980.2,-358.04 990.27,-361.33 984.46,-352.48 980.2,-358.04"/>
</g>
<!-- Node31 -->
<g id="node21" class="node">
<title>Node31</title>
<g id="a_node21"><a xlink:href="classv8_1_1Shell.html#aeb3dc361989c67b8025804bb2ae086cf" target="_top" xlink:title=" ">
<polygon fill="white" stroke="black" points="676,-165 676,-195 852,-195 852,-165 676,-165"/>
<text text-anchor="start" x="684" y="-183" font-family="Helvetica,sans-Serif" font-size="10.00">v8::Shell::JSONModuleEvaluation</text>
<text text-anchor="middle" x="764" y="-172" font-family="Helvetica,sans-Serif" font-size="10.00">Steps</text>
</a>
</g>
</g>
<!-- Node14&#45;&gt;Node31 -->
<g id="edge25" class="edge">
<title>Node14&#45;&gt;Node31</title>
<path fill="none" stroke="midnightblue" d="M984.05,-354.81C965.15,-338.67 936.91,-312.4 918,-285 895.85,-252.91 912.34,-229.49 882,-205 873.27,-197.95 863.02,-192.77 852.28,-188.97"/>
<polygon fill="midnightblue" stroke="midnightblue" points="981.86,-357.54 991.77,-361.28 986.36,-352.17 981.86,-357.54"/>
</g>
<!-- Node35 -->
<g id="node23" class="node">
<title>Node35</title>
<g id="a_node23"><a xlink:href="namespacev8_1_1internal_1_1anonymous__namespace_02isolate_8cc_03.html#a255aaef3b3ba0ba7feff8223019efdcb" target="_top" xlink:title=" ">
<polygon fill="white" stroke="black" points="694,-547.5 694,-588.5 834,-588.5 834,-547.5 694,-547.5"/>
<text text-anchor="start" x="702" y="-576.5" font-family="Helvetica,sans-Serif" font-size="10.00">v8::internal::anonymous</text>
<text text-anchor="start" x="702" y="-565.5" font-family="Helvetica,sans-Serif" font-size="10.00">_namespace{isolate::cc}</text>
<text text-anchor="middle" x="764" y="-554.5" font-family="Helvetica,sans-Serif" font-size="10.00">::NewRejectedPromise</text>
</a>
</g>
</g>
<!-- Node14&#45;&gt;Node35 -->
<g id="edge28" class="edge">
<title>Node14&#45;&gt;Node35</title>
<path fill="none" stroke="midnightblue" d="M995.65,-389.82C979.18,-424.7 939.09,-499.33 882,-538 867.85,-547.59 850.85,-554.11 834.25,-558.55"/>
<polygon fill="midnightblue" stroke="midnightblue" points="998.83,-391.28 999.83,-380.73 992.47,-388.35 998.83,-391.28"/>
</g>
<!-- Node37 -->
<g id="node25" class="node">
<title>Node37</title>
<g id="a_node25"><a xlink:href="classv8_1_1Shell.html#a49ceef326ec8ab01aebf7de8f99f5c77" target="_top" xlink:title=" ">
<polygon fill="white" stroke="black" points="679.5,-498 679.5,-528 848.5,-528 848.5,-498 679.5,-498"/>
<text text-anchor="start" x="687.5" y="-516" font-family="Helvetica,sans-Serif" font-size="10.00">v8::Shell::PerformanceMeasure</text>
<text text-anchor="middle" x="764" y="-505" font-family="Helvetica,sans-Serif" font-size="10.00">Memory</text>
</a>
</g>
</g>
<!-- Node14&#45;&gt;Node37 -->
<g id="edge30" class="edge">
<title>Node14&#45;&gt;Node37</title>
<path fill="none" stroke="midnightblue" d="M989.77,-388.68C968.82,-413.53 927.22,-458.48 882,-483 870.76,-489.1 858.23,-493.99 845.66,-497.91"/>
<polygon fill="midnightblue" stroke="midnightblue" points="992.62,-390.73 996.3,-380.8 987.23,-386.27 992.62,-390.73"/>
</g>
<!-- Node38 -->
<g id="node26" class="node">
<title>Node38</title>
<g id="a_node26"><a xlink:href="namespacev8_1_1anonymous__namespace_02wasm-js_8cc_03.html#a80df3bb5366d6ec83e382c06d65a17c6" target="_top" xlink:title=" ">
<polygon fill="white" stroke="black" points="662,-399.5 662,-440.5 866,-440.5 866,-399.5 662,-399.5"/>
<text text-anchor="start" x="670" y="-428.5" font-family="Helvetica,sans-Serif" font-size="10.00">v8::anonymous_namespace</text>
<text text-anchor="start" x="670" y="-417.5" font-family="Helvetica,sans-Serif" font-size="10.00">{wasm&#45;js::cc}::StartAsyncCompilation</text>
<text text-anchor="middle" x="764" y="-406.5" font-family="Helvetica,sans-Serif" font-size="10.00">WithResolver</text>
</a>
</g>
</g>
<!-- Node14&#45;&gt;Node38 -->
<g id="edge31" class="edge">
<title>Node14&#45;&gt;Node38</title>
<path fill="none" stroke="midnightblue" d="M947.75,-382.53C923.09,-387.59 893.38,-393.68 865.15,-399.47"/>
<polygon fill="midnightblue" stroke="midnightblue" points="948.54,-385.94 957.64,-380.51 947.14,-379.09 948.54,-385.94"/>
</g>
<!-- Node39 -->
<g id="node27" class="node">
<title>Node39</title>
<g id="a_node27"><a xlink:href="namespacev8_1_1anonymous__namespace_02wasm-js_8cc_03.html#ab23e73fb88240f64540fadc2c56c93a1" target="_top" xlink:title=" ">
<polygon fill="white" stroke="red" points="402,-439.5 402,-480.5 604,-480.5 604,-439.5 402,-439.5"/>
<text text-anchor="start" x="410" y="-468.5" font-family="Helvetica,sans-Serif" font-size="10.00">v8::anonymous_namespace</text>
<text text-anchor="start" x="410" y="-457.5" font-family="Helvetica,sans-Serif" font-size="10.00">{wasm&#45;js::cc}::WebAssemblyCompile</text>
<text text-anchor="middle" x="503" y="-446.5" font-family="Helvetica,sans-Serif" font-size="10.00">Streaming</text>
</a>
</g>
</g>
<!-- Node14&#45;&gt;Node39 -->
<g id="edge35" class="edge">
<title>Node14&#45;&gt;Node39</title>
<path fill="none" stroke="midnightblue" d="M985.92,-387.37C963.45,-406.54 923.03,-437.28 882,-450 791.08,-478.18 681.88,-477.65 604.29,-471.88"/>
<polygon fill="midnightblue" stroke="midnightblue" points="988.38,-389.87 993.61,-380.65 983.78,-384.59 988.38,-389.87"/>
</g>
<!-- Node49 -->
<g id="node28" class="node">
<title>Node49</title>
<g id="a_node28"><a xlink:href="namespacev8_1_1anonymous__namespace_02wasm-js_8cc_03.html#ae46de88e70ad47716f44e4bb74c8b44d" target="_top" xlink:title=" ">
<polygon fill="white" stroke="red" points="396,-360.5 396,-401.5 610,-401.5 610,-360.5 396,-360.5"/>
<text text-anchor="start" x="404" y="-389.5" font-family="Helvetica,sans-Serif" font-size="10.00">v8::anonymous_namespace</text>
<text text-anchor="start" x="404" y="-378.5" font-family="Helvetica,sans-Serif" font-size="10.00">{wasm&#45;js::cc}::WebAssemblyInstantiate</text>
<text text-anchor="middle" x="503" y="-367.5" font-family="Helvetica,sans-Serif" font-size="10.00">Streaming</text>
</a>
</g>
</g>
<!-- Node14&#45;&gt;Node49 -->
<g id="edge37" class="edge">
<title>Node14&#45;&gt;Node49</title>
<path fill="none" stroke="midnightblue" d="M919.25,-372.69C833.97,-374.4 702.23,-377.04 610.07,-378.88"/>
<polygon fill="midnightblue" stroke="midnightblue" points="919.49,-376.19 929.42,-372.49 919.35,-369.19 919.49,-376.19"/>
</g>
<!-- Node50 -->
<g id="node29" class="node">
<title>Node50</title>
<g id="a_node29"><a xlink:href="namespacev8_1_1anonymous__namespace_02wasm-js_8cc_03.html#a9829d4bd6b0d386c48b2220d16fdb5c5" target="_top" xlink:title=" ">
<polygon fill="white" stroke="black" points="652,-312 652,-342 876,-342 876,-312 652,-312"/>
<text text-anchor="start" x="660" y="-330" font-family="Helvetica,sans-Serif" font-size="10.00">v8::anonymous_namespace</text>
<text text-anchor="middle" x="764" y="-319" font-family="Helvetica,sans-Serif" font-size="10.00">{wasm&#45;js::cc}::WebAssemblyCompileImpl</text>
</a>
</g>
</g>
<!-- Node14&#45;&gt;Node50 -->
<g id="edge34" class="edge">
<title>Node14&#45;&gt;Node50</title>
<path fill="none" stroke="midnightblue" d="M942.13,-359.61C913.07,-354.26 878.04,-347.81 846.83,-342.07"/>
<polygon fill="midnightblue" stroke="midnightblue" points="941.67,-363.08 952.14,-361.45 942.94,-356.2 941.67,-363.08"/>
</g>
<!-- Node51 -->
<g id="node30" class="node">
<title>Node51</title>
<g id="a_node30"><a xlink:href="namespacev8_1_1anonymous__namespace_02wasm-js_8cc_03.html#a5c9fb33b2596c8b7b7834e4d71f2645c" target="_top" xlink:title=" ">
<polygon fill="white" stroke="black" points="646,-263 646,-293 882,-293 882,-263 646,-263"/>
<text text-anchor="start" x="654" y="-281" font-family="Helvetica,sans-Serif" font-size="10.00">v8::anonymous_namespace</text>
<text text-anchor="middle" x="764" y="-270" font-family="Helvetica,sans-Serif" font-size="10.00">{wasm&#45;js::cc}::WebAssemblyInstantiateImpl</text>
</a>
</g>
</g>
<!-- Node14&#45;&gt;Node51 -->
<g id="edge36" class="edge">
<title>Node14&#45;&gt;Node51</title>
<path fill="none" stroke="midnightblue" d="M981.41,-355.69C957.64,-340.25 918.67,-316.78 882,-303 871.79,-299.16 860.85,-295.85 849.91,-293"/>
<polygon fill="midnightblue" stroke="midnightblue" points="979.75,-358.79 990.03,-361.37 983.61,-352.95 979.75,-358.79"/>
</g>
<!-- Node16 -->
<g id="node16" class="node">
<title>Node16</title>
<g id="a_node16"><a xlink:href="classv8__inspector_1_1InjectedScript.html#a78157a08abf5ead03886378a7d93965d" target="_top" xlink:title=" ">
<polygon fill="white" stroke="red" points="427,-214 427,-244 579,-244 579,-214 427,-214"/>
<text text-anchor="start" x="435" y="-232" font-family="Helvetica,sans-Serif" font-size="10.00">v8_inspector::InjectedScript</text>
<text text-anchor="middle" x="503" y="-221" font-family="Helvetica,sans-Serif" font-size="10.00">::addPromiseCallback</text>
</a>
</g>
</g>
<!-- Node15&#45;&gt;Node16 -->
<g id="edge19" class="edge">
<title>Node15&#45;&gt;Node16</title>
<path fill="none" stroke="midnightblue" d="M671.63,-229C641.39,-229 608.11,-229 579.22,-229"/>
<polygon fill="midnightblue" stroke="midnightblue" points="671.76,-232.5 681.76,-229 671.76,-225.5 671.76,-232.5"/>
</g>
<!-- Node22&#45;&gt;Node23 -->
<g id="edge21" class="edge">
<title>Node22&#45;&gt;Node23</title>
<path fill="none" stroke="midnightblue" d="M254.02,-202.77C213.87,-247.44 125.74,-345.45 92.01,-382.98"/>
<polygon fill="midnightblue" stroke="midnightblue" points="256.63,-205.11 260.72,-195.33 251.43,-200.43 256.63,-205.11"/>
</g>
<!-- Node30 -->
<g id="node20" class="node">
<title>Node30</title>
<g id="a_node20"><a xlink:href="classv8_1_1internal_1_1GCExtension.html#a92bd9cbf33543578a7f681520ea57f7c" target="_top" xlink:title=" ">
<polygon fill="white" stroke="black" points="424,-77 424,-107 582,-107 582,-77 424,-77"/>
<text text-anchor="start" x="432" y="-95" font-family="Helvetica,sans-Serif" font-size="10.00">v8::internal::GCExtension</text>
<text text-anchor="middle" x="503" y="-84" font-family="Helvetica,sans-Serif" font-size="10.00">::GetNativeFunctionTemplate</text>
</a>
</g>
</g>
<!-- Node29&#45;&gt;Node30 -->
<g id="edge23" class="edge">
<title>Node29&#45;&gt;Node30</title>
<path fill="none" stroke="midnightblue" d="M672.87,-95.91C643.34,-95.23 610.8,-94.47 582.22,-93.81"/>
<polygon fill="midnightblue" stroke="midnightblue" points="673.1,-99.42 683.18,-96.15 673.26,-92.42 673.1,-99.42"/>
</g>
<!-- Node32 -->
<g id="node22" class="node">
<title>Node32</title>
<g id="a_node22"><a xlink:href="classv8_1_1Shell.html#ac3a884f8e1d88e26b5f43f50baa416b1" target="_top" xlink:title=" ">
<polygon fill="white" stroke="red" points="429.5,-170.5 429.5,-189.5 576.5,-189.5 576.5,-170.5 429.5,-170.5"/>
<text text-anchor="middle" x="503" y="-177.5" font-family="Helvetica,sans-Serif" font-size="10.00">v8::Shell::FetchModuleTree</text>
</a>
</g>
</g>
<!-- Node31&#45;&gt;Node32 -->
<g id="edge26" class="edge">
<title>Node31&#45;&gt;Node32</title>
<path fill="none" stroke="midnightblue" d="M665.38,-180C635.97,-180 604.21,-180 576.72,-180"/>
<polygon fill="midnightblue" stroke="midnightblue" points="665.68,-183.5 675.68,-180 665.68,-176.5 665.68,-183.5"/>
</g>
<!-- Node32&#45;&gt;Node22 -->
<g id="edge27" class="edge">
<title>Node32&#45;&gt;Node22</title>
<path fill="none" stroke="midnightblue" d="M419.2,-180C400.01,-180 379.57,-180 360.34,-180"/>
<polygon fill="midnightblue" stroke="midnightblue" points="419.41,-183.5 429.41,-180 419.41,-176.5 419.41,-183.5"/>
</g>
<!-- Node36 -->
<g id="node24" class="node">
<title>Node36</title>
<g id="a_node24"><a xlink:href="classv8_1_1internal_1_1Isolate.html#a21cb17e7b0c2b4d431bfef75fd1c8886" target="_top" xlink:title=" ">
<polygon fill="white" stroke="black" points="406,-547.5 406,-588.5 600,-588.5 600,-547.5 406,-547.5"/>
<text text-anchor="start" x="414" y="-576.5" font-family="Helvetica,sans-Serif" font-size="10.00">v8::internal::Isolate</text>
<text text-anchor="start" x="414" y="-565.5" font-family="Helvetica,sans-Serif" font-size="10.00">::RunHostImportModuleDynamically</text>
<text text-anchor="middle" x="503" y="-554.5" font-family="Helvetica,sans-Serif" font-size="10.00">Callback</text>
</a>
</g>
</g>
<!-- Node35&#45;&gt;Node36 -->
<g id="edge29" class="edge">
<title>Node35&#45;&gt;Node36</title>
<path fill="none" stroke="midnightblue" d="M683.62,-568C657.25,-568 627.61,-568 600.12,-568"/>
<polygon fill="midnightblue" stroke="midnightblue" points="683.93,-571.5 693.93,-568 683.93,-564.5 683.93,-571.5"/>
</g>
<!-- Node38&#45;&gt;Node39 -->
<g id="edge32" class="edge">
<title>Node38&#45;&gt;Node39</title>
<path fill="none" stroke="midnightblue" d="M651.51,-437.22C635.83,-439.64 619.78,-442.12 604.33,-444.51"/>
<polygon fill="midnightblue" stroke="midnightblue" points="652.4,-440.62 661.75,-435.64 651.33,-433.7 652.4,-440.62"/>
</g>
<!-- Node38&#45;&gt;Node49 -->
<g id="edge33" class="edge">
<title>Node38&#45;&gt;Node49</title>
<path fill="none" stroke="midnightblue" d="M651.79,-403.25C638.03,-401.18 623.99,-399.07 610.31,-397.01"/>
<polygon fill="midnightblue" stroke="midnightblue" points="651.34,-406.73 661.75,-404.75 652.38,-399.8 651.34,-406.73"/>
</g>
<!-- Node53 -->
<g id="node32" class="node">
<title>Node53</title>
<g id="a_node32"><a xlink:href="classv8_1_1internal_1_1FutexEmulation.html#a689483cf6684d45d56daec4d465664c8" target="_top" xlink:title=" ">
<polygon fill="white" stroke="black" points="686.5,-39 686.5,-69 841.5,-69 841.5,-39 686.5,-39"/>
<text text-anchor="start" x="694.5" y="-57" font-family="Helvetica,sans-Serif" font-size="10.00">v8::internal::FutexEmulation</text>
<text text-anchor="middle" x="764" y="-46" font-family="Helvetica,sans-Serif" font-size="10.00">::Wait</text>
</a>
</g>
</g>
<!-- Node52&#45;&gt;Node53 -->
<g id="edge39" class="edge">
<title>Node52&#45;&gt;Node53</title>
<path fill="none" stroke="midnightblue" d="M994.68,-235.54C978.27,-195.98 940.35,-118.42 882,-79 870.04,-70.92 855.95,-65.38 841.77,-61.61"/>
<polygon fill="midnightblue" stroke="midnightblue" points="991.49,-236.99 998.47,-244.96 997.98,-234.37 991.49,-236.99"/>
</g>
<!-- Node55 -->
<g id="node34" class="node">
<title>Node55</title>
<g id="a_node34"><a xlink:href="namespacev8_1_1internal.html#a47b55c1d69191ff5efe1ce6138cce99a" target="_top" xlink:title=" ">
<polygon fill="white" stroke="black" points="706,-0.5 706,-19.5 822,-19.5 822,-0.5 706,-0.5"/>
<text text-anchor="middle" x="764" y="-7.5" font-family="Helvetica,sans-Serif" font-size="10.00">v8::internal::BUILTIN</text>
</a>
</g>
</g>
<!-- Node54&#45;&gt;Node55 -->
<g id="edge41" class="edge">
<title>Node54&#45;&gt;Node55</title>
<path fill="none" stroke="midnightblue" d="M962.05,-57.92C938.86,-48.03 909.3,-36.49 882,-29 862.75,-23.72 841.29,-19.71 822.06,-16.77"/>
<polygon fill="midnightblue" stroke="midnightblue" points="960.69,-61.14 971.25,-61.9 963.46,-54.72 960.69,-61.14"/>
</g>
</g>
</svg>
