<?xml version="1.0" encoding="UTF-8" standalone="no"?>
<!DOCTYPE svg PUBLIC "-//W3C//DTD SVG 1.1//EN"
 "http://www.w3.org/Graphics/SVG/1.1/DTD/svg11.dtd">
<!-- Generated by graphviz version 2.43.0 (0)
 -->
<!-- Title: v8::internal::compiler::turboshaft::Graph::BeginIndex Pages: 1 -->
<svg width="524pt" height="124pt"
 viewBox="0.00 0.00 524.00 123.50" xmlns="http://www.w3.org/2000/svg" xmlns:xlink="http://www.w3.org/1999/xlink">
<g id="graph0" class="graph" transform="scale(1 1) rotate(0) translate(4 119.5)">
<title>v8::internal::compiler::turboshaft::Graph::BeginIndex</title>
<polygon fill="white" stroke="transparent" points="-4,4 -4,-119.5 520,-119.5 520,4 -4,4"/>
<!-- Node1 -->
<g id="node1" class="node">
<title>Node1</title>
<g id="a_node1"><a xlink:title=" ">
<polygon fill="#bfbfbf" stroke="black" points="0,-33 0,-63 168,-63 168,-33 0,-33"/>
<text text-anchor="start" x="8" y="-51" font-family="Helvetica,sans-Serif" font-size="10.00">v8::internal::compiler</text>
<text text-anchor="middle" x="84" y="-40" font-family="Helvetica,sans-Serif" font-size="10.00">::turboshaft::Graph::BeginIndex</text>
</a>
</g>
</g>
<!-- Node2 -->
<g id="node2" class="node">
<title>Node2</title>
<g id="a_node2"><a xlink:href="namespacev8_1_1internal_1_1compiler.html#ae72af9053b45630a01be9a6140820b5a" target="_top" xlink:title=" ">
<polygon fill="white" stroke="black" points="221,-61 221,-91 342,-91 342,-61 221,-61"/>
<text text-anchor="start" x="229" y="-79" font-family="Helvetica,sans-Serif" font-size="10.00">v8::internal::compiler</text>
<text text-anchor="middle" x="281.5" y="-68" font-family="Helvetica,sans-Serif" font-size="10.00">::begin</text>
</a>
</g>
</g>
<!-- Node1&#45;&gt;Node2 -->
<g id="edge1" class="edge">
<title>Node1&#45;&gt;Node2</title>
<path fill="none" stroke="midnightblue" d="M168.19,-59.92C182.27,-61.93 196.76,-64.01 210.46,-65.97"/>
<polygon fill="midnightblue" stroke="midnightblue" points="210.37,-69.49 220.76,-67.44 211.36,-62.56 210.37,-69.49"/>
</g>
<!-- Node5 -->
<g id="node5" class="node">
<title>Node5</title>
<g id="a_node5"><a xlink:href="classv8_1_1internal_1_1compiler_1_1turboshaft_1_1OperationBuffer.html#a8ffa4a5016a85192c761b3fc70973eec" target="_top" xlink:title=" ">
<polygon fill="white" stroke="black" points="204,-0.5 204,-41.5 359,-41.5 359,-0.5 204,-0.5"/>
<text text-anchor="start" x="212" y="-29.5" font-family="Helvetica,sans-Serif" font-size="10.00">v8::internal::compiler</text>
<text text-anchor="start" x="212" y="-18.5" font-family="Helvetica,sans-Serif" font-size="10.00">::turboshaft::OperationBuffer</text>
<text text-anchor="middle" x="281.5" y="-7.5" font-family="Helvetica,sans-Serif" font-size="10.00">::BeginIndex</text>
</a>
</g>
</g>
<!-- Node1&#45;&gt;Node5 -->
<g id="edge4" class="edge">
<title>Node1&#45;&gt;Node5</title>
<path fill="none" stroke="midnightblue" d="M168.19,-36.51C176.71,-35.33 185.37,-34.14 193.93,-32.96"/>
<polygon fill="midnightblue" stroke="midnightblue" points="194.47,-36.42 203.89,-31.58 193.51,-29.48 194.47,-36.42"/>
</g>
<!-- Node3 -->
<g id="node3" class="node">
<title>Node3</title>
<g id="a_node3"><a xlink:href="classv8_1_1internal_1_1compiler_1_1Node_1_1Uses.html#aa720f51bb6b18aacb86d212fb1ee7144" target="_top" xlink:title=" ">
<polygon fill="white" stroke="black" points="395,-85 395,-115 516,-115 516,-85 395,-85"/>
<text text-anchor="start" x="403" y="-103" font-family="Helvetica,sans-Serif" font-size="10.00">v8::internal::compiler</text>
<text text-anchor="middle" x="455.5" y="-92" font-family="Helvetica,sans-Serif" font-size="10.00">::Node::Uses::begin</text>
</a>
</g>
</g>
<!-- Node2&#45;&gt;Node3 -->
<g id="edge2" class="edge">
<title>Node2&#45;&gt;Node3</title>
<path fill="none" stroke="midnightblue" d="M342.17,-84.33C355.92,-86.24 370.65,-88.3 384.78,-90.27"/>
<polygon fill="midnightblue" stroke="midnightblue" points="384.54,-93.77 394.93,-91.69 385.51,-86.84 384.54,-93.77"/>
</g>
<!-- Node4 -->
<g id="node4" class="node">
<title>Node4</title>
<g id="a_node4"><a xlink:href="classv8_1_1internal_1_1compiler_1_1Node.html#a9ebd76ae3786acc626d9c4f3cc3f8557" target="_top" xlink:title=" ">
<polygon fill="white" stroke="black" points="395,-36 395,-66 516,-66 516,-36 395,-36"/>
<text text-anchor="start" x="403" y="-54" font-family="Helvetica,sans-Serif" font-size="10.00">v8::internal::compiler</text>
<text text-anchor="middle" x="455.5" y="-43" font-family="Helvetica,sans-Serif" font-size="10.00">::Node::uses</text>
</a>
</g>
</g>
<!-- Node2&#45;&gt;Node4 -->
<g id="edge3" class="edge">
<title>Node2&#45;&gt;Node4</title>
<path fill="none" stroke="midnightblue" d="M342.17,-67.33C355.92,-65.33 370.65,-63.19 384.78,-61.13"/>
<polygon fill="midnightblue" stroke="midnightblue" points="385.54,-64.56 394.93,-59.66 384.53,-57.63 385.54,-64.56"/>
</g>
</g>
</svg>
