<?xml version="1.0" encoding="UTF-8" standalone="no"?>
<!DOCTYPE svg PUBLIC "-//W3C//DTD SVG 1.1//EN"
 "http://www.w3.org/Graphics/SVG/1.1/DTD/svg11.dtd">
<!-- Generated by graphviz version 2.43.0 (0)
 -->
<!-- Title: v8::internal::MacroAssemblerBase::IndirectLoadExternalReference Pages: 1 -->
<svg width="867pt" height="652pt"
 viewBox="0.00 0.00 867.00 652.00" xmlns="http://www.w3.org/2000/svg" xmlns:xlink="http://www.w3.org/1999/xlink">
<g id="graph0" class="graph" transform="scale(1 1) rotate(0) translate(4 648)">
<title>v8::internal::MacroAssemblerBase::IndirectLoadExternalReference</title>
<polygon fill="white" stroke="transparent" points="-4,4 -4,-648 863,-648 863,4 -4,4"/>
<!-- Node1 -->
<g id="node1" class="node">
<title>Node1</title>
<g id="a_node1"><a xlink:title=" ">
<polygon fill="#bfbfbf" stroke="black" points="0,-253.5 0,-283.5 197,-283.5 197,-253.5 0,-253.5"/>
<text text-anchor="start" x="8" y="-271.5" font-family="Helvetica,sans-Serif" font-size="10.00">v8::internal::MacroAssembler</text>
<text text-anchor="middle" x="98.5" y="-260.5" font-family="Helvetica,sans-Serif" font-size="10.00">Base::IndirectLoadExternalReference</text>
</a>
</g>
</g>
<!-- Node2 -->
<g id="node2" class="node">
<title>Node2</title>
<g id="a_node2"><a xlink:href="classv8_1_1internal_1_1MacroAssemblerBase.html#a15eef5eca0f67e7d0e3cd80dfe82403a" target="_top" xlink:title=" ">
<polygon fill="white" stroke="black" points="233,-343.5 233,-373.5 451,-373.5 451,-343.5 233,-343.5"/>
<text text-anchor="start" x="241" y="-361.5" font-family="Helvetica,sans-Serif" font-size="10.00">v8::internal::MacroAssembler</text>
<text text-anchor="middle" x="342" y="-350.5" font-family="Helvetica,sans-Serif" font-size="10.00">Base::IsAddressableThroughRootRegister</text>
</a>
</g>
</g>
<!-- Node1&#45;&gt;Node2 -->
<g id="edge1" class="edge">
<title>Node1&#45;&gt;Node2</title>
<path fill="none" stroke="midnightblue" d="M139.92,-283.56C181.45,-299.04 246.19,-323.17 290.94,-339.84"/>
<polygon fill="midnightblue" stroke="midnightblue" points="289.85,-343.17 300.45,-343.39 292.3,-336.62 289.85,-343.17"/>
</g>
<!-- Node8 -->
<g id="node8" class="node">
<title>Node8</title>
<g id="a_node8"><a xlink:href="classv8_1_1internal_1_1MacroAssemblerBase.html#abd05e085ee32fb49ec542f2a0b821288" target="_top" xlink:title=" ">
<polygon fill="white" stroke="black" points="491,-278.5 491,-308.5 651,-308.5 651,-278.5 491,-278.5"/>
<text text-anchor="start" x="499" y="-296.5" font-family="Helvetica,sans-Serif" font-size="10.00">v8::internal::MacroAssembler</text>
<text text-anchor="middle" x="571" y="-285.5" font-family="Helvetica,sans-Serif" font-size="10.00">Base::isolate</text>
</a>
</g>
</g>
<!-- Node1&#45;&gt;Node8 -->
<g id="edge10" class="edge">
<title>Node1&#45;&gt;Node8</title>
<path fill="none" stroke="midnightblue" d="M197.27,-273.7C280.67,-278.13 399.58,-284.44 480.51,-288.74"/>
<polygon fill="midnightblue" stroke="midnightblue" points="480.51,-292.25 490.68,-289.29 480.88,-285.26 480.51,-292.25"/>
</g>
<!-- Node10 -->
<g id="node10" class="node">
<title>Node10</title>
<g id="a_node10"><a xlink:href="classv8_1_1internal_1_1MacroAssemblerBase.html#a381f7cec2c93dac8a3d50dc0bf34408b" target="_top" xlink:title=" ">
<polygon fill="white" stroke="black" points="261,-174.5 261,-204.5 423,-204.5 423,-174.5 261,-174.5"/>
<text text-anchor="start" x="269" y="-192.5" font-family="Helvetica,sans-Serif" font-size="10.00">v8::internal::MacroAssembler</text>
<text text-anchor="middle" x="342" y="-181.5" font-family="Helvetica,sans-Serif" font-size="10.00">Base::LoadRootRegisterOffset</text>
</a>
</g>
</g>
<!-- Node1&#45;&gt;Node10 -->
<g id="edge11" class="edge">
<title>Node1&#45;&gt;Node10</title>
<path fill="none" stroke="midnightblue" d="M132.44,-253.49C159.14,-241.73 197.95,-225.57 233,-214.5 241.33,-211.87 250.11,-209.38 258.91,-207.08"/>
<polygon fill="midnightblue" stroke="midnightblue" points="260,-210.41 268.83,-204.55 258.27,-203.63 260,-210.41"/>
</g>
<!-- Node11 -->
<g id="node11" class="node">
<title>Node11</title>
<g id="a_node11"><a xlink:href="classv8_1_1internal_1_1MacroAssemblerBase.html#a1c68a44f2f7febab06e87b74d4fb62d3" target="_top" xlink:title=" ">
<polygon fill="white" stroke="black" points="262,-125.5 262,-155.5 422,-155.5 422,-125.5 262,-125.5"/>
<text text-anchor="start" x="270" y="-143.5" font-family="Helvetica,sans-Serif" font-size="10.00">v8::internal::MacroAssembler</text>
<text text-anchor="middle" x="342" y="-132.5" font-family="Helvetica,sans-Serif" font-size="10.00">Base::LoadRootRelative</text>
</a>
</g>
</g>
<!-- Node1&#45;&gt;Node11 -->
<g id="edge12" class="edge">
<title>Node1&#45;&gt;Node11</title>
<path fill="none" stroke="midnightblue" d="M114.39,-253.17C137.56,-230.24 184.63,-187.29 233,-164.5 239.07,-161.64 245.5,-159.11 252.07,-156.88"/>
<polygon fill="midnightblue" stroke="midnightblue" points="253.29,-160.17 261.77,-153.82 251.18,-153.49 253.29,-160.17"/>
</g>
<!-- Node12 -->
<g id="node12" class="node">
<title>Node12</title>
<g id="a_node12"><a xlink:href="classv8_1_1internal_1_1MacroAssemblerBase.html#ab59917d6e3d81f5a98ff63ab8ed45d17" target="_top" xlink:title=" ">
<polygon fill="white" stroke="black" points="245,-465 245,-506 439,-506 439,-465 245,-465"/>
<text text-anchor="start" x="253" y="-494" font-family="Helvetica,sans-Serif" font-size="10.00">v8::internal::MacroAssembler</text>
<text text-anchor="start" x="253" y="-483" font-family="Helvetica,sans-Serif" font-size="10.00">Base::RootRegisterOffsetForExternal</text>
<text text-anchor="middle" x="342" y="-472" font-family="Helvetica,sans-Serif" font-size="10.00">Reference</text>
</a>
</g>
</g>
<!-- Node1&#45;&gt;Node12 -->
<g id="edge13" class="edge">
<title>Node1&#45;&gt;Node12</title>
<path fill="none" stroke="midnightblue" d="M116.48,-283.76C156.82,-320 258.86,-411.69 310.32,-457.93"/>
<polygon fill="midnightblue" stroke="midnightblue" points="308.05,-460.6 317.83,-464.68 312.73,-455.39 308.05,-460.6"/>
</g>
<!-- Node19 -->
<g id="node16" class="node">
<title>Node19</title>
<g id="a_node16"><a xlink:href="classv8_1_1internal_1_1MacroAssemblerBase.html#a5c61aaddb15970ac5233a1e11e191e24" target="_top" xlink:title=" ">
<polygon fill="white" stroke="black" points="245,-224 245,-265 439,-265 439,-224 245,-224"/>
<text text-anchor="start" x="253" y="-253" font-family="Helvetica,sans-Serif" font-size="10.00">v8::internal::MacroAssembler</text>
<text text-anchor="start" x="253" y="-242" font-family="Helvetica,sans-Serif" font-size="10.00">Base::RootRegisterOffsetForExternal</text>
<text text-anchor="middle" x="342" y="-231" font-family="Helvetica,sans-Serif" font-size="10.00">ReferenceTableEntry</text>
</a>
</g>
</g>
<!-- Node1&#45;&gt;Node19 -->
<g id="edge21" class="edge">
<title>Node1&#45;&gt;Node19</title>
<path fill="none" stroke="midnightblue" d="M197.03,-258.81C209.43,-257.58 222.16,-256.31 234.69,-255.07"/>
<polygon fill="midnightblue" stroke="midnightblue" points="235.07,-258.54 244.67,-254.07 234.38,-251.58 235.07,-258.54"/>
</g>
<!-- Node3 -->
<g id="node3" class="node">
<title>Node3</title>
<g id="a_node3"><a xlink:href="classv8_1_1internal_1_1ExternalReference.html#aadf8c6aed72f2104bd107b194c7d86a8" target="_top" xlink:title=" ">
<polygon fill="white" stroke="black" points="487,-415.5 487,-445.5 655,-445.5 655,-415.5 487,-415.5"/>
<text text-anchor="start" x="495" y="-433.5" font-family="Helvetica,sans-Serif" font-size="10.00">v8::internal::ExternalReference</text>
<text text-anchor="middle" x="571" y="-422.5" font-family="Helvetica,sans-Serif" font-size="10.00">::address</text>
</a>
</g>
</g>
<!-- Node2&#45;&gt;Node3 -->
<g id="edge2" class="edge">
<title>Node2&#45;&gt;Node3</title>
<path fill="none" stroke="midnightblue" d="M390.31,-373.51C425.85,-384.78 474.71,-400.28 512.51,-412.27"/>
<polygon fill="midnightblue" stroke="midnightblue" points="511.77,-415.7 522.36,-415.39 513.89,-409.03 511.77,-415.7"/>
</g>
<!-- Node4 -->
<g id="node4" class="node">
<title>Node4</title>
<g id="a_node4"><a xlink:href="classv8_1_1internal_1_1ExternalReference.html#aa3a5acdd2981461f1d126505121bde21" target="_top" xlink:title=" ">
<polygon fill="white" stroke="black" points="691,-495.5 691,-525.5 859,-525.5 859,-495.5 691,-495.5"/>
<text text-anchor="start" x="699" y="-513.5" font-family="Helvetica,sans-Serif" font-size="10.00">v8::internal::ExternalReference</text>
<text text-anchor="middle" x="775" y="-502.5" font-family="Helvetica,sans-Serif" font-size="10.00">::IsIsolateFieldId</text>
</a>
</g>
</g>
<!-- Node2&#45;&gt;Node4 -->
<g id="edge7" class="edge">
<title>Node2&#45;&gt;Node4</title>
<path fill="none" stroke="midnightblue" d="M451.33,-368.68C526.61,-376.98 619.53,-390 655,-406.5 695.9,-425.53 733.35,-463.01 754.91,-487.4"/>
<polygon fill="midnightblue" stroke="midnightblue" points="752.4,-489.85 761.6,-495.12 757.7,-485.27 752.4,-489.85"/>
</g>
<!-- Node5 -->
<g id="node5" class="node">
<title>Node5</title>
<g id="a_node5"><a xlink:href="classv8_1_1base_1_1AddressRegion.html#ad799a0c1d53c9117b94f95e6bc742e66" target="_top" xlink:title=" ">
<polygon fill="white" stroke="black" points="502.5,-327.5 502.5,-357.5 639.5,-357.5 639.5,-327.5 502.5,-327.5"/>
<text text-anchor="start" x="510.5" y="-345.5" font-family="Helvetica,sans-Serif" font-size="10.00">v8::base::AddressRegion</text>
<text text-anchor="middle" x="571" y="-334.5" font-family="Helvetica,sans-Serif" font-size="10.00">::contains</text>
</a>
</g>
</g>
<!-- Node2&#45;&gt;Node5 -->
<g id="edge4" class="edge">
<title>Node2&#45;&gt;Node5</title>
<path fill="none" stroke="midnightblue" d="M451.18,-350.87C465.1,-349.89 479.13,-348.9 492.43,-347.97"/>
<polygon fill="midnightblue" stroke="midnightblue" points="492.71,-351.46 502.44,-347.26 492.22,-344.47 492.71,-351.46"/>
</g>
<!-- Node2&#45;&gt;Node8 -->
<g id="edge8" class="edge">
<title>Node2&#45;&gt;Node8</title>
<path fill="none" stroke="midnightblue" d="M395.65,-343.42C429.05,-333.86 472.43,-321.44 507.57,-311.38"/>
<polygon fill="midnightblue" stroke="midnightblue" points="508.59,-314.72 517.24,-308.61 506.67,-307.99 508.59,-314.72"/>
</g>
<!-- Node9 -->
<g id="node9" class="node">
<title>Node9</title>
<g id="a_node9"><a xlink:href="classv8_1_1internal_1_1Isolate.html#ab816b9c7b7e35a25fb392b4c2a8cfbb9" target="_top" xlink:title=" ">
<polygon fill="white" stroke="black" points="496.5,-465 496.5,-506 645.5,-506 645.5,-465 496.5,-465"/>
<text text-anchor="start" x="504.5" y="-494" font-family="Helvetica,sans-Serif" font-size="10.00">v8::internal::Isolate</text>
<text text-anchor="start" x="504.5" y="-483" font-family="Helvetica,sans-Serif" font-size="10.00">::root_register_addressable</text>
<text text-anchor="middle" x="571" y="-472" font-family="Helvetica,sans-Serif" font-size="10.00">_region</text>
</a>
</g>
</g>
<!-- Node2&#45;&gt;Node9 -->
<g id="edge9" class="edge">
<title>Node2&#45;&gt;Node9</title>
<path fill="none" stroke="midnightblue" d="M362.08,-373.61C388.8,-394.22 439.43,-431.35 487,-455.5 490.69,-457.37 494.52,-459.18 498.43,-460.93"/>
<polygon fill="midnightblue" stroke="midnightblue" points="497.08,-464.15 507.65,-464.86 499.83,-457.72 497.08,-464.15"/>
</g>
<!-- Node3&#45;&gt;Node4 -->
<g id="edge3" class="edge">
<title>Node3&#45;&gt;Node4</title>
<path fill="none" stroke="midnightblue" d="M625.95,-445.55C635.7,-448.61 645.71,-451.98 655,-455.5 682.3,-465.86 712.14,-479.66 735.1,-490.84"/>
<polygon fill="midnightblue" stroke="midnightblue" points="733.66,-494.03 744.18,-495.29 736.74,-487.74 733.66,-494.03"/>
</g>
<!-- Node6 -->
<g id="node6" class="node">
<title>Node6</title>
<g id="a_node6"><a xlink:href="classv8_1_1base_1_1AddressRegion.html#a94a15b5dca8bef88c66880c9b00281ea" target="_top" xlink:title=" ">
<polygon fill="white" stroke="black" points="706.5,-352.5 706.5,-382.5 843.5,-382.5 843.5,-352.5 706.5,-352.5"/>
<text text-anchor="start" x="714.5" y="-370.5" font-family="Helvetica,sans-Serif" font-size="10.00">v8::base::AddressRegion</text>
<text text-anchor="middle" x="775" y="-359.5" font-family="Helvetica,sans-Serif" font-size="10.00">::begin</text>
</a>
</g>
</g>
<!-- Node5&#45;&gt;Node6 -->
<g id="edge5" class="edge">
<title>Node5&#45;&gt;Node6</title>
<path fill="none" stroke="midnightblue" d="M639.54,-350.86C657.72,-353.11 677.53,-355.56 696.22,-357.87"/>
<polygon fill="midnightblue" stroke="midnightblue" points="695.82,-361.35 706.18,-359.11 696.68,-354.4 695.82,-361.35"/>
</g>
<!-- Node7 -->
<g id="node7" class="node">
<title>Node7</title>
<g id="a_node7"><a xlink:href="classv8_1_1base_1_1AddressRegion.html#a753daf867d9e52511d3483b211a9f0b2" target="_top" xlink:title=" ">
<polygon fill="white" stroke="black" points="706.5,-303.5 706.5,-333.5 843.5,-333.5 843.5,-303.5 706.5,-303.5"/>
<text text-anchor="start" x="714.5" y="-321.5" font-family="Helvetica,sans-Serif" font-size="10.00">v8::base::AddressRegion</text>
<text text-anchor="middle" x="775" y="-310.5" font-family="Helvetica,sans-Serif" font-size="10.00">::size</text>
</a>
</g>
</g>
<!-- Node5&#45;&gt;Node7 -->
<g id="edge6" class="edge">
<title>Node5&#45;&gt;Node7</title>
<path fill="none" stroke="midnightblue" d="M639.54,-334.47C657.72,-332.31 677.53,-329.96 696.22,-327.74"/>
<polygon fill="midnightblue" stroke="midnightblue" points="696.66,-331.21 706.18,-326.56 695.83,-324.26 696.66,-331.21"/>
</g>
<!-- Node12&#45;&gt;Node3 -->
<g id="edge14" class="edge">
<title>Node12&#45;&gt;Node3</title>
<path fill="none" stroke="midnightblue" d="M427.85,-464.94C451,-459.33 475.84,-453.31 498.19,-447.9"/>
<polygon fill="midnightblue" stroke="midnightblue" points="499.03,-451.3 507.93,-445.54 497.38,-444.49 499.03,-451.3"/>
</g>
<!-- Node12&#45;&gt;Node4 -->
<g id="edge15" class="edge">
<title>Node12&#45;&gt;Node4</title>
<path fill="none" stroke="midnightblue" d="M370.14,-506.15C397.81,-525.82 442.84,-554.06 487,-565.5 559.28,-584.23 582.08,-581.54 655,-565.5 685.61,-558.77 717.73,-543.36 740.87,-530.56"/>
<polygon fill="midnightblue" stroke="midnightblue" points="742.61,-533.6 749.59,-525.63 739.16,-527.51 742.61,-533.6"/>
</g>
<!-- Node12&#45;&gt;Node8 -->
<g id="edge16" class="edge">
<title>Node12&#45;&gt;Node8</title>
<path fill="none" stroke="midnightblue" d="M369.18,-464.77C392.52,-445.42 426.65,-414.88 451,-383.5 471.24,-357.41 461.3,-339.23 487,-318.5 489.25,-316.68 491.63,-315 494.11,-313.44"/>
<polygon fill="midnightblue" stroke="midnightblue" points="495.82,-316.49 502.87,-308.58 492.42,-310.37 495.82,-316.49"/>
</g>
<!-- Node13 -->
<g id="node13" class="node">
<title>Node13</title>
<g id="a_node13"><a xlink:href="classv8_1_1internal_1_1Isolate.html#a8cc3ebf607711cd7a8418a2a979ac67a" target="_top" xlink:title=" ">
<polygon fill="white" stroke="black" points="515.5,-525.5 515.5,-555.5 626.5,-555.5 626.5,-525.5 515.5,-525.5"/>
<text text-anchor="start" x="523.5" y="-543.5" font-family="Helvetica,sans-Serif" font-size="10.00">v8::internal::Isolate</text>
<text text-anchor="middle" x="571" y="-532.5" font-family="Helvetica,sans-Serif" font-size="10.00">::isolate_root</text>
</a>
</g>
</g>
<!-- Node12&#45;&gt;Node13 -->
<g id="edge17" class="edge">
<title>Node12&#45;&gt;Node13</title>
<path fill="none" stroke="midnightblue" d="M427.85,-506.06C453.53,-512.28 481.3,-519.01 505.42,-524.85"/>
<polygon fill="midnightblue" stroke="midnightblue" points="504.63,-528.26 515.17,-527.22 506.28,-521.46 504.63,-528.26"/>
</g>
<!-- Node14 -->
<g id="node14" class="node">
<title>Node14</title>
<g id="a_node14"><a xlink:href="classv8_1_1internal_1_1ExternalReference.html#a29216e1421e7b7159738c2ed457c269b" target="_top" xlink:title=" ">
<polygon fill="white" stroke="black" points="487,-613.5 487,-643.5 655,-643.5 655,-613.5 487,-613.5"/>
<text text-anchor="start" x="495" y="-631.5" font-family="Helvetica,sans-Serif" font-size="10.00">v8::internal::ExternalReference</text>
<text text-anchor="middle" x="571" y="-620.5" font-family="Helvetica,sans-Serif" font-size="10.00">::offset_from_root_register</text>
</a>
</g>
</g>
<!-- Node12&#45;&gt;Node14 -->
<g id="edge18" class="edge">
<title>Node12&#45;&gt;Node14</title>
<path fill="none" stroke="midnightblue" d="M364.84,-506.32C391.75,-531.07 439.75,-572.31 487,-598.5 494.42,-602.61 502.51,-606.35 510.63,-609.68"/>
<polygon fill="midnightblue" stroke="midnightblue" points="509.56,-613.01 520.14,-613.4 512.11,-606.5 509.56,-613.01"/>
</g>
<!-- Node14&#45;&gt;Node4 -->
<g id="edge20" class="edge">
<title>Node14&#45;&gt;Node4</title>
<path fill="none" stroke="midnightblue" d="M621.3,-613.34C632.64,-609.13 644.47,-604.14 655,-598.5 689.9,-579.81 725.9,-551.74 749.03,-532.35"/>
<polygon fill="midnightblue" stroke="midnightblue" points="751.58,-534.77 756.94,-525.63 747.05,-529.44 751.58,-534.77"/>
</g>
<!-- Node15 -->
<g id="node15" class="node">
<title>Node15</title>
<g id="a_node15"><a xlink:href="classv8_1_1internal_1_1IsolateData.html#a57aaf713cbaf5458795e41b169a3bb66" target="_top" xlink:title=" ">
<polygon fill="white" stroke="red" points="708,-613.5 708,-643.5 842,-643.5 842,-613.5 708,-613.5"/>
<text text-anchor="start" x="716" y="-631.5" font-family="Helvetica,sans-Serif" font-size="10.00">v8::internal::IsolateData</text>
<text text-anchor="middle" x="775" y="-620.5" font-family="Helvetica,sans-Serif" font-size="10.00">::GetOffset</text>
</a>
</g>
</g>
<!-- Node14&#45;&gt;Node15 -->
<g id="edge19" class="edge">
<title>Node14&#45;&gt;Node15</title>
<path fill="none" stroke="midnightblue" d="M655.04,-628.5C669.22,-628.5 683.89,-628.5 697.89,-628.5"/>
<polygon fill="midnightblue" stroke="midnightblue" points="697.94,-632 707.94,-628.5 697.94,-625 697.94,-632"/>
</g>
<!-- Node19&#45;&gt;Node3 -->
<g id="edge22" class="edge">
<title>Node19&#45;&gt;Node3</title>
<path fill="none" stroke="midnightblue" d="M368.6,-265.26C390.66,-283.29 423.25,-310.24 451,-334.5 467.34,-348.78 470.34,-353.59 487,-367.5 504.34,-381.98 524.51,-397.32 540.63,-409.24"/>
<polygon fill="midnightblue" stroke="midnightblue" points="538.99,-412.38 549.12,-415.48 543.14,-406.74 538.99,-412.38"/>
</g>
<!-- Node19&#45;&gt;Node8 -->
<g id="edge33" class="edge">
<title>Node19&#45;&gt;Node8</title>
<path fill="none" stroke="midnightblue" d="M438.28,-265.07C455.73,-268.83 473.76,-272.73 490.68,-276.38"/>
<polygon fill="midnightblue" stroke="midnightblue" points="489.98,-279.81 500.5,-278.5 491.46,-272.97 489.98,-279.81"/>
</g>
<!-- Node20 -->
<g id="node17" class="node">
<title>Node20</title>
<g id="a_node17"><a xlink:href="classv8_1_1internal_1_1ExternalReferenceEncoder.html#ad839c1bd77b0a583caaf651e549c41be" target="_top" xlink:title=" ">
<polygon fill="white" stroke="black" points="487,-82.5 487,-112.5 655,-112.5 655,-82.5 487,-82.5"/>
<text text-anchor="start" x="495" y="-100.5" font-family="Helvetica,sans-Serif" font-size="10.00">v8::internal::ExternalReference</text>
<text text-anchor="middle" x="571" y="-89.5" font-family="Helvetica,sans-Serif" font-size="10.00">Encoder::Encode</text>
</a>
</g>
</g>
<!-- Node19&#45;&gt;Node20 -->
<g id="edge23" class="edge">
<title>Node19&#45;&gt;Node20</title>
<path fill="none" stroke="midnightblue" d="M436.78,-223.89C441.88,-220.88 446.67,-217.44 451,-213.5 483.46,-183.94 454.56,-151.1 487,-121.5 488.3,-120.32 489.64,-119.19 491.04,-118.13"/>
<polygon fill="midnightblue" stroke="midnightblue" points="493.05,-120.99 499.5,-112.59 489.22,-115.14 493.05,-120.99"/>
</g>
<!-- Node38 -->
<g id="node23" class="node">
<title>Node38</title>
<g id="a_node23"><a xlink:href="classv8_1_1internal_1_1ExternalReferenceEncoder_1_1Value.html#ae55cd128360e9bb4dae468d13e3268b1" target="_top" xlink:title=" ">
<polygon fill="white" stroke="black" points="487,-131.5 487,-161.5 655,-161.5 655,-131.5 487,-131.5"/>
<text text-anchor="start" x="495" y="-149.5" font-family="Helvetica,sans-Serif" font-size="10.00">v8::internal::ExternalReference</text>
<text text-anchor="middle" x="571" y="-138.5" font-family="Helvetica,sans-Serif" font-size="10.00">Encoder::Value::index</text>
</a>
</g>
</g>
<!-- Node19&#45;&gt;Node38 -->
<g id="edge29" class="edge">
<title>Node19&#45;&gt;Node38</title>
<path fill="none" stroke="midnightblue" d="M431.6,-223.9C438.39,-220.88 444.95,-217.44 451,-213.5 471.89,-199.91 466.12,-184.11 487,-170.5 489.56,-168.83 492.23,-167.28 494.99,-165.83"/>
<polygon fill="midnightblue" stroke="midnightblue" points="496.49,-169 504.03,-161.56 493.5,-162.67 496.49,-169"/>
</g>
<!-- Node40 -->
<g id="node25" class="node">
<title>Node40</title>
<g id="a_node25"><a xlink:href="classv8_1_1internal_1_1ExternalReferenceEncoder_1_1Value.html#a26cff1d3758cb434c65c72cfdb31adba" target="_top" xlink:title=" ">
<polygon fill="white" stroke="black" points="487,-229.5 487,-259.5 655,-259.5 655,-229.5 487,-229.5"/>
<text text-anchor="start" x="495" y="-247.5" font-family="Helvetica,sans-Serif" font-size="10.00">v8::internal::ExternalReference</text>
<text text-anchor="middle" x="571" y="-236.5" font-family="Helvetica,sans-Serif" font-size="10.00">Encoder::Value::is_from_api</text>
</a>
</g>
</g>
<!-- Node19&#45;&gt;Node40 -->
<g id="edge31" class="edge">
<title>Node19&#45;&gt;Node40</title>
<path fill="none" stroke="midnightblue" d="M439.27,-244.5C451.64,-244.5 464.28,-244.5 476.6,-244.5"/>
<polygon fill="midnightblue" stroke="midnightblue" points="476.86,-248 486.86,-244.5 476.86,-241 476.86,-248"/>
</g>
<!-- Node41 -->
<g id="node26" class="node">
<title>Node41</title>
<g id="a_node26"><a xlink:href="classv8_1_1internal_1_1ExternalReferenceTable.html#afae1f03b1f1b26a67b5d02176ff1ca43" target="_top" xlink:title=" ">
<polygon fill="white" stroke="black" points="487,-180.5 487,-210.5 655,-210.5 655,-180.5 487,-180.5"/>
<text text-anchor="start" x="495" y="-198.5" font-family="Helvetica,sans-Serif" font-size="10.00">v8::internal::ExternalReference</text>
<text text-anchor="middle" x="571" y="-187.5" font-family="Helvetica,sans-Serif" font-size="10.00">Table::OffsetOfEntry</text>
</a>
</g>
</g>
<!-- Node19&#45;&gt;Node41 -->
<g id="edge34" class="edge">
<title>Node19&#45;&gt;Node41</title>
<path fill="none" stroke="midnightblue" d="M438.28,-223.93C455.73,-220.17 473.76,-216.27 490.68,-212.62"/>
<polygon fill="midnightblue" stroke="midnightblue" points="491.46,-216.03 500.5,-210.5 489.98,-209.19 491.46,-216.03"/>
</g>
<!-- Node21 -->
<g id="node18" class="node">
<title>Node21</title>
<g id="a_node18"><a xlink:href="classv8_1_1base_1_1OS.html#a3abddefa2e7ad8ab0628e6b44fad5a6b" target="_top" xlink:title=" ">
<polygon fill="white" stroke="black" points="720,-88 720,-107 830,-107 830,-88 720,-88"/>
<text text-anchor="middle" x="775" y="-95" font-family="Helvetica,sans-Serif" font-size="10.00">v8::base::OS::Abort</text>
</a>
</g>
</g>
<!-- Node20&#45;&gt;Node21 -->
<g id="edge24" class="edge">
<title>Node20&#45;&gt;Node21</title>
<path fill="none" stroke="midnightblue" d="M655.04,-97.5C673.32,-97.5 692.41,-97.5 709.82,-97.5"/>
<polygon fill="midnightblue" stroke="midnightblue" points="709.85,-101 719.85,-97.5 709.85,-94 709.85,-101"/>
</g>
<!-- Node22 -->
<g id="node19" class="node">
<title>Node22</title>
<g id="a_node19"><a xlink:href="classv8_1_1Maybe.html#a6778de7b38b00e4bfff77d3dbc566f1c" target="_top" xlink:title="Converts this Maybe&lt;&gt; to a value of type T.">
<polygon fill="white" stroke="red" points="717,-50 717,-69 833,-69 833,-50 717,-50"/>
<text text-anchor="middle" x="775" y="-57" font-family="Helvetica,sans-Serif" font-size="10.00">v8::Maybe::FromJust</text>
</a>
</g>
</g>
<!-- Node20&#45;&gt;Node22 -->
<g id="edge25" class="edge">
<title>Node20&#45;&gt;Node22</title>
<path fill="none" stroke="midnightblue" d="M651.84,-82.48C672.4,-78.61 694.19,-74.51 713.59,-70.86"/>
<polygon fill="midnightblue" stroke="midnightblue" points="714.31,-74.29 723.5,-69 713.02,-67.41 714.31,-74.29"/>
</g>
<!-- Node28 -->
<g id="node20" class="node">
<title>Node28</title>
<g id="a_node20"><a xlink:href="classv8_1_1internal_1_1PointerToIndexHashMap.html#a6b3ae1b5f56a135d2f04a66582a57840" target="_top" xlink:title=" ">
<polygon fill="white" stroke="red" points="700,-0.5 700,-30.5 850,-30.5 850,-0.5 700,-0.5"/>
<text text-anchor="start" x="708" y="-18.5" font-family="Helvetica,sans-Serif" font-size="10.00">v8::internal::PointerToIndex</text>
<text text-anchor="middle" x="775" y="-7.5" font-family="Helvetica,sans-Serif" font-size="10.00">HashMap::Get</text>
</a>
</g>
</g>
<!-- Node20&#45;&gt;Node28 -->
<g id="edge26" class="edge">
<title>Node20&#45;&gt;Node28</title>
<path fill="none" stroke="midnightblue" d="M600.31,-82.41C624.08,-70.12 659.17,-52.83 691,-40.5 696.99,-38.18 703.28,-35.94 709.62,-33.82"/>
<polygon fill="midnightblue" stroke="midnightblue" points="711.14,-37 719.57,-30.58 708.98,-30.35 711.14,-37"/>
</g>
<!-- Node33 -->
<g id="node21" class="node">
<title>Node33</title>
<g id="a_node21"><a xlink:href="classv8_1_1Maybe.html#a5745a888b1dc6b2fa0ee41c51e5bd511" target="_top" xlink:title=" ">
<polygon fill="white" stroke="black" points="715,-176 715,-195 835,-195 835,-176 715,-176"/>
<text text-anchor="middle" x="775" y="-183" font-family="Helvetica,sans-Serif" font-size="10.00">v8::Maybe::IsNothing</text>
</a>
</g>
</g>
<!-- Node20&#45;&gt;Node33 -->
<g id="edge27" class="edge">
<title>Node20&#45;&gt;Node33</title>
<path fill="none" stroke="midnightblue" d="M638.01,-112.5C643.97,-115.05 649.74,-118.03 655,-121.5 676.09,-135.42 669.6,-152.06 691,-165.5 695.44,-168.29 700.23,-170.68 705.2,-172.75"/>
<polygon fill="midnightblue" stroke="midnightblue" points="704.32,-176.16 714.92,-176.32 706.74,-169.59 704.32,-176.16"/>
</g>
<!-- Node34 -->
<g id="node22" class="node">
<title>Node34</title>
<g id="a_node22"><a xlink:href="classv8_1_1internal_1_1ExternalReferenceTable.html#a8a4d64e8982d19c31f7eb713b0379b78" target="_top" xlink:title=" ">
<polygon fill="white" stroke="red" points="691,-126.5 691,-156.5 859,-156.5 859,-126.5 691,-126.5"/>
<text text-anchor="start" x="699" y="-144.5" font-family="Helvetica,sans-Serif" font-size="10.00">v8::internal::ExternalReference</text>
<text text-anchor="middle" x="775" y="-133.5" font-family="Helvetica,sans-Serif" font-size="10.00">Table::ResolveSymbol</text>
</a>
</g>
</g>
<!-- Node20&#45;&gt;Node34 -->
<g id="edge28" class="edge">
<title>Node20&#45;&gt;Node34</title>
<path fill="none" stroke="midnightblue" d="M640.95,-112.52C658.41,-116.32 677.29,-120.43 695.19,-124.33"/>
<polygon fill="midnightblue" stroke="midnightblue" points="694.5,-127.77 705.02,-126.47 695.99,-120.93 694.5,-127.77"/>
</g>
<!-- Node39 -->
<g id="node24" class="node">
<title>Node39</title>
<g id="a_node24"><a xlink:href="classv8_1_1base_1_1BitField.html#a554df4b9ae5f0dc36b4d092bfc2e004b" target="_top" xlink:title=" ">
<polygon fill="white" stroke="black" points="724.5,-222.5 724.5,-252.5 825.5,-252.5 825.5,-222.5 724.5,-222.5"/>
<text text-anchor="start" x="732.5" y="-240.5" font-family="Helvetica,sans-Serif" font-size="10.00">v8::base::BitField</text>
<text text-anchor="middle" x="775" y="-229.5" font-family="Helvetica,sans-Serif" font-size="10.00">::decode</text>
</a>
</g>
</g>
<!-- Node38&#45;&gt;Node39 -->
<g id="edge30" class="edge">
<title>Node38&#45;&gt;Node39</title>
<path fill="none" stroke="midnightblue" d="M635.83,-161.54C642.49,-164.11 649.01,-167.08 655,-170.5 674.11,-181.42 672.44,-192.67 691,-204.5 699.34,-209.81 708.67,-214.53 717.98,-218.61"/>
<polygon fill="midnightblue" stroke="midnightblue" points="716.67,-221.86 727.25,-222.48 719.37,-215.4 716.67,-221.86"/>
</g>
<!-- Node40&#45;&gt;Node39 -->
<g id="edge32" class="edge">
<title>Node40&#45;&gt;Node39</title>
<path fill="none" stroke="midnightblue" d="M655.04,-241.62C674.87,-240.94 695.65,-240.21 714.2,-239.57"/>
<polygon fill="midnightblue" stroke="midnightblue" points="714.38,-243.07 724.26,-239.22 714.14,-236.07 714.38,-243.07"/>
</g>
</g>
</svg>
