<?xml version="1.0" encoding="UTF-8" standalone="no"?>
<!DOCTYPE svg PUBLIC "-//W3C//DTD SVG 1.1//EN"
 "http://www.w3.org/Graphics/SVG/1.1/DTD/svg11.dtd">
<!-- Generated by graphviz version 2.43.0 (0)
 -->
<!-- Title: v8::internal::compiler::WasmGraphAssembler::LoadJSArrayElements Pages: 1 -->
<!--zoomable 384 -->
<svg id="main" version="1.1" xmlns="http://www.w3.org/2000/svg" xmlns:xlink="http://www.w3.org/1999/xlink" xml:space="preserve" onload="init(evt)">
<style type="text/css"><![CDATA[
.edge:hover path { stroke: red; }
.edge:hover polygon { stroke: red; fill: red; }
]]></style>
<script type="text/javascript"><![CDATA[
var edges = document.getElementsByTagName('g');
if (edges && edges.length) {
  for (var i=0;i<edges.length;i++) {
    if (edges[i].id.substr(0,4)=='edge') {
      edges[i].setAttribute('class','edge');
    }
  }
}
]]></script>
        <defs>
                <circle id="rim" cx="0" cy="0" r="7"/>
                <circle id="rim2" cx="0" cy="0" r="3.5"/>
                <g id="zoomPlus">
                        <use xlink:href="#rim" fill="#404040">
                                <set attributeName="fill" to="#808080" begin="zoomplus.mouseover" end="zoomplus.mouseout"/>
                        </use>
                        <path d="M-4,0h8M0,-4v8" fill="none" stroke="white" stroke-width="1.5" pointer-events="none"/>
                </g>
                <g id="zoomMin">
                        <use xlink:href="#rim" fill="#404040">
                                <set attributeName="fill" to="#808080" begin="zoomminus.mouseover" end="zoomminus.mouseout"/>
                        </use>
                        <path d="M-4,0h8" fill="none" stroke="white" stroke-width="1.5" pointer-events="none"/>
                </g>
                <g id="dirArrow">
                        <path fill="none" stroke="white" stroke-width="1.5" d="M0,-3.0v7 M-2.5,-0.5L0,-3.0L2.5,-0.5"/>
                </g>
               <g id="resetDef">
                       <use xlink:href="#rim2" fill="#404040">
                               <set attributeName="fill" to="#808080" begin="reset.mouseover" end="reset.mouseout"/>
                       </use>
               </g>
        </defs>

<script type="text/javascript">
var viewWidth = 900;
var viewHeight = 384;
var sectionId = 'dynsection-89';
</script>
<script xlink:href="svgpan.js"/>
<svg id="graph" class="graph">
<g id="viewport">
<title>v8::internal::compiler::WasmGraphAssembler::LoadJSArrayElements</title>
<polygon fill="white" stroke="transparent" points="-4,4 -4,-380 896,-380 896,4 -4,4"/>
<!-- Node1 -->
<g id="node1" class="node">
<title>Node1</title>
<g id="a_node1"><a xlink:title=" ">
<polygon fill="#bfbfbf" stroke="black" points="0,-153 0,-194 140,-194 140,-153 0,-153"/>
<text text-anchor="start" x="8" y="-182" font-family="Helvetica,sans-Serif" font-size="10.00">v8::internal::compiler</text>
<text text-anchor="start" x="8" y="-171" font-family="Helvetica,sans-Serif" font-size="10.00">::WasmGraphAssembler::</text>
<text text-anchor="middle" x="70" y="-160" font-family="Helvetica,sans-Serif" font-size="10.00">LoadJSArrayElements</text>
</a>
</g>
</g>
<!-- Node2 -->
<g id="node2" class="node">
<title>Node2</title>
<g id="a_node2"><a xlink:href="classv8_1_1internal_1_1MachineType.html#a567d397b03e783edbbfbba00dcbe646f" target="_top" xlink:title=" ">
<polygon fill="white" stroke="black" points="176,-251.5 176,-281.5 318,-281.5 318,-251.5 176,-251.5"/>
<text text-anchor="start" x="184" y="-269.5" font-family="Helvetica,sans-Serif" font-size="10.00">v8::internal::MachineType</text>
<text text-anchor="middle" x="247" y="-258.5" font-family="Helvetica,sans-Serif" font-size="10.00">::AnyTagged</text>
</a>
</g>
</g>
<!-- Node1&#45;&gt;Node2 -->
<g id="edge1" class="edge">
<title>Node1&#45;&gt;Node2</title>
<path fill="none" stroke="midnightblue" d="M109.84,-194.14C139.28,-209.78 179.49,-231.16 208.58,-246.61"/>
<polygon fill="midnightblue" stroke="midnightblue" points="207.13,-249.81 217.6,-251.41 210.42,-243.63 207.13,-249.81"/>
</g>
<!-- Node4 -->
<g id="node4" class="node">
<title>Node4</title>
<g id="a_node4"><a xlink:href="classv8_1_1internal_1_1compiler_1_1WasmGraphAssembler.html#a3fa70f71b9f6cac9a25d4180ebb75751" target="_top" xlink:title=" ">
<polygon fill="white" stroke="black" points="177,-153 177,-194 317,-194 317,-153 177,-153"/>
<text text-anchor="start" x="185" y="-182" font-family="Helvetica,sans-Serif" font-size="10.00">v8::internal::compiler</text>
<text text-anchor="start" x="185" y="-171" font-family="Helvetica,sans-Serif" font-size="10.00">::WasmGraphAssembler::</text>
<text text-anchor="middle" x="247" y="-160" font-family="Helvetica,sans-Serif" font-size="10.00">LoadFromObject</text>
</a>
</g>
</g>
<!-- Node1&#45;&gt;Node4 -->
<g id="edge3" class="edge">
<title>Node1&#45;&gt;Node4</title>
<path fill="none" stroke="midnightblue" d="M140.16,-173.5C148.82,-173.5 157.72,-173.5 166.51,-173.5"/>
<polygon fill="midnightblue" stroke="midnightblue" points="166.76,-177 176.76,-173.5 166.76,-170 166.76,-177"/>
</g>
<!-- Node41 -->
<g id="node16" class="node">
<title>Node41</title>
<g id="a_node16"><a xlink:href="classv8_1_1internal_1_1wasm_1_1ObjectAccess.html#aa1a69300187696ead1e3dd15daa7a0f7" target="_top" xlink:title=" ">
<polygon fill="white" stroke="black" points="177.5,-103.5 177.5,-133.5 316.5,-133.5 316.5,-103.5 177.5,-103.5"/>
<text text-anchor="start" x="185.5" y="-121.5" font-family="Helvetica,sans-Serif" font-size="10.00">v8::internal::wasm</text>
<text text-anchor="middle" x="247" y="-110.5" font-family="Helvetica,sans-Serif" font-size="10.00">::ObjectAccess::ToTagged</text>
</a>
</g>
</g>
<!-- Node1&#45;&gt;Node41 -->
<g id="edge18" class="edge">
<title>Node1&#45;&gt;Node41</title>
<path fill="none" stroke="midnightblue" d="M136.66,-152.86C153.69,-147.51 171.89,-141.79 188.46,-136.58"/>
<polygon fill="midnightblue" stroke="midnightblue" points="189.52,-139.92 198.01,-133.58 187.42,-133.24 189.52,-139.92"/>
</g>
<!-- Node3 -->
<g id="node3" class="node">
<title>Node3</title>
<g id="a_node3"><a xlink:href="classv8_1_1internal_1_1MachineType.html#a78c5ae672a3417fcb51106e95fcbd6c6" target="_top" xlink:title=" ">
<polygon fill="white" stroke="black" points="360,-271.5 360,-301.5 502,-301.5 502,-271.5 360,-271.5"/>
<text text-anchor="start" x="368" y="-289.5" font-family="Helvetica,sans-Serif" font-size="10.00">v8::internal::MachineType</text>
<text text-anchor="middle" x="431" y="-278.5" font-family="Helvetica,sans-Serif" font-size="10.00">::MachineType</text>
</a>
</g>
</g>
<!-- Node2&#45;&gt;Node3 -->
<g id="edge2" class="edge">
<title>Node2&#45;&gt;Node3</title>
<path fill="none" stroke="midnightblue" d="M318.11,-274.2C328.5,-275.35 339.28,-276.53 349.86,-277.69"/>
<polygon fill="midnightblue" stroke="midnightblue" points="349.61,-281.19 359.93,-278.8 350.37,-274.23 349.61,-281.19"/>
</g>
<!-- Node5 -->
<g id="node5" class="node">
<title>Node5</title>
<g id="a_node5"><a xlink:href="classv8_1_1internal_1_1compiler_1_1GraphAssembler.html#aef9d42bc04b161cf3b3e02c765e1c633" target="_top" xlink:title=" ">
<polygon fill="white" stroke="black" points="354,-183.5 354,-213.5 508,-213.5 508,-183.5 354,-183.5"/>
<text text-anchor="start" x="362" y="-201.5" font-family="Helvetica,sans-Serif" font-size="10.00">v8::internal::compiler</text>
<text text-anchor="middle" x="431" y="-190.5" font-family="Helvetica,sans-Serif" font-size="10.00">::GraphAssembler::AddNode</text>
</a>
</g>
</g>
<!-- Node4&#45;&gt;Node5 -->
<g id="edge4" class="edge">
<title>Node4&#45;&gt;Node5</title>
<path fill="none" stroke="midnightblue" d="M317.07,-182.99C325.83,-184.19 334.89,-185.44 343.88,-186.67"/>
<polygon fill="midnightblue" stroke="midnightblue" points="343.61,-190.17 353.99,-188.06 344.56,-183.23 343.61,-190.17"/>
</g>
<!-- Node8 -->
<g id="node8" class="node">
<title>Node8</title>
<g id="a_node8"><a xlink:href="classv8_1_1internal_1_1compiler_1_1GraphAssembler.html#ad70aac411d7c80dfdec08c15f687dacc" target="_top" xlink:title=" ">
<polygon fill="white" stroke="black" points="559,-345.5 559,-375.5 702,-375.5 702,-345.5 559,-345.5"/>
<text text-anchor="start" x="567" y="-363.5" font-family="Helvetica,sans-Serif" font-size="10.00">v8::internal::compiler</text>
<text text-anchor="middle" x="630.5" y="-352.5" font-family="Helvetica,sans-Serif" font-size="10.00">::GraphAssembler::control</text>
</a>
</g>
</g>
<!-- Node4&#45;&gt;Node8 -->
<g id="edge14" class="edge">
<title>Node4&#45;&gt;Node8</title>
<path fill="none" stroke="midnightblue" d="M287,-194.11C306.7,-203.95 331.21,-215.32 354,-223.5 420.46,-247.34 453.23,-217.94 508,-262.5 536.37,-285.58 515.93,-313.05 544,-336.5 545.97,-338.14 548.04,-339.67 550.2,-341.1"/>
<polygon fill="midnightblue" stroke="midnightblue" points="548.46,-344.14 558.87,-346.1 551.96,-338.08 548.46,-344.14"/>
</g>
<!-- Node9 -->
<g id="node9" class="node">
<title>Node9</title>
<g id="a_node9"><a xlink:href="classv8_1_1internal_1_1compiler_1_1GraphAssembler.html#a9415873a35173b66f2a8212f3d482aea" target="_top" xlink:title=" ">
<polygon fill="white" stroke="black" points="562,-0.5 562,-30.5 699,-30.5 699,-0.5 562,-0.5"/>
<text text-anchor="start" x="570" y="-18.5" font-family="Helvetica,sans-Serif" font-size="10.00">v8::internal::compiler</text>
<text text-anchor="middle" x="630.5" y="-7.5" font-family="Helvetica,sans-Serif" font-size="10.00">::GraphAssembler::effect</text>
</a>
</g>
</g>
<!-- Node4&#45;&gt;Node9 -->
<g id="edge15" class="edge">
<title>Node4&#45;&gt;Node9</title>
<path fill="none" stroke="midnightblue" d="M317.01,-171.19C383.92,-167.6 479.37,-158.5 508,-135.5 543.2,-107.22 510.86,-71.16 544,-40.5 546.77,-37.93 549.8,-35.63 553,-33.56"/>
<polygon fill="midnightblue" stroke="midnightblue" points="554.82,-36.55 561.83,-28.62 551.4,-30.45 554.82,-36.55"/>
</g>
<!-- Node39 -->
<g id="node14" class="node">
<title>Node39</title>
<g id="a_node14"><a xlink:href="classv8_1_1internal_1_1compiler_1_1GraphAssembler.html#aae15ca6ae4e3a312983552046558e5fd" target="_top" xlink:title=" ">
<polygon fill="white" stroke="black" points="362.5,-95.5 362.5,-125.5 499.5,-125.5 499.5,-95.5 362.5,-95.5"/>
<text text-anchor="start" x="370.5" y="-113.5" font-family="Helvetica,sans-Serif" font-size="10.00">v8::internal::compiler</text>
<text text-anchor="middle" x="431" y="-102.5" font-family="Helvetica,sans-Serif" font-size="10.00">::GraphAssembler::graph</text>
</a>
</g>
</g>
<!-- Node4&#45;&gt;Node39 -->
<g id="edge16" class="edge">
<title>Node4&#45;&gt;Node39</title>
<path fill="none" stroke="midnightblue" d="M307.34,-152.96C329.74,-145.21 355.06,-136.44 376.86,-128.89"/>
<polygon fill="midnightblue" stroke="midnightblue" points="378.3,-132.1 386.6,-125.52 376.01,-125.49 378.3,-132.1"/>
</g>
<!-- Node40 -->
<g id="node15" class="node">
<title>Node40</title>
<g id="a_node15"><a xlink:href="classv8_1_1internal_1_1compiler_1_1SimplifiedOperatorBuilder.html#a8ba44fd6f7970d5c558ffc77c9240f81" target="_top" xlink:title=" ">
<polygon fill="white" stroke="black" points="356.5,-35 356.5,-76 505.5,-76 505.5,-35 356.5,-35"/>
<text text-anchor="start" x="364.5" y="-64" font-family="Helvetica,sans-Serif" font-size="10.00">v8::internal::compiler</text>
<text text-anchor="start" x="364.5" y="-53" font-family="Helvetica,sans-Serif" font-size="10.00">::SimplifiedOperatorBuilder</text>
<text text-anchor="middle" x="431" y="-42" font-family="Helvetica,sans-Serif" font-size="10.00">::LoadFromObject</text>
</a>
</g>
</g>
<!-- Node4&#45;&gt;Node40 -->
<g id="edge17" class="edge">
<title>Node4&#45;&gt;Node40</title>
<path fill="none" stroke="midnightblue" d="M304.84,-152.83C309.52,-150.05 313.99,-146.95 318,-143.5 341.01,-123.72 330.71,-104.94 354,-85.5 355.55,-84.2 357.17,-82.96 358.83,-81.77"/>
<polygon fill="midnightblue" stroke="midnightblue" points="360.99,-84.54 367.53,-76.2 357.22,-78.64 360.99,-84.54"/>
</g>
<!-- Node6 -->
<g id="node6" class="node">
<title>Node6</title>
<g id="a_node6"><a xlink:href="classv8_1_1internal_1_1compiler_1_1Reduction.html#a2bfcf38d71188ae9451959a503c0487b" target="_top" xlink:title=" ">
<polygon fill="white" stroke="black" points="570,-296.5 570,-326.5 691,-326.5 691,-296.5 570,-296.5"/>
<text text-anchor="start" x="578" y="-314.5" font-family="Helvetica,sans-Serif" font-size="10.00">v8::internal::compiler</text>
<text text-anchor="middle" x="630.5" y="-303.5" font-family="Helvetica,sans-Serif" font-size="10.00">::Reduction::Changed</text>
</a>
</g>
</g>
<!-- Node5&#45;&gt;Node6 -->
<g id="edge5" class="edge">
<title>Node5&#45;&gt;Node6</title>
<path fill="none" stroke="midnightblue" d="M482.58,-213.52C491.58,-217.53 500.47,-222.47 508,-228.5 530.23,-246.3 521.43,-264.14 544,-281.5 549.28,-285.56 555.15,-289.1 561.27,-292.18"/>
<polygon fill="midnightblue" stroke="midnightblue" points="559.83,-295.37 570.38,-296.36 562.75,-289.01 559.83,-295.37"/>
</g>
<!-- Node7 -->
<g id="node7" class="node">
<title>Node7</title>
<g id="a_node7"><a xlink:href="classv8_1_1internal_1_1compiler_1_1Reduction.html#aa1373292306156c567af7d4e4c0b4913" target="_top" xlink:title=" ">
<polygon fill="white" stroke="black" points="753,-274.5 753,-304.5 892,-304.5 892,-274.5 753,-274.5"/>
<text text-anchor="start" x="761" y="-292.5" font-family="Helvetica,sans-Serif" font-size="10.00">v8::internal::compiler</text>
<text text-anchor="middle" x="822.5" y="-281.5" font-family="Helvetica,sans-Serif" font-size="10.00">::Reduction::replacement</text>
</a>
</g>
</g>
<!-- Node5&#45;&gt;Node7 -->
<g id="edge11" class="edge">
<title>Node5&#45;&gt;Node7</title>
<path fill="none" stroke="midnightblue" d="M473.05,-213.57C484.49,-218.07 496.84,-223.23 508,-228.5 524.55,-236.32 526.67,-242.62 544,-248.5 608.8,-270.47 686.06,-280.68 742.59,-285.41"/>
<polygon fill="midnightblue" stroke="midnightblue" points="742.65,-288.93 752.89,-286.23 743.2,-281.95 742.65,-288.93"/>
</g>
<!-- Node5&#45;&gt;Node8 -->
<g id="edge7" class="edge">
<title>Node5&#45;&gt;Node8</title>
<path fill="none" stroke="midnightblue" d="M487.53,-213.66C495.11,-217.55 502.24,-222.42 508,-228.5 542.79,-265.23 507.37,-301.59 544,-336.5 545.9,-338.31 547.93,-339.99 550.07,-341.55"/>
<polygon fill="midnightblue" stroke="midnightblue" points="548.39,-344.63 558.73,-346.94 552.09,-338.69 548.39,-344.63"/>
</g>
<!-- Node5&#45;&gt;Node9 -->
<g id="edge8" class="edge">
<title>Node5&#45;&gt;Node9</title>
<path fill="none" stroke="midnightblue" d="M488.17,-183.38C495.57,-179.49 502.49,-174.61 508,-168.5 547.61,-124.64 502.43,-82.5 544,-40.5 546.72,-37.76 549.72,-35.31 552.92,-33.13"/>
<polygon fill="midnightblue" stroke="midnightblue" points="554.93,-36.01 561.81,-27.95 551.41,-29.96 554.93,-36.01"/>
</g>
<!-- Node10 -->
<g id="node10" class="node">
<title>Node10</title>
<g id="a_node10"><a xlink:href="classv8_1_1internal_1_1compiler_1_1Node.html#a7029aac5cf13c2986a920e90218ed8ef" target="_top" xlink:title=" ">
<polygon fill="white" stroke="red" points="570,-208.5 570,-238.5 691,-238.5 691,-208.5 570,-208.5"/>
<text text-anchor="start" x="578" y="-226.5" font-family="Helvetica,sans-Serif" font-size="10.00">v8::internal::compiler</text>
<text text-anchor="middle" x="630.5" y="-215.5" font-family="Helvetica,sans-Serif" font-size="10.00">::Node::Kill</text>
</a>
</g>
</g>
<!-- Node5&#45;&gt;Node10 -->
<g id="edge9" class="edge">
<title>Node5&#45;&gt;Node10</title>
<path fill="none" stroke="midnightblue" d="M508.08,-208.13C524.99,-210.27 542.85,-212.53 559.51,-214.64"/>
<polygon fill="midnightblue" stroke="midnightblue" points="559.35,-218.15 569.71,-215.93 560.23,-211.2 559.35,-218.15"/>
</g>
<!-- Node24 -->
<g id="node11" class="node">
<title>Node24</title>
<g id="a_node11"><a xlink:href="classv8_1_1internal_1_1compiler_1_1Node.html#a4503620c5a9219c781579fa834c11d87" target="_top" xlink:title=" ">
<polygon fill="white" stroke="black" points="570,-159.5 570,-189.5 691,-189.5 691,-159.5 570,-159.5"/>
<text text-anchor="start" x="578" y="-177.5" font-family="Helvetica,sans-Serif" font-size="10.00">v8::internal::compiler</text>
<text text-anchor="middle" x="630.5" y="-166.5" font-family="Helvetica,sans-Serif" font-size="10.00">::Node::opcode</text>
</a>
</g>
</g>
<!-- Node5&#45;&gt;Node24 -->
<g id="edge10" class="edge">
<title>Node5&#45;&gt;Node24</title>
<path fill="none" stroke="midnightblue" d="M508.08,-189.26C524.99,-187.2 542.85,-185.03 559.51,-183.01"/>
<polygon fill="midnightblue" stroke="midnightblue" points="560.2,-186.45 569.71,-181.77 559.36,-179.5 560.2,-186.45"/>
</g>
<!-- Node25 -->
<g id="node12" class="node">
<title>Node25</title>
<g id="a_node12"><a xlink:href="classv8_1_1internal_1_1compiler_1_1NodeProperties.html#a49531b9e5c9e02b8a5c0da3beb17074c" target="_top" xlink:title=" ">
<polygon fill="white" stroke="red" points="547,-110.5 547,-140.5 714,-140.5 714,-110.5 547,-110.5"/>
<text text-anchor="start" x="555" y="-128.5" font-family="Helvetica,sans-Serif" font-size="10.00">v8::internal::compiler</text>
<text text-anchor="middle" x="630.5" y="-117.5" font-family="Helvetica,sans-Serif" font-size="10.00">::NodeProperties::ReplaceUses</text>
</a>
</g>
</g>
<!-- Node5&#45;&gt;Node25 -->
<g id="edge12" class="edge">
<title>Node5&#45;&gt;Node25</title>
<path fill="none" stroke="midnightblue" d="M472.11,-183.43C483.77,-178.84 496.47,-173.65 508,-168.5 524.34,-161.21 527.35,-157.04 544,-150.5 549.95,-148.16 556.21,-145.93 562.52,-143.83"/>
<polygon fill="midnightblue" stroke="midnightblue" points="564,-147.03 572.45,-140.63 561.86,-140.36 564,-147.03"/>
</g>
<!-- Node36 -->
<g id="node13" class="node">
<title>Node36</title>
<g id="a_node13"><a xlink:href="classv8_1_1internal_1_1compiler_1_1GraphAssembler.html#a786469ea72bfeebf90d86487fc56db82" target="_top" xlink:title=" ">
<polygon fill="white" stroke="red" points="544,-50 544,-91 717,-91 717,-50 544,-50"/>
<text text-anchor="start" x="552" y="-79" font-family="Helvetica,sans-Serif" font-size="10.00">v8::internal::compiler</text>
<text text-anchor="start" x="552" y="-68" font-family="Helvetica,sans-Serif" font-size="10.00">::GraphAssembler::UpdateEffect</text>
<text text-anchor="middle" x="630.5" y="-57" font-family="Helvetica,sans-Serif" font-size="10.00">ControlWith</text>
</a>
</g>
</g>
<!-- Node5&#45;&gt;Node36 -->
<g id="edge13" class="edge">
<title>Node5&#45;&gt;Node36</title>
<path fill="none" stroke="midnightblue" d="M484.68,-183.37C493.07,-179.42 501.22,-174.53 508,-168.5 533.26,-146.04 518.43,-123.61 544,-101.5 545.99,-99.78 548.07,-98.16 550.24,-96.62"/>
<polygon fill="midnightblue" stroke="midnightblue" points="552.38,-99.41 558.97,-91.12 548.64,-93.49 552.38,-99.41"/>
</g>
<!-- Node6&#45;&gt;Node7 -->
<g id="edge6" class="edge">
<title>Node6&#45;&gt;Node7</title>
<path fill="none" stroke="midnightblue" d="M691.1,-304.6C707.47,-302.7 725.48,-300.62 742.76,-298.62"/>
<polygon fill="midnightblue" stroke="midnightblue" points="743.29,-302.08 752.83,-297.45 742.49,-295.13 743.29,-302.08"/>
</g>
</g>
</svg>
        <g id="navigator" transform="translate(0 0)" fill="#404254">
                <rect fill="#f2f5e9" fill-opacity="0.5" stroke="#606060" stroke-width=".5" x="0" y="0" width="60" height="60"/>
                <use id="zoomplus" xlink:href="#zoomPlus" x="17" y="9" onmousedown="handleZoom(evt,'in')"/>
                <use id="zoomminus" xlink:href="#zoomMin" x="42" y="9" onmousedown="handleZoom(evt,'out')"/>
                <use id="reset" xlink:href="#resetDef" x="30" y="36" onmousedown="handleReset()"/>
                <g id="arrowUp" xlink:href="#dirArrow" transform="translate(30 24)" onmousedown="handlePan(0,-1)">
                  <use xlink:href="#rim" fill="#404040">
                        <set attributeName="fill" to="#808080" begin="arrowUp.mouseover" end="arrowUp.mouseout"/>
                  </use>
                  <path fill="none" stroke="white" stroke-width="1.5" d="M0,-3.0v7 M-2.5,-0.5L0,-3.0L2.5,-0.5"/>
                </g>
                <g id="arrowRight" xlink:href="#dirArrow" transform="rotate(90) translate(36 -43)" onmousedown="handlePan(1,0)">
                  <use xlink:href="#rim" fill="#404040">
                        <set attributeName="fill" to="#808080" begin="arrowRight.mouseover" end="arrowRight.mouseout"/>
                  </use>
                  <path fill="none" stroke="white" stroke-width="1.5" d="M0,-3.0v7 M-2.5,-0.5L0,-3.0L2.5,-0.5"/>
                </g>
                <g id="arrowDown" xlink:href="#dirArrow" transform="rotate(180) translate(-30 -48)" onmousedown="handlePan(0,1)">
                  <use xlink:href="#rim" fill="#404040">
                        <set attributeName="fill" to="#808080" begin="arrowDown.mouseover" end="arrowDown.mouseout"/>
                  </use>
                  <path fill="none" stroke="white" stroke-width="1.5" d="M0,-3.0v7 M-2.5,-0.5L0,-3.0L2.5,-0.5"/>
                </g>
                <g id="arrowLeft" xlink:href="#dirArrow" transform="rotate(270) translate(-36 17)" onmousedown="handlePan(-1,0)">
                  <use xlink:href="#rim" fill="#404040">
                        <set attributeName="fill" to="#808080" begin="arrowLeft.mouseover" end="arrowLeft.mouseout"/>
                  </use>
                  <path fill="none" stroke="white" stroke-width="1.5" d="M0,-3.0v7 M-2.5,-0.5L0,-3.0L2.5,-0.5"/>
                </g>
        </g>
        <svg viewBox="0 0 15 15" width="100%" height="30px" preserveAspectRatio="xMaxYMin meet">
         <g id="arrow_out" transform="scale(0.3 0.3)">
          <a xlink:href="classv8_1_1internal_1_1compiler_1_1WasmGraphAssembler_aa38b90246025c14eb5375a1fef719743_cgraph_org.svg" target="_base">
           <rect id="button" ry="5" rx="5" y="6" x="6" height="38" width="38"
                fill="#f2f5e9" fill-opacity="0.5" stroke="#606060" stroke-width="1.0"/>
           <path id="arrow"
             d="M 11.500037,31.436501 C 11.940474,20.09759 22.043105,11.32322 32.158766,21.979434 L 37.068811,17.246167 C 37.068811,17.246167 37.088388,32 37.088388,32 L 22.160133,31.978069 C 22.160133,31.978069 26.997745,27.140456 26.997745,27.140456 C 18.528582,18.264221 13.291696,25.230495 11.500037,31.436501 z"
             style="fill:#404040;"/>
          </a>
         </g>
        </svg>
</svg>
