<?xml version="1.0" encoding="UTF-8" standalone="no"?>
<!DOCTYPE svg PUBLIC "-//W3C//DTD SVG 1.1//EN"
 "http://www.w3.org/Graphics/SVG/1.1/DTD/svg11.dtd">
<!-- Generated by graphviz version 2.43.0 (0)
 -->
<!-- Title: v8::internal::ContextFilter::native_context_address Pages: 1 -->
<svg width="797pt" height="88pt"
 viewBox="0.00 0.00 797.00 88.00" xmlns="http://www.w3.org/2000/svg" xmlns:xlink="http://www.w3.org/1999/xlink">
<g id="graph0" class="graph" transform="scale(1 1) rotate(0) translate(4 84)">
<title>v8::internal::ContextFilter::native_context_address</title>
<polygon fill="white" stroke="transparent" points="-4,4 -4,-84 793,-84 793,4 -4,4"/>
<!-- Node1 -->
<g id="node1" class="node">
<title>Node1</title>
<g id="a_node1"><a xlink:title=" ">
<polygon fill="#bfbfbf" stroke="black" points="648,-24.5 648,-54.5 789,-54.5 789,-24.5 648,-24.5"/>
<text text-anchor="start" x="656" y="-42.5" font-family="Helvetica,sans-Serif" font-size="10.00">v8::internal::ContextFilter</text>
<text text-anchor="middle" x="718.5" y="-31.5" font-family="Helvetica,sans-Serif" font-size="10.00">::native_context_address</text>
</a>
</g>
</g>
<!-- Node2 -->
<g id="node2" class="node">
<title>Node2</title>
<g id="a_node2"><a xlink:href="classv8_1_1internal_1_1ContextFilter.html#a93300a0b0377ae0e6bc92c5941dfc1ab" target="_top" xlink:title=" ">
<polygon fill="white" stroke="black" points="471,-49.5 471,-79.5 612,-79.5 612,-49.5 471,-49.5"/>
<text text-anchor="start" x="479" y="-67.5" font-family="Helvetica,sans-Serif" font-size="10.00">v8::internal::ContextFilter</text>
<text text-anchor="middle" x="541.5" y="-56.5" font-family="Helvetica,sans-Serif" font-size="10.00">::Accept</text>
</a>
</g>
</g>
<!-- Node1&#45;&gt;Node2 -->
<g id="edge1" class="edge">
<title>Node1&#45;&gt;Node2</title>
<path fill="none" stroke="midnightblue" d="M637.85,-50.88C629.3,-52.1 620.64,-53.34 612.21,-54.54"/>
<polygon fill="midnightblue" stroke="midnightblue" points="638.43,-54.33 647.83,-49.45 637.44,-47.4 638.43,-54.33"/>
</g>
<!-- Node7 -->
<g id="node5" class="node">
<title>Node7</title>
<g id="a_node5"><a xlink:href="classv8_1_1internal_1_1ContextFilter.html#aa750b45cd888a1299e184e375c325943" target="_top" xlink:title=" ">
<polygon fill="white" stroke="black" points="471,-0.5 471,-30.5 612,-30.5 612,-0.5 471,-0.5"/>
<text text-anchor="start" x="479" y="-18.5" font-family="Helvetica,sans-Serif" font-size="10.00">v8::internal::ContextFilter</text>
<text text-anchor="middle" x="541.5" y="-7.5" font-family="Helvetica,sans-Serif" font-size="10.00">::OnMoveEvent</text>
</a>
</g>
</g>
<!-- Node1&#45;&gt;Node7 -->
<g id="edge4" class="edge">
<title>Node1&#45;&gt;Node7</title>
<path fill="none" stroke="midnightblue" d="M637.85,-28.58C629.3,-27.4 620.64,-26.22 612.21,-25.06"/>
<polygon fill="midnightblue" stroke="midnightblue" points="637.45,-32.05 647.83,-29.95 638.4,-25.12 637.45,-32.05"/>
</g>
<!-- Node3 -->
<g id="node3" class="node">
<title>Node3</title>
<g id="a_node3"><a xlink:href="classv8_1_1internal_1_1CpuProfilesCollection.html#a07376526b619073832bbc2bff80c5f51" target="_top" xlink:title=" ">
<polygon fill="white" stroke="black" points="241,-49.5 241,-79.5 435,-79.5 435,-49.5 241,-49.5"/>
<text text-anchor="start" x="249" y="-67.5" font-family="Helvetica,sans-Serif" font-size="10.00">v8::internal::CpuProfiles</text>
<text text-anchor="middle" x="338" y="-56.5" font-family="Helvetica,sans-Serif" font-size="10.00">Collection::AddPathToCurrentProfiles</text>
</a>
</g>
</g>
<!-- Node2&#45;&gt;Node3 -->
<g id="edge2" class="edge">
<title>Node2&#45;&gt;Node3</title>
<path fill="none" stroke="midnightblue" d="M460.78,-64.5C452.4,-64.5 443.83,-64.5 435.29,-64.5"/>
<polygon fill="midnightblue" stroke="midnightblue" points="460.87,-68 470.87,-64.5 460.87,-61 460.87,-68"/>
</g>
<!-- Node4 -->
<g id="node4" class="node">
<title>Node4</title>
<g id="a_node4"><a xlink:href="classv8_1_1internal_1_1SamplingEventsProcessor.html#a4001929d9751cfef6e6c22e13c9986c0" target="_top" xlink:title=" ">
<polygon fill="white" stroke="red" points="0,-49.5 0,-79.5 205,-79.5 205,-49.5 0,-49.5"/>
<text text-anchor="start" x="8" y="-67.5" font-family="Helvetica,sans-Serif" font-size="10.00">v8::internal::SamplingEvents</text>
<text text-anchor="middle" x="102.5" y="-56.5" font-family="Helvetica,sans-Serif" font-size="10.00">Processor::SymbolizeAndAddToProfiles</text>
</a>
</g>
</g>
<!-- Node3&#45;&gt;Node4 -->
<g id="edge3" class="edge">
<title>Node3&#45;&gt;Node4</title>
<path fill="none" stroke="midnightblue" d="M230.49,-64.5C222.1,-64.5 213.63,-64.5 205.27,-64.5"/>
<polygon fill="midnightblue" stroke="midnightblue" points="230.68,-68 240.68,-64.5 230.68,-61 230.68,-68"/>
</g>
</g>
</svg>
