<?xml version="1.0" encoding="UTF-8" standalone="no"?>
<!DOCTYPE svg PUBLIC "-//W3C//DTD SVG 1.1//EN"
 "http://www.w3.org/Graphics/SVG/1.1/DTD/svg11.dtd">
<!-- Generated by graphviz version 2.43.0 (0)
 -->
<!-- Title: v8::internal::PagePool::GetCount Pages: 1 -->
<!--zoomable 186 -->
<svg id="main" version="1.1" xmlns="http://www.w3.org/2000/svg" xmlns:xlink="http://www.w3.org/1999/xlink" xml:space="preserve" onload="init(evt)">
<style type="text/css"><![CDATA[
.edge:hover path { stroke: red; }
.edge:hover polygon { stroke: red; fill: red; }
]]></style>
<script type="text/javascript"><![CDATA[
var edges = document.getElementsByTagName('g');
if (edges && edges.length) {
  for (var i=0;i<edges.length;i++) {
    if (edges[i].id.substr(0,4)=='edge') {
      edges[i].setAttribute('class','edge');
    }
  }
}
]]></script>
        <defs>
                <circle id="rim" cx="0" cy="0" r="7"/>
                <circle id="rim2" cx="0" cy="0" r="3.5"/>
                <g id="zoomPlus">
                        <use xlink:href="#rim" fill="#404040">
                                <set attributeName="fill" to="#808080" begin="zoomplus.mouseover" end="zoomplus.mouseout"/>
                        </use>
                        <path d="M-4,0h8M0,-4v8" fill="none" stroke="white" stroke-width="1.5" pointer-events="none"/>
                </g>
                <g id="zoomMin">
                        <use xlink:href="#rim" fill="#404040">
                                <set attributeName="fill" to="#808080" begin="zoomminus.mouseover" end="zoomminus.mouseout"/>
                        </use>
                        <path d="M-4,0h8" fill="none" stroke="white" stroke-width="1.5" pointer-events="none"/>
                </g>
                <g id="dirArrow">
                        <path fill="none" stroke="white" stroke-width="1.5" d="M0,-3.0v7 M-2.5,-0.5L0,-3.0L2.5,-0.5"/>
                </g>
               <g id="resetDef">
                       <use xlink:href="#rim2" fill="#404040">
                               <set attributeName="fill" to="#808080" begin="reset.mouseover" end="reset.mouseout"/>
                       </use>
               </g>
        </defs>

<script type="text/javascript">
var viewWidth = 697;
var viewHeight = 186;
var sectionId = 'dynsection-7';
</script>
<script xlink:href="svgpan.js"/>
<svg id="graph" class="graph">
<g id="viewport">
<title>v8::internal::PagePool::GetCount</title>
<polygon fill="white" stroke="transparent" points="-4,4 -4,-182 693,-182 693,4 -4,4"/>
<!-- Node1 -->
<g id="node1" class="node">
<title>Node1</title>
<g id="a_node1"><a xlink:title=" ">
<polygon fill="#bfbfbf" stroke="black" points="567,-73.5 567,-103.5 689,-103.5 689,-73.5 567,-73.5"/>
<text text-anchor="start" x="575" y="-91.5" font-family="Helvetica,sans-Serif" font-size="10.00">v8::internal::PagePool</text>
<text text-anchor="middle" x="628" y="-80.5" font-family="Helvetica,sans-Serif" font-size="10.00">::GetCount</text>
</a>
</g>
</g>
<!-- Node2 -->
<g id="node2" class="node">
<title>Node2</title>
<g id="a_node2"><a xlink:href="classv8_1_1internal_1_1MemoryAllocator.html#a906a0efe01f4a04b86e8cbb4017cb6b7" target="_top" xlink:title=" ">
<polygon fill="white" stroke="black" points="369,-73.5 369,-103.5 531,-103.5 531,-73.5 369,-73.5"/>
<text text-anchor="start" x="377" y="-91.5" font-family="Helvetica,sans-Serif" font-size="10.00">v8::internal::MemoryAllocator</text>
<text text-anchor="middle" x="450" y="-80.5" font-family="Helvetica,sans-Serif" font-size="10.00">::GetPooledChunksCount</text>
</a>
</g>
</g>
<!-- Node1&#45;&gt;Node2 -->
<g id="edge1" class="edge">
<title>Node1&#45;&gt;Node2</title>
<path fill="none" stroke="midnightblue" d="M556.75,-88.5C548.3,-88.5 539.62,-88.5 531.04,-88.5"/>
<polygon fill="midnightblue" stroke="midnightblue" points="556.92,-92 566.92,-88.5 556.92,-85 556.92,-92"/>
</g>
<!-- Node3 -->
<g id="node3" class="node">
<title>Node3</title>
<g id="a_node3"><a xlink:href="classv8_1_1internal_1_1Sweeper.html#a0522425ad09e0ebb6981e02c6078515f" target="_top" xlink:title=" ">
<polygon fill="white" stroke="black" points="194,-147.5 194,-177.5 331,-177.5 331,-147.5 194,-147.5"/>
<text text-anchor="start" x="202" y="-165.5" font-family="Helvetica,sans-Serif" font-size="10.00">v8::internal::Sweeper</text>
<text text-anchor="middle" x="262.5" y="-154.5" font-family="Helvetica,sans-Serif" font-size="10.00">::EnsureMajorCompleted</text>
</a>
</g>
</g>
<!-- Node2&#45;&gt;Node3 -->
<g id="edge2" class="edge">
<title>Node2&#45;&gt;Node3</title>
<path fill="none" stroke="midnightblue" d="M406.46,-107.74C384.65,-117.37 357.58,-128.97 333,-138.5 325.14,-141.54 316.72,-144.61 308.54,-147.49"/>
<polygon fill="midnightblue" stroke="midnightblue" points="408.05,-110.86 415.77,-103.61 405.21,-104.46 408.05,-110.86"/>
</g>
<!-- Node1718 -->
<g id="node5" class="node">
<title>Node1718</title>
<g id="a_node5"><a xlink:href="classv8_1_1internal_1_1GCTracer.html#a0371ef39ef70c375403601e864a5b331" target="_top" xlink:title=" ">
<polygon fill="white" stroke="black" points="201.5,-98.5 201.5,-128.5 323.5,-128.5 323.5,-98.5 201.5,-98.5"/>
<text text-anchor="start" x="209.5" y="-116.5" font-family="Helvetica,sans-Serif" font-size="10.00">v8::internal::GCTracer</text>
<text text-anchor="middle" x="262.5" y="-105.5" font-family="Helvetica,sans-Serif" font-size="10.00">::Print</text>
</a>
</g>
</g>
<!-- Node2&#45;&gt;Node1718 -->
<g id="edge4" class="edge">
<title>Node2&#45;&gt;Node1718</title>
<path fill="none" stroke="midnightblue" d="M358.96,-100.63C346.99,-102.25 334.96,-103.87 323.67,-105.39"/>
<polygon fill="midnightblue" stroke="midnightblue" points="359.54,-104.09 368.99,-99.28 358.61,-97.15 359.54,-104.09"/>
</g>
<!-- Node1720 -->
<g id="node7" class="node">
<title>Node1720</title>
<g id="a_node7"><a xlink:href="classv8_1_1internal_1_1GCTracer.html#adaa38d8b09951ba999158ec764a046c6" target="_top" xlink:title=" ">
<polygon fill="white" stroke="black" points="201.5,-49.5 201.5,-79.5 323.5,-79.5 323.5,-49.5 201.5,-49.5"/>
<text text-anchor="start" x="209.5" y="-67.5" font-family="Helvetica,sans-Serif" font-size="10.00">v8::internal::GCTracer</text>
<text text-anchor="middle" x="262.5" y="-56.5" font-family="Helvetica,sans-Serif" font-size="10.00">::PrintNVP</text>
</a>
</g>
</g>
<!-- Node2&#45;&gt;Node1720 -->
<g id="edge6" class="edge">
<title>Node2&#45;&gt;Node1720</title>
<path fill="none" stroke="midnightblue" d="M358.96,-76.85C346.99,-75.3 334.96,-73.75 323.67,-72.28"/>
<polygon fill="midnightblue" stroke="midnightblue" points="358.62,-80.34 368.99,-78.15 359.52,-73.39 358.62,-80.34"/>
</g>
<!-- Node1721 -->
<g id="node8" class="node">
<title>Node1721</title>
<g id="a_node8"><a xlink:href="classv8_1_1internal_1_1Heap.html#abc8708f833d8dee1ed93051d3fb4690e" target="_top" xlink:title=" ">
<polygon fill="white" stroke="black" points="192,-0.5 192,-30.5 333,-30.5 333,-0.5 192,-0.5"/>
<text text-anchor="start" x="200" y="-18.5" font-family="Helvetica,sans-Serif" font-size="10.00">v8::internal::Heap</text>
<text text-anchor="middle" x="262.5" y="-7.5" font-family="Helvetica,sans-Serif" font-size="10.00">::PrintShortHeapStatistics</text>
</a>
</g>
</g>
<!-- Node2&#45;&gt;Node1721 -->
<g id="edge8" class="edge">
<title>Node2&#45;&gt;Node1721</title>
<path fill="none" stroke="midnightblue" d="M404.67,-69.58C383.13,-60.54 356.82,-49.71 333,-40.5 324.39,-37.17 315.12,-33.74 306.25,-30.52"/>
<polygon fill="midnightblue" stroke="midnightblue" points="403.32,-72.81 413.89,-73.47 406.03,-66.36 403.32,-72.81"/>
</g>
<!-- Node4 -->
<g id="node4" class="node">
<title>Node4</title>
<g id="a_node4"><a xlink:href="classv8_1_1internal_1_1Heap.html#a94a40d050bf47e6c1f38aa44b5f79b88" target="_top" xlink:title=" ">
<polygon fill="white" stroke="red" points="0,-147.5 0,-177.5 156,-177.5 156,-147.5 0,-147.5"/>
<text text-anchor="start" x="8" y="-165.5" font-family="Helvetica,sans-Serif" font-size="10.00">v8::internal::Heap</text>
<text text-anchor="middle" x="78" y="-154.5" font-family="Helvetica,sans-Serif" font-size="10.00">::EnsureSweepingCompleted</text>
</a>
</g>
</g>
<!-- Node3&#45;&gt;Node4 -->
<g id="edge3" class="edge">
<title>Node3&#45;&gt;Node4</title>
<path fill="none" stroke="midnightblue" d="M183.62,-162.5C174.51,-162.5 165.22,-162.5 156.12,-162.5"/>
<polygon fill="midnightblue" stroke="midnightblue" points="183.8,-166 193.8,-162.5 183.8,-159 183.8,-166"/>
</g>
<!-- Node1719 -->
<g id="node6" class="node">
<title>Node1719</title>
<g id="a_node6"><a xlink:href="classv8_1_1internal_1_1GCTracer.html#a6684cf6dfe6d8bfcee4f6913a0f603ef" target="_top" xlink:title=" ">
<polygon fill="white" stroke="red" points="14,-49.5 14,-79.5 142,-79.5 142,-49.5 14,-49.5"/>
<text text-anchor="start" x="22" y="-67.5" font-family="Helvetica,sans-Serif" font-size="10.00">v8::internal::GCTracer</text>
<text text-anchor="middle" x="78" y="-56.5" font-family="Helvetica,sans-Serif" font-size="10.00">::StopObservablePause</text>
</a>
</g>
</g>
<!-- Node1718&#45;&gt;Node1719 -->
<g id="edge5" class="edge">
<title>Node1718&#45;&gt;Node1719</title>
<path fill="none" stroke="midnightblue" d="M195.4,-95.75C175.62,-90.44 154.13,-84.67 135.06,-79.55"/>
<polygon fill="midnightblue" stroke="midnightblue" points="194.69,-99.19 205.25,-98.4 196.5,-92.43 194.69,-99.19"/>
</g>
<!-- Node1720&#45;&gt;Node1719 -->
<g id="edge7" class="edge">
<title>Node1720&#45;&gt;Node1719</title>
<path fill="none" stroke="midnightblue" d="M191.06,-64.5C174.97,-64.5 157.95,-64.5 142.18,-64.5"/>
<polygon fill="midnightblue" stroke="midnightblue" points="191.49,-68 201.49,-64.5 191.49,-61 191.49,-68"/>
</g>
<!-- Node1721&#45;&gt;Node1719 -->
<g id="edge9" class="edge">
<title>Node1721&#45;&gt;Node1719</title>
<path fill="none" stroke="midnightblue" d="M195.4,-33.25C175.62,-38.56 154.13,-44.33 135.06,-49.45"/>
<polygon fill="midnightblue" stroke="midnightblue" points="196.5,-36.57 205.25,-30.6 194.69,-29.81 196.5,-36.57"/>
</g>
</g>
</svg>
        <g id="navigator" transform="translate(0 0)" fill="#404254">
                <rect fill="#f2f5e9" fill-opacity="0.5" stroke="#606060" stroke-width=".5" x="0" y="0" width="60" height="60"/>
                <use id="zoomplus" xlink:href="#zoomPlus" x="17" y="9" onmousedown="handleZoom(evt,'in')"/>
                <use id="zoomminus" xlink:href="#zoomMin" x="42" y="9" onmousedown="handleZoom(evt,'out')"/>
                <use id="reset" xlink:href="#resetDef" x="30" y="36" onmousedown="handleReset()"/>
                <g id="arrowUp" xlink:href="#dirArrow" transform="translate(30 24)" onmousedown="handlePan(0,-1)">
                  <use xlink:href="#rim" fill="#404040">
                        <set attributeName="fill" to="#808080" begin="arrowUp.mouseover" end="arrowUp.mouseout"/>
                  </use>
                  <path fill="none" stroke="white" stroke-width="1.5" d="M0,-3.0v7 M-2.5,-0.5L0,-3.0L2.5,-0.5"/>
                </g>
                <g id="arrowRight" xlink:href="#dirArrow" transform="rotate(90) translate(36 -43)" onmousedown="handlePan(1,0)">
                  <use xlink:href="#rim" fill="#404040">
                        <set attributeName="fill" to="#808080" begin="arrowRight.mouseover" end="arrowRight.mouseout"/>
                  </use>
                  <path fill="none" stroke="white" stroke-width="1.5" d="M0,-3.0v7 M-2.5,-0.5L0,-3.0L2.5,-0.5"/>
                </g>
                <g id="arrowDown" xlink:href="#dirArrow" transform="rotate(180) translate(-30 -48)" onmousedown="handlePan(0,1)">
                  <use xlink:href="#rim" fill="#404040">
                        <set attributeName="fill" to="#808080" begin="arrowDown.mouseover" end="arrowDown.mouseout"/>
                  </use>
                  <path fill="none" stroke="white" stroke-width="1.5" d="M0,-3.0v7 M-2.5,-0.5L0,-3.0L2.5,-0.5"/>
                </g>
                <g id="arrowLeft" xlink:href="#dirArrow" transform="rotate(270) translate(-36 17)" onmousedown="handlePan(-1,0)">
                  <use xlink:href="#rim" fill="#404040">
                        <set attributeName="fill" to="#808080" begin="arrowLeft.mouseover" end="arrowLeft.mouseout"/>
                  </use>
                  <path fill="none" stroke="white" stroke-width="1.5" d="M0,-3.0v7 M-2.5,-0.5L0,-3.0L2.5,-0.5"/>
                </g>
        </g>
        <svg viewBox="0 0 15 15" width="100%" height="30px" preserveAspectRatio="xMaxYMin meet">
         <g id="arrow_out" transform="scale(0.3 0.3)">
          <a xlink:href="classv8_1_1internal_1_1PagePool_a3e0e2180941dae604cb1edc2c67754ca_icgraph_org.svg" target="_base">
           <rect id="button" ry="5" rx="5" y="6" x="6" height="38" width="38"
                fill="#f2f5e9" fill-opacity="0.5" stroke="#606060" stroke-width="1.0"/>
           <path id="arrow"
             d="M 11.500037,31.436501 C 11.940474,20.09759 22.043105,11.32322 32.158766,21.979434 L 37.068811,17.246167 C 37.068811,17.246167 37.088388,32 37.088388,32 L 22.160133,31.978069 C 22.160133,31.978069 26.997745,27.140456 26.997745,27.140456 C 18.528582,18.264221 13.291696,25.230495 11.500037,31.436501 z"
             style="fill:#404040;"/>
          </a>
         </g>
        </svg>
</svg>
