<?xml version="1.0" encoding="UTF-8" standalone="no"?>
<!DOCTYPE svg PUBLIC "-//W3C//DTD SVG 1.1//EN"
 "http://www.w3.org/Graphics/SVG/1.1/DTD/svg11.dtd">
<!-- Generated by graphviz version 2.43.0 (0)
 -->
<!-- Title: v8::internal::maglev::Float64ToBoolean Pages: 1 -->
<!--zoomable 548 -->
<svg id="main" version="1.1" xmlns="http://www.w3.org/2000/svg" xmlns:xlink="http://www.w3.org/1999/xlink" xml:space="preserve" onload="init(evt)">
<style type="text/css"><![CDATA[
.edge:hover path { stroke: red; }
.edge:hover polygon { stroke: red; fill: red; }
]]></style>
<script type="text/javascript"><![CDATA[
var edges = document.getElementsByTagName('g');
if (edges && edges.length) {
  for (var i=0;i<edges.length;i++) {
    if (edges[i].id.substr(0,4)=='edge') {
      edges[i].setAttribute('class','edge');
    }
  }
}
]]></script>
        <defs>
                <circle id="rim" cx="0" cy="0" r="7"/>
                <circle id="rim2" cx="0" cy="0" r="3.5"/>
                <g id="zoomPlus">
                        <use xlink:href="#rim" fill="#404040">
                                <set attributeName="fill" to="#808080" begin="zoomplus.mouseover" end="zoomplus.mouseout"/>
                        </use>
                        <path d="M-4,0h8M0,-4v8" fill="none" stroke="white" stroke-width="1.5" pointer-events="none"/>
                </g>
                <g id="zoomMin">
                        <use xlink:href="#rim" fill="#404040">
                                <set attributeName="fill" to="#808080" begin="zoomminus.mouseover" end="zoomminus.mouseout"/>
                        </use>
                        <path d="M-4,0h8" fill="none" stroke="white" stroke-width="1.5" pointer-events="none"/>
                </g>
                <g id="dirArrow">
                        <path fill="none" stroke="white" stroke-width="1.5" d="M0,-3.0v7 M-2.5,-0.5L0,-3.0L2.5,-0.5"/>
                </g>
               <g id="resetDef">
                       <use xlink:href="#rim2" fill="#404040">
                               <set attributeName="fill" to="#808080" begin="reset.mouseover" end="reset.mouseout"/>
                       </use>
               </g>
        </defs>

<script type="text/javascript">
var viewWidth = 527;
var viewHeight = 548;
var sectionId = 'dynsection-1';
</script>
<script xlink:href="svgpan.js"/>
<svg id="graph" class="graph">
<g id="viewport">
<title>v8::internal::maglev::Float64ToBoolean</title>
<polygon fill="white" stroke="transparent" points="-4,4 -4,-544 523,-544 523,4 -4,4"/>
<!-- Node1 -->
<g id="node1" class="node">
<title>Node1</title>
<g id="a_node1"><a xlink:title=" ">
<polygon fill="#bfbfbf" stroke="black" points="322.5,-0.5 322.5,-134.5 497.5,-134.5 497.5,-0.5 322.5,-0.5"/>
<text text-anchor="start" x="330.5" y="-122.5" font-family="Helvetica,sans-Serif" font-size="10.00">v8::internal::maglev</text>
<text text-anchor="middle" x="410" y="-111.5" font-family="Helvetica,sans-Serif" font-size="10.00">::Float64ToBoolean</text>
<polyline fill="none" stroke="black" points="322.5,-104.5 497.5,-104.5 "/>
<text text-anchor="middle" x="410" y="-92.5" font-family="Helvetica,sans-Serif" font-size="10.00"> </text>
<polyline fill="none" stroke="black" points="322.5,-85.5 497.5,-85.5 "/>
<text text-anchor="start" x="330.5" y="-73.5" font-family="Helvetica,sans-Serif" font-size="10.00">+ Float64ToBoolean()</text>
<text text-anchor="start" x="330.5" y="-62.5" font-family="Helvetica,sans-Serif" font-size="10.00">+ value()</text>
<text text-anchor="start" x="330.5" y="-51.5" font-family="Helvetica,sans-Serif" font-size="10.00">+ flip()</text>
<text text-anchor="start" x="330.5" y="-40.5" font-family="Helvetica,sans-Serif" font-size="10.00">+ SetValueLocationConstraints()</text>
<text text-anchor="start" x="330.5" y="-29.5" font-family="Helvetica,sans-Serif" font-size="10.00">+ GenerateCode()</text>
<text text-anchor="start" x="330.5" y="-18.5" font-family="Helvetica,sans-Serif" font-size="10.00">+ PrintParams()</text>
<text text-anchor="start" x="330.5" y="-7.5" font-family="Helvetica,sans-Serif" font-size="10.00">+ options()</text>
</a>
</g>
</g>
<!-- Node2 -->
<g id="node2" class="node">
<title>Node2</title>
<g id="a_node2"><a xlink:href="classv8_1_1internal_1_1maglev_1_1FixedInputNodeTMixin.html" target="_top" xlink:title=" ">
<polygon fill="white" stroke="black" points="249,-172.5 249,-284.5 393,-284.5 393,-172.5 249,-172.5"/>
<text text-anchor="start" x="257" y="-272.5" font-family="Helvetica,sans-Serif" font-size="10.00">FixedInputValueNodeT</text>
<text text-anchor="middle" x="321" y="-261.5" font-family="Helvetica,sans-Serif" font-size="10.00">&lt; 1, Float64ToBoolean &gt;</text>
<polyline fill="none" stroke="black" points="249,-254.5 393,-254.5 "/>
<text text-anchor="middle" x="321" y="-242.5" font-family="Helvetica,sans-Serif" font-size="10.00"> </text>
<polyline fill="none" stroke="black" points="249,-235.5 393,-235.5 "/>
<text text-anchor="start" x="257" y="-223.5" font-family="Helvetica,sans-Serif" font-size="10.00">+ has_inputs()</text>
<text text-anchor="start" x="257" y="-212.5" font-family="Helvetica,sans-Serif" font-size="10.00">+ input_count()</text>
<text text-anchor="start" x="257" y="-201.5" font-family="Helvetica,sans-Serif" font-size="10.00">+ end()</text>
<text text-anchor="start" x="257" y="-190.5" font-family="Helvetica,sans-Serif" font-size="10.00">+ VerifyInputs()</text>
<text text-anchor="start" x="257" y="-179.5" font-family="Helvetica,sans-Serif" font-size="10.00"># FixedInputNodeTMixin()</text>
</a>
</g>
</g>
<!-- Node2&#45;&gt;Node1 -->
<g id="edge1" class="edge">
<title>Node2&#45;&gt;Node1</title>
<path fill="none" stroke="midnightblue" d="M356.91,-163.34C362.23,-153.85 367.71,-144.05 373.05,-134.51"/>
<polygon fill="none" stroke="midnightblue" points="353.71,-161.9 351.88,-172.34 359.82,-165.32 353.71,-161.9"/>
</g>
<!-- Node3 -->
<g id="node3" class="node">
<title>Node3</title>
<g id="a_node3"><a xlink:href="classv8_1_1internal_1_1maglev_1_1NodeTMixin.html" target="_top" xlink:title=" ">
<polygon fill="white" stroke="black" points="0,-332.5 0,-444.5 172,-444.5 172,-332.5 0,-332.5"/>
<text text-anchor="start" x="8" y="-432.5" font-family="Helvetica,sans-Serif" font-size="10.00">v8::internal::maglev</text>
<text text-anchor="middle" x="86" y="-421.5" font-family="Helvetica,sans-Serif" font-size="10.00">::NodeTMixin&lt; Base, Derived &gt;</text>
<polyline fill="none" stroke="black" points="0,-414.5 172,-414.5 "/>
<text text-anchor="middle" x="86" y="-402.5" font-family="Helvetica,sans-Serif" font-size="10.00"> </text>
<polyline fill="none" stroke="black" points="0,-395.5 172,-395.5 "/>
<text text-anchor="start" x="8" y="-383.5" font-family="Helvetica,sans-Serif" font-size="10.00">+ opcode()</text>
<text text-anchor="start" x="8" y="-372.5" font-family="Helvetica,sans-Serif" font-size="10.00">+ properties()</text>
<text text-anchor="start" x="8" y="-361.5" font-family="Helvetica,sans-Serif" font-size="10.00">+ New()</text>
<text text-anchor="start" x="8" y="-350.5" font-family="Helvetica,sans-Serif" font-size="10.00">+ New()</text>
<text text-anchor="start" x="8" y="-339.5" font-family="Helvetica,sans-Serif" font-size="10.00"># NodeTMixin()</text>
</a>
</g>
</g>
<!-- Node3&#45;&gt;Node2 -->
<g id="edge2" class="edge">
<title>Node3&#45;&gt;Node2</title>
<path fill="none" stroke="midnightblue" d="M176.28,-326.8C200.3,-310.65 225.93,-293.42 248.83,-278.02"/>
<polygon fill="none" stroke="midnightblue" points="174.21,-323.98 167.86,-332.46 178.11,-329.79 174.21,-323.98"/>
</g>
<!-- Node4 -->
<g id="node4" class="node">
<title>Node4</title>
<g id="a_node4"><a xlink:title=" ">
<polygon fill="white" stroke="#bfbfbf" points="65.5,-482.5 65.5,-539.5 106.5,-539.5 106.5,-482.5 65.5,-482.5"/>
<text text-anchor="middle" x="86" y="-527.5" font-family="Helvetica,sans-Serif" font-size="10.00">Base</text>
<polyline fill="none" stroke="#bfbfbf" points="65.5,-520.5 106.5,-520.5 "/>
<text text-anchor="middle" x="86" y="-508.5" font-family="Helvetica,sans-Serif" font-size="10.00"> </text>
<polyline fill="none" stroke="#bfbfbf" points="65.5,-501.5 106.5,-501.5 "/>
<text text-anchor="middle" x="86" y="-489.5" font-family="Helvetica,sans-Serif" font-size="10.00"> </text>
</a>
</g>
</g>
<!-- Node4&#45;&gt;Node3 -->
<g id="edge3" class="edge">
<title>Node4&#45;&gt;Node3</title>
<path fill="none" stroke="midnightblue" d="M86,-472.11C86,-463.36 86,-453.88 86,-444.57"/>
<polygon fill="none" stroke="midnightblue" points="82.5,-472.35 86,-482.35 89.5,-472.35 82.5,-472.35"/>
</g>
<!-- Node5 -->
<g id="node5" class="node">
<title>Node5</title>
<g id="a_node5"><a xlink:title=" ">
<polygon fill="white" stroke="#bfbfbf" points="414.5,-360 414.5,-417 479.5,-417 479.5,-360 414.5,-360"/>
<text text-anchor="middle" x="447" y="-405" font-family="Helvetica,sans-Serif" font-size="10.00">constexpr</text>
<polyline fill="none" stroke="#bfbfbf" points="414.5,-398 479.5,-398 "/>
<text text-anchor="middle" x="447" y="-386" font-family="Helvetica,sans-Serif" font-size="10.00"> </text>
<polyline fill="none" stroke="#bfbfbf" points="414.5,-379 479.5,-379 "/>
<text text-anchor="middle" x="447" y="-367" font-family="Helvetica,sans-Serif" font-size="10.00"> </text>
</a>
</g>
</g>
<!-- Node5&#45;&gt;Node1 -->
<g id="edge6" class="edge">
<title>Node5&#45;&gt;Node1</title>
<path fill="none" stroke="#404040" d="M448.39,-359.94C449.02,-346.14 449.69,-329.19 450,-314 451.15,-257.48 440.67,-194.57 430.14,-146.58"/>
<polygon fill="none" stroke="#404040" points="430.11,-146.43 424.89,-141.45 427.48,-134.72 432.7,-139.69 430.11,-146.43"/>
<text text-anchor="middle" x="484" y="-226" font-family="Helvetica,sans-Serif" font-size="10.00"> +kInputTypes</text>
</g>
<!-- Node5&#45;&gt;Node2 -->
<g id="edge4" class="edge">
<title>Node5&#45;&gt;Node2</title>
<path fill="none" stroke="#404040" d="M419.53,-359.73C406.73,-346.32 391.59,-329.76 379,-314 374.19,-307.98 369.35,-301.58 364.62,-295.09"/>
<polygon fill="none" stroke="#404040" points="364.3,-294.64 357.55,-292.09 357.31,-284.88 364.06,-287.43 364.3,-294.64"/>
<text text-anchor="middle" x="414.5" y="-306" font-family="Helvetica,sans-Serif" font-size="10.00"> +kInputCount</text>
</g>
<!-- Node6 -->
<g id="node6" class="node">
<title>Node6</title>
<g id="a_node6"><a xlink:href="structv8_1_1internal_1_1maglev_1_1detail_1_1YouNeedToDefineAnInputTypesArrayInYourDerivedClass.html" target="_top" xlink:title=" ">
<polygon fill="white" stroke="black" points="190.5,-349 190.5,-428 379.5,-428 379.5,-349 190.5,-349"/>
<text text-anchor="start" x="198.5" y="-416" font-family="Helvetica,sans-Serif" font-size="10.00">v8::internal::maglev</text>
<text text-anchor="start" x="198.5" y="-405" font-family="Helvetica,sans-Serif" font-size="10.00">::detail::YouNeedToDefineAn</text>
<text text-anchor="middle" x="285" y="-394" font-family="Helvetica,sans-Serif" font-size="10.00">InputTypesArrayInYourDerivedClass</text>
<polyline fill="none" stroke="black" points="190.5,-387 379.5,-387 "/>
<text text-anchor="middle" x="285" y="-375" font-family="Helvetica,sans-Serif" font-size="10.00"> </text>
<polyline fill="none" stroke="black" points="190.5,-368 379.5,-368 "/>
<text text-anchor="middle" x="285" y="-356" font-family="Helvetica,sans-Serif" font-size="10.00"> </text>
</a>
</g>
</g>
<!-- Node6&#45;&gt;Node2 -->
<g id="edge5" class="edge">
<title>Node6&#45;&gt;Node2</title>
<path fill="none" stroke="#404040" d="M281.98,-348.8C281.75,-334.27 282.58,-317.72 286,-303 286.53,-300.73 287.13,-298.44 287.8,-296.16"/>
<polygon fill="none" stroke="#404040" points="287.81,-296.14 285.93,-289.18 291.64,-284.77 293.51,-291.73 287.81,-296.14"/>
<text text-anchor="middle" x="321" y="-306" font-family="Helvetica,sans-Serif" font-size="10.00"> #kInputTypes</text>
</g>
</g>
</svg>
        <g id="navigator" transform="translate(0 0)" fill="#404254">
                <rect fill="#f2f5e9" fill-opacity="0.5" stroke="#606060" stroke-width=".5" x="0" y="0" width="60" height="60"/>
                <use id="zoomplus" xlink:href="#zoomPlus" x="17" y="9" onmousedown="handleZoom(evt,'in')"/>
                <use id="zoomminus" xlink:href="#zoomMin" x="42" y="9" onmousedown="handleZoom(evt,'out')"/>
                <use id="reset" xlink:href="#resetDef" x="30" y="36" onmousedown="handleReset()"/>
                <g id="arrowUp" xlink:href="#dirArrow" transform="translate(30 24)" onmousedown="handlePan(0,-1)">
                  <use xlink:href="#rim" fill="#404040">
                        <set attributeName="fill" to="#808080" begin="arrowUp.mouseover" end="arrowUp.mouseout"/>
                  </use>
                  <path fill="none" stroke="white" stroke-width="1.5" d="M0,-3.0v7 M-2.5,-0.5L0,-3.0L2.5,-0.5"/>
                </g>
                <g id="arrowRight" xlink:href="#dirArrow" transform="rotate(90) translate(36 -43)" onmousedown="handlePan(1,0)">
                  <use xlink:href="#rim" fill="#404040">
                        <set attributeName="fill" to="#808080" begin="arrowRight.mouseover" end="arrowRight.mouseout"/>
                  </use>
                  <path fill="none" stroke="white" stroke-width="1.5" d="M0,-3.0v7 M-2.5,-0.5L0,-3.0L2.5,-0.5"/>
                </g>
                <g id="arrowDown" xlink:href="#dirArrow" transform="rotate(180) translate(-30 -48)" onmousedown="handlePan(0,1)">
                  <use xlink:href="#rim" fill="#404040">
                        <set attributeName="fill" to="#808080" begin="arrowDown.mouseover" end="arrowDown.mouseout"/>
                  </use>
                  <path fill="none" stroke="white" stroke-width="1.5" d="M0,-3.0v7 M-2.5,-0.5L0,-3.0L2.5,-0.5"/>
                </g>
                <g id="arrowLeft" xlink:href="#dirArrow" transform="rotate(270) translate(-36 17)" onmousedown="handlePan(-1,0)">
                  <use xlink:href="#rim" fill="#404040">
                        <set attributeName="fill" to="#808080" begin="arrowLeft.mouseover" end="arrowLeft.mouseout"/>
                  </use>
                  <path fill="none" stroke="white" stroke-width="1.5" d="M0,-3.0v7 M-2.5,-0.5L0,-3.0L2.5,-0.5"/>
                </g>
        </g>
        <svg viewBox="0 0 15 15" width="100%" height="30px" preserveAspectRatio="xMaxYMin meet">
         <g id="arrow_out" transform="scale(0.3 0.3)">
          <a xlink:href="classv8_1_1internal_1_1maglev_1_1Float64ToBoolean__coll__graph_org.svg" target="_base">
           <rect id="button" ry="5" rx="5" y="6" x="6" height="38" width="38"
                fill="#f2f5e9" fill-opacity="0.5" stroke="#606060" stroke-width="1.0"/>
           <path id="arrow"
             d="M 11.500037,31.436501 C 11.940474,20.09759 22.043105,11.32322 32.158766,21.979434 L 37.068811,17.246167 C 37.068811,17.246167 37.088388,32 37.088388,32 L 22.160133,31.978069 C 22.160133,31.978069 26.997745,27.140456 26.997745,27.140456 C 18.528582,18.264221 13.291696,25.230495 11.500037,31.436501 z"
             style="fill:#404040;"/>
          </a>
         </g>
        </svg>
</svg>
