<?xml version="1.0" encoding="UTF-8" standalone="no"?>
<!DOCTYPE svg PUBLIC "-//W3C//DTD SVG 1.1//EN"
 "http://www.w3.org/Graphics/SVG/1.1/DTD/svg11.dtd">
<!-- Generated by graphviz version 2.43.0 (0)
 -->
<!-- Title: v8::internal::compiler::SpillPlacer::SecondBackwardPass Pages: 1 -->
<svg width="773pt" height="118pt"
 viewBox="0.00 0.00 773.00 118.00" xmlns="http://www.w3.org/2000/svg" xmlns:xlink="http://www.w3.org/1999/xlink">
<g id="graph0" class="graph" transform="scale(1 1) rotate(0) translate(4 114)">
<title>v8::internal::compiler::SpillPlacer::SecondBackwardPass</title>
<polygon fill="white" stroke="transparent" points="-4,4 -4,-114 769,-114 769,4 -4,4"/>
<!-- Node1 -->
<g id="node1" class="node">
<title>Node1</title>
<g id="a_node1"><a xlink:title=" ">
<polygon fill="#bfbfbf" stroke="black" points="580,-27.5 580,-57.5 765,-57.5 765,-27.5 580,-27.5"/>
<text text-anchor="start" x="588" y="-45.5" font-family="Helvetica,sans-Serif" font-size="10.00">v8::internal::compiler</text>
<text text-anchor="middle" x="672.5" y="-34.5" font-family="Helvetica,sans-Serif" font-size="10.00">::SpillPlacer::SecondBackwardPass</text>
</a>
</g>
</g>
<!-- Node2 -->
<g id="node2" class="node">
<title>Node2</title>
<g id="a_node2"><a xlink:href="classv8_1_1internal_1_1compiler_1_1SpillPlacer.html#abfae008e66e0d3788a9f42a4134b048c" target="_top" xlink:title=" ">
<polygon fill="white" stroke="black" points="399,-27.5 399,-57.5 544,-57.5 544,-27.5 399,-27.5"/>
<text text-anchor="start" x="407" y="-45.5" font-family="Helvetica,sans-Serif" font-size="10.00">v8::internal::compiler</text>
<text text-anchor="middle" x="471.5" y="-34.5" font-family="Helvetica,sans-Serif" font-size="10.00">::SpillPlacer::CommitSpills</text>
</a>
</g>
</g>
<!-- Node1&#45;&gt;Node2 -->
<g id="edge1" class="edge">
<title>Node1&#45;&gt;Node2</title>
<path fill="none" stroke="midnightblue" d="M569.77,-42.5C561.17,-42.5 552.59,-42.5 544.3,-42.5"/>
<polygon fill="midnightblue" stroke="midnightblue" points="569.86,-46 579.86,-42.5 569.86,-39 569.86,-46"/>
</g>
<!-- Node3 -->
<g id="node3" class="node">
<title>Node3</title>
<g id="a_node3"><a xlink:href="classv8_1_1internal_1_1compiler_1_1SpillPlacer.html#a755fd24ba5ee28714613fb7564fe2c4e" target="_top" xlink:title=" ">
<polygon fill="white" stroke="black" points="196,-50 196,-91 363,-91 363,-50 196,-50"/>
<text text-anchor="start" x="204" y="-79" font-family="Helvetica,sans-Serif" font-size="10.00">v8::internal::compiler</text>
<text text-anchor="start" x="204" y="-68" font-family="Helvetica,sans-Serif" font-size="10.00">::SpillPlacer::GetOrCreateIndex</text>
<text text-anchor="middle" x="279.5" y="-57" font-family="Helvetica,sans-Serif" font-size="10.00">ForLatestVreg</text>
</a>
</g>
</g>
<!-- Node2&#45;&gt;Node3 -->
<g id="edge2" class="edge">
<title>Node2&#45;&gt;Node3</title>
<path fill="none" stroke="midnightblue" d="M388.99,-54.51C380.43,-55.77 371.73,-57.06 363.17,-58.32"/>
<polygon fill="midnightblue" stroke="midnightblue" points="389.56,-57.97 398.94,-53.05 388.54,-51.04 389.56,-57.97"/>
</g>
<!-- Node9 -->
<g id="node6" class="node">
<title>Node9</title>
<g id="a_node6"><a xlink:href="classv8_1_1internal_1_1compiler_1_1SpillPlacer.html#a39a9ff617deef78a7da014371616a473" target="_top" xlink:title=" ">
<polygon fill="white" stroke="black" points="210,-0.5 210,-30.5 349,-30.5 349,-0.5 210,-0.5"/>
<text text-anchor="start" x="218" y="-18.5" font-family="Helvetica,sans-Serif" font-size="10.00">v8::internal::compiler</text>
<text text-anchor="middle" x="279.5" y="-7.5" font-family="Helvetica,sans-Serif" font-size="10.00">::SpillPlacer::~SpillPlacer</text>
</a>
</g>
</g>
<!-- Node2&#45;&gt;Node9 -->
<g id="edge5" class="edge">
<title>Node2&#45;&gt;Node9</title>
<path fill="none" stroke="midnightblue" d="M388.9,-30.9C375.66,-29.02 362.06,-27.09 349.17,-25.26"/>
<polygon fill="midnightblue" stroke="midnightblue" points="388.55,-34.39 398.94,-32.33 389.53,-27.46 388.55,-34.39"/>
</g>
<!-- Node4 -->
<g id="node4" class="node">
<title>Node4</title>
<g id="a_node4"><a xlink:href="classv8_1_1internal_1_1compiler_1_1SpillPlacer.html#a4d67322e8a7417ada32dc6f73bc35231" target="_top" xlink:title=" ">
<polygon fill="white" stroke="red" points="8.5,-79.5 8.5,-109.5 151.5,-109.5 151.5,-79.5 8.5,-79.5"/>
<text text-anchor="start" x="16.5" y="-97.5" font-family="Helvetica,sans-Serif" font-size="10.00">v8::internal::compiler</text>
<text text-anchor="middle" x="80" y="-86.5" font-family="Helvetica,sans-Serif" font-size="10.00">::SpillPlacer::SetDefinition</text>
</a>
</g>
</g>
<!-- Node3&#45;&gt;Node4 -->
<g id="edge3" class="edge">
<title>Node3&#45;&gt;Node4</title>
<path fill="none" stroke="midnightblue" d="M185.84,-81.76C174.36,-83.16 162.77,-84.56 151.69,-85.91"/>
<polygon fill="midnightblue" stroke="midnightblue" points="186.38,-85.22 195.89,-80.54 185.54,-78.27 186.38,-85.22"/>
</g>
<!-- Node8 -->
<g id="node5" class="node">
<title>Node8</title>
<g id="a_node5"><a xlink:href="classv8_1_1internal_1_1compiler_1_1SpillPlacer.html#a5ddfe78af52bbb2a4b71c88cc8834f3d" target="_top" xlink:title=" ">
<polygon fill="white" stroke="red" points="0,-30.5 0,-60.5 160,-60.5 160,-30.5 0,-30.5"/>
<text text-anchor="start" x="8" y="-48.5" font-family="Helvetica,sans-Serif" font-size="10.00">v8::internal::compiler</text>
<text text-anchor="middle" x="80" y="-37.5" font-family="Helvetica,sans-Serif" font-size="10.00">::SpillPlacer::SetSpillRequired</text>
</a>
</g>
</g>
<!-- Node3&#45;&gt;Node8 -->
<g id="edge4" class="edge">
<title>Node3&#45;&gt;Node8</title>
<path fill="none" stroke="midnightblue" d="M185.84,-58.77C177.24,-57.68 168.58,-56.59 160.12,-55.52"/>
<polygon fill="midnightblue" stroke="midnightblue" points="185.53,-62.26 195.89,-60.04 186.41,-55.31 185.53,-62.26"/>
</g>
</g>
</svg>
