<?xml version="1.0" encoding="UTF-8" standalone="no"?>
<!DOCTYPE svg PUBLIC "-//W3C//DTD SVG 1.1//EN"
 "http://www.w3.org/Graphics/SVG/1.1/DTD/svg11.dtd">
<!-- Generated by graphviz version 2.43.0 (0)
 -->
<!-- Title: v8::internal::MaybeObjectHandle::Weak Pages: 1 -->
<!--zoomable 225 -->
<svg id="main" version="1.1" xmlns="http://www.w3.org/2000/svg" xmlns:xlink="http://www.w3.org/1999/xlink" xml:space="preserve" onload="init(evt)">
<style type="text/css"><![CDATA[
.edge:hover path { stroke: red; }
.edge:hover polygon { stroke: red; fill: red; }
]]></style>
<script type="text/javascript"><![CDATA[
var edges = document.getElementsByTagName('g');
if (edges && edges.length) {
  for (var i=0;i<edges.length;i++) {
    if (edges[i].id.substr(0,4)=='edge') {
      edges[i].setAttribute('class','edge');
    }
  }
}
]]></script>
        <defs>
                <circle id="rim" cx="0" cy="0" r="7"/>
                <circle id="rim2" cx="0" cy="0" r="3.5"/>
                <g id="zoomPlus">
                        <use xlink:href="#rim" fill="#404040">
                                <set attributeName="fill" to="#808080" begin="zoomplus.mouseover" end="zoomplus.mouseout"/>
                        </use>
                        <path d="M-4,0h8M0,-4v8" fill="none" stroke="white" stroke-width="1.5" pointer-events="none"/>
                </g>
                <g id="zoomMin">
                        <use xlink:href="#rim" fill="#404040">
                                <set attributeName="fill" to="#808080" begin="zoomminus.mouseover" end="zoomminus.mouseout"/>
                        </use>
                        <path d="M-4,0h8" fill="none" stroke="white" stroke-width="1.5" pointer-events="none"/>
                </g>
                <g id="dirArrow">
                        <path fill="none" stroke="white" stroke-width="1.5" d="M0,-3.0v7 M-2.5,-0.5L0,-3.0L2.5,-0.5"/>
                </g>
               <g id="resetDef">
                       <use xlink:href="#rim2" fill="#404040">
                               <set attributeName="fill" to="#808080" begin="reset.mouseover" end="reset.mouseout"/>
                       </use>
               </g>
        </defs>

<script type="text/javascript">
var viewWidth = 776;
var viewHeight = 225;
var sectionId = 'dynsection-10';
</script>
<script xlink:href="svgpan.js"/>
<svg id="graph" class="graph">
<g id="viewport">
<title>v8::internal::MaybeObjectHandle::Weak</title>
<polygon fill="white" stroke="transparent" points="-4,4 -4,-221 772,-221 772,4 -4,4"/>
<!-- Node1 -->
<g id="node1" class="node">
<title>Node1</title>
<g id="a_node1"><a xlink:title=" ">
<polygon fill="#bfbfbf" stroke="black" points="625,-98.5 625,-128.5 768,-128.5 768,-98.5 625,-98.5"/>
<text text-anchor="start" x="633" y="-116.5" font-family="Helvetica,sans-Serif" font-size="10.00">v8::internal::MaybeObject</text>
<text text-anchor="middle" x="696.5" y="-105.5" font-family="Helvetica,sans-Serif" font-size="10.00">Handle::Weak</text>
</a>
</g>
</g>
<!-- Node2 -->
<g id="node2" class="node">
<title>Node2</title>
<g id="a_node2"><a xlink:href="classv8_1_1internal_1_1LoadIC.html#a33ea1c08fa3107f9e317f04b05066f9f" target="_top" xlink:title=" ">
<polygon fill="white" stroke="black" points="462.5,-186.5 462.5,-216.5 573.5,-216.5 573.5,-186.5 462.5,-186.5"/>
<text text-anchor="start" x="470.5" y="-204.5" font-family="Helvetica,sans-Serif" font-size="10.00">v8::internal::LoadIC</text>
<text text-anchor="middle" x="518" y="-193.5" font-family="Helvetica,sans-Serif" font-size="10.00">::ComputeHandler</text>
</a>
</g>
</g>
<!-- Node1&#45;&gt;Node2 -->
<g id="edge1" class="edge">
<title>Node1&#45;&gt;Node2</title>
<path fill="none" stroke="midnightblue" d="M660.18,-133.82C639.65,-145.35 613.15,-159.78 589,-171.5 578.41,-176.64 566.73,-181.83 555.99,-186.42"/>
<polygon fill="midnightblue" stroke="midnightblue" points="662.18,-136.71 669.16,-128.74 658.73,-130.62 662.18,-136.71"/>
</g>
<!-- Node9 -->
<g id="node5" class="node">
<title>Node9</title>
<g id="a_node5"><a xlink:href="classv8_1_1internal_1_1StoreIC.html#aa8b27a3e6b7f01598abe43f2e28aaf5b" target="_top" xlink:title=" ">
<polygon fill="white" stroke="black" points="298,-74.5 298,-104.5 411,-104.5 411,-74.5 298,-74.5"/>
<text text-anchor="start" x="306" y="-92.5" font-family="Helvetica,sans-Serif" font-size="10.00">v8::internal::StoreIC</text>
<text text-anchor="middle" x="354.5" y="-81.5" font-family="Helvetica,sans-Serif" font-size="10.00">::ComputeHandler</text>
</a>
</g>
</g>
<!-- Node1&#45;&gt;Node9 -->
<g id="edge4" class="edge">
<title>Node1&#45;&gt;Node9</title>
<path fill="none" stroke="midnightblue" d="M635.42,-130.95C584.56,-143.02 510.08,-154.33 447,-138.5 420.96,-131.97 394.23,-116.44 376.44,-104.6"/>
<polygon fill="midnightblue" stroke="midnightblue" points="636.38,-134.32 645.26,-128.53 634.72,-127.52 636.38,-134.32"/>
</g>
<!-- Node17 -->
<g id="node8" class="node">
<title>Node17</title>
<g id="a_node8"><a xlink:href="classv8_1_1internal_1_1StoreHandler.html#a67ff02217ff0b7e1f3024b5b75705229" target="_top" xlink:title=" ">
<polygon fill="white" stroke="black" points="447,-98.5 447,-128.5 589,-128.5 589,-98.5 447,-98.5"/>
<text text-anchor="start" x="455" y="-116.5" font-family="Helvetica,sans-Serif" font-size="10.00">v8::internal::StoreHandler</text>
<text text-anchor="middle" x="518" y="-105.5" font-family="Helvetica,sans-Serif" font-size="10.00">::StoreGlobal</text>
</a>
</g>
</g>
<!-- Node1&#45;&gt;Node17 -->
<g id="edge7" class="edge">
<title>Node1&#45;&gt;Node17</title>
<path fill="none" stroke="midnightblue" d="M614.93,-113.5C606.31,-113.5 597.6,-113.5 589.12,-113.5"/>
<polygon fill="midnightblue" stroke="midnightblue" points="614.98,-117 624.98,-113.5 614.98,-110 614.98,-117"/>
</g>
<!-- Node18 -->
<g id="node9" class="node">
<title>Node18</title>
<g id="a_node9"><a xlink:href="classv8_1_1internal_1_1StoreHandler.html#ab6919537db4e8712e6a37856a4920b7b" target="_top" xlink:title=" ">
<polygon fill="white" stroke="black" points="447,-49.5 447,-79.5 589,-79.5 589,-49.5 447,-49.5"/>
<text text-anchor="start" x="455" y="-67.5" font-family="Helvetica,sans-Serif" font-size="10.00">v8::internal::StoreHandler</text>
<text text-anchor="middle" x="518" y="-56.5" font-family="Helvetica,sans-Serif" font-size="10.00">::StoreOwnTransition</text>
</a>
</g>
</g>
<!-- Node1&#45;&gt;Node18 -->
<g id="edge9" class="edge">
<title>Node1&#45;&gt;Node18</title>
<path fill="none" stroke="midnightblue" d="M631.31,-95.68C612.25,-90.39 591.57,-84.65 573.22,-79.55"/>
<polygon fill="midnightblue" stroke="midnightblue" points="630.53,-99.1 641.1,-98.4 632.4,-92.35 630.53,-99.1"/>
</g>
<!-- Node19 -->
<g id="node10" class="node">
<title>Node19</title>
<g id="a_node10"><a xlink:href="classv8_1_1internal_1_1StoreHandler.html#a6b22fdda926710b720c446ab3bf90e73" target="_top" xlink:title=" ">
<polygon fill="white" stroke="black" points="447,-0.5 447,-30.5 589,-30.5 589,-0.5 447,-0.5"/>
<text text-anchor="start" x="455" y="-18.5" font-family="Helvetica,sans-Serif" font-size="10.00">v8::internal::StoreHandler</text>
<text text-anchor="middle" x="518" y="-7.5" font-family="Helvetica,sans-Serif" font-size="10.00">::StoreTransition</text>
</a>
</g>
</g>
<!-- Node1&#45;&gt;Node19 -->
<g id="edge11" class="edge">
<title>Node1&#45;&gt;Node19</title>
<path fill="none" stroke="midnightblue" d="M669.23,-92.15C648.43,-76.04 618.13,-54.25 589,-39.5 582.58,-36.25 575.62,-33.27 568.66,-30.61"/>
<polygon fill="midnightblue" stroke="midnightblue" points="667.23,-95.03 677.26,-98.46 671.56,-89.53 667.23,-95.03"/>
</g>
<!-- Node3 -->
<g id="node3" class="node">
<title>Node3</title>
<g id="a_node3"><a xlink:href="classv8_1_1internal_1_1LoadIC.html#a16c61b33868d2d10cd64a1acff513cb8" target="_top" xlink:title=" ">
<polygon fill="white" stroke="black" points="299,-186.5 299,-216.5 410,-216.5 410,-186.5 299,-186.5"/>
<text text-anchor="start" x="307" y="-204.5" font-family="Helvetica,sans-Serif" font-size="10.00">v8::internal::LoadIC</text>
<text text-anchor="middle" x="354.5" y="-193.5" font-family="Helvetica,sans-Serif" font-size="10.00">::UpdateCaches</text>
</a>
</g>
</g>
<!-- Node2&#45;&gt;Node3 -->
<g id="edge2" class="edge">
<title>Node2&#45;&gt;Node3</title>
<path fill="none" stroke="midnightblue" d="M452.29,-201.5C438.31,-201.5 423.67,-201.5 410.12,-201.5"/>
<polygon fill="midnightblue" stroke="midnightblue" points="452.32,-205 462.32,-201.5 452.32,-198 452.32,-205"/>
</g>
<!-- Node4 -->
<g id="node4" class="node">
<title>Node4</title>
<g id="a_node4"><a xlink:href="classv8_1_1internal_1_1LoadIC.html#a3bc56d22f058c2c5f481d73bfce9158a" target="_top" xlink:title=" ">
<polygon fill="white" stroke="red" points="150,-186.5 150,-216.5 261,-216.5 261,-186.5 150,-186.5"/>
<text text-anchor="start" x="158" y="-204.5" font-family="Helvetica,sans-Serif" font-size="10.00">v8::internal::LoadIC</text>
<text text-anchor="middle" x="205.5" y="-193.5" font-family="Helvetica,sans-Serif" font-size="10.00">::Load</text>
</a>
</g>
</g>
<!-- Node3&#45;&gt;Node4 -->
<g id="edge3" class="edge">
<title>Node3&#45;&gt;Node4</title>
<path fill="none" stroke="midnightblue" d="M288.58,-201.5C279.47,-201.5 270.18,-201.5 261.28,-201.5"/>
<polygon fill="midnightblue" stroke="midnightblue" points="288.76,-205 298.76,-201.5 288.76,-198 288.76,-205"/>
</g>
<!-- Node10 -->
<g id="node6" class="node">
<title>Node10</title>
<g id="a_node6"><a xlink:href="classv8_1_1internal_1_1StoreIC.html#ad9e1ff3b6c2ec9ebf6747d58bfc64699" target="_top" xlink:title=" ">
<polygon fill="white" stroke="black" points="149,-74.5 149,-104.5 262,-104.5 262,-74.5 149,-74.5"/>
<text text-anchor="start" x="157" y="-92.5" font-family="Helvetica,sans-Serif" font-size="10.00">v8::internal::StoreIC</text>
<text text-anchor="middle" x="205.5" y="-81.5" font-family="Helvetica,sans-Serif" font-size="10.00">::UpdateCaches</text>
</a>
</g>
</g>
<!-- Node9&#45;&gt;Node10 -->
<g id="edge5" class="edge">
<title>Node9&#45;&gt;Node10</title>
<path fill="none" stroke="midnightblue" d="M287.92,-89.5C279.32,-89.5 270.57,-89.5 262.15,-89.5"/>
<polygon fill="midnightblue" stroke="midnightblue" points="287.93,-93 297.93,-89.5 287.93,-86 287.93,-93"/>
</g>
<!-- Node11 -->
<g id="node7" class="node">
<title>Node11</title>
<g id="a_node7"><a xlink:href="classv8_1_1internal_1_1StoreIC.html#afb1a555bd6ba5b424d5d3e4133b81ac6" target="_top" xlink:title=" ">
<polygon fill="white" stroke="red" points="0,-74.5 0,-104.5 113,-104.5 113,-74.5 0,-74.5"/>
<text text-anchor="start" x="8" y="-92.5" font-family="Helvetica,sans-Serif" font-size="10.00">v8::internal::StoreIC</text>
<text text-anchor="middle" x="56.5" y="-81.5" font-family="Helvetica,sans-Serif" font-size="10.00">::Store</text>
</a>
</g>
</g>
<!-- Node10&#45;&gt;Node11 -->
<g id="edge6" class="edge">
<title>Node10&#45;&gt;Node11</title>
<path fill="none" stroke="midnightblue" d="M138.92,-89.5C130.32,-89.5 121.57,-89.5 113.15,-89.5"/>
<polygon fill="midnightblue" stroke="midnightblue" points="138.93,-93 148.93,-89.5 138.93,-86 138.93,-93"/>
</g>
<!-- Node17&#45;&gt;Node9 -->
<g id="edge8" class="edge">
<title>Node17&#45;&gt;Node9</title>
<path fill="none" stroke="midnightblue" d="M436.54,-101.54C427.93,-100.26 419.31,-98.98 411.07,-97.76"/>
<polygon fill="midnightblue" stroke="midnightblue" points="436.23,-105.04 446.63,-103.04 437.26,-98.11 436.23,-105.04"/>
</g>
<!-- Node18&#45;&gt;Node9 -->
<g id="edge10" class="edge">
<title>Node18&#45;&gt;Node9</title>
<path fill="none" stroke="midnightblue" d="M436.54,-76.95C427.93,-78.29 419.31,-79.62 411.07,-80.9"/>
<polygon fill="midnightblue" stroke="midnightblue" points="437.29,-80.38 446.63,-75.39 436.22,-73.46 437.29,-80.38"/>
</g>
<!-- Node19&#45;&gt;Node9 -->
<g id="edge12" class="edge">
<title>Node19&#45;&gt;Node9</title>
<path fill="none" stroke="midnightblue" d="M459.87,-34.18C455.48,-35.89 451.15,-37.67 447,-39.5 423.81,-49.72 398.62,-63.72 380.55,-74.3"/>
<polygon fill="midnightblue" stroke="midnightblue" points="461.38,-37.35 469.51,-30.56 458.92,-30.8 461.38,-37.35"/>
</g>
</g>
</svg>
        <g id="navigator" transform="translate(0 0)" fill="#404254">
                <rect fill="#f2f5e9" fill-opacity="0.5" stroke="#606060" stroke-width=".5" x="0" y="0" width="60" height="60"/>
                <use id="zoomplus" xlink:href="#zoomPlus" x="17" y="9" onmousedown="handleZoom(evt,'in')"/>
                <use id="zoomminus" xlink:href="#zoomMin" x="42" y="9" onmousedown="handleZoom(evt,'out')"/>
                <use id="reset" xlink:href="#resetDef" x="30" y="36" onmousedown="handleReset()"/>
                <g id="arrowUp" xlink:href="#dirArrow" transform="translate(30 24)" onmousedown="handlePan(0,-1)">
                  <use xlink:href="#rim" fill="#404040">
                        <set attributeName="fill" to="#808080" begin="arrowUp.mouseover" end="arrowUp.mouseout"/>
                  </use>
                  <path fill="none" stroke="white" stroke-width="1.5" d="M0,-3.0v7 M-2.5,-0.5L0,-3.0L2.5,-0.5"/>
                </g>
                <g id="arrowRight" xlink:href="#dirArrow" transform="rotate(90) translate(36 -43)" onmousedown="handlePan(1,0)">
                  <use xlink:href="#rim" fill="#404040">
                        <set attributeName="fill" to="#808080" begin="arrowRight.mouseover" end="arrowRight.mouseout"/>
                  </use>
                  <path fill="none" stroke="white" stroke-width="1.5" d="M0,-3.0v7 M-2.5,-0.5L0,-3.0L2.5,-0.5"/>
                </g>
                <g id="arrowDown" xlink:href="#dirArrow" transform="rotate(180) translate(-30 -48)" onmousedown="handlePan(0,1)">
                  <use xlink:href="#rim" fill="#404040">
                        <set attributeName="fill" to="#808080" begin="arrowDown.mouseover" end="arrowDown.mouseout"/>
                  </use>
                  <path fill="none" stroke="white" stroke-width="1.5" d="M0,-3.0v7 M-2.5,-0.5L0,-3.0L2.5,-0.5"/>
                </g>
                <g id="arrowLeft" xlink:href="#dirArrow" transform="rotate(270) translate(-36 17)" onmousedown="handlePan(-1,0)">
                  <use xlink:href="#rim" fill="#404040">
                        <set attributeName="fill" to="#808080" begin="arrowLeft.mouseover" end="arrowLeft.mouseout"/>
                  </use>
                  <path fill="none" stroke="white" stroke-width="1.5" d="M0,-3.0v7 M-2.5,-0.5L0,-3.0L2.5,-0.5"/>
                </g>
        </g>
        <svg viewBox="0 0 15 15" width="100%" height="30px" preserveAspectRatio="xMaxYMin meet">
         <g id="arrow_out" transform="scale(0.3 0.3)">
          <a xlink:href="classv8_1_1internal_1_1MaybeObjectHandle_a89e192adef6d752735b0845ee76cc1a2_icgraph_org.svg" target="_base">
           <rect id="button" ry="5" rx="5" y="6" x="6" height="38" width="38"
                fill="#f2f5e9" fill-opacity="0.5" stroke="#606060" stroke-width="1.0"/>
           <path id="arrow"
             d="M 11.500037,31.436501 C 11.940474,20.09759 22.043105,11.32322 32.158766,21.979434 L 37.068811,17.246167 C 37.068811,17.246167 37.088388,32 37.088388,32 L 22.160133,31.978069 C 22.160133,31.978069 26.997745,27.140456 26.997745,27.140456 C 18.528582,18.264221 13.291696,25.230495 11.500037,31.436501 z"
             style="fill:#404040;"/>
          </a>
         </g>
        </svg>
</svg>
