<?xml version="1.0" encoding="UTF-8" standalone="no"?>
<!DOCTYPE svg PUBLIC "-//W3C//DTD SVG 1.1//EN"
 "http://www.w3.org/Graphics/SVG/1.1/DTD/svg11.dtd">
<!-- Generated by graphviz version 2.43.0 (0)
 -->
<!-- Title: v8::internal::maglev::MaglevAssembler::ReverseByteOrderAndStoreUnalignedFloat64 Pages: 1 -->
<svg width="588pt" height="279pt"
 viewBox="0.00 0.00 588.00 279.00" xmlns="http://www.w3.org/2000/svg" xmlns:xlink="http://www.w3.org/1999/xlink">
<g id="graph0" class="graph" transform="scale(1 1) rotate(0) translate(4 275)">
<title>v8::internal::maglev::MaglevAssembler::ReverseByteOrderAndStoreUnalignedFloat64</title>
<polygon fill="white" stroke="transparent" points="-4,4 -4,-275 584,-275 584,4 -4,4"/>
<!-- Node1 -->
<g id="node1" class="node">
<title>Node1</title>
<g id="a_node1"><a xlink:title=" ">
<polygon fill="#bfbfbf" stroke="black" points="0,-107 0,-148 179,-148 179,-107 0,-107"/>
<text text-anchor="start" x="8" y="-136" font-family="Helvetica,sans-Serif" font-size="10.00">v8::internal::maglev</text>
<text text-anchor="start" x="8" y="-125" font-family="Helvetica,sans-Serif" font-size="10.00">::MaglevAssembler::ReverseByte</text>
<text text-anchor="middle" x="89.5" y="-114" font-family="Helvetica,sans-Serif" font-size="10.00">OrderAndStoreUnalignedFloat64</text>
</a>
</g>
</g>
<!-- Node2 -->
<g id="node2" class="node">
<title>Node2</title>
<g id="a_node2"><a xlink:href="classv8_1_1internal_1_1maglev_1_1MaglevAssembler_1_1TemporaryRegisterScope.html#a0dab0a54b177c2cd128d3648e9a4687d" target="_top" xlink:title=" ">
<polygon fill="white" stroke="black" points="215,-213 215,-254 383,-254 383,-213 215,-213"/>
<text text-anchor="start" x="223" y="-242" font-family="Helvetica,sans-Serif" font-size="10.00">v8::internal::maglev</text>
<text text-anchor="start" x="223" y="-231" font-family="Helvetica,sans-Serif" font-size="10.00">::MaglevAssembler::Temporary</text>
<text text-anchor="middle" x="299" y="-220" font-family="Helvetica,sans-Serif" font-size="10.00">RegisterScope::AcquireScratch</text>
</a>
</g>
</g>
<!-- Node1&#45;&gt;Node2 -->
<g id="edge1" class="edge">
<title>Node1&#45;&gt;Node2</title>
<path fill="none" stroke="midnightblue" d="M120.24,-148.01C144.88,-164.42 181.21,-187.28 215,-203.5 218.99,-205.42 223.14,-207.28 227.36,-209.09"/>
<polygon fill="midnightblue" stroke="midnightblue" points="226.1,-212.35 236.68,-212.93 228.77,-205.88 226.1,-212.35"/>
</g>
<!-- Node5 -->
<g id="node5" class="node">
<title>Node5</title>
<g id="a_node5"><a xlink:href="classv8_1_1internal_1_1Assembler.html#a4b9a88ea4a7a7474f53ec8bd8e90a61e" target="_top" xlink:title=" ">
<polygon fill="white" stroke="black" points="222,-175 222,-194 376,-194 376,-175 222,-175"/>
<text text-anchor="middle" x="299" y="-182" font-family="Helvetica,sans-Serif" font-size="10.00">v8::internal::Assembler::add</text>
</a>
</g>
</g>
<!-- Node1&#45;&gt;Node5 -->
<g id="edge4" class="edge">
<title>Node1&#45;&gt;Node5</title>
<path fill="none" stroke="midnightblue" d="M154.55,-148C173.89,-153.94 195.24,-160.23 215,-165.5 224.22,-167.96 234.07,-170.39 243.65,-172.64"/>
<polygon fill="midnightblue" stroke="midnightblue" points="242.96,-176.08 253.49,-174.92 244.54,-169.26 242.96,-176.08"/>
</g>
<!-- Node6 -->
<g id="node6" class="node">
<title>Node6</title>
<g id="a_node6"><a xlink:href="classv8_1_1internal_1_1Assembler.html#aabcb7edd06afe8f6178b25338f4e736f" target="_top" xlink:title=" ">
<polygon fill="white" stroke="black" points="223,-137 223,-156 375,-156 375,-137 223,-137"/>
<text text-anchor="middle" x="299" y="-144" font-family="Helvetica,sans-Serif" font-size="10.00">v8::internal::Assembler::rev</text>
</a>
</g>
</g>
<!-- Node1&#45;&gt;Node6 -->
<g id="edge5" class="edge">
<title>Node1&#45;&gt;Node6</title>
<path fill="none" stroke="midnightblue" d="M179.1,-135.61C190.23,-136.63 201.6,-137.67 212.68,-138.69"/>
<polygon fill="midnightblue" stroke="midnightblue" points="212.48,-142.18 222.76,-139.61 213.12,-135.21 212.48,-142.18"/>
</g>
<!-- Node7 -->
<g id="node7" class="node">
<title>Node7</title>
<g id="a_node7"><a xlink:href="classv8_1_1internal_1_1Assembler.html#a7979dc4c0d02b3d25dac7d51bede028a" target="_top" xlink:title=" ">
<polygon fill="white" stroke="black" points="224.5,-99 224.5,-118 373.5,-118 373.5,-99 224.5,-99"/>
<text text-anchor="middle" x="299" y="-106" font-family="Helvetica,sans-Serif" font-size="10.00">v8::internal::Assembler::str</text>
</a>
</g>
</g>
<!-- Node1&#45;&gt;Node7 -->
<g id="edge6" class="edge">
<title>Node1&#45;&gt;Node7</title>
<path fill="none" stroke="midnightblue" d="M179.1,-119.39C190.77,-118.32 202.71,-117.23 214.29,-116.16"/>
<polygon fill="midnightblue" stroke="midnightblue" points="214.73,-119.64 224.37,-115.24 214.09,-112.67 214.73,-119.64"/>
</g>
<!-- Node8 -->
<g id="node8" class="node">
<title>Node8</title>
<g id="a_node8"><a xlink:href="classv8_1_1internal_1_1MacroAssembler.html#aac8f3697a50be66eac480c27192861f0" target="_top" xlink:title=" ">
<polygon fill="white" stroke="black" points="219,-49.5 219,-79.5 379,-79.5 379,-49.5 219,-49.5"/>
<text text-anchor="start" x="227" y="-67.5" font-family="Helvetica,sans-Serif" font-size="10.00">v8::internal::MacroAssembler</text>
<text text-anchor="middle" x="299" y="-56.5" font-family="Helvetica,sans-Serif" font-size="10.00">::VmovHigh</text>
</a>
</g>
</g>
<!-- Node1&#45;&gt;Node8 -->
<g id="edge7" class="edge">
<title>Node1&#45;&gt;Node8</title>
<path fill="none" stroke="midnightblue" d="M157.68,-106.94C176.25,-101.28 196.4,-95.14 215,-89.5 222.49,-87.23 230.37,-84.85 238.16,-82.49"/>
<polygon fill="midnightblue" stroke="midnightblue" points="239.39,-85.78 247.96,-79.54 237.37,-79.08 239.39,-85.78"/>
</g>
<!-- Node9 -->
<g id="node9" class="node">
<title>Node9</title>
<g id="a_node9"><a xlink:href="classv8_1_1internal_1_1MacroAssembler.html#a6b5337e7b63675b9c52908226e116258" target="_top" xlink:title=" ">
<polygon fill="white" stroke="black" points="219,-0.5 219,-30.5 379,-30.5 379,-0.5 219,-0.5"/>
<text text-anchor="start" x="227" y="-18.5" font-family="Helvetica,sans-Serif" font-size="10.00">v8::internal::MacroAssembler</text>
<text text-anchor="middle" x="299" y="-7.5" font-family="Helvetica,sans-Serif" font-size="10.00">::VmovLow</text>
</a>
</g>
</g>
<!-- Node1&#45;&gt;Node9 -->
<g id="edge8" class="edge">
<title>Node1&#45;&gt;Node9</title>
<path fill="none" stroke="midnightblue" d="M114.7,-106.66C138.72,-86.9 177.31,-57.63 215,-39.5 218.99,-37.58 223.15,-35.79 227.41,-34.12"/>
<polygon fill="midnightblue" stroke="midnightblue" points="228.66,-37.38 236.83,-30.64 226.24,-30.82 228.66,-37.38"/>
</g>
<!-- Node3 -->
<g id="node3" class="node">
<title>Node3</title>
<g id="a_node3"><a xlink:href="classv8_1_1internal_1_1UseScratchRegisterScope.html#a18d5cc87e6ecaf4f254b626487145a37" target="_top" xlink:title=" ">
<polygon fill="white" stroke="black" points="433,-240.5 433,-270.5 566,-270.5 566,-240.5 433,-240.5"/>
<text text-anchor="start" x="441" y="-258.5" font-family="Helvetica,sans-Serif" font-size="10.00">v8::internal::UseScratch</text>
<text text-anchor="middle" x="499.5" y="-247.5" font-family="Helvetica,sans-Serif" font-size="10.00">RegisterScope::Acquire</text>
</a>
</g>
</g>
<!-- Node2&#45;&gt;Node3 -->
<g id="edge2" class="edge">
<title>Node2&#45;&gt;Node3</title>
<path fill="none" stroke="midnightblue" d="M383.03,-242.7C396.11,-244.15 409.57,-245.64 422.48,-247.07"/>
<polygon fill="midnightblue" stroke="midnightblue" points="422.37,-250.58 432.7,-248.21 423.14,-243.63 422.37,-250.58"/>
</g>
<!-- Node4 -->
<g id="node4" class="node">
<title>Node4</title>
<g id="a_node4"><a xlink:href="classv8_1_1internal_1_1RegListBase.html#a3856ba5b1ccfe7deabfc70a4ce9ed6be" target="_top" xlink:title=" ">
<polygon fill="white" stroke="black" points="419,-202 419,-221 580,-221 580,-202 419,-202"/>
<text text-anchor="middle" x="499.5" y="-209" font-family="Helvetica,sans-Serif" font-size="10.00">v8::internal::RegListBase::has</text>
</a>
</g>
</g>
<!-- Node2&#45;&gt;Node4 -->
<g id="edge3" class="edge">
<title>Node2&#45;&gt;Node4</title>
<path fill="none" stroke="midnightblue" d="M383.03,-224.3C391.58,-223.35 400.3,-222.38 408.92,-221.43"/>
<polygon fill="midnightblue" stroke="midnightblue" points="409.42,-224.89 418.98,-220.31 408.65,-217.94 409.42,-224.89"/>
</g>
</g>
</svg>
