<?xml version="1.0" encoding="UTF-8" standalone="no"?>
<!DOCTYPE svg PUBLIC "-//W3C//DTD SVG 1.1//EN"
 "http://www.w3.org/Graphics/SVG/1.1/DTD/svg11.dtd">
<!-- Generated by graphviz version 2.43.0 (0)
 -->
<!-- Title: v8::internal::compiler::UseInfo::TaggedPointer Pages: 1 -->
<svg width="483pt" height="149pt"
 viewBox="0.00 0.00 483.00 148.50" xmlns="http://www.w3.org/2000/svg" xmlns:xlink="http://www.w3.org/1999/xlink">
<g id="graph0" class="graph" transform="scale(1 1) rotate(0) translate(4 144.5)">
<title>v8::internal::compiler::UseInfo::TaggedPointer</title>
<polygon fill="white" stroke="transparent" points="-4,4 -4,-144.5 479,-144.5 479,4 -4,4"/>
<!-- Node1 -->
<g id="node1" class="node">
<title>Node1</title>
<g id="a_node1"><a xlink:title=" ">
<polygon fill="#bfbfbf" stroke="black" points="0,-24.5 0,-54.5 135,-54.5 135,-24.5 0,-24.5"/>
<text text-anchor="start" x="8" y="-42.5" font-family="Helvetica,sans-Serif" font-size="10.00">v8::internal::compiler</text>
<text text-anchor="middle" x="67.5" y="-31.5" font-family="Helvetica,sans-Serif" font-size="10.00">::UseInfo::TaggedPointer</text>
</a>
</g>
</g>
<!-- Node2 -->
<g id="node2" class="node">
<title>Node2</title>
<g id="a_node2"><a xlink:href="classv8_1_1internal_1_1compiler_1_1Truncation.html#a56a9fc188f3a8b45367d600620726465" target="_top" xlink:title=" ">
<polygon fill="white" stroke="black" points="171,-49.5 171,-79.5 292,-79.5 292,-49.5 171,-49.5"/>
<text text-anchor="start" x="179" y="-67.5" font-family="Helvetica,sans-Serif" font-size="10.00">v8::internal::compiler</text>
<text text-anchor="middle" x="231.5" y="-56.5" font-family="Helvetica,sans-Serif" font-size="10.00">::Truncation::Any</text>
</a>
</g>
</g>
<!-- Node1&#45;&gt;Node2 -->
<g id="edge1" class="edge">
<title>Node1&#45;&gt;Node2</title>
<path fill="none" stroke="midnightblue" d="M135.33,-49.81C143.69,-51.1 152.27,-52.43 160.67,-53.72"/>
<polygon fill="midnightblue" stroke="midnightblue" points="160.41,-57.22 170.83,-55.29 161.48,-50.31 160.41,-57.22"/>
</g>
<!-- Node6 -->
<g id="node6" class="node">
<title>Node6</title>
<g id="a_node6"><a xlink:href="classv8_1_1internal_1_1compiler_1_1UseInfo.html#a912f829ecb986ab0d47c60fd58c350d0" target="_top" xlink:title=" ">
<polygon fill="white" stroke="black" points="171,-0.5 171,-30.5 292,-30.5 292,-0.5 171,-0.5"/>
<text text-anchor="start" x="179" y="-18.5" font-family="Helvetica,sans-Serif" font-size="10.00">v8::internal::compiler</text>
<text text-anchor="middle" x="231.5" y="-7.5" font-family="Helvetica,sans-Serif" font-size="10.00">::UseInfo::UseInfo</text>
</a>
</g>
</g>
<!-- Node1&#45;&gt;Node6 -->
<g id="edge5" class="edge">
<title>Node1&#45;&gt;Node6</title>
<path fill="none" stroke="midnightblue" d="M135.33,-29.6C143.69,-28.36 152.27,-27.09 160.67,-25.84"/>
<polygon fill="midnightblue" stroke="midnightblue" points="161.45,-29.27 170.83,-24.34 160.42,-22.34 161.45,-29.27"/>
</g>
<!-- Node3 -->
<g id="node3" class="node">
<title>Node3</title>
<g id="a_node3"><a xlink:href="classv8_1_1internal_1_1compiler_1_1Truncation.html#a70c83da9fb1a0bdd159ce798326ec137" target="_top" xlink:title=" ">
<polygon fill="white" stroke="black" points="334.5,-99 334.5,-140 468.5,-140 468.5,-99 334.5,-99"/>
<text text-anchor="start" x="342.5" y="-128" font-family="Helvetica,sans-Serif" font-size="10.00">v8::internal::compiler</text>
<text text-anchor="start" x="342.5" y="-117" font-family="Helvetica,sans-Serif" font-size="10.00">::Truncation::check_safe</text>
<text text-anchor="middle" x="401.5" y="-106" font-family="Helvetica,sans-Serif" font-size="10.00">_integer</text>
</a>
</g>
</g>
<!-- Node2&#45;&gt;Node3 -->
<g id="edge2" class="edge">
<title>Node2&#45;&gt;Node3</title>
<path fill="none" stroke="midnightblue" d="M278.41,-79.53C293.67,-84.53 311.07,-90.22 327.86,-95.72"/>
<polygon fill="midnightblue" stroke="midnightblue" points="327.05,-99.14 337.64,-98.92 329.23,-92.48 327.05,-99.14"/>
</g>
<!-- Node4 -->
<g id="node4" class="node">
<title>Node4</title>
<g id="a_node4"><a xlink:href="classv8_1_1internal_1_1compiler_1_1Truncation.html#a73be21ba2bfeae18f64e35fb73dea536" target="_top" xlink:title=" ">
<polygon fill="white" stroke="black" points="328,-49.5 328,-79.5 475,-79.5 475,-49.5 328,-49.5"/>
<text text-anchor="start" x="336" y="-67.5" font-family="Helvetica,sans-Serif" font-size="10.00">v8::internal::compiler</text>
<text text-anchor="middle" x="401.5" y="-56.5" font-family="Helvetica,sans-Serif" font-size="10.00">::Truncation::identify_zeros</text>
</a>
</g>
</g>
<!-- Node2&#45;&gt;Node4 -->
<g id="edge3" class="edge">
<title>Node2&#45;&gt;Node4</title>
<path fill="none" stroke="midnightblue" d="M292.2,-64.5C300.47,-64.5 309.09,-64.5 317.68,-64.5"/>
<polygon fill="midnightblue" stroke="midnightblue" points="317.75,-68 327.75,-64.5 317.75,-61 317.75,-68"/>
</g>
<!-- Node5 -->
<g id="node5" class="node">
<title>Node5</title>
<g id="a_node5"><a xlink:href="classv8_1_1internal_1_1compiler_1_1Truncation.html#a756953c071a2ecc7ff184d53a0aec0f1" target="_top" xlink:title=" ">
<polygon fill="white" stroke="black" points="337,-0.5 337,-30.5 466,-30.5 466,-0.5 337,-0.5"/>
<text text-anchor="start" x="345" y="-18.5" font-family="Helvetica,sans-Serif" font-size="10.00">v8::internal::compiler</text>
<text text-anchor="middle" x="401.5" y="-7.5" font-family="Helvetica,sans-Serif" font-size="10.00">::Truncation::Truncation</text>
</a>
</g>
</g>
<!-- Node2&#45;&gt;Node5 -->
<g id="edge4" class="edge">
<title>Node2&#45;&gt;Node5</title>
<path fill="none" stroke="midnightblue" d="M284.28,-49.4C301.6,-44.34 321.09,-38.66 339.08,-33.42"/>
<polygon fill="midnightblue" stroke="midnightblue" points="340.27,-36.71 348.89,-30.55 338.31,-29.99 340.27,-36.71"/>
</g>
</g>
</svg>
