<?xml version="1.0" encoding="UTF-8" standalone="no"?>
<!DOCTYPE svg PUBLIC "-//W3C//DTD SVG 1.1//EN"
 "http://www.w3.org/Graphics/SVG/1.1/DTD/svg11.dtd">
<!-- Generated by graphviz version 2.43.0 (0)
 -->
<!-- Title: v8::internal::MacroAssemblerBase::IndirectLoadConstant Pages: 1 -->
<svg width="938pt" height="896pt"
 viewBox="0.00 0.00 938.00 896.33" xmlns="http://www.w3.org/2000/svg" xmlns:xlink="http://www.w3.org/1999/xlink">
<g id="graph0" class="graph" transform="scale(1 1) rotate(0) translate(4 892.33)">
<title>v8::internal::MacroAssemblerBase::IndirectLoadConstant</title>
<polygon fill="white" stroke="transparent" points="-4,4 -4,-892.33 934,-892.33 934,4 -4,4"/>
<!-- Node1 -->
<g id="node1" class="node">
<title>Node1</title>
<g id="a_node1"><a xlink:title=" ">
<polygon fill="#bfbfbf" stroke="black" points="0,-178.83 0,-208.83 160,-208.83 160,-178.83 0,-178.83"/>
<text text-anchor="start" x="8" y="-196.83" font-family="Helvetica,sans-Serif" font-size="10.00">v8::internal::MacroAssembler</text>
<text text-anchor="middle" x="80" y="-185.83" font-family="Helvetica,sans-Serif" font-size="10.00">Base::IndirectLoadConstant</text>
</a>
</g>
</g>
<!-- Node2 -->
<g id="node2" class="node">
<title>Node2</title>
<g id="a_node2"><a xlink:href="classv8_1_1internal_1_1BuiltinsConstantsTableBuilder.html#add6e429287774b8dcb94002ca85cec81" target="_top" xlink:title=" ">
<polygon fill="white" stroke="black" points="206.5,-555.83 206.5,-585.83 370.5,-585.83 370.5,-555.83 206.5,-555.83"/>
<text text-anchor="start" x="214.5" y="-573.83" font-family="Helvetica,sans-Serif" font-size="10.00">v8::internal::BuiltinsConstants</text>
<text text-anchor="middle" x="288.5" y="-562.83" font-family="Helvetica,sans-Serif" font-size="10.00">TableBuilder::AddObject</text>
</a>
</g>
</g>
<!-- Node1&#45;&gt;Node2 -->
<g id="edge1" class="edge">
<title>Node1&#45;&gt;Node2</title>
<path fill="none" stroke="midnightblue" d="M89.35,-209.07C121.2,-267.23 235.23,-475.41 274.28,-546.69"/>
<polygon fill="midnightblue" stroke="midnightblue" points="271.4,-548.72 279.27,-555.8 277.54,-545.35 271.4,-548.72"/>
</g>
<!-- Node24 -->
<g id="node22" class="node">
<title>Node24</title>
<g id="a_node22"><a xlink:href="classv8_1_1internal_1_1MacroAssemblerBase.html#a0754280db051fb43a6e2b6079eb972d5" target="_top" xlink:title=" ">
<polygon fill="white" stroke="black" points="423.5,-222.83 423.5,-252.83 583.5,-252.83 583.5,-222.83 423.5,-222.83"/>
<text text-anchor="start" x="431.5" y="-240.83" font-family="Helvetica,sans-Serif" font-size="10.00">v8::internal::MacroAssembler</text>
<text text-anchor="middle" x="503.5" y="-229.83" font-family="Helvetica,sans-Serif" font-size="10.00">Base::builtin</text>
</a>
</g>
</g>
<!-- Node1&#45;&gt;Node24 -->
<g id="edge22" class="edge">
<title>Node1&#45;&gt;Node24</title>
<path fill="none" stroke="midnightblue" d="M145.2,-208.89C161.67,-212.29 179.43,-215.57 196,-217.83 268.82,-227.75 352.07,-232.79 413.42,-235.32"/>
<polygon fill="midnightblue" stroke="midnightblue" points="413.32,-238.82 423.45,-235.72 413.6,-231.83 413.32,-238.82"/>
</g>
<!-- Node25 -->
<g id="node23" class="node">
<title>Node25</title>
<g id="a_node23"><a xlink:href="classv8_1_1internal_1_1Isolate.html#a219fe0f8eaab7928611afedaa0a6960c" target="_top" xlink:title=" ">
<polygon fill="white" stroke="black" points="233,-266.33 233,-307.33 344,-307.33 344,-266.33 233,-266.33"/>
<text text-anchor="start" x="241" y="-295.33" font-family="Helvetica,sans-Serif" font-size="10.00">v8::internal::Isolate</text>
<text text-anchor="start" x="241" y="-284.33" font-family="Helvetica,sans-Serif" font-size="10.00">::builtins_constants</text>
<text text-anchor="middle" x="288.5" y="-273.33" font-family="Helvetica,sans-Serif" font-size="10.00">_table_builder</text>
</a>
</g>
</g>
<!-- Node1&#45;&gt;Node25 -->
<g id="edge23" class="edge">
<title>Node1&#45;&gt;Node25</title>
<path fill="none" stroke="midnightblue" d="M108.97,-208.94C132.02,-221.15 165.73,-238.45 196,-251.83 204.77,-255.71 214.12,-259.57 223.37,-263.25"/>
<polygon fill="midnightblue" stroke="midnightblue" points="222.35,-266.61 232.94,-267 224.91,-260.09 222.35,-266.61"/>
</g>
<!-- Node26 -->
<g id="node24" class="node">
<title>Node26</title>
<g id="a_node24"><a xlink:href="classv8_1_1internal_1_1Builtins.html#a9f4e993a04694469eb0eef27133908a1" target="_top" xlink:title=" ">
<polygon fill="white" stroke="black" points="813,-222.83 813,-252.83 928,-252.83 928,-222.83 813,-222.83"/>
<text text-anchor="start" x="821" y="-240.83" font-family="Helvetica,sans-Serif" font-size="10.00">v8::internal::Builtins</text>
<text text-anchor="middle" x="870.5" y="-229.83" font-family="Helvetica,sans-Serif" font-size="10.00">::IsBuiltinId</text>
</a>
</g>
</g>
<!-- Node1&#45;&gt;Node26 -->
<g id="edge24" class="edge">
<title>Node1&#45;&gt;Node26</title>
<path fill="none" stroke="midnightblue" d="M85.65,-178.66C97.4,-143.34 132,-56.02 196,-21.83 268.52,16.92 300.55,-4.83 381,-21.83 563.21,-60.31 760.18,-171.35 836.61,-217.42"/>
<polygon fill="midnightblue" stroke="midnightblue" points="834.96,-220.51 845.32,-222.71 838.59,-214.53 834.96,-220.51"/>
</g>
<!-- Node27 -->
<g id="node25" class="node">
<title>Node27</title>
<g id="a_node25"><a xlink:href="classv8_1_1internal_1_1MacroAssemblerBase.html#abd05e085ee32fb49ec542f2a0b821288" target="_top" xlink:title=" ">
<polygon fill="white" stroke="black" points="208.5,-178.83 208.5,-208.83 368.5,-208.83 368.5,-178.83 208.5,-178.83"/>
<text text-anchor="start" x="216.5" y="-196.83" font-family="Helvetica,sans-Serif" font-size="10.00">v8::internal::MacroAssembler</text>
<text text-anchor="middle" x="288.5" y="-185.83" font-family="Helvetica,sans-Serif" font-size="10.00">Base::isolate</text>
</a>
</g>
</g>
<!-- Node1&#45;&gt;Node27 -->
<g id="edge25" class="edge">
<title>Node1&#45;&gt;Node27</title>
<path fill="none" stroke="midnightblue" d="M160.25,-193.83C172.72,-193.83 185.69,-193.83 198.37,-193.83"/>
<polygon fill="midnightblue" stroke="midnightblue" points="198.46,-197.33 208.46,-193.83 198.46,-190.33 198.46,-197.33"/>
</g>
<!-- Node28 -->
<g id="node26" class="node">
<title>Node28</title>
<g id="a_node26"><a xlink:href="classv8_1_1internal_1_1MacroAssemblerBase.html#a824ea53919a68d605c9ea8291e9552e5" target="_top" xlink:title=" ">
<polygon fill="white" stroke="black" points="204,-129.83 204,-159.83 373,-159.83 373,-129.83 204,-129.83"/>
<text text-anchor="start" x="212" y="-147.83" font-family="Helvetica,sans-Serif" font-size="10.00">v8::internal::MacroAssembler</text>
<text text-anchor="middle" x="288.5" y="-136.83" font-family="Helvetica,sans-Serif" font-size="10.00">Base::LoadFromConstantsTable</text>
</a>
</g>
</g>
<!-- Node1&#45;&gt;Node28 -->
<g id="edge26" class="edge">
<title>Node1&#45;&gt;Node28</title>
<path fill="none" stroke="midnightblue" d="M144.36,-178.79C166.46,-173.55 191.44,-167.62 214.28,-162.2"/>
<polygon fill="midnightblue" stroke="midnightblue" points="215.34,-165.55 224.26,-159.83 213.72,-158.74 215.34,-165.55"/>
</g>
<!-- Node29 -->
<g id="node27" class="node">
<title>Node29</title>
<g id="a_node27"><a xlink:href="classv8_1_1internal_1_1MacroAssemblerBase.html#a048afc88fcb91253b9aebec907bd0ba9" target="_top" xlink:title=" ">
<polygon fill="white" stroke="black" points="208.5,-80.83 208.5,-110.83 368.5,-110.83 368.5,-80.83 208.5,-80.83"/>
<text text-anchor="start" x="216.5" y="-98.83" font-family="Helvetica,sans-Serif" font-size="10.00">v8::internal::MacroAssembler</text>
<text text-anchor="middle" x="288.5" y="-87.83" font-family="Helvetica,sans-Serif" font-size="10.00">Base::LoadRoot</text>
</a>
</g>
</g>
<!-- Node1&#45;&gt;Node29 -->
<g id="edge27" class="edge">
<title>Node1&#45;&gt;Node29</title>
<path fill="none" stroke="midnightblue" d="M100.27,-178.7C122.28,-162.09 159.92,-135.69 196,-119.83 200.67,-117.77 205.56,-115.86 210.54,-114.1"/>
<polygon fill="midnightblue" stroke="midnightblue" points="211.82,-117.36 220.2,-110.87 209.6,-110.72 211.82,-117.36"/>
</g>
<!-- Node30 -->
<g id="node28" class="node">
<title>Node30</title>
<g id="a_node28"><a xlink:href="classv8_1_1internal_1_1MacroAssemblerBase.html#a1c68a44f2f7febab06e87b74d4fb62d3" target="_top" xlink:title=" ">
<polygon fill="white" stroke="black" points="208.5,-31.83 208.5,-61.83 368.5,-61.83 368.5,-31.83 208.5,-31.83"/>
<text text-anchor="start" x="216.5" y="-49.83" font-family="Helvetica,sans-Serif" font-size="10.00">v8::internal::MacroAssembler</text>
<text text-anchor="middle" x="288.5" y="-38.83" font-family="Helvetica,sans-Serif" font-size="10.00">Base::LoadRootRelative</text>
</a>
</g>
</g>
<!-- Node1&#45;&gt;Node30 -->
<g id="edge28" class="edge">
<title>Node1&#45;&gt;Node30</title>
<path fill="none" stroke="midnightblue" d="M90.76,-178.78C108.48,-152.68 148.55,-99.13 196,-70.83 198.98,-69.05 202.1,-67.4 205.3,-65.87"/>
<polygon fill="midnightblue" stroke="midnightblue" points="206.74,-69.06 214.53,-61.88 203.96,-62.64 206.74,-69.06"/>
</g>
<!-- Node31 -->
<g id="node29" class="node">
<title>Node31</title>
<g id="a_node29"><a xlink:href="classv8_1_1internal_1_1MacroAssemblerBase.html#af31287f4036dc1ccaadd6aac3b733162" target="_top" xlink:title=" ">
<polygon fill="white" stroke="black" points="196,-326.83 196,-356.83 381,-356.83 381,-326.83 196,-326.83"/>
<text text-anchor="start" x="204" y="-344.83" font-family="Helvetica,sans-Serif" font-size="10.00">v8::internal::MacroAssembler</text>
<text text-anchor="middle" x="288.5" y="-333.83" font-family="Helvetica,sans-Serif" font-size="10.00">Base::RootRegisterOffsetForBuiltin</text>
</a>
</g>
</g>
<!-- Node1&#45;&gt;Node31 -->
<g id="edge29" class="edge">
<title>Node1&#45;&gt;Node31</title>
<path fill="none" stroke="midnightblue" d="M90.79,-208.83C108.56,-234.84 148.69,-288.28 196,-316.83 199.57,-318.98 203.33,-320.95 207.2,-322.76"/>
<polygon fill="midnightblue" stroke="midnightblue" points="205.85,-325.98 216.42,-326.67 208.58,-319.54 205.85,-325.98"/>
</g>
<!-- Node3 -->
<g id="node3" class="node">
<title>Node3</title>
<g id="a_node3"><a xlink:href="classv8_1_1internal_1_1ThreadId.html#a81c60d3524b03db2f154b7f682e7796f" target="_top" xlink:title=" ">
<polygon fill="white" stroke="black" points="443,-710.83 443,-740.83 564,-740.83 564,-710.83 443,-710.83"/>
<text text-anchor="start" x="451" y="-728.83" font-family="Helvetica,sans-Serif" font-size="10.00">v8::internal::ThreadId</text>
<text text-anchor="middle" x="503.5" y="-717.83" font-family="Helvetica,sans-Serif" font-size="10.00">::Current</text>
</a>
</g>
</g>
<!-- Node2&#45;&gt;Node3 -->
<g id="edge2" class="edge">
<title>Node2&#45;&gt;Node3</title>
<path fill="none" stroke="midnightblue" d="M301.23,-586.08C321.95,-612.06 367.52,-665.04 417,-695.83 423.67,-699.98 430.99,-703.65 438.45,-706.87"/>
<polygon fill="midnightblue" stroke="midnightblue" points="437.36,-710.2 447.94,-710.71 439.99,-703.71 437.36,-710.2"/>
</g>
<!-- Node6 -->
<g id="node6" class="node">
<title>Node6</title>
<g id="a_node6"><a xlink:href="namespacev8_1_1internal.html#aa6b3743bd5d773c552654f2a6c3efa4a" target="_top" xlink:title=" ">
<polygon fill="white" stroke="black" points="811,-474.33 811,-493.33 930,-493.33 930,-474.33 811,-474.33"/>
<text text-anchor="middle" x="870.5" y="-481.33" font-family="Helvetica,sans-Serif" font-size="10.00">v8::internal::DCHECK</text>
</a>
</g>
</g>
<!-- Node2&#45;&gt;Node6 -->
<g id="edge5" class="edge">
<title>Node2&#45;&gt;Node6</title>
<path fill="none" stroke="midnightblue" d="M303.81,-585.98C325.72,-607.94 369.99,-647.64 417,-662.83 490.16,-686.47 516.11,-684.08 590,-662.83 701.62,-630.73 810.74,-538.21 852.1,-500.31"/>
<polygon fill="midnightblue" stroke="midnightblue" points="854.5,-502.86 859.45,-493.5 849.74,-497.73 854.5,-502.86"/>
</g>
<!-- Node7 -->
<g id="node7" class="node">
<title>Node7</title>
<g id="a_node7"><a xlink:href="classv8_1_1internal_1_1IdentityMap.html#a2d49a12ec0170a557b7396b0a8dae9a3" target="_top" xlink:title=" ">
<polygon fill="white" stroke="black" points="435,-604.83 435,-634.83 572,-634.83 572,-604.83 435,-604.83"/>
<text text-anchor="start" x="443" y="-622.83" font-family="Helvetica,sans-Serif" font-size="10.00">v8::internal::IdentityMap</text>
<text text-anchor="middle" x="503.5" y="-611.83" font-family="Helvetica,sans-Serif" font-size="10.00">::Find</text>
</a>
</g>
</g>
<!-- Node2&#45;&gt;Node7 -->
<g id="edge6" class="edge">
<title>Node2&#45;&gt;Node7</title>
<path fill="none" stroke="midnightblue" d="M354.85,-585.86C377.75,-591.13 403.65,-597.09 427.29,-602.53"/>
<polygon fill="midnightblue" stroke="midnightblue" points="426.74,-605.99 437.27,-604.82 428.31,-599.17 426.74,-605.99"/>
</g>
<!-- Node8 -->
<g id="node8" class="node">
<title>Node8</title>
<g id="a_node8"><a xlink:href="classv8_1_1internal_1_1IdentityMap.html#ae080f68ae948c1ceb85cd94e9578baf1" target="_top" xlink:title=" ">
<polygon fill="white" stroke="black" points="435,-555.83 435,-585.83 572,-585.83 572,-555.83 435,-555.83"/>
<text text-anchor="start" x="443" y="-573.83" font-family="Helvetica,sans-Serif" font-size="10.00">v8::internal::IdentityMap</text>
<text text-anchor="middle" x="503.5" y="-562.83" font-family="Helvetica,sans-Serif" font-size="10.00">::FindOrInsert</text>
</a>
</g>
</g>
<!-- Node2&#45;&gt;Node8 -->
<g id="edge8" class="edge">
<title>Node2&#45;&gt;Node8</title>
<path fill="none" stroke="midnightblue" d="M370.63,-570.83C388.32,-570.83 407.01,-570.83 424.57,-570.83"/>
<polygon fill="midnightblue" stroke="midnightblue" points="424.76,-574.33 434.76,-570.83 424.76,-567.33 424.76,-574.33"/>
</g>
<!-- Node9 -->
<g id="node9" class="node">
<title>Node9</title>
<g id="a_node9"><a xlink:href="classv8_1_1internal_1_1Isolate.html#ac74a11613906581a9989b1cb7f7b3275" target="_top" xlink:title=" ">
<polygon fill="white" stroke="black" points="448,-506.83 448,-536.83 559,-536.83 559,-506.83 448,-506.83"/>
<text text-anchor="start" x="456" y="-524.83" font-family="Helvetica,sans-Serif" font-size="10.00">v8::internal::Isolate</text>
<text text-anchor="middle" x="503.5" y="-513.83" font-family="Helvetica,sans-Serif" font-size="10.00">::heap</text>
</a>
</g>
</g>
<!-- Node2&#45;&gt;Node9 -->
<g id="edge9" class="edge">
<title>Node2&#45;&gt;Node9</title>
<path fill="none" stroke="midnightblue" d="M354.85,-555.79C381.2,-549.73 411.53,-542.76 437.81,-536.71"/>
<polygon fill="midnightblue" stroke="midnightblue" points="438.71,-540.09 447.67,-534.44 437.14,-533.27 438.71,-540.09"/>
</g>
<!-- Node10 -->
<g id="node10" class="node">
<title>Node10</title>
<g id="a_node10"><a xlink:href="classv8_1_1internal_1_1HeapLayout.html#a91ac1680dc7f626bd8675e14ac660240" target="_top" xlink:title=" ">
<polygon fill="white" stroke="black" points="435,-457.83 435,-487.83 572,-487.83 572,-457.83 435,-457.83"/>
<text text-anchor="start" x="443" y="-475.83" font-family="Helvetica,sans-Serif" font-size="10.00">v8::internal::HeapLayout</text>
<text text-anchor="middle" x="503.5" y="-464.83" font-family="Helvetica,sans-Serif" font-size="10.00">::InReadOnlySpace</text>
</a>
</g>
</g>
<!-- Node2&#45;&gt;Node10 -->
<g id="edge10" class="edge">
<title>Node2&#45;&gt;Node10</title>
<path fill="none" stroke="midnightblue" d="M312.15,-555.66C337.01,-539.56 378.51,-514.2 417,-497.83 422.47,-495.5 428.22,-493.31 434.06,-491.26"/>
<polygon fill="midnightblue" stroke="midnightblue" points="435.53,-494.46 443.9,-487.96 433.31,-487.82 435.53,-494.46"/>
</g>
<!-- Node13 -->
<g id="node13" class="node">
<title>Node13</title>
<g id="a_node13"><a xlink:href="classv8_1_1internal_1_1Isolate.html#aedaf87f2e27a1df86eaf664a83539c4b" target="_top" xlink:title=" ">
<polygon fill="white" stroke="black" points="417,-408.83 417,-438.83 590,-438.83 590,-408.83 417,-408.83"/>
<text text-anchor="start" x="425" y="-426.83" font-family="Helvetica,sans-Serif" font-size="10.00">v8::internal::Isolate</text>
<text text-anchor="middle" x="503.5" y="-415.83" font-family="Helvetica,sans-Serif" font-size="10.00">::IsGeneratingEmbeddedBuiltins</text>
</a>
</g>
</g>
<!-- Node2&#45;&gt;Node13 -->
<g id="edge13" class="edge">
<title>Node2&#45;&gt;Node13</title>
<path fill="none" stroke="midnightblue" d="M301.15,-555.68C321.74,-529.93 367.13,-477.64 417,-448.83 420.69,-446.69 424.58,-444.73 428.58,-442.93"/>
<polygon fill="midnightblue" stroke="midnightblue" points="430.17,-446.05 438.07,-438.99 427.49,-439.59 430.17,-446.05"/>
</g>
<!-- Node14 -->
<g id="node14" class="node">
<title>Node14</title>
<g id="a_node14"><a xlink:href="namespacev8_1_1internal.html#a0786c89c1004cb964dc034b138b263fd" target="_top" xlink:title=" ">
<polygon fill="white" stroke="black" points="432,-370.33 432,-389.33 575,-389.33 575,-370.33 432,-370.33"/>
<text text-anchor="middle" x="503.5" y="-377.33" font-family="Helvetica,sans-Serif" font-size="10.00">v8::internal::IsHeapObject</text>
</a>
</g>
</g>
<!-- Node2&#45;&gt;Node14 -->
<g id="edge14" class="edge">
<title>Node2&#45;&gt;Node14</title>
<path fill="none" stroke="midnightblue" d="M296.24,-555.69C312.08,-521.95 355.05,-440.41 417,-399.83 420.83,-397.32 424.95,-395.12 429.22,-393.2"/>
<polygon fill="midnightblue" stroke="midnightblue" points="430.77,-396.35 438.78,-389.41 428.2,-389.84 430.77,-396.35"/>
</g>
<!-- Node18 -->
<g id="node16" class="node">
<title>Node18</title>
<g id="a_node16"><a xlink:href="classv8_1_1internal_1_1RootsTable.html#aba22a75b531e17ff1b99b2799f31198f" target="_top" xlink:title=" ">
<polygon fill="white" stroke="black" points="438,-320.83 438,-350.83 569,-350.83 569,-320.83 438,-320.83"/>
<text text-anchor="start" x="446" y="-338.83" font-family="Helvetica,sans-Serif" font-size="10.00">v8::internal::RootsTable</text>
<text text-anchor="middle" x="503.5" y="-327.83" font-family="Helvetica,sans-Serif" font-size="10.00">::IsRootHandle</text>
</a>
</g>
</g>
<!-- Node2&#45;&gt;Node18 -->
<g id="edge16" class="edge">
<title>Node2&#45;&gt;Node18</title>
<path fill="none" stroke="midnightblue" d="M294.31,-555.77C307.41,-517.21 347.48,-414.21 417,-360.83 420.62,-358.05 424.53,-355.58 428.64,-353.39"/>
<polygon fill="midnightblue" stroke="midnightblue" points="430.33,-356.46 437.86,-349.01 427.33,-350.13 430.33,-356.46"/>
</g>
<!-- Node21 -->
<g id="node19" class="node">
<title>Node21</title>
<g id="a_node19"><a xlink:href="classv8_1_1internal_1_1Isolate.html#ab64f4271342ac485e583b4bd59a6d47f" target="_top" xlink:title=" ">
<polygon fill="white" stroke="black" points="448,-857.83 448,-887.83 559,-887.83 559,-857.83 448,-857.83"/>
<text text-anchor="start" x="456" y="-875.83" font-family="Helvetica,sans-Serif" font-size="10.00">v8::internal::Isolate</text>
<text text-anchor="middle" x="503.5" y="-864.83" font-family="Helvetica,sans-Serif" font-size="10.00">::roots_table</text>
</a>
</g>
</g>
<!-- Node2&#45;&gt;Node21 -->
<g id="edge19" class="edge">
<title>Node2&#45;&gt;Node21</title>
<path fill="none" stroke="midnightblue" d="M291.86,-585.83C300,-632.36 331.23,-775.52 417,-848.83 423.25,-854.17 430.6,-858.33 438.33,-861.56"/>
<polygon fill="midnightblue" stroke="midnightblue" points="437.3,-864.91 447.9,-865.07 439.71,-858.34 437.3,-864.91"/>
</g>
<!-- Node22 -->
<g id="node20" class="node">
<title>Node22</title>
<g id="a_node20"><a xlink:href="classv8_1_1internal_1_1IdentityMapBase.html#a29059d0d4ccbfb656a1ef6b224c30fcd" target="_top" xlink:title=" ">
<polygon fill="white" stroke="black" points="435,-808.83 435,-838.83 572,-838.83 572,-808.83 435,-808.83"/>
<text text-anchor="start" x="443" y="-826.83" font-family="Helvetica,sans-Serif" font-size="10.00">v8::internal::IdentityMap</text>
<text text-anchor="middle" x="503.5" y="-815.83" font-family="Helvetica,sans-Serif" font-size="10.00">Base::size</text>
</a>
</g>
</g>
<!-- Node2&#45;&gt;Node22 -->
<g id="edge20" class="edge">
<title>Node2&#45;&gt;Node22</title>
<path fill="none" stroke="midnightblue" d="M293.51,-586.07C305.15,-627.21 342.89,-741.33 417,-799.83 419.75,-801.99 422.68,-803.97 425.74,-805.76"/>
<polygon fill="midnightblue" stroke="midnightblue" points="424.17,-808.89 434.66,-810.36 427.38,-802.67 424.17,-808.89"/>
</g>
<!-- Node23 -->
<g id="node21" class="node">
<title>Node23</title>
<g id="a_node21"><a xlink:href="classv8_1_1internal_1_1Isolate.html#a863567eca5cd2e437780d09553235557" target="_top" xlink:title=" ">
<polygon fill="white" stroke="black" points="448,-759.83 448,-789.83 559,-789.83 559,-759.83 448,-759.83"/>
<text text-anchor="start" x="456" y="-777.83" font-family="Helvetica,sans-Serif" font-size="10.00">v8::internal::Isolate</text>
<text text-anchor="middle" x="503.5" y="-766.83" font-family="Helvetica,sans-Serif" font-size="10.00">::thread_id</text>
</a>
</g>
</g>
<!-- Node2&#45;&gt;Node23 -->
<g id="edge21" class="edge">
<title>Node2&#45;&gt;Node23</title>
<path fill="none" stroke="midnightblue" d="M295.92,-586.04C311.37,-620.8 354.09,-706.47 417,-750.83 423.47,-755.39 430.78,-759.08 438.34,-762.08"/>
<polygon fill="midnightblue" stroke="midnightblue" points="437.4,-765.46 447.99,-765.51 439.74,-758.86 437.4,-765.46"/>
</g>
<!-- Node4 -->
<g id="node4" class="node">
<title>Node4</title>
<g id="a_node4"><a xlink:href="classv8_1_1internal_1_1ThreadId.html#ab709a312c20734717256008500edb0ed" target="_top" xlink:title=" ">
<polygon fill="white" stroke="black" points="640,-710.83 640,-740.83 761,-740.83 761,-710.83 640,-710.83"/>
<text text-anchor="start" x="648" y="-728.83" font-family="Helvetica,sans-Serif" font-size="10.00">v8::internal::ThreadId</text>
<text text-anchor="middle" x="700.5" y="-717.83" font-family="Helvetica,sans-Serif" font-size="10.00">::GetCurrentThreadId</text>
</a>
</g>
</g>
<!-- Node3&#45;&gt;Node4 -->
<g id="edge3" class="edge">
<title>Node3&#45;&gt;Node4</title>
<path fill="none" stroke="midnightblue" d="M564.07,-725.83C584.85,-725.83 608.37,-725.83 629.9,-725.83"/>
<polygon fill="midnightblue" stroke="midnightblue" points="629.96,-729.33 639.96,-725.83 629.96,-722.33 629.96,-729.33"/>
</g>
<!-- Node5 -->
<g id="node5" class="node">
<title>Node5</title>
<g id="a_node5"><a xlink:href="classv8_1_1internal_1_1ThreadId.html#af7c9df9da92af20cce90258db38037e1" target="_top" xlink:title=" ">
<polygon fill="white" stroke="black" points="640,-759.83 640,-789.83 761,-789.83 761,-759.83 640,-759.83"/>
<text text-anchor="start" x="648" y="-777.83" font-family="Helvetica,sans-Serif" font-size="10.00">v8::internal::ThreadId</text>
<text text-anchor="middle" x="700.5" y="-766.83" font-family="Helvetica,sans-Serif" font-size="10.00">::ThreadId</text>
</a>
</g>
</g>
<!-- Node3&#45;&gt;Node5 -->
<g id="edge4" class="edge">
<title>Node3&#45;&gt;Node5</title>
<path fill="none" stroke="midnightblue" d="M564.07,-740.79C584.95,-746.04 608.58,-751.98 630.19,-757.41"/>
<polygon fill="midnightblue" stroke="midnightblue" points="629.41,-760.82 639.96,-759.87 631.12,-754.03 629.41,-760.82"/>
</g>
<!-- Node7&#45;&gt;Node7 -->
<g id="edge7" class="edge">
<title>Node7&#45;&gt;Node7</title>
<path fill="none" stroke="midnightblue" d="M469.34,-634.99C461.11,-644.38 472.49,-653.33 503.5,-653.33 522.4,-653.33 534,-650.01 538.33,-645.28"/>
<polygon fill="midnightblue" stroke="midnightblue" points="541.8,-644.74 537.66,-634.99 534.81,-645.19 541.8,-644.74"/>
</g>
<!-- Node11 -->
<g id="node11" class="node">
<title>Node11</title>
<g id="a_node11"><a xlink:href="classv8_1_1internal_1_1MemoryChunk.html#a0481ad8f68cb1d4a794d588d80cc8f54" target="_top" xlink:title=" ">
<polygon fill="white" stroke="black" points="626,-457.83 626,-487.83 775,-487.83 775,-457.83 626,-457.83"/>
<text text-anchor="start" x="634" y="-475.83" font-family="Helvetica,sans-Serif" font-size="10.00">v8::internal::MemoryChunk</text>
<text text-anchor="middle" x="700.5" y="-464.83" font-family="Helvetica,sans-Serif" font-size="10.00">::FromHeapObject</text>
</a>
</g>
</g>
<!-- Node10&#45;&gt;Node11 -->
<g id="edge11" class="edge">
<title>Node10&#45;&gt;Node11</title>
<path fill="none" stroke="midnightblue" d="M572.15,-472.83C586.28,-472.83 601.32,-472.83 615.94,-472.83"/>
<polygon fill="midnightblue" stroke="midnightblue" points="615.98,-476.33 625.98,-472.83 615.98,-469.33 615.98,-476.33"/>
</g>
<!-- Node12 -->
<g id="node12" class="node">
<title>Node12</title>
<g id="a_node12"><a xlink:href="classv8_1_1internal_1_1MemoryChunk.html#a60ab6e39e09fcf7d4d2dae6ed4ee2ec4" target="_top" xlink:title=" ">
<polygon fill="white" stroke="black" points="626,-506.83 626,-536.83 775,-536.83 775,-506.83 626,-506.83"/>
<text text-anchor="start" x="634" y="-524.83" font-family="Helvetica,sans-Serif" font-size="10.00">v8::internal::MemoryChunk</text>
<text text-anchor="middle" x="700.5" y="-513.83" font-family="Helvetica,sans-Serif" font-size="10.00">::InReadOnlySpace</text>
</a>
</g>
</g>
<!-- Node10&#45;&gt;Node12 -->
<g id="edge12" class="edge">
<title>Node10&#45;&gt;Node12</title>
<path fill="none" stroke="midnightblue" d="M564.33,-487.86C585.11,-493.08 608.58,-498.98 630.07,-504.38"/>
<polygon fill="midnightblue" stroke="midnightblue" points="629.23,-507.78 639.78,-506.82 630.94,-500.99 629.23,-507.78"/>
</g>
<!-- Node15 -->
<g id="node15" class="node">
<title>Node15</title>
<g id="a_node15"><a xlink:href="classv8_1_1internal_1_1TaggedImpl.html#aea3274f07dad292adc478dc20a811210" target="_top" xlink:title=" ">
<polygon fill="white" stroke="red" points="633.5,-408.83 633.5,-438.83 767.5,-438.83 767.5,-408.83 633.5,-408.83"/>
<text text-anchor="start" x="641.5" y="-426.83" font-family="Helvetica,sans-Serif" font-size="10.00">v8::internal::TaggedImpl</text>
<text text-anchor="middle" x="700.5" y="-415.83" font-family="Helvetica,sans-Serif" font-size="10.00">::IsHeapObject</text>
</a>
</g>
</g>
<!-- Node14&#45;&gt;Node15 -->
<g id="edge15" class="edge">
<title>Node14&#45;&gt;Node15</title>
<path fill="none" stroke="midnightblue" d="M546.81,-389.37C569.26,-394.44 597.53,-400.82 623.62,-406.7"/>
<polygon fill="midnightblue" stroke="midnightblue" points="622.97,-410.15 633.49,-408.93 624.51,-403.32 622.97,-410.15"/>
</g>
<!-- Node19 -->
<g id="node17" class="node">
<title>Node19</title>
<g id="a_node17"><a xlink:href="namespacev8_1_1internal.html#a8c89f00da07e125218128b9fbf0a321c" target="_top" xlink:title=" ">
<polygon fill="white" stroke="black" points="645,-321.33 645,-340.33 756,-340.33 756,-321.33 645,-321.33"/>
<text text-anchor="middle" x="700.5" y="-328.33" font-family="Helvetica,sans-Serif" font-size="10.00">v8::internal::handle</text>
</a>
</g>
</g>
<!-- Node18&#45;&gt;Node19 -->
<g id="edge17" class="edge">
<title>Node18&#45;&gt;Node19</title>
<path fill="none" stroke="midnightblue" d="M569.16,-334.17C590.22,-333.63 613.59,-333.03 634.66,-332.49"/>
<polygon fill="midnightblue" stroke="midnightblue" points="634.89,-335.99 644.79,-332.23 634.71,-328.99 634.89,-335.99"/>
</g>
<!-- Node20 -->
<g id="node18" class="node">
<title>Node20</title>
<g id="a_node18"><a xlink:href="classv8_1_1internal_1_1RootsTable.html#a55978a96c28ab4bcff3923e192a2ae30" target="_top" xlink:title=" ">
<polygon fill="white" stroke="black" points="635,-359.83 635,-389.83 766,-389.83 766,-359.83 635,-359.83"/>
<text text-anchor="start" x="643" y="-377.83" font-family="Helvetica,sans-Serif" font-size="10.00">v8::internal::RootsTable</text>
<text text-anchor="middle" x="700.5" y="-366.83" font-family="Helvetica,sans-Serif" font-size="10.00">::IsRootHandleLocation</text>
</a>
</g>
</g>
<!-- Node18&#45;&gt;Node20 -->
<g id="edge18" class="edge">
<title>Node18&#45;&gt;Node20</title>
<path fill="none" stroke="midnightblue" d="M569.16,-348.76C586.93,-352.31 606.36,-356.2 624.65,-359.86"/>
<polygon fill="midnightblue" stroke="midnightblue" points="624.19,-363.33 634.68,-361.86 625.56,-356.47 624.19,-363.33"/>
</g>
<!-- Node31&#45;&gt;Node24 -->
<g id="edge30" class="edge">
<title>Node31&#45;&gt;Node24</title>
<path fill="none" stroke="midnightblue" d="M363.62,-326.74C369.78,-323.98 375.67,-320.7 381,-316.83 404.62,-299.64 393.44,-279.1 417,-261.83 419.07,-260.31 421.23,-258.89 423.46,-257.56"/>
<polygon fill="midnightblue" stroke="midnightblue" points="425.16,-260.62 432.37,-252.86 421.89,-254.43 425.16,-260.62"/>
</g>
<!-- Node32 -->
<g id="node30" class="node">
<title>Node32</title>
<g id="a_node30"><a xlink:href="classv8_1_1internal_1_1IsolateData.html#ac789143251f741c2b7d9973f7b60fa86" target="_top" xlink:title=" ">
<polygon fill="white" stroke="black" points="436.5,-271.83 436.5,-301.83 570.5,-301.83 570.5,-271.83 436.5,-271.83"/>
<text text-anchor="start" x="444.5" y="-289.83" font-family="Helvetica,sans-Serif" font-size="10.00">v8::internal::IsolateData</text>
<text text-anchor="middle" x="503.5" y="-278.83" font-family="Helvetica,sans-Serif" font-size="10.00">::BuiltinSlotOffset</text>
</a>
</g>
</g>
<!-- Node31&#45;&gt;Node32 -->
<g id="edge31" class="edge">
<title>Node31&#45;&gt;Node32</title>
<path fill="none" stroke="midnightblue" d="M347.7,-326.8C374.59,-319.86 406.68,-311.57 434.66,-304.34"/>
<polygon fill="midnightblue" stroke="midnightblue" points="435.56,-307.73 444.37,-301.84 433.81,-300.95 435.56,-307.73"/>
</g>
<!-- Node33 -->
<g id="node31" class="node">
<title>Node33</title>
<g id="a_node31"><a xlink:href="classv8_1_1internal_1_1Builtins.html#aa418f6641ee5e80d6a67b650ea43ad3f" target="_top" xlink:title=" ">
<polygon fill="white" stroke="black" points="643,-222.83 643,-252.83 758,-252.83 758,-222.83 643,-222.83"/>
<text text-anchor="start" x="651" y="-240.83" font-family="Helvetica,sans-Serif" font-size="10.00">v8::internal::Builtins</text>
<text text-anchor="middle" x="700.5" y="-229.83" font-family="Helvetica,sans-Serif" font-size="10.00">::IsTier0</text>
</a>
</g>
</g>
<!-- Node32&#45;&gt;Node33 -->
<g id="edge32" class="edge">
<title>Node32&#45;&gt;Node33</title>
<path fill="none" stroke="midnightblue" d="M564.33,-271.79C586.08,-266.33 610.78,-260.12 633.07,-254.52"/>
<polygon fill="midnightblue" stroke="midnightblue" points="633.94,-257.91 642.78,-252.08 632.23,-251.12 633.94,-257.91"/>
</g>
<!-- Node34 -->
<g id="node32" class="node">
<title>Node34</title>
<g id="a_node32"><a xlink:href="classv8_1_1internal_1_1Builtins.html#a6e1264346a2d6519ac478f560345af39" target="_top" xlink:title=" ">
<polygon fill="white" stroke="black" points="643,-271.83 643,-301.83 758,-301.83 758,-271.83 643,-271.83"/>
<text text-anchor="start" x="651" y="-289.83" font-family="Helvetica,sans-Serif" font-size="10.00">v8::internal::Builtins</text>
<text text-anchor="middle" x="700.5" y="-278.83" font-family="Helvetica,sans-Serif" font-size="10.00">::ToInt</text>
</a>
</g>
</g>
<!-- Node32&#45;&gt;Node34 -->
<g id="edge34" class="edge">
<title>Node32&#45;&gt;Node34</title>
<path fill="none" stroke="midnightblue" d="M570.52,-286.83C590.65,-286.83 612.79,-286.83 632.96,-286.83"/>
<polygon fill="midnightblue" stroke="midnightblue" points="632.99,-290.33 642.99,-286.83 632.99,-283.33 632.99,-290.33"/>
</g>
<!-- Node33&#45;&gt;Node26 -->
<g id="edge33" class="edge">
<title>Node33&#45;&gt;Node26</title>
<path fill="none" stroke="midnightblue" d="M758.38,-237.83C772.69,-237.83 788.17,-237.83 802.91,-237.83"/>
<polygon fill="midnightblue" stroke="midnightblue" points="802.97,-241.33 812.97,-237.83 802.97,-234.33 802.97,-241.33"/>
</g>
<!-- Node34&#45;&gt;Node6 -->
<g id="edge35" class="edge">
<title>Node34&#45;&gt;Node6</title>
<path fill="none" stroke="midnightblue" d="M758.03,-301.1C764.13,-304.05 769.94,-307.58 775,-311.83 824.91,-353.71 852.98,-428.99 864,-464.4"/>
<polygon fill="midnightblue" stroke="midnightblue" points="860.66,-465.45 866.87,-474.04 867.36,-463.45 860.66,-465.45"/>
</g>
<!-- Node34&#45;&gt;Node26 -->
<g id="edge36" class="edge">
<title>Node34&#45;&gt;Node26</title>
<path fill="none" stroke="midnightblue" d="M753.28,-271.73C770.6,-266.67 790.09,-260.99 808.08,-255.74"/>
<polygon fill="midnightblue" stroke="midnightblue" points="809.27,-259.04 817.89,-252.88 807.31,-252.32 809.27,-259.04"/>
</g>
</g>
</svg>
