<?xml version="1.0" encoding="UTF-8" standalone="no"?>
<!DOCTYPE svg PUBLIC "-//W3C//DTD SVG 1.1//EN"
 "http://www.w3.org/Graphics/SVG/1.1/DTD/svg11.dtd">
<!-- Generated by graphviz version 2.43.0 (0)
 -->
<!-- Title: v8::internal::wasm::StructTypeBase::BuilderImpl::AddField Pages: 1 -->
<svg width="358pt" height="78pt"
 viewBox="0.00 0.00 358.00 77.50" xmlns="http://www.w3.org/2000/svg" xmlns:xlink="http://www.w3.org/1999/xlink">
<g id="graph0" class="graph" transform="scale(1 1) rotate(0) translate(4 73.5)">
<title>v8::internal::wasm::StructTypeBase::BuilderImpl::AddField</title>
<polygon fill="white" stroke="transparent" points="-4,4 -4,-73.5 354,-73.5 354,4 -4,4"/>
<!-- Node1 -->
<g id="node1" class="node">
<title>Node1</title>
<g id="a_node1"><a xlink:title=" ">
<polygon fill="#bfbfbf" stroke="black" points="0,-17 0,-58 160,-58 160,-17 0,-17"/>
<text text-anchor="start" x="8" y="-46" font-family="Helvetica,sans-Serif" font-size="10.00">v8::internal::wasm</text>
<text text-anchor="start" x="8" y="-35" font-family="Helvetica,sans-Serif" font-size="10.00">::StructTypeBase::BuilderImpl</text>
<text text-anchor="middle" x="80" y="-24" font-family="Helvetica,sans-Serif" font-size="10.00">::AddField</text>
</a>
</g>
</g>
<!-- Node2 -->
<g id="node2" class="node">
<title>Node2</title>
<g id="a_node2"><a xlink:href="namespacev8_1_1internal.html#aa6b3743bd5d773c552654f2a6c3efa4a" target="_top" xlink:title=" ">
<polygon fill="white" stroke="black" points="213.5,-50 213.5,-69 332.5,-69 332.5,-50 213.5,-50"/>
<text text-anchor="middle" x="273" y="-57" font-family="Helvetica,sans-Serif" font-size="10.00">v8::internal::DCHECK</text>
</a>
</g>
</g>
<!-- Node1&#45;&gt;Node2 -->
<g id="edge1" class="edge">
<title>Node1&#45;&gt;Node2</title>
<path fill="none" stroke="midnightblue" d="M160.07,-46.61C174.44,-48.26 189.32,-49.98 203.35,-51.59"/>
<polygon fill="midnightblue" stroke="midnightblue" points="203.07,-55.08 213.41,-52.75 203.88,-48.13 203.07,-55.08"/>
</g>
<!-- Node3 -->
<g id="node3" class="node">
<title>Node3</title>
<g id="a_node3"><a xlink:href="classv8_1_1internal_1_1wasm_1_1StructTypeBase.html#a1927b0b6f2449f663e27c9fd7b5eed78" target="_top" xlink:title=" ">
<polygon fill="white" stroke="black" points="196,-0.5 196,-30.5 350,-30.5 350,-0.5 196,-0.5"/>
<text text-anchor="start" x="204" y="-18.5" font-family="Helvetica,sans-Serif" font-size="10.00">v8::internal::wasm</text>
<text text-anchor="middle" x="273" y="-7.5" font-family="Helvetica,sans-Serif" font-size="10.00">::StructTypeBase::mutability</text>
</a>
</g>
</g>
<!-- Node1&#45;&gt;Node3 -->
<g id="edge2" class="edge">
<title>Node1&#45;&gt;Node3</title>
<path fill="none" stroke="midnightblue" d="M160.07,-28.39C168.55,-27.42 177.21,-26.42 185.77,-25.43"/>
<polygon fill="midnightblue" stroke="midnightblue" points="186.22,-28.9 195.76,-24.28 185.42,-21.95 186.22,-28.9"/>
</g>
</g>
</svg>
