<?xml version="1.0" encoding="UTF-8" standalone="no"?>
<!DOCTYPE svg PUBLIC "-//W3C//DTD SVG 1.1//EN"
 "http://www.w3.org/Graphics/SVG/1.1/DTD/svg11.dtd">
<!-- Generated by graphviz version 2.43.0 (0)
 -->
<!-- Title: v8::internal::compiler::RedundancyElimination::EffectPathChecks::LookupBoundsCheckFor Pages: 1 -->
<svg width="614pt" height="110pt"
 viewBox="0.00 0.00 614.00 110.00" xmlns="http://www.w3.org/2000/svg" xmlns:xlink="http://www.w3.org/1999/xlink">
<g id="graph0" class="graph" transform="scale(1 1) rotate(0) translate(4 106)">
<title>v8::internal::compiler::RedundancyElimination::EffectPathChecks::LookupBoundsCheckFor</title>
<polygon fill="white" stroke="transparent" points="-4,4 -4,-106 610,-106 610,4 -4,4"/>
<!-- Node1 -->
<g id="node1" class="node">
<title>Node1</title>
<g id="a_node1"><a xlink:title=" ">
<polygon fill="#bfbfbf" stroke="black" points="423,-25 423,-77 606,-77 606,-25 423,-25"/>
<text text-anchor="start" x="431" y="-65" font-family="Helvetica,sans-Serif" font-size="10.00">v8::internal::compiler</text>
<text text-anchor="start" x="431" y="-54" font-family="Helvetica,sans-Serif" font-size="10.00">::RedundancyElimination</text>
<text text-anchor="start" x="431" y="-43" font-family="Helvetica,sans-Serif" font-size="10.00">::EffectPathChecks::LookupBounds</text>
<text text-anchor="middle" x="514.5" y="-32" font-family="Helvetica,sans-Serif" font-size="10.00">CheckFor</text>
</a>
</g>
</g>
<!-- Node2 -->
<g id="node2" class="node">
<title>Node2</title>
<g id="a_node2"><a xlink:href="classv8_1_1internal_1_1compiler_1_1RedundancyElimination.html#ac30f51f99e923b164dc4360dfd9cba46" target="_top" xlink:title=" ">
<polygon fill="white" stroke="black" points="174,-60.5 174,-101.5 387,-101.5 387,-60.5 174,-60.5"/>
<text text-anchor="start" x="182" y="-89.5" font-family="Helvetica,sans-Serif" font-size="10.00">v8::internal::compiler</text>
<text text-anchor="start" x="182" y="-78.5" font-family="Helvetica,sans-Serif" font-size="10.00">::RedundancyElimination</text>
<text text-anchor="middle" x="280.5" y="-67.5" font-family="Helvetica,sans-Serif" font-size="10.00">::ReduceSpeculativeNumberComparison</text>
</a>
</g>
</g>
<!-- Node1&#45;&gt;Node2 -->
<g id="edge1" class="edge">
<title>Node1&#45;&gt;Node2</title>
<path fill="none" stroke="midnightblue" d="M412.87,-64.01C404.35,-65.11 395.71,-66.23 387.15,-67.34"/>
<polygon fill="midnightblue" stroke="midnightblue" points="413.34,-67.48 422.81,-62.73 412.44,-60.54 413.34,-67.48"/>
</g>
<!-- Node4 -->
<g id="node4" class="node">
<title>Node4</title>
<g id="a_node4"><a xlink:href="classv8_1_1internal_1_1compiler_1_1RedundancyElimination.html#ab627c94e61f0337be2b04d7519862720" target="_top" xlink:title=" ">
<polygon fill="white" stroke="black" points="179,-0.5 179,-41.5 382,-41.5 382,-0.5 179,-0.5"/>
<text text-anchor="start" x="187" y="-29.5" font-family="Helvetica,sans-Serif" font-size="10.00">v8::internal::compiler</text>
<text text-anchor="start" x="187" y="-18.5" font-family="Helvetica,sans-Serif" font-size="10.00">::RedundancyElimination</text>
<text text-anchor="middle" x="280.5" y="-7.5" font-family="Helvetica,sans-Serif" font-size="10.00">::ReduceSpeculativeNumberOperation</text>
</a>
</g>
</g>
<!-- Node1&#45;&gt;Node4 -->
<g id="edge3" class="edge">
<title>Node1&#45;&gt;Node4</title>
<path fill="none" stroke="midnightblue" d="M412.72,-37.97C402.57,-36.66 392.27,-35.32 382.12,-34.01"/>
<polygon fill="midnightblue" stroke="midnightblue" points="412.44,-41.46 422.81,-39.27 413.34,-34.52 412.44,-41.46"/>
</g>
<!-- Node3 -->
<g id="node3" class="node">
<title>Node3</title>
<g id="a_node3"><a xlink:href="classv8_1_1internal_1_1compiler_1_1RedundancyElimination.html#a7c11b6061e0cf7e6d1cda44ec18398fc" target="_top" xlink:title=" ">
<polygon fill="white" stroke="black" points="0,-30.5 0,-71.5 138,-71.5 138,-30.5 0,-30.5"/>
<text text-anchor="start" x="8" y="-59.5" font-family="Helvetica,sans-Serif" font-size="10.00">v8::internal::compiler</text>
<text text-anchor="start" x="8" y="-48.5" font-family="Helvetica,sans-Serif" font-size="10.00">::RedundancyElimination</text>
<text text-anchor="middle" x="69" y="-37.5" font-family="Helvetica,sans-Serif" font-size="10.00">::Reduce</text>
</a>
</g>
</g>
<!-- Node2&#45;&gt;Node3 -->
<g id="edge2" class="edge">
<title>Node2&#45;&gt;Node3</title>
<path fill="none" stroke="midnightblue" d="M163.92,-64.45C155.17,-63.2 146.52,-61.96 138.22,-60.77"/>
<polygon fill="midnightblue" stroke="midnightblue" points="163.43,-67.92 173.83,-65.87 164.43,-60.99 163.43,-67.92"/>
</g>
<!-- Node4&#45;&gt;Node3 -->
<g id="edge4" class="edge">
<title>Node4&#45;&gt;Node3</title>
<path fill="none" stroke="midnightblue" d="M168.76,-36.86C158.36,-38.35 148.04,-39.82 138.21,-41.23"/>
<polygon fill="midnightblue" stroke="midnightblue" points="169.34,-40.31 178.74,-35.43 168.34,-33.38 169.34,-40.31"/>
</g>
</g>
</svg>
