<?xml version="1.0" encoding="UTF-8" standalone="no"?>
<!DOCTYPE svg PUBLIC "-//W3C//DTD SVG 1.1//EN"
 "http://www.w3.org/Graphics/SVG/1.1/DTD/svg11.dtd">
<!-- Generated by graphviz version 2.43.0 (0)
 -->
<!-- Title: v8::internal::compiler::StateValueDescriptor Pages: 1 -->
<!--zoomable 760 -->
<svg id="main" version="1.1" xmlns="http://www.w3.org/2000/svg" xmlns:xlink="http://www.w3.org/1999/xlink" xml:space="preserve" onload="init(evt)">
<style type="text/css"><![CDATA[
.edge:hover path { stroke: red; }
.edge:hover polygon { stroke: red; fill: red; }
]]></style>
<script type="text/javascript"><![CDATA[
var edges = document.getElementsByTagName('g');
if (edges && edges.length) {
  for (var i=0;i<edges.length;i++) {
    if (edges[i].id.substr(0,4)=='edge') {
      edges[i].setAttribute('class','edge');
    }
  }
}
]]></script>
        <defs>
                <circle id="rim" cx="0" cy="0" r="7"/>
                <circle id="rim2" cx="0" cy="0" r="3.5"/>
                <g id="zoomPlus">
                        <use xlink:href="#rim" fill="#404040">
                                <set attributeName="fill" to="#808080" begin="zoomplus.mouseover" end="zoomplus.mouseout"/>
                        </use>
                        <path d="M-4,0h8M0,-4v8" fill="none" stroke="white" stroke-width="1.5" pointer-events="none"/>
                </g>
                <g id="zoomMin">
                        <use xlink:href="#rim" fill="#404040">
                                <set attributeName="fill" to="#808080" begin="zoomminus.mouseover" end="zoomminus.mouseout"/>
                        </use>
                        <path d="M-4,0h8" fill="none" stroke="white" stroke-width="1.5" pointer-events="none"/>
                </g>
                <g id="dirArrow">
                        <path fill="none" stroke="white" stroke-width="1.5" d="M0,-3.0v7 M-2.5,-0.5L0,-3.0L2.5,-0.5"/>
                </g>
               <g id="resetDef">
                       <use xlink:href="#rim2" fill="#404040">
                               <set attributeName="fill" to="#808080" begin="reset.mouseover" end="reset.mouseout"/>
                       </use>
               </g>
        </defs>

<script type="text/javascript">
var viewWidth = 591;
var viewHeight = 760;
var sectionId = 'dynsection-0';
</script>
<script xlink:href="svgpan.js"/>
<svg id="graph" class="graph">
<g id="viewport">
<title>v8::internal::compiler::StateValueDescriptor</title>
<polygon fill="white" stroke="transparent" points="-4,4 -4,-756 586.5,-756 586.5,4 -4,4"/>
<!-- Node1 -->
<g id="node1" class="node">
<title>Node1</title>
<g id="a_node1"><a xlink:title=" ">
<polygon fill="#bfbfbf" stroke="black" points="221,-0.5 221,-310.5 364,-310.5 364,-0.5 221,-0.5"/>
<text text-anchor="start" x="229" y="-298.5" font-family="Helvetica,sans-Serif" font-size="10.00">v8::internal::compiler</text>
<text text-anchor="middle" x="292.5" y="-287.5" font-family="Helvetica,sans-Serif" font-size="10.00">::StateValueDescriptor</text>
<polyline fill="none" stroke="black" points="221,-280.5 364,-280.5 "/>
<text text-anchor="middle" x="292.5" y="-268.5" font-family="Helvetica,sans-Serif" font-size="10.00"> </text>
<polyline fill="none" stroke="black" points="221,-261.5 364,-261.5 "/>
<text text-anchor="start" x="229" y="-249.5" font-family="Helvetica,sans-Serif" font-size="10.00">+ StateValueDescriptor()</text>
<text text-anchor="start" x="229" y="-238.5" font-family="Helvetica,sans-Serif" font-size="10.00">+ IsArgumentsElements()</text>
<text text-anchor="start" x="229" y="-227.5" font-family="Helvetica,sans-Serif" font-size="10.00">+ IsArgumentsLength()</text>
<text text-anchor="start" x="229" y="-216.5" font-family="Helvetica,sans-Serif" font-size="10.00">+ IsRestLength()</text>
<text text-anchor="start" x="229" y="-205.5" font-family="Helvetica,sans-Serif" font-size="10.00">+ IsPlain()</text>
<text text-anchor="start" x="229" y="-194.5" font-family="Helvetica,sans-Serif" font-size="10.00">+ IsOptimizedOut()</text>
<text text-anchor="start" x="229" y="-183.5" font-family="Helvetica,sans-Serif" font-size="10.00">+ IsNestedObject()</text>
<text text-anchor="start" x="229" y="-172.5" font-family="Helvetica,sans-Serif" font-size="10.00">+ IsNested()</text>
<text text-anchor="start" x="229" y="-161.5" font-family="Helvetica,sans-Serif" font-size="10.00">+ IsDuplicate()</text>
<text text-anchor="start" x="229" y="-150.5" font-family="Helvetica,sans-Serif" font-size="10.00">+ IsStringConcat()</text>
<text text-anchor="start" x="229" y="-139.5" font-family="Helvetica,sans-Serif" font-size="10.00">+ type()</text>
<text text-anchor="start" x="229" y="-128.5" font-family="Helvetica,sans-Serif" font-size="10.00">+ id()</text>
<text text-anchor="start" x="229" y="-117.5" font-family="Helvetica,sans-Serif" font-size="10.00">+ arguments_type()</text>
<text text-anchor="start" x="229" y="-106.5" font-family="Helvetica,sans-Serif" font-size="10.00">+ Print()</text>
<text text-anchor="start" x="229" y="-95.5" font-family="Helvetica,sans-Serif" font-size="10.00">+ ArgumentsElements()</text>
<text text-anchor="start" x="229" y="-84.5" font-family="Helvetica,sans-Serif" font-size="10.00">+ ArgumentsLength()</text>
<text text-anchor="start" x="229" y="-73.5" font-family="Helvetica,sans-Serif" font-size="10.00">+ RestLength()</text>
<text text-anchor="start" x="229" y="-62.5" font-family="Helvetica,sans-Serif" font-size="10.00">+ Plain()</text>
<text text-anchor="start" x="229" y="-51.5" font-family="Helvetica,sans-Serif" font-size="10.00">+ OptimizedOut()</text>
<text text-anchor="start" x="229" y="-40.5" font-family="Helvetica,sans-Serif" font-size="10.00">+ Recursive()</text>
<text text-anchor="start" x="229" y="-29.5" font-family="Helvetica,sans-Serif" font-size="10.00">+ Duplicate()</text>
<text text-anchor="start" x="229" y="-18.5" font-family="Helvetica,sans-Serif" font-size="10.00">+ StringConcat()</text>
<text text-anchor="start" x="229" y="-7.5" font-family="Helvetica,sans-Serif" font-size="10.00">&#45; StateValueDescriptor()</text>
</a>
</g>
</g>
<!-- Node2 -->
<g id="node2" class="node">
<title>Node2</title>
<g id="a_node2"><a xlink:title=" ">
<polygon fill="white" stroke="#bfbfbf" points="0,-474 0,-531 91,-531 91,-474 0,-474"/>
<text text-anchor="middle" x="45.5" y="-519" font-family="Helvetica,sans-Serif" font-size="10.00">StateValueKind</text>
<polyline fill="none" stroke="#bfbfbf" points="0,-512 91,-512 "/>
<text text-anchor="middle" x="45.5" y="-500" font-family="Helvetica,sans-Serif" font-size="10.00"> </text>
<polyline fill="none" stroke="#bfbfbf" points="0,-493 91,-493 "/>
<text text-anchor="middle" x="45.5" y="-481" font-family="Helvetica,sans-Serif" font-size="10.00"> </text>
</a>
</g>
</g>
<!-- Node2&#45;&gt;Node1 -->
<g id="edge1" class="edge">
<title>Node2&#45;&gt;Node1</title>
<path fill="none" stroke="#404040" d="M52.57,-473.83C61.03,-443.77 77.05,-395.1 100.5,-358 130.97,-309.79 174.16,-263.19 211.86,-226.98"/>
<polygon fill="none" stroke="#404040" points="212.12,-226.74 213.71,-219.71 220.82,-218.48 219.22,-225.51 212.12,-226.74"/>
<text text-anchor="middle" x="134.5" y="-332" font-family="Helvetica,sans-Serif" font-size="10.00"> &#45;kind_</text>
</g>
<!-- Node3 -->
<g id="node3" class="node">
<title>Node3</title>
<g id="a_node3"><a xlink:title=" ">
<polygon fill="white" stroke="#bfbfbf" points="109.5,-474 109.5,-531 211.5,-531 211.5,-474 109.5,-474"/>
<text text-anchor="middle" x="160.5" y="-519" font-family="Helvetica,sans-Serif" font-size="10.00">anonymous:&#45;@40</text>
<polyline fill="none" stroke="#bfbfbf" points="109.5,-512 211.5,-512 "/>
<text text-anchor="middle" x="160.5" y="-500" font-family="Helvetica,sans-Serif" font-size="10.00"> </text>
<polyline fill="none" stroke="#bfbfbf" points="109.5,-493 211.5,-493 "/>
<text text-anchor="middle" x="160.5" y="-481" font-family="Helvetica,sans-Serif" font-size="10.00"> </text>
</a>
</g>
</g>
<!-- Node3&#45;&gt;Node1 -->
<g id="edge2" class="edge">
<title>Node3&#45;&gt;Node1</title>
<path fill="none" stroke="#404040" d="M171.08,-473.85C183.95,-440.2 206.76,-380.6 229.15,-322.07"/>
<polygon fill="none" stroke="#404040" points="229.19,-321.98 227.59,-314.95 233.47,-310.77 235.07,-317.81 229.19,-321.98"/>
<text text-anchor="middle" x="241" y="-332" font-family="Helvetica,sans-Serif" font-size="10.00"> &#45;@40</text>
</g>
<!-- Node4 -->
<g id="node4" class="node">
<title>Node4</title>
<g id="a_node4"><a xlink:title=" ">
<polygon fill="white" stroke="#bfbfbf" points="230,-474 230,-531 355,-531 355,-474 230,-474"/>
<text text-anchor="middle" x="292.5" y="-519" font-family="Helvetica,sans-Serif" font-size="10.00">CreateArgumentsType</text>
<polyline fill="none" stroke="#bfbfbf" points="230,-512 355,-512 "/>
<text text-anchor="middle" x="292.5" y="-500" font-family="Helvetica,sans-Serif" font-size="10.00"> </text>
<polyline fill="none" stroke="#bfbfbf" points="230,-493 355,-493 "/>
<text text-anchor="middle" x="292.5" y="-481" font-family="Helvetica,sans-Serif" font-size="10.00"> </text>
</a>
</g>
</g>
<!-- Node4&#45;&gt;Node1 -->
<g id="edge3" class="edge">
<title>Node4&#45;&gt;Node1</title>
<path fill="none" stroke="#404040" d="M292.5,-473.85C292.5,-440.34 292.5,-381.1 292.5,-322.8"/>
<polygon fill="none" stroke="#404040" points="292.5,-322.77 288.5,-316.77 292.5,-310.77 296.5,-316.77 292.5,-322.77"/>
<text text-anchor="middle" x="325" y="-332" font-family="Helvetica,sans-Serif" font-size="10.00"> +args_type_</text>
</g>
<!-- Node5 -->
<g id="node5" class="node">
<title>Node5</title>
<g id="a_node5"><a xlink:href="classv8_1_1internal_1_1MachineType.html" target="_top" xlink:title=" ">
<polygon fill="white" stroke="black" points="373.5,-358.5 373.5,-646.5 517.5,-646.5 517.5,-358.5 373.5,-358.5"/>
<text text-anchor="middle" x="445.5" y="-634.5" font-family="Helvetica,sans-Serif" font-size="10.00">v8::internal::MachineType</text>
<polyline fill="none" stroke="black" points="373.5,-627.5 517.5,-627.5 "/>
<text text-anchor="middle" x="445.5" y="-615.5" font-family="Helvetica,sans-Serif" font-size="10.00"> </text>
<polyline fill="none" stroke="black" points="373.5,-608.5 517.5,-608.5 "/>
<text text-anchor="start" x="381.5" y="-596.5" font-family="Helvetica,sans-Serif" font-size="10.00">+ MachineType()</text>
<text text-anchor="start" x="381.5" y="-585.5" font-family="Helvetica,sans-Serif" font-size="10.00">+ MachineType()</text>
<text text-anchor="start" x="381.5" y="-574.5" font-family="Helvetica,sans-Serif" font-size="10.00">+ operator==()</text>
<text text-anchor="start" x="381.5" y="-563.5" font-family="Helvetica,sans-Serif" font-size="10.00">+ operator!=()</text>
<text text-anchor="start" x="381.5" y="-552.5" font-family="Helvetica,sans-Serif" font-size="10.00">+ representation()</text>
<text text-anchor="start" x="381.5" y="-541.5" font-family="Helvetica,sans-Serif" font-size="10.00">+ semantic()</text>
<text text-anchor="start" x="381.5" y="-530.5" font-family="Helvetica,sans-Serif" font-size="10.00">+ IsNone()</text>
<text text-anchor="start" x="381.5" y="-519.5" font-family="Helvetica,sans-Serif" font-size="10.00">+ IsMapWord()</text>
<text text-anchor="start" x="381.5" y="-508.5" font-family="Helvetica,sans-Serif" font-size="10.00">+ IsSigned()</text>
<text text-anchor="start" x="381.5" y="-497.5" font-family="Helvetica,sans-Serif" font-size="10.00">+ IsUnsigned()</text>
<text text-anchor="start" x="381.5" y="-486.5" font-family="Helvetica,sans-Serif" font-size="10.00">and 8 more...</text>
<text text-anchor="start" x="381.5" y="-475.5" font-family="Helvetica,sans-Serif" font-size="10.00">+ PointerRepresentation()</text>
<text text-anchor="start" x="381.5" y="-464.5" font-family="Helvetica,sans-Serif" font-size="10.00">+ UintPtr()</text>
<text text-anchor="start" x="381.5" y="-453.5" font-family="Helvetica,sans-Serif" font-size="10.00">+ IntPtr()</text>
<text text-anchor="start" x="381.5" y="-442.5" font-family="Helvetica,sans-Serif" font-size="10.00">+ Int8()</text>
<text text-anchor="start" x="381.5" y="-431.5" font-family="Helvetica,sans-Serif" font-size="10.00">+ Uint8()</text>
<text text-anchor="start" x="381.5" y="-420.5" font-family="Helvetica,sans-Serif" font-size="10.00">+ Int16()</text>
<text text-anchor="start" x="381.5" y="-409.5" font-family="Helvetica,sans-Serif" font-size="10.00">+ Uint16()</text>
<text text-anchor="start" x="381.5" y="-398.5" font-family="Helvetica,sans-Serif" font-size="10.00">+ Int32()</text>
<text text-anchor="start" x="381.5" y="-387.5" font-family="Helvetica,sans-Serif" font-size="10.00">+ Uint32()</text>
<text text-anchor="start" x="381.5" y="-376.5" font-family="Helvetica,sans-Serif" font-size="10.00">+ Int64()</text>
<text text-anchor="start" x="381.5" y="-365.5" font-family="Helvetica,sans-Serif" font-size="10.00">and 23 more...</text>
</a>
</g>
</g>
<!-- Node5&#45;&gt;Node1 -->
<g id="edge4" class="edge">
<title>Node5&#45;&gt;Node1</title>
<path fill="none" stroke="#404040" d="M381.94,-358.19C376.6,-346.14 371.17,-333.89 365.76,-321.7"/>
<polygon fill="none" stroke="#404040" points="365.67,-321.49 359.58,-317.63 360.8,-310.52 366.89,-314.38 365.67,-321.49"/>
<text text-anchor="middle" x="390.5" y="-332" font-family="Helvetica,sans-Serif" font-size="10.00"> &#45;type_</text>
</g>
<!-- Node6 -->
<g id="node6" class="node">
<title>Node6</title>
<g id="a_node6"><a xlink:title=" ">
<polygon fill="white" stroke="#bfbfbf" points="325.5,-694.5 325.5,-751.5 429.5,-751.5 429.5,-694.5 325.5,-694.5"/>
<text text-anchor="middle" x="377.5" y="-739.5" font-family="Helvetica,sans-Serif" font-size="10.00">MachineSemantic</text>
<polyline fill="none" stroke="#bfbfbf" points="325.5,-732.5 429.5,-732.5 "/>
<text text-anchor="middle" x="377.5" y="-720.5" font-family="Helvetica,sans-Serif" font-size="10.00"> </text>
<polyline fill="none" stroke="#bfbfbf" points="325.5,-713.5 429.5,-713.5 "/>
<text text-anchor="middle" x="377.5" y="-701.5" font-family="Helvetica,sans-Serif" font-size="10.00"> </text>
</a>
</g>
</g>
<!-- Node6&#45;&gt;Node5 -->
<g id="edge5" class="edge">
<title>Node6&#45;&gt;Node5</title>
<path fill="none" stroke="#404040" d="M386.11,-694.33C389.27,-684.19 393.1,-671.87 397.28,-658.43"/>
<polygon fill="none" stroke="#404040" points="397.31,-658.36 395.27,-651.44 400.87,-646.9 402.91,-653.82 397.31,-658.36"/>
<text text-anchor="middle" x="422.5" y="-668" font-family="Helvetica,sans-Serif" font-size="10.00"> &#45;semantic_</text>
</g>
<!-- Node7 -->
<g id="node7" class="node">
<title>Node7</title>
<g id="a_node7"><a xlink:title=" ">
<polygon fill="white" stroke="#bfbfbf" points="447.5,-694.5 447.5,-751.5 579.5,-751.5 579.5,-694.5 447.5,-694.5"/>
<text text-anchor="middle" x="513.5" y="-739.5" font-family="Helvetica,sans-Serif" font-size="10.00">MachineRepresentation</text>
<polyline fill="none" stroke="#bfbfbf" points="447.5,-732.5 579.5,-732.5 "/>
<text text-anchor="middle" x="513.5" y="-720.5" font-family="Helvetica,sans-Serif" font-size="10.00"> </text>
<polyline fill="none" stroke="#bfbfbf" points="447.5,-713.5 579.5,-713.5 "/>
<text text-anchor="middle" x="513.5" y="-701.5" font-family="Helvetica,sans-Serif" font-size="10.00"> </text>
</a>
</g>
</g>
<!-- Node7&#45;&gt;Node5 -->
<g id="edge6" class="edge">
<title>Node7&#45;&gt;Node5</title>
<path fill="none" stroke="#404040" d="M504.89,-694.33C501.73,-684.19 497.9,-671.87 493.72,-658.43"/>
<polygon fill="none" stroke="#404040" points="493.69,-658.36 488.09,-653.82 490.13,-646.9 495.73,-651.44 493.69,-658.36"/>
<text text-anchor="middle" x="540.5" y="-668" font-family="Helvetica,sans-Serif" font-size="10.00"> &#45;representation_</text>
</g>
<!-- Node8 -->
<g id="node8" class="node">
<title>Node8</title>
<g id="a_node8"><a xlink:title=" ">
<polygon fill="white" stroke="#bfbfbf" points="536,-474 536,-531 581,-531 581,-474 536,-474"/>
<text text-anchor="middle" x="558.5" y="-519" font-family="Helvetica,sans-Serif" font-size="10.00">size_t</text>
<polyline fill="none" stroke="#bfbfbf" points="536,-512 581,-512 "/>
<text text-anchor="middle" x="558.5" y="-500" font-family="Helvetica,sans-Serif" font-size="10.00"> </text>
<polyline fill="none" stroke="#bfbfbf" points="536,-493 581,-493 "/>
<text text-anchor="middle" x="558.5" y="-481" font-family="Helvetica,sans-Serif" font-size="10.00"> </text>
</a>
</g>
</g>
<!-- Node8&#45;&gt;Node1 -->
<g id="edge7" class="edge">
<title>Node8&#45;&gt;Node1</title>
<path fill="none" stroke="#404040" d="M557.47,-473.97C555.22,-443.6 548.21,-394.24 526.5,-358 489.12,-295.59 425.61,-242.72 374.19,-206.82"/>
<polygon fill="none" stroke="#404040" points="373.96,-206.67 366.75,-206.56 364.07,-199.87 371.28,-199.97 373.96,-206.67"/>
<text text-anchor="middle" x="525.5" y="-332" font-family="Helvetica,sans-Serif" font-size="10.00"> +id_</text>
</g>
</g>
</svg>
        <g id="navigator" transform="translate(0 0)" fill="#404254">
                <rect fill="#f2f5e9" fill-opacity="0.5" stroke="#606060" stroke-width=".5" x="0" y="0" width="60" height="60"/>
                <use id="zoomplus" xlink:href="#zoomPlus" x="17" y="9" onmousedown="handleZoom(evt,'in')"/>
                <use id="zoomminus" xlink:href="#zoomMin" x="42" y="9" onmousedown="handleZoom(evt,'out')"/>
                <use id="reset" xlink:href="#resetDef" x="30" y="36" onmousedown="handleReset()"/>
                <g id="arrowUp" xlink:href="#dirArrow" transform="translate(30 24)" onmousedown="handlePan(0,-1)">
                  <use xlink:href="#rim" fill="#404040">
                        <set attributeName="fill" to="#808080" begin="arrowUp.mouseover" end="arrowUp.mouseout"/>
                  </use>
                  <path fill="none" stroke="white" stroke-width="1.5" d="M0,-3.0v7 M-2.5,-0.5L0,-3.0L2.5,-0.5"/>
                </g>
                <g id="arrowRight" xlink:href="#dirArrow" transform="rotate(90) translate(36 -43)" onmousedown="handlePan(1,0)">
                  <use xlink:href="#rim" fill="#404040">
                        <set attributeName="fill" to="#808080" begin="arrowRight.mouseover" end="arrowRight.mouseout"/>
                  </use>
                  <path fill="none" stroke="white" stroke-width="1.5" d="M0,-3.0v7 M-2.5,-0.5L0,-3.0L2.5,-0.5"/>
                </g>
                <g id="arrowDown" xlink:href="#dirArrow" transform="rotate(180) translate(-30 -48)" onmousedown="handlePan(0,1)">
                  <use xlink:href="#rim" fill="#404040">
                        <set attributeName="fill" to="#808080" begin="arrowDown.mouseover" end="arrowDown.mouseout"/>
                  </use>
                  <path fill="none" stroke="white" stroke-width="1.5" d="M0,-3.0v7 M-2.5,-0.5L0,-3.0L2.5,-0.5"/>
                </g>
                <g id="arrowLeft" xlink:href="#dirArrow" transform="rotate(270) translate(-36 17)" onmousedown="handlePan(-1,0)">
                  <use xlink:href="#rim" fill="#404040">
                        <set attributeName="fill" to="#808080" begin="arrowLeft.mouseover" end="arrowLeft.mouseout"/>
                  </use>
                  <path fill="none" stroke="white" stroke-width="1.5" d="M0,-3.0v7 M-2.5,-0.5L0,-3.0L2.5,-0.5"/>
                </g>
        </g>
        <svg viewBox="0 0 15 15" width="100%" height="30px" preserveAspectRatio="xMaxYMin meet">
         <g id="arrow_out" transform="scale(0.3 0.3)">
          <a xlink:href="classv8_1_1internal_1_1compiler_1_1StateValueDescriptor__coll__graph_org.svg" target="_base">
           <rect id="button" ry="5" rx="5" y="6" x="6" height="38" width="38"
                fill="#f2f5e9" fill-opacity="0.5" stroke="#606060" stroke-width="1.0"/>
           <path id="arrow"
             d="M 11.500037,31.436501 C 11.940474,20.09759 22.043105,11.32322 32.158766,21.979434 L 37.068811,17.246167 C 37.068811,17.246167 37.088388,32 37.088388,32 L 22.160133,31.978069 C 22.160133,31.978069 26.997745,27.140456 26.997745,27.140456 C 18.528582,18.264221 13.291696,25.230495 11.500037,31.436501 z"
             style="fill:#404040;"/>
          </a>
         </g>
        </svg>
</svg>
