<?xml version="1.0" encoding="UTF-8" standalone="no"?>
<!DOCTYPE svg PUBLIC "-//W3C//DTD SVG 1.1//EN"
 "http://www.w3.org/Graphics/SVG/1.1/DTD/svg11.dtd">
<!-- Generated by graphviz version 2.43.0 (0)
 -->
<!-- Title: v8::internal::ProfilerCodeObserver::ProfilerCodeObserver Pages: 1 -->
<svg width="1012pt" height="611pt"
 viewBox="0.00 0.00 1012.00 611.00" xmlns="http://www.w3.org/2000/svg" xmlns:xlink="http://www.w3.org/1999/xlink">
<g id="graph0" class="graph" transform="scale(1 1) rotate(0) translate(4 607)">
<title>v8::internal::ProfilerCodeObserver::ProfilerCodeObserver</title>
<polygon fill="white" stroke="transparent" points="-4,4 -4,-607 1008,-607 1008,4 -4,4"/>
<!-- Node1 -->
<g id="node1" class="node">
<title>Node1</title>
<g id="a_node1"><a xlink:title=" ">
<polygon fill="#bfbfbf" stroke="black" points="0,-291.5 0,-321.5 170,-321.5 170,-291.5 0,-291.5"/>
<text text-anchor="start" x="8" y="-309.5" font-family="Helvetica,sans-Serif" font-size="10.00">v8::internal::ProfilerCode</text>
<text text-anchor="middle" x="85" y="-298.5" font-family="Helvetica,sans-Serif" font-size="10.00">Observer::ProfilerCodeObserver</text>
</a>
</g>
</g>
<!-- Node2 -->
<g id="node2" class="node">
<title>Node2</title>
<g id="a_node2"><a xlink:href="classv8_1_1internal_1_1ProfilerCodeObserver.html#addfb29c628dd1a92c382666b7355a086" target="_top" xlink:title=" ">
<polygon fill="white" stroke="black" points="206,-423 206,-464 395,-464 395,-423 206,-423"/>
<text text-anchor="start" x="214" y="-452" font-family="Helvetica,sans-Serif" font-size="10.00">v8::internal::ProfilerCode</text>
<text text-anchor="start" x="214" y="-441" font-family="Helvetica,sans-Serif" font-size="10.00">Observer::CreateEntriesForRuntime</text>
<text text-anchor="middle" x="300.5" y="-430" font-family="Helvetica,sans-Serif" font-size="10.00">CallStats</text>
</a>
</g>
</g>
<!-- Node1&#45;&gt;Node2 -->
<g id="edge1" class="edge">
<title>Node1&#45;&gt;Node2</title>
<path fill="none" stroke="midnightblue" d="M109.66,-321.68C145.7,-344.81 214.78,-389.13 258.92,-417.46"/>
<polygon fill="midnightblue" stroke="midnightblue" points="257.1,-420.45 267.4,-422.9 260.88,-414.56 257.1,-420.45"/>
</g>
<!-- Node14 -->
<g id="node11" class="node">
<title>Node14</title>
<g id="a_node11"><a xlink:href="classv8_1_1internal_1_1ProfilerCodeObserver.html#ab9ac98131afd97af48cfa02fb54f0685" target="_top" xlink:title=" ">
<polygon fill="white" stroke="black" points="232,-176.5 232,-206.5 369,-206.5 369,-176.5 232,-176.5"/>
<text text-anchor="start" x="240" y="-194.5" font-family="Helvetica,sans-Serif" font-size="10.00">v8::internal::ProfilerCode</text>
<text text-anchor="middle" x="300.5" y="-183.5" font-family="Helvetica,sans-Serif" font-size="10.00">Observer::LogBuiltins</text>
</a>
</g>
</g>
<!-- Node1&#45;&gt;Node14 -->
<g id="edge10" class="edge">
<title>Node1&#45;&gt;Node14</title>
<path fill="none" stroke="midnightblue" d="M113.91,-291.47C152.03,-270.93 220.46,-234.08 262.72,-211.31"/>
<polygon fill="midnightblue" stroke="midnightblue" points="264.44,-214.36 271.58,-206.54 261.12,-208.2 264.44,-214.36"/>
</g>
<!-- Node3 -->
<g id="node3" class="node">
<title>Node3</title>
<g id="a_node3"><a xlink:href="classv8_1_1internal_1_1InstructionStreamMap.html#a4d85c00466456e046e5595af221d20ab" target="_top" xlink:title=" ">
<polygon fill="white" stroke="black" points="463.5,-548.5 463.5,-578.5 593.5,-578.5 593.5,-548.5 463.5,-548.5"/>
<text text-anchor="start" x="471.5" y="-566.5" font-family="Helvetica,sans-Serif" font-size="10.00">v8::internal::Instruction</text>
<text text-anchor="middle" x="528.5" y="-555.5" font-family="Helvetica,sans-Serif" font-size="10.00">StreamMap::AddCode</text>
</a>
</g>
</g>
<!-- Node2&#45;&gt;Node3 -->
<g id="edge2" class="edge">
<title>Node2&#45;&gt;Node3</title>
<path fill="none" stroke="midnightblue" d="M323.57,-464.2C348.02,-486.03 389.49,-519.92 431,-539.5 438.22,-542.9 445.97,-545.86 453.83,-548.42"/>
<polygon fill="midnightblue" stroke="midnightblue" points="452.87,-551.79 463.45,-551.35 454.91,-545.09 452.87,-551.79"/>
</g>
<!-- Node6 -->
<g id="node6" class="node">
<title>Node6</title>
<g id="a_node6"><a xlink:href="classv8_1_1internal_1_1Isolate.html#a9690b82e4f9b4c8a9160630396cde0b3" target="_top" xlink:title=" ">
<polygon fill="white" stroke="black" points="473,-499.5 473,-529.5 584,-529.5 584,-499.5 473,-499.5"/>
<text text-anchor="start" x="481" y="-517.5" font-family="Helvetica,sans-Serif" font-size="10.00">v8::internal::Isolate</text>
<text text-anchor="middle" x="528.5" y="-506.5" font-family="Helvetica,sans-Serif" font-size="10.00">::counters</text>
</a>
</g>
</g>
<!-- Node2&#45;&gt;Node6 -->
<g id="edge5" class="edge">
<title>Node2&#45;&gt;Node6</title>
<path fill="none" stroke="midnightblue" d="M354.32,-464.08C377.64,-472.8 405.49,-482.72 431,-490.5 441.3,-493.64 452.32,-496.68 463.08,-499.47"/>
<polygon fill="midnightblue" stroke="midnightblue" points="462.32,-502.89 472.87,-501.97 464.05,-496.11 462.32,-502.89"/>
</g>
<!-- Node7 -->
<g id="node7" class="node">
<title>Node7</title>
<g id="a_node7"><a xlink:href="classv8_1_1internal_1_1CodeEntryStorage.html#a63a8206577bbfe5e90d471da882c7a2f" target="_top" xlink:title=" ">
<polygon fill="white" stroke="black" points="445.5,-450.5 445.5,-480.5 611.5,-480.5 611.5,-450.5 445.5,-450.5"/>
<text text-anchor="start" x="453.5" y="-468.5" font-family="Helvetica,sans-Serif" font-size="10.00">v8::internal::CodeEntryStorage</text>
<text text-anchor="middle" x="528.5" y="-457.5" font-family="Helvetica,sans-Serif" font-size="10.00">::Create</text>
</a>
</g>
</g>
<!-- Node2&#45;&gt;Node7 -->
<g id="edge6" class="edge">
<title>Node2&#45;&gt;Node7</title>
<path fill="none" stroke="midnightblue" d="M395.05,-452.61C408.31,-453.9 421.94,-455.22 435.17,-456.51"/>
<polygon fill="midnightblue" stroke="midnightblue" points="434.91,-460 445.2,-457.49 435.59,-453.04 434.91,-460"/>
</g>
<!-- Node12 -->
<g id="node9" class="node">
<title>Node12</title>
<g id="a_node9"><a xlink:href="namespacev8_1_1internal.html#aa6b3743bd5d773c552654f2a6c3efa4a" target="_top" xlink:title=" ">
<polygon fill="white" stroke="black" points="868,-214 868,-233 987,-233 987,-214 868,-214"/>
<text text-anchor="middle" x="927.5" y="-221" font-family="Helvetica,sans-Serif" font-size="10.00">v8::internal::DCHECK</text>
</a>
</g>
</g>
<!-- Node2&#45;&gt;Node12 -->
<g id="edge8" class="edge">
<title>Node2&#45;&gt;Node12</title>
<path fill="none" stroke="midnightblue" d="M395.33,-439.24C460.97,-434.42 550.11,-424.2 626,-402.5 714.91,-377.07 736.68,-364.67 815,-315.5 851.03,-292.88 888.23,-259.88 909.25,-240.17"/>
<polygon fill="midnightblue" stroke="midnightblue" points="911.88,-242.49 916.73,-233.07 907.07,-237.41 911.88,-242.49"/>
</g>
<!-- Node13 -->
<g id="node10" class="node">
<title>Node13</title>
<g id="a_node10"><a xlink:href="classv8_1_1internal_1_1Counters.html#aa27049ebe05a1e1a0df0d0a03f679b9d" target="_top" xlink:title=" ">
<polygon fill="white" stroke="black" points="467.5,-362.5 467.5,-392.5 589.5,-392.5 589.5,-362.5 467.5,-362.5"/>
<text text-anchor="start" x="475.5" y="-380.5" font-family="Helvetica,sans-Serif" font-size="10.00">v8::internal::Counters</text>
<text text-anchor="middle" x="528.5" y="-369.5" font-family="Helvetica,sans-Serif" font-size="10.00">::runtime_call_stats</text>
</a>
</g>
</g>
<!-- Node2&#45;&gt;Node13 -->
<g id="edge9" class="edge">
<title>Node2&#45;&gt;Node13</title>
<path fill="none" stroke="midnightblue" d="M371.77,-422.98C402.04,-414.14 437.1,-403.9 466.29,-395.38"/>
<polygon fill="midnightblue" stroke="midnightblue" points="467.33,-398.72 475.94,-392.56 465.36,-392 467.33,-398.72"/>
</g>
<!-- Node4 -->
<g id="node4" class="node">
<title>Node4</title>
<g id="a_node4"><a xlink:href="classv8_1_1internal_1_1CodeEntry.html#ab9610be3c4de859f2b638b28ede075fc" target="_top" xlink:title=" ">
<polygon fill="white" stroke="black" points="674.5,-572.5 674.5,-602.5 802.5,-602.5 802.5,-572.5 674.5,-572.5"/>
<text text-anchor="start" x="682.5" y="-590.5" font-family="Helvetica,sans-Serif" font-size="10.00">v8::internal::CodeEntry</text>
<text text-anchor="middle" x="738.5" y="-579.5" font-family="Helvetica,sans-Serif" font-size="10.00">::set_instruction_start</text>
</a>
</g>
</g>
<!-- Node3&#45;&gt;Node4 -->
<g id="edge3" class="edge">
<title>Node3&#45;&gt;Node4</title>
<path fill="none" stroke="midnightblue" d="M593.6,-570.9C615.96,-573.48 641.21,-576.39 664.26,-579.05"/>
<polygon fill="midnightblue" stroke="midnightblue" points="663.99,-582.54 674.32,-580.21 664.79,-575.59 663.99,-582.54"/>
</g>
<!-- Node5 -->
<g id="node5" class="node">
<title>Node5</title>
<g id="a_node5"><a xlink:href="classv8_1_1internal_1_1InstructionStreamMap.html#ac76e913fc95783821c8dc8b169384e6e" target="_top" xlink:title=" ">
<polygon fill="white" stroke="black" points="673.5,-523.5 673.5,-553.5 803.5,-553.5 803.5,-523.5 673.5,-523.5"/>
<text text-anchor="start" x="681.5" y="-541.5" font-family="Helvetica,sans-Serif" font-size="10.00">v8::internal::Instruction</text>
<text text-anchor="middle" x="738.5" y="-530.5" font-family="Helvetica,sans-Serif" font-size="10.00">StreamMap::size</text>
</a>
</g>
</g>
<!-- Node3&#45;&gt;Node5 -->
<g id="edge4" class="edge">
<title>Node3&#45;&gt;Node5</title>
<path fill="none" stroke="midnightblue" d="M593.6,-555.8C615.65,-553.15 640.51,-550.16 663.29,-547.42"/>
<polygon fill="midnightblue" stroke="midnightblue" points="663.74,-550.89 673.25,-546.22 662.9,-543.94 663.74,-550.89"/>
</g>
<!-- Node8 -->
<g id="node8" class="node">
<title>Node8</title>
<g id="a_node8"><a xlink:href="classv8_1_1internal_1_1CodeEntry.html#a5e3b944e1a6defa2cc5c77dc1370be9c" target="_top" xlink:title=" ">
<polygon fill="white" stroke="red" points="674.5,-450.5 674.5,-480.5 802.5,-480.5 802.5,-450.5 674.5,-450.5"/>
<text text-anchor="start" x="682.5" y="-468.5" font-family="Helvetica,sans-Serif" font-size="10.00">v8::internal::CodeEntry</text>
<text text-anchor="middle" x="738.5" y="-457.5" font-family="Helvetica,sans-Serif" font-size="10.00">::mark_ref_counted</text>
</a>
</g>
</g>
<!-- Node7&#45;&gt;Node8 -->
<g id="edge7" class="edge">
<title>Node7&#45;&gt;Node8</title>
<path fill="none" stroke="midnightblue" d="M611.71,-465.5C629.01,-465.5 647.16,-465.5 664.11,-465.5"/>
<polygon fill="midnightblue" stroke="midnightblue" points="664.49,-469 674.49,-465.5 664.49,-462 664.49,-469"/>
</g>
<!-- Node14&#45;&gt;Node12 -->
<g id="edge17" class="edge">
<title>Node14&#45;&gt;Node12</title>
<path fill="none" stroke="midnightblue" d="M311.37,-206.58C330.51,-234.28 375.71,-292.43 431,-314.5 601.25,-382.47 824.86,-278.15 900.34,-238.09"/>
<polygon fill="midnightblue" stroke="midnightblue" points="902.44,-240.93 909.59,-233.1 899.12,-234.77 902.44,-240.93"/>
</g>
<!-- Node15 -->
<g id="node12" class="node">
<title>Node15</title>
<g id="a_node12"><a xlink:href="classv8_1_1internal_1_1Isolate.html#a6cb0edf57f829ea37a9a48a3e6bc007d" target="_top" xlink:title=" ">
<polygon fill="white" stroke="black" points="473,-274.5 473,-304.5 584,-304.5 584,-274.5 473,-274.5"/>
<text text-anchor="start" x="481" y="-292.5" font-family="Helvetica,sans-Serif" font-size="10.00">v8::internal::Isolate</text>
<text text-anchor="middle" x="528.5" y="-281.5" font-family="Helvetica,sans-Serif" font-size="10.00">::builtins</text>
</a>
</g>
</g>
<!-- Node14&#45;&gt;Node15 -->
<g id="edge11" class="edge">
<title>Node14&#45;&gt;Node15</title>
<path fill="none" stroke="midnightblue" d="M323.47,-206.57C348.5,-223.13 391.1,-249.5 431,-265.5 441.12,-269.56 452.12,-273.08 462.95,-276.07"/>
<polygon fill="midnightblue" stroke="midnightblue" points="462.26,-279.51 472.82,-278.68 464.05,-272.74 462.26,-279.51"/>
</g>
<!-- Node16 -->
<g id="node13" class="node">
<title>Node16</title>
<g id="a_node13"><a xlink:href="classv8_1_1internal_1_1Builtins.html#a2260f6f209a0b9af26f64d5cf774018b" target="_top" xlink:title=" ">
<polygon fill="white" stroke="black" points="471,-225.5 471,-255.5 586,-255.5 586,-225.5 471,-225.5"/>
<text text-anchor="start" x="479" y="-243.5" font-family="Helvetica,sans-Serif" font-size="10.00">v8::internal::Builtins</text>
<text text-anchor="middle" x="528.5" y="-232.5" font-family="Helvetica,sans-Serif" font-size="10.00">::code</text>
</a>
</g>
</g>
<!-- Node14&#45;&gt;Node16 -->
<g id="edge12" class="edge">
<title>Node14&#45;&gt;Node16</title>
<path fill="none" stroke="midnightblue" d="M369,-206.14C397.97,-212.42 431.73,-219.74 460.63,-226"/>
<polygon fill="midnightblue" stroke="midnightblue" points="460.12,-229.47 470.64,-228.17 461.61,-222.63 460.12,-229.47"/>
</g>
<!-- Node19 -->
<g id="node16" class="node">
<title>Node19</title>
<g id="a_node16"><a xlink:href="classv8_1_1internal_1_1ProfilerCodeObserver.html#aba030a6ccfb7ce908d02c29cca2c9028" target="_top" xlink:title=" ">
<polygon fill="white" stroke="black" points="431,-176.5 431,-206.5 626,-206.5 626,-176.5 431,-176.5"/>
<text text-anchor="start" x="439" y="-194.5" font-family="Helvetica,sans-Serif" font-size="10.00">v8::internal::ProfilerCode</text>
<text text-anchor="middle" x="528.5" y="-183.5" font-family="Helvetica,sans-Serif" font-size="10.00">Observer::CodeEventHandlerInternal</text>
</a>
</g>
</g>
<!-- Node14&#45;&gt;Node19 -->
<g id="edge16" class="edge">
<title>Node14&#45;&gt;Node19</title>
<path fill="none" stroke="midnightblue" d="M369,-191.5C385.2,-191.5 402.9,-191.5 420.41,-191.5"/>
<polygon fill="midnightblue" stroke="midnightblue" points="420.68,-195 430.68,-191.5 420.68,-188 420.68,-195"/>
</g>
<!-- Node20 -->
<g id="node17" class="node">
<title>Node20</title>
<g id="a_node17"><a xlink:href="classv8_1_1internal_1_1Builtins.html#a47a260ae04bebdcad714c481a3cd3553" target="_top" xlink:title=" ">
<polygon fill="white" stroke="black" points="471,-88.5 471,-118.5 586,-118.5 586,-88.5 471,-88.5"/>
<text text-anchor="start" x="479" y="-106.5" font-family="Helvetica,sans-Serif" font-size="10.00">v8::internal::Builtins</text>
<text text-anchor="middle" x="528.5" y="-95.5" font-family="Helvetica,sans-Serif" font-size="10.00">::EmbeddedEntryOf</text>
</a>
</g>
</g>
<!-- Node14&#45;&gt;Node20 -->
<g id="edge18" class="edge">
<title>Node14&#45;&gt;Node20</title>
<path fill="none" stroke="midnightblue" d="M332.2,-176.5C358.17,-164.11 396.55,-146.52 431,-133.5 442.03,-129.33 453.91,-125.29 465.45,-121.59"/>
<polygon fill="midnightblue" stroke="midnightblue" points="466.54,-124.91 475.03,-118.56 464.44,-118.24 466.54,-124.91"/>
</g>
<!-- Node21 -->
<g id="node18" class="node">
<title>Node21</title>
<g id="a_node18"><a xlink:href="classv8_1_1internal_1_1EmbeddedData.html#a5f046101e1ed7d746979f87acbcb60e5" target="_top" xlink:title=" ">
<polygon fill="white" stroke="red" points="662,-142.5 662,-172.5 815,-172.5 815,-142.5 662,-142.5"/>
<text text-anchor="start" x="670" y="-160.5" font-family="Helvetica,sans-Serif" font-size="10.00">v8::internal::EmbeddedData</text>
<text text-anchor="middle" x="738.5" y="-149.5" font-family="Helvetica,sans-Serif" font-size="10.00">::FromBlob</text>
</a>
</g>
</g>
<!-- Node14&#45;&gt;Node21 -->
<g id="edge24" class="edge">
<title>Node14&#45;&gt;Node21</title>
<path fill="none" stroke="midnightblue" d="M369.1,-176.98C388.95,-173.26 410.77,-169.69 431,-167.5 505.21,-159.46 590.06,-157.23 651.64,-156.85"/>
<polygon fill="midnightblue" stroke="midnightblue" points="651.72,-160.35 661.7,-156.81 651.69,-153.35 651.72,-160.35"/>
</g>
<!-- Node46 -->
<g id="node21" class="node">
<title>Node46</title>
<g id="a_node21"><a xlink:href="classv8_1_1internal_1_1EmbeddedData.html#a59518d547915f442356ea926c0d1ff56" target="_top" xlink:title=" ">
<polygon fill="white" stroke="black" points="662,-44.5 662,-74.5 815,-74.5 815,-44.5 662,-44.5"/>
<text text-anchor="start" x="670" y="-62.5" font-family="Helvetica,sans-Serif" font-size="10.00">v8::internal::EmbeddedData</text>
<text text-anchor="middle" x="738.5" y="-51.5" font-family="Helvetica,sans-Serif" font-size="10.00">::InstructionSizeOf</text>
</a>
</g>
</g>
<!-- Node14&#45;&gt;Node46 -->
<g id="edge25" class="edge">
<title>Node14&#45;&gt;Node46</title>
<path fill="none" stroke="midnightblue" d="M313.07,-176.33C333.59,-150.76 379.11,-99.81 431,-78.5 501.19,-49.67 588.07,-47.03 651.39,-50.36"/>
<polygon fill="midnightblue" stroke="midnightblue" points="651.55,-53.88 661.74,-50.97 651.96,-46.89 651.55,-53.88"/>
</g>
<!-- Node47 -->
<g id="node22" class="node">
<title>Node47</title>
<g id="a_node22"><a xlink:href="classv8_1_1internal_1_1Builtins.html#a24daef3bee850abdeeda159a11ecd117" target="_top" xlink:title=" ">
<polygon fill="white" stroke="black" points="471,-0.5 471,-30.5 586,-30.5 586,-0.5 471,-0.5"/>
<text text-anchor="start" x="479" y="-18.5" font-family="Helvetica,sans-Serif" font-size="10.00">v8::internal::Builtins</text>
<text text-anchor="middle" x="528.5" y="-7.5" font-family="Helvetica,sans-Serif" font-size="10.00">::is_initialized</text>
</a>
</g>
</g>
<!-- Node14&#45;&gt;Node47 -->
<g id="edge29" class="edge">
<title>Node14&#45;&gt;Node47</title>
<path fill="none" stroke="midnightblue" d="M310.89,-176.23C329.88,-146.61 375.78,-81.15 431,-45.5 440.2,-39.56 450.64,-34.74 461.18,-30.83"/>
<polygon fill="midnightblue" stroke="midnightblue" points="462.54,-34.07 470.86,-27.5 460.26,-27.45 462.54,-34.07"/>
</g>
<!-- Node17 -->
<g id="node14" class="node">
<title>Node17</title>
<g id="a_node14"><a xlink:href="classv8_1_1internal_1_1Builtins.html#a6e1264346a2d6519ac478f560345af39" target="_top" xlink:title=" ">
<polygon fill="white" stroke="black" points="681,-208.5 681,-238.5 796,-238.5 796,-208.5 681,-208.5"/>
<text text-anchor="start" x="689" y="-226.5" font-family="Helvetica,sans-Serif" font-size="10.00">v8::internal::Builtins</text>
<text text-anchor="middle" x="738.5" y="-215.5" font-family="Helvetica,sans-Serif" font-size="10.00">::ToInt</text>
</a>
</g>
</g>
<!-- Node16&#45;&gt;Node17 -->
<g id="edge13" class="edge">
<title>Node16&#45;&gt;Node17</title>
<path fill="none" stroke="midnightblue" d="M586.06,-235.88C612.2,-233.74 643.42,-231.19 670.7,-228.96"/>
<polygon fill="midnightblue" stroke="midnightblue" points="671.27,-232.42 680.95,-228.12 670.7,-225.45 671.27,-232.42"/>
</g>
<!-- Node17&#45;&gt;Node12 -->
<g id="edge14" class="edge">
<title>Node17&#45;&gt;Node12</title>
<path fill="none" stroke="midnightblue" d="M796.11,-223.5C815.52,-223.5 837.45,-223.5 857.71,-223.5"/>
<polygon fill="midnightblue" stroke="midnightblue" points="857.81,-227 867.81,-223.5 857.81,-220 857.81,-227"/>
</g>
<!-- Node18 -->
<g id="node15" class="node">
<title>Node18</title>
<g id="a_node15"><a xlink:href="classv8_1_1internal_1_1Builtins.html#a9f4e993a04694469eb0eef27133908a1" target="_top" xlink:title=" ">
<polygon fill="white" stroke="black" points="870,-93.5 870,-123.5 985,-123.5 985,-93.5 870,-93.5"/>
<text text-anchor="start" x="878" y="-111.5" font-family="Helvetica,sans-Serif" font-size="10.00">v8::internal::Builtins</text>
<text text-anchor="middle" x="927.5" y="-100.5" font-family="Helvetica,sans-Serif" font-size="10.00">::IsBuiltinId</text>
</a>
</g>
</g>
<!-- Node17&#45;&gt;Node18 -->
<g id="edge15" class="edge">
<title>Node17&#45;&gt;Node18</title>
<path fill="none" stroke="midnightblue" d="M768.88,-208.32C782.99,-200.84 800.05,-191.5 815,-182.5 843.29,-165.47 874.54,-144.54 896.74,-129.29"/>
<polygon fill="midnightblue" stroke="midnightblue" points="898.83,-132.1 905.07,-123.54 894.85,-126.34 898.83,-132.1"/>
</g>
<!-- Node20&#45;&gt;Node21 -->
<g id="edge19" class="edge">
<title>Node20&#45;&gt;Node21</title>
<path fill="none" stroke="midnightblue" d="M586.06,-118.18C611.88,-124.89 642.67,-132.88 669.72,-139.9"/>
<polygon fill="midnightblue" stroke="midnightblue" points="668.94,-143.32 679.5,-142.44 670.7,-136.54 668.94,-143.32"/>
</g>
<!-- Node35 -->
<g id="node19" class="node">
<title>Node35</title>
<g id="a_node19"><a xlink:href="classv8_1_1internal_1_1EmbeddedData.html#a3ee374680ecbc4aae34314eab5fec477" target="_top" xlink:title=" ">
<polygon fill="white" stroke="red" points="662,-93.5 662,-123.5 815,-123.5 815,-93.5 662,-93.5"/>
<text text-anchor="start" x="670" y="-111.5" font-family="Helvetica,sans-Serif" font-size="10.00">v8::internal::EmbeddedData</text>
<text text-anchor="middle" x="738.5" y="-100.5" font-family="Helvetica,sans-Serif" font-size="10.00">::InstructionStartOf</text>
</a>
</g>
</g>
<!-- Node20&#45;&gt;Node35 -->
<g id="edge20" class="edge">
<title>Node20&#45;&gt;Node35</title>
<path fill="none" stroke="midnightblue" d="M586.06,-104.86C606.3,-105.35 629.59,-105.91 651.74,-106.44"/>
<polygon fill="midnightblue" stroke="midnightblue" points="651.74,-109.94 661.82,-106.68 651.91,-102.94 651.74,-109.94"/>
</g>
<!-- Node35&#45;&gt;Node12 -->
<g id="edge21" class="edge">
<title>Node35&#45;&gt;Node12</title>
<path fill="none" stroke="midnightblue" d="M792.91,-123.5C800.52,-126.4 808.09,-129.73 815,-133.5 852.02,-153.69 888.9,-186.6 909.59,-206.53"/>
<polygon fill="midnightblue" stroke="midnightblue" points="907.34,-209.23 916.94,-213.73 912.24,-204.23 907.34,-209.23"/>
</g>
<!-- Node35&#45;&gt;Node18 -->
<g id="edge22" class="edge">
<title>Node35&#45;&gt;Node18</title>
<path fill="none" stroke="midnightblue" d="M815.02,-108.5C829.78,-108.5 845.17,-108.5 859.63,-108.5"/>
<polygon fill="midnightblue" stroke="midnightblue" points="859.97,-112 869.97,-108.5 859.97,-105 859.97,-112"/>
</g>
<!-- Node36 -->
<g id="node20" class="node">
<title>Node36</title>
<g id="a_node20"><a xlink:href="classv8_1_1internal_1_1EmbeddedData.html#af675278d76aa71ff59fe6ec57701b3e7" target="_top" xlink:title=" ">
<polygon fill="white" stroke="red" points="851,-44.5 851,-74.5 1004,-74.5 1004,-44.5 851,-44.5"/>
<text text-anchor="start" x="859" y="-62.5" font-family="Helvetica,sans-Serif" font-size="10.00">v8::internal::EmbeddedData</text>
<text text-anchor="middle" x="927.5" y="-51.5" font-family="Helvetica,sans-Serif" font-size="10.00">::LayoutDescription</text>
</a>
</g>
</g>
<!-- Node35&#45;&gt;Node36 -->
<g id="edge23" class="edge">
<title>Node35&#45;&gt;Node36</title>
<path fill="none" stroke="midnightblue" d="M796.88,-93.47C816.62,-88.29 838.91,-82.45 859.36,-77.09"/>
<polygon fill="midnightblue" stroke="midnightblue" points="860.45,-80.43 869.23,-74.51 858.67,-73.66 860.45,-80.43"/>
</g>
<!-- Node46&#45;&gt;Node12 -->
<g id="edge26" class="edge">
<title>Node46&#45;&gt;Node12</title>
<path fill="none" stroke="midnightblue" d="M797.8,-74.65C803.88,-77.43 809.75,-80.68 815,-84.5 836.86,-100.39 834.31,-112.25 851,-133.5 871.25,-159.27 895.82,-188.16 911.32,-206.09"/>
<polygon fill="midnightblue" stroke="midnightblue" points="908.94,-208.68 918.14,-213.95 914.23,-204.1 908.94,-208.68"/>
</g>
<!-- Node46&#45;&gt;Node18 -->
<g id="edge27" class="edge">
<title>Node46&#45;&gt;Node18</title>
<path fill="none" stroke="midnightblue" d="M796.88,-74.53C816.81,-79.76 839.32,-85.66 859.93,-91.06"/>
<polygon fill="midnightblue" stroke="midnightblue" points="859.31,-94.51 869.87,-93.66 861.09,-87.74 859.31,-94.51"/>
</g>
<!-- Node46&#45;&gt;Node36 -->
<g id="edge28" class="edge">
<title>Node46&#45;&gt;Node36</title>
<path fill="none" stroke="midnightblue" d="M815.02,-59.5C823.47,-59.5 832.13,-59.5 840.7,-59.5"/>
<polygon fill="midnightblue" stroke="midnightblue" points="840.7,-63 850.7,-59.5 840.7,-56 840.7,-63"/>
</g>
</g>
</svg>
