<?xml version="1.0" encoding="UTF-8" standalone="no"?>
<!DOCTYPE svg PUBLIC "-//W3C//DTD SVG 1.1//EN"
 "http://www.w3.org/Graphics/SVG/1.1/DTD/svg11.dtd">
<!-- Generated by graphviz version 2.43.0 (0)
 -->
<!-- Title: v8::internal::UnoptimizedJSFrame Pages: 1 -->
<svg width="161pt" height="356pt"
 viewBox="0.00 0.00 161.00 356.00" xmlns="http://www.w3.org/2000/svg" xmlns:xlink="http://www.w3.org/1999/xlink">
<g id="graph0" class="graph" transform="scale(1 1) rotate(0) translate(4 352)">
<title>v8::internal::UnoptimizedJSFrame</title>
<polygon fill="white" stroke="transparent" points="-4,4 -4,-352 157,-352 157,4 -4,4"/>
<!-- Node1 -->
<g id="node1" class="node">
<title>Node1</title>
<g id="a_node1"><a xlink:title=" ">
<polygon fill="#bfbfbf" stroke="black" points="6.5,-0.5 6.5,-30.5 146.5,-30.5 146.5,-0.5 6.5,-0.5"/>
<text text-anchor="start" x="14.5" y="-18.5" font-family="Helvetica,sans-Serif" font-size="10.00">v8::internal::Unoptimized</text>
<text text-anchor="middle" x="76.5" y="-7.5" font-family="Helvetica,sans-Serif" font-size="10.00">JSFrame</text>
</a>
</g>
</g>
<!-- Node2 -->
<g id="node2" class="node">
<title>Node2</title>
<g id="a_node2"><a xlink:href="classv8_1_1internal_1_1JavaScriptFrame.html" target="_top" xlink:title=" ">
<polygon fill="white" stroke="black" points="13,-68.5 13,-98.5 140,-98.5 140,-68.5 13,-68.5"/>
<text text-anchor="start" x="21" y="-86.5" font-family="Helvetica,sans-Serif" font-size="10.00">v8::internal::JavaScript</text>
<text text-anchor="middle" x="76.5" y="-75.5" font-family="Helvetica,sans-Serif" font-size="10.00">Frame</text>
</a>
</g>
</g>
<!-- Node2&#45;&gt;Node1 -->
<g id="edge1" class="edge">
<title>Node2&#45;&gt;Node1</title>
<path fill="none" stroke="midnightblue" d="M76.5,-58.03C76.5,-48.86 76.5,-38.74 76.5,-30.79"/>
<polygon fill="midnightblue" stroke="midnightblue" points="73,-58.18 76.5,-68.18 80,-58.18 73,-58.18"/>
</g>
<!-- Node3 -->
<g id="node3" class="node">
<title>Node3</title>
<g id="a_node3"><a xlink:href="classv8_1_1internal_1_1CommonFrameWithJSLinkage.html" target="_top" xlink:title=" ">
<polygon fill="white" stroke="black" points="0,-136.5 0,-166.5 153,-166.5 153,-136.5 0,-136.5"/>
<text text-anchor="start" x="8" y="-154.5" font-family="Helvetica,sans-Serif" font-size="10.00">v8::internal::CommonFrame</text>
<text text-anchor="middle" x="76.5" y="-143.5" font-family="Helvetica,sans-Serif" font-size="10.00">WithJSLinkage</text>
</a>
</g>
</g>
<!-- Node3&#45;&gt;Node2 -->
<g id="edge2" class="edge">
<title>Node3&#45;&gt;Node2</title>
<path fill="none" stroke="midnightblue" d="M76.5,-126.03C76.5,-116.86 76.5,-106.74 76.5,-98.79"/>
<polygon fill="midnightblue" stroke="midnightblue" points="73,-126.18 76.5,-136.18 80,-126.18 73,-126.18"/>
</g>
<!-- Node4 -->
<g id="node4" class="node">
<title>Node4</title>
<g id="a_node4"><a xlink:href="classv8_1_1internal_1_1CommonFrame.html" target="_top" xlink:title=" ">
<polygon fill="white" stroke="black" points="0,-204.5 0,-223.5 153,-223.5 153,-204.5 0,-204.5"/>
<text text-anchor="middle" x="76.5" y="-211.5" font-family="Helvetica,sans-Serif" font-size="10.00">v8::internal::CommonFrame</text>
</a>
</g>
</g>
<!-- Node4&#45;&gt;Node3 -->
<g id="edge3" class="edge">
<title>Node4&#45;&gt;Node3</title>
<path fill="none" stroke="midnightblue" d="M76.5,-194.22C76.5,-185.36 76.5,-174.96 76.5,-166.76"/>
<polygon fill="midnightblue" stroke="midnightblue" points="73,-194.33 76.5,-204.33 80,-194.33 73,-194.33"/>
</g>
<!-- Node5 -->
<g id="node5" class="node">
<title>Node5</title>
<g id="a_node5"><a xlink:href="classv8_1_1internal_1_1StackFrame.html" target="_top" xlink:title=" ">
<polygon fill="white" stroke="black" points="8.5,-261.5 8.5,-280.5 144.5,-280.5 144.5,-261.5 8.5,-261.5"/>
<text text-anchor="middle" x="76.5" y="-268.5" font-family="Helvetica,sans-Serif" font-size="10.00">v8::internal::StackFrame</text>
</a>
</g>
</g>
<!-- Node5&#45;&gt;Node4 -->
<g id="edge4" class="edge">
<title>Node5&#45;&gt;Node4</title>
<path fill="none" stroke="midnightblue" d="M76.5,-251.12C76.5,-241.82 76.5,-231.06 76.5,-223.71"/>
<polygon fill="midnightblue" stroke="midnightblue" points="73,-251.41 76.5,-261.41 80,-251.41 73,-251.41"/>
</g>
<!-- Node6 -->
<g id="node6" class="node">
<title>Node6</title>
<g id="a_node6"><a xlink:title=" ">
<polygon fill="white" stroke="#bfbfbf" points="55,-328.5 55,-347.5 98,-347.5 98,-328.5 55,-328.5"/>
<text text-anchor="middle" x="76.5" y="-335.5" font-family="Helvetica,sans-Serif" font-size="10.00">const</text>
</a>
</g>
</g>
<!-- Node6&#45;&gt;Node5 -->
<g id="edge5" class="edge">
<title>Node6&#45;&gt;Node5</title>
<path fill="none" stroke="#9a32cd" stroke-dasharray="5,2" d="M76.5,-318.04C76.5,-305.67 76.5,-290.12 76.5,-280.63"/>
<polygon fill="#9a32cd" stroke="#9a32cd" points="73,-318.23 76.5,-328.23 80,-318.23 73,-318.23"/>
<text text-anchor="middle" x="99" y="-302" font-family="Helvetica,sans-Serif" font-size="10.00"> iterator_</text>
</g>
</g>
</svg>
