<?xml version="1.0" encoding="UTF-8" standalone="no"?>
<!DOCTYPE svg PUBLIC "-//W3C//DTD SVG 1.1//EN"
 "http://www.w3.org/Graphics/SVG/1.1/DTD/svg11.dtd">
<!-- Generated by graphviz version 2.43.0 (0)
 -->
<!-- Title: v8::internal::DetachableVectorBase Pages: 1 -->
<svg width="637pt" height="629pt"
 viewBox="0.00 0.00 636.50 629.00" xmlns="http://www.w3.org/2000/svg" xmlns:xlink="http://www.w3.org/1999/xlink">
<g id="graph0" class="graph" transform="scale(1 1) rotate(0) translate(4 625)">
<title>v8::internal::DetachableVectorBase</title>
<polygon fill="white" stroke="transparent" points="-4,4 -4,-625 632.5,-625 632.5,4 -4,4"/>
<!-- Node1 -->
<g id="node1" class="node">
<title>Node1</title>
<g id="a_node1"><a xlink:title=" ">
<polygon fill="#bfbfbf" stroke="black" points="122,-442.5 122,-620.5 256,-620.5 256,-442.5 122,-442.5"/>
<text text-anchor="start" x="130" y="-608.5" font-family="Helvetica,sans-Serif" font-size="10.00">v8::internal::Detachable</text>
<text text-anchor="middle" x="189" y="-597.5" font-family="Helvetica,sans-Serif" font-size="10.00">VectorBase</text>
<polyline fill="none" stroke="black" points="122,-590.5 256,-590.5 "/>
<text text-anchor="start" x="130" y="-578.5" font-family="Helvetica,sans-Serif" font-size="10.00">+ kMinimumCapacity</text>
<text text-anchor="start" x="130" y="-567.5" font-family="Helvetica,sans-Serif" font-size="10.00">+ kDataOffset</text>
<text text-anchor="start" x="130" y="-556.5" font-family="Helvetica,sans-Serif" font-size="10.00">+ kCapacityOffset</text>
<text text-anchor="start" x="130" y="-545.5" font-family="Helvetica,sans-Serif" font-size="10.00">+ kSizeOffset</text>
<text text-anchor="start" x="130" y="-534.5" font-family="Helvetica,sans-Serif" font-size="10.00"># data_</text>
<text text-anchor="start" x="130" y="-523.5" font-family="Helvetica,sans-Serif" font-size="10.00"># capacity_</text>
<text text-anchor="start" x="130" y="-512.5" font-family="Helvetica,sans-Serif" font-size="10.00"># size_</text>
<polyline fill="none" stroke="black" points="122,-505.5 256,-505.5 "/>
<text text-anchor="start" x="130" y="-493.5" font-family="Helvetica,sans-Serif" font-size="10.00">+ detach()</text>
<text text-anchor="start" x="130" y="-482.5" font-family="Helvetica,sans-Serif" font-size="10.00">+ pop_back()</text>
<text text-anchor="start" x="130" y="-471.5" font-family="Helvetica,sans-Serif" font-size="10.00">+ capacity()</text>
<text text-anchor="start" x="130" y="-460.5" font-family="Helvetica,sans-Serif" font-size="10.00">+ size()</text>
<text text-anchor="start" x="130" y="-449.5" font-family="Helvetica,sans-Serif" font-size="10.00">+ empty()</text>
</a>
</g>
</g>
<!-- Node2 -->
<g id="node2" class="node">
<title>Node2</title>
<g id="a_node2"><a xlink:href="classv8_1_1internal_1_1DetachableVector.html" target="_top" xlink:title=" ">
<polygon fill="white" stroke="black" points="0,-6 0,-173 134,-173 134,-6 0,-6"/>
<text text-anchor="start" x="8" y="-161" font-family="Helvetica,sans-Serif" font-size="10.00">v8::internal::Detachable</text>
<text text-anchor="middle" x="67" y="-150" font-family="Helvetica,sans-Serif" font-size="10.00">Vector&lt; uintptr_t * &gt;</text>
<polyline fill="none" stroke="black" points="0,-143 134,-143 "/>
<text text-anchor="middle" x="67" y="-131" font-family="Helvetica,sans-Serif" font-size="10.00"> </text>
<polyline fill="none" stroke="black" points="0,-124 134,-124 "/>
<text text-anchor="start" x="8" y="-112" font-family="Helvetica,sans-Serif" font-size="10.00">+ DetachableVector()</text>
<text text-anchor="start" x="8" y="-101" font-family="Helvetica,sans-Serif" font-size="10.00">+ ~DetachableVector()</text>
<text text-anchor="start" x="8" y="-90" font-family="Helvetica,sans-Serif" font-size="10.00">+ push_back()</text>
<text text-anchor="start" x="8" y="-79" font-family="Helvetica,sans-Serif" font-size="10.00">+ free()</text>
<text text-anchor="start" x="8" y="-68" font-family="Helvetica,sans-Serif" font-size="10.00">+ at()</text>
<text text-anchor="start" x="8" y="-57" font-family="Helvetica,sans-Serif" font-size="10.00">+ back()</text>
<text text-anchor="start" x="8" y="-46" font-family="Helvetica,sans-Serif" font-size="10.00">+ front()</text>
<text text-anchor="start" x="8" y="-35" font-family="Helvetica,sans-Serif" font-size="10.00">+ shrink_to_fit()</text>
<text text-anchor="start" x="8" y="-24" font-family="Helvetica,sans-Serif" font-size="10.00">&#45; data()</text>
<text text-anchor="start" x="8" y="-13" font-family="Helvetica,sans-Serif" font-size="10.00">&#45; Resize()</text>
</a>
</g>
</g>
<!-- Node1&#45;&gt;Node2 -->
<g id="edge1" class="edge">
<title>Node1&#45;&gt;Node2</title>
<path fill="none" stroke="midnightblue" d="M133.19,-433.01C129.02,-423.71 125.2,-414.28 122,-405 95.73,-328.75 81.56,-237.58 74.21,-173.08"/>
<polygon fill="none" stroke="midnightblue" points="130.09,-434.65 137.47,-442.26 136.45,-431.71 130.09,-434.65"/>
</g>
<!-- Node3 -->
<g id="node3" class="node">
<title>Node3</title>
<g id="a_node3"><a xlink:href="classv8_1_1internal_1_1DetachableVector.html" target="_top" xlink:title=" ">
<polygon fill="white" stroke="black" points="443.5,-0.5 443.5,-178.5 628.5,-178.5 628.5,-0.5 443.5,-0.5"/>
<text text-anchor="start" x="451.5" y="-166.5" font-family="Helvetica,sans-Serif" font-size="10.00">v8::internal::Detachable</text>
<text text-anchor="start" x="451.5" y="-155.5" font-family="Helvetica,sans-Serif" font-size="10.00">Vector&lt; v8::internal::</text>
<text text-anchor="middle" x="536" y="-144.5" font-family="Helvetica,sans-Serif" font-size="10.00">Tagged&lt; v8::internal::Context &gt; &gt;</text>
<polyline fill="none" stroke="black" points="443.5,-137.5 628.5,-137.5 "/>
<text text-anchor="middle" x="536" y="-125.5" font-family="Helvetica,sans-Serif" font-size="10.00"> </text>
<polyline fill="none" stroke="black" points="443.5,-118.5 628.5,-118.5 "/>
<text text-anchor="start" x="451.5" y="-106.5" font-family="Helvetica,sans-Serif" font-size="10.00">+ DetachableVector()</text>
<text text-anchor="start" x="451.5" y="-95.5" font-family="Helvetica,sans-Serif" font-size="10.00">+ ~DetachableVector()</text>
<text text-anchor="start" x="451.5" y="-84.5" font-family="Helvetica,sans-Serif" font-size="10.00">+ push_back()</text>
<text text-anchor="start" x="451.5" y="-73.5" font-family="Helvetica,sans-Serif" font-size="10.00">+ free()</text>
<text text-anchor="start" x="451.5" y="-62.5" font-family="Helvetica,sans-Serif" font-size="10.00">+ at()</text>
<text text-anchor="start" x="451.5" y="-51.5" font-family="Helvetica,sans-Serif" font-size="10.00">+ back()</text>
<text text-anchor="start" x="451.5" y="-40.5" font-family="Helvetica,sans-Serif" font-size="10.00">+ front()</text>
<text text-anchor="start" x="451.5" y="-29.5" font-family="Helvetica,sans-Serif" font-size="10.00">+ shrink_to_fit()</text>
<text text-anchor="start" x="451.5" y="-18.5" font-family="Helvetica,sans-Serif" font-size="10.00">&#45; data()</text>
<text text-anchor="start" x="451.5" y="-7.5" font-family="Helvetica,sans-Serif" font-size="10.00">&#45; Resize()</text>
</a>
</g>
</g>
<!-- Node1&#45;&gt;Node3 -->
<g id="edge2" class="edge">
<title>Node1&#45;&gt;Node3</title>
<path fill="none" stroke="midnightblue" d="M265.52,-495.64C359.21,-448.2 513.38,-353.54 578,-219 584.1,-206.31 585.03,-192.5 582.88,-178.81"/>
<polygon fill="none" stroke="midnightblue" points="263.75,-492.62 256.37,-500.22 266.88,-498.88 263.75,-492.62"/>
</g>
<!-- Node4 -->
<g id="node4" class="node">
<title>Node4</title>
<g id="a_node4"><a xlink:href="classv8_1_1internal_1_1DetachableVector.html" target="_top" xlink:title=" ">
<polygon fill="white" stroke="black" points="152.5,-0.5 152.5,-178.5 369.5,-178.5 369.5,-0.5 152.5,-0.5"/>
<text text-anchor="start" x="160.5" y="-166.5" font-family="Helvetica,sans-Serif" font-size="10.00">v8::internal::Detachable</text>
<text text-anchor="start" x="160.5" y="-155.5" font-family="Helvetica,sans-Serif" font-size="10.00">Vector&lt; v8::internal::</text>
<text text-anchor="middle" x="261" y="-144.5" font-family="Helvetica,sans-Serif" font-size="10.00">Tagged&lt; v8::internal::NativeContext &gt; &gt;</text>
<polyline fill="none" stroke="black" points="152.5,-137.5 369.5,-137.5 "/>
<text text-anchor="middle" x="261" y="-125.5" font-family="Helvetica,sans-Serif" font-size="10.00"> </text>
<polyline fill="none" stroke="black" points="152.5,-118.5 369.5,-118.5 "/>
<text text-anchor="start" x="160.5" y="-106.5" font-family="Helvetica,sans-Serif" font-size="10.00">+ DetachableVector()</text>
<text text-anchor="start" x="160.5" y="-95.5" font-family="Helvetica,sans-Serif" font-size="10.00">+ ~DetachableVector()</text>
<text text-anchor="start" x="160.5" y="-84.5" font-family="Helvetica,sans-Serif" font-size="10.00">+ push_back()</text>
<text text-anchor="start" x="160.5" y="-73.5" font-family="Helvetica,sans-Serif" font-size="10.00">+ free()</text>
<text text-anchor="start" x="160.5" y="-62.5" font-family="Helvetica,sans-Serif" font-size="10.00">+ at()</text>
<text text-anchor="start" x="160.5" y="-51.5" font-family="Helvetica,sans-Serif" font-size="10.00">+ back()</text>
<text text-anchor="start" x="160.5" y="-40.5" font-family="Helvetica,sans-Serif" font-size="10.00">+ front()</text>
<text text-anchor="start" x="160.5" y="-29.5" font-family="Helvetica,sans-Serif" font-size="10.00">+ shrink_to_fit()</text>
<text text-anchor="start" x="160.5" y="-18.5" font-family="Helvetica,sans-Serif" font-size="10.00">&#45; data()</text>
<text text-anchor="start" x="160.5" y="-7.5" font-family="Helvetica,sans-Serif" font-size="10.00">&#45; Resize()</text>
</a>
</g>
</g>
<!-- Node1&#45;&gt;Node4 -->
<g id="edge3" class="edge">
<title>Node1&#45;&gt;Node4</title>
<path fill="none" stroke="midnightblue" d="M149.14,-432.74C127.42,-364.12 111.01,-271.64 144,-197 146.78,-190.72 150.13,-184.65 153.91,-178.81"/>
<polygon fill="none" stroke="midnightblue" points="145.81,-433.83 152.23,-442.26 152.47,-431.67 145.81,-433.83"/>
</g>
<!-- Node5 -->
<g id="node5" class="node">
<title>Node5</title>
<g id="a_node5"><a xlink:href="classv8_1_1internal_1_1DetachableVector.html" target="_top" xlink:title=" ">
<polygon fill="white" stroke="black" points="172,-237.5 172,-404.5 306,-404.5 306,-237.5 172,-237.5"/>
<text text-anchor="start" x="180" y="-392.5" font-family="Helvetica,sans-Serif" font-size="10.00">v8::internal::Detachable</text>
<text text-anchor="middle" x="239" y="-381.5" font-family="Helvetica,sans-Serif" font-size="10.00">Vector&lt; T &gt;</text>
<polyline fill="none" stroke="black" points="172,-374.5 306,-374.5 "/>
<text text-anchor="middle" x="239" y="-362.5" font-family="Helvetica,sans-Serif" font-size="10.00"> </text>
<polyline fill="none" stroke="black" points="172,-355.5 306,-355.5 "/>
<text text-anchor="start" x="180" y="-343.5" font-family="Helvetica,sans-Serif" font-size="10.00">+ DetachableVector()</text>
<text text-anchor="start" x="180" y="-332.5" font-family="Helvetica,sans-Serif" font-size="10.00">+ ~DetachableVector()</text>
<text text-anchor="start" x="180" y="-321.5" font-family="Helvetica,sans-Serif" font-size="10.00">+ push_back()</text>
<text text-anchor="start" x="180" y="-310.5" font-family="Helvetica,sans-Serif" font-size="10.00">+ free()</text>
<text text-anchor="start" x="180" y="-299.5" font-family="Helvetica,sans-Serif" font-size="10.00">+ at()</text>
<text text-anchor="start" x="180" y="-288.5" font-family="Helvetica,sans-Serif" font-size="10.00">+ back()</text>
<text text-anchor="start" x="180" y="-277.5" font-family="Helvetica,sans-Serif" font-size="10.00">+ front()</text>
<text text-anchor="start" x="180" y="-266.5" font-family="Helvetica,sans-Serif" font-size="10.00">+ shrink_to_fit()</text>
<text text-anchor="start" x="180" y="-255.5" font-family="Helvetica,sans-Serif" font-size="10.00">&#45; data()</text>
<text text-anchor="start" x="180" y="-244.5" font-family="Helvetica,sans-Serif" font-size="10.00">&#45; Resize()</text>
</a>
</g>
</g>
<!-- Node1&#45;&gt;Node5 -->
<g id="edge4" class="edge">
<title>Node1&#45;&gt;Node5</title>
<path fill="none" stroke="midnightblue" d="M212.52,-432.41C214.74,-423.18 216.96,-413.89 219.14,-404.83"/>
<polygon fill="none" stroke="midnightblue" points="209.06,-431.84 210.13,-442.38 215.87,-433.47 209.06,-431.84"/>
</g>
<!-- Node5&#45;&gt;Node2 -->
<g id="edge5" class="edge">
<title>Node5&#45;&gt;Node2</title>
<path fill="none" stroke="orange" d="M170.84,-229.05C156.99,-210.57 142.5,-191.24 128.88,-173.07"/>
<polygon fill="orange" stroke="orange" points="168.35,-231.57 177.15,-237.47 173.95,-227.37 168.35,-231.57"/>
<text text-anchor="middle" x="202" y="-205.5" font-family="Helvetica,sans-Serif" font-size="10.00"> &lt; uintptr_t * &gt;</text>
</g>
<!-- Node5&#45;&gt;Node3 -->
<g id="edge6" class="edge">
<title>Node5&#45;&gt;Node3</title>
<path fill="none" stroke="orange" d="M315.67,-284.33C349.28,-266.94 388.23,-244.31 420,-219 429.4,-211.51 444.26,-196.15 460.24,-178.57"/>
<polygon fill="orange" stroke="orange" points="313.65,-281.43 306.34,-289.09 316.83,-287.66 313.65,-281.43"/>
<text text-anchor="start" x="440" y="-211" font-family="Helvetica,sans-Serif" font-size="10.00"> &lt; v8::internal::Tagged</text>
<text text-anchor="middle" x="507" y="-200" font-family="Helvetica,sans-Serif" font-size="10.00">&lt; v8::internal::Context &gt; &gt;</text>
</g>
<!-- Node5&#45;&gt;Node4 -->
<g id="edge7" class="edge">
<title>Node5&#45;&gt;Node4</title>
<path fill="none" stroke="orange" d="M247.9,-227.11C249.43,-211.19 251.01,-194.69 252.53,-178.89"/>
<polygon fill="orange" stroke="orange" points="244.38,-227.18 246.91,-237.47 251.35,-227.85 244.38,-227.18"/>
<text text-anchor="start" x="250" y="-211" font-family="Helvetica,sans-Serif" font-size="10.00"> &lt; v8::internal::Tagged</text>
<text text-anchor="middle" x="333" y="-200" font-family="Helvetica,sans-Serif" font-size="10.00">&lt; v8::internal::NativeContext &gt; &gt;</text>
</g>
</g>
</svg>
