<?xml version="1.0" encoding="UTF-8" standalone="no"?>
<!DOCTYPE svg PUBLIC "-//W3C//DTD SVG 1.1//EN"
 "http://www.w3.org/Graphics/SVG/1.1/DTD/svg11.dtd">
<!-- Generated by graphviz version 2.43.0 (0)
 -->
<!-- Title: v8::internal::interpreter::Bytecodes::ReadsAccumulator Pages: 1 -->
<!--zoomable 212 -->
<svg id="main" version="1.1" xmlns="http://www.w3.org/2000/svg" xmlns:xlink="http://www.w3.org/1999/xlink" xml:space="preserve" onload="init(evt)">
<style type="text/css"><![CDATA[
.edge:hover path { stroke: red; }
.edge:hover polygon { stroke: red; fill: red; }
]]></style>
<script type="text/javascript"><![CDATA[
var edges = document.getElementsByTagName('g');
if (edges && edges.length) {
  for (var i=0;i<edges.length;i++) {
    if (edges[i].id.substr(0,4)=='edge') {
      edges[i].setAttribute('class','edge');
    }
  }
}
]]></script>
        <defs>
                <circle id="rim" cx="0" cy="0" r="7"/>
                <circle id="rim2" cx="0" cy="0" r="3.5"/>
                <g id="zoomPlus">
                        <use xlink:href="#rim" fill="#404040">
                                <set attributeName="fill" to="#808080" begin="zoomplus.mouseover" end="zoomplus.mouseout"/>
                        </use>
                        <path d="M-4,0h8M0,-4v8" fill="none" stroke="white" stroke-width="1.5" pointer-events="none"/>
                </g>
                <g id="zoomMin">
                        <use xlink:href="#rim" fill="#404040">
                                <set attributeName="fill" to="#808080" begin="zoomminus.mouseover" end="zoomminus.mouseout"/>
                        </use>
                        <path d="M-4,0h8" fill="none" stroke="white" stroke-width="1.5" pointer-events="none"/>
                </g>
                <g id="dirArrow">
                        <path fill="none" stroke="white" stroke-width="1.5" d="M0,-3.0v7 M-2.5,-0.5L0,-3.0L2.5,-0.5"/>
                </g>
               <g id="resetDef">
                       <use xlink:href="#rim2" fill="#404040">
                               <set attributeName="fill" to="#808080" begin="reset.mouseover" end="reset.mouseout"/>
                       </use>
               </g>
        </defs>

<script type="text/javascript">
var viewWidth = 700;
var viewHeight = 212;
var sectionId = 'dynsection-55';
</script>
<script xlink:href="svgpan.js"/>
<svg id="graph" class="graph">
<g id="viewport">
<title>v8::internal::interpreter::Bytecodes::ReadsAccumulator</title>
<polygon fill="white" stroke="transparent" points="-4,4 -4,-207.5 696,-207.5 696,4 -4,4"/>
<!-- Node1 -->
<g id="node1" class="node">
<title>Node1</title>
<g id="a_node1"><a xlink:title=" ">
<polygon fill="#bfbfbf" stroke="black" points="521,-77.5 521,-107.5 692,-107.5 692,-77.5 521,-77.5"/>
<text text-anchor="start" x="529" y="-95.5" font-family="Helvetica,sans-Serif" font-size="10.00">v8::internal::interpreter</text>
<text text-anchor="middle" x="606.5" y="-84.5" font-family="Helvetica,sans-Serif" font-size="10.00">::Bytecodes::ReadsAccumulator</text>
</a>
</g>
</g>
<!-- Node2 -->
<g id="node2" class="node">
<title>Node2</title>
<g id="a_node2"><a xlink:href="classv8_1_1internal_1_1interpreter_1_1InterpreterAssembler.html#adc9df4b200f0ebcba5ab694409c8ab9b" target="_top" xlink:title=" ">
<polygon fill="white" stroke="black" points="347,-132 347,-173 477,-173 477,-132 347,-132"/>
<text text-anchor="start" x="355" y="-161" font-family="Helvetica,sans-Serif" font-size="10.00">v8::internal::interpreter</text>
<text text-anchor="start" x="355" y="-150" font-family="Helvetica,sans-Serif" font-size="10.00">::InterpreterAssembler</text>
<text text-anchor="middle" x="412" y="-139" font-family="Helvetica,sans-Serif" font-size="10.00">::GetAccumulator</text>
</a>
</g>
</g>
<!-- Node1&#45;&gt;Node2 -->
<g id="edge1" class="edge">
<title>Node1&#45;&gt;Node2</title>
<path fill="none" stroke="midnightblue" d="M547.33,-110.63C525.2,-117.53 499.87,-125.42 477.21,-132.49"/>
<polygon fill="midnightblue" stroke="midnightblue" points="548.42,-113.96 556.92,-107.64 546.34,-107.27 548.42,-113.96"/>
</g>
<!-- Node17 -->
<g id="node6" class="node">
<title>Node17</title>
<g id="a_node6"><a xlink:href="classv8_1_1internal_1_1interpreter_1_1BytecodeHandlerReducer.html#a6c0a780eb077686bf97d84984d435f63" target="_top" xlink:title=" ">
<polygon fill="white" stroke="black" points="339,-72 339,-113 485,-113 485,-72 339,-72"/>
<text text-anchor="start" x="347" y="-101" font-family="Helvetica,sans-Serif" font-size="10.00">v8::internal::interpreter</text>
<text text-anchor="start" x="347" y="-90" font-family="Helvetica,sans-Serif" font-size="10.00">::BytecodeHandlerReducer</text>
<text text-anchor="middle" x="412" y="-79" font-family="Helvetica,sans-Serif" font-size="10.00">::GetAccumulator</text>
</a>
</g>
</g>
<!-- Node1&#45;&gt;Node17 -->
<g id="edge5" class="edge">
<title>Node1&#45;&gt;Node17</title>
<path fill="none" stroke="midnightblue" d="M510.7,-92.5C502.09,-92.5 493.47,-92.5 485.1,-92.5"/>
<polygon fill="midnightblue" stroke="midnightblue" points="510.79,-96 520.79,-92.5 510.79,-89 510.79,-96"/>
</g>
<!-- Node18 -->
<g id="node7" class="node">
<title>Node18</title>
<g id="a_node7"><a xlink:href="namespacev8_1_1internal_1_1compiler_1_1anonymous__namespace_02bytecode-analysis_8cc_03.html#a066865ebe0c816fd38b5eb8bb99ca271" target="_top" xlink:title=" ">
<polygon fill="white" stroke="black" points="341.5,-0.5 341.5,-52.5 482.5,-52.5 482.5,-0.5 341.5,-0.5"/>
<text text-anchor="start" x="349.5" y="-40.5" font-family="Helvetica,sans-Serif" font-size="10.00">v8::internal::compiler</text>
<text text-anchor="start" x="349.5" y="-29.5" font-family="Helvetica,sans-Serif" font-size="10.00">::anonymous_namespace</text>
<text text-anchor="start" x="349.5" y="-18.5" font-family="Helvetica,sans-Serif" font-size="10.00">{bytecode&#45;analysis::cc}</text>
<text text-anchor="middle" x="412" y="-7.5" font-family="Helvetica,sans-Serif" font-size="10.00">::UpdateInLiveness</text>
</a>
</g>
</g>
<!-- Node1&#45;&gt;Node18 -->
<g id="edge6" class="edge">
<title>Node1&#45;&gt;Node18</title>
<path fill="none" stroke="midnightblue" d="M551.76,-74.08C530.34,-66.73 505.39,-58.18 482.61,-50.37"/>
<polygon fill="midnightblue" stroke="midnightblue" points="550.74,-77.43 561.34,-77.36 553.01,-70.8 550.74,-77.43"/>
</g>
<!-- Node3 -->
<g id="node3" class="node">
<title>Node3</title>
<g id="a_node3"><a xlink:href="classv8_1_1internal_1_1interpreter_1_1InterpreterAssembler.html#aa44364dcce24272b2a3da63c99a3d741" target="_top" xlink:title=" ">
<polygon fill="white" stroke="black" points="173,-162 173,-203 303,-203 303,-162 173,-162"/>
<text text-anchor="start" x="181" y="-191" font-family="Helvetica,sans-Serif" font-size="10.00">v8::internal::interpreter</text>
<text text-anchor="start" x="181" y="-180" font-family="Helvetica,sans-Serif" font-size="10.00">::InterpreterAssembler</text>
<text text-anchor="middle" x="238" y="-169" font-family="Helvetica,sans-Serif" font-size="10.00">::InlineShortStar</text>
</a>
</g>
</g>
<!-- Node2&#45;&gt;Node3 -->
<g id="edge2" class="edge">
<title>Node2&#45;&gt;Node3</title>
<path fill="none" stroke="midnightblue" d="M337.1,-165.39C325.78,-167.36 314.18,-169.39 303.1,-171.32"/>
<polygon fill="midnightblue" stroke="midnightblue" points="337.7,-168.84 346.95,-163.67 336.5,-161.94 337.7,-168.84"/>
</g>
<!-- Node16 -->
<g id="node5" class="node">
<title>Node16</title>
<g id="a_node5"><a xlink:href="classv8_1_1internal_1_1interpreter_1_1InterpreterAssembler.html#a8636e281c8ad79b0148426e62435b6f9" target="_top" xlink:title=" ">
<polygon fill="white" stroke="black" points="173,-102 173,-143 303,-143 303,-102 173,-102"/>
<text text-anchor="start" x="181" y="-131" font-family="Helvetica,sans-Serif" font-size="10.00">v8::internal::interpreter</text>
<text text-anchor="start" x="181" y="-120" font-family="Helvetica,sans-Serif" font-size="10.00">::InterpreterAssembler</text>
<text text-anchor="middle" x="238" y="-109" font-family="Helvetica,sans-Serif" font-size="10.00">::ToNumberOrNumeric</text>
</a>
</g>
</g>
<!-- Node2&#45;&gt;Node16 -->
<g id="edge4" class="edge">
<title>Node2&#45;&gt;Node16</title>
<path fill="none" stroke="midnightblue" d="M337.1,-139.61C325.78,-137.64 314.18,-135.61 303.1,-133.68"/>
<polygon fill="midnightblue" stroke="midnightblue" points="336.5,-143.06 346.95,-141.33 337.7,-136.16 336.5,-143.06"/>
</g>
<!-- Node4 -->
<g id="node4" class="node">
<title>Node4</title>
<g id="a_node4"><a xlink:href="classv8_1_1internal_1_1interpreter_1_1InterpreterAssembler.html#a881a3256feae9af3e265baeb74f6de56" target="_top" xlink:title=" ">
<polygon fill="white" stroke="red" points="0,-162 0,-203 137,-203 137,-162 0,-162"/>
<text text-anchor="start" x="8" y="-191" font-family="Helvetica,sans-Serif" font-size="10.00">v8::internal::interpreter</text>
<text text-anchor="start" x="8" y="-180" font-family="Helvetica,sans-Serif" font-size="10.00">::InterpreterAssembler</text>
<text text-anchor="middle" x="68.5" y="-169" font-family="Helvetica,sans-Serif" font-size="10.00">::StarDispatchLookahead</text>
</a>
</g>
</g>
<!-- Node3&#45;&gt;Node4 -->
<g id="edge3" class="edge">
<title>Node3&#45;&gt;Node4</title>
<path fill="none" stroke="midnightblue" d="M162.53,-182.5C154.1,-182.5 145.55,-182.5 137.22,-182.5"/>
<polygon fill="midnightblue" stroke="midnightblue" points="162.72,-186 172.72,-182.5 162.72,-179 162.72,-186"/>
</g>
</g>
</svg>
        <g id="navigator" transform="translate(0 0)" fill="#404254">
                <rect fill="#f2f5e9" fill-opacity="0.5" stroke="#606060" stroke-width=".5" x="0" y="0" width="60" height="60"/>
                <use id="zoomplus" xlink:href="#zoomPlus" x="17" y="9" onmousedown="handleZoom(evt,'in')"/>
                <use id="zoomminus" xlink:href="#zoomMin" x="42" y="9" onmousedown="handleZoom(evt,'out')"/>
                <use id="reset" xlink:href="#resetDef" x="30" y="36" onmousedown="handleReset()"/>
                <g id="arrowUp" xlink:href="#dirArrow" transform="translate(30 24)" onmousedown="handlePan(0,-1)">
                  <use xlink:href="#rim" fill="#404040">
                        <set attributeName="fill" to="#808080" begin="arrowUp.mouseover" end="arrowUp.mouseout"/>
                  </use>
                  <path fill="none" stroke="white" stroke-width="1.5" d="M0,-3.0v7 M-2.5,-0.5L0,-3.0L2.5,-0.5"/>
                </g>
                <g id="arrowRight" xlink:href="#dirArrow" transform="rotate(90) translate(36 -43)" onmousedown="handlePan(1,0)">
                  <use xlink:href="#rim" fill="#404040">
                        <set attributeName="fill" to="#808080" begin="arrowRight.mouseover" end="arrowRight.mouseout"/>
                  </use>
                  <path fill="none" stroke="white" stroke-width="1.5" d="M0,-3.0v7 M-2.5,-0.5L0,-3.0L2.5,-0.5"/>
                </g>
                <g id="arrowDown" xlink:href="#dirArrow" transform="rotate(180) translate(-30 -48)" onmousedown="handlePan(0,1)">
                  <use xlink:href="#rim" fill="#404040">
                        <set attributeName="fill" to="#808080" begin="arrowDown.mouseover" end="arrowDown.mouseout"/>
                  </use>
                  <path fill="none" stroke="white" stroke-width="1.5" d="M0,-3.0v7 M-2.5,-0.5L0,-3.0L2.5,-0.5"/>
                </g>
                <g id="arrowLeft" xlink:href="#dirArrow" transform="rotate(270) translate(-36 17)" onmousedown="handlePan(-1,0)">
                  <use xlink:href="#rim" fill="#404040">
                        <set attributeName="fill" to="#808080" begin="arrowLeft.mouseover" end="arrowLeft.mouseout"/>
                  </use>
                  <path fill="none" stroke="white" stroke-width="1.5" d="M0,-3.0v7 M-2.5,-0.5L0,-3.0L2.5,-0.5"/>
                </g>
        </g>
        <svg viewBox="0 0 15 15" width="100%" height="30px" preserveAspectRatio="xMaxYMin meet">
         <g id="arrow_out" transform="scale(0.3 0.3)">
          <a xlink:href="classv8_1_1internal_1_1interpreter_1_1Bytecodes_a710da4b4ced2ade57bcdf73a75a54ad6_icgraph_org.svg" target="_base">
           <rect id="button" ry="5" rx="5" y="6" x="6" height="38" width="38"
                fill="#f2f5e9" fill-opacity="0.5" stroke="#606060" stroke-width="1.0"/>
           <path id="arrow"
             d="M 11.500037,31.436501 C 11.940474,20.09759 22.043105,11.32322 32.158766,21.979434 L 37.068811,17.246167 C 37.068811,17.246167 37.088388,32 37.088388,32 L 22.160133,31.978069 C 22.160133,31.978069 26.997745,27.140456 26.997745,27.140456 C 18.528582,18.264221 13.291696,25.230495 11.500037,31.436501 z"
             style="fill:#404040;"/>
          </a>
         </g>
        </svg>
</svg>
