<?xml version="1.0" encoding="UTF-8" standalone="no"?>
<!DOCTYPE svg PUBLIC "-//W3C//DTD SVG 1.1//EN"
 "http://www.w3.org/Graphics/SVG/1.1/DTD/svg11.dtd">
<!-- Generated by graphviz version 2.43.0 (0)
 -->
<!-- Title: v8::internal::compiler::JSGraphAssembler::MachineSelect Pages: 1 -->
<svg width="490pt" height="78pt"
 viewBox="0.00 0.00 490.00 77.50" xmlns="http://www.w3.org/2000/svg" xmlns:xlink="http://www.w3.org/1999/xlink">
<g id="graph0" class="graph" transform="scale(1 1) rotate(0) translate(4 73.5)">
<title>v8::internal::compiler::JSGraphAssembler::MachineSelect</title>
<polygon fill="white" stroke="transparent" points="-4,4 -4,-73.5 486,-73.5 486,4 -4,4"/>
<!-- Node1 -->
<g id="node1" class="node">
<title>Node1</title>
<g id="a_node1"><a xlink:title=" ">
<polygon fill="#bfbfbf" stroke="black" points="0,-22.5 0,-52.5 190,-52.5 190,-22.5 0,-22.5"/>
<text text-anchor="start" x="8" y="-40.5" font-family="Helvetica,sans-Serif" font-size="10.00">v8::internal::compiler</text>
<text text-anchor="middle" x="95" y="-29.5" font-family="Helvetica,sans-Serif" font-size="10.00">::JSGraphAssembler::MachineSelect</text>
</a>
</g>
</g>
<!-- Node2 -->
<g id="node2" class="node">
<title>Node2</title>
<g id="a_node2"><a xlink:href="flag-definitions_8h.html#a06b2b7e5d08192bb493bba69cb19a7a8" target="_top" xlink:title=" ">
<polygon fill="white" stroke="black" points="259,-50 259,-69 303,-69 303,-50 259,-50"/>
<text text-anchor="middle" x="281" y="-57" font-family="Helvetica,sans-Serif" font-size="10.00">graph</text>
</a>
</g>
</g>
<!-- Node1&#45;&gt;Node2 -->
<g id="edge1" class="edge">
<title>Node1&#45;&gt;Node2</title>
<path fill="none" stroke="midnightblue" d="M190.16,-48.76C211.34,-51.29 232.36,-53.8 248.74,-55.76"/>
<polygon fill="midnightblue" stroke="midnightblue" points="248.45,-59.25 258.79,-56.96 249.28,-52.3 248.45,-59.25"/>
</g>
<!-- Node3 -->
<g id="node3" class="node">
<title>Node3</title>
<g id="a_node3"><a xlink:href="classv8_1_1internal_1_1TNode.html#aef7e09b0f9e153327c5c1eb4dd516e6e" target="_top" xlink:title=" ">
<polygon fill="white" stroke="black" points="226,-0.5 226,-30.5 336,-30.5 336,-0.5 226,-0.5"/>
<text text-anchor="start" x="234" y="-18.5" font-family="Helvetica,sans-Serif" font-size="10.00">v8::internal::TNode</text>
<text text-anchor="middle" x="281" y="-7.5" font-family="Helvetica,sans-Serif" font-size="10.00">::UncheckedCast</text>
</a>
</g>
</g>
<!-- Node1&#45;&gt;Node3 -->
<g id="edge2" class="edge">
<title>Node1&#45;&gt;Node3</title>
<path fill="none" stroke="midnightblue" d="M190.16,-26.24C198.83,-25.21 207.48,-24.17 215.79,-23.18"/>
<polygon fill="midnightblue" stroke="midnightblue" points="216.24,-26.65 225.75,-21.99 215.41,-19.7 216.24,-26.65"/>
</g>
<!-- Node4 -->
<g id="node4" class="node">
<title>Node4</title>
<g id="a_node4"><a xlink:href="classv8_1_1internal_1_1TNode.html#a9e45093dda72c5af25effcb8eaef18af" target="_top" xlink:title=" ">
<polygon fill="white" stroke="black" points="372,-0.5 372,-30.5 482,-30.5 482,-0.5 372,-0.5"/>
<text text-anchor="start" x="380" y="-18.5" font-family="Helvetica,sans-Serif" font-size="10.00">v8::internal::TNode</text>
<text text-anchor="middle" x="427" y="-7.5" font-family="Helvetica,sans-Serif" font-size="10.00">::TNode</text>
</a>
</g>
</g>
<!-- Node3&#45;&gt;Node4 -->
<g id="edge3" class="edge">
<title>Node3&#45;&gt;Node4</title>
<path fill="none" stroke="midnightblue" d="M336.03,-15.5C344.31,-15.5 352.94,-15.5 361.42,-15.5"/>
<polygon fill="midnightblue" stroke="midnightblue" points="361.67,-19 371.67,-15.5 361.67,-12 361.67,-19"/>
</g>
</g>
</svg>
