<?xml version="1.0" encoding="UTF-8" standalone="no"?>
<!DOCTYPE svg PUBLIC "-//W3C//DTD SVG 1.1//EN"
 "http://www.w3.org/Graphics/SVG/1.1/DTD/svg11.dtd">
<!-- Generated by graphviz version 2.43.0 (0)
 -->
<!-- Title: v8::internal::wasm::WasmGraphBuilderBase Pages: 1 -->
<svg width="694pt" height="1451pt"
 viewBox="0.00 0.00 693.50 1451.00" xmlns="http://www.w3.org/2000/svg" xmlns:xlink="http://www.w3.org/1999/xlink">
<g id="graph0" class="graph" transform="scale(1 1) rotate(0) translate(4 1447)">
<title>v8::internal::wasm::WasmGraphBuilderBase</title>
<polygon fill="white" stroke="transparent" points="-4,4 -4,-1447 689.5,-1447 689.5,4 -4,4"/>
<!-- Node1 -->
<g id="node1" class="node">
<title>Node1</title>
<g id="a_node1"><a xlink:title=" ">
<polygon fill="#bfbfbf" stroke="black" points="0,-0.5 0,-233.5 187,-233.5 187,-0.5 0,-0.5"/>
<text text-anchor="start" x="8" y="-221.5" font-family="Helvetica,sans-Serif" font-size="10.00">v8::internal::wasm</text>
<text text-anchor="middle" x="93.5" y="-210.5" font-family="Helvetica,sans-Serif" font-size="10.00">::WasmGraphBuilderBase</text>
<polyline fill="none" stroke="black" points="0,-203.5 187,-203.5 "/>
<text text-anchor="middle" x="93.5" y="-191.5" font-family="Helvetica,sans-Serif" font-size="10.00"> </text>
<polyline fill="none" stroke="black" points="0,-184.5 187,-184.5 "/>
<text text-anchor="start" x="8" y="-172.5" font-family="Helvetica,sans-Serif" font-size="10.00">+ BuildModifyThreadInWasmFlag</text>
<text text-anchor="start" x="8" y="-161.5" font-family="Helvetica,sans-Serif" font-size="10.00">Helper()</text>
<text text-anchor="start" x="8" y="-150.5" font-family="Helvetica,sans-Serif" font-size="10.00">+ BuildModifyThreadInWasmFlag()</text>
<text text-anchor="start" x="8" y="-139.5" font-family="Helvetica,sans-Serif" font-size="10.00"># WasmGraphBuilderBase()</text>
<text text-anchor="start" x="8" y="-128.5" font-family="Helvetica,sans-Serif" font-size="10.00"># CallRuntime()</text>
<text text-anchor="start" x="8" y="-117.5" font-family="Helvetica,sans-Serif" font-size="10.00"># GetBuiltinPointerTarget()</text>
<text text-anchor="start" x="8" y="-106.5" font-family="Helvetica,sans-Serif" font-size="10.00"># GetTargetForBuiltinCall()</text>
<text text-anchor="start" x="8" y="-95.5" font-family="Helvetica,sans-Serif" font-size="10.00"># BuildChangeInt64ToBigInt()</text>
<text text-anchor="start" x="8" y="-84.5" font-family="Helvetica,sans-Serif" font-size="10.00"># BuildImportedFunctionTarget</text>
<text text-anchor="start" x="8" y="-73.5" font-family="Helvetica,sans-Serif" font-size="10.00">AndImplicitArg()</text>
<text text-anchor="start" x="8" y="-62.5" font-family="Helvetica,sans-Serif" font-size="10.00"># BuildFunctionTargetAndImplicit</text>
<text text-anchor="start" x="8" y="-51.5" font-family="Helvetica,sans-Serif" font-size="10.00">Arg()</text>
<text text-anchor="start" x="8" y="-40.5" font-family="Helvetica,sans-Serif" font-size="10.00"># RepresentationFor()</text>
<text text-anchor="start" x="8" y="-29.5" font-family="Helvetica,sans-Serif" font-size="10.00"># CallC()</text>
<text text-anchor="start" x="8" y="-18.5" font-family="Helvetica,sans-Serif" font-size="10.00"># CallC()</text>
<text text-anchor="start" x="8" y="-7.5" font-family="Helvetica,sans-Serif" font-size="10.00">and 6 more...</text>
</a>
</g>
</g>
<!-- Node2 -->
<g id="node2" class="node">
<title>Node2</title>
<g id="a_node2"><a xlink:href="classv8_1_1internal_1_1compiler_1_1turboshaft_1_1TSAssembler.html" target="_top" xlink:title=" ">
<polygon fill="white" stroke="black" points="112,-281.5 112,-360.5 255,-360.5 255,-281.5 112,-281.5"/>
<text text-anchor="start" x="120" y="-348.5" font-family="Helvetica,sans-Serif" font-size="10.00">v8::internal::compiler</text>
<text text-anchor="start" x="120" y="-337.5" font-family="Helvetica,sans-Serif" font-size="10.00">::turboshaft::TSAssembler</text>
<text text-anchor="middle" x="183.5" y="-326.5" font-family="Helvetica,sans-Serif" font-size="10.00">&lt; Reducers &gt;</text>
<polyline fill="none" stroke="black" points="112,-319.5 255,-319.5 "/>
<text text-anchor="middle" x="183.5" y="-307.5" font-family="Helvetica,sans-Serif" font-size="10.00"> </text>
<polyline fill="none" stroke="black" points="112,-300.5 255,-300.5 "/>
<text text-anchor="middle" x="183.5" y="-288.5" font-family="Helvetica,sans-Serif" font-size="10.00"> </text>
</a>
</g>
</g>
<!-- Node2&#45;&gt;Node1 -->
<g id="edge1" class="edge">
<title>Node2&#45;&gt;Node1</title>
<path fill="none" stroke="#404040" d="M166.15,-281.05C161.32,-270.21 155.8,-257.82 150,-244.81"/>
<polygon fill="none" stroke="#404040" points="149.96,-244.73 143.87,-240.87 145.08,-233.77 151.17,-237.62 149.96,-244.73"/>
<text text-anchor="middle" x="176.5" y="-255" font-family="Helvetica,sans-Serif" font-size="10.00"> #asm_</text>
</g>
<!-- Node3 -->
<g id="node3" class="node">
<title>Node3</title>
<g id="a_node3"><a xlink:href="classv8_1_1internal_1_1compiler_1_1turboshaft_1_1Assembler.html" target="_top" xlink:title=" ">
<polygon fill="white" stroke="black" points="135.5,-398.5 135.5,-686.5 295.5,-686.5 295.5,-398.5 135.5,-398.5"/>
<text text-anchor="start" x="143.5" y="-674.5" font-family="Helvetica,sans-Serif" font-size="10.00">v8::internal::compiler</text>
<text text-anchor="start" x="143.5" y="-663.5" font-family="Helvetica,sans-Serif" font-size="10.00">::turboshaft::Assembler</text>
<text text-anchor="start" x="143.5" y="-652.5" font-family="Helvetica,sans-Serif" font-size="10.00">&lt; reducer_list&lt; Reducers...,</text>
<text text-anchor="middle" x="215.5" y="-641.5" font-family="Helvetica,sans-Serif" font-size="10.00"> TSReducerBase &gt; &gt;</text>
<polyline fill="none" stroke="black" points="135.5,-634.5 295.5,-634.5 "/>
<text text-anchor="start" x="143.5" y="-622.5" font-family="Helvetica,sans-Serif" font-size="10.00">&#45; current_block_</text>
<text text-anchor="start" x="143.5" y="-611.5" font-family="Helvetica,sans-Serif" font-size="10.00">&#45; current_catch_block_</text>
<text text-anchor="start" x="143.5" y="-600.5" font-family="Helvetica,sans-Serif" font-size="10.00">&#45; conceptually_in_a_block_</text>
<text text-anchor="start" x="143.5" y="-589.5" font-family="Helvetica,sans-Serif" font-size="10.00">&#45; current_operation_origin_</text>
<polyline fill="none" stroke="black" points="135.5,-582.5 295.5,-582.5 "/>
<text text-anchor="start" x="143.5" y="-570.5" font-family="Helvetica,sans-Serif" font-size="10.00">+ Assembler()</text>
<text text-anchor="start" x="143.5" y="-559.5" font-family="Helvetica,sans-Serif" font-size="10.00">+ data()</text>
<text text-anchor="start" x="143.5" y="-548.5" font-family="Helvetica,sans-Serif" font-size="10.00">+ phase_zone()</text>
<text text-anchor="start" x="143.5" y="-537.5" font-family="Helvetica,sans-Serif" font-size="10.00">+ input_graph()</text>
<text text-anchor="start" x="143.5" y="-526.5" font-family="Helvetica,sans-Serif" font-size="10.00">+ output_graph()</text>
<text text-anchor="start" x="143.5" y="-515.5" font-family="Helvetica,sans-Serif" font-size="10.00">+ graph_zone()</text>
<text text-anchor="start" x="143.5" y="-504.5" font-family="Helvetica,sans-Serif" font-size="10.00">+ modifiable_input_graph()</text>
<text text-anchor="start" x="143.5" y="-493.5" font-family="Helvetica,sans-Serif" font-size="10.00">+ NewLoopHeader()</text>
<text text-anchor="start" x="143.5" y="-482.5" font-family="Helvetica,sans-Serif" font-size="10.00">+ NewBlock()</text>
<text text-anchor="start" x="143.5" y="-471.5" font-family="Helvetica,sans-Serif" font-size="10.00">+ Bind()</text>
<text text-anchor="start" x="143.5" y="-460.5" font-family="Helvetica,sans-Serif" font-size="10.00">and 11 more...</text>
<text text-anchor="start" x="143.5" y="-449.5" font-family="Helvetica,sans-Serif" font-size="10.00">&#45; FinalizeBlock()</text>
<text text-anchor="start" x="143.5" y="-438.5" font-family="Helvetica,sans-Serif" font-size="10.00">&#45; CreateSinglePredecessorFor</text>
<text text-anchor="start" x="143.5" y="-427.5" font-family="Helvetica,sans-Serif" font-size="10.00">Loop()</text>
<text text-anchor="start" x="143.5" y="-416.5" font-family="Helvetica,sans-Serif" font-size="10.00">&#45; AddLoopPredecessor()</text>
<text text-anchor="start" x="143.5" y="-405.5" font-family="Helvetica,sans-Serif" font-size="10.00">&#45; SplitEdge()</text>
</a>
</g>
</g>
<!-- Node3&#45;&gt;Node2 -->
<g id="edge2" class="edge">
<title>Node3&#45;&gt;Node2</title>
<path fill="none" stroke="midnightblue" d="M193.17,-388.34C191.72,-378.39 190.35,-369 189.13,-360.6"/>
<polygon fill="none" stroke="midnightblue" points="189.74,-389.07 194.65,-398.46 196.67,-388.06 189.74,-389.07"/>
</g>
<!-- Node4 -->
<g id="node4" class="node">
<title>Node4</title>
<g id="a_node4"><a xlink:href="structv8_1_1internal_1_1compiler_1_1turboshaft_1_1AssemblerData.html" target="_top" xlink:title=" ">
<polygon fill="white" stroke="red" points="81,-1115.5 81,-1183.5 234,-1183.5 234,-1115.5 81,-1115.5"/>
<text text-anchor="start" x="89" y="-1171.5" font-family="Helvetica,sans-Serif" font-size="10.00">v8::internal::compiler</text>
<text text-anchor="middle" x="157.5" y="-1160.5" font-family="Helvetica,sans-Serif" font-size="10.00">::turboshaft::AssemblerData</text>
<polyline fill="none" stroke="red" points="81,-1153.5 234,-1153.5 "/>
<text text-anchor="middle" x="157.5" y="-1141.5" font-family="Helvetica,sans-Serif" font-size="10.00"> </text>
<polyline fill="none" stroke="red" points="81,-1134.5 234,-1134.5 "/>
<text text-anchor="start" x="89" y="-1122.5" font-family="Helvetica,sans-Serif" font-size="10.00">+ AssemblerData()</text>
</a>
</g>
</g>
<!-- Node4&#45;&gt;Node3 -->
<g id="edge3" class="edge">
<title>Node4&#45;&gt;Node3</title>
<path fill="none" stroke="midnightblue" d="M135.54,-1106.19C131.8,-1097.12 128.48,-1087.42 126.5,-1078 96.06,-933.16 95.94,-889.81 126.5,-745 130.59,-725.64 136.66,-705.87 143.74,-686.65"/>
<polygon fill="none" stroke="midnightblue" points="132.35,-1107.62 139.57,-1115.38 138.76,-1104.82 132.35,-1107.62"/>
</g>
<!-- Node742 -->
<g id="node8" class="node">
<title>Node742</title>
<g id="a_node8"><a xlink:href="classv8_1_1internal_1_1compiler_1_1turboshaft_1_1Assembler.html" target="_top" xlink:title=" ">
<polygon fill="white" stroke="red" points="135.5,-789.5 135.5,-1033.5 295.5,-1033.5 295.5,-789.5 135.5,-789.5"/>
<text text-anchor="start" x="143.5" y="-1021.5" font-family="Helvetica,sans-Serif" font-size="10.00">v8::internal::compiler</text>
<text text-anchor="start" x="143.5" y="-1010.5" font-family="Helvetica,sans-Serif" font-size="10.00">::turboshaft::Assembler</text>
<text text-anchor="middle" x="215.5" y="-999.5" font-family="Helvetica,sans-Serif" font-size="10.00">&lt; Reducers &gt;</text>
<polyline fill="none" stroke="red" points="135.5,-992.5 295.5,-992.5 "/>
<text text-anchor="middle" x="215.5" y="-980.5" font-family="Helvetica,sans-Serif" font-size="10.00"> </text>
<polyline fill="none" stroke="red" points="135.5,-973.5 295.5,-973.5 "/>
<text text-anchor="start" x="143.5" y="-961.5" font-family="Helvetica,sans-Serif" font-size="10.00">+ Assembler()</text>
<text text-anchor="start" x="143.5" y="-950.5" font-family="Helvetica,sans-Serif" font-size="10.00">+ data()</text>
<text text-anchor="start" x="143.5" y="-939.5" font-family="Helvetica,sans-Serif" font-size="10.00">+ phase_zone()</text>
<text text-anchor="start" x="143.5" y="-928.5" font-family="Helvetica,sans-Serif" font-size="10.00">+ input_graph()</text>
<text text-anchor="start" x="143.5" y="-917.5" font-family="Helvetica,sans-Serif" font-size="10.00">+ output_graph()</text>
<text text-anchor="start" x="143.5" y="-906.5" font-family="Helvetica,sans-Serif" font-size="10.00">+ graph_zone()</text>
<text text-anchor="start" x="143.5" y="-895.5" font-family="Helvetica,sans-Serif" font-size="10.00">+ modifiable_input_graph()</text>
<text text-anchor="start" x="143.5" y="-884.5" font-family="Helvetica,sans-Serif" font-size="10.00">+ NewLoopHeader()</text>
<text text-anchor="start" x="143.5" y="-873.5" font-family="Helvetica,sans-Serif" font-size="10.00">+ NewBlock()</text>
<text text-anchor="start" x="143.5" y="-862.5" font-family="Helvetica,sans-Serif" font-size="10.00">+ Bind()</text>
<text text-anchor="start" x="143.5" y="-851.5" font-family="Helvetica,sans-Serif" font-size="10.00">and 11 more...</text>
<text text-anchor="start" x="143.5" y="-840.5" font-family="Helvetica,sans-Serif" font-size="10.00">&#45; FinalizeBlock()</text>
<text text-anchor="start" x="143.5" y="-829.5" font-family="Helvetica,sans-Serif" font-size="10.00">&#45; CreateSinglePredecessorFor</text>
<text text-anchor="start" x="143.5" y="-818.5" font-family="Helvetica,sans-Serif" font-size="10.00">Loop()</text>
<text text-anchor="start" x="143.5" y="-807.5" font-family="Helvetica,sans-Serif" font-size="10.00">&#45; AddLoopPredecessor()</text>
<text text-anchor="start" x="143.5" y="-796.5" font-family="Helvetica,sans-Serif" font-size="10.00">&#45; SplitEdge()</text>
</a>
</g>
</g>
<!-- Node4&#45;&gt;Node742 -->
<g id="edge8" class="edge">
<title>Node4&#45;&gt;Node742</title>
<path fill="none" stroke="midnightblue" d="M168.06,-1105.51C173.1,-1085.02 179.41,-1059.36 185.76,-1033.52"/>
<polygon fill="none" stroke="midnightblue" points="164.61,-1104.89 165.63,-1115.44 171.41,-1106.56 164.61,-1104.89"/>
</g>
<!-- Node5 -->
<g id="node5" class="node">
<title>Node5</title>
<g id="a_node5"><a xlink:href="classv8_1_1internal_1_1Zone.html" target="_top" xlink:title=" ">
<polygon fill="white" stroke="red" points="12,-1231.5 12,-1442.5 125,-1442.5 125,-1231.5 12,-1231.5"/>
<text text-anchor="middle" x="68.5" y="-1430.5" font-family="Helvetica,sans-Serif" font-size="10.00">v8::internal::Zone</text>
<polyline fill="none" stroke="red" points="12,-1423.5 125,-1423.5 "/>
<text text-anchor="middle" x="68.5" y="-1411.5" font-family="Helvetica,sans-Serif" font-size="10.00"> </text>
<polyline fill="none" stroke="red" points="12,-1404.5 125,-1404.5 "/>
<text text-anchor="start" x="20" y="-1392.5" font-family="Helvetica,sans-Serif" font-size="10.00">+ Zone()</text>
<text text-anchor="start" x="20" y="-1381.5" font-family="Helvetica,sans-Serif" font-size="10.00">+ ~Zone()</text>
<text text-anchor="start" x="20" y="-1370.5" font-family="Helvetica,sans-Serif" font-size="10.00">+ Allocate()</text>
<text text-anchor="start" x="20" y="-1359.5" font-family="Helvetica,sans-Serif" font-size="10.00">+ Delete()</text>
<text text-anchor="start" x="20" y="-1348.5" font-family="Helvetica,sans-Serif" font-size="10.00">+ New()</text>
<text text-anchor="start" x="20" y="-1337.5" font-family="Helvetica,sans-Serif" font-size="10.00">+ AllocateArray()</text>
<text text-anchor="start" x="20" y="-1326.5" font-family="Helvetica,sans-Serif" font-size="10.00">+ AllocateVector()</text>
<text text-anchor="start" x="20" y="-1315.5" font-family="Helvetica,sans-Serif" font-size="10.00">+ NewVector()</text>
<text text-anchor="start" x="20" y="-1304.5" font-family="Helvetica,sans-Serif" font-size="10.00">+ NewVector()</text>
<text text-anchor="start" x="20" y="-1293.5" font-family="Helvetica,sans-Serif" font-size="10.00">+ CloneVector()</text>
<text text-anchor="start" x="20" y="-1282.5" font-family="Helvetica,sans-Serif" font-size="10.00">and 10 more...</text>
<text text-anchor="start" x="20" y="-1271.5" font-family="Helvetica,sans-Serif" font-size="10.00">&#45; AsanNew()</text>
<text text-anchor="start" x="20" y="-1260.5" font-family="Helvetica,sans-Serif" font-size="10.00">&#45; DeleteAll()</text>
<text text-anchor="start" x="20" y="-1249.5" font-family="Helvetica,sans-Serif" font-size="10.00">&#45; ReleaseSegment()</text>
<text text-anchor="start" x="20" y="-1238.5" font-family="Helvetica,sans-Serif" font-size="10.00">&#45; Expand()</text>
</a>
</g>
</g>
<!-- Node5&#45;&gt;Node1 -->
<g id="edge9" class="edge">
<title>Node5&#45;&gt;Node1</title>
<path fill="none" stroke="#404040" d="M56.29,-1231.17C54.1,-1204.87 52.5,-1176.68 52.5,-1150.5 52.5,-1150.5 52.5,-1150.5 52.5,-320 52.5,-295.71 55.38,-270.09 59.62,-245.56"/>
<polygon fill="none" stroke="#404040" points="59.65,-245.43 56.79,-238.8 61.8,-233.62 64.66,-240.24 59.65,-245.43"/>
<text text-anchor="middle" x="72.5" y="-713.5" font-family="Helvetica,sans-Serif" font-size="10.00"> #zone_</text>
</g>
<!-- Node5&#45;&gt;Node4 -->
<g id="edge4" class="edge">
<title>Node5&#45;&gt;Node4</title>
<path fill="none" stroke="#404040" d="M118.72,-1231.32C124.87,-1218.51 130.86,-1206.01 136.23,-1194.82"/>
<polygon fill="none" stroke="#404040" points="136.39,-1194.49 135.38,-1187.35 141.58,-1183.67 142.59,-1190.81 136.39,-1194.49"/>
<text text-anchor="middle" x="166.5" y="-1205" font-family="Helvetica,sans-Serif" font-size="10.00"> +phase_zone</text>
</g>
<!-- Node729 -->
<g id="node6" class="node">
<title>Node729</title>
<g id="a_node6"><a xlink:title=" ">
<polygon fill="white" stroke="#bfbfbf" points="313.5,-872 313.5,-951 473.5,-951 473.5,-872 313.5,-872"/>
<text text-anchor="start" x="321.5" y="-939" font-family="Helvetica,sans-Serif" font-size="10.00">ReducerStack&lt; reducer</text>
<text text-anchor="start" x="321.5" y="-928" font-family="Helvetica,sans-Serif" font-size="10.00">_list&lt; Reducers..., TSReducer</text>
<text text-anchor="middle" x="393.5" y="-917" font-family="Helvetica,sans-Serif" font-size="10.00">Base &gt; &gt;::type</text>
<polyline fill="none" stroke="#bfbfbf" points="313.5,-910 473.5,-910 "/>
<text text-anchor="middle" x="393.5" y="-898" font-family="Helvetica,sans-Serif" font-size="10.00"> </text>
<polyline fill="none" stroke="#bfbfbf" points="313.5,-891 473.5,-891 "/>
<text text-anchor="middle" x="393.5" y="-879" font-family="Helvetica,sans-Serif" font-size="10.00"> </text>
</a>
</g>
</g>
<!-- Node729&#45;&gt;Node3 -->
<g id="edge5" class="edge">
<title>Node729&#45;&gt;Node3</title>
<path fill="none" stroke="midnightblue" d="M393,-861.62C390.84,-818.48 383.35,-754.88 359.5,-705 343.94,-672.47 319.8,-641.62 295.71,-615.77"/>
<polygon fill="none" stroke="midnightblue" points="389.52,-862.01 393.44,-871.85 396.51,-861.72 389.52,-862.01"/>
</g>
<!-- Node730 -->
<g id="node7" class="node">
<title>Node730</title>
<g id="a_node7"><a xlink:href="classv8_1_1internal_1_1compiler_1_1turboshaft_1_1TurboshaftAssemblerOpInterface.html" target="_top" xlink:title=" ">
<polygon fill="white" stroke="red" points="491.5,-745.5 491.5,-1077.5 685.5,-1077.5 685.5,-745.5 491.5,-745.5"/>
<text text-anchor="start" x="499.5" y="-1065.5" font-family="Helvetica,sans-Serif" font-size="10.00">v8::internal::compiler</text>
<text text-anchor="start" x="499.5" y="-1054.5" font-family="Helvetica,sans-Serif" font-size="10.00">::turboshaft::TurboshaftAssembler</text>
<text text-anchor="middle" x="588.5" y="-1043.5" font-family="Helvetica,sans-Serif" font-size="10.00">OpInterface&lt; Assembler &gt;</text>
<polyline fill="none" stroke="red" points="491.5,-1036.5 685.5,-1036.5 "/>
<text text-anchor="start" x="499.5" y="-1024.5" font-family="Helvetica,sans-Serif" font-size="10.00">+ SignedMulOverflownBits</text>
<text text-anchor="start" x="499.5" y="-1013.5" font-family="Helvetica,sans-Serif" font-size="10.00">+ SignedAdd</text>
<text text-anchor="start" x="499.5" y="-1002.5" font-family="Helvetica,sans-Serif" font-size="10.00">+ right</text>
<text text-anchor="start" x="499.5" y="-991.5" font-family="Helvetica,sans-Serif" font-size="10.00">+ kind</text>
<text text-anchor="start" x="499.5" y="-980.5" font-family="Helvetica,sans-Serif" font-size="10.00">+ rep</text>
<text text-anchor="start" x="499.5" y="-969.5" font-family="Helvetica,sans-Serif" font-size="10.00">+ right</text>
<text text-anchor="start" x="499.5" y="-958.5" font-family="Helvetica,sans-Serif" font-size="10.00">+ rep</text>
<text text-anchor="start" x="499.5" y="-947.5" font-family="Helvetica,sans-Serif" font-size="10.00">+ RoundDown</text>
<text text-anchor="start" x="499.5" y="-936.5" font-family="Helvetica,sans-Serif" font-size="10.00">+ WordUnary</text>
<text text-anchor="start" x="499.5" y="-925.5" font-family="Helvetica,sans-Serif" font-size="10.00">+ WordUnary</text>
<text text-anchor="start" x="499.5" y="-914.5" font-family="Helvetica,sans-Serif" font-size="10.00">and 13 more...</text>
<polyline fill="none" stroke="red" points="491.5,-907.5 685.5,-907.5 "/>
<text text-anchor="start" x="499.5" y="-895.5" font-family="Helvetica,sans-Serif" font-size="10.00">+ TurboshaftAssemblerOpInterface()</text>
<text text-anchor="start" x="499.5" y="-884.5" font-family="Helvetica,sans-Serif" font-size="10.00">+ matcher()</text>
<text text-anchor="start" x="499.5" y="-873.5" font-family="Helvetica,sans-Serif" font-size="10.00">+ Word32SignHint()</text>
<text text-anchor="start" x="499.5" y="-862.5" font-family="Helvetica,sans-Serif" font-size="10.00">+ Word32SignHintUnsigned()</text>
<text text-anchor="start" x="499.5" y="-851.5" font-family="Helvetica,sans-Serif" font-size="10.00">+ Word32SignHintSigned()</text>
<text text-anchor="start" x="499.5" y="-840.5" font-family="Helvetica,sans-Serif" font-size="10.00">+ GenericBinop()</text>
<text text-anchor="start" x="499.5" y="-829.5" font-family="Helvetica,sans-Serif" font-size="10.00">+ GenericUnop()</text>
<text text-anchor="start" x="499.5" y="-818.5" font-family="Helvetica,sans-Serif" font-size="10.00">+ ToNumberOrNumeric()</text>
<text text-anchor="start" x="499.5" y="-807.5" font-family="Helvetica,sans-Serif" font-size="10.00">+ ToNumber()</text>
<text text-anchor="start" x="499.5" y="-796.5" font-family="Helvetica,sans-Serif" font-size="10.00">+ ToNumeric()</text>
<text text-anchor="start" x="499.5" y="-785.5" font-family="Helvetica,sans-Serif" font-size="10.00">and 393 more...</text>
<text text-anchor="start" x="499.5" y="-774.5" font-family="Helvetica,sans-Serif" font-size="10.00">&#45; LoadElement()</text>
<text text-anchor="start" x="499.5" y="-763.5" font-family="Helvetica,sans-Serif" font-size="10.00">&#45; StoreElement()</text>
<text text-anchor="start" x="499.5" y="-752.5" font-family="Helvetica,sans-Serif" font-size="10.00">&#45; BranchAndBind()</text>
</a>
</g>
</g>
<!-- Node730&#45;&gt;Node3 -->
<g id="edge6" class="edge">
<title>Node730&#45;&gt;Node3</title>
<path fill="none" stroke="midnightblue" d="M484.75,-747.46C484,-746.63 483.25,-745.81 482.5,-745 427.06,-685.13 352.05,-630.28 295.65,-592.98"/>
<polygon fill="none" stroke="midnightblue" points="482.2,-749.85 491.44,-755.03 487.45,-745.22 482.2,-749.85"/>
</g>
<!-- Node742&#45;&gt;Node3 -->
<g id="edge7" class="edge">
<title>Node742&#45;&gt;Node3</title>
<path fill="none" stroke="orange" d="M215.5,-779.21C215.5,-749.15 215.5,-717.07 215.5,-686.55"/>
<polygon fill="orange" stroke="orange" points="212,-779.31 215.5,-789.31 219,-779.31 212,-779.31"/>
<text text-anchor="start" x="215.5" y="-719" font-family="Helvetica,sans-Serif" font-size="10.00"> &lt; reducer_list&lt; Reducers...,</text>
<text text-anchor="middle" x="285.5" y="-708" font-family="Helvetica,sans-Serif" font-size="10.00"> TSReducerBase &gt; &gt;</text>
</g>
</g>
</svg>
