<?xml version="1.0" encoding="UTF-8" standalone="no"?>
<!DOCTYPE svg PUBLIC "-//W3C//DTD SVG 1.1//EN"
 "http://www.w3.org/Graphics/SVG/1.1/DTD/svg11.dtd">
<!-- Generated by graphviz version 2.43.0 (0)
 -->
<!-- Title: v8::internal::HeapAllocator::RemoveAllocationObserver Pages: 1 -->
<svg width="615pt" height="235pt"
 viewBox="0.00 0.00 615.00 235.00" xmlns="http://www.w3.org/2000/svg" xmlns:xlink="http://www.w3.org/1999/xlink">
<g id="graph0" class="graph" transform="scale(1 1) rotate(0) translate(4 231)">
<title>v8::internal::HeapAllocator::RemoveAllocationObserver</title>
<polygon fill="white" stroke="transparent" points="-4,4 -4,-231 611,-231 611,4 -4,4"/>
<!-- Node1 -->
<g id="node1" class="node">
<title>Node1</title>
<g id="a_node1"><a xlink:title=" ">
<polygon fill="#bfbfbf" stroke="black" points="0,-98.5 0,-128.5 156,-128.5 156,-98.5 0,-98.5"/>
<text text-anchor="start" x="8" y="-116.5" font-family="Helvetica,sans-Serif" font-size="10.00">v8::internal::HeapAllocator</text>
<text text-anchor="middle" x="78" y="-105.5" font-family="Helvetica,sans-Serif" font-size="10.00">::RemoveAllocationObserver</text>
</a>
</g>
</g>
<!-- Node2 -->
<g id="node2" class="node">
<title>Node2</title>
<g id="a_node2"><a xlink:href="classv8_1_1internal_1_1HeapAllocator.html#a9660384f34b9e01a89cd1008da657793" target="_top" xlink:title=" ">
<polygon fill="white" stroke="black" points="211,-196.5 211,-226.5 358,-226.5 358,-196.5 211,-196.5"/>
<text text-anchor="start" x="219" y="-214.5" font-family="Helvetica,sans-Serif" font-size="10.00">v8::internal::HeapAllocator</text>
<text text-anchor="middle" x="284.5" y="-203.5" font-family="Helvetica,sans-Serif" font-size="10.00">::code_lo_space</text>
</a>
</g>
</g>
<!-- Node1&#45;&gt;Node2 -->
<g id="edge1" class="edge">
<title>Node1&#45;&gt;Node2</title>
<path fill="none" stroke="midnightblue" d="M97.89,-128.65C119.47,-145.27 156.43,-171.69 192,-187.5 196.46,-189.48 201.11,-191.32 205.85,-193.04"/>
<polygon fill="midnightblue" stroke="midnightblue" points="205.09,-196.47 215.68,-196.37 207.34,-189.84 205.09,-196.47"/>
</g>
<!-- Node3 -->
<g id="node3" class="node">
<title>Node3</title>
<g id="a_node3"><a xlink:href="classv8_1_1internal_1_1HeapAllocator.html#a98c0937bcdb86d59f6081ad8dd593cae" target="_top" xlink:title=" ">
<polygon fill="white" stroke="black" points="211,-147.5 211,-177.5 358,-177.5 358,-147.5 211,-147.5"/>
<text text-anchor="start" x="219" y="-165.5" font-family="Helvetica,sans-Serif" font-size="10.00">v8::internal::HeapAllocator</text>
<text text-anchor="middle" x="284.5" y="-154.5" font-family="Helvetica,sans-Serif" font-size="10.00">::lo_space</text>
</a>
</g>
</g>
<!-- Node1&#45;&gt;Node3 -->
<g id="edge2" class="edge">
<title>Node1&#45;&gt;Node3</title>
<path fill="none" stroke="midnightblue" d="M141.75,-128.53C163.63,-133.78 188.37,-139.71 210.99,-145.13"/>
<polygon fill="midnightblue" stroke="midnightblue" points="210.33,-148.57 220.87,-147.49 211.96,-141.76 210.33,-148.57"/>
</g>
<!-- Node4 -->
<g id="node4" class="node">
<title>Node4</title>
<g id="a_node4"><a xlink:href="classv8_1_1internal_1_1HeapAllocator.html#ab34bbc6e79c909095387a879d368aa3d" target="_top" xlink:title=" ">
<polygon fill="white" stroke="black" points="211,-98.5 211,-128.5 358,-128.5 358,-98.5 211,-98.5"/>
<text text-anchor="start" x="219" y="-116.5" font-family="Helvetica,sans-Serif" font-size="10.00">v8::internal::HeapAllocator</text>
<text text-anchor="middle" x="284.5" y="-105.5" font-family="Helvetica,sans-Serif" font-size="10.00">::new_lo_space</text>
</a>
</g>
</g>
<!-- Node1&#45;&gt;Node4 -->
<g id="edge3" class="edge">
<title>Node1&#45;&gt;Node4</title>
<path fill="none" stroke="midnightblue" d="M156.02,-113.5C170.65,-113.5 186.01,-113.5 200.8,-113.5"/>
<polygon fill="midnightblue" stroke="midnightblue" points="200.94,-117 210.94,-113.5 200.94,-110 200.94,-117"/>
</g>
<!-- Node5 -->
<g id="node5" class="node">
<title>Node5</title>
<g id="a_node5"><a xlink:href="classv8_1_1internal_1_1LargeObjectSpace.html#a61f42543daf03d9cbe508b29b6965fbd" target="_top" xlink:title=" ">
<polygon fill="white" stroke="black" points="192,-49.5 192,-79.5 377,-79.5 377,-49.5 192,-49.5"/>
<text text-anchor="start" x="200" y="-67.5" font-family="Helvetica,sans-Serif" font-size="10.00">v8::internal::LargeObject</text>
<text text-anchor="middle" x="284.5" y="-56.5" font-family="Helvetica,sans-Serif" font-size="10.00">Space::RemoveAllocationObserver</text>
</a>
</g>
</g>
<!-- Node1&#45;&gt;Node5 -->
<g id="edge4" class="edge">
<title>Node1&#45;&gt;Node5</title>
<path fill="none" stroke="midnightblue" d="M141.75,-98.47C163.63,-93.22 188.37,-87.29 210.99,-81.87"/>
<polygon fill="midnightblue" stroke="midnightblue" points="211.96,-85.24 220.87,-79.51 210.33,-78.43 211.96,-85.24"/>
</g>
<!-- Node7 -->
<g id="node7" class="node">
<title>Node7</title>
<g id="a_node7"><a xlink:href="classv8_1_1internal_1_1HeapAllocator.html#aeeb3133db471f32c6fa461149d3ea656" target="_top" xlink:title=" ">
<polygon fill="white" stroke="black" points="211,-0.5 211,-30.5 358,-30.5 358,-0.5 211,-0.5"/>
<text text-anchor="start" x="219" y="-18.5" font-family="Helvetica,sans-Serif" font-size="10.00">v8::internal::HeapAllocator</text>
<text text-anchor="middle" x="284.5" y="-7.5" font-family="Helvetica,sans-Serif" font-size="10.00">::trusted_lo_space</text>
</a>
</g>
</g>
<!-- Node1&#45;&gt;Node7 -->
<g id="edge6" class="edge">
<title>Node1&#45;&gt;Node7</title>
<path fill="none" stroke="midnightblue" d="M98.35,-98.34C120.04,-82 156.81,-56.22 192,-40.5 197.39,-38.09 203.07,-35.86 208.85,-33.82"/>
<polygon fill="midnightblue" stroke="midnightblue" points="210.26,-37.04 218.64,-30.55 208.04,-30.4 210.26,-37.04"/>
</g>
<!-- Node6 -->
<g id="node6" class="node">
<title>Node6</title>
<g id="a_node6"><a xlink:href="classv8_1_1internal_1_1AllocationCounter.html#a5d1661f14b2dca8d0be3e0e05126028d" target="_top" xlink:title=" ">
<polygon fill="white" stroke="black" points="413,-49.5 413,-79.5 607,-79.5 607,-49.5 413,-49.5"/>
<text text-anchor="start" x="421" y="-67.5" font-family="Helvetica,sans-Serif" font-size="10.00">v8::internal::Allocation</text>
<text text-anchor="middle" x="510" y="-56.5" font-family="Helvetica,sans-Serif" font-size="10.00">Counter::RemoveAllocationObserver</text>
</a>
</g>
</g>
<!-- Node5&#45;&gt;Node6 -->
<g id="edge5" class="edge">
<title>Node5&#45;&gt;Node6</title>
<path fill="none" stroke="midnightblue" d="M377.05,-64.5C385.54,-64.5 394.19,-64.5 402.8,-64.5"/>
<polygon fill="midnightblue" stroke="midnightblue" points="402.88,-68 412.88,-64.5 402.88,-61 402.88,-68"/>
</g>
</g>
</svg>
