<?xml version="1.0" encoding="UTF-8" standalone="no"?>
<!DOCTYPE svg PUBLIC "-//W3C//DTD SVG 1.1//EN"
 "http://www.w3.org/Graphics/SVG/1.1/DTD/svg11.dtd">
<!-- Generated by graphviz version 2.43.0 (0)
 -->
<!-- Title: v8::internal::wasm::TurboshaftGraphBuildingInterface::BlockPhis::AddInputForPhi Pages: 1 -->
<!--zoomable 744 -->
<svg id="main" version="1.1" xmlns="http://www.w3.org/2000/svg" xmlns:xlink="http://www.w3.org/1999/xlink" xml:space="preserve" onload="init(evt)">
<style type="text/css"><![CDATA[
.edge:hover path { stroke: red; }
.edge:hover polygon { stroke: red; fill: red; }
]]></style>
<script type="text/javascript"><![CDATA[
var edges = document.getElementsByTagName('g');
if (edges && edges.length) {
  for (var i=0;i<edges.length;i++) {
    if (edges[i].id.substr(0,4)=='edge') {
      edges[i].setAttribute('class','edge');
    }
  }
}
]]></script>
        <defs>
                <circle id="rim" cx="0" cy="0" r="7"/>
                <circle id="rim2" cx="0" cy="0" r="3.5"/>
                <g id="zoomPlus">
                        <use xlink:href="#rim" fill="#404040">
                                <set attributeName="fill" to="#808080" begin="zoomplus.mouseover" end="zoomplus.mouseout"/>
                        </use>
                        <path d="M-4,0h8M0,-4v8" fill="none" stroke="white" stroke-width="1.5" pointer-events="none"/>
                </g>
                <g id="zoomMin">
                        <use xlink:href="#rim" fill="#404040">
                                <set attributeName="fill" to="#808080" begin="zoomminus.mouseover" end="zoomminus.mouseout"/>
                        </use>
                        <path d="M-4,0h8" fill="none" stroke="white" stroke-width="1.5" pointer-events="none"/>
                </g>
                <g id="dirArrow">
                        <path fill="none" stroke="white" stroke-width="1.5" d="M0,-3.0v7 M-2.5,-0.5L0,-3.0L2.5,-0.5"/>
                </g>
               <g id="resetDef">
                       <use xlink:href="#rim2" fill="#404040">
                               <set attributeName="fill" to="#808080" begin="reset.mouseover" end="reset.mouseout"/>
                       </use>
               </g>
        </defs>

<script type="text/javascript">
var viewWidth = 1546;
var viewHeight = 744;
var sectionId = 'dynsection-3';
</script>
<script xlink:href="svgpan.js"/>
<svg id="graph" class="graph">
<g id="viewport">
<title>v8::internal::wasm::TurboshaftGraphBuildingInterface::BlockPhis::AddInputForPhi</title>
<polygon fill="white" stroke="transparent" points="-4,4 -4,-739.93 1542,-739.93 1542,4 -4,4"/>
<!-- Node1 -->
<g id="node1" class="node">
<title>Node1</title>
<g id="a_node1"><a xlink:title=" ">
<polygon fill="#bfbfbf" stroke="black" points="1353,-574.5 1353,-615.5 1538,-615.5 1538,-574.5 1353,-574.5"/>
<text text-anchor="start" x="1361" y="-603.5" font-family="Helvetica,sans-Serif" font-size="10.00">v8::internal::wasm</text>
<text text-anchor="start" x="1361" y="-592.5" font-family="Helvetica,sans-Serif" font-size="10.00">::TurboshaftGraphBuildingInterface</text>
<text text-anchor="middle" x="1445.5" y="-581.5" font-family="Helvetica,sans-Serif" font-size="10.00">::BlockPhis::AddInputForPhi</text>
</a>
</g>
</g>
<!-- Node2 -->
<g id="node2" class="node">
<title>Node2</title>
<g id="a_node2"><a xlink:href="classv8_1_1internal_1_1wasm_1_1TurboshaftGraphBuildingInterface.html#a0ec5841b8ef1a19145884cd25b38524a" target="_top" xlink:title=" ">
<polygon fill="white" stroke="black" points="442,-231.5 442,-272.5 627,-272.5 627,-231.5 442,-231.5"/>
<text text-anchor="start" x="450" y="-260.5" font-family="Helvetica,sans-Serif" font-size="10.00">v8::internal::wasm</text>
<text text-anchor="start" x="450" y="-249.5" font-family="Helvetica,sans-Serif" font-size="10.00">::TurboshaftGraphBuildingInterface</text>
<text text-anchor="middle" x="534.5" y="-238.5" font-family="Helvetica,sans-Serif" font-size="10.00">::BuildWasmMaybeReturnCall</text>
</a>
</g>
</g>
<!-- Node1&#45;&gt;Node2 -->
<g id="edge1" class="edge">
<title>Node1&#45;&gt;Node2</title>
<path fill="none" stroke="midnightblue" d="M1393.16,-619.99C1258.4,-681.61 889.36,-824.17 663,-658 597.94,-610.24 551.06,-348.24 538.72,-272.51"/>
<polygon fill="midnightblue" stroke="midnightblue" points="1394.85,-623.07 1402.46,-615.7 1391.91,-616.72 1394.85,-623.07"/>
</g>
<!-- Node10 -->
<g id="node10" class="node">
<title>Node10</title>
<g id="a_node10"><a xlink:href="classv8_1_1internal_1_1wasm_1_1TurboshaftGraphBuildingInterface.html#a8b0653bb85376ce47d72eadb87339c83" target="_top" xlink:title=" ">
<polygon fill="white" stroke="black" points="1132,-574.5 1132,-615.5 1317,-615.5 1317,-574.5 1132,-574.5"/>
<text text-anchor="start" x="1140" y="-603.5" font-family="Helvetica,sans-Serif" font-size="10.00">v8::internal::wasm</text>
<text text-anchor="start" x="1140" y="-592.5" font-family="Helvetica,sans-Serif" font-size="10.00">::TurboshaftGraphBuildingInterface</text>
<text text-anchor="middle" x="1224.5" y="-581.5" font-family="Helvetica,sans-Serif" font-size="10.00">::DoReturn</text>
</a>
</g>
</g>
<!-- Node1&#45;&gt;Node10 -->
<g id="edge12" class="edge">
<title>Node1&#45;&gt;Node10</title>
<path fill="none" stroke="midnightblue" d="M1342.85,-595C1334.26,-595 1325.6,-595 1317.09,-595"/>
<polygon fill="midnightblue" stroke="midnightblue" points="1342.89,-598.5 1352.89,-595 1342.89,-591.5 1342.89,-598.5"/>
</g>
<!-- Node25 -->
<g id="node19" class="node">
<title>Node25</title>
<g id="a_node19"><a xlink:href="classv8_1_1internal_1_1wasm_1_1TurboshaftGraphBuildingInterface.html#ade0a422edc8b106f3b4562504c601f96" target="_top" xlink:title=" ">
<polygon fill="white" stroke="black" points="1132,-322.5 1132,-363.5 1317,-363.5 1317,-322.5 1132,-322.5"/>
<text text-anchor="start" x="1140" y="-351.5" font-family="Helvetica,sans-Serif" font-size="10.00">v8::internal::wasm</text>
<text text-anchor="start" x="1140" y="-340.5" font-family="Helvetica,sans-Serif" font-size="10.00">::TurboshaftGraphBuildingInterface</text>
<text text-anchor="middle" x="1224.5" y="-329.5" font-family="Helvetica,sans-Serif" font-size="10.00">::SetupControlFlowEdge</text>
</a>
</g>
</g>
<!-- Node1&#45;&gt;Node25 -->
<g id="edge22" class="edge">
<title>Node1&#45;&gt;Node25</title>
<path fill="none" stroke="midnightblue" d="M1419.86,-566.65C1375.31,-515.39 1282.39,-408.46 1243.36,-363.55"/>
<polygon fill="midnightblue" stroke="midnightblue" points="1417.38,-569.13 1426.58,-574.38 1422.66,-564.53 1417.38,-569.13"/>
</g>
<!-- Node3 -->
<g id="node3" class="node">
<title>Node3</title>
<g id="a_node3"><a xlink:href="classv8_1_1internal_1_1wasm_1_1TurboshaftGraphBuildingInterface.html#a75934d1412a1093517522c0cd321aa94" target="_top" xlink:title=" ">
<polygon fill="white" stroke="black" points="221,-153.5 221,-194.5 406,-194.5 406,-153.5 221,-153.5"/>
<text text-anchor="start" x="229" y="-182.5" font-family="Helvetica,sans-Serif" font-size="10.00">v8::internal::wasm</text>
<text text-anchor="start" x="229" y="-171.5" font-family="Helvetica,sans-Serif" font-size="10.00">::TurboshaftGraphBuildingInterface</text>
<text text-anchor="middle" x="313.5" y="-160.5" font-family="Helvetica,sans-Serif" font-size="10.00">::InlineWasmCall</text>
</a>
</g>
</g>
<!-- Node2&#45;&gt;Node3 -->
<g id="edge2" class="edge">
<title>Node2&#45;&gt;Node3</title>
<path fill="none" stroke="midnightblue" d="M466.11,-228C436.09,-217.31 401.08,-204.84 372.27,-194.58"/>
<polygon fill="midnightblue" stroke="midnightblue" points="465.08,-231.35 475.67,-231.4 467.43,-224.75 465.08,-231.35"/>
</g>
<!-- Node7 -->
<g id="node7" class="node">
<title>Node7</title>
<g id="a_node7"><a xlink:href="classv8_1_1internal_1_1wasm_1_1TurboshaftGraphBuildingInterface.html#af59c89995efe3c9788d291657c8e3e65" target="_top" xlink:title=" ">
<polygon fill="white" stroke="black" points="0,-240.5 0,-281.5 185,-281.5 185,-240.5 0,-240.5"/>
<text text-anchor="start" x="8" y="-269.5" font-family="Helvetica,sans-Serif" font-size="10.00">v8::internal::wasm</text>
<text text-anchor="start" x="8" y="-258.5" font-family="Helvetica,sans-Serif" font-size="10.00">::TurboshaftGraphBuildingInterface</text>
<text text-anchor="middle" x="92.5" y="-247.5" font-family="Helvetica,sans-Serif" font-size="10.00">::ReturnCall</text>
</a>
</g>
</g>
<!-- Node2&#45;&gt;Node7 -->
<g id="edge9" class="edge">
<title>Node2&#45;&gt;Node7</title>
<path fill="none" stroke="midnightblue" d="M431.47,-254.09C357.02,-255.61 256.98,-257.66 185.08,-259.13"/>
<polygon fill="midnightblue" stroke="midnightblue" points="431.87,-257.58 441.8,-253.88 431.73,-250.58 431.87,-257.58"/>
</g>
<!-- Node8 -->
<g id="node8" class="node">
<title>Node8</title>
<g id="a_node8"><a xlink:href="classv8_1_1internal_1_1wasm_1_1TurboshaftGraphBuildingInterface.html#a462225069784833c8224faafe52dc408" target="_top" xlink:title=" ">
<polygon fill="white" stroke="black" points="0,-180.5 0,-221.5 185,-221.5 185,-180.5 0,-180.5"/>
<text text-anchor="start" x="8" y="-209.5" font-family="Helvetica,sans-Serif" font-size="10.00">v8::internal::wasm</text>
<text text-anchor="start" x="8" y="-198.5" font-family="Helvetica,sans-Serif" font-size="10.00">::TurboshaftGraphBuildingInterface</text>
<text text-anchor="middle" x="92.5" y="-187.5" font-family="Helvetica,sans-Serif" font-size="10.00">::ReturnCallIndirect</text>
</a>
</g>
</g>
<!-- Node2&#45;&gt;Node8 -->
<g id="edge10" class="edge">
<title>Node2&#45;&gt;Node8</title>
<path fill="none" stroke="midnightblue" d="M431.47,-240.17C357.02,-231.54 256.98,-219.95 185.08,-211.62"/>
<polygon fill="midnightblue" stroke="midnightblue" points="431.46,-243.7 441.8,-241.37 432.27,-236.74 431.46,-243.7"/>
</g>
<!-- Node9 -->
<g id="node9" class="node">
<title>Node9</title>
<g id="a_node9"><a xlink:href="classv8_1_1internal_1_1wasm_1_1TurboshaftGraphBuildingInterface.html#a1bacba2674e081d02063ea98fadfb04b" target="_top" xlink:title=" ">
<polygon fill="white" stroke="black" points="0,-300.5 0,-341.5 185,-341.5 185,-300.5 0,-300.5"/>
<text text-anchor="start" x="8" y="-329.5" font-family="Helvetica,sans-Serif" font-size="10.00">v8::internal::wasm</text>
<text text-anchor="start" x="8" y="-318.5" font-family="Helvetica,sans-Serif" font-size="10.00">::TurboshaftGraphBuildingInterface</text>
<text text-anchor="middle" x="92.5" y="-307.5" font-family="Helvetica,sans-Serif" font-size="10.00">::ReturnCallRef</text>
</a>
</g>
</g>
<!-- Node2&#45;&gt;Node9 -->
<g id="edge11" class="edge">
<title>Node2&#45;&gt;Node9</title>
<path fill="none" stroke="midnightblue" d="M431.47,-268C357.02,-279.68 256.98,-295.36 185.08,-306.64"/>
<polygon fill="midnightblue" stroke="midnightblue" points="432.46,-271.39 441.8,-266.38 431.38,-264.47 432.46,-271.39"/>
</g>
<!-- Node4 -->
<g id="node4" class="node">
<title>Node4</title>
<g id="a_node4"><a xlink:href="classv8_1_1internal_1_1wasm_1_1TurboshaftGraphBuildingInterface.html#ad00f41751c8bfdafbc335de7e4589663" target="_top" xlink:title=" ">
<polygon fill="white" stroke="black" points="0,-60.5 0,-101.5 185,-101.5 185,-60.5 0,-60.5"/>
<text text-anchor="start" x="8" y="-89.5" font-family="Helvetica,sans-Serif" font-size="10.00">v8::internal::wasm</text>
<text text-anchor="start" x="8" y="-78.5" font-family="Helvetica,sans-Serif" font-size="10.00">::TurboshaftGraphBuildingInterface</text>
<text text-anchor="middle" x="92.5" y="-67.5" font-family="Helvetica,sans-Serif" font-size="10.00">::CallDirect</text>
</a>
</g>
</g>
<!-- Node3&#45;&gt;Node4 -->
<g id="edge3" class="edge">
<title>Node3&#45;&gt;Node4</title>
<path fill="none" stroke="midnightblue" d="M265.25,-148.65C241.53,-136.44 212.14,-122.09 185,-111 176.95,-107.71 168.4,-104.52 159.88,-101.53"/>
<polygon fill="midnightblue" stroke="midnightblue" points="263.89,-151.89 274.38,-153.39 267.11,-145.67 263.89,-151.89"/>
</g>
<!-- Node5 -->
<g id="node5" class="node">
<title>Node5</title>
<g id="a_node5"><a xlink:href="classv8_1_1internal_1_1wasm_1_1TurboshaftGraphBuildingInterface.html#a6951c198a1b223db2f4904c8fc0ec178" target="_top" xlink:title=" ">
<polygon fill="white" stroke="black" points="0,-0.5 0,-41.5 185,-41.5 185,-0.5 0,-0.5"/>
<text text-anchor="start" x="8" y="-29.5" font-family="Helvetica,sans-Serif" font-size="10.00">v8::internal::wasm</text>
<text text-anchor="start" x="8" y="-18.5" font-family="Helvetica,sans-Serif" font-size="10.00">::TurboshaftGraphBuildingInterface</text>
<text text-anchor="middle" x="92.5" y="-7.5" font-family="Helvetica,sans-Serif" font-size="10.00">::CallIndirect</text>
</a>
</g>
</g>
<!-- Node3&#45;&gt;Node5 -->
<g id="edge4" class="edge">
<title>Node3&#45;&gt;Node5</title>
<path fill="none" stroke="midnightblue" d="M289.62,-145.42C266.07,-117.71 226.96,-76.28 185,-51 179.27,-47.55 173.1,-44.45 166.76,-41.66"/>
<polygon fill="midnightblue" stroke="midnightblue" points="287.03,-147.77 296.13,-153.19 292.4,-143.28 287.03,-147.77"/>
</g>
<!-- Node6 -->
<g id="node6" class="node">
<title>Node6</title>
<g id="a_node6"><a xlink:href="classv8_1_1internal_1_1wasm_1_1TurboshaftGraphBuildingInterface.html#a440ea0b7b1056fc0934fbec689aeaae1" target="_top" xlink:title=" ">
<polygon fill="white" stroke="black" points="0,-120.5 0,-161.5 185,-161.5 185,-120.5 0,-120.5"/>
<text text-anchor="start" x="8" y="-149.5" font-family="Helvetica,sans-Serif" font-size="10.00">v8::internal::wasm</text>
<text text-anchor="start" x="8" y="-138.5" font-family="Helvetica,sans-Serif" font-size="10.00">::TurboshaftGraphBuildingInterface</text>
<text text-anchor="middle" x="92.5" y="-127.5" font-family="Helvetica,sans-Serif" font-size="10.00">::CallRef</text>
</a>
</g>
</g>
<!-- Node3&#45;&gt;Node6 -->
<g id="edge5" class="edge">
<title>Node3&#45;&gt;Node6</title>
<path fill="none" stroke="midnightblue" d="M210.85,-158.68C202.26,-157.39 193.6,-156.08 185.09,-154.8"/>
<polygon fill="midnightblue" stroke="midnightblue" points="210.48,-162.17 220.89,-160.2 211.53,-155.25 210.48,-162.17"/>
</g>
<!-- Node3&#45;&gt;Node7 -->
<g id="edge6" class="edge">
<title>Node3&#45;&gt;Node7</title>
<path fill="none" stroke="midnightblue" d="M260.4,-198.76C237.5,-209.26 210.15,-221.29 185,-231 176.73,-234.19 167.97,-237.35 159.27,-240.35"/>
<polygon fill="midnightblue" stroke="midnightblue" points="261.98,-201.88 269.59,-194.52 259.05,-195.53 261.98,-201.88"/>
</g>
<!-- Node3&#45;&gt;Node8 -->
<g id="edge7" class="edge">
<title>Node3&#45;&gt;Node8</title>
<path fill="none" stroke="midnightblue" d="M210.85,-186.53C202.26,-187.59 193.6,-188.66 185.09,-189.71"/>
<polygon fill="midnightblue" stroke="midnightblue" points="211.4,-189.99 220.89,-185.29 210.54,-183.04 211.4,-189.99"/>
</g>
<!-- Node3&#45;&gt;Node9 -->
<g id="edge8" class="edge">
<title>Node3&#45;&gt;Node9</title>
<path fill="none" stroke="midnightblue" d="M288.21,-202.38C264.33,-228.67 225.65,-267.2 185,-291 179.08,-294.46 172.72,-297.59 166.19,-300.39"/>
<polygon fill="midnightblue" stroke="midnightblue" points="291.07,-204.43 295.13,-194.64 285.85,-199.76 291.07,-204.43"/>
</g>
<!-- Node11 -->
<g id="node11" class="node">
<title>Node11</title>
<g id="a_node11"><a xlink:href="classv8_1_1internal_1_1wasm_1_1TurboshaftGraphBuildingInterface.html#a68eba13b6f49f18030e1e1f95c0432b5" target="_top" xlink:title=" ">
<polygon fill="white" stroke="black" points="885.5,-580 885.5,-610 1094.5,-610 1094.5,-580 885.5,-580"/>
<text text-anchor="start" x="893.5" y="-598" font-family="Helvetica,sans-Serif" font-size="10.00">v8::internal::wasm</text>
<text text-anchor="middle" x="990" y="-587" font-family="Helvetica,sans-Serif" font-size="10.00">::TurboshaftGraphBuildingInterface::BrIf</text>
</a>
</g>
</g>
<!-- Node10&#45;&gt;Node11 -->
<g id="edge13" class="edge">
<title>Node10&#45;&gt;Node11</title>
<path fill="none" stroke="midnightblue" d="M1121.86,-595C1112.88,-595 1103.78,-595 1094.78,-595"/>
<polygon fill="midnightblue" stroke="midnightblue" points="1121.94,-598.5 1131.94,-595 1121.94,-591.5 1121.94,-598.5"/>
</g>
<!-- Node12 -->
<g id="node12" class="node">
<title>Node12</title>
<g id="a_node12"><a xlink:href="classv8_1_1internal_1_1wasm_1_1TurboshaftGraphBuildingInterface.html#afca65e81e8d24579103066deb0b8e7a1" target="_top" xlink:title=" ">
<polygon fill="white" stroke="black" points="897.5,-481.5 897.5,-522.5 1082.5,-522.5 1082.5,-481.5 897.5,-481.5"/>
<text text-anchor="start" x="905.5" y="-510.5" font-family="Helvetica,sans-Serif" font-size="10.00">v8::internal::wasm</text>
<text text-anchor="start" x="905.5" y="-499.5" font-family="Helvetica,sans-Serif" font-size="10.00">::TurboshaftGraphBuildingInterface</text>
<text text-anchor="middle" x="990" y="-488.5" font-family="Helvetica,sans-Serif" font-size="10.00">::BrOrRet</text>
</a>
</g>
</g>
<!-- Node10&#45;&gt;Node12 -->
<g id="edge14" class="edge">
<title>Node10&#45;&gt;Node12</title>
<path fill="none" stroke="midnightblue" d="M1162.44,-570.58C1125.15,-555.66 1078,-536.8 1042.58,-522.63"/>
<polygon fill="midnightblue" stroke="midnightblue" points="1161.6,-574.01 1172.19,-574.48 1164.2,-567.51 1161.6,-574.01"/>
</g>
<!-- Node23 -->
<g id="node17" class="node">
<title>Node23</title>
<g id="a_node17"><a xlink:href="classv8_1_1internal_1_1wasm_1_1TurboshaftGraphBuildingInterface.html#a53caaa6a26b555232aaf88f3ecf86b80" target="_top" xlink:title=" ">
<polygon fill="white" stroke="black" points="663,-607.5 663,-648.5 848,-648.5 848,-607.5 663,-607.5"/>
<text text-anchor="start" x="671" y="-636.5" font-family="Helvetica,sans-Serif" font-size="10.00">v8::internal::wasm</text>
<text text-anchor="start" x="671" y="-625.5" font-family="Helvetica,sans-Serif" font-size="10.00">::TurboshaftGraphBuildingInterface</text>
<text text-anchor="middle" x="755.5" y="-614.5" font-family="Helvetica,sans-Serif" font-size="10.00">::BrTable</text>
</a>
</g>
</g>
<!-- Node10&#45;&gt;Node23 -->
<g id="edge21" class="edge">
<title>Node10&#45;&gt;Node23</title>
<path fill="none" stroke="midnightblue" d="M1121.98,-616.51C1113.22,-617.88 1104.47,-619.08 1096,-620 1012.48,-629.11 916.75,-630.55 848.28,-630.05"/>
<polygon fill="midnightblue" stroke="midnightblue" points="1122.55,-619.97 1131.86,-614.9 1121.43,-613.06 1122.55,-619.97"/>
</g>
<!-- Node13 -->
<g id="node13" class="node">
<title>Node13</title>
<g id="a_node13"><a xlink:href="classv8_1_1internal_1_1wasm_1_1TurboshaftGraphBuildingInterface.html#ac5e703f83b995067bc586350ab477676" target="_top" xlink:title=" ">
<polygon fill="white" stroke="red" points="663,-547.5 663,-588.5 848,-588.5 848,-547.5 663,-547.5"/>
<text text-anchor="start" x="671" y="-576.5" font-family="Helvetica,sans-Serif" font-size="10.00">v8::internal::wasm</text>
<text text-anchor="start" x="671" y="-565.5" font-family="Helvetica,sans-Serif" font-size="10.00">::TurboshaftGraphBuildingInterface</text>
<text text-anchor="middle" x="755.5" y="-554.5" font-family="Helvetica,sans-Serif" font-size="10.00">::BrOnCastFailImpl</text>
</a>
</g>
</g>
<!-- Node12&#45;&gt;Node13 -->
<g id="edge15" class="edge">
<title>Node12&#45;&gt;Node13</title>
<path fill="none" stroke="midnightblue" d="M907.05,-525.26C881.52,-532.51 853.56,-540.45 828.75,-547.49"/>
<polygon fill="midnightblue" stroke="midnightblue" points="908.05,-528.62 916.71,-522.52 906.13,-521.88 908.05,-528.62"/>
</g>
<!-- Node17 -->
<g id="node14" class="node">
<title>Node17</title>
<g id="a_node14"><a xlink:href="classv8_1_1internal_1_1wasm_1_1TurboshaftGraphBuildingInterface.html#aea37a41054fab133f0bfa6a34af5cff2" target="_top" xlink:title=" ">
<polygon fill="white" stroke="red" points="663,-487.5 663,-528.5 848,-528.5 848,-487.5 663,-487.5"/>
<text text-anchor="start" x="671" y="-516.5" font-family="Helvetica,sans-Serif" font-size="10.00">v8::internal::wasm</text>
<text text-anchor="start" x="671" y="-505.5" font-family="Helvetica,sans-Serif" font-size="10.00">::TurboshaftGraphBuildingInterface</text>
<text text-anchor="middle" x="755.5" y="-494.5" font-family="Helvetica,sans-Serif" font-size="10.00">::BrOnCastImpl</text>
</a>
</g>
</g>
<!-- Node12&#45;&gt;Node17 -->
<g id="edge16" class="edge">
<title>Node12&#45;&gt;Node17</title>
<path fill="none" stroke="midnightblue" d="M887.15,-504.63C874.25,-504.96 861.1,-505.3 848.35,-505.63"/>
<polygon fill="midnightblue" stroke="midnightblue" points="887.54,-508.12 897.44,-504.36 887.36,-501.12 887.54,-508.12"/>
</g>
<!-- Node21 -->
<g id="node15" class="node">
<title>Node21</title>
<g id="a_node15"><a xlink:href="classv8_1_1internal_1_1wasm_1_1TurboshaftGraphBuildingInterface.html#a5ff813c914a88b17cbc25915f7d590af" target="_top" xlink:title=" ">
<polygon fill="white" stroke="black" points="663,-427.5 663,-468.5 848,-468.5 848,-427.5 663,-427.5"/>
<text text-anchor="start" x="671" y="-456.5" font-family="Helvetica,sans-Serif" font-size="10.00">v8::internal::wasm</text>
<text text-anchor="start" x="671" y="-445.5" font-family="Helvetica,sans-Serif" font-size="10.00">::TurboshaftGraphBuildingInterface</text>
<text text-anchor="middle" x="755.5" y="-434.5" font-family="Helvetica,sans-Serif" font-size="10.00">::BrOnNonNull</text>
</a>
</g>
</g>
<!-- Node12&#45;&gt;Node21 -->
<g id="edge17" class="edge">
<title>Node12&#45;&gt;Node21</title>
<path fill="none" stroke="midnightblue" d="M890.53,-479.13C875.35,-475.6 859.76,-471.98 844.82,-468.51"/>
<polygon fill="midnightblue" stroke="midnightblue" points="889.91,-482.58 900.44,-481.43 891.49,-475.76 889.91,-482.58"/>
</g>
<!-- Node22 -->
<g id="node16" class="node">
<title>Node22</title>
<g id="a_node16"><a xlink:href="classv8_1_1internal_1_1wasm_1_1TurboshaftGraphBuildingInterface.html#a7221589992b5d9921119aff44273acd4" target="_top" xlink:title=" ">
<polygon fill="white" stroke="black" points="663,-367.5 663,-408.5 848,-408.5 848,-367.5 663,-367.5"/>
<text text-anchor="start" x="671" y="-396.5" font-family="Helvetica,sans-Serif" font-size="10.00">v8::internal::wasm</text>
<text text-anchor="start" x="671" y="-385.5" font-family="Helvetica,sans-Serif" font-size="10.00">::TurboshaftGraphBuildingInterface</text>
<text text-anchor="middle" x="755.5" y="-374.5" font-family="Helvetica,sans-Serif" font-size="10.00">::BrOnNull</text>
</a>
</g>
</g>
<!-- Node12&#45;&gt;Node22 -->
<g id="edge18" class="edge">
<title>Node12&#45;&gt;Node22</title>
<path fill="none" stroke="midnightblue" d="M890.55,-476.39C888.3,-475 886.11,-473.54 884,-472 860.7,-454.99 870.97,-435.45 848,-418 843.34,-414.46 838.25,-411.33 832.92,-408.56"/>
<polygon fill="midnightblue" stroke="midnightblue" points="889.07,-479.57 899.51,-481.37 892.47,-473.45 889.07,-479.57"/>
</g>
<!-- Node12&#45;&gt;Node23 -->
<g id="edge19" class="edge">
<title>Node12&#45;&gt;Node23</title>
<path fill="none" stroke="midnightblue" d="M898.15,-527.38C893.16,-530.26 888.39,-533.45 884,-537 859.52,-556.79 872.53,-578.27 848,-598 843.57,-601.56 838.7,-604.71 833.59,-607.48"/>
<polygon fill="midnightblue" stroke="midnightblue" points="900.14,-530.29 907.36,-522.54 896.88,-524.1 900.14,-530.29"/>
</g>
<!-- Node24 -->
<g id="node18" class="node">
<title>Node24</title>
<g id="a_node18"><a xlink:href="classv8_1_1internal_1_1wasm_1_1TurboshaftGraphBuildingInterface.html#a1d505e4dbc7c1d7a22b11e088fb97ed9" target="_top" xlink:title=" ">
<polygon fill="white" stroke="black" points="663,-307.5 663,-348.5 848,-348.5 848,-307.5 663,-307.5"/>
<text text-anchor="start" x="671" y="-336.5" font-family="Helvetica,sans-Serif" font-size="10.00">v8::internal::wasm</text>
<text text-anchor="start" x="671" y="-325.5" font-family="Helvetica,sans-Serif" font-size="10.00">::TurboshaftGraphBuildingInterface</text>
<text text-anchor="middle" x="755.5" y="-314.5" font-family="Helvetica,sans-Serif" font-size="10.00">::CatchCase</text>
</a>
</g>
</g>
<!-- Node12&#45;&gt;Node24 -->
<g id="edge20" class="edge">
<title>Node12&#45;&gt;Node24</title>
<path fill="none" stroke="midnightblue" d="M888.62,-476.11C887.02,-474.81 885.48,-473.44 884,-472 845.91,-434.95 885.36,-395.78 848,-358 844.47,-354.43 840.52,-351.29 836.28,-348.52"/>
<polygon fill="midnightblue" stroke="midnightblue" points="886.86,-479.16 897.03,-482.11 890.92,-473.46 886.86,-479.16"/>
</g>
<!-- Node25&#45;&gt;Node3 -->
<g id="edge40" class="edge">
<title>Node25&#45;&gt;Node3</title>
<path fill="none" stroke="midnightblue" d="M1204.77,-313.99C1182.89,-282.95 1143.54,-235.3 1096,-214 1034.51,-186.45 599.05,-177.58 406.12,-174.98"/>
<polygon fill="midnightblue" stroke="midnightblue" points="1201.92,-316.02 1210.48,-322.27 1207.69,-312.05 1201.92,-316.02"/>
</g>
<!-- Node25&#45;&gt;Node11 -->
<g id="edge23" class="edge">
<title>Node25&#45;&gt;Node11</title>
<path fill="none" stroke="midnightblue" d="M1214.32,-373.48C1198.29,-421.5 1160.57,-514.48 1096,-565 1088.16,-571.13 1079.12,-576.01 1069.7,-579.89"/>
<polygon fill="midnightblue" stroke="midnightblue" points="1217.75,-374.26 1217.5,-363.67 1211.09,-372.1 1217.75,-374.26"/>
</g>
<!-- Node25&#45;&gt;Node12 -->
<g id="edge24" class="edge">
<title>Node25&#45;&gt;Node12</title>
<path fill="none" stroke="midnightblue" d="M1202.31,-371.89C1179.29,-401.25 1139.89,-446 1096,-472 1090.05,-475.53 1083.66,-478.66 1077.07,-481.43"/>
<polygon fill="midnightblue" stroke="midnightblue" points="1205.3,-373.73 1208.63,-363.67 1199.76,-369.46 1205.3,-373.73"/>
</g>
<!-- Node25&#45;&gt;Node23 -->
<g id="edge25" class="edge">
<title>Node25&#45;&gt;Node23</title>
<path fill="none" stroke="midnightblue" d="M1212.08,-373.11C1194.22,-415.81 1155.45,-493.08 1096,-532 1015.84,-584.47 971.76,-532.57 884,-571 865.68,-579.02 865.74,-588.76 848,-598 841.48,-601.4 834.49,-604.51 827.4,-607.34"/>
<polygon fill="midnightblue" stroke="midnightblue" points="1215.34,-374.38 1215.87,-363.79 1208.86,-371.74 1215.34,-374.38"/>
</g>
<!-- Node25&#45;&gt;Node24 -->
<g id="edge34" class="edge">
<title>Node25&#45;&gt;Node24</title>
<path fill="none" stroke="midnightblue" d="M1121.53,-339.72C1040.11,-337.11 927.04,-333.48 848.4,-330.95"/>
<polygon fill="midnightblue" stroke="midnightblue" points="1121.69,-343.23 1131.79,-340.05 1121.91,-336.24 1121.69,-343.23"/>
</g>
<!-- Node26 -->
<g id="node20" class="node">
<title>Node26</title>
<g id="a_node20"><a xlink:href="classv8_1_1internal_1_1wasm_1_1TurboshaftGraphBuildingInterface.html#ad711476eaf64cf5713d8659c7967ac31" target="_top" xlink:title=" ">
<polygon fill="white" stroke="black" points="897.5,-125.5 897.5,-166.5 1082.5,-166.5 1082.5,-125.5 897.5,-125.5"/>
<text text-anchor="start" x="905.5" y="-154.5" font-family="Helvetica,sans-Serif" font-size="10.00">v8::internal::wasm</text>
<text text-anchor="start" x="905.5" y="-143.5" font-family="Helvetica,sans-Serif" font-size="10.00">::TurboshaftGraphBuildingInterface</text>
<text text-anchor="middle" x="990" y="-132.5" font-family="Helvetica,sans-Serif" font-size="10.00">::CallAndMaybeCatchException</text>
</a>
</g>
</g>
<!-- Node25&#45;&gt;Node26 -->
<g id="edge26" class="edge">
<title>Node25&#45;&gt;Node26</title>
<path fill="none" stroke="midnightblue" d="M1207.47,-313.34C1186.44,-277.13 1146.26,-216.34 1096,-181 1087.98,-175.36 1078.99,-170.58 1069.74,-166.54"/>
<polygon fill="midnightblue" stroke="midnightblue" points="1204.65,-315.47 1212.64,-322.43 1210.73,-312.01 1204.65,-315.47"/>
</g>
<!-- Node71 -->
<g id="node23" class="node">
<title>Node71</title>
<g id="a_node23"><a xlink:href="classv8_1_1internal_1_1wasm_1_1TurboshaftGraphBuildingInterface.html#a98e6c2bef67e566f185e255b00bb7bf3" target="_top" xlink:title=" ">
<polygon fill="white" stroke="black" points="897.5,-65.5 897.5,-106.5 1082.5,-106.5 1082.5,-65.5 897.5,-65.5"/>
<text text-anchor="start" x="905.5" y="-94.5" font-family="Helvetica,sans-Serif" font-size="10.00">v8::internal::wasm</text>
<text text-anchor="start" x="905.5" y="-83.5" font-family="Helvetica,sans-Serif" font-size="10.00">::TurboshaftGraphBuildingInterface</text>
<text text-anchor="middle" x="990" y="-72.5" font-family="Helvetica,sans-Serif" font-size="10.00">::CatchException</text>
</a>
</g>
</g>
<!-- Node25&#45;&gt;Node71 -->
<g id="edge35" class="edge">
<title>Node25&#45;&gt;Node71</title>
<path fill="none" stroke="midnightblue" d="M1214.74,-312.52C1199.11,-263.63 1161.73,-167.93 1096,-116 1091.54,-112.47 1086.68,-109.36 1081.58,-106.62"/>
<polygon fill="midnightblue" stroke="midnightblue" points="1211.44,-313.69 1217.75,-322.21 1218.13,-311.62 1211.44,-313.69"/>
</g>
<!-- Node72 -->
<g id="node24" class="node">
<title>Node72</title>
<g id="a_node24"><a xlink:href="classv8_1_1internal_1_1wasm_1_1TurboshaftGraphBuildingInterface.html#a0136e453a1fd3728cb62cacf2ef4a8e5" target="_top" xlink:title=" ">
<polygon fill="white" stroke="black" points="897.5,-5.5 897.5,-46.5 1082.5,-46.5 1082.5,-5.5 897.5,-5.5"/>
<text text-anchor="start" x="905.5" y="-34.5" font-family="Helvetica,sans-Serif" font-size="10.00">v8::internal::wasm</text>
<text text-anchor="start" x="905.5" y="-23.5" font-family="Helvetica,sans-Serif" font-size="10.00">::TurboshaftGraphBuildingInterface</text>
<text text-anchor="middle" x="990" y="-12.5" font-family="Helvetica,sans-Serif" font-size="10.00">::Delegate</text>
</a>
</g>
</g>
<!-- Node25&#45;&gt;Node72 -->
<g id="edge36" class="edge">
<title>Node25&#45;&gt;Node72</title>
<path fill="none" stroke="midnightblue" d="M1218.64,-312.37C1207.71,-253.71 1175.61,-125.19 1096,-56 1091.99,-52.52 1087.61,-49.44 1082.97,-46.72"/>
<polygon fill="midnightblue" stroke="midnightblue" points="1215.24,-313.25 1220.45,-322.48 1222.14,-312.02 1215.24,-313.25"/>
</g>
<!-- Node73 -->
<g id="node25" class="node">
<title>Node73</title>
<g id="a_node25"><a xlink:href="classv8_1_1internal_1_1wasm_1_1TurboshaftGraphBuildingInterface.html#a382090110a25deb3935d345ea0cdf0d0" target="_top" xlink:title=" ">
<polygon fill="white" stroke="black" points="884,-432 884,-462 1096,-462 1096,-432 884,-432"/>
<text text-anchor="start" x="892" y="-450" font-family="Helvetica,sans-Serif" font-size="10.00">v8::internal::wasm</text>
<text text-anchor="middle" x="990" y="-439" font-family="Helvetica,sans-Serif" font-size="10.00">::TurboshaftGraphBuildingInterface::Else</text>
</a>
</g>
</g>
<!-- Node25&#45;&gt;Node73 -->
<g id="edge37" class="edge">
<title>Node25&#45;&gt;Node73</title>
<path fill="none" stroke="midnightblue" d="M1187.74,-369.51C1163.07,-386.68 1128.91,-408.31 1096,-422 1086.83,-425.81 1076.96,-429.12 1067.06,-431.97"/>
<polygon fill="midnightblue" stroke="midnightblue" points="1189.9,-372.27 1196.05,-363.64 1185.87,-366.55 1189.9,-372.27"/>
</g>
<!-- Node74 -->
<g id="node26" class="node">
<title>Node74</title>
<g id="a_node26"><a xlink:href="classv8_1_1internal_1_1wasm_1_1TurboshaftGraphBuildingInterface.html#a159b534f2d3cf4a118e6630a574e2824" target="_top" xlink:title=" ">
<polygon fill="white" stroke="black" points="897.5,-371.5 897.5,-412.5 1082.5,-412.5 1082.5,-371.5 897.5,-371.5"/>
<text text-anchor="start" x="905.5" y="-400.5" font-family="Helvetica,sans-Serif" font-size="10.00">v8::internal::wasm</text>
<text text-anchor="start" x="905.5" y="-389.5" font-family="Helvetica,sans-Serif" font-size="10.00">::TurboshaftGraphBuildingInterface</text>
<text text-anchor="middle" x="990" y="-378.5" font-family="Helvetica,sans-Serif" font-size="10.00">::FallThruTo</text>
</a>
</g>
</g>
<!-- Node25&#45;&gt;Node74 -->
<g id="edge38" class="edge">
<title>Node25&#45;&gt;Node74</title>
<path fill="none" stroke="midnightblue" d="M1122.04,-364.38C1109.01,-367.13 1095.72,-369.93 1082.85,-372.64"/>
<polygon fill="midnightblue" stroke="midnightblue" points="1122.88,-367.78 1131.94,-362.3 1121.44,-360.93 1122.88,-367.78"/>
</g>
<!-- Node75 -->
<g id="node27" class="node">
<title>Node75</title>
<g id="a_node27"><a xlink:href="classv8_1_1internal_1_1wasm_1_1TurboshaftGraphBuildingInterface.html#a57b139233199a4412a2af5c5e78c2c59" target="_top" xlink:title=" ">
<polygon fill="white" stroke="black" points="891,-284 891,-314 1089,-314 1089,-284 891,-284"/>
<text text-anchor="start" x="899" y="-302" font-family="Helvetica,sans-Serif" font-size="10.00">v8::internal::wasm</text>
<text text-anchor="middle" x="990" y="-291" font-family="Helvetica,sans-Serif" font-size="10.00">::TurboshaftGraphBuildingInterface::If</text>
</a>
</g>
</g>
<!-- Node25&#45;&gt;Node75 -->
<g id="edge39" class="edge">
<title>Node25&#45;&gt;Node75</title>
<path fill="none" stroke="midnightblue" d="M1121.86,-323.77C1104.64,-320.51 1086.97,-317.16 1070.42,-314.03"/>
<polygon fill="midnightblue" stroke="midnightblue" points="1121.47,-327.25 1131.94,-325.67 1122.77,-320.37 1121.47,-327.25"/>
</g>
<!-- Node76 -->
<g id="node28" class="node">
<title>Node76</title>
<g id="a_node28"><a xlink:href="classv8_1_1internal_1_1wasm_1_1TurboshaftGraphBuildingInterface.html#a9d1f4e4e1653743fd02a2cd9520175fa" target="_top" xlink:title=" ">
<polygon fill="white" stroke="black" points="897.5,-223.5 897.5,-264.5 1082.5,-264.5 1082.5,-223.5 897.5,-223.5"/>
<text text-anchor="start" x="905.5" y="-252.5" font-family="Helvetica,sans-Serif" font-size="10.00">v8::internal::wasm</text>
<text text-anchor="start" x="905.5" y="-241.5" font-family="Helvetica,sans-Serif" font-size="10.00">::TurboshaftGraphBuildingInterface</text>
<text text-anchor="middle" x="990" y="-230.5" font-family="Helvetica,sans-Serif" font-size="10.00">::PopControl</text>
</a>
</g>
</g>
<!-- Node25&#45;&gt;Node76 -->
<g id="edge41" class="edge">
<title>Node25&#45;&gt;Node76</title>
<path fill="none" stroke="midnightblue" d="M1180.58,-317.29C1156.33,-303.49 1125.13,-286.92 1096,-275 1086.85,-271.26 1077.09,-267.75 1067.34,-264.55"/>
<polygon fill="midnightblue" stroke="midnightblue" points="1179.1,-320.48 1189.51,-322.43 1182.59,-314.41 1179.1,-320.48"/>
</g>
<!-- Node27 -->
<g id="node21" class="node">
<title>Node27</title>
<g id="a_node21"><a xlink:href="classv8_1_1internal_1_1wasm_1_1TurboshaftGraphBuildingInterface.html#abe93d128a67cb2a47a07ea94ee4d5e22" target="_top" xlink:title=" ">
<polygon fill="white" stroke="red" points="663,-65.5 663,-106.5 848,-106.5 848,-65.5 663,-65.5"/>
<text text-anchor="start" x="671" y="-94.5" font-family="Helvetica,sans-Serif" font-size="10.00">v8::internal::wasm</text>
<text text-anchor="start" x="671" y="-83.5" font-family="Helvetica,sans-Serif" font-size="10.00">::TurboshaftGraphBuildingInterface</text>
<text text-anchor="middle" x="755.5" y="-72.5" font-family="Helvetica,sans-Serif" font-size="10.00">::BuildWasmCall</text>
</a>
</g>
</g>
<!-- Node26&#45;&gt;Node27 -->
<g id="edge27" class="edge">
<title>Node26&#45;&gt;Node27</title>
<path fill="none" stroke="midnightblue" d="M899.49,-122.9C878.61,-117.51 856.5,-111.81 836.08,-106.54"/>
<polygon fill="midnightblue" stroke="midnightblue" points="898.75,-126.33 909.31,-125.44 900.5,-119.55 898.75,-126.33"/>
</g>
<!-- Node30 -->
<g id="node22" class="node">
<title>Node30</title>
<g id="a_node22"><a xlink:href="classv8_1_1internal_1_1wasm_1_1TurboshaftGraphBuildingInterface.html#acfff84f784dd4e49bb043f9fd4315f50" target="_top" xlink:title=" ">
<polygon fill="white" stroke="red" points="663,-125.5 663,-166.5 848,-166.5 848,-125.5 663,-125.5"/>
<text text-anchor="start" x="671" y="-154.5" font-family="Helvetica,sans-Serif" font-size="10.00">v8::internal::wasm</text>
<text text-anchor="start" x="671" y="-143.5" font-family="Helvetica,sans-Serif" font-size="10.00">::TurboshaftGraphBuildingInterface</text>
<text text-anchor="middle" x="755.5" y="-132.5" font-family="Helvetica,sans-Serif" font-size="10.00">::CallBuiltinThroughJumptable</text>
</a>
</g>
</g>
<!-- Node26&#45;&gt;Node30 -->
<g id="edge33" class="edge">
<title>Node26&#45;&gt;Node30</title>
<path fill="none" stroke="midnightblue" d="M887.15,-146C874.25,-146 861.1,-146 848.35,-146"/>
<polygon fill="midnightblue" stroke="midnightblue" points="887.44,-149.5 897.44,-146 887.44,-142.5 887.44,-149.5"/>
</g>
<!-- Node27&#45;&gt;Node2 -->
<g id="edge28" class="edge">
<title>Node27&#45;&gt;Node2</title>
<path fill="none" stroke="midnightblue" d="M669.33,-111.56C667.15,-112.96 665.03,-114.44 663,-116 639.81,-133.77 646.11,-148.9 627,-171 607.44,-193.63 581.67,-215.9 562.46,-231.35"/>
<polygon fill="midnightblue" stroke="midnightblue" points="671.15,-114.55 678.05,-106.51 667.64,-108.5 671.15,-114.55"/>
</g>
<!-- Node27&#45;&gt;Node3 -->
<g id="edge32" class="edge">
<title>Node27&#45;&gt;Node3</title>
<path fill="none" stroke="midnightblue" d="M678.59,-110.08C673.29,-112.01 668.05,-113.99 663,-116 646.56,-122.55 643.98,-128.01 627,-133 554.55,-154.29 469.4,-164.54 406.3,-169.47"/>
<polygon fill="midnightblue" stroke="midnightblue" points="679.93,-113.31 688.18,-106.66 677.58,-106.72 679.93,-113.31"/>
</g>
<!-- Node27&#45;&gt;Node4 -->
<g id="edge29" class="edge">
<title>Node27&#45;&gt;Node4</title>
<path fill="none" stroke="midnightblue" d="M652.77,-85.23C525.11,-84.26 308.05,-82.62 185.27,-81.69"/>
<polygon fill="midnightblue" stroke="midnightblue" points="652.91,-88.73 662.94,-85.31 652.96,-81.73 652.91,-88.73"/>
</g>
<!-- Node27&#45;&gt;Node5 -->
<g id="edge30" class="edge">
<title>Node27&#45;&gt;Node5</title>
<path fill="none" stroke="midnightblue" d="M652.77,-76C525.11,-63.44 308.05,-42.1 185.27,-30.02"/>
<polygon fill="midnightblue" stroke="midnightblue" points="652.64,-79.5 662.94,-77 653.33,-72.53 652.64,-79.5"/>
</g>
<!-- Node27&#45;&gt;Node6 -->
<g id="edge31" class="edge">
<title>Node27&#45;&gt;Node6</title>
<path fill="none" stroke="midnightblue" d="M652.73,-96.59C644.03,-97.43 635.36,-98.24 627,-99 472.01,-113 291.45,-126.66 185.12,-134.43"/>
<polygon fill="midnightblue" stroke="midnightblue" points="653.33,-100.05 662.94,-95.59 652.65,-93.08 653.33,-100.05"/>
</g>
</g>
</svg>
        <g id="navigator" transform="translate(0 0)" fill="#404254">
                <rect fill="#f2f5e9" fill-opacity="0.5" stroke="#606060" stroke-width=".5" x="0" y="0" width="60" height="60"/>
                <use id="zoomplus" xlink:href="#zoomPlus" x="17" y="9" onmousedown="handleZoom(evt,'in')"/>
                <use id="zoomminus" xlink:href="#zoomMin" x="42" y="9" onmousedown="handleZoom(evt,'out')"/>
                <use id="reset" xlink:href="#resetDef" x="30" y="36" onmousedown="handleReset()"/>
                <g id="arrowUp" xlink:href="#dirArrow" transform="translate(30 24)" onmousedown="handlePan(0,-1)">
                  <use xlink:href="#rim" fill="#404040">
                        <set attributeName="fill" to="#808080" begin="arrowUp.mouseover" end="arrowUp.mouseout"/>
                  </use>
                  <path fill="none" stroke="white" stroke-width="1.5" d="M0,-3.0v7 M-2.5,-0.5L0,-3.0L2.5,-0.5"/>
                </g>
                <g id="arrowRight" xlink:href="#dirArrow" transform="rotate(90) translate(36 -43)" onmousedown="handlePan(1,0)">
                  <use xlink:href="#rim" fill="#404040">
                        <set attributeName="fill" to="#808080" begin="arrowRight.mouseover" end="arrowRight.mouseout"/>
                  </use>
                  <path fill="none" stroke="white" stroke-width="1.5" d="M0,-3.0v7 M-2.5,-0.5L0,-3.0L2.5,-0.5"/>
                </g>
                <g id="arrowDown" xlink:href="#dirArrow" transform="rotate(180) translate(-30 -48)" onmousedown="handlePan(0,1)">
                  <use xlink:href="#rim" fill="#404040">
                        <set attributeName="fill" to="#808080" begin="arrowDown.mouseover" end="arrowDown.mouseout"/>
                  </use>
                  <path fill="none" stroke="white" stroke-width="1.5" d="M0,-3.0v7 M-2.5,-0.5L0,-3.0L2.5,-0.5"/>
                </g>
                <g id="arrowLeft" xlink:href="#dirArrow" transform="rotate(270) translate(-36 17)" onmousedown="handlePan(-1,0)">
                  <use xlink:href="#rim" fill="#404040">
                        <set attributeName="fill" to="#808080" begin="arrowLeft.mouseover" end="arrowLeft.mouseout"/>
                  </use>
                  <path fill="none" stroke="white" stroke-width="1.5" d="M0,-3.0v7 M-2.5,-0.5L0,-3.0L2.5,-0.5"/>
                </g>
        </g>
        <svg viewBox="0 0 15 15" width="100%" height="30px" preserveAspectRatio="xMaxYMin meet">
         <g id="arrow_out" transform="scale(0.3 0.3)">
          <a xlink:href="classv8_1_1internal_1_1wasm_1_1TurboshaftGraphBuildingInterface_1_1BlockPhis_a7256d03e04c54ae01a2cf2785dd004bf_icgraph_org.svg" target="_base">
           <rect id="button" ry="5" rx="5" y="6" x="6" height="38" width="38"
                fill="#f2f5e9" fill-opacity="0.5" stroke="#606060" stroke-width="1.0"/>
           <path id="arrow"
             d="M 11.500037,31.436501 C 11.940474,20.09759 22.043105,11.32322 32.158766,21.979434 L 37.068811,17.246167 C 37.068811,17.246167 37.088388,32 37.088388,32 L 22.160133,31.978069 C 22.160133,31.978069 26.997745,27.140456 26.997745,27.140456 C 18.528582,18.264221 13.291696,25.230495 11.500037,31.436501 z"
             style="fill:#404040;"/>
          </a>
         </g>
        </svg>
</svg>
