<?xml version="1.0" encoding="UTF-8" standalone="no"?>
<!DOCTYPE svg PUBLIC "-//W3C//DTD SVG 1.1//EN"
 "http://www.w3.org/Graphics/SVG/1.1/DTD/svg11.dtd">
<!-- Generated by graphviz version 2.43.0 (0)
 -->
<!-- Title: v8::Data::Data Pages: 1 -->
<svg width="301pt" height="110pt"
 viewBox="0.00 0.00 301.00 110.00" xmlns="http://www.w3.org/2000/svg" xmlns:xlink="http://www.w3.org/1999/xlink">
<g id="graph0" class="graph" transform="scale(1 1) rotate(0) translate(4 106)">
<title>v8::Data::Data</title>
<polygon fill="white" stroke="transparent" points="-4,4 -4,-106 297,-106 297,4 -4,4"/>
<!-- Node1 -->
<g id="node1" class="node">
<title>Node1</title>
<g id="a_node1"><a xlink:title=" ">
<polygon fill="#bfbfbf" stroke="black" points="206,-41.5 206,-60.5 293,-60.5 293,-41.5 206,-41.5"/>
<text text-anchor="middle" x="249.5" y="-48.5" font-family="Helvetica,sans-Serif" font-size="10.00">v8::Data::Data</text>
</a>
</g>
</g>
<!-- Node2 -->
<g id="node2" class="node">
<title>Node2</title>
<g id="a_node2"><a xlink:href="classv8_1_1anonymous__namespace_02d8-test_8cc_03_1_1FastCApiObject.html#ae1349ca99d62ea2abf86c0d42f882881" target="_top" xlink:title=" ">
<polygon fill="white" stroke="black" points="0,-60.5 0,-101.5 170,-101.5 170,-60.5 0,-60.5"/>
<text text-anchor="start" x="8" y="-89.5" font-family="Helvetica,sans-Serif" font-size="10.00">v8::anonymous_namespace</text>
<text text-anchor="start" x="8" y="-78.5" font-family="Helvetica,sans-Serif" font-size="10.00">{d8&#45;test::cc}::FastCApiObject</text>
<text text-anchor="middle" x="85" y="-67.5" font-family="Helvetica,sans-Serif" font-size="10.00">::AddAllTypedArrayFastCallback</text>
</a>
</g>
</g>
<!-- Node1&#45;&gt;Node2 -->
<g id="edge1" class="edge">
<title>Node1&#45;&gt;Node2</title>
<path fill="none" stroke="midnightblue" d="M195.71,-60.75C187.53,-62.26 178.91,-63.85 170.25,-65.45"/>
<polygon fill="midnightblue" stroke="midnightblue" points="196.61,-64.14 205.81,-58.88 195.34,-57.26 196.61,-64.14"/>
</g>
<!-- Node3 -->
<g id="node3" class="node">
<title>Node3</title>
<g id="a_node3"><a xlink:href="classv8_1_1anonymous__namespace_02d8-test_8cc_03_1_1FastCApiObject.html#a1e4f84ae2d86df20f47ce049e94f948c" target="_top" xlink:title=" ">
<polygon fill="white" stroke="black" points="5.5,-0.5 5.5,-41.5 164.5,-41.5 164.5,-0.5 5.5,-0.5"/>
<text text-anchor="start" x="13.5" y="-29.5" font-family="Helvetica,sans-Serif" font-size="10.00">v8::anonymous_namespace</text>
<text text-anchor="start" x="13.5" y="-18.5" font-family="Helvetica,sans-Serif" font-size="10.00">{d8&#45;test::cc}::FastCApiObject</text>
<text text-anchor="middle" x="85" y="-7.5" font-family="Helvetica,sans-Serif" font-size="10.00">::CopyStringFastCallback</text>
</a>
</g>
</g>
<!-- Node1&#45;&gt;Node3 -->
<g id="edge2" class="edge">
<title>Node1&#45;&gt;Node3</title>
<path fill="none" stroke="midnightblue" d="M195.69,-41.25C185.73,-39.41 175.11,-37.45 164.56,-35.5"/>
<polygon fill="midnightblue" stroke="midnightblue" points="195.34,-44.74 205.81,-43.12 196.61,-37.86 195.34,-44.74"/>
</g>
</g>
</svg>
