<?xml version="1.0" encoding="UTF-8" standalone="no"?>
<!DOCTYPE svg PUBLIC "-//W3C//DTD SVG 1.1//EN"
 "http://www.w3.org/Graphics/SVG/1.1/DTD/svg11.dtd">
<!-- Generated by graphviz version 2.43.0 (0)
 -->
<!-- Title: v8::internal::PropertyDetails::set_pointer Pages: 1 -->
<svg width="704pt" height="144pt"
 viewBox="0.00 0.00 704.00 143.50" xmlns="http://www.w3.org/2000/svg" xmlns:xlink="http://www.w3.org/1999/xlink">
<g id="graph0" class="graph" transform="scale(1 1) rotate(0) translate(4 139.5)">
<title>v8::internal::PropertyDetails::set_pointer</title>
<polygon fill="white" stroke="transparent" points="-4,4 -4,-139.5 700,-139.5 700,4 -4,4"/>
<!-- Node1 -->
<g id="node1" class="node">
<title>Node1</title>
<g id="a_node1"><a xlink:title=" ">
<polygon fill="#bfbfbf" stroke="black" points="542,-71.5 542,-101.5 696,-101.5 696,-71.5 542,-71.5"/>
<text text-anchor="start" x="550" y="-89.5" font-family="Helvetica,sans-Serif" font-size="10.00">v8::internal::PropertyDetails</text>
<text text-anchor="middle" x="619" y="-78.5" font-family="Helvetica,sans-Serif" font-size="10.00">::set_pointer</text>
</a>
</g>
</g>
<!-- Node2 -->
<g id="node2" class="node">
<title>Node2</title>
<g id="a_node2"><a xlink:href="namespacev8_1_1internal_1_1anonymous__namespace_02runtime-classes_8cc_03.html#ac72cc2319d409ffd883663597cfdfbac" target="_top" xlink:title=" ">
<polygon fill="white" stroke="black" points="329,-94 329,-135 506,-135 506,-94 329,-94"/>
<text text-anchor="start" x="337" y="-123" font-family="Helvetica,sans-Serif" font-size="10.00">v8::internal::anonymous</text>
<text text-anchor="start" x="337" y="-112" font-family="Helvetica,sans-Serif" font-size="10.00">_namespace{runtime&#45;classes</text>
<text text-anchor="middle" x="417.5" y="-101" font-family="Helvetica,sans-Serif" font-size="10.00">::cc}::AddDescriptorsByTemplate</text>
</a>
</g>
</g>
<!-- Node1&#45;&gt;Node2 -->
<g id="edge1" class="edge">
<title>Node1&#45;&gt;Node2</title>
<path fill="none" stroke="midnightblue" d="M531.79,-98.6C523.27,-99.8 514.61,-101.01 506.07,-102.21"/>
<polygon fill="midnightblue" stroke="midnightblue" points="532.31,-102.06 541.72,-97.21 531.33,-95.13 532.31,-102.06"/>
</g>
<!-- Node3 -->
<g id="node3" class="node">
<title>Node3</title>
<g id="a_node3"><a xlink:href="classv8_1_1internal_1_1DescriptorArray.html#a621c6edb83af3d30bccefbfee213df39" target="_top" xlink:title=" ">
<polygon fill="white" stroke="black" points="353.5,-44.5 353.5,-74.5 481.5,-74.5 481.5,-44.5 353.5,-44.5"/>
<text text-anchor="start" x="361.5" y="-62.5" font-family="Helvetica,sans-Serif" font-size="10.00">v8::internal::Descriptor</text>
<text text-anchor="middle" x="417.5" y="-51.5" font-family="Helvetica,sans-Serif" font-size="10.00">Array::SetSortedKey</text>
</a>
</g>
</g>
<!-- Node1&#45;&gt;Node3 -->
<g id="edge2" class="edge">
<title>Node1&#45;&gt;Node3</title>
<path fill="none" stroke="midnightblue" d="M531.42,-74.78C514.73,-72.52 497.54,-70.2 481.77,-68.06"/>
<polygon fill="midnightblue" stroke="midnightblue" points="531.34,-78.3 541.72,-76.18 532.28,-71.37 531.34,-78.3"/>
</g>
<!-- Node4 -->
<g id="node4" class="node">
<title>Node4</title>
<g id="a_node4"><a xlink:href="classv8_1_1internal_1_1DescriptorArray.html#aca6d89b775bf9bf687ba9a654521eb49" target="_top" xlink:title=" ">
<polygon fill="white" stroke="black" points="164.5,-88.5 164.5,-118.5 292.5,-118.5 292.5,-88.5 164.5,-88.5"/>
<text text-anchor="start" x="172.5" y="-106.5" font-family="Helvetica,sans-Serif" font-size="10.00">v8::internal::Descriptor</text>
<text text-anchor="middle" x="228.5" y="-95.5" font-family="Helvetica,sans-Serif" font-size="10.00">Array::Append</text>
</a>
</g>
</g>
<!-- Node3&#45;&gt;Node4 -->
<g id="edge3" class="edge">
<title>Node3&#45;&gt;Node4</title>
<path fill="none" stroke="midnightblue" d="M343.65,-76.64C326.79,-80.61 308.99,-84.8 292.59,-88.65"/>
<polygon fill="midnightblue" stroke="midnightblue" points="344.52,-80.03 353.45,-74.34 342.92,-73.22 344.52,-80.03"/>
</g>
<!-- Node5 -->
<g id="node5" class="node">
<title>Node5</title>
<g id="a_node5"><a xlink:href="classv8_1_1internal_1_1DescriptorArray.html#a5ef83bcfde45529ee36e444ed17e4dde" target="_top" xlink:title=" ">
<polygon fill="white" stroke="black" points="0,-22.5 0,-52.5 128,-52.5 128,-22.5 0,-22.5"/>
<text text-anchor="start" x="8" y="-40.5" font-family="Helvetica,sans-Serif" font-size="10.00">v8::internal::Descriptor</text>
<text text-anchor="middle" x="64" y="-29.5" font-family="Helvetica,sans-Serif" font-size="10.00">Array::Sort</text>
</a>
</g>
</g>
<!-- Node3&#45;&gt;Node5 -->
<g id="edge4" class="edge">
<title>Node3&#45;&gt;Node5</title>
<path fill="none" stroke="midnightblue" d="M342.89,-54.89C279.29,-50.91 188.35,-45.22 128.03,-41.45"/>
<polygon fill="midnightblue" stroke="midnightblue" points="343.05,-58.41 353.25,-55.54 343.49,-51.42 343.05,-58.41"/>
</g>
<!-- Node6 -->
<g id="node6" class="node">
<title>Node6</title>
<g id="a_node6"><a xlink:href="classv8_1_1internal_1_1DescriptorArray.html#a879b95e02f21f2e91e0aefe6d4ce138a" target="_top" xlink:title=" ">
<polygon fill="white" stroke="black" points="164,-0.5 164,-30.5 293,-30.5 293,-0.5 164,-0.5"/>
<text text-anchor="start" x="172" y="-18.5" font-family="Helvetica,sans-Serif" font-size="10.00">v8::internal::Descriptor</text>
<text text-anchor="middle" x="228.5" y="-7.5" font-family="Helvetica,sans-Serif" font-size="10.00">Array::SwapSortedKeys</text>
</a>
</g>
</g>
<!-- Node3&#45;&gt;Node6 -->
<g id="edge5" class="edge">
<title>Node3&#45;&gt;Node6</title>
<path fill="none" stroke="midnightblue" d="M343.29,-42.27C326.76,-38.38 309.34,-34.29 293.23,-30.5"/>
<polygon fill="midnightblue" stroke="midnightblue" points="342.92,-45.78 353.45,-44.66 344.52,-38.97 342.92,-45.78"/>
</g>
<!-- Node6&#45;&gt;Node5 -->
<g id="edge6" class="edge">
<title>Node6&#45;&gt;Node5</title>
<path fill="none" stroke="midnightblue" d="M153.74,-25.49C145.16,-26.65 136.46,-27.83 128.04,-28.97"/>
<polygon fill="midnightblue" stroke="midnightblue" points="154.3,-28.94 163.74,-24.13 153.36,-22.01 154.3,-28.94"/>
</g>
</g>
</svg>
