<?xml version="1.0" encoding="UTF-8" standalone="no"?>
<!DOCTYPE svg PUBLIC "-//W3C//DTD SVG 1.1//EN"
 "http://www.w3.org/Graphics/SVG/1.1/DTD/svg11.dtd">
<!-- Generated by graphviz version 2.43.0 (0)
 -->
<!-- Title: v8::internal::PerfettoLogger::CodeCreateEvent Pages: 1 -->
<!--zoomable 1072 -->
<svg id="main" version="1.1" xmlns="http://www.w3.org/2000/svg" xmlns:xlink="http://www.w3.org/1999/xlink" xml:space="preserve" onload="init(evt)">
<style type="text/css"><![CDATA[
.edge:hover path { stroke: red; }
.edge:hover polygon { stroke: red; fill: red; }
]]></style>
<script type="text/javascript"><![CDATA[
var edges = document.getElementsByTagName('g');
if (edges && edges.length) {
  for (var i=0;i<edges.length;i++) {
    if (edges[i].id.substr(0,4)=='edge') {
      edges[i].setAttribute('class','edge');
    }
  }
}
]]></script>
        <defs>
                <circle id="rim" cx="0" cy="0" r="7"/>
                <circle id="rim2" cx="0" cy="0" r="3.5"/>
                <g id="zoomPlus">
                        <use xlink:href="#rim" fill="#404040">
                                <set attributeName="fill" to="#808080" begin="zoomplus.mouseover" end="zoomplus.mouseout"/>
                        </use>
                        <path d="M-4,0h8M0,-4v8" fill="none" stroke="white" stroke-width="1.5" pointer-events="none"/>
                </g>
                <g id="zoomMin">
                        <use xlink:href="#rim" fill="#404040">
                                <set attributeName="fill" to="#808080" begin="zoomminus.mouseover" end="zoomminus.mouseout"/>
                        </use>
                        <path d="M-4,0h8" fill="none" stroke="white" stroke-width="1.5" pointer-events="none"/>
                </g>
                <g id="dirArrow">
                        <path fill="none" stroke="white" stroke-width="1.5" d="M0,-3.0v7 M-2.5,-0.5L0,-3.0L2.5,-0.5"/>
                </g>
               <g id="resetDef">
                       <use xlink:href="#rim2" fill="#404040">
                               <set attributeName="fill" to="#808080" begin="reset.mouseover" end="reset.mouseout"/>
                       </use>
               </g>
        </defs>

<script type="text/javascript">
var viewWidth = 1020;
var viewHeight = 1072;
var sectionId = 'dynsection-7';
</script>
<script xlink:href="svgpan.js"/>
<svg id="graph" class="graph">
<g id="viewport">
<title>v8::internal::PerfettoLogger::CodeCreateEvent</title>
<polygon fill="white" stroke="transparent" points="-4,4 -4,-1068 1016,-1068 1016,4 -4,4"/>
<!-- Node1 -->
<g id="node1" class="node">
<title>Node1</title>
<g id="a_node1"><a xlink:title=" ">
<polygon fill="#bfbfbf" stroke="black" points="0,-658.5 0,-688.5 150,-688.5 150,-658.5 0,-658.5"/>
<text text-anchor="start" x="8" y="-676.5" font-family="Helvetica,sans-Serif" font-size="10.00">v8::internal::PerfettoLogger</text>
<text text-anchor="middle" x="75" y="-665.5" font-family="Helvetica,sans-Serif" font-size="10.00">::CodeCreateEvent</text>
</a>
</g>
</g>
<!-- Node2 -->
<g id="node2" class="node">
<title>Node2</title>
<g id="a_node2"><a xlink:href="namespacev8_1_1internal.html#aa6b3743bd5d773c552654f2a6c3efa4a" target="_top" xlink:title=" ">
<polygon fill="white" stroke="black" points="422,-886 422,-905 541,-905 541,-886 422,-886"/>
<text text-anchor="middle" x="481.5" y="-893" font-family="Helvetica,sans-Serif" font-size="10.00">v8::internal::DCHECK</text>
</a>
</g>
</g>
<!-- Node1&#45;&gt;Node2 -->
<g id="edge1" class="edge">
<title>Node1&#45;&gt;Node2</title>
<path fill="none" stroke="midnightblue" d="M82.54,-688.86C96.62,-719.98 132.88,-790.59 186,-826.5 253.79,-872.33 348.17,-887.93 411.65,-893.13"/>
<polygon fill="midnightblue" stroke="midnightblue" points="411.72,-896.64 421.95,-893.9 412.24,-889.66 411.72,-896.64"/>
</g>
<!-- Node3 -->
<g id="node3" class="node">
<title>Node3</title>
<g id="a_node3"><a xlink:href="classv8_1_1internal_1_1CodeTraceContext.html#a93ebb3df78c9639385693130fa7c0816" target="_top" xlink:title=" ">
<polygon fill="white" stroke="black" points="186,-658.5 186,-688.5 353,-688.5 353,-658.5 186,-658.5"/>
<text text-anchor="start" x="194" y="-676.5" font-family="Helvetica,sans-Serif" font-size="10.00">v8::internal::CodeTraceContext</text>
<text text-anchor="middle" x="269.5" y="-665.5" font-family="Helvetica,sans-Serif" font-size="10.00">::InternIsolate</text>
</a>
</g>
</g>
<!-- Node1&#45;&gt;Node3 -->
<g id="edge2" class="edge">
<title>Node1&#45;&gt;Node3</title>
<path fill="none" stroke="midnightblue" d="M150.15,-673.5C158.52,-673.5 167.13,-673.5 175.71,-673.5"/>
<polygon fill="midnightblue" stroke="midnightblue" points="175.74,-677 185.74,-673.5 175.74,-670 175.74,-677"/>
</g>
<!-- Node13 -->
<g id="node13" class="node">
<title>Node13</title>
<g id="a_node13"><a xlink:href="classv8_1_1internal_1_1CodeTraceContext.html#ae4ed97314c77c85e90b2fb6d5963bd59" target="_top" xlink:title=" ">
<polygon fill="white" stroke="black" points="186,-609.5 186,-639.5 353,-639.5 353,-609.5 186,-609.5"/>
<text text-anchor="start" x="194" y="-627.5" font-family="Helvetica,sans-Serif" font-size="10.00">v8::internal::CodeTraceContext</text>
<text text-anchor="middle" x="269.5" y="-616.5" font-family="Helvetica,sans-Serif" font-size="10.00">::InternJsFunction</text>
</a>
</g>
</g>
<!-- Node1&#45;&gt;Node13 -->
<g id="edge12" class="edge">
<title>Node1&#45;&gt;Node13</title>
<path fill="none" stroke="midnightblue" d="M135.06,-658.47C155.48,-653.27 178.54,-647.4 199.67,-642.02"/>
<polygon fill="midnightblue" stroke="midnightblue" points="200.72,-645.36 209.55,-639.51 198.99,-638.58 200.72,-645.36"/>
</g>
<!-- Node25 -->
<g id="node19" class="node">
<title>Node25</title>
<g id="a_node19"><a xlink:href="classv8_1_1internal_1_1CodeTraceContext.html#a3c186461ad906be3dc8b93484b9a9e2c" target="_top" xlink:title=" ">
<polygon fill="white" stroke="black" points="186,-912.5 186,-942.5 353,-942.5 353,-912.5 186,-912.5"/>
<text text-anchor="start" x="194" y="-930.5" font-family="Helvetica,sans-Serif" font-size="10.00">v8::internal::CodeTraceContext</text>
<text text-anchor="middle" x="269.5" y="-919.5" font-family="Helvetica,sans-Serif" font-size="10.00">::InternJsScript</text>
</a>
</g>
</g>
<!-- Node1&#45;&gt;Node25 -->
<g id="edge18" class="edge">
<title>Node1&#45;&gt;Node25</title>
<path fill="none" stroke="midnightblue" d="M80.4,-688.7C91.94,-726.31 126.41,-824.91 186,-884.5 195.37,-893.87 207.22,-901.66 218.98,-907.91"/>
<polygon fill="midnightblue" stroke="midnightblue" points="217.42,-911.03 227.92,-912.39 220.55,-904.78 217.42,-911.03"/>
</g>
<!-- Node33 -->
<g id="node26" class="node">
<title>Node33</title>
<g id="a_node26"><a xlink:href="namespacev8_1_1internal_1_1anonymous__namespace_02perfetto-logger_8cc_03.html#a176e17770fa15ffe72fdf51c6be45497" target="_top" xlink:title=" ">
<polygon fill="white" stroke="black" points="190.5,-549 190.5,-590 348.5,-590 348.5,-549 190.5,-549"/>
<text text-anchor="start" x="198.5" y="-578" font-family="Helvetica,sans-Serif" font-size="10.00">v8::internal::anonymous</text>
<text text-anchor="start" x="198.5" y="-567" font-family="Helvetica,sans-Serif" font-size="10.00">_namespace{perfetto&#45;logger</text>
<text text-anchor="middle" x="269.5" y="-556" font-family="Helvetica,sans-Serif" font-size="10.00">::cc}::NewCodeTraceContext</text>
</a>
</g>
</g>
<!-- Node1&#45;&gt;Node33 -->
<g id="edge26" class="edge">
<title>Node1&#45;&gt;Node33</title>
<path fill="none" stroke="midnightblue" d="M95.83,-658.33C117.24,-642.45 152.74,-617.51 186,-600.5 190.29,-598.31 194.77,-596.19 199.33,-594.15"/>
<polygon fill="midnightblue" stroke="midnightblue" points="200.96,-597.26 208.76,-590.1 198.19,-590.83 200.96,-597.26"/>
</g>
<!-- Node41 -->
<g id="node32" class="node">
<title>Node41</title>
<g id="a_node32"><a xlink:href="classv8_1_1internal_1_1CodeTraceContext.html#a38202ec180caa18807143c88aac9e245" target="_top" xlink:title=" ">
<polygon fill="white" stroke="black" points="186,-499.5 186,-529.5 353,-529.5 353,-499.5 186,-499.5"/>
<text text-anchor="start" x="194" y="-517.5" font-family="Helvetica,sans-Serif" font-size="10.00">v8::internal::CodeTraceContext</text>
<text text-anchor="middle" x="269.5" y="-506.5" font-family="Helvetica,sans-Serif" font-size="10.00">::set_v8_js_code</text>
</a>
</g>
</g>
<!-- Node1&#45;&gt;Node41 -->
<g id="edge32" class="edge">
<title>Node1&#45;&gt;Node41</title>
<path fill="none" stroke="midnightblue" d="M84.43,-658.15C100.49,-630.31 138.19,-571.43 186,-539.5 188.95,-537.53 192.07,-535.71 195.28,-534.03"/>
<polygon fill="midnightblue" stroke="midnightblue" points="197.03,-537.07 204.59,-529.65 194.05,-530.74 197.03,-537.07"/>
</g>
<!-- Node42 -->
<g id="node33" class="node">
<title>Node42</title>
<g id="a_node33"><a xlink:href="namespacev8_1_1internal_1_1anonymous__namespace_02perfetto-logger_8cc_03.html#ac2ddbabde3820220442dfcee898c6141" target="_top" xlink:title=" ">
<polygon fill="white" stroke="black" points="190.5,-776 190.5,-817 348.5,-817 348.5,-776 190.5,-776"/>
<text text-anchor="start" x="198.5" y="-805" font-family="Helvetica,sans-Serif" font-size="10.00">v8::internal::anonymous</text>
<text text-anchor="start" x="198.5" y="-794" font-family="Helvetica,sans-Serif" font-size="10.00">_namespace{perfetto&#45;logger</text>
<text text-anchor="middle" x="269.5" y="-783" font-family="Helvetica,sans-Serif" font-size="10.00">::cc}::WriteJsCode</text>
</a>
</g>
</g>
<!-- Node1&#45;&gt;Node42 -->
<g id="edge33" class="edge">
<title>Node1&#45;&gt;Node42</title>
<path fill="none" stroke="midnightblue" d="M99.6,-688.58C131.53,-708.98 188.93,-745.66 227.86,-770.54"/>
<polygon fill="midnightblue" stroke="midnightblue" points="226.05,-773.53 236.36,-775.96 229.82,-767.63 226.05,-773.53"/>
</g>
<!-- Node4 -->
<g id="node4" class="node">
<title>Node4</title>
<g id="a_node4"><a xlink:href="classv8_1_1internal_1_1CodeDataSourceIncrementalState.html#a8f416931cd1b9ba7d870e6175863da66" target="_top" xlink:title=" ">
<polygon fill="white" stroke="black" points="397.5,-590.5 397.5,-620.5 565.5,-620.5 565.5,-590.5 397.5,-590.5"/>
<text text-anchor="start" x="405.5" y="-608.5" font-family="Helvetica,sans-Serif" font-size="10.00">v8::internal::CodeDataSource</text>
<text text-anchor="middle" x="481.5" y="-597.5" font-family="Helvetica,sans-Serif" font-size="10.00">IncrementalState::InternIsolate</text>
</a>
</g>
</g>
<!-- Node3&#45;&gt;Node4 -->
<g id="edge3" class="edge">
<title>Node3&#45;&gt;Node4</title>
<path fill="none" stroke="midnightblue" d="M323.87,-658.39C333.59,-655.52 343.62,-652.48 353,-649.5 378.09,-641.53 405.74,-632.07 428.85,-623.97"/>
<polygon fill="midnightblue" stroke="midnightblue" points="430.19,-627.21 438.46,-620.59 427.87,-620.61 430.19,-627.21"/>
</g>
<!-- Node5 -->
<g id="node5" class="node">
<title>Node5</title>
<g id="a_node5"><a xlink:href="classv8_1_1internal_1_1Heap.html#ad8a02a070b3298f5023cbeac5bbb7b7a" target="_top" xlink:title=" ">
<polygon fill="white" stroke="black" points="665,-590.5 665,-620.5 769,-620.5 769,-590.5 665,-590.5"/>
<text text-anchor="start" x="673" y="-608.5" font-family="Helvetica,sans-Serif" font-size="10.00">v8::internal::Heap</text>
<text text-anchor="middle" x="717" y="-597.5" font-family="Helvetica,sans-Serif" font-size="10.00">::code_range</text>
</a>
</g>
</g>
<!-- Node4&#45;&gt;Node5 -->
<g id="edge4" class="edge">
<title>Node4&#45;&gt;Node5</title>
<path fill="none" stroke="midnightblue" d="M565.81,-605.5C595.08,-605.5 627.4,-605.5 654.55,-605.5"/>
<polygon fill="midnightblue" stroke="midnightblue" points="654.68,-609 664.68,-605.5 654.68,-602 654.68,-609"/>
</g>
<!-- Node6 -->
<g id="node6" class="node">
<title>Node6</title>
<g id="a_node6"><a xlink:href="classv8_1_1internal_1_1IsolateGroup.html#a3ca6c5d3f2b884f5866595543d2e0fd7" target="_top" xlink:title=" ">
<polygon fill="white" stroke="black" points="647,-541.5 647,-571.5 787,-571.5 787,-541.5 647,-541.5"/>
<text text-anchor="start" x="655" y="-559.5" font-family="Helvetica,sans-Serif" font-size="10.00">v8::internal::IsolateGroup</text>
<text text-anchor="middle" x="717" y="-548.5" font-family="Helvetica,sans-Serif" font-size="10.00">::current</text>
</a>
</g>
</g>
<!-- Node4&#45;&gt;Node6 -->
<g id="edge5" class="edge">
<title>Node4&#45;&gt;Node6</title>
<path fill="none" stroke="midnightblue" d="M554.14,-590.47C580.3,-584.98 610.02,-578.74 636.79,-573.12"/>
<polygon fill="midnightblue" stroke="midnightblue" points="637.82,-576.48 646.89,-571 636.39,-569.63 637.82,-576.48"/>
</g>
<!-- Node7 -->
<g id="node7" class="node">
<title>Node7</title>
<g id="a_node7"><a xlink:href="classv8_1_1internal_1_1Isolate.html#a791610414aa5945b35459524ff1543e3" target="_top" xlink:title=" ">
<polygon fill="white" stroke="black" points="652.5,-492.5 652.5,-522.5 781.5,-522.5 781.5,-492.5 652.5,-492.5"/>
<text text-anchor="start" x="660.5" y="-510.5" font-family="Helvetica,sans-Serif" font-size="10.00">v8::internal::Isolate</text>
<text text-anchor="middle" x="717" y="-499.5" font-family="Helvetica,sans-Serif" font-size="10.00">::embedded_blob_code</text>
</a>
</g>
</g>
<!-- Node4&#45;&gt;Node7 -->
<g id="edge6" class="edge">
<title>Node4&#45;&gt;Node7</title>
<path fill="none" stroke="midnightblue" d="M504.54,-590.24C529.2,-573.81 570.85,-547.95 610,-532.5 620.34,-528.42 631.52,-524.9 642.61,-521.89"/>
<polygon fill="midnightblue" stroke="midnightblue" points="643.5,-525.27 652.31,-519.38 641.75,-518.5 643.5,-525.27"/>
</g>
<!-- Node8 -->
<g id="node8" class="node">
<title>Node8</title>
<g id="a_node8"><a xlink:href="classv8_1_1internal_1_1Isolate.html#a2ac8b9cce02f8a843bbb4866739804f4" target="_top" xlink:title=" ">
<polygon fill="white" stroke="black" points="640,-443.5 640,-473.5 794,-473.5 794,-443.5 640,-443.5"/>
<text text-anchor="start" x="648" y="-461.5" font-family="Helvetica,sans-Serif" font-size="10.00">v8::internal::Isolate</text>
<text text-anchor="middle" x="717" y="-450.5" font-family="Helvetica,sans-Serif" font-size="10.00">::embedded_blob_code_size</text>
</a>
</g>
</g>
<!-- Node4&#45;&gt;Node8 -->
<g id="edge7" class="edge">
<title>Node4&#45;&gt;Node8</title>
<path fill="none" stroke="midnightblue" d="M493.67,-590.48C513.87,-564.46 559.12,-511.13 610,-483.5 616.34,-480.06 623.14,-477.09 630.14,-474.52"/>
<polygon fill="midnightblue" stroke="midnightblue" points="631.4,-477.79 639.76,-471.27 629.16,-471.15 631.4,-477.79"/>
</g>
<!-- Node9 -->
<g id="node9" class="node">
<title>Node9</title>
<g id="a_node9"><a xlink:href="classv8_1_1base_1_1OS.html#a885bdc89bb37ed241b7e312597ad831a" target="_top" xlink:title=" ">
<polygon fill="white" stroke="black" points="648.5,-394.5 648.5,-424.5 785.5,-424.5 785.5,-394.5 648.5,-394.5"/>
<text text-anchor="start" x="656.5" y="-412.5" font-family="Helvetica,sans-Serif" font-size="10.00">v8::base::OS::GetCurrent</text>
<text text-anchor="middle" x="717" y="-401.5" font-family="Helvetica,sans-Serif" font-size="10.00">ProcessId</text>
</a>
</g>
</g>
<!-- Node4&#45;&gt;Node9 -->
<g id="edge8" class="edge">
<title>Node4&#45;&gt;Node9</title>
<path fill="none" stroke="midnightblue" d="M489.25,-590.37C505.09,-556.65 548.08,-475.14 610,-434.5 618.68,-428.8 628.52,-424.39 638.62,-420.99"/>
<polygon fill="midnightblue" stroke="midnightblue" points="639.81,-424.29 648.35,-418.03 637.77,-417.59 639.81,-424.29"/>
</g>
<!-- Node10 -->
<g id="node10" class="node">
<title>Node10</title>
<g id="a_node10"><a xlink:href="classv8_1_1internal_1_1Isolate.html#ac74a11613906581a9989b1cb7f7b3275" target="_top" xlink:title=" ">
<polygon fill="white" stroke="black" points="661.5,-688.5 661.5,-718.5 772.5,-718.5 772.5,-688.5 661.5,-688.5"/>
<text text-anchor="start" x="669.5" y="-706.5" font-family="Helvetica,sans-Serif" font-size="10.00">v8::internal::Isolate</text>
<text text-anchor="middle" x="717" y="-695.5" font-family="Helvetica,sans-Serif" font-size="10.00">::heap</text>
</a>
</g>
</g>
<!-- Node4&#45;&gt;Node10 -->
<g id="edge9" class="edge">
<title>Node4&#45;&gt;Node10</title>
<path fill="none" stroke="midnightblue" d="M504.03,-620.75C528.59,-637.46 570.46,-663.97 610,-679.5 623.07,-684.63 637.5,-688.81 651.4,-692.16"/>
<polygon fill="midnightblue" stroke="midnightblue" points="650.87,-695.62 661.4,-694.44 652.43,-688.8 650.87,-695.62"/>
</g>
<!-- Node11 -->
<g id="node11" class="node">
<title>Node11</title>
<g id="a_node11"><a xlink:href="classv8_1_1internal_1_1Isolate.html#a2a1d34f6817206b28b0fa4a31f59ebbe" target="_top" xlink:title=" ">
<polygon fill="white" stroke="black" points="654,-826 654,-845 780,-845 780,-826 654,-826"/>
<text text-anchor="middle" x="717" y="-833" font-family="Helvetica,sans-Serif" font-size="10.00">v8::internal::Isolate::id</text>
</a>
</g>
</g>
<!-- Node4&#45;&gt;Node11 -->
<g id="edge10" class="edge">
<title>Node4&#45;&gt;Node11</title>
<path fill="none" stroke="midnightblue" d="M490.67,-620.59C515.78,-666.74 591.26,-803.62 610,-816.5 620.05,-823.41 631.86,-828.03 643.88,-831.08"/>
<polygon fill="midnightblue" stroke="midnightblue" points="643.48,-834.58 654,-833.29 644.97,-827.74 643.48,-834.58"/>
</g>
<!-- Node12 -->
<g id="node12" class="node">
<title>Node12</title>
<g id="a_node12"><a xlink:href="classv8_1_1internal_1_1CodeDataSourceIncrementalState.html#af0b54023a8a68362df3edd244c3f67f6" target="_top" xlink:title=" ">
<polygon fill="white" stroke="black" points="625,-639.5 625,-669.5 809,-669.5 809,-639.5 625,-639.5"/>
<text text-anchor="start" x="633" y="-657.5" font-family="Helvetica,sans-Serif" font-size="10.00">v8::internal::CodeDataSource</text>
<text text-anchor="middle" x="717" y="-646.5" font-family="Helvetica,sans-Serif" font-size="10.00">IncrementalState::next_isolate_iid</text>
</a>
</g>
</g>
<!-- Node4&#45;&gt;Node12 -->
<g id="edge11" class="edge">
<title>Node4&#45;&gt;Node12</title>
<path fill="none" stroke="midnightblue" d="M554.14,-620.53C579.58,-625.87 608.4,-631.92 634.59,-637.42"/>
<polygon fill="midnightblue" stroke="midnightblue" points="633.99,-640.87 644.49,-639.49 635.42,-634.01 633.99,-640.87"/>
</g>
<!-- Node14 -->
<g id="node14" class="node">
<title>Node14</title>
<g id="a_node14"><a xlink:href="classv8_1_1internal_1_1CodeDataSourceIncrementalState.html#ac624e87e31b9e831c0bd370707c9ad6a" target="_top" xlink:title=" ">
<polygon fill="white" stroke="black" points="389,-296.5 389,-326.5 574,-326.5 574,-296.5 389,-296.5"/>
<text text-anchor="start" x="397" y="-314.5" font-family="Helvetica,sans-Serif" font-size="10.00">v8::internal::CodeDataSource</text>
<text text-anchor="middle" x="481.5" y="-303.5" font-family="Helvetica,sans-Serif" font-size="10.00">IncrementalState::InternJsFunction</text>
</a>
</g>
</g>
<!-- Node13&#45;&gt;Node14 -->
<g id="edge13" class="edge">
<title>Node13&#45;&gt;Node14</title>
<path fill="none" stroke="midnightblue" d="M338.41,-609.4C343.67,-606.64 348.63,-603.37 353,-599.5 434.79,-527.16 466.56,-392.44 476.58,-336.68"/>
<polygon fill="midnightblue" stroke="midnightblue" points="480.06,-337.06 478.3,-326.62 473.16,-335.88 480.06,-337.06"/>
</g>
<!-- Node15 -->
<g id="node15" class="node">
<title>Node15</title>
<g id="a_node15"><a xlink:href="classv8_1_1internal_1_1SharedFunctionInfo.html#aa026400e2b25d0876a0ee5b1fcf57c8a" target="_top" xlink:title=" ">
<polygon fill="white" stroke="red" points="640.5,-247.5 640.5,-277.5 793.5,-277.5 793.5,-247.5 640.5,-247.5"/>
<text text-anchor="start" x="648.5" y="-265.5" font-family="Helvetica,sans-Serif" font-size="10.00">v8::internal::SharedFunction</text>
<text text-anchor="middle" x="717" y="-254.5" font-family="Helvetica,sans-Serif" font-size="10.00">Info::DebugName</text>
</a>
</g>
</g>
<!-- Node14&#45;&gt;Node15 -->
<g id="edge14" class="edge">
<title>Node14&#45;&gt;Node15</title>
<path fill="none" stroke="midnightblue" d="M554.14,-296.47C579.58,-291.13 608.4,-285.08 634.59,-279.58"/>
<polygon fill="midnightblue" stroke="midnightblue" points="635.42,-282.99 644.49,-277.51 633.99,-276.13 635.42,-282.99"/>
</g>
<!-- Node21 -->
<g id="node16" class="node">
<title>Node21</title>
<g id="a_node16"><a xlink:href="namespacev8_1_1internal_1_1anonymous__namespace_02code-data-source_8cc_03.html#a9d251b0d75c63fb1243812945e52ee78" target="_top" xlink:title=" ">
<polygon fill="white" stroke="black" points="632.5,-187 632.5,-228 801.5,-228 801.5,-187 632.5,-187"/>
<text text-anchor="start" x="640.5" y="-216" font-family="Helvetica,sans-Serif" font-size="10.00">v8::internal::anonymous</text>
<text text-anchor="start" x="640.5" y="-205" font-family="Helvetica,sans-Serif" font-size="10.00">_namespace{code&#45;data&#45;source</text>
<text text-anchor="middle" x="717" y="-194" font-family="Helvetica,sans-Serif" font-size="10.00">::cc}::GetJsFunctionKind</text>
</a>
</g>
</g>
<!-- Node14&#45;&gt;Node21 -->
<g id="edge15" class="edge">
<title>Node14&#45;&gt;Node21</title>
<path fill="none" stroke="midnightblue" d="M505.15,-296.34C530.01,-280.23 571.51,-254.88 610,-238.5 615.85,-236.01 621.96,-233.65 628.16,-231.42"/>
<polygon fill="midnightblue" stroke="midnightblue" points="629.66,-234.6 637.97,-228.03 627.38,-227.99 629.66,-234.6"/>
</g>
<!-- Node22 -->
<g id="node17" class="node">
<title>Node22</title>
<g id="a_node17"><a xlink:href="classv8_1_1internal_1_1CodeDataSourceIncrementalState.html#a45f24ebcae16292724ff3d7c8a72983e" target="_top" xlink:title=" ">
<polygon fill="white" stroke="red" points="610,-345.5 610,-375.5 824,-375.5 824,-345.5 610,-345.5"/>
<text text-anchor="start" x="618" y="-363.5" font-family="Helvetica,sans-Serif" font-size="10.00">v8::internal::CodeDataSource</text>
<text text-anchor="middle" x="717" y="-352.5" font-family="Helvetica,sans-Serif" font-size="10.00">IncrementalState::InternJsFunctionName</text>
</a>
</g>
</g>
<!-- Node14&#45;&gt;Node22 -->
<g id="edge16" class="edge">
<title>Node14&#45;&gt;Node22</title>
<path fill="none" stroke="midnightblue" d="M554.14,-326.53C579.58,-331.87 608.4,-337.92 634.59,-343.42"/>
<polygon fill="midnightblue" stroke="midnightblue" points="633.99,-346.87 644.49,-345.49 635.42,-340.01 633.99,-346.87"/>
</g>
<!-- Node24 -->
<g id="node18" class="node">
<title>Node24</title>
<g id="a_node18"><a xlink:href="classv8_1_1internal_1_1CodeDataSourceIncrementalState.html#a3f71b74bc877fb13f626fa6ed418e8c1" target="_top" xlink:title=" ">
<polygon fill="white" stroke="black" points="621.5,-296.5 621.5,-326.5 812.5,-326.5 812.5,-296.5 621.5,-296.5"/>
<text text-anchor="start" x="629.5" y="-314.5" font-family="Helvetica,sans-Serif" font-size="10.00">v8::internal::CodeDataSource</text>
<text text-anchor="middle" x="717" y="-303.5" font-family="Helvetica,sans-Serif" font-size="10.00">IncrementalState::next_function_iid</text>
</a>
</g>
</g>
<!-- Node14&#45;&gt;Node24 -->
<g id="edge17" class="edge">
<title>Node14&#45;&gt;Node24</title>
<path fill="none" stroke="midnightblue" d="M574.12,-311.5C586.19,-311.5 598.65,-311.5 610.93,-311.5"/>
<polygon fill="midnightblue" stroke="midnightblue" points="611.19,-315 621.19,-311.5 611.19,-308 611.19,-315"/>
</g>
<!-- Node26 -->
<g id="node20" class="node">
<title>Node26</title>
<g id="a_node20"><a xlink:href="classv8_1_1internal_1_1CodeDataSourceIncrementalState.html#a67e03c8a5b86cc974a959b68ef50f3a6" target="_top" xlink:title=" ">
<polygon fill="white" stroke="black" points="396,-926.5 396,-956.5 567,-956.5 567,-926.5 396,-926.5"/>
<text text-anchor="start" x="404" y="-944.5" font-family="Helvetica,sans-Serif" font-size="10.00">v8::internal::CodeDataSource</text>
<text text-anchor="middle" x="481.5" y="-933.5" font-family="Helvetica,sans-Serif" font-size="10.00">IncrementalState::InternJsScript</text>
</a>
</g>
</g>
<!-- Node25&#45;&gt;Node26 -->
<g id="edge19" class="edge">
<title>Node25&#45;&gt;Node26</title>
<path fill="none" stroke="midnightblue" d="M353.2,-933.01C363.81,-933.72 374.74,-934.45 385.53,-935.17"/>
<polygon fill="midnightblue" stroke="midnightblue" points="385.6,-938.68 395.81,-935.85 386.06,-931.7 385.6,-938.68"/>
</g>
<!-- Node26&#45;&gt;Node11 -->
<g id="edge22" class="edge">
<title>Node26&#45;&gt;Node11</title>
<path fill="none" stroke="midnightblue" d="M553.57,-926.42C560.86,-923.19 567.84,-919.26 574,-914.5 598.59,-895.47 584.4,-872.16 610,-854.5 620.04,-847.57 631.85,-842.94 643.87,-839.89"/>
<polygon fill="midnightblue" stroke="midnightblue" points="644.96,-843.23 653.98,-837.68 643.46,-836.4 644.96,-843.23"/>
</g>
<!-- Node27 -->
<g id="node21" class="node">
<title>Node27</title>
<g id="a_node21"><a xlink:href="namespacev8_1_1internal_1_1anonymous__namespace_02code-data-source_8cc_03.html#a5d5b878754918104ba372da79f7063aa" target="_top" xlink:title=" ">
<polygon fill="white" stroke="black" points="632.5,-924 632.5,-965 801.5,-965 801.5,-924 632.5,-924"/>
<text text-anchor="start" x="640.5" y="-953" font-family="Helvetica,sans-Serif" font-size="10.00">v8::internal::anonymous</text>
<text text-anchor="start" x="640.5" y="-942" font-family="Helvetica,sans-Serif" font-size="10.00">_namespace{code&#45;data&#45;source</text>
<text text-anchor="middle" x="717" y="-931" font-family="Helvetica,sans-Serif" font-size="10.00">::cc}::GetJsScriptType</text>
</a>
</g>
</g>
<!-- Node26&#45;&gt;Node27 -->
<g id="edge20" class="edge">
<title>Node26&#45;&gt;Node27</title>
<path fill="none" stroke="midnightblue" d="M567.13,-942.59C585.08,-942.82 604.13,-943.06 622.39,-943.3"/>
<polygon fill="midnightblue" stroke="midnightblue" points="622.4,-946.8 632.44,-943.43 622.49,-939.8 622.4,-946.8"/>
</g>
<!-- Node29 -->
<g id="node23" class="node">
<title>Node29</title>
<g id="a_node23"><a xlink:href="classv8_1_1internal_1_1CodeDataSourceIncrementalState.html#a8d12b89eda0890d0b719729dff04d95e" target="_top" xlink:title=" ">
<polygon fill="white" stroke="black" points="637.5,-864 637.5,-905 796.5,-905 796.5,-864 637.5,-864"/>
<text text-anchor="start" x="645.5" y="-893" font-family="Helvetica,sans-Serif" font-size="10.00">v8::internal::CodeDataSource</text>
<text text-anchor="start" x="645.5" y="-882" font-family="Helvetica,sans-Serif" font-size="10.00">IncrementalState::log_script</text>
<text text-anchor="middle" x="717" y="-871" font-family="Helvetica,sans-Serif" font-size="10.00">_sources</text>
</a>
</g>
</g>
<!-- Node26&#45;&gt;Node29 -->
<g id="edge23" class="edge">
<title>Node26&#45;&gt;Node29</title>
<path fill="none" stroke="midnightblue" d="M544.15,-926.45C569.66,-920.22 599.71,-912.89 627.49,-906.11"/>
<polygon fill="midnightblue" stroke="midnightblue" points="628.33,-909.5 637.22,-903.73 626.67,-902.7 628.33,-909.5"/>
</g>
<!-- Node30 -->
<g id="node24" class="node">
<title>Node30</title>
<g id="a_node24"><a xlink:href="classv8_1_1internal_1_1CodeDataSourceIncrementalState.html#acd3ae44cbe00d79ad6b765cceae55168" target="_top" xlink:title=" ">
<polygon fill="white" stroke="black" points="628,-1033.5 628,-1063.5 806,-1063.5 806,-1033.5 628,-1033.5"/>
<text text-anchor="start" x="636" y="-1051.5" font-family="Helvetica,sans-Serif" font-size="10.00">v8::internal::CodeDataSource</text>
<text text-anchor="middle" x="717" y="-1040.5" font-family="Helvetica,sans-Serif" font-size="10.00">IncrementalState::next_script_iid</text>
</a>
</g>
</g>
<!-- Node26&#45;&gt;Node30 -->
<g id="edge24" class="edge">
<title>Node26&#45;&gt;Node30</title>
<path fill="none" stroke="midnightblue" d="M501.16,-956.73C524.98,-975.43 568.15,-1006.81 610,-1024.5 615.05,-1026.63 620.32,-1028.59 625.7,-1030.39"/>
<polygon fill="midnightblue" stroke="midnightblue" points="624.87,-1033.8 635.46,-1033.45 626.96,-1027.12 624.87,-1033.8"/>
</g>
<!-- Node31 -->
<g id="node25" class="node">
<title>Node31</title>
<g id="a_node25"><a xlink:href="classv8_1_1internal_1_1PerfettoV8String.html#a03e83dc3e9af4cc5533031ef9eb76093" target="_top" xlink:title=" ">
<polygon fill="white" stroke="red" points="652,-984.5 652,-1014.5 782,-1014.5 782,-984.5 652,-984.5"/>
<text text-anchor="start" x="660" y="-1002.5" font-family="Helvetica,sans-Serif" font-size="10.00">v8::internal::PerfettoV8</text>
<text text-anchor="middle" x="717" y="-991.5" font-family="Helvetica,sans-Serif" font-size="10.00">String::WriteToProto</text>
</a>
</g>
</g>
<!-- Node26&#45;&gt;Node31 -->
<g id="edge25" class="edge">
<title>Node26&#45;&gt;Node31</title>
<path fill="none" stroke="midnightblue" d="M539.56,-956.55C561.55,-962.27 586.92,-968.79 610,-974.5 620.33,-977.05 631.24,-979.69 641.97,-982.26"/>
<polygon fill="midnightblue" stroke="midnightblue" points="641.23,-985.68 651.76,-984.59 642.85,-978.87 641.23,-985.68"/>
</g>
<!-- Node28 -->
<g id="node22" class="node">
<title>Node28</title>
<g id="a_node22"><a xlink:href="namespacev8_1_1internal.html#acdec713c25068019f935e35976f5b666" target="_top" xlink:title=" ">
<polygon fill="white" stroke="black" points="860,-836 860,-855 1012,-855 1012,-836 860,-836"/>
<text text-anchor="middle" x="936" y="-843" font-family="Helvetica,sans-Serif" font-size="10.00">v8::internal::UNREACHABLE</text>
</a>
</g>
</g>
<!-- Node27&#45;&gt;Node28 -->
<g id="edge21" class="edge">
<title>Node27&#45;&gt;Node28</title>
<path fill="none" stroke="midnightblue" d="M799.56,-923.95C807.93,-921.09 816.21,-917.94 824,-914.5 857.38,-899.75 892.63,-876.3 914.23,-860.9"/>
<polygon fill="midnightblue" stroke="midnightblue" points="916.28,-863.73 922.34,-855.04 912.18,-858.06 916.28,-863.73"/>
</g>
<!-- Node34 -->
<g id="node27" class="node">
<title>Node34</title>
<g id="a_node27"><a xlink:href="namespacev8_1_1internal_1_1anonymous__namespace_02perfetto-logger_8cc_03.html#a10b5b41653855de08f7b42c3555b8666" target="_top" xlink:title=" ">
<polygon fill="white" stroke="black" points="402.5,-88 402.5,-129 560.5,-129 560.5,-88 402.5,-88"/>
<text text-anchor="start" x="410.5" y="-117" font-family="Helvetica,sans-Serif" font-size="10.00">v8::internal::anonymous</text>
<text text-anchor="start" x="410.5" y="-106" font-family="Helvetica,sans-Serif" font-size="10.00">_namespace{perfetto&#45;logger</text>
<text text-anchor="middle" x="481.5" y="-95" font-family="Helvetica,sans-Serif" font-size="10.00">::cc}::NewTracePacket</text>
</a>
</g>
</g>
<!-- Node33&#45;&gt;Node34 -->
<g id="edge27" class="edge">
<title>Node33&#45;&gt;Node34</title>
<path fill="none" stroke="midnightblue" d="M343.13,-548.94C346.78,-546.18 350.12,-543.05 353,-539.5 424.31,-451.67 354.79,-395.34 389,-287.5 406.73,-231.62 440.59,-172 461.78,-137.61"/>
<polygon fill="midnightblue" stroke="midnightblue" points="464.82,-139.35 467.13,-129.01 458.87,-135.65 464.82,-139.35"/>
</g>
<!-- Node35 -->
<g id="node28" class="node">
<title>Node35</title>
<g id="a_node28"><a xlink:href="classv8_1_1base_1_1OS.html#ab21ab688f2e6bcbeb2a40246967ec96f" target="_top" xlink:title=" ">
<polygon fill="white" stroke="red" points="648.5,-49.5 648.5,-79.5 785.5,-79.5 785.5,-49.5 648.5,-49.5"/>
<text text-anchor="start" x="656.5" y="-67.5" font-family="Helvetica,sans-Serif" font-size="10.00">v8::base::OS::GetCurrent</text>
<text text-anchor="middle" x="717" y="-56.5" font-family="Helvetica,sans-Serif" font-size="10.00">ThreadId</text>
</a>
</g>
</g>
<!-- Node34&#45;&gt;Node35 -->
<g id="edge28" class="edge">
<title>Node34&#45;&gt;Node35</title>
<path fill="none" stroke="midnightblue" d="M560.58,-93.79C585.51,-89.09 613.1,-83.89 638.03,-79.19"/>
<polygon fill="midnightblue" stroke="midnightblue" points="638.99,-82.57 648.17,-77.28 637.69,-75.69 638.99,-82.57"/>
</g>
<!-- Node37 -->
<g id="node29" class="node">
<title>Node37</title>
<g id="a_node29"><a xlink:href="classv8_1_1internal_1_1CodeDataSourceIncrementalState.html#a1ab613c0ce43ec1672def359da1296bf" target="_top" xlink:title=" ">
<polygon fill="white" stroke="black" points="637.5,-0.5 637.5,-30.5 796.5,-30.5 796.5,-0.5 637.5,-0.5"/>
<text text-anchor="start" x="645.5" y="-18.5" font-family="Helvetica,sans-Serif" font-size="10.00">v8::internal::CodeDataSource</text>
<text text-anchor="middle" x="717" y="-7.5" font-family="Helvetica,sans-Serif" font-size="10.00">IncrementalState::Init</text>
</a>
</g>
</g>
<!-- Node34&#45;&gt;Node37 -->
<g id="edge29" class="edge">
<title>Node34&#45;&gt;Node37</title>
<path fill="none" stroke="midnightblue" d="M514.62,-87.91C539.72,-72.63 575.95,-52.29 610,-39.5 615.91,-37.28 622.09,-35.23 628.36,-33.34"/>
<polygon fill="midnightblue" stroke="midnightblue" points="629.62,-36.62 638.27,-30.51 627.7,-29.89 629.62,-36.62"/>
</g>
<!-- Node38 -->
<g id="node30" class="node">
<title>Node38</title>
<g id="a_node30"><a xlink:href="classv8_1_1internal_1_1CodeDataSourceIncrementalState.html#a99d5a1ce7453b035f5962ed73fac6d83" target="_top" xlink:title=" ">
<polygon fill="white" stroke="black" points="633,-137.5 633,-167.5 801,-167.5 801,-137.5 633,-137.5"/>
<text text-anchor="start" x="641" y="-155.5" font-family="Helvetica,sans-Serif" font-size="10.00">v8::internal::CodeDataSource</text>
<text text-anchor="middle" x="717" y="-144.5" font-family="Helvetica,sans-Serif" font-size="10.00">IncrementalState::is_initialized</text>
</a>
</g>
</g>
<!-- Node34&#45;&gt;Node38 -->
<g id="edge30" class="edge">
<title>Node34&#45;&gt;Node38</title>
<path fill="none" stroke="midnightblue" d="M560.58,-123.21C581.62,-127.18 604.54,-131.5 626.17,-135.57"/>
<polygon fill="midnightblue" stroke="midnightblue" points="625.53,-139.01 636,-137.43 626.82,-132.13 625.53,-139.01"/>
</g>
<!-- Node39 -->
<g id="node31" class="node">
<title>Node39</title>
<g id="a_node31"><a xlink:href="classv8_1_1base_1_1TimeTicks.html#ab0886bf0e84f1e1fcdc101021c2c0775" target="_top" xlink:title=" ">
<polygon fill="white" stroke="red" points="646,-99 646,-118 788,-118 788,-99 646,-99"/>
<text text-anchor="middle" x="717" y="-106" font-family="Helvetica,sans-Serif" font-size="10.00">v8::base::TimeTicks::Now</text>
</a>
</g>
</g>
<!-- Node34&#45;&gt;Node39 -->
<g id="edge31" class="edge">
<title>Node34&#45;&gt;Node39</title>
<path fill="none" stroke="midnightblue" d="M560.58,-108.5C584.71,-108.5 611.32,-108.5 635.6,-108.5"/>
<polygon fill="midnightblue" stroke="midnightblue" points="635.85,-112 645.85,-108.5 635.85,-105 635.85,-112"/>
</g>
<!-- Node42&#45;&gt;Node2 -->
<g id="edge34" class="edge">
<title>Node42&#45;&gt;Node2</title>
<path fill="none" stroke="midnightblue" d="M298.15,-817C326.89,-837.98 370.25,-868.59 389,-876.5 396.33,-879.59 404.21,-882.2 412.17,-884.39"/>
<polygon fill="midnightblue" stroke="midnightblue" points="411.31,-887.79 421.87,-886.86 413.04,-881 411.31,-887.79"/>
</g>
<!-- Node42&#45;&gt;Node28 -->
<g id="edge38" class="edge">
<title>Node42&#45;&gt;Node28</title>
<path fill="none" stroke="midnightblue" d="M339.5,-775.97C355.6,-772.04 372.78,-768.52 389,-766.5 427.91,-761.65 808.64,-762.61 824,-767.5 861.87,-779.56 898.05,-809.61 918.31,-828.7"/>
<polygon fill="midnightblue" stroke="midnightblue" points="916.11,-831.45 925.74,-835.89 920.98,-826.42 916.11,-831.45"/>
</g>
<!-- Node43 -->
<g id="node34" class="node">
<title>Node43</title>
<g id="a_node34"><a xlink:href="classv8_1_1internal_1_1Isolate.html#aaf29201d3fa603dc4e94f1c42984ad7f" target="_top" xlink:title=" ">
<polygon fill="white" stroke="black" points="423.5,-776 423.5,-817 539.5,-817 539.5,-776 423.5,-776"/>
<text text-anchor="start" x="431.5" y="-805" font-family="Helvetica,sans-Serif" font-size="10.00">v8::internal::Isolate</text>
<text text-anchor="start" x="431.5" y="-794" font-family="Helvetica,sans-Serif" font-size="10.00">::interpreted_frames</text>
<text text-anchor="middle" x="481.5" y="-783" font-family="Helvetica,sans-Serif" font-size="10.00">_native_stack</text>
</a>
</g>
</g>
<!-- Node42&#45;&gt;Node43 -->
<g id="edge35" class="edge">
<title>Node42&#45;&gt;Node43</title>
<path fill="none" stroke="midnightblue" d="M348.7,-796.5C369.85,-796.5 392.55,-796.5 413.05,-796.5"/>
<polygon fill="midnightblue" stroke="midnightblue" points="413.24,-800 423.24,-796.5 413.24,-793 413.24,-800"/>
</g>
<!-- Node44 -->
<g id="node35" class="node">
<title>Node44</title>
<g id="a_node35"><a xlink:href="classv8_1_1internal_1_1CodeTraceContext.html#ae65fe4d92d1e26d0fd539d88f497f2f9" target="_top" xlink:title=" ">
<polygon fill="white" stroke="black" points="398,-836.5 398,-866.5 565,-866.5 565,-836.5 398,-836.5"/>
<text text-anchor="start" x="406" y="-854.5" font-family="Helvetica,sans-Serif" font-size="10.00">v8::internal::CodeTraceContext</text>
<text text-anchor="middle" x="481.5" y="-843.5" font-family="Helvetica,sans-Serif" font-size="10.00">::log_instructions</text>
</a>
</g>
</g>
<!-- Node42&#45;&gt;Node44 -->
<g id="edge36" class="edge">
<title>Node42&#45;&gt;Node44</title>
<path fill="none" stroke="midnightblue" d="M348.7,-816.98C369.84,-822.52 392.54,-828.46 413.04,-833.83"/>
<polygon fill="midnightblue" stroke="midnightblue" points="412.35,-837.27 422.91,-836.42 414.13,-830.5 412.35,-837.27"/>
</g>
<!-- Node45 -->
<g id="node36" class="node">
<title>Node45</title>
<g id="a_node36"><a xlink:href="classv8_1_1internal_1_1CodeDataSourceIncrementalState.html#ac12963c0140581db3ba331caeee841c6" target="_top" xlink:title=" ">
<polygon fill="white" stroke="black" points="625,-776.5 625,-806.5 809,-806.5 809,-776.5 625,-776.5"/>
<text text-anchor="start" x="633" y="-794.5" font-family="Helvetica,sans-Serif" font-size="10.00">v8::internal::CodeDataSource</text>
<text text-anchor="middle" x="717" y="-783.5" font-family="Helvetica,sans-Serif" font-size="10.00">IncrementalState::log_instructions</text>
</a>
</g>
</g>
<!-- Node44&#45;&gt;Node45 -->
<g id="edge37" class="edge">
<title>Node44&#45;&gt;Node45</title>
<path fill="none" stroke="midnightblue" d="M537.67,-836.47C549.65,-833.19 562.25,-829.74 574,-826.5 590.01,-822.09 593.92,-820.63 610,-816.5 619.92,-813.95 630.39,-811.36 640.74,-808.86"/>
<polygon fill="midnightblue" stroke="midnightblue" points="641.68,-812.24 650.59,-806.5 640.05,-805.43 641.68,-812.24"/>
</g>
</g>
</svg>
        <g id="navigator" transform="translate(0 0)" fill="#404254">
                <rect fill="#f2f5e9" fill-opacity="0.5" stroke="#606060" stroke-width=".5" x="0" y="0" width="60" height="60"/>
                <use id="zoomplus" xlink:href="#zoomPlus" x="17" y="9" onmousedown="handleZoom(evt,'in')"/>
                <use id="zoomminus" xlink:href="#zoomMin" x="42" y="9" onmousedown="handleZoom(evt,'out')"/>
                <use id="reset" xlink:href="#resetDef" x="30" y="36" onmousedown="handleReset()"/>
                <g id="arrowUp" xlink:href="#dirArrow" transform="translate(30 24)" onmousedown="handlePan(0,-1)">
                  <use xlink:href="#rim" fill="#404040">
                        <set attributeName="fill" to="#808080" begin="arrowUp.mouseover" end="arrowUp.mouseout"/>
                  </use>
                  <path fill="none" stroke="white" stroke-width="1.5" d="M0,-3.0v7 M-2.5,-0.5L0,-3.0L2.5,-0.5"/>
                </g>
                <g id="arrowRight" xlink:href="#dirArrow" transform="rotate(90) translate(36 -43)" onmousedown="handlePan(1,0)">
                  <use xlink:href="#rim" fill="#404040">
                        <set attributeName="fill" to="#808080" begin="arrowRight.mouseover" end="arrowRight.mouseout"/>
                  </use>
                  <path fill="none" stroke="white" stroke-width="1.5" d="M0,-3.0v7 M-2.5,-0.5L0,-3.0L2.5,-0.5"/>
                </g>
                <g id="arrowDown" xlink:href="#dirArrow" transform="rotate(180) translate(-30 -48)" onmousedown="handlePan(0,1)">
                  <use xlink:href="#rim" fill="#404040">
                        <set attributeName="fill" to="#808080" begin="arrowDown.mouseover" end="arrowDown.mouseout"/>
                  </use>
                  <path fill="none" stroke="white" stroke-width="1.5" d="M0,-3.0v7 M-2.5,-0.5L0,-3.0L2.5,-0.5"/>
                </g>
                <g id="arrowLeft" xlink:href="#dirArrow" transform="rotate(270) translate(-36 17)" onmousedown="handlePan(-1,0)">
                  <use xlink:href="#rim" fill="#404040">
                        <set attributeName="fill" to="#808080" begin="arrowLeft.mouseover" end="arrowLeft.mouseout"/>
                  </use>
                  <path fill="none" stroke="white" stroke-width="1.5" d="M0,-3.0v7 M-2.5,-0.5L0,-3.0L2.5,-0.5"/>
                </g>
        </g>
        <svg viewBox="0 0 15 15" width="100%" height="30px" preserveAspectRatio="xMaxYMin meet">
         <g id="arrow_out" transform="scale(0.3 0.3)">
          <a xlink:href="classv8_1_1internal_1_1PerfettoLogger_a8d27c446b93112e8743145004f1034c3_cgraph_org.svg" target="_base">
           <rect id="button" ry="5" rx="5" y="6" x="6" height="38" width="38"
                fill="#f2f5e9" fill-opacity="0.5" stroke="#606060" stroke-width="1.0"/>
           <path id="arrow"
             d="M 11.500037,31.436501 C 11.940474,20.09759 22.043105,11.32322 32.158766,21.979434 L 37.068811,17.246167 C 37.068811,17.246167 37.088388,32 37.088388,32 L 22.160133,31.978069 C 22.160133,31.978069 26.997745,27.140456 26.997745,27.140456 C 18.528582,18.264221 13.291696,25.230495 11.500037,31.436501 z"
             style="fill:#404040;"/>
          </a>
         </g>
        </svg>
</svg>
