<?xml version="1.0" encoding="UTF-8" standalone="no"?>
<!DOCTYPE svg PUBLIC "-//W3C//DTD SVG 1.1//EN"
 "http://www.w3.org/Graphics/SVG/1.1/DTD/svg11.dtd">
<!-- Generated by graphviz version 2.43.0 (0)
 -->
<!-- Title: v8::internal::MutablePageMetadata::SetOldGenerationPageFlags Pages: 1 -->
<svg width="777pt" height="347pt"
 viewBox="0.00 0.00 777.00 347.00" xmlns="http://www.w3.org/2000/svg" xmlns:xlink="http://www.w3.org/1999/xlink">
<g id="graph0" class="graph" transform="scale(1 1) rotate(0) translate(4 343)">
<title>v8::internal::MutablePageMetadata::SetOldGenerationPageFlags</title>
<polygon fill="white" stroke="transparent" points="-4,4 -4,-343 773,-343 773,4 -4,4"/>
<!-- Node1 -->
<g id="node1" class="node">
<title>Node1</title>
<g id="a_node1"><a xlink:title=" ">
<polygon fill="#bfbfbf" stroke="black" points="0,-235.5 0,-265.5 205,-265.5 205,-235.5 0,-235.5"/>
<text text-anchor="start" x="8" y="-253.5" font-family="Helvetica,sans-Serif" font-size="10.00">v8::internal::MutablePage</text>
<text text-anchor="middle" x="102.5" y="-242.5" font-family="Helvetica,sans-Serif" font-size="10.00">Metadata::SetOldGenerationPageFlags</text>
</a>
</g>
</g>
<!-- Node2 -->
<g id="node2" class="node">
<title>Node2</title>
<g id="a_node2"><a xlink:href="classv8_1_1internal_1_1MemoryChunkMetadata.html#a99a35cd051fc570183122292b977fd64" target="_top" xlink:title=" ">
<polygon fill="white" stroke="black" points="435,-284.5 435,-314.5 584,-314.5 584,-284.5 435,-284.5"/>
<text text-anchor="start" x="443" y="-302.5" font-family="Helvetica,sans-Serif" font-size="10.00">v8::internal::MemoryChunk</text>
<text text-anchor="middle" x="509.5" y="-291.5" font-family="Helvetica,sans-Serif" font-size="10.00">Metadata::Chunk</text>
</a>
</g>
</g>
<!-- Node1&#45;&gt;Node2 -->
<g id="edge1" class="edge">
<title>Node1&#45;&gt;Node2</title>
<path fill="none" stroke="midnightblue" d="M179.31,-265.55C199.32,-269.17 220.92,-272.78 241,-275.5 302.31,-283.81 371.94,-289.95 424.78,-293.94"/>
<polygon fill="midnightblue" stroke="midnightblue" points="424.55,-297.43 434.78,-294.69 425.07,-290.45 424.55,-297.43"/>
</g>
<!-- Node5 -->
<g id="node5" class="node">
<title>Node5</title>
<g id="a_node5"><a xlink:href="classv8_1_1internal_1_1MutablePageMetadata.html#a98e6d09101f0c9a9f462fabd85c7fe0b" target="_top" xlink:title=" ">
<polygon fill="white" stroke="black" points="249,-235.5 249,-265.5 391,-265.5 391,-235.5 249,-235.5"/>
<text text-anchor="start" x="257" y="-253.5" font-family="Helvetica,sans-Serif" font-size="10.00">v8::internal::MutablePage</text>
<text text-anchor="middle" x="320" y="-242.5" font-family="Helvetica,sans-Serif" font-size="10.00">Metadata::owner_identity</text>
</a>
</g>
</g>
<!-- Node1&#45;&gt;Node5 -->
<g id="edge4" class="edge">
<title>Node1&#45;&gt;Node5</title>
<path fill="none" stroke="midnightblue" d="M205.25,-250.5C216.4,-250.5 227.64,-250.5 238.48,-250.5"/>
<polygon fill="midnightblue" stroke="midnightblue" points="238.74,-254 248.74,-250.5 238.74,-247 238.74,-254"/>
</g>
<!-- Node9 -->
<g id="node9" class="node">
<title>Node9</title>
<g id="a_node9"><a xlink:href="classv8_1_1internal_1_1MemoryChunk.html#a342e6d8b8b43ce382a017f2e1c241a6a" target="_top" xlink:title=" ">
<polygon fill="white" stroke="black" points="241,-93.5 241,-123.5 399,-123.5 399,-93.5 241,-93.5"/>
<text text-anchor="start" x="249" y="-111.5" font-family="Helvetica,sans-Serif" font-size="10.00">v8::internal::MemoryChunk</text>
<text text-anchor="middle" x="320" y="-100.5" font-family="Helvetica,sans-Serif" font-size="10.00">::SetOldGenerationPageFlags</text>
</a>
</g>
</g>
<!-- Node1&#45;&gt;Node9 -->
<g id="edge9" class="edge">
<title>Node1&#45;&gt;Node9</title>
<path fill="none" stroke="midnightblue" d="M126.56,-235.3C165.37,-209.73 243.76,-158.08 287.57,-129.21"/>
<polygon fill="midnightblue" stroke="midnightblue" points="289.68,-132.01 296.1,-123.59 285.83,-126.17 289.68,-132.01"/>
</g>
<!-- Node3 -->
<g id="node3" class="node">
<title>Node3</title>
<g id="a_node3"><a xlink:href="classv8_1_1internal_1_1MemoryChunkMetadata.html#a51cfea136a536fcf580f114b75f1d69b" target="_top" xlink:title=" ">
<polygon fill="white" stroke="black" points="620,-308.5 620,-338.5 769,-338.5 769,-308.5 620,-308.5"/>
<text text-anchor="start" x="628" y="-326.5" font-family="Helvetica,sans-Serif" font-size="10.00">v8::internal::MemoryChunk</text>
<text text-anchor="middle" x="694.5" y="-315.5" font-family="Helvetica,sans-Serif" font-size="10.00">Metadata::area_start</text>
</a>
</g>
</g>
<!-- Node2&#45;&gt;Node3 -->
<g id="edge2" class="edge">
<title>Node2&#45;&gt;Node3</title>
<path fill="none" stroke="midnightblue" d="M584.14,-309.16C592.57,-310.26 601.2,-311.39 609.74,-312.52"/>
<polygon fill="midnightblue" stroke="midnightblue" points="609.34,-315.99 619.71,-313.82 610.25,-309.05 609.34,-315.99"/>
</g>
<!-- Node4 -->
<g id="node4" class="node">
<title>Node4</title>
<g id="a_node4"><a xlink:href="classv8_1_1internal_1_1MemoryChunk.html#a1c9e126ddfcab88ef54ab6a899ece138" target="_top" xlink:title=" ">
<polygon fill="white" stroke="black" points="620,-259.5 620,-289.5 769,-289.5 769,-259.5 620,-259.5"/>
<text text-anchor="start" x="628" y="-277.5" font-family="Helvetica,sans-Serif" font-size="10.00">v8::internal::MemoryChunk</text>
<text text-anchor="middle" x="694.5" y="-266.5" font-family="Helvetica,sans-Serif" font-size="10.00">::FromAddress</text>
</a>
</g>
</g>
<!-- Node2&#45;&gt;Node4 -->
<g id="edge3" class="edge">
<title>Node2&#45;&gt;Node4</title>
<path fill="none" stroke="midnightblue" d="M584.14,-289.44C592.57,-288.29 601.2,-287.11 609.74,-285.94"/>
<polygon fill="midnightblue" stroke="midnightblue" points="610.28,-289.4 619.71,-284.58 609.33,-282.47 610.28,-289.4"/>
</g>
<!-- Node5&#45;&gt;Node2 -->
<g id="edge5" class="edge">
<title>Node5&#45;&gt;Node2</title>
<path fill="none" stroke="midnightblue" d="M378.53,-265.53C398.33,-270.71 420.67,-276.55 441.18,-281.91"/>
<polygon fill="midnightblue" stroke="midnightblue" points="440.52,-285.35 451.08,-284.49 442.29,-278.58 440.52,-285.35"/>
</g>
<!-- Node6 -->
<g id="node6" class="node">
<title>Node6</title>
<g id="a_node6"><a xlink:href="classv8_1_1internal_1_1BaseSpace.html#a97c01ba3966b5b6d9e5a1f9b7bc34953" target="_top" xlink:title=" ">
<polygon fill="white" stroke="black" points="444,-235.5 444,-265.5 575,-265.5 575,-235.5 444,-235.5"/>
<text text-anchor="start" x="452" y="-253.5" font-family="Helvetica,sans-Serif" font-size="10.00">v8::internal::BaseSpace</text>
<text text-anchor="middle" x="509.5" y="-242.5" font-family="Helvetica,sans-Serif" font-size="10.00">::identity</text>
</a>
</g>
</g>
<!-- Node5&#45;&gt;Node6 -->
<g id="edge6" class="edge">
<title>Node5&#45;&gt;Node6</title>
<path fill="none" stroke="midnightblue" d="M391.08,-250.5C404.98,-250.5 419.62,-250.5 433.66,-250.5"/>
<polygon fill="midnightblue" stroke="midnightblue" points="433.76,-254 443.76,-250.5 433.76,-247 433.76,-254"/>
</g>
<!-- Node7 -->
<g id="node7" class="node">
<title>Node7</title>
<g id="a_node7"><a xlink:href="classv8_1_1internal_1_1MutablePageMetadata.html#af3845e6da2abe802ba2c0aff1d3476dc" target="_top" xlink:title=" ">
<polygon fill="white" stroke="black" points="439,-186.5 439,-216.5 580,-216.5 580,-186.5 439,-186.5"/>
<text text-anchor="start" x="447" y="-204.5" font-family="Helvetica,sans-Serif" font-size="10.00">v8::internal::MutablePage</text>
<text text-anchor="middle" x="509.5" y="-193.5" font-family="Helvetica,sans-Serif" font-size="10.00">Metadata::owner</text>
</a>
</g>
</g>
<!-- Node5&#45;&gt;Node7 -->
<g id="edge7" class="edge">
<title>Node5&#45;&gt;Node7</title>
<path fill="none" stroke="midnightblue" d="M378.53,-235.47C398.33,-230.29 420.67,-224.45 441.18,-219.09"/>
<polygon fill="midnightblue" stroke="midnightblue" points="442.29,-222.42 451.08,-216.51 440.52,-215.65 442.29,-222.42"/>
</g>
<!-- Node8 -->
<g id="node8" class="node">
<title>Node8</title>
<g id="a_node8"><a xlink:href="classv8_1_1internal_1_1MemoryChunkMetadata.html#a848a094456d4a8ec7f09caeac624dc0f" target="_top" xlink:title=" ">
<polygon fill="white" stroke="black" points="620,-186.5 620,-216.5 769,-216.5 769,-186.5 620,-186.5"/>
<text text-anchor="start" x="628" y="-204.5" font-family="Helvetica,sans-Serif" font-size="10.00">v8::internal::MemoryChunk</text>
<text text-anchor="middle" x="694.5" y="-193.5" font-family="Helvetica,sans-Serif" font-size="10.00">Metadata::owner</text>
</a>
</g>
</g>
<!-- Node7&#45;&gt;Node8 -->
<g id="edge8" class="edge">
<title>Node7&#45;&gt;Node8</title>
<path fill="none" stroke="midnightblue" d="M580.21,-201.5C589.8,-201.5 599.74,-201.5 609.56,-201.5"/>
<polygon fill="midnightblue" stroke="midnightblue" points="609.73,-205 619.73,-201.5 609.73,-198 609.73,-205"/>
</g>
<!-- Node10 -->
<g id="node10" class="node">
<title>Node10</title>
<g id="a_node10"><a xlink:href="classv8_1_1internal_1_1MemoryChunk.html#a15d5fc9a79f9090031ec1a7831f2a009" target="_top" xlink:title=" ">
<polygon fill="white" stroke="black" points="435,-137.5 435,-167.5 584,-167.5 584,-137.5 435,-137.5"/>
<text text-anchor="start" x="443" y="-155.5" font-family="Helvetica,sans-Serif" font-size="10.00">v8::internal::MemoryChunk</text>
<text text-anchor="middle" x="509.5" y="-144.5" font-family="Helvetica,sans-Serif" font-size="10.00">::ClearFlagsUnlocked</text>
</a>
</g>
</g>
<!-- Node9&#45;&gt;Node10 -->
<g id="edge10" class="edge">
<title>Node9&#45;&gt;Node10</title>
<path fill="none" stroke="midnightblue" d="M385,-123.52C400.9,-127.25 418.08,-131.28 434.42,-135.12"/>
<polygon fill="midnightblue" stroke="midnightblue" points="433.93,-138.6 444.47,-137.47 435.53,-131.78 433.93,-138.6"/>
</g>
<!-- Node11 -->
<g id="node11" class="node">
<title>Node11</title>
<g id="a_node11"><a xlink:href="namespacev8_1_1internal.html#afa6131194f7565b446990e187adf6c00" target="_top" xlink:title=" ">
<polygon fill="white" stroke="black" points="625,-71.5 625,-101.5 764,-101.5 764,-71.5 625,-71.5"/>
<text text-anchor="start" x="633" y="-89.5" font-family="Helvetica,sans-Serif" font-size="10.00">v8::internal::IsAnyShared</text>
<text text-anchor="middle" x="694.5" y="-78.5" font-family="Helvetica,sans-Serif" font-size="10.00">Space</text>
</a>
</g>
</g>
<!-- Node9&#45;&gt;Node11 -->
<g id="edge11" class="edge">
<title>Node9&#45;&gt;Node11</title>
<path fill="none" stroke="midnightblue" d="M399.09,-103.89C462.34,-100.15 551.07,-94.91 614.55,-91.16"/>
<polygon fill="midnightblue" stroke="midnightblue" points="615.13,-94.63 624.91,-90.55 614.72,-87.65 615.13,-94.63"/>
</g>
<!-- Node12 -->
<g id="node12" class="node">
<title>Node12</title>
<g id="a_node12"><a xlink:href="classv8_1_1internal_1_1MemoryChunk.html#a4c1df6c4d7670c9d8f22a6a151b4b119" target="_top" xlink:title=" ">
<polygon fill="white" stroke="black" points="435,-49.5 435,-79.5 584,-79.5 584,-49.5 435,-49.5"/>
<text text-anchor="start" x="443" y="-67.5" font-family="Helvetica,sans-Serif" font-size="10.00">v8::internal::MemoryChunk</text>
<text text-anchor="middle" x="509.5" y="-56.5" font-family="Helvetica,sans-Serif" font-size="10.00">::OldGenerationPageFlags</text>
</a>
</g>
</g>
<!-- Node9&#45;&gt;Node12 -->
<g id="edge12" class="edge">
<title>Node9&#45;&gt;Node12</title>
<path fill="none" stroke="midnightblue" d="M385,-93.48C400.9,-89.75 418.08,-85.72 434.42,-81.88"/>
<polygon fill="midnightblue" stroke="midnightblue" points="435.53,-85.22 444.47,-79.53 433.93,-78.4 435.53,-85.22"/>
</g>
<!-- Node13 -->
<g id="node13" class="node">
<title>Node13</title>
<g id="a_node13"><a xlink:href="classv8_1_1internal_1_1MemoryChunk.html#a3dbf99c19528781443a916fb94f216a9" target="_top" xlink:title=" ">
<polygon fill="white" stroke="black" points="435,-0.5 435,-30.5 584,-30.5 584,-0.5 435,-0.5"/>
<text text-anchor="start" x="443" y="-18.5" font-family="Helvetica,sans-Serif" font-size="10.00">v8::internal::MemoryChunk</text>
<text text-anchor="middle" x="509.5" y="-7.5" font-family="Helvetica,sans-Serif" font-size="10.00">::SetFlagsUnlocked</text>
</a>
</g>
</g>
<!-- Node9&#45;&gt;Node13 -->
<g id="edge14" class="edge">
<title>Node9&#45;&gt;Node13</title>
<path fill="none" stroke="midnightblue" d="M343.37,-93.23C365.82,-78.38 401.74,-55.87 435,-40.5 439.7,-38.33 444.64,-36.25 449.65,-34.28"/>
<polygon fill="midnightblue" stroke="midnightblue" points="451.19,-37.44 459.31,-30.63 448.71,-30.89 451.19,-37.44"/>
</g>
<!-- Node12&#45;&gt;Node11 -->
<g id="edge13" class="edge">
<title>Node12&#45;&gt;Node11</title>
<path fill="none" stroke="midnightblue" d="M584.14,-73.35C594.2,-74.56 604.55,-75.81 614.7,-77.03"/>
<polygon fill="midnightblue" stroke="midnightblue" points="614.4,-80.52 624.75,-78.23 615.24,-73.57 614.4,-80.52"/>
</g>
</g>
</svg>
