<?xml version="1.0" encoding="UTF-8" standalone="no"?>
<!DOCTYPE svg PUBLIC "-//W3C//DTD SVG 1.1//EN"
 "http://www.w3.org/Graphics/SVG/1.1/DTD/svg11.dtd">
<!-- Generated by graphviz version 2.43.0 (0)
 -->
<!-- Title: v8::internal::PropertyArray::length Pages: 1 -->
<!--zoomable 462 -->
<svg id="main" version="1.1" xmlns="http://www.w3.org/2000/svg" xmlns:xlink="http://www.w3.org/1999/xlink" xml:space="preserve" onload="init(evt)">
<style type="text/css"><![CDATA[
.edge:hover path { stroke: red; }
.edge:hover polygon { stroke: red; fill: red; }
]]></style>
<script type="text/javascript"><![CDATA[
var edges = document.getElementsByTagName('g');
if (edges && edges.length) {
  for (var i=0;i<edges.length;i++) {
    if (edges[i].id.substr(0,4)=='edge') {
      edges[i].setAttribute('class','edge');
    }
  }
}
]]></script>
        <defs>
                <circle id="rim" cx="0" cy="0" r="7"/>
                <circle id="rim2" cx="0" cy="0" r="3.5"/>
                <g id="zoomPlus">
                        <use xlink:href="#rim" fill="#404040">
                                <set attributeName="fill" to="#808080" begin="zoomplus.mouseover" end="zoomplus.mouseout"/>
                        </use>
                        <path d="M-4,0h8M0,-4v8" fill="none" stroke="white" stroke-width="1.5" pointer-events="none"/>
                </g>
                <g id="zoomMin">
                        <use xlink:href="#rim" fill="#404040">
                                <set attributeName="fill" to="#808080" begin="zoomminus.mouseover" end="zoomminus.mouseout"/>
                        </use>
                        <path d="M-4,0h8" fill="none" stroke="white" stroke-width="1.5" pointer-events="none"/>
                </g>
                <g id="dirArrow">
                        <path fill="none" stroke="white" stroke-width="1.5" d="M0,-3.0v7 M-2.5,-0.5L0,-3.0L2.5,-0.5"/>
                </g>
               <g id="resetDef">
                       <use xlink:href="#rim2" fill="#404040">
                               <set attributeName="fill" to="#808080" begin="reset.mouseover" end="reset.mouseout"/>
                       </use>
               </g>
        </defs>

<script type="text/javascript">
var viewWidth = 1037;
var viewHeight = 462;
var sectionId = 'dynsection-8';
</script>
<script xlink:href="svgpan.js"/>
<svg id="graph" class="graph">
<g id="viewport">
<title>v8::internal::PropertyArray::length</title>
<polygon fill="white" stroke="transparent" points="-4,4 -4,-457.88 1033,-457.88 1033,4 -4,4"/>
<!-- Node1 -->
<g id="node1" class="node">
<title>Node1</title>
<g id="a_node1"><a xlink:title=" ">
<polygon fill="#bfbfbf" stroke="black" points="883,-250.38 883,-280.38 1029,-280.38 1029,-250.38 883,-250.38"/>
<text text-anchor="start" x="891" y="-268.38" font-family="Helvetica,sans-Serif" font-size="10.00">v8::internal::PropertyArray</text>
<text text-anchor="middle" x="956" y="-257.38" font-family="Helvetica,sans-Serif" font-size="10.00">::length</text>
</a>
</g>
</g>
<!-- Node2 -->
<g id="node2" class="node">
<title>Node2</title>
<g id="a_node2"><a xlink:href="classv8_1_1internal_1_1PropertyArray.html#a3042a9147eb04c4cb7916455f3682f2e" target="_top" xlink:title=" ">
<polygon fill="white" stroke="black" points="258,-423.38 258,-453.38 404,-453.38 404,-423.38 258,-423.38"/>
<text text-anchor="start" x="266" y="-441.38" font-family="Helvetica,sans-Serif" font-size="10.00">v8::internal::PropertyArray</text>
<text text-anchor="middle" x="331" y="-430.38" font-family="Helvetica,sans-Serif" font-size="10.00">::CompareAndSwap</text>
</a>
</g>
</g>
<!-- Node1&#45;&gt;Node2 -->
<g id="edge1" class="edge">
<title>Node1&#45;&gt;Node2</title>
<path fill="none" stroke="midnightblue" d="M917.8,-285.19C897.32,-295.52 871.23,-307.76 847,-316.38 693.34,-371.04 505.18,-408.55 404.23,-426.42"/>
<polygon fill="midnightblue" stroke="midnightblue" points="919.47,-288.27 926.78,-280.6 916.28,-282.04 919.47,-288.27"/>
</g>
<!-- Node3 -->
<g id="node3" class="node">
<title>Node3</title>
<g id="a_node3"><a xlink:href="classv8_1_1internal_1_1PropertyArray.html#ac1ae1c6f6a0e9649ab81c2dec600b9a2" target="_top" xlink:title=" ">
<polygon fill="white" stroke="black" points="248,-384.88 248,-403.88 414,-403.88 414,-384.88 248,-384.88"/>
<text text-anchor="middle" x="331" y="-391.88" font-family="Helvetica,sans-Serif" font-size="10.00">v8::internal::PropertyArray::set</text>
</a>
</g>
</g>
<!-- Node1&#45;&gt;Node3 -->
<g id="edge2" class="edge">
<title>Node1&#45;&gt;Node3</title>
<path fill="none" stroke="midnightblue" d="M872.81,-282.39C740.01,-309.89 482.59,-363.19 377.93,-384.87"/>
<polygon fill="midnightblue" stroke="midnightblue" points="873.84,-285.75 882.93,-280.3 872.42,-278.9 873.84,-285.75"/>
</g>
<!-- Node4 -->
<g id="node4" class="node">
<title>Node4</title>
<g id="a_node4"><a xlink:href="classv8_1_1internal_1_1PropertyArray.html#a7f3f1e3dd698aff37b020dfb781f9702" target="_top" xlink:title=" ">
<polygon fill="white" stroke="black" points="701,-157.38 701,-187.38 847,-187.38 847,-157.38 701,-157.38"/>
<text text-anchor="start" x="709" y="-175.38" font-family="Helvetica,sans-Serif" font-size="10.00">v8::internal::PropertyArray</text>
<text text-anchor="middle" x="774" y="-164.38" font-family="Helvetica,sans-Serif" font-size="10.00">::SizeFor</text>
</a>
</g>
</g>
<!-- Node1&#45;&gt;Node4 -->
<g id="edge3" class="edge">
<title>Node1&#45;&gt;Node4</title>
<path fill="none" stroke="midnightblue" d="M916.61,-245.54C883.01,-228.18 834.9,-203.32 804.31,-187.52"/>
<polygon fill="midnightblue" stroke="midnightblue" points="915.19,-248.75 925.68,-250.23 918.4,-242.53 915.19,-248.75"/>
</g>
<!-- Node2229 -->
<g id="node14" class="node">
<title>Node2229</title>
<g id="a_node14"><a xlink:href="classv8_1_1internal_1_1PropertyArray.html#a67060000d5809daf99c9c6720573252e" target="_top" xlink:title=" ">
<polygon fill="white" stroke="black" points="258,-7.38 258,-37.38 404,-37.38 404,-7.38 258,-7.38"/>
<text text-anchor="start" x="266" y="-25.38" font-family="Helvetica,sans-Serif" font-size="10.00">v8::internal::PropertyArray</text>
<text text-anchor="middle" x="331" y="-14.38" font-family="Helvetica,sans-Serif" font-size="10.00">::Swap</text>
</a>
</g>
</g>
<!-- Node1&#45;&gt;Node2229 -->
<g id="edge18" class="edge">
<title>Node1&#45;&gt;Node2229</title>
<path fill="none" stroke="midnightblue" d="M938.28,-242C898.42,-188.71 791.63,-59.7 665,-19.38 578.51,8.17 472.86,0.8 404.08,-9.02"/>
<polygon fill="midnightblue" stroke="midnightblue" points="935.55,-244.2 944.31,-250.17 941.18,-240.04 935.55,-244.2"/>
</g>
<!-- Node5 -->
<g id="node5" class="node">
<title>Node5</title>
<g id="a_node5"><a xlink:href="classv8_1_1internal_1_1compiler_1_1JSNativeContextSpecialization.html#a1b8816133d01b86e03100bafeab223d4" target="_top" xlink:title=" ">
<polygon fill="white" stroke="black" points="461,-127.88 461,-168.88 656,-168.88 656,-127.88 461,-127.88"/>
<text text-anchor="start" x="469" y="-156.88" font-family="Helvetica,sans-Serif" font-size="10.00">v8::internal::compiler</text>
<text text-anchor="start" x="469" y="-145.88" font-family="Helvetica,sans-Serif" font-size="10.00">::JSNativeContextSpecialization</text>
<text text-anchor="middle" x="558.5" y="-134.88" font-family="Helvetica,sans-Serif" font-size="10.00">::BuildExtendPropertiesBackingStore</text>
</a>
</g>
</g>
<!-- Node4&#45;&gt;Node5 -->
<g id="edge4" class="edge">
<title>Node4&#45;&gt;Node5</title>
<path fill="none" stroke="midnightblue" d="M690.55,-163.11C679.34,-161.85 667.75,-160.54 656.31,-159.26"/>
<polygon fill="midnightblue" stroke="midnightblue" points="690.39,-166.61 700.72,-164.25 691.17,-159.65 690.39,-166.61"/>
</g>
<!-- Node21 -->
<g id="node7" class="node">
<title>Node21</title>
<g id="a_node7"><a xlink:href="classv8_1_1internal_1_1TranslatedState.html#a319162db2d75d6d25682c27cd246955f" target="_top" xlink:title=" ">
<polygon fill="white" stroke="black" points="452,-78.38 452,-108.38 665,-108.38 665,-78.38 452,-78.38"/>
<text text-anchor="start" x="460" y="-96.38" font-family="Helvetica,sans-Serif" font-size="10.00">v8::internal::Translated</text>
<text text-anchor="middle" x="558.5" y="-85.38" font-family="Helvetica,sans-Serif" font-size="10.00">State::EnsureCapturedObjectAllocatedAt</text>
</a>
</g>
</g>
<!-- Node4&#45;&gt;Node21 -->
<g id="edge6" class="edge">
<title>Node4&#45;&gt;Node21</title>
<path fill="none" stroke="midnightblue" d="M738.36,-152.48C717.61,-141.22 690.4,-127.6 665,-118.38 654.74,-114.65 643.71,-111.33 632.79,-108.42"/>
<polygon fill="midnightblue" stroke="midnightblue" points="736.68,-155.55 747.12,-157.3 740.05,-149.42 736.68,-155.55"/>
</g>
<!-- Node65 -->
<g id="node9" class="node">
<title>Node65</title>
<g id="a_node9"><a xlink:href="classv8_1_1internal_1_1compiler_1_1turboshaft_1_1TurbolevEarlyLoweringReducer.html#a2fc4d416103ce987a2ad65eccf332a0d" target="_top" xlink:title=" ">
<polygon fill="white" stroke="black" points="0,-250.88 0,-291.88 210,-291.88 210,-250.88 0,-250.88"/>
<text text-anchor="start" x="8" y="-279.88" font-family="Helvetica,sans-Serif" font-size="10.00">v8::internal::compiler</text>
<text text-anchor="start" x="8" y="-268.88" font-family="Helvetica,sans-Serif" font-size="10.00">::turboshaft::TurbolevEarlyLowering</text>
<text text-anchor="middle" x="105" y="-257.88" font-family="Helvetica,sans-Serif" font-size="10.00">Reducer::ExtendPropertiesBackingStore</text>
</a>
</g>
</g>
<!-- Node4&#45;&gt;Node65 -->
<g id="edge8" class="edge">
<title>Node4&#45;&gt;Node65</title>
<path fill="none" stroke="midnightblue" d="M690.74,-178.12C553.37,-187.89 288.12,-207.66 246,-217.38 212.75,-225.04 176.87,-239 149.75,-250.81"/>
<polygon fill="midnightblue" stroke="midnightblue" points="691.08,-181.6 700.8,-177.4 690.58,-174.62 691.08,-181.6"/>
</g>
<!-- Node66 -->
<g id="node10" class="node">
<title>Node66</title>
<g id="a_node10"><a xlink:href="classv8_1_1internal_1_1PropertyArray.html#a3806c5c8a506219bff0c1448ef3eb1fd" target="_top" xlink:title=" ">
<polygon fill="white" stroke="black" points="485.5,-275.38 485.5,-305.38 631.5,-305.38 631.5,-275.38 485.5,-275.38"/>
<text text-anchor="start" x="493.5" y="-293.38" font-family="Helvetica,sans-Serif" font-size="10.00">v8::internal::PropertyArray</text>
<text text-anchor="middle" x="558.5" y="-282.38" font-family="Helvetica,sans-Serif" font-size="10.00">::OffsetOfElementAt</text>
</a>
</g>
</g>
<!-- Node4&#45;&gt;Node66 -->
<g id="edge9" class="edge">
<title>Node4&#45;&gt;Node66</title>
<path fill="none" stroke="midnightblue" d="M736.64,-192.47C694.21,-215.92 625,-254.17 586.87,-275.25"/>
<polygon fill="midnightblue" stroke="midnightblue" points="738.47,-195.46 745.53,-187.56 735.08,-189.33 738.47,-195.46"/>
</g>
<!-- Node2230 -->
<g id="node15" class="node">
<title>Node2230</title>
<g id="a_node15"><a xlink:href="classv8_1_1internal_1_1HeapObject.html#a7175dfbcfd7797dcfbe8e45da47f2923" target="_top" xlink:title=" ">
<polygon fill="white" stroke="black" points="491,-29.38 491,-59.38 626,-59.38 626,-29.38 491,-29.38"/>
<text text-anchor="start" x="499" y="-47.38" font-family="Helvetica,sans-Serif" font-size="10.00">v8::internal::HeapObject</text>
<text text-anchor="middle" x="558.5" y="-36.38" font-family="Helvetica,sans-Serif" font-size="10.00">::SizeFromMap</text>
</a>
</g>
</g>
<!-- Node4&#45;&gt;Node2230 -->
<g id="edge17" class="edge">
<title>Node4&#45;&gt;Node2230</title>
<path fill="none" stroke="midnightblue" d="M755.22,-149.36C735.67,-125.68 702.08,-89.49 665,-69.38 653.09,-62.91 639.53,-58.11 626.2,-54.54"/>
<polygon fill="midnightblue" stroke="midnightblue" points="752.53,-151.59 761.53,-157.17 757.97,-147.19 752.53,-151.59"/>
</g>
<!-- Node6 -->
<g id="node6" class="node">
<title>Node6</title>
<g id="a_node6"><a xlink:href="classv8_1_1internal_1_1compiler_1_1JSNativeContextSpecialization.html#a915ddad6d970282ebbbf7795bc62b584" target="_top" xlink:title=" ">
<polygon fill="white" stroke="red" points="246,-127.88 246,-168.88 416,-168.88 416,-127.88 246,-127.88"/>
<text text-anchor="start" x="254" y="-156.88" font-family="Helvetica,sans-Serif" font-size="10.00">v8::internal::compiler</text>
<text text-anchor="start" x="254" y="-145.88" font-family="Helvetica,sans-Serif" font-size="10.00">::JSNativeContextSpecialization</text>
<text text-anchor="middle" x="331" y="-134.88" font-family="Helvetica,sans-Serif" font-size="10.00">::BuildPropertyStore</text>
</a>
</g>
</g>
<!-- Node5&#45;&gt;Node6 -->
<g id="edge5" class="edge">
<title>Node5&#45;&gt;Node6</title>
<path fill="none" stroke="midnightblue" d="M450.77,-148.38C439.21,-148.38 427.57,-148.38 416.33,-148.38"/>
<polygon fill="midnightblue" stroke="midnightblue" points="450.89,-151.88 460.89,-148.38 450.89,-144.88 450.89,-151.88"/>
</g>
<!-- Node22 -->
<g id="node8" class="node">
<title>Node22</title>
<g id="a_node8"><a xlink:href="classv8_1_1internal_1_1TranslatedState.html#a594c4f9c09878ee073f6470e29568238" target="_top" xlink:title=" ">
<polygon fill="white" stroke="red" points="246.5,-78.38 246.5,-108.38 415.5,-108.38 415.5,-78.38 246.5,-78.38"/>
<text text-anchor="start" x="254.5" y="-96.38" font-family="Helvetica,sans-Serif" font-size="10.00">v8::internal::Translated</text>
<text text-anchor="middle" x="331" y="-85.38" font-family="Helvetica,sans-Serif" font-size="10.00">State::EnsureObjectAllocatedAt</text>
</a>
</g>
</g>
<!-- Node21&#45;&gt;Node22 -->
<g id="edge7" class="edge">
<title>Node21&#45;&gt;Node22</title>
<path fill="none" stroke="midnightblue" d="M441.44,-93.38C432.71,-93.38 424,-93.38 415.54,-93.38"/>
<polygon fill="midnightblue" stroke="midnightblue" points="441.68,-96.88 451.68,-93.38 441.68,-89.88 441.68,-96.88"/>
</g>
<!-- Node66&#45;&gt;Node2 -->
<g id="edge10" class="edge">
<title>Node66&#45;&gt;Node2</title>
<path fill="none" stroke="midnightblue" d="M537.24,-313.13C511.59,-340.64 464.81,-386.56 416,-413.38 409.07,-417.19 401.48,-420.48 393.8,-423.31"/>
<polygon fill="midnightblue" stroke="midnightblue" points="540.01,-315.29 544.2,-305.56 534.86,-310.55 540.01,-315.29"/>
</g>
<!-- Node66&#45;&gt;Node3 -->
<g id="edge15" class="edge">
<title>Node66&#45;&gt;Node3</title>
<path fill="none" stroke="midnightblue" d="M502.66,-309.23C485.63,-316.38 467.32,-325.48 452,-336.38 432.78,-350.05 436.43,-363.57 416,-375.38 409.27,-379.26 401.8,-382.36 394.19,-384.82"/>
<polygon fill="midnightblue" stroke="midnightblue" points="504.01,-312.46 511.96,-305.45 501.38,-305.97 504.01,-312.46"/>
</g>
<!-- Node67 -->
<g id="node11" class="node">
<title>Node67</title>
<g id="a_node11"><a xlink:href="classv8_1_1internal_1_1compiler_1_1AccessBuilder.html#acd4de59c720456dfcea54c0bf5408f1a" target="_top" xlink:title=" ">
<polygon fill="white" stroke="black" points="254.5,-324.88 254.5,-365.88 407.5,-365.88 407.5,-324.88 254.5,-324.88"/>
<text text-anchor="start" x="262.5" y="-353.88" font-family="Helvetica,sans-Serif" font-size="10.00">v8::internal::compiler</text>
<text text-anchor="start" x="262.5" y="-342.88" font-family="Helvetica,sans-Serif" font-size="10.00">::AccessBuilder::ForProperty</text>
<text text-anchor="middle" x="331" y="-331.88" font-family="Helvetica,sans-Serif" font-size="10.00">ArraySlot</text>
</a>
</g>
</g>
<!-- Node66&#45;&gt;Node67 -->
<g id="edge11" class="edge">
<title>Node66&#45;&gt;Node67</title>
<path fill="none" stroke="midnightblue" d="M486.11,-307.79C461.1,-313.89 432.95,-320.75 407.62,-326.93"/>
<polygon fill="midnightblue" stroke="midnightblue" points="487,-311.17 495.88,-305.4 485.34,-304.37 487,-311.17"/>
</g>
<!-- Node68 -->
<g id="node12" class="node">
<title>Node68</title>
<g id="a_node12"><a xlink:href="classv8_1_1internal_1_1FieldIndex.html#a3ccda1a912a43b786e671d39cb27fb6c" target="_top" xlink:title=" ">
<polygon fill="white" stroke="red" points="267,-275.38 267,-305.38 395,-305.38 395,-275.38 267,-275.38"/>
<text text-anchor="start" x="275" y="-293.38" font-family="Helvetica,sans-Serif" font-size="10.00">v8::internal::FieldIndex</text>
<text text-anchor="middle" x="331" y="-282.38" font-family="Helvetica,sans-Serif" font-size="10.00">::ForPropertyIndex</text>
</a>
</g>
</g>
<!-- Node66&#45;&gt;Node68 -->
<g id="edge13" class="edge">
<title>Node66&#45;&gt;Node68</title>
<path fill="none" stroke="midnightblue" d="M474.88,-290.38C448.55,-290.38 419.85,-290.38 395.13,-290.38"/>
<polygon fill="midnightblue" stroke="midnightblue" points="475.22,-293.88 485.22,-290.38 475.22,-286.88 475.22,-293.88"/>
</g>
<!-- Node2227 -->
<g id="node13" class="node">
<title>Node2227</title>
<g id="a_node13"><a xlink:href="classv8_1_1internal_1_1PropertyArray.html#a9c8f9a179ff9373d4d57d3374d666700" target="_top" xlink:title=" ">
<polygon fill="white" stroke="red" points="258,-226.38 258,-256.38 404,-256.38 404,-226.38 258,-226.38"/>
<text text-anchor="start" x="266" y="-244.38" font-family="Helvetica,sans-Serif" font-size="10.00">v8::internal::PropertyArray</text>
<text text-anchor="middle" x="331" y="-233.38" font-family="Helvetica,sans-Serif" font-size="10.00">::RawFieldOfElementAt</text>
</a>
</g>
</g>
<!-- Node66&#45;&gt;Node2227 -->
<g id="edge14" class="edge">
<title>Node66&#45;&gt;Node2227</title>
<path fill="none" stroke="midnightblue" d="M478.41,-273.19C453.2,-267.71 425.51,-261.69 401.06,-256.38"/>
<polygon fill="midnightblue" stroke="midnightblue" points="477.79,-276.64 488.31,-275.34 479.28,-269.8 477.79,-276.64"/>
</g>
<!-- Node66&#45;&gt;Node2229 -->
<g id="edge16" class="edge">
<title>Node66&#45;&gt;Node2229</title>
<path fill="none" stroke="midnightblue" d="M531.28,-268.62C507.59,-247.69 473.25,-214.05 452,-178.38 425.89,-134.54 448.47,-108.73 416,-69.38 404.51,-55.45 387.77,-44.91 372.25,-37.38"/>
<polygon fill="midnightblue" stroke="midnightblue" points="529.03,-271.3 538.88,-275.21 533.62,-266.01 529.03,-271.3"/>
</g>
<!-- Node67&#45;&gt;Node65 -->
<g id="edge12" class="edge">
<title>Node67&#45;&gt;Node65</title>
<path fill="none" stroke="midnightblue" d="M258.25,-321.67C229.27,-312.1 196.15,-301.16 168.22,-291.93"/>
<polygon fill="midnightblue" stroke="midnightblue" points="257.31,-325.05 267.9,-324.86 259.5,-318.4 257.31,-325.05"/>
</g>
</g>
</svg>
        <g id="navigator" transform="translate(0 0)" fill="#404254">
                <rect fill="#f2f5e9" fill-opacity="0.5" stroke="#606060" stroke-width=".5" x="0" y="0" width="60" height="60"/>
                <use id="zoomplus" xlink:href="#zoomPlus" x="17" y="9" onmousedown="handleZoom(evt,'in')"/>
                <use id="zoomminus" xlink:href="#zoomMin" x="42" y="9" onmousedown="handleZoom(evt,'out')"/>
                <use id="reset" xlink:href="#resetDef" x="30" y="36" onmousedown="handleReset()"/>
                <g id="arrowUp" xlink:href="#dirArrow" transform="translate(30 24)" onmousedown="handlePan(0,-1)">
                  <use xlink:href="#rim" fill="#404040">
                        <set attributeName="fill" to="#808080" begin="arrowUp.mouseover" end="arrowUp.mouseout"/>
                  </use>
                  <path fill="none" stroke="white" stroke-width="1.5" d="M0,-3.0v7 M-2.5,-0.5L0,-3.0L2.5,-0.5"/>
                </g>
                <g id="arrowRight" xlink:href="#dirArrow" transform="rotate(90) translate(36 -43)" onmousedown="handlePan(1,0)">
                  <use xlink:href="#rim" fill="#404040">
                        <set attributeName="fill" to="#808080" begin="arrowRight.mouseover" end="arrowRight.mouseout"/>
                  </use>
                  <path fill="none" stroke="white" stroke-width="1.5" d="M0,-3.0v7 M-2.5,-0.5L0,-3.0L2.5,-0.5"/>
                </g>
                <g id="arrowDown" xlink:href="#dirArrow" transform="rotate(180) translate(-30 -48)" onmousedown="handlePan(0,1)">
                  <use xlink:href="#rim" fill="#404040">
                        <set attributeName="fill" to="#808080" begin="arrowDown.mouseover" end="arrowDown.mouseout"/>
                  </use>
                  <path fill="none" stroke="white" stroke-width="1.5" d="M0,-3.0v7 M-2.5,-0.5L0,-3.0L2.5,-0.5"/>
                </g>
                <g id="arrowLeft" xlink:href="#dirArrow" transform="rotate(270) translate(-36 17)" onmousedown="handlePan(-1,0)">
                  <use xlink:href="#rim" fill="#404040">
                        <set attributeName="fill" to="#808080" begin="arrowLeft.mouseover" end="arrowLeft.mouseout"/>
                  </use>
                  <path fill="none" stroke="white" stroke-width="1.5" d="M0,-3.0v7 M-2.5,-0.5L0,-3.0L2.5,-0.5"/>
                </g>
        </g>
        <svg viewBox="0 0 15 15" width="100%" height="30px" preserveAspectRatio="xMaxYMin meet">
         <g id="arrow_out" transform="scale(0.3 0.3)">
          <a xlink:href="classv8_1_1internal_1_1PropertyArray_ac9a453d18f5165516cf5791f05348548_icgraph_org.svg" target="_base">
           <rect id="button" ry="5" rx="5" y="6" x="6" height="38" width="38"
                fill="#f2f5e9" fill-opacity="0.5" stroke="#606060" stroke-width="1.0"/>
           <path id="arrow"
             d="M 11.500037,31.436501 C 11.940474,20.09759 22.043105,11.32322 32.158766,21.979434 L 37.068811,17.246167 C 37.068811,17.246167 37.088388,32 37.088388,32 L 22.160133,31.978069 C 22.160133,31.978069 26.997745,27.140456 26.997745,27.140456 C 18.528582,18.264221 13.291696,25.230495 11.500037,31.436501 z"
             style="fill:#404040;"/>
          </a>
         </g>
        </svg>
</svg>
