<?xml version="1.0" encoding="UTF-8" standalone="no"?>
<!DOCTYPE svg PUBLIC "-//W3C//DTD SVG 1.1//EN"
 "http://www.w3.org/Graphics/SVG/1.1/DTD/svg11.dtd">
<!-- Generated by graphviz version 2.43.0 (0)
 -->
<!-- Title: v8::internal::maglev::MaglevGraphBuilder::BuildInt32UnaryOperationNode Pages: 1 -->
<svg width="341pt" height="160pt"
 viewBox="0.00 0.00 341.00 159.50" xmlns="http://www.w3.org/2000/svg" xmlns:xlink="http://www.w3.org/1999/xlink">
<g id="graph0" class="graph" transform="scale(1 1) rotate(0) translate(4 155.5)">
<title>v8::internal::maglev::MaglevGraphBuilder::BuildInt32UnaryOperationNode</title>
<polygon fill="white" stroke="transparent" points="-4,4 -4,-155.5 337,-155.5 337,4 -4,4"/>
<!-- Node1 -->
<g id="node1" class="node">
<title>Node1</title>
<g id="a_node1"><a xlink:title=" ">
<polygon fill="#bfbfbf" stroke="black" points="0,-60.5 0,-101.5 175,-101.5 175,-60.5 0,-60.5"/>
<text text-anchor="start" x="8" y="-89.5" font-family="Helvetica,sans-Serif" font-size="10.00">v8::internal::maglev</text>
<text text-anchor="start" x="8" y="-78.5" font-family="Helvetica,sans-Serif" font-size="10.00">::MaglevGraphBuilder</text>
<text text-anchor="middle" x="87.5" y="-67.5" font-family="Helvetica,sans-Serif" font-size="10.00">::BuildInt32UnaryOperationNode</text>
</a>
</g>
</g>
<!-- Node2 -->
<g id="node2" class="node">
<title>Node2</title>
<g id="a_node2"><a xlink:href="classv8_1_1internal_1_1maglev_1_1ReduceResult.html#a25212450b37fed47f0c1e460f2506e9f" target="_top" xlink:title=" ">
<polygon fill="white" stroke="black" points="211.5,-121 211.5,-151 332.5,-151 332.5,-121 211.5,-121"/>
<text text-anchor="start" x="219.5" y="-139" font-family="Helvetica,sans-Serif" font-size="10.00">v8::internal::maglev</text>
<text text-anchor="middle" x="272" y="-128" font-family="Helvetica,sans-Serif" font-size="10.00">::ReduceResult::Done</text>
</a>
</g>
</g>
<!-- Node1&#45;&gt;Node2 -->
<g id="edge1" class="edge">
<title>Node1&#45;&gt;Node2</title>
<path fill="none" stroke="midnightblue" d="M156.72,-101.56C174.57,-106.94 193.69,-112.7 211.08,-117.94"/>
<polygon fill="midnightblue" stroke="midnightblue" points="210.51,-121.43 221.1,-120.96 212.53,-114.72 210.51,-121.43"/>
</g>
<!-- Node3 -->
<g id="node3" class="node">
<title>Node3</title>
<g id="a_node3"><a xlink:href="classv8_1_1internal_1_1maglev_1_1MaglevGraphBuilder.html#ad405ae3088eef04742d4cdcf3784ecbd" target="_top" xlink:title=" ">
<polygon fill="white" stroke="black" points="211,-60.5 211,-101.5 333,-101.5 333,-60.5 211,-60.5"/>
<text text-anchor="start" x="219" y="-89.5" font-family="Helvetica,sans-Serif" font-size="10.00">v8::internal::maglev</text>
<text text-anchor="start" x="219" y="-78.5" font-family="Helvetica,sans-Serif" font-size="10.00">::MaglevGraphBuilder</text>
<text text-anchor="middle" x="272" y="-67.5" font-family="Helvetica,sans-Serif" font-size="10.00">::GetAccumulator</text>
</a>
</g>
</g>
<!-- Node1&#45;&gt;Node3 -->
<g id="edge2" class="edge">
<title>Node1&#45;&gt;Node3</title>
<path fill="none" stroke="midnightblue" d="M175.21,-81C183.77,-81 192.39,-81 200.76,-81"/>
<polygon fill="midnightblue" stroke="midnightblue" points="200.83,-84.5 210.83,-81 200.83,-77.5 200.83,-84.5"/>
</g>
<!-- Node4 -->
<g id="node4" class="node">
<title>Node4</title>
<g id="a_node4"><a xlink:href="classv8_1_1internal_1_1maglev_1_1MaglevGraphBuilder.html#ab09d86acccda2942f367d453d451f6c6" target="_top" xlink:title=" ">
<polygon fill="white" stroke="black" points="211,-0.5 211,-41.5 333,-41.5 333,-0.5 211,-0.5"/>
<text text-anchor="start" x="219" y="-29.5" font-family="Helvetica,sans-Serif" font-size="10.00">v8::internal::maglev</text>
<text text-anchor="start" x="219" y="-18.5" font-family="Helvetica,sans-Serif" font-size="10.00">::MaglevGraphBuilder</text>
<text text-anchor="middle" x="272" y="-7.5" font-family="Helvetica,sans-Serif" font-size="10.00">::SetAccumulator</text>
</a>
</g>
</g>
<!-- Node1&#45;&gt;Node4 -->
<g id="edge3" class="edge">
<title>Node1&#45;&gt;Node4</title>
<path fill="none" stroke="midnightblue" d="M151.05,-60.44C167.27,-55.1 184.83,-49.33 201.38,-43.89"/>
<polygon fill="midnightblue" stroke="midnightblue" points="202.59,-47.18 211,-40.73 200.4,-40.53 202.59,-47.18"/>
</g>
</g>
</svg>
