<?xml version="1.0" encoding="UTF-8" standalone="no"?>
<!DOCTYPE svg PUBLIC "-//W3C//DTD SVG 1.1//EN"
 "http://www.w3.org/Graphics/SVG/1.1/DTD/svg11.dtd">
<!-- Generated by graphviz version 2.43.0 (0)
 -->
<!-- Title: v8::internal::StatsTable::SetCreateHistogramFunction Pages: 1 -->
<svg width="756pt" height="66pt"
 viewBox="0.00 0.00 756.00 66.00" xmlns="http://www.w3.org/2000/svg" xmlns:xlink="http://www.w3.org/1999/xlink">
<g id="graph0" class="graph" transform="scale(1 1) rotate(0) translate(4 62)">
<title>v8::internal::StatsTable::SetCreateHistogramFunction</title>
<polygon fill="white" stroke="transparent" points="-4,4 -4,-62 752,-62 752,4 -4,4"/>
<!-- Node1 -->
<g id="node1" class="node">
<title>Node1</title>
<g id="a_node1"><a xlink:title=" ">
<polygon fill="#bfbfbf" stroke="black" points="585,-14 585,-44 748,-44 748,-14 585,-14"/>
<text text-anchor="start" x="593" y="-32" font-family="Helvetica,sans-Serif" font-size="10.00">v8::internal::StatsTable</text>
<text text-anchor="middle" x="666.5" y="-21" font-family="Helvetica,sans-Serif" font-size="10.00">::SetCreateHistogramFunction</text>
</a>
</g>
</g>
<!-- Node2 -->
<g id="node2" class="node">
<title>Node2</title>
<g id="a_node2"><a xlink:href="classv8_1_1internal_1_1Counters.html#a855ac4ee9c5b311fab0d4cc207d3f259" target="_top" xlink:title=" ">
<polygon fill="white" stroke="black" points="374,-14 374,-44 549,-44 549,-14 374,-14"/>
<text text-anchor="start" x="382" y="-32" font-family="Helvetica,sans-Serif" font-size="10.00">v8::internal::Counters</text>
<text text-anchor="middle" x="461.5" y="-21" font-family="Helvetica,sans-Serif" font-size="10.00">::ResetCreateHistogramFunction</text>
</a>
</g>
</g>
<!-- Node1&#45;&gt;Node2 -->
<g id="edge1" class="edge">
<title>Node1&#45;&gt;Node2</title>
<path fill="none" stroke="midnightblue" d="M574.72,-29C566.26,-29 557.69,-29 549.27,-29"/>
<polygon fill="midnightblue" stroke="midnightblue" points="574.98,-32.5 584.98,-29 574.98,-25.5 574.98,-32.5"/>
</g>
<!-- Node3 -->
<g id="node3" class="node">
<title>Node3</title>
<g id="a_node3"><a xlink:href="classv8_1_1Isolate.html#afd624c7e429a061c1cd9e5959ce6ebf0" target="_top" xlink:title="Enables the host application to provide a mechanism for recording histograms.">
<polygon fill="white" stroke="black" points="165,-14 165,-44 338,-44 338,-14 165,-14"/>
<text text-anchor="start" x="173" y="-32" font-family="Helvetica,sans-Serif" font-size="10.00">v8::Isolate::SetCreateHistogram</text>
<text text-anchor="middle" x="251.5" y="-21" font-family="Helvetica,sans-Serif" font-size="10.00">Function</text>
</a>
</g>
</g>
<!-- Node2&#45;&gt;Node3 -->
<g id="edge2" class="edge">
<title>Node2&#45;&gt;Node3</title>
<path fill="none" stroke="midnightblue" d="M363.77,-29C355.19,-29 346.54,-29 338.06,-29"/>
<polygon fill="midnightblue" stroke="midnightblue" points="363.8,-32.5 373.8,-29 363.8,-25.5 363.8,-32.5"/>
</g>
<!-- Node4 -->
<g id="node4" class="node">
<title>Node4</title>
<g id="a_node4"><a xlink:href="classv8_1_1Isolate.html#ad26be373ae4f11e8204c01434f057add" target="_top" xlink:title="Initialize an Isolate previously allocated by Isolate::Allocate().">
<polygon fill="white" stroke="red" points="6.5,-38.5 6.5,-57.5 122.5,-57.5 122.5,-38.5 6.5,-38.5"/>
<text text-anchor="middle" x="64.5" y="-45.5" font-family="Helvetica,sans-Serif" font-size="10.00">v8::Isolate::Initialize</text>
</a>
</g>
</g>
<!-- Node3&#45;&gt;Node4 -->
<g id="edge3" class="edge">
<title>Node3&#45;&gt;Node4</title>
<path fill="none" stroke="midnightblue" d="M154.72,-38.84C143.77,-39.96 132.88,-41.08 122.67,-42.13"/>
<polygon fill="midnightblue" stroke="midnightblue" points="155.18,-42.31 164.77,-37.8 154.46,-35.34 155.18,-42.31"/>
</g>
<!-- Node6 -->
<g id="node5" class="node">
<title>Node6</title>
<g id="a_node5"><a xlink:href="classv8_1_1Shell.html#af8dc3050b831dab01d9532612f517a9c" target="_top" xlink:title=" ">
<polygon fill="white" stroke="black" points="0,-0.5 0,-19.5 129,-19.5 129,-0.5 0,-0.5"/>
<text text-anchor="middle" x="64.5" y="-7.5" font-family="Helvetica,sans-Serif" font-size="10.00">v8::Shell::MapCounters</text>
</a>
</g>
</g>
<!-- Node3&#45;&gt;Node6 -->
<g id="edge4" class="edge">
<title>Node3&#45;&gt;Node6</title>
<path fill="none" stroke="midnightblue" d="M154.62,-19.15C145.98,-18.27 137.38,-17.38 129.11,-16.53"/>
<polygon fill="midnightblue" stroke="midnightblue" points="154.46,-22.66 164.77,-20.2 155.18,-15.69 154.46,-22.66"/>
</g>
</g>
</svg>
