<?xml version="1.0" encoding="UTF-8" standalone="no"?>
<!DOCTYPE svg PUBLIC "-//W3C//DTD SVG 1.1//EN"
 "http://www.w3.org/Graphics/SVG/1.1/DTD/svg11.dtd">
<!-- Generated by graphviz version 2.43.0 (0)
 -->
<!-- Title: cppgc::internal::PageBackend::TryAllocateLargePageMemory Pages: 1 -->
<!--zoomable 411 -->
<svg id="main" version="1.1" xmlns="http://www.w3.org/2000/svg" xmlns:xlink="http://www.w3.org/1999/xlink" xml:space="preserve" onload="init(evt)">
<style type="text/css"><![CDATA[
.edge:hover path { stroke: red; }
.edge:hover polygon { stroke: red; fill: red; }
]]></style>
<script type="text/javascript"><![CDATA[
var edges = document.getElementsByTagName('g');
if (edges && edges.length) {
  for (var i=0;i<edges.length;i++) {
    if (edges[i].id.substr(0,4)=='edge') {
      edges[i].setAttribute('class','edge');
    }
  }
}
]]></script>
        <defs>
                <circle id="rim" cx="0" cy="0" r="7"/>
                <circle id="rim2" cx="0" cy="0" r="3.5"/>
                <g id="zoomPlus">
                        <use xlink:href="#rim" fill="#404040">
                                <set attributeName="fill" to="#808080" begin="zoomplus.mouseover" end="zoomplus.mouseout"/>
                        </use>
                        <path d="M-4,0h8M0,-4v8" fill="none" stroke="white" stroke-width="1.5" pointer-events="none"/>
                </g>
                <g id="zoomMin">
                        <use xlink:href="#rim" fill="#404040">
                                <set attributeName="fill" to="#808080" begin="zoomminus.mouseover" end="zoomminus.mouseout"/>
                        </use>
                        <path d="M-4,0h8" fill="none" stroke="white" stroke-width="1.5" pointer-events="none"/>
                </g>
                <g id="dirArrow">
                        <path fill="none" stroke="white" stroke-width="1.5" d="M0,-3.0v7 M-2.5,-0.5L0,-3.0L2.5,-0.5"/>
                </g>
               <g id="resetDef">
                       <use xlink:href="#rim2" fill="#404040">
                               <set attributeName="fill" to="#808080" begin="reset.mouseover" end="reset.mouseout"/>
                       </use>
               </g>
        </defs>

<script type="text/javascript">
var viewWidth = 841;
var viewHeight = 411;
var sectionId = 'dynsection-9';
</script>
<script xlink:href="svgpan.js"/>
<svg id="graph" class="graph">
<g id="viewport">
<title>cppgc::internal::PageBackend::TryAllocateLargePageMemory</title>
<polygon fill="white" stroke="transparent" points="-4,4 -4,-407 837,-407 837,4 -4,4"/>
<!-- Node1 -->
<g id="node1" class="node">
<title>Node1</title>
<g id="a_node1"><a xlink:title=" ">
<polygon fill="#bfbfbf" stroke="black" points="0,-187.5 0,-217.5 167,-217.5 167,-187.5 0,-187.5"/>
<text text-anchor="start" x="8" y="-205.5" font-family="Helvetica,sans-Serif" font-size="10.00">cppgc::internal::PageBackend</text>
<text text-anchor="middle" x="83.5" y="-194.5" font-family="Helvetica,sans-Serif" font-size="10.00">::TryAllocateLargePageMemory</text>
</a>
</g>
</g>
<!-- Node2 -->
<g id="node2" class="node">
<title>Node2</title>
<g id="a_node2"><a xlink:href="classcppgc_1_1internal_1_1PageMemoryRegionTree.html#aa1b2746055612c38cdad8560b46205a7" target="_top" xlink:title=" ">
<polygon fill="white" stroke="black" points="222,-328.5 222,-358.5 380,-358.5 380,-328.5 222,-328.5"/>
<text text-anchor="start" x="230" y="-346.5" font-family="Helvetica,sans-Serif" font-size="10.00">cppgc::internal::PageMemory</text>
<text text-anchor="middle" x="301" y="-335.5" font-family="Helvetica,sans-Serif" font-size="10.00">RegionTree::Add</text>
</a>
</g>
</g>
<!-- Node1&#45;&gt;Node2 -->
<g id="edge1" class="edge">
<title>Node1&#45;&gt;Node2</title>
<path fill="none" stroke="midnightblue" d="M107.56,-217.59C146.27,-242.91 224.35,-294 268.22,-322.71"/>
<polygon fill="midnightblue" stroke="midnightblue" points="266.49,-325.76 276.78,-328.31 270.33,-319.9 266.49,-325.76"/>
</g>
<!-- Node5 -->
<g id="node5" class="node">
<title>Node5</title>
<g id="a_node5"><a xlink:href="namespacecppgc_1_1internal_1_1anonymous__namespace_02page-memory_8cc_03.html#a573184a0d796525fe6899086296c36f1" target="_top" xlink:title=" ">
<polygon fill="white" stroke="black" points="203,-200 203,-241 399,-241 399,-200 203,-200"/>
<text text-anchor="start" x="211" y="-229" font-family="Helvetica,sans-Serif" font-size="10.00">cppgc::internal::anonymous</text>
<text text-anchor="start" x="211" y="-218" font-family="Helvetica,sans-Serif" font-size="10.00">_namespace{page&#45;memory::</text>
<text text-anchor="middle" x="301" y="-207" font-family="Helvetica,sans-Serif" font-size="10.00">cc}::CreateLargePageMemoryRegion</text>
</a>
</g>
</g>
<!-- Node1&#45;&gt;Node5 -->
<g id="edge4" class="edge">
<title>Node1&#45;&gt;Node5</title>
<path fill="none" stroke="midnightblue" d="M167.2,-209.41C175.56,-210.11 184.14,-210.82 192.71,-211.54"/>
<polygon fill="midnightblue" stroke="midnightblue" points="192.49,-215.03 202.75,-212.38 193.08,-208.06 192.49,-215.03"/>
</g>
<!-- Node11 -->
<g id="node11" class="node">
<title>Node11</title>
<g id="a_node11"><a xlink:href="flag-definitions_8h.html#a3df0b28b666e942ffb9d7d04acdb9715" target="_top" xlink:title=" ">
<polygon fill="white" stroke="black" points="283,-73 283,-92 319,-92 319,-73 283,-73"/>
<text text-anchor="middle" x="301" y="-80" font-family="Helvetica,sans-Serif" font-size="10.00">size</text>
</a>
</g>
</g>
<!-- Node1&#45;&gt;Node11 -->
<g id="edge11" class="edge">
<title>Node1&#45;&gt;Node11</title>
<path fill="none" stroke="midnightblue" d="M97.37,-187.42C117.49,-164.91 158.69,-122.88 203,-101.5 225.01,-90.88 252.55,-86.19 272.65,-84.13"/>
<polygon fill="midnightblue" stroke="midnightblue" points="273.04,-87.61 282.7,-83.25 272.43,-80.64 273.04,-87.61"/>
</g>
<!-- Node12 -->
<g id="node12" class="node">
<title>Node12</title>
<g id="a_node12"><a xlink:href="namespacecppgc_1_1internal_1_1anonymous__namespace_02page-memory_8cc_03.html#a799e73c9ff394d52a5d5308a4f95783a" target="_top" xlink:title=" ">
<polygon fill="white" stroke="black" points="222,-111 222,-152 380,-152 380,-111 222,-111"/>
<text text-anchor="start" x="230" y="-140" font-family="Helvetica,sans-Serif" font-size="10.00">cppgc::internal::anonymous</text>
<text text-anchor="start" x="230" y="-129" font-family="Helvetica,sans-Serif" font-size="10.00">_namespace{page&#45;memory::</text>
<text text-anchor="middle" x="301" y="-118" font-family="Helvetica,sans-Serif" font-size="10.00">cc}::TryUnprotect</text>
</a>
</g>
</g>
<!-- Node1&#45;&gt;Node12 -->
<g id="edge12" class="edge">
<title>Node1&#45;&gt;Node12</title>
<path fill="none" stroke="midnightblue" d="M130.2,-187.44C158.53,-178.11 195.54,-165.92 227.77,-155.3"/>
<polygon fill="midnightblue" stroke="midnightblue" points="229.2,-158.51 237.61,-152.06 227.01,-151.86 229.2,-158.51"/>
</g>
<!-- Node3 -->
<g id="node3" class="node">
<title>Node3</title>
<g id="a_node3"><a xlink:href="classcppgc_1_1internal_1_1MemoryRegion.html#abeec39b3582137728e25036a98d5f587" target="_top" xlink:title=" ">
<polygon fill="white" stroke="black" points="652,-202.5 652,-232.5 821,-232.5 821,-202.5 652,-202.5"/>
<text text-anchor="start" x="660" y="-220.5" font-family="Helvetica,sans-Serif" font-size="10.00">cppgc::internal::MemoryRegion</text>
<text text-anchor="middle" x="736.5" y="-209.5" font-family="Helvetica,sans-Serif" font-size="10.00">::base</text>
</a>
</g>
</g>
<!-- Node2&#45;&gt;Node3 -->
<g id="edge2" class="edge">
<title>Node2&#45;&gt;Node3</title>
<path fill="none" stroke="midnightblue" d="M380.19,-351.39C442.88,-354.73 531.96,-352.68 604,-324.5 650.2,-306.42 692.57,-265.76 716.13,-240.09"/>
<polygon fill="midnightblue" stroke="midnightblue" points="718.74,-242.43 722.82,-232.65 713.53,-237.75 718.74,-242.43"/>
</g>
<!-- Node4 -->
<g id="node4" class="node">
<title>Node4</title>
<g id="a_node4"><a xlink:href="classcppgc_1_1internal_1_1PageMemoryRegion.html#aa3ce57eac08f7854da26acf3b7995c74" target="_top" xlink:title=" ">
<polygon fill="white" stroke="black" points="440.5,-372.5 440.5,-402.5 598.5,-402.5 598.5,-372.5 440.5,-372.5"/>
<text text-anchor="start" x="448.5" y="-390.5" font-family="Helvetica,sans-Serif" font-size="10.00">cppgc::internal::PageMemory</text>
<text text-anchor="middle" x="519.5" y="-379.5" font-family="Helvetica,sans-Serif" font-size="10.00">Region::region</text>
</a>
</g>
</g>
<!-- Node2&#45;&gt;Node4 -->
<g id="edge3" class="edge">
<title>Node2&#45;&gt;Node4</title>
<path fill="none" stroke="midnightblue" d="M375.9,-358.52C394.78,-362.36 415.22,-366.51 434.56,-370.44"/>
<polygon fill="midnightblue" stroke="midnightblue" points="434.07,-373.91 444.56,-372.47 435.46,-367.05 434.07,-373.91"/>
</g>
<!-- Node6 -->
<g id="node6" class="node">
<title>Node6</title>
<g id="a_node6"><a xlink:href="classv8_1_1PageAllocator.html#a92c2f6dbb3afa6c47dafd4c12ab4641f" target="_top" xlink:title="Gets the page granularity for AllocatePages and FreePages.">
<polygon fill="white" stroke="black" points="466,-284.5 466,-314.5 573,-314.5 573,-284.5 466,-284.5"/>
<text text-anchor="start" x="474" y="-302.5" font-family="Helvetica,sans-Serif" font-size="10.00">v8::PageAllocator::</text>
<text text-anchor="middle" x="519.5" y="-291.5" font-family="Helvetica,sans-Serif" font-size="10.00">AllocatePageSize</text>
</a>
</g>
</g>
<!-- Node5&#45;&gt;Node6 -->
<g id="edge5" class="edge">
<title>Node5&#45;&gt;Node6</title>
<path fill="none" stroke="midnightblue" d="M349.6,-241.1C374.77,-251.67 406.32,-264.41 435,-274.5 441.77,-276.88 448.9,-279.24 456.02,-281.5"/>
<polygon fill="midnightblue" stroke="midnightblue" points="455.11,-284.88 465.69,-284.52 457.19,-278.2 455.11,-284.88"/>
</g>
<!-- Node7 -->
<g id="node7" class="node">
<title>Node7</title>
<g id="a_node7"><a xlink:href="namespacecppgc_1_1internal_1_1anonymous__namespace_02page-memory_8cc_03.html#a2efb4eda101c0ec2b807e41bcc5c5b0c" target="_top" xlink:title=" ">
<polygon fill="white" stroke="black" points="440.5,-148 440.5,-189 598.5,-189 598.5,-148 440.5,-148"/>
<text text-anchor="start" x="448.5" y="-177" font-family="Helvetica,sans-Serif" font-size="10.00">cppgc::internal::anonymous</text>
<text text-anchor="start" x="448.5" y="-166" font-family="Helvetica,sans-Serif" font-size="10.00">_namespace{page&#45;memory::</text>
<text text-anchor="middle" x="519.5" y="-155" font-family="Helvetica,sans-Serif" font-size="10.00">cc}::ReserveMemoryRegion</text>
</a>
</g>
</g>
<!-- Node5&#45;&gt;Node7 -->
<g id="edge6" class="edge">
<title>Node5&#45;&gt;Node7</title>
<path fill="none" stroke="midnightblue" d="M387.57,-199.95C401.68,-196.56 416.34,-193.04 430.51,-189.63"/>
<polygon fill="midnightblue" stroke="midnightblue" points="431.33,-193.04 440.24,-187.3 429.7,-186.23 431.33,-193.04"/>
</g>
<!-- Node10 -->
<g id="node10" class="node">
<title>Node10</title>
<g id="a_node10"><a xlink:href="src_2base_2macros_8h.html#a5113f5db9eec9c30ecea57b8d4175f2d" target="_top" xlink:title=" ">
<polygon fill="white" stroke="black" points="489,-246 489,-265 550,-265 550,-246 489,-246"/>
<text text-anchor="middle" x="519.5" y="-253" font-family="Helvetica,sans-Serif" font-size="10.00">RoundUp</text>
</a>
</g>
</g>
<!-- Node5&#45;&gt;Node10 -->
<g id="edge10" class="edge">
<title>Node5&#45;&gt;Node10</title>
<path fill="none" stroke="midnightblue" d="M399.17,-236.21C427.12,-240.73 456.06,-245.41 478.44,-249.02"/>
<polygon fill="midnightblue" stroke="midnightblue" points="478.12,-252.52 488.55,-250.66 479.24,-245.61 478.12,-252.52"/>
</g>
<!-- Node7&#45;&gt;Node3 -->
<g id="edge8" class="edge">
<title>Node7&#45;&gt;Node3</title>
<path fill="none" stroke="midnightblue" d="M598.73,-186.33C618.55,-190.85 639.81,-195.69 659.52,-200.18"/>
<polygon fill="midnightblue" stroke="midnightblue" points="658.84,-203.62 669.37,-202.43 660.39,-196.79 658.84,-203.62"/>
</g>
<!-- Node8 -->
<g id="node8" class="node">
<title>Node8</title>
<g id="a_node8"><a xlink:href="classv8_1_1PageAllocator.html#ab3a25ddd2601701f80ee67c4bf017ef7" target="_top" xlink:title="Allocates memory in range with the given alignment and permission.">
<polygon fill="white" stroke="black" points="683,-153.5 683,-183.5 790,-183.5 790,-153.5 683,-153.5"/>
<text text-anchor="start" x="691" y="-171.5" font-family="Helvetica,sans-Serif" font-size="10.00">v8::PageAllocator::</text>
<text text-anchor="middle" x="736.5" y="-160.5" font-family="Helvetica,sans-Serif" font-size="10.00">AllocatePages</text>
</a>
</g>
</g>
<!-- Node7&#45;&gt;Node8 -->
<g id="edge7" class="edge">
<title>Node7&#45;&gt;Node8</title>
<path fill="none" stroke="midnightblue" d="M598.73,-168.5C623.1,-168.5 649.64,-168.5 672.8,-168.5"/>
<polygon fill="midnightblue" stroke="midnightblue" points="672.84,-172 682.84,-168.5 672.84,-165 672.84,-172"/>
</g>
<!-- Node9 -->
<g id="node9" class="node">
<title>Node9</title>
<g id="a_node9"><a xlink:href="classcppgc_1_1internal_1_1MemoryRegion.html#a93c510c37f35fac498ad01470a805822" target="_top" xlink:title=" ">
<polygon fill="white" stroke="black" points="640,-115 640,-134 833,-134 833,-115 640,-115"/>
<text text-anchor="middle" x="736.5" y="-122" font-family="Helvetica,sans-Serif" font-size="10.00">cppgc::internal::MemoryRegion::end</text>
</a>
</g>
</g>
<!-- Node7&#45;&gt;Node9 -->
<g id="edge9" class="edge">
<title>Node7&#45;&gt;Node9</title>
<path fill="none" stroke="midnightblue" d="M598.73,-152.49C625.32,-147.05 654.5,-141.08 679.05,-136.05"/>
<polygon fill="midnightblue" stroke="midnightblue" points="679.82,-139.47 688.92,-134.03 678.42,-132.61 679.82,-139.47"/>
</g>
<!-- Node12&#45;&gt;Node3 -->
<g id="edge13" class="edge">
<title>Node12&#45;&gt;Node3</title>
<path fill="none" stroke="midnightblue" d="M333.59,-152.02C359.65,-167.79 398.19,-188.52 435,-198.5 502.48,-216.81 581.49,-221.17 641.55,-221.16"/>
<polygon fill="midnightblue" stroke="midnightblue" points="641.79,-224.66 651.77,-221.12 641.76,-217.66 641.79,-224.66"/>
</g>
<!-- Node13 -->
<g id="node13" class="node">
<title>Node13</title>
<g id="a_node13"><a xlink:href="classv8_1_1PageAllocator.html#ad817d87004151e3824997415f2dc57e9" target="_top" xlink:title="Gets the page granularity for SetPermissions and ReleasePages.">
<polygon fill="white" stroke="black" points="466,-98.5 466,-128.5 573,-128.5 573,-98.5 466,-98.5"/>
<text text-anchor="start" x="474" y="-116.5" font-family="Helvetica,sans-Serif" font-size="10.00">v8::PageAllocator::</text>
<text text-anchor="middle" x="519.5" y="-105.5" font-family="Helvetica,sans-Serif" font-size="10.00">CommitPageSize</text>
</a>
</g>
</g>
<!-- Node12&#45;&gt;Node13 -->
<g id="edge14" class="edge">
<title>Node12&#45;&gt;Node13</title>
<path fill="none" stroke="midnightblue" d="M380.16,-125C404.96,-122.94 432.04,-120.69 455.61,-118.73"/>
<polygon fill="midnightblue" stroke="midnightblue" points="456.16,-122.2 465.83,-117.88 455.58,-115.22 456.16,-122.2"/>
</g>
<!-- Node14 -->
<g id="node14" class="node">
<title>Node14</title>
<g id="a_node14"><a xlink:href="classv8_1_1PageAllocator.html#aa3817d5bfaba9ec280a6cfb60e6adda0" target="_top" xlink:title="Sets permissions on pages in an allocated range.">
<polygon fill="white" stroke="black" points="466,-49.5 466,-79.5 573,-79.5 573,-49.5 466,-49.5"/>
<text text-anchor="start" x="474" y="-67.5" font-family="Helvetica,sans-Serif" font-size="10.00">v8::PageAllocator::</text>
<text text-anchor="middle" x="519.5" y="-56.5" font-family="Helvetica,sans-Serif" font-size="10.00">SetPermissions</text>
</a>
</g>
</g>
<!-- Node12&#45;&gt;Node14 -->
<g id="edge15" class="edge">
<title>Node12&#45;&gt;Node14</title>
<path fill="none" stroke="midnightblue" d="M369.11,-110.95C379.14,-107.82 389.35,-104.6 399,-101.5 415.06,-96.34 418.92,-94.59 435,-89.5 442.3,-87.19 449.98,-84.82 457.61,-82.49"/>
<polygon fill="midnightblue" stroke="midnightblue" points="458.64,-85.84 467.2,-79.59 456.61,-79.14 458.64,-85.84"/>
</g>
<!-- Node15 -->
<g id="node15" class="node">
<title>Node15</title>
<g id="a_node15"><a xlink:href="classcppgc_1_1internal_1_1MemoryRegion.html#a04563b48aabd217604404e889be5a531" target="_top" xlink:title=" ">
<polygon fill="white" stroke="black" points="435,-0.5 435,-30.5 604,-30.5 604,-0.5 435,-0.5"/>
<text text-anchor="start" x="443" y="-18.5" font-family="Helvetica,sans-Serif" font-size="10.00">cppgc::internal::MemoryRegion</text>
<text text-anchor="middle" x="519.5" y="-7.5" font-family="Helvetica,sans-Serif" font-size="10.00">::size</text>
</a>
</g>
</g>
<!-- Node12&#45;&gt;Node15 -->
<g id="edge16" class="edge">
<title>Node12&#45;&gt;Node15</title>
<path fill="none" stroke="midnightblue" d="M380.33,-113.04C386.99,-109.8 393.33,-105.98 399,-101.5 423.7,-81.98 410.21,-59.91 435,-40.5 437.29,-38.71 439.71,-37.04 442.22,-35.5"/>
<polygon fill="midnightblue" stroke="midnightblue" points="443.96,-38.54 451.08,-30.69 440.62,-32.38 443.96,-38.54"/>
</g>
</g>
</svg>
        <g id="navigator" transform="translate(0 0)" fill="#404254">
                <rect fill="#f2f5e9" fill-opacity="0.5" stroke="#606060" stroke-width=".5" x="0" y="0" width="60" height="60"/>
                <use id="zoomplus" xlink:href="#zoomPlus" x="17" y="9" onmousedown="handleZoom(evt,'in')"/>
                <use id="zoomminus" xlink:href="#zoomMin" x="42" y="9" onmousedown="handleZoom(evt,'out')"/>
                <use id="reset" xlink:href="#resetDef" x="30" y="36" onmousedown="handleReset()"/>
                <g id="arrowUp" xlink:href="#dirArrow" transform="translate(30 24)" onmousedown="handlePan(0,-1)">
                  <use xlink:href="#rim" fill="#404040">
                        <set attributeName="fill" to="#808080" begin="arrowUp.mouseover" end="arrowUp.mouseout"/>
                  </use>
                  <path fill="none" stroke="white" stroke-width="1.5" d="M0,-3.0v7 M-2.5,-0.5L0,-3.0L2.5,-0.5"/>
                </g>
                <g id="arrowRight" xlink:href="#dirArrow" transform="rotate(90) translate(36 -43)" onmousedown="handlePan(1,0)">
                  <use xlink:href="#rim" fill="#404040">
                        <set attributeName="fill" to="#808080" begin="arrowRight.mouseover" end="arrowRight.mouseout"/>
                  </use>
                  <path fill="none" stroke="white" stroke-width="1.5" d="M0,-3.0v7 M-2.5,-0.5L0,-3.0L2.5,-0.5"/>
                </g>
                <g id="arrowDown" xlink:href="#dirArrow" transform="rotate(180) translate(-30 -48)" onmousedown="handlePan(0,1)">
                  <use xlink:href="#rim" fill="#404040">
                        <set attributeName="fill" to="#808080" begin="arrowDown.mouseover" end="arrowDown.mouseout"/>
                  </use>
                  <path fill="none" stroke="white" stroke-width="1.5" d="M0,-3.0v7 M-2.5,-0.5L0,-3.0L2.5,-0.5"/>
                </g>
                <g id="arrowLeft" xlink:href="#dirArrow" transform="rotate(270) translate(-36 17)" onmousedown="handlePan(-1,0)">
                  <use xlink:href="#rim" fill="#404040">
                        <set attributeName="fill" to="#808080" begin="arrowLeft.mouseover" end="arrowLeft.mouseout"/>
                  </use>
                  <path fill="none" stroke="white" stroke-width="1.5" d="M0,-3.0v7 M-2.5,-0.5L0,-3.0L2.5,-0.5"/>
                </g>
        </g>
        <svg viewBox="0 0 15 15" width="100%" height="30px" preserveAspectRatio="xMaxYMin meet">
         <g id="arrow_out" transform="scale(0.3 0.3)">
          <a xlink:href="classcppgc_1_1internal_1_1PageBackend_ab1218e98b54dfc509e5b8fd69c944fb1_cgraph_org.svg" target="_base">
           <rect id="button" ry="5" rx="5" y="6" x="6" height="38" width="38"
                fill="#f2f5e9" fill-opacity="0.5" stroke="#606060" stroke-width="1.0"/>
           <path id="arrow"
             d="M 11.500037,31.436501 C 11.940474,20.09759 22.043105,11.32322 32.158766,21.979434 L 37.068811,17.246167 C 37.068811,17.246167 37.088388,32 37.088388,32 L 22.160133,31.978069 C 22.160133,31.978069 26.997745,27.140456 26.997745,27.140456 C 18.528582,18.264221 13.291696,25.230495 11.500037,31.436501 z"
             style="fill:#404040;"/>
          </a>
         </g>
        </svg>
</svg>
