<?xml version="1.0" encoding="UTF-8" standalone="no"?>
<!DOCTYPE svg PUBLIC "-//W3C//DTD SVG 1.1//EN"
 "http://www.w3.org/Graphics/SVG/1.1/DTD/svg11.dtd">
<!-- Generated by graphviz version 2.43.0 (0)
 -->
<!-- Title: v8::internal::compiler::BytecodeLivenessState::MarkRegisterLive Pages: 1 -->
<svg width="564pt" height="274pt"
 viewBox="0.00 0.00 564.00 274.00" xmlns="http://www.w3.org/2000/svg" xmlns:xlink="http://www.w3.org/1999/xlink">
<g id="graph0" class="graph" transform="scale(1 1) rotate(0) translate(4 270)">
<title>v8::internal::compiler::BytecodeLivenessState::MarkRegisterLive</title>
<polygon fill="white" stroke="transparent" points="-4,4 -4,-270 560,-270 560,4 -4,4"/>
<!-- Node1 -->
<g id="node1" class="node">
<title>Node1</title>
<g id="a_node1"><a xlink:title=" ">
<polygon fill="#bfbfbf" stroke="black" points="419,-112 419,-153 556,-153 556,-112 419,-112"/>
<text text-anchor="start" x="427" y="-141" font-family="Helvetica,sans-Serif" font-size="10.00">v8::internal::compiler</text>
<text text-anchor="start" x="427" y="-130" font-family="Helvetica,sans-Serif" font-size="10.00">::BytecodeLivenessState</text>
<text text-anchor="middle" x="487.5" y="-119" font-family="Helvetica,sans-Serif" font-size="10.00">::MarkRegisterLive</text>
</a>
</g>
</g>
<!-- Node2 -->
<g id="node2" class="node">
<title>Node2</title>
<g id="a_node2"><a xlink:href="classv8_1_1internal_1_1maglev_1_1MaglevGraphBuilder_1_1MaglevSubGraphBuilder.html#aff7071914a1cb6a914dfa45b9dabe141" target="_top" xlink:title=" ">
<polygon fill="white" stroke="black" points="225.5,-213.5 225.5,-265.5 365.5,-265.5 365.5,-213.5 225.5,-213.5"/>
<text text-anchor="start" x="233.5" y="-253.5" font-family="Helvetica,sans-Serif" font-size="10.00">v8::internal::maglev</text>
<text text-anchor="start" x="233.5" y="-242.5" font-family="Helvetica,sans-Serif" font-size="10.00">::MaglevGraphBuilder</text>
<text text-anchor="start" x="233.5" y="-231.5" font-family="Helvetica,sans-Serif" font-size="10.00">::MaglevSubGraphBuilder</text>
<text text-anchor="middle" x="295.5" y="-220.5" font-family="Helvetica,sans-Serif" font-size="10.00">::BeginLoop</text>
</a>
</g>
</g>
<!-- Node1&#45;&gt;Node2 -->
<g id="edge1" class="edge">
<title>Node1&#45;&gt;Node2</title>
<path fill="none" stroke="midnightblue" d="M452.3,-159.19C432.71,-173.72 407.25,-191.37 383,-204.5 377.3,-207.58 371.27,-210.56 365.15,-213.38"/>
<polygon fill="midnightblue" stroke="midnightblue" points="454.42,-161.97 460.32,-153.17 450.22,-156.37 454.42,-161.97"/>
</g>
<!-- Node4 -->
<g id="node4" class="node">
<title>Node4</title>
<g id="a_node4"><a xlink:href="namespacev8_1_1internal_1_1compiler_1_1anonymous__namespace_02bytecode-analysis_8cc_03.html#a066865ebe0c816fd38b5eb8bb99ca271" target="_top" xlink:title=" ">
<polygon fill="white" stroke="black" points="225,-142.5 225,-194.5 366,-194.5 366,-142.5 225,-142.5"/>
<text text-anchor="start" x="233" y="-182.5" font-family="Helvetica,sans-Serif" font-size="10.00">v8::internal::compiler</text>
<text text-anchor="start" x="233" y="-171.5" font-family="Helvetica,sans-Serif" font-size="10.00">::anonymous_namespace</text>
<text text-anchor="start" x="233" y="-160.5" font-family="Helvetica,sans-Serif" font-size="10.00">{bytecode&#45;analysis::cc}</text>
<text text-anchor="middle" x="295.5" y="-149.5" font-family="Helvetica,sans-Serif" font-size="10.00">::UpdateInLiveness</text>
</a>
</g>
</g>
<!-- Node1&#45;&gt;Node4 -->
<g id="edge3" class="edge">
<title>Node1&#45;&gt;Node4</title>
<path fill="none" stroke="midnightblue" d="M408.78,-147.22C394.63,-149.91 379.95,-152.69 366.05,-155.32"/>
<polygon fill="midnightblue" stroke="midnightblue" points="409.8,-150.59 418.98,-145.29 408.5,-143.72 409.8,-150.59"/>
</g>
<!-- Node5 -->
<g id="node5" class="node">
<title>Node5</title>
<g id="a_node5"><a xlink:href="namespacev8_1_1internal_1_1compiler_1_1anonymous__namespace_02bytecode-analysis_8cc_03.html#a0d3343b43b27fed979fde7c412159b3b" target="_top" xlink:title=" ">
<polygon fill="white" stroke="black" points="208,-71.5 208,-123.5 383,-123.5 383,-71.5 208,-71.5"/>
<text text-anchor="start" x="216" y="-111.5" font-family="Helvetica,sans-Serif" font-size="10.00">v8::internal::compiler</text>
<text text-anchor="start" x="216" y="-100.5" font-family="Helvetica,sans-Serif" font-size="10.00">::anonymous_namespace</text>
<text text-anchor="start" x="216" y="-89.5" font-family="Helvetica,sans-Serif" font-size="10.00">{bytecode&#45;analysis::cc}</text>
<text text-anchor="middle" x="295.5" y="-78.5" font-family="Helvetica,sans-Serif" font-size="10.00">::UpdateInLivenessForInOperand</text>
</a>
</g>
</g>
<!-- Node1&#45;&gt;Node5 -->
<g id="edge4" class="edge">
<title>Node1&#45;&gt;Node5</title>
<path fill="none" stroke="midnightblue" d="M409.04,-118.23C400.49,-116.66 391.74,-115.04 383.08,-113.45"/>
<polygon fill="midnightblue" stroke="midnightblue" points="408.51,-121.69 418.98,-120.06 409.78,-114.81 408.51,-121.69"/>
</g>
<!-- Node6 -->
<g id="node6" class="node">
<title>Node6</title>
<g id="a_node6"><a xlink:href="namespacev8_1_1internal_1_1compiler_1_1anonymous__namespace_02bytecode-analysis_8cc_03.html#a3a4c1269aecbf276369cd5a68e5590e8" target="_top" xlink:title=" ">
<polygon fill="white" stroke="black" points="225,-0.5 225,-52.5 366,-52.5 366,-0.5 225,-0.5"/>
<text text-anchor="start" x="233" y="-40.5" font-family="Helvetica,sans-Serif" font-size="10.00">v8::internal::compiler</text>
<text text-anchor="start" x="233" y="-29.5" font-family="Helvetica,sans-Serif" font-size="10.00">::anonymous_namespace</text>
<text text-anchor="start" x="233" y="-18.5" font-family="Helvetica,sans-Serif" font-size="10.00">{bytecode&#45;analysis::cc}</text>
<text text-anchor="middle" x="295.5" y="-7.5" font-family="Helvetica,sans-Serif" font-size="10.00">::UpdateOutLiveness</text>
</a>
</g>
</g>
<!-- Node1&#45;&gt;Node6 -->
<g id="edge5" class="edge">
<title>Node1&#45;&gt;Node6</title>
<path fill="none" stroke="midnightblue" d="M451.07,-105.94C431.58,-92.01 406.62,-75.24 383,-62.5 376.7,-59.1 370.01,-55.81 363.25,-52.69"/>
<polygon fill="midnightblue" stroke="midnightblue" points="449.18,-108.9 459.34,-111.92 453.28,-103.22 449.18,-108.9"/>
</g>
<!-- Node3 -->
<g id="node3" class="node">
<title>Node3</title>
<g id="a_node3"><a xlink:href="classv8_1_1internal_1_1maglev_1_1MaglevGraphBuilder.html#af473ccc5c0682ff049095baf1c84400c" target="_top" xlink:title=" ">
<polygon fill="white" stroke="black" points="0,-219 0,-260 172,-260 172,-219 0,-219"/>
<text text-anchor="start" x="8" y="-248" font-family="Helvetica,sans-Serif" font-size="10.00">v8::internal::maglev</text>
<text text-anchor="start" x="8" y="-237" font-family="Helvetica,sans-Serif" font-size="10.00">::MaglevGraphBuilder</text>
<text text-anchor="middle" x="86" y="-226" font-family="Helvetica,sans-Serif" font-size="10.00">::TryReduceArrayIteratingBuiltin</text>
</a>
</g>
</g>
<!-- Node2&#45;&gt;Node3 -->
<g id="edge2" class="edge">
<title>Node2&#45;&gt;Node3</title>
<path fill="none" stroke="midnightblue" d="M215.24,-239.5C201.11,-239.5 186.33,-239.5 172.04,-239.5"/>
<polygon fill="midnightblue" stroke="midnightblue" points="215.41,-243 225.41,-239.5 215.41,-236 215.41,-243"/>
</g>
</g>
</svg>
