<?xml version="1.0" encoding="UTF-8" standalone="no"?>
<!DOCTYPE svg PUBLIC "-//W3C//DTD SVG 1.1//EN"
 "http://www.w3.org/Graphics/SVG/1.1/DTD/svg11.dtd">
<!-- Generated by graphviz version 2.43.0 (0)
 -->
<!-- Title: v8::internal::MacroAssembler::Ngc Pages: 1 -->
<!--zoomable 230 -->
<svg id="main" version="1.1" xmlns="http://www.w3.org/2000/svg" xmlns:xlink="http://www.w3.org/1999/xlink" xml:space="preserve" onload="init(evt)">
<style type="text/css"><![CDATA[
.edge:hover path { stroke: red; }
.edge:hover polygon { stroke: red; fill: red; }
]]></style>
<script type="text/javascript"><![CDATA[
var edges = document.getElementsByTagName('g');
if (edges && edges.length) {
  for (var i=0;i<edges.length;i++) {
    if (edges[i].id.substr(0,4)=='edge') {
      edges[i].setAttribute('class','edge');
    }
  }
}
]]></script>
        <defs>
                <circle id="rim" cx="0" cy="0" r="7"/>
                <circle id="rim2" cx="0" cy="0" r="3.5"/>
                <g id="zoomPlus">
                        <use xlink:href="#rim" fill="#404040">
                                <set attributeName="fill" to="#808080" begin="zoomplus.mouseover" end="zoomplus.mouseout"/>
                        </use>
                        <path d="M-4,0h8M0,-4v8" fill="none" stroke="white" stroke-width="1.5" pointer-events="none"/>
                </g>
                <g id="zoomMin">
                        <use xlink:href="#rim" fill="#404040">
                                <set attributeName="fill" to="#808080" begin="zoomminus.mouseover" end="zoomminus.mouseout"/>
                        </use>
                        <path d="M-4,0h8" fill="none" stroke="white" stroke-width="1.5" pointer-events="none"/>
                </g>
                <g id="dirArrow">
                        <path fill="none" stroke="white" stroke-width="1.5" d="M0,-3.0v7 M-2.5,-0.5L0,-3.0L2.5,-0.5"/>
                </g>
               <g id="resetDef">
                       <use xlink:href="#rim2" fill="#404040">
                               <set attributeName="fill" to="#808080" begin="reset.mouseover" end="reset.mouseout"/>
                       </use>
               </g>
        </defs>

<script type="text/javascript">
var viewWidth = 807;
var viewHeight = 230;
var sectionId = 'dynsection-619';
</script>
<script xlink:href="svgpan.js"/>
<svg id="graph" class="graph">
<g id="viewport">
<title>v8::internal::MacroAssembler::Ngc</title>
<polygon fill="white" stroke="transparent" points="-4,4 -4,-225.6 803,-225.6 803,4 -4,4"/>
<!-- Node1 -->
<g id="node1" class="node">
<title>Node1</title>
<g id="a_node1"><a xlink:title=" ">
<polygon fill="#bfbfbf" stroke="black" points="0,-140 0,-159 185,-159 185,-140 0,-140"/>
<text text-anchor="middle" x="92.5" y="-147" font-family="Helvetica,sans-Serif" font-size="10.00">v8::internal::MacroAssembler::Ngc</text>
</a>
</g>
</g>
<!-- Node2 -->
<g id="node2" class="node">
<title>Node2</title>
<g id="a_node2"><a xlink:href="classv8_1_1internal_1_1Assembler.html#afa045236acb9f66ab04ea3a0d9b45f34" target="_top" xlink:title=" ">
<polygon fill="white" stroke="black" points="244.5,-110.5 244.5,-140.5 380.5,-140.5 380.5,-110.5 244.5,-110.5"/>
<text text-anchor="start" x="252.5" y="-128.5" font-family="Helvetica,sans-Serif" font-size="10.00">v8::internal::Assembler</text>
<text text-anchor="middle" x="312.5" y="-117.5" font-family="Helvetica,sans-Serif" font-size="10.00">::AppropriateZeroRegFor</text>
</a>
</g>
</g>
<!-- Node1&#45;&gt;Node2 -->
<g id="edge1" class="edge">
<title>Node1&#45;&gt;Node2</title>
<path fill="none" stroke="midnightblue" d="M179.97,-139.98C197.86,-138.01 216.59,-135.95 234.13,-134.02"/>
<polygon fill="midnightblue" stroke="midnightblue" points="234.75,-137.47 244.3,-132.9 233.98,-130.51 234.75,-137.47"/>
</g>
<!-- Node4 -->
<g id="node4" class="node">
<title>Node4</title>
<g id="a_node4"><a xlink:href="namespacev8_1_1internal.html#aa6b3743bd5d773c552654f2a6c3efa4a" target="_top" xlink:title=" ">
<polygon fill="white" stroke="black" points="658,-189 658,-208 777,-208 777,-189 658,-189"/>
<text text-anchor="middle" x="717.5" y="-196" font-family="Helvetica,sans-Serif" font-size="10.00">v8::internal::DCHECK</text>
</a>
</g>
</g>
<!-- Node1&#45;&gt;Node4 -->
<g id="edge5" class="edge">
<title>Node1&#45;&gt;Node4</title>
<path fill="none" stroke="midnightblue" d="M118.02,-159.02C143.4,-168.49 184.39,-182.69 221,-190.5 386.07,-225.71 431.61,-226.01 600,-214.5 615.71,-213.43 632.52,-211.55 648.35,-209.45"/>
<polygon fill="midnightblue" stroke="midnightblue" points="649.16,-212.87 658.59,-208.04 648.2,-205.93 649.16,-212.87"/>
</g>
<!-- Node6 -->
<g id="node6" class="node">
<title>Node6</title>
<g id="a_node6"><a xlink:href="classv8_1_1internal_1_1CPURegister.html#a81a08d7680b51494ec84b0ea15ef1ca2" target="_top" xlink:title=" ">
<polygon fill="white" stroke="black" points="450.5,-60.5 450.5,-90.5 589.5,-90.5 589.5,-60.5 450.5,-60.5"/>
<text text-anchor="start" x="458.5" y="-78.5" font-family="Helvetica,sans-Serif" font-size="10.00">v8::internal::CPURegister</text>
<text text-anchor="middle" x="520" y="-67.5" font-family="Helvetica,sans-Serif" font-size="10.00">::IsZero</text>
</a>
</g>
</g>
<!-- Node1&#45;&gt;Node6 -->
<g id="edge6" class="edge">
<title>Node1&#45;&gt;Node6</title>
<path fill="none" stroke="midnightblue" d="M113.26,-139.88C137.86,-128.38 181.47,-109.56 221,-100.5 294.07,-83.75 379.52,-77.94 440.14,-76.06"/>
<polygon fill="midnightblue" stroke="midnightblue" points="440.5,-79.55 450.4,-75.77 440.31,-72.56 440.5,-79.55"/>
</g>
<!-- Node9 -->
<g id="node9" class="node">
<title>Node9</title>
<g id="a_node9"><a xlink:href="classv8_1_1internal_1_1MacroAssembler.html#a4dc0d2ac884f1bffe5dfb430912e2a16" target="_top" xlink:title=" ">
<polygon fill="white" stroke="black" points="221,-162 221,-181 404,-181 404,-162 221,-162"/>
<text text-anchor="middle" x="312.5" y="-169" font-family="Helvetica,sans-Serif" font-size="10.00">v8::internal::MacroAssembler::Sbc</text>
</a>
</g>
</g>
<!-- Node1&#45;&gt;Node9 -->
<g id="edge11" class="edge">
<title>Node1&#45;&gt;Node9</title>
<path fill="none" stroke="midnightblue" d="M185,-158.73C193.55,-159.6 202.24,-160.47 210.86,-161.34"/>
<polygon fill="midnightblue" stroke="midnightblue" points="210.63,-164.84 220.93,-162.36 211.33,-157.87 210.63,-164.84"/>
</g>
<!-- Node3 -->
<g id="node3" class="node">
<title>Node3</title>
<g id="a_node3"><a xlink:href="classv8_1_1internal_1_1CPURegister.html#adbe94de441bbb93dfe0ebc991e437e4c" target="_top" xlink:title=" ">
<polygon fill="white" stroke="black" points="450.5,-109.5 450.5,-139.5 589.5,-139.5 589.5,-109.5 450.5,-109.5"/>
<text text-anchor="start" x="458.5" y="-127.5" font-family="Helvetica,sans-Serif" font-size="10.00">v8::internal::CPURegister</text>
<text text-anchor="middle" x="520" y="-116.5" font-family="Helvetica,sans-Serif" font-size="10.00">::Is64Bits</text>
</a>
</g>
</g>
<!-- Node2&#45;&gt;Node3 -->
<g id="edge2" class="edge">
<title>Node2&#45;&gt;Node3</title>
<path fill="none" stroke="midnightblue" d="M380.5,-125.17C399.55,-125.08 420.48,-124.98 440.16,-124.88"/>
<polygon fill="midnightblue" stroke="midnightblue" points="440.34,-128.38 450.33,-124.83 440.31,-121.38 440.34,-128.38"/>
</g>
<!-- Node3&#45;&gt;Node4 -->
<g id="edge3" class="edge">
<title>Node3&#45;&gt;Node4</title>
<path fill="none" stroke="midnightblue" d="M570.96,-139.55C580.65,-142.68 590.68,-146.07 600,-149.5 629.55,-160.37 662.58,-174.45 685.9,-184.72"/>
<polygon fill="midnightblue" stroke="midnightblue" points="684.7,-188.02 695.26,-188.87 687.54,-181.62 684.7,-188.02"/>
</g>
<!-- Node5 -->
<g id="node5" class="node">
<title>Node5</title>
<g id="a_node5"><a xlink:href="classv8_1_1internal_1_1RegisterBase.html#a58cd5d35108e5dee2b911e6729fb74a4" target="_top" xlink:title=" ">
<polygon fill="white" stroke="black" points="636,-110 636,-151 799,-151 799,-110 636,-110"/>
<text text-anchor="start" x="644" y="-139" font-family="Helvetica,sans-Serif" font-size="10.00">v8::internal::RegisterBase</text>
<text text-anchor="start" x="644" y="-128" font-family="Helvetica,sans-Serif" font-size="10.00">&lt; CPURegister, kRegAfterLast</text>
<text text-anchor="middle" x="717.5" y="-117" font-family="Helvetica,sans-Serif" font-size="10.00"> &gt;::is_valid</text>
</a>
</g>
</g>
<!-- Node3&#45;&gt;Node5 -->
<g id="edge4" class="edge">
<title>Node3&#45;&gt;Node5</title>
<path fill="none" stroke="midnightblue" d="M589.65,-126.61C601.34,-126.97 613.64,-127.34 625.8,-127.72"/>
<polygon fill="midnightblue" stroke="midnightblue" points="625.85,-131.22 635.96,-128.03 626.07,-124.22 625.85,-131.22"/>
</g>
<!-- Node6&#45;&gt;Node4 -->
<g id="edge8" class="edge">
<title>Node6&#45;&gt;Node4</title>
<path fill="none" stroke="midnightblue" d="M585.59,-90.55C590.72,-93.09 595.61,-96.04 600,-99.5 624.75,-118.96 612.74,-139.29 636,-160.5 647.51,-170.99 662.42,-179.11 676.28,-185.1"/>
<polygon fill="midnightblue" stroke="midnightblue" points="675.08,-188.39 685.66,-188.91 677.71,-181.9 675.08,-188.39"/>
</g>
<!-- Node6&#45;&gt;Node5 -->
<g id="edge9" class="edge">
<title>Node6&#45;&gt;Node5</title>
<path fill="none" stroke="midnightblue" d="M574.42,-90.53C592.69,-95.67 613.57,-101.54 633.6,-107.18"/>
<polygon fill="midnightblue" stroke="midnightblue" points="632.78,-110.58 643.36,-109.92 634.68,-103.84 632.78,-110.58"/>
</g>
<!-- Node7 -->
<g id="node7" class="node">
<title>Node7</title>
<g id="a_node7"><a xlink:href="classv8_1_1internal_1_1RegisterBase.html#ae4f77df87f77114f40f3e8968e1c4a12" target="_top" xlink:title=" ">
<polygon fill="white" stroke="black" points="636,-50 636,-91 799,-91 799,-50 636,-50"/>
<text text-anchor="start" x="644" y="-79" font-family="Helvetica,sans-Serif" font-size="10.00">v8::internal::RegisterBase</text>
<text text-anchor="start" x="644" y="-68" font-family="Helvetica,sans-Serif" font-size="10.00">&lt; CPURegister, kRegAfterLast</text>
<text text-anchor="middle" x="717.5" y="-57" font-family="Helvetica,sans-Serif" font-size="10.00"> &gt;::code</text>
</a>
</g>
</g>
<!-- Node6&#45;&gt;Node7 -->
<g id="edge7" class="edge">
<title>Node6&#45;&gt;Node7</title>
<path fill="none" stroke="midnightblue" d="M589.65,-73.74C601.34,-73.45 613.64,-73.13 625.8,-72.82"/>
<polygon fill="midnightblue" stroke="midnightblue" points="626.05,-76.31 635.96,-72.56 625.87,-69.32 626.05,-76.31"/>
</g>
<!-- Node8 -->
<g id="node8" class="node">
<title>Node8</title>
<g id="a_node8"><a xlink:href="classv8_1_1internal_1_1CPURegister.html#ae7c4dd38bc2db99cb12e51495188d823" target="_top" xlink:title=" ">
<polygon fill="white" stroke="black" points="648,-0.5 648,-30.5 787,-30.5 787,-0.5 648,-0.5"/>
<text text-anchor="start" x="656" y="-18.5" font-family="Helvetica,sans-Serif" font-size="10.00">v8::internal::CPURegister</text>
<text text-anchor="middle" x="717.5" y="-7.5" font-family="Helvetica,sans-Serif" font-size="10.00">::IsRegister</text>
</a>
</g>
</g>
<!-- Node6&#45;&gt;Node8 -->
<g id="edge10" class="edge">
<title>Node6&#45;&gt;Node8</title>
<path fill="none" stroke="midnightblue" d="M570.08,-60.44C596.69,-52.27 629.76,-42.12 657.74,-33.54"/>
<polygon fill="midnightblue" stroke="midnightblue" points="658.87,-36.85 667.4,-30.57 656.81,-30.16 658.87,-36.85"/>
</g>
<!-- Node9&#45;&gt;Node4 -->
<g id="edge13" class="edge">
<title>Node9&#45;&gt;Node4</title>
<path fill="none" stroke="midnightblue" d="M348.35,-181.01C373.58,-187.38 408.62,-195.19 440,-198.5 510.45,-205.93 591.55,-204.8 647.62,-202.5"/>
<polygon fill="midnightblue" stroke="midnightblue" points="647.95,-205.99 657.79,-202.06 647.65,-199 647.95,-205.99"/>
</g>
<!-- Node9&#45;&gt;Node6 -->
<g id="edge14" class="edge">
<title>Node9&#45;&gt;Node6</title>
<path fill="none" stroke="midnightblue" d="M377.74,-161.93C387.01,-158.87 396.09,-154.83 404,-149.5 426.71,-134.21 417.73,-115.43 440,-99.5 442.09,-98 444.28,-96.6 446.53,-95.28"/>
<polygon fill="midnightblue" stroke="midnightblue" points="448.28,-98.32 455.55,-90.62 445.06,-92.11 448.28,-98.32"/>
</g>
<!-- Node10 -->
<g id="node10" class="node">
<title>Node10</title>
<g id="a_node10"><a xlink:href="classv8_1_1internal_1_1MacroAssembler.html#a0b639fbfa206fbfd55e48e93a3e68564" target="_top" xlink:title=" ">
<polygon fill="white" stroke="black" points="440,-158.5 440,-188.5 600,-188.5 600,-158.5 440,-158.5"/>
<text text-anchor="start" x="448" y="-176.5" font-family="Helvetica,sans-Serif" font-size="10.00">v8::internal::MacroAssembler</text>
<text text-anchor="middle" x="520" y="-165.5" font-family="Helvetica,sans-Serif" font-size="10.00">::AddSubWithCarryMacro</text>
</a>
</g>
</g>
<!-- Node9&#45;&gt;Node10 -->
<g id="edge12" class="edge">
<title>Node9&#45;&gt;Node10</title>
<path fill="none" stroke="midnightblue" d="M404.23,-172.38C412.64,-172.46 421.16,-172.55 429.56,-172.63"/>
<polygon fill="midnightblue" stroke="midnightblue" points="429.69,-176.13 439.72,-172.73 429.76,-169.13 429.69,-176.13"/>
</g>
</g>
</svg>
        <g id="navigator" transform="translate(0 0)" fill="#404254">
                <rect fill="#f2f5e9" fill-opacity="0.5" stroke="#606060" stroke-width=".5" x="0" y="0" width="60" height="60"/>
                <use id="zoomplus" xlink:href="#zoomPlus" x="17" y="9" onmousedown="handleZoom(evt,'in')"/>
                <use id="zoomminus" xlink:href="#zoomMin" x="42" y="9" onmousedown="handleZoom(evt,'out')"/>
                <use id="reset" xlink:href="#resetDef" x="30" y="36" onmousedown="handleReset()"/>
                <g id="arrowUp" xlink:href="#dirArrow" transform="translate(30 24)" onmousedown="handlePan(0,-1)">
                  <use xlink:href="#rim" fill="#404040">
                        <set attributeName="fill" to="#808080" begin="arrowUp.mouseover" end="arrowUp.mouseout"/>
                  </use>
                  <path fill="none" stroke="white" stroke-width="1.5" d="M0,-3.0v7 M-2.5,-0.5L0,-3.0L2.5,-0.5"/>
                </g>
                <g id="arrowRight" xlink:href="#dirArrow" transform="rotate(90) translate(36 -43)" onmousedown="handlePan(1,0)">
                  <use xlink:href="#rim" fill="#404040">
                        <set attributeName="fill" to="#808080" begin="arrowRight.mouseover" end="arrowRight.mouseout"/>
                  </use>
                  <path fill="none" stroke="white" stroke-width="1.5" d="M0,-3.0v7 M-2.5,-0.5L0,-3.0L2.5,-0.5"/>
                </g>
                <g id="arrowDown" xlink:href="#dirArrow" transform="rotate(180) translate(-30 -48)" onmousedown="handlePan(0,1)">
                  <use xlink:href="#rim" fill="#404040">
                        <set attributeName="fill" to="#808080" begin="arrowDown.mouseover" end="arrowDown.mouseout"/>
                  </use>
                  <path fill="none" stroke="white" stroke-width="1.5" d="M0,-3.0v7 M-2.5,-0.5L0,-3.0L2.5,-0.5"/>
                </g>
                <g id="arrowLeft" xlink:href="#dirArrow" transform="rotate(270) translate(-36 17)" onmousedown="handlePan(-1,0)">
                  <use xlink:href="#rim" fill="#404040">
                        <set attributeName="fill" to="#808080" begin="arrowLeft.mouseover" end="arrowLeft.mouseout"/>
                  </use>
                  <path fill="none" stroke="white" stroke-width="1.5" d="M0,-3.0v7 M-2.5,-0.5L0,-3.0L2.5,-0.5"/>
                </g>
        </g>
        <svg viewBox="0 0 15 15" width="100%" height="30px" preserveAspectRatio="xMaxYMin meet">
         <g id="arrow_out" transform="scale(0.3 0.3)">
          <a xlink:href="classv8_1_1internal_1_1MacroAssembler_afc483468e83b7f582831cc1cbf8cf82a_cgraph_org.svg" target="_base">
           <rect id="button" ry="5" rx="5" y="6" x="6" height="38" width="38"
                fill="#f2f5e9" fill-opacity="0.5" stroke="#606060" stroke-width="1.0"/>
           <path id="arrow"
             d="M 11.500037,31.436501 C 11.940474,20.09759 22.043105,11.32322 32.158766,21.979434 L 37.068811,17.246167 C 37.068811,17.246167 37.088388,32 37.088388,32 L 22.160133,31.978069 C 22.160133,31.978069 26.997745,27.140456 26.997745,27.140456 C 18.528582,18.264221 13.291696,25.230495 11.500037,31.436501 z"
             style="fill:#404040;"/>
          </a>
         </g>
        </svg>
</svg>
