<?xml version="1.0" encoding="UTF-8" standalone="no"?>
<!DOCTYPE svg PUBLIC "-//W3C//DTD SVG 1.1//EN"
 "http://www.w3.org/Graphics/SVG/1.1/DTD/svg11.dtd">
<!-- Generated by graphviz version 2.43.0 (0)
 -->
<!-- Title: v8::internal::compiler::CFGBuilder::BuildBlockForNode Pages: 1 -->
<svg width="865pt" height="69pt"
 viewBox="0.00 0.00 865.00 68.50" xmlns="http://www.w3.org/2000/svg" xmlns:xlink="http://www.w3.org/1999/xlink">
<g id="graph0" class="graph" transform="scale(1 1) rotate(0) translate(4 64.5)">
<title>v8::internal::compiler::CFGBuilder::BuildBlockForNode</title>
<polygon fill="white" stroke="transparent" points="-4,4 -4,-64.5 861,-64.5 861,4 -4,4"/>
<!-- Node1 -->
<g id="node1" class="node">
<title>Node1</title>
<g id="a_node1"><a xlink:title=" ">
<polygon fill="#bfbfbf" stroke="black" points="681,-30 681,-60 857,-60 857,-30 681,-30"/>
<text text-anchor="start" x="689" y="-48" font-family="Helvetica,sans-Serif" font-size="10.00">v8::internal::compiler</text>
<text text-anchor="middle" x="769" y="-37" font-family="Helvetica,sans-Serif" font-size="10.00">::CFGBuilder::BuildBlockForNode</text>
</a>
</g>
</g>
<!-- Node2 -->
<g id="node2" class="node">
<title>Node2</title>
<g id="a_node2"><a xlink:href="classv8_1_1internal_1_1compiler_1_1CFGBuilder.html#a21ec99e113eace189742c17454bcbafd" target="_top" xlink:title=" ">
<polygon fill="white" stroke="black" points="314,-30 314,-60 454,-60 454,-30 314,-30"/>
<text text-anchor="start" x="322" y="-48" font-family="Helvetica,sans-Serif" font-size="10.00">v8::internal::compiler</text>
<text text-anchor="middle" x="384" y="-37" font-family="Helvetica,sans-Serif" font-size="10.00">::CFGBuilder::BuildBlocks</text>
</a>
</g>
</g>
<!-- Node1&#45;&gt;Node2 -->
<g id="edge1" class="edge">
<title>Node1&#45;&gt;Node2</title>
<path fill="none" stroke="midnightblue" d="M670.54,-50.19C661.9,-50.52 653.3,-50.8 645,-51 576.13,-52.68 558.86,-52.97 490,-51 478.41,-50.67 466.11,-50.13 454.16,-49.51"/>
<polygon fill="midnightblue" stroke="midnightblue" points="670.82,-53.68 680.67,-49.79 670.54,-46.69 670.82,-53.68"/>
</g>
<!-- Node12 -->
<g id="node5" class="node">
<title>Node12</title>
<g id="a_node5"><a xlink:href="classv8_1_1internal_1_1compiler_1_1CFGBuilder.html#af922e46d612cbfba13ff999c217ea7a3" target="_top" xlink:title=" ">
<polygon fill="white" stroke="black" points="490,-0.5 490,-41.5 645,-41.5 645,-0.5 490,-0.5"/>
<text text-anchor="start" x="498" y="-29.5" font-family="Helvetica,sans-Serif" font-size="10.00">v8::internal::compiler</text>
<text text-anchor="start" x="498" y="-18.5" font-family="Helvetica,sans-Serif" font-size="10.00">::CFGBuilder::BuildBlocksFor</text>
<text text-anchor="middle" x="567.5" y="-7.5" font-family="Helvetica,sans-Serif" font-size="10.00">Successors</text>
</a>
</g>
</g>
<!-- Node1&#45;&gt;Node12 -->
<g id="edge4" class="edge">
<title>Node1&#45;&gt;Node12</title>
<path fill="none" stroke="midnightblue" d="M670.75,-33.3C662.17,-32.27 653.58,-31.23 645.21,-30.23"/>
<polygon fill="midnightblue" stroke="midnightblue" points="670.44,-36.79 680.79,-34.51 671.28,-29.84 670.44,-36.79"/>
</g>
<!-- Node3 -->
<g id="node3" class="node">
<title>Node3</title>
<g id="a_node3"><a xlink:href="classv8_1_1internal_1_1compiler_1_1CFGBuilder.html#af7909ad1bfea7d00b68a9723a2049033" target="_top" xlink:title=" ">
<polygon fill="white" stroke="black" points="157,-30 157,-60 278,-60 278,-30 157,-30"/>
<text text-anchor="start" x="165" y="-48" font-family="Helvetica,sans-Serif" font-size="10.00">v8::internal::compiler</text>
<text text-anchor="middle" x="217.5" y="-37" font-family="Helvetica,sans-Serif" font-size="10.00">::CFGBuilder::Queue</text>
</a>
</g>
</g>
<!-- Node2&#45;&gt;Node3 -->
<g id="edge2" class="edge">
<title>Node2&#45;&gt;Node3</title>
<path fill="none" stroke="midnightblue" d="M303.65,-45C295.04,-45 286.38,-45 278.07,-45"/>
<polygon fill="midnightblue" stroke="midnightblue" points="303.71,-48.5 313.71,-45 303.71,-41.5 303.71,-48.5"/>
</g>
<!-- Node4 -->
<g id="node4" class="node">
<title>Node4</title>
<g id="a_node4"><a xlink:href="classv8_1_1internal_1_1compiler_1_1CFGBuilder.html#a059f288038f20f74a4fea7a359584e72" target="_top" xlink:title=" ">
<polygon fill="white" stroke="red" points="0,-30 0,-60 121,-60 121,-30 0,-30"/>
<text text-anchor="start" x="8" y="-48" font-family="Helvetica,sans-Serif" font-size="10.00">v8::internal::compiler</text>
<text text-anchor="middle" x="60.5" y="-37" font-family="Helvetica,sans-Serif" font-size="10.00">::CFGBuilder::Run</text>
</a>
</g>
</g>
<!-- Node3&#45;&gt;Node4 -->
<g id="edge3" class="edge">
<title>Node3&#45;&gt;Node4</title>
<path fill="none" stroke="midnightblue" d="M146.34,-45C137.88,-45 129.3,-45 121.01,-45"/>
<polygon fill="midnightblue" stroke="midnightblue" points="146.57,-48.5 156.57,-45 146.57,-41.5 146.57,-48.5"/>
</g>
<!-- Node12&#45;&gt;Node2 -->
<g id="edge5" class="edge">
<title>Node12&#45;&gt;Node2</title>
<path fill="none" stroke="midnightblue" d="M479.77,-32.47C471.2,-33.6 462.59,-34.74 454.23,-35.85"/>
<polygon fill="midnightblue" stroke="midnightblue" points="480.34,-35.92 489.79,-31.14 479.42,-28.98 480.34,-35.92"/>
</g>
</g>
</svg>
