<?xml version="1.0" encoding="UTF-8" standalone="no"?>
<!DOCTYPE svg PUBLIC "-//W3C//DTD SVG 1.1//EN"
 "http://www.w3.org/Graphics/SVG/1.1/DTD/svg11.dtd">
<!-- Generated by graphviz version 2.43.0 (0)
 -->
<!-- Title: v8::internal::Code::uses_safepoint_table Pages: 1 -->
<svg width="412pt" height="137pt"
 viewBox="0.00 0.00 412.00 137.00" xmlns="http://www.w3.org/2000/svg" xmlns:xlink="http://www.w3.org/1999/xlink">
<g id="graph0" class="graph" transform="scale(1 1) rotate(0) translate(4 133)">
<title>v8::internal::Code::uses_safepoint_table</title>
<polygon fill="white" stroke="transparent" points="-4,4 -4,-133 408,-133 408,4 -4,4"/>
<!-- Node1 -->
<g id="node1" class="node">
<title>Node1</title>
<g id="a_node1"><a xlink:title=" ">
<polygon fill="#bfbfbf" stroke="black" points="0,-49.5 0,-79.5 126,-79.5 126,-49.5 0,-49.5"/>
<text text-anchor="start" x="8" y="-67.5" font-family="Helvetica,sans-Serif" font-size="10.00">v8::internal::Code</text>
<text text-anchor="middle" x="63" y="-56.5" font-family="Helvetica,sans-Serif" font-size="10.00">::uses_safepoint_table</text>
</a>
</g>
</g>
<!-- Node2 -->
<g id="node2" class="node">
<title>Node2</title>
<g id="a_node2"><a xlink:href="classv8_1_1internal_1_1Code.html#ae0e3ae2a1007ee6f7ebe118472431419" target="_top" xlink:title=" ">
<polygon fill="white" stroke="black" points="162,-98.5 162,-128.5 265,-128.5 265,-98.5 162,-98.5"/>
<text text-anchor="start" x="170" y="-116.5" font-family="Helvetica,sans-Serif" font-size="10.00">v8::internal::Code</text>
<text text-anchor="middle" x="213.5" y="-105.5" font-family="Helvetica,sans-Serif" font-size="10.00">::is_maglevved</text>
</a>
</g>
</g>
<!-- Node1&#45;&gt;Node2 -->
<g id="edge1" class="edge">
<title>Node1&#45;&gt;Node2</title>
<path fill="none" stroke="midnightblue" d="M109.77,-79.6C124.8,-84.56 141.67,-90.13 157.32,-95.29"/>
<polygon fill="midnightblue" stroke="midnightblue" points="156.29,-98.64 166.88,-98.45 158.48,-91.99 156.29,-98.64"/>
</g>
<!-- Node4 -->
<g id="node4" class="node">
<title>Node4</title>
<g id="a_node4"><a xlink:href="classv8_1_1internal_1_1Code.html#a403968a7d293dc0f3720b881ef395d5a" target="_top" xlink:title=" ">
<polygon fill="white" stroke="black" points="162,-49.5 162,-79.5 265,-79.5 265,-49.5 162,-49.5"/>
<text text-anchor="start" x="170" y="-67.5" font-family="Helvetica,sans-Serif" font-size="10.00">v8::internal::Code</text>
<text text-anchor="middle" x="213.5" y="-56.5" font-family="Helvetica,sans-Serif" font-size="10.00">::is_turbofanned</text>
</a>
</g>
</g>
<!-- Node1&#45;&gt;Node4 -->
<g id="edge3" class="edge">
<title>Node1&#45;&gt;Node4</title>
<path fill="none" stroke="midnightblue" d="M126.12,-64.5C134.59,-64.5 143.28,-64.5 151.74,-64.5"/>
<polygon fill="midnightblue" stroke="midnightblue" points="151.89,-68 161.89,-64.5 151.89,-61 151.89,-68"/>
</g>
<!-- Node5 -->
<g id="node5" class="node">
<title>Node5</title>
<g id="a_node5"><a xlink:href="classv8_1_1internal_1_1Code.html#a691e9ffecd18a537efcb04e98601c226" target="_top" xlink:title=" ">
<polygon fill="white" stroke="black" points="162,-0.5 162,-30.5 265,-30.5 265,-0.5 162,-0.5"/>
<text text-anchor="start" x="170" y="-18.5" font-family="Helvetica,sans-Serif" font-size="10.00">v8::internal::Code</text>
<text text-anchor="middle" x="213.5" y="-7.5" font-family="Helvetica,sans-Serif" font-size="10.00">::is_wasm_code</text>
</a>
</g>
</g>
<!-- Node1&#45;&gt;Node5 -->
<g id="edge4" class="edge">
<title>Node1&#45;&gt;Node5</title>
<path fill="none" stroke="midnightblue" d="M109.77,-49.4C124.8,-44.44 141.67,-38.87 157.32,-33.71"/>
<polygon fill="midnightblue" stroke="midnightblue" points="158.48,-37.01 166.88,-30.55 156.29,-30.36 158.48,-37.01"/>
</g>
<!-- Node3 -->
<g id="node3" class="node">
<title>Node3</title>
<g id="a_node3"><a xlink:href="classv8_1_1internal_1_1Code.html#a428f0352c6a170c1b39bfa94869d97b6" target="_top" xlink:title=" ">
<polygon fill="white" stroke="black" points="301,-49.5 301,-79.5 404,-79.5 404,-49.5 301,-49.5"/>
<text text-anchor="start" x="309" y="-67.5" font-family="Helvetica,sans-Serif" font-size="10.00">v8::internal::Code</text>
<text text-anchor="middle" x="352.5" y="-56.5" font-family="Helvetica,sans-Serif" font-size="10.00">::kind</text>
</a>
</g>
</g>
<!-- Node2&#45;&gt;Node3 -->
<g id="edge2" class="edge">
<title>Node2&#45;&gt;Node3</title>
<path fill="none" stroke="midnightblue" d="M256.72,-98.4C270.26,-93.55 285.42,-88.13 299.58,-83.07"/>
<polygon fill="midnightblue" stroke="midnightblue" points="300.94,-86.3 309.18,-79.64 298.59,-79.71 300.94,-86.3"/>
</g>
<!-- Node5&#45;&gt;Node3 -->
<g id="edge5" class="edge">
<title>Node5&#45;&gt;Node3</title>
<path fill="none" stroke="midnightblue" d="M256.72,-30.6C270.26,-35.45 285.42,-40.87 299.58,-45.93"/>
<polygon fill="midnightblue" stroke="midnightblue" points="298.59,-49.29 309.18,-49.36 300.94,-42.7 298.59,-49.29"/>
</g>
</g>
</svg>
