<?xml version="1.0" encoding="UTF-8" standalone="no"?>
<!DOCTYPE svg PUBLIC "-//W3C//DTD SVG 1.1//EN"
 "http://www.w3.org/Graphics/SVG/1.1/DTD/svg11.dtd">
<!-- Generated by graphviz version 2.43.0 (0)
 -->
<!-- Title: v8::internal::maglev::StraightForwardRegisterAllocator::PrintLiveRegs Pages: 1 -->
<svg width="852pt" height="75pt"
 viewBox="0.00 0.00 852.00 75.00" xmlns="http://www.w3.org/2000/svg" xmlns:xlink="http://www.w3.org/1999/xlink">
<g id="graph0" class="graph" transform="scale(1 1) rotate(0) translate(4 71)">
<title>v8::internal::maglev::StraightForwardRegisterAllocator::PrintLiveRegs</title>
<polygon fill="white" stroke="transparent" points="-4,4 -4,-71 848,-71 848,4 -4,4"/>
<!-- Node1 -->
<g id="node1" class="node">
<title>Node1</title>
<g id="a_node1"><a xlink:title=" ">
<polygon fill="#bfbfbf" stroke="black" points="660,-0.5 660,-41.5 844,-41.5 844,-0.5 660,-0.5"/>
<text text-anchor="start" x="668" y="-29.5" font-family="Helvetica,sans-Serif" font-size="10.00">v8::internal::maglev</text>
<text text-anchor="start" x="668" y="-18.5" font-family="Helvetica,sans-Serif" font-size="10.00">::StraightForwardRegisterAllocator</text>
<text text-anchor="middle" x="752" y="-7.5" font-family="Helvetica,sans-Serif" font-size="10.00">::PrintLiveRegs</text>
</a>
</g>
</g>
<!-- Node2 -->
<g id="node2" class="node">
<title>Node2</title>
<g id="a_node2"><a xlink:href="classv8_1_1internal_1_1maglev_1_1StraightForwardRegisterAllocator.html#ad0f2acc22289eabf8f64b42fff7b2fdc" target="_top" xlink:title=" ">
<polygon fill="white" stroke="black" points="440,-25.5 440,-66.5 624,-66.5 624,-25.5 440,-25.5"/>
<text text-anchor="start" x="448" y="-54.5" font-family="Helvetica,sans-Serif" font-size="10.00">v8::internal::maglev</text>
<text text-anchor="start" x="448" y="-43.5" font-family="Helvetica,sans-Serif" font-size="10.00">::StraightForwardRegisterAllocator</text>
<text text-anchor="middle" x="532" y="-32.5" font-family="Helvetica,sans-Serif" font-size="10.00">::AllocateNode</text>
</a>
</g>
</g>
<!-- Node1&#45;&gt;Node2 -->
<g id="edge1" class="edge">
<title>Node1&#45;&gt;Node2</title>
<path fill="none" stroke="midnightblue" d="M649.81,-32.6C641.26,-33.58 632.64,-34.57 624.17,-35.54"/>
<polygon fill="midnightblue" stroke="midnightblue" points="650.28,-36.07 659.81,-31.46 649.48,-29.12 650.28,-36.07"/>
</g>
<!-- Node3 -->
<g id="node3" class="node">
<title>Node3</title>
<g id="a_node3"><a xlink:href="classv8_1_1internal_1_1maglev_1_1StraightForwardRegisterAllocator.html#ac480121182714ec62e9e0219c1fb4aa1" target="_top" xlink:title=" ">
<polygon fill="white" stroke="black" points="220,-0.5 220,-41.5 404,-41.5 404,-0.5 220,-0.5"/>
<text text-anchor="start" x="228" y="-29.5" font-family="Helvetica,sans-Serif" font-size="10.00">v8::internal::maglev</text>
<text text-anchor="start" x="228" y="-18.5" font-family="Helvetica,sans-Serif" font-size="10.00">::StraightForwardRegisterAllocator</text>
<text text-anchor="middle" x="312" y="-7.5" font-family="Helvetica,sans-Serif" font-size="10.00">::AllocateRegisters</text>
</a>
</g>
</g>
<!-- Node1&#45;&gt;Node3 -->
<g id="edge4" class="edge">
<title>Node1&#45;&gt;Node3</title>
<path fill="none" stroke="midnightblue" d="M649.62,-16.65C640.95,-16.39 632.32,-16.16 624,-16 542.24,-14.39 521.76,-14.39 440,-16 428.42,-16.23 416.24,-16.57 404.21,-16.98"/>
<polygon fill="midnightblue" stroke="midnightblue" points="649.68,-20.15 659.79,-16.98 649.91,-13.16 649.68,-20.15"/>
</g>
<!-- Node2&#45;&gt;Node3 -->
<g id="edge2" class="edge">
<title>Node2&#45;&gt;Node3</title>
<path fill="none" stroke="midnightblue" d="M429.81,-34.4C421.26,-33.42 412.64,-32.43 404.17,-31.46"/>
<polygon fill="midnightblue" stroke="midnightblue" points="429.48,-37.88 439.81,-35.54 430.28,-30.93 429.48,-37.88"/>
</g>
<!-- Node4 -->
<g id="node4" class="node">
<title>Node4</title>
<g id="a_node4"><a xlink:href="classv8_1_1internal_1_1maglev_1_1StraightForwardRegisterAllocator.html#a26cd581118765612cdd701cb3af08789" target="_top" xlink:title=" ">
<polygon fill="white" stroke="black" points="0,-0.5 0,-41.5 184,-41.5 184,-0.5 0,-0.5"/>
<text text-anchor="start" x="8" y="-29.5" font-family="Helvetica,sans-Serif" font-size="10.00">v8::internal::maglev</text>
<text text-anchor="start" x="8" y="-18.5" font-family="Helvetica,sans-Serif" font-size="10.00">::StraightForwardRegisterAllocator</text>
<text text-anchor="middle" x="92" y="-7.5" font-family="Helvetica,sans-Serif" font-size="10.00">::StraightForwardRegisterAllocator</text>
</a>
</g>
</g>
<!-- Node3&#45;&gt;Node4 -->
<g id="edge3" class="edge">
<title>Node3&#45;&gt;Node4</title>
<path fill="none" stroke="midnightblue" d="M209.53,-21C201.07,-21 192.55,-21 184.17,-21"/>
<polygon fill="midnightblue" stroke="midnightblue" points="209.81,-24.5 219.81,-21 209.81,-17.5 209.81,-24.5"/>
</g>
</g>
</svg>
