<?xml version="1.0" encoding="UTF-8" standalone="no"?>
<!DOCTYPE svg PUBLIC "-//W3C//DTD SVG 1.1//EN"
 "http://www.w3.org/Graphics/SVG/1.1/DTD/svg11.dtd">
<!-- Generated by graphviz version 2.43.0 (0)
 -->
<!-- Title: v8::internal::MainAllocator::AllocateRawSlowUnaligned Pages: 1 -->
<!--zoomable 1063 -->
<svg id="main" version="1.1" xmlns="http://www.w3.org/2000/svg" xmlns:xlink="http://www.w3.org/1999/xlink" xml:space="preserve" onload="init(evt)">
<style type="text/css"><![CDATA[
.edge:hover path { stroke: red; }
.edge:hover polygon { stroke: red; fill: red; }
]]></style>
<script type="text/javascript"><![CDATA[
var edges = document.getElementsByTagName('g');
if (edges && edges.length) {
  for (var i=0;i<edges.length;i++) {
    if (edges[i].id.substr(0,4)=='edge') {
      edges[i].setAttribute('class','edge');
    }
  }
}
]]></script>
        <defs>
                <circle id="rim" cx="0" cy="0" r="7"/>
                <circle id="rim2" cx="0" cy="0" r="3.5"/>
                <g id="zoomPlus">
                        <use xlink:href="#rim" fill="#404040">
                                <set attributeName="fill" to="#808080" begin="zoomplus.mouseover" end="zoomplus.mouseout"/>
                        </use>
                        <path d="M-4,0h8M0,-4v8" fill="none" stroke="white" stroke-width="1.5" pointer-events="none"/>
                </g>
                <g id="zoomMin">
                        <use xlink:href="#rim" fill="#404040">
                                <set attributeName="fill" to="#808080" begin="zoomminus.mouseover" end="zoomminus.mouseout"/>
                        </use>
                        <path d="M-4,0h8" fill="none" stroke="white" stroke-width="1.5" pointer-events="none"/>
                </g>
                <g id="dirArrow">
                        <path fill="none" stroke="white" stroke-width="1.5" d="M0,-3.0v7 M-2.5,-0.5L0,-3.0L2.5,-0.5"/>
                </g>
               <g id="resetDef">
                       <use xlink:href="#rim2" fill="#404040">
                               <set attributeName="fill" to="#808080" begin="reset.mouseover" end="reset.mouseout"/>
                       </use>
               </g>
        </defs>

<script type="text/javascript">
var viewWidth = 868;
var viewHeight = 1063;
var sectionId = 'dynsection-19';
</script>
<script xlink:href="svgpan.js"/>
<svg id="graph" class="graph">
<g id="viewport">
<title>v8::internal::MainAllocator::AllocateRawSlowUnaligned</title>
<polygon fill="white" stroke="transparent" points="-4,4 -4,-1059 864,-1059 864,4 -4,4"/>
<!-- Node1 -->
<g id="node1" class="node">
<title>Node1</title>
<g id="a_node1"><a xlink:title=" ">
<polygon fill="#bfbfbf" stroke="black" points="0,-730.5 0,-760.5 156,-760.5 156,-730.5 0,-730.5"/>
<text text-anchor="start" x="8" y="-748.5" font-family="Helvetica,sans-Serif" font-size="10.00">v8::internal::MainAllocator</text>
<text text-anchor="middle" x="78" y="-737.5" font-family="Helvetica,sans-Serif" font-size="10.00">::AllocateRawSlowUnaligned</text>
</a>
</g>
</g>
<!-- Node2 -->
<g id="node2" class="node">
<title>Node2</title>
<g id="a_node2"><a xlink:href="classv8_1_1internal_1_1MainAllocator.html#a9c161ffd502197db8d75883c62a84d83" target="_top" xlink:title=" ">
<polygon fill="white" stroke="black" points="195.5,-877.5 195.5,-907.5 341.5,-907.5 341.5,-877.5 195.5,-877.5"/>
<text text-anchor="start" x="203.5" y="-895.5" font-family="Helvetica,sans-Serif" font-size="10.00">v8::internal::MainAllocator</text>
<text text-anchor="middle" x="268.5" y="-884.5" font-family="Helvetica,sans-Serif" font-size="10.00">::AllocateFastUnaligned</text>
</a>
</g>
</g>
<!-- Node1&#45;&gt;Node2 -->
<g id="edge1" class="edge">
<title>Node1&#45;&gt;Node2</title>
<path fill="none" stroke="midnightblue" d="M98.46,-760.68C132.13,-786.93 201.34,-840.9 239.94,-871.01"/>
<polygon fill="midnightblue" stroke="midnightblue" points="238.11,-874.02 248.14,-877.4 242.41,-868.5 238.11,-874.02"/>
</g>
<!-- Node6 -->
<g id="node6" class="node">
<title>Node6</title>
<g id="a_node6"><a xlink:href="classv8_1_1internal_1_1AllocationResult.html#a336ef4f34f5d3ed7599e6760be2eb98e" target="_top" xlink:title=" ">
<polygon fill="white" stroke="black" points="413,-1024.5 413,-1054.5 540,-1054.5 540,-1024.5 413,-1024.5"/>
<text text-anchor="start" x="421" y="-1042.5" font-family="Helvetica,sans-Serif" font-size="10.00">v8::internal::Allocation</text>
<text text-anchor="middle" x="476.5" y="-1031.5" font-family="Helvetica,sans-Serif" font-size="10.00">Result::Failure</text>
</a>
</g>
</g>
<!-- Node1&#45;&gt;Node6 -->
<g id="edge20" class="edge">
<title>Node1&#45;&gt;Node6</title>
<path fill="none" stroke="midnightblue" d="M85.68,-760.69C100.6,-793.14 139.47,-870.12 192,-917.5 252.52,-972.09 341.21,-1004.88 403.23,-1022.5"/>
<polygon fill="midnightblue" stroke="midnightblue" points="402.37,-1025.9 412.95,-1025.2 404.25,-1019.15 402.37,-1025.9"/>
</g>
<!-- Node13 -->
<g id="node13" class="node">
<title>Node13</title>
<g id="a_node13"><a xlink:href="namespacev8_1_1internal.html#aa6b3743bd5d773c552654f2a6c3efa4a" target="_top" xlink:title=" ">
<polygon fill="white" stroke="black" points="638.5,-236 638.5,-255 757.5,-255 757.5,-236 638.5,-236"/>
<text text-anchor="middle" x="698" y="-243" font-family="Helvetica,sans-Serif" font-size="10.00">v8::internal::DCHECK</text>
</a>
</g>
</g>
<!-- Node1&#45;&gt;Node13 -->
<g id="edge13" class="edge">
<title>Node1&#45;&gt;Node13</title>
<path fill="none" stroke="midnightblue" d="M81.64,-730.48C95.61,-656.3 168.49,-328.26 381,-221.5 456.85,-183.39 487.49,-213.46 572,-221.5 597.2,-223.9 624.87,-228.95 647.76,-233.81"/>
<polygon fill="midnightblue" stroke="midnightblue" points="647.07,-237.24 657.59,-235.94 648.56,-230.4 647.07,-237.24"/>
</g>
<!-- Node14 -->
<g id="node14" class="node">
<title>Node14</title>
<g id="a_node14"><a xlink:href="classv8_1_1internal_1_1MainAllocator.html#a94f936c747804039464e5f0c446b73d2" target="_top" xlink:title=" ">
<polygon fill="white" stroke="black" points="195.5,-730.5 195.5,-760.5 341.5,-760.5 341.5,-730.5 195.5,-730.5"/>
<text text-anchor="start" x="203.5" y="-748.5" font-family="Helvetica,sans-Serif" font-size="10.00">v8::internal::MainAllocator</text>
<text text-anchor="middle" x="268.5" y="-737.5" font-family="Helvetica,sans-Serif" font-size="10.00">::EnsureAllocation</text>
</a>
</g>
</g>
<!-- Node1&#45;&gt;Node14 -->
<g id="edge14" class="edge">
<title>Node1&#45;&gt;Node14</title>
<path fill="none" stroke="midnightblue" d="M156.21,-745.5C165.7,-745.5 175.42,-745.5 184.97,-745.5"/>
<polygon fill="midnightblue" stroke="midnightblue" points="185.26,-749 195.26,-745.5 185.26,-742 185.26,-749"/>
</g>
<!-- Node20 -->
<g id="node20" class="node">
<title>Node20</title>
<g id="a_node20"><a xlink:href="classv8_1_1internal_1_1MainAllocator.html#a99df0ee2086e77d60f5ab6b3e3786060" target="_top" xlink:title=" ">
<polygon fill="white" stroke="black" points="192,-485.5 192,-515.5 345,-515.5 345,-485.5 192,-485.5"/>
<text text-anchor="start" x="200" y="-503.5" font-family="Helvetica,sans-Serif" font-size="10.00">v8::internal::MainAllocator</text>
<text text-anchor="middle" x="268.5" y="-492.5" font-family="Helvetica,sans-Serif" font-size="10.00">::InvokeAllocationObservers</text>
</a>
</g>
</g>
<!-- Node1&#45;&gt;Node20 -->
<g id="edge21" class="edge">
<title>Node1&#45;&gt;Node20</title>
<path fill="none" stroke="midnightblue" d="M90.79,-730.17C122.8,-688.57 211.48,-573.31 249.65,-523.7"/>
<polygon fill="midnightblue" stroke="midnightblue" points="252.63,-525.57 255.95,-515.51 247.08,-521.3 252.63,-525.57"/>
</g>
<!-- Node3 -->
<g id="node3" class="node">
<title>Node3</title>
<g id="a_node3"><a xlink:href="classv8_1_1internal_1_1Tagged_3_01HeapObject_01_4.html#a07c12d3bf0972861e1c5aefabd00971f" target="_top" xlink:title=" ">
<polygon fill="white" stroke="black" points="406.5,-877.5 406.5,-907.5 546.5,-907.5 546.5,-877.5 406.5,-877.5"/>
<text text-anchor="start" x="414.5" y="-895.5" font-family="Helvetica,sans-Serif" font-size="10.00">v8::internal::Tagged</text>
<text text-anchor="middle" x="476.5" y="-884.5" font-family="Helvetica,sans-Serif" font-size="10.00">&lt; HeapObject &gt;::address</text>
</a>
</g>
</g>
<!-- Node2&#45;&gt;Node3 -->
<g id="edge2" class="edge">
<title>Node2&#45;&gt;Node3</title>
<path fill="none" stroke="midnightblue" d="M341.55,-892.5C359.19,-892.5 378.16,-892.5 396.12,-892.5"/>
<polygon fill="midnightblue" stroke="midnightblue" points="396.26,-896 406.26,-892.5 396.26,-889 396.26,-896"/>
</g>
<!-- Node5 -->
<g id="node5" class="node">
<title>Node5</title>
<g id="a_node5"><a xlink:href="classv8_1_1internal_1_1MainAllocator.html#a35323f723fdbbd0935d8d971d7df251e" target="_top" xlink:title=" ">
<polygon fill="white" stroke="black" points="403.5,-828.5 403.5,-858.5 549.5,-858.5 549.5,-828.5 403.5,-828.5"/>
<text text-anchor="start" x="411.5" y="-846.5" font-family="Helvetica,sans-Serif" font-size="10.00">v8::internal::MainAllocator</text>
<text text-anchor="middle" x="476.5" y="-835.5" font-family="Helvetica,sans-Serif" font-size="10.00">::allocation_info</text>
</a>
</g>
</g>
<!-- Node2&#45;&gt;Node5 -->
<g id="edge4" class="edge">
<title>Node2&#45;&gt;Node5</title>
<path fill="none" stroke="midnightblue" d="M332.71,-877.47C354.75,-872.22 379.68,-866.29 402.46,-860.87"/>
<polygon fill="midnightblue" stroke="midnightblue" points="403.49,-864.23 412.41,-858.51 401.87,-857.42 403.49,-864.23"/>
</g>
<!-- Node2&#45;&gt;Node6 -->
<g id="edge5" class="edge">
<title>Node2&#45;&gt;Node6</title>
<path fill="none" stroke="midnightblue" d="M283.88,-907.55C299.22,-923.69 324.12,-950.14 345,-973.5 361.39,-991.83 360.11,-1002.54 381,-1015.5 387.85,-1019.75 395.42,-1023.25 403.21,-1026.13"/>
<polygon fill="midnightblue" stroke="midnightblue" points="402.19,-1029.48 412.79,-1029.35 404.42,-1022.85 402.19,-1029.48"/>
</g>
<!-- Node8 -->
<g id="node8" class="node">
<title>Node8</title>
<g id="a_node8"><a xlink:href="classv8_1_1internal_1_1HeapObject.html#aa18961d55321b920bd98b2fbcf729775" target="_top" xlink:title=" ">
<polygon fill="white" stroke="black" points="409,-926.5 409,-956.5 544,-956.5 544,-926.5 409,-926.5"/>
<text text-anchor="start" x="417" y="-944.5" font-family="Helvetica,sans-Serif" font-size="10.00">v8::internal::HeapObject</text>
<text text-anchor="middle" x="476.5" y="-933.5" font-family="Helvetica,sans-Serif" font-size="10.00">::FromAddress</text>
</a>
</g>
</g>
<!-- Node2&#45;&gt;Node8 -->
<g id="edge7" class="edge">
<title>Node2&#45;&gt;Node8</title>
<path fill="none" stroke="midnightblue" d="M332.71,-907.53C354.75,-912.78 379.68,-918.71 402.46,-924.13"/>
<polygon fill="midnightblue" stroke="midnightblue" points="401.87,-927.58 412.41,-926.49 403.49,-920.77 401.87,-927.58"/>
</g>
<!-- Node10 -->
<g id="node10" class="node">
<title>Node10</title>
<g id="a_node10"><a xlink:href="classv8_1_1internal_1_1AllocationResult.html#ae44c17b2a14c398332a7d81630cd745d" target="_top" xlink:title=" ">
<polygon fill="white" stroke="black" points="413,-975.5 413,-1005.5 540,-1005.5 540,-975.5 413,-975.5"/>
<text text-anchor="start" x="421" y="-993.5" font-family="Helvetica,sans-Serif" font-size="10.00">v8::internal::Allocation</text>
<text text-anchor="middle" x="476.5" y="-982.5" font-family="Helvetica,sans-Serif" font-size="10.00">Result::FromObject</text>
</a>
</g>
</g>
<!-- Node2&#45;&gt;Node10 -->
<g id="edge9" class="edge">
<title>Node2&#45;&gt;Node10</title>
<path fill="none" stroke="midnightblue" d="M288.08,-907.71C309.33,-924.39 345.74,-950.87 381,-966.5 388.07,-969.64 395.63,-972.42 403.28,-974.87"/>
<polygon fill="midnightblue" stroke="midnightblue" points="402.4,-978.26 412.98,-977.8 404.42,-971.56 402.4,-978.26"/>
</g>
<!-- Node11 -->
<g id="node11" class="node">
<title>Node11</title>
<g id="a_node11"><a xlink:href="classv8_1_1internal_1_1MainAllocator.html#a59638b5e4f9c9865525d3e4f24a71901" target="_top" xlink:title=" ">
<polygon fill="white" stroke="black" points="403.5,-730.5 403.5,-760.5 549.5,-760.5 549.5,-730.5 403.5,-730.5"/>
<text text-anchor="start" x="411.5" y="-748.5" font-family="Helvetica,sans-Serif" font-size="10.00">v8::internal::MainAllocator</text>
<text text-anchor="middle" x="476.5" y="-737.5" font-family="Helvetica,sans-Serif" font-size="10.00">::space_heap</text>
</a>
</g>
</g>
<!-- Node2&#45;&gt;Node11 -->
<g id="edge11" class="edge">
<title>Node2&#45;&gt;Node11</title>
<path fill="none" stroke="midnightblue" d="M279.15,-877.16C296.35,-851.14 334.86,-798.44 381,-770.5 385.05,-768.05 389.34,-765.83 393.77,-763.83"/>
<polygon fill="midnightblue" stroke="midnightblue" points="395.11,-767.06 403.03,-760.02 392.45,-760.59 395.11,-767.06"/>
</g>
<!-- Node4 -->
<g id="node4" class="node">
<title>Node4</title>
<g id="a_node4"><a xlink:href="classv8_1_1internal_1_1TaggedImpl.html#a4dba1b2eafcf7a414910966f950540c9" target="_top" xlink:title=" ">
<polygon fill="white" stroke="black" points="619.5,-875 619.5,-916 776.5,-916 776.5,-875 619.5,-875"/>
<text text-anchor="start" x="627.5" y="-904" font-family="Helvetica,sans-Serif" font-size="10.00">v8::internal::TaggedImpl</text>
<text text-anchor="start" x="627.5" y="-893" font-family="Helvetica,sans-Serif" font-size="10.00">&lt; HeapObjectReferenceType</text>
<text text-anchor="middle" x="698" y="-882" font-family="Helvetica,sans-Serif" font-size="10.00">::STRONG, Address &gt;::ptr</text>
</a>
</g>
</g>
<!-- Node3&#45;&gt;Node4 -->
<g id="edge3" class="edge">
<title>Node3&#45;&gt;Node4</title>
<path fill="none" stroke="midnightblue" d="M546.65,-893.45C566.52,-893.72 588.46,-894.02 609.29,-894.3"/>
<polygon fill="midnightblue" stroke="midnightblue" points="609.37,-897.8 619.41,-894.44 609.46,-890.8 609.37,-897.8"/>
</g>
<!-- Node7 -->
<g id="node7" class="node">
<title>Node7</title>
<g id="a_node7"><a xlink:href="classv8_1_1internal_1_1AllocationResult.html#acac12feb7fd4fa457443b37aaffe9c9e" target="_top" xlink:title=" ">
<polygon fill="white" stroke="black" points="631.5,-1005.5 631.5,-1035.5 764.5,-1035.5 764.5,-1005.5 631.5,-1005.5"/>
<text text-anchor="start" x="639.5" y="-1023.5" font-family="Helvetica,sans-Serif" font-size="10.00">v8::internal::Allocation</text>
<text text-anchor="middle" x="698" y="-1012.5" font-family="Helvetica,sans-Serif" font-size="10.00">Result::AllocationResult</text>
</a>
</g>
</g>
<!-- Node6&#45;&gt;Node7 -->
<g id="edge6" class="edge">
<title>Node6&#45;&gt;Node7</title>
<path fill="none" stroke="midnightblue" d="M540.11,-1034.08C565.39,-1031.89 594.79,-1029.35 621.26,-1027.06"/>
<polygon fill="midnightblue" stroke="midnightblue" points="621.59,-1030.54 631.25,-1026.19 620.98,-1023.57 621.59,-1030.54"/>
</g>
<!-- Node9 -->
<g id="node9" class="node">
<title>Node9</title>
<g id="a_node9"><a xlink:href="classv8_1_1internal_1_1HeapObjectLayout.html#a263ce0a188b9daa21effadc28d66857e" target="_top" xlink:title=" ">
<polygon fill="white" stroke="black" points="630.5,-935.5 630.5,-965.5 765.5,-965.5 765.5,-935.5 630.5,-935.5"/>
<text text-anchor="start" x="638.5" y="-953.5" font-family="Helvetica,sans-Serif" font-size="10.00">v8::internal::HeapObject</text>
<text text-anchor="middle" x="698" y="-942.5" font-family="Helvetica,sans-Serif" font-size="10.00">Layout::address</text>
</a>
</g>
</g>
<!-- Node8&#45;&gt;Node9 -->
<g id="edge8" class="edge">
<title>Node8&#45;&gt;Node9</title>
<path fill="none" stroke="midnightblue" d="M544.25,-944.24C568.2,-945.22 595.38,-946.33 620.12,-947.35"/>
<polygon fill="midnightblue" stroke="midnightblue" points="620.05,-950.85 630.19,-947.76 620.34,-943.85 620.05,-950.85"/>
</g>
<!-- Node10&#45;&gt;Node7 -->
<g id="edge10" class="edge">
<title>Node10&#45;&gt;Node7</title>
<path fill="none" stroke="midnightblue" d="M540.11,-999.06C565.39,-1002.51 594.79,-1006.53 621.26,-1010.15"/>
<polygon fill="midnightblue" stroke="midnightblue" points="620.87,-1013.63 631.25,-1011.51 621.82,-1006.69 620.87,-1013.63"/>
</g>
<!-- Node12 -->
<g id="node12" class="node">
<title>Node12</title>
<g id="a_node12"><a xlink:href="classv8_1_1internal_1_1BaseSpace.html#aa794412c17d7e513e7ecdb417f1b9ff8" target="_top" xlink:title=" ">
<polygon fill="white" stroke="black" points="632.5,-678.5 632.5,-708.5 763.5,-708.5 763.5,-678.5 632.5,-678.5"/>
<text text-anchor="start" x="640.5" y="-696.5" font-family="Helvetica,sans-Serif" font-size="10.00">v8::internal::BaseSpace</text>
<text text-anchor="middle" x="698" y="-685.5" font-family="Helvetica,sans-Serif" font-size="10.00">::heap</text>
</a>
</g>
</g>
<!-- Node11&#45;&gt;Node12 -->
<g id="edge12" class="edge">
<title>Node11&#45;&gt;Node12</title>
<path fill="none" stroke="midnightblue" d="M540.99,-730.46C566.81,-724.34 596.82,-717.23 623.57,-710.89"/>
<polygon fill="midnightblue" stroke="midnightblue" points="624.73,-714.22 633.65,-708.51 623.12,-707.41 624.73,-714.22"/>
</g>
<!-- Node15 -->
<g id="node15" class="node">
<title>Node15</title>
<g id="a_node15"><a xlink:href="classv8_1_1internal_1_1MainAllocator.html#acac86a713351b3f0de5d8feef31e57c0" target="_top" xlink:title=" ">
<polygon fill="white" stroke="black" points="403.5,-779.5 403.5,-809.5 549.5,-809.5 549.5,-779.5 403.5,-779.5"/>
<text text-anchor="start" x="411.5" y="-797.5" font-family="Helvetica,sans-Serif" font-size="10.00">v8::internal::MainAllocator</text>
<text text-anchor="middle" x="476.5" y="-786.5" font-family="Helvetica,sans-Serif" font-size="10.00">::is_main_thread</text>
</a>
</g>
</g>
<!-- Node14&#45;&gt;Node15 -->
<g id="edge15" class="edge">
<title>Node14&#45;&gt;Node15</title>
<path fill="none" stroke="midnightblue" d="M332.71,-760.53C354.75,-765.78 379.68,-771.71 402.46,-777.13"/>
<polygon fill="midnightblue" stroke="midnightblue" points="401.87,-780.58 412.41,-779.49 403.49,-773.77 401.87,-780.58"/>
</g>
<!-- Node19 -->
<g id="node19" class="node">
<title>Node19</title>
<g id="a_node19"><a xlink:href="classv8_1_1internal_1_1MainAllocator.html#a76e7895306c906d0e6d1958077de0e41" target="_top" xlink:title=" ">
<polygon fill="white" stroke="black" points="403.5,-681.5 403.5,-711.5 549.5,-711.5 549.5,-681.5 403.5,-681.5"/>
<text text-anchor="start" x="411.5" y="-699.5" font-family="Helvetica,sans-Serif" font-size="10.00">v8::internal::MainAllocator</text>
<text text-anchor="middle" x="476.5" y="-688.5" font-family="Helvetica,sans-Serif" font-size="10.00">::isolate_heap</text>
</a>
</g>
</g>
<!-- Node14&#45;&gt;Node19 -->
<g id="edge19" class="edge">
<title>Node14&#45;&gt;Node19</title>
<path fill="none" stroke="midnightblue" d="M332.71,-730.47C354.75,-725.22 379.68,-719.29 402.46,-713.87"/>
<polygon fill="midnightblue" stroke="midnightblue" points="403.49,-717.23 412.41,-711.51 401.87,-710.42 403.49,-717.23"/>
</g>
<!-- Node16 -->
<g id="node16" class="node">
<title>Node16</title>
<g id="a_node16"><a xlink:href="classv8_1_1internal_1_1MainAllocator.html#ac2d637389bbdda7a6192e615dc3fa6c0" target="_top" xlink:title=" ">
<polygon fill="white" stroke="black" points="625,-727.5 625,-757.5 771,-757.5 771,-727.5 625,-727.5"/>
<text text-anchor="start" x="633" y="-745.5" font-family="Helvetica,sans-Serif" font-size="10.00">v8::internal::MainAllocator</text>
<text text-anchor="middle" x="698" y="-734.5" font-family="Helvetica,sans-Serif" font-size="10.00">::in_gc</text>
</a>
</g>
</g>
<!-- Node15&#45;&gt;Node16 -->
<g id="edge16" class="edge">
<title>Node15&#45;&gt;Node16</title>
<path fill="none" stroke="midnightblue" d="M540.99,-779.46C566.81,-773.34 596.82,-766.23 623.57,-759.89"/>
<polygon fill="midnightblue" stroke="midnightblue" points="624.73,-763.22 633.65,-757.51 623.12,-756.41 624.73,-763.22"/>
</g>
<!-- Node17 -->
<g id="node17" class="node">
<title>Node17</title>
<g id="a_node17"><a xlink:href="classv8_1_1internal_1_1LocalHeap.html#a129c553b162eba0d9957551433b95708" target="_top" xlink:title=" ">
<polygon fill="white" stroke="black" points="633.5,-825.5 633.5,-855.5 762.5,-855.5 762.5,-825.5 633.5,-825.5"/>
<text text-anchor="start" x="641.5" y="-843.5" font-family="Helvetica,sans-Serif" font-size="10.00">v8::internal::LocalHeap</text>
<text text-anchor="middle" x="698" y="-832.5" font-family="Helvetica,sans-Serif" font-size="10.00">::is_main_thread</text>
</a>
</g>
</g>
<!-- Node15&#45;&gt;Node17 -->
<g id="edge17" class="edge">
<title>Node15&#45;&gt;Node17</title>
<path fill="none" stroke="midnightblue" d="M549.37,-809.56C573.11,-814.54 599.55,-820.08 623.41,-825.08"/>
<polygon fill="midnightblue" stroke="midnightblue" points="622.96,-828.56 633.47,-827.19 624.4,-821.71 622.96,-828.56"/>
</g>
<!-- Node18 -->
<g id="node18" class="node">
<title>Node18</title>
<g id="a_node18"><a xlink:href="classv8_1_1internal_1_1MainAllocator.html#a200bb5c3cdd47d2cedc85d849e92d005" target="_top" xlink:title=" ">
<polygon fill="white" stroke="black" points="625,-776.5 625,-806.5 771,-806.5 771,-776.5 625,-776.5"/>
<text text-anchor="start" x="633" y="-794.5" font-family="Helvetica,sans-Serif" font-size="10.00">v8::internal::MainAllocator</text>
<text text-anchor="middle" x="698" y="-783.5" font-family="Helvetica,sans-Serif" font-size="10.00">::local_heap</text>
</a>
</g>
</g>
<!-- Node15&#45;&gt;Node18 -->
<g id="edge18" class="edge">
<title>Node15&#45;&gt;Node18</title>
<path fill="none" stroke="midnightblue" d="M549.68,-793.51C570.5,-793.23 593.37,-792.92 614.75,-792.62"/>
<polygon fill="midnightblue" stroke="midnightblue" points="614.83,-796.12 624.78,-792.49 614.73,-789.12 614.83,-796.12"/>
</g>
<!-- Node20&#45;&gt;Node5 -->
<g id="edge23" class="edge">
<title>Node20&#45;&gt;Node5</title>
<path fill="none" stroke="midnightblue" d="M274.72,-515.74C296.35,-578.88 378,-816.75 381,-819.5 385.06,-823.22 389.61,-826.38 394.46,-829.06"/>
<polygon fill="midnightblue" stroke="midnightblue" points="392.95,-832.22 403.48,-833.4 395.98,-825.91 392.95,-832.22"/>
</g>
<!-- Node20&#45;&gt;Node11 -->
<g id="edge40" class="edge">
<title>Node20&#45;&gt;Node11</title>
<path fill="none" stroke="midnightblue" d="M272.56,-515.57C281.54,-555.69 311.61,-665.83 381,-721.5 385.02,-724.73 389.43,-727.53 394.06,-729.95"/>
<polygon fill="midnightblue" stroke="midnightblue" points="392.68,-733.17 403.23,-734.18 395.61,-726.81 392.68,-733.17"/>
</g>
<!-- Node20&#45;&gt;Node13 -->
<g id="edge33" class="edge">
<title>Node20&#45;&gt;Node13</title>
<path fill="none" stroke="midnightblue" d="M270.54,-485.18C274.65,-438.51 294.07,-297.81 381,-240.5 420.1,-214.73 547.55,-225.55 628.15,-235.62"/>
<polygon fill="midnightblue" stroke="midnightblue" points="627.86,-239.11 638.22,-236.9 628.75,-232.17 627.86,-239.11"/>
</g>
<!-- Node20&#45;&gt;Node19 -->
<g id="edge36" class="edge">
<title>Node20&#45;&gt;Node19</title>
<path fill="none" stroke="midnightblue" d="M274.87,-515.64C287.64,-549.37 323.16,-631.02 381,-672.5 385,-675.37 389.31,-677.9 393.82,-680.12"/>
<polygon fill="midnightblue" stroke="midnightblue" points="392.72,-683.46 403.28,-684.28 395.53,-677.06 392.72,-683.46"/>
</g>
<!-- Node21 -->
<g id="node21" class="node">
<title>Node21</title>
<g id="a_node21"><a xlink:href="classv8_1_1internal_1_1MainAllocator.html#a5e38cefdb8da1e532707059fa1035317" target="_top" xlink:title=" ">
<polygon fill="white" stroke="black" points="403.5,-348.5 403.5,-378.5 549.5,-378.5 549.5,-348.5 403.5,-348.5"/>
<text text-anchor="start" x="411.5" y="-366.5" font-family="Helvetica,sans-Serif" font-size="10.00">v8::internal::MainAllocator</text>
<text text-anchor="middle" x="476.5" y="-355.5" font-family="Helvetica,sans-Serif" font-size="10.00">::allocation_counter</text>
</a>
</g>
</g>
<!-- Node20&#45;&gt;Node21 -->
<g id="edge22" class="edge">
<title>Node20&#45;&gt;Node21</title>
<path fill="none" stroke="midnightblue" d="M280.33,-485.29C298.38,-461.06 337.03,-413.86 381,-388.5 385.1,-386.13 389.43,-383.99 393.89,-382.04"/>
<polygon fill="midnightblue" stroke="midnightblue" points="395.22,-385.28 403.2,-378.31 392.62,-378.78 395.22,-385.28"/>
</g>
<!-- Node22 -->
<g id="node22" class="node">
<title>Node22</title>
<g id="a_node22"><a xlink:href="classv8_1_1internal_1_1Heap.html#a4e77c4c4c45f64cd073d9e29b9d7fb91" target="_top" xlink:title=" ">
<polygon fill="white" stroke="black" points="416,-116.5 416,-146.5 537,-146.5 537,-116.5 416,-116.5"/>
<text text-anchor="start" x="424" y="-134.5" font-family="Helvetica,sans-Serif" font-size="10.00">v8::internal::Heap</text>
<text text-anchor="middle" x="476.5" y="-123.5" font-family="Helvetica,sans-Serif" font-size="10.00">::CreateFillerObjectAt</text>
</a>
</g>
</g>
<!-- Node20&#45;&gt;Node22 -->
<g id="edge24" class="edge">
<title>Node20&#45;&gt;Node22</title>
<path fill="none" stroke="midnightblue" d="M272.3,-485.46C281.36,-439.86 313.32,-300.61 381,-207.5 397.17,-185.25 421.46,-165.91 441.36,-152.31"/>
<polygon fill="midnightblue" stroke="midnightblue" points="443.47,-155.11 449.86,-146.66 439.6,-149.28 443.47,-155.11"/>
</g>
<!-- Node111 -->
<g id="node28" class="node">
<title>Node111</title>
<g id="a_node28"><a xlink:href="classv8_1_1internal_1_1AllocationCounter.html#ae3a3a7101127e2c951486670210b076a" target="_top" xlink:title=" ">
<polygon fill="white" stroke="black" points="381,-250.5 381,-280.5 572,-280.5 572,-250.5 381,-250.5"/>
<text text-anchor="start" x="389" y="-268.5" font-family="Helvetica,sans-Serif" font-size="10.00">v8::internal::Allocation</text>
<text text-anchor="middle" x="476.5" y="-257.5" font-family="Helvetica,sans-Serif" font-size="10.00">Counter::InvokeAllocationObservers</text>
</a>
</g>
</g>
<!-- Node20&#45;&gt;Node111 -->
<g id="edge34" class="edge">
<title>Node20&#45;&gt;Node111</title>
<path fill="none" stroke="midnightblue" d="M272.99,-485.25C282.75,-446.24 314.09,-342.15 381,-289.5 382.78,-288.1 384.64,-286.77 386.55,-285.53"/>
<polygon fill="midnightblue" stroke="midnightblue" points="388.35,-288.54 395.3,-280.54 384.88,-282.46 388.35,-288.54"/>
</g>
<!-- Node112 -->
<g id="node29" class="node">
<title>Node112</title>
<g id="a_node29"><a xlink:href="classv8_1_1internal_1_1LinearAllocationArea.html#aee95eb1b6de3410c859638fc32be98e1" target="_top" xlink:title=" ">
<polygon fill="white" stroke="black" points="398,-436.5 398,-466.5 555,-466.5 555,-436.5 398,-436.5"/>
<text text-anchor="start" x="406" y="-454.5" font-family="Helvetica,sans-Serif" font-size="10.00">v8::internal::LinearAllocation</text>
<text text-anchor="middle" x="476.5" y="-443.5" font-family="Helvetica,sans-Serif" font-size="10.00">Area::limit</text>
</a>
</g>
</g>
<!-- Node20&#45;&gt;Node112 -->
<g id="edge37" class="edge">
<title>Node20&#45;&gt;Node112</title>
<path fill="none" stroke="midnightblue" d="M332.71,-485.47C354.75,-480.22 379.68,-474.29 402.46,-468.87"/>
<polygon fill="midnightblue" stroke="midnightblue" points="403.49,-472.23 412.41,-466.51 401.87,-465.42 403.49,-472.23"/>
</g>
<!-- Node114 -->
<g id="node31" class="node">
<title>Node114</title>
<g id="a_node31"><a xlink:href="classv8_1_1internal_1_1MainAllocator.html#a87bf7756f4eaff609ab0738e6f69cd85" target="_top" xlink:title=" ">
<polygon fill="white" stroke="black" points="403.5,-632.5 403.5,-662.5 549.5,-662.5 549.5,-632.5 403.5,-632.5"/>
<text text-anchor="start" x="411.5" y="-650.5" font-family="Helvetica,sans-Serif" font-size="10.00">v8::internal::MainAllocator</text>
<text text-anchor="middle" x="476.5" y="-639.5" font-family="Helvetica,sans-Serif" font-size="10.00">::limit</text>
</a>
</g>
</g>
<!-- Node20&#45;&gt;Node114 -->
<g id="edge39" class="edge">
<title>Node20&#45;&gt;Node114</title>
<path fill="none" stroke="midnightblue" d="M278.82,-515.6C295.79,-541.76 334.32,-595.42 381,-623.5 384.94,-625.87 389.11,-628.01 393.41,-629.94"/>
<polygon fill="midnightblue" stroke="midnightblue" points="392.44,-633.32 403.02,-633.83 395.07,-626.83 392.44,-633.32"/>
</g>
<!-- Node115 -->
<g id="node32" class="node">
<title>Node115</title>
<g id="a_node32"><a xlink:href="classv8_1_1internal_1_1LinearAllocationArea.html#a52bbbfa2efd133fe251901c45725066c" target="_top" xlink:title=" ">
<polygon fill="white" stroke="black" points="398,-299.5 398,-329.5 555,-329.5 555,-299.5 398,-299.5"/>
<text text-anchor="start" x="406" y="-317.5" font-family="Helvetica,sans-Serif" font-size="10.00">v8::internal::LinearAllocation</text>
<text text-anchor="middle" x="476.5" y="-306.5" font-family="Helvetica,sans-Serif" font-size="10.00">Area::start</text>
</a>
</g>
</g>
<!-- Node20&#45;&gt;Node115 -->
<g id="edge41" class="edge">
<title>Node20&#45;&gt;Node115</title>
<path fill="none" stroke="midnightblue" d="M275.53,-485.27C289.16,-452.92 325.53,-377.14 381,-338.5 383.41,-336.82 385.93,-335.26 388.52,-333.81"/>
<polygon fill="midnightblue" stroke="midnightblue" points="390.24,-336.87 397.63,-329.28 387.12,-330.6 390.24,-336.87"/>
</g>
<!-- Node116 -->
<g id="node33" class="node">
<title>Node116</title>
<g id="a_node33"><a xlink:href="classv8_1_1internal_1_1MainAllocator.html#aa6df67abe4fc8708acd6356ca198b61e" target="_top" xlink:title=" ">
<polygon fill="white" stroke="black" points="403.5,-534.5 403.5,-564.5 549.5,-564.5 549.5,-534.5 403.5,-534.5"/>
<text text-anchor="start" x="411.5" y="-552.5" font-family="Helvetica,sans-Serif" font-size="10.00">v8::internal::MainAllocator</text>
<text text-anchor="middle" x="476.5" y="-541.5" font-family="Helvetica,sans-Serif" font-size="10.00">::start</text>
</a>
</g>
</g>
<!-- Node20&#45;&gt;Node116 -->
<g id="edge43" class="edge">
<title>Node20&#45;&gt;Node116</title>
<path fill="none" stroke="midnightblue" d="M332.71,-515.53C354.75,-520.78 379.68,-526.71 402.46,-532.13"/>
<polygon fill="midnightblue" stroke="midnightblue" points="401.87,-535.58 412.41,-534.49 403.49,-528.77 401.87,-535.58"/>
</g>
<!-- Node117 -->
<g id="node34" class="node">
<title>Node117</title>
<g id="a_node34"><a xlink:href="classv8_1_1internal_1_1MainAllocator.html#a3ca1051b8ae88598504c8c8322e8e2d9" target="_top" xlink:title=" ">
<polygon fill="white" stroke="black" points="397.5,-485.5 397.5,-515.5 555.5,-515.5 555.5,-485.5 397.5,-485.5"/>
<text text-anchor="start" x="405.5" y="-503.5" font-family="Helvetica,sans-Serif" font-size="10.00">v8::internal::MainAllocator</text>
<text text-anchor="middle" x="476.5" y="-492.5" font-family="Helvetica,sans-Serif" font-size="10.00">::SupportsAllocationObserver</text>
</a>
</g>
</g>
<!-- Node20&#45;&gt;Node117 -->
<g id="edge44" class="edge">
<title>Node20&#45;&gt;Node117</title>
<path fill="none" stroke="midnightblue" d="M345.04,-500.5C358.71,-500.5 373.08,-500.5 387.09,-500.5"/>
<polygon fill="midnightblue" stroke="midnightblue" points="387.21,-504 397.21,-500.5 387.21,-497 387.21,-504"/>
</g>
<!-- Node118 -->
<g id="node35" class="node">
<title>Node118</title>
<g id="a_node35"><a xlink:href="classv8_1_1internal_1_1LinearAllocationArea.html#adf8dd840f4bc2d66d0d191edcaaba5a9" target="_top" xlink:title=" ">
<polygon fill="white" stroke="black" points="398,-583.5 398,-613.5 555,-613.5 555,-583.5 398,-583.5"/>
<text text-anchor="start" x="406" y="-601.5" font-family="Helvetica,sans-Serif" font-size="10.00">v8::internal::LinearAllocation</text>
<text text-anchor="middle" x="476.5" y="-590.5" font-family="Helvetica,sans-Serif" font-size="10.00">Area::top</text>
</a>
</g>
</g>
<!-- Node20&#45;&gt;Node118 -->
<g id="edge45" class="edge">
<title>Node20&#45;&gt;Node118</title>
<path fill="none" stroke="midnightblue" d="M288.53,-515.72C309.89,-532.13 346.13,-557.96 381,-573.5 386.46,-575.93 392.21,-578.17 398.06,-580.22"/>
<polygon fill="midnightblue" stroke="midnightblue" points="397.39,-583.68 407.98,-583.49 399.58,-577.03 397.39,-583.68"/>
</g>
<!-- Node119 -->
<g id="node36" class="node">
<title>Node119</title>
<g id="a_node36"><a xlink:href="classv8_1_1internal_1_1MainAllocator.html#affcbea59347c2fdd71bfdf184be65197" target="_top" xlink:title=" ">
<polygon fill="white" stroke="black" points="393,-398 393,-417 560,-417 560,-398 393,-398"/>
<text text-anchor="middle" x="476.5" y="-405" font-family="Helvetica,sans-Serif" font-size="10.00">v8::internal::MainAllocator::top</text>
</a>
</g>
</g>
<!-- Node20&#45;&gt;Node119 -->
<g id="edge47" class="edge">
<title>Node20&#45;&gt;Node119</title>
<path fill="none" stroke="midnightblue" d="M287.56,-485.26C308.62,-468.3 345.15,-441.33 381,-426.5 387.29,-423.9 393.96,-421.65 400.74,-419.7"/>
<polygon fill="midnightblue" stroke="midnightblue" points="401.94,-423 410.71,-417.05 400.14,-416.23 401.94,-423"/>
</g>
<!-- Node23 -->
<g id="node23" class="node">
<title>Node23</title>
<g id="a_node23"><a xlink:href="classv8_1_1internal_1_1Heap.html#a3a23faec7844f10a856adbcdd6f367cd" target="_top" xlink:title=" ">
<polygon fill="white" stroke="red" points="627,-88.5 627,-118.5 769,-118.5 769,-88.5 627,-88.5"/>
<text text-anchor="start" x="635" y="-106.5" font-family="Helvetica,sans-Serif" font-size="10.00">v8::internal::Heap</text>
<text text-anchor="middle" x="698" y="-95.5" font-family="Helvetica,sans-Serif" font-size="10.00">::CreateFillerObjectAtRaw</text>
</a>
</g>
</g>
<!-- Node22&#45;&gt;Node23 -->
<g id="edge25" class="edge">
<title>Node22&#45;&gt;Node23</title>
<path fill="none" stroke="midnightblue" d="M537.19,-123.89C561.73,-120.76 590.52,-117.08 616.85,-113.72"/>
<polygon fill="midnightblue" stroke="midnightblue" points="617.33,-117.19 626.81,-112.45 616.45,-110.25 617.33,-117.19"/>
</g>
<!-- Node102 -->
<g id="node24" class="node">
<title>Node102</title>
<g id="a_node24"><a xlink:href="flag-definitions_8h.html#a3df0b28b666e942ffb9d7d04acdb9715" target="_top" xlink:title=" ">
<polygon fill="white" stroke="black" points="824,-118 824,-137 860,-137 860,-118 824,-118"/>
<text text-anchor="middle" x="842" y="-125" font-family="Helvetica,sans-Serif" font-size="10.00">size</text>
</a>
</g>
</g>
<!-- Node22&#45;&gt;Node102 -->
<g id="edge32" class="edge">
<title>Node22&#45;&gt;Node102</title>
<path fill="none" stroke="midnightblue" d="M505.54,-116.4C531.32,-103.43 571.04,-85.72 608,-78.5 686.52,-63.16 713.5,-49.34 788,-78.5 803.99,-84.76 818.05,-98.36 827.67,-109.65"/>
<polygon fill="midnightblue" stroke="midnightblue" points="825.12,-112.07 834.11,-117.67 830.58,-107.68 825.12,-112.07"/>
</g>
<!-- Node104 -->
<g id="node25" class="node">
<title>Node104</title>
<g id="a_node25"><a xlink:href="classv8_1_1internal_1_1WritableFreeSpace.html#a1d0de8c10df4b35fd3338eb4e9dd9ab0" target="_top" xlink:title=" ">
<polygon fill="white" stroke="red" points="608,-186.5 608,-216.5 788,-216.5 788,-186.5 608,-186.5"/>
<text text-anchor="start" x="616" y="-204.5" font-family="Helvetica,sans-Serif" font-size="10.00">v8::internal::WritableFree</text>
<text text-anchor="middle" x="698" y="-193.5" font-family="Helvetica,sans-Serif" font-size="10.00">Space::ForNonExecutableMemory</text>
</a>
</g>
</g>
<!-- Node22&#45;&gt;Node104 -->
<g id="edge27" class="edge">
<title>Node22&#45;&gt;Node104</title>
<path fill="none" stroke="midnightblue" d="M519.02,-146.51C544.57,-155.57 578.04,-167.13 608,-176.5 615.62,-178.88 623.65,-181.28 631.62,-183.61"/>
<polygon fill="midnightblue" stroke="midnightblue" points="630.73,-186.99 641.31,-186.39 632.66,-180.26 630.73,-186.99"/>
</g>
<!-- Node106 -->
<g id="node26" class="node">
<title>Node106</title>
<g id="a_node26"><a xlink:href="classv8_1_1internal_1_1WritableJitPage.html#ad72e239c41fa498eb0cc9df6ed112eb4" target="_top" xlink:title=" ">
<polygon fill="white" stroke="red" points="633.5,-137.5 633.5,-167.5 762.5,-167.5 762.5,-137.5 633.5,-137.5"/>
<text text-anchor="start" x="641.5" y="-155.5" font-family="Helvetica,sans-Serif" font-size="10.00">v8::internal::WritableJit</text>
<text text-anchor="middle" x="698" y="-144.5" font-family="Helvetica,sans-Serif" font-size="10.00">Page::FreeRange</text>
</a>
</g>
</g>
<!-- Node22&#45;&gt;Node106 -->
<g id="edge29" class="edge">
<title>Node22&#45;&gt;Node106</title>
<path fill="none" stroke="midnightblue" d="M537.19,-137.21C563.76,-139.75 595.31,-142.77 623.33,-145.45"/>
<polygon fill="midnightblue" stroke="midnightblue" points="623.19,-148.95 633.48,-146.42 623.86,-141.99 623.19,-148.95"/>
</g>
<!-- Node33 -->
<g id="node27" class="node">
<title>Node33</title>
<g id="a_node27"><a xlink:href="classv8_1_1internal_1_1MemoryChunk.html#a1c9e126ddfcab88ef54ab6a899ece138" target="_top" xlink:title=" ">
<polygon fill="white" stroke="black" points="623.5,-0.5 623.5,-30.5 772.5,-30.5 772.5,-0.5 623.5,-0.5"/>
<text text-anchor="start" x="631.5" y="-18.5" font-family="Helvetica,sans-Serif" font-size="10.00">v8::internal::MemoryChunk</text>
<text text-anchor="middle" x="698" y="-7.5" font-family="Helvetica,sans-Serif" font-size="10.00">::FromAddress</text>
</a>
</g>
</g>
<!-- Node22&#45;&gt;Node33 -->
<g id="edge31" class="edge">
<title>Node22&#45;&gt;Node33</title>
<path fill="none" stroke="midnightblue" d="M496.88,-116.41C521.56,-97.75 566.06,-65.96 608,-45.5 616.59,-41.31 625.92,-37.46 635.19,-34.02"/>
<polygon fill="midnightblue" stroke="midnightblue" points="636.56,-37.25 644.8,-30.59 634.2,-30.66 636.56,-37.25"/>
</g>
<!-- Node23&#45;&gt;Node102 -->
<g id="edge26" class="edge">
<title>Node23&#45;&gt;Node102</title>
<path fill="none" stroke="midnightblue" d="M769.17,-115.36C785.11,-118.05 801.1,-120.76 813.94,-122.93"/>
<polygon fill="midnightblue" stroke="midnightblue" points="813.47,-126.4 823.91,-124.61 814.63,-119.49 813.47,-126.4"/>
</g>
<!-- Node104&#45;&gt;Node102 -->
<g id="edge28" class="edge">
<title>Node104&#45;&gt;Node102</title>
<path fill="none" stroke="midnightblue" d="M766,-186.43C773.64,-183.62 781.14,-180.34 788,-176.5 802.64,-168.31 816.46,-155.29 826.32,-144.72"/>
<polygon fill="midnightblue" stroke="midnightblue" points="828.96,-147.03 833.03,-137.25 823.75,-142.35 828.96,-147.03"/>
</g>
<!-- Node106&#45;&gt;Node102 -->
<g id="edge30" class="edge">
<title>Node106&#45;&gt;Node102</title>
<path fill="none" stroke="midnightblue" d="M762.52,-141.32C780.59,-138.14 799.31,-134.84 813.93,-132.27"/>
<polygon fill="midnightblue" stroke="midnightblue" points="814.54,-135.71 823.78,-130.53 813.33,-128.82 814.54,-135.71"/>
</g>
<!-- Node111&#45;&gt;Node13 -->
<g id="edge35" class="edge">
<title>Node111&#45;&gt;Node13</title>
<path fill="none" stroke="midnightblue" d="M572.18,-256.87C591,-255.16 610.42,-253.39 628.17,-251.77"/>
<polygon fill="midnightblue" stroke="midnightblue" points="628.77,-255.23 638.41,-250.84 628.13,-248.26 628.77,-255.23"/>
</g>
<!-- Node113 -->
<g id="node30" class="node">
<title>Node113</title>
<g id="a_node30"><a xlink:href="classv8_1_1internal_1_1LinearAllocationArea.html#af1768b9f5d7707a260b87e65a1cb45fa" target="_top" xlink:title=" ">
<polygon fill="white" stroke="red" points="619.5,-436.5 619.5,-466.5 776.5,-466.5 776.5,-436.5 619.5,-436.5"/>
<text text-anchor="start" x="627.5" y="-454.5" font-family="Helvetica,sans-Serif" font-size="10.00">v8::internal::LinearAllocation</text>
<text text-anchor="middle" x="698" y="-443.5" font-family="Helvetica,sans-Serif" font-size="10.00">Area::Verify</text>
</a>
</g>
</g>
<!-- Node112&#45;&gt;Node113 -->
<g id="edge38" class="edge">
<title>Node112&#45;&gt;Node113</title>
<path fill="none" stroke="midnightblue" d="M555.2,-451.5C572.62,-451.5 591.22,-451.5 609.03,-451.5"/>
<polygon fill="midnightblue" stroke="midnightblue" points="609.41,-455 619.41,-451.5 609.41,-448 609.41,-455"/>
</g>
<!-- Node115&#45;&gt;Node113 -->
<g id="edge42" class="edge">
<title>Node115&#45;&gt;Node113</title>
<path fill="none" stroke="midnightblue" d="M551.57,-329.56C558.66,-332.1 565.58,-335.06 572,-338.5 615.05,-361.56 655.1,-402.6 677.77,-428.36"/>
<polygon fill="midnightblue" stroke="midnightblue" points="675.31,-430.87 684.5,-436.14 680.61,-426.29 675.31,-430.87"/>
</g>
<!-- Node118&#45;&gt;Node113 -->
<g id="edge46" class="edge">
<title>Node118&#45;&gt;Node113</title>
<path fill="none" stroke="midnightblue" d="M550.24,-583.41C557.81,-580.63 565.21,-577.35 572,-573.5 616.94,-548.01 657.43,-502.41 679.49,-474.76"/>
<polygon fill="midnightblue" stroke="midnightblue" points="682.31,-476.83 685.72,-466.8 676.8,-472.51 682.31,-476.83"/>
</g>
</g>
</svg>
        <g id="navigator" transform="translate(0 0)" fill="#404254">
                <rect fill="#f2f5e9" fill-opacity="0.5" stroke="#606060" stroke-width=".5" x="0" y="0" width="60" height="60"/>
                <use id="zoomplus" xlink:href="#zoomPlus" x="17" y="9" onmousedown="handleZoom(evt,'in')"/>
                <use id="zoomminus" xlink:href="#zoomMin" x="42" y="9" onmousedown="handleZoom(evt,'out')"/>
                <use id="reset" xlink:href="#resetDef" x="30" y="36" onmousedown="handleReset()"/>
                <g id="arrowUp" xlink:href="#dirArrow" transform="translate(30 24)" onmousedown="handlePan(0,-1)">
                  <use xlink:href="#rim" fill="#404040">
                        <set attributeName="fill" to="#808080" begin="arrowUp.mouseover" end="arrowUp.mouseout"/>
                  </use>
                  <path fill="none" stroke="white" stroke-width="1.5" d="M0,-3.0v7 M-2.5,-0.5L0,-3.0L2.5,-0.5"/>
                </g>
                <g id="arrowRight" xlink:href="#dirArrow" transform="rotate(90) translate(36 -43)" onmousedown="handlePan(1,0)">
                  <use xlink:href="#rim" fill="#404040">
                        <set attributeName="fill" to="#808080" begin="arrowRight.mouseover" end="arrowRight.mouseout"/>
                  </use>
                  <path fill="none" stroke="white" stroke-width="1.5" d="M0,-3.0v7 M-2.5,-0.5L0,-3.0L2.5,-0.5"/>
                </g>
                <g id="arrowDown" xlink:href="#dirArrow" transform="rotate(180) translate(-30 -48)" onmousedown="handlePan(0,1)">
                  <use xlink:href="#rim" fill="#404040">
                        <set attributeName="fill" to="#808080" begin="arrowDown.mouseover" end="arrowDown.mouseout"/>
                  </use>
                  <path fill="none" stroke="white" stroke-width="1.5" d="M0,-3.0v7 M-2.5,-0.5L0,-3.0L2.5,-0.5"/>
                </g>
                <g id="arrowLeft" xlink:href="#dirArrow" transform="rotate(270) translate(-36 17)" onmousedown="handlePan(-1,0)">
                  <use xlink:href="#rim" fill="#404040">
                        <set attributeName="fill" to="#808080" begin="arrowLeft.mouseover" end="arrowLeft.mouseout"/>
                  </use>
                  <path fill="none" stroke="white" stroke-width="1.5" d="M0,-3.0v7 M-2.5,-0.5L0,-3.0L2.5,-0.5"/>
                </g>
        </g>
        <svg viewBox="0 0 15 15" width="100%" height="30px" preserveAspectRatio="xMaxYMin meet">
         <g id="arrow_out" transform="scale(0.3 0.3)">
          <a xlink:href="classv8_1_1internal_1_1MainAllocator_a4b3442c870f7f5931a9a921f3461d02e_cgraph_org.svg" target="_base">
           <rect id="button" ry="5" rx="5" y="6" x="6" height="38" width="38"
                fill="#f2f5e9" fill-opacity="0.5" stroke="#606060" stroke-width="1.0"/>
           <path id="arrow"
             d="M 11.500037,31.436501 C 11.940474,20.09759 22.043105,11.32322 32.158766,21.979434 L 37.068811,17.246167 C 37.068811,17.246167 37.088388,32 37.088388,32 L 22.160133,31.978069 C 22.160133,31.978069 26.997745,27.140456 26.997745,27.140456 C 18.528582,18.264221 13.291696,25.230495 11.500037,31.436501 z"
             style="fill:#404040;"/>
          </a>
         </g>
        </svg>
</svg>
