<?xml version="1.0" encoding="UTF-8" standalone="no"?>
<!DOCTYPE svg PUBLIC "-//W3C//DTD SVG 1.1//EN"
 "http://www.w3.org/Graphics/SVG/1.1/DTD/svg11.dtd">
<!-- Generated by graphviz version 2.43.0 (0)
 -->
<!-- Title: v8::internal::compiler::CodeAssembler::SmiConstant Pages: 1 -->
<svg width="766pt" height="176pt"
 viewBox="0.00 0.00 766.00 175.50" xmlns="http://www.w3.org/2000/svg" xmlns:xlink="http://www.w3.org/1999/xlink">
<g id="graph0" class="graph" transform="scale(1 1) rotate(0) translate(4 171.5)">
<title>v8::internal::compiler::CodeAssembler::SmiConstant</title>
<polygon fill="white" stroke="transparent" points="-4,4 -4,-171.5 762,-171.5 762,4 -4,4"/>
<!-- Node1 -->
<g id="node1" class="node">
<title>Node1</title>
<g id="a_node1"><a xlink:title=" ">
<polygon fill="#bfbfbf" stroke="black" points="0,-48.5 0,-78.5 167,-78.5 167,-48.5 0,-48.5"/>
<text text-anchor="start" x="8" y="-66.5" font-family="Helvetica,sans-Serif" font-size="10.00">v8::internal::compiler</text>
<text text-anchor="middle" x="83.5" y="-55.5" font-family="Helvetica,sans-Serif" font-size="10.00">::CodeAssembler::SmiConstant</text>
</a>
</g>
</g>
<!-- Node2 -->
<g id="node2" class="node">
<title>Node2</title>
<g id="a_node2"><a xlink:href="classv8_1_1internal_1_1Smi.html#afe7f07102d90ccce48cbe677c88a0645" target="_top" xlink:title=" ">
<polygon fill="white" stroke="black" points="235,-85.5 235,-115.5 338,-115.5 338,-85.5 235,-85.5"/>
<text text-anchor="start" x="243" y="-103.5" font-family="Helvetica,sans-Serif" font-size="10.00">v8::internal::Smi::</text>
<text text-anchor="middle" x="286.5" y="-92.5" font-family="Helvetica,sans-Serif" font-size="10.00">FromInt</text>
</a>
</g>
</g>
<!-- Node1&#45;&gt;Node2 -->
<g id="edge1" class="edge">
<title>Node1&#45;&gt;Node2</title>
<path fill="none" stroke="midnightblue" d="M166.25,-78.55C185.88,-82.16 206.49,-85.96 224.96,-89.36"/>
<polygon fill="midnightblue" stroke="midnightblue" points="224.51,-92.83 234.97,-91.2 225.77,-85.95 224.51,-92.83"/>
</g>
<!-- Node12 -->
<g id="node7" class="node">
<title>Node12</title>
<g id="a_node7"><a xlink:href="classv8_1_1internal_1_1compiler_1_1CodeAssembler.html#a7f20870b92066be2b0aa66a317095ae4" target="_top" xlink:title=" ">
<polygon fill="white" stroke="black" points="203,-24.5 203,-54.5 370,-54.5 370,-24.5 203,-24.5"/>
<text text-anchor="start" x="211" y="-42.5" font-family="Helvetica,sans-Serif" font-size="10.00">v8::internal::compiler</text>
<text text-anchor="middle" x="286.5" y="-31.5" font-family="Helvetica,sans-Serif" font-size="10.00">::CodeAssembler::SmiConstant</text>
</a>
</g>
</g>
<!-- Node1&#45;&gt;Node12 -->
<g id="edge6" class="edge">
<title>Node1&#45;&gt;Node12</title>
<path fill="none" stroke="midnightblue" d="M167.12,-53.63C175.61,-52.62 184.27,-51.59 192.85,-50.56"/>
<polygon fill="midnightblue" stroke="midnightblue" points="193.36,-54.03 202.87,-49.37 192.53,-47.08 193.36,-54.03"/>
</g>
<!-- Node3 -->
<g id="node3" class="node">
<title>Node3</title>
<g id="a_node3"><a xlink:href="namespacev8_1_1internal.html#aa6b3743bd5d773c552654f2a6c3efa4a" target="_top" xlink:title=" ">
<polygon fill="white" stroke="black" points="434,-148 434,-167 553,-167 553,-148 434,-148"/>
<text text-anchor="middle" x="493.5" y="-155" font-family="Helvetica,sans-Serif" font-size="10.00">v8::internal::DCHECK</text>
</a>
</g>
</g>
<!-- Node2&#45;&gt;Node3 -->
<g id="edge2" class="edge">
<title>Node2&#45;&gt;Node3</title>
<path fill="none" stroke="midnightblue" d="M331.1,-115.57C353.37,-122.98 380.97,-131.75 406,-138.5 415.37,-141.02 425.37,-143.46 435.12,-145.69"/>
<polygon fill="midnightblue" stroke="midnightblue" points="434.64,-149.17 445.17,-147.95 436.18,-142.34 434.64,-149.17"/>
</g>
<!-- Node4 -->
<g id="node4" class="node">
<title>Node4</title>
<g id="a_node4"><a xlink:href="classv8_1_1internal_1_1Internals.html#a534069628ce205d49e0933ac1b10afd7" target="_top" xlink:title=" ">
<polygon fill="white" stroke="black" points="433,-98.5 433,-128.5 554,-128.5 554,-98.5 433,-98.5"/>
<text text-anchor="start" x="441" y="-116.5" font-family="Helvetica,sans-Serif" font-size="10.00">v8::internal::Internals</text>
<text text-anchor="middle" x="493.5" y="-105.5" font-family="Helvetica,sans-Serif" font-size="10.00">::IntegralToSmi</text>
</a>
</g>
</g>
<!-- Node2&#45;&gt;Node4 -->
<g id="edge3" class="edge">
<title>Node2&#45;&gt;Node4</title>
<path fill="none" stroke="midnightblue" d="M338.17,-103.71C363.73,-105.33 395.12,-107.32 422.9,-109.09"/>
<polygon fill="midnightblue" stroke="midnightblue" points="422.75,-112.58 432.95,-109.72 423.19,-105.6 422.75,-112.58"/>
</g>
<!-- Node5 -->
<g id="node5" class="node">
<title>Node5</title>
<g id="a_node5"><a xlink:href="classv8_1_1internal_1_1Smi.html#a9ae5e57f47d054b5636f7519a8c31898" target="_top" xlink:title=" ">
<polygon fill="white" stroke="black" points="442,-49.5 442,-79.5 545,-79.5 545,-49.5 442,-49.5"/>
<text text-anchor="start" x="450" y="-67.5" font-family="Helvetica,sans-Serif" font-size="10.00">v8::internal::Smi::</text>
<text text-anchor="middle" x="493.5" y="-56.5" font-family="Helvetica,sans-Serif" font-size="10.00">IsValid</text>
</a>
</g>
</g>
<!-- Node2&#45;&gt;Node5 -->
<g id="edge4" class="edge">
<title>Node2&#45;&gt;Node5</title>
<path fill="none" stroke="midnightblue" d="M338.17,-91.6C366.51,-86.63 402.02,-80.39 431.83,-75.15"/>
<polygon fill="midnightblue" stroke="midnightblue" points="432.45,-78.6 441.7,-73.42 431.24,-71.7 432.45,-78.6"/>
</g>
<!-- Node6 -->
<g id="node6" class="node">
<title>Node6</title>
<g id="a_node6"><a xlink:href="classv8_1_1internal_1_1Internals.html#a542b9a57155b448700a5ffd2007af909" target="_top" xlink:title=" ">
<polygon fill="white" stroke="red" points="627,-49.5 627,-79.5 748,-79.5 748,-49.5 627,-49.5"/>
<text text-anchor="start" x="635" y="-67.5" font-family="Helvetica,sans-Serif" font-size="10.00">v8::internal::Internals</text>
<text text-anchor="middle" x="687.5" y="-56.5" font-family="Helvetica,sans-Serif" font-size="10.00">::IsValidSmi</text>
</a>
</g>
</g>
<!-- Node5&#45;&gt;Node6 -->
<g id="edge5" class="edge">
<title>Node5&#45;&gt;Node6</title>
<path fill="none" stroke="midnightblue" d="M545.2,-64.5C567.17,-64.5 593.25,-64.5 616.98,-64.5"/>
<polygon fill="midnightblue" stroke="midnightblue" points="616.99,-68 626.99,-64.5 616.99,-61 616.99,-68"/>
</g>
<!-- Node13 -->
<g id="node8" class="node">
<title>Node13</title>
<g id="a_node8"><a xlink:href="classv8_1_1internal_1_1compiler_1_1CodeAssembler.html#a24b1bfe286ec10b56edc3a8bca1f939f" target="_top" xlink:title=" ">
<polygon fill="white" stroke="black" points="406,-0.5 406,-30.5 581,-30.5 581,-0.5 406,-0.5"/>
<text text-anchor="start" x="414" y="-18.5" font-family="Helvetica,sans-Serif" font-size="10.00">v8::internal::compiler</text>
<text text-anchor="middle" x="493.5" y="-7.5" font-family="Helvetica,sans-Serif" font-size="10.00">::CodeAssembler::IntPtrConstant</text>
</a>
</g>
</g>
<!-- Node12&#45;&gt;Node13 -->
<g id="edge7" class="edge">
<title>Node12&#45;&gt;Node13</title>
<path fill="none" stroke="midnightblue" d="M370.29,-29.81C378.68,-28.83 387.25,-27.82 395.76,-26.83"/>
<polygon fill="midnightblue" stroke="midnightblue" points="396.2,-30.3 405.72,-25.66 395.38,-23.35 396.2,-30.3"/>
</g>
<!-- Node14 -->
<g id="node9" class="node">
<title>Node14</title>
<g id="a_node9"><a xlink:href="classv8_1_1internal_1_1compiler_1_1CodeAssembler.html#a73e60713b1c509a488abf9fad8fbd6fd" target="_top" xlink:title=" ">
<polygon fill="white" stroke="black" points="617,-0.5 617,-30.5 758,-30.5 758,-0.5 617,-0.5"/>
<text text-anchor="start" x="625" y="-18.5" font-family="Helvetica,sans-Serif" font-size="10.00">v8::internal::compiler</text>
<text text-anchor="middle" x="687.5" y="-7.5" font-family="Helvetica,sans-Serif" font-size="10.00">::CodeAssembler::jsgraph</text>
</a>
</g>
</g>
<!-- Node13&#45;&gt;Node14 -->
<g id="edge8" class="edge">
<title>Node13&#45;&gt;Node14</title>
<path fill="none" stroke="midnightblue" d="M581.23,-15.5C589.71,-15.5 598.29,-15.5 606.69,-15.5"/>
<polygon fill="midnightblue" stroke="midnightblue" points="606.84,-19 616.84,-15.5 606.84,-12 606.84,-19"/>
</g>
</g>
</svg>
