<?xml version="1.0" encoding="UTF-8" standalone="no"?>
<!DOCTYPE svg PUBLIC "-//W3C//DTD SVG 1.1//EN"
 "http://www.w3.org/Graphics/SVG/1.1/DTD/svg11.dtd">
<!-- Generated by graphviz version 2.43.0 (0)
 -->
<!-- Title: v8::internal::EhFrameWriter::WritePaddingToAlignedSize Pages: 1 -->
<svg width="748pt" height="105pt"
 viewBox="0.00 0.00 748.00 105.00" xmlns="http://www.w3.org/2000/svg" xmlns:xlink="http://www.w3.org/1999/xlink">
<g id="graph0" class="graph" transform="scale(1 1) rotate(0) translate(4 101)">
<title>v8::internal::EhFrameWriter::WritePaddingToAlignedSize</title>
<polygon fill="white" stroke="transparent" points="-4,4 -4,-101 744,-101 744,4 -4,4"/>
<!-- Node1 -->
<g id="node1" class="node">
<title>Node1</title>
<g id="a_node1"><a xlink:title=" ">
<polygon fill="#bfbfbf" stroke="black" points="585,-33 585,-63 740,-63 740,-33 585,-33"/>
<text text-anchor="start" x="593" y="-51" font-family="Helvetica,sans-Serif" font-size="10.00">v8::internal::EhFrameWriter</text>
<text text-anchor="middle" x="662.5" y="-40" font-family="Helvetica,sans-Serif" font-size="10.00">::WritePaddingToAlignedSize</text>
</a>
</g>
</g>
<!-- Node2 -->
<g id="node2" class="node">
<title>Node2</title>
<g id="a_node2"><a xlink:href="classv8_1_1internal_1_1EhFrameWriter.html#a8cc8e467ec959d5e2294cb3e3f56d817" target="_top" xlink:title=" ">
<polygon fill="white" stroke="black" points="398,-59 398,-89 549,-89 549,-59 398,-59"/>
<text text-anchor="start" x="406" y="-77" font-family="Helvetica,sans-Serif" font-size="10.00">v8::internal::EhFrameWriter</text>
<text text-anchor="middle" x="473.5" y="-66" font-family="Helvetica,sans-Serif" font-size="10.00">::Finish</text>
</a>
</g>
</g>
<!-- Node1&#45;&gt;Node2 -->
<g id="edge1" class="edge">
<title>Node1&#45;&gt;Node2</title>
<path fill="none" stroke="midnightblue" d="M574.87,-60.04C566.28,-61.24 557.62,-62.44 549.17,-63.62"/>
<polygon fill="midnightblue" stroke="midnightblue" points="575.48,-63.49 584.9,-58.65 574.51,-56.56 575.48,-63.49"/>
</g>
<!-- Node6 -->
<g id="node5" class="node">
<title>Node6</title>
<g id="a_node5"><a xlink:href="classv8_1_1internal_1_1EhFrameWriter.html#a1d97922fe8446d8fc0531e329b3300fd" target="_top" xlink:title=" ">
<polygon fill="white" stroke="black" points="398,-9 398,-39 549,-39 549,-9 398,-9"/>
<text text-anchor="start" x="406" y="-27" font-family="Helvetica,sans-Serif" font-size="10.00">v8::internal::EhFrameWriter</text>
<text text-anchor="middle" x="473.5" y="-16" font-family="Helvetica,sans-Serif" font-size="10.00">::WriteCie</text>
</a>
</g>
</g>
<!-- Node1&#45;&gt;Node6 -->
<g id="edge4" class="edge">
<title>Node1&#45;&gt;Node6</title>
<path fill="none" stroke="midnightblue" d="M574.87,-36.88C566.28,-35.78 557.62,-34.67 549.17,-33.58"/>
<polygon fill="midnightblue" stroke="midnightblue" points="574.54,-40.37 584.9,-38.17 575.43,-33.42 574.54,-40.37"/>
</g>
<!-- Node3 -->
<g id="node3" class="node">
<title>Node3</title>
<g id="a_node3"><a xlink:href="classv8_1_1internal_1_1compiler_1_1UnwindingInfoWriter.html#a7dd0336aa10a53ee8dd31c57179c9778" target="_top" xlink:title=" ">
<polygon fill="white" stroke="black" points="225,-55.5 225,-96.5 348,-96.5 348,-55.5 225,-55.5"/>
<text text-anchor="start" x="233" y="-84.5" font-family="Helvetica,sans-Serif" font-size="10.00">v8::internal::compiler</text>
<text text-anchor="start" x="233" y="-73.5" font-family="Helvetica,sans-Serif" font-size="10.00">::UnwindingInfoWriter</text>
<text text-anchor="middle" x="286.5" y="-62.5" font-family="Helvetica,sans-Serif" font-size="10.00">::Finish</text>
</a>
</g>
</g>
<!-- Node2&#45;&gt;Node3 -->
<g id="edge2" class="edge">
<title>Node2&#45;&gt;Node3</title>
<path fill="none" stroke="midnightblue" d="M387.62,-74.92C374.26,-75.06 360.68,-75.21 348.01,-75.35"/>
<polygon fill="midnightblue" stroke="midnightblue" points="387.83,-78.42 397.79,-74.81 387.75,-71.42 387.83,-78.42"/>
</g>
<!-- Node4 -->
<g id="node4" class="node">
<title>Node4</title>
<g id="a_node4"><a xlink:href="classv8_1_1internal_1_1compiler_1_1CodeGenerator.html#a66b300247e9913b6e1e1d8b79c7f857c" target="_top" xlink:title=" ">
<polygon fill="white" stroke="red" points="0,-61 0,-91 175,-91 175,-61 0,-61"/>
<text text-anchor="start" x="8" y="-79" font-family="Helvetica,sans-Serif" font-size="10.00">v8::internal::compiler</text>
<text text-anchor="middle" x="87.5" y="-68" font-family="Helvetica,sans-Serif" font-size="10.00">::CodeGenerator::AssembleCode</text>
</a>
</g>
</g>
<!-- Node3&#45;&gt;Node4 -->
<g id="edge3" class="edge">
<title>Node3&#45;&gt;Node4</title>
<path fill="none" stroke="midnightblue" d="M214.66,-76C201.82,-76 188.31,-76 175.09,-76"/>
<polygon fill="midnightblue" stroke="midnightblue" points="214.79,-79.5 224.79,-76 214.79,-72.5 214.79,-79.5"/>
</g>
<!-- Node7 -->
<g id="node6" class="node">
<title>Node7</title>
<g id="a_node6"><a xlink:href="classv8_1_1internal_1_1EhFrameWriter.html#a610f5bcafa5df45bcad90a9c85a9af55" target="_top" xlink:title=" ">
<polygon fill="white" stroke="black" points="211,-6 211,-36 362,-36 362,-6 211,-6"/>
<text text-anchor="start" x="219" y="-24" font-family="Helvetica,sans-Serif" font-size="10.00">v8::internal::EhFrameWriter</text>
<text text-anchor="middle" x="286.5" y="-13" font-family="Helvetica,sans-Serif" font-size="10.00">::Initialize</text>
</a>
</g>
</g>
<!-- Node6&#45;&gt;Node7 -->
<g id="edge5" class="edge">
<title>Node6&#45;&gt;Node7</title>
<path fill="none" stroke="midnightblue" d="M387.53,-22.62C379.07,-22.48 370.53,-22.35 362.19,-22.21"/>
<polygon fill="midnightblue" stroke="midnightblue" points="387.73,-26.13 397.79,-22.79 387.84,-19.13 387.73,-26.13"/>
</g>
<!-- Node8 -->
<g id="node7" class="node">
<title>Node8</title>
<g id="a_node7"><a xlink:href="classv8_1_1internal_1_1compiler_1_1UnwindingInfoWriter.html#ab9baf225b2104df264b3cf7b1a5b7cce" target="_top" xlink:title=" ">
<polygon fill="white" stroke="black" points="26,-0.5 26,-41.5 149,-41.5 149,-0.5 26,-0.5"/>
<text text-anchor="start" x="34" y="-29.5" font-family="Helvetica,sans-Serif" font-size="10.00">v8::internal::compiler</text>
<text text-anchor="start" x="34" y="-18.5" font-family="Helvetica,sans-Serif" font-size="10.00">::UnwindingInfoWriter</text>
<text text-anchor="middle" x="87.5" y="-7.5" font-family="Helvetica,sans-Serif" font-size="10.00">::UnwindingInfoWriter</text>
</a>
</g>
</g>
<!-- Node7&#45;&gt;Node8 -->
<g id="edge6" class="edge">
<title>Node7&#45;&gt;Node8</title>
<path fill="none" stroke="midnightblue" d="M200.62,-21C183.3,-21 165.4,-21 149.13,-21"/>
<polygon fill="midnightblue" stroke="midnightblue" points="200.74,-24.5 210.74,-21 200.74,-17.5 200.74,-24.5"/>
</g>
</g>
</svg>
