<?xml version="1.0" encoding="UTF-8" standalone="no"?>
<!DOCTYPE svg PUBLIC "-//W3C//DTD SVG 1.1//EN"
 "http://www.w3.org/Graphics/SVG/1.1/DTD/svg11.dtd">
<!-- Generated by graphviz version 2.43.0 (0)
 -->
<!-- Title: v8::internal::compiler::turboshaft::MachineLoweringReducer::ChangeOrDeopt Pages: 1 -->
<svg width="799pt" height="198pt"
 viewBox="0.00 0.00 799.00 197.50" xmlns="http://www.w3.org/2000/svg" xmlns:xlink="http://www.w3.org/1999/xlink">
<g id="graph0" class="graph" transform="scale(1 1) rotate(0) translate(4 193.5)">
<title>v8::internal::compiler::turboshaft::MachineLoweringReducer::ChangeOrDeopt</title>
<polygon fill="white" stroke="transparent" points="-4,4 -4,-193.5 795,-193.5 795,4 -4,4"/>
<!-- Node1 -->
<g id="node1" class="node">
<title>Node1</title>
<g id="a_node1"><a xlink:title=" ">
<polygon fill="#bfbfbf" stroke="black" points="0,-73.5 0,-114.5 164,-114.5 164,-73.5 0,-73.5"/>
<text text-anchor="start" x="8" y="-102.5" font-family="Helvetica,sans-Serif" font-size="10.00">v8::internal::compiler</text>
<text text-anchor="start" x="8" y="-91.5" font-family="Helvetica,sans-Serif" font-size="10.00">::turboshaft::MachineLowering</text>
<text text-anchor="middle" x="82" y="-80.5" font-family="Helvetica,sans-Serif" font-size="10.00">Reducer::ChangeOrDeopt</text>
</a>
</g>
</g>
<!-- Node2 -->
<g id="node2" class="node">
<title>Node2</title>
<g id="a_node2"><a xlink:href="classv8_1_1internal_1_1compiler_1_1turboshaft_1_1V.html#aa66813fba227046c459b21739333ef6b" target="_top" xlink:title=" ">
<polygon fill="white" stroke="black" points="230,-159 230,-189 351,-189 351,-159 230,-159"/>
<text text-anchor="start" x="238" y="-177" font-family="Helvetica,sans-Serif" font-size="10.00">v8::internal::compiler</text>
<text text-anchor="middle" x="290.5" y="-166" font-family="Helvetica,sans-Serif" font-size="10.00">::turboshaft::V::Cast</text>
</a>
</g>
</g>
<!-- Node1&#45;&gt;Node2 -->
<g id="edge1" class="edge">
<title>Node1&#45;&gt;Node2</title>
<path fill="none" stroke="midnightblue" d="M122.36,-114.52C144.73,-125.67 173.49,-139.15 200,-149 206.65,-151.47 213.66,-153.84 220.71,-156.05"/>
<polygon fill="midnightblue" stroke="midnightblue" points="219.73,-159.41 230.32,-158.98 221.77,-152.71 219.73,-159.41"/>
</g>
<!-- Node3 -->
<g id="node3" class="node">
<title>Node3</title>
<g id="a_node3"><a xlink:href="classv8_1_1internal_1_1compiler_1_1turboshaft_1_1MachineLoweringReducer.html#a2bf32e5e23fe30eabb7934a05fd0a4fc" target="_top" xlink:title=" ">
<polygon fill="white" stroke="black" points="208.5,-98.5 208.5,-139.5 372.5,-139.5 372.5,-98.5 208.5,-98.5"/>
<text text-anchor="start" x="216.5" y="-127.5" font-family="Helvetica,sans-Serif" font-size="10.00">v8::internal::compiler</text>
<text text-anchor="start" x="216.5" y="-116.5" font-family="Helvetica,sans-Serif" font-size="10.00">::turboshaft::MachineLowering</text>
<text text-anchor="middle" x="290.5" y="-105.5" font-family="Helvetica,sans-Serif" font-size="10.00">Reducer::DeoptimizeIf</text>
</a>
</g>
</g>
<!-- Node1&#45;&gt;Node3 -->
<g id="edge2" class="edge">
<title>Node1&#45;&gt;Node3</title>
<path fill="none" stroke="midnightblue" d="M164.02,-103.81C175.3,-105.17 186.94,-106.58 198.38,-107.97"/>
<polygon fill="midnightblue" stroke="midnightblue" points="198.02,-111.45 208.37,-109.18 198.87,-104.5 198.02,-111.45"/>
</g>
<!-- Node10 -->
<g id="node9" class="node">
<title>Node10</title>
<g id="a_node9"><a xlink:href="namespacev8_1_1internal.html#acdec713c25068019f935e35976f5b666" target="_top" xlink:title=" ">
<polygon fill="white" stroke="black" points="214.5,-60.5 214.5,-79.5 366.5,-79.5 366.5,-60.5 214.5,-60.5"/>
<text text-anchor="middle" x="290.5" y="-67.5" font-family="Helvetica,sans-Serif" font-size="10.00">v8::internal::UNREACHABLE</text>
</a>
</g>
</g>
<!-- Node1&#45;&gt;Node10 -->
<g id="edge8" class="edge">
<title>Node1&#45;&gt;Node10</title>
<path fill="none" stroke="midnightblue" d="M164.02,-84.58C177.26,-83.05 191.01,-81.45 204.34,-79.9"/>
<polygon fill="midnightblue" stroke="midnightblue" points="204.91,-83.36 214.44,-78.72 204.1,-76.4 204.91,-83.36"/>
</g>
<!-- Node11 -->
<g id="node10" class="node">
<title>Node11</title>
<g id="a_node10"><a xlink:href="namespacev8_1_1internal_1_1TorqueRuntimeMacroShims_1_1CodeStubAssembler.html#ae3043c2e14617cc319d1bdede6d371cc" target="_top" xlink:title=" ">
<polygon fill="white" stroke="black" points="200,-0.5 200,-41.5 381,-41.5 381,-0.5 200,-0.5"/>
<text text-anchor="start" x="208" y="-29.5" font-family="Helvetica,sans-Serif" font-size="10.00">v8::internal::TorqueRuntime</text>
<text text-anchor="start" x="208" y="-18.5" font-family="Helvetica,sans-Serif" font-size="10.00">MacroShims::CodeStubAssembler</text>
<text text-anchor="middle" x="290.5" y="-7.5" font-family="Helvetica,sans-Serif" font-size="10.00">::Word32Equal</text>
</a>
</g>
</g>
<!-- Node1&#45;&gt;Node11 -->
<g id="edge9" class="edge">
<title>Node1&#45;&gt;Node11</title>
<path fill="none" stroke="midnightblue" d="M137.94,-73.44C157.49,-66.22 179.68,-58.14 200,-51 205.78,-48.97 211.79,-46.89 217.82,-44.82"/>
<polygon fill="midnightblue" stroke="midnightblue" points="218.98,-48.13 227.31,-41.59 216.72,-41.5 218.98,-48.13"/>
</g>
<!-- Node4 -->
<g id="node4" class="node">
<title>Node4</title>
<g id="a_node4"><a xlink:href="namespacev8_1_1internal_1_1compiler_1_1turboshaft.html#a2b5e79bd829824237e784a6cde29309e" target="_top" xlink:title=" ">
<polygon fill="white" stroke="black" points="465,-153 465,-183 586,-183 586,-153 465,-153"/>
<text text-anchor="start" x="473" y="-171" font-family="Helvetica,sans-Serif" font-size="10.00">v8::internal::compiler</text>
<text text-anchor="middle" x="525.5" y="-160" font-family="Helvetica,sans-Serif" font-size="10.00">::turboshaft::Get</text>
</a>
</g>
</g>
<!-- Node3&#45;&gt;Node4 -->
<g id="edge3" class="edge">
<title>Node3&#45;&gt;Node4</title>
<path fill="none" stroke="midnightblue" d="M372.67,-136.07C399.45,-141.7 428.98,-147.91 454.83,-153.35"/>
<polygon fill="midnightblue" stroke="midnightblue" points="454.41,-156.84 464.91,-155.47 455.85,-149.99 454.41,-156.84"/>
</g>
<!-- Node6 -->
<g id="node6" class="node">
<title>Node6</title>
<g id="a_node6"><a xlink:href="classv8_1_1internal_1_1compiler_1_1turboshaft_1_1V.html#ad561401feffb45d9b62238c0c0739e5b" target="_top" xlink:title=" ">
<polygon fill="white" stroke="black" points="464,-104 464,-134 587,-134 587,-104 464,-104"/>
<text text-anchor="start" x="472" y="-122" font-family="Helvetica,sans-Serif" font-size="10.00">v8::internal::compiler</text>
<text text-anchor="middle" x="525.5" y="-111" font-family="Helvetica,sans-Serif" font-size="10.00">::turboshaft::V::Invalid</text>
</a>
</g>
</g>
<!-- Node3&#45;&gt;Node6 -->
<g id="edge5" class="edge">
<title>Node3&#45;&gt;Node6</title>
<path fill="none" stroke="midnightblue" d="M372.67,-119C398.98,-119 427.96,-119 453.48,-119"/>
<polygon fill="midnightblue" stroke="midnightblue" points="453.82,-122.5 463.82,-119 453.82,-115.5 453.82,-122.5"/>
</g>
<!-- Node9 -->
<g id="node8" class="node">
<title>Node9</title>
<g id="a_node8"><a xlink:href="namespacev8_1_1internal_1_1compiler_1_1turboshaft.html#ac4d098a2688a019f309cb6f242bb421a" target="_top" xlink:title=" ">
<polygon fill="white" stroke="black" points="417,-55 417,-85 634,-85 634,-55 417,-55"/>
<text text-anchor="start" x="425" y="-73" font-family="Helvetica,sans-Serif" font-size="10.00">v8::internal::compiler</text>
<text text-anchor="middle" x="525.5" y="-62" font-family="Helvetica,sans-Serif" font-size="10.00">::turboshaft::ShouldSkipOptimizationStep</text>
</a>
</g>
</g>
<!-- Node3&#45;&gt;Node9 -->
<g id="edge7" class="edge">
<title>Node3&#45;&gt;Node9</title>
<path fill="none" stroke="midnightblue" d="M372.67,-101.93C395.43,-97.14 420.19,-91.94 442.97,-87.14"/>
<polygon fill="midnightblue" stroke="midnightblue" points="443.88,-90.53 452.95,-85.05 442.44,-83.68 443.88,-90.53"/>
</g>
<!-- Node5 -->
<g id="node5" class="node">
<title>Node5</title>
<g id="a_node5"><a xlink:href="flag-definitions_8h.html#a06b2b7e5d08192bb493bba69cb19a7a8" target="_top" xlink:title=" ">
<polygon fill="white" stroke="black" points="708.5,-158.5 708.5,-177.5 752.5,-177.5 752.5,-158.5 708.5,-158.5"/>
<text text-anchor="middle" x="730.5" y="-165.5" font-family="Helvetica,sans-Serif" font-size="10.00">graph</text>
</a>
</g>
</g>
<!-- Node4&#45;&gt;Node5 -->
<g id="edge4" class="edge">
<title>Node4&#45;&gt;Node5</title>
<path fill="none" stroke="midnightblue" d="M586.04,-168C622.71,-168 668.26,-168 698.07,-168"/>
<polygon fill="midnightblue" stroke="midnightblue" points="698.29,-171.5 708.29,-168 698.29,-164.5 698.29,-171.5"/>
</g>
<!-- Node7 -->
<g id="node7" class="node">
<title>Node7</title>
<g id="a_node7"><a xlink:href="classv8_1_1internal_1_1compiler_1_1turboshaft_1_1OpIndex.html#a19b67749ed68fc8a4883e936589372cc" target="_top" xlink:title=" ">
<polygon fill="white" stroke="red" points="670,-98.5 670,-139.5 791,-139.5 791,-98.5 670,-98.5"/>
<text text-anchor="start" x="678" y="-127.5" font-family="Helvetica,sans-Serif" font-size="10.00">v8::internal::compiler</text>
<text text-anchor="start" x="678" y="-116.5" font-family="Helvetica,sans-Serif" font-size="10.00">::turboshaft::OpIndex</text>
<text text-anchor="middle" x="730.5" y="-105.5" font-family="Helvetica,sans-Serif" font-size="10.00">::Invalid</text>
</a>
</g>
</g>
<!-- Node6&#45;&gt;Node7 -->
<g id="edge6" class="edge">
<title>Node6&#45;&gt;Node7</title>
<path fill="none" stroke="midnightblue" d="M587.13,-119C609.93,-119 636.03,-119 659.6,-119"/>
<polygon fill="midnightblue" stroke="midnightblue" points="659.88,-122.5 669.88,-119 659.88,-115.5 659.88,-122.5"/>
</g>
</g>
</svg>
