<?xml version="1.0" encoding="UTF-8" standalone="no"?>
<!DOCTYPE svg PUBLIC "-//W3C//DTD SVG 1.1//EN"
 "http://www.w3.org/Graphics/SVG/1.1/DTD/svg11.dtd">
<!-- Generated by graphviz version 2.43.0 (0)
 -->
<!-- Title: /mnt/V8SourceCode/src/compiler/common&#45;operator&#45;reducer.h Pages: 1 -->
<svg width="310pt" height="128pt"
 viewBox="0.00 0.00 309.50 128.00" xmlns="http://www.w3.org/2000/svg" xmlns:xlink="http://www.w3.org/1999/xlink">
<g id="graph0" class="graph" transform="scale(1 1) rotate(0) translate(4 124)">
<title>/mnt/V8SourceCode/src/compiler/common&#45;operator&#45;reducer.h</title>
<polygon fill="white" stroke="transparent" points="-4,4 -4,-124 305.5,-124 305.5,4 -4,4"/>
<!-- Node1 -->
<g id="node1" class="node">
<title>Node1</title>
<g id="a_node1"><a xlink:title=" ">
<polygon fill="#bfbfbf" stroke="black" points="80,-78.5 80,-119.5 233,-119.5 233,-78.5 80,-78.5"/>
<text text-anchor="start" x="88" y="-107.5" font-family="Helvetica,sans-Serif" font-size="10.00">/mnt/V8SourceCode/src</text>
<text text-anchor="start" x="88" y="-96.5" font-family="Helvetica,sans-Serif" font-size="10.00">/compiler/common&#45;operator</text>
<text text-anchor="middle" x="156.5" y="-85.5" font-family="Helvetica,sans-Serif" font-size="10.00">&#45;reducer.h</text>
</a>
</g>
</g>
<!-- Node2 -->
<g id="node2" class="node">
<title>Node2</title>
<g id="a_node2"><a xlink:href="common-operator-reducer_8cc.html" target="_top" xlink:title=" ">
<polygon fill="white" stroke="black" points="0,-0.5 0,-41.5 153,-41.5 153,-0.5 0,-0.5"/>
<text text-anchor="start" x="8" y="-29.5" font-family="Helvetica,sans-Serif" font-size="10.00">/mnt/V8SourceCode/src</text>
<text text-anchor="start" x="8" y="-18.5" font-family="Helvetica,sans-Serif" font-size="10.00">/compiler/common&#45;operator</text>
<text text-anchor="middle" x="76.5" y="-7.5" font-family="Helvetica,sans-Serif" font-size="10.00">&#45;reducer.cc</text>
</a>
</g>
</g>
<!-- Node1&#45;&gt;Node2 -->
<g id="edge1" class="edge">
<title>Node1&#45;&gt;Node2</title>
<path fill="none" stroke="midnightblue" d="M128.6,-71.49C118.22,-61.63 106.63,-50.63 97.03,-41.51"/>
<polygon fill="midnightblue" stroke="midnightblue" points="126.24,-74.08 135.9,-78.43 131.06,-69 126.24,-74.08"/>
</g>
<!-- Node3 -->
<g id="node3" class="node">
<title>Node3</title>
<g id="a_node3"><a xlink:href="pipeline_8cc.html" target="_top" xlink:title=" ">
<polygon fill="white" stroke="black" points="171.5,-6 171.5,-36 301.5,-36 301.5,-6 171.5,-6"/>
<text text-anchor="start" x="179.5" y="-24" font-family="Helvetica,sans-Serif" font-size="10.00">/mnt/V8SourceCode/src</text>
<text text-anchor="middle" x="236.5" y="-13" font-family="Helvetica,sans-Serif" font-size="10.00">/compiler/pipeline.cc</text>
</a>
</g>
</g>
<!-- Node1&#45;&gt;Node3 -->
<g id="edge2" class="edge">
<title>Node1&#45;&gt;Node3</title>
<path fill="none" stroke="midnightblue" d="M184.58,-71.32C197.02,-59.51 211.15,-46.08 221.53,-36.23"/>
<polygon fill="midnightblue" stroke="midnightblue" points="181.94,-69 177.1,-78.43 186.76,-74.08 181.94,-69"/>
</g>
</g>
</svg>
