<?xml version="1.0" encoding="UTF-8" standalone="no"?>
<!DOCTYPE svg PUBLIC "-//W3C//DTD SVG 1.1//EN"
 "http://www.w3.org/Graphics/SVG/1.1/DTD/svg11.dtd">
<!-- Generated by graphviz version 2.43.0 (0)
 -->
<!-- Title: /mnt/V8SourceCode/src/objects/cpp&#45;heap&#45;object&#45;wrapper&#45;inl.h Pages: 1 -->
<svg width="1892pt" height="631pt"
 viewBox="0.00 0.00 1892.00 631.00" xmlns="http://www.w3.org/2000/svg" xmlns:xlink="http://www.w3.org/1999/xlink">
<g id="graph0" class="graph" transform="scale(1 1) rotate(0) translate(4 627)">
<title>/mnt/V8SourceCode/src/objects/cpp&#45;heap&#45;object&#45;wrapper&#45;inl.h</title>
<polygon fill="white" stroke="transparent" points="-4,4 -4,-627 1888,-627 1888,4 -4,4"/>
<!-- Node1 -->
<g id="node1" class="node">
<title>Node1</title>
<g id="a_node1"><a xlink:title=" ">
<polygon fill="#bfbfbf" stroke="black" points="511.5,-581.5 511.5,-622.5 648.5,-622.5 648.5,-581.5 511.5,-581.5"/>
<text text-anchor="start" x="519.5" y="-610.5" font-family="Helvetica,sans-Serif" font-size="10.00">/mnt/V8SourceCode/src</text>
<text text-anchor="start" x="519.5" y="-599.5" font-family="Helvetica,sans-Serif" font-size="10.00">/objects/cpp&#45;heap&#45;object</text>
<text text-anchor="middle" x="580" y="-588.5" font-family="Helvetica,sans-Serif" font-size="10.00">&#45;wrapper&#45;inl.h</text>
</a>
</g>
</g>
<!-- Node2 -->
<g id="node2" class="node">
<title>Node2</title>
<g id="a_node2"><a xlink:href="cpp-heap-object-wrapper_8h.html" target="_top" xlink:title=" ">
<polygon fill="white" stroke="black" points="686.5,-380.5 686.5,-410.5 803.5,-410.5 803.5,-380.5 686.5,-380.5"/>
<text text-anchor="start" x="694.5" y="-398.5" font-family="Helvetica,sans-Serif" font-size="10.00">src/objects/cpp&#45;heap</text>
<text text-anchor="middle" x="745" y="-387.5" font-family="Helvetica,sans-Serif" font-size="10.00">&#45;object&#45;wrapper.h</text>
</a>
</g>
</g>
<!-- Node1&#45;&gt;Node2 -->
<g id="edge1" class="edge">
<title>Node1&#45;&gt;Node2</title>
<path fill="none" stroke="midnightblue" d="M576.57,-581.48C572.15,-549.58 568.37,-485.92 600,-447 618.72,-423.97 648.58,-411.42 676.35,-404.59"/>
<polygon fill="midnightblue" stroke="midnightblue" points="677.47,-407.93 686.46,-402.32 675.94,-401.1 677.47,-407.93"/>
</g>
<!-- Node365 -->
<g id="node17" class="node">
<title>Node365</title>
<g id="a_node17"><a xlink:href="heap-write-barrier-inl_8h.html" target="_top" xlink:title=" ">
<polygon fill="white" stroke="black" points="796.5,-514.5 796.5,-544.5 909.5,-544.5 909.5,-514.5 796.5,-514.5"/>
<text text-anchor="start" x="804.5" y="-532.5" font-family="Helvetica,sans-Serif" font-size="10.00">src/heap/heap&#45;write</text>
<text text-anchor="middle" x="853" y="-521.5" font-family="Helvetica,sans-Serif" font-size="10.00">&#45;barrier&#45;inl.h</text>
</a>
</g>
</g>
<!-- Node1&#45;&gt;Node365 -->
<g id="edge29" class="edge">
<title>Node1&#45;&gt;Node365</title>
<path fill="none" stroke="midnightblue" d="M648.54,-583.3C691.53,-572.2 746.59,-557.98 788.74,-547.09"/>
<polygon fill="midnightblue" stroke="midnightblue" points="789.81,-550.43 798.62,-544.54 788.06,-543.66 789.81,-550.43"/>
</g>
<!-- Node518 -->
<g id="node32" class="node">
<title>Node518</title>
<g id="a_node32"><a xlink:href="heap-object-inl_8h.html" target="_top" xlink:title=" ">
<polygon fill="white" stroke="red" points="424,-313.5 424,-343.5 554,-343.5 554,-313.5 424,-313.5"/>
<text text-anchor="start" x="432" y="-331.5" font-family="Helvetica,sans-Serif" font-size="10.00">src/objects/heap&#45;object</text>
<text text-anchor="middle" x="489" y="-320.5" font-family="Helvetica,sans-Serif" font-size="10.00">&#45;inl.h</text>
</a>
</g>
</g>
<!-- Node1&#45;&gt;Node518 -->
<g id="edge72" class="edge">
<title>Node1&#45;&gt;Node518</title>
<path fill="none" stroke="midnightblue" d="M573.46,-581.47C557.14,-532.8 514.71,-406.21 496.97,-353.29"/>
<polygon fill="midnightblue" stroke="midnightblue" points="500.27,-352.1 493.77,-343.74 493.63,-354.33 500.27,-352.1"/>
</g>
<!-- Node3 -->
<g id="node3" class="node">
<title>Node3</title>
<g id="a_node3"><a xlink:href="cpp-heap-external-object_8h.html" target="_top" xlink:title=" ">
<polygon fill="white" stroke="black" points="610.5,-313.5 610.5,-343.5 727.5,-343.5 727.5,-313.5 610.5,-313.5"/>
<text text-anchor="start" x="618.5" y="-331.5" font-family="Helvetica,sans-Serif" font-size="10.00">src/objects/cpp&#45;heap</text>
<text text-anchor="middle" x="669" y="-320.5" font-family="Helvetica,sans-Serif" font-size="10.00">&#45;external&#45;object.h</text>
</a>
</g>
</g>
<!-- Node2&#45;&gt;Node3 -->
<g id="edge2" class="edge">
<title>Node2&#45;&gt;Node3</title>
<path fill="none" stroke="midnightblue" d="M728.51,-380.4C718.15,-371.54 704.62,-359.96 693.07,-350.09"/>
<polygon fill="midnightblue" stroke="midnightblue" points="695.33,-347.42 685.46,-343.58 690.78,-352.74 695.33,-347.42"/>
</g>
<!-- Node270 -->
<g id="node9" class="node">
<title>Node270</title>
<g id="a_node9"><a xlink:href="sandbox_2isolate_8h.html" target="_top" xlink:title=" ">
<polygon fill="white" stroke="red" points="723,-174 723,-193 843,-193 843,-174 723,-174"/>
<text text-anchor="middle" x="783" y="-181" font-family="Helvetica,sans-Serif" font-size="10.00">src/sandbox/isolate.h</text>
</a>
</g>
</g>
<!-- Node2&#45;&gt;Node270 -->
<g id="edge28" class="edge">
<title>Node2&#45;&gt;Node270</title>
<path fill="none" stroke="midnightblue" d="M747.55,-380.4C754.21,-343.58 772.13,-244.56 779.63,-203.13"/>
<polygon fill="midnightblue" stroke="midnightblue" points="783.11,-203.53 781.45,-193.07 776.22,-202.29 783.11,-203.53"/>
</g>
<!-- Node250 -->
<g id="node13" class="node">
<title>Node250</title>
<g id="a_node13"><a xlink:href="js-objects_8h.html" target="_top" xlink:title=" ">
<polygon fill="white" stroke="red" points="88,-319 88,-338 216,-338 216,-319 88,-319"/>
<text text-anchor="middle" x="152" y="-326" font-family="Helvetica,sans-Serif" font-size="10.00">src/objects/js&#45;objects.h</text>
</a>
</g>
</g>
<!-- Node2&#45;&gt;Node250 -->
<g id="edge14" class="edge">
<title>Node2&#45;&gt;Node250</title>
<path fill="none" stroke="midnightblue" d="M686.28,-390.71C589.71,-384.04 391.45,-368.55 225,-344 217.27,-342.86 209.12,-341.45 201.18,-339.96"/>
<polygon fill="midnightblue" stroke="midnightblue" points="201.76,-336.51 191.28,-338.05 200.43,-343.38 201.76,-336.51"/>
</g>
<!-- Node132 -->
<g id="node16" class="node">
<title>Node132</title>
<g id="a_node16"><a xlink:href="union_8h.html" target="_top" xlink:title=" ">
<polygon fill="white" stroke="red" points="942,-246.5 942,-265.5 1050,-265.5 1050,-246.5 942,-246.5"/>
<text text-anchor="middle" x="996" y="-253.5" font-family="Helvetica,sans-Serif" font-size="10.00">src/objects/union.h</text>
</a>
</g>
</g>
<!-- Node2&#45;&gt;Node132 -->
<g id="edge26" class="edge">
<title>Node2&#45;&gt;Node132</title>
<path fill="none" stroke="midnightblue" d="M761.4,-380.38C782.3,-362.89 820.05,-332.96 856,-313 889.47,-294.41 930.39,-278.79 959.33,-268.8"/>
<polygon fill="midnightblue" stroke="midnightblue" points="960.68,-272.04 969.03,-265.51 958.44,-265.41 960.68,-272.04"/>
</g>
<!-- Node4 -->
<g id="node4" class="node">
<title>Node4</title>
<g id="a_node4"><a xlink:href="heap-object_8h.html" target="_top" xlink:title=" ">
<polygon fill="white" stroke="red" points="784.5,-246.5 784.5,-265.5 923.5,-265.5 923.5,-246.5 784.5,-246.5"/>
<text text-anchor="middle" x="854" y="-253.5" font-family="Helvetica,sans-Serif" font-size="10.00">src/objects/heap&#45;object.h</text>
</a>
</g>
</g>
<!-- Node3&#45;&gt;Node4 -->
<g id="edge3" class="edge">
<title>Node3&#45;&gt;Node4</title>
<path fill="none" stroke="midnightblue" d="M705.99,-313.4C740.01,-300.44 789.93,-281.42 822.2,-269.12"/>
<polygon fill="midnightblue" stroke="midnightblue" points="823.51,-272.37 831.61,-265.53 821.02,-265.82 823.51,-272.37"/>
</g>
<!-- Node173 -->
<g id="node10" class="node">
<title>Node173</title>
<g id="a_node10"><a xlink:href="object-macros_8h.html" target="_top" xlink:title=" ">
<polygon fill="white" stroke="red" points="461,-168.5 461,-198.5 563,-198.5 563,-168.5 461,-168.5"/>
<text text-anchor="start" x="469" y="-186.5" font-family="Helvetica,sans-Serif" font-size="10.00">src/objects/object</text>
<text text-anchor="middle" x="512" y="-175.5" font-family="Helvetica,sans-Serif" font-size="10.00">&#45;macros.h</text>
</a>
</g>
</g>
<!-- Node3&#45;&gt;Node173 -->
<g id="edge11" class="edge">
<title>Node3&#45;&gt;Node173</title>
<path fill="none" stroke="midnightblue" d="M681,-313.29C695.87,-293.86 717.17,-258.72 699,-235 683.63,-214.93 621.85,-201.02 573.45,-192.96"/>
<polygon fill="midnightblue" stroke="midnightblue" points="573.77,-189.46 563.34,-191.32 572.66,-196.37 573.77,-189.46"/>
</g>
<!-- Node174 -->
<g id="node11" class="node">
<title>Node174</title>
<g id="a_node11"><a xlink:href="object-macros-undef_8h.html" target="_top" xlink:title=" ">
<polygon fill="white" stroke="black" points="272,-168.5 272,-198.5 374,-198.5 374,-168.5 272,-168.5"/>
<text text-anchor="start" x="280" y="-186.5" font-family="Helvetica,sans-Serif" font-size="10.00">src/objects/object</text>
<text text-anchor="middle" x="323" y="-175.5" font-family="Helvetica,sans-Serif" font-size="10.00">&#45;macros&#45;undef.h</text>
</a>
</g>
</g>
<!-- Node3&#45;&gt;Node174 -->
<g id="edge13" class="edge">
<title>Node3&#45;&gt;Node174</title>
<path fill="none" stroke="midnightblue" d="M610.16,-319.35C523.5,-307.14 370.69,-284.7 361,-277 339.96,-260.27 330.47,-229.94 326.25,-208.58"/>
<polygon fill="midnightblue" stroke="midnightblue" points="329.69,-207.89 324.54,-198.63 322.79,-209.08 329.69,-207.89"/>
</g>
<!-- Node364 -->
<g id="node12" class="node">
<title>Node364</title>
<g id="a_node12"><a xlink:title=" ">
<polygon fill="white" stroke="#bfbfbf" points="542.5,-235.5 542.5,-276.5 689.5,-276.5 689.5,-235.5 542.5,-235.5"/>
<text text-anchor="start" x="550.5" y="-264.5" font-family="Helvetica,sans-Serif" font-size="10.00">torque&#45;generated/src</text>
<text text-anchor="start" x="550.5" y="-253.5" font-family="Helvetica,sans-Serif" font-size="10.00">/objects/cpp&#45;heap&#45;external</text>
<text text-anchor="middle" x="616" y="-242.5" font-family="Helvetica,sans-Serif" font-size="10.00">&#45;object&#45;tq.inc</text>
</a>
</g>
</g>
<!-- Node3&#45;&gt;Node364 -->
<g id="edge12" class="edge">
<title>Node3&#45;&gt;Node364</title>
<path fill="none" stroke="midnightblue" d="M658.27,-313.23C652.15,-305.08 644.25,-294.57 636.94,-284.85"/>
<polygon fill="midnightblue" stroke="midnightblue" points="639.53,-282.48 630.73,-276.59 633.94,-286.68 639.53,-282.48"/>
</g>
<!-- Node29 -->
<g id="node5" class="node">
<title>Node29</title>
<g id="a_node5"><a xlink:href="common_2globals_8h.html" target="_top" xlink:title=" ">
<polygon fill="white" stroke="red" points="1188,-112.5 1188,-131.5 1312,-131.5 1312,-112.5 1188,-112.5"/>
<text text-anchor="middle" x="1250" y="-119.5" font-family="Helvetica,sans-Serif" font-size="10.00">src/common/globals.h</text>
</a>
</g>
</g>
<!-- Node4&#45;&gt;Node29 -->
<g id="edge4" class="edge">
<title>Node4&#45;&gt;Node29</title>
<path fill="none" stroke="midnightblue" d="M867.79,-246.45C896.4,-229.08 964.72,-189.51 1027,-168 1076.01,-151.07 1133.39,-139.67 1177.68,-132.58"/>
<polygon fill="midnightblue" stroke="midnightblue" points="1178.44,-136.01 1187.78,-131 1177.36,-129.09 1178.44,-136.01"/>
</g>
<!-- Node127 -->
<g id="node8" class="node">
<title>Node127</title>
<g id="a_node8"><a xlink:href="casting_8h.html" target="_top" xlink:title=" ">
<polygon fill="white" stroke="red" points="1106,-174 1106,-193 1222,-193 1222,-174 1106,-174"/>
<text text-anchor="middle" x="1164" y="-181" font-family="Helvetica,sans-Serif" font-size="10.00">src/objects/casting.h</text>
</a>
</g>
</g>
<!-- Node4&#45;&gt;Node127 -->
<g id="edge7" class="edge">
<title>Node4&#45;&gt;Node127</title>
<path fill="none" stroke="midnightblue" d="M886.61,-246.49C900.83,-242.84 917.72,-238.6 933,-235 994.79,-220.43 1066.23,-205.03 1113.11,-195.13"/>
<polygon fill="midnightblue" stroke="midnightblue" points="1113.95,-198.52 1123.02,-193.04 1112.51,-191.68 1113.95,-198.52"/>
</g>
<!-- Node4&#45;&gt;Node270 -->
<g id="edge8" class="edge">
<title>Node4&#45;&gt;Node270</title>
<path fill="none" stroke="midnightblue" d="M845.29,-246.36C833.8,-234.94 813.33,-214.62 799.01,-200.4"/>
<polygon fill="midnightblue" stroke="midnightblue" points="801.34,-197.78 791.78,-193.22 796.41,-202.75 801.34,-197.78"/>
</g>
<!-- Node4&#45;&gt;Node173 -->
<g id="edge9" class="edge">
<title>Node4&#45;&gt;Node173</title>
<path fill="none" stroke="midnightblue" d="M812.75,-246.5C753.06,-234.19 642.2,-211.34 573.03,-197.08"/>
<polygon fill="midnightblue" stroke="midnightblue" points="573.64,-193.63 563.14,-195.04 572.23,-200.49 573.64,-193.63"/>
</g>
<!-- Node4&#45;&gt;Node174 -->
<g id="edge10" class="edge">
<title>Node4&#45;&gt;Node174</title>
<path fill="none" stroke="midnightblue" d="M789.95,-246.5C686.88,-232.81 485.54,-206.08 384.27,-192.63"/>
<polygon fill="midnightblue" stroke="midnightblue" points="384.57,-189.14 374.2,-191.3 383.65,-196.08 384.57,-189.14"/>
</g>
<!-- Node35 -->
<g id="node6" class="node">
<title>Node35</title>
<g id="a_node6"><a xlink:href="v8-internal_8h.html" target="_top" xlink:title=" ">
<polygon fill="white" stroke="red" points="1340.5,-56.5 1340.5,-75.5 1457.5,-75.5 1457.5,-56.5 1340.5,-56.5"/>
<text text-anchor="middle" x="1399" y="-63.5" font-family="Helvetica,sans-Serif" font-size="10.00">include/v8&#45;internal.h</text>
</a>
</g>
</g>
<!-- Node29&#45;&gt;Node35 -->
<g id="edge5" class="edge">
<title>Node29&#45;&gt;Node35</title>
<path fill="none" stroke="midnightblue" d="M1273.61,-112.44C1298.46,-103.44 1337.77,-89.19 1365.75,-79.05"/>
<polygon fill="midnightblue" stroke="midnightblue" points="1367.29,-82.21 1375.5,-75.52 1364.91,-75.63 1367.29,-82.21"/>
</g>
<!-- Node37 -->
<g id="node7" class="node">
<title>Node37</title>
<g id="a_node7"><a xlink:title=" ">
<polygon fill="white" stroke="#bfbfbf" points="1669,-0.5 1669,-19.5 1725,-19.5 1725,-0.5 1669,-0.5"/>
<text text-anchor="middle" x="1697" y="-7.5" font-family="Helvetica,sans-Serif" font-size="10.00">optional</text>
</a>
</g>
</g>
<!-- Node35&#45;&gt;Node37 -->
<g id="edge6" class="edge">
<title>Node35&#45;&gt;Node37</title>
<path fill="none" stroke="midnightblue" d="M1446.22,-56.44C1505.12,-45.77 1604.65,-27.73 1658.93,-17.9"/>
<polygon fill="midnightblue" stroke="midnightblue" points="1659.62,-21.33 1668.83,-16.1 1658.37,-14.44 1659.62,-21.33"/>
</g>
<!-- Node250&#45;&gt;Node29 -->
<g id="edge16" class="edge">
<title>Node250&#45;&gt;Node29</title>
<path fill="none" stroke="midnightblue" d="M153.37,-318.93C158.29,-291.26 177.91,-203.96 234,-168 273.62,-142.6 952.06,-128.29 1177.69,-124.22"/>
<polygon fill="midnightblue" stroke="midnightblue" points="1177.84,-127.72 1187.77,-124.04 1177.71,-120.72 1177.84,-127.72"/>
</g>
<!-- Node250&#45;&gt;Node37 -->
<g id="edge15" class="edge">
<title>Node250&#45;&gt;Node37</title>
<path fill="none" stroke="midnightblue" d="M137.56,-318.79C106.89,-299.05 38,-247.68 38,-184.5 38,-184.5 38,-184.5 38,-121 38,-37.01 1409.81,-14.81 1658.56,-11.48"/>
<polygon fill="midnightblue" stroke="midnightblue" points="1658.95,-14.97 1668.9,-11.34 1658.86,-7.97 1658.95,-14.97"/>
</g>
<!-- Node250&#45;&gt;Node173 -->
<g id="edge24" class="edge">
<title>Node250&#45;&gt;Node173</title>
<path fill="none" stroke="midnightblue" d="M164.95,-318.9C192.44,-301 259.09,-259.34 320,-235 362.45,-218.03 412.46,-205.09 450.8,-196.56"/>
<polygon fill="midnightblue" stroke="midnightblue" points="451.76,-199.93 460.78,-194.37 450.26,-193.09 451.76,-199.93"/>
</g>
<!-- Node250&#45;&gt;Node174 -->
<g id="edge25" class="edge">
<title>Node250&#45;&gt;Node174</title>
<path fill="none" stroke="midnightblue" d="M151.7,-318.85C151.55,-300.83 153.8,-258.98 176,-235 198.15,-211.07 232.15,-198.48 261.86,-191.86"/>
<polygon fill="midnightblue" stroke="midnightblue" points="262.66,-195.27 271.76,-189.83 261.26,-188.41 262.66,-195.27"/>
</g>
<!-- Node162 -->
<g id="node14" class="node">
<title>Node162</title>
<g id="a_node14"><a xlink:href="objects_8h.html" target="_top" xlink:title=" ">
<polygon fill="white" stroke="red" points="370,-246.5 370,-265.5 486,-265.5 486,-246.5 370,-246.5"/>
<text text-anchor="middle" x="428" y="-253.5" font-family="Helvetica,sans-Serif" font-size="10.00">src/objects/objects.h</text>
</a>
</g>
</g>
<!-- Node250&#45;&gt;Node162 -->
<g id="edge17" class="edge">
<title>Node250&#45;&gt;Node162</title>
<path fill="none" stroke="midnightblue" d="M185.29,-319C235.23,-306.24 329.55,-282.15 384.76,-268.05"/>
<polygon fill="midnightblue" stroke="midnightblue" points="385.77,-271.4 394.59,-265.53 384.03,-264.62 385.77,-271.4"/>
</g>
<!-- Node162&#45;&gt;Node35 -->
<g id="edge18" class="edge">
<title>Node162&#45;&gt;Node35</title>
<path fill="none" stroke="midnightblue" d="M427.49,-246.45C426.94,-228.73 428.47,-187.98 452,-168 518.78,-111.3 1123.96,-79.26 1330.38,-69.91"/>
<polygon fill="midnightblue" stroke="midnightblue" points="1330.66,-73.4 1340.49,-69.45 1330.35,-66.41 1330.66,-73.4"/>
</g>
<!-- Node162&#45;&gt;Node173 -->
<g id="edge22" class="edge">
<title>Node162&#45;&gt;Node173</title>
<path fill="none" stroke="midnightblue" d="M438.3,-246.36C450.39,-236.21 470.85,-219.04 487.15,-205.36"/>
<polygon fill="midnightblue" stroke="midnightblue" points="489.82,-207.69 495.23,-198.58 485.32,-202.32 489.82,-207.69"/>
</g>
<!-- Node162&#45;&gt;Node174 -->
<g id="edge23" class="edge">
<title>Node162&#45;&gt;Node174</title>
<path fill="none" stroke="midnightblue" d="M415.12,-246.36C399.6,-235.93 373.02,-218.09 352.39,-204.23"/>
<polygon fill="midnightblue" stroke="midnightblue" points="354.22,-201.24 343.96,-198.58 350.32,-207.06 354.22,-201.24"/>
</g>
<!-- Node107 -->
<g id="node15" class="node">
<title>Node107</title>
<g id="a_node15"><a xlink:href="flags_2flags_8h.html" target="_top" xlink:title=" ">
<polygon fill="white" stroke="red" points="1594,-174 1594,-193 1686,-193 1686,-174 1594,-174"/>
<text text-anchor="middle" x="1640" y="-181" font-family="Helvetica,sans-Serif" font-size="10.00">src/flags/flags.h</text>
</a>
</g>
</g>
<!-- Node162&#45;&gt;Node107 -->
<g id="edge19" class="edge">
<title>Node162&#45;&gt;Node107</title>
<path fill="none" stroke="midnightblue" d="M465.21,-246.47C485.19,-242.25 510.32,-237.53 533,-235 997.94,-183.08 1122.15,-267.06 1585,-199 1590.82,-198.14 1596.91,-196.9 1602.83,-195.5"/>
<polygon fill="midnightblue" stroke="midnightblue" points="1603.72,-198.88 1612.55,-193.02 1602,-192.1 1603.72,-198.88"/>
</g>
<!-- Node107&#45;&gt;Node29 -->
<g id="edge21" class="edge">
<title>Node107&#45;&gt;Node29</title>
<path fill="none" stroke="midnightblue" d="M1610.47,-173.99C1602.27,-171.83 1593.33,-169.65 1585,-168 1495.21,-150.2 1390.46,-137.39 1322.32,-130.09"/>
<polygon fill="midnightblue" stroke="midnightblue" points="1322.44,-126.58 1312.12,-129.01 1321.7,-133.54 1322.44,-126.58"/>
</g>
<!-- Node107&#45;&gt;Node37 -->
<g id="edge20" class="edge">
<title>Node107&#45;&gt;Node37</title>
<path fill="none" stroke="midnightblue" d="M1642.91,-173.76C1651.79,-147.04 1678.71,-66.02 1690.9,-29.36"/>
<polygon fill="midnightblue" stroke="midnightblue" points="1694.34,-30.11 1694.17,-19.52 1687.69,-27.91 1694.34,-30.11"/>
</g>
<!-- Node132&#45;&gt;Node29 -->
<g id="edge27" class="edge">
<title>Node132&#45;&gt;Node29</title>
<path fill="none" stroke="midnightblue" d="M1000.25,-246.26C1009.33,-228.54 1032.41,-188.35 1064,-168 1097.82,-146.21 1141.28,-134.96 1177.67,-129.16"/>
<polygon fill="midnightblue" stroke="midnightblue" points="1178.36,-132.6 1187.74,-127.67 1177.33,-125.67 1178.36,-132.6"/>
</g>
<!-- Node365&#45;&gt;Node2 -->
<g id="edge63" class="edge">
<title>Node365&#45;&gt;Node2</title>
<path fill="none" stroke="midnightblue" d="M830.25,-514.4C816.77,-505.23 800.03,-492.34 788,-478 773.3,-460.48 761.61,-437.11 754.15,-419.89"/>
<polygon fill="midnightblue" stroke="midnightblue" points="757.34,-418.44 750.26,-410.56 750.88,-421.13 757.34,-418.44"/>
</g>
<!-- Node366 -->
<g id="node18" class="node">
<title>Node366</title>
<g id="a_node18"><a xlink:href="heap-write-barrier_8h.html" target="_top" xlink:title=" ">
<polygon fill="white" stroke="black" points="796.5,-447.5 796.5,-477.5 909.5,-477.5 909.5,-447.5 796.5,-447.5"/>
<text text-anchor="start" x="804.5" y="-465.5" font-family="Helvetica,sans-Serif" font-size="10.00">src/heap/heap&#45;write</text>
<text text-anchor="middle" x="853" y="-454.5" font-family="Helvetica,sans-Serif" font-size="10.00">&#45;barrier.h</text>
</a>
</g>
</g>
<!-- Node365&#45;&gt;Node366 -->
<g id="edge30" class="edge">
<title>Node365&#45;&gt;Node366</title>
<path fill="none" stroke="midnightblue" d="M853,-514.4C853,-506.64 853,-496.81 853,-487.86"/>
<polygon fill="midnightblue" stroke="midnightblue" points="856.5,-487.58 853,-477.58 849.5,-487.58 856.5,-487.58"/>
</g>
<!-- Node367 -->
<g id="node19" class="node">
<title>Node367</title>
<g id="a_node19"><a xlink:href="heap-layout-inl_8h.html" target="_top" xlink:title=" ">
<polygon fill="white" stroke="black" points="1056.5,-380.5 1056.5,-410.5 1175.5,-410.5 1175.5,-380.5 1056.5,-380.5"/>
<text text-anchor="start" x="1064.5" y="-398.5" font-family="Helvetica,sans-Serif" font-size="10.00">src/heap/heap&#45;layout</text>
<text text-anchor="middle" x="1116" y="-387.5" font-family="Helvetica,sans-Serif" font-size="10.00">&#45;inl.h</text>
</a>
</g>
</g>
<!-- Node365&#45;&gt;Node367 -->
<g id="edge35" class="edge">
<title>Node365&#45;&gt;Node367</title>
<path fill="none" stroke="midnightblue" d="M881.15,-514.37C928.9,-490.41 1025.77,-441.78 1078.97,-415.09"/>
<polygon fill="midnightblue" stroke="midnightblue" points="1080.69,-418.14 1088.06,-410.52 1077.55,-411.88 1080.69,-418.14"/>
</g>
<!-- Node329 -->
<g id="node22" class="node">
<title>Node329</title>
<g id="a_node22"><a xlink:href="memory-chunk_8h.html" target="_top" xlink:title=" ">
<polygon fill="white" stroke="red" points="1550,-246.5 1550,-265.5 1694,-265.5 1694,-246.5 1550,-246.5"/>
<text text-anchor="middle" x="1622" y="-253.5" font-family="Helvetica,sans-Serif" font-size="10.00">src/heap/memory&#45;chunk.h</text>
</a>
</g>
</g>
<!-- Node365&#45;&gt;Node329 -->
<g id="edge61" class="edge">
<title>Node365&#45;&gt;Node329</title>
<path fill="none" stroke="midnightblue" d="M909.7,-527.54C1106.8,-523.94 1751.91,-509.77 1782,-478 1821.42,-436.38 1826.88,-425.99 1724,-313 1705.84,-293.05 1678.87,-278.68 1657.22,-269.49"/>
<polygon fill="midnightblue" stroke="midnightblue" points="1658.28,-266.14 1647.7,-265.63 1655.65,-272.63 1658.28,-266.14"/>
</g>
<!-- Node733 -->
<g id="node25" class="node">
<title>Node733</title>
<g id="a_node25"><a xlink:href="marking-barrier_8h.html" target="_top" xlink:title=" ">
<polygon fill="white" stroke="black" points="1627,-453 1627,-472 1773,-472 1773,-453 1627,-453"/>
<text text-anchor="middle" x="1700" y="-460" font-family="Helvetica,sans-Serif" font-size="10.00">src/heap/marking&#45;barrier.h</text>
</a>
</g>
</g>
<!-- Node365&#45;&gt;Node733 -->
<g id="edge48" class="edge">
<title>Node365&#45;&gt;Node733</title>
<path fill="none" stroke="midnightblue" d="M909.56,-524.16C1055.47,-512.96 1445.17,-483.06 1616.83,-469.88"/>
<polygon fill="midnightblue" stroke="midnightblue" points="1617.13,-473.37 1626.83,-469.12 1616.59,-466.39 1617.13,-473.37"/>
</g>
<!-- Node734 -->
<g id="node29" class="node">
<title>Node734</title>
<g id="a_node29"><a xlink:href="compressed-slots-inl_8h.html" target="_top" xlink:title=" ">
<polygon fill="white" stroke="black" points="608.5,-447.5 608.5,-477.5 739.5,-477.5 739.5,-447.5 608.5,-447.5"/>
<text text-anchor="start" x="616.5" y="-465.5" font-family="Helvetica,sans-Serif" font-size="10.00">src/objects/compressed</text>
<text text-anchor="middle" x="674" y="-454.5" font-family="Helvetica,sans-Serif" font-size="10.00">&#45;slots&#45;inl.h</text>
</a>
</g>
</g>
<!-- Node365&#45;&gt;Node734 -->
<g id="edge62" class="edge">
<title>Node365&#45;&gt;Node734</title>
<path fill="none" stroke="midnightblue" d="M814.16,-514.4C787.18,-504.6 751.06,-491.48 722.23,-481.02"/>
<polygon fill="midnightblue" stroke="midnightblue" points="723.36,-477.7 712.76,-477.58 720.97,-484.28 723.36,-477.7"/>
</g>
<!-- Node543 -->
<g id="node30" class="node">
<title>Node543</title>
<g id="a_node30"><a xlink:href="descriptor-array_8h.html" target="_top" xlink:title=" ">
<polygon fill="white" stroke="red" points="234.5,-313.5 234.5,-343.5 355.5,-343.5 355.5,-313.5 234.5,-313.5"/>
<text text-anchor="start" x="242.5" y="-331.5" font-family="Helvetica,sans-Serif" font-size="10.00">src/objects/descriptor</text>
<text text-anchor="middle" x="295" y="-320.5" font-family="Helvetica,sans-Serif" font-size="10.00">&#45;array.h</text>
</a>
</g>
</g>
<!-- Node365&#45;&gt;Node543 -->
<g id="edge64" class="edge">
<title>Node365&#45;&gt;Node543</title>
<path fill="none" stroke="midnightblue" d="M796.4,-521.44C744.41,-513.96 665.68,-500.14 600,-478 496.07,-442.97 381.95,-380.32 327.46,-348.77"/>
<polygon fill="midnightblue" stroke="midnightblue" points="329.02,-345.63 318.61,-343.62 325.49,-351.68 329.02,-345.63"/>
</g>
<!-- Node510 -->
<g id="node31" class="node">
<title>Node510</title>
<g id="a_node31"><a xlink:href="maybe-object-inl_8h.html" target="_top" xlink:title=" ">
<polygon fill="white" stroke="red" points="898,-380.5 898,-410.5 1038,-410.5 1038,-380.5 898,-380.5"/>
<text text-anchor="start" x="906" y="-398.5" font-family="Helvetica,sans-Serif" font-size="10.00">src/objects/maybe&#45;object</text>
<text text-anchor="middle" x="968" y="-387.5" font-family="Helvetica,sans-Serif" font-size="10.00">&#45;inl.h</text>
</a>
</g>
</g>
<!-- Node365&#45;&gt;Node510 -->
<g id="edge69" class="edge">
<title>Node365&#45;&gt;Node510</title>
<path fill="none" stroke="midnightblue" d="M875.52,-514.43C889.16,-505.18 906.31,-492.2 919,-478 934.73,-460.41 948.17,-437.05 956.97,-419.85"/>
<polygon fill="midnightblue" stroke="midnightblue" points="960.29,-421.04 961.6,-410.53 954.02,-417.93 960.29,-421.04"/>
</g>
<!-- Node366&#45;&gt;Node2 -->
<g id="edge33" class="edge">
<title>Node366&#45;&gt;Node2</title>
<path fill="none" stroke="midnightblue" d="M829.57,-447.4C814.28,-438.2 794.12,-426.07 777.32,-415.95"/>
<polygon fill="midnightblue" stroke="midnightblue" points="778.76,-412.73 768.39,-410.58 775.15,-418.73 778.76,-412.73"/>
</g>
<!-- Node366&#45;&gt;Node4 -->
<g id="edge34" class="edge">
<title>Node366&#45;&gt;Node4</title>
<path fill="none" stroke="midnightblue" d="M853.07,-447.44C853.24,-411.56 853.71,-316.53 853.91,-275.88"/>
<polygon fill="midnightblue" stroke="midnightblue" points="857.41,-275.76 853.96,-265.74 850.41,-275.72 857.41,-275.76"/>
</g>
<!-- Node366&#45;&gt;Node29 -->
<g id="edge32" class="edge">
<title>Node366&#45;&gt;Node29</title>
<path fill="none" stroke="midnightblue" d="M854.51,-447.45C858.37,-414.14 869.68,-331.76 889,-313 944.4,-259.19 1001.04,-328.04 1059,-277 1097.5,-243.09 1059.84,-203.37 1097,-168 1118.8,-147.25 1149.66,-136.01 1177.97,-129.94"/>
<polygon fill="midnightblue" stroke="midnightblue" points="1178.72,-133.36 1187.86,-128.01 1177.37,-126.5 1178.72,-133.36"/>
</g>
<!-- Node366&#45;&gt;Node35 -->
<g id="edge31" class="edge">
<title>Node366&#45;&gt;Node35</title>
<path fill="none" stroke="midnightblue" d="M796.37,-453.49C605.86,-426.43 0,-339.6 0,-329.5 0,-329.5 0,-329.5 0,-255 0,-158.88 105.63,-194.58 198,-168 362.06,-120.8 408.15,-129.13 578,-112 855.99,-83.96 1188.81,-72.49 1330.13,-68.65"/>
<polygon fill="midnightblue" stroke="midnightblue" points="1330.47,-72.14 1340.37,-68.37 1330.28,-65.14 1330.47,-72.14"/>
</g>
<!-- Node367&#45;&gt;Node127 -->
<g id="edge44" class="edge">
<title>Node367&#45;&gt;Node127</title>
<path fill="none" stroke="midnightblue" d="M1104.96,-380.32C1093.53,-363.78 1078.67,-335.81 1089,-313 1099,-290.91 1116.28,-297 1130,-277 1145.85,-253.89 1155.34,-222.5 1160.11,-202.87"/>
<polygon fill="midnightblue" stroke="midnightblue" points="1163.54,-203.59 1162.34,-193.07 1156.71,-202.04 1163.54,-203.59"/>
</g>
<!-- Node367&#45;&gt;Node162 -->
<g id="edge45" class="edge">
<title>Node367&#45;&gt;Node162</title>
<path fill="none" stroke="midnightblue" d="M1056.24,-381.46C1053.12,-380.93 1050.03,-380.44 1047,-380 850.63,-351.54 786.55,-416.89 602,-344 581.41,-335.87 582.08,-324.24 563,-313 531.36,-294.36 492.35,-278.9 464.41,-268.98"/>
<polygon fill="midnightblue" stroke="midnightblue" points="465.25,-265.56 454.65,-265.58 462.95,-272.17 465.25,-265.56"/>
</g>
<!-- Node367&#45;&gt;Node107 -->
<g id="edge39" class="edge">
<title>Node367&#45;&gt;Node107</title>
<path fill="none" stroke="midnightblue" d="M1175.73,-391.77C1232.78,-387.28 1320.02,-375.41 1389,-344 1409.15,-334.82 1407.61,-321.64 1428,-313 1484.75,-288.95 1662.35,-323.32 1703,-277 1715.31,-262.97 1711.08,-251.83 1703,-235 1695.46,-219.29 1680.39,-206.93 1666.87,-198.37"/>
<polygon fill="midnightblue" stroke="midnightblue" points="1668.27,-195.13 1657.88,-193.06 1664.71,-201.16 1668.27,-195.13"/>
</g>
<!-- Node368 -->
<g id="node20" class="node">
<title>Node368</title>
<g id="a_node20"><a xlink:href="heap-layout_8h.html" target="_top" xlink:title=" ">
<polygon fill="white" stroke="red" points="1098,-319 1098,-338 1226,-338 1226,-319 1098,-319"/>
<text text-anchor="middle" x="1162" y="-326" font-family="Helvetica,sans-Serif" font-size="10.00">src/heap/heap&#45;layout.h</text>
</a>
</g>
</g>
<!-- Node367&#45;&gt;Node368 -->
<g id="edge36" class="edge">
<title>Node367&#45;&gt;Node368</title>
<path fill="none" stroke="midnightblue" d="M1125.98,-380.4C1133.01,-370.46 1142.46,-357.11 1149.92,-346.57"/>
<polygon fill="midnightblue" stroke="midnightblue" points="1152.93,-348.38 1155.85,-338.19 1147.21,-344.34 1152.93,-348.38"/>
</g>
<!-- Node369 -->
<g id="node21" class="node">
<title>Node369</title>
<g id="a_node21"><a xlink:href="memory-chunk-inl_8h.html" target="_top" xlink:title=" ">
<polygon fill="white" stroke="red" points="1244.5,-313.5 1244.5,-343.5 1379.5,-343.5 1379.5,-313.5 1244.5,-313.5"/>
<text text-anchor="start" x="1252.5" y="-331.5" font-family="Helvetica,sans-Serif" font-size="10.00">src/heap/memory&#45;chunk</text>
<text text-anchor="middle" x="1312" y="-320.5" font-family="Helvetica,sans-Serif" font-size="10.00">&#45;inl.h</text>
</a>
</g>
</g>
<!-- Node367&#45;&gt;Node369 -->
<g id="edge40" class="edge">
<title>Node367&#45;&gt;Node369</title>
<path fill="none" stroke="midnightblue" d="M1158.53,-380.4C1188.32,-370.52 1228.32,-357.25 1260.01,-346.74"/>
<polygon fill="midnightblue" stroke="midnightblue" points="1261.16,-350.05 1269.55,-343.58 1258.96,-343.4 1261.16,-350.05"/>
</g>
<!-- Node370 -->
<g id="node24" class="node">
<title>Node370</title>
<g id="a_node24"><a xlink:href="tagged-impl-inl_8h.html" target="_top" xlink:title=" ">
<polygon fill="white" stroke="red" points="898,-313.5 898,-343.5 1004,-343.5 1004,-313.5 898,-313.5"/>
<text text-anchor="start" x="906" y="-331.5" font-family="Helvetica,sans-Serif" font-size="10.00">src/objects/tagged</text>
<text text-anchor="middle" x="951" y="-320.5" font-family="Helvetica,sans-Serif" font-size="10.00">&#45;impl&#45;inl.h</text>
</a>
</g>
</g>
<!-- Node367&#45;&gt;Node370 -->
<g id="edge46" class="edge">
<title>Node367&#45;&gt;Node370</title>
<path fill="none" stroke="midnightblue" d="M1080.2,-380.4C1055.55,-370.69 1022.61,-357.71 996.16,-347.29"/>
<polygon fill="midnightblue" stroke="midnightblue" points="997.32,-343.99 986.73,-343.58 994.75,-350.5 997.32,-343.99"/>
</g>
<!-- Node368&#45;&gt;Node29 -->
<g id="edge37" class="edge">
<title>Node368&#45;&gt;Node29</title>
<path fill="none" stroke="midnightblue" d="M1167.64,-318.83C1180.58,-298.62 1212.65,-246.47 1231,-199 1238.34,-180.01 1243.59,-157.25 1246.69,-141.62"/>
<polygon fill="midnightblue" stroke="midnightblue" points="1250.15,-142.12 1248.56,-131.65 1243.27,-140.83 1250.15,-142.12"/>
</g>
<!-- Node368&#45;&gt;Node162 -->
<g id="edge38" class="edge">
<title>Node368&#45;&gt;Node162</title>
<path fill="none" stroke="midnightblue" d="M1097.86,-320.94C1071.57,-318.34 1040.84,-315.4 1013,-313 799.86,-294.64 745.08,-305.06 533,-277 514.7,-274.58 494.77,-271.02 477.23,-267.57"/>
<polygon fill="midnightblue" stroke="midnightblue" points="477.71,-264.1 467.22,-265.56 476.34,-270.96 477.71,-264.1"/>
</g>
<!-- Node369&#45;&gt;Node329 -->
<g id="edge41" class="edge">
<title>Node369&#45;&gt;Node329</title>
<path fill="none" stroke="midnightblue" d="M1373.62,-313.49C1432.67,-300.06 1520.56,-280.07 1574.41,-267.82"/>
<polygon fill="midnightblue" stroke="midnightblue" points="1575.41,-271.19 1584.38,-265.55 1573.86,-264.36 1575.41,-271.19"/>
</g>
<!-- Node329&#45;&gt;Node107 -->
<g id="edge43" class="edge">
<title>Node329&#45;&gt;Node107</title>
<path fill="none" stroke="midnightblue" d="M1624.21,-246.36C1626.93,-235.68 1631.65,-217.22 1635.22,-203.23"/>
<polygon fill="midnightblue" stroke="midnightblue" points="1638.69,-203.77 1637.77,-193.22 1631.91,-202.04 1638.69,-203.77"/>
</g>
<!-- Node43 -->
<g id="node23" class="node">
<title>Node43</title>
<g id="a_node23"><a xlink:href="hashing_8h.html" target="_top" xlink:title=" ">
<polygon fill="white" stroke="red" points="1468.5,-174 1468.5,-193 1575.5,-193 1575.5,-174 1468.5,-174"/>
<text text-anchor="middle" x="1522" y="-181" font-family="Helvetica,sans-Serif" font-size="10.00">src/base/hashing.h</text>
</a>
</g>
</g>
<!-- Node329&#45;&gt;Node43 -->
<g id="edge42" class="edge">
<title>Node329&#45;&gt;Node43</title>
<path fill="none" stroke="midnightblue" d="M1609.74,-246.36C1593.02,-234.57 1562.84,-213.29 1542.61,-199.03"/>
<polygon fill="midnightblue" stroke="midnightblue" points="1544.55,-196.12 1534.36,-193.22 1540.52,-201.84 1544.55,-196.12"/>
</g>
<!-- Node370&#45;&gt;Node4 -->
<g id="edge47" class="edge">
<title>Node370&#45;&gt;Node4</title>
<path fill="none" stroke="midnightblue" d="M931.37,-313.23C914.84,-301.22 891.26,-284.08 874.49,-271.89"/>
<polygon fill="midnightblue" stroke="midnightblue" points="876.1,-268.74 865.96,-265.69 871.99,-274.4 876.1,-268.74"/>
</g>
<!-- Node733&#45;&gt;Node29 -->
<g id="edge52" class="edge">
<title>Node733&#45;&gt;Node29</title>
<path fill="none" stroke="midnightblue" d="M1698.59,-452.95C1695.79,-437.58 1688.62,-404.6 1675,-380 1655.93,-345.54 1651.62,-331.78 1617,-313 1514.08,-257.15 1455.68,-338.46 1356,-277 1342.12,-268.44 1284.71,-178.41 1260.66,-140.1"/>
<polygon fill="midnightblue" stroke="midnightblue" points="1263.59,-138.18 1255.32,-131.56 1257.66,-141.89 1263.59,-138.18"/>
</g>
<!-- Node733&#45;&gt;Node35 -->
<g id="edge50" class="edge">
<title>Node733&#45;&gt;Node35</title>
<path fill="none" stroke="midnightblue" d="M1709.3,-452.88C1718.6,-443.59 1732.3,-427.84 1738,-411 1772.7,-308.45 1783.13,-256.66 1721,-168 1696.09,-132.46 1681.02,-128.79 1641,-112 1585.33,-88.64 1517.41,-77.36 1467.71,-71.94"/>
<polygon fill="midnightblue" stroke="midnightblue" points="1468.02,-68.45 1457.71,-70.9 1467.29,-75.41 1468.02,-68.45"/>
</g>
<!-- Node733&#45;&gt;Node37 -->
<g id="edge49" class="edge">
<title>Node733&#45;&gt;Node37</title>
<path fill="none" stroke="midnightblue" d="M1736.35,-452.97C1789.98,-437.98 1884,-401.45 1884,-329.5 1884,-329.5 1884,-329.5 1884,-121 1884,-52.71 1790.19,-25.97 1735.46,-16.19"/>
<polygon fill="midnightblue" stroke="midnightblue" points="1735.84,-12.7 1725.4,-14.5 1734.68,-19.61 1735.84,-12.7"/>
</g>
<!-- Node733&#45;&gt;Node43 -->
<g id="edge51" class="edge">
<title>Node733&#45;&gt;Node43</title>
<path fill="none" stroke="midnightblue" d="M1705.04,-452.93C1710.47,-443.16 1718.76,-426.54 1722,-411 1731.15,-367.1 1731.53,-342.77 1698,-313 1644.47,-265.47 1591.04,-328.19 1541,-277 1521.86,-257.41 1519.61,-224 1520.35,-203.14"/>
<polygon fill="midnightblue" stroke="midnightblue" points="1523.86,-203.22 1520.99,-193.02 1516.87,-202.78 1523.86,-203.22"/>
</g>
<!-- Node716 -->
<g id="node26" class="node">
<title>Node716</title>
<g id="a_node26"><a xlink:href="mark-compact_8h.html" target="_top" xlink:title=" ">
<polygon fill="white" stroke="red" points="1524.5,-386 1524.5,-405 1665.5,-405 1665.5,-386 1524.5,-386"/>
<text text-anchor="middle" x="1595" y="-393" font-family="Helvetica,sans-Serif" font-size="10.00">src/heap/mark&#45;compact.h</text>
</a>
</g>
</g>
<!-- Node733&#45;&gt;Node716 -->
<g id="edge53" class="edge">
<title>Node733&#45;&gt;Node716</title>
<path fill="none" stroke="midnightblue" d="M1685.84,-452.73C1668.29,-441.87 1638.16,-423.22 1617.44,-410.39"/>
<polygon fill="midnightblue" stroke="midnightblue" points="1619.28,-407.41 1608.94,-405.13 1615.6,-413.37 1619.28,-407.41"/>
</g>
<!-- Node181 -->
<g id="node27" class="node">
<title>Node181</title>
<g id="a_node27"><a xlink:href="marking-worklist_8h.html" target="_top" xlink:title=" ">
<polygon fill="white" stroke="red" points="1436.5,-319 1436.5,-338 1589.5,-338 1589.5,-319 1436.5,-319"/>
<text text-anchor="middle" x="1513" y="-326" font-family="Helvetica,sans-Serif" font-size="10.00">src/heap/marking&#45;worklist.h</text>
</a>
</g>
</g>
<!-- Node733&#45;&gt;Node181 -->
<g id="edge58" class="edge">
<title>Node733&#45;&gt;Node181</title>
<path fill="none" stroke="midnightblue" d="M1640.84,-452.96C1593.16,-444.75 1531.58,-430.67 1516,-411 1502.02,-393.35 1504.25,-366.19 1507.95,-348.13"/>
<polygon fill="midnightblue" stroke="midnightblue" points="1511.39,-348.78 1510.3,-338.24 1504.58,-347.15 1511.39,-348.78"/>
</g>
<!-- Node321 -->
<g id="node28" class="node">
<title>Node321</title>
<g id="a_node28"><a xlink:href="mutable-page-metadata_8h.html" target="_top" xlink:title=" ">
<polygon fill="white" stroke="red" points="1364.5,-241 1364.5,-271 1493.5,-271 1493.5,-241 1364.5,-241"/>
<text text-anchor="start" x="1372.5" y="-259" font-family="Helvetica,sans-Serif" font-size="10.00">src/heap/mutable&#45;page</text>
<text text-anchor="middle" x="1429" y="-248" font-family="Helvetica,sans-Serif" font-size="10.00">&#45;metadata.h</text>
</a>
</g>
</g>
<!-- Node733&#45;&gt;Node321 -->
<g id="edge59" class="edge">
<title>Node733&#45;&gt;Node321</title>
<path fill="none" stroke="midnightblue" d="M1701.77,-452.97C1703.75,-442.97 1706.83,-425.87 1708,-411 1711.67,-364.43 1707.56,-340.78 1670,-313 1610.7,-269.14 1579.76,-294.05 1508,-277 1503.34,-275.89 1498.53,-274.73 1493.7,-273.54"/>
<polygon fill="midnightblue" stroke="midnightblue" points="1494.32,-270.09 1483.77,-271.09 1492.64,-276.89 1494.32,-270.09"/>
</g>
<!-- Node716&#45;&gt;Node29 -->
<g id="edge55" class="edge">
<title>Node716&#45;&gt;Node29</title>
<path fill="none" stroke="midnightblue" d="M1598.99,-385.6C1605.73,-369.06 1616.95,-333.43 1599,-313 1517.07,-219.73 1422.22,-350.28 1322,-277 1276.82,-243.96 1259.07,-175.36 1252.9,-142.02"/>
<polygon fill="midnightblue" stroke="midnightblue" points="1256.29,-141.09 1251.17,-131.81 1249.39,-142.25 1256.29,-141.09"/>
</g>
<!-- Node716&#45;&gt;Node35 -->
<g id="edge54" class="edge">
<title>Node716&#45;&gt;Node35</title>
<path fill="none" stroke="midnightblue" d="M1610.28,-385.98C1638.34,-369.34 1697.3,-329.49 1720,-277 1739.73,-231.38 1730.64,-202.64 1695,-168 1633.06,-107.79 1533.8,-83.41 1467.52,-73.58"/>
<polygon fill="midnightblue" stroke="midnightblue" points="1467.97,-70.11 1457.58,-72.18 1466.99,-77.04 1467.97,-70.11"/>
</g>
<!-- Node716&#45;&gt;Node181 -->
<g id="edge56" class="edge">
<title>Node716&#45;&gt;Node181</title>
<path fill="none" stroke="midnightblue" d="M1583.94,-385.73C1570.66,-375.21 1548.17,-357.38 1532.07,-344.62"/>
<polygon fill="midnightblue" stroke="midnightblue" points="1533.89,-341.6 1523.88,-338.13 1529.55,-347.08 1533.89,-341.6"/>
</g>
<!-- Node181&#45;&gt;Node4 -->
<g id="edge57" class="edge">
<title>Node181&#45;&gt;Node4</title>
<path fill="none" stroke="midnightblue" d="M1444.18,-318.99C1426.23,-316.89 1406.9,-314.75 1389,-313 1186.67,-293.19 1133.59,-310.07 933,-277 919.78,-274.82 905.53,-271.52 892.83,-268.22"/>
<polygon fill="midnightblue" stroke="midnightblue" points="893.58,-264.8 883.02,-265.6 891.77,-271.56 893.58,-264.8"/>
</g>
<!-- Node321&#45;&gt;Node29 -->
<g id="edge60" class="edge">
<title>Node321&#45;&gt;Node29</title>
<path fill="none" stroke="midnightblue" d="M1418.95,-240.68C1405.2,-221.93 1378.89,-188.98 1350,-168 1330.63,-153.93 1306.16,-142.82 1286.27,-135.17"/>
<polygon fill="midnightblue" stroke="midnightblue" points="1287.23,-131.79 1276.63,-131.58 1284.79,-138.35 1287.23,-131.79"/>
</g>
<!-- Node543&#45;&gt;Node29 -->
<g id="edge65" class="edge">
<title>Node543&#45;&gt;Node29</title>
<path fill="none" stroke="midnightblue" d="M273.7,-313.38C262.27,-304.46 249.27,-291.84 243,-277 223.82,-231.64 224.19,-198.32 263,-168 298.93,-139.94 956.05,-127.45 1177.69,-124.02"/>
<polygon fill="midnightblue" stroke="midnightblue" points="1177.97,-127.52 1187.91,-123.86 1177.86,-120.52 1177.97,-127.52"/>
</g>
<!-- Node543&#45;&gt;Node173 -->
<g id="edge67" class="edge">
<title>Node543&#45;&gt;Node173</title>
<path fill="none" stroke="midnightblue" d="M301.45,-313.47C311.42,-293.27 332.45,-256.12 361,-235 387.36,-215.5 421.7,-203.23 450.97,-195.68"/>
<polygon fill="midnightblue" stroke="midnightblue" points="451.81,-199.08 460.69,-193.29 450.14,-192.28 451.81,-199.08"/>
</g>
<!-- Node543&#45;&gt;Node174 -->
<g id="edge68" class="edge">
<title>Node543&#45;&gt;Node174</title>
<path fill="none" stroke="midnightblue" d="M278.2,-313.47C268.52,-304.24 257.25,-291.26 252,-277 245.55,-259.48 243.44,-251.59 252,-235 258.64,-222.13 270.25,-211.82 282.18,-203.96"/>
<polygon fill="midnightblue" stroke="midnightblue" points="284.14,-206.86 290.85,-198.66 280.49,-200.88 284.14,-206.86"/>
</g>
<!-- Node543&#45;&gt;Node162 -->
<g id="edge66" class="edge">
<title>Node543&#45;&gt;Node162</title>
<path fill="none" stroke="midnightblue" d="M321.59,-313.4C345.31,-300.83 379.78,-282.56 403,-270.25"/>
<polygon fill="midnightblue" stroke="midnightblue" points="404.7,-273.31 411.9,-265.53 401.43,-267.12 404.7,-273.31"/>
</g>
<!-- Node510&#45;&gt;Node127 -->
<g id="edge70" class="edge">
<title>Node510&#45;&gt;Node127</title>
<path fill="none" stroke="midnightblue" d="M984.4,-380.39C1008.88,-359.03 1055.93,-316.75 1092,-277 1114.8,-251.87 1138.44,-220.24 1152.16,-201.24"/>
<polygon fill="midnightblue" stroke="midnightblue" points="1155.07,-203.17 1158.04,-193 1149.38,-199.1 1155.07,-203.17"/>
</g>
<!-- Node510&#45;&gt;Node370 -->
<g id="edge71" class="edge">
<title>Node510&#45;&gt;Node370</title>
<path fill="none" stroke="midnightblue" d="M964.31,-380.4C962.24,-372.47 959.6,-362.38 957.22,-353.27"/>
<polygon fill="midnightblue" stroke="midnightblue" points="960.6,-352.37 954.68,-343.58 953.83,-354.14 960.6,-352.37"/>
</g>
<!-- Node518&#45;&gt;Node4 -->
<g id="edge73" class="edge">
<title>Node518&#45;&gt;Node4</title>
<path fill="none" stroke="midnightblue" d="M554.25,-314.9C624.33,-301.36 734.38,-280.1 799.84,-267.46"/>
<polygon fill="midnightblue" stroke="midnightblue" points="800.8,-270.84 809.95,-265.51 799.47,-263.97 800.8,-270.84"/>
</g>
<!-- Node518&#45;&gt;Node173 -->
<g id="edge74" class="edge">
<title>Node518&#45;&gt;Node173</title>
<path fill="none" stroke="midnightblue" d="M491.29,-313.27C495.22,-288.85 503.28,-238.74 508.1,-208.74"/>
<polygon fill="midnightblue" stroke="midnightblue" points="511.59,-209.11 509.72,-198.68 504.68,-207.99 511.59,-209.11"/>
</g>
<!-- Node518&#45;&gt;Node174 -->
<g id="edge75" class="edge">
<title>Node518&#45;&gt;Node174</title>
<path fill="none" stroke="midnightblue" d="M423.72,-324.14C389.69,-318.74 350.55,-306.03 328,-277 313.11,-257.84 314.04,-229.13 317.31,-208.79"/>
<polygon fill="midnightblue" stroke="midnightblue" points="320.79,-209.21 319.22,-198.73 313.91,-207.9 320.79,-209.21"/>
</g>
</g>
</svg>
