<?xml version="1.0" encoding="UTF-8" standalone="no"?>
<!DOCTYPE svg PUBLIC "-//W3C//DTD SVG 1.1//EN"
 "http://www.w3.org/Graphics/SVG/1.1/DTD/svg11.dtd">
<!-- Generated by graphviz version 2.43.0 (0)
 -->
<!-- Title: /mnt/V8SourceCode/src/libplatform/tracing Pages: 1 -->
<svg width="293pt" height="367pt"
 viewBox="0.00 0.00 293.45 367.00" xmlns="http://www.w3.org/2000/svg" xmlns:xlink="http://www.w3.org/1999/xlink">
<g id="graph0" class="graph" transform="scale(1 1) rotate(0) translate(4 363)">
<title>/mnt/V8SourceCode/src/libplatform/tracing</title>
<polygon fill="white" stroke="transparent" points="-4,4 -4,-363 289.45,-363 289.45,4 -4,4"/>
<g id="clust1" class="cluster">
<title>clusterdir_7eef88826c8cf477c77240b6a7737e18</title>
<g id="a_clust1"><a xlink:href="dir_7eef88826c8cf477c77240b6a7737e18.html" target="_top" xlink:title="libplatform">
<polygon fill="#ddddee" stroke="black" points="8,-208 8,-351 79,-351 79,-208 8,-208"/>
<text text-anchor="middle" x="43.5" y="-339" font-family="Helvetica,sans-Serif" font-size="10.00">libplatform</text>
</a>
</g>
</g>
<!-- dir_fba81e819059063052d378573ea4e3a7 -->
<g id="node1" class="node">
<title>dir_fba81e819059063052d378573ea4e3a7</title>
<g id="a_node1"><a xlink:href="dir_fba81e819059063052d378573ea4e3a7.html" target="_top" xlink:title="etw">
<polygon fill="none" stroke="black" points="70,-252 16,-252 16,-216 70,-216 70,-252"/>
<text text-anchor="middle" x="43" y="-231.5" font-family="Helvetica,sans-Serif" font-size="10.00">etw</text>
</a>
</g>
</g>
<!-- dir_3841828decefa92b4195ad91690e0638 -->
<g id="node2" class="node">
<title>dir_3841828decefa92b4195ad91690e0638</title>
<g id="a_node2"><a xlink:href="dir_3841828decefa92b4195ad91690e0638.html" target="_top" xlink:title="tracing">
<polygon fill="#eeeeff" stroke="black" points="71,-324 17,-324 17,-288 71,-288 71,-324"/>
<text text-anchor="middle" x="44" y="-303.5" font-family="Helvetica,sans-Serif" font-size="10.00">tracing</text>
</a>
</g>
</g>
<!-- dir_3841828decefa92b4195ad91690e0638&#45;&gt;dir_fba81e819059063052d378573ea4e3a7 -->
<g id="edge8" class="edge">
<title>dir_3841828decefa92b4195ad91690e0638&#45;&gt;dir_fba81e819059063052d378573ea4e3a7</title>
<path fill="none" stroke="black" d="M43.75,-287.7C43.64,-279.98 43.51,-270.71 43.39,-262.11"/>
<polygon fill="black" stroke="black" points="46.89,-262.05 43.24,-252.1 39.89,-262.15 46.89,-262.05"/>
<g id="a_edge8&#45;headlabel"><a xlink:href="dir_000132_000131.html" target="_top" xlink:title="1">
<text text-anchor="middle" x="49.78" y="-263.11" font-family="Helvetica,sans-Serif" font-size="10.00">1</text>
</a>
</g>
</g>
<!-- dir_14b786cf88a9b0b5415467a85e38ef82 -->
<g id="node3" class="node">
<title>dir_14b786cf88a9b0b5415467a85e38ef82</title>
<g id="a_node3"><a xlink:href="dir_14b786cf88a9b0b5415467a85e38ef82.html" target="_top" xlink:title="tracing">
<polygon fill="none" stroke="black" points="210,-252 156,-252 156,-216 210,-216 210,-252"/>
<text text-anchor="middle" x="183" y="-231.5" font-family="Helvetica,sans-Serif" font-size="10.00">tracing</text>
</a>
</g>
</g>
<!-- dir_3841828decefa92b4195ad91690e0638&#45;&gt;dir_14b786cf88a9b0b5415467a85e38ef82 -->
<g id="edge4" class="edge">
<title>dir_3841828decefa92b4195ad91690e0638&#45;&gt;dir_14b786cf88a9b0b5415467a85e38ef82</title>
<path fill="none" stroke="black" d="M71.13,-291.34C92.75,-280.45 123.22,-265.1 146.9,-253.18"/>
<polygon fill="black" stroke="black" points="148.58,-256.25 155.94,-248.63 145.43,-250 148.58,-256.25"/>
<g id="a_edge4&#45;headlabel"><a xlink:href="dir_000132_000124.html" target="_top" xlink:title="2">
<text text-anchor="middle" x="146.65" y="-257.9" font-family="Helvetica,sans-Serif" font-size="10.00">2</text>
</a>
</g>
</g>
<!-- dir_15cd31420d7325e73dc6fd0ece2ba0c9 -->
<g id="node4" class="node">
<title>dir_15cd31420d7325e73dc6fd0ece2ba0c9</title>
<g id="a_node4"><a xlink:href="dir_15cd31420d7325e73dc6fd0ece2ba0c9.html" target="_top" xlink:title="base">
<polygon fill="white" stroke="red" points="274,-180 220,-180 220,-144 274,-144 274,-180"/>
<text text-anchor="middle" x="247" y="-159.5" font-family="Helvetica,sans-Serif" font-size="10.00">base</text>
</a>
</g>
</g>
<!-- dir_3841828decefa92b4195ad91690e0638&#45;&gt;dir_15cd31420d7325e73dc6fd0ece2ba0c9 -->
<g id="edge5" class="edge">
<title>dir_3841828decefa92b4195ad91690e0638&#45;&gt;dir_15cd31420d7325e73dc6fd0ece2ba0c9</title>
<path fill="none" stroke="black" d="M71.01,-304.35C109.14,-301.95 178.61,-291.96 219,-252 235.42,-235.76 242.23,-209.99 245.05,-190.36"/>
<polygon fill="black" stroke="black" points="248.56,-190.52 246.24,-180.18 241.6,-189.71 248.56,-190.52"/>
<g id="a_edge5&#45;headlabel"><a xlink:href="dir_000132_000011.html" target="_top" xlink:title="8">
<text text-anchor="middle" x="250.96" y="-191.92" font-family="Helvetica,sans-Serif" font-size="10.00">8</text>
</a>
</g>
</g>
<!-- dir_766296db99a93e596ab8775592dcbea4 -->
<g id="node5" class="node">
<title>dir_766296db99a93e596ab8775592dcbea4</title>
<g id="a_node5"><a xlink:href="dir_766296db99a93e596ab8775592dcbea4.html" target="_top" xlink:title="objects">
<polygon fill="none" stroke="black" points="219,-108 165,-108 165,-72 219,-72 219,-108"/>
<text text-anchor="middle" x="192" y="-87.5" font-family="Helvetica,sans-Serif" font-size="10.00">objects</text>
</a>
</g>
</g>
<!-- dir_3841828decefa92b4195ad91690e0638&#45;&gt;dir_766296db99a93e596ab8775592dcbea4 -->
<g id="edge6" class="edge">
<title>dir_3841828decefa92b4195ad91690e0638&#45;&gt;dir_766296db99a93e596ab8775592dcbea4</title>
<path fill="none" stroke="black" d="M55.86,-287.85C81.79,-250.36 143.62,-160.95 174.22,-116.7"/>
<polygon fill="black" stroke="black" points="177.27,-118.45 180.08,-108.23 171.52,-114.47 177.27,-118.45"/>
<g id="a_edge6&#45;headlabel"><a xlink:href="dir_000132_000035.html" target="_top" xlink:title="2">
<text text-anchor="middle" x="177.56" y="-120.52" font-family="Helvetica,sans-Serif" font-size="10.00">2</text>
</a>
</g>
</g>
<!-- dir_b9872d1f3a2ee817aaa33ebd0513511d -->
<g id="node6" class="node">
<title>dir_b9872d1f3a2ee817aaa33ebd0513511d</title>
<g id="a_node6"><a xlink:href="dir_b9872d1f3a2ee817aaa33ebd0513511d.html" target="_top" xlink:title="include">
<polygon fill="white" stroke="red" points="219,-36 165,-36 165,0 219,0 219,-36"/>
<text text-anchor="middle" x="192" y="-15.5" font-family="Helvetica,sans-Serif" font-size="10.00">include</text>
</a>
</g>
</g>
<!-- dir_3841828decefa92b4195ad91690e0638&#45;&gt;dir_b9872d1f3a2ee817aaa33ebd0513511d -->
<g id="edge7" class="edge">
<title>dir_3841828decefa92b4195ad91690e0638&#45;&gt;dir_b9872d1f3a2ee817aaa33ebd0513511d</title>
<path fill="none" stroke="black" d="M71.25,-304.43C112.78,-302.21 192.48,-292.54 244,-252 272.6,-229.49 274.06,-215.28 283,-180 296.42,-127.06 251.84,-73.4 220.4,-43.34"/>
<polygon fill="black" stroke="black" points="222.45,-40.46 212.74,-36.22 217.68,-45.59 222.45,-40.46"/>
<g id="a_edge7&#45;headlabel"><a xlink:href="dir_000132_000002.html" target="_top" xlink:title="9">
<text text-anchor="middle" x="227.01" y="-38.33" font-family="Helvetica,sans-Serif" font-size="10.00">9</text>
</a>
</g>
</g>
<!-- dir_14b786cf88a9b0b5415467a85e38ef82&#45;&gt;dir_15cd31420d7325e73dc6fd0ece2ba0c9 -->
<g id="edge12" class="edge">
<title>dir_14b786cf88a9b0b5415467a85e38ef82&#45;&gt;dir_15cd31420d7325e73dc6fd0ece2ba0c9</title>
<path fill="none" stroke="black" d="M198.82,-215.7C206.57,-207.22 216.04,-196.86 224.52,-187.58"/>
<polygon fill="black" stroke="black" points="227.2,-189.85 231.36,-180.1 222.03,-185.12 227.2,-189.85"/>
<g id="a_edge12&#45;headlabel"><a xlink:href="dir_000124_000011.html" target="_top" xlink:title="16">
<text text-anchor="middle" x="226.87" y="-191.92" font-family="Helvetica,sans-Serif" font-size="10.00">16</text>
</a>
</g>
</g>
<!-- dir_14b786cf88a9b0b5415467a85e38ef82&#45;&gt;dir_766296db99a93e596ab8775592dcbea4 -->
<g id="edge13" class="edge">
<title>dir_14b786cf88a9b0b5415467a85e38ef82&#45;&gt;dir_766296db99a93e596ab8775592dcbea4</title>
<path fill="none" stroke="black" d="M179.5,-215.87C178.48,-191.67 181,-147.21 184.8,-118.39"/>
<polygon fill="black" stroke="black" points="188.31,-118.59 186.32,-108.19 181.39,-117.57 188.31,-118.59"/>
<g id="a_edge13&#45;headlabel"><a xlink:href="dir_000124_000035.html" target="_top" xlink:title="21">
<text text-anchor="middle" x="190.59" y="-120.07" font-family="Helvetica,sans-Serif" font-size="10.00">21</text>
</a>
</g>
</g>
<!-- dir_14b786cf88a9b0b5415467a85e38ef82&#45;&gt;dir_b9872d1f3a2ee817aaa33ebd0513511d -->
<g id="edge14" class="edge">
<title>dir_14b786cf88a9b0b5415467a85e38ef82&#45;&gt;dir_b9872d1f3a2ee817aaa33ebd0513511d</title>
<path fill="none" stroke="black" d="M174.98,-215.74C162.24,-185.88 140.34,-122.93 156,-72 159.01,-62.22 164.51,-52.62 170.32,-44.33"/>
<polygon fill="black" stroke="black" points="173.19,-46.33 176.39,-36.23 167.59,-42.13 173.19,-46.33"/>
<g id="a_edge14&#45;headlabel"><a xlink:href="dir_000124_000002.html" target="_top" xlink:title="7">
<text text-anchor="middle" x="173.31" y="-48.41" font-family="Helvetica,sans-Serif" font-size="10.00">7</text>
</a>
</g>
</g>
<!-- dir_15cd31420d7325e73dc6fd0ece2ba0c9&#45;&gt;dir_766296db99a93e596ab8775592dcbea4 -->
<g id="edge1" class="edge">
<title>dir_15cd31420d7325e73dc6fd0ece2ba0c9&#45;&gt;dir_766296db99a93e596ab8775592dcbea4</title>
<path fill="none" stroke="black" d="M227.49,-143.7C220.18,-135.47 212.13,-125.48 205.45,-116.42"/>
<polygon fill="black" stroke="black" points="208.19,-114.23 199.54,-108.1 202.48,-118.28 208.19,-114.23"/>
<g id="a_edge1&#45;headlabel"><a xlink:href="dir_000011_000035.html" target="_top" xlink:title="5">
<text text-anchor="middle" x="212.59" y="-113.01" font-family="Helvetica,sans-Serif" font-size="10.00">5</text>
</a>
</g>
</g>
<!-- dir_15cd31420d7325e73dc6fd0ece2ba0c9&#45;&gt;dir_b9872d1f3a2ee817aaa33ebd0513511d -->
<g id="edge2" class="edge">
<title>dir_15cd31420d7325e73dc6fd0ece2ba0c9&#45;&gt;dir_b9872d1f3a2ee817aaa33ebd0513511d</title>
<path fill="none" stroke="black" d="M245.3,-143.67C243.05,-125.29 238.11,-95.69 228,-72 223.92,-62.43 218.01,-52.78 212.16,-44.39"/>
<polygon fill="black" stroke="black" points="214.88,-42.17 206.16,-36.15 209.22,-46.29 214.88,-42.17"/>
<g id="a_edge2&#45;headlabel"><a xlink:href="dir_000011_000002.html" target="_top" xlink:title="21">
<text text-anchor="middle" x="219.29" y="-40.91" font-family="Helvetica,sans-Serif" font-size="10.00">21</text>
</a>
</g>
</g>
<!-- dir_766296db99a93e596ab8775592dcbea4&#45;&gt;dir_14b786cf88a9b0b5415467a85e38ef82 -->
<g id="edge9" class="edge">
<title>dir_766296db99a93e596ab8775592dcbea4&#45;&gt;dir_14b786cf88a9b0b5415467a85e38ef82</title>
<path fill="none" stroke="black" d="M195.5,-108.19C196.52,-132.42 193.99,-176.89 190.19,-205.68"/>
<polygon fill="black" stroke="black" points="186.68,-205.47 188.67,-215.87 193.6,-206.5 186.68,-205.47"/>
<g id="a_edge9&#45;headlabel"><a xlink:href="dir_000035_000124.html" target="_top" xlink:title="1">
<text text-anchor="middle" x="184.4" y="-198.99" font-family="Helvetica,sans-Serif" font-size="10.00">1</text>
</a>
</g>
</g>
<!-- dir_766296db99a93e596ab8775592dcbea4&#45;&gt;dir_15cd31420d7325e73dc6fd0ece2ba0c9 -->
<g id="edge10" class="edge">
<title>dir_766296db99a93e596ab8775592dcbea4&#45;&gt;dir_15cd31420d7325e73dc6fd0ece2ba0c9</title>
<path fill="none" stroke="black" d="M211.33,-108.1C218.63,-116.3 226.69,-126.28 233.38,-135.36"/>
<polygon fill="black" stroke="black" points="230.67,-137.58 239.32,-143.7 236.37,-133.52 230.67,-137.58"/>
<g id="a_edge10&#45;headlabel"><a xlink:href="dir_000035_000011.html" target="_top" xlink:title="123">
<text text-anchor="middle" x="226.27" y="-133.8" font-family="Helvetica,sans-Serif" font-size="10.00">123</text>
</a>
</g>
</g>
<!-- dir_766296db99a93e596ab8775592dcbea4&#45;&gt;dir_b9872d1f3a2ee817aaa33ebd0513511d -->
<g id="edge11" class="edge">
<title>dir_766296db99a93e596ab8775592dcbea4&#45;&gt;dir_b9872d1f3a2ee817aaa33ebd0513511d</title>
<path fill="none" stroke="black" d="M186.08,-71.7C185.29,-63.98 185.06,-54.71 185.4,-46.11"/>
<polygon fill="black" stroke="black" points="188.9,-46.32 186.1,-36.1 181.92,-45.84 188.9,-46.32"/>
<g id="a_edge11&#45;headlabel"><a xlink:href="dir_000035_000002.html" target="_top" xlink:title="35">
<text text-anchor="middle" x="191.48" y="-47.61" font-family="Helvetica,sans-Serif" font-size="10.00">35</text>
</a>
</g>
</g>
<!-- dir_b9872d1f3a2ee817aaa33ebd0513511d&#45;&gt;dir_766296db99a93e596ab8775592dcbea4 -->
<g id="edge3" class="edge">
<title>dir_b9872d1f3a2ee817aaa33ebd0513511d&#45;&gt;dir_766296db99a93e596ab8775592dcbea4</title>
<path fill="none" stroke="black" d="M197.9,-36.1C198.7,-43.79 198.94,-53.05 198.6,-61.67"/>
<polygon fill="black" stroke="black" points="195.11,-61.48 197.92,-71.7 202.09,-61.96 195.11,-61.48"/>
<g id="a_edge3&#45;headlabel"><a xlink:href="dir_000002_000035.html" target="_top" xlink:title="1">
<text text-anchor="middle" x="192.52" y="-55.2" font-family="Helvetica,sans-Serif" font-size="10.00">1</text>
</a>
</g>
</g>
</g>
</svg>
