<?xml version="1.0" encoding="UTF-8" standalone="no"?>
<!DOCTYPE svg PUBLIC "-//W3C//DTD SVG 1.1//EN"
 "http://www.w3.org/Graphics/SVG/1.1/DTD/svg11.dtd">
<!-- Generated by graphviz version 2.43.0 (0)
 -->
<!-- Title: Graphical Class Hierarchy Pages: 1 -->
<svg width="285pt" height="50pt"
 viewBox="0.00 0.00 285.00 50.00" xmlns="http://www.w3.org/2000/svg" xmlns:xlink="http://www.w3.org/1999/xlink">
<g id="graph0" class="graph" transform="scale(1 1) rotate(0) translate(4 46)">
<title>Graphical Class Hierarchy</title>
<polygon fill="white" stroke="transparent" points="-4,4 -4,-46 281,-46 281,4 -4,4"/>
<!-- Node3434 -->
<g id="node1" class="node">
<title>Node3434</title>
<g id="a_node1"><a xlink:title=" ">
<polygon fill="white" stroke="#bfbfbf" points="0,-11.5 0,-30.5 89,-30.5 89,-11.5 0,-11.5"/>
<text text-anchor="middle" x="44.5" y="-18.5" font-family="Helvetica,sans-Serif" font-size="10.00">std::is_base_of</text>
</a>
</g>
</g>
<!-- Node0 -->
<g id="node2" class="node">
<title>Node0</title>
<g id="a_node2"><a xlink:href="structv8_1_1internal_1_1detail_1_1is__complex__subtype.html" target="_top" xlink:title=" ">
<polygon fill="white" stroke="black" points="125,-0.5 125,-41.5 277,-41.5 277,-0.5 125,-0.5"/>
<text text-anchor="start" x="133" y="-29.5" font-family="Helvetica,sans-Serif" font-size="10.00">v8::internal::detail</text>
<text text-anchor="start" x="133" y="-18.5" font-family="Helvetica,sans-Serif" font-size="10.00">::is_complex_subtype</text>
<text text-anchor="middle" x="201" y="-7.5" font-family="Helvetica,sans-Serif" font-size="10.00">&lt; Derived, Base, Enabled &gt;</text>
</a>
</g>
</g>
<!-- Node3434&#45;&gt;Node0 -->
<g id="edge1" class="edge">
<title>Node3434&#45;&gt;Node0</title>
<path fill="none" stroke="midnightblue" d="M99.48,-21C107.66,-21 116.22,-21 124.74,-21"/>
<polygon fill="midnightblue" stroke="midnightblue" points="99.36,-17.5 89.36,-21 99.36,-24.5 99.36,-17.5"/>
</g>
</g>
</svg>
