<?xml version="1.0" encoding="UTF-8" standalone="no"?>
<!DOCTYPE svg PUBLIC "-//W3C//DTD SVG 1.1//EN"
 "http://www.w3.org/Graphics/SVG/1.1/DTD/svg11.dtd">
<!-- Generated by graphviz version 2.43.0 (0)
 -->
<!-- Title: Graphical Class Hierarchy Pages: 1 -->
<svg width="599pt" height="122pt"
 viewBox="0.00 0.00 599.00 121.50" xmlns="http://www.w3.org/2000/svg" xmlns:xlink="http://www.w3.org/1999/xlink">
<g id="graph0" class="graph" transform="scale(1 1) rotate(0) translate(4 117.5)">
<title>Graphical Class Hierarchy</title>
<polygon fill="white" stroke="transparent" points="-4,4 -4,-117.5 595,-117.5 595,4 -4,4"/>
<!-- Node0 -->
<g id="node1" class="node">
<title>Node0</title>
<g id="a_node1"><a xlink:href="classv8_1_1internal_1_1ParallelWorkItem.html" target="_top" xlink:title=" ">
<polygon fill="white" stroke="black" points="0,-35.5 0,-54.5 161,-54.5 161,-35.5 0,-35.5"/>
<text text-anchor="middle" x="80.5" y="-42.5" font-family="Helvetica,sans-Serif" font-size="10.00">v8::internal::ParallelWorkItem</text>
</a>
</g>
</g>
<!-- Node1 -->
<g id="node2" class="node">
<title>Node1</title>
<g id="a_node2"><a xlink:href="classv8_1_1internal_1_1UpdatingItem.html" target="_top" xlink:title=" ">
<polygon fill="white" stroke="black" points="216,-60.5 216,-79.5 361,-79.5 361,-60.5 216,-60.5"/>
<text text-anchor="middle" x="288.5" y="-67.5" font-family="Helvetica,sans-Serif" font-size="10.00">v8::internal::UpdatingItem</text>
</a>
</g>
</g>
<!-- Node0&#45;&gt;Node1 -->
<g id="edge1" class="edge">
<title>Node0&#45;&gt;Node1</title>
<path fill="none" stroke="midnightblue" d="M169.93,-55.73C185.2,-57.59 200.91,-59.49 215.68,-61.28"/>
<polygon fill="midnightblue" stroke="midnightblue" points="170.32,-52.25 159.97,-54.52 169.47,-59.2 170.32,-52.25"/>
</g>
<!-- Node4 -->
<g id="node5" class="node">
<title>Node4</title>
<g id="a_node5"><a xlink:href="classv8_1_1internal_1_1YoungGenerationRememberedSetsMarkingWorklist_1_1MarkingItem.html" target="_top" xlink:title=" ">
<polygon fill="white" stroke="black" points="197,-0.5 197,-41.5 380,-41.5 380,-0.5 197,-0.5"/>
<text text-anchor="start" x="205" y="-29.5" font-family="Helvetica,sans-Serif" font-size="10.00">v8::internal::YoungGeneration</text>
<text text-anchor="start" x="205" y="-18.5" font-family="Helvetica,sans-Serif" font-size="10.00">RememberedSetsMarkingWorklist</text>
<text text-anchor="middle" x="288.5" y="-7.5" font-family="Helvetica,sans-Serif" font-size="10.00">::MarkingItem</text>
</a>
</g>
</g>
<!-- Node0&#45;&gt;Node4 -->
<g id="edge4" class="edge">
<title>Node0&#45;&gt;Node4</title>
<path fill="none" stroke="midnightblue" d="M171.35,-34.53C179.77,-33.55 188.32,-32.56 196.75,-31.57"/>
<polygon fill="midnightblue" stroke="midnightblue" points="170.67,-31.09 161.14,-35.72 171.48,-38.04 170.67,-31.09"/>
</g>
<!-- Node2 -->
<g id="node3" class="node">
<title>Node2</title>
<g id="a_node3"><a xlink:href="classv8_1_1internal_1_1EphemeronTableUpdatingItem.html" target="_top" xlink:title=" ">
<polygon fill="white" stroke="black" points="424,-83 424,-113 583,-113 583,-83 424,-83"/>
<text text-anchor="start" x="432" y="-101" font-family="Helvetica,sans-Serif" font-size="10.00">v8::internal::EphemeronTable</text>
<text text-anchor="middle" x="503.5" y="-90" font-family="Helvetica,sans-Serif" font-size="10.00">UpdatingItem</text>
</a>
</g>
</g>
<!-- Node1&#45;&gt;Node2 -->
<g id="edge2" class="edge">
<title>Node1&#45;&gt;Node2</title>
<path fill="none" stroke="midnightblue" d="M371.09,-80.73C388.4,-83 406.65,-85.4 423.85,-87.66"/>
<polygon fill="midnightblue" stroke="midnightblue" points="371.39,-77.23 361.02,-79.4 370.48,-84.18 371.39,-77.23"/>
</g>
<!-- Node3 -->
<g id="node4" class="node">
<title>Node3</title>
<g id="a_node4"><a xlink:href="classv8_1_1internal_1_1anonymous__namespace_02mark-compact_8cc_03_1_1RememberedSetUpdatingItem.html" target="_top" xlink:title=" ">
<polygon fill="white" stroke="black" points="416,-22.5 416,-63.5 591,-63.5 591,-22.5 416,-22.5"/>
<text text-anchor="start" x="424" y="-51.5" font-family="Helvetica,sans-Serif" font-size="10.00">v8::internal::anonymous</text>
<text text-anchor="start" x="424" y="-40.5" font-family="Helvetica,sans-Serif" font-size="10.00">_namespace{mark&#45;compact.cc}</text>
<text text-anchor="middle" x="503.5" y="-29.5" font-family="Helvetica,sans-Serif" font-size="10.00">::RememberedSetUpdatingItem</text>
</a>
</g>
</g>
<!-- Node1&#45;&gt;Node3 -->
<g id="edge3" class="edge">
<title>Node1&#45;&gt;Node3</title>
<path fill="none" stroke="midnightblue" d="M371.01,-59.67C385.62,-57.82 400.89,-55.88 415.65,-54.01"/>
<polygon fill="midnightblue" stroke="midnightblue" points="370.5,-56.2 361.02,-60.93 371.38,-63.15 370.5,-56.2"/>
</g>
</g>
</svg>
