<?xml version="1.0" encoding="UTF-8" standalone="no"?>
<!DOCTYPE svg PUBLIC "-//W3C//DTD SVG 1.1//EN"
 "http://www.w3.org/Graphics/SVG/1.1/DTD/svg11.dtd">
<!-- Generated by graphviz version 2.43.0 (0)
 -->
<!-- Title: Graphical Class Hierarchy Pages: 1 -->
<svg width="526pt" height="313pt"
 viewBox="0.00 0.00 526.00 312.50" xmlns="http://www.w3.org/2000/svg" xmlns:xlink="http://www.w3.org/1999/xlink">
<g id="graph0" class="graph" transform="scale(1 1) rotate(0) translate(4 308.5)">
<title>Graphical Class Hierarchy</title>
<polygon fill="white" stroke="transparent" points="-4,4 -4,-308.5 522,-308.5 522,4 -4,4"/>
<!-- Node3477 -->
<g id="node1" class="node">
<title>Node3477</title>
<g id="a_node1"><a xlink:title=" ">
<polygon fill="white" stroke="#bfbfbf" points="0,-137.5 0,-156.5 67,-156.5 67,-137.5 0,-137.5"/>
<text text-anchor="middle" x="33.5" y="-144.5" font-family="Helvetica,sans-Serif" font-size="10.00">HashTable</text>
</a>
</g>
</g>
<!-- Node0 -->
<g id="node2" class="node">
<title>Node0</title>
<g id="a_node2"><a xlink:href="classv8_1_1internal_1_1ObjectMultiHashTableBase.html" target="_top" xlink:title=" ">
<polygon fill="white" stroke="black" points="103,-274 103,-304 329,-304 329,-274 103,-274"/>
<text text-anchor="start" x="111" y="-292" font-family="Helvetica,sans-Serif" font-size="10.00">v8::internal::ObjectMulti</text>
<text text-anchor="middle" x="216" y="-281" font-family="Helvetica,sans-Serif" font-size="10.00">HashTableBase&lt; ObjectTwoHashTable, 2 &gt;</text>
</a>
</g>
</g>
<!-- Node3477&#45;&gt;Node0 -->
<g id="edge1" class="edge">
<title>Node3477&#45;&gt;Node0</title>
<path fill="none" stroke="midnightblue" d="M40.27,-166.5C49.19,-193.1 68.97,-240.29 103,-265 107.75,-268.45 112.89,-271.42 118.27,-273.98"/>
<polygon fill="midnightblue" stroke="midnightblue" points="43.55,-165.26 37.19,-156.78 36.88,-167.37 43.55,-165.26"/>
</g>
<!-- Node3480 -->
<g id="node4" class="node">
<title>Node3480</title>
<g id="a_node4"><a xlink:href="classv8_1_1internal_1_1CompilationCacheTable.html" target="_top" xlink:title=" ">
<polygon fill="white" stroke="black" points="147.5,-225 147.5,-255 284.5,-255 284.5,-225 147.5,-225"/>
<text text-anchor="start" x="155.5" y="-243" font-family="Helvetica,sans-Serif" font-size="10.00">v8::internal::Compilation</text>
<text text-anchor="middle" x="216" y="-232" font-family="Helvetica,sans-Serif" font-size="10.00">CacheTable</text>
</a>
</g>
</g>
<!-- Node3477&#45;&gt;Node3480 -->
<g id="edge3" class="edge">
<title>Node3477&#45;&gt;Node3480</title>
<path fill="none" stroke="midnightblue" d="M47.29,-164.81C59.71,-180.73 80,-203.43 103,-216 116.52,-223.39 132.12,-228.5 147.3,-232.04"/>
<polygon fill="midnightblue" stroke="midnightblue" points="50.05,-162.65 41.24,-156.77 44.46,-166.86 50.05,-162.65"/>
</g>
<!-- Node3481 -->
<g id="node5" class="node">
<title>Node3481</title>
<g id="a_node5"><a xlink:href="classv8_1_1internal_1_1NameToIndexHashTable.html" target="_top" xlink:title=" ">
<polygon fill="white" stroke="black" points="143.5,-176 143.5,-206 288.5,-206 288.5,-176 143.5,-176"/>
<text text-anchor="start" x="151.5" y="-194" font-family="Helvetica,sans-Serif" font-size="10.00">v8::internal::NameToIndex</text>
<text text-anchor="middle" x="216" y="-183" font-family="Helvetica,sans-Serif" font-size="10.00">HashTable</text>
</a>
</g>
</g>
<!-- Node3477&#45;&gt;Node3481 -->
<g id="edge4" class="edge">
<title>Node3477&#45;&gt;Node3481</title>
<path fill="none" stroke="midnightblue" d="M77,-159.15C85.59,-161.5 94.57,-163.89 103,-166 116.53,-169.38 131.03,-172.79 144.97,-175.94"/>
<polygon fill="midnightblue" stroke="midnightblue" points="77.73,-155.72 67.16,-156.43 75.86,-162.47 77.73,-155.72"/>
</g>
<!-- Node3482 -->
<g id="node6" class="node">
<title>Node3482</title>
<g id="a_node6"><a xlink:href="classv8_1_1internal_1_1ObjectHashSet.html" target="_top" xlink:title=" ">
<polygon fill="white" stroke="black" points="141,-137.5 141,-156.5 291,-156.5 291,-137.5 141,-137.5"/>
<text text-anchor="middle" x="216" y="-144.5" font-family="Helvetica,sans-Serif" font-size="10.00">v8::internal::ObjectHashSet</text>
</a>
</g>
</g>
<!-- Node3477&#45;&gt;Node3482 -->
<g id="edge5" class="edge">
<title>Node3477&#45;&gt;Node3482</title>
<path fill="none" stroke="midnightblue" d="M77.27,-147C96.21,-147 119.04,-147 140.63,-147"/>
<polygon fill="midnightblue" stroke="midnightblue" points="77.19,-143.5 67.19,-147 77.19,-150.5 77.19,-143.5"/>
</g>
<!-- Node3483 -->
<g id="node7" class="node">
<title>Node3483</title>
<g id="a_node7"><a xlink:href="classv8_1_1internal_1_1ObjectMultiHashTableBase.html" target="_top" xlink:title=" ">
<polygon fill="white" stroke="black" points="133.5,-88 133.5,-118 298.5,-118 298.5,-88 133.5,-88"/>
<text text-anchor="start" x="141.5" y="-106" font-family="Helvetica,sans-Serif" font-size="10.00">v8::internal::ObjectMulti</text>
<text text-anchor="middle" x="216" y="-95" font-family="Helvetica,sans-Serif" font-size="10.00">HashTableBase&lt; Derived, N &gt;</text>
</a>
</g>
</g>
<!-- Node3477&#45;&gt;Node3483 -->
<g id="edge6" class="edge">
<title>Node3477&#45;&gt;Node3483</title>
<path fill="none" stroke="midnightblue" d="M77,-134.85C85.59,-132.5 94.57,-130.11 103,-128 116.53,-124.62 131.03,-121.21 144.97,-118.06"/>
<polygon fill="midnightblue" stroke="midnightblue" points="75.86,-131.53 67.16,-137.57 77.73,-138.28 75.86,-131.53"/>
</g>
<!-- Node3484 -->
<g id="node8" class="node">
<title>Node3484</title>
<g id="a_node8"><a xlink:href="classv8_1_1internal_1_1RegisteredSymbolTable.html" target="_top" xlink:title=" ">
<polygon fill="white" stroke="black" points="150.5,-39 150.5,-69 281.5,-69 281.5,-39 150.5,-39"/>
<text text-anchor="start" x="158.5" y="-57" font-family="Helvetica,sans-Serif" font-size="10.00">v8::internal::Registered</text>
<text text-anchor="middle" x="216" y="-46" font-family="Helvetica,sans-Serif" font-size="10.00">SymbolTable</text>
</a>
</g>
</g>
<!-- Node3477&#45;&gt;Node3484 -->
<g id="edge7" class="edge">
<title>Node3477&#45;&gt;Node3484</title>
<path fill="none" stroke="midnightblue" d="M47.72,-129.06C60.22,-113.42 80.39,-91.37 103,-79 117.42,-71.11 134.18,-65.71 150.27,-62.01"/>
<polygon fill="midnightblue" stroke="midnightblue" points="44.62,-127.34 41.29,-137.4 50.17,-131.62 44.62,-127.34"/>
</g>
<!-- Node3485 -->
<g id="node9" class="node">
<title>Node3485</title>
<g id="a_node9"><a xlink:href="classv8_1_1internal_1_1StringSet.html" target="_top" xlink:title=" ">
<polygon fill="white" stroke="black" points="155,-0.5 155,-19.5 277,-19.5 277,-0.5 155,-0.5"/>
<text text-anchor="middle" x="216" y="-7.5" font-family="Helvetica,sans-Serif" font-size="10.00">v8::internal::StringSet</text>
</a>
</g>
</g>
<!-- Node3477&#45;&gt;Node3485 -->
<g id="edge8" class="edge">
<title>Node3477&#45;&gt;Node3485</title>
<path fill="none" stroke="midnightblue" d="M40.2,-127.5C49.04,-100.92 68.72,-53.9 103,-30 118.07,-19.49 136.97,-13.98 154.93,-11.22"/>
<polygon fill="midnightblue" stroke="midnightblue" points="36.81,-126.62 37.15,-137.21 43.49,-128.72 36.81,-126.62"/>
</g>
<!-- Node1 -->
<g id="node3" class="node">
<title>Node1</title>
<g id="a_node3"><a xlink:href="classv8_1_1internal_1_1ObjectTwoHashTable.html" target="_top" xlink:title=" ">
<polygon fill="white" stroke="black" points="365,-274 365,-304 518,-304 518,-274 365,-274"/>
<text text-anchor="start" x="373" y="-292" font-family="Helvetica,sans-Serif" font-size="10.00">v8::internal::ObjectTwoHash</text>
<text text-anchor="middle" x="441.5" y="-281" font-family="Helvetica,sans-Serif" font-size="10.00">Table</text>
</a>
</g>
</g>
<!-- Node0&#45;&gt;Node1 -->
<g id="edge2" class="edge">
<title>Node0&#45;&gt;Node1</title>
<path fill="none" stroke="midnightblue" d="M339.26,-289C347.92,-289 356.49,-289 364.77,-289"/>
<polygon fill="midnightblue" stroke="midnightblue" points="339.08,-285.5 329.08,-289 339.08,-292.5 339.08,-285.5"/>
</g>
</g>
</svg>
