<?xml version="1.0" encoding="UTF-8" standalone="no"?>
<!DOCTYPE svg PUBLIC "-//W3C//DTD SVG 1.1//EN"
 "http://www.w3.org/Graphics/SVG/1.1/DTD/svg11.dtd">
<!-- Generated by graphviz version 2.43.0 (0)
 -->
<!-- Title: Graphical Class Hierarchy Pages: 1 -->
<svg width="647pt" height="149pt"
 viewBox="0.00 0.00 647.00 148.50" xmlns="http://www.w3.org/2000/svg" xmlns:xlink="http://www.w3.org/1999/xlink">
<g id="graph0" class="graph" transform="scale(1 1) rotate(0) translate(4 144.5)">
<title>Graphical Class Hierarchy</title>
<polygon fill="white" stroke="transparent" points="-4,4 -4,-144.5 643,-144.5 643,4 -4,4"/>
<!-- Node0 -->
<g id="node1" class="node">
<title>Node0</title>
<g id="a_node1"><a xlink:href="classv8_1_1internal_1_1ConsumedPreparseData.html" target="_top" xlink:title=" ">
<polygon fill="white" stroke="black" points="0,-55 0,-74 196,-74 196,-55 0,-55"/>
<text text-anchor="middle" x="98" y="-62" font-family="Helvetica,sans-Serif" font-size="10.00">v8::internal::ConsumedPreparseData</text>
</a>
</g>
</g>
<!-- Node1 -->
<g id="node2" class="node">
<title>Node1</title>
<g id="a_node2"><a xlink:href="classv8_1_1internal_1_1BaseConsumedPreparseData.html" target="_top" xlink:title=" ">
<polygon fill="white" stroke="black" points="242,-99 242,-140 424,-140 424,-99 242,-99"/>
<text text-anchor="start" x="250" y="-128" font-family="Helvetica,sans-Serif" font-size="10.00">v8::internal::BaseConsumed</text>
<text text-anchor="start" x="250" y="-117" font-family="Helvetica,sans-Serif" font-size="10.00">PreparseData&lt; Tagged&lt; Preparse</text>
<text text-anchor="middle" x="333" y="-106" font-family="Helvetica,sans-Serif" font-size="10.00">Data &gt; &gt;</text>
</a>
</g>
</g>
<!-- Node0&#45;&gt;Node1 -->
<g id="edge1" class="edge">
<title>Node0&#45;&gt;Node1</title>
<path fill="none" stroke="midnightblue" d="M149.23,-76.36C177.13,-82.94 212.62,-91.32 244.9,-98.94"/>
<polygon fill="midnightblue" stroke="midnightblue" points="149.86,-72.91 139.32,-74.02 148.25,-79.72 149.86,-72.91"/>
</g>
<!-- Node3 -->
<g id="node4" class="node">
<title>Node3</title>
<g id="a_node4"><a xlink:href="classv8_1_1internal_1_1BaseConsumedPreparseData.html" target="_top" xlink:title=" ">
<polygon fill="white" stroke="black" points="232,-49.5 232,-79.5 434,-79.5 434,-49.5 232,-49.5"/>
<text text-anchor="start" x="240" y="-67.5" font-family="Helvetica,sans-Serif" font-size="10.00">v8::internal::BaseConsumed</text>
<text text-anchor="middle" x="333" y="-56.5" font-family="Helvetica,sans-Serif" font-size="10.00">PreparseData&lt; ZoneVectorWrapper &gt;</text>
</a>
</g>
</g>
<!-- Node0&#45;&gt;Node3 -->
<g id="edge3" class="edge">
<title>Node0&#45;&gt;Node3</title>
<path fill="none" stroke="midnightblue" d="M206.36,-64.5C214.79,-64.5 223.28,-64.5 231.65,-64.5"/>
<polygon fill="midnightblue" stroke="midnightblue" points="206.13,-61 196.13,-64.5 206.13,-68 206.13,-61"/>
</g>
<!-- Node5 -->
<g id="node6" class="node">
<title>Node5</title>
<g id="a_node6"><a xlink:href="classv8_1_1internal_1_1BaseConsumedPreparseData.html" target="_top" xlink:title=" ">
<polygon fill="white" stroke="black" points="256,-0.5 256,-30.5 410,-30.5 410,-0.5 256,-0.5"/>
<text text-anchor="start" x="264" y="-18.5" font-family="Helvetica,sans-Serif" font-size="10.00">v8::internal::BaseConsumed</text>
<text text-anchor="middle" x="333" y="-7.5" font-family="Helvetica,sans-Serif" font-size="10.00">PreparseData&lt; Data &gt;</text>
</a>
</g>
</g>
<!-- Node0&#45;&gt;Node5 -->
<g id="edge5" class="edge">
<title>Node0&#45;&gt;Node5</title>
<path fill="none" stroke="midnightblue" d="M154.19,-52.89C185.93,-46.22 226.17,-37.76 260.33,-30.57"/>
<polygon fill="midnightblue" stroke="midnightblue" points="153.27,-49.51 144.2,-54.99 154.71,-56.36 153.27,-49.51"/>
</g>
<!-- Node2 -->
<g id="node3" class="node">
<title>Node2</title>
<g id="a_node3"><a xlink:href="classv8_1_1internal_1_1OnHeapConsumedPreparseData.html" target="_top" xlink:title=" ">
<polygon fill="white" stroke="black" points="470,-104.5 470,-134.5 639,-134.5 639,-104.5 470,-104.5"/>
<text text-anchor="start" x="478" y="-122.5" font-family="Helvetica,sans-Serif" font-size="10.00">v8::internal::OnHeapConsumed</text>
<text text-anchor="middle" x="554.5" y="-111.5" font-family="Helvetica,sans-Serif" font-size="10.00">PreparseData</text>
</a>
</g>
</g>
<!-- Node1&#45;&gt;Node2 -->
<g id="edge2" class="edge">
<title>Node1&#45;&gt;Node2</title>
<path fill="none" stroke="midnightblue" d="M434.58,-119.5C446.42,-119.5 458.4,-119.5 469.97,-119.5"/>
<polygon fill="midnightblue" stroke="midnightblue" points="434.23,-116 424.23,-119.5 434.23,-123 434.23,-116"/>
</g>
<!-- Node4 -->
<g id="node5" class="node">
<title>Node4</title>
<g id="a_node5"><a xlink:href="classv8_1_1internal_1_1ZoneConsumedPreparseData.html" target="_top" xlink:title=" ">
<polygon fill="white" stroke="black" points="477,-49.5 477,-79.5 632,-79.5 632,-49.5 477,-49.5"/>
<text text-anchor="start" x="485" y="-67.5" font-family="Helvetica,sans-Serif" font-size="10.00">v8::internal::ZoneConsumed</text>
<text text-anchor="middle" x="554.5" y="-56.5" font-family="Helvetica,sans-Serif" font-size="10.00">PreparseData</text>
</a>
</g>
</g>
<!-- Node3&#45;&gt;Node4 -->
<g id="edge4" class="edge">
<title>Node3&#45;&gt;Node4</title>
<path fill="none" stroke="midnightblue" d="M444.24,-64.5C455.27,-64.5 466.29,-64.5 476.87,-64.5"/>
<polygon fill="midnightblue" stroke="midnightblue" points="444.12,-61 434.12,-64.5 444.12,-68 444.12,-61"/>
</g>
</g>
</svg>
