<?xml version="1.0" encoding="UTF-8" standalone="no"?>
<!DOCTYPE svg PUBLIC "-//W3C//DTD SVG 1.1//EN"
 "http://www.w3.org/Graphics/SVG/1.1/DTD/svg11.dtd">
<!-- Generated by graphviz version 2.43.0 (0)
 -->
<!-- Title: /mnt/V8SourceCode/src/utils/locked&#45;queue.h Pages: 1 -->
<!--zoomable 565 -->
<svg id="main" version="1.1" xmlns="http://www.w3.org/2000/svg" xmlns:xlink="http://www.w3.org/1999/xlink" xml:space="preserve" onload="init(evt)">
<style type="text/css"><![CDATA[
.edge:hover path { stroke: red; }
.edge:hover polygon { stroke: red; fill: red; }
]]></style>
<script type="text/javascript"><![CDATA[
var edges = document.getElementsByTagName('g');
if (edges && edges.length) {
  for (var i=0;i<edges.length;i++) {
    if (edges[i].id.substr(0,4)=='edge') {
      edges[i].setAttribute('class','edge');
    }
  }
}
]]></script>
        <defs>
                <circle id="rim" cx="0" cy="0" r="7"/>
                <circle id="rim2" cx="0" cy="0" r="3.5"/>
                <g id="zoomPlus">
                        <use xlink:href="#rim" fill="#404040">
                                <set attributeName="fill" to="#808080" begin="zoomplus.mouseover" end="zoomplus.mouseout"/>
                        </use>
                        <path d="M-4,0h8M0,-4v8" fill="none" stroke="white" stroke-width="1.5" pointer-events="none"/>
                </g>
                <g id="zoomMin">
                        <use xlink:href="#rim" fill="#404040">
                                <set attributeName="fill" to="#808080" begin="zoomminus.mouseover" end="zoomminus.mouseout"/>
                        </use>
                        <path d="M-4,0h8" fill="none" stroke="white" stroke-width="1.5" pointer-events="none"/>
                </g>
                <g id="dirArrow">
                        <path fill="none" stroke="white" stroke-width="1.5" d="M0,-3.0v7 M-2.5,-0.5L0,-3.0L2.5,-0.5"/>
                </g>
               <g id="resetDef">
                       <use xlink:href="#rim2" fill="#404040">
                               <set attributeName="fill" to="#808080" begin="reset.mouseover" end="reset.mouseout"/>
                       </use>
               </g>
        </defs>

<script type="text/javascript">
var viewWidth = 1439;
var viewHeight = 565;
var sectionId = 'dynsection-0';
</script>
<script xlink:href="svgpan.js"/>
<svg id="graph" class="graph">
<g id="viewport">
<title>/mnt/V8SourceCode/src/utils/locked&#45;queue.h</title>
<polygon fill="white" stroke="transparent" points="-4,4 -4,-561 1435.22,-561 1435.22,4 -4,4"/>
<!-- Node1 -->
<g id="node1" class="node">
<title>Node1</title>
<g id="a_node1"><a xlink:title=" ">
<polygon fill="#bfbfbf" stroke="black" points="115.22,-526.5 115.22,-556.5 245.22,-556.5 245.22,-526.5 115.22,-526.5"/>
<text text-anchor="start" x="123.22" y="-544.5" font-family="Helvetica,sans-Serif" font-size="10.00">/mnt/V8SourceCode/src</text>
<text text-anchor="middle" x="180.22" y="-533.5" font-family="Helvetica,sans-Serif" font-size="10.00">/utils/locked&#45;queue.h</text>
</a>
</g>
</g>
<!-- Node2 -->
<g id="node2" class="node">
<title>Node2</title>
<g id="a_node2"><a xlink:title=" ">
<polygon fill="white" stroke="#bfbfbf" points="63.22,-224.5 63.22,-243.5 113.22,-243.5 113.22,-224.5 63.22,-224.5"/>
<text text-anchor="middle" x="88.22" y="-231.5" font-family="Helvetica,sans-Serif" font-size="10.00">atomic</text>
</a>
</g>
</g>
<!-- Node1&#45;&gt;Node2 -->
<g id="edge1" class="edge">
<title>Node1&#45;&gt;Node2</title>
<path fill="none" stroke="midnightblue" d="M159.44,-526.31C122.96,-499.96 48.55,-439.51 20.22,-367 3.12,-323.23 44.84,-274.87 70.29,-250.65"/>
<polygon fill="midnightblue" stroke="midnightblue" points="72.89,-253.01 77.89,-243.67 68.15,-247.86 72.89,-253.01"/>
</g>
<!-- Node3 -->
<g id="node3" class="node">
<title>Node3</title>
<g id="a_node3"><a xlink:href="mutex_8h.html" target="_top" xlink:title=" ">
<polygon fill="white" stroke="black" points="107.22,-409 107.22,-428 253.22,-428 253.22,-409 107.22,-409"/>
<text text-anchor="middle" x="180.22" y="-416" font-family="Helvetica,sans-Serif" font-size="10.00">src/base/platform/mutex.h</text>
</a>
</g>
</g>
<!-- Node1&#45;&gt;Node3 -->
<g id="edge2" class="edge">
<title>Node1&#45;&gt;Node3</title>
<path fill="none" stroke="midnightblue" d="M180.22,-526.14C180.22,-504.2 180.22,-462.33 180.22,-438.09"/>
<polygon fill="midnightblue" stroke="midnightblue" points="183.72,-438.05 180.22,-428.05 176.72,-438.05 183.72,-438.05"/>
</g>
<!-- Node33 -->
<g id="node22" class="node">
<title>Node33</title>
<g id="a_node22"><a xlink:href="src_2base_2platform_2platform_8h.html" target="_top" xlink:title=" ">
<polygon fill="white" stroke="black" points="868.22,-470.5 868.22,-489.5 1024.22,-489.5 1024.22,-470.5 868.22,-470.5"/>
<text text-anchor="middle" x="946.22" y="-477.5" font-family="Helvetica,sans-Serif" font-size="10.00">src/base/platform/platform.h</text>
</a>
</g>
</g>
<!-- Node1&#45;&gt;Node33 -->
<g id="edge32" class="edge">
<title>Node1&#45;&gt;Node33</title>
<path fill="none" stroke="midnightblue" d="M245.52,-535.43C383.06,-524.74 702.64,-499.92 858.11,-487.84"/>
<polygon fill="midnightblue" stroke="midnightblue" points="858.41,-491.33 868.11,-487.07 857.87,-484.35 858.41,-491.33"/>
</g>
<!-- Node4 -->
<g id="node4" class="node">
<title>Node4</title>
<g id="a_node4"><a xlink:title=" ">
<polygon fill="white" stroke="#bfbfbf" points="241.22,-342 241.22,-361 297.22,-361 297.22,-342 241.22,-342"/>
<text text-anchor="middle" x="269.22" y="-349" font-family="Helvetica,sans-Serif" font-size="10.00">optional</text>
</a>
</g>
</g>
<!-- Node3&#45;&gt;Node4 -->
<g id="edge3" class="edge">
<title>Node3&#45;&gt;Node4</title>
<path fill="none" stroke="midnightblue" d="M192.22,-408.73C206.76,-398.11 231.49,-380.05 249,-367.26"/>
<polygon fill="midnightblue" stroke="midnightblue" points="251.39,-369.85 257.4,-361.13 247.26,-364.2 251.39,-369.85"/>
</g>
<!-- Node5 -->
<g id="node5" class="node">
<title>Node5</title>
<g id="a_node5"><a xlink:title=" ">
<polygon fill="white" stroke="#bfbfbf" points="29.72,-336.5 29.72,-366.5 146.72,-366.5 146.72,-336.5 29.72,-336.5"/>
<text text-anchor="start" x="37.72" y="-354.5" font-family="Helvetica,sans-Serif" font-size="10.00">absl/synchronization</text>
<text text-anchor="middle" x="88.22" y="-343.5" font-family="Helvetica,sans-Serif" font-size="10.00">/mutex.h</text>
</a>
</g>
</g>
<!-- Node3&#45;&gt;Node5 -->
<g id="edge4" class="edge">
<title>Node3&#45;&gt;Node5</title>
<path fill="none" stroke="midnightblue" d="M167.81,-408.73C154.78,-399.53 133.84,-384.73 116.71,-372.63"/>
<polygon fill="midnightblue" stroke="midnightblue" points="118.34,-369.5 108.16,-366.59 114.3,-375.22 118.34,-369.5"/>
</g>
<!-- Node6 -->
<g id="node6" class="node">
<title>Node6</title>
<g id="a_node6"><a xlink:href="v8config_8h.html" target="_top" xlink:title=" ">
<polygon fill="white" stroke="black" points="760.72,-56.5 760.72,-75.5 865.72,-75.5 865.72,-56.5 760.72,-56.5"/>
<text text-anchor="middle" x="813.22" y="-63.5" font-family="Helvetica,sans-Serif" font-size="10.00">include/v8config.h</text>
</a>
</g>
</g>
<!-- Node3&#45;&gt;Node6 -->
<g id="edge5" class="edge">
<title>Node3&#45;&gt;Node6</title>
<path fill="none" stroke="midnightblue" d="M106.92,-410.18C76.29,-403.51 42.67,-390.86 20.22,-367 -3.65,-341.64 1.22,-325.82 1.22,-291 1.22,-291 1.22,-291 1.22,-177 1.22,-101.48 559.88,-75.56 750.43,-68.92"/>
<polygon fill="midnightblue" stroke="midnightblue" points="750.69,-72.41 760.56,-68.57 750.45,-65.41 750.69,-72.41"/>
</g>
<!-- Node8 -->
<g id="node8" class="node">
<title>Node8</title>
<g id="a_node8"><a xlink:href="base-export_8h.html" target="_top" xlink:title=" ">
<polygon fill="white" stroke="black" points="313.22,-112.5 313.22,-131.5 441.22,-131.5 441.22,-112.5 313.22,-112.5"/>
<text text-anchor="middle" x="377.22" y="-119.5" font-family="Helvetica,sans-Serif" font-size="10.00">src/base/base&#45;export.h</text>
</a>
</g>
</g>
<!-- Node3&#45;&gt;Node8 -->
<g id="edge7" class="edge">
<title>Node3&#45;&gt;Node8</title>
<path fill="none" stroke="midnightblue" d="M179.64,-408.92C178.33,-388.49 175.22,-335.4 175.22,-291 175.22,-291 175.22,-291 175.22,-233 175.22,-172.7 245.51,-145.26 303.16,-132.9"/>
<polygon fill="midnightblue" stroke="midnightblue" points="303.92,-136.32 313.02,-130.9 302.53,-129.46 303.92,-136.32"/>
</g>
<!-- Node9 -->
<g id="node9" class="node">
<title>Node9</title>
<g id="a_node9"><a xlink:href="lazy-instance_8h.html" target="_top" xlink:title=" ">
<polygon fill="white" stroke="black" points="429.22,-342 429.22,-361 563.22,-361 563.22,-342 429.22,-342"/>
<text text-anchor="middle" x="496.22" y="-349" font-family="Helvetica,sans-Serif" font-size="10.00">src/base/lazy&#45;instance.h</text>
</a>
</g>
</g>
<!-- Node3&#45;&gt;Node9 -->
<g id="edge9" class="edge">
<title>Node3&#45;&gt;Node9</title>
<path fill="none" stroke="midnightblue" d="M221.85,-408.94C279.24,-397.13 382.59,-375.87 444.75,-363.09"/>
<polygon fill="midnightblue" stroke="midnightblue" points="445.65,-366.47 454.74,-361.03 444.24,-359.62 445.65,-366.47"/>
</g>
<!-- Node14 -->
<g id="node13" class="node">
<title>Node14</title>
<g id="a_node13"><a xlink:href="src_2base_2logging_8h.html" target="_top" xlink:title=" ">
<polygon fill="white" stroke="red" points="978.72,-224.5 978.72,-243.5 1083.72,-243.5 1083.72,-224.5 978.72,-224.5"/>
<text text-anchor="middle" x="1031.22" y="-231.5" font-family="Helvetica,sans-Serif" font-size="10.00">src/base/logging.h</text>
</a>
</g>
</g>
<!-- Node3&#45;&gt;Node14 -->
<g id="edge31" class="edge">
<title>Node3&#45;&gt;Node14</title>
<path fill="none" stroke="midnightblue" d="M182.78,-408.93C188.47,-391.64 203.93,-352.79 232.22,-336 332.97,-276.2 645.5,-331.97 758.22,-300 776.58,-294.79 778.2,-286.31 796.22,-280 827.35,-269.1 910.29,-254.4 968.78,-244.82"/>
<polygon fill="midnightblue" stroke="midnightblue" points="969.37,-248.27 978.67,-243.21 968.24,-241.36 969.37,-248.27"/>
</g>
<!-- Node7 -->
<g id="node7" class="node">
<title>Node7</title>
<g id="a_node7"><a xlink:title=" ">
<polygon fill="white" stroke="#bfbfbf" points="639.22,-0.5 639.22,-19.5 697.22,-19.5 697.22,-0.5 639.22,-0.5"/>
<text text-anchor="middle" x="668.22" y="-7.5" font-family="Helvetica,sans-Serif" font-size="10.00">memory</text>
</a>
</g>
</g>
<!-- Node6&#45;&gt;Node7 -->
<g id="edge6" class="edge">
<title>Node6&#45;&gt;Node7</title>
<path fill="none" stroke="midnightblue" d="M790.24,-56.44C766.06,-47.44 727.8,-33.19 700.57,-23.05"/>
<polygon fill="midnightblue" stroke="midnightblue" points="701.68,-19.73 691.08,-19.52 699.23,-26.29 701.68,-19.73"/>
</g>
<!-- Node8&#45;&gt;Node6 -->
<g id="edge8" class="edge">
<title>Node8&#45;&gt;Node6</title>
<path fill="none" stroke="midnightblue" d="M441.55,-113.03C524.66,-102.74 668.4,-84.94 750.65,-74.75"/>
<polygon fill="midnightblue" stroke="midnightblue" points="751.11,-78.22 760.61,-73.52 750.25,-71.27 751.11,-78.22"/>
</g>
<!-- Node10 -->
<g id="node10" class="node">
<title>Node10</title>
<g id="a_node10"><a xlink:title=" ">
<polygon fill="white" stroke="#bfbfbf" points="1101.72,-224.5 1101.72,-243.5 1170.72,-243.5 1170.72,-224.5 1101.72,-224.5"/>
<text text-anchor="middle" x="1136.22" y="-231.5" font-family="Helvetica,sans-Serif" font-size="10.00">type_traits</text>
</a>
</g>
</g>
<!-- Node9&#45;&gt;Node10 -->
<g id="edge10" class="edge">
<title>Node9&#45;&gt;Node10</title>
<path fill="none" stroke="midnightblue" d="M547.84,-341.94C649.84,-324.9 884.57,-284.97 1091.66,-244.28"/>
<polygon fill="midnightblue" stroke="midnightblue" points="1092.36,-247.71 1101.5,-242.34 1091.01,-240.84 1092.36,-247.71"/>
</g>
<!-- Node11 -->
<g id="node11" class="node">
<title>Node11</title>
<g id="a_node11"><a xlink:href="src_2base_2macros_8h.html" target="_top" xlink:title=" ">
<polygon fill="white" stroke="red" points="999.72,-280.5 999.72,-299.5 1104.72,-299.5 1104.72,-280.5 999.72,-280.5"/>
<text text-anchor="middle" x="1052.22" y="-287.5" font-family="Helvetica,sans-Serif" font-size="10.00">src/base/macros.h</text>
</a>
</g>
</g>
<!-- Node9&#45;&gt;Node11 -->
<g id="edge11" class="edge">
<title>Node9&#45;&gt;Node11</title>
<path fill="none" stroke="midnightblue" d="M563.28,-343.32C671.6,-331.73 883.54,-309.05 989.2,-297.74"/>
<polygon fill="midnightblue" stroke="midnightblue" points="989.83,-301.2 999.4,-296.65 989.08,-294.24 989.83,-301.2"/>
</g>
<!-- Node31 -->
<g id="node19" class="node">
<title>Node31</title>
<g id="a_node19"><a xlink:href="once_8h.html" target="_top" xlink:title=" ">
<polygon fill="white" stroke="red" points="386.22,-280.5 386.22,-299.5 478.22,-299.5 478.22,-280.5 386.22,-280.5"/>
<text text-anchor="middle" x="432.22" y="-287.5" font-family="Helvetica,sans-Serif" font-size="10.00">src/base/once.h</text>
</a>
</g>
</g>
<!-- Node9&#45;&gt;Node31 -->
<g id="edge26" class="edge">
<title>Node9&#45;&gt;Node31</title>
<path fill="none" stroke="midnightblue" d="M487.05,-341.98C477.07,-332.7 460.9,-317.67 448.71,-306.33"/>
<polygon fill="midnightblue" stroke="midnightblue" points="451.07,-303.75 441.37,-299.51 446.31,-308.88 451.07,-303.75"/>
</g>
<!-- Node11&#45;&gt;Node6 -->
<g id="edge13" class="edge">
<title>Node11&#45;&gt;Node6</title>
<path fill="none" stroke="midnightblue" d="M1104.83,-283.14C1193.79,-271.17 1358.87,-238.81 1301.22,-168 1248.27,-102.97 995.69,-78.51 876.17,-70.47"/>
<polygon fill="midnightblue" stroke="midnightblue" points="876.28,-66.97 866.07,-69.81 875.82,-73.95 876.28,-66.97"/>
</g>
<!-- Node11&#45;&gt;Node10 -->
<g id="edge12" class="edge">
<title>Node11&#45;&gt;Node10</title>
<path fill="none" stroke="midnightblue" d="M1065.71,-280.32C1078.81,-271.9 1098.93,-258.97 1114.32,-249.07"/>
<polygon fill="midnightblue" stroke="midnightblue" points="1116.23,-252.01 1122.75,-243.65 1112.45,-246.12 1116.23,-252.01"/>
</g>
<!-- Node13 -->
<g id="node12" class="node">
<title>Node13</title>
<g id="a_node12"><a xlink:href="src_2base_2compiler-specific_8h.html" target="_top" xlink:title=" ">
<polygon fill="white" stroke="black" points="1074.22,-168.5 1074.22,-187.5 1226.22,-187.5 1226.22,-168.5 1074.22,-168.5"/>
<text text-anchor="middle" x="1150.22" y="-175.5" font-family="Helvetica,sans-Serif" font-size="10.00">src/base/compiler&#45;specific.h</text>
</a>
</g>
</g>
<!-- Node11&#45;&gt;Node13 -->
<g id="edge14" class="edge">
<title>Node11&#45;&gt;Node13</title>
<path fill="none" stroke="midnightblue" d="M1104.77,-284.65C1132.03,-279.41 1163.13,-268.12 1180.22,-244 1191.04,-228.71 1178.72,-208.9 1166.76,-195.18"/>
<polygon fill="midnightblue" stroke="midnightblue" points="1168.96,-192.42 1159.56,-187.53 1163.86,-197.21 1168.96,-192.42"/>
</g>
<!-- Node11&#45;&gt;Node14 -->
<g id="edge16" class="edge">
<title>Node11&#45;&gt;Node14</title>
<path fill="none" stroke="midnightblue" d="M1048.75,-280.08C1045.9,-272.77 1041.79,-262.18 1038.26,-253.1"/>
<polygon fill="midnightblue" stroke="midnightblue" points="1041.5,-251.8 1034.62,-243.75 1034.98,-254.34 1041.5,-251.8"/>
</g>
<!-- Node13&#45;&gt;Node6 -->
<g id="edge15" class="edge">
<title>Node13&#45;&gt;Node6</title>
<path fill="none" stroke="midnightblue" d="M1124.05,-168.46C1064.33,-148.97 917.87,-101.16 849.49,-78.84"/>
<polygon fill="midnightblue" stroke="midnightblue" points="850.19,-75.39 839.59,-75.61 848.01,-82.04 850.19,-75.39"/>
</g>
<!-- Node14&#45;&gt;Node8 -->
<g id="edge22" class="edge">
<title>Node14&#45;&gt;Node8</title>
<path fill="none" stroke="midnightblue" d="M987.42,-224.48C920.63,-211.6 789.24,-186.68 677.22,-168 599.01,-154.96 509.04,-141.69 448.19,-132.98"/>
<polygon fill="midnightblue" stroke="midnightblue" points="448.32,-129.46 437.93,-131.51 447.33,-136.39 448.32,-129.46"/>
</g>
<!-- Node14&#45;&gt;Node13 -->
<g id="edge25" class="edge">
<title>Node14&#45;&gt;Node13</title>
<path fill="none" stroke="midnightblue" d="M1050.07,-224.44C1069.48,-215.64 1099.95,-201.81 1122.18,-191.72"/>
<polygon fill="midnightblue" stroke="midnightblue" points="1123.79,-194.84 1131.45,-187.52 1120.89,-188.46 1123.79,-194.84"/>
</g>
<!-- Node15 -->
<g id="node14" class="node">
<title>Node15</title>
<g id="a_node14"><a xlink:title=" ">
<polygon fill="white" stroke="#bfbfbf" points="1006.22,-168.5 1006.22,-187.5 1056.22,-187.5 1056.22,-168.5 1006.22,-168.5"/>
<text text-anchor="middle" x="1031.22" y="-175.5" font-family="Helvetica,sans-Serif" font-size="10.00">cstdint</text>
</a>
</g>
</g>
<!-- Node14&#45;&gt;Node15 -->
<g id="edge17" class="edge">
<title>Node14&#45;&gt;Node15</title>
<path fill="none" stroke="midnightblue" d="M1031.22,-224.08C1031.22,-217.01 1031.22,-206.86 1031.22,-197.99"/>
<polygon fill="midnightblue" stroke="midnightblue" points="1034.72,-197.75 1031.22,-187.75 1027.72,-197.75 1034.72,-197.75"/>
</g>
<!-- Node19 -->
<g id="node15" class="node">
<title>Node19</title>
<g id="a_node15"><a xlink:title=" ">
<polygon fill="white" stroke="#bfbfbf" points="624.22,-168.5 624.22,-187.5 668.22,-187.5 668.22,-168.5 624.22,-168.5"/>
<text text-anchor="middle" x="646.22" y="-175.5" font-family="Helvetica,sans-Serif" font-size="10.00">string</text>
</a>
</g>
</g>
<!-- Node14&#45;&gt;Node19 -->
<g id="edge18" class="edge">
<title>Node14&#45;&gt;Node19</title>
<path fill="none" stroke="midnightblue" d="M978.49,-225.6C897.53,-214.25 745.01,-192.86 678.55,-183.53"/>
<polygon fill="midnightblue" stroke="midnightblue" points="678.66,-180.02 668.27,-182.09 677.69,-186.95 678.66,-180.02"/>
</g>
<!-- Node21 -->
<g id="node16" class="node">
<title>Node21</title>
<g id="a_node16"><a xlink:title=" ">
<polygon fill="white" stroke="#bfbfbf" points="1244.72,-168.5 1244.72,-187.5 1291.72,-187.5 1291.72,-168.5 1244.72,-168.5"/>
<text text-anchor="middle" x="1268.22" y="-175.5" font-family="Helvetica,sans-Serif" font-size="10.00">vector</text>
</a>
</g>
</g>
<!-- Node14&#45;&gt;Node21 -->
<g id="edge19" class="edge">
<title>Node14&#45;&gt;Node21</title>
<path fill="none" stroke="midnightblue" d="M1072.77,-224.46C1111.99,-216.26 1172.67,-203.21 1234.52,-188.08"/>
<polygon fill="midnightblue" stroke="midnightblue" points="1235.59,-191.42 1244.46,-185.63 1233.91,-184.62 1235.59,-191.42"/>
</g>
<!-- Node22 -->
<g id="node17" class="node">
<title>Node22</title>
<g id="a_node17"><a xlink:href="abort-mode_8h.html" target="_top" xlink:title=" ">
<polygon fill="white" stroke="black" points="405.22,-168.5 405.22,-187.5 531.22,-187.5 531.22,-168.5 405.22,-168.5"/>
<text text-anchor="middle" x="468.22" y="-175.5" font-family="Helvetica,sans-Serif" font-size="10.00">src/base/abort&#45;mode.h</text>
</a>
</g>
</g>
<!-- Node14&#45;&gt;Node22 -->
<g id="edge20" class="edge">
<title>Node14&#45;&gt;Node22</title>
<path fill="none" stroke="midnightblue" d="M978.5,-227.94C877.54,-218.26 656.69,-197.08 541.46,-186.03"/>
<polygon fill="midnightblue" stroke="midnightblue" points="541.61,-182.52 531.32,-185.05 540.94,-189.49 541.61,-182.52"/>
</g>
<!-- Node23 -->
<g id="node18" class="node">
<title>Node23</title>
<g id="a_node18"><a xlink:href="build__config_8h.html" target="_top" xlink:title=" ">
<polygon fill="white" stroke="black" points="860.22,-168.5 860.22,-187.5 988.22,-187.5 988.22,-168.5 860.22,-168.5"/>
<text text-anchor="middle" x="924.22" y="-175.5" font-family="Helvetica,sans-Serif" font-size="10.00">src/base/build_config.h</text>
</a>
</g>
</g>
<!-- Node14&#45;&gt;Node23 -->
<g id="edge23" class="edge">
<title>Node14&#45;&gt;Node23</title>
<path fill="none" stroke="midnightblue" d="M1014.02,-224.32C996.86,-215.66 970.27,-202.24 950.47,-192.25"/>
<polygon fill="midnightblue" stroke="midnightblue" points="951.87,-189.04 941.36,-187.65 948.71,-195.28 951.87,-189.04"/>
</g>
<!-- Node22&#45;&gt;Node8 -->
<g id="edge21" class="edge">
<title>Node22&#45;&gt;Node8</title>
<path fill="none" stroke="midnightblue" d="M453.59,-168.32C439.27,-159.82 417.2,-146.73 400.47,-136.8"/>
<polygon fill="midnightblue" stroke="midnightblue" points="402.19,-133.75 391.8,-131.65 398.61,-139.77 402.19,-133.75"/>
</g>
<!-- Node23&#45;&gt;Node6 -->
<g id="edge24" class="edge">
<title>Node23&#45;&gt;Node6</title>
<path fill="none" stroke="midnightblue" d="M915.51,-168.37C896.86,-149.89 852.86,-106.29 829.1,-82.74"/>
<polygon fill="midnightblue" stroke="midnightblue" points="831.45,-80.14 821.88,-75.59 826.52,-85.12 831.45,-80.14"/>
</g>
<!-- Node31&#45;&gt;Node2 -->
<g id="edge29" class="edge">
<title>Node31&#45;&gt;Node2</title>
<path fill="none" stroke="midnightblue" d="M386.18,-281.77C316.61,-270.85 186.16,-250.38 123.54,-240.54"/>
<polygon fill="midnightblue" stroke="midnightblue" points="123.8,-237.04 113.37,-238.95 122.71,-243.96 123.8,-237.04"/>
</g>
<!-- Node31&#45;&gt;Node8 -->
<g id="edge30" class="edge">
<title>Node31&#45;&gt;Node8</title>
<path fill="none" stroke="midnightblue" d="M422.91,-280.3C414.5,-271.87 402.51,-258.28 396.22,-244 381.26,-210.07 377.86,-166.22 377.22,-141.71"/>
<polygon fill="midnightblue" stroke="midnightblue" points="380.71,-141.59 377.08,-131.63 373.72,-141.68 380.71,-141.59"/>
</g>
<!-- Node26 -->
<g id="node20" class="node">
<title>Node26</title>
<g id="a_node20"><a xlink:title=" ">
<polygon fill="white" stroke="#bfbfbf" points="477.22,-224.5 477.22,-243.5 533.22,-243.5 533.22,-224.5 477.22,-224.5"/>
<text text-anchor="middle" x="505.22" y="-231.5" font-family="Helvetica,sans-Serif" font-size="10.00">stddef.h</text>
</a>
</g>
</g>
<!-- Node31&#45;&gt;Node26 -->
<g id="edge27" class="edge">
<title>Node31&#45;&gt;Node26</title>
<path fill="none" stroke="midnightblue" d="M443.94,-280.32C455.05,-272.11 471.96,-259.6 485.2,-249.81"/>
<polygon fill="midnightblue" stroke="midnightblue" points="487.31,-252.59 493.27,-243.83 483.15,-246.97 487.31,-252.59"/>
</g>
<!-- Node32 -->
<g id="node21" class="node">
<title>Node32</title>
<g id="a_node21"><a xlink:title=" ">
<polygon fill="white" stroke="#bfbfbf" points="405.72,-224.5 405.72,-243.5 458.72,-243.5 458.72,-224.5 405.72,-224.5"/>
<text text-anchor="middle" x="432.22" y="-231.5" font-family="Helvetica,sans-Serif" font-size="10.00">stdint.h</text>
</a>
</g>
</g>
<!-- Node31&#45;&gt;Node32 -->
<g id="edge28" class="edge">
<title>Node31&#45;&gt;Node32</title>
<path fill="none" stroke="midnightblue" d="M432.22,-280.08C432.22,-273.01 432.22,-262.86 432.22,-253.99"/>
<polygon fill="midnightblue" stroke="midnightblue" points="435.72,-253.75 432.22,-243.75 428.72,-253.75 435.72,-253.75"/>
</g>
<!-- Node33&#45;&gt;Node4 -->
<g id="edge35" class="edge">
<title>Node33&#45;&gt;Node4</title>
<path fill="none" stroke="midnightblue" d="M868.12,-477.71C708.64,-474.47 356.69,-463.98 311.22,-434 289.34,-419.58 278.23,-390.01 273.09,-370.73"/>
<polygon fill="midnightblue" stroke="midnightblue" points="276.49,-369.91 270.76,-361 269.68,-371.54 276.49,-369.91"/>
</g>
<!-- Node33&#45;&gt;Node8 -->
<g id="edge50" class="edge">
<title>Node33&#45;&gt;Node8</title>
<path fill="none" stroke="midnightblue" d="M867.94,-477.81C718.19,-474.83 402.54,-464.93 364.22,-434 274.92,-361.95 342.68,-195.49 368.41,-140.78"/>
<polygon fill="midnightblue" stroke="midnightblue" points="371.62,-142.18 372.81,-131.65 365.31,-139.14 371.62,-142.18"/>
</g>
<!-- Node33&#45;&gt;Node11 -->
<g id="edge53" class="edge">
<title>Node33&#45;&gt;Node11</title>
<path fill="none" stroke="midnightblue" d="M951.05,-470.43C967.29,-441.62 1020.17,-347.84 1042.32,-308.56"/>
<polygon fill="midnightblue" stroke="midnightblue" points="1045.49,-310.05 1047.36,-299.62 1039.4,-306.61 1045.49,-310.05"/>
</g>
<!-- Node33&#45;&gt;Node13 -->
<g id="edge52" class="edge">
<title>Node33&#45;&gt;Node13</title>
<path fill="none" stroke="midnightblue" d="M1024.52,-475.63C1140.89,-469.9 1348.59,-456.62 1374.22,-434 1402.1,-409.38 1393.22,-389.69 1393.22,-352.5 1393.22,-352.5 1393.22,-352.5 1393.22,-289 1393.22,-246.35 1267.42,-208.13 1196.85,-190.04"/>
<polygon fill="midnightblue" stroke="midnightblue" points="1197.41,-186.57 1186.86,-187.52 1195.7,-193.36 1197.41,-186.57"/>
</g>
<!-- Node33&#45;&gt;Node15 -->
<g id="edge34" class="edge">
<title>Node33&#45;&gt;Node15</title>
<path fill="none" stroke="midnightblue" d="M980.5,-470.48C1007.87,-462.95 1046.72,-450.57 1078.22,-434 1151.65,-395.37 1186.15,-379.99 1208.22,-300 1213.91,-279.36 1204.39,-228.7 1200.22,-224 1199.93,-223.68 1115.54,-201.31 1066.14,-188.24"/>
<polygon fill="midnightblue" stroke="midnightblue" points="1067.02,-184.85 1056.46,-185.68 1065.23,-191.62 1067.02,-184.85"/>
</g>
<!-- Node33&#45;&gt;Node19 -->
<g id="edge36" class="edge">
<title>Node33&#45;&gt;Node19</title>
<path fill="none" stroke="midnightblue" d="M890.08,-470.45C791.87,-453.91 599.22,-413.66 599.22,-352.5 599.22,-352.5 599.22,-352.5 599.22,-289 599.22,-253.7 619.93,-216.79 633.86,-195.96"/>
<polygon fill="midnightblue" stroke="midnightblue" points="636.85,-197.8 639.68,-187.59 631.1,-193.8 636.85,-197.8"/>
</g>
<!-- Node33&#45;&gt;Node21 -->
<g id="edge37" class="edge">
<title>Node33&#45;&gt;Node21</title>
<path fill="none" stroke="midnightblue" d="M1024.3,-475.53C1145.47,-469.52 1367.97,-455.66 1397.22,-434 1428.75,-410.64 1431.22,-391.75 1431.22,-352.5 1431.22,-352.5 1431.22,-352.5 1431.22,-289 1431.22,-227.14 1349.55,-197.74 1301.83,-185.84"/>
<polygon fill="midnightblue" stroke="midnightblue" points="1302.45,-182.39 1291.92,-183.5 1300.84,-189.2 1302.45,-182.39"/>
</g>
<!-- Node33&#45;&gt;Node22 -->
<g id="edge49" class="edge">
<title>Node33&#45;&gt;Node22</title>
<path fill="none" stroke="midnightblue" d="M868.03,-478.02C723.62,-475.43 426.67,-466.22 393.22,-434 325.98,-369.25 338.28,-297.18 396.22,-224 407.1,-210.25 423.41,-199.57 437.76,-192.06"/>
<polygon fill="midnightblue" stroke="midnightblue" points="439.41,-195.15 446.83,-187.59 436.31,-188.88 439.41,-195.15"/>
</g>
<!-- Node33&#45;&gt;Node23 -->
<g id="edge51" class="edge">
<title>Node33&#45;&gt;Node23</title>
<path fill="none" stroke="midnightblue" d="M965.72,-470.44C1035.53,-438.7 1264.44,-324.32 1180.22,-224 1174.18,-216.81 1067.8,-199.95 994.1,-189.03"/>
<polygon fill="midnightblue" stroke="midnightblue" points="994.33,-185.53 983.93,-187.53 993.31,-192.45 994.33,-185.53"/>
</g>
<!-- Node34 -->
<g id="node23" class="node">
<title>Node34</title>
<g id="a_node23"><a xlink:title=" ">
<polygon fill="white" stroke="#bfbfbf" points="1177.72,-409 1177.72,-428 1230.72,-428 1230.72,-409 1177.72,-409"/>
<text text-anchor="middle" x="1204.22" y="-416" font-family="Helvetica,sans-Serif" font-size="10.00">cstdarg</text>
</a>
</g>
</g>
<!-- Node33&#45;&gt;Node34 -->
<g id="edge33" class="edge">
<title>Node33&#45;&gt;Node34</title>
<path fill="none" stroke="midnightblue" d="M997.11,-470.46C1041.38,-462.55 1107.07,-449.67 1163.22,-434 1166.17,-433.17 1169.23,-432.24 1172.27,-431.26"/>
<polygon fill="midnightblue" stroke="midnightblue" points="1173.48,-434.55 1181.83,-428.03 1171.24,-427.92 1173.48,-434.55"/>
</g>
<!-- Node35 -->
<g id="node24" class="node">
<title>Node35</title>
<g id="a_node24"><a xlink:href="v8-platform_8h.html" target="_top" xlink:title=" ">
<polygon fill="white" stroke="black" points="627.22,-280.5 627.22,-299.5 749.22,-299.5 749.22,-280.5 627.22,-280.5"/>
<text text-anchor="middle" x="688.22" y="-287.5" font-family="Helvetica,sans-Serif" font-size="10.00">include/v8&#45;platform.h</text>
</a>
</g>
</g>
<!-- Node33&#45;&gt;Node35 -->
<g id="edge38" class="edge">
<title>Node33&#45;&gt;Node35</title>
<path fill="none" stroke="midnightblue" d="M934.46,-470.43C893.91,-440.89 759.6,-343.02 708.34,-305.66"/>
<polygon fill="midnightblue" stroke="midnightblue" points="710.18,-302.68 700.04,-299.62 706.06,-308.33 710.18,-302.68"/>
</g>
<!-- Node40 -->
<g id="node28" class="node">
<title>Node40</title>
<g id="a_node28"><a xlink:href="semaphore_8h.html" target="_top" xlink:title=" ">
<polygon fill="white" stroke="black" points="402.72,-409 402.72,-428 571.72,-428 571.72,-409 402.72,-409"/>
<text text-anchor="middle" x="487.22" y="-416" font-family="Helvetica,sans-Serif" font-size="10.00">src/base/platform/semaphore.h</text>
</a>
</g>
</g>
<!-- Node33&#45;&gt;Node40 -->
<g id="edge54" class="edge">
<title>Node33&#45;&gt;Node40</title>
<path fill="none" stroke="midnightblue" d="M873.89,-470.48C800.96,-461.77 685.19,-447.62 585.22,-434 574.88,-432.59 563.95,-431.04 553.28,-429.49"/>
<polygon fill="midnightblue" stroke="midnightblue" points="553.56,-425.99 543.15,-428 552.54,-432.91 553.56,-425.99"/>
</g>
<!-- Node41 -->
<g id="node29" class="node">
<title>Node41</title>
<g id="a_node29"><a xlink:title=" ">
<polygon fill="white" stroke="#bfbfbf" points="1249.22,-403.5 1249.22,-433.5 1365.22,-433.5 1365.22,-403.5 1249.22,-403.5"/>
<text text-anchor="start" x="1257.22" y="-421.5" font-family="Helvetica,sans-Serif" font-size="10.00">testing/gtest/include</text>
<text text-anchor="middle" x="1307.22" y="-410.5" font-family="Helvetica,sans-Serif" font-size="10.00">/gtest/gtest_prod.h</text>
</a>
</g>
</g>
<!-- Node33&#45;&gt;Node41 -->
<g id="edge57" class="edge">
<title>Node33&#45;&gt;Node41</title>
<path fill="none" stroke="midnightblue" d="M1009.2,-470.5C1066.65,-462.48 1154.09,-449.64 1239.31,-434.1"/>
<polygon fill="midnightblue" stroke="midnightblue" points="1239.95,-437.54 1249.15,-432.29 1238.69,-430.66 1239.95,-437.54"/>
</g>
<!-- Node35&#45;&gt;Node6 -->
<g id="edge48" class="edge">
<title>Node35&#45;&gt;Node6</title>
<path fill="none" stroke="midnightblue" d="M743.77,-280.49C813.35,-269.58 924.24,-251.19 930.22,-244 965.73,-201.27 891.95,-234.09 851.22,-188 825.3,-158.68 817.06,-111.76 814.43,-85.8"/>
<polygon fill="midnightblue" stroke="midnightblue" points="817.92,-85.46 813.6,-75.78 810.94,-86.04 817.92,-85.46"/>
</g>
<!-- Node35&#45;&gt;Node7 -->
<g id="edge43" class="edge">
<title>Node35&#45;&gt;Node7</title>
<path fill="none" stroke="midnightblue" d="M663.43,-280.41C626.47,-265.83 561.22,-232.53 561.22,-179 561.22,-179 561.22,-179 561.22,-121 561.22,-75.41 609.02,-41.62 640.72,-24.23"/>
<polygon fill="midnightblue" stroke="midnightblue" points="642.36,-27.32 649.58,-19.56 639.1,-21.13 642.36,-27.32"/>
</g>
<!-- Node35&#45;&gt;Node19 -->
<g id="edge44" class="edge">
<title>Node35&#45;&gt;Node19</title>
<path fill="none" stroke="midnightblue" d="M680.24,-280.44C672.76,-271.89 661.91,-258.04 656.22,-244 650.24,-229.27 647.81,-211.34 646.83,-198.04"/>
<polygon fill="midnightblue" stroke="midnightblue" points="650.31,-197.55 646.29,-187.75 643.32,-197.92 650.31,-197.55"/>
</g>
<!-- Node35&#45;&gt;Node26 -->
<g id="edge40" class="edge">
<title>Node35&#45;&gt;Node26</title>
<path fill="none" stroke="midnightblue" d="M659.22,-280.44C627.85,-271.19 577.7,-256.39 543.2,-246.21"/>
<polygon fill="midnightblue" stroke="midnightblue" points="544.06,-242.81 533.48,-243.34 542.08,-249.53 544.06,-242.81"/>
</g>
<!-- Node35&#45;&gt;Node32 -->
<g id="edge41" class="edge">
<title>Node35&#45;&gt;Node32</title>
<path fill="none" stroke="midnightblue" d="M643.43,-280.43C600.98,-272.17 535.19,-259.03 468.73,-244.04"/>
<polygon fill="midnightblue" stroke="midnightblue" points="469.45,-240.61 458.92,-241.81 467.9,-247.44 469.45,-240.61"/>
</g>
<!-- Node36 -->
<g id="node25" class="node">
<title>Node36</title>
<g id="a_node25"><a xlink:title=" ">
<polygon fill="white" stroke="#bfbfbf" points="799.72,-224.5 799.72,-243.5 850.72,-243.5 850.72,-224.5 799.72,-224.5"/>
<text text-anchor="middle" x="825.22" y="-231.5" font-family="Helvetica,sans-Serif" font-size="10.00">math.h</text>
</a>
</g>
</g>
<!-- Node35&#45;&gt;Node36 -->
<g id="edge39" class="edge">
<title>Node35&#45;&gt;Node36</title>
<path fill="none" stroke="midnightblue" d="M709.92,-280.44C732.57,-271.52 768.29,-257.44 793.97,-247.32"/>
<polygon fill="midnightblue" stroke="midnightblue" points="795.59,-250.44 803.61,-243.52 793.02,-243.93 795.59,-250.44"/>
</g>
<!-- Node37 -->
<g id="node26" class="node">
<title>Node37</title>
<g id="a_node26"><a xlink:title=" ">
<polygon fill="white" stroke="#bfbfbf" points="868.72,-224.5 868.72,-243.5 921.72,-243.5 921.72,-224.5 868.72,-224.5"/>
<text text-anchor="middle" x="895.22" y="-231.5" font-family="Helvetica,sans-Serif" font-size="10.00">stdlib.h</text>
</a>
</g>
</g>
<!-- Node35&#45;&gt;Node37 -->
<g id="edge42" class="edge">
<title>Node35&#45;&gt;Node37</title>
<path fill="none" stroke="midnightblue" d="M721.01,-280.44C758.48,-270.67 819.62,-254.72 858.6,-244.55"/>
<polygon fill="midnightblue" stroke="midnightblue" points="859.7,-247.88 868.49,-241.97 857.93,-241.11 859.7,-247.88"/>
</g>
<!-- Node38 -->
<g id="node27" class="node">
<title>Node38</title>
<g id="a_node27"><a xlink:href="v8-source-location_8h.html" target="_top" xlink:title=" ">
<polygon fill="white" stroke="red" points="665.22,-224.5 665.22,-243.5 781.22,-243.5 781.22,-224.5 665.22,-224.5"/>
<text text-anchor="middle" x="723.22" y="-231.5" font-family="Helvetica,sans-Serif" font-size="10.00">v8&#45;source&#45;location.h</text>
</a>
</g>
</g>
<!-- Node35&#45;&gt;Node38 -->
<g id="edge45" class="edge">
<title>Node35&#45;&gt;Node38</title>
<path fill="none" stroke="midnightblue" d="M693.99,-280.08C698.89,-272.53 706.04,-261.49 712.05,-252.23"/>
<polygon fill="midnightblue" stroke="midnightblue" points="715.04,-254.05 717.54,-243.75 709.17,-250.24 715.04,-254.05"/>
</g>
<!-- Node38&#45;&gt;Node6 -->
<g id="edge47" class="edge">
<title>Node38&#45;&gt;Node6</title>
<path fill="none" stroke="midnightblue" d="M728.05,-224.08C742.34,-197.72 784.55,-119.88 803.64,-84.66"/>
<polygon fill="midnightblue" stroke="midnightblue" points="806.88,-86.03 808.57,-75.57 800.73,-82.69 806.88,-86.03"/>
</g>
<!-- Node38&#45;&gt;Node19 -->
<g id="edge46" class="edge">
<title>Node38&#45;&gt;Node19</title>
<path fill="none" stroke="midnightblue" d="M710.84,-224.32C699.06,-216.06 681.08,-203.45 667.08,-193.63"/>
<polygon fill="midnightblue" stroke="midnightblue" points="668.75,-190.53 658.56,-187.65 664.73,-196.26 668.75,-190.53"/>
</g>
<!-- Node40&#45;&gt;Node8 -->
<g id="edge55" class="edge">
<title>Node40&#45;&gt;Node8</title>
<path fill="none" stroke="midnightblue" d="M472.97,-408.9C458.55,-399.74 436.16,-384.2 420.22,-367 396.16,-341.06 387.48,-333.86 377.22,-300 360.4,-244.49 368.38,-174.62 373.73,-141.74"/>
<polygon fill="midnightblue" stroke="midnightblue" points="377.21,-142.18 375.47,-131.73 370.31,-140.99 377.21,-142.18"/>
</g>
<!-- Node40&#45;&gt;Node9 -->
<g id="edge56" class="edge">
<title>Node40&#45;&gt;Node9</title>
<path fill="none" stroke="midnightblue" d="M488.43,-408.73C489.75,-399.18 491.91,-383.62 493.61,-371.28"/>
<polygon fill="midnightblue" stroke="midnightblue" points="497.12,-371.51 495.02,-361.13 490.18,-370.55 497.12,-371.51"/>
</g>
</g>
</svg>
        <g id="navigator" transform="translate(0 0)" fill="#404254">
                <rect fill="#f2f5e9" fill-opacity="0.5" stroke="#606060" stroke-width=".5" x="0" y="0" width="60" height="60"/>
                <use id="zoomplus" xlink:href="#zoomPlus" x="17" y="9" onmousedown="handleZoom(evt,'in')"/>
                <use id="zoomminus" xlink:href="#zoomMin" x="42" y="9" onmousedown="handleZoom(evt,'out')"/>
                <use id="reset" xlink:href="#resetDef" x="30" y="36" onmousedown="handleReset()"/>
                <g id="arrowUp" xlink:href="#dirArrow" transform="translate(30 24)" onmousedown="handlePan(0,-1)">
                  <use xlink:href="#rim" fill="#404040">
                        <set attributeName="fill" to="#808080" begin="arrowUp.mouseover" end="arrowUp.mouseout"/>
                  </use>
                  <path fill="none" stroke="white" stroke-width="1.5" d="M0,-3.0v7 M-2.5,-0.5L0,-3.0L2.5,-0.5"/>
                </g>
                <g id="arrowRight" xlink:href="#dirArrow" transform="rotate(90) translate(36 -43)" onmousedown="handlePan(1,0)">
                  <use xlink:href="#rim" fill="#404040">
                        <set attributeName="fill" to="#808080" begin="arrowRight.mouseover" end="arrowRight.mouseout"/>
                  </use>
                  <path fill="none" stroke="white" stroke-width="1.5" d="M0,-3.0v7 M-2.5,-0.5L0,-3.0L2.5,-0.5"/>
                </g>
                <g id="arrowDown" xlink:href="#dirArrow" transform="rotate(180) translate(-30 -48)" onmousedown="handlePan(0,1)">
                  <use xlink:href="#rim" fill="#404040">
                        <set attributeName="fill" to="#808080" begin="arrowDown.mouseover" end="arrowDown.mouseout"/>
                  </use>
                  <path fill="none" stroke="white" stroke-width="1.5" d="M0,-3.0v7 M-2.5,-0.5L0,-3.0L2.5,-0.5"/>
                </g>
                <g id="arrowLeft" xlink:href="#dirArrow" transform="rotate(270) translate(-36 17)" onmousedown="handlePan(-1,0)">
                  <use xlink:href="#rim" fill="#404040">
                        <set attributeName="fill" to="#808080" begin="arrowLeft.mouseover" end="arrowLeft.mouseout"/>
                  </use>
                  <path fill="none" stroke="white" stroke-width="1.5" d="M0,-3.0v7 M-2.5,-0.5L0,-3.0L2.5,-0.5"/>
                </g>
        </g>
        <svg viewBox="0 0 15 15" width="100%" height="30px" preserveAspectRatio="xMaxYMin meet">
         <g id="arrow_out" transform="scale(0.3 0.3)">
          <a xlink:href="locked-queue_8h__incl_org.svg" target="_base">
           <rect id="button" ry="5" rx="5" y="6" x="6" height="38" width="38"
                fill="#f2f5e9" fill-opacity="0.5" stroke="#606060" stroke-width="1.0"/>
           <path id="arrow"
             d="M 11.500037,31.436501 C 11.940474,20.09759 22.043105,11.32322 32.158766,21.979434 L 37.068811,17.246167 C 37.068811,17.246167 37.088388,32 37.088388,32 L 22.160133,31.978069 C 22.160133,31.978069 26.997745,27.140456 26.997745,27.140456 C 18.528582,18.264221 13.291696,25.230495 11.500037,31.436501 z"
             style="fill:#404040;"/>
          </a>
         </g>
        </svg>
</svg>
