<?xml version="1.0" encoding="UTF-8" standalone="no"?>
<!DOCTYPE svg PUBLIC "-//W3C//DTD SVG 1.1//EN"
 "http://www.w3.org/Graphics/SVG/1.1/DTD/svg11.dtd">
<!-- Generated by graphviz version 2.43.0 (0)
 -->
<!-- Title: v8::anonymous_namespace{api::cc}::NewString Pages: 1 -->
<svg width="558pt" height="110pt"
 viewBox="0.00 0.00 558.00 110.00" xmlns="http://www.w3.org/2000/svg" xmlns:xlink="http://www.w3.org/1999/xlink">
<g id="graph0" class="graph" transform="scale(1 1) rotate(0) translate(4 106)">
<title>v8::anonymous_namespace{api::cc}::NewString</title>
<polygon fill="white" stroke="transparent" points="-4,4 -4,-106 554,-106 554,4 -4,4"/>
<!-- Node1 -->
<g id="node1" class="node">
<title>Node1</title>
<g id="a_node1"><a xlink:title=" ">
<polygon fill="#bfbfbf" stroke="black" points="0,-46.5 0,-76.5 153,-76.5 153,-46.5 0,-46.5"/>
<text text-anchor="start" x="8" y="-64.5" font-family="Helvetica,sans-Serif" font-size="10.00">v8::anonymous_namespace</text>
<text text-anchor="middle" x="76.5" y="-53.5" font-family="Helvetica,sans-Serif" font-size="10.00">{api::cc}::NewString</text>
</a>
</g>
</g>
<!-- Node2 -->
<g id="node2" class="node">
<title>Node2</title>
<g id="a_node2"><a xlink:href="classv8_1_1internal_1_1Factory.html#a0cf113b78600bc0af80d7c548558c64a" target="_top" xlink:title=" ">
<polygon fill="white" stroke="black" points="202.5,-71.5 202.5,-101.5 315.5,-101.5 315.5,-71.5 202.5,-71.5"/>
<text text-anchor="start" x="210.5" y="-89.5" font-family="Helvetica,sans-Serif" font-size="10.00">v8::internal::Factory</text>
<text text-anchor="middle" x="259" y="-78.5" font-family="Helvetica,sans-Serif" font-size="10.00">::InternalizeString</text>
</a>
</g>
</g>
<!-- Node1&#45;&gt;Node2 -->
<g id="edge1" class="edge">
<title>Node1&#45;&gt;Node2</title>
<path fill="none" stroke="midnightblue" d="M153,-71.96C166.04,-73.76 179.49,-75.63 192.24,-77.39"/>
<polygon fill="midnightblue" stroke="midnightblue" points="191.91,-80.88 202.3,-78.79 192.87,-73.95 191.91,-80.88"/>
</g>
<!-- Node3 -->
<g id="node3" class="node">
<title>Node3</title>
<g id="a_node3"><a xlink:href="classv8_1_1internal_1_1FactoryBase.html#a0373b86900852e5f348f638a98a235d1" target="_top" xlink:title=" ">
<polygon fill="white" stroke="black" points="189,-22.5 189,-52.5 329,-52.5 329,-22.5 189,-22.5"/>
<text text-anchor="start" x="197" y="-40.5" font-family="Helvetica,sans-Serif" font-size="10.00">v8::internal::FactoryBase</text>
<text text-anchor="middle" x="259" y="-29.5" font-family="Helvetica,sans-Serif" font-size="10.00">::NewStringFromOneByte</text>
</a>
</g>
</g>
<!-- Node1&#45;&gt;Node3 -->
<g id="edge2" class="edge">
<title>Node1&#45;&gt;Node3</title>
<path fill="none" stroke="midnightblue" d="M153,-51.46C161.54,-50.33 170.26,-49.17 178.85,-48.02"/>
<polygon fill="midnightblue" stroke="midnightblue" points="179.4,-51.48 188.85,-46.69 178.47,-44.54 179.4,-51.48"/>
</g>
<!-- Node4 -->
<g id="node4" class="node">
<title>Node4</title>
<g id="a_node4"><a xlink:href="namespacev8_1_1internal.html#a97a2bf2e1b8fac6ada79dd7ec47ffcfe" target="_top" xlink:title=" ">
<polygon fill="white" stroke="black" points="392,-50 392,-69 523,-69 523,-50 392,-50"/>
<text text-anchor="middle" x="457.5" y="-57" font-family="Helvetica,sans-Serif" font-size="10.00">v8::internal::CopyChars</text>
</a>
</g>
</g>
<!-- Node3&#45;&gt;Node4 -->
<g id="edge3" class="edge">
<title>Node3&#45;&gt;Node4</title>
<path fill="none" stroke="midnightblue" d="M329,-45.23C346.1,-47.14 364.51,-49.2 381.86,-51.14"/>
<polygon fill="midnightblue" stroke="midnightblue" points="381.62,-54.64 391.95,-52.27 382.4,-47.68 381.62,-54.64"/>
</g>
<!-- Node5 -->
<g id="node5" class="node">
<title>Node5</title>
<g id="a_node5"><a xlink:href="classv8_1_1internal_1_1SharedStringAccessGuardIfNeeded.html#ab6c21fca52e33d911bf7a47b40ee4264" target="_top" xlink:title=" ">
<polygon fill="white" stroke="black" points="365,-0.5 365,-30.5 550,-30.5 550,-0.5 365,-0.5"/>
<text text-anchor="start" x="373" y="-18.5" font-family="Helvetica,sans-Serif" font-size="10.00">v8::internal::SharedString</text>
<text text-anchor="middle" x="457.5" y="-7.5" font-family="Helvetica,sans-Serif" font-size="10.00">AccessGuardIfNeeded::NotNeeded</text>
</a>
</g>
</g>
<!-- Node3&#45;&gt;Node5 -->
<g id="edge4" class="edge">
<title>Node3&#45;&gt;Node5</title>
<path fill="none" stroke="midnightblue" d="M329,-29.77C337.35,-28.84 346,-27.87 354.7,-26.9"/>
<polygon fill="midnightblue" stroke="midnightblue" points="355.35,-30.35 364.9,-25.76 354.57,-23.39 355.35,-30.35"/>
</g>
</g>
</svg>
