<?xml version="1.0" encoding="UTF-8" standalone="no"?>
<!DOCTYPE svg PUBLIC "-//W3C//DTD SVG 1.1//EN"
 "http://www.w3.org/Graphics/SVG/1.1/DTD/svg11.dtd">
<!-- Generated by graphviz version 2.43.0 (0)
 -->
<!-- Title: v8::internal::anonymous_namespace{regexp&#45;compiler&#45;tonode::cc}::AddClassNegated Pages: 1 -->
<svg width="769pt" height="252pt"
 viewBox="0.00 0.00 769.00 252.00" xmlns="http://www.w3.org/2000/svg" xmlns:xlink="http://www.w3.org/1999/xlink">
<g id="graph0" class="graph" transform="scale(1 1) rotate(0) translate(4 248)">
<title>v8::internal::anonymous_namespace{regexp&#45;compiler&#45;tonode::cc}::AddClassNegated</title>
<polygon fill="white" stroke="transparent" points="-4,4 -4,-248 765,-248 765,4 -4,4"/>
<!-- Node1 -->
<g id="node1" class="node">
<title>Node1</title>
<g id="a_node1"><a xlink:title=" ">
<polygon fill="#bfbfbf" stroke="black" points="592,-96 592,-137 761,-137 761,-96 592,-96"/>
<text text-anchor="start" x="600" y="-125" font-family="Helvetica,sans-Serif" font-size="10.00">v8::internal::anonymous</text>
<text text-anchor="start" x="600" y="-114" font-family="Helvetica,sans-Serif" font-size="10.00">_namespace{regexp&#45;compiler</text>
<text text-anchor="middle" x="676.5" y="-103" font-family="Helvetica,sans-Serif" font-size="10.00">&#45;tonode::cc}::AddClassNegated</text>
</a>
</g>
</g>
<!-- Node2 -->
<g id="node2" class="node">
<title>Node2</title>
<g id="a_node2"><a xlink:href="classv8_1_1internal_1_1CharacterRange.html#af930c2ef1854edb11eb942b2864ddb9f" target="_top" xlink:title=" ">
<polygon fill="white" stroke="black" points="400,-101.5 400,-131.5 556,-131.5 556,-101.5 400,-101.5"/>
<text text-anchor="start" x="408" y="-119.5" font-family="Helvetica,sans-Serif" font-size="10.00">v8::internal::CharacterRange</text>
<text text-anchor="middle" x="478" y="-108.5" font-family="Helvetica,sans-Serif" font-size="10.00">::AddClassEscape</text>
</a>
</g>
</g>
<!-- Node1&#45;&gt;Node2 -->
<g id="edge1" class="edge">
<title>Node1&#45;&gt;Node2</title>
<path fill="none" stroke="midnightblue" d="M581.87,-116.5C573.31,-116.5 564.7,-116.5 556.31,-116.5"/>
<polygon fill="midnightblue" stroke="midnightblue" points="581.88,-120 591.88,-116.5 581.88,-113 581.88,-120"/>
</g>
<!-- Node3 -->
<g id="node3" class="node">
<title>Node3</title>
<g id="a_node3"><a xlink:href="namespacev8_1_1internal_1_1anonymous__namespace_02regexp-compiler-tonode_8cc_03.html#a9d0d4bacdcdca2b200efb5d13f73b7d1" target="_top" xlink:title=" ">
<polygon fill="white" stroke="black" points="177,-191.5 177,-243.5 364,-243.5 364,-191.5 177,-191.5"/>
<text text-anchor="start" x="185" y="-231.5" font-family="Helvetica,sans-Serif" font-size="10.00">v8::internal::anonymous</text>
<text text-anchor="start" x="185" y="-220.5" font-family="Helvetica,sans-Serif" font-size="10.00">_namespace{regexp&#45;compiler</text>
<text text-anchor="start" x="185" y="-209.5" font-family="Helvetica,sans-Serif" font-size="10.00">&#45;tonode::cc}::BoundaryAssertionAs</text>
<text text-anchor="middle" x="270.5" y="-198.5" font-family="Helvetica,sans-Serif" font-size="10.00">Lookaround</text>
</a>
</g>
</g>
<!-- Node2&#45;&gt;Node3 -->
<g id="edge2" class="edge">
<title>Node2&#45;&gt;Node3</title>
<path fill="none" stroke="midnightblue" d="M445.14,-137.04C422.92,-150.88 392.29,-169 364,-182.5 357.65,-185.53 350.96,-188.49 344.2,-191.32"/>
<polygon fill="midnightblue" stroke="midnightblue" points="447.21,-139.87 453.82,-131.59 443.49,-133.94 447.21,-139.87"/>
</g>
<!-- Node4 -->
<g id="node4" class="node">
<title>Node4</title>
<g id="a_node4"><a xlink:href="classv8_1_1internal_1_1anonymous__namespace_02regexp-parser_8cc_03_1_1RegExpParserImpl.html#aa4e35bc2221ede837207e892979ffdeb" target="_top" xlink:title=" ">
<polygon fill="white" stroke="black" points="194.5,-120.5 194.5,-172.5 346.5,-172.5 346.5,-120.5 194.5,-120.5"/>
<text text-anchor="start" x="202.5" y="-160.5" font-family="Helvetica,sans-Serif" font-size="10.00">v8::internal::anonymous</text>
<text text-anchor="start" x="202.5" y="-149.5" font-family="Helvetica,sans-Serif" font-size="10.00">_namespace{regexp&#45;parser</text>
<text text-anchor="start" x="202.5" y="-138.5" font-family="Helvetica,sans-Serif" font-size="10.00">::cc}::RegExpParserImpl</text>
<text text-anchor="middle" x="270.5" y="-127.5" font-family="Helvetica,sans-Serif" font-size="10.00">::ParseDisjunction</text>
</a>
</g>
</g>
<!-- Node2&#45;&gt;Node4 -->
<g id="edge3" class="edge">
<title>Node2&#45;&gt;Node4</title>
<path fill="none" stroke="midnightblue" d="M390,-129.2C375.58,-131.31 360.74,-133.47 346.65,-135.53"/>
<polygon fill="midnightblue" stroke="midnightblue" points="390.51,-132.66 399.89,-127.76 389.49,-125.74 390.51,-132.66"/>
</g>
<!-- Node5 -->
<g id="node5" class="node">
<title>Node5</title>
<g id="a_node5"><a xlink:href="classv8_1_1internal_1_1CharacterSet.html#af3cb78cf3902be5f28a654a9659af385" target="_top" xlink:title=" ">
<polygon fill="white" stroke="black" points="200,-71.5 200,-101.5 341,-101.5 341,-71.5 200,-71.5"/>
<text text-anchor="start" x="208" y="-89.5" font-family="Helvetica,sans-Serif" font-size="10.00">v8::internal::CharacterSet</text>
<text text-anchor="middle" x="270.5" y="-78.5" font-family="Helvetica,sans-Serif" font-size="10.00">::ranges</text>
</a>
</g>
</g>
<!-- Node2&#45;&gt;Node5 -->
<g id="edge4" class="edge">
<title>Node2&#45;&gt;Node5</title>
<path fill="none" stroke="midnightblue" d="M389.87,-103.78C373.64,-101.41 356.87,-98.96 341.25,-96.68"/>
<polygon fill="midnightblue" stroke="midnightblue" points="389.49,-107.26 399.89,-105.24 390.51,-100.34 389.49,-107.26"/>
</g>
<!-- Node18 -->
<g id="node7" class="node">
<title>Node18</title>
<g id="a_node7"><a xlink:href="classv8_1_1internal_1_1anonymous__namespace_02regexp-parser_8cc_03_1_1RegExpParserImpl.html#ab3b25cf39704ed632782ef6eb9c0eb2b" target="_top" xlink:title=" ">
<polygon fill="white" stroke="black" points="185,-0.5 185,-52.5 356,-52.5 356,-0.5 185,-0.5"/>
<text text-anchor="start" x="193" y="-40.5" font-family="Helvetica,sans-Serif" font-size="10.00">v8::internal::anonymous</text>
<text text-anchor="start" x="193" y="-29.5" font-family="Helvetica,sans-Serif" font-size="10.00">_namespace{regexp&#45;parser</text>
<text text-anchor="start" x="193" y="-18.5" font-family="Helvetica,sans-Serif" font-size="10.00">::cc}::RegExpParserImpl</text>
<text text-anchor="middle" x="270.5" y="-7.5" font-family="Helvetica,sans-Serif" font-size="10.00">::TryParseCharacterClassEscape</text>
</a>
</g>
</g>
<!-- Node2&#45;&gt;Node18 -->
<g id="edge6" class="edge">
<title>Node2&#45;&gt;Node18</title>
<path fill="none" stroke="midnightblue" d="M437.88,-96.92C416.28,-86.33 388.86,-73.26 364,-62.5 356.41,-59.21 348.41,-55.9 340.43,-52.67"/>
<polygon fill="midnightblue" stroke="midnightblue" points="436.55,-100.16 447.07,-101.44 439.64,-93.89 436.55,-100.16"/>
</g>
<!-- Node6 -->
<g id="node6" class="node">
<title>Node6</title>
<g id="a_node6"><a xlink:href="classv8_1_1internal_1_1RegExpClassRanges.html#a72146e04d0e624f2992658af593d5fdc" target="_top" xlink:title=" ">
<polygon fill="white" stroke="red" points="0,-71.5 0,-101.5 141,-101.5 141,-71.5 0,-71.5"/>
<text text-anchor="start" x="8" y="-89.5" font-family="Helvetica,sans-Serif" font-size="10.00">v8::internal::RegExpClass</text>
<text text-anchor="middle" x="70.5" y="-78.5" font-family="Helvetica,sans-Serif" font-size="10.00">Ranges::ranges</text>
</a>
</g>
</g>
<!-- Node5&#45;&gt;Node6 -->
<g id="edge5" class="edge">
<title>Node5&#45;&gt;Node6</title>
<path fill="none" stroke="midnightblue" d="M189.56,-86.5C173.54,-86.5 156.83,-86.5 141.2,-86.5"/>
<polygon fill="midnightblue" stroke="midnightblue" points="189.97,-90 199.97,-86.5 189.97,-83 189.97,-90"/>
</g>
</g>
</svg>
