<?xml version="1.0" encoding="UTF-8" standalone="no"?>
<!DOCTYPE svg PUBLIC "-//W3C//DTD SVG 1.1//EN"
 "http://www.w3.org/Graphics/SVG/1.1/DTD/svg11.dtd">
<!-- Generated by graphviz version 2.43.0 (0)
 -->
<!-- Title: v8::internal::RUNTIME_FUNCTION Pages: 1 -->
<!--zoomable 225 -->
<svg id="main" version="1.1" xmlns="http://www.w3.org/2000/svg" xmlns:xlink="http://www.w3.org/1999/xlink" xml:space="preserve" onload="init(evt)">
<style type="text/css"><![CDATA[
.edge:hover path { stroke: red; }
.edge:hover polygon { stroke: red; fill: red; }
]]></style>
<script type="text/javascript"><![CDATA[
var edges = document.getElementsByTagName('g');
if (edges && edges.length) {
  for (var i=0;i<edges.length;i++) {
    if (edges[i].id.substr(0,4)=='edge') {
      edges[i].setAttribute('class','edge');
    }
  }
}
]]></script>
        <defs>
                <circle id="rim" cx="0" cy="0" r="7"/>
                <circle id="rim2" cx="0" cy="0" r="3.5"/>
                <g id="zoomPlus">
                        <use xlink:href="#rim" fill="#404040">
                                <set attributeName="fill" to="#808080" begin="zoomplus.mouseover" end="zoomplus.mouseout"/>
                        </use>
                        <path d="M-4,0h8M0,-4v8" fill="none" stroke="white" stroke-width="1.5" pointer-events="none"/>
                </g>
                <g id="zoomMin">
                        <use xlink:href="#rim" fill="#404040">
                                <set attributeName="fill" to="#808080" begin="zoomminus.mouseover" end="zoomminus.mouseout"/>
                        </use>
                        <path d="M-4,0h8" fill="none" stroke="white" stroke-width="1.5" pointer-events="none"/>
                </g>
                <g id="dirArrow">
                        <path fill="none" stroke="white" stroke-width="1.5" d="M0,-3.0v7 M-2.5,-0.5L0,-3.0L2.5,-0.5"/>
                </g>
               <g id="resetDef">
                       <use xlink:href="#rim2" fill="#404040">
                               <set attributeName="fill" to="#808080" begin="reset.mouseover" end="reset.mouseout"/>
                       </use>
               </g>
        </defs>

<script type="text/javascript">
var viewWidth = 671;
var viewHeight = 225;
var sectionId = 'dynsection-2016';
</script>
<script xlink:href="svgpan.js"/>
<svg id="graph" class="graph">
<g id="viewport">
<title>v8::internal::RUNTIME_FUNCTION</title>
<polygon fill="white" stroke="transparent" points="-4,4 -4,-220.5 667,-220.5 667,4 -4,4"/>
<!-- Node1 -->
<g id="node1" class="node">
<title>Node1</title>
<g id="a_node1"><a xlink:title=" ">
<polygon fill="#bfbfbf" stroke="black" points="0,-122.5 0,-152.5 124,-152.5 124,-122.5 0,-122.5"/>
<text text-anchor="start" x="8" y="-140.5" font-family="Helvetica,sans-Serif" font-size="10.00">v8::internal::RUNTIME</text>
<text text-anchor="middle" x="62" y="-129.5" font-family="Helvetica,sans-Serif" font-size="10.00">_FUNCTION</text>
</a>
</g>
</g>
<!-- Node2 -->
<g id="node2" class="node">
<title>Node2</title>
<g id="a_node2"><a xlink:href="namespacev8_1_1internal_1_1anonymous__namespace_02runtime-test-wasm_8cc_03.html#ae5ea987d093a25377fca981fd72fe15e" target="_top" xlink:title=" ">
<polygon fill="white" stroke="black" points="160,-172 160,-213 336,-213 336,-172 160,-172"/>
<text text-anchor="start" x="168" y="-201" font-family="Helvetica,sans-Serif" font-size="10.00">v8::internal::anonymous</text>
<text text-anchor="start" x="168" y="-190" font-family="Helvetica,sans-Serif" font-size="10.00">_namespace{runtime&#45;test</text>
<text text-anchor="middle" x="248" y="-179" font-family="Helvetica,sans-Serif" font-size="10.00">&#45;wasm::cc}::CrashUnlessFuzzing</text>
</a>
</g>
</g>
<!-- Node1&#45;&gt;Node2 -->
<g id="edge1" class="edge">
<title>Node1&#45;&gt;Node2</title>
<path fill="none" stroke="midnightblue" d="M113.28,-152.53C130.31,-157.62 149.77,-163.44 168.47,-169.03"/>
<polygon fill="midnightblue" stroke="midnightblue" points="167.57,-172.41 178.16,-171.92 169.58,-165.7 167.57,-172.41"/>
</g>
<!-- Node3 -->
<g id="node3" class="node">
<title>Node3</title>
<g id="a_node3"><a xlink:href="classv8_1_1internal_1_1Smi.html#afe7f07102d90ccce48cbe677c88a0645" target="_top" xlink:title=" ">
<polygon fill="white" stroke="black" points="196.5,-122.5 196.5,-152.5 299.5,-152.5 299.5,-122.5 196.5,-122.5"/>
<text text-anchor="start" x="204.5" y="-140.5" font-family="Helvetica,sans-Serif" font-size="10.00">v8::internal::Smi::</text>
<text text-anchor="middle" x="248" y="-129.5" font-family="Helvetica,sans-Serif" font-size="10.00">FromInt</text>
</a>
</g>
</g>
<!-- Node1&#45;&gt;Node3 -->
<g id="edge2" class="edge">
<title>Node1&#45;&gt;Node3</title>
<path fill="none" stroke="midnightblue" d="M124.01,-137.5C143.97,-137.5 166.12,-137.5 186.07,-137.5"/>
<polygon fill="midnightblue" stroke="midnightblue" points="186.28,-141 196.28,-137.5 186.28,-134 186.28,-141"/>
</g>
<!-- Node13 -->
<g id="node8" class="node">
<title>Node13</title>
<g id="a_node8"><a xlink:href="classv8_1_1internal_1_1TaggedImpl.html#ac4b5545af5f24aed6d990a482119a608" target="_top" xlink:title=" ">
<polygon fill="white" stroke="black" points="181,-49.5 181,-79.5 315,-79.5 315,-49.5 181,-49.5"/>
<text text-anchor="start" x="189" y="-67.5" font-family="Helvetica,sans-Serif" font-size="10.00">v8::internal::TaggedImpl</text>
<text text-anchor="middle" x="248" y="-56.5" font-family="Helvetica,sans-Serif" font-size="10.00">::IsWeak</text>
</a>
</g>
</g>
<!-- Node1&#45;&gt;Node13 -->
<g id="edge7" class="edge">
<title>Node1&#45;&gt;Node13</title>
<path fill="none" stroke="midnightblue" d="M101.12,-122.37C129.62,-111.07 168.76,-95.54 199.33,-83.41"/>
<polygon fill="midnightblue" stroke="midnightblue" points="200.92,-86.55 208.92,-79.61 198.34,-80.04 200.92,-86.55"/>
</g>
<!-- Node4 -->
<g id="node4" class="node">
<title>Node4</title>
<g id="a_node4"><a xlink:href="namespacev8_1_1internal.html#aa6b3743bd5d773c552654f2a6c3efa4a" target="_top" xlink:title=" ">
<polygon fill="white" stroke="black" points="379.5,-197 379.5,-216 498.5,-216 498.5,-197 379.5,-197"/>
<text text-anchor="middle" x="439" y="-204" font-family="Helvetica,sans-Serif" font-size="10.00">v8::internal::DCHECK</text>
</a>
</g>
</g>
<!-- Node3&#45;&gt;Node4 -->
<g id="edge3" class="edge">
<title>Node3&#45;&gt;Node4</title>
<path fill="none" stroke="midnightblue" d="M299.72,-149.05C311.89,-152.64 324.64,-157.11 336,-162.5 353.6,-170.86 354.41,-179.14 372,-187.5 376.91,-189.84 382.17,-191.94 387.5,-193.83"/>
<polygon fill="midnightblue" stroke="midnightblue" points="386.5,-197.18 397.09,-196.98 388.69,-190.53 386.5,-197.18"/>
</g>
<!-- Node5 -->
<g id="node5" class="node">
<title>Node5</title>
<g id="a_node5"><a xlink:href="classv8_1_1internal_1_1Internals.html#a534069628ce205d49e0933ac1b10afd7" target="_top" xlink:title=" ">
<polygon fill="white" stroke="black" points="378.5,-147.5 378.5,-177.5 499.5,-177.5 499.5,-147.5 378.5,-147.5"/>
<text text-anchor="start" x="386.5" y="-165.5" font-family="Helvetica,sans-Serif" font-size="10.00">v8::internal::Internals</text>
<text text-anchor="middle" x="439" y="-154.5" font-family="Helvetica,sans-Serif" font-size="10.00">::IntegralToSmi</text>
</a>
</g>
</g>
<!-- Node3&#45;&gt;Node5 -->
<g id="edge4" class="edge">
<title>Node3&#45;&gt;Node5</title>
<path fill="none" stroke="midnightblue" d="M299.65,-144.2C320.79,-147 345.7,-150.29 368.52,-153.31"/>
<polygon fill="midnightblue" stroke="midnightblue" points="368.11,-156.79 378.49,-154.63 369.03,-149.85 368.11,-156.79"/>
</g>
<!-- Node6 -->
<g id="node6" class="node">
<title>Node6</title>
<g id="a_node6"><a xlink:href="classv8_1_1internal_1_1Smi.html#a9ae5e57f47d054b5636f7519a8c31898" target="_top" xlink:title=" ">
<polygon fill="white" stroke="black" points="387.5,-98.5 387.5,-128.5 490.5,-128.5 490.5,-98.5 387.5,-98.5"/>
<text text-anchor="start" x="395.5" y="-116.5" font-family="Helvetica,sans-Serif" font-size="10.00">v8::internal::Smi::</text>
<text text-anchor="middle" x="439" y="-105.5" font-family="Helvetica,sans-Serif" font-size="10.00">IsValid</text>
</a>
</g>
</g>
<!-- Node3&#45;&gt;Node6 -->
<g id="edge5" class="edge">
<title>Node3&#45;&gt;Node6</title>
<path fill="none" stroke="midnightblue" d="M299.65,-131.07C323.48,-128.04 352.1,-124.41 377.1,-121.23"/>
<polygon fill="midnightblue" stroke="midnightblue" points="377.73,-124.68 387.21,-119.95 376.85,-117.74 377.73,-124.68"/>
</g>
<!-- Node7 -->
<g id="node7" class="node">
<title>Node7</title>
<g id="a_node7"><a xlink:href="classv8_1_1internal_1_1Internals.html#a542b9a57155b448700a5ffd2007af909" target="_top" xlink:title=" ">
<polygon fill="white" stroke="red" points="542,-98.5 542,-128.5 663,-128.5 663,-98.5 542,-98.5"/>
<text text-anchor="start" x="550" y="-116.5" font-family="Helvetica,sans-Serif" font-size="10.00">v8::internal::Internals</text>
<text text-anchor="middle" x="602.5" y="-105.5" font-family="Helvetica,sans-Serif" font-size="10.00">::IsValidSmi</text>
</a>
</g>
</g>
<!-- Node6&#45;&gt;Node7 -->
<g id="edge6" class="edge">
<title>Node6&#45;&gt;Node7</title>
<path fill="none" stroke="midnightblue" d="M490.66,-113.5C503.76,-113.5 518.09,-113.5 531.97,-113.5"/>
<polygon fill="midnightblue" stroke="midnightblue" points="531.98,-117 541.98,-113.5 531.98,-110 531.98,-117"/>
</g>
<!-- Node14 -->
<g id="node9" class="node">
<title>Node14</title>
<g id="a_node9"><a xlink:href="classv8_1_1internal_1_1TaggedImpl.html#a5d84dde6d0c8149b4560d7c79cf8f1a3" target="_top" xlink:title=" ">
<polygon fill="white" stroke="black" points="372,-49.5 372,-79.5 506,-79.5 506,-49.5 372,-49.5"/>
<text text-anchor="start" x="380" y="-67.5" font-family="Helvetica,sans-Serif" font-size="10.00">v8::internal::TaggedImpl</text>
<text text-anchor="middle" x="439" y="-56.5" font-family="Helvetica,sans-Serif" font-size="10.00">::IsCleared</text>
</a>
</g>
</g>
<!-- Node13&#45;&gt;Node14 -->
<g id="edge8" class="edge">
<title>Node13&#45;&gt;Node14</title>
<path fill="none" stroke="midnightblue" d="M315.1,-64.5C330.21,-64.5 346.38,-64.5 361.87,-64.5"/>
<polygon fill="midnightblue" stroke="midnightblue" points="361.93,-68 371.93,-64.5 361.93,-61 361.93,-68"/>
</g>
<!-- Node15 -->
<g id="node10" class="node">
<title>Node15</title>
<g id="a_node10"><a xlink:href="classv8_1_1internal_1_1TaggedImpl.html#ad30270db72c80341abd40ca560eb3632" target="_top" xlink:title=" ">
<polygon fill="white" stroke="black" points="372,-0.5 372,-30.5 506,-30.5 506,-0.5 372,-0.5"/>
<text text-anchor="start" x="380" y="-18.5" font-family="Helvetica,sans-Serif" font-size="10.00">v8::internal::TaggedImpl</text>
<text text-anchor="middle" x="439" y="-7.5" font-family="Helvetica,sans-Serif" font-size="10.00">::IsWeakOrCleared</text>
</a>
</g>
</g>
<!-- Node13&#45;&gt;Node15 -->
<g id="edge9" class="edge">
<title>Node13&#45;&gt;Node15</title>
<path fill="none" stroke="midnightblue" d="M306.99,-49.47C327.04,-44.27 349.67,-38.4 370.42,-33.02"/>
<polygon fill="midnightblue" stroke="midnightblue" points="371.32,-36.4 380.12,-30.51 369.56,-29.63 371.32,-36.4"/>
</g>
</g>
</svg>
        <g id="navigator" transform="translate(0 0)" fill="#404254">
                <rect fill="#f2f5e9" fill-opacity="0.5" stroke="#606060" stroke-width=".5" x="0" y="0" width="60" height="60"/>
                <use id="zoomplus" xlink:href="#zoomPlus" x="17" y="9" onmousedown="handleZoom(evt,'in')"/>
                <use id="zoomminus" xlink:href="#zoomMin" x="42" y="9" onmousedown="handleZoom(evt,'out')"/>
                <use id="reset" xlink:href="#resetDef" x="30" y="36" onmousedown="handleReset()"/>
                <g id="arrowUp" xlink:href="#dirArrow" transform="translate(30 24)" onmousedown="handlePan(0,-1)">
                  <use xlink:href="#rim" fill="#404040">
                        <set attributeName="fill" to="#808080" begin="arrowUp.mouseover" end="arrowUp.mouseout"/>
                  </use>
                  <path fill="none" stroke="white" stroke-width="1.5" d="M0,-3.0v7 M-2.5,-0.5L0,-3.0L2.5,-0.5"/>
                </g>
                <g id="arrowRight" xlink:href="#dirArrow" transform="rotate(90) translate(36 -43)" onmousedown="handlePan(1,0)">
                  <use xlink:href="#rim" fill="#404040">
                        <set attributeName="fill" to="#808080" begin="arrowRight.mouseover" end="arrowRight.mouseout"/>
                  </use>
                  <path fill="none" stroke="white" stroke-width="1.5" d="M0,-3.0v7 M-2.5,-0.5L0,-3.0L2.5,-0.5"/>
                </g>
                <g id="arrowDown" xlink:href="#dirArrow" transform="rotate(180) translate(-30 -48)" onmousedown="handlePan(0,1)">
                  <use xlink:href="#rim" fill="#404040">
                        <set attributeName="fill" to="#808080" begin="arrowDown.mouseover" end="arrowDown.mouseout"/>
                  </use>
                  <path fill="none" stroke="white" stroke-width="1.5" d="M0,-3.0v7 M-2.5,-0.5L0,-3.0L2.5,-0.5"/>
                </g>
                <g id="arrowLeft" xlink:href="#dirArrow" transform="rotate(270) translate(-36 17)" onmousedown="handlePan(-1,0)">
                  <use xlink:href="#rim" fill="#404040">
                        <set attributeName="fill" to="#808080" begin="arrowLeft.mouseover" end="arrowLeft.mouseout"/>
                  </use>
                  <path fill="none" stroke="white" stroke-width="1.5" d="M0,-3.0v7 M-2.5,-0.5L0,-3.0L2.5,-0.5"/>
                </g>
        </g>
        <svg viewBox="0 0 15 15" width="100%" height="30px" preserveAspectRatio="xMaxYMin meet">
         <g id="arrow_out" transform="scale(0.3 0.3)">
          <a xlink:href="namespacev8_1_1internal_a9dd4cdb8054d62efa283a79727349fb4_cgraph_org.svg" target="_base">
           <rect id="button" ry="5" rx="5" y="6" x="6" height="38" width="38"
                fill="#f2f5e9" fill-opacity="0.5" stroke="#606060" stroke-width="1.0"/>
           <path id="arrow"
             d="M 11.500037,31.436501 C 11.940474,20.09759 22.043105,11.32322 32.158766,21.979434 L 37.068811,17.246167 C 37.068811,17.246167 37.088388,32 37.088388,32 L 22.160133,31.978069 C 22.160133,31.978069 26.997745,27.140456 26.997745,27.140456 C 18.528582,18.264221 13.291696,25.230495 11.500037,31.436501 z"
             style="fill:#404040;"/>
          </a>
         </g>
        </svg>
</svg>
