<?xml version="1.0" encoding="UTF-8" standalone="no"?>
<!DOCTYPE svg PUBLIC "-//W3C//DTD SVG 1.1//EN"
 "http://www.w3.org/Graphics/SVG/1.1/DTD/svg11.dtd">
<!-- Generated by graphviz version 2.43.0 (0)
 -->
<!-- Title: v8::base::hash_value Pages: 1 -->
<svg width="657pt" height="66pt"
 viewBox="0.00 0.00 657.00 66.00" xmlns="http://www.w3.org/2000/svg" xmlns:xlink="http://www.w3.org/1999/xlink">
<g id="graph0" class="graph" transform="scale(1 1) rotate(0) translate(4 62)">
<title>v8::base::hash_value</title>
<polygon fill="white" stroke="transparent" points="-4,4 -4,-62 653,-62 653,4 -4,4"/>
<!-- Node1 -->
<g id="node1" class="node">
<title>Node1</title>
<g id="a_node1"><a xlink:title=" ">
<polygon fill="#bfbfbf" stroke="black" points="0,-19.5 0,-38.5 119,-38.5 119,-19.5 0,-19.5"/>
<text text-anchor="middle" x="59.5" y="-26.5" font-family="Helvetica,sans-Serif" font-size="10.00">v8::base::hash_value</text>
</a>
</g>
</g>
<!-- Node2 -->
<g id="node2" class="node">
<title>Node2</title>
<g id="a_node2"><a xlink:href="namespacev8_1_1base.html#a013056e87f65d80ce65bfef1e04e4e83" target="_top" xlink:title=" ">
<polygon fill="white" stroke="black" points="155,-19.5 155,-38.5 301,-38.5 301,-19.5 155,-19.5"/>
<text text-anchor="middle" x="228" y="-26.5" font-family="Helvetica,sans-Serif" font-size="10.00">v8::base::hash_value_impl</text>
</a>
</g>
</g>
<!-- Node1&#45;&gt;Node2 -->
<g id="edge1" class="edge">
<title>Node1&#45;&gt;Node2</title>
<path fill="none" stroke="midnightblue" d="M119.2,-29C127.48,-29 136.11,-29 144.73,-29"/>
<polygon fill="midnightblue" stroke="midnightblue" points="144.82,-32.5 154.82,-29 144.82,-25.5 144.82,-32.5"/>
</g>
<!-- Node3 -->
<g id="node3" class="node">
<title>Node3</title>
<g id="a_node3"><a xlink:href="classv8_1_1base_1_1Hasher.html#ad772e1d428ce380d67f34747a20f9902" target="_top" xlink:title=" ">
<polygon fill="white" stroke="black" points="337,-19.5 337,-38.5 485,-38.5 485,-19.5 337,-19.5"/>
<text text-anchor="middle" x="411" y="-26.5" font-family="Helvetica,sans-Serif" font-size="10.00">v8::base::Hasher::Combine</text>
</a>
</g>
</g>
<!-- Node2&#45;&gt;Node3 -->
<g id="edge2" class="edge">
<title>Node2&#45;&gt;Node3</title>
<path fill="none" stroke="midnightblue" d="M301.06,-29C309.49,-29 318.14,-29 326.71,-29"/>
<polygon fill="midnightblue" stroke="midnightblue" points="326.71,-32.5 336.71,-29 326.71,-25.5 326.71,-32.5"/>
</g>
<!-- Node4 -->
<g id="node4" class="node">
<title>Node4</title>
<g id="a_node4"><a xlink:href="classv8_1_1base_1_1Hasher.html#aedf5304c50c581a24ce9a763147ae355" target="_top" xlink:title=" ">
<polygon fill="white" stroke="red" points="523.5,-38.5 523.5,-57.5 646.5,-57.5 646.5,-38.5 523.5,-38.5"/>
<text text-anchor="middle" x="585" y="-45.5" font-family="Helvetica,sans-Serif" font-size="10.00">v8::base::Hasher::Add</text>
</a>
</g>
</g>
<!-- Node3&#45;&gt;Node4 -->
<g id="edge3" class="edge">
<title>Node3&#45;&gt;Node4</title>
<path fill="none" stroke="midnightblue" d="M485.44,-37.11C494.76,-38.14 504.28,-39.19 513.56,-40.22"/>
<polygon fill="midnightblue" stroke="midnightblue" points="513.17,-43.7 523.5,-41.32 513.94,-36.74 513.17,-43.7"/>
</g>
<!-- Node8 -->
<g id="node5" class="node">
<title>Node8</title>
<g id="a_node5"><a xlink:href="classv8_1_1base_1_1Hasher.html#a70be1a634ad5c9c0d93ac9ead95ff163" target="_top" xlink:title=" ">
<polygon fill="white" stroke="black" points="521,-0.5 521,-19.5 649,-19.5 649,-0.5 521,-0.5"/>
<text text-anchor="middle" x="585" y="-7.5" font-family="Helvetica,sans-Serif" font-size="10.00">v8::base::Hasher::hash</text>
</a>
</g>
</g>
<!-- Node3&#45;&gt;Node8 -->
<g id="edge4" class="edge">
<title>Node3&#45;&gt;Node8</title>
<path fill="none" stroke="midnightblue" d="M485.44,-20.89C493.82,-19.96 502.35,-19.02 510.72,-18.09"/>
<polygon fill="midnightblue" stroke="midnightblue" points="511.28,-21.55 520.83,-16.98 510.51,-14.6 511.28,-21.55"/>
</g>
</g>
</svg>
