<?xml version="1.0" encoding="UTF-8" standalone="no"?>
<!DOCTYPE svg PUBLIC "-//W3C//DTD SVG 1.1//EN"
 "http://www.w3.org/Graphics/SVG/1.1/DTD/svg11.dtd">
<!-- Generated by graphviz version 2.43.0 (0)
 -->
<!-- Title: v8::internal::torque::PrintCommaSeparatedList Pages: 1 -->
<!--zoomable 380 -->
<svg id="main" version="1.1" xmlns="http://www.w3.org/2000/svg" xmlns:xlink="http://www.w3.org/1999/xlink" xml:space="preserve" onload="init(evt)">
<style type="text/css"><![CDATA[
.edge:hover path { stroke: red; }
.edge:hover polygon { stroke: red; fill: red; }
]]></style>
<script type="text/javascript"><![CDATA[
var edges = document.getElementsByTagName('g');
if (edges && edges.length) {
  for (var i=0;i<edges.length;i++) {
    if (edges[i].id.substr(0,4)=='edge') {
      edges[i].setAttribute('class','edge');
    }
  }
}
]]></script>
        <defs>
                <circle id="rim" cx="0" cy="0" r="7"/>
                <circle id="rim2" cx="0" cy="0" r="3.5"/>
                <g id="zoomPlus">
                        <use xlink:href="#rim" fill="#404040">
                                <set attributeName="fill" to="#808080" begin="zoomplus.mouseover" end="zoomplus.mouseout"/>
                        </use>
                        <path d="M-4,0h8M0,-4v8" fill="none" stroke="white" stroke-width="1.5" pointer-events="none"/>
                </g>
                <g id="zoomMin">
                        <use xlink:href="#rim" fill="#404040">
                                <set attributeName="fill" to="#808080" begin="zoomminus.mouseover" end="zoomminus.mouseout"/>
                        </use>
                        <path d="M-4,0h8" fill="none" stroke="white" stroke-width="1.5" pointer-events="none"/>
                </g>
                <g id="dirArrow">
                        <path fill="none" stroke="white" stroke-width="1.5" d="M0,-3.0v7 M-2.5,-0.5L0,-3.0L2.5,-0.5"/>
                </g>
               <g id="resetDef">
                       <use xlink:href="#rim2" fill="#404040">
                               <set attributeName="fill" to="#808080" begin="reset.mouseover" end="reset.mouseout"/>
                       </use>
               </g>
        </defs>

<script type="text/javascript">
var viewWidth = 773;
var viewHeight = 380;
var sectionId = 'dynsection-110';
</script>
<script xlink:href="svgpan.js"/>
<svg id="graph" class="graph">
<g id="viewport">
<title>v8::internal::torque::PrintCommaSeparatedList</title>
<polygon fill="white" stroke="transparent" points="-4,4 -4,-376 769,-376 769,4 -4,4"/>
<!-- Node1 -->
<g id="node1" class="node">
<title>Node1</title>
<g id="a_node1"><a xlink:title=" ">
<polygon fill="#bfbfbf" stroke="black" points="615,-137 615,-167 765,-167 765,-137 615,-137"/>
<text text-anchor="start" x="623" y="-155" font-family="Helvetica,sans-Serif" font-size="10.00">v8::internal::torque</text>
<text text-anchor="middle" x="690" y="-144" font-family="Helvetica,sans-Serif" font-size="10.00">::PrintCommaSeparatedList</text>
</a>
</g>
</g>
<!-- Node2 -->
<g id="node2" class="node">
<title>Node2</title>
<g id="a_node2"><a xlink:href="classv8_1_1internal_1_1torque_1_1CCGenerator.html#ad972bd1df69d9209016b66d2e75e29fa" target="_top" xlink:title=" ">
<polygon fill="white" stroke="black" points="408.5,-291 408.5,-321 562.5,-321 562.5,-291 408.5,-291"/>
<text text-anchor="start" x="416.5" y="-309" font-family="Helvetica,sans-Serif" font-size="10.00">v8::internal::torque</text>
<text text-anchor="middle" x="485.5" y="-298" font-family="Helvetica,sans-Serif" font-size="10.00">::CCGenerator::EmitCCValue</text>
</a>
</g>
</g>
<!-- Node1&#45;&gt;Node2 -->
<g id="edge1" class="edge">
<title>Node1&#45;&gt;Node2</title>
<path fill="none" stroke="midnightblue" d="M675.26,-175.88C657.05,-205.36 622.14,-254.88 579,-282 573.52,-285.44 567.57,-288.39 561.41,-290.92"/>
<polygon fill="midnightblue" stroke="midnightblue" points="678.4,-177.44 680.57,-167.07 672.41,-173.83 678.4,-177.44"/>
</g>
<!-- Node5 -->
<g id="node5" class="node">
<title>Node5</title>
<g id="a_node5"><a xlink:href="classv8_1_1internal_1_1torque_1_1ImplementationVisitor.html#a3b1e9eb7ee806b9e40bb2bd15b4c6930" target="_top" xlink:title=" ">
<polygon fill="white" stroke="black" points="400.5,-220 400.5,-272 570.5,-272 570.5,-220 400.5,-220"/>
<text text-anchor="start" x="408.5" y="-260" font-family="Helvetica,sans-Serif" font-size="10.00">v8::internal::torque</text>
<text text-anchor="start" x="408.5" y="-249" font-family="Helvetica,sans-Serif" font-size="10.00">::ImplementationVisitor</text>
<text text-anchor="start" x="408.5" y="-238" font-family="Helvetica,sans-Serif" font-size="10.00">::GenerateBuiltinDefinitionsAnd</text>
<text text-anchor="middle" x="485.5" y="-227" font-family="Helvetica,sans-Serif" font-size="10.00">InterfaceDescriptors</text>
</a>
</g>
</g>
<!-- Node1&#45;&gt;Node5 -->
<g id="edge4" class="edge">
<title>Node1&#45;&gt;Node5</title>
<path fill="none" stroke="midnightblue" d="M653.31,-172.14C632.04,-183.82 604.32,-198.44 579,-210 571.63,-213.36 563.85,-216.7 556.06,-219.92"/>
<polygon fill="midnightblue" stroke="midnightblue" points="655.25,-175.07 662.31,-167.17 651.86,-168.95 655.25,-175.07"/>
</g>
<!-- Node18 -->
<g id="node9" class="node">
<title>Node18</title>
<g id="a_node9"><a xlink:href="classv8_1_1internal_1_1torque_1_1ImplementationVisitor.html#a50e77674fc02e5b26b0b0a87d8cfe0e0" target="_top" xlink:title=" ">
<polygon fill="white" stroke="black" points="419.5,-159.5 419.5,-200.5 551.5,-200.5 551.5,-159.5 419.5,-159.5"/>
<text text-anchor="start" x="427.5" y="-188.5" font-family="Helvetica,sans-Serif" font-size="10.00">v8::internal::torque</text>
<text text-anchor="start" x="427.5" y="-177.5" font-family="Helvetica,sans-Serif" font-size="10.00">::ImplementationVisitor</text>
<text text-anchor="middle" x="485.5" y="-166.5" font-family="Helvetica,sans-Serif" font-size="10.00">::GenerateCSATypes</text>
</a>
</g>
</g>
<!-- Node1&#45;&gt;Node18 -->
<g id="edge8" class="edge">
<title>Node1&#45;&gt;Node18</title>
<path fill="none" stroke="midnightblue" d="M604.47,-163.69C586.84,-166.13 568.52,-168.66 551.72,-170.98"/>
<polygon fill="midnightblue" stroke="midnightblue" points="605.32,-167.1 614.75,-162.27 604.36,-160.17 605.32,-167.1"/>
</g>
<!-- Node19 -->
<g id="node10" class="node">
<title>Node19</title>
<g id="a_node10"><a xlink:href="namespacev8_1_1internal_1_1torque.html#a5618d0e48836f0b7e20ab761172d5f2a" target="_top" xlink:title=" ">
<polygon fill="white" stroke="black" points="430.5,-110 430.5,-140 540.5,-140 540.5,-110 430.5,-110"/>
<text text-anchor="start" x="438.5" y="-128" font-family="Helvetica,sans-Serif" font-size="10.00">v8::internal::torque</text>
<text text-anchor="middle" x="485.5" y="-117" font-family="Helvetica,sans-Serif" font-size="10.00">::operator&lt;&lt;</text>
</a>
</g>
</g>
<!-- Node1&#45;&gt;Node19 -->
<g id="edge10" class="edge">
<title>Node1&#45;&gt;Node19</title>
<path fill="none" stroke="midnightblue" d="M604.59,-140.75C583.01,-137.87 560.38,-134.85 540.77,-132.24"/>
<polygon fill="midnightblue" stroke="midnightblue" points="604.37,-144.25 614.75,-142.1 605.3,-137.31 604.37,-144.25"/>
</g>
<!-- Node20 -->
<g id="node11" class="node">
<title>Node20</title>
<g id="a_node11"><a xlink:href="classv8_1_1internal_1_1torque_1_1ControlFlowGraph.html#ab4df55a1e140465bc1edbf6697f56e79" target="_top" xlink:title=" ">
<polygon fill="white" stroke="black" points="392,-61 392,-91 579,-91 579,-61 392,-61"/>
<text text-anchor="start" x="400" y="-79" font-family="Helvetica,sans-Serif" font-size="10.00">v8::internal::torque</text>
<text text-anchor="middle" x="485.5" y="-68" font-family="Helvetica,sans-Serif" font-size="10.00">::ControlFlowGraph::SetReturnType</text>
</a>
</g>
</g>
<!-- Node1&#45;&gt;Node20 -->
<g id="edge11" class="edge">
<title>Node1&#45;&gt;Node20</title>
<path fill="none" stroke="midnightblue" d="M651.5,-132.12C630.58,-121.58 603.8,-108.99 579,-100 570.11,-96.78 560.59,-93.8 551.17,-91.12"/>
<polygon fill="midnightblue" stroke="midnightblue" points="650.18,-135.38 660.68,-136.8 653.36,-129.14 650.18,-135.38"/>
</g>
<!-- Node21 -->
<g id="node12" class="node">
<title>Node21</title>
<g id="a_node12"><a xlink:href="classv8_1_1internal_1_1torque_1_1BuiltinPointerType.html#a1fb3f42afbefc7229334911ecdd909d7" target="_top" xlink:title=" ">
<polygon fill="white" stroke="black" points="430,-0.5 430,-41.5 541,-41.5 541,-0.5 430,-0.5"/>
<text text-anchor="start" x="438" y="-29.5" font-family="Helvetica,sans-Serif" font-size="10.00">v8::internal::torque</text>
<text text-anchor="start" x="438" y="-18.5" font-family="Helvetica,sans-Serif" font-size="10.00">::BuiltinPointerType</text>
<text text-anchor="middle" x="485.5" y="-7.5" font-family="Helvetica,sans-Serif" font-size="10.00">::ToExplicitString</text>
</a>
</g>
</g>
<!-- Node1&#45;&gt;Node21 -->
<g id="edge12" class="edge">
<title>Node1&#45;&gt;Node21</title>
<path fill="none" stroke="midnightblue" d="M669.7,-129.29C649.27,-106.57 615.06,-72.04 579,-51 567.33,-44.19 553.93,-38.71 541,-34.39"/>
<polygon fill="midnightblue" stroke="midnightblue" points="667.09,-131.62 676.33,-136.8 672.33,-126.99 667.09,-131.62"/>
</g>
<!-- Node3 -->
<g id="node3" class="node">
<title>Node3</title>
<g id="a_node3"><a xlink:href="classv8_1_1internal_1_1torque_1_1CCGenerator.html#ad59f438d2b025a586ab9fff5a2143d36" target="_top" xlink:title=" ">
<polygon fill="white" stroke="black" points="174,-330.5 174,-371.5 356,-371.5 356,-330.5 174,-330.5"/>
<text text-anchor="start" x="182" y="-359.5" font-family="Helvetica,sans-Serif" font-size="10.00">v8::internal::torque</text>
<text text-anchor="start" x="182" y="-348.5" font-family="Helvetica,sans-Serif" font-size="10.00">::CCGenerator::ProcessArguments</text>
<text text-anchor="middle" x="265" y="-337.5" font-family="Helvetica,sans-Serif" font-size="10.00">Common</text>
</a>
</g>
</g>
<!-- Node2&#45;&gt;Node3 -->
<g id="edge2" class="edge">
<title>Node2&#45;&gt;Node3</title>
<path fill="none" stroke="midnightblue" d="M401.32,-323.13C386.53,-326.18 371.07,-329.36 356.1,-332.44"/>
<polygon fill="midnightblue" stroke="midnightblue" points="402.35,-326.49 411.44,-321.05 400.94,-319.64 402.35,-326.49"/>
</g>
<!-- Node4 -->
<g id="node4" class="node">
<title>Node4</title>
<g id="a_node4"><a xlink:href="classv8_1_1internal_1_1torque_1_1ImplementationVisitor.html#a031fd7ed27356a4eebf6c3bf6799a377" target="_top" xlink:title=" ">
<polygon fill="white" stroke="black" points="199,-270.5 199,-311.5 331,-311.5 331,-270.5 199,-270.5"/>
<text text-anchor="start" x="207" y="-299.5" font-family="Helvetica,sans-Serif" font-size="10.00">v8::internal::torque</text>
<text text-anchor="start" x="207" y="-288.5" font-family="Helvetica,sans-Serif" font-size="10.00">::ImplementationVisitor</text>
<text text-anchor="middle" x="265" y="-277.5" font-family="Helvetica,sans-Serif" font-size="10.00">::VisitMacroCommon</text>
</a>
</g>
</g>
<!-- Node2&#45;&gt;Node4 -->
<g id="edge3" class="edge">
<title>Node2&#45;&gt;Node4</title>
<path fill="none" stroke="midnightblue" d="M398.25,-300.08C375.96,-298.55 352.33,-296.93 331.31,-295.48"/>
<polygon fill="midnightblue" stroke="midnightblue" points="398.17,-303.58 408.39,-300.77 398.65,-296.6 398.17,-303.58"/>
</g>
<!-- Node6 -->
<g id="node6" class="node">
<title>Node6</title>
<g id="a_node6"><a xlink:href="namespacev8_1_1internal_1_1torque_1_1anonymous__namespace_02torque-compiler_8cc_03.html#a5096de5a399f4c41198fb0f1d90a647a" target="_top" xlink:title=" ">
<polygon fill="white" stroke="black" points="194.5,-184 194.5,-236 335.5,-236 335.5,-184 194.5,-184"/>
<text text-anchor="start" x="202.5" y="-224" font-family="Helvetica,sans-Serif" font-size="10.00">v8::internal::torque</text>
<text text-anchor="start" x="202.5" y="-213" font-family="Helvetica,sans-Serif" font-size="10.00">::anonymous_namespace</text>
<text text-anchor="start" x="202.5" y="-202" font-family="Helvetica,sans-Serif" font-size="10.00">{torque&#45;compiler::cc}</text>
<text text-anchor="middle" x="265" y="-191" font-family="Helvetica,sans-Serif" font-size="10.00">::CompileCurrentAst</text>
</a>
</g>
</g>
<!-- Node5&#45;&gt;Node6 -->
<g id="edge5" class="edge">
<title>Node5&#45;&gt;Node6</title>
<path fill="none" stroke="midnightblue" d="M390.22,-230.47C371.88,-227.44 352.96,-224.33 335.6,-221.47"/>
<polygon fill="midnightblue" stroke="midnightblue" points="389.9,-233.96 400.33,-232.13 391.04,-227.05 389.9,-233.96"/>
</g>
<!-- Node7 -->
<g id="node7" class="node">
<title>Node7</title>
<g id="a_node7"><a xlink:href="namespacev8_1_1internal_1_1torque.html#aca5a903612caba13aa2c27b1ba228cc6" target="_top" xlink:title=" ">
<polygon fill="white" stroke="red" points="14,-220 14,-250 124,-250 124,-220 14,-220"/>
<text text-anchor="start" x="22" y="-238" font-family="Helvetica,sans-Serif" font-size="10.00">v8::internal::torque</text>
<text text-anchor="middle" x="69" y="-227" font-family="Helvetica,sans-Serif" font-size="10.00">::CompileTorque</text>
</a>
</g>
</g>
<!-- Node6&#45;&gt;Node7 -->
<g id="edge6" class="edge">
<title>Node6&#45;&gt;Node7</title>
<path fill="none" stroke="midnightblue" d="M184.13,-220.29C163.98,-222.89 142.81,-225.62 124.26,-228.01"/>
<polygon fill="midnightblue" stroke="midnightblue" points="184.77,-223.74 194.24,-218.99 183.87,-216.8 184.77,-223.74"/>
</g>
<!-- Node17 -->
<g id="node8" class="node">
<title>Node17</title>
<g id="a_node8"><a xlink:href="namespacev8_1_1internal_1_1torque.html#ae766ddd8a84a198bc3d3cbf0f345d899" target="_top" xlink:title=" ">
<polygon fill="white" stroke="black" points="0,-171 0,-201 138,-201 138,-171 0,-171"/>
<text text-anchor="start" x="8" y="-189" font-family="Helvetica,sans-Serif" font-size="10.00">v8::internal::torque</text>
<text text-anchor="middle" x="69" y="-178" font-family="Helvetica,sans-Serif" font-size="10.00">::CompileTorqueForKythe</text>
</a>
</g>
</g>
<!-- Node6&#45;&gt;Node17 -->
<g id="edge7" class="edge">
<title>Node6&#45;&gt;Node17</title>
<path fill="none" stroke="midnightblue" d="M184.28,-200.14C168.97,-198.24 153.07,-196.28 138.17,-194.43"/>
<polygon fill="midnightblue" stroke="midnightblue" points="183.88,-203.62 194.24,-201.37 184.74,-196.67 183.88,-203.62"/>
</g>
<!-- Node18&#45;&gt;Node6 -->
<g id="edge9" class="edge">
<title>Node18&#45;&gt;Node6</title>
<path fill="none" stroke="midnightblue" d="M409.21,-190.34C385.42,-193.6 359.26,-197.2 335.87,-200.41"/>
<polygon fill="midnightblue" stroke="midnightblue" points="409.81,-193.79 419.24,-188.96 408.86,-186.85 409.81,-193.79"/>
</g>
</g>
</svg>
        <g id="navigator" transform="translate(0 0)" fill="#404254">
                <rect fill="#f2f5e9" fill-opacity="0.5" stroke="#606060" stroke-width=".5" x="0" y="0" width="60" height="60"/>
                <use id="zoomplus" xlink:href="#zoomPlus" x="17" y="9" onmousedown="handleZoom(evt,'in')"/>
                <use id="zoomminus" xlink:href="#zoomMin" x="42" y="9" onmousedown="handleZoom(evt,'out')"/>
                <use id="reset" xlink:href="#resetDef" x="30" y="36" onmousedown="handleReset()"/>
                <g id="arrowUp" xlink:href="#dirArrow" transform="translate(30 24)" onmousedown="handlePan(0,-1)">
                  <use xlink:href="#rim" fill="#404040">
                        <set attributeName="fill" to="#808080" begin="arrowUp.mouseover" end="arrowUp.mouseout"/>
                  </use>
                  <path fill="none" stroke="white" stroke-width="1.5" d="M0,-3.0v7 M-2.5,-0.5L0,-3.0L2.5,-0.5"/>
                </g>
                <g id="arrowRight" xlink:href="#dirArrow" transform="rotate(90) translate(36 -43)" onmousedown="handlePan(1,0)">
                  <use xlink:href="#rim" fill="#404040">
                        <set attributeName="fill" to="#808080" begin="arrowRight.mouseover" end="arrowRight.mouseout"/>
                  </use>
                  <path fill="none" stroke="white" stroke-width="1.5" d="M0,-3.0v7 M-2.5,-0.5L0,-3.0L2.5,-0.5"/>
                </g>
                <g id="arrowDown" xlink:href="#dirArrow" transform="rotate(180) translate(-30 -48)" onmousedown="handlePan(0,1)">
                  <use xlink:href="#rim" fill="#404040">
                        <set attributeName="fill" to="#808080" begin="arrowDown.mouseover" end="arrowDown.mouseout"/>
                  </use>
                  <path fill="none" stroke="white" stroke-width="1.5" d="M0,-3.0v7 M-2.5,-0.5L0,-3.0L2.5,-0.5"/>
                </g>
                <g id="arrowLeft" xlink:href="#dirArrow" transform="rotate(270) translate(-36 17)" onmousedown="handlePan(-1,0)">
                  <use xlink:href="#rim" fill="#404040">
                        <set attributeName="fill" to="#808080" begin="arrowLeft.mouseover" end="arrowLeft.mouseout"/>
                  </use>
                  <path fill="none" stroke="white" stroke-width="1.5" d="M0,-3.0v7 M-2.5,-0.5L0,-3.0L2.5,-0.5"/>
                </g>
        </g>
        <svg viewBox="0 0 15 15" width="100%" height="30px" preserveAspectRatio="xMaxYMin meet">
         <g id="arrow_out" transform="scale(0.3 0.3)">
          <a xlink:href="namespacev8_1_1internal_1_1torque_ad5acfd5ac61c35962e8d23aeaf195252_icgraph_org.svg" target="_base">
           <rect id="button" ry="5" rx="5" y="6" x="6" height="38" width="38"
                fill="#f2f5e9" fill-opacity="0.5" stroke="#606060" stroke-width="1.0"/>
           <path id="arrow"
             d="M 11.500037,31.436501 C 11.940474,20.09759 22.043105,11.32322 32.158766,21.979434 L 37.068811,17.246167 C 37.068811,17.246167 37.088388,32 37.088388,32 L 22.160133,31.978069 C 22.160133,31.978069 26.997745,27.140456 26.997745,27.140456 C 18.528582,18.264221 13.291696,25.230495 11.500037,31.436501 z"
             style="fill:#404040;"/>
          </a>
         </g>
        </svg>
</svg>
