<?xml version="1.0" encoding="UTF-8" standalone="no"?>
<!DOCTYPE svg PUBLIC "-//W3C//DTD SVG 1.1//EN"
 "http://www.w3.org/Graphics/SVG/1.1/DTD/svg11.dtd">
<!-- Generated by graphviz version 2.43.0 (0)
 -->
<!-- Title: v8::internal::anonymous_namespace{json&#45;stringifier::cc}::NeedsEscape Pages: 1 -->
<svg width="801pt" height="362pt"
 viewBox="0.00 0.00 801.00 361.50" xmlns="http://www.w3.org/2000/svg" xmlns:xlink="http://www.w3.org/1999/xlink">
<g id="graph0" class="graph" transform="scale(1 1) rotate(0) translate(4 357.5)">
<title>v8::internal::anonymous_namespace{json&#45;stringifier::cc}::NeedsEscape</title>
<polygon fill="white" stroke="transparent" points="-4,4 -4,-357.5 797,-357.5 797,4 -4,4"/>
<!-- Node1 -->
<g id="node1" class="node">
<title>Node1</title>
<g id="a_node1"><a xlink:title=" ">
<polygon fill="#bfbfbf" stroke="black" points="638,-145 638,-186 793,-186 793,-145 638,-145"/>
<text text-anchor="start" x="646" y="-174" font-family="Helvetica,sans-Serif" font-size="10.00">v8::internal::anonymous</text>
<text text-anchor="start" x="646" y="-163" font-family="Helvetica,sans-Serif" font-size="10.00">_namespace{json&#45;stringifier</text>
<text text-anchor="middle" x="715.5" y="-152" font-family="Helvetica,sans-Serif" font-size="10.00">::cc}::NeedsEscape</text>
</a>
</g>
</g>
<!-- Node2 -->
<g id="node2" class="node">
<title>Node2</title>
<g id="a_node2"><a xlink:href="namespacev8_1_1internal_1_1anonymous__namespace_02json-stringifier_8cc_03.html#a190a3c74ff07eb025a2a3706edb1879e" target="_top" xlink:title=" ">
<polygon fill="white" stroke="black" points="447,-145 447,-186 602,-186 602,-145 447,-145"/>
<text text-anchor="start" x="455" y="-174" font-family="Helvetica,sans-Serif" font-size="10.00">v8::internal::anonymous</text>
<text text-anchor="start" x="455" y="-163" font-family="Helvetica,sans-Serif" font-size="10.00">_namespace{json&#45;stringifier</text>
<text text-anchor="middle" x="524.5" y="-152" font-family="Helvetica,sans-Serif" font-size="10.00">::cc}::for</text>
</a>
</g>
</g>
<!-- Node1&#45;&gt;Node2 -->
<g id="edge1" class="edge">
<title>Node1&#45;&gt;Node2</title>
<path fill="none" stroke="midnightblue" d="M627.9,-165.5C619.33,-165.5 610.67,-165.5 602.21,-165.5"/>
<polygon fill="midnightblue" stroke="midnightblue" points="627.9,-169 637.9,-165.5 627.9,-162 627.9,-169"/>
</g>
<!-- Node3 -->
<g id="node3" class="node">
<title>Node3</title>
<g id="a_node3"><a xlink:href="classv8_1_1internal_1_1maglev_1_1MaglevGraphBuilder.html#a6ca6a8c4953ec14cc0f4d828d20e2a38" target="_top" xlink:title=" ">
<polygon fill="white" stroke="black" points="252.5,-312 252.5,-353 374.5,-353 374.5,-312 252.5,-312"/>
<text text-anchor="start" x="260.5" y="-341" font-family="Helvetica,sans-Serif" font-size="10.00">v8::internal::maglev</text>
<text text-anchor="start" x="260.5" y="-330" font-family="Helvetica,sans-Serif" font-size="10.00">::MaglevGraphBuilder</text>
<text text-anchor="middle" x="313.5" y="-319" font-family="Helvetica,sans-Serif" font-size="10.00">::AddNewCallNode</text>
</a>
</g>
</g>
<!-- Node2&#45;&gt;Node3 -->
<g id="edge2" class="edge">
<title>Node2&#45;&gt;Node3</title>
<path fill="none" stroke="midnightblue" d="M506.52,-195.04C487.2,-226.12 452.83,-274.35 411,-302.5 400.08,-309.85 387.28,-315.46 374.63,-319.73"/>
<polygon fill="midnightblue" stroke="midnightblue" points="509.58,-196.74 511.79,-186.38 503.6,-193.1 509.58,-196.74"/>
</g>
<!-- Node4 -->
<g id="node4" class="node">
<title>Node4</title>
<g id="a_node4"><a xlink:href="classv8_1_1internal_1_1compiler_1_1turboshaft_1_1TypeInferenceReducer.html#a7c9228be4dee248ee93d9483052e42cb" target="_top" xlink:title=" ">
<polygon fill="white" stroke="black" points="220.5,-252 220.5,-293 406.5,-293 406.5,-252 220.5,-252"/>
<text text-anchor="start" x="228.5" y="-281" font-family="Helvetica,sans-Serif" font-size="10.00">v8::internal::compiler</text>
<text text-anchor="start" x="228.5" y="-270" font-family="Helvetica,sans-Serif" font-size="10.00">::turboshaft::TypeInferenceReducer</text>
<text text-anchor="middle" x="313.5" y="-259" font-family="Helvetica,sans-Serif" font-size="10.00">::Analyze</text>
</a>
</g>
</g>
<!-- Node2&#45;&gt;Node4 -->
<g id="edge3" class="edge">
<title>Node2&#45;&gt;Node4</title>
<path fill="none" stroke="midnightblue" d="M489.88,-192.46C468.34,-208.71 439.21,-228.84 411,-242.5 403.89,-245.94 396.3,-249.1 388.62,-251.97"/>
<polygon fill="midnightblue" stroke="midnightblue" points="492.23,-195.07 498.05,-186.22 487.98,-189.51 492.23,-195.07"/>
</g>
<!-- Node5 -->
<g id="node5" class="node">
<title>Node5</title>
<g id="a_node5"><a xlink:href="classv8_1_1internal_1_1torque_1_1anonymous__namespace_02implementation-visitor_8cc_03_1_1CppClassGenerator.html#a61dad43694318bc1ddeb0991641296dc" target="_top" xlink:title=" ">
<polygon fill="white" stroke="black" points="243,-170 243,-233 384,-233 384,-170 243,-170"/>
<text text-anchor="start" x="251" y="-221" font-family="Helvetica,sans-Serif" font-size="10.00">v8::internal::torque</text>
<text text-anchor="start" x="251" y="-210" font-family="Helvetica,sans-Serif" font-size="10.00">::anonymous_namespace</text>
<text text-anchor="start" x="251" y="-199" font-family="Helvetica,sans-Serif" font-size="10.00">{implementation&#45;visitor</text>
<text text-anchor="start" x="251" y="-188" font-family="Helvetica,sans-Serif" font-size="10.00">::cc}::CppClassGenerator</text>
<text text-anchor="middle" x="313.5" y="-177" font-family="Helvetica,sans-Serif" font-size="10.00">::GenerateClass</text>
</a>
</g>
</g>
<!-- Node2&#45;&gt;Node5 -->
<g id="edge4" class="edge">
<title>Node2&#45;&gt;Node5</title>
<path fill="none" stroke="midnightblue" d="M436.66,-180.46C419.18,-183.47 401.01,-186.6 384.2,-189.49"/>
<polygon fill="midnightblue" stroke="midnightblue" points="437.6,-183.85 446.86,-178.7 436.41,-176.95 437.6,-183.85"/>
</g>
<!-- Node6 -->
<g id="node6" class="node">
<title>Node6</title>
<g id="a_node6"><a xlink:href="namespacev8_1_1internal_1_1compiler_1_1turboshaft.html#a28b1289d817686971a5959d3130bc0c9" target="_top" xlink:title=" ">
<polygon fill="white" stroke="black" points="238,-110 238,-151 389,-151 389,-110 238,-110"/>
<text text-anchor="start" x="246" y="-139" font-family="Helvetica,sans-Serif" font-size="10.00">v8::internal::compiler</text>
<text text-anchor="start" x="246" y="-128" font-family="Helvetica,sans-Serif" font-size="10.00">::turboshaft::PrintTurboshaft</text>
<text text-anchor="middle" x="313.5" y="-117" font-family="Helvetica,sans-Serif" font-size="10.00">GraphForTurbolizer</text>
</a>
</g>
</g>
<!-- Node2&#45;&gt;Node6 -->
<g id="edge5" class="edge">
<title>Node2&#45;&gt;Node6</title>
<path fill="none" stroke="midnightblue" d="M436.58,-150.94C420.78,-148.3 404.44,-145.56 389.04,-142.98"/>
<polygon fill="midnightblue" stroke="midnightblue" points="436.42,-154.47 446.86,-152.67 437.58,-147.56 436.42,-154.47"/>
</g>
<!-- Node16 -->
<g id="node9" class="node">
<title>Node16</title>
<g id="a_node9"><a xlink:href="classv8_1_1internal_1_1maglev_1_1MaglevInliner.html#a6f8e2e448c235af6bb6c0e902333fef4" target="_top" xlink:title=" ">
<polygon fill="white" stroke="black" points="216,-50 216,-91 411,-91 411,-50 216,-50"/>
<text text-anchor="start" x="224" y="-79" font-family="Helvetica,sans-Serif" font-size="10.00">v8::internal::maglev</text>
<text text-anchor="start" x="224" y="-68" font-family="Helvetica,sans-Serif" font-size="10.00">::MaglevInliner::RemovePredecessor</text>
<text text-anchor="middle" x="313.5" y="-57" font-family="Helvetica,sans-Serif" font-size="10.00">Following</text>
</a>
</g>
</g>
<!-- Node2&#45;&gt;Node16 -->
<g id="edge8" class="edge">
<title>Node2&#45;&gt;Node16</title>
<path fill="none" stroke="midnightblue" d="M483.37,-139.39C462.39,-126.5 435.95,-111.42 411,-100.5 403.29,-97.12 395.07,-93.96 386.82,-91.04"/>
<polygon fill="midnightblue" stroke="midnightblue" points="481.66,-142.45 492,-144.76 485.36,-136.51 481.66,-142.45"/>
</g>
<!-- Node17 -->
<g id="node10" class="node">
<title>Node17</title>
<g id="a_node10"><a xlink:href="classv8_1_1internal_1_1maglev_1_1Graph.html#aa58381ae1185262846f9033083ccaa34" target="_top" xlink:title=" ">
<polygon fill="white" stroke="black" points="217.5,-0.5 217.5,-30.5 409.5,-30.5 409.5,-0.5 217.5,-0.5"/>
<text text-anchor="start" x="225.5" y="-18.5" font-family="Helvetica,sans-Serif" font-size="10.00">v8::internal::maglev</text>
<text text-anchor="middle" x="313.5" y="-7.5" font-family="Helvetica,sans-Serif" font-size="10.00">::Graph::RemoveUnreachableBlocks</text>
</a>
</g>
</g>
<!-- Node2&#45;&gt;Node17 -->
<g id="edge9" class="edge">
<title>Node2&#45;&gt;Node17</title>
<path fill="none" stroke="midnightblue" d="M504.9,-136.4C485.06,-107.73 451.03,-64.81 411,-40.5 404.64,-36.64 397.69,-33.37 390.54,-30.6"/>
<polygon fill="midnightblue" stroke="midnightblue" points="502.09,-138.48 510.59,-144.8 507.88,-134.56 502.09,-138.48"/>
</g>
<!-- Node7 -->
<g id="node7" class="node">
<title>Node7</title>
<g id="a_node7"><a xlink:href="classv8_1_1internal_1_1compiler_1_1Pipeline.html#aa824adf8fa6083b778603fef0680b2d5" target="_top" xlink:title=" ">
<polygon fill="white" stroke="black" points="8.5,-137 8.5,-178 171.5,-178 171.5,-137 8.5,-137"/>
<text text-anchor="start" x="16.5" y="-166" font-family="Helvetica,sans-Serif" font-size="10.00">v8::internal::compiler</text>
<text text-anchor="start" x="16.5" y="-155" font-family="Helvetica,sans-Serif" font-size="10.00">::Pipeline::GenerateTurboshaft</text>
<text text-anchor="middle" x="90" y="-144" font-family="Helvetica,sans-Serif" font-size="10.00">CodeForTesting</text>
</a>
</g>
</g>
<!-- Node6&#45;&gt;Node7 -->
<g id="edge6" class="edge">
<title>Node6&#45;&gt;Node7</title>
<path fill="none" stroke="midnightblue" d="M227.74,-140.83C209.38,-143.07 190.01,-145.43 171.81,-147.65"/>
<polygon fill="midnightblue" stroke="midnightblue" points="228.32,-144.29 237.82,-139.6 227.47,-137.34 228.32,-144.29"/>
</g>
<!-- Node8 -->
<g id="node8" class="node">
<title>Node8</title>
<g id="a_node8"><a xlink:href="namespacev8_1_1internal_1_1compiler_1_1turboshaft.html#a1ed31275a7ca32878cc0a636155ff1cf" target="_top" xlink:title=" ">
<polygon fill="white" stroke="red" points="0,-87.5 0,-117.5 180,-117.5 180,-87.5 0,-87.5"/>
<text text-anchor="start" x="8" y="-105.5" font-family="Helvetica,sans-Serif" font-size="10.00">v8::internal::compiler</text>
<text text-anchor="middle" x="90" y="-94.5" font-family="Helvetica,sans-Serif" font-size="10.00">::turboshaft::PrintTurboshaftGraph</text>
</a>
</g>
</g>
<!-- Node6&#45;&gt;Node8 -->
<g id="edge7" class="edge">
<title>Node6&#45;&gt;Node8</title>
<path fill="none" stroke="midnightblue" d="M227.74,-119.78C212.21,-117.82 195.96,-115.77 180.31,-113.79"/>
<polygon fill="midnightblue" stroke="midnightblue" points="227.46,-123.28 237.82,-121.06 228.34,-116.33 227.46,-123.28"/>
</g>
</g>
</svg>
