<?xml version="1.0" encoding="UTF-8" standalone="no"?>
<!DOCTYPE svg PUBLIC "-//W3C//DTD SVG 1.1//EN"
 "http://www.w3.org/Graphics/SVG/1.1/DTD/svg11.dtd">
<!-- Generated by graphviz version 2.43.0 (0)
 -->
<!-- Title: v8::internal::compiler::SelectLoadOpcode Pages: 1 -->
<svg width="495pt" height="264pt"
 viewBox="0.00 0.00 495.00 263.50" xmlns="http://www.w3.org/2000/svg" xmlns:xlink="http://www.w3.org/1999/xlink">
<g id="graph0" class="graph" transform="scale(1 1) rotate(0) translate(4 259.5)">
<title>v8::internal::compiler::SelectLoadOpcode</title>
<polygon fill="white" stroke="transparent" points="-4,4 -4,-259.5 491,-259.5 491,4 -4,4"/>
<!-- Node1 -->
<g id="node1" class="node">
<title>Node1</title>
<g id="a_node1"><a xlink:title=" ">
<polygon fill="#bfbfbf" stroke="black" points="0,-110 0,-140 121,-140 121,-110 0,-110"/>
<text text-anchor="start" x="8" y="-128" font-family="Helvetica,sans-Serif" font-size="10.00">v8::internal::compiler</text>
<text text-anchor="middle" x="60.5" y="-117" font-family="Helvetica,sans-Serif" font-size="10.00">::SelectLoadOpcode</text>
</a>
</g>
</g>
<!-- Node2 -->
<g id="node2" class="node">
<title>Node2</title>
<g id="a_node2"><a xlink:href="classv8_1_1internal_1_1MachineType.html#a283845639a3662aa7aba4666b67eebbc" target="_top" xlink:title=" ">
<polygon fill="white" stroke="black" points="162,-225 162,-255 304,-255 304,-225 162,-225"/>
<text text-anchor="start" x="170" y="-243" font-family="Helvetica,sans-Serif" font-size="10.00">v8::internal::MachineType</text>
<text text-anchor="middle" x="233" y="-232" font-family="Helvetica,sans-Serif" font-size="10.00">::IsSigned</text>
</a>
</g>
</g>
<!-- Node1&#45;&gt;Node2 -->
<g id="edge1" class="edge">
<title>Node1&#45;&gt;Node2</title>
<path fill="none" stroke="midnightblue" d="M73.49,-140.08C90.2,-160.13 122.34,-195.43 157,-216 159.82,-217.67 162.77,-219.25 165.81,-220.72"/>
<polygon fill="midnightblue" stroke="midnightblue" points="164.54,-223.98 175.1,-224.85 167.38,-217.59 164.54,-223.98"/>
</g>
<!-- Node4 -->
<g id="node4" class="node">
<title>Node4</title>
<g id="a_node4"><a xlink:href="classv8_1_1internal_1_1CpuFeatures.html#a44305c4c7840c90b5cf4a0b6ebd791af" target="_top" xlink:title=" ">
<polygon fill="white" stroke="black" points="163.5,-176 163.5,-206 302.5,-206 302.5,-176 163.5,-176"/>
<text text-anchor="start" x="171.5" y="-194" font-family="Helvetica,sans-Serif" font-size="10.00">v8::internal::CpuFeatures</text>
<text text-anchor="middle" x="233" y="-183" font-family="Helvetica,sans-Serif" font-size="10.00">::IsSupported</text>
</a>
</g>
</g>
<!-- Node1&#45;&gt;Node4 -->
<g id="edge3" class="edge">
<title>Node1&#45;&gt;Node4</title>
<path fill="none" stroke="midnightblue" d="M94.81,-140.11C113.03,-148.17 136.09,-158.04 157,-166 162.89,-168.24 169.09,-170.49 175.28,-172.66"/>
<polygon fill="midnightblue" stroke="midnightblue" points="174.38,-176.05 184.98,-176 176.66,-169.43 174.38,-176.05"/>
</g>
<!-- Node5 -->
<g id="node5" class="node">
<title>Node5</title>
<g id="a_node5"><a xlink:href="flag-definitions_8h.html#adaf90f045d5cd2710edd625b8685472a" target="_top" xlink:title=" ">
<polygon fill="white" stroke="black" points="211,-137.5 211,-156.5 255,-156.5 255,-137.5 211,-137.5"/>
<text text-anchor="middle" x="233" y="-144.5" font-family="Helvetica,sans-Serif" font-size="10.00">mode</text>
</a>
</g>
</g>
<!-- Node1&#45;&gt;Node5 -->
<g id="edge4" class="edge">
<title>Node1&#45;&gt;Node5</title>
<path fill="none" stroke="midnightblue" d="M121.13,-132.69C147.87,-136.14 178.32,-140.07 200.53,-142.94"/>
<polygon fill="midnightblue" stroke="midnightblue" points="200.35,-146.45 210.72,-144.25 201.25,-139.5 200.35,-146.45"/>
</g>
<!-- Node6 -->
<g id="node6" class="node">
<title>Node6</title>
<g id="a_node6"><a xlink:href="classv8_1_1internal_1_1MachineType.html#a4270f8a7c5ea5a4abd4f28ee46271a3a" target="_top" xlink:title=" ">
<polygon fill="white" stroke="black" points="162,-88 162,-118 304,-118 304,-88 162,-88"/>
<text text-anchor="start" x="170" y="-106" font-family="Helvetica,sans-Serif" font-size="10.00">v8::internal::MachineType</text>
<text text-anchor="middle" x="233" y="-95" font-family="Helvetica,sans-Serif" font-size="10.00">::representation</text>
</a>
</g>
</g>
<!-- Node1&#45;&gt;Node6 -->
<g id="edge5" class="edge">
<title>Node1&#45;&gt;Node6</title>
<path fill="none" stroke="midnightblue" d="M121.13,-117.31C131,-116.03 141.37,-114.69 151.65,-113.37"/>
<polygon fill="midnightblue" stroke="midnightblue" points="152.4,-116.8 161.87,-112.05 151.5,-109.86 152.4,-116.8"/>
</g>
<!-- Node7 -->
<g id="node7" class="node">
<title>Node7</title>
<g id="a_node7"><a xlink:href="namespacev8_1_1internal_1_1compiler.html#af413822112d238aed70b6b1eee0feac7" target="_top" xlink:title=" ">
<polygon fill="white" stroke="black" points="172.5,-39 172.5,-69 293.5,-69 293.5,-39 172.5,-39"/>
<text text-anchor="start" x="180.5" y="-57" font-family="Helvetica,sans-Serif" font-size="10.00">v8::internal::compiler</text>
<text text-anchor="middle" x="233" y="-46" font-family="Helvetica,sans-Serif" font-size="10.00">::UNIMPLEMENTED</text>
</a>
</g>
</g>
<!-- Node1&#45;&gt;Node7 -->
<g id="edge6" class="edge">
<title>Node1&#45;&gt;Node7</title>
<path fill="none" stroke="midnightblue" d="M90.33,-109.93C109.05,-100.44 134.15,-88.27 157,-79 162.46,-76.79 168.2,-74.61 173.96,-72.53"/>
<polygon fill="midnightblue" stroke="midnightblue" points="175.39,-75.73 183.66,-69.11 173.06,-69.13 175.39,-75.73"/>
</g>
<!-- Node8 -->
<g id="node8" class="node">
<title>Node8</title>
<g id="a_node8"><a xlink:href="namespacev8_1_1internal.html#acdec713c25068019f935e35976f5b666" target="_top" xlink:title=" ">
<polygon fill="white" stroke="black" points="157,-0.5 157,-19.5 309,-19.5 309,-0.5 157,-0.5"/>
<text text-anchor="middle" x="233" y="-7.5" font-family="Helvetica,sans-Serif" font-size="10.00">v8::internal::UNREACHABLE</text>
</a>
</g>
</g>
<!-- Node1&#45;&gt;Node8 -->
<g id="edge7" class="edge">
<title>Node1&#45;&gt;Node8</title>
<path fill="none" stroke="midnightblue" d="M72.64,-109.69C88.84,-88.57 120.91,-50.74 157,-30 161.67,-27.31 166.72,-24.98 171.9,-22.95"/>
<polygon fill="midnightblue" stroke="midnightblue" points="173.07,-26.25 181.34,-19.62 170.74,-19.65 173.07,-26.25"/>
</g>
<!-- Node3 -->
<g id="node3" class="node">
<title>Node3</title>
<g id="a_node3"><a xlink:href="classv8_1_1internal_1_1MachineType.html#a1356e009d754622824b7b76a63f23688" target="_top" xlink:title=" ">
<polygon fill="white" stroke="black" points="345,-225 345,-255 487,-255 487,-225 345,-225"/>
<text text-anchor="start" x="353" y="-243" font-family="Helvetica,sans-Serif" font-size="10.00">v8::internal::MachineType</text>
<text text-anchor="middle" x="416" y="-232" font-family="Helvetica,sans-Serif" font-size="10.00">::semantic</text>
</a>
</g>
</g>
<!-- Node2&#45;&gt;Node3 -->
<g id="edge2" class="edge">
<title>Node2&#45;&gt;Node3</title>
<path fill="none" stroke="midnightblue" d="M304.24,-240C314.23,-240 324.56,-240 334.72,-240"/>
<polygon fill="midnightblue" stroke="midnightblue" points="334.8,-243.5 344.8,-240 334.8,-236.5 334.8,-243.5"/>
</g>
</g>
</svg>
