<?xml version="1.0" encoding="UTF-8" standalone="no"?>
<!DOCTYPE svg PUBLIC "-//W3C//DTD SVG 1.1//EN"
 "http://www.w3.org/Graphics/SVG/1.1/DTD/svg11.dtd">
<!-- Generated by graphviz version 2.43.0 (0)
 -->
<!-- Title: v8::internal::wasm::AddressTypeToStr Pages: 1 -->
<svg width="937pt" height="321pt"
 viewBox="0.00 0.00 937.00 321.00" xmlns="http://www.w3.org/2000/svg" xmlns:xlink="http://www.w3.org/1999/xlink">
<g id="graph0" class="graph" transform="scale(1 1) rotate(0) translate(4 317)">
<title>v8::internal::wasm::AddressTypeToStr</title>
<polygon fill="white" stroke="transparent" points="-4,4 -4,-317 933,-317 933,4 -4,4"/>
<!-- Node1 -->
<g id="node1" class="node">
<title>Node1</title>
<g id="a_node1"><a xlink:title=" ">
<polygon fill="#bfbfbf" stroke="black" points="821,-93 821,-123 929,-123 929,-93 821,-93"/>
<text text-anchor="start" x="829" y="-111" font-family="Helvetica,sans-Serif" font-size="10.00">v8::internal::wasm</text>
<text text-anchor="middle" x="875" y="-100" font-family="Helvetica,sans-Serif" font-size="10.00">::AddressTypeToStr</text>
</a>
</g>
</g>
<!-- Node2 -->
<g id="node2" class="node">
<title>Node2</title>
<g id="a_node2"><a xlink:href="namespacev8_1_1internal_1_1wasm.html#a0213728ccf8cd499ba36ff1be97269ba" target="_top" xlink:title=" ">
<polygon fill="white" stroke="black" points="660.5,-170 660.5,-200 767.5,-200 767.5,-170 660.5,-170"/>
<text text-anchor="start" x="668.5" y="-188" font-family="Helvetica,sans-Serif" font-size="10.00">v8::internal::wasm</text>
<text text-anchor="middle" x="714" y="-177" font-family="Helvetica,sans-Serif" font-size="10.00">::GetTypeForTable</text>
</a>
</g>
</g>
<!-- Node1&#45;&gt;Node2 -->
<g id="edge1" class="edge">
<title>Node1&#45;&gt;Node2</title>
<path fill="none" stroke="midnightblue" d="M842.88,-128.69C826.17,-139.24 804.96,-151.75 785,-161 778.12,-164.19 770.7,-167.18 763.34,-169.9"/>
<polygon fill="midnightblue" stroke="midnightblue" points="845.13,-131.41 851.66,-123.07 841.35,-125.52 845.13,-131.41"/>
</g>
<!-- Node18 -->
<g id="node10" class="node">
<title>Node18</title>
<g id="a_node10"><a xlink:href="namespacev8_1_1internal_1_1wasm.html#ab3b864dc99f161fea39d25bcd843fecc" target="_top" xlink:title=" ">
<polygon fill="white" stroke="black" points="660.5,-121 660.5,-151 767.5,-151 767.5,-121 660.5,-121"/>
<text text-anchor="start" x="668.5" y="-139" font-family="Helvetica,sans-Serif" font-size="10.00">v8::internal::wasm</text>
<text text-anchor="middle" x="714" y="-128" font-family="Helvetica,sans-Serif" font-size="10.00">::operator&lt;&lt;</text>
</a>
</g>
</g>
<!-- Node1&#45;&gt;Node18 -->
<g id="edge10" class="edge">
<title>Node1&#45;&gt;Node18</title>
<path fill="none" stroke="midnightblue" d="M810.44,-119.19C796.27,-121.69 781.39,-124.31 767.71,-126.72"/>
<polygon fill="midnightblue" stroke="midnightblue" points="811.37,-122.58 820.61,-117.4 810.16,-115.69 811.37,-122.58"/>
</g>
<!-- Node19 -->
<g id="node11" class="node">
<title>Node19</title>
<g id="a_node11"><a xlink:href="classv8_1_1internal_1_1wasm_1_1InstanceBuilder.html#a0c16bece87407beee6140ee5535bec4d" target="_top" xlink:title=" ">
<polygon fill="white" stroke="black" points="643,-60.5 643,-101.5 785,-101.5 785,-60.5 643,-60.5"/>
<text text-anchor="start" x="651" y="-89.5" font-family="Helvetica,sans-Serif" font-size="10.00">v8::internal::wasm</text>
<text text-anchor="start" x="651" y="-78.5" font-family="Helvetica,sans-Serif" font-size="10.00">::InstanceBuilder::Process</text>
<text text-anchor="middle" x="714" y="-67.5" font-family="Helvetica,sans-Serif" font-size="10.00">ImportedMemories</text>
</a>
</g>
</g>
<!-- Node1&#45;&gt;Node19 -->
<g id="edge11" class="edge">
<title>Node1&#45;&gt;Node19</title>
<path fill="none" stroke="midnightblue" d="M810.58,-97.23C802.23,-95.81 793.64,-94.35 785.19,-92.92"/>
<polygon fill="midnightblue" stroke="midnightblue" points="810.17,-100.71 820.61,-98.93 811.34,-93.81 810.17,-100.71"/>
</g>
<!-- Node29 -->
<g id="node14" class="node">
<title>Node29</title>
<g id="a_node14"><a xlink:href="classv8_1_1internal_1_1wasm_1_1InstanceBuilder.html#a99b1a438d60e812d57059be2103951cc" target="_top" xlink:title=" ">
<polygon fill="white" stroke="black" points="643,-0.5 643,-41.5 785,-41.5 785,-0.5 643,-0.5"/>
<text text-anchor="start" x="651" y="-29.5" font-family="Helvetica,sans-Serif" font-size="10.00">v8::internal::wasm</text>
<text text-anchor="start" x="651" y="-18.5" font-family="Helvetica,sans-Serif" font-size="10.00">::InstanceBuilder::Process</text>
<text text-anchor="middle" x="714" y="-7.5" font-family="Helvetica,sans-Serif" font-size="10.00">ImportedTable</text>
</a>
</g>
</g>
<!-- Node1&#45;&gt;Node29 -->
<g id="edge14" class="edge">
<title>Node1&#45;&gt;Node29</title>
<path fill="none" stroke="midnightblue" d="M844.27,-87.21C827.32,-75.81 805.43,-61.83 785,-51 778.92,-47.78 772.43,-44.63 765.94,-41.66"/>
<polygon fill="midnightblue" stroke="midnightblue" points="842.42,-90.19 852.66,-92.91 846.35,-84.4 842.42,-90.19"/>
</g>
<!-- Node3 -->
<g id="node3" class="node">
<title>Node3</title>
<g id="a_node3"><a xlink:href="namespacev8_1_1internal_1_1wasm.html#ac16bee88f353656d3809b61652c63a0f" target="_top" xlink:title=" ">
<polygon fill="white" stroke="black" points="449,-222 449,-252 556,-252 556,-222 449,-222"/>
<text text-anchor="start" x="457" y="-240" font-family="Helvetica,sans-Serif" font-size="10.00">v8::internal::wasm</text>
<text text-anchor="middle" x="502.5" y="-229" font-family="Helvetica,sans-Serif" font-size="10.00">::GetExports</text>
</a>
</g>
</g>
<!-- Node2&#45;&gt;Node3 -->
<g id="edge2" class="edge">
<title>Node2&#45;&gt;Node3</title>
<path fill="none" stroke="midnightblue" d="M650.44,-200.53C620.38,-207.99 584.76,-216.83 556.12,-223.94"/>
<polygon fill="midnightblue" stroke="midnightblue" points="651.54,-203.86 660.4,-198.05 649.86,-197.07 651.54,-203.86"/>
</g>
<!-- Node14 -->
<g id="node6" class="node">
<title>Node14</title>
<g id="a_node6"><a xlink:href="namespacev8_1_1internal_1_1wasm.html#a744e1f64a481e1651605a8de39aaa89d" target="_top" xlink:title=" ">
<polygon fill="white" stroke="black" points="449,-170 449,-200 556,-200 556,-170 449,-170"/>
<text text-anchor="start" x="457" y="-188" font-family="Helvetica,sans-Serif" font-size="10.00">v8::internal::wasm</text>
<text text-anchor="middle" x="502.5" y="-177" font-family="Helvetica,sans-Serif" font-size="10.00">::GetImports</text>
</a>
</g>
</g>
<!-- Node2&#45;&gt;Node14 -->
<g id="edge5" class="edge">
<title>Node2&#45;&gt;Node14</title>
<path fill="none" stroke="midnightblue" d="M650.05,-185C620.07,-185 584.64,-185 556.12,-185"/>
<polygon fill="midnightblue" stroke="midnightblue" points="650.4,-188.5 660.4,-185 650.4,-181.5 650.4,-188.5"/>
</g>
<!-- Node16 -->
<g id="node8" class="node">
<title>Node16</title>
<g id="a_node8"><a xlink:href="namespacev8_1_1anonymous__namespace_02wasm-js_8cc_03.html#acaccef9db6ddc927c8e58fb29de30502" target="_top" xlink:title=" ">
<polygon fill="white" stroke="black" points="398,-115 398,-145 607,-145 607,-115 398,-115"/>
<text text-anchor="start" x="406" y="-133" font-family="Helvetica,sans-Serif" font-size="10.00">v8::anonymous_namespace</text>
<text text-anchor="middle" x="502.5" y="-122" font-family="Helvetica,sans-Serif" font-size="10.00">{wasm&#45;js::cc}::WebAssemblyTableType</text>
</a>
</g>
</g>
<!-- Node2&#45;&gt;Node16 -->
<g id="edge8" class="edge">
<title>Node2&#45;&gt;Node16</title>
<path fill="none" stroke="midnightblue" d="M650.57,-168.61C622.14,-161.15 588.71,-152.37 560.91,-145.07"/>
<polygon fill="midnightblue" stroke="midnightblue" points="649.84,-172.04 660.4,-171.19 651.62,-165.27 649.84,-172.04"/>
</g>
<!-- Node4 -->
<g id="node4" class="node">
<title>Node4</title>
<g id="a_node4"><a xlink:href="namespacev8_1_1internal.html#a29896afe2091d3c1f80d1c3b057a1a5b" target="_top" xlink:title=" ">
<polygon fill="white" stroke="red" points="182,-222 182,-252 345,-252 345,-222 182,-222"/>
<text text-anchor="start" x="190" y="-240" font-family="Helvetica,sans-Serif" font-size="10.00">v8::internal::AddWasmModule</text>
<text text-anchor="middle" x="263.5" y="-229" font-family="Helvetica,sans-Serif" font-size="10.00">ObjectInternalProperties</text>
</a>
</g>
</g>
<!-- Node3&#45;&gt;Node4 -->
<g id="edge3" class="edge">
<title>Node3&#45;&gt;Node4</title>
<path fill="none" stroke="midnightblue" d="M438.64,-237C410.04,-237 375.85,-237 345.36,-237"/>
<polygon fill="midnightblue" stroke="midnightblue" points="438.9,-240.5 448.9,-237 438.9,-233.5 438.9,-240.5"/>
</g>
<!-- Node13 -->
<g id="node5" class="node">
<title>Node13</title>
<g id="a_node5"><a xlink:href="namespacev8_1_1anonymous__namespace_02wasm-js_8cc_03.html#aa5d34663209df90b28f9f17aaf6eda5b" target="_top" xlink:title=" ">
<polygon fill="white" stroke="black" points="165,-271.5 165,-312.5 362,-312.5 362,-271.5 165,-271.5"/>
<text text-anchor="start" x="173" y="-300.5" font-family="Helvetica,sans-Serif" font-size="10.00">v8::anonymous_namespace</text>
<text text-anchor="start" x="173" y="-289.5" font-family="Helvetica,sans-Serif" font-size="10.00">{wasm&#45;js::cc}::WebAssemblyModule</text>
<text text-anchor="middle" x="263.5" y="-278.5" font-family="Helvetica,sans-Serif" font-size="10.00">ExportsImpl</text>
</a>
</g>
</g>
<!-- Node3&#45;&gt;Node13 -->
<g id="edge4" class="edge">
<title>Node3&#45;&gt;Node13</title>
<path fill="none" stroke="midnightblue" d="M439.09,-251.48C412.84,-257.57 381.82,-264.77 353.27,-271.4"/>
<polygon fill="midnightblue" stroke="midnightblue" points="439.95,-254.88 448.9,-249.21 438.37,-248.06 439.95,-254.88"/>
</g>
<!-- Node14&#45;&gt;Node4 -->
<g id="edge6" class="edge">
<title>Node14&#45;&gt;Node4</title>
<path fill="none" stroke="midnightblue" d="M439.05,-198.7C406.49,-205.85 366.59,-214.6 333.16,-221.94"/>
<polygon fill="midnightblue" stroke="midnightblue" points="439.88,-202.1 448.9,-196.54 438.38,-195.26 439.88,-202.1"/>
</g>
<!-- Node15 -->
<g id="node7" class="node">
<title>Node15</title>
<g id="a_node7"><a xlink:href="namespacev8_1_1anonymous__namespace_02wasm-js_8cc_03.html#aa8666752c68eedb8e6137f879a6f2444" target="_top" xlink:title=" ">
<polygon fill="white" stroke="black" points="165,-161.5 165,-202.5 362,-202.5 362,-161.5 165,-161.5"/>
<text text-anchor="start" x="173" y="-190.5" font-family="Helvetica,sans-Serif" font-size="10.00">v8::anonymous_namespace</text>
<text text-anchor="start" x="173" y="-179.5" font-family="Helvetica,sans-Serif" font-size="10.00">{wasm&#45;js::cc}::WebAssemblyModule</text>
<text text-anchor="middle" x="263.5" y="-168.5" font-family="Helvetica,sans-Serif" font-size="10.00">ImportsImpl</text>
</a>
</g>
</g>
<!-- Node14&#45;&gt;Node15 -->
<g id="edge7" class="edge">
<title>Node14&#45;&gt;Node15</title>
<path fill="none" stroke="midnightblue" d="M438.76,-184.21C415.32,-183.91 388.1,-183.56 362.25,-183.24"/>
<polygon fill="midnightblue" stroke="midnightblue" points="438.86,-187.71 448.9,-184.33 438.95,-180.71 438.86,-187.71"/>
</g>
<!-- Node17 -->
<g id="node9" class="node">
<title>Node17</title>
<g id="a_node9"><a xlink:href="classv8_1_1internal_1_1WasmJs.html#a9d48e1db9cb027ddf92cd6dcfb0f7779" target="_top" xlink:title=" ">
<polygon fill="white" stroke="black" points="201.5,-112 201.5,-142 325.5,-142 325.5,-112 201.5,-112"/>
<text text-anchor="start" x="209.5" y="-130" font-family="Helvetica,sans-Serif" font-size="10.00">v8::internal::WasmJs</text>
<text text-anchor="middle" x="263.5" y="-119" font-family="Helvetica,sans-Serif" font-size="10.00">::InstallTypeReflection</text>
</a>
</g>
</g>
<!-- Node16&#45;&gt;Node17 -->
<g id="edge9" class="edge">
<title>Node16&#45;&gt;Node17</title>
<path fill="none" stroke="midnightblue" d="M387.74,-128.56C366.31,-128.29 344.68,-128.01 325.65,-127.77"/>
<polygon fill="midnightblue" stroke="midnightblue" points="387.85,-132.06 397.89,-128.69 387.94,-125.06 387.85,-132.06"/>
</g>
<!-- Node20 -->
<g id="node12" class="node">
<title>Node20</title>
<g id="a_node12"><a xlink:href="classv8_1_1internal_1_1wasm_1_1InstanceBuilder.html#a19ff41479bcf41dea4de46c20473b59b" target="_top" xlink:title=" ">
<polygon fill="white" stroke="black" points="199,-30.5 199,-71.5 328,-71.5 328,-30.5 199,-30.5"/>
<text text-anchor="start" x="207" y="-59.5" font-family="Helvetica,sans-Serif" font-size="10.00">v8::internal::wasm</text>
<text text-anchor="start" x="207" y="-48.5" font-family="Helvetica,sans-Serif" font-size="10.00">::InstanceBuilder::Build</text>
<text text-anchor="middle" x="263.5" y="-37.5" font-family="Helvetica,sans-Serif" font-size="10.00">_Phase1</text>
</a>
</g>
</g>
<!-- Node19&#45;&gt;Node20 -->
<g id="edge12" class="edge">
<title>Node19&#45;&gt;Node20</title>
<path fill="none" stroke="midnightblue" d="M632.82,-75.64C545.72,-69.81 408.35,-60.62 328.28,-55.27"/>
<polygon fill="midnightblue" stroke="midnightblue" points="632.71,-79.14 642.92,-76.31 633.18,-72.15 632.71,-79.14"/>
</g>
<!-- Node21 -->
<g id="node13" class="node">
<title>Node21</title>
<g id="a_node13"><a xlink:href="classv8_1_1internal_1_1wasm_1_1InstanceBuilder.html#a938db18c8e2421c00cc0d7f430d66d69" target="_top" xlink:title=" ">
<polygon fill="white" stroke="red" points="0,-36 0,-66 129,-66 129,-36 0,-36"/>
<text text-anchor="start" x="8" y="-54" font-family="Helvetica,sans-Serif" font-size="10.00">v8::internal::wasm</text>
<text text-anchor="middle" x="64.5" y="-43" font-family="Helvetica,sans-Serif" font-size="10.00">::InstanceBuilder::Build</text>
</a>
</g>
</g>
<!-- Node20&#45;&gt;Node21 -->
<g id="edge13" class="edge">
<title>Node20&#45;&gt;Node21</title>
<path fill="none" stroke="midnightblue" d="M188.74,-51C169.2,-51 148.27,-51 129.31,-51"/>
<polygon fill="midnightblue" stroke="midnightblue" points="188.81,-54.5 198.81,-51 188.81,-47.5 188.81,-54.5"/>
</g>
<!-- Node30 -->
<g id="node15" class="node">
<title>Node30</title>
<g id="a_node15"><a xlink:href="classv8_1_1internal_1_1wasm_1_1InstanceBuilder.html#a1dd661a91a2054913525990d4d6def25" target="_top" xlink:title=" ">
<polygon fill="white" stroke="black" points="431.5,-3.5 431.5,-44.5 573.5,-44.5 573.5,-3.5 431.5,-3.5"/>
<text text-anchor="start" x="439.5" y="-32.5" font-family="Helvetica,sans-Serif" font-size="10.00">v8::internal::wasm</text>
<text text-anchor="start" x="439.5" y="-21.5" font-family="Helvetica,sans-Serif" font-size="10.00">::InstanceBuilder::Process</text>
<text text-anchor="middle" x="502.5" y="-10.5" font-family="Helvetica,sans-Serif" font-size="10.00">Imports</text>
</a>
</g>
</g>
<!-- Node29&#45;&gt;Node30 -->
<g id="edge15" class="edge">
<title>Node29&#45;&gt;Node30</title>
<path fill="none" stroke="midnightblue" d="M632.9,-22.15C613.45,-22.43 592.8,-22.72 573.84,-22.99"/>
<polygon fill="midnightblue" stroke="midnightblue" points="633,-25.65 642.95,-22 632.9,-18.65 633,-25.65"/>
</g>
<!-- Node30&#45;&gt;Node20 -->
<g id="edge16" class="edge">
<title>Node30&#45;&gt;Node20</title>
<path fill="none" stroke="midnightblue" d="M421.2,-33.15C390.8,-36.61 356.65,-40.5 328,-43.77"/>
<polygon fill="midnightblue" stroke="midnightblue" points="421.81,-36.6 431.35,-31.99 421.02,-29.65 421.81,-36.6"/>
</g>
</g>
</svg>
