<?xml version="1.0" encoding="UTF-8" standalone="no"?>
<!DOCTYPE svg PUBLIC "-//W3C//DTD SVG 1.1//EN"
 "http://www.w3.org/Graphics/SVG/1.1/DTD/svg11.dtd">
<!-- Generated by graphviz version 2.43.0 (0)
 -->
<!-- Title: v8::internal::trap_handler::SetThreadInWasm Pages: 1 -->
<svg width="1098pt" height="403pt"
 viewBox="0.00 0.00 1098.00 403.29" xmlns="http://www.w3.org/2000/svg" xmlns:xlink="http://www.w3.org/1999/xlink">
<g id="graph0" class="graph" transform="scale(1 1) rotate(0) translate(4 399.29)">
<title>v8::internal::trap_handler::SetThreadInWasm</title>
<polygon fill="white" stroke="transparent" points="-4,4 -4,-399.29 1094,-399.29 1094,4 -4,4"/>
<!-- Node1 -->
<g id="node1" class="node">
<title>Node1</title>
<g id="a_node1"><a xlink:title=" ">
<polygon fill="#bfbfbf" stroke="black" points="937,-165 937,-195 1090,-195 1090,-165 937,-165"/>
<text text-anchor="start" x="945" y="-183" font-family="Helvetica,sans-Serif" font-size="10.00">v8::internal::trap</text>
<text text-anchor="middle" x="1013.5" y="-172" font-family="Helvetica,sans-Serif" font-size="10.00">_handler::SetThreadInWasm</text>
</a>
</g>
</g>
<!-- Node2 -->
<g id="node2" class="node">
<title>Node2</title>
<g id="a_node2"><a xlink:href="classv8_1_1internal_1_1wasm_1_1WasmInterpreterRuntime.html#aedacd13b9ba11c259ae044acf7171970" target="_top" xlink:title=" ">
<polygon fill="white" stroke="black" points="546,-239.5 546,-280.5 692,-280.5 692,-239.5 546,-239.5"/>
<text text-anchor="start" x="554" y="-268.5" font-family="Helvetica,sans-Serif" font-size="10.00">v8::internal::wasm</text>
<text text-anchor="start" x="554" y="-257.5" font-family="Helvetica,sans-Serif" font-size="10.00">::WasmInterpreterRuntime</text>
<text text-anchor="middle" x="619" y="-246.5" font-family="Helvetica,sans-Serif" font-size="10.00">::CallWasmToJSBuiltin</text>
</a>
</g>
</g>
<!-- Node1&#45;&gt;Node2 -->
<g id="edge1" class="edge">
<title>Node1&#45;&gt;Node2</title>
<path fill="none" stroke="midnightblue" d="M978.33,-200.07C956.86,-211.7 928.17,-225.49 901,-233 831.8,-252.13 749.78,-258.21 692.27,-259.91"/>
<polygon fill="midnightblue" stroke="midnightblue" points="980.3,-202.98 987.36,-195.08 976.91,-196.86 980.3,-202.98"/>
</g>
<!-- Node9 -->
<g id="node8" class="node">
<title>Node9</title>
<g id="a_node8"><a xlink:href="classv8_1_1internal_1_1Deoptimizer.html#a691d5a9c5e548c7e83e97489f5e43a8b" target="_top" xlink:title=" ">
<polygon fill="white" stroke="black" points="740,-193 740,-223 889,-223 889,-193 740,-193"/>
<text text-anchor="start" x="748" y="-211" font-family="Helvetica,sans-Serif" font-size="10.00">v8::internal::Deoptimizer</text>
<text text-anchor="middle" x="814.5" y="-200" font-family="Helvetica,sans-Serif" font-size="10.00">::DoComputeOutputFrames</text>
</a>
</g>
</g>
<!-- Node1&#45;&gt;Node9 -->
<g id="edge7" class="edge">
<title>Node1&#45;&gt;Node9</title>
<path fill="none" stroke="midnightblue" d="M926.92,-192.16C914.38,-193.95 901.55,-195.77 889.28,-197.51"/>
<polygon fill="midnightblue" stroke="midnightblue" points="927.49,-195.62 936.9,-190.75 926.51,-188.69 927.49,-195.62"/>
</g>
<!-- Node11 -->
<g id="node10" class="node">
<title>Node11</title>
<g id="a_node10"><a xlink:href="classv8_1_1internal_1_1wasm_1_1WasmInterpreterThread.html#a6be5b575a3f3621a4fc8f67f44ea448b" target="_top" xlink:title=" ">
<polygon fill="white" stroke="black" points="733,-294 733,-324 896,-324 896,-294 733,-294"/>
<text text-anchor="start" x="741" y="-312" font-family="Helvetica,sans-Serif" font-size="10.00">v8::internal::wasm</text>
<text text-anchor="middle" x="814.5" y="-301" font-family="Helvetica,sans-Serif" font-size="10.00">::WasmInterpreterThread::Run</text>
</a>
</g>
</g>
<!-- Node1&#45;&gt;Node11 -->
<g id="edge9" class="edge">
<title>Node1&#45;&gt;Node11</title>
<path fill="none" stroke="midnightblue" d="M988.3,-202.1C966.52,-221.3 933.09,-249.07 901,-269 885.82,-278.42 868.07,-287.07 852.69,-293.9"/>
<polygon fill="midnightblue" stroke="midnightblue" points="990.91,-204.47 996.05,-195.2 986.26,-199.24 990.91,-204.47"/>
</g>
<!-- Node12 -->
<g id="node11" class="node">
<title>Node12</title>
<g id="a_node11"><a xlink:href="classv8_1_1internal_1_1wasm_1_1InterpreterHandle.html#a625c4b79e94fcfcf3e75c35be5d7634e" target="_top" xlink:title=" ">
<polygon fill="white" stroke="black" points="758.5,-132.5 758.5,-173.5 870.5,-173.5 870.5,-132.5 758.5,-132.5"/>
<text text-anchor="start" x="766.5" y="-161.5" font-family="Helvetica,sans-Serif" font-size="10.00">v8::internal::wasm</text>
<text text-anchor="start" x="766.5" y="-150.5" font-family="Helvetica,sans-Serif" font-size="10.00">::InterpreterHandle</text>
<text text-anchor="middle" x="814.5" y="-139.5" font-family="Helvetica,sans-Serif" font-size="10.00">::RunExecutionLoop</text>
</a>
</g>
</g>
<!-- Node1&#45;&gt;Node12 -->
<g id="edge14" class="edge">
<title>Node1&#45;&gt;Node12</title>
<path fill="none" stroke="midnightblue" d="M926.74,-168.25C907.74,-165.64 888.1,-162.95 870.71,-160.57"/>
<polygon fill="midnightblue" stroke="midnightblue" points="926.52,-171.75 936.9,-169.64 927.47,-164.81 926.52,-171.75"/>
</g>
<!-- Node14 -->
<g id="node13" class="node">
<title>Node14</title>
<g id="a_node13"><a xlink:href="classv8_1_1internal_1_1anonymous__namespace_02runtime-wasm_8cc_03_1_1ClearThreadInWasmScope.html#a5ecf34d5aa26dd3cefc3e96a26b0fe88" target="_top" xlink:title=" ">
<polygon fill="white" stroke="black" points="728,-61 728,-113 901,-113 901,-61 728,-61"/>
<text text-anchor="start" x="736" y="-101" font-family="Helvetica,sans-Serif" font-size="10.00">v8::internal::anonymous</text>
<text text-anchor="start" x="736" y="-90" font-family="Helvetica,sans-Serif" font-size="10.00">_namespace{runtime&#45;wasm</text>
<text text-anchor="start" x="736" y="-79" font-family="Helvetica,sans-Serif" font-size="10.00">::cc}::ClearThreadInWasmScope</text>
<text text-anchor="middle" x="814.5" y="-68" font-family="Helvetica,sans-Serif" font-size="10.00">::~ClearThreadInWasmScope</text>
</a>
</g>
</g>
<!-- Node1&#45;&gt;Node14 -->
<g id="edge16" class="edge">
<title>Node1&#45;&gt;Node14</title>
<path fill="none" stroke="midnightblue" d="M975.26,-160.09C953.75,-148.81 926.07,-134.67 901,-123 893.84,-119.67 886.3,-116.3 878.77,-113.02"/>
<polygon fill="midnightblue" stroke="midnightblue" points="973.89,-163.33 984.37,-164.89 977.16,-157.13 973.89,-163.33"/>
</g>
<!-- Node15 -->
<g id="node14" class="node">
<title>Node15</title>
<g id="a_node14"><a xlink:href="classv8_1_1internal_1_1wasm_1_1ClearThreadInWasmScope.html#a811a4f18fbc81646e6cb2bf9dbd8f755" target="_top" xlink:title=" ">
<polygon fill="white" stroke="black" points="735.5,-0.5 735.5,-41.5 893.5,-41.5 893.5,-0.5 735.5,-0.5"/>
<text text-anchor="start" x="743.5" y="-29.5" font-family="Helvetica,sans-Serif" font-size="10.00">v8::internal::wasm</text>
<text text-anchor="start" x="743.5" y="-18.5" font-family="Helvetica,sans-Serif" font-size="10.00">::ClearThreadInWasmScope</text>
<text text-anchor="middle" x="814.5" y="-7.5" font-family="Helvetica,sans-Serif" font-size="10.00">::~ClearThreadInWasmScope</text>
</a>
</g>
</g>
<!-- Node1&#45;&gt;Node15 -->
<g id="edge17" class="edge">
<title>Node1&#45;&gt;Node15</title>
<path fill="none" stroke="midnightblue" d="M997.47,-155.97C978.34,-127.22 942.73,-79.41 901,-51 895.93,-47.55 890.42,-44.45 884.72,-41.68"/>
<polygon fill="midnightblue" stroke="midnightblue" points="994.7,-158.12 1003.09,-164.59 1000.56,-154.3 994.7,-158.12"/>
</g>
<!-- Node3 -->
<g id="node3" class="node">
<title>Node3</title>
<g id="a_node3"><a xlink:href="classv8_1_1internal_1_1wasm_1_1WasmInterpreterRuntime.html#a38a2c76c17ac9d7f689c9cf251449065" target="_top" xlink:title=" ">
<polygon fill="white" stroke="black" points="364,-239.5 364,-280.5 510,-280.5 510,-239.5 364,-239.5"/>
<text text-anchor="start" x="372" y="-268.5" font-family="Helvetica,sans-Serif" font-size="10.00">v8::internal::wasm</text>
<text text-anchor="start" x="372" y="-257.5" font-family="Helvetica,sans-Serif" font-size="10.00">::WasmInterpreterRuntime</text>
<text text-anchor="middle" x="437" y="-246.5" font-family="Helvetica,sans-Serif" font-size="10.00">::CallExternalJSFunction</text>
</a>
</g>
</g>
<!-- Node2&#45;&gt;Node3 -->
<g id="edge2" class="edge">
<title>Node2&#45;&gt;Node3</title>
<path fill="none" stroke="midnightblue" d="M535.56,-260C527.09,-260 518.54,-260 510.19,-260"/>
<polygon fill="midnightblue" stroke="midnightblue" points="535.82,-263.5 545.82,-260 535.82,-256.5 535.82,-263.5"/>
</g>
<!-- Node4 -->
<g id="node4" class="node">
<title>Node4</title>
<g id="a_node4"><a xlink:href="classv8_1_1internal_1_1wasm_1_1WasmInterpreterRuntime.html#a50728c1dfac9dc6213066b2b4a610a4c" target="_top" xlink:title=" ">
<polygon fill="white" stroke="black" points="182,-201.5 182,-242.5 328,-242.5 328,-201.5 182,-201.5"/>
<text text-anchor="start" x="190" y="-230.5" font-family="Helvetica,sans-Serif" font-size="10.00">v8::internal::wasm</text>
<text text-anchor="start" x="190" y="-219.5" font-family="Helvetica,sans-Serif" font-size="10.00">::WasmInterpreterRuntime</text>
<text text-anchor="middle" x="255" y="-208.5" font-family="Helvetica,sans-Serif" font-size="10.00">::CallImportedFunction</text>
</a>
</g>
</g>
<!-- Node3&#45;&gt;Node4 -->
<g id="edge3" class="edge">
<title>Node3&#45;&gt;Node4</title>
<path fill="none" stroke="midnightblue" d="M353.84,-242.66C345.28,-240.85 336.63,-239.02 328.19,-237.24"/>
<polygon fill="midnightblue" stroke="midnightblue" points="353.32,-246.12 363.82,-244.76 354.76,-239.27 353.32,-246.12"/>
</g>
<!-- Node7 -->
<g id="node6" class="node">
<title>Node7</title>
<g id="a_node6"><a xlink:href="classv8_1_1internal_1_1wasm_1_1WasmInterpreterRuntime.html#a8e135e94f6f95f9711f59bfc73b99749" target="_top" xlink:title=" ">
<polygon fill="white" stroke="black" points="182,-321.5 182,-362.5 328,-362.5 328,-321.5 182,-321.5"/>
<text text-anchor="start" x="190" y="-350.5" font-family="Helvetica,sans-Serif" font-size="10.00">v8::internal::wasm</text>
<text text-anchor="start" x="190" y="-339.5" font-family="Helvetica,sans-Serif" font-size="10.00">::WasmInterpreterRuntime</text>
<text text-anchor="middle" x="255" y="-328.5" font-family="Helvetica,sans-Serif" font-size="10.00">::ExecuteCallRef</text>
</a>
</g>
</g>
<!-- Node3&#45;&gt;Node7 -->
<g id="edge5" class="edge">
<title>Node3&#45;&gt;Node7</title>
<path fill="none" stroke="midnightblue" d="M385.52,-285C367.47,-293.75 346.92,-303.51 328,-312 321.08,-315.1 313.74,-318.29 306.5,-321.36"/>
<polygon fill="midnightblue" stroke="midnightblue" points="387.25,-288.05 394.7,-280.53 384.18,-281.76 387.25,-288.05"/>
</g>
<!-- Node8 -->
<g id="node7" class="node">
<title>Node8</title>
<g id="a_node7"><a xlink:href="classv8_1_1internal_1_1wasm_1_1WasmInterpreterRuntime.html#aafc7c05af4e0babbc1f4ff4676b65c31" target="_top" xlink:title=" ">
<polygon fill="white" stroke="black" points="182,-261.5 182,-302.5 328,-302.5 328,-261.5 182,-261.5"/>
<text text-anchor="start" x="190" y="-290.5" font-family="Helvetica,sans-Serif" font-size="10.00">v8::internal::wasm</text>
<text text-anchor="start" x="190" y="-279.5" font-family="Helvetica,sans-Serif" font-size="10.00">::WasmInterpreterRuntime</text>
<text text-anchor="middle" x="255" y="-268.5" font-family="Helvetica,sans-Serif" font-size="10.00">::ExecuteIndirectCall</text>
</a>
</g>
</g>
<!-- Node3&#45;&gt;Node8 -->
<g id="edge6" class="edge">
<title>Node3&#45;&gt;Node8</title>
<path fill="none" stroke="midnightblue" d="M353.84,-270.04C345.28,-271.09 336.63,-272.15 328.19,-273.18"/>
<polygon fill="midnightblue" stroke="midnightblue" points="354.32,-273.51 363.82,-268.82 353.47,-266.56 354.32,-273.51"/>
</g>
<!-- Node5 -->
<g id="node5" class="node">
<title>Node5</title>
<g id="a_node5"><a xlink:href="classv8_1_1internal_1_1wasm_1_1WasmInterpreterRuntime.html#a3ec631a1a2766ec2e26e02254eeabf47" target="_top" xlink:title=" ">
<polygon fill="white" stroke="red" points="0,-285.5 0,-326.5 146,-326.5 146,-285.5 0,-285.5"/>
<text text-anchor="start" x="8" y="-314.5" font-family="Helvetica,sans-Serif" font-size="10.00">v8::internal::wasm</text>
<text text-anchor="start" x="8" y="-303.5" font-family="Helvetica,sans-Serif" font-size="10.00">::WasmInterpreterRuntime</text>
<text text-anchor="middle" x="73" y="-292.5" font-family="Helvetica,sans-Serif" font-size="10.00">::ExecuteImportedFunction</text>
</a>
</g>
</g>
<!-- Node4&#45;&gt;Node5 -->
<g id="edge4" class="edge">
<title>Node4&#45;&gt;Node5</title>
<path fill="none" stroke="midnightblue" d="M193.95,-246.65C189.89,-248.43 185.88,-250.22 182,-252 159.03,-262.51 133.76,-275.09 113.44,-285.47"/>
<polygon fill="midnightblue" stroke="midnightblue" points="195.67,-249.73 203.45,-242.54 192.89,-243.3 195.67,-249.73"/>
</g>
<!-- Node10 -->
<g id="node9" class="node">
<title>Node10</title>
<g id="a_node9"><a xlink:href="classv8_1_1internal_1_1Deoptimizer.html#a27cf077b48bd6ef6ff9905b2ebccc6c1" target="_top" xlink:title=" ">
<polygon fill="white" stroke="black" points="550,-190 550,-220 688,-220 688,-190 550,-190"/>
<text text-anchor="start" x="558" y="-208" font-family="Helvetica,sans-Serif" font-size="10.00">v8::internal::Deoptimizer</text>
<text text-anchor="middle" x="619" y="-197" font-family="Helvetica,sans-Serif" font-size="10.00">::ComputeOutputFrames</text>
</a>
</g>
</g>
<!-- Node9&#45;&gt;Node10 -->
<g id="edge8" class="edge">
<title>Node9&#45;&gt;Node10</title>
<path fill="none" stroke="midnightblue" d="M729.75,-206.7C715.83,-206.49 701.56,-206.26 688.09,-206.06"/>
<polygon fill="midnightblue" stroke="midnightblue" points="729.74,-210.2 739.79,-206.86 729.85,-203.2 729.74,-210.2"/>
</g>
<!-- Node11&#45;&gt;Node2 -->
<g id="edge10" class="edge">
<title>Node11&#45;&gt;Node2</title>
<path fill="none" stroke="midnightblue" d="M744.33,-291.48C727.41,-287.2 709.27,-282.61 692.22,-278.29"/>
<polygon fill="midnightblue" stroke="midnightblue" points="743.58,-294.9 754.13,-293.97 745.29,-288.12 743.58,-294.9"/>
</g>
<!-- Node11&#45;&gt;Node5 -->
<g id="edge12" class="edge">
<title>Node11&#45;&gt;Node5</title>
<path fill="none" stroke="midnightblue" d="M760.9,-327.09C651.12,-362.09 390.48,-430.66 182,-372 150.69,-363.19 119.49,-342.51 98.73,-326.63"/>
<polygon fill="midnightblue" stroke="midnightblue" points="761.98,-330.42 770.43,-324.02 759.84,-323.76 761.98,-330.42"/>
</g>
<!-- Node11&#45;&gt;Node7 -->
<g id="edge11" class="edge">
<title>Node11&#45;&gt;Node7</title>
<path fill="none" stroke="midnightblue" d="M722.64,-314.38C612.58,-320.89 429.39,-331.74 328.38,-337.72"/>
<polygon fill="midnightblue" stroke="midnightblue" points="722.96,-317.87 732.73,-313.78 722.54,-310.88 722.96,-317.87"/>
</g>
<!-- Node11&#45;&gt;Node8 -->
<g id="edge13" class="edge">
<title>Node11&#45;&gt;Node8</title>
<path fill="none" stroke="midnightblue" d="M722.4,-306C631.57,-302.8 488.07,-297.22 364,-290 352.36,-289.32 340.03,-288.51 328.02,-287.65"/>
<polygon fill="midnightblue" stroke="midnightblue" points="722.55,-309.5 732.67,-306.36 722.8,-302.51 722.55,-309.5"/>
</g>
<!-- Node13 -->
<g id="node12" class="node">
<title>Node13</title>
<g id="a_node12"><a xlink:href="classv8_1_1internal_1_1wasm_1_1InterpreterHandle.html#a84470a28fd4ca1a6a3d027e34334f838" target="_top" xlink:title=" ">
<polygon fill="white" stroke="black" points="564.5,-129.5 564.5,-170.5 673.5,-170.5 673.5,-129.5 564.5,-129.5"/>
<text text-anchor="start" x="572.5" y="-158.5" font-family="Helvetica,sans-Serif" font-size="10.00">v8::internal::wasm</text>
<text text-anchor="start" x="572.5" y="-147.5" font-family="Helvetica,sans-Serif" font-size="10.00">::InterpreterHandle</text>
<text text-anchor="middle" x="619" y="-136.5" font-family="Helvetica,sans-Serif" font-size="10.00">::Execute</text>
</a>
</g>
</g>
<!-- Node12&#45;&gt;Node13 -->
<g id="edge15" class="edge">
<title>Node12&#45;&gt;Node13</title>
<path fill="none" stroke="midnightblue" d="M748.12,-151.99C723.87,-151.61 696.67,-151.19 673.59,-150.83"/>
<polygon fill="midnightblue" stroke="midnightblue" points="748.26,-155.49 758.31,-152.14 748.37,-148.49 748.26,-155.49"/>
</g>
</g>
</svg>
