<?xml version="1.0" encoding="UTF-8" standalone="no"?>
<!DOCTYPE svg PUBLIC "-//W3C//DTD SVG 1.1//EN"
 "http://www.w3.org/Graphics/SVG/1.1/DTD/svg11.dtd">
<!-- Generated by graphviz version 2.43.0 (0)
 -->
<!-- Title: v8::internal::compiler::anonymous_namespace{instruction&#45;selector&#45;loong64::cc}::VisitFloat64Compare Pages: 1 -->
<!--zoomable 644 -->
<svg id="main" version="1.1" xmlns="http://www.w3.org/2000/svg" xmlns:xlink="http://www.w3.org/1999/xlink" xml:space="preserve" onload="init(evt)">
<style type="text/css"><![CDATA[
.edge:hover path { stroke: red; }
.edge:hover polygon { stroke: red; fill: red; }
]]></style>
<script type="text/javascript"><![CDATA[
var edges = document.getElementsByTagName('g');
if (edges && edges.length) {
  for (var i=0;i<edges.length;i++) {
    if (edges[i].id.substr(0,4)=='edge') {
      edges[i].setAttribute('class','edge');
    }
  }
}
]]></script>
        <defs>
                <circle id="rim" cx="0" cy="0" r="7"/>
                <circle id="rim2" cx="0" cy="0" r="3.5"/>
                <g id="zoomPlus">
                        <use xlink:href="#rim" fill="#404040">
                                <set attributeName="fill" to="#808080" begin="zoomplus.mouseover" end="zoomplus.mouseout"/>
                        </use>
                        <path d="M-4,0h8M0,-4v8" fill="none" stroke="white" stroke-width="1.5" pointer-events="none"/>
                </g>
                <g id="zoomMin">
                        <use xlink:href="#rim" fill="#404040">
                                <set attributeName="fill" to="#808080" begin="zoomminus.mouseover" end="zoomminus.mouseout"/>
                        </use>
                        <path d="M-4,0h8" fill="none" stroke="white" stroke-width="1.5" pointer-events="none"/>
                </g>
                <g id="dirArrow">
                        <path fill="none" stroke="white" stroke-width="1.5" d="M0,-3.0v7 M-2.5,-0.5L0,-3.0L2.5,-0.5"/>
                </g>
               <g id="resetDef">
                       <use xlink:href="#rim2" fill="#404040">
                               <set attributeName="fill" to="#808080" begin="reset.mouseover" end="reset.mouseout"/>
                       </use>
               </g>
        </defs>

<script type="text/javascript">
var viewWidth = 1172;
var viewHeight = 644;
var sectionId = 'dynsection-10';
</script>
<script xlink:href="svgpan.js"/>
<svg id="graph" class="graph">
<g id="viewport">
<title>v8::internal::compiler::anonymous_namespace{instruction&#45;selector&#45;loong64::cc}::VisitFloat64Compare</title>
<polygon fill="white" stroke="transparent" points="-4,4 -4,-640.44 1168,-640.44 1168,4 -4,4"/>
<!-- Node1 -->
<g id="node1" class="node">
<title>Node1</title>
<g id="a_node1"><a xlink:title=" ">
<polygon fill="#bfbfbf" stroke="black" points="0,-370 0,-422 160,-422 160,-370 0,-370"/>
<text text-anchor="start" x="8" y="-410" font-family="Helvetica,sans-Serif" font-size="10.00">v8::internal::compiler</text>
<text text-anchor="start" x="8" y="-399" font-family="Helvetica,sans-Serif" font-size="10.00">::anonymous_namespace</text>
<text text-anchor="start" x="8" y="-388" font-family="Helvetica,sans-Serif" font-size="10.00">{instruction&#45;selector&#45;loong64</text>
<text text-anchor="middle" x="80" y="-377" font-family="Helvetica,sans-Serif" font-size="10.00">::cc}::VisitFloat64Compare</text>
</a>
</g>
</g>
<!-- Node2 -->
<g id="node2" class="node">
<title>Node2</title>
<g id="a_node2"><a xlink:href="namespacev8_1_1internal.html#aa6b3743bd5d773c552654f2a6c3efa4a" target="_top" xlink:title=" ">
<polygon fill="white" stroke="black" points="1044,-388.5 1044,-407.5 1163,-407.5 1163,-388.5 1044,-388.5"/>
<text text-anchor="middle" x="1103.5" y="-395.5" font-family="Helvetica,sans-Serif" font-size="10.00">v8::internal::DCHECK</text>
</a>
</g>
</g>
<!-- Node1&#45;&gt;Node2 -->
<g id="edge1" class="edge">
<title>Node1&#45;&gt;Node2</title>
<path fill="none" stroke="midnightblue" d="M91.93,-422.07C108.69,-458.7 144.33,-524.75 196,-559 317.01,-639.22 370.32,-627 515.5,-627 515.5,-627 515.5,-627 731.5,-627 854.93,-627 906.53,-663.7 1007,-592 1067.05,-549.14 1091.18,-457.76 1099.15,-417.61"/>
<polygon fill="midnightblue" stroke="midnightblue" points="1102.61,-418.2 1100.99,-407.73 1095.72,-416.92 1102.61,-418.2"/>
</g>
<!-- Node3 -->
<g id="node3" class="node">
<title>Node3</title>
<g id="a_node3"><a xlink:href="classv8_1_1internal_1_1compiler_1_1turboshaft_1_1OperationMatcher.html#a7ba25c758c023db929b672a572e8b42c" target="_top" xlink:title=" ">
<polygon fill="white" stroke="black" points="196,-519 196,-549 385,-549 385,-519 196,-519"/>
<text text-anchor="start" x="204" y="-537" font-family="Helvetica,sans-Serif" font-size="10.00">v8::internal::compiler</text>
<text text-anchor="middle" x="290.5" y="-526" font-family="Helvetica,sans-Serif" font-size="10.00">::turboshaft::OperationMatcher::Get</text>
</a>
</g>
</g>
<!-- Node1&#45;&gt;Node3 -->
<g id="edge2" class="edge">
<title>Node1&#45;&gt;Node3</title>
<path fill="none" stroke="midnightblue" d="M100.98,-422.38C121.91,-448.2 157.11,-486.79 196,-509 199.88,-511.22 203.96,-513.24 208.17,-515.09"/>
<polygon fill="midnightblue" stroke="midnightblue" points="206.94,-518.37 217.52,-518.87 209.56,-511.88 206.94,-518.37"/>
</g>
<!-- Node4 -->
<g id="node4" class="node">
<title>Node4</title>
<g id="a_node4"><a xlink:href="structv8_1_1internal_1_1compiler_1_1turboshaft_1_1Operation.html#a683af3575850edd69fd9e11de83be831" target="_top" xlink:title=" ">
<polygon fill="white" stroke="black" points="227.5,-458.5 227.5,-499.5 353.5,-499.5 353.5,-458.5 227.5,-458.5"/>
<text text-anchor="start" x="235.5" y="-487.5" font-family="Helvetica,sans-Serif" font-size="10.00">v8::internal::compiler</text>
<text text-anchor="start" x="235.5" y="-476.5" font-family="Helvetica,sans-Serif" font-size="10.00">::turboshaft::Operation</text>
<text text-anchor="middle" x="290.5" y="-465.5" font-family="Helvetica,sans-Serif" font-size="10.00">::input</text>
</a>
</g>
</g>
<!-- Node1&#45;&gt;Node4 -->
<g id="edge3" class="edge">
<title>Node1&#45;&gt;Node4</title>
<path fill="none" stroke="midnightblue" d="M133.96,-422.04C153.26,-431.1 175.41,-440.99 196,-449 202.88,-451.68 210.11,-454.31 217.37,-456.83"/>
<polygon fill="midnightblue" stroke="midnightblue" points="216.67,-460.29 227.27,-460.2 218.93,-453.66 216.67,-460.29"/>
</g>
<!-- Node5 -->
<g id="node5" class="node">
<title>Node5</title>
<g id="a_node5"><a xlink:href="structv8_1_1internal_1_1compiler_1_1turboshaft_1_1Operation.html#ae7dbf3f46b9eb4c75d7f5b63649cc5c8" target="_top" xlink:title=" ">
<polygon fill="white" stroke="black" points="220.5,-409 220.5,-439 360.5,-439 360.5,-409 220.5,-409"/>
<text text-anchor="start" x="228.5" y="-427" font-family="Helvetica,sans-Serif" font-size="10.00">v8::internal::compiler</text>
<text text-anchor="middle" x="290.5" y="-416" font-family="Helvetica,sans-Serif" font-size="10.00">::turboshaft::Operation::Is</text>
</a>
</g>
</g>
<!-- Node1&#45;&gt;Node5 -->
<g id="edge4" class="edge">
<title>Node1&#45;&gt;Node5</title>
<path fill="none" stroke="midnightblue" d="M160.12,-406.63C176.53,-408.83 193.82,-411.15 210.24,-413.36"/>
<polygon fill="midnightblue" stroke="midnightblue" points="209.95,-416.85 220.33,-414.71 210.88,-409.91 209.95,-416.85"/>
</g>
<!-- Node6 -->
<g id="node6" class="node">
<title>Node6</title>
<g id="a_node6"><a xlink:href="classv8_1_1internal_1_1compiler_1_1turboshaft_1_1OperationMatcher.html#a449b5beee8756d9a634a357e018c865c" target="_top" xlink:title=" ">
<polygon fill="white" stroke="black" points="207.5,-348.5 207.5,-389.5 373.5,-389.5 373.5,-348.5 207.5,-348.5"/>
<text text-anchor="start" x="215.5" y="-377.5" font-family="Helvetica,sans-Serif" font-size="10.00">v8::internal::compiler</text>
<text text-anchor="start" x="215.5" y="-366.5" font-family="Helvetica,sans-Serif" font-size="10.00">::turboshaft::OperationMatcher</text>
<text text-anchor="middle" x="290.5" y="-355.5" font-family="Helvetica,sans-Serif" font-size="10.00">::MatchZero</text>
</a>
</g>
</g>
<!-- Node1&#45;&gt;Node6 -->
<g id="edge5" class="edge">
<title>Node1&#45;&gt;Node6</title>
<path fill="none" stroke="midnightblue" d="M160.12,-385.75C172.18,-384.19 184.72,-382.57 197.03,-380.97"/>
<polygon fill="midnightblue" stroke="midnightblue" points="197.84,-384.4 207.31,-379.64 196.94,-377.46 197.84,-384.4"/>
</g>
<!-- Node17 -->
<g id="node17" class="node">
<title>Node17</title>
<g id="a_node17"><a xlink:href="classv8_1_1internal_1_1compiler_1_1OperandGenerator.html#aa6e6cb50967ccdb8d19c7ff4008d072f" target="_top" xlink:title=" ">
<polygon fill="white" stroke="black" points="421,-190 421,-220 612,-220 612,-190 421,-190"/>
<text text-anchor="start" x="429" y="-208" font-family="Helvetica,sans-Serif" font-size="10.00">v8::internal::compiler</text>
<text text-anchor="middle" x="516.5" y="-197" font-family="Helvetica,sans-Serif" font-size="10.00">::OperandGenerator::UseImmediate</text>
</a>
</g>
</g>
<!-- Node1&#45;&gt;Node17 -->
<g id="edge17" class="edge">
<title>Node1&#45;&gt;Node17</title>
<path fill="none" stroke="midnightblue" d="M127,-369.87C191.18,-334.29 311.98,-270.4 421,-230 427.78,-227.49 434.93,-225.12 442.12,-222.91"/>
<polygon fill="midnightblue" stroke="midnightblue" points="443.34,-226.2 451.94,-220.01 441.36,-219.49 443.34,-226.2"/>
</g>
<!-- Node32 -->
<g id="node30" class="node">
<title>Node32</title>
<g id="a_node30"><a xlink:href="classv8_1_1internal_1_1compiler_1_1OperandGenerator.html#a5ab98978746cb4c2326a666a3bcfd677" target="_top" xlink:title=" ">
<polygon fill="white" stroke="black" points="201.5,-31 201.5,-61 379.5,-61 379.5,-31 201.5,-31"/>
<text text-anchor="start" x="209.5" y="-49" font-family="Helvetica,sans-Serif" font-size="10.00">v8::internal::compiler</text>
<text text-anchor="middle" x="290.5" y="-38" font-family="Helvetica,sans-Serif" font-size="10.00">::OperandGenerator::UseRegister</text>
</a>
</g>
</g>
<!-- Node1&#45;&gt;Node32 -->
<g id="edge35" class="edge">
<title>Node1&#45;&gt;Node32</title>
<path fill="none" stroke="midnightblue" d="M88.35,-369.67C103.1,-319.79 139.81,-209.51 196,-131 213.84,-106.07 240.07,-83.03 260.21,-67.24"/>
<polygon fill="midnightblue" stroke="midnightblue" points="262.35,-70.01 268.15,-61.15 258.08,-64.46 262.35,-70.01"/>
</g>
<!-- Node42 -->
<g id="node34" class="node">
<title>Node42</title>
<g id="a_node34"><a xlink:href="namespacev8_1_1internal_1_1compiler.html#a832fe69de45d70b8c4d01b8ebc2f7877" target="_top" xlink:title=" ">
<polygon fill="white" stroke="black" points="230,-141 230,-171 351,-171 351,-141 230,-141"/>
<text text-anchor="start" x="238" y="-159" font-family="Helvetica,sans-Serif" font-size="10.00">v8::internal::compiler</text>
<text text-anchor="middle" x="290.5" y="-148" font-family="Helvetica,sans-Serif" font-size="10.00">::VisitCompare</text>
</a>
</g>
</g>
<!-- Node1&#45;&gt;Node42 -->
<g id="edge42" class="edge">
<title>Node1&#45;&gt;Node42</title>
<path fill="none" stroke="midnightblue" d="M99.74,-369.77C121.72,-339.52 159.77,-288.72 196,-248 218.35,-222.88 246.02,-196.13 265.44,-177.99"/>
<polygon fill="midnightblue" stroke="midnightblue" points="268.02,-180.37 272.97,-171.01 263.25,-175.24 268.02,-180.37"/>
</g>
<!-- Node7 -->
<g id="node7" class="node">
<title>Node7</title>
<g id="a_node7"><a xlink:href="structv8_1_1internal_1_1compiler_1_1turboshaft_1_1ConstantOp.html#a2e84a798da862bf53f568ae45dd22338" target="_top" xlink:title=" ">
<polygon fill="white" stroke="black" points="449,-348.5 449,-389.5 584,-389.5 584,-348.5 449,-348.5"/>
<text text-anchor="start" x="457" y="-377.5" font-family="Helvetica,sans-Serif" font-size="10.00">v8::internal::compiler</text>
<text text-anchor="start" x="457" y="-366.5" font-family="Helvetica,sans-Serif" font-size="10.00">::turboshaft::ConstantOp</text>
<text text-anchor="middle" x="516.5" y="-355.5" font-family="Helvetica,sans-Serif" font-size="10.00">::float32</text>
</a>
</g>
</g>
<!-- Node6&#45;&gt;Node7 -->
<g id="edge6" class="edge">
<title>Node6&#45;&gt;Node7</title>
<path fill="none" stroke="midnightblue" d="M373.64,-369C394.88,-369 417.68,-369 438.64,-369"/>
<polygon fill="midnightblue" stroke="midnightblue" points="438.77,-372.5 448.77,-369 438.77,-365.5 438.77,-372.5"/>
</g>
<!-- Node8 -->
<g id="node8" class="node">
<title>Node8</title>
<g id="a_node8"><a xlink:href="structv8_1_1internal_1_1compiler_1_1turboshaft_1_1ConstantOp.html#a196e137a3c6b4799366cb5e74ab63e74" target="_top" xlink:title=" ">
<polygon fill="white" stroke="black" points="449,-288.5 449,-329.5 584,-329.5 584,-288.5 449,-288.5"/>
<text text-anchor="start" x="457" y="-317.5" font-family="Helvetica,sans-Serif" font-size="10.00">v8::internal::compiler</text>
<text text-anchor="start" x="457" y="-306.5" font-family="Helvetica,sans-Serif" font-size="10.00">::turboshaft::ConstantOp</text>
<text text-anchor="middle" x="516.5" y="-295.5" font-family="Helvetica,sans-Serif" font-size="10.00">::float64</text>
</a>
</g>
</g>
<!-- Node6&#45;&gt;Node8 -->
<g id="edge7" class="edge">
<title>Node6&#45;&gt;Node8</title>
<path fill="none" stroke="midnightblue" d="M368.27,-348.44C391.21,-342.29 416.35,-335.56 439.25,-329.42"/>
<polygon fill="midnightblue" stroke="midnightblue" points="440.17,-332.8 448.92,-326.83 438.35,-326.04 440.17,-332.8"/>
</g>
<!-- Node9 -->
<g id="node9" class="node">
<title>Node9</title>
<g id="a_node9"><a xlink:href="classv8_1_1internal_1_1Float32.html#a8629da6389b8e7c3bc690fd4fec783b1" target="_top" xlink:title=" ">
<polygon fill="white" stroke="black" points="459,-239 459,-269 574,-269 574,-239 459,-239"/>
<text text-anchor="start" x="467" y="-257" font-family="Helvetica,sans-Serif" font-size="10.00">v8::internal::Float32</text>
<text text-anchor="middle" x="516.5" y="-246" font-family="Helvetica,sans-Serif" font-size="10.00">::get_scalar</text>
</a>
</g>
</g>
<!-- Node6&#45;&gt;Node9 -->
<g id="edge8" class="edge">
<title>Node6&#45;&gt;Node9</title>
<path fill="none" stroke="midnightblue" d="M315.7,-348.28C340.59,-327.94 381.24,-297.38 421,-279 429.9,-274.89 439.59,-271.36 449.26,-268.36"/>
<polygon fill="midnightblue" stroke="midnightblue" points="450.29,-271.7 458.9,-265.53 448.32,-264.99 450.29,-271.7"/>
</g>
<!-- Node10 -->
<g id="node10" class="node">
<title>Node10</title>
<g id="a_node10"><a xlink:href="classv8_1_1internal_1_1Float64.html#af47decdda2dcabab362ace3896c62f64" target="_top" xlink:title=" ">
<polygon fill="white" stroke="black" points="459,-568 459,-598 574,-598 574,-568 459,-568"/>
<text text-anchor="start" x="467" y="-586" font-family="Helvetica,sans-Serif" font-size="10.00">v8::internal::Float64</text>
<text text-anchor="middle" x="516.5" y="-575" font-family="Helvetica,sans-Serif" font-size="10.00">::get_scalar</text>
</a>
</g>
</g>
<!-- Node6&#45;&gt;Node10 -->
<g id="edge9" class="edge">
<title>Node6&#45;&gt;Node10</title>
<path fill="none" stroke="midnightblue" d="M372.96,-389.65C377.36,-392.65 381.44,-396.08 385,-400 433.42,-453.32 370.96,-506.2 421,-558 428.67,-565.94 438.55,-571.46 449.02,-575.28"/>
<polygon fill="midnightblue" stroke="midnightblue" points="448.16,-578.68 458.75,-578.33 450.25,-572 448.16,-578.68"/>
</g>
<!-- Node11 -->
<g id="node11" class="node">
<title>Node11</title>
<g id="a_node11"><a xlink:href="structv8_1_1internal_1_1compiler_1_1turboshaft_1_1ConstantOp.html#aef8ab1963ec93fb3753d0dc0fbeae21c" target="_top" xlink:title=" ">
<polygon fill="white" stroke="black" points="449,-507.5 449,-548.5 584,-548.5 584,-507.5 449,-507.5"/>
<text text-anchor="start" x="457" y="-536.5" font-family="Helvetica,sans-Serif" font-size="10.00">v8::internal::compiler</text>
<text text-anchor="start" x="457" y="-525.5" font-family="Helvetica,sans-Serif" font-size="10.00">::turboshaft::ConstantOp</text>
<text text-anchor="middle" x="516.5" y="-514.5" font-family="Helvetica,sans-Serif" font-size="10.00">::integral</text>
</a>
</g>
</g>
<!-- Node6&#45;&gt;Node11 -->
<g id="edge10" class="edge">
<title>Node6&#45;&gt;Node11</title>
<path fill="none" stroke="midnightblue" d="M371.51,-389.65C376.38,-392.64 380.95,-396.07 385,-400 418.33,-432.28 387.47,-465.93 421,-498 426.39,-503.15 432.66,-507.42 439.36,-510.96"/>
<polygon fill="midnightblue" stroke="midnightblue" points="438.18,-514.27 448.72,-515.34 441.14,-507.93 438.18,-514.27"/>
</g>
<!-- Node13 -->
<g id="node13" class="node">
<title>Node13</title>
<g id="a_node13"><a xlink:href="structv8_1_1internal_1_1compiler_1_1turboshaft_1_1ConstantOp.html#a0c584ca4e95621fead0d837cd8f8ba35" target="_top" xlink:title=" ">
<polygon fill="white" stroke="black" points="437,-458 437,-488 596,-488 596,-458 437,-458"/>
<text text-anchor="start" x="445" y="-476" font-family="Helvetica,sans-Serif" font-size="10.00">v8::internal::compiler</text>
<text text-anchor="middle" x="516.5" y="-465" font-family="Helvetica,sans-Serif" font-size="10.00">::turboshaft::ConstantOp::smi</text>
</a>
</g>
</g>
<!-- Node6&#45;&gt;Node13 -->
<g id="edge13" class="edge">
<title>Node6&#45;&gt;Node13</title>
<path fill="none" stroke="midnightblue" d="M367.52,-389.61C373.68,-392.63 379.61,-396.08 385,-400 406.86,-415.89 398.59,-433.9 421,-449 423.29,-450.54 425.67,-451.99 428.12,-453.34"/>
<polygon fill="midnightblue" stroke="midnightblue" points="426.76,-456.57 437.28,-457.83 429.85,-450.28 426.76,-456.57"/>
</g>
<!-- Node14 -->
<g id="node14" class="node">
<title>Node14</title>
<g id="a_node14"><a xlink:href="classv8_1_1internal_1_1Tagged_3_01Smi_01_4.html#a73a3b31cde0a7836a41dd4c03964ba8d" target="_top" xlink:title=" ">
<polygon fill="white" stroke="black" points="460,-409 460,-439 573,-439 573,-409 460,-409"/>
<text text-anchor="start" x="468" y="-427" font-family="Helvetica,sans-Serif" font-size="10.00">v8::internal::Tagged</text>
<text text-anchor="middle" x="516.5" y="-416" font-family="Helvetica,sans-Serif" font-size="10.00">&lt; Smi &gt;::value</text>
</a>
</g>
</g>
<!-- Node6&#45;&gt;Node14 -->
<g id="edge14" class="edge">
<title>Node6&#45;&gt;Node14</title>
<path fill="none" stroke="midnightblue" d="M373.64,-389.17C398.77,-395.34 426.06,-402.04 449.93,-407.9"/>
<polygon fill="midnightblue" stroke="midnightblue" points="449.39,-411.37 459.94,-410.36 451.06,-404.57 449.39,-411.37"/>
</g>
<!-- Node11&#45;&gt;Node2 -->
<g id="edge11" class="edge">
<title>Node11&#45;&gt;Node2</title>
<path fill="none" stroke="midnightblue" d="M584.41,-543.13C701.36,-568.06 937.17,-611.1 1007,-570 1063.82,-536.56 1089.25,-455.76 1098.32,-418.03"/>
<polygon fill="midnightblue" stroke="midnightblue" points="1101.84,-418.33 1100.63,-407.8 1095.01,-416.79 1101.84,-418.33"/>
</g>
<!-- Node12 -->
<g id="node12" class="node">
<title>Node12</title>
<g id="a_node12"><a xlink:href="namespacev8_1_1internal.html#af0d5ed9257a7fe9fa06dbd171b153429" target="_top" xlink:title=" ">
<polygon fill="white" stroke="black" points="668.5,-518.5 668.5,-537.5 792.5,-537.5 792.5,-518.5 668.5,-518.5"/>
<text text-anchor="middle" x="730.5" y="-525.5" font-family="Helvetica,sans-Serif" font-size="10.00">v8::internal::IsIntegral</text>
</a>
</g>
</g>
<!-- Node11&#45;&gt;Node12 -->
<g id="edge12" class="edge">
<title>Node11&#45;&gt;Node12</title>
<path fill="none" stroke="midnightblue" d="M584.29,-528C607.86,-528 634.45,-528 658.37,-528"/>
<polygon fill="midnightblue" stroke="midnightblue" points="658.45,-531.5 668.45,-528 658.45,-524.5 658.45,-531.5"/>
</g>
<!-- Node15 -->
<g id="node15" class="node">
<title>Node15</title>
<g id="a_node15"><a xlink:href="classv8_1_1internal_1_1TaggedImpl.html#a4dba1b2eafcf7a414910966f950540c9" target="_top" xlink:title=" ">
<polygon fill="white" stroke="black" points="652,-430.5 652,-471.5 809,-471.5 809,-430.5 652,-430.5"/>
<text text-anchor="start" x="660" y="-459.5" font-family="Helvetica,sans-Serif" font-size="10.00">v8::internal::TaggedImpl</text>
<text text-anchor="start" x="660" y="-448.5" font-family="Helvetica,sans-Serif" font-size="10.00">&lt; HeapObjectReferenceType</text>
<text text-anchor="middle" x="730.5" y="-437.5" font-family="Helvetica,sans-Serif" font-size="10.00">::STRONG, Address &gt;::ptr</text>
</a>
</g>
</g>
<!-- Node14&#45;&gt;Node15 -->
<g id="edge15" class="edge">
<title>Node14&#45;&gt;Node15</title>
<path fill="none" stroke="midnightblue" d="M573.2,-431.09C594.15,-433.76 618.5,-436.86 641.67,-439.81"/>
<polygon fill="midnightblue" stroke="midnightblue" points="641.49,-443.32 651.86,-441.11 642.38,-436.38 641.49,-443.32"/>
</g>
<!-- Node16 -->
<g id="node16" class="node">
<title>Node16</title>
<g id="a_node16"><a xlink:href="classv8_1_1internal_1_1Internals.html#ac38a008ae9643319fc517c7f3a44065e" target="_top" xlink:title=" ">
<polygon fill="white" stroke="black" points="670,-381 670,-411 791,-411 791,-381 670,-381"/>
<text text-anchor="start" x="678" y="-399" font-family="Helvetica,sans-Serif" font-size="10.00">v8::internal::Internals</text>
<text text-anchor="middle" x="730.5" y="-388" font-family="Helvetica,sans-Serif" font-size="10.00">::SmiValue</text>
</a>
</g>
</g>
<!-- Node14&#45;&gt;Node16 -->
<g id="edge16" class="edge">
<title>Node14&#45;&gt;Node16</title>
<path fill="none" stroke="midnightblue" d="M573.2,-416.64C599.64,-413.15 631.52,-408.94 659.57,-405.24"/>
<polygon fill="midnightblue" stroke="midnightblue" points="660.26,-408.68 669.71,-403.9 659.34,-401.74 660.26,-408.68"/>
</g>
<!-- Node18 -->
<g id="node18" class="node">
<title>Node18</title>
<g id="a_node18"><a xlink:href="classv8_1_1internal_1_1compiler_1_1InstructionSequence.html#a8eef7894ee18da1ca41379ca1e396ccd" target="_top" xlink:title=" ">
<polygon fill="white" stroke="black" points="669.5,-299.5 669.5,-340.5 791.5,-340.5 791.5,-299.5 669.5,-299.5"/>
<text text-anchor="start" x="677.5" y="-328.5" font-family="Helvetica,sans-Serif" font-size="10.00">v8::internal::compiler</text>
<text text-anchor="start" x="677.5" y="-317.5" font-family="Helvetica,sans-Serif" font-size="10.00">::InstructionSequence</text>
<text text-anchor="middle" x="730.5" y="-306.5" font-family="Helvetica,sans-Serif" font-size="10.00">::AddImmediate</text>
</a>
</g>
</g>
<!-- Node17&#45;&gt;Node18 -->
<g id="edge18" class="edge">
<title>Node17&#45;&gt;Node18</title>
<path fill="none" stroke="midnightblue" d="M587.04,-220C595.64,-222.84 604.15,-226.15 612,-230 645.02,-246.2 677.84,-272.42 700.37,-292.39"/>
<polygon fill="midnightblue" stroke="midnightblue" points="698.12,-295.07 707.89,-299.16 702.81,-289.87 698.12,-295.07"/>
</g>
<!-- Node29 -->
<g id="node27" class="node">
<title>Node29</title>
<g id="a_node27"><a xlink:href="classv8_1_1internal_1_1compiler_1_1OperandGenerator.html#aa95c23bd05d8901c0688a72e45422632" target="_top" xlink:title=" ">
<polygon fill="white" stroke="black" points="648,-120 648,-150 813,-150 813,-120 648,-120"/>
<text text-anchor="start" x="656" y="-138" font-family="Helvetica,sans-Serif" font-size="10.00">v8::internal::compiler</text>
<text text-anchor="middle" x="730.5" y="-127" font-family="Helvetica,sans-Serif" font-size="10.00">::OperandGenerator::sequence</text>
</a>
</g>
</g>
<!-- Node17&#45;&gt;Node29 -->
<g id="edge32" class="edge">
<title>Node17&#45;&gt;Node29</title>
<path fill="none" stroke="midnightblue" d="M581.35,-189.94C591.66,-187.18 602.17,-184.16 612,-181 636.53,-173.12 663.31,-162.77 685.11,-153.89"/>
<polygon fill="midnightblue" stroke="midnightblue" points="686.52,-157.09 694.44,-150.05 683.86,-150.62 686.52,-157.09"/>
</g>
<!-- Node18&#45;&gt;Node2 -->
<g id="edge19" class="edge">
<title>Node18&#45;&gt;Node2</title>
<path fill="none" stroke="midnightblue" d="M772,-299.29C827.73,-273.86 929.93,-238.45 1007,-276 1051.15,-297.51 1080.9,-350.39 1094.33,-378.96"/>
<polygon fill="midnightblue" stroke="midnightblue" points="1091.24,-380.6 1098.54,-388.28 1097.62,-377.72 1091.24,-380.6"/>
</g>
<!-- Node19 -->
<g id="node19" class="node">
<title>Node19</title>
<g id="a_node19"><a xlink:href="classv8_1_1internal_1_1compiler_1_1Constant.html#a14741d5d951f70c5cf0bffefa4ceb0a8" target="_top" xlink:title=" ">
<polygon fill="white" stroke="black" points="866.5,-197 866.5,-227 989.5,-227 989.5,-197 866.5,-197"/>
<text text-anchor="start" x="874.5" y="-215" font-family="Helvetica,sans-Serif" font-size="10.00">v8::internal::compiler</text>
<text text-anchor="middle" x="928" y="-204" font-family="Helvetica,sans-Serif" font-size="10.00">::Constant::FitsInInt32</text>
</a>
</g>
</g>
<!-- Node18&#45;&gt;Node19 -->
<g id="edge20" class="edge">
<title>Node18&#45;&gt;Node19</title>
<path fill="none" stroke="midnightblue" d="M758.93,-299.28C782.1,-282.41 816.58,-258.74 849,-242 856.77,-237.99 865.21,-234.2 873.57,-230.75"/>
<polygon fill="midnightblue" stroke="midnightblue" points="874.95,-233.97 882.94,-227.02 872.36,-227.47 874.95,-233.97"/>
</g>
<!-- Node20 -->
<g id="node20" class="node">
<title>Node20</title>
<g id="a_node20"><a xlink:href="classv8_1_1internal_1_1RelocInfo.html#af736e1ceab832b9e0356629669afb7aa" target="_top" xlink:title=" ">
<polygon fill="white" stroke="red" points="866,-148 866,-178 990,-178 990,-148 866,-148"/>
<text text-anchor="start" x="874" y="-166" font-family="Helvetica,sans-Serif" font-size="10.00">v8::internal::RelocInfo</text>
<text text-anchor="middle" x="928" y="-155" font-family="Helvetica,sans-Serif" font-size="10.00">::IsNoInfo</text>
</a>
</g>
</g>
<!-- Node18&#45;&gt;Node20 -->
<g id="edge22" class="edge">
<title>Node18&#45;&gt;Node20</title>
<path fill="none" stroke="midnightblue" d="M744.5,-299.49C763.86,-270.55 802.97,-217.95 849,-188 852.1,-185.98 855.38,-184.11 858.77,-182.39"/>
<polygon fill="midnightblue" stroke="midnightblue" points="860.33,-185.52 867.94,-178.15 857.39,-179.17 860.33,-185.52"/>
</g>
<!-- Node22 -->
<g id="node21" class="node">
<title>Node22</title>
<g id="a_node21"><a xlink:href="classv8_1_1internal_1_1compiler_1_1Constant.html#a499399ed1140f60bd7cbf8067ec2addc" target="_top" xlink:title=" ">
<polygon fill="white" stroke="black" points="867.5,-530 867.5,-560 988.5,-560 988.5,-530 867.5,-530"/>
<text text-anchor="start" x="875.5" y="-548" font-family="Helvetica,sans-Serif" font-size="10.00">v8::internal::compiler</text>
<text text-anchor="middle" x="928" y="-537" font-family="Helvetica,sans-Serif" font-size="10.00">::Constant::rmode</text>
</a>
</g>
</g>
<!-- Node18&#45;&gt;Node22 -->
<g id="edge23" class="edge">
<title>Node18&#45;&gt;Node22</title>
<path fill="none" stroke="midnightblue" d="M777.09,-340.69C790.41,-348.74 803.83,-359.16 813,-372 852.58,-427.45 802.33,-471.37 849,-521 851.81,-523.99 854.99,-526.61 858.41,-528.91"/>
<polygon fill="midnightblue" stroke="midnightblue" points="856.92,-532.09 867.35,-533.98 860.38,-526 856.92,-532.09"/>
</g>
<!-- Node23 -->
<g id="node22" class="node">
<title>Node23</title>
<g id="a_node22"><a xlink:href="classv8_1_1internal_1_1compiler_1_1RpoNumber.html#a6a8b2057a765857c6f6f966f391677f2" target="_top" xlink:title=" ">
<polygon fill="white" stroke="black" points="867.5,-481 867.5,-511 988.5,-511 988.5,-481 867.5,-481"/>
<text text-anchor="start" x="875.5" y="-499" font-family="Helvetica,sans-Serif" font-size="10.00">v8::internal::compiler</text>
<text text-anchor="middle" x="928" y="-488" font-family="Helvetica,sans-Serif" font-size="10.00">::RpoNumber::ToInt</text>
</a>
</g>
</g>
<!-- Node18&#45;&gt;Node23 -->
<g id="edge24" class="edge">
<title>Node18&#45;&gt;Node23</title>
<path fill="none" stroke="midnightblue" d="M775,-340.54C788.67,-348.74 802.84,-359.28 813,-372 842.49,-408.9 814.82,-439.39 849,-472 851.78,-474.65 854.84,-477.01 858.1,-479.11"/>
<polygon fill="midnightblue" stroke="midnightblue" points="856.66,-482.31 867.11,-484.07 860.04,-476.18 856.66,-482.31"/>
</g>
<!-- Node24 -->
<g id="node23" class="node">
<title>Node24</title>
<g id="a_node23"><a xlink:href="classv8_1_1internal_1_1compiler_1_1Constant.html#a38969f82d0fa6b301c93c927eb9a8daf" target="_top" xlink:title=" ">
<polygon fill="white" stroke="black" points="867.5,-432 867.5,-462 988.5,-462 988.5,-432 867.5,-432"/>
<text text-anchor="start" x="875.5" y="-450" font-family="Helvetica,sans-Serif" font-size="10.00">v8::internal::compiler</text>
<text text-anchor="middle" x="928" y="-439" font-family="Helvetica,sans-Serif" font-size="10.00">::Constant::ToInt32</text>
</a>
</g>
</g>
<!-- Node18&#45;&gt;Node24 -->
<g id="edge26" class="edge">
<title>Node18&#45;&gt;Node24</title>
<path fill="none" stroke="midnightblue" d="M770.63,-340.73C784.86,-349.32 800.49,-360.06 813,-372 833.07,-391.15 826.54,-406.71 849,-423 851.84,-425.06 854.86,-426.94 858,-428.67"/>
<polygon fill="midnightblue" stroke="midnightblue" points="856.58,-431.87 867.1,-433.12 859.66,-425.58 856.58,-431.87"/>
</g>
<!-- Node25 -->
<g id="node24" class="node">
<title>Node25</title>
<g id="a_node24"><a xlink:href="classv8_1_1internal_1_1compiler_1_1Constant.html#a74197737974d0c570df306015b869d2b" target="_top" xlink:title=" ">
<polygon fill="white" stroke="red" points="858,-383 858,-413 998,-413 998,-383 858,-383"/>
<text text-anchor="start" x="866" y="-401" font-family="Helvetica,sans-Serif" font-size="10.00">v8::internal::compiler</text>
<text text-anchor="middle" x="928" y="-390" font-family="Helvetica,sans-Serif" font-size="10.00">::Constant::ToRpoNumber</text>
</a>
</g>
</g>
<!-- Node18&#45;&gt;Node25 -->
<g id="edge28" class="edge">
<title>Node18&#45;&gt;Node25</title>
<path fill="none" stroke="midnightblue" d="M772.8,-340.61C795.07,-351.3 823.2,-364.15 849,-374 854.13,-375.96 859.49,-377.87 864.9,-379.71"/>
<polygon fill="midnightblue" stroke="midnightblue" points="864.05,-383.12 874.65,-382.94 866.25,-376.47 864.05,-383.12"/>
</g>
<!-- Node27 -->
<g id="node25" class="node">
<title>Node27</title>
<g id="a_node25"><a xlink:href="classv8_1_1internal_1_1compiler_1_1RpoNumber.html#a9c08b8b936c9dc374a7d1177d8c1551d" target="_top" xlink:title=" ">
<polygon fill="white" stroke="black" points="867.5,-334 867.5,-364 988.5,-364 988.5,-334 867.5,-334"/>
<text text-anchor="start" x="875.5" y="-352" font-family="Helvetica,sans-Serif" font-size="10.00">v8::internal::compiler</text>
<text text-anchor="middle" x="928" y="-341" font-family="Helvetica,sans-Serif" font-size="10.00">::RpoNumber::ToSize</text>
</a>
</g>
</g>
<!-- Node18&#45;&gt;Node27 -->
<g id="edge29" class="edge">
<title>Node18&#45;&gt;Node27</title>
<path fill="none" stroke="midnightblue" d="M791.75,-328.94C812.48,-332.01 835.86,-335.48 857.27,-338.66"/>
<polygon fill="midnightblue" stroke="midnightblue" points="856.88,-342.14 867.28,-340.14 857.91,-335.21 856.88,-342.14"/>
</g>
<!-- Node28 -->
<g id="node26" class="node">
<title>Node28</title>
<g id="a_node26"><a xlink:href="classv8_1_1internal_1_1compiler_1_1Constant.html#a885b3a552a157c3262ff2bc92deadc72" target="_top" xlink:title=" ">
<polygon fill="white" stroke="black" points="867.5,-285 867.5,-315 988.5,-315 988.5,-285 867.5,-285"/>
<text text-anchor="start" x="875.5" y="-303" font-family="Helvetica,sans-Serif" font-size="10.00">v8::internal::compiler</text>
<text text-anchor="middle" x="928" y="-292" font-family="Helvetica,sans-Serif" font-size="10.00">::Constant::type</text>
</a>
</g>
</g>
<!-- Node18&#45;&gt;Node28 -->
<g id="edge31" class="edge">
<title>Node18&#45;&gt;Node28</title>
<path fill="none" stroke="midnightblue" d="M791.75,-313.84C812.48,-311.72 835.86,-309.32 857.27,-307.13"/>
<polygon fill="midnightblue" stroke="midnightblue" points="857.69,-310.61 867.28,-306.11 856.98,-303.65 857.69,-310.61"/>
</g>
<!-- Node19&#45;&gt;Node2 -->
<g id="edge21" class="edge">
<title>Node19&#45;&gt;Node2</title>
<path fill="none" stroke="midnightblue" d="M982.37,-227.1C991.16,-231.06 999.75,-235.97 1007,-242 1052.82,-280.15 1082.8,-346.27 1095.53,-378.8"/>
<polygon fill="midnightblue" stroke="midnightblue" points="1092.37,-380.34 1099.18,-388.45 1098.92,-377.86 1092.37,-380.34"/>
</g>
<!-- Node23&#45;&gt;Node2 -->
<g id="edge25" class="edge">
<title>Node23&#45;&gt;Node2</title>
<path fill="none" stroke="midnightblue" d="M986.61,-480.88C993.63,-478.28 1000.59,-475.33 1007,-472 1037.03,-456.41 1067.13,-431.09 1085.29,-414.49"/>
<polygon fill="midnightblue" stroke="midnightblue" points="1087.82,-416.92 1092.75,-407.54 1083.05,-411.79 1087.82,-416.92"/>
</g>
<!-- Node24&#45;&gt;Node2 -->
<g id="edge27" class="edge">
<title>Node24&#45;&gt;Node2</title>
<path fill="none" stroke="midnightblue" d="M982.47,-431.9C1007.02,-424.97 1035.75,-416.85 1058.95,-410.3"/>
<polygon fill="midnightblue" stroke="midnightblue" points="1060.18,-413.59 1068.86,-407.5 1058.28,-406.85 1060.18,-413.59"/>
</g>
<!-- Node27&#45;&gt;Node2 -->
<g id="edge30" class="edge">
<title>Node27&#45;&gt;Node2</title>
<path fill="none" stroke="midnightblue" d="M982.47,-364.1C1007.02,-371.03 1035.75,-379.15 1058.95,-385.7"/>
<polygon fill="midnightblue" stroke="midnightblue" points="1058.28,-389.15 1068.86,-388.5 1060.18,-382.41 1058.28,-389.15"/>
</g>
<!-- Node30 -->
<g id="node28" class="node">
<title>Node30</title>
<g id="a_node28"><a xlink:href="classv8_1_1internal_1_1compiler_1_1OperandGenerator.html#a0382e5e7c015607692b15347c334c5e7" target="_top" xlink:title=" ">
<polygon fill="white" stroke="black" points="849,-99 849,-129 1007,-129 1007,-99 849,-99"/>
<text text-anchor="start" x="857" y="-117" font-family="Helvetica,sans-Serif" font-size="10.00">v8::internal::compiler</text>
<text text-anchor="middle" x="928" y="-106" font-family="Helvetica,sans-Serif" font-size="10.00">::OperandGenerator::selector</text>
</a>
</g>
</g>
<!-- Node29&#45;&gt;Node30 -->
<g id="edge33" class="edge">
<title>Node29&#45;&gt;Node30</title>
<path fill="none" stroke="midnightblue" d="M813.28,-126.22C821.77,-125.3 830.44,-124.37 839,-123.45"/>
<polygon fill="midnightblue" stroke="midnightblue" points="839.42,-126.93 848.99,-122.38 838.67,-119.97 839.42,-126.93"/>
</g>
<!-- Node31 -->
<g id="node29" class="node">
<title>Node31</title>
<g id="a_node29"><a xlink:href="classv8_1_1internal_1_1compiler_1_1InstructionSelector.html#a99880d603289af8731b5ce9f14228275" target="_top" xlink:title=" ">
<polygon fill="white" stroke="black" points="1043,-25.5 1043,-66.5 1164,-66.5 1164,-25.5 1043,-25.5"/>
<text text-anchor="start" x="1051" y="-54.5" font-family="Helvetica,sans-Serif" font-size="10.00">v8::internal::compiler</text>
<text text-anchor="start" x="1051" y="-43.5" font-family="Helvetica,sans-Serif" font-size="10.00">::InstructionSelector</text>
<text text-anchor="middle" x="1103.5" y="-32.5" font-family="Helvetica,sans-Serif" font-size="10.00">::sequence</text>
</a>
</g>
</g>
<!-- Node29&#45;&gt;Node31 -->
<g id="edge34" class="edge">
<title>Node29&#45;&gt;Node31</title>
<path fill="none" stroke="midnightblue" d="M764.56,-119.95C787.77,-109.91 819.76,-97.11 849,-89 910.09,-72.05 981.43,-60.67 1032.83,-53.9"/>
<polygon fill="midnightblue" stroke="midnightblue" points="1033.37,-57.36 1042.84,-52.61 1032.47,-50.42 1033.37,-57.36"/>
</g>
<!-- Node33 -->
<g id="node31" class="node">
<title>Node33</title>
<g id="a_node31"><a xlink:href="classv8_1_1internal_1_1compiler_1_1OperandGenerator.html#ab57538e5e899a050304464f46061d95f" target="_top" xlink:title=" ">
<polygon fill="white" stroke="black" points="650,-6 650,-36 811,-36 811,-6 650,-6"/>
<text text-anchor="start" x="658" y="-24" font-family="Helvetica,sans-Serif" font-size="10.00">v8::internal::compiler</text>
<text text-anchor="middle" x="730.5" y="-13" font-family="Helvetica,sans-Serif" font-size="10.00">::OperandGenerator::GetVReg</text>
</a>
</g>
</g>
<!-- Node32&#45;&gt;Node33 -->
<g id="edge36" class="edge">
<title>Node32&#45;&gt;Node33</title>
<path fill="none" stroke="midnightblue" d="M356.36,-30.97C376.91,-26.88 399.8,-23.03 421,-21 494.36,-13.98 577.98,-14.51 639.64,-16.5"/>
<polygon fill="midnightblue" stroke="midnightblue" points="639.61,-20 649.72,-16.84 639.85,-13 639.61,-20"/>
</g>
<!-- Node41 -->
<g id="node33" class="node">
<title>Node41</title>
<g id="a_node33"><a xlink:href="classv8_1_1internal_1_1compiler_1_1OperandGenerator.html#a4f41facd85ac8d4618db1191c602c5ea" target="_top" xlink:title=" ">
<polygon fill="white" stroke="black" points="448,-31 448,-61 585,-61 585,-31 448,-31"/>
<text text-anchor="start" x="456" y="-49" font-family="Helvetica,sans-Serif" font-size="10.00">v8::internal::compiler</text>
<text text-anchor="middle" x="516.5" y="-38" font-family="Helvetica,sans-Serif" font-size="10.00">::OperandGenerator::Use</text>
</a>
</g>
</g>
<!-- Node32&#45;&gt;Node41 -->
<g id="edge40" class="edge">
<title>Node32&#45;&gt;Node41</title>
<path fill="none" stroke="midnightblue" d="M379.71,-46C398.82,-46 418.9,-46 437.58,-46"/>
<polygon fill="midnightblue" stroke="midnightblue" points="437.8,-49.5 447.8,-46 437.8,-42.5 437.8,-49.5"/>
</g>
<!-- Node34 -->
<g id="node32" class="node">
<title>Node34</title>
<g id="a_node32"><a xlink:href="classv8_1_1internal_1_1compiler_1_1InstructionSelector.html#acc8f18318fc6476c69bcd6e013139215" target="_top" xlink:title=" ">
<polygon fill="white" stroke="red" points="867.5,-0.5 867.5,-41.5 988.5,-41.5 988.5,-0.5 867.5,-0.5"/>
<text text-anchor="start" x="875.5" y="-29.5" font-family="Helvetica,sans-Serif" font-size="10.00">v8::internal::compiler</text>
<text text-anchor="start" x="875.5" y="-18.5" font-family="Helvetica,sans-Serif" font-size="10.00">::InstructionSelector</text>
<text text-anchor="middle" x="928" y="-7.5" font-family="Helvetica,sans-Serif" font-size="10.00">::GetVirtualRegister</text>
</a>
</g>
</g>
<!-- Node33&#45;&gt;Node34 -->
<g id="edge37" class="edge">
<title>Node33&#45;&gt;Node34</title>
<path fill="none" stroke="midnightblue" d="M811.02,-21C826.31,-21 842.21,-21 857.17,-21"/>
<polygon fill="midnightblue" stroke="midnightblue" points="857.35,-24.5 867.35,-21 857.35,-17.5 857.35,-24.5"/>
</g>
<!-- Node34&#45;&gt;Node2 -->
<g id="edge38" class="edge">
<title>Node34&#45;&gt;Node2</title>
<path fill="none" stroke="midnightblue" d="M960.14,-41.7C976.17,-53.79 994.85,-70.33 1007,-89 1070.05,-185.92 1093.46,-326.86 1100.21,-378.28"/>
<polygon fill="midnightblue" stroke="midnightblue" points="1096.75,-378.87 1101.46,-388.36 1103.7,-378 1096.75,-378.87"/>
</g>
<!-- Node34&#45;&gt;Node31 -->
<g id="edge39" class="edge">
<title>Node34&#45;&gt;Node31</title>
<path fill="none" stroke="midnightblue" d="M988.71,-29.6C1002.96,-31.66 1018.3,-33.87 1032.96,-35.98"/>
<polygon fill="midnightblue" stroke="midnightblue" points="1032.58,-39.46 1042.98,-37.42 1033.58,-32.53 1032.58,-39.46"/>
</g>
<!-- Node41&#45;&gt;Node33 -->
<g id="edge41" class="edge">
<title>Node41&#45;&gt;Node33</title>
<path fill="none" stroke="midnightblue" d="M585.16,-38.02C602.54,-35.97 621.51,-33.73 639.82,-31.58"/>
<polygon fill="midnightblue" stroke="midnightblue" points="640.39,-35.03 649.91,-30.39 639.57,-28.08 640.39,-35.03"/>
</g>
<!-- Node43 -->
<g id="node35" class="node">
<title>Node43</title>
<g id="a_node35"><a xlink:href="classv8_1_1internal_1_1compiler_1_1InstructionSelector.html#a26a647c9a53bfb4115ebf63418a96cc1" target="_top" xlink:title=" ">
<polygon fill="white" stroke="black" points="451.5,-80.5 451.5,-121.5 581.5,-121.5 581.5,-80.5 451.5,-80.5"/>
<text text-anchor="start" x="459.5" y="-109.5" font-family="Helvetica,sans-Serif" font-size="10.00">v8::internal::compiler</text>
<text text-anchor="start" x="459.5" y="-98.5" font-family="Helvetica,sans-Serif" font-size="10.00">::InstructionSelector</text>
<text text-anchor="middle" x="516.5" y="-87.5" font-family="Helvetica,sans-Serif" font-size="10.00">::EmitWithContinuation</text>
</a>
</g>
</g>
<!-- Node42&#45;&gt;Node43 -->
<g id="edge43" class="edge">
<title>Node42&#45;&gt;Node43</title>
<path fill="none" stroke="midnightblue" d="M351.23,-141.33C378.95,-134.53 412.16,-126.37 441.45,-119.18"/>
<polygon fill="midnightblue" stroke="midnightblue" points="442.34,-122.57 451.22,-116.78 440.67,-115.77 442.34,-122.57"/>
</g>
<!-- Node44 -->
<g id="node36" class="node">
<title>Node44</title>
<g id="a_node36"><a xlink:href="classv8_1_1internal_1_1compiler_1_1OperandGenerator.html#a408982e8ef268124fdd2884792d47fe3" target="_top" xlink:title=" ">
<polygon fill="white" stroke="black" points="424,-141 424,-171 609,-171 609,-141 424,-141"/>
<text text-anchor="start" x="432" y="-159" font-family="Helvetica,sans-Serif" font-size="10.00">v8::internal::compiler</text>
<text text-anchor="middle" x="516.5" y="-148" font-family="Helvetica,sans-Serif" font-size="10.00">::OperandGenerator::TempRegister</text>
</a>
</g>
</g>
<!-- Node42&#45;&gt;Node44 -->
<g id="edge44" class="edge">
<title>Node42&#45;&gt;Node44</title>
<path fill="none" stroke="midnightblue" d="M351.23,-156C370.48,-156 392.38,-156 413.77,-156"/>
<polygon fill="midnightblue" stroke="midnightblue" points="413.88,-159.5 423.88,-156 413.88,-152.5 413.88,-159.5"/>
</g>
<!-- Node44&#45;&gt;Node29 -->
<g id="edge45" class="edge">
<title>Node44&#45;&gt;Node29</title>
<path fill="none" stroke="midnightblue" d="M609.25,-146.91C618.7,-145.98 628.31,-145.02 637.76,-144.09"/>
<polygon fill="midnightblue" stroke="midnightblue" points="638.33,-147.55 647.94,-143.08 637.64,-140.58 638.33,-147.55"/>
</g>
</g>
</svg>
        <g id="navigator" transform="translate(0 0)" fill="#404254">
                <rect fill="#f2f5e9" fill-opacity="0.5" stroke="#606060" stroke-width=".5" x="0" y="0" width="60" height="60"/>
                <use id="zoomplus" xlink:href="#zoomPlus" x="17" y="9" onmousedown="handleZoom(evt,'in')"/>
                <use id="zoomminus" xlink:href="#zoomMin" x="42" y="9" onmousedown="handleZoom(evt,'out')"/>
                <use id="reset" xlink:href="#resetDef" x="30" y="36" onmousedown="handleReset()"/>
                <g id="arrowUp" xlink:href="#dirArrow" transform="translate(30 24)" onmousedown="handlePan(0,-1)">
                  <use xlink:href="#rim" fill="#404040">
                        <set attributeName="fill" to="#808080" begin="arrowUp.mouseover" end="arrowUp.mouseout"/>
                  </use>
                  <path fill="none" stroke="white" stroke-width="1.5" d="M0,-3.0v7 M-2.5,-0.5L0,-3.0L2.5,-0.5"/>
                </g>
                <g id="arrowRight" xlink:href="#dirArrow" transform="rotate(90) translate(36 -43)" onmousedown="handlePan(1,0)">
                  <use xlink:href="#rim" fill="#404040">
                        <set attributeName="fill" to="#808080" begin="arrowRight.mouseover" end="arrowRight.mouseout"/>
                  </use>
                  <path fill="none" stroke="white" stroke-width="1.5" d="M0,-3.0v7 M-2.5,-0.5L0,-3.0L2.5,-0.5"/>
                </g>
                <g id="arrowDown" xlink:href="#dirArrow" transform="rotate(180) translate(-30 -48)" onmousedown="handlePan(0,1)">
                  <use xlink:href="#rim" fill="#404040">
                        <set attributeName="fill" to="#808080" begin="arrowDown.mouseover" end="arrowDown.mouseout"/>
                  </use>
                  <path fill="none" stroke="white" stroke-width="1.5" d="M0,-3.0v7 M-2.5,-0.5L0,-3.0L2.5,-0.5"/>
                </g>
                <g id="arrowLeft" xlink:href="#dirArrow" transform="rotate(270) translate(-36 17)" onmousedown="handlePan(-1,0)">
                  <use xlink:href="#rim" fill="#404040">
                        <set attributeName="fill" to="#808080" begin="arrowLeft.mouseover" end="arrowLeft.mouseout"/>
                  </use>
                  <path fill="none" stroke="white" stroke-width="1.5" d="M0,-3.0v7 M-2.5,-0.5L0,-3.0L2.5,-0.5"/>
                </g>
        </g>
        <svg viewBox="0 0 15 15" width="100%" height="30px" preserveAspectRatio="xMaxYMin meet">
         <g id="arrow_out" transform="scale(0.3 0.3)">
          <a xlink:href="namespacev8_1_1internal_1_1compiler_1_1anonymous__namespace_02instruction-selector-loong64_8cc_03_a75a52c3b62b792dd8ad95f42334385f8_cgraph_org.svg" target="_base">
           <rect id="button" ry="5" rx="5" y="6" x="6" height="38" width="38"
                fill="#f2f5e9" fill-opacity="0.5" stroke="#606060" stroke-width="1.0"/>
           <path id="arrow"
             d="M 11.500037,31.436501 C 11.940474,20.09759 22.043105,11.32322 32.158766,21.979434 L 37.068811,17.246167 C 37.068811,17.246167 37.088388,32 37.088388,32 L 22.160133,31.978069 C 22.160133,31.978069 26.997745,27.140456 26.997745,27.140456 C 18.528582,18.264221 13.291696,25.230495 11.500037,31.436501 z"
             style="fill:#404040;"/>
          </a>
         </g>
        </svg>
</svg>
