<?xml version="1.0" encoding="UTF-8" standalone="no"?>
<!DOCTYPE svg PUBLIC "-//W3C//DTD SVG 1.1//EN"
 "http://www.w3.org/Graphics/SVG/1.1/DTD/svg11.dtd">
<!-- Generated by graphviz version 2.43.0 (0)
 -->
<!-- Title: v8::internal::anonymous_namespace{temporal&#45;parser::cc}::IsSign Pages: 1 -->
<!--zoomable 230 -->
<svg id="main" version="1.1" xmlns="http://www.w3.org/2000/svg" xmlns:xlink="http://www.w3.org/1999/xlink" xml:space="preserve" onload="init(evt)">
<style type="text/css"><![CDATA[
.edge:hover path { stroke: red; }
.edge:hover polygon { stroke: red; fill: red; }
]]></style>
<script type="text/javascript"><![CDATA[
var edges = document.getElementsByTagName('g');
if (edges && edges.length) {
  for (var i=0;i<edges.length;i++) {
    if (edges[i].id.substr(0,4)=='edge') {
      edges[i].setAttribute('class','edge');
    }
  }
}
]]></script>
        <defs>
                <circle id="rim" cx="0" cy="0" r="7"/>
                <circle id="rim2" cx="0" cy="0" r="3.5"/>
                <g id="zoomPlus">
                        <use xlink:href="#rim" fill="#404040">
                                <set attributeName="fill" to="#808080" begin="zoomplus.mouseover" end="zoomplus.mouseout"/>
                        </use>
                        <path d="M-4,0h8M0,-4v8" fill="none" stroke="white" stroke-width="1.5" pointer-events="none"/>
                </g>
                <g id="zoomMin">
                        <use xlink:href="#rim" fill="#404040">
                                <set attributeName="fill" to="#808080" begin="zoomminus.mouseover" end="zoomminus.mouseout"/>
                        </use>
                        <path d="M-4,0h8" fill="none" stroke="white" stroke-width="1.5" pointer-events="none"/>
                </g>
                <g id="dirArrow">
                        <path fill="none" stroke="white" stroke-width="1.5" d="M0,-3.0v7 M-2.5,-0.5L0,-3.0L2.5,-0.5"/>
                </g>
               <g id="resetDef">
                       <use xlink:href="#rim2" fill="#404040">
                               <set attributeName="fill" to="#808080" begin="reset.mouseover" end="reset.mouseout"/>
                       </use>
               </g>
        </defs>

<script type="text/javascript">
var viewWidth = 903;
var viewHeight = 230;
var sectionId = 'dynsection-8';
</script>
<script xlink:href="svgpan.js"/>
<svg id="graph" class="graph">
<g id="viewport">
<title>v8::internal::anonymous_namespace{temporal&#45;parser::cc}::IsSign</title>
<polygon fill="white" stroke="transparent" points="-4,4 -4,-226 899,-226 899,4 -4,4"/>
<!-- Node1 -->
<g id="node1" class="node">
<title>Node1</title>
<g id="a_node1"><a xlink:title=" ">
<polygon fill="#bfbfbf" stroke="black" points="732,-90.5 732,-131.5 895,-131.5 895,-90.5 732,-90.5"/>
<text text-anchor="start" x="740" y="-119.5" font-family="Helvetica,sans-Serif" font-size="10.00">v8::internal::anonymous</text>
<text text-anchor="start" x="740" y="-108.5" font-family="Helvetica,sans-Serif" font-size="10.00">_namespace{temporal&#45;parser</text>
<text text-anchor="middle" x="813.5" y="-97.5" font-family="Helvetica,sans-Serif" font-size="10.00">::cc}::IsSign</text>
</a>
</g>
</g>
<!-- Node2 -->
<g id="node2" class="node">
<title>Node2</title>
<g id="a_node2"><a xlink:href="namespacev8_1_1internal_1_1anonymous__namespace_02temporal-parser_8cc_03.html#a4f127cf3ee7c6956d4c7c6172a20552f" target="_top" xlink:title=" ">
<polygon fill="white" stroke="black" points="511.5,-180.5 511.5,-221.5 684.5,-221.5 684.5,-180.5 511.5,-180.5"/>
<text text-anchor="start" x="519.5" y="-209.5" font-family="Helvetica,sans-Serif" font-size="10.00">v8::internal::anonymous</text>
<text text-anchor="start" x="519.5" y="-198.5" font-family="Helvetica,sans-Serif" font-size="10.00">_namespace{temporal&#45;parser</text>
<text text-anchor="middle" x="598" y="-187.5" font-family="Helvetica,sans-Serif" font-size="10.00">::cc}::IsTimeZoneUTCOffsetSign</text>
</a>
</g>
</g>
<!-- Node1&#45;&gt;Node2 -->
<g id="edge1" class="edge">
<title>Node1&#45;&gt;Node2</title>
<path fill="none" stroke="midnightblue" d="M767.73,-136.4C746.42,-147.88 720.33,-161.06 696,-171 687.84,-174.33 679.17,-177.51 670.49,-180.46"/>
<polygon fill="midnightblue" stroke="midnightblue" points="769.44,-139.46 776.55,-131.6 766.09,-133.31 769.44,-139.46"/>
</g>
<!-- Node16 -->
<g id="node5" class="node">
<title>Node16</title>
<g id="a_node5"><a xlink:href="namespacev8_1_1internal_1_1anonymous__namespace_02temporal-parser_8cc_03.html#a9e1c9652024f8e6e85defa8d856ceba4" target="_top" xlink:title=" ">
<polygon fill="white" stroke="black" points="516.5,-120.5 516.5,-161.5 679.5,-161.5 679.5,-120.5 516.5,-120.5"/>
<text text-anchor="start" x="524.5" y="-149.5" font-family="Helvetica,sans-Serif" font-size="10.00">v8::internal::anonymous</text>
<text text-anchor="start" x="524.5" y="-138.5" font-family="Helvetica,sans-Serif" font-size="10.00">_namespace{temporal&#45;parser</text>
<text text-anchor="middle" x="598" y="-127.5" font-family="Helvetica,sans-Serif" font-size="10.00">::cc}::ScanDateExtendedYear</text>
</a>
</g>
</g>
<!-- Node1&#45;&gt;Node16 -->
<g id="edge4" class="edge">
<title>Node1&#45;&gt;Node16</title>
<path fill="none" stroke="midnightblue" d="M721.73,-123.75C707.81,-125.71 693.52,-127.72 679.83,-129.64"/>
<polygon fill="midnightblue" stroke="midnightblue" points="722.37,-127.2 731.78,-122.34 721.4,-120.27 722.37,-127.2"/>
</g>
<!-- Node17 -->
<g id="node6" class="node">
<title>Node17</title>
<g id="a_node6"><a xlink:href="namespacev8_1_1internal_1_1anonymous__namespace_02temporal-parser_8cc_03.html#a55832f1aa6ffb2cdecd8bca5228d6f20" target="_top" xlink:title=" ">
<polygon fill="white" stroke="black" points="516.5,-60.5 516.5,-101.5 679.5,-101.5 679.5,-60.5 516.5,-60.5"/>
<text text-anchor="start" x="524.5" y="-89.5" font-family="Helvetica,sans-Serif" font-size="10.00">v8::internal::anonymous</text>
<text text-anchor="start" x="524.5" y="-78.5" font-family="Helvetica,sans-Serif" font-size="10.00">_namespace{temporal&#45;parser</text>
<text text-anchor="middle" x="598" y="-67.5" font-family="Helvetica,sans-Serif" font-size="10.00">::cc}::ScanDuration</text>
</a>
</g>
</g>
<!-- Node1&#45;&gt;Node17 -->
<g id="edge5" class="edge">
<title>Node1&#45;&gt;Node17</title>
<path fill="none" stroke="midnightblue" d="M721.73,-98.25C707.81,-96.29 693.52,-94.28 679.83,-92.36"/>
<polygon fill="midnightblue" stroke="midnightblue" points="721.4,-101.73 731.78,-99.66 722.37,-94.8 721.4,-101.73"/>
</g>
<!-- Node18 -->
<g id="node7" class="node">
<title>Node18</title>
<g id="a_node7"><a xlink:href="namespacev8_1_1internal_1_1anonymous__namespace_02temporal-parser_8cc_03.html#aefcce2771932269e231140f01a023adf" target="_top" xlink:title=" ">
<polygon fill="white" stroke="black" points="500,-0.5 500,-41.5 696,-41.5 696,-0.5 500,-0.5"/>
<text text-anchor="start" x="508" y="-29.5" font-family="Helvetica,sans-Serif" font-size="10.00">v8::internal::anonymous</text>
<text text-anchor="start" x="508" y="-18.5" font-family="Helvetica,sans-Serif" font-size="10.00">_namespace{temporal&#45;parser</text>
<text text-anchor="middle" x="598" y="-7.5" font-family="Helvetica,sans-Serif" font-size="10.00">::cc}::ScanTimeZoneUTCOffsetName</text>
</a>
</g>
</g>
<!-- Node1&#45;&gt;Node18 -->
<g id="edge6" class="edge">
<title>Node1&#45;&gt;Node18</title>
<path fill="none" stroke="midnightblue" d="M767.73,-85.6C746.42,-74.12 720.33,-60.94 696,-51 687.84,-47.67 679.17,-44.49 670.49,-41.54"/>
<polygon fill="midnightblue" stroke="midnightblue" points="766.09,-88.69 776.55,-90.4 769.44,-82.54 766.09,-88.69"/>
</g>
<!-- Node3 -->
<g id="node3" class="node">
<title>Node3</title>
<g id="a_node3"><a xlink:href="namespacev8_1_1internal_1_1anonymous__namespace_02temporal-parser_8cc_03.html#a950517e5777234143eba24f343fa7658" target="_top" xlink:title=" ">
<polygon fill="white" stroke="black" points="256,-180.5 256,-221.5 464,-221.5 464,-180.5 256,-180.5"/>
<text text-anchor="start" x="264" y="-209.5" font-family="Helvetica,sans-Serif" font-size="10.00">v8::internal::anonymous</text>
<text text-anchor="start" x="264" y="-198.5" font-family="Helvetica,sans-Serif" font-size="10.00">_namespace{temporal&#45;parser</text>
<text text-anchor="middle" x="360" y="-187.5" font-family="Helvetica,sans-Serif" font-size="10.00">::cc}::ScanTimeZoneNumericUTCOffset</text>
</a>
</g>
</g>
<!-- Node2&#45;&gt;Node3 -->
<g id="edge2" class="edge">
<title>Node2&#45;&gt;Node3</title>
<path fill="none" stroke="midnightblue" d="M501.32,-201C489.14,-201 476.63,-201 464.33,-201"/>
<polygon fill="midnightblue" stroke="midnightblue" points="501.46,-204.5 511.46,-201 501.46,-197.5 501.46,-204.5"/>
</g>
<!-- Node4 -->
<g id="node4" class="node">
<title>Node4</title>
<g id="a_node4"><a xlink:href="namespacev8_1_1internal_1_1anonymous__namespace_02temporal-parser_8cc_03.html#ae747bacb8d2cb969e3bc8e3b309cfbd8" target="_top" xlink:title=" ">
<polygon fill="white" stroke="red" points="26.5,-180.5 26.5,-221.5 193.5,-221.5 193.5,-180.5 26.5,-180.5"/>
<text text-anchor="start" x="34.5" y="-209.5" font-family="Helvetica,sans-Serif" font-size="10.00">v8::internal::anonymous</text>
<text text-anchor="start" x="34.5" y="-198.5" font-family="Helvetica,sans-Serif" font-size="10.00">_namespace{temporal&#45;parser</text>
<text text-anchor="middle" x="110" y="-187.5" font-family="Helvetica,sans-Serif" font-size="10.00">::cc}::ScanTimeZoneUTCOffset</text>
</a>
</g>
</g>
<!-- Node3&#45;&gt;Node4 -->
<g id="edge3" class="edge">
<title>Node3&#45;&gt;Node4</title>
<path fill="none" stroke="midnightblue" d="M245.71,-201C228.19,-201 210.38,-201 193.69,-201"/>
<polygon fill="midnightblue" stroke="midnightblue" points="245.98,-204.5 255.98,-201 245.98,-197.5 245.98,-204.5"/>
</g>
<!-- Node19 -->
<g id="node8" class="node">
<title>Node19</title>
<g id="a_node8"><a xlink:href="namespacev8_1_1internal_1_1anonymous__namespace_02temporal-parser_8cc_03.html#ac9c434adaede17ac9c467f5986c19fdc" target="_top" xlink:title=" ">
<polygon fill="white" stroke="black" points="278.5,-0.5 278.5,-41.5 441.5,-41.5 441.5,-0.5 278.5,-0.5"/>
<text text-anchor="start" x="286.5" y="-29.5" font-family="Helvetica,sans-Serif" font-size="10.00">v8::internal::anonymous</text>
<text text-anchor="start" x="286.5" y="-18.5" font-family="Helvetica,sans-Serif" font-size="10.00">_namespace{temporal&#45;parser</text>
<text text-anchor="middle" x="360" y="-7.5" font-family="Helvetica,sans-Serif" font-size="10.00">::cc}::ScanTimeZoneIdentifier</text>
</a>
</g>
</g>
<!-- Node18&#45;&gt;Node19 -->
<g id="edge7" class="edge">
<title>Node18&#45;&gt;Node19</title>
<path fill="none" stroke="midnightblue" d="M489.97,-21C473.8,-21 457.35,-21 441.85,-21"/>
<polygon fill="midnightblue" stroke="midnightblue" points="489.99,-24.5 499.99,-21 489.99,-17.5 489.99,-24.5"/>
</g>
<!-- Node20 -->
<g id="node9" class="node">
<title>Node20</title>
<g id="a_node9"><a xlink:href="namespacev8_1_1internal_1_1anonymous__namespace_02temporal-parser_8cc_03.html#a3df151d3cd9f994bb85a1a06cb024cf9" target="_top" xlink:title=" ">
<polygon fill="white" stroke="red" points="0,-0.5 0,-41.5 220,-41.5 220,-0.5 0,-0.5"/>
<text text-anchor="start" x="8" y="-29.5" font-family="Helvetica,sans-Serif" font-size="10.00">v8::internal::anonymous</text>
<text text-anchor="start" x="8" y="-18.5" font-family="Helvetica,sans-Serif" font-size="10.00">_namespace{temporal&#45;parser</text>
<text text-anchor="middle" x="110" y="-7.5" font-family="Helvetica,sans-Serif" font-size="10.00">::cc}::ScanTimeZoneBracketedAnnotation</text>
</a>
</g>
</g>
<!-- Node19&#45;&gt;Node20 -->
<g id="edge8" class="edge">
<title>Node19&#45;&gt;Node20</title>
<path fill="none" stroke="midnightblue" d="M268.36,-21C252.78,-21 236.43,-21 220.42,-21"/>
<polygon fill="midnightblue" stroke="midnightblue" points="268.48,-24.5 278.48,-21 268.48,-17.5 268.48,-24.5"/>
</g>
</g>
</svg>
        <g id="navigator" transform="translate(0 0)" fill="#404254">
                <rect fill="#f2f5e9" fill-opacity="0.5" stroke="#606060" stroke-width=".5" x="0" y="0" width="60" height="60"/>
                <use id="zoomplus" xlink:href="#zoomPlus" x="17" y="9" onmousedown="handleZoom(evt,'in')"/>
                <use id="zoomminus" xlink:href="#zoomMin" x="42" y="9" onmousedown="handleZoom(evt,'out')"/>
                <use id="reset" xlink:href="#resetDef" x="30" y="36" onmousedown="handleReset()"/>
                <g id="arrowUp" xlink:href="#dirArrow" transform="translate(30 24)" onmousedown="handlePan(0,-1)">
                  <use xlink:href="#rim" fill="#404040">
                        <set attributeName="fill" to="#808080" begin="arrowUp.mouseover" end="arrowUp.mouseout"/>
                  </use>
                  <path fill="none" stroke="white" stroke-width="1.5" d="M0,-3.0v7 M-2.5,-0.5L0,-3.0L2.5,-0.5"/>
                </g>
                <g id="arrowRight" xlink:href="#dirArrow" transform="rotate(90) translate(36 -43)" onmousedown="handlePan(1,0)">
                  <use xlink:href="#rim" fill="#404040">
                        <set attributeName="fill" to="#808080" begin="arrowRight.mouseover" end="arrowRight.mouseout"/>
                  </use>
                  <path fill="none" stroke="white" stroke-width="1.5" d="M0,-3.0v7 M-2.5,-0.5L0,-3.0L2.5,-0.5"/>
                </g>
                <g id="arrowDown" xlink:href="#dirArrow" transform="rotate(180) translate(-30 -48)" onmousedown="handlePan(0,1)">
                  <use xlink:href="#rim" fill="#404040">
                        <set attributeName="fill" to="#808080" begin="arrowDown.mouseover" end="arrowDown.mouseout"/>
                  </use>
                  <path fill="none" stroke="white" stroke-width="1.5" d="M0,-3.0v7 M-2.5,-0.5L0,-3.0L2.5,-0.5"/>
                </g>
                <g id="arrowLeft" xlink:href="#dirArrow" transform="rotate(270) translate(-36 17)" onmousedown="handlePan(-1,0)">
                  <use xlink:href="#rim" fill="#404040">
                        <set attributeName="fill" to="#808080" begin="arrowLeft.mouseover" end="arrowLeft.mouseout"/>
                  </use>
                  <path fill="none" stroke="white" stroke-width="1.5" d="M0,-3.0v7 M-2.5,-0.5L0,-3.0L2.5,-0.5"/>
                </g>
        </g>
        <svg viewBox="0 0 15 15" width="100%" height="30px" preserveAspectRatio="xMaxYMin meet">
         <g id="arrow_out" transform="scale(0.3 0.3)">
          <a xlink:href="namespacev8_1_1internal_1_1anonymous__namespace_02temporal-parser_8cc_03_a1ea1d9886d0865301a48486df85b1c07_icgraph_org.svg" target="_base">
           <rect id="button" ry="5" rx="5" y="6" x="6" height="38" width="38"
                fill="#f2f5e9" fill-opacity="0.5" stroke="#606060" stroke-width="1.0"/>
           <path id="arrow"
             d="M 11.500037,31.436501 C 11.940474,20.09759 22.043105,11.32322 32.158766,21.979434 L 37.068811,17.246167 C 37.068811,17.246167 37.088388,32 37.088388,32 L 22.160133,31.978069 C 22.160133,31.978069 26.997745,27.140456 26.997745,27.140456 C 18.528582,18.264221 13.291696,25.230495 11.500037,31.436501 z"
             style="fill:#404040;"/>
          </a>
         </g>
        </svg>
</svg>
