<?xml version="1.0" encoding="UTF-8" standalone="no"?>
<!DOCTYPE svg PUBLIC "-//W3C//DTD SVG 1.1//EN"
 "http://www.w3.org/Graphics/SVG/1.1/DTD/svg11.dtd">
<!-- Generated by graphviz version 2.43.0 (0)
 -->
<!-- Title: cppgc::internal::anonymous_namespace{concurrent&#45;marker::cc}::DrainWorklistWithYielding Pages: 1 -->
<svg width="691pt" height="154pt"
 viewBox="0.00 0.00 691.00 153.50" xmlns="http://www.w3.org/2000/svg" xmlns:xlink="http://www.w3.org/1999/xlink">
<g id="graph0" class="graph" transform="scale(1 1) rotate(0) translate(4 149.5)">
<title>cppgc::internal::anonymous_namespace{concurrent&#45;marker::cc}::DrainWorklistWithYielding</title>
<polygon fill="white" stroke="transparent" points="-4,4 -4,-149.5 687,-149.5 687,4 -4,4"/>
<!-- Node1 -->
<g id="node1" class="node">
<title>Node1</title>
<g id="a_node1"><a xlink:title=" ">
<polygon fill="#bfbfbf" stroke="black" points="0,-33.5 0,-74.5 174,-74.5 174,-33.5 0,-33.5"/>
<text text-anchor="start" x="8" y="-62.5" font-family="Helvetica,sans-Serif" font-size="10.00">cppgc::internal::anonymous</text>
<text text-anchor="start" x="8" y="-51.5" font-family="Helvetica,sans-Serif" font-size="10.00">_namespace{concurrent&#45;marker</text>
<text text-anchor="middle" x="87" y="-40.5" font-family="Helvetica,sans-Serif" font-size="10.00">::cc}::DrainWorklistWithYielding</text>
</a>
</g>
</g>
<!-- Node2 -->
<g id="node2" class="node">
<title>Node2</title>
<g id="a_node2"><a xlink:href="classcppgc_1_1internal_1_1ConcurrentMarkerBase.html#a3c87ade86028795796b7aacb51158fbd" target="_top" xlink:title=" ">
<polygon fill="white" stroke="black" points="210,-88 210,-118 435,-118 435,-88 210,-88"/>
<text text-anchor="start" x="218" y="-106" font-family="Helvetica,sans-Serif" font-size="10.00">cppgc::internal::Concurrent</text>
<text text-anchor="middle" x="322.5" y="-95" font-family="Helvetica,sans-Serif" font-size="10.00">MarkerBase::AddConcurrentlyMarkedBytes</text>
</a>
</g>
</g>
<!-- Node1&#45;&gt;Node2 -->
<g id="edge1" class="edge">
<title>Node1&#45;&gt;Node2</title>
<path fill="none" stroke="midnightblue" d="M174.28,-72.11C195.7,-76.6 218.6,-81.41 239.79,-85.85"/>
<polygon fill="midnightblue" stroke="midnightblue" points="239.21,-89.31 249.72,-87.94 240.65,-82.46 239.21,-89.31"/>
</g>
<!-- Node5 -->
<g id="node5" class="node">
<title>Node5</title>
<g id="a_node5"><a xlink:href="classcppgc_1_1internal_1_1BasicMarkingState.html#aadc15e182c2605b8c2661826b002a1ed" target="_top" xlink:title=" ">
<polygon fill="white" stroke="black" points="242,-39 242,-69 403,-69 403,-39 242,-39"/>
<text text-anchor="start" x="250" y="-57" font-family="Helvetica,sans-Serif" font-size="10.00">cppgc::internal::BasicMarking</text>
<text text-anchor="middle" x="322.5" y="-46" font-family="Helvetica,sans-Serif" font-size="10.00">State::RecentlyMarkedBytes</text>
</a>
</g>
</g>
<!-- Node1&#45;&gt;Node5 -->
<g id="edge4" class="edge">
<title>Node1&#45;&gt;Node5</title>
<path fill="none" stroke="midnightblue" d="M174.28,-54C193,-54 212.85,-54 231.7,-54"/>
<polygon fill="midnightblue" stroke="midnightblue" points="231.76,-57.5 241.76,-54 231.76,-50.5 231.76,-57.5"/>
</g>
<!-- Node6 -->
<g id="node6" class="node">
<title>Node6</title>
<g id="a_node6"><a xlink:href="classv8_1_1JobDelegate.html#a7180a73d20fc8a240c742163001d8b3a" target="_top" xlink:title="Returns true if this thread must return from the worker task on the current thread ASAP.">
<polygon fill="white" stroke="black" points="244,-0.5 244,-19.5 401,-19.5 401,-0.5 244,-0.5"/>
<text text-anchor="middle" x="322.5" y="-7.5" font-family="Helvetica,sans-Serif" font-size="10.00">v8::JobDelegate::ShouldYield</text>
</a>
</g>
</g>
<!-- Node1&#45;&gt;Node6 -->
<g id="edge5" class="edge">
<title>Node1&#45;&gt;Node6</title>
<path fill="none" stroke="midnightblue" d="M174.24,-35.96C186.24,-33.55 198.42,-31.17 210,-29 223.9,-26.39 238.8,-23.75 253.05,-21.29"/>
<polygon fill="midnightblue" stroke="midnightblue" points="254.01,-24.68 263.28,-19.54 252.83,-17.78 254.01,-24.68"/>
</g>
<!-- Node3 -->
<g id="node3" class="node">
<title>Node3</title>
<g id="a_node3"><a xlink:href="classheap_1_1base_1_1IncrementalMarkingSchedule.html#ae6046f095c1234961a1159f7479aed11" target="_top" xlink:title=" ">
<polygon fill="white" stroke="black" points="471,-115 471,-145 683,-145 683,-115 471,-115"/>
<text text-anchor="start" x="479" y="-133" font-family="Helvetica,sans-Serif" font-size="10.00">heap::base::IncrementalMarking</text>
<text text-anchor="middle" x="577" y="-122" font-family="Helvetica,sans-Serif" font-size="10.00">Schedule::AddConcurrentlyMarkedBytes</text>
</a>
</g>
</g>
<!-- Node2&#45;&gt;Node3 -->
<g id="edge2" class="edge">
<title>Node2&#45;&gt;Node3</title>
<path fill="none" stroke="midnightblue" d="M435.35,-114.96C443.7,-115.85 452.13,-116.75 460.5,-117.65"/>
<polygon fill="midnightblue" stroke="midnightblue" points="460.35,-121.15 470.67,-118.74 461.09,-114.19 460.35,-121.15"/>
</g>
<!-- Node4 -->
<g id="node4" class="node">
<title>Node4</title>
<g id="a_node4"><a xlink:href="classcppgc_1_1internal_1_1ConcurrentMarkerBase.html#a7d6ec834587b4ba98495e7087d54c214" target="_top" xlink:title=" ">
<polygon fill="white" stroke="black" points="503,-54.5 503,-95.5 651,-95.5 651,-54.5 503,-54.5"/>
<text text-anchor="start" x="511" y="-83.5" font-family="Helvetica,sans-Serif" font-size="10.00">cppgc::internal::Concurrent</text>
<text text-anchor="start" x="511" y="-72.5" font-family="Helvetica,sans-Serif" font-size="10.00">MarkerBase::incremental</text>
<text text-anchor="middle" x="577" y="-61.5" font-family="Helvetica,sans-Serif" font-size="10.00">_marking_schedule</text>
</a>
</g>
</g>
<!-- Node2&#45;&gt;Node4 -->
<g id="edge3" class="edge">
<title>Node2&#45;&gt;Node4</title>
<path fill="none" stroke="midnightblue" d="M435.35,-90.6C454.61,-88.46 474.32,-86.28 492.65,-84.24"/>
<polygon fill="midnightblue" stroke="midnightblue" points="493.13,-87.71 502.69,-83.13 492.36,-80.75 493.13,-87.71"/>
</g>
</g>
</svg>
