<?xml version="1.0" encoding="UTF-8" standalone="no"?>
<!DOCTYPE svg PUBLIC "-//W3C//DTD SVG 1.1//EN"
 "http://www.w3.org/Graphics/SVG/1.1/DTD/svg11.dtd">
<!-- Generated by graphviz version 2.43.0 (0)
 -->
<!-- Title: v8::internal::CompareCharsEqualUnsigned Pages: 1 -->
<svg width="851pt" height="713pt"
 viewBox="0.00 0.00 851.00 712.50" xmlns="http://www.w3.org/2000/svg" xmlns:xlink="http://www.w3.org/1999/xlink">
<g id="graph0" class="graph" transform="scale(1 1) rotate(0) translate(4 708.5)">
<title>v8::internal::CompareCharsEqualUnsigned</title>
<polygon fill="white" stroke="transparent" points="-4,4 -4,-708.5 847,-708.5 847,4 -4,4"/>
<!-- Node1 -->
<g id="node1" class="node">
<title>Node1</title>
<g id="a_node1"><a xlink:title=" ">
<polygon fill="#bfbfbf" stroke="black" points="693,-172.5 693,-202.5 843,-202.5 843,-172.5 693,-172.5"/>
<text text-anchor="start" x="701" y="-190.5" font-family="Helvetica,sans-Serif" font-size="10.00">v8::internal::CompareChars</text>
<text text-anchor="middle" x="768" y="-179.5" font-family="Helvetica,sans-Serif" font-size="10.00">EqualUnsigned</text>
</a>
</g>
</g>
<!-- Node2 -->
<g id="node2" class="node">
<title>Node2</title>
<g id="a_node2"><a xlink:href="namespacev8_1_1internal.html#a75979deb107a3b8ddf9cd65c994d9a67" target="_top" xlink:title=" ">
<polygon fill="white" stroke="black" points="507,-315.5 507,-345.5 657,-345.5 657,-315.5 507,-315.5"/>
<text text-anchor="start" x="515" y="-333.5" font-family="Helvetica,sans-Serif" font-size="10.00">v8::internal::CompareChars</text>
<text text-anchor="middle" x="582" y="-322.5" font-family="Helvetica,sans-Serif" font-size="10.00">Equal</text>
</a>
</g>
</g>
<!-- Node1&#45;&gt;Node2 -->
<g id="edge1" class="edge">
<title>Node1&#45;&gt;Node2</title>
<path fill="none" stroke="midnightblue" d="M739.65,-208.76C702.02,-238 635.23,-289.91 602.36,-315.45"/>
<polygon fill="midnightblue" stroke="midnightblue" points="741.91,-211.43 747.66,-202.53 737.61,-205.91 741.91,-211.43"/>
</g>
<!-- Node53 -->
<g id="node21" class="node">
<title>Node53</title>
<g id="a_node21"><a xlink:href="classv8_1_1internal_1_1AstRawString.html#a91b9bb1db0522f8c0afe077dfc87f051" target="_top" xlink:title=" ">
<polygon fill="white" stroke="black" points="510.5,-148.5 510.5,-178.5 653.5,-178.5 653.5,-148.5 510.5,-148.5"/>
<text text-anchor="start" x="518.5" y="-166.5" font-family="Helvetica,sans-Serif" font-size="10.00">v8::internal::AstRawString</text>
<text text-anchor="middle" x="582" y="-155.5" font-family="Helvetica,sans-Serif" font-size="10.00">::Equal</text>
</a>
</g>
</g>
<!-- Node1&#45;&gt;Node53 -->
<g id="edge24" class="edge">
<title>Node1&#45;&gt;Node53</title>
<path fill="none" stroke="midnightblue" d="M682.83,-176.52C673.06,-175.25 663.17,-173.96 653.61,-172.71"/>
<polygon fill="midnightblue" stroke="midnightblue" points="682.59,-180.02 692.96,-177.84 683.49,-173.08 682.59,-180.02"/>
</g>
<!-- Node3 -->
<g id="node3" class="node">
<title>Node3</title>
<g id="a_node3"><a xlink:href="classv8_1_1internal_1_1compiler_1_1turboshaft_1_1SLPTree.html#a143659276c741e11a75d5a6703b9cca6" target="_top" xlink:title=" ">
<polygon fill="white" stroke="black" points="298.5,-595 298.5,-636 419.5,-636 419.5,-595 298.5,-595"/>
<text text-anchor="start" x="306.5" y="-624" font-family="Helvetica,sans-Serif" font-size="10.00">v8::internal::compiler</text>
<text text-anchor="start" x="306.5" y="-613" font-family="Helvetica,sans-Serif" font-size="10.00">::turboshaft::SLPTree</text>
<text text-anchor="middle" x="359" y="-602" font-family="Helvetica,sans-Serif" font-size="10.00">::BuildTreeRec</text>
</a>
</g>
</g>
<!-- Node2&#45;&gt;Node3 -->
<g id="edge2" class="edge">
<title>Node2&#45;&gt;Node3</title>
<path fill="none" stroke="midnightblue" d="M576.7,-355.58C566.93,-405.07 538.45,-515.81 471,-577.5 456.72,-590.56 437.75,-599.16 419.54,-604.81"/>
<polygon fill="midnightblue" stroke="midnightblue" points="580.15,-356.2 578.56,-345.72 573.27,-354.9 580.15,-356.2"/>
</g>
<!-- Node9 -->
<g id="node7" class="node">
<title>Node9</title>
<g id="a_node7"><a xlink:href="classv8_1_1internal_1_1StringComparator.html#a461c33dfaa39d470b8f1efcde929c6c3" target="_top" xlink:title=" ">
<polygon fill="white" stroke="black" points="277,-537.5 277,-567.5 441,-567.5 441,-537.5 277,-537.5"/>
<text text-anchor="start" x="285" y="-555.5" font-family="Helvetica,sans-Serif" font-size="10.00">v8::internal::StringComparator</text>
<text text-anchor="middle" x="359" y="-544.5" font-family="Helvetica,sans-Serif" font-size="10.00">::Equals</text>
</a>
</g>
</g>
<!-- Node2&#45;&gt;Node9 -->
<g id="edge8" class="edge">
<title>Node2&#45;&gt;Node9</title>
<path fill="none" stroke="midnightblue" d="M573.67,-355.43C560.26,-396.62 527.8,-478.67 471,-522.5 462.15,-529.33 451.86,-534.61 441.18,-538.68"/>
<polygon fill="midnightblue" stroke="midnightblue" points="577.09,-356.24 576.75,-345.65 570.41,-354.14 577.09,-356.24"/>
</g>
<!-- Node10 -->
<g id="node8" class="node">
<title>Node10</title>
<g id="a_node8"><a xlink:href="classv8_1_1internal_1_1String.html#ab6235239c18a7ca433639dd72662e891" target="_top" xlink:title=" ">
<polygon fill="white" stroke="black" points="52,-493.5 52,-523.5 159,-523.5 159,-493.5 52,-493.5"/>
<text text-anchor="start" x="60" y="-511.5" font-family="Helvetica,sans-Serif" font-size="10.00">v8::internal::String</text>
<text text-anchor="middle" x="105.5" y="-500.5" font-family="Helvetica,sans-Serif" font-size="10.00">::SlowEquals</text>
</a>
</g>
</g>
<!-- Node2&#45;&gt;Node10 -->
<g id="edge23" class="edge">
<title>Node2&#45;&gt;Node10</title>
<path fill="none" stroke="midnightblue" d="M572.2,-355C557.57,-391.67 524.46,-459.68 471,-489.5 419.05,-518.48 247.25,-515.17 159.33,-511.35"/>
<polygon fill="midnightblue" stroke="midnightblue" points="575.51,-356.14 575.84,-345.55 568.98,-353.62 575.51,-356.14"/>
</g>
<!-- Node11 -->
<g id="node9" class="node">
<title>Node11</title>
<g id="a_node9"><a xlink:href="classv8_1_1internal_1_1JsonParser.html#adcfa5a3e6fc2b128b46939cbedd2fc0b" target="_top" xlink:title=" ">
<polygon fill="white" stroke="black" points="295,-449.5 295,-479.5 423,-479.5 423,-449.5 295,-449.5"/>
<text text-anchor="start" x="303" y="-467.5" font-family="Helvetica,sans-Serif" font-size="10.00">v8::internal::JsonParser</text>
<text text-anchor="middle" x="359" y="-456.5" font-family="Helvetica,sans-Serif" font-size="10.00">::FastKeyMatch</text>
</a>
</g>
</g>
<!-- Node2&#45;&gt;Node11 -->
<g id="edge10" class="edge">
<title>Node2&#45;&gt;Node11</title>
<path fill="none" stroke="midnightblue" d="M564.19,-354.01C544.72,-379.4 510.24,-419.11 471,-440.5 456.37,-448.48 439.31,-453.8 423.01,-457.36"/>
<polygon fill="midnightblue" stroke="midnightblue" points="567.24,-355.77 570.43,-345.67 561.64,-351.57 567.24,-355.77"/>
</g>
<!-- Node12 -->
<g id="node10" class="node">
<title>Node12</title>
<g id="a_node10"><a xlink:href="classv8_1_1internal_1_1String.html#a821b0ba7da45556290454010200e74b4" target="_top" xlink:title=" ">
<polygon fill="white" stroke="black" points="305.5,-400.5 305.5,-430.5 412.5,-430.5 412.5,-400.5 305.5,-400.5"/>
<text text-anchor="start" x="313.5" y="-418.5" font-family="Helvetica,sans-Serif" font-size="10.00">v8::internal::String</text>
<text text-anchor="middle" x="359" y="-407.5" font-family="Helvetica,sans-Serif" font-size="10.00">::IsEqualToImpl</text>
</a>
</g>
</g>
<!-- Node2&#45;&gt;Node12 -->
<g id="edge11" class="edge">
<title>Node2&#45;&gt;Node12</title>
<path fill="none" stroke="midnightblue" d="M549.22,-350.92C527.84,-363.87 498.61,-380.09 471,-390.5 452.42,-397.5 431.33,-402.86 412.55,-406.78"/>
<polygon fill="midnightblue" stroke="midnightblue" points="551.19,-353.82 557.88,-345.6 547.53,-347.85 551.19,-353.82"/>
</g>
<!-- Node13 -->
<g id="node11" class="node">
<title>Node13</title>
<g id="a_node11"><a xlink:href="namespacev8_1_1internal_1_1anonymous__namespace_02builtins-typed-array_8cc_03.html#a2f2cc649350d178ace196f9d7132930f" target="_top" xlink:title=" ">
<polygon fill="white" stroke="black" points="276.5,-340 276.5,-381 441.5,-381 441.5,-340 276.5,-340"/>
<text text-anchor="start" x="284.5" y="-369" font-family="Helvetica,sans-Serif" font-size="10.00">v8::internal::anonymous</text>
<text text-anchor="start" x="284.5" y="-358" font-family="Helvetica,sans-Serif" font-size="10.00">_namespace{builtins&#45;typed</text>
<text text-anchor="middle" x="359" y="-347" font-family="Helvetica,sans-Serif" font-size="10.00">&#45;array::cc}::MapOptionToEnum</text>
</a>
</g>
</g>
<!-- Node2&#45;&gt;Node13 -->
<g id="edge12" class="edge">
<title>Node2&#45;&gt;Node13</title>
<path fill="none" stroke="midnightblue" d="M496.85,-341.92C478.74,-344.38 459.62,-346.98 441.61,-349.42"/>
<polygon fill="midnightblue" stroke="midnightblue" points="497.36,-345.39 506.8,-340.57 496.42,-338.45 497.36,-345.39"/>
</g>
<!-- Node17 -->
<g id="node14" class="node">
<title>Node17</title>
<g id="a_node14"><a xlink:href="structv8_1_1internal_1_1anonymous__namespace_02runtime_8cc_03_1_1IntrinsicFunctionIdentifier.html#a07cdedf14f004a1fd08c1028f6091342" target="_top" xlink:title=" ">
<polygon fill="white" stroke="black" points="268,-280 268,-321 450,-321 450,-280 268,-280"/>
<text text-anchor="start" x="276" y="-309" font-family="Helvetica,sans-Serif" font-size="10.00">v8::internal::anonymous</text>
<text text-anchor="start" x="276" y="-298" font-family="Helvetica,sans-Serif" font-size="10.00">_namespace{runtime::cc}</text>
<text text-anchor="middle" x="359" y="-287" font-family="Helvetica,sans-Serif" font-size="10.00">::IntrinsicFunctionIdentifier::Match</text>
</a>
</g>
</g>
<!-- Node2&#45;&gt;Node17 -->
<g id="edge15" class="edge">
<title>Node2&#45;&gt;Node17</title>
<path fill="none" stroke="midnightblue" d="M496.86,-319.08C481.58,-317 465.57,-314.83 450.12,-312.73"/>
<polygon fill="midnightblue" stroke="midnightblue" points="496.42,-322.55 506.8,-320.43 497.36,-315.61 496.42,-322.55"/>
</g>
<!-- Node18 -->
<g id="node15" class="node">
<title>Node18</title>
<g id="a_node15"><a xlink:href="namespacev8_1_1internal_1_1anonymous__namespace_02regexp-interpreter_8cc_03.html#a33a6307727f2521ae4fb375d725cae69" target="_top" xlink:title=" ">
<polygon fill="white" stroke="black" points="272.5,-220 272.5,-261 445.5,-261 445.5,-220 272.5,-220"/>
<text text-anchor="start" x="280.5" y="-249" font-family="Helvetica,sans-Serif" font-size="10.00">v8::internal::anonymous</text>
<text text-anchor="start" x="280.5" y="-238" font-family="Helvetica,sans-Serif" font-size="10.00">_namespace{regexp&#45;interpreter</text>
<text text-anchor="middle" x="359" y="-227" font-family="Helvetica,sans-Serif" font-size="10.00">::cc}::RawMatch</text>
</a>
</g>
</g>
<!-- Node2&#45;&gt;Node18 -->
<g id="edge16" class="edge">
<title>Node2&#45;&gt;Node18</title>
<path fill="none" stroke="midnightblue" d="M548.65,-310.22C527.25,-297.47 498.2,-281.42 471,-270.5 462.48,-267.08 453.43,-263.92 444.33,-261.04"/>
<polygon fill="midnightblue" stroke="midnightblue" points="546.96,-313.29 557.33,-315.46 550.58,-307.29 546.96,-313.29"/>
</g>
<!-- Node36 -->
<g id="node17" class="node">
<title>Node36</title>
<g id="a_node17"><a xlink:href="namespacev8_1_1internal_1_1anonymous__namespace_02temporal-parser_8cc_03.html#ae4de7b4aee146db3c2a0db4b480a259f" target="_top" xlink:title=" ">
<polygon fill="white" stroke="black" points="247,-160 247,-201 471,-201 471,-160 247,-160"/>
<text text-anchor="start" x="255" y="-189" font-family="Helvetica,sans-Serif" font-size="10.00">v8::internal::anonymous</text>
<text text-anchor="start" x="255" y="-178" font-family="Helvetica,sans-Serif" font-size="10.00">_namespace{temporal&#45;parser</text>
<text text-anchor="middle" x="359" y="-167" font-family="Helvetica,sans-Serif" font-size="10.00">::cc}::ScanEtcGMTASCIISignUnpaddedHour</text>
</a>
</g>
</g>
<!-- Node2&#45;&gt;Node36 -->
<g id="edge18" class="edge">
<title>Node2&#45;&gt;Node36</title>
<path fill="none" stroke="midnightblue" d="M565.63,-306.9C546.64,-279.62 511.79,-235.3 471,-210.5 465.2,-206.97 458.98,-203.85 452.56,-201.1"/>
<polygon fill="midnightblue" stroke="midnightblue" points="562.93,-309.15 571.45,-315.44 568.71,-305.21 562.93,-309.15"/>
</g>
<!-- Node51 -->
<g id="node19" class="node">
<title>Node51</title>
<g id="a_node19"><a xlink:href="classv8_1_1internal_1_1JsonParser.html#a5ae56cf2aac3b62383e63048d715ccba" target="_top" xlink:title=" ">
<polygon fill="white" stroke="black" points="295,-110.5 295,-140.5 423,-140.5 423,-110.5 295,-110.5"/>
<text text-anchor="start" x="303" y="-128.5" font-family="Helvetica,sans-Serif" font-size="10.00">v8::internal::JsonParser</text>
<text text-anchor="middle" x="359" y="-117.5" font-family="Helvetica,sans-Serif" font-size="10.00">::ScanLiteral</text>
</a>
</g>
</g>
<!-- Node2&#45;&gt;Node51 -->
<g id="edge20" class="edge">
<title>Node2&#45;&gt;Node51</title>
<path fill="none" stroke="midnightblue" d="M569.16,-306.2C547.15,-261.97 499.57,-170.98 471,-150.5 457.11,-140.55 439.94,-134.46 423.28,-130.77"/>
<polygon fill="midnightblue" stroke="midnightblue" points="566.13,-307.97 573.7,-315.38 572.41,-304.87 566.13,-307.97"/>
</g>
<!-- Node52 -->
<g id="node20" class="node">
<title>Node52</title>
<g id="a_node20"><a xlink:href="namespacev8_1_1internal_1_1anonymous__namespace_02temporal-parser_8cc_03.html#af7b93fc2e64bdeb68c84b8f87081195a" target="_top" xlink:title=" ">
<polygon fill="white" stroke="black" points="256,-50 256,-91 462,-91 462,-50 256,-50"/>
<text text-anchor="start" x="264" y="-79" font-family="Helvetica,sans-Serif" font-size="10.00">v8::internal::anonymous</text>
<text text-anchor="start" x="264" y="-68" font-family="Helvetica,sans-Serif" font-size="10.00">_namespace{temporal&#45;parser</text>
<text text-anchor="middle" x="359" y="-57" font-family="Helvetica,sans-Serif" font-size="10.00">::cc}::ScanTimeZoneIANALegacyName</text>
</a>
</g>
</g>
<!-- Node2&#45;&gt;Node52 -->
<g id="edge21" class="edge">
<title>Node2&#45;&gt;Node52</title>
<path fill="none" stroke="midnightblue" d="M567.58,-306.34C552.22,-278.34 526.65,-230.64 507,-188.5 489.31,-150.58 502.31,-129.26 471,-101.5 466.51,-97.52 461.55,-94.04 456.28,-91.01"/>
<polygon fill="midnightblue" stroke="midnightblue" points="564.67,-308.31 572.56,-315.38 570.8,-304.93 564.67,-308.31"/>
</g>
<!-- Node4 -->
<g id="node4" class="node">
<title>Node4</title>
<g id="a_node4"><a xlink:href="classv8_1_1internal_1_1compiler_1_1turboshaft_1_1SLPTree.html#ad972fec6838321fee6ef02bf649d759e" target="_top" xlink:title=" ">
<polygon fill="white" stroke="red" points="45,-663 45,-704 166,-704 166,-663 45,-663"/>
<text text-anchor="start" x="53" y="-692" font-family="Helvetica,sans-Serif" font-size="10.00">v8::internal::compiler</text>
<text text-anchor="start" x="53" y="-681" font-family="Helvetica,sans-Serif" font-size="10.00">::turboshaft::SLPTree</text>
<text text-anchor="middle" x="105.5" y="-670" font-family="Helvetica,sans-Serif" font-size="10.00">::BuildTree</text>
</a>
</g>
</g>
<!-- Node3&#45;&gt;Node4 -->
<g id="edge3" class="edge">
<title>Node3&#45;&gt;Node4</title>
<path fill="none" stroke="midnightblue" d="M288.33,-634.34C249.94,-644.72 202.78,-657.47 166.11,-667.38"/>
<polygon fill="midnightblue" stroke="midnightblue" points="289.66,-637.6 298.4,-631.62 287.83,-630.85 289.66,-637.6"/>
</g>
<!-- Node7 -->
<g id="node5" class="node">
<title>Node7</title>
<g id="a_node5"><a xlink:href="classv8_1_1internal_1_1compiler_1_1turboshaft_1_1SLPTree.html#af182c56c4afbd47e91a9bf1da889bc4c" target="_top" xlink:title=" ">
<polygon fill="white" stroke="black" points="0,-603 0,-644 211,-644 211,-603 0,-603"/>
<text text-anchor="start" x="8" y="-632" font-family="Helvetica,sans-Serif" font-size="10.00">v8::internal::compiler</text>
<text text-anchor="start" x="8" y="-621" font-family="Helvetica,sans-Serif" font-size="10.00">::turboshaft::SLPTree</text>
<text text-anchor="middle" x="105.5" y="-610" font-family="Helvetica,sans-Serif" font-size="10.00">::NewCommutativePackNodeAndRecurs</text>
</a>
</g>
</g>
<!-- Node3&#45;&gt;Node7 -->
<g id="edge4" class="edge">
<title>Node3&#45;&gt;Node7</title>
<path fill="none" stroke="midnightblue" d="M288.09,-611.6C264.36,-611.79 237.29,-612.46 211.44,-613.49"/>
<polygon fill="midnightblue" stroke="midnightblue" points="288.41,-615.1 298.4,-611.56 288.38,-608.1 288.41,-615.1"/>
</g>
<!-- Node8 -->
<g id="node6" class="node">
<title>Node8</title>
<g id="a_node6"><a xlink:href="classv8_1_1internal_1_1compiler_1_1turboshaft_1_1SLPTree.html#a06fe67f51339c6b59a99b4fd03d838ab" target="_top" xlink:title=" ">
<polygon fill="white" stroke="black" points="33.5,-543 33.5,-584 177.5,-584 177.5,-543 33.5,-543"/>
<text text-anchor="start" x="41.5" y="-572" font-family="Helvetica,sans-Serif" font-size="10.00">v8::internal::compiler</text>
<text text-anchor="start" x="41.5" y="-561" font-family="Helvetica,sans-Serif" font-size="10.00">::turboshaft::SLPTree</text>
<text text-anchor="middle" x="105.5" y="-550" font-family="Helvetica,sans-Serif" font-size="10.00">::NewPackNodeAndRecurs</text>
</a>
</g>
</g>
<!-- Node3&#45;&gt;Node8 -->
<g id="edge6" class="edge">
<title>Node3&#45;&gt;Node8</title>
<path fill="none" stroke="midnightblue" d="M288.42,-595C253.96,-587.04 212.43,-578.44 177.75,-572.08"/>
<polygon fill="midnightblue" stroke="midnightblue" points="287.86,-598.47 298.4,-597.34 289.46,-591.65 287.86,-598.47"/>
</g>
<!-- Node7&#45;&gt;Node3 -->
<g id="edge5" class="edge">
<title>Node7&#45;&gt;Node3</title>
<path fill="none" stroke="midnightblue" d="M221.58,-626.57C248.14,-625.83 275.34,-624.67 298.4,-623.24"/>
<polygon fill="midnightblue" stroke="midnightblue" points="221.34,-623.07 211.44,-626.83 221.52,-630.07 221.34,-623.07"/>
</g>
<!-- Node8&#45;&gt;Node3 -->
<g id="edge7" class="edge">
<title>Node8&#45;&gt;Node3</title>
<path fill="none" stroke="midnightblue" d="M186.45,-586.37C222.75,-594.56 264.94,-603.11 298.4,-609.02"/>
<polygon fill="midnightblue" stroke="midnightblue" points="186.91,-582.88 176.38,-584.07 185.35,-589.7 186.91,-582.88"/>
</g>
<!-- Node9&#45;&gt;Node10 -->
<g id="edge9" class="edge">
<title>Node9&#45;&gt;Node10</title>
<path fill="none" stroke="midnightblue" d="M266.61,-536.51C230.43,-530.18 190.14,-523.13 159.03,-517.69"/>
<polygon fill="midnightblue" stroke="midnightblue" points="266.24,-540 276.69,-538.28 267.45,-533.1 266.24,-540"/>
</g>
<!-- Node14 -->
<g id="node12" class="node">
<title>Node14</title>
<g id="a_node12"><a xlink:href="namespacev8_1_1internal.html#afa7a35e1cccc80bf6949c7af164f4175" target="_top" xlink:title=" ">
<polygon fill="white" stroke="black" points="47.5,-375 47.5,-394 163.5,-394 163.5,-375 47.5,-375"/>
<text text-anchor="middle" x="105.5" y="-382" font-family="Helvetica,sans-Serif" font-size="10.00">v8::internal::BUILTIN</text>
</a>
</g>
</g>
<!-- Node13&#45;&gt;Node14 -->
<g id="edge13" class="edge">
<title>Node13&#45;&gt;Node14</title>
<path fill="none" stroke="midnightblue" d="M266.32,-369.25C232.07,-372.52 194.18,-376.13 163.88,-379.02"/>
<polygon fill="midnightblue" stroke="midnightblue" points="266.72,-372.73 276.35,-368.29 266.06,-365.76 266.72,-372.73"/>
</g>
<!-- Node15 -->
<g id="node13" class="node">
<title>Node15</title>
<g id="a_node13"><a xlink:href="namespacev8_1_1internal_1_1anonymous__namespace_02builtins-typed-array_8cc_03.html#af52a56f8a6490ebc4c29a2d6f08bbbd1" target="_top" xlink:title=" ">
<polygon fill="white" stroke="red" points="23.5,-315 23.5,-356 187.5,-356 187.5,-315 23.5,-315"/>
<text text-anchor="start" x="31.5" y="-344" font-family="Helvetica,sans-Serif" font-size="10.00">v8::internal::anonymous</text>
<text text-anchor="start" x="31.5" y="-333" font-family="Helvetica,sans-Serif" font-size="10.00">_namespace{builtins&#45;typed</text>
<text text-anchor="middle" x="105.5" y="-322" font-family="Helvetica,sans-Serif" font-size="10.00">&#45;array::cc}::HandleOptionsBag</text>
</a>
</g>
</g>
<!-- Node13&#45;&gt;Node15 -->
<g id="edge14" class="edge">
<title>Node13&#45;&gt;Node15</title>
<path fill="none" stroke="midnightblue" d="M266.23,-351.38C240.53,-348.82 212.79,-346.07 187.75,-343.58"/>
<polygon fill="midnightblue" stroke="midnightblue" points="266.05,-354.88 276.35,-352.38 266.74,-347.91 266.05,-354.88"/>
</g>
<!-- Node19 -->
<g id="node16" class="node">
<title>Node19</title>
<g id="a_node16"><a xlink:href="classv8_1_1internal_1_1IrregexpInterpreter.html#ad2d6b539c61ffcd6229a433869fbd102" target="_top" xlink:title=" ">
<polygon fill="white" stroke="red" points="20.5,-225.5 20.5,-255.5 190.5,-255.5 190.5,-225.5 20.5,-225.5"/>
<text text-anchor="start" x="28.5" y="-243.5" font-family="Helvetica,sans-Serif" font-size="10.00">v8::internal::IrregexpInterpreter</text>
<text text-anchor="middle" x="105.5" y="-232.5" font-family="Helvetica,sans-Serif" font-size="10.00">::MatchInternal</text>
</a>
</g>
</g>
<!-- Node18&#45;&gt;Node19 -->
<g id="edge17" class="edge">
<title>Node18&#45;&gt;Node19</title>
<path fill="none" stroke="midnightblue" d="M261.85,-240.5C238.41,-240.5 213.52,-240.5 190.68,-240.5"/>
<polygon fill="midnightblue" stroke="midnightblue" points="262.15,-244 272.15,-240.5 262.15,-237 262.15,-244"/>
</g>
<!-- Node37 -->
<g id="node18" class="node">
<title>Node37</title>
<g id="a_node18"><a xlink:href="namespacev8_1_1internal_1_1anonymous__namespace_02temporal-parser_8cc_03.html#ad0a9f619520182e5bd4440f2fd76576c" target="_top" xlink:title=" ">
<polygon fill="white" stroke="red" points="20,-105 20,-146 191,-146 191,-105 20,-105"/>
<text text-anchor="start" x="28" y="-134" font-family="Helvetica,sans-Serif" font-size="10.00">v8::internal::anonymous</text>
<text text-anchor="start" x="28" y="-123" font-family="Helvetica,sans-Serif" font-size="10.00">_namespace{temporal&#45;parser</text>
<text text-anchor="middle" x="105.5" y="-112" font-family="Helvetica,sans-Serif" font-size="10.00">::cc}::ScanTimeZoneIANAName</text>
</a>
</g>
</g>
<!-- Node36&#45;&gt;Node37 -->
<g id="edge19" class="edge">
<title>Node36&#45;&gt;Node37</title>
<path fill="none" stroke="midnightblue" d="M254.13,-157.78C233.2,-153.21 211.45,-148.45 191.28,-144.04"/>
<polygon fill="midnightblue" stroke="midnightblue" points="253.48,-161.22 263.99,-159.94 254.97,-154.39 253.48,-161.22"/>
</g>
<!-- Node52&#45;&gt;Node37 -->
<g id="edge22" class="edge">
<title>Node52&#45;&gt;Node37</title>
<path fill="none" stroke="midnightblue" d="M254.13,-93.22C233.2,-97.79 211.45,-102.55 191.28,-106.96"/>
<polygon fill="midnightblue" stroke="midnightblue" points="254.97,-96.61 263.99,-91.06 253.48,-89.78 254.97,-96.61"/>
</g>
<!-- Node54 -->
<g id="node22" class="node">
<title>Node54</title>
<g id="a_node22"><a xlink:href="structv8_1_1internal_1_1AstRawStringMapMatcher.html#a8e6beba41e76e5d940f1a3c8f6d17a8b" target="_top" xlink:title=" ">
<polygon fill="white" stroke="black" points="287.5,-0.5 287.5,-30.5 430.5,-30.5 430.5,-0.5 287.5,-0.5"/>
<text text-anchor="start" x="295.5" y="-18.5" font-family="Helvetica,sans-Serif" font-size="10.00">v8::internal::AstRawString</text>
<text text-anchor="middle" x="359" y="-7.5" font-family="Helvetica,sans-Serif" font-size="10.00">MapMatcher::operator()</text>
</a>
</g>
</g>
<!-- Node53&#45;&gt;Node54 -->
<g id="edge25" class="edge">
<title>Node53&#45;&gt;Node54</title>
<path fill="none" stroke="midnightblue" d="M566.49,-139.81C547.94,-111.61 513.12,-65.25 471,-40.5 458.74,-33.29 444.59,-28.16 430.59,-24.51"/>
<polygon fill="midnightblue" stroke="midnightblue" points="563.58,-141.75 571.93,-148.27 569.47,-137.97 563.58,-141.75"/>
</g>
</g>
</svg>
