<?xml version="1.0" encoding="UTF-8" standalone="no"?>
<!DOCTYPE svg PUBLIC "-//W3C//DTD SVG 1.1//EN"
 "http://www.w3.org/Graphics/SVG/1.1/DTD/svg11.dtd">
<!-- Generated by graphviz version 2.43.0 (0)
 -->
<!-- Title: v8::internal::compiler::hash_value Pages: 1 -->
<svg width="544pt" height="176pt"
 viewBox="0.00 0.00 544.00 175.50" xmlns="http://www.w3.org/2000/svg" xmlns:xlink="http://www.w3.org/1999/xlink">
<g id="graph0" class="graph" transform="scale(1 1) rotate(0) translate(4 171.5)">
<title>v8::internal::compiler::hash_value</title>
<polygon fill="white" stroke="transparent" points="-4,4 -4,-171.5 540,-171.5 540,4 -4,4"/>
<!-- Node1 -->
<g id="node1" class="node">
<title>Node1</title>
<g id="a_node1"><a xlink:title=" ">
<polygon fill="#bfbfbf" stroke="black" points="0,-73.5 0,-103.5 121,-103.5 121,-73.5 0,-73.5"/>
<text text-anchor="start" x="8" y="-91.5" font-family="Helvetica,sans-Serif" font-size="10.00">v8::internal::compiler</text>
<text text-anchor="middle" x="60.5" y="-80.5" font-family="Helvetica,sans-Serif" font-size="10.00">::hash_value</text>
</a>
</g>
</g>
<!-- Node2 -->
<g id="node2" class="node">
<title>Node2</title>
<g id="a_node2"><a xlink:href="namespacev8_1_1base.html#abd21c4db15aaf03b5c13eac392cd930a" target="_top" xlink:title=" ">
<polygon fill="white" stroke="black" points="182.5,-148 182.5,-167 316.5,-167 316.5,-148 182.5,-148"/>
<text text-anchor="middle" x="249.5" y="-155" font-family="Helvetica,sans-Serif" font-size="10.00">v8::base::hash_combine</text>
</a>
</g>
</g>
<!-- Node1&#45;&gt;Node2 -->
<g id="edge1" class="edge">
<title>Node1&#45;&gt;Node2</title>
<path fill="none" stroke="midnightblue" d="M85.77,-103.62C104.58,-114.74 131.63,-129.42 157,-138.5 164.49,-141.18 172.48,-143.53 180.48,-145.58"/>
<polygon fill="midnightblue" stroke="midnightblue" points="179.69,-148.99 190.23,-147.93 181.33,-142.18 179.69,-148.99"/>
</g>
<!-- Node4 -->
<g id="node4" class="node">
<title>Node4</title>
<g id="a_node4"><a xlink:href="classv8_1_1internal_1_1compiler_1_1SelectParameters.html#a3e8da9cf418a45dbc42f6c495e9e2090" target="_top" xlink:title=" ">
<polygon fill="white" stroke="black" points="183,-98.5 183,-128.5 316,-128.5 316,-98.5 183,-98.5"/>
<text text-anchor="start" x="191" y="-116.5" font-family="Helvetica,sans-Serif" font-size="10.00">v8::internal::compiler</text>
<text text-anchor="middle" x="249.5" y="-105.5" font-family="Helvetica,sans-Serif" font-size="10.00">::SelectParameters::hint</text>
</a>
</g>
</g>
<!-- Node1&#45;&gt;Node4 -->
<g id="edge3" class="edge">
<title>Node1&#45;&gt;Node4</title>
<path fill="none" stroke="midnightblue" d="M121.18,-96.48C137.62,-98.68 155.68,-101.09 172.89,-103.39"/>
<polygon fill="midnightblue" stroke="midnightblue" points="172.53,-106.87 182.91,-104.73 173.46,-99.94 172.53,-106.87"/>
</g>
<!-- Node5 -->
<g id="node5" class="node">
<title>Node5</title>
<g id="a_node5"><a xlink:href="classv8_1_1internal_1_1compiler_1_1SelectParameters.html#a378e021b6fe43cd189ed01a04376a3cf" target="_top" xlink:title=" ">
<polygon fill="white" stroke="black" points="157,-49.5 157,-79.5 342,-79.5 342,-49.5 157,-49.5"/>
<text text-anchor="start" x="165" y="-67.5" font-family="Helvetica,sans-Serif" font-size="10.00">v8::internal::compiler</text>
<text text-anchor="middle" x="249.5" y="-56.5" font-family="Helvetica,sans-Serif" font-size="10.00">::SelectParameters::representation</text>
</a>
</g>
</g>
<!-- Node1&#45;&gt;Node5 -->
<g id="edge4" class="edge">
<title>Node1&#45;&gt;Node5</title>
<path fill="none" stroke="midnightblue" d="M121.18,-80.84C129.33,-79.8 137.86,-78.7 146.5,-77.59"/>
<polygon fill="midnightblue" stroke="midnightblue" points="147.19,-81.03 156.67,-76.29 146.3,-74.09 147.19,-81.03"/>
</g>
<!-- Node6 -->
<g id="node6" class="node">
<title>Node6</title>
<g id="a_node6"><a xlink:href="classv8_1_1internal_1_1compiler_1_1SelectParameters.html#a740e20762c98ba94a22aa8af3357f651" target="_top" xlink:title=" ">
<polygon fill="white" stroke="black" points="167.5,-0.5 167.5,-30.5 331.5,-30.5 331.5,-0.5 167.5,-0.5"/>
<text text-anchor="start" x="175.5" y="-18.5" font-family="Helvetica,sans-Serif" font-size="10.00">v8::internal::compiler</text>
<text text-anchor="middle" x="249.5" y="-7.5" font-family="Helvetica,sans-Serif" font-size="10.00">::SelectParameters::semantics</text>
</a>
</g>
</g>
<!-- Node1&#45;&gt;Node6 -->
<g id="edge5" class="edge">
<title>Node1&#45;&gt;Node6</title>
<path fill="none" stroke="midnightblue" d="M88.02,-73.37C106.83,-63.09 132.92,-49.74 157,-40.5 163.4,-38.04 170.15,-35.72 176.95,-33.56"/>
<polygon fill="midnightblue" stroke="midnightblue" points="178.39,-36.78 186.92,-30.51 176.34,-30.09 178.39,-36.78"/>
</g>
<!-- Node3 -->
<g id="node3" class="node">
<title>Node3</title>
<g id="a_node3"><a xlink:href="namespacev8_1_1base_1_1bits.html#a7d1c342908f433bf53e621256452ecdf" target="_top" xlink:title=" ">
<polygon fill="white" stroke="black" points="378,-148 378,-167 536,-167 536,-148 378,-148"/>
<text text-anchor="middle" x="457" y="-155" font-family="Helvetica,sans-Serif" font-size="10.00">v8::base::bits::RotateRight32</text>
</a>
</g>
</g>
<!-- Node2&#45;&gt;Node3 -->
<g id="edge2" class="edge">
<title>Node2&#45;&gt;Node3</title>
<path fill="none" stroke="midnightblue" d="M316.65,-157.5C332.93,-157.5 350.63,-157.5 367.77,-157.5"/>
<polygon fill="midnightblue" stroke="midnightblue" points="367.78,-161 377.78,-157.5 367.78,-154 367.78,-161"/>
</g>
</g>
</svg>
