<?xml version="1.0" encoding="UTF-8" standalone="no"?>
<!DOCTYPE svg PUBLIC "-//W3C//DTD SVG 1.1//EN"
 "http://www.w3.org/Graphics/SVG/1.1/DTD/svg11.dtd">
<!-- Generated by graphviz version 2.43.0 (0)
 -->
<!-- Title: v8::internal::compiler::MultiPopFPULatency Pages: 1 -->
<svg width="312pt" height="88pt"
 viewBox="0.00 0.00 312.00 88.00" xmlns="http://www.w3.org/2000/svg" xmlns:xlink="http://www.w3.org/1999/xlink">
<g id="graph0" class="graph" transform="scale(1 1) rotate(0) translate(4 84)">
<title>v8::internal::compiler::MultiPopFPULatency</title>
<polygon fill="white" stroke="transparent" points="-4,4 -4,-84 308,-84 308,4 -4,4"/>
<!-- Node1 -->
<g id="node1" class="node">
<title>Node1</title>
<g id="a_node1"><a xlink:title=" ">
<polygon fill="#bfbfbf" stroke="black" points="181,-24.5 181,-54.5 304,-54.5 304,-24.5 181,-24.5"/>
<text text-anchor="start" x="189" y="-42.5" font-family="Helvetica,sans-Serif" font-size="10.00">v8::internal::compiler</text>
<text text-anchor="middle" x="242.5" y="-31.5" font-family="Helvetica,sans-Serif" font-size="10.00">::MultiPopFPULatency</text>
</a>
</g>
</g>
<!-- Node2 -->
<g id="node2" class="node">
<title>Node2</title>
<g id="a_node2"><a xlink:href="namespacev8_1_1internal_1_1compiler.html#a99226cb5b737d1dc6721617e9a0567e7" target="_top" xlink:title=" ">
<polygon fill="white" stroke="black" points="0,-49.5 0,-79.5 145,-79.5 145,-49.5 0,-49.5"/>
<text text-anchor="start" x="8" y="-67.5" font-family="Helvetica,sans-Serif" font-size="10.00">v8::internal::compiler</text>
<text text-anchor="middle" x="72.5" y="-56.5" font-family="Helvetica,sans-Serif" font-size="10.00">::AssemblerReturnLatency</text>
</a>
</g>
</g>
<!-- Node1&#45;&gt;Node2 -->
<g id="edge1" class="edge">
<title>Node1&#45;&gt;Node2</title>
<path fill="none" stroke="midnightblue" d="M170.69,-50.04C162.26,-51.29 153.66,-52.57 145.22,-53.83"/>
<polygon fill="midnightblue" stroke="midnightblue" points="171.47,-53.46 180.85,-48.53 170.44,-46.54 171.47,-53.46"/>
</g>
<!-- Node3 -->
<g id="node3" class="node">
<title>Node3</title>
<g id="a_node3"><a xlink:href="namespacev8_1_1internal_1_1compiler.html#a99c5ff3b707832ab3896499eb864a780" target="_top" xlink:title=" ">
<polygon fill="white" stroke="black" points="4,-0.5 4,-30.5 141,-30.5 141,-0.5 4,-0.5"/>
<text text-anchor="start" x="12" y="-18.5" font-family="Helvetica,sans-Serif" font-size="10.00">v8::internal::compiler</text>
<text text-anchor="middle" x="72.5" y="-7.5" font-family="Helvetica,sans-Serif" font-size="10.00">::PopCallerSavedLatency</text>
</a>
</g>
</g>
<!-- Node1&#45;&gt;Node3 -->
<g id="edge2" class="edge">
<title>Node1&#45;&gt;Node3</title>
<path fill="none" stroke="midnightblue" d="M170.75,-29.39C160.96,-27.99 150.92,-26.56 141.18,-25.17"/>
<polygon fill="midnightblue" stroke="midnightblue" points="170.45,-32.89 180.85,-30.84 171.44,-25.96 170.45,-32.89"/>
</g>
</g>
</svg>
