<?xml version="1.0" encoding="UTF-8" standalone="no"?>
<!DOCTYPE svg PUBLIC "-//W3C//DTD SVG 1.1//EN"
 "http://www.w3.org/Graphics/SVG/1.1/DTD/svg11.dtd">
<!-- Generated by graphviz version 2.43.0 (0)
 -->
<!-- Title: v8::internal::compiler::anonymous_namespace{instruction&#45;selector&#45;x64::cc}::AddDisplacementToAddressingMode Pages: 1 -->
<svg width="419pt" height="66pt"
 viewBox="0.00 0.00 419.00 66.00" xmlns="http://www.w3.org/2000/svg" xmlns:xlink="http://www.w3.org/1999/xlink">
<g id="graph0" class="graph" transform="scale(1 1) rotate(0) translate(4 62)">
<title>v8::internal::compiler::anonymous_namespace{instruction&#45;selector&#45;x64::cc}::AddDisplacementToAddressingMode</title>
<polygon fill="white" stroke="transparent" points="-4,4 -4,-62 415,-62 415,4 -4,4"/>
<!-- Node1 -->
<g id="node1" class="node">
<title>Node1</title>
<g id="a_node1"><a xlink:title=" ">
<polygon fill="#bfbfbf" stroke="black" points="0,-3 0,-55 223,-55 223,-3 0,-3"/>
<text text-anchor="start" x="8" y="-43" font-family="Helvetica,sans-Serif" font-size="10.00">v8::internal::compiler</text>
<text text-anchor="start" x="8" y="-32" font-family="Helvetica,sans-Serif" font-size="10.00">::anonymous_namespace</text>
<text text-anchor="start" x="8" y="-21" font-family="Helvetica,sans-Serif" font-size="10.00">{instruction&#45;selector&#45;x64</text>
<text text-anchor="middle" x="111.5" y="-10" font-family="Helvetica,sans-Serif" font-size="10.00">::cc}::AddDisplacementToAddressingMode</text>
</a>
</g>
</g>
<!-- Node2 -->
<g id="node2" class="node">
<title>Node2</title>
<g id="a_node2"><a xlink:href="flag-definitions_8h.html#adaf90f045d5cd2710edd625b8685472a" target="_top" xlink:title=" ">
<polygon fill="white" stroke="black" points="313,-38.5 313,-57.5 357,-57.5 357,-38.5 313,-38.5"/>
<text text-anchor="middle" x="335" y="-45.5" font-family="Helvetica,sans-Serif" font-size="10.00">mode</text>
</a>
</g>
</g>
<!-- Node1&#45;&gt;Node2 -->
<g id="edge1" class="edge">
<title>Node1&#45;&gt;Node2</title>
<path fill="none" stroke="midnightblue" d="M223.25,-38.5C252.35,-41 281.46,-43.49 302.52,-45.3"/>
<polygon fill="midnightblue" stroke="midnightblue" points="302.5,-48.81 312.76,-46.18 303.1,-41.84 302.5,-48.81"/>
</g>
<!-- Node3 -->
<g id="node3" class="node">
<title>Node3</title>
<g id="a_node3"><a xlink:href="namespacev8_1_1internal.html#acdec713c25068019f935e35976f5b666" target="_top" xlink:title=" ">
<polygon fill="white" stroke="black" points="259,-0.5 259,-19.5 411,-19.5 411,-0.5 259,-0.5"/>
<text text-anchor="middle" x="335" y="-7.5" font-family="Helvetica,sans-Serif" font-size="10.00">v8::internal::UNREACHABLE</text>
</a>
</g>
</g>
<!-- Node1&#45;&gt;Node3 -->
<g id="edge2" class="edge">
<title>Node1&#45;&gt;Node3</title>
<path fill="none" stroke="midnightblue" d="M223.25,-19.5C231.78,-18.77 240.32,-18.04 248.65,-17.32"/>
<polygon fill="midnightblue" stroke="midnightblue" points="249.04,-20.8 258.7,-16.46 248.44,-13.83 249.04,-20.8"/>
</g>
</g>
</svg>
