<?xml version="1.0" encoding="UTF-8" standalone="no"?>
<!DOCTYPE svg PUBLIC "-//W3C//DTD SVG 1.1//EN"
 "http://www.w3.org/Graphics/SVG/1.1/DTD/svg11.dtd">
<!-- Generated by graphviz version 2.43.0 (0)
 -->
<!-- Title: v8::internal::PropertyKeyToArrayLength Pages: 1 -->
<!--zoomable 176 -->
<svg id="main" version="1.1" xmlns="http://www.w3.org/2000/svg" xmlns:xlink="http://www.w3.org/1999/xlink" xml:space="preserve" onload="init(evt)">
<style type="text/css"><![CDATA[
.edge:hover path { stroke: red; }
.edge:hover polygon { stroke: red; fill: red; }
]]></style>
<script type="text/javascript"><![CDATA[
var edges = document.getElementsByTagName('g');
if (edges && edges.length) {
  for (var i=0;i<edges.length;i++) {
    if (edges[i].id.substr(0,4)=='edge') {
      edges[i].setAttribute('class','edge');
    }
  }
}
]]></script>
        <defs>
                <circle id="rim" cx="0" cy="0" r="7"/>
                <circle id="rim2" cx="0" cy="0" r="3.5"/>
                <g id="zoomPlus">
                        <use xlink:href="#rim" fill="#404040">
                                <set attributeName="fill" to="#808080" begin="zoomplus.mouseover" end="zoomplus.mouseout"/>
                        </use>
                        <path d="M-4,0h8M0,-4v8" fill="none" stroke="white" stroke-width="1.5" pointer-events="none"/>
                </g>
                <g id="zoomMin">
                        <use xlink:href="#rim" fill="#404040">
                                <set attributeName="fill" to="#808080" begin="zoomminus.mouseover" end="zoomminus.mouseout"/>
                        </use>
                        <path d="M-4,0h8" fill="none" stroke="white" stroke-width="1.5" pointer-events="none"/>
                </g>
                <g id="dirArrow">
                        <path fill="none" stroke="white" stroke-width="1.5" d="M0,-3.0v7 M-2.5,-0.5L0,-3.0L2.5,-0.5"/>
                </g>
               <g id="resetDef">
                       <use xlink:href="#rim2" fill="#404040">
                               <set attributeName="fill" to="#808080" begin="reset.mouseover" end="reset.mouseout"/>
                       </use>
               </g>
        </defs>

<script type="text/javascript">
var viewWidth = 844;
var viewHeight = 176;
var sectionId = 'dynsection-1478';
</script>
<script xlink:href="svgpan.js"/>
<svg id="graph" class="graph">
<g id="viewport">
<title>v8::internal::PropertyKeyToArrayLength</title>
<polygon fill="white" stroke="transparent" points="-4,4 -4,-172 840,-172 840,4 -4,4"/>
<!-- Node1 -->
<g id="node1" class="node">
<title>Node1</title>
<g id="a_node1"><a xlink:title=" ">
<polygon fill="#bfbfbf" stroke="black" points="0,-93.5 0,-123.5 137,-123.5 137,-93.5 0,-93.5"/>
<text text-anchor="start" x="8" y="-111.5" font-family="Helvetica,sans-Serif" font-size="10.00">v8::internal::PropertyKey</text>
<text text-anchor="middle" x="68.5" y="-100.5" font-family="Helvetica,sans-Serif" font-size="10.00">ToArrayLength</text>
</a>
</g>
</g>
<!-- Node2 -->
<g id="node2" class="node">
<title>Node2</title>
<g id="a_node2"><a xlink:href="namespacev8_1_1internal.html#aa6b3743bd5d773c552654f2a6c3efa4a" target="_top" xlink:title=" ">
<polygon fill="white" stroke="black" points="176,-137 176,-156 295,-156 295,-137 176,-137"/>
<text text-anchor="middle" x="235.5" y="-144" font-family="Helvetica,sans-Serif" font-size="10.00">v8::internal::DCHECK</text>
</a>
</g>
</g>
<!-- Node1&#45;&gt;Node2 -->
<g id="edge1" class="edge">
<title>Node1&#45;&gt;Node2</title>
<path fill="none" stroke="midnightblue" d="M134.71,-123.52C150.82,-127.23 167.85,-131.15 183.19,-134.68"/>
<polygon fill="midnightblue" stroke="midnightblue" points="182.47,-138.11 193,-136.94 184.04,-131.29 182.47,-138.11"/>
</g>
<!-- Node3 -->
<g id="node3" class="node">
<title>Node3</title>
<g id="a_node3"><a xlink:href="namespacev8_1_1internal.html#a33a2826557a82e4cd9775aadf0f5711e" target="_top" xlink:title=" ">
<polygon fill="white" stroke="black" points="173,-99 173,-118 298,-118 298,-99 173,-99"/>
<text text-anchor="middle" x="235.5" y="-106" font-family="Helvetica,sans-Serif" font-size="10.00">v8::internal::IsNumber</text>
</a>
</g>
</g>
<!-- Node1&#45;&gt;Node3 -->
<g id="edge2" class="edge">
<title>Node1&#45;&gt;Node3</title>
<path fill="none" stroke="midnightblue" d="M137.09,-108.5C145.5,-108.5 154.13,-108.5 162.61,-108.5"/>
<polygon fill="midnightblue" stroke="midnightblue" points="162.85,-112 172.85,-108.5 162.85,-105 162.85,-112"/>
</g>
<!-- Node7 -->
<g id="node7" class="node">
<title>Node7</title>
<g id="a_node7"><a xlink:href="classv8_1_1internal_1_1Object.html#a20084255d0eed7215b26e90c05c3f8ba" target="_top" xlink:title=" ">
<polygon fill="white" stroke="black" points="180.5,-49.5 180.5,-79.5 290.5,-79.5 290.5,-49.5 180.5,-49.5"/>
<text text-anchor="start" x="188.5" y="-67.5" font-family="Helvetica,sans-Serif" font-size="10.00">v8::internal::Object</text>
<text text-anchor="middle" x="235.5" y="-56.5" font-family="Helvetica,sans-Serif" font-size="10.00">::ToArrayLength</text>
</a>
</g>
</g>
<!-- Node1&#45;&gt;Node7 -->
<g id="edge6" class="edge">
<title>Node1&#45;&gt;Node7</title>
<path fill="none" stroke="midnightblue" d="M125.82,-93.48C140.16,-89.66 155.67,-85.52 170.37,-81.6"/>
<polygon fill="midnightblue" stroke="midnightblue" points="171.62,-84.89 180.38,-78.93 169.82,-78.13 171.62,-84.89"/>
</g>
<!-- Node4 -->
<g id="node4" class="node">
<title>Node4</title>
<g id="a_node4"><a xlink:href="namespacev8_1_1internal.html#a53c61c7bac6bd1ede36ec245f2e0a1d8" target="_top" xlink:title=" ">
<polygon fill="white" stroke="black" points="334,-137.5 334,-167.5 475,-167.5 475,-137.5 334,-137.5"/>
<text text-anchor="start" x="342" y="-155.5" font-family="Helvetica,sans-Serif" font-size="10.00">v8::internal::GetPtrCompr</text>
<text text-anchor="middle" x="404.5" y="-144.5" font-family="Helvetica,sans-Serif" font-size="10.00">CageBase</text>
</a>
</g>
</g>
<!-- Node3&#45;&gt;Node4 -->
<g id="edge3" class="edge">
<title>Node3&#45;&gt;Node4</title>
<path fill="none" stroke="midnightblue" d="M272.74,-118.05C291.37,-122.96 314.69,-129.1 336.45,-134.83"/>
<polygon fill="midnightblue" stroke="midnightblue" points="335.76,-138.27 346.32,-137.43 337.54,-131.5 335.76,-138.27"/>
</g>
<!-- Node5 -->
<g id="node5" class="node">
<title>Node5</title>
<g id="a_node5"><a xlink:href="namespacev8_1_1internal.html#ac299e59759eecb4621f6bad64d5db952" target="_top" xlink:title=" ">
<polygon fill="white" stroke="black" points="536,-99 536,-118 641,-118 641,-99 536,-99"/>
<text text-anchor="middle" x="588.5" y="-106" font-family="Helvetica,sans-Serif" font-size="10.00">v8::internal::IsSmi</text>
</a>
</g>
</g>
<!-- Node3&#45;&gt;Node5 -->
<g id="edge4" class="edge">
<title>Node3&#45;&gt;Node5</title>
<path fill="none" stroke="midnightblue" d="M298.04,-108.5C361.92,-108.5 461.29,-108.5 525.39,-108.5"/>
<polygon fill="midnightblue" stroke="midnightblue" points="525.75,-112 535.75,-108.5 525.75,-105 525.75,-112"/>
</g>
<!-- Node6 -->
<g id="node6" class="node">
<title>Node6</title>
<g id="a_node6"><a xlink:href="classv8_1_1internal_1_1TaggedImpl.html#ac581f955a852851b751735177af20efa" target="_top" xlink:title=" ">
<polygon fill="white" stroke="black" points="702,-93.5 702,-123.5 836,-123.5 836,-93.5 702,-93.5"/>
<text text-anchor="start" x="710" y="-111.5" font-family="Helvetica,sans-Serif" font-size="10.00">v8::internal::TaggedImpl</text>
<text text-anchor="middle" x="769" y="-100.5" font-family="Helvetica,sans-Serif" font-size="10.00">::IsSmi</text>
</a>
</g>
</g>
<!-- Node5&#45;&gt;Node6 -->
<g id="edge5" class="edge">
<title>Node5&#45;&gt;Node6</title>
<path fill="none" stroke="midnightblue" d="M641.13,-108.5C656.82,-108.5 674.41,-108.5 691.37,-108.5"/>
<polygon fill="midnightblue" stroke="midnightblue" points="691.83,-112 701.83,-108.5 691.83,-105 691.83,-112"/>
</g>
<!-- Node8 -->
<g id="node8" class="node">
<title>Node8</title>
<g id="a_node8"><a xlink:href="classv8_1_1internal_1_1Object.html#ad8b2ab6a2ea5601b520f65410623573a" target="_top" xlink:title=" ">
<polygon fill="white" stroke="black" points="349.5,-49.5 349.5,-79.5 459.5,-79.5 459.5,-49.5 349.5,-49.5"/>
<text text-anchor="start" x="357.5" y="-67.5" font-family="Helvetica,sans-Serif" font-size="10.00">v8::internal::Object</text>
<text text-anchor="middle" x="404.5" y="-56.5" font-family="Helvetica,sans-Serif" font-size="10.00">::ToUint32</text>
</a>
</g>
</g>
<!-- Node7&#45;&gt;Node8 -->
<g id="edge7" class="edge">
<title>Node7&#45;&gt;Node8</title>
<path fill="none" stroke="midnightblue" d="M290.72,-64.5C306.11,-64.5 323.02,-64.5 338.96,-64.5"/>
<polygon fill="midnightblue" stroke="midnightblue" points="339.27,-68 349.27,-64.5 339.27,-61 339.27,-68"/>
</g>
<!-- Node8&#45;&gt;Node5 -->
<g id="edge9" class="edge">
<title>Node8&#45;&gt;Node5</title>
<path fill="none" stroke="midnightblue" d="M459.61,-77.58C484.57,-83.62 513.98,-90.73 538.31,-96.61"/>
<polygon fill="midnightblue" stroke="midnightblue" points="537.5,-100.01 548.04,-98.96 539.15,-93.21 537.5,-100.01"/>
</g>
<!-- Node9 -->
<g id="node9" class="node">
<title>Node9</title>
<g id="a_node9"><a xlink:href="namespacev8_1_1internal.html#a2a0d689e871741990623a35692767648" target="_top" xlink:title=" ">
<polygon fill="white" stroke="red" points="511,-49.5 511,-79.5 666,-79.5 666,-49.5 511,-49.5"/>
<text text-anchor="start" x="519" y="-67.5" font-family="Helvetica,sans-Serif" font-size="10.00">v8::internal::DoubleToUint32</text>
<text text-anchor="middle" x="588.5" y="-56.5" font-family="Helvetica,sans-Serif" font-size="10.00">IfEqualToSelf</text>
</a>
</g>
</g>
<!-- Node8&#45;&gt;Node9 -->
<g id="edge8" class="edge">
<title>Node8&#45;&gt;Node9</title>
<path fill="none" stroke="midnightblue" d="M459.61,-64.5C472.51,-64.5 486.6,-64.5 500.57,-64.5"/>
<polygon fill="midnightblue" stroke="midnightblue" points="500.69,-68 510.69,-64.5 500.69,-61 500.69,-68"/>
</g>
<!-- Node11 -->
<g id="node10" class="node">
<title>Node11</title>
<g id="a_node10"><a xlink:href="classv8_1_1internal_1_1Smi.html#a2e32de9e93a2cdfae189371f22782dad" target="_top" xlink:title=" ">
<polygon fill="white" stroke="black" points="537,-0.5 537,-30.5 640,-30.5 640,-0.5 537,-0.5"/>
<text text-anchor="start" x="545" y="-18.5" font-family="Helvetica,sans-Serif" font-size="10.00">v8::internal::Smi::</text>
<text text-anchor="middle" x="588.5" y="-7.5" font-family="Helvetica,sans-Serif" font-size="10.00">ToInt</text>
</a>
</g>
</g>
<!-- Node8&#45;&gt;Node11 -->
<g id="edge10" class="edge">
<title>Node8&#45;&gt;Node11</title>
<path fill="none" stroke="midnightblue" d="M459.61,-49.93C480.79,-44.23 505.16,-37.67 526.92,-31.81"/>
<polygon fill="midnightblue" stroke="midnightblue" points="527.96,-35.15 536.71,-29.17 526.15,-28.39 527.96,-35.15"/>
</g>
</g>
</svg>
        <g id="navigator" transform="translate(0 0)" fill="#404254">
                <rect fill="#f2f5e9" fill-opacity="0.5" stroke="#606060" stroke-width=".5" x="0" y="0" width="60" height="60"/>
                <use id="zoomplus" xlink:href="#zoomPlus" x="17" y="9" onmousedown="handleZoom(evt,'in')"/>
                <use id="zoomminus" xlink:href="#zoomMin" x="42" y="9" onmousedown="handleZoom(evt,'out')"/>
                <use id="reset" xlink:href="#resetDef" x="30" y="36" onmousedown="handleReset()"/>
                <g id="arrowUp" xlink:href="#dirArrow" transform="translate(30 24)" onmousedown="handlePan(0,-1)">
                  <use xlink:href="#rim" fill="#404040">
                        <set attributeName="fill" to="#808080" begin="arrowUp.mouseover" end="arrowUp.mouseout"/>
                  </use>
                  <path fill="none" stroke="white" stroke-width="1.5" d="M0,-3.0v7 M-2.5,-0.5L0,-3.0L2.5,-0.5"/>
                </g>
                <g id="arrowRight" xlink:href="#dirArrow" transform="rotate(90) translate(36 -43)" onmousedown="handlePan(1,0)">
                  <use xlink:href="#rim" fill="#404040">
                        <set attributeName="fill" to="#808080" begin="arrowRight.mouseover" end="arrowRight.mouseout"/>
                  </use>
                  <path fill="none" stroke="white" stroke-width="1.5" d="M0,-3.0v7 M-2.5,-0.5L0,-3.0L2.5,-0.5"/>
                </g>
                <g id="arrowDown" xlink:href="#dirArrow" transform="rotate(180) translate(-30 -48)" onmousedown="handlePan(0,1)">
                  <use xlink:href="#rim" fill="#404040">
                        <set attributeName="fill" to="#808080" begin="arrowDown.mouseover" end="arrowDown.mouseout"/>
                  </use>
                  <path fill="none" stroke="white" stroke-width="1.5" d="M0,-3.0v7 M-2.5,-0.5L0,-3.0L2.5,-0.5"/>
                </g>
                <g id="arrowLeft" xlink:href="#dirArrow" transform="rotate(270) translate(-36 17)" onmousedown="handlePan(-1,0)">
                  <use xlink:href="#rim" fill="#404040">
                        <set attributeName="fill" to="#808080" begin="arrowLeft.mouseover" end="arrowLeft.mouseout"/>
                  </use>
                  <path fill="none" stroke="white" stroke-width="1.5" d="M0,-3.0v7 M-2.5,-0.5L0,-3.0L2.5,-0.5"/>
                </g>
        </g>
        <svg viewBox="0 0 15 15" width="100%" height="30px" preserveAspectRatio="xMaxYMin meet">
         <g id="arrow_out" transform="scale(0.3 0.3)">
          <a xlink:href="namespacev8_1_1internal_ab9e1158dde9429c0bc4a58858cbde5f3_cgraph_org.svg" target="_base">
           <rect id="button" ry="5" rx="5" y="6" x="6" height="38" width="38"
                fill="#f2f5e9" fill-opacity="0.5" stroke="#606060" stroke-width="1.0"/>
           <path id="arrow"
             d="M 11.500037,31.436501 C 11.940474,20.09759 22.043105,11.32322 32.158766,21.979434 L 37.068811,17.246167 C 37.068811,17.246167 37.088388,32 37.088388,32 L 22.160133,31.978069 C 22.160133,31.978069 26.997745,27.140456 26.997745,27.140456 C 18.528582,18.264221 13.291696,25.230495 11.500037,31.436501 z"
             style="fill:#404040;"/>
          </a>
         </g>
        </svg>
</svg>
