<?xml version="1.0" encoding="UTF-8" standalone="no"?>
<!DOCTYPE svg PUBLIC "-//W3C//DTD SVG 1.1//EN"
 "http://www.w3.org/Graphics/SVG/1.1/DTD/svg11.dtd">
<!-- Generated by graphviz version 2.43.0 (0)
 -->
<!-- Title: v8::internal::anonymous_namespace{object&#45;stats::cc}::IterateHeap Pages: 1 -->
<!--zoomable 1231 -->
<svg id="main" version="1.1" xmlns="http://www.w3.org/2000/svg" xmlns:xlink="http://www.w3.org/1999/xlink" xml:space="preserve" onload="init(evt)">
<style type="text/css"><![CDATA[
.edge:hover path { stroke: red; }
.edge:hover polygon { stroke: red; fill: red; }
]]></style>
<script type="text/javascript"><![CDATA[
var edges = document.getElementsByTagName('g');
if (edges && edges.length) {
  for (var i=0;i<edges.length;i++) {
    if (edges[i].id.substr(0,4)=='edge') {
      edges[i].setAttribute('class','edge');
    }
  }
}
]]></script>
        <defs>
                <circle id="rim" cx="0" cy="0" r="7"/>
                <circle id="rim2" cx="0" cy="0" r="3.5"/>
                <g id="zoomPlus">
                        <use xlink:href="#rim" fill="#404040">
                                <set attributeName="fill" to="#808080" begin="zoomplus.mouseover" end="zoomplus.mouseout"/>
                        </use>
                        <path d="M-4,0h8M0,-4v8" fill="none" stroke="white" stroke-width="1.5" pointer-events="none"/>
                </g>
                <g id="zoomMin">
                        <use xlink:href="#rim" fill="#404040">
                                <set attributeName="fill" to="#808080" begin="zoomminus.mouseover" end="zoomminus.mouseout"/>
                        </use>
                        <path d="M-4,0h8" fill="none" stroke="white" stroke-width="1.5" pointer-events="none"/>
                </g>
                <g id="dirArrow">
                        <path fill="none" stroke="white" stroke-width="1.5" d="M0,-3.0v7 M-2.5,-0.5L0,-3.0L2.5,-0.5"/>
                </g>
               <g id="resetDef">
                       <use xlink:href="#rim2" fill="#404040">
                               <set attributeName="fill" to="#808080" begin="reset.mouseover" end="reset.mouseout"/>
                       </use>
               </g>
        </defs>

<script type="text/javascript">
var viewWidth = 1185;
var viewHeight = 1231;
var sectionId = 'dynsection-2';
</script>
<script xlink:href="svgpan.js"/>
<svg id="graph" class="graph">
<g id="viewport">
<title>v8::internal::anonymous_namespace{object&#45;stats::cc}::IterateHeap</title>
<polygon fill="white" stroke="transparent" points="-4,4 -4,-1227 1181,-1227 1181,4 -4,4"/>
<!-- Node1 -->
<g id="node1" class="node">
<title>Node1</title>
<g id="a_node1"><a xlink:title=" ">
<polygon fill="#bfbfbf" stroke="black" points="0,-1103.5 0,-1144.5 142,-1144.5 142,-1103.5 0,-1103.5"/>
<text text-anchor="start" x="8" y="-1132.5" font-family="Helvetica,sans-Serif" font-size="10.00">v8::internal::anonymous</text>
<text text-anchor="start" x="8" y="-1121.5" font-family="Helvetica,sans-Serif" font-size="10.00">_namespace{object&#45;stats</text>
<text text-anchor="middle" x="71" y="-1110.5" font-family="Helvetica,sans-Serif" font-size="10.00">::cc}::IterateHeap</text>
</a>
</g>
</g>
<!-- Node2 -->
<g id="node2" class="node">
<title>Node2</title>
<g id="a_node2"><a xlink:href="classv8_1_1internal_1_1Tagged_3_01HeapObject_01_4.html#a0930e2a8cbe8abbc5cdd476902fe6c88" target="_top" xlink:title=" ">
<polygon fill="white" stroke="black" points="828,-1180 828,-1210 962,-1210 962,-1180 828,-1180"/>
<text text-anchor="start" x="836" y="-1198" font-family="Helvetica,sans-Serif" font-size="10.00">v8::internal::Tagged</text>
<text text-anchor="middle" x="895" y="-1187" font-family="Helvetica,sans-Serif" font-size="10.00">&lt; HeapObject &gt;::is_null</text>
</a>
</g>
</g>
<!-- Node1&#45;&gt;Node2 -->
<g id="edge1" class="edge">
<title>Node1&#45;&gt;Node2</title>
<path fill="none" stroke="midnightblue" d="M140.17,-1144.55C199.53,-1161.61 288.19,-1185.1 367,-1198 543.9,-1226.95 591.27,-1227.61 770,-1214 785.5,-1212.82 801.99,-1210.82 817.72,-1208.55"/>
<polygon fill="midnightblue" stroke="midnightblue" points="818.56,-1211.97 827.93,-1207.03 817.52,-1205.04 818.56,-1211.97"/>
</g>
<!-- Node4 -->
<g id="node4" class="node">
<title>Node4</title>
<g id="a_node4"><a xlink:href="classv8_1_1internal_1_1CombinedHeapObjectIterator.html#a5b7bc2d5648e3b8b338c71c754bb13d1" target="_top" xlink:title=" ">
<polygon fill="white" stroke="black" points="178,-1109 178,-1139 331,-1139 331,-1109 178,-1109"/>
<text text-anchor="start" x="186" y="-1127" font-family="Helvetica,sans-Serif" font-size="10.00">v8::internal::CombinedHeap</text>
<text text-anchor="middle" x="254.5" y="-1116" font-family="Helvetica,sans-Serif" font-size="10.00">ObjectIterator::Next</text>
</a>
</g>
</g>
<!-- Node1&#45;&gt;Node4 -->
<g id="edge3" class="edge">
<title>Node1&#45;&gt;Node4</title>
<path fill="none" stroke="midnightblue" d="M142.17,-1124C150.56,-1124 159.2,-1124 167.77,-1124"/>
<polygon fill="midnightblue" stroke="midnightblue" points="167.8,-1127.5 177.8,-1124 167.8,-1120.5 167.8,-1127.5"/>
</g>
<!-- Node31 -->
<g id="node11" class="node">
<title>Node31</title>
<g id="a_node11"><a xlink:href="classv8_1_1internal_1_1ObjectStatsVisitor.html#a952741b39108583ef72d3d9928fd4d19" target="_top" xlink:title=" ">
<polygon fill="white" stroke="black" points="187.5,-825 187.5,-855 321.5,-855 321.5,-825 187.5,-825"/>
<text text-anchor="start" x="195.5" y="-843" font-family="Helvetica,sans-Serif" font-size="10.00">v8::internal::ObjectStats</text>
<text text-anchor="middle" x="254.5" y="-832" font-family="Helvetica,sans-Serif" font-size="10.00">Visitor::Visit</text>
</a>
</g>
</g>
<!-- Node1&#45;&gt;Node31 -->
<g id="edge13" class="edge">
<title>Node1&#45;&gt;Node31</title>
<path fill="none" stroke="midnightblue" d="M85.35,-1103.12C118.31,-1051.53 203.45,-918.32 238.29,-863.8"/>
<polygon fill="midnightblue" stroke="midnightblue" points="241.38,-865.47 243.81,-855.16 235.48,-861.7 241.38,-865.47"/>
</g>
<!-- Node3 -->
<g id="node3" class="node">
<title>Node3</title>
<g id="a_node3"><a xlink:href="classv8_1_1internal_1_1TaggedImpl.html#a4dba1b2eafcf7a414910966f950540c9" target="_top" xlink:title=" ">
<polygon fill="white" stroke="black" points="1020,-1174.5 1020,-1215.5 1177,-1215.5 1177,-1174.5 1020,-1174.5"/>
<text text-anchor="start" x="1028" y="-1203.5" font-family="Helvetica,sans-Serif" font-size="10.00">v8::internal::TaggedImpl</text>
<text text-anchor="start" x="1028" y="-1192.5" font-family="Helvetica,sans-Serif" font-size="10.00">&lt; HeapObjectReferenceType</text>
<text text-anchor="middle" x="1098.5" y="-1181.5" font-family="Helvetica,sans-Serif" font-size="10.00">::STRONG, Address &gt;::ptr</text>
</a>
</g>
</g>
<!-- Node2&#45;&gt;Node3 -->
<g id="edge2" class="edge">
<title>Node2&#45;&gt;Node3</title>
<path fill="none" stroke="midnightblue" d="M962.26,-1195C977.31,-1195 993.54,-1195 1009.34,-1195"/>
<polygon fill="midnightblue" stroke="midnightblue" points="1009.65,-1198.5 1019.65,-1195 1009.65,-1191.5 1009.65,-1198.5"/>
</g>
<!-- Node5 -->
<g id="node5" class="node">
<title>Node5</title>
<g id="a_node5"><a xlink:href="classv8_1_1internal_1_1HeapObjectIterator.html#aaf2e81d1a684f0f26633befe41d911cc" target="_top" xlink:title=" ">
<polygon fill="white" stroke="black" points="383,-1158 383,-1188 518,-1188 518,-1158 383,-1158"/>
<text text-anchor="start" x="391" y="-1176" font-family="Helvetica,sans-Serif" font-size="10.00">v8::internal::HeapObject</text>
<text text-anchor="middle" x="450.5" y="-1165" font-family="Helvetica,sans-Serif" font-size="10.00">Iterator::Next</text>
</a>
</g>
</g>
<!-- Node4&#45;&gt;Node5 -->
<g id="edge4" class="edge">
<title>Node4&#45;&gt;Node5</title>
<path fill="none" stroke="midnightblue" d="M315.02,-1139.03C335.6,-1144.23 358.84,-1150.1 380.13,-1155.48"/>
<polygon fill="midnightblue" stroke="midnightblue" points="379.54,-1158.94 390.09,-1157.99 381.25,-1152.15 379.54,-1158.94"/>
</g>
<!-- Node11 -->
<g id="node7" class="node">
<title>Node11</title>
<g id="a_node7"><a xlink:href="classv8_1_1internal_1_1ReadOnlyHeapObjectIterator.html#a5822fb0f32499856af76023b9ecda43a" target="_top" xlink:title=" ">
<polygon fill="white" stroke="black" points="375,-1060 375,-1090 526,-1090 526,-1060 375,-1060"/>
<text text-anchor="start" x="383" y="-1078" font-family="Helvetica,sans-Serif" font-size="10.00">v8::internal::ReadOnlyHeap</text>
<text text-anchor="middle" x="450.5" y="-1067" font-family="Helvetica,sans-Serif" font-size="10.00">ObjectIterator::Next</text>
</a>
</g>
</g>
<!-- Node4&#45;&gt;Node11 -->
<g id="edge8" class="edge">
<title>Node4&#45;&gt;Node11</title>
<path fill="none" stroke="midnightblue" d="M315.02,-1108.97C335.6,-1103.77 358.84,-1097.9 380.13,-1092.52"/>
<polygon fill="midnightblue" stroke="midnightblue" points="381.25,-1095.85 390.09,-1090.01 379.54,-1089.06 381.25,-1095.85"/>
</g>
<!-- Node5&#45;&gt;Node2 -->
<g id="edge5" class="edge">
<title>Node5&#45;&gt;Node2</title>
<path fill="none" stroke="midnightblue" d="M510.79,-1188.03C529.59,-1192.12 550.55,-1195.97 570,-1198 654.31,-1206.8 751.62,-1204.2 817.42,-1200.57"/>
<polygon fill="midnightblue" stroke="midnightblue" points="817.92,-1204.05 827.71,-1199.98 817.52,-1197.06 817.92,-1204.05"/>
</g>
<!-- Node6 -->
<g id="node6" class="node">
<title>Node6</title>
<g id="a_node6"><a xlink:href="classv8_1_1internal_1_1HeapObjectIterator.html#a1cb9aad7045b70424b3f77883518fd63" target="_top" xlink:title=" ">
<polygon fill="white" stroke="red" points="602.5,-1158 602.5,-1188 737.5,-1188 737.5,-1158 602.5,-1158"/>
<text text-anchor="start" x="610.5" y="-1176" font-family="Helvetica,sans-Serif" font-size="10.00">v8::internal::HeapObject</text>
<text text-anchor="middle" x="670" y="-1165" font-family="Helvetica,sans-Serif" font-size="10.00">Iterator::NextObject</text>
</a>
</g>
</g>
<!-- Node5&#45;&gt;Node6 -->
<g id="edge6" class="edge">
<title>Node5&#45;&gt;Node6</title>
<path fill="none" stroke="midnightblue" d="M518.24,-1173C541.62,-1173 568.06,-1173 592.2,-1173"/>
<polygon fill="midnightblue" stroke="midnightblue" points="592.39,-1176.5 602.39,-1173 592.39,-1169.5 592.39,-1176.5"/>
</g>
<!-- Node6&#45;&gt;Node2 -->
<g id="edge7" class="edge">
<title>Node6&#45;&gt;Node2</title>
<path fill="none" stroke="midnightblue" d="M737.61,-1179.57C762.76,-1182.05 791.57,-1184.89 817.55,-1187.46"/>
<polygon fill="midnightblue" stroke="midnightblue" points="817.44,-1190.96 827.74,-1188.46 818.13,-1184 817.44,-1190.96"/>
</g>
<!-- Node11&#45;&gt;Node2 -->
<g id="edge9" class="edge">
<title>Node11&#45;&gt;Node2</title>
<path fill="none" stroke="midnightblue" d="M468.87,-1059.93C490.73,-1042.05 530.25,-1013.26 570,-1002 655.52,-977.77 691.99,-959.4 770,-1002 836.2,-1038.15 872.31,-1126.44 886.63,-1169.94"/>
<polygon fill="midnightblue" stroke="midnightblue" points="883.37,-1171.25 889.73,-1179.73 890.05,-1169.14 883.37,-1171.25"/>
</g>
<!-- Node12 -->
<g id="node8" class="node">
<title>Node12</title>
<g id="a_node8"><a xlink:href="classv8_1_1internal_1_1ReadOnlyPageObjectIterator.html#acc0d5d81d8f0899f90be94d9c54d2a74" target="_top" xlink:title=" ">
<polygon fill="white" stroke="red" points="595.5,-1060 595.5,-1090 744.5,-1090 744.5,-1060 595.5,-1060"/>
<text text-anchor="start" x="603.5" y="-1078" font-family="Helvetica,sans-Serif" font-size="10.00">v8::internal::ReadOnlyPage</text>
<text text-anchor="middle" x="670" y="-1067" font-family="Helvetica,sans-Serif" font-size="10.00">ObjectIterator::Next</text>
</a>
</g>
</g>
<!-- Node11&#45;&gt;Node12 -->
<g id="edge10" class="edge">
<title>Node11&#45;&gt;Node12</title>
<path fill="none" stroke="midnightblue" d="M526.05,-1075C545.11,-1075 565.72,-1075 585.21,-1075"/>
<polygon fill="midnightblue" stroke="midnightblue" points="585.29,-1078.5 595.29,-1075 585.29,-1071.5 585.29,-1078.5"/>
</g>
<!-- Node29 -->
<g id="node9" class="node">
<title>Node29</title>
<g id="a_node9"><a xlink:href="classv8_1_1internal_1_1ReadOnlySpace.html#abea87923f22c92e9dc119204287b7f15" target="_top" xlink:title=" ">
<polygon fill="white" stroke="black" points="592.5,-1011 592.5,-1041 747.5,-1041 747.5,-1011 592.5,-1011"/>
<text text-anchor="start" x="600.5" y="-1029" font-family="Helvetica,sans-Serif" font-size="10.00">v8::internal::ReadOnlySpace</text>
<text text-anchor="middle" x="670" y="-1018" font-family="Helvetica,sans-Serif" font-size="10.00">::pages</text>
</a>
</g>
</g>
<!-- Node11&#45;&gt;Node29 -->
<g id="edge11" class="edge">
<title>Node11&#45;&gt;Node29</title>
<path fill="none" stroke="midnightblue" d="M518.24,-1059.97C541.72,-1054.67 568.3,-1048.69 592.53,-1043.23"/>
<polygon fill="midnightblue" stroke="midnightblue" points="593.4,-1046.62 602.39,-1041.01 591.87,-1039.79 593.4,-1046.62"/>
</g>
<!-- Node30 -->
<g id="node10" class="node">
<title>Node30</title>
<g id="a_node10"><a xlink:href="classv8_1_1internal_1_1ReadOnlyPageObjectIterator.html#ab31d4d7c7fa98954c2fabf46645655c4" target="_top" xlink:title=" ">
<polygon fill="white" stroke="red" points="595.5,-1109 595.5,-1139 744.5,-1139 744.5,-1109 595.5,-1109"/>
<text text-anchor="start" x="603.5" y="-1127" font-family="Helvetica,sans-Serif" font-size="10.00">v8::internal::ReadOnlyPage</text>
<text text-anchor="middle" x="670" y="-1116" font-family="Helvetica,sans-Serif" font-size="10.00">ObjectIterator::Reset</text>
</a>
</g>
</g>
<!-- Node11&#45;&gt;Node30 -->
<g id="edge12" class="edge">
<title>Node11&#45;&gt;Node30</title>
<path fill="none" stroke="midnightblue" d="M518.24,-1090.03C541.72,-1095.33 568.3,-1101.31 592.53,-1106.77"/>
<polygon fill="midnightblue" stroke="midnightblue" points="591.87,-1110.21 602.39,-1108.99 593.4,-1103.38 591.87,-1110.21"/>
</g>
<!-- Node32 -->
<g id="node12" class="node">
<title>Node32</title>
<g id="a_node12"><a xlink:href="classv8_1_1internal_1_1ObjectStatsCollectorImpl.html#a96feb8aefecb281c222111c6758bb213" target="_top" xlink:title=" ">
<polygon fill="white" stroke="black" points="367,-492 367,-522 534,-522 534,-492 367,-492"/>
<text text-anchor="start" x="375" y="-510" font-family="Helvetica,sans-Serif" font-size="10.00">v8::internal::ObjectStats</text>
<text text-anchor="middle" x="450.5" y="-499" font-family="Helvetica,sans-Serif" font-size="10.00">CollectorImpl::CollectStatistics</text>
</a>
</g>
</g>
<!-- Node31&#45;&gt;Node32 -->
<g id="edge14" class="edge">
<title>Node31&#45;&gt;Node32</title>
<path fill="none" stroke="midnightblue" d="M264.34,-824.83C295.14,-771.95 397.92,-595.53 435.55,-530.95"/>
<polygon fill="midnightblue" stroke="midnightblue" points="438.6,-532.67 440.61,-522.26 432.55,-529.14 438.6,-532.67"/>
</g>
<!-- Node98 -->
<g id="node31" class="node">
<title>Node98</title>
<g id="a_node31"><a xlink:href="structv8_1_1internal_1_1MarkingHelper.html#a526aa3d8b3fa085271b2f23137766544" target="_top" xlink:title=" ">
<polygon fill="white" stroke="red" points="375.5,-825 375.5,-855 525.5,-855 525.5,-825 375.5,-825"/>
<text text-anchor="start" x="383.5" y="-843" font-family="Helvetica,sans-Serif" font-size="10.00">v8::internal::MarkingHelper</text>
<text text-anchor="middle" x="450.5" y="-832" font-family="Helvetica,sans-Serif" font-size="10.00">::IsMarkedOrAlwaysLive</text>
</a>
</g>
</g>
<!-- Node31&#45;&gt;Node98 -->
<g id="edge41" class="edge">
<title>Node31&#45;&gt;Node98</title>
<path fill="none" stroke="midnightblue" d="M321.72,-840C335.72,-840 350.68,-840 365.25,-840"/>
<polygon fill="midnightblue" stroke="midnightblue" points="365.25,-843.5 375.25,-840 365.25,-836.5 365.25,-843.5"/>
</g>
<!-- Node33 -->
<g id="node13" class="node">
<title>Node33</title>
<g id="a_node13"><a xlink:href="classv8_1_1internal_1_1ObjectStatsCollectorImpl.html#adb8754abcdb7cc3ddd10212f1739b22e" target="_top" xlink:title=" ">
<polygon fill="white" stroke="red" points="825,-615 825,-645 965,-645 965,-615 825,-615"/>
<text text-anchor="start" x="833" y="-633" font-family="Helvetica,sans-Serif" font-size="10.00">v8::internal::ObjectStats</text>
<text text-anchor="middle" x="895" y="-622" font-family="Helvetica,sans-Serif" font-size="10.00">CollectorImpl::cage_base</text>
</a>
</g>
</g>
<!-- Node32&#45;&gt;Node33 -->
<g id="edge15" class="edge">
<title>Node32&#45;&gt;Node33</title>
<path fill="none" stroke="midnightblue" d="M453.57,-522.03C460.52,-565.9 487.39,-693.85 570,-745 645.57,-791.8 687.25,-777.46 770,-745 816.82,-726.63 856.49,-681.36 877.63,-653.41"/>
<polygon fill="midnightblue" stroke="midnightblue" points="880.46,-655.47 883.58,-645.34 874.83,-651.31 880.46,-655.47"/>
</g>
<!-- Node35 -->
<g id="node14" class="node">
<title>Node35</title>
<g id="a_node14"><a xlink:href="namespacev8_1_1internal_1_1InstanceTypeChecker.html#a4dd27cf9309273fdf5e136ba0bc57b08" target="_top" xlink:title=" ">
<polygon fill="white" stroke="black" points="824,-380 824,-410 966,-410 966,-380 824,-380"/>
<text text-anchor="start" x="832" y="-398" font-family="Helvetica,sans-Serif" font-size="10.00">v8::internal::InstanceType</text>
<text text-anchor="middle" x="895" y="-387" font-family="Helvetica,sans-Serif" font-size="10.00">Checker::IsExternalString</text>
</a>
</g>
</g>
<!-- Node32&#45;&gt;Node35 -->
<g id="edge16" class="edge">
<title>Node32&#45;&gt;Node35</title>
<path fill="none" stroke="midnightblue" d="M459.77,-491.81C476.29,-463.27 516.44,-402.4 570,-379 656.88,-341.03 769.62,-359.93 836.63,-377.31"/>
<polygon fill="midnightblue" stroke="midnightblue" points="836.01,-380.77 846.58,-379.97 837.82,-374 836.01,-380.77"/>
</g>
<!-- Node36 -->
<g id="node15" class="node">
<title>Node36</title>
<g id="a_node15"><a xlink:href="classv8_1_1internal_1_1ObjectStatsCollectorImpl.html#ae77dfdd4c477b519e83b44dec5ec0457" target="_top" xlink:title=" ">
<polygon fill="white" stroke="red" points="806,-553 806,-583 984,-583 984,-553 806,-553"/>
<text text-anchor="start" x="814" y="-571" font-family="Helvetica,sans-Serif" font-size="10.00">v8::internal::ObjectStats</text>
<text text-anchor="middle" x="895" y="-560" font-family="Helvetica,sans-Serif" font-size="10.00">CollectorImpl::RecordObjectStats</text>
</a>
</g>
</g>
<!-- Node32&#45;&gt;Node36 -->
<g id="edge17" class="edge">
<title>Node32&#45;&gt;Node36</title>
<path fill="none" stroke="midnightblue" d="M503.63,-522.03C524.16,-527.46 548.04,-533.19 570,-537 645.18,-550.03 731.19,-557.94 795.69,-562.51"/>
<polygon fill="midnightblue" stroke="midnightblue" points="795.63,-566.01 805.85,-563.21 796.12,-559.03 795.63,-566.01"/>
</g>
<!-- Node42 -->
<g id="node16" class="node">
<title>Node42</title>
<g id="a_node16"><a xlink:href="classv8_1_1internal_1_1ObjectStatsCollectorImpl.html#a89a176db4e25dc147a194d16abf2783a" target="_top" xlink:title=" ">
<polygon fill="white" stroke="red" points="812.5,-450.5 812.5,-491.5 977.5,-491.5 977.5,-450.5 812.5,-450.5"/>
<text text-anchor="start" x="820.5" y="-479.5" font-family="Helvetica,sans-Serif" font-size="10.00">v8::internal::ObjectStats</text>
<text text-anchor="start" x="820.5" y="-468.5" font-family="Helvetica,sans-Serif" font-size="10.00">CollectorImpl::RecordPotential</text>
<text text-anchor="middle" x="895" y="-457.5" font-family="Helvetica,sans-Serif" font-size="10.00">DescriptorArraySavingsStats</text>
</a>
</g>
</g>
<!-- Node32&#45;&gt;Node42 -->
<g id="edge18" class="edge">
<title>Node32&#45;&gt;Node42</title>
<path fill="none" stroke="midnightblue" d="M500.3,-491.96C521.5,-486.13 546.76,-480.12 570,-477 647.81,-466.57 737.05,-465.73 802.15,-467.12"/>
<polygon fill="midnightblue" stroke="midnightblue" points="802.31,-470.63 812.39,-467.36 802.47,-463.63 802.31,-470.63"/>
</g>
<!-- Node57 -->
<g id="node17" class="node">
<title>Node57</title>
<g id="a_node17"><a xlink:href="classv8_1_1internal_1_1FieldStatsCollector.html#a29e8d0c33d077792ce3734573c2e6ca8" target="_top" xlink:title=" ">
<polygon fill="white" stroke="red" points="607,-301 607,-331 733,-331 733,-301 607,-301"/>
<text text-anchor="start" x="615" y="-319" font-family="Helvetica,sans-Serif" font-size="10.00">v8::internal::FieldStats</text>
<text text-anchor="middle" x="670" y="-308" font-family="Helvetica,sans-Serif" font-size="10.00">Collector::RecordStats</text>
</a>
</g>
</g>
<!-- Node32&#45;&gt;Node57 -->
<g id="edge19" class="edge">
<title>Node32&#45;&gt;Node57</title>
<path fill="none" stroke="midnightblue" d="M458.58,-491.58C474.09,-459.53 514.17,-385.46 570,-346 578.19,-340.21 587.53,-335.52 597.11,-331.72"/>
<polygon fill="midnightblue" stroke="midnightblue" points="598.55,-334.92 606.75,-328.21 596.16,-328.34 598.55,-334.92"/>
</g>
<!-- Node90 -->
<g id="node18" class="node">
<title>Node90</title>
<g id="a_node18"><a xlink:href="classv8_1_1internal_1_1ObjectStatsCollectorImpl.html#ade48091c1555fc9517f5daeccac10972" target="_top" xlink:title=" ">
<polygon fill="white" stroke="red" points="580,-240.5 580,-281.5 760,-281.5 760,-240.5 580,-240.5"/>
<text text-anchor="start" x="588" y="-269.5" font-family="Helvetica,sans-Serif" font-size="10.00">v8::internal::ObjectStats</text>
<text text-anchor="start" x="588" y="-258.5" font-family="Helvetica,sans-Serif" font-size="10.00">CollectorImpl::RecordVirtualArray</text>
<text text-anchor="middle" x="670" y="-247.5" font-family="Helvetica,sans-Serif" font-size="10.00">BoilerplateDescription</text>
</a>
</g>
</g>
<!-- Node32&#45;&gt;Node90 -->
<g id="edge20" class="edge">
<title>Node32&#45;&gt;Node90</title>
<path fill="none" stroke="midnightblue" d="M455.47,-491.85C466.54,-452.55 501.58,-346.52 570,-291 571.76,-289.57 573.58,-288.22 575.46,-286.92"/>
<polygon fill="midnightblue" stroke="midnightblue" points="577.34,-289.88 584.02,-281.66 573.67,-283.92 577.34,-289.88"/>
</g>
<!-- Node106 -->
<g id="node19" class="node">
<title>Node106</title>
<g id="a_node19"><a xlink:href="classv8_1_1internal_1_1ObjectStatsCollectorImpl.html#a6f9c3f84051fe8b8923de054c860fa66" target="_top" xlink:title=" ">
<polygon fill="white" stroke="red" points="570,-180.5 570,-221.5 770,-221.5 770,-180.5 570,-180.5"/>
<text text-anchor="start" x="578" y="-209.5" font-family="Helvetica,sans-Serif" font-size="10.00">v8::internal::ObjectStats</text>
<text text-anchor="start" x="578" y="-198.5" font-family="Helvetica,sans-Serif" font-size="10.00">CollectorImpl::RecordVirtualBytecode</text>
<text text-anchor="middle" x="670" y="-187.5" font-family="Helvetica,sans-Serif" font-size="10.00">ArrayDetails</text>
</a>
</g>
</g>
<!-- Node32&#45;&gt;Node106 -->
<g id="edge21" class="edge">
<title>Node32&#45;&gt;Node106</title>
<path fill="none" stroke="midnightblue" d="M453.5,-491.87C460.41,-445.61 487.6,-304.7 570,-231 571.33,-229.81 572.72,-228.66 574.14,-227.56"/>
<polygon fill="midnightblue" stroke="midnightblue" points="576.38,-230.26 582.68,-221.74 572.44,-224.48 576.38,-230.26"/>
</g>
<!-- Node107 -->
<g id="node20" class="node">
<title>Node107</title>
<g id="a_node20"><a xlink:href="classv8_1_1internal_1_1ObjectStatsCollectorImpl.html#ab123f34a80b34e2a846e6b3141191f86" target="_top" xlink:title=" ">
<polygon fill="white" stroke="red" points="580.5,-694.5 580.5,-735.5 759.5,-735.5 759.5,-694.5 580.5,-694.5"/>
<text text-anchor="start" x="588.5" y="-723.5" font-family="Helvetica,sans-Serif" font-size="10.00">v8::internal::ObjectStats</text>
<text text-anchor="start" x="588.5" y="-712.5" font-family="Helvetica,sans-Serif" font-size="10.00">CollectorImpl::RecordVirtualCode</text>
<text text-anchor="middle" x="670" y="-701.5" font-family="Helvetica,sans-Serif" font-size="10.00">Details</text>
</a>
</g>
</g>
<!-- Node32&#45;&gt;Node107 -->
<g id="edge22" class="edge">
<title>Node32&#45;&gt;Node107</title>
<path fill="none" stroke="midnightblue" d="M457.37,-522.21C471.4,-556.57 510.24,-640.62 570,-685 572.08,-686.55 574.24,-688.01 576.47,-689.41"/>
<polygon fill="midnightblue" stroke="midnightblue" points="574.91,-692.55 585.34,-694.41 578.35,-686.45 574.91,-692.55"/>
</g>
<!-- Node115 -->
<g id="node21" class="node">
<title>Node115</title>
<g id="a_node21"><a xlink:href="classv8_1_1internal_1_1ObjectStatsCollectorImpl.html#a856c492f5d85b20997dcb583af05ede3" target="_top" xlink:title=" ">
<polygon fill="white" stroke="red" points="574,-585 574,-615 766,-615 766,-585 574,-585"/>
<text text-anchor="start" x="582" y="-603" font-family="Helvetica,sans-Serif" font-size="10.00">v8::internal::ObjectStats</text>
<text text-anchor="middle" x="670" y="-592" font-family="Helvetica,sans-Serif" font-size="10.00">CollectorImpl::RecordVirtualContext</text>
</a>
</g>
</g>
<!-- Node32&#45;&gt;Node115 -->
<g id="edge24" class="edge">
<title>Node32&#45;&gt;Node115</title>
<path fill="none" stroke="midnightblue" d="M476.69,-522.25C500.22,-536.03 536.62,-556.22 570,-570 580.46,-574.32 591.78,-578.33 602.89,-581.92"/>
<polygon fill="midnightblue" stroke="midnightblue" points="601.98,-585.31 612.57,-584.97 604.08,-578.63 601.98,-585.31"/>
</g>
<!-- Node116 -->
<g id="node22" class="node">
<title>Node116</title>
<g id="a_node22"><a xlink:href="classv8_1_1internal_1_1ObjectStatsCollectorImpl.html#a173aa0b3e32f2b97590dab52998a8367" target="_top" xlink:title=" ">
<polygon fill="white" stroke="red" points="573,-120.5 573,-161.5 767,-161.5 767,-120.5 573,-120.5"/>
<text text-anchor="start" x="581" y="-149.5" font-family="Helvetica,sans-Serif" font-size="10.00">v8::internal::ObjectStats</text>
<text text-anchor="start" x="581" y="-138.5" font-family="Helvetica,sans-Serif" font-size="10.00">CollectorImpl::RecordVirtualExternal</text>
<text text-anchor="middle" x="670" y="-127.5" font-family="Helvetica,sans-Serif" font-size="10.00">StringDetails</text>
</a>
</g>
</g>
<!-- Node32&#45;&gt;Node116 -->
<g id="edge27" class="edge">
<title>Node32&#45;&gt;Node116</title>
<path fill="none" stroke="midnightblue" d="M452.2,-491.72C455.46,-439.06 473.43,-263.33 570,-171 571.14,-169.91 572.31,-168.87 573.52,-167.86"/>
<polygon fill="midnightblue" stroke="midnightblue" points="575.91,-170.44 581.94,-161.73 571.8,-164.78 575.91,-170.44"/>
</g>
<!-- Node118 -->
<g id="node23" class="node">
<title>Node118</title>
<g id="a_node23"><a xlink:href="classv8_1_1internal_1_1ObjectStatsCollectorImpl.html#ada35b216a4ac208884ff68a7eb84e1ff" target="_top" xlink:title=" ">
<polygon fill="white" stroke="red" points="570,-634.5 570,-675.5 770,-675.5 770,-634.5 570,-634.5"/>
<text text-anchor="start" x="578" y="-663.5" font-family="Helvetica,sans-Serif" font-size="10.00">v8::internal::ObjectStats</text>
<text text-anchor="start" x="578" y="-652.5" font-family="Helvetica,sans-Serif" font-size="10.00">CollectorImpl::RecordVirtualFeedback</text>
<text text-anchor="middle" x="670" y="-641.5" font-family="Helvetica,sans-Serif" font-size="10.00">VectorDetails</text>
</a>
</g>
</g>
<!-- Node32&#45;&gt;Node118 -->
<g id="edge28" class="edge">
<title>Node32&#45;&gt;Node118</title>
<path fill="none" stroke="midnightblue" d="M462.53,-522.03C481.65,-547.02 523.4,-597.14 570,-625 573.02,-626.81 576.16,-628.51 579.38,-630.12"/>
<polygon fill="midnightblue" stroke="midnightblue" points="578.09,-633.38 588.64,-634.4 581.03,-627.03 578.09,-633.38"/>
</g>
<!-- Node134 -->
<g id="node24" class="node">
<title>Node134</title>
<g id="a_node24"><a xlink:href="classv8_1_1internal_1_1ObjectStatsCollectorImpl.html#a2092e36031fb6cbb223ba8ca029f1a29" target="_top" xlink:title=" ">
<polygon fill="white" stroke="red" points="580.5,-60.5 580.5,-101.5 759.5,-101.5 759.5,-60.5 580.5,-60.5"/>
<text text-anchor="start" x="588.5" y="-89.5" font-family="Helvetica,sans-Serif" font-size="10.00">v8::internal::ObjectStats</text>
<text text-anchor="start" x="588.5" y="-78.5" font-family="Helvetica,sans-Serif" font-size="10.00">CollectorImpl::RecordVirtualFixed</text>
<text text-anchor="middle" x="670" y="-67.5" font-family="Helvetica,sans-Serif" font-size="10.00">ArrayDetails</text>
</a>
</g>
</g>
<!-- Node32&#45;&gt;Node134 -->
<g id="edge30" class="edge">
<title>Node32&#45;&gt;Node134</title>
<path fill="none" stroke="midnightblue" d="M451.26,-491.95C451.18,-433.94 458.81,-222.58 570,-111 571.11,-109.89 572.26,-108.81 573.44,-107.78"/>
<polygon fill="midnightblue" stroke="midnightblue" points="575.86,-110.34 581.74,-101.53 571.65,-104.75 575.86,-110.34"/>
</g>
<!-- Node135 -->
<g id="node25" class="node">
<title>Node135</title>
<g id="a_node25"><a xlink:href="classv8_1_1internal_1_1ObjectStatsCollectorImpl.html#aa559c06762a3e91413a36022094e91f7" target="_top" xlink:title=" ">
<polygon fill="white" stroke="red" points="572.5,-0.5 572.5,-41.5 767.5,-41.5 767.5,-0.5 572.5,-0.5"/>
<text text-anchor="start" x="580.5" y="-29.5" font-family="Helvetica,sans-Serif" font-size="10.00">v8::internal::ObjectStats</text>
<text text-anchor="start" x="580.5" y="-18.5" font-family="Helvetica,sans-Serif" font-size="10.00">CollectorImpl::RecordVirtualFunction</text>
<text text-anchor="middle" x="670" y="-7.5" font-family="Helvetica,sans-Serif" font-size="10.00">TemplateInfoDetails</text>
</a>
</g>
</g>
<!-- Node32&#45;&gt;Node135 -->
<g id="edge31" class="edge">
<title>Node32&#45;&gt;Node135</title>
<path fill="none" stroke="midnightblue" d="M453.42,-491.96C462.83,-420.66 506.1,-117.5 570,-51 571.05,-49.91 572.14,-48.85 573.26,-47.84"/>
<polygon fill="midnightblue" stroke="midnightblue" points="575.42,-50.59 581.14,-41.68 571.1,-45.08 575.42,-50.59"/>
</g>
<!-- Node137 -->
<g id="node26" class="node">
<title>Node137</title>
<g id="a_node26"><a xlink:href="classv8_1_1internal_1_1ObjectStatsCollectorImpl.html#a24cdc767e82ae7d08a78ad5279d18d1e" target="_top" xlink:title=" ">
<polygon fill="white" stroke="red" points="573,-912.5 573,-953.5 767,-953.5 767,-912.5 573,-912.5"/>
<text text-anchor="start" x="581" y="-941.5" font-family="Helvetica,sans-Serif" font-size="10.00">v8::internal::ObjectStats</text>
<text text-anchor="start" x="581" y="-930.5" font-family="Helvetica,sans-Serif" font-size="10.00">CollectorImpl::RecordVirtualJSGlobal</text>
<text text-anchor="middle" x="670" y="-919.5" font-family="Helvetica,sans-Serif" font-size="10.00">ObjectDetails</text>
</a>
</g>
</g>
<!-- Node32&#45;&gt;Node137 -->
<g id="edge32" class="edge">
<title>Node32&#45;&gt;Node137</title>
<path fill="none" stroke="midnightblue" d="M455.15,-522.22C471.87,-591.44 541.57,-874.47 570,-903 571.11,-904.11 572.26,-905.19 573.44,-906.22"/>
<polygon fill="midnightblue" stroke="midnightblue" points="571.65,-909.25 581.74,-912.47 575.86,-903.66 571.65,-909.25"/>
</g>
<!-- Node139 -->
<g id="node27" class="node">
<title>Node139</title>
<g id="a_node27"><a xlink:href="classv8_1_1internal_1_1ObjectStatsCollectorImpl.html#a8922af8625b89b263aa88e161970f1d1" target="_top" xlink:title=" ">
<polygon fill="white" stroke="red" points="573,-852.5 573,-893.5 767,-893.5 767,-852.5 573,-852.5"/>
<text text-anchor="start" x="581" y="-881.5" font-family="Helvetica,sans-Serif" font-size="10.00">v8::internal::ObjectStats</text>
<text text-anchor="start" x="581" y="-870.5" font-family="Helvetica,sans-Serif" font-size="10.00">CollectorImpl::RecordVirtualJSObject</text>
<text text-anchor="middle" x="670" y="-859.5" font-family="Helvetica,sans-Serif" font-size="10.00">Details</text>
</a>
</g>
</g>
<!-- Node32&#45;&gt;Node139 -->
<g id="edge33" class="edge">
<title>Node32&#45;&gt;Node139</title>
<path fill="none" stroke="midnightblue" d="M452.2,-522.28C455.46,-574.94 473.43,-750.67 570,-843 571.14,-844.09 572.31,-845.13 573.52,-846.14"/>
<polygon fill="midnightblue" stroke="midnightblue" points="571.8,-849.22 581.94,-852.27 575.91,-843.56 571.8,-849.22"/>
</g>
<!-- Node144 -->
<g id="node28" class="node">
<title>Node144</title>
<g id="a_node28"><a xlink:href="classv8_1_1internal_1_1ObjectStatsCollectorImpl.html#ad12c91fa5988f9215268e4eddebe058d" target="_top" xlink:title=" ">
<polygon fill="white" stroke="red" points="582.5,-486.5 582.5,-527.5 757.5,-527.5 757.5,-486.5 582.5,-486.5"/>
<text text-anchor="start" x="590.5" y="-515.5" font-family="Helvetica,sans-Serif" font-size="10.00">v8::internal::ObjectStats</text>
<text text-anchor="start" x="590.5" y="-504.5" font-family="Helvetica,sans-Serif" font-size="10.00">CollectorImpl::RecordVirtualMap</text>
<text text-anchor="middle" x="670" y="-493.5" font-family="Helvetica,sans-Serif" font-size="10.00">Details</text>
</a>
</g>
</g>
<!-- Node32&#45;&gt;Node144 -->
<g id="edge34" class="edge">
<title>Node32&#45;&gt;Node144</title>
<path fill="none" stroke="midnightblue" d="M534.04,-507C546.46,-507 559.37,-507 572.06,-507"/>
<polygon fill="midnightblue" stroke="midnightblue" points="572.17,-510.5 582.17,-507 572.17,-503.5 572.17,-510.5"/>
</g>
<!-- Node145 -->
<g id="node29" class="node">
<title>Node145</title>
<g id="a_node29"><a xlink:href="classv8_1_1internal_1_1ObjectStatsCollectorImpl.html#a852c15fcc3a39fb4d0a94155f16a8c4d" target="_top" xlink:title=" ">
<polygon fill="white" stroke="red" points="579,-388.5 579,-429.5 761,-429.5 761,-388.5 579,-388.5"/>
<text text-anchor="start" x="587" y="-417.5" font-family="Helvetica,sans-Serif" font-size="10.00">v8::internal::ObjectStats</text>
<text text-anchor="start" x="587" y="-406.5" font-family="Helvetica,sans-Serif" font-size="10.00">CollectorImpl::RecordVirtualScript</text>
<text text-anchor="middle" x="670" y="-395.5" font-family="Helvetica,sans-Serif" font-size="10.00">Details</text>
</a>
</g>
</g>
<!-- Node32&#45;&gt;Node145 -->
<g id="edge37" class="edge">
<title>Node32&#45;&gt;Node145</title>
<path fill="none" stroke="midnightblue" d="M477.3,-491.84C500.94,-478.31 537.15,-458.44 570,-444 578.61,-440.22 587.77,-436.53 596.9,-433.07"/>
<polygon fill="midnightblue" stroke="midnightblue" points="598.24,-436.31 606.4,-429.54 595.8,-429.75 598.24,-436.31"/>
</g>
<!-- Node146 -->
<g id="node30" class="node">
<title>Node146</title>
<g id="a_node30"><a xlink:href="classv8_1_1internal_1_1ObjectStatsCollectorImpl.html#a7423e42e09efe5fcc670729157db5de7" target="_top" xlink:title=" ">
<polygon fill="white" stroke="red" points="576,-792.5 576,-833.5 764,-833.5 764,-792.5 576,-792.5"/>
<text text-anchor="start" x="584" y="-821.5" font-family="Helvetica,sans-Serif" font-size="10.00">v8::internal::ObjectStats</text>
<text text-anchor="start" x="584" y="-810.5" font-family="Helvetica,sans-Serif" font-size="10.00">CollectorImpl::RecordVirtualShared</text>
<text text-anchor="middle" x="670" y="-799.5" font-family="Helvetica,sans-Serif" font-size="10.00">FunctionInfoDetails</text>
</a>
</g>
</g>
<!-- Node32&#45;&gt;Node146 -->
<g id="edge40" class="edge">
<title>Node32&#45;&gt;Node146</title>
<path fill="none" stroke="midnightblue" d="M453.79,-522.01C461.47,-567.31 490.48,-704.03 570,-778 573.57,-781.32 577.47,-784.32 581.59,-787.05"/>
<polygon fill="midnightblue" stroke="midnightblue" points="579.96,-790.15 590.34,-792.25 583.54,-784.13 579.96,-790.15"/>
</g>
<!-- Node107&#45;&gt;Node33 -->
<g id="edge23" class="edge">
<title>Node107&#45;&gt;Node33</title>
<path fill="none" stroke="midnightblue" d="M742.46,-694.49C751.79,-691.48 761.16,-688.28 770,-685 798.45,-674.42 829.69,-660.56 853.69,-649.39"/>
<polygon fill="midnightblue" stroke="midnightblue" points="855.27,-652.52 862.84,-645.1 852.3,-646.18 855.27,-652.52"/>
</g>
<!-- Node115&#45;&gt;Node33 -->
<g id="edge25" class="edge">
<title>Node115&#45;&gt;Node33</title>
<path fill="none" stroke="midnightblue" d="M766.22,-612.81C782.34,-614.98 798.92,-617.21 814.58,-619.32"/>
<polygon fill="midnightblue" stroke="midnightblue" points="814.35,-622.82 824.73,-620.68 815.28,-615.88 814.35,-622.82"/>
</g>
<!-- Node115&#45;&gt;Node36 -->
<g id="edge26" class="edge">
<title>Node115&#45;&gt;Node36</title>
<path fill="none" stroke="midnightblue" d="M766.22,-586.34C775.97,-584.94 785.89,-583.51 795.68,-582.11"/>
<polygon fill="midnightblue" stroke="midnightblue" points="796.41,-585.54 805.81,-580.65 795.42,-578.61 796.41,-585.54"/>
</g>
<!-- Node118&#45;&gt;Node33 -->
<g id="edge29" class="edge">
<title>Node118&#45;&gt;Node33</title>
<path fill="none" stroke="midnightblue" d="M770.11,-643.89C784.99,-642.22 800.17,-640.52 814.58,-638.9"/>
<polygon fill="midnightblue" stroke="midnightblue" points="815.36,-642.34 824.91,-637.75 814.58,-635.38 815.36,-642.34"/>
</g>
<!-- Node144&#45;&gt;Node33 -->
<g id="edge35" class="edge">
<title>Node144&#45;&gt;Node33</title>
<path fill="none" stroke="midnightblue" d="M700.16,-527.62C726.94,-546.05 768.09,-573.14 806,-593 818.28,-599.44 831.94,-605.62 844.76,-611.02"/>
<polygon fill="midnightblue" stroke="midnightblue" points="843.78,-614.41 854.36,-615 846.46,-607.94 843.78,-614.41"/>
</g>
<!-- Node144&#45;&gt;Node42 -->
<g id="edge36" class="edge">
<title>Node144&#45;&gt;Node42</title>
<path fill="none" stroke="midnightblue" d="M757.54,-493.03C772.16,-490.67 787.39,-488.21 802.14,-485.83"/>
<polygon fill="midnightblue" stroke="midnightblue" points="802.95,-489.24 812.26,-484.2 801.83,-482.33 802.95,-489.24"/>
</g>
<!-- Node145&#45;&gt;Node33 -->
<g id="edge38" class="edge">
<title>Node145&#45;&gt;Node33</title>
<path fill="none" stroke="midnightblue" d="M713.57,-429.71C733.23,-441.2 755.41,-457.19 770,-477 802.02,-520.46 769.73,-553.02 806,-593 812.36,-600.01 820.27,-605.74 828.72,-610.41"/>
<polygon fill="midnightblue" stroke="midnightblue" points="827.16,-613.54 837.67,-614.89 830.3,-607.28 827.16,-613.54"/>
</g>
<!-- Node145&#45;&gt;Node35 -->
<g id="edge39" class="edge">
<title>Node145&#45;&gt;Node35</title>
<path fill="none" stroke="midnightblue" d="M761.06,-403.35C778.38,-402.26 796.41,-401.13 813.41,-400.06"/>
<polygon fill="midnightblue" stroke="midnightblue" points="814.08,-403.52 823.84,-399.4 813.64,-396.54 814.08,-403.52"/>
</g>
</g>
</svg>
        <g id="navigator" transform="translate(0 0)" fill="#404254">
                <rect fill="#f2f5e9" fill-opacity="0.5" stroke="#606060" stroke-width=".5" x="0" y="0" width="60" height="60"/>
                <use id="zoomplus" xlink:href="#zoomPlus" x="17" y="9" onmousedown="handleZoom(evt,'in')"/>
                <use id="zoomminus" xlink:href="#zoomMin" x="42" y="9" onmousedown="handleZoom(evt,'out')"/>
                <use id="reset" xlink:href="#resetDef" x="30" y="36" onmousedown="handleReset()"/>
                <g id="arrowUp" xlink:href="#dirArrow" transform="translate(30 24)" onmousedown="handlePan(0,-1)">
                  <use xlink:href="#rim" fill="#404040">
                        <set attributeName="fill" to="#808080" begin="arrowUp.mouseover" end="arrowUp.mouseout"/>
                  </use>
                  <path fill="none" stroke="white" stroke-width="1.5" d="M0,-3.0v7 M-2.5,-0.5L0,-3.0L2.5,-0.5"/>
                </g>
                <g id="arrowRight" xlink:href="#dirArrow" transform="rotate(90) translate(36 -43)" onmousedown="handlePan(1,0)">
                  <use xlink:href="#rim" fill="#404040">
                        <set attributeName="fill" to="#808080" begin="arrowRight.mouseover" end="arrowRight.mouseout"/>
                  </use>
                  <path fill="none" stroke="white" stroke-width="1.5" d="M0,-3.0v7 M-2.5,-0.5L0,-3.0L2.5,-0.5"/>
                </g>
                <g id="arrowDown" xlink:href="#dirArrow" transform="rotate(180) translate(-30 -48)" onmousedown="handlePan(0,1)">
                  <use xlink:href="#rim" fill="#404040">
                        <set attributeName="fill" to="#808080" begin="arrowDown.mouseover" end="arrowDown.mouseout"/>
                  </use>
                  <path fill="none" stroke="white" stroke-width="1.5" d="M0,-3.0v7 M-2.5,-0.5L0,-3.0L2.5,-0.5"/>
                </g>
                <g id="arrowLeft" xlink:href="#dirArrow" transform="rotate(270) translate(-36 17)" onmousedown="handlePan(-1,0)">
                  <use xlink:href="#rim" fill="#404040">
                        <set attributeName="fill" to="#808080" begin="arrowLeft.mouseover" end="arrowLeft.mouseout"/>
                  </use>
                  <path fill="none" stroke="white" stroke-width="1.5" d="M0,-3.0v7 M-2.5,-0.5L0,-3.0L2.5,-0.5"/>
                </g>
        </g>
        <svg viewBox="0 0 15 15" width="100%" height="30px" preserveAspectRatio="xMaxYMin meet">
         <g id="arrow_out" transform="scale(0.3 0.3)">
          <a xlink:href="namespacev8_1_1internal_1_1anonymous__namespace_02object-stats_8cc_03_a7865d52d1bc41f82da171229087b24af_cgraph_org.svg" target="_base">
           <rect id="button" ry="5" rx="5" y="6" x="6" height="38" width="38"
                fill="#f2f5e9" fill-opacity="0.5" stroke="#606060" stroke-width="1.0"/>
           <path id="arrow"
             d="M 11.500037,31.436501 C 11.940474,20.09759 22.043105,11.32322 32.158766,21.979434 L 37.068811,17.246167 C 37.068811,17.246167 37.088388,32 37.088388,32 L 22.160133,31.978069 C 22.160133,31.978069 26.997745,27.140456 26.997745,27.140456 C 18.528582,18.264221 13.291696,25.230495 11.500037,31.436501 z"
             style="fill:#404040;"/>
          </a>
         </g>
        </svg>
</svg>
