<?xml version="1.0" encoding="UTF-8" standalone="no"?>
<!DOCTYPE svg PUBLIC "-//W3C//DTD SVG 1.1//EN"
 "http://www.w3.org/Graphics/SVG/1.1/DTD/svg11.dtd">
<!-- Generated by graphviz version 2.43.0 (0)
 -->
<!-- Title: v8::internal::BUILTIN Pages: 1 -->
<svg width="1087pt" height="1415pt"
 viewBox="0.00 0.00 1087.00 1415.26" xmlns="http://www.w3.org/2000/svg" xmlns:xlink="http://www.w3.org/1999/xlink">
<g id="graph0" class="graph" transform="scale(1 1) rotate(0) translate(4 1411.26)">
<title>v8::internal::BUILTIN</title>
<polygon fill="white" stroke="transparent" points="-4,4 -4,-1411.26 1083,-1411.26 1083,4 -4,4"/>
<!-- Node1 -->
<g id="node1" class="node">
<title>Node1</title>
<g id="a_node1"><a xlink:title=" ">
<polygon fill="#bfbfbf" stroke="black" points="0,-153.21 0,-172.21 116,-172.21 116,-153.21 0,-153.21"/>
<text text-anchor="middle" x="58" y="-160.21" font-family="Helvetica,sans-Serif" font-size="10.00">v8::internal::BUILTIN</text>
</a>
</g>
</g>
<!-- Node2 -->
<g id="node2" class="node">
<title>Node2</title>
<g id="a_node2"><a xlink:href="classv8_1_1internal_1_1Execution.html#a529f28484ea4dc14ee8212d5417409c1" target="_top" xlink:title=" ">
<polygon fill="white" stroke="black" points="194.5,-577.71 194.5,-607.71 319.5,-607.71 319.5,-577.71 194.5,-577.71"/>
<text text-anchor="start" x="202.5" y="-595.71" font-family="Helvetica,sans-Serif" font-size="10.00">v8::internal::Execution</text>
<text text-anchor="middle" x="257" y="-584.71" font-family="Helvetica,sans-Serif" font-size="10.00">::Call</text>
</a>
</g>
</g>
<!-- Node1&#45;&gt;Node2 -->
<g id="edge1" class="edge">
<title>Node1&#45;&gt;Node2</title>
<path fill="none" stroke="midnightblue" d="M63.48,-172.5C88.12,-226.26 207.2,-486.18 244.68,-568"/>
<polygon fill="midnightblue" stroke="midnightblue" points="241.58,-569.65 248.93,-577.28 247.95,-566.73 241.58,-569.65"/>
</g>
<!-- Node6 -->
<g id="node7" class="node">
<title>Node6</title>
<g id="a_node7"><a xlink:href="namespacev8_1_1internal.html#aa6b3743bd5d773c552654f2a6c3efa4a" target="_top" xlink:title=" ">
<polygon fill="white" stroke="black" points="960,-904.21 960,-923.21 1079,-923.21 1079,-904.21 960,-904.21"/>
<text text-anchor="middle" x="1019.5" y="-911.21" font-family="Helvetica,sans-Serif" font-size="10.00">v8::internal::DCHECK</text>
</a>
</g>
</g>
<!-- Node1&#45;&gt;Node6 -->
<g id="edge48" class="edge">
<title>Node1&#45;&gt;Node6</title>
<path fill="none" stroke="midnightblue" d="M67.08,-172.38C81.95,-189.45 115.49,-224.76 152,-241.71 252.53,-288.39 288.57,-265.06 398,-282.71 548.99,-307.06 592.83,-287.58 738,-335.71 755.17,-341.4 757.43,-347.45 774,-354.71 838.77,-383.06 878.02,-353.99 924,-407.71 988.66,-483.25 1012.31,-809.81 1017.39,-893.9"/>
<polygon fill="midnightblue" stroke="midnightblue" points="1013.91,-894.33 1017.99,-904.11 1020.9,-893.92 1013.91,-894.33"/>
</g>
<!-- Node3250 -->
<g id="node30" class="node">
<title>Node3250</title>
<g id="a_node30"><a xlink:href="classv8_1_1internal_1_1JSAtomicsMutex.html#a8de8fcc5f5164f1a1bf927ad2eef486b" target="_top" xlink:title=" ">
<polygon fill="white" stroke="black" points="575.5,-76.71 575.5,-106.71 733.5,-106.71 733.5,-76.71 575.5,-76.71"/>
<text text-anchor="start" x="583.5" y="-94.71" font-family="Helvetica,sans-Serif" font-size="10.00">v8::internal::JSAtomicsMutex</text>
<text text-anchor="middle" x="654.5" y="-83.71" font-family="Helvetica,sans-Serif" font-size="10.00">::CreateResultObject</text>
</a>
</g>
</g>
<!-- Node1&#45;&gt;Node3250 -->
<g id="edge42" class="edge">
<title>Node1&#45;&gt;Node3250</title>
<path fill="none" stroke="midnightblue" d="M116.1,-166.89C206.52,-171.96 387.53,-175.7 535,-138.71 552.16,-134.4 554.67,-128.52 571,-121.71 580.28,-117.84 590.26,-113.97 599.97,-110.36"/>
<polygon fill="midnightblue" stroke="midnightblue" points="601.36,-113.58 609.54,-106.84 598.94,-107.01 601.36,-113.58"/>
</g>
<!-- Node3251 -->
<g id="node33" class="node">
<title>Node3251</title>
<g id="a_node33"><a xlink:href="namespacev8_1_1internal_1_1anonymous__namespace_02builtins-atomics-synchronization_8cc_03.html#a1602db6b479a6aef5f3b55971dbde5d6" target="_top" xlink:title=" ">
<polygon fill="white" stroke="black" points="152,-191.21 152,-232.21 362,-232.21 362,-191.21 152,-191.21"/>
<text text-anchor="start" x="160" y="-220.21" font-family="Helvetica,sans-Serif" font-size="10.00">v8::internal::anonymous</text>
<text text-anchor="start" x="160" y="-209.21" font-family="Helvetica,sans-Serif" font-size="10.00">_namespace{builtins&#45;atomics</text>
<text text-anchor="middle" x="257" y="-198.21" font-family="Helvetica,sans-Serif" font-size="10.00">&#45;synchronization::cc}::GetTimeoutDelta</text>
</a>
</g>
</g>
<!-- Node1&#45;&gt;Node3251 -->
<g id="edge49" class="edge">
<title>Node1&#45;&gt;Node3251</title>
<path fill="none" stroke="midnightblue" d="M97.45,-172.27C116.36,-176.98 140.04,-182.87 163.3,-188.65"/>
<polygon fill="midnightblue" stroke="midnightblue" points="162.67,-192.1 173.22,-191.12 164.36,-185.31 162.67,-192.1"/>
</g>
<!-- Node218 -->
<g id="node36" class="node">
<title>Node218</title>
<g id="a_node36"><a xlink:href="namespacev8_1_1internal.html#a33a2826557a82e4cd9775aadf0f5711e" target="_top" xlink:title=" ">
<polygon fill="white" stroke="red" points="592,-38.21 592,-57.21 717,-57.21 717,-38.21 592,-38.21"/>
<text text-anchor="middle" x="654.5" y="-45.21" font-family="Helvetica,sans-Serif" font-size="10.00">v8::internal::IsNumber</text>
</a>
</g>
</g>
<!-- Node1&#45;&gt;Node218 -->
<g id="edge54" class="edge">
<title>Node1&#45;&gt;Node218</title>
<path fill="none" stroke="midnightblue" d="M109.14,-153.18C169.24,-141.73 273,-121.93 362,-104.71 442.88,-89.06 536.34,-70.75 595.17,-59.19"/>
<polygon fill="midnightblue" stroke="midnightblue" points="595.89,-62.61 605.03,-57.25 594.54,-55.74 595.89,-62.61"/>
</g>
<!-- Node3253 -->
<g id="node37" class="node">
<title>Node3253</title>
<g id="a_node37"><a xlink:href="classv8_1_1internal_1_1JSAtomicsMutex_1_1LockGuardBase.html#a99a2077a7c53a1ece31da2eca3dac753" target="_top" xlink:title=" ">
<polygon fill="white" stroke="black" points="178,-65.71 178,-95.71 336,-95.71 336,-65.71 178,-65.71"/>
<text text-anchor="start" x="186" y="-83.71" font-family="Helvetica,sans-Serif" font-size="10.00">v8::internal::JSAtomicsMutex</text>
<text text-anchor="middle" x="257" y="-72.71" font-family="Helvetica,sans-Serif" font-size="10.00">::LockGuardBase::locked</text>
</a>
</g>
</g>
<!-- Node1&#45;&gt;Node3253 -->
<g id="edge55" class="edge">
<title>Node1&#45;&gt;Node3253</title>
<path fill="none" stroke="midnightblue" d="M73.61,-153.15C91.49,-141.78 122.98,-122.82 152,-110.71 162.53,-106.32 173.91,-102.32 185.16,-98.78"/>
<polygon fill="midnightblue" stroke="midnightblue" points="186.43,-102.05 194.97,-95.78 184.39,-95.35 186.43,-102.05"/>
</g>
<!-- Node256 -->
<g id="node38" class="node">
<title>Node256</title>
<g id="a_node38"><a xlink:href="classv8_1_1internal_1_1Object.html#a5822855bcafccafab17dd453ab4508e4" target="_top" xlink:title=" ">
<polygon fill="white" stroke="red" points="411.5,-21.71 411.5,-51.71 521.5,-51.71 521.5,-21.71 411.5,-21.71"/>
<text text-anchor="start" x="419.5" y="-39.71" font-family="Helvetica,sans-Serif" font-size="10.00">v8::internal::Object</text>
<text text-anchor="middle" x="466.5" y="-28.71" font-family="Helvetica,sans-Serif" font-size="10.00">::TypeOf</text>
</a>
</g>
</g>
<!-- Node1&#45;&gt;Node256 -->
<g id="edge56" class="edge">
<title>Node1&#45;&gt;Node256</title>
<path fill="none" stroke="midnightblue" d="M63.89,-153.04C75.6,-131.07 107.63,-77.58 152,-55.71 230.92,-16.81 334.91,-19.4 401.01,-26.63"/>
<polygon fill="midnightblue" stroke="midnightblue" points="400.94,-30.15 411.28,-27.83 401.75,-23.2 400.94,-30.15"/>
</g>
<!-- Node3 -->
<g id="node3" class="node">
<title>Node3</title>
<g id="a_node3"><a xlink:href="namespacev8_1_1internal_1_1anonymous__namespace_02execution_8cc_03.html#a69fd8bb1b53f805979b16aff615070f9" target="_top" xlink:title=" ">
<polygon fill="white" stroke="black" points="398,-829.21 398,-870.21 535,-870.21 535,-829.21 398,-829.21"/>
<text text-anchor="start" x="406" y="-858.21" font-family="Helvetica,sans-Serif" font-size="10.00">v8::internal::anonymous</text>
<text text-anchor="start" x="406" y="-847.21" font-family="Helvetica,sans-Serif" font-size="10.00">_namespace{execution::</text>
<text text-anchor="middle" x="466.5" y="-836.21" font-family="Helvetica,sans-Serif" font-size="10.00">cc}::Invoke</text>
</a>
</g>
</g>
<!-- Node2&#45;&gt;Node3 -->
<g id="edge2" class="edge">
<title>Node2&#45;&gt;Node3</title>
<path fill="none" stroke="midnightblue" d="M270.36,-608.02C304.13,-649.85 398.4,-766.6 442.37,-821.06"/>
<polygon fill="midnightblue" stroke="midnightblue" points="439.72,-823.35 448.73,-828.93 445.17,-818.95 439.72,-823.35"/>
</g>
<!-- Node4 -->
<g id="node4" class="node">
<title>Node4</title>
<g id="a_node4"><a xlink:href="classv8_1_1internal_1_1Isolate.html#aa248f994d416423a0001e8597a6b9fcf" target="_top" xlink:title=" ">
<polygon fill="white" stroke="red" points="599,-1160.71 599,-1190.71 710,-1190.71 710,-1160.71 599,-1160.71"/>
<text text-anchor="start" x="607" y="-1178.71" font-family="Helvetica,sans-Serif" font-size="10.00">v8::internal::Isolate</text>
<text text-anchor="middle" x="654.5" y="-1167.71" font-family="Helvetica,sans-Serif" font-size="10.00">::clear_exception</text>
</a>
</g>
</g>
<!-- Node3&#45;&gt;Node4 -->
<g id="edge3" class="edge">
<title>Node3&#45;&gt;Node4</title>
<path fill="none" stroke="midnightblue" d="M468.82,-870.43C473.29,-923.57 492.39,-1066.11 571,-1145.71 576.3,-1151.08 582.64,-1155.49 589.41,-1159.12"/>
<polygon fill="midnightblue" stroke="midnightblue" points="588.32,-1162.48 598.86,-1163.59 591.32,-1156.15 588.32,-1162.48"/>
</g>
<!-- Node10 -->
<g id="node5" class="node">
<title>Node10</title>
<g id="a_node5"><a xlink:href="classv8_1_1internal_1_1Isolate.html#a3a2335d0d26d156ce3153e1237fd4075" target="_top" xlink:title=" ">
<polygon fill="white" stroke="red" points="779,-1004.71 779,-1034.71 919,-1034.71 919,-1004.71 779,-1004.71"/>
<text text-anchor="start" x="787" y="-1022.71" font-family="Helvetica,sans-Serif" font-size="10.00">v8::internal::Isolate</text>
<text text-anchor="middle" x="849" y="-1011.71" font-family="Helvetica,sans-Serif" font-size="10.00">::clear_pending_message</text>
</a>
</g>
</g>
<!-- Node3&#45;&gt;Node10 -->
<g id="edge4" class="edge">
<title>Node3&#45;&gt;Node10</title>
<path fill="none" stroke="midnightblue" d="M471.71,-870.24C481.24,-910.7 508.67,-999.97 571,-1036.71 641.82,-1078.46 741.29,-1057 799.76,-1038.05"/>
<polygon fill="midnightblue" stroke="midnightblue" points="801.11,-1041.29 809.48,-1034.8 798.89,-1034.65 801.11,-1041.29"/>
</g>
<!-- Node12 -->
<g id="node6" class="node">
<title>Node12</title>
<g id="a_node6"><a xlink:href="classv8_1_1internal_1_1Isolate.html#a4a9708684698eb5d1032bedb9fd49d21" target="_top" xlink:title=" ">
<polygon fill="white" stroke="black" points="793.5,-416.71 793.5,-446.71 904.5,-446.71 904.5,-416.71 793.5,-416.71"/>
<text text-anchor="start" x="801.5" y="-434.71" font-family="Helvetica,sans-Serif" font-size="10.00">v8::internal::Isolate</text>
<text text-anchor="middle" x="849" y="-423.71" font-family="Helvetica,sans-Serif" font-size="10.00">::context</text>
</a>
</g>
</g>
<!-- Node3&#45;&gt;Node12 -->
<g id="edge5" class="edge">
<title>Node3&#45;&gt;Node12</title>
<path fill="none" stroke="midnightblue" d="M469.39,-829.1C476.88,-752.38 507.27,-485.06 571,-434.71 633.47,-385.36 730.97,-398.58 792.08,-414.08"/>
<polygon fill="midnightblue" stroke="midnightblue" points="791.37,-417.51 801.93,-416.68 793.16,-410.75 791.37,-417.51"/>
</g>
<!-- Node3&#45;&gt;Node6 -->
<g id="edge6" class="edge">
<title>Node3&#45;&gt;Node6</title>
<path fill="none" stroke="midnightblue" d="M468.41,-870.41C472.71,-957.3 494.07,-1290.98 571,-1353.71 695.09,-1454.9 817.65,-1401.41 924,-1281.71 971.42,-1228.34 1006.22,-1002.09 1015.83,-933.5"/>
<polygon fill="midnightblue" stroke="midnightblue" points="1019.34,-933.63 1017.24,-923.24 1012.41,-932.67 1019.34,-933.63"/>
</g>
<!-- Node13 -->
<g id="node8" class="node">
<title>Node13</title>
<g id="a_node8"><a xlink:href="classv8_1_1Platform.html#abcbf846fdfc791569f64de675d522cac" target="_top" xlink:title="Tells the embedder to generate and upload a crashdump during an unexpected but non&#45;critical scenario.">
<polygon fill="white" stroke="black" points="579.5,-996.71 579.5,-1026.71 729.5,-1026.71 729.5,-996.71 579.5,-996.71"/>
<text text-anchor="start" x="587.5" y="-1014.71" font-family="Helvetica,sans-Serif" font-size="10.00">v8::Platform::DumpWithout</text>
<text text-anchor="middle" x="654.5" y="-1003.71" font-family="Helvetica,sans-Serif" font-size="10.00">Crashing</text>
</a>
</g>
</g>
<!-- Node3&#45;&gt;Node13 -->
<g id="edge7" class="edge">
<title>Node3&#45;&gt;Node13</title>
<path fill="none" stroke="midnightblue" d="M477.47,-870.36C493.14,-900.65 526.42,-956.87 571,-987.71 573.15,-989.19 575.39,-990.59 577.69,-991.9"/>
<polygon fill="midnightblue" stroke="midnightblue" points="576.39,-995.16 586.89,-996.53 579.54,-988.91 576.39,-995.16"/>
</g>
<!-- Node14 -->
<g id="node9" class="node">
<title>Node14</title>
<g id="a_node9"><a xlink:href="classv8_1_1internal_1_1Isolate.html#a7e2962359009581ba84e6a361f574f61" target="_top" xlink:title=" ">
<polygon fill="white" stroke="black" points="964,-164.71 964,-194.71 1075,-194.71 1075,-164.71 964,-164.71"/>
<text text-anchor="start" x="972" y="-182.71" font-family="Helvetica,sans-Serif" font-size="10.00">v8::internal::Isolate</text>
<text text-anchor="middle" x="1019.5" y="-171.71" font-family="Helvetica,sans-Serif" font-size="10.00">::factory</text>
</a>
</g>
</g>
<!-- Node3&#45;&gt;Node14 -->
<g id="edge8" class="edge">
<title>Node3&#45;&gt;Node14</title>
<path fill="none" stroke="midnightblue" d="M469.51,-829.14C479.87,-724.92 528.37,-258.24 571,-210.71 668.68,-101.8 863.96,-136.04 961.01,-161.98"/>
<polygon fill="midnightblue" stroke="midnightblue" points="960.37,-165.43 970.94,-164.69 962.22,-158.68 960.37,-165.43"/>
</g>
<!-- Node15 -->
<g id="node10" class="node">
<title>Node15</title>
<g id="a_node10"><a xlink:href="classv8_1_1internal_1_1V8.html#a5eb1d47c492fa1e85e7d7c31dd5cf2bb" target="_top" xlink:title=" ">
<polygon fill="white" stroke="red" points="774,-1241.71 774,-1271.71 924,-1271.71 924,-1241.71 774,-1241.71"/>
<text text-anchor="start" x="782" y="-1259.71" font-family="Helvetica,sans-Serif" font-size="10.00">v8::internal::V8::GetCurrent</text>
<text text-anchor="middle" x="849" y="-1248.71" font-family="Helvetica,sans-Serif" font-size="10.00">Platform</text>
</a>
</g>
</g>
<!-- Node3&#45;&gt;Node15 -->
<g id="edge9" class="edge">
<title>Node3&#45;&gt;Node15</title>
<path fill="none" stroke="midnightblue" d="M468.67,-870.44C473.88,-954.44 498.02,-1267.87 571,-1326.71 628.78,-1373.3 666.74,-1347.46 738,-1326.71 770.43,-1317.27 802.42,-1295.06 823.47,-1278.17"/>
<polygon fill="midnightblue" stroke="midnightblue" points="825.75,-1280.82 831.25,-1271.76 821.3,-1275.41 825.75,-1280.82"/>
</g>
<!-- Node18 -->
<g id="node11" class="node">
<title>Node18</title>
<g id="a_node11"><a xlink:href="namespacev8_1_1internal_1_1wasm.html#a55a717894f5d005ae86062dd4647a3b2" target="_top" xlink:title=" ">
<polygon fill="white" stroke="black" points="586,-859.71 586,-889.71 723,-889.71 723,-859.71 586,-859.71"/>
<text text-anchor="start" x="594" y="-877.71" font-family="Helvetica,sans-Serif" font-size="10.00">v8::internal::wasm</text>
<text text-anchor="middle" x="654.5" y="-866.71" font-family="Helvetica,sans-Serif" font-size="10.00">::GetWasmCodeManager</text>
</a>
</g>
</g>
<!-- Node3&#45;&gt;Node18 -->
<g id="edge11" class="edge">
<title>Node3&#45;&gt;Node18</title>
<path fill="none" stroke="midnightblue" d="M535.18,-858.81C548.34,-860.58 562.23,-862.44 575.69,-864.25"/>
<polygon fill="midnightblue" stroke="midnightblue" points="575.5,-867.76 585.87,-865.62 576.43,-860.82 575.5,-867.76"/>
</g>
<!-- Node19 -->
<g id="node12" class="node">
<title>Node19</title>
<g id="a_node12"><a xlink:href="classv8_1_1internal_1_1Isolate.html#aed5dcd4c10242ef0225dfbd02b5dbdd3" target="_top" xlink:title=" ">
<polygon fill="white" stroke="red" points="793.5,-1109.71 793.5,-1139.71 904.5,-1139.71 904.5,-1109.71 793.5,-1109.71"/>
<text text-anchor="start" x="801.5" y="-1127.71" font-family="Helvetica,sans-Serif" font-size="10.00">v8::internal::Isolate</text>
<text text-anchor="middle" x="849" y="-1116.71" font-family="Helvetica,sans-Serif" font-size="10.00">::has_exception</text>
</a>
</g>
</g>
<!-- Node3&#45;&gt;Node19 -->
<g id="edge12" class="edge">
<title>Node3&#45;&gt;Node19</title>
<path fill="none" stroke="midnightblue" d="M469.51,-870.54C475.36,-918.62 496.98,-1037.41 571,-1092.71 631.86,-1138.17 722.19,-1139.92 782.99,-1134.47"/>
<polygon fill="midnightblue" stroke="midnightblue" points="783.63,-1137.92 793.24,-1133.46 782.94,-1130.96 783.63,-1137.92"/>
</g>
<!-- Node20 -->
<g id="node13" class="node">
<title>Node20</title>
<g id="a_node13"><a xlink:href="classv8_1_1internal_1_1StackLimitCheck.html#ad110a0a0b0a1e38e3811875ec45a4843" target="_top" xlink:title=" ">
<polygon fill="white" stroke="red" points="589.5,-810.71 589.5,-840.71 719.5,-840.71 719.5,-810.71 589.5,-810.71"/>
<text text-anchor="start" x="597.5" y="-828.71" font-family="Helvetica,sans-Serif" font-size="10.00">v8::internal::StackLimit</text>
<text text-anchor="middle" x="654.5" y="-817.71" font-family="Helvetica,sans-Serif" font-size="10.00">Check::HasOverflowed</text>
</a>
</g>
</g>
<!-- Node3&#45;&gt;Node20 -->
<g id="edge14" class="edge">
<title>Node3&#45;&gt;Node20</title>
<path fill="none" stroke="midnightblue" d="M535.18,-840.98C549.52,-839.13 564.74,-837.16 579.32,-835.28"/>
<polygon fill="midnightblue" stroke="midnightblue" points="579.81,-838.75 589.28,-834 578.92,-831.8 579.81,-838.75"/>
</g>
<!-- Node24 -->
<g id="node14" class="node">
<title>Node24</title>
<g id="a_node14"><a xlink:href="classv8_1_1internal_1_1Isolate.html#ad0bb67e8e3c6c409314dd5e635b26349" target="_top" xlink:title=" ">
<polygon fill="white" stroke="black" points="571,-750.21 571,-791.21 738,-791.21 738,-750.21 571,-750.21"/>
<text text-anchor="start" x="579" y="-779.21" font-family="Helvetica,sans-Serif" font-size="10.00">v8::internal::Isolate</text>
<text text-anchor="start" x="579" y="-768.21" font-family="Helvetica,sans-Serif" font-size="10.00">::IncrementJavascriptExecution</text>
<text text-anchor="middle" x="654.5" y="-757.21" font-family="Helvetica,sans-Serif" font-size="10.00">Counter</text>
</a>
</g>
</g>
<!-- Node3&#45;&gt;Node24 -->
<g id="edge15" class="edge">
<title>Node3&#45;&gt;Node24</title>
<path fill="none" stroke="midnightblue" d="M509.98,-829.14C528.57,-820.36 550.72,-810.21 571,-801.71 576.33,-799.47 581.89,-797.22 587.49,-795.01"/>
<polygon fill="midnightblue" stroke="midnightblue" points="588.87,-798.23 596.92,-791.33 586.33,-791.71 588.87,-798.23"/>
</g>
<!-- Node25 -->
<g id="node15" class="node">
<title>Node25</title>
<g id="a_node15"><a xlink:href="namespacev8_1_1internal.html#a15cafb1d1ed1ac577609eb5e764384e8" target="_top" xlink:title=" ">
<polygon fill="white" stroke="red" points="597,-700.71 597,-730.71 712,-730.71 712,-700.71 597,-700.71"/>
<text text-anchor="start" x="605" y="-718.71" font-family="Helvetica,sans-Serif" font-size="10.00">v8::internal::indirect</text>
<text text-anchor="middle" x="654.5" y="-707.71" font-family="Helvetica,sans-Serif" font-size="10.00">_handle</text>
</a>
</g>
</g>
<!-- Node3&#45;&gt;Node25 -->
<g id="edge16" class="edge">
<title>Node3&#45;&gt;Node25</title>
<path fill="none" stroke="midnightblue" d="M481.91,-828.96C499.99,-804.43 533.24,-764 571,-740.71 576.06,-737.59 581.53,-734.83 587.17,-732.41"/>
<polygon fill="midnightblue" stroke="midnightblue" points="588.76,-735.55 596.78,-728.63 586.19,-729.03 588.76,-735.55"/>
</g>
<!-- Node27 -->
<g id="node16" class="node">
<title>Node27</title>
<g id="a_node16"><a xlink:href="classv8_1_1internal_1_1Builtins.html#ad1a3bce85ae8922e9ff9d9a6507c8efa" target="_top" xlink:title=" ">
<polygon fill="white" stroke="red" points="791.5,-1057.71 791.5,-1087.71 906.5,-1087.71 906.5,-1057.71 791.5,-1057.71"/>
<text text-anchor="start" x="799.5" y="-1075.71" font-family="Helvetica,sans-Serif" font-size="10.00">v8::internal::Builtins</text>
<text text-anchor="middle" x="849" y="-1064.71" font-family="Helvetica,sans-Serif" font-size="10.00">::InvokeApiFunction</text>
</a>
</g>
</g>
<!-- Node3&#45;&gt;Node27 -->
<g id="edge17" class="edge">
<title>Node3&#45;&gt;Node27</title>
<path fill="none" stroke="midnightblue" d="M470.47,-870.38C478.05,-914.64 502.61,-1018.17 571,-1062.71 633.32,-1103.3 721.36,-1098.52 781.34,-1088.36"/>
<polygon fill="midnightblue" stroke="midnightblue" points="782.24,-1091.76 791.46,-1086.55 781,-1084.87 782.24,-1091.76"/>
</g>
<!-- Node36 -->
<g id="node17" class="node">
<title>Node36</title>
<g id="a_node17"><a xlink:href="classv8_1_1internal_1_1Isolate.html#abe50923a63ccf9f7a10ef1258dce8280" target="_top" xlink:title=" ">
<polygon fill="white" stroke="black" points="599,-602.71 599,-632.71 710,-632.71 710,-602.71 599,-602.71"/>
<text text-anchor="start" x="607" y="-620.71" font-family="Helvetica,sans-Serif" font-size="10.00">v8::internal::Isolate</text>
<text text-anchor="middle" x="654.5" y="-609.71" font-family="Helvetica,sans-Serif" font-size="10.00">::isolate_data</text>
</a>
</g>
</g>
<!-- Node3&#45;&gt;Node36 -->
<g id="edge19" class="edge">
<title>Node3&#45;&gt;Node36</title>
<path fill="none" stroke="midnightblue" d="M472.05,-828.98C482.26,-787.37 510.96,-693.36 571,-642.71 576.51,-638.07 582.86,-634.28 589.54,-631.21"/>
<polygon fill="midnightblue" stroke="midnightblue" points="590.87,-634.44 598.81,-627.43 588.23,-627.96 590.87,-634.44"/>
</g>
<!-- Node37 -->
<g id="node18" class="node">
<title>Node37</title>
<g id="a_node18"><a xlink:href="classv8_1_1internal_1_1IsolateData.html#a1d66e1f1da6ef4e6650c718de28f4f8a" target="_top" xlink:title=" ">
<polygon fill="white" stroke="black" points="587.5,-553.71 587.5,-583.71 721.5,-583.71 721.5,-553.71 587.5,-553.71"/>
<text text-anchor="start" x="595.5" y="-571.71" font-family="Helvetica,sans-Serif" font-size="10.00">v8::internal::IsolateData</text>
<text text-anchor="middle" x="654.5" y="-560.71" font-family="Helvetica,sans-Serif" font-size="10.00">::isolate_root</text>
</a>
</g>
</g>
<!-- Node3&#45;&gt;Node37 -->
<g id="edge20" class="edge">
<title>Node3&#45;&gt;Node37</title>
<path fill="none" stroke="midnightblue" d="M469.83,-829.06C476.4,-780.66 499.52,-659.04 571,-593.71 573.43,-591.49 576.05,-589.46 578.82,-587.62"/>
<polygon fill="midnightblue" stroke="midnightblue" points="580.57,-590.65 587.47,-582.61 577.07,-584.59 580.57,-590.65"/>
</g>
<!-- Node38 -->
<g id="node19" class="node">
<title>Node38</title>
<g id="a_node19"><a xlink:href="structv8_1_1internal_1_1anonymous__namespace_02execution_8cc_03_1_1InvokeParams.html#ab39854e0756cd0776c7dd487e55d5168" target="_top" xlink:title=" ">
<polygon fill="white" stroke="black" points="580,-493.21 580,-534.21 729,-534.21 729,-493.21 580,-493.21"/>
<text text-anchor="start" x="588" y="-522.21" font-family="Helvetica,sans-Serif" font-size="10.00">v8::internal::anonymous</text>
<text text-anchor="start" x="588" y="-511.21" font-family="Helvetica,sans-Serif" font-size="10.00">_namespace{execution::</text>
<text text-anchor="middle" x="654.5" y="-500.21" font-family="Helvetica,sans-Serif" font-size="10.00">cc}::InvokeParams::IsScript</text>
</a>
</g>
</g>
<!-- Node3&#45;&gt;Node38 -->
<g id="edge21" class="edge">
<title>Node3&#45;&gt;Node38</title>
<path fill="none" stroke="midnightblue" d="M468.63,-828.82C472.68,-774.53 490.87,-627.47 571,-544.71 572.44,-543.23 573.95,-541.81 575.53,-540.47"/>
<polygon fill="midnightblue" stroke="midnightblue" points="577.95,-543.03 583.92,-534.28 573.8,-537.39 577.95,-543.03"/>
</g>
<!-- Node39 -->
<g id="node20" class="node">
<title>Node39</title>
<g id="a_node20"><a xlink:href="namespacev8_1_1internal_1_1anonymous__namespace_02execution_8cc_03.html#a8c1e813ef7117392107d28d2d7045bcf" target="_top" xlink:title=" ">
<polygon fill="white" stroke="red" points="780.5,-893.21 780.5,-934.21 917.5,-934.21 917.5,-893.21 780.5,-893.21"/>
<text text-anchor="start" x="788.5" y="-922.21" font-family="Helvetica,sans-Serif" font-size="10.00">v8::internal::anonymous</text>
<text text-anchor="start" x="788.5" y="-911.21" font-family="Helvetica,sans-Serif" font-size="10.00">_namespace{execution::</text>
<text text-anchor="middle" x="849" y="-900.21" font-family="Helvetica,sans-Serif" font-size="10.00">cc}::JSEntry</text>
</a>
</g>
</g>
<!-- Node3&#45;&gt;Node39 -->
<g id="edge22" class="edge">
<title>Node3&#45;&gt;Node39</title>
<path fill="none" stroke="midnightblue" d="M501.15,-870.22C520.78,-881.08 546.45,-893.43 571,-899.71 636.66,-916.49 713.84,-919.05 770.04,-917.96"/>
<polygon fill="midnightblue" stroke="midnightblue" points="770.37,-921.45 780.28,-917.71 770.2,-914.45 770.37,-921.45"/>
</g>
<!-- Node41 -->
<g id="node21" class="node">
<title>Node41</title>
<g id="a_node21"><a xlink:href="namespacev8_1_1internal.html#aad3893fccd0a1a6e0ddcdf0a940428c7" target="_top" xlink:title=" ">
<polygon fill="white" stroke="black" points="586,-443.71 586,-473.71 723,-473.71 723,-443.71 586,-443.71"/>
<text text-anchor="start" x="594" y="-461.71" font-family="Helvetica,sans-Serif" font-size="10.00">v8::internal::JSParameter</text>
<text text-anchor="middle" x="654.5" y="-450.71" font-family="Helvetica,sans-Serif" font-size="10.00">Count</text>
</a>
</g>
</g>
<!-- Node3&#45;&gt;Node41 -->
<g id="edge24" class="edge">
<title>Node3&#45;&gt;Node41</title>
<path fill="none" stroke="midnightblue" d="M466.92,-828.98C466.38,-767.3 473.4,-583.15 571,-483.71 572.88,-481.79 574.9,-480.02 577.04,-478.39"/>
<polygon fill="midnightblue" stroke="midnightblue" points="579.28,-481.1 585.77,-472.73 575.47,-475.23 579.28,-481.1"/>
</g>
<!-- Node42 -->
<g id="node22" class="node">
<title>Node42</title>
<g id="a_node22"><a xlink:href="classv8_1_1internal_1_1Isolate.html#a9435d2734e67d1dac0a3ce2a5b9387b8" target="_top" xlink:title=" ">
<polygon fill="white" stroke="red" points="599,-651.71 599,-681.71 710,-681.71 710,-651.71 599,-651.71"/>
<text text-anchor="start" x="607" y="-669.71" font-family="Helvetica,sans-Serif" font-size="10.00">v8::internal::Isolate</text>
<text text-anchor="middle" x="654.5" y="-658.71" font-family="Helvetica,sans-Serif" font-size="10.00">::native_context</text>
</a>
</g>
</g>
<!-- Node3&#45;&gt;Node42 -->
<g id="edge25" class="edge">
<title>Node3&#45;&gt;Node42</title>
<path fill="none" stroke="midnightblue" d="M475.42,-829.2C489.48,-795.46 522.04,-728.36 571,-691.71 576.55,-687.55 582.8,-684.08 589.31,-681.18"/>
<polygon fill="midnightblue" stroke="midnightblue" points="590.99,-684.28 598.98,-677.33 588.4,-677.78 590.99,-684.28"/>
</g>
<!-- Node43 -->
<g id="node23" class="node">
<title>Node43</title>
<g id="a_node23"><a xlink:href="namespacev8_1_1internal_1_1anonymous__namespace_02execution_8cc_03.html#a84c2a1ee9a4c1487e2af2343a9d076a7" target="_top" xlink:title=" ">
<polygon fill="white" stroke="red" points="586,-345.21 586,-386.21 723,-386.21 723,-345.21 586,-345.21"/>
<text text-anchor="start" x="594" y="-374.21" font-family="Helvetica,sans-Serif" font-size="10.00">v8::internal::anonymous</text>
<text text-anchor="start" x="594" y="-363.21" font-family="Helvetica,sans-Serif" font-size="10.00">_namespace{execution::</text>
<text text-anchor="middle" x="654.5" y="-352.21" font-family="Helvetica,sans-Serif" font-size="10.00">cc}::NewScriptContext</text>
</a>
</g>
</g>
<!-- Node3&#45;&gt;Node43 -->
<g id="edge28" class="edge">
<title>Node3&#45;&gt;Node43</title>
<path fill="none" stroke="midnightblue" d="M469.77,-829.03C478.82,-749.98 514.57,-467.97 571,-400.71 573.57,-397.65 576.46,-394.85 579.57,-392.28"/>
<polygon fill="midnightblue" stroke="midnightblue" points="581.66,-395.09 587.72,-386.4 577.56,-389.42 581.66,-395.09"/>
</g>
<!-- Node3246 -->
<g id="node24" class="node">
<title>Node3246</title>
<g id="a_node24"><a xlink:href="classv8_1_1internal_1_1Isolate.html#ad2baf6ef4d52c06f250fd857eb6f122b" target="_top" xlink:title=" ">
<polygon fill="white" stroke="red" points="583,-947.71 583,-977.71 726,-977.71 726,-947.71 583,-947.71"/>
<text text-anchor="start" x="591" y="-965.71" font-family="Helvetica,sans-Serif" font-size="10.00">v8::internal::Isolate</text>
<text text-anchor="middle" x="654.5" y="-954.71" font-family="Helvetica,sans-Serif" font-size="10.00">::ReportPendingMessages</text>
</a>
</g>
</g>
<!-- Node3&#45;&gt;Node3246 -->
<g id="edge31" class="edge">
<title>Node3&#45;&gt;Node3246</title>
<path fill="none" stroke="midnightblue" d="M488.98,-870.46C508.91,-888.82 540.08,-915.32 571,-932.71 578.35,-936.84 586.38,-940.59 594.45,-943.93"/>
<polygon fill="midnightblue" stroke="midnightblue" points="593.32,-947.25 603.9,-947.66 595.88,-940.73 593.32,-947.25"/>
</g>
<!-- Node212 -->
<g id="node25" class="node">
<title>Node212</title>
<g id="a_node25"><a xlink:href="classv8_1_1internal_1_1Isolate.html#ae3b1ed161b9a3645b85332a2737ddae4" target="_top" xlink:title=" ">
<polygon fill="white" stroke="red" points="599,-219.71 599,-249.71 710,-249.71 710,-219.71 599,-219.71"/>
<text text-anchor="start" x="607" y="-237.71" font-family="Helvetica,sans-Serif" font-size="10.00">v8::internal::Isolate</text>
<text text-anchor="middle" x="654.5" y="-226.71" font-family="Helvetica,sans-Serif" font-size="10.00">::StackOverflow</text>
</a>
</g>
</g>
<!-- Node3&#45;&gt;Node212 -->
<g id="edge34" class="edge">
<title>Node3&#45;&gt;Node212</title>
<path fill="none" stroke="midnightblue" d="M468.13,-829C471.05,-757.18 486.93,-513.45 571,-335.71 585.44,-305.17 611.07,-275.93 629.94,-256.84"/>
<polygon fill="midnightblue" stroke="midnightblue" points="632.42,-259.31 637.06,-249.79 627.49,-254.34 632.42,-259.31"/>
</g>
<!-- Node3248 -->
<g id="node27" class="node">
<title>Node3248</title>
<g id="a_node27"><a xlink:href="classv8_1_1internal_1_1Isolate.html#a1b20b0b6c352d0a19297f21dd7e62e5d" target="_top" xlink:title=" ">
<polygon fill="white" stroke="red" points="589,-1286.71 589,-1316.71 720,-1316.71 720,-1286.71 589,-1286.71"/>
<text text-anchor="start" x="597" y="-1304.71" font-family="Helvetica,sans-Serif" font-size="10.00">v8::internal::Isolate</text>
<text text-anchor="middle" x="654.5" y="-1293.71" font-family="Helvetica,sans-Serif" font-size="10.00">::ThrowIllegalOperation</text>
</a>
</g>
</g>
<!-- Node3&#45;&gt;Node3248 -->
<g id="edge39" class="edge">
<title>Node3&#45;&gt;Node3248</title>
<path fill="none" stroke="midnightblue" d="M469.8,-870.35C478.75,-947.29 513.69,-1216.08 571,-1276.71 573.75,-1279.62 576.84,-1282.2 580.15,-1284.48"/>
<polygon fill="midnightblue" stroke="midnightblue" points="578.4,-1287.51 588.79,-1289.56 581.94,-1281.48 578.4,-1287.51"/>
</g>
<!-- Node3249 -->
<g id="node28" class="node">
<title>Node3249</title>
<g id="a_node28"><a xlink:href="namespacev8.html#a23e3554e42c1196b69ff992c5dbe12cb" target="_top" xlink:title=" ">
<polygon fill="white" stroke="red" points="617,-1248.21 617,-1267.21 692,-1267.21 692,-1248.21 617,-1248.21"/>
<text text-anchor="middle" x="654.5" y="-1255.21" font-family="Helvetica,sans-Serif" font-size="10.00">v8::ToCData</text>
</a>
</g>
</g>
<!-- Node3&#45;&gt;Node3249 -->
<g id="edge40" class="edge">
<title>Node3&#45;&gt;Node3249</title>
<path fill="none" stroke="midnightblue" d="M470.18,-870.37C480.02,-943.15 516.49,-1186 571,-1238.71 580.5,-1247.9 593.52,-1252.98 606.4,-1255.7"/>
<polygon fill="midnightblue" stroke="midnightblue" points="606.19,-1259.21 616.63,-1257.41 607.34,-1252.31 606.19,-1259.21"/>
</g>
<!-- Node341 -->
<g id="node29" class="node">
<title>Node341</title>
<g id="a_node29"><a xlink:href="classv8_1_1Isolate.html#aa672f933a7881431b14362489d42192f" target="_top" xlink:title="Returns the entered isolate for the current thread or NULL in case there is no current isolate.">
<polygon fill="white" stroke="black" points="584,-1210.21 584,-1229.21 725,-1229.21 725,-1210.21 584,-1210.21"/>
<text text-anchor="middle" x="654.5" y="-1217.21" font-family="Helvetica,sans-Serif" font-size="10.00">v8::Isolate::TryGetCurrent</text>
</a>
</g>
</g>
<!-- Node3&#45;&gt;Node341 -->
<g id="edge41" class="edge">
<title>Node3&#45;&gt;Node341</title>
<path fill="none" stroke="midnightblue" d="M466.92,-870.35C466.41,-930.81 473.62,-1109.04 571,-1200.71 572.53,-1202.15 574.14,-1203.48 575.82,-1204.72"/>
<polygon fill="midnightblue" stroke="midnightblue" points="574.4,-1207.95 584.76,-1210.17 578.04,-1201.98 574.4,-1207.95"/>
</g>
<!-- Node15&#45;&gt;Node6 -->
<g id="edge10" class="edge">
<title>Node15&#45;&gt;Node6</title>
<path fill="none" stroke="midnightblue" d="M862.19,-1241.46C877.9,-1221.32 905.4,-1184.33 924,-1149.71 965.22,-1072.98 999.05,-974.29 1012.39,-933.1"/>
<polygon fill="midnightblue" stroke="midnightblue" points="1015.75,-934.09 1015.46,-923.5 1009.08,-931.96 1015.75,-934.09"/>
</g>
<!-- Node19&#45;&gt;Node6 -->
<g id="edge13" class="edge">
<title>Node19&#45;&gt;Node6</title>
<path fill="none" stroke="midnightblue" d="M904.79,-1110.12C911.73,-1106.77 918.36,-1102.69 924,-1097.71 975.97,-1051.84 1003.3,-970.53 1013.59,-933.3"/>
<polygon fill="midnightblue" stroke="midnightblue" points="1017.08,-933.82 1016.25,-923.26 1010.31,-932.03 1017.08,-933.82"/>
</g>
<!-- Node27&#45;&gt;Node6 -->
<g id="edge18" class="edge">
<title>Node27&#45;&gt;Node6</title>
<path fill="none" stroke="midnightblue" d="M901.82,-1057.59C909.67,-1054.06 917.35,-1049.81 924,-1044.71 964.44,-1013.72 995.08,-960.73 1009.46,-932.58"/>
<polygon fill="midnightblue" stroke="midnightblue" points="1012.69,-933.94 1014.01,-923.42 1006.42,-930.82 1012.69,-933.94"/>
</g>
<!-- Node39&#45;&gt;Node6 -->
<g id="edge23" class="edge">
<title>Node39&#45;&gt;Node6</title>
<path fill="none" stroke="midnightblue" d="M917.56,-913.71C928.18,-913.71 939.16,-913.71 949.81,-913.71"/>
<polygon fill="midnightblue" stroke="midnightblue" points="949.88,-917.21 959.88,-913.71 949.88,-910.21 949.88,-917.21"/>
</g>
<!-- Node42&#45;&gt;Node12 -->
<g id="edge26" class="edge">
<title>Node42&#45;&gt;Node12</title>
<path fill="none" stroke="midnightblue" d="M710.08,-657.6C720.1,-654.12 729.92,-649.33 738,-642.71 798.65,-592.99 829.84,-500.97 841.91,-456.74"/>
<polygon fill="midnightblue" stroke="midnightblue" points="845.36,-457.38 844.51,-446.82 838.59,-455.6 845.36,-457.38"/>
</g>
<!-- Node42&#45;&gt;Node6 -->
<g id="edge27" class="edge">
<title>Node42&#45;&gt;Node6</title>
<path fill="none" stroke="midnightblue" d="M710.35,-680.16C719.82,-683.37 729.38,-687.2 738,-691.71 849.96,-750.26 961.11,-855.95 1002.04,-896.88"/>
<polygon fill="midnightblue" stroke="midnightblue" points="999.74,-899.53 1009.27,-904.17 1004.71,-894.61 999.74,-899.53"/>
</g>
<!-- Node43&#45;&gt;Node12 -->
<g id="edge29" class="edge">
<title>Node43&#45;&gt;Node12</title>
<path fill="none" stroke="midnightblue" d="M715.35,-386.23C740.69,-394.92 769.96,-404.95 794.56,-413.39"/>
<polygon fill="midnightblue" stroke="midnightblue" points="793.49,-416.72 804.09,-416.65 795.76,-410.1 793.49,-416.72"/>
</g>
<!-- Node43&#45;&gt;Node14 -->
<g id="edge30" class="edge">
<title>Node43&#45;&gt;Node14</title>
<path fill="none" stroke="midnightblue" d="M723.24,-358.76C780.48,-350.33 862.69,-332 924,-292.71 959.48,-269.98 988.43,-229.7 1004.57,-203.87"/>
<polygon fill="midnightblue" stroke="midnightblue" points="1007.71,-205.44 1009.92,-195.07 1001.73,-201.8 1007.71,-205.44"/>
</g>
<!-- Node3246&#45;&gt;Node10 -->
<g id="edge32" class="edge">
<title>Node3246&#45;&gt;Node10</title>
<path fill="none" stroke="midnightblue" d="M706.33,-977.76C731.22,-985.13 761.37,-994.06 787.45,-1001.78"/>
<polygon fill="midnightblue" stroke="midnightblue" points="786.64,-1005.19 797.22,-1004.67 788.63,-998.48 786.64,-1005.19"/>
</g>
<!-- Node3246&#45;&gt;Node6 -->
<g id="edge33" class="edge">
<title>Node3246&#45;&gt;Node6</title>
<path fill="none" stroke="midnightblue" d="M726.19,-962.26C780.68,-960.82 857.68,-956.4 924,-943.71 944.35,-939.82 966.46,-932.95 984.17,-926.77"/>
<polygon fill="midnightblue" stroke="midnightblue" points="985.81,-929.9 994.04,-923.24 983.45,-923.31 985.81,-929.9"/>
</g>
<!-- Node212&#45;&gt;Node14 -->
<g id="edge38" class="edge">
<title>Node212&#45;&gt;Node14</title>
<path fill="none" stroke="midnightblue" d="M710.07,-230.56C764.55,-225.92 850.51,-217.22 924,-203.71 933.86,-201.9 944.22,-199.64 954.32,-197.23"/>
<polygon fill="midnightblue" stroke="midnightblue" points="955.42,-200.57 964.31,-194.8 953.76,-193.77 955.42,-200.57"/>
</g>
<!-- Node213 -->
<g id="node26" class="node">
<title>Node213</title>
<g id="a_node26"><a xlink:href="classv8_1_1internal_1_1JSObject.html#a16c9b19de5218c056da014960fba72ae" target="_top" xlink:title=" ">
<polygon fill="white" stroke="red" points="789.5,-252.71 789.5,-282.71 908.5,-282.71 908.5,-252.71 789.5,-252.71"/>
<text text-anchor="start" x="797.5" y="-270.71" font-family="Helvetica,sans-Serif" font-size="10.00">v8::internal::JSObject</text>
<text text-anchor="middle" x="849" y="-259.71" font-family="Helvetica,sans-Serif" font-size="10.00">::AddProperty</text>
</a>
</g>
</g>
<!-- Node212&#45;&gt;Node213 -->
<g id="edge35" class="edge">
<title>Node212&#45;&gt;Node213</title>
<path fill="none" stroke="midnightblue" d="M710.15,-244.08C731.64,-247.76 756.57,-252.04 779.26,-255.93"/>
<polygon fill="midnightblue" stroke="midnightblue" points="778.73,-259.39 789.17,-257.63 779.91,-252.49 778.73,-259.39"/>
</g>
<!-- Node213&#45;&gt;Node6 -->
<g id="edge36" class="edge">
<title>Node213&#45;&gt;Node6</title>
<path fill="none" stroke="midnightblue" d="M873.6,-282.93C890.45,-295.11 912.15,-313.75 924,-335.71 978.12,-436.01 1009.92,-803.87 1016.99,-893.78"/>
<polygon fill="midnightblue" stroke="midnightblue" points="1013.52,-894.26 1017.78,-903.96 1020.5,-893.72 1013.52,-894.26"/>
</g>
<!-- Node213&#45;&gt;Node14 -->
<g id="edge37" class="edge">
<title>Node213&#45;&gt;Node14</title>
<path fill="none" stroke="midnightblue" d="M890.48,-252.7C901.52,-248.24 913.36,-243.09 924,-237.71 946,-226.59 969.63,-212.09 987.76,-200.36"/>
<polygon fill="midnightblue" stroke="midnightblue" points="989.73,-203.26 996.19,-194.86 985.9,-197.4 989.73,-203.26"/>
</g>
<!-- Node3250&#45;&gt;Node14 -->
<g id="edge44" class="edge">
<title>Node3250&#45;&gt;Node14</title>
<path fill="none" stroke="midnightblue" d="M714.79,-76.68C733.59,-72.59 754.55,-68.74 774,-66.71 840.31,-59.79 863.6,-38.49 924,-66.71 962.96,-84.92 991.52,-127.97 1006.52,-155.36"/>
<polygon fill="midnightblue" stroke="midnightblue" points="1003.49,-157.13 1011.26,-164.34 1009.68,-153.86 1003.49,-157.13"/>
</g>
<!-- Node3250&#45;&gt;Node213 -->
<g id="edge43" class="edge">
<title>Node3250&#45;&gt;Node213</title>
<path fill="none" stroke="midnightblue" d="M671.01,-106.79C693.45,-128.51 736.42,-169.73 774,-203.71 789.8,-217.99 807.87,-233.64 822.21,-245.89"/>
<polygon fill="midnightblue" stroke="midnightblue" points="820.28,-248.85 830.17,-252.67 824.82,-243.52 820.28,-248.85"/>
</g>
<!-- Node2621 -->
<g id="node31" class="node">
<title>Node2621</title>
<g id="a_node31"><a xlink:href="classv8_1_1internal_1_1Factory.html#a54c843caad6266415afc266860855cdb" target="_top" xlink:title=" ">
<polygon fill="white" stroke="red" points="792.5,-164.71 792.5,-194.71 905.5,-194.71 905.5,-164.71 792.5,-164.71"/>
<text text-anchor="start" x="800.5" y="-182.71" font-family="Helvetica,sans-Serif" font-size="10.00">v8::internal::Factory</text>
<text text-anchor="middle" x="849" y="-171.71" font-family="Helvetica,sans-Serif" font-size="10.00">::NewJSObject</text>
</a>
</g>
</g>
<!-- Node3250&#45;&gt;Node2621 -->
<g id="edge45" class="edge">
<title>Node3250&#45;&gt;Node2621</title>
<path fill="none" stroke="midnightblue" d="M688.59,-106.84C720.92,-121.62 770.27,-144.17 805.48,-160.27"/>
<polygon fill="midnightblue" stroke="midnightblue" points="804.47,-163.66 815.02,-164.63 807.38,-157.29 804.47,-163.66"/>
</g>
<!-- Node2539 -->
<g id="node32" class="node">
<title>Node2539</title>
<g id="a_node32"><a xlink:href="classv8_1_1internal_1_1FactoryBase.html#a010b93a09d3bd39d371cfd7c05878651" target="_top" xlink:title=" ">
<polygon fill="white" stroke="red" points="780.5,-76.71 780.5,-106.71 917.5,-106.71 917.5,-76.71 780.5,-76.71"/>
<text text-anchor="start" x="788.5" y="-94.71" font-family="Helvetica,sans-Serif" font-size="10.00">v8::internal::FactoryBase</text>
<text text-anchor="middle" x="849" y="-83.71" font-family="Helvetica,sans-Serif" font-size="10.00">::ToBoolean</text>
</a>
</g>
</g>
<!-- Node3250&#45;&gt;Node2539 -->
<g id="edge47" class="edge">
<title>Node3250&#45;&gt;Node2539</title>
<path fill="none" stroke="midnightblue" d="M733.52,-91.71C745.65,-91.71 758.18,-91.71 770.31,-91.71"/>
<polygon fill="midnightblue" stroke="midnightblue" points="770.38,-95.21 780.38,-91.71 770.38,-88.21 770.38,-95.21"/>
</g>
<!-- Node2621&#45;&gt;Node6 -->
<g id="edge46" class="edge">
<title>Node2621&#45;&gt;Node6</title>
<path fill="none" stroke="midnightblue" d="M875.52,-194.85C892.16,-206.14 912.78,-223.13 924,-243.71 987.66,-360.54 1012.65,-795.23 1017.56,-893.76"/>
<polygon fill="midnightblue" stroke="midnightblue" points="1014.07,-894.03 1018.05,-903.85 1021.06,-893.69 1014.07,-894.03"/>
</g>
<!-- Node3252 -->
<g id="node34" class="node">
<title>Node3252</title>
<g id="a_node34"><a xlink:href="classv8_1_1base_1_1TimeDelta.html#aedb23f3b7d15531e09b71883aaa96b6d" target="_top" xlink:title=" ">
<polygon fill="white" stroke="black" points="409,-193.71 409,-223.71 524,-223.71 524,-193.71 409,-193.71"/>
<text text-anchor="start" x="417" y="-211.71" font-family="Helvetica,sans-Serif" font-size="10.00">v8::base::TimeDelta</text>
<text text-anchor="middle" x="466.5" y="-200.71" font-family="Helvetica,sans-Serif" font-size="10.00">::FromMilliseconds</text>
</a>
</g>
</g>
<!-- Node3251&#45;&gt;Node3252 -->
<g id="edge50" class="edge">
<title>Node3251&#45;&gt;Node3252</title>
<path fill="none" stroke="midnightblue" d="M362.05,-210.21C374.57,-210.02 387.08,-209.84 398.85,-209.67"/>
<polygon fill="midnightblue" stroke="midnightblue" points="399.04,-213.17 408.99,-209.53 398.94,-206.17 399.04,-213.17"/>
</g>
<!-- Node593 -->
<g id="node35" class="node">
<title>Node593</title>
<g id="a_node35"><a xlink:href="classv8_1_1internal_1_1Object.html#a8a6c6d9b71bb8f6bd6004b8f6f48c9f7" target="_top" xlink:title=" ">
<polygon fill="white" stroke="red" points="411.5,-242.71 411.5,-272.71 521.5,-272.71 521.5,-242.71 411.5,-242.71"/>
<text text-anchor="start" x="419.5" y="-260.71" font-family="Helvetica,sans-Serif" font-size="10.00">v8::internal::Object</text>
<text text-anchor="middle" x="466.5" y="-249.71" font-family="Helvetica,sans-Serif" font-size="10.00">::NumberValue</text>
</a>
</g>
</g>
<!-- Node3251&#45;&gt;Node593 -->
<g id="edge51" class="edge">
<title>Node3251&#45;&gt;Node593</title>
<path fill="none" stroke="midnightblue" d="M350.52,-232.22C367.71,-236.03 385.31,-239.93 401.41,-243.5"/>
<polygon fill="midnightblue" stroke="midnightblue" points="400.7,-246.93 411.22,-245.68 402.21,-240.1 400.7,-246.93"/>
</g>
<!-- Node593&#45;&gt;Node6 -->
<g id="edge52" class="edge">
<title>Node593&#45;&gt;Node6</title>
<path fill="none" stroke="midnightblue" d="M521.73,-263.55C631.28,-276.56 872.88,-311.73 924,-373.71 991.67,-455.75 1013.21,-806.03 1017.59,-893.74"/>
<polygon fill="midnightblue" stroke="midnightblue" points="1014.1,-894.1 1018.08,-903.92 1021.09,-893.76 1014.1,-894.1"/>
</g>
<!-- Node593&#45;&gt;Node218 -->
<g id="edge53" class="edge">
<title>Node593&#45;&gt;Node218</title>
<path fill="none" stroke="midnightblue" d="M521.62,-244.43C526.63,-241.54 531.22,-238.01 535,-233.71 585.11,-176.66 517.69,-120.77 571,-66.71 574.43,-63.23 578.36,-60.33 582.61,-57.93"/>
<polygon fill="midnightblue" stroke="midnightblue" points="584.14,-61.07 591.7,-53.65 581.16,-54.74 584.14,-61.07"/>
</g>
<!-- Node256&#45;&gt;Node14 -->
<g id="edge57" class="edge">
<title>Node256&#45;&gt;Node14</title>
<path fill="none" stroke="midnightblue" d="M521.54,-22.54C611.82,-2.07 795.99,25.69 924,-48.71 966,-73.12 994.44,-124.49 1008.43,-155.15"/>
<polygon fill="midnightblue" stroke="midnightblue" points="1005.23,-156.57 1012.46,-164.31 1011.64,-153.75 1005.23,-156.57"/>
</g>
<!-- Node256&#45;&gt;Node218 -->
<g id="edge58" class="edge">
<title>Node256&#45;&gt;Node218</title>
<path fill="none" stroke="midnightblue" d="M521.55,-39.91C540.36,-41.02 561.76,-42.28 581.78,-43.47"/>
<polygon fill="midnightblue" stroke="midnightblue" points="581.6,-46.96 591.79,-44.06 582.01,-39.98 581.6,-46.96"/>
</g>
</g>
</svg>
