<?xml version="1.0" encoding="UTF-8" standalone="no"?>
<!DOCTYPE svg PUBLIC "-//W3C//DTD SVG 1.1//EN"
 "http://www.w3.org/Graphics/SVG/1.1/DTD/svg11.dtd">
<!-- Generated by graphviz version 2.43.0 (0)
 -->
<!-- Title: v8_inspector::anonymous_namespace{custom&#45;preview::cc}::reportError Pages: 1 -->
<svg width="959pt" height="110pt"
 viewBox="0.00 0.00 959.00 110.12" xmlns="http://www.w3.org/2000/svg" xmlns:xlink="http://www.w3.org/1999/xlink">
<g id="graph0" class="graph" transform="scale(1 1) rotate(0) translate(4 106.12)">
<title>v8_inspector::anonymous_namespace{custom&#45;preview::cc}::reportError</title>
<polygon fill="white" stroke="transparent" points="-4,4 -4,-106.12 955,-106.12 955,4 -4,4"/>
<!-- Node1 -->
<g id="node1" class="node">
<title>Node1</title>
<g id="a_node1"><a xlink:title=" ">
<polygon fill="#bfbfbf" stroke="black" points="788,-49.5 788,-90.5 951,-90.5 951,-49.5 788,-49.5"/>
<text text-anchor="start" x="796" y="-78.5" font-family="Helvetica,sans-Serif" font-size="10.00">v8_inspector::anonymous</text>
<text text-anchor="start" x="796" y="-67.5" font-family="Helvetica,sans-Serif" font-size="10.00">_namespace{custom&#45;preview</text>
<text text-anchor="middle" x="869.5" y="-56.5" font-family="Helvetica,sans-Serif" font-size="10.00">::cc}::reportError</text>
</a>
</g>
</g>
<!-- Node2 -->
<g id="node2" class="node">
<title>Node2</title>
<g id="a_node2"><a xlink:href="namespacev8__inspector_1_1anonymous__namespace_02custom-preview_8cc_03.html#a12e88da74cd086aad8deb576767b7015" target="_top" xlink:title=" ">
<polygon fill="white" stroke="black" points="390,-43.5 390,-84.5 553,-84.5 553,-43.5 390,-43.5"/>
<text text-anchor="start" x="398" y="-72.5" font-family="Helvetica,sans-Serif" font-size="10.00">v8_inspector::anonymous</text>
<text text-anchor="start" x="398" y="-61.5" font-family="Helvetica,sans-Serif" font-size="10.00">_namespace{custom&#45;preview</text>
<text text-anchor="middle" x="471.5" y="-50.5" font-family="Helvetica,sans-Serif" font-size="10.00">::cc}::bodyCallback</text>
</a>
</g>
</g>
<!-- Node1&#45;&gt;Node2 -->
<g id="edge1" class="edge">
<title>Node1&#45;&gt;Node2</title>
<path fill="none" stroke="midnightblue" d="M777.65,-68.62C709.88,-67.6 618.15,-66.21 553,-65.22"/>
<polygon fill="midnightblue" stroke="midnightblue" points="777.83,-72.13 787.89,-68.78 777.94,-65.13 777.83,-72.13"/>
</g>
<!-- Node3 -->
<g id="node3" class="node">
<title>Node3</title>
<g id="a_node3"><a xlink:href="namespacev8__inspector.html#a1e54fde6c533e26aee050e8bec43959e" target="_top" xlink:title=" ">
<polygon fill="white" stroke="black" points="188,-49 188,-79 354,-79 354,-49 188,-49"/>
<text text-anchor="start" x="196" y="-67" font-family="Helvetica,sans-Serif" font-size="10.00">v8_inspector::generateCustom</text>
<text text-anchor="middle" x="271" y="-56" font-family="Helvetica,sans-Serif" font-size="10.00">Preview</text>
</a>
</g>
</g>
<!-- Node1&#45;&gt;Node3 -->
<g id="edge4" class="edge">
<title>Node1&#45;&gt;Node3</title>
<path fill="none" stroke="midnightblue" d="M777.74,-83.93C681.23,-96.55 524.32,-110.81 390,-94 366.51,-91.06 340.99,-84.95 319.71,-79.01"/>
<polygon fill="midnightblue" stroke="midnightblue" points="778.3,-87.38 787.75,-82.59 777.38,-80.44 778.3,-87.38"/>
</g>
<!-- Node8 -->
<g id="node5" class="node">
<title>Node8</title>
<g id="a_node5"><a xlink:href="namespacev8__inspector_1_1anonymous__namespace_02custom-preview_8cc_03.html#a5c8188f94a82f1ba20626a6f289ce52b" target="_top" xlink:title=" ">
<polygon fill="white" stroke="black" points="589,-0.5 589,-41.5 752,-41.5 752,-0.5 589,-0.5"/>
<text text-anchor="start" x="597" y="-29.5" font-family="Helvetica,sans-Serif" font-size="10.00">v8_inspector::anonymous</text>
<text text-anchor="start" x="597" y="-18.5" font-family="Helvetica,sans-Serif" font-size="10.00">_namespace{custom&#45;preview</text>
<text text-anchor="middle" x="670.5" y="-7.5" font-family="Helvetica,sans-Serif" font-size="10.00">::cc}::substituteObjectTags</text>
</a>
</g>
</g>
<!-- Node1&#45;&gt;Node8 -->
<g id="edge5" class="edge">
<title>Node1&#45;&gt;Node8</title>
<path fill="none" stroke="midnightblue" d="M778.06,-47.51C769.39,-45.35 760.64,-43.17 752.07,-41.04"/>
<polygon fill="midnightblue" stroke="midnightblue" points="777.25,-50.91 787.8,-49.93 778.94,-44.12 777.25,-50.91"/>
</g>
<!-- Node2&#45;&gt;Node3 -->
<g id="edge2" class="edge">
<title>Node2&#45;&gt;Node3</title>
<path fill="none" stroke="midnightblue" d="M379.54,-64C371.12,-64 362.62,-64 354.28,-64"/>
<polygon fill="midnightblue" stroke="midnightblue" points="379.76,-67.5 389.76,-64 379.76,-60.5 379.76,-67.5"/>
</g>
<!-- Node4 -->
<g id="node4" class="node">
<title>Node4</title>
<g id="a_node4"><a xlink:href="classv8__inspector_1_1InjectedScript.html#ab3e4971cbbb9b22ec0b1170647320cfd" target="_top" xlink:title=" ">
<polygon fill="white" stroke="red" points="0,-49 0,-79 152,-79 152,-49 0,-49"/>
<text text-anchor="start" x="8" y="-67" font-family="Helvetica,sans-Serif" font-size="10.00">v8_inspector::InjectedScript</text>
<text text-anchor="middle" x="76" y="-56" font-family="Helvetica,sans-Serif" font-size="10.00">::wrapObjectMirror</text>
</a>
</g>
</g>
<!-- Node3&#45;&gt;Node4 -->
<g id="edge3" class="edge">
<title>Node3&#45;&gt;Node4</title>
<path fill="none" stroke="midnightblue" d="M177.77,-64C169.14,-64 160.46,-64 152.02,-64"/>
<polygon fill="midnightblue" stroke="midnightblue" points="177.87,-67.5 187.87,-64 177.87,-60.5 177.87,-67.5"/>
</g>
<!-- Node8&#45;&gt;Node2 -->
<g id="edge6" class="edge">
<title>Node8&#45;&gt;Node2</title>
<path fill="none" stroke="midnightblue" d="M578.78,-40.8C570.2,-42.67 561.55,-44.56 553.07,-46.41"/>
<polygon fill="midnightblue" stroke="midnightblue" points="579.78,-44.17 588.8,-38.61 578.29,-37.33 579.78,-44.17"/>
</g>
<!-- Node8&#45;&gt;Node3 -->
<g id="edge7" class="edge">
<title>Node8&#45;&gt;Node3</title>
<path fill="none" stroke="midnightblue" d="M578.91,-20.58C523.98,-21.48 452.65,-24.68 390,-34 367.32,-37.38 342.66,-43.28 321.79,-48.96"/>
<polygon fill="midnightblue" stroke="midnightblue" points="579.01,-24.08 588.96,-20.44 578.92,-17.08 579.01,-24.08"/>
</g>
</g>
</svg>
