<?xml version="1.0" encoding="UTF-8" standalone="no"?>
<!DOCTYPE svg PUBLIC "-//W3C//DTD SVG 1.1//EN"
 "http://www.w3.org/Graphics/SVG/1.1/DTD/svg11.dtd">
<!-- Generated by graphviz version 2.43.0 (0)
 -->
<!-- Title: v8::internal::win64_unwindinfo::anonymous_namespace{unwinding&#45;info&#45;win64::cc}::LoadNtdllUnwindingFunctions Pages: 1 -->
<svg width="951pt" height="220pt"
 viewBox="0.00 0.00 951.00 220.00" xmlns="http://www.w3.org/2000/svg" xmlns:xlink="http://www.w3.org/1999/xlink">
<g id="graph0" class="graph" transform="scale(1 1) rotate(0) translate(4 216)">
<title>v8::internal::win64_unwindinfo::anonymous_namespace{unwinding&#45;info&#45;win64::cc}::LoadNtdllUnwindingFunctions</title>
<polygon fill="white" stroke="transparent" points="-4,4 -4,-216 947,-216 947,4 -4,4"/>
<!-- Node1 -->
<g id="node1" class="node">
<title>Node1</title>
<g id="a_node1"><a xlink:title=" ">
<polygon fill="#bfbfbf" stroke="black" points="720,-79 720,-131 943,-131 943,-79 720,-79"/>
<text text-anchor="start" x="728" y="-119" font-family="Helvetica,sans-Serif" font-size="10.00">v8::internal::win64</text>
<text text-anchor="start" x="728" y="-108" font-family="Helvetica,sans-Serif" font-size="10.00">_unwindinfo::anonymous</text>
<text text-anchor="start" x="728" y="-97" font-family="Helvetica,sans-Serif" font-size="10.00">_namespace{unwinding&#45;info</text>
<text text-anchor="middle" x="831.5" y="-86" font-family="Helvetica,sans-Serif" font-size="10.00">&#45;win64::cc}::LoadNtdllUnwindingFunctions</text>
</a>
</g>
</g>
<!-- Node2 -->
<g id="node2" class="node">
<title>Node2</title>
<g id="a_node2"><a xlink:href="namespacev8_1_1internal_1_1win64__unwindinfo_1_1anonymous__namespace_02unwinding-info-win64_8cc_03.html#a72998ee9b7a69e62e8ae93a5b9f03b90" target="_top" xlink:title=" ">
<polygon fill="white" stroke="black" points="467,-115 467,-167 677,-167 677,-115 467,-115"/>
<text text-anchor="start" x="475" y="-155" font-family="Helvetica,sans-Serif" font-size="10.00">v8::internal::win64</text>
<text text-anchor="start" x="475" y="-144" font-family="Helvetica,sans-Serif" font-size="10.00">_unwindinfo::anonymous</text>
<text text-anchor="start" x="475" y="-133" font-family="Helvetica,sans-Serif" font-size="10.00">_namespace{unwinding&#45;info</text>
<text text-anchor="middle" x="572" y="-122" font-family="Helvetica,sans-Serif" font-size="10.00">&#45;win64::cc}::AddGrowableFunctionTable</text>
</a>
</g>
</g>
<!-- Node1&#45;&gt;Node2 -->
<g id="edge1" class="edge">
<title>Node1&#45;&gt;Node2</title>
<path fill="none" stroke="midnightblue" d="M709.79,-121.88C698.86,-123.4 687.86,-124.94 677.09,-126.45"/>
<polygon fill="midnightblue" stroke="midnightblue" points="710.38,-125.33 719.8,-120.48 709.41,-118.39 710.38,-125.33"/>
</g>
<!-- Node38 -->
<g id="node6" class="node">
<title>Node38</title>
<g id="a_node6"><a xlink:href="namespacev8_1_1internal_1_1win64__unwindinfo_1_1anonymous__namespace_02unwinding-info-win64_8cc_03.html#a227dd698a95f208dacad305d250439e1" target="_top" xlink:title=" ">
<polygon fill="white" stroke="black" points="460,-44 460,-96 684,-96 684,-44 460,-44"/>
<text text-anchor="start" x="468" y="-84" font-family="Helvetica,sans-Serif" font-size="10.00">v8::internal::win64</text>
<text text-anchor="start" x="468" y="-73" font-family="Helvetica,sans-Serif" font-size="10.00">_unwindinfo::anonymous</text>
<text text-anchor="start" x="468" y="-62" font-family="Helvetica,sans-Serif" font-size="10.00">_namespace{unwinding&#45;info</text>
<text text-anchor="middle" x="572" y="-51" font-family="Helvetica,sans-Serif" font-size="10.00">&#45;win64::cc}::DeleteGrowableFunctionTable</text>
</a>
</g>
</g>
<!-- Node1&#45;&gt;Node38 -->
<g id="edge5" class="edge">
<title>Node1&#45;&gt;Node38</title>
<path fill="none" stroke="midnightblue" d="M709.76,-88.59C701.17,-87.42 692.54,-86.25 684.01,-85.09"/>
<polygon fill="midnightblue" stroke="midnightblue" points="709.42,-92.07 719.8,-89.95 710.36,-85.14 709.42,-92.07"/>
</g>
<!-- Node3 -->
<g id="node3" class="node">
<title>Node3</title>
<g id="a_node3"><a xlink:href="namespacev8_1_1internal_1_1win64__unwindinfo.html#a2409db5c20b55125a1f38d2eecf2341b" target="_top" xlink:title=" ">
<polygon fill="white" stroke="black" points="215,-120.5 215,-161.5 424,-161.5 424,-120.5 215,-120.5"/>
<text text-anchor="start" x="223" y="-149.5" font-family="Helvetica,sans-Serif" font-size="10.00">v8::internal::win64</text>
<text text-anchor="start" x="223" y="-138.5" font-family="Helvetica,sans-Serif" font-size="10.00">_unwindinfo::RegisterNonABICompliant</text>
<text text-anchor="middle" x="319.5" y="-127.5" font-family="Helvetica,sans-Serif" font-size="10.00">CodeRange</text>
</a>
</g>
</g>
<!-- Node2&#45;&gt;Node3 -->
<g id="edge2" class="edge">
<title>Node2&#45;&gt;Node3</title>
<path fill="none" stroke="midnightblue" d="M456.63,-141C445.83,-141 434.93,-141 424.23,-141"/>
<polygon fill="midnightblue" stroke="midnightblue" points="456.94,-144.5 466.94,-141 456.94,-137.5 456.94,-144.5"/>
</g>
<!-- Node4 -->
<g id="node4" class="node">
<title>Node4</title>
<g id="a_node4"><a xlink:href="classv8_1_1internal_1_1wasm_1_1WasmCodeAllocator.html#af2b5295be5ab5f4b6371ab8dce603009" target="_top" xlink:title=" ">
<polygon fill="white" stroke="red" points="29,-170.5 29,-211.5 150,-211.5 150,-170.5 29,-170.5"/>
<text text-anchor="start" x="37" y="-199.5" font-family="Helvetica,sans-Serif" font-size="10.00">v8::internal::wasm</text>
<text text-anchor="start" x="37" y="-188.5" font-family="Helvetica,sans-Serif" font-size="10.00">::WasmCodeAllocator</text>
<text text-anchor="middle" x="89.5" y="-177.5" font-family="Helvetica,sans-Serif" font-size="10.00">::InitializeCodeRange</text>
</a>
</g>
</g>
<!-- Node3&#45;&gt;Node4 -->
<g id="edge3" class="edge">
<title>Node3&#45;&gt;Node4</title>
<path fill="none" stroke="midnightblue" d="M214.98,-163.7C192.82,-168.56 170.12,-173.54 150.28,-177.89"/>
<polygon fill="midnightblue" stroke="midnightblue" points="215.76,-167.11 224.78,-161.55 214.26,-160.28 215.76,-167.11"/>
</g>
<!-- Node23 -->
<g id="node5" class="node">
<title>Node23</title>
<g id="a_node5"><a xlink:href="classv8_1_1internal_1_1CodeRange.html#a0c79da6994022c645d597adb7d41143a" target="_top" xlink:title=" ">
<polygon fill="white" stroke="red" points="22.5,-121 22.5,-151 156.5,-151 156.5,-121 22.5,-121"/>
<text text-anchor="start" x="30.5" y="-139" font-family="Helvetica,sans-Serif" font-size="10.00">v8::internal::CodeRange</text>
<text text-anchor="middle" x="89.5" y="-128" font-family="Helvetica,sans-Serif" font-size="10.00">::InitReservation</text>
</a>
</g>
</g>
<!-- Node3&#45;&gt;Node23 -->
<g id="edge4" class="edge">
<title>Node3&#45;&gt;Node23</title>
<path fill="none" stroke="midnightblue" d="M204.63,-138.5C188.2,-138.14 171.77,-137.78 156.7,-137.45"/>
<polygon fill="midnightblue" stroke="midnightblue" points="204.77,-142.01 214.84,-138.73 204.92,-135.01 204.77,-142.01"/>
</g>
<!-- Node39 -->
<g id="node7" class="node">
<title>Node39</title>
<g id="a_node7"><a xlink:href="namespacev8_1_1internal_1_1win64__unwindinfo.html#a70f996f40a6b9c963c47bb920970d841" target="_top" xlink:title=" ">
<polygon fill="white" stroke="black" points="243.5,-49.5 243.5,-90.5 395.5,-90.5 395.5,-49.5 243.5,-49.5"/>
<text text-anchor="start" x="251.5" y="-78.5" font-family="Helvetica,sans-Serif" font-size="10.00">v8::internal::win64</text>
<text text-anchor="start" x="251.5" y="-67.5" font-family="Helvetica,sans-Serif" font-size="10.00">_unwindinfo::UnregisterNon</text>
<text text-anchor="middle" x="319.5" y="-56.5" font-family="Helvetica,sans-Serif" font-size="10.00">ABICompliantCodeRange</text>
</a>
</g>
</g>
<!-- Node38&#45;&gt;Node39 -->
<g id="edge6" class="edge">
<title>Node38&#45;&gt;Node39</title>
<path fill="none" stroke="midnightblue" d="M449.47,-70C431.07,-70 412.57,-70 395.55,-70"/>
<polygon fill="midnightblue" stroke="midnightblue" points="449.67,-73.5 459.67,-70 449.67,-66.5 449.67,-73.5"/>
</g>
<!-- Node40 -->
<g id="node8" class="node">
<title>Node40</title>
<g id="a_node8"><a xlink:href="classv8_1_1internal_1_1CodeRange.html#aaba9ae19acd10533dac38759d1f1a96f" target="_top" xlink:title=" ">
<polygon fill="white" stroke="red" points="22.5,-61 22.5,-91 156.5,-91 156.5,-61 22.5,-61"/>
<text text-anchor="start" x="30.5" y="-79" font-family="Helvetica,sans-Serif" font-size="10.00">v8::internal::CodeRange</text>
<text text-anchor="middle" x="89.5" y="-68" font-family="Helvetica,sans-Serif" font-size="10.00">::Free</text>
</a>
</g>
</g>
<!-- Node39&#45;&gt;Node40 -->
<g id="edge7" class="edge">
<title>Node39&#45;&gt;Node40</title>
<path fill="none" stroke="midnightblue" d="M232.89,-72.25C207.62,-72.92 180.35,-73.64 156.51,-74.26"/>
<polygon fill="midnightblue" stroke="midnightblue" points="233.31,-75.74 243.21,-71.98 233.12,-68.75 233.31,-75.74"/>
</g>
<!-- Node42 -->
<g id="node9" class="node">
<title>Node42</title>
<g id="a_node9"><a xlink:href="classv8_1_1internal_1_1wasm_1_1WasmCodeManager.html#a27ace0686f32545957a6b0948813db9a" target="_top" xlink:title=" ">
<polygon fill="white" stroke="red" points="0,-0.5 0,-41.5 179,-41.5 179,-0.5 0,-0.5"/>
<text text-anchor="start" x="8" y="-29.5" font-family="Helvetica,sans-Serif" font-size="10.00">v8::internal::wasm</text>
<text text-anchor="start" x="8" y="-18.5" font-family="Helvetica,sans-Serif" font-size="10.00">::WasmCodeManager::FreeNative</text>
<text text-anchor="middle" x="89.5" y="-7.5" font-family="Helvetica,sans-Serif" font-size="10.00">Module</text>
</a>
</g>
</g>
<!-- Node39&#45;&gt;Node42 -->
<g id="edge8" class="edge">
<title>Node39&#45;&gt;Node42</title>
<path fill="none" stroke="midnightblue" d="M232.99,-51.62C215.41,-47.84 196.86,-43.86 179.17,-40.06"/>
<polygon fill="midnightblue" stroke="midnightblue" points="232.7,-55.14 243.21,-53.82 234.17,-48.3 232.7,-55.14"/>
</g>
</g>
</svg>
