<?xml version="1.0" encoding="UTF-8" standalone="no"?>
<!DOCTYPE svg PUBLIC "-//W3C//DTD SVG 1.1//EN"
 "http://www.w3.org/Graphics/SVG/1.1/DTD/svg11.dtd">
<!-- Generated by graphviz version 2.43.0 (0)
 -->
<!-- Title: v8::internal::RUNTIME_FUNCTION Pages: 1 -->
<svg width="917pt" height="565pt"
 viewBox="0.00 0.00 917.00 565.00" xmlns="http://www.w3.org/2000/svg" xmlns:xlink="http://www.w3.org/1999/xlink">
<g id="graph0" class="graph" transform="scale(1 1) rotate(0) translate(4 561)">
<title>v8::internal::RUNTIME_FUNCTION</title>
<polygon fill="white" stroke="transparent" points="-4,4 -4,-561 913,-561 913,4 -4,4"/>
<!-- Node1 -->
<g id="node1" class="node">
<title>Node1</title>
<g id="a_node1"><a xlink:title=" ">
<polygon fill="#bfbfbf" stroke="black" points="0,-283.5 0,-313.5 124,-313.5 124,-283.5 0,-283.5"/>
<text text-anchor="start" x="8" y="-301.5" font-family="Helvetica,sans-Serif" font-size="10.00">v8::internal::RUNTIME</text>
<text text-anchor="middle" x="62" y="-290.5" font-family="Helvetica,sans-Serif" font-size="10.00">_FUNCTION</text>
</a>
</g>
</g>
<!-- Node2 -->
<g id="node2" class="node">
<title>Node2</title>
<g id="a_node2"><a xlink:href="namespacev8_1_1internal_1_1anonymous__namespace_02runtime-test-wasm_8cc_03.html#ae5ea987d093a25377fca981fd72fe15e" target="_top" xlink:title=" ">
<polygon fill="white" stroke="black" points="160,-349 160,-390 336,-390 336,-349 160,-349"/>
<text text-anchor="start" x="168" y="-378" font-family="Helvetica,sans-Serif" font-size="10.00">v8::internal::anonymous</text>
<text text-anchor="start" x="168" y="-367" font-family="Helvetica,sans-Serif" font-size="10.00">_namespace{runtime&#45;test</text>
<text text-anchor="middle" x="248" y="-356" font-family="Helvetica,sans-Serif" font-size="10.00">&#45;wasm::cc}::CrashUnlessFuzzing</text>
</a>
</g>
</g>
<!-- Node1&#45;&gt;Node2 -->
<g id="edge1" class="edge">
<title>Node1&#45;&gt;Node2</title>
<path fill="none" stroke="midnightblue" d="M102.02,-313.56C125.9,-322.77 156.99,-334.77 184.26,-345.29"/>
<polygon fill="midnightblue" stroke="midnightblue" points="183.14,-348.61 193.73,-348.94 185.66,-342.08 183.14,-348.61"/>
</g>
<!-- Node3 -->
<g id="node3" class="node">
<title>Node3</title>
<g id="a_node3"><a xlink:href="classv8_1_1internal_1_1WasmExceptionPackage.html#a92e3cf4344536855bbcc0c46ec31c269" target="_top" xlink:title=" ">
<polygon fill="white" stroke="black" points="374.5,-488.5 374.5,-518.5 534.5,-518.5 534.5,-488.5 374.5,-488.5"/>
<text text-anchor="start" x="382.5" y="-506.5" font-family="Helvetica,sans-Serif" font-size="10.00">v8::internal::WasmException</text>
<text text-anchor="middle" x="454.5" y="-495.5" font-family="Helvetica,sans-Serif" font-size="10.00">Package::GetExceptionValues</text>
</a>
</g>
</g>
<!-- Node1&#45;&gt;Node3 -->
<g id="edge2" class="edge">
<title>Node1&#45;&gt;Node3</title>
<path fill="none" stroke="midnightblue" d="M124.13,-300.07C194.87,-303.17 305.56,-312.33 336,-339.5 382.01,-380.56 330.41,-427.97 372,-473.5 375.32,-477.14 379.12,-480.33 383.22,-483.14"/>
<polygon fill="midnightblue" stroke="midnightblue" points="381.63,-486.27 392.01,-488.38 385.22,-480.25 381.63,-486.27"/>
</g>
<!-- Node22 -->
<g id="node7" class="node">
<title>Node22</title>
<g id="a_node7"><a xlink:href="namespacev8_1_1internal.html#ac299e59759eecb4621f6bad64d5db952" target="_top" xlink:title=" ">
<polygon fill="white" stroke="black" points="195.5,-124 195.5,-143 300.5,-143 300.5,-124 195.5,-124"/>
<text text-anchor="middle" x="248" y="-131" font-family="Helvetica,sans-Serif" font-size="10.00">v8::internal::IsSmi</text>
</a>
</g>
</g>
<!-- Node1&#45;&gt;Node22 -->
<g id="edge7" class="edge">
<title>Node1&#45;&gt;Node22</title>
<path fill="none" stroke="midnightblue" d="M79.98,-283.27C114.57,-252.25 192.95,-181.97 228.66,-149.95"/>
<polygon fill="midnightblue" stroke="midnightblue" points="231.27,-152.31 236.38,-143.02 226.6,-147.09 231.27,-152.31"/>
</g>
<!-- Node24 -->
<g id="node9" class="node">
<title>Node24</title>
<g id="a_node9"><a xlink:href="namespacev8_1_1internal_1_1wasm.html#af0e8eb22038f6f652121cb71d71ff62b" target="_top" xlink:title=" ">
<polygon fill="white" stroke="black" points="194.5,-261.5 194.5,-291.5 301.5,-291.5 301.5,-261.5 194.5,-261.5"/>
<text text-anchor="start" x="202.5" y="-279.5" font-family="Helvetica,sans-Serif" font-size="10.00">v8::internal::wasm</text>
<text text-anchor="middle" x="248" y="-268.5" font-family="Helvetica,sans-Serif" font-size="10.00">::WasmToJSObject</text>
</a>
</g>
</g>
<!-- Node1&#45;&gt;Node24 -->
<g id="edge9" class="edge">
<title>Node1&#45;&gt;Node24</title>
<path fill="none" stroke="midnightblue" d="M124.01,-291.2C143.43,-288.88 164.94,-286.31 184.47,-283.98"/>
<polygon fill="midnightblue" stroke="midnightblue" points="184.96,-287.44 194.47,-282.78 184.13,-280.49 184.96,-287.44"/>
</g>
<!-- Node4 -->
<g id="node4" class="node">
<title>Node4</title>
<g id="a_node4"><a xlink:href="classv8_1_1internal_1_1Isolate.html#a7e2962359009581ba84e6a361f574f61" target="_top" xlink:title=" ">
<polygon fill="white" stroke="black" points="781,-467.5 781,-497.5 892,-497.5 892,-467.5 781,-467.5"/>
<text text-anchor="start" x="789" y="-485.5" font-family="Helvetica,sans-Serif" font-size="10.00">v8::internal::Isolate</text>
<text text-anchor="middle" x="836.5" y="-474.5" font-family="Helvetica,sans-Serif" font-size="10.00">::factory</text>
</a>
</g>
</g>
<!-- Node3&#45;&gt;Node4 -->
<g id="edge3" class="edge">
<title>Node3&#45;&gt;Node4</title>
<path fill="none" stroke="midnightblue" d="M534.7,-499.12C604.69,-495.26 705.52,-489.68 770.78,-486.08"/>
<polygon fill="midnightblue" stroke="midnightblue" points="771.14,-489.56 780.94,-485.52 770.76,-482.57 771.14,-489.56"/>
</g>
<!-- Node5 -->
<g id="node5" class="node">
<title>Node5</title>
<g id="a_node5"><a xlink:href="classv8_1_1internal_1_1JSReceiver.html#aba4a2cfb4946da1635ae2730b710ff00" target="_top" xlink:title=" ">
<polygon fill="white" stroke="black" points="585.5,-526.5 585.5,-556.5 715.5,-556.5 715.5,-526.5 585.5,-526.5"/>
<text text-anchor="start" x="593.5" y="-544.5" font-family="Helvetica,sans-Serif" font-size="10.00">v8::internal::JSReceiver</text>
<text text-anchor="middle" x="650.5" y="-533.5" font-family="Helvetica,sans-Serif" font-size="10.00">::GetProperty</text>
</a>
</g>
</g>
<!-- Node3&#45;&gt;Node5 -->
<g id="edge4" class="edge">
<title>Node3&#45;&gt;Node5</title>
<path fill="none" stroke="midnightblue" d="M532.17,-518.52C546.32,-521.29 561.07,-524.18 575.15,-526.94"/>
<polygon fill="midnightblue" stroke="midnightblue" points="574.78,-530.43 585.26,-528.92 576.12,-523.56 574.78,-530.43"/>
</g>
<!-- Node5&#45;&gt;Node4 -->
<g id="edge5" class="edge">
<title>Node5&#45;&gt;Node4</title>
<path fill="none" stroke="midnightblue" d="M698.41,-526.46C722.95,-518.59 753.19,-508.89 779.02,-500.61"/>
<polygon fill="midnightblue" stroke="midnightblue" points="780.22,-503.9 788.68,-497.51 778.09,-497.23 780.22,-503.9"/>
</g>
<!-- Node6 -->
<g id="node6" class="node">
<title>Node6</title>
<g id="a_node6"><a xlink:href="classv8_1_1internal_1_1Factory.html#af3f3d9861e8eb4e63e94eae4d18aa477" target="_top" xlink:title=" ">
<polygon fill="white" stroke="red" points="774.5,-526.5 774.5,-556.5 898.5,-556.5 898.5,-526.5 774.5,-526.5"/>
<text text-anchor="start" x="782.5" y="-544.5" font-family="Helvetica,sans-Serif" font-size="10.00">v8::internal::Factory</text>
<text text-anchor="middle" x="836.5" y="-533.5" font-family="Helvetica,sans-Serif" font-size="10.00">::InternalizeUtf8String</text>
</a>
</g>
</g>
<!-- Node5&#45;&gt;Node6 -->
<g id="edge6" class="edge">
<title>Node5&#45;&gt;Node6</title>
<path fill="none" stroke="midnightblue" d="M715.6,-541.5C731.25,-541.5 748.1,-541.5 764.07,-541.5"/>
<polygon fill="midnightblue" stroke="midnightblue" points="764.42,-545 774.42,-541.5 764.42,-538 764.42,-545"/>
</g>
<!-- Node23 -->
<g id="node8" class="node">
<title>Node23</title>
<g id="a_node8"><a xlink:href="classv8_1_1internal_1_1TaggedImpl.html#ac581f955a852851b751735177af20efa" target="_top" xlink:title=" ">
<polygon fill="white" stroke="black" points="387.5,-0.5 387.5,-30.5 521.5,-30.5 521.5,-0.5 387.5,-0.5"/>
<text text-anchor="start" x="395.5" y="-18.5" font-family="Helvetica,sans-Serif" font-size="10.00">v8::internal::TaggedImpl</text>
<text text-anchor="middle" x="454.5" y="-7.5" font-family="Helvetica,sans-Serif" font-size="10.00">::IsSmi</text>
</a>
</g>
</g>
<!-- Node22&#45;&gt;Node23 -->
<g id="edge8" class="edge">
<title>Node22&#45;&gt;Node23</title>
<path fill="none" stroke="midnightblue" d="M260.19,-123.9C281.02,-106.4 327.68,-68.96 372,-45.5 379.75,-41.4 388.18,-37.61 396.58,-34.21"/>
<polygon fill="midnightblue" stroke="midnightblue" points="397.97,-37.43 406.02,-30.54 395.43,-30.91 397.97,-37.43"/>
</g>
<!-- Node24&#45;&gt;Node4 -->
<g id="edge11" class="edge">
<title>Node24&#45;&gt;Node4</title>
<path fill="none" stroke="midnightblue" d="M301.7,-286.79C313.18,-289.7 325.15,-293.26 336,-297.5 448.3,-341.38 459.89,-387.74 573,-429.5 638.15,-453.55 716.64,-467.58 770.72,-475.09"/>
<polygon fill="midnightblue" stroke="midnightblue" points="770.49,-478.59 780.87,-476.47 771.43,-471.66 770.49,-478.59"/>
</g>
<!-- Node25 -->
<g id="node10" class="node">
<title>Node25</title>
<g id="a_node10"><a xlink:href="namespacev8_1_1internal.html#a73502f55102d18cb764881bc29f35c05" target="_top" xlink:title=" ">
<polygon fill="white" stroke="black" points="783.5,-161.5 783.5,-191.5 889.5,-191.5 889.5,-161.5 783.5,-161.5"/>
<text text-anchor="start" x="791.5" y="-179.5" font-family="Helvetica,sans-Serif" font-size="10.00">v8::internal::direct</text>
<text text-anchor="middle" x="836.5" y="-168.5" font-family="Helvetica,sans-Serif" font-size="10.00">_handle</text>
</a>
</g>
</g>
<!-- Node24&#45;&gt;Node25 -->
<g id="edge10" class="edge">
<title>Node24&#45;&gt;Node25</title>
<path fill="none" stroke="midnightblue" d="M265.97,-261.37C311.56,-221.86 442.1,-116.17 573,-79.5 639.33,-60.92 663.7,-54.78 728,-79.5 766.24,-94.2 799.36,-129.5 818.38,-153.21"/>
<polygon fill="midnightblue" stroke="midnightblue" points="815.83,-155.63 824.74,-161.36 821.35,-151.32 815.83,-155.63"/>
</g>
<!-- Node26 -->
<g id="node11" class="node">
<title>Node26</title>
<g id="a_node11"><a xlink:href="classv8_1_1internal_1_1WasmInternalFunction.html#aa01e2244c83b9a4ca24d4bfd2cb0d78a" target="_top" xlink:title=" ">
<polygon fill="white" stroke="black" points="372,-261.5 372,-291.5 537,-291.5 537,-261.5 372,-261.5"/>
<text text-anchor="start" x="380" y="-279.5" font-family="Helvetica,sans-Serif" font-size="10.00">v8::internal::WasmInternal</text>
<text text-anchor="middle" x="454.5" y="-268.5" font-family="Helvetica,sans-Serif" font-size="10.00">Function::GetOrCreateExternal</text>
</a>
</g>
</g>
<!-- Node24&#45;&gt;Node26 -->
<g id="edge12" class="edge">
<title>Node24&#45;&gt;Node26</title>
<path fill="none" stroke="midnightblue" d="M301.66,-276.5C319.97,-276.5 341.07,-276.5 361.61,-276.5"/>
<polygon fill="midnightblue" stroke="midnightblue" points="361.64,-280 371.64,-276.5 361.64,-273 361.64,-280"/>
</g>
<!-- Node26&#45;&gt;Node25 -->
<g id="edge15" class="edge">
<title>Node26&#45;&gt;Node25</title>
<path fill="none" stroke="midnightblue" d="M537.28,-273.28C592.42,-269.15 666.11,-259.76 728,-238.5 756.35,-228.76 785.63,-211.3 806.47,-197.38"/>
<polygon fill="midnightblue" stroke="midnightblue" points="808.56,-200.19 814.85,-191.67 804.61,-194.41 808.56,-200.19"/>
</g>
<!-- Node27 -->
<g id="node12" class="node">
<title>Node27</title>
<g id="a_node12"><a xlink:href="structv8_1_1internal_1_1wasm_1_1WasmModule.html#a80ed14bf76cb65cc93c6c9ba1b56f75c" target="_top" xlink:title=" ">
<polygon fill="white" stroke="red" points="766,-333 766,-374 907,-374 907,-333 766,-333"/>
<text text-anchor="start" x="774" y="-362" font-family="Helvetica,sans-Serif" font-size="10.00">v8::internal::wasm</text>
<text text-anchor="start" x="774" y="-351" font-family="Helvetica,sans-Serif" font-size="10.00">::WasmModule::canonical</text>
<text text-anchor="middle" x="836.5" y="-340" font-family="Helvetica,sans-Serif" font-size="10.00">_sig_id</text>
</a>
</g>
</g>
<!-- Node26&#45;&gt;Node27 -->
<g id="edge13" class="edge">
<title>Node26&#45;&gt;Node27</title>
<path fill="none" stroke="midnightblue" d="M528.83,-291.5C543.46,-294.49 558.72,-297.6 573,-300.5 634.42,-312.97 703.95,-327.01 756.01,-337.5"/>
<polygon fill="midnightblue" stroke="midnightblue" points="755.36,-340.94 765.85,-339.48 756.74,-334.08 755.36,-340.94"/>
</g>
<!-- Node28 -->
<g id="node13" class="node">
<title>Node28</title>
<g id="a_node13"><a xlink:href="classv8_1_1internal_1_1Isolate.html#a05a2b08b2b0f2d5aef8dc053e2ea3d9b" target="_top" xlink:title=" ">
<polygon fill="white" stroke="red" points="595,-198.5 595,-228.5 706,-228.5 706,-198.5 595,-198.5"/>
<text text-anchor="start" x="603" y="-216.5" font-family="Helvetica,sans-Serif" font-size="10.00">v8::internal::Isolate</text>
<text text-anchor="middle" x="650.5" y="-205.5" font-family="Helvetica,sans-Serif" font-size="10.00">::Current</text>
</a>
</g>
</g>
<!-- Node26&#45;&gt;Node28 -->
<g id="edge14" class="edge">
<title>Node26&#45;&gt;Node28</title>
<path fill="none" stroke="midnightblue" d="M501.97,-261.41C529.46,-252.48 564.47,-241.11 593.49,-231.69"/>
<polygon fill="midnightblue" stroke="midnightblue" points="594.65,-234.99 603.08,-228.58 592.48,-228.34 594.65,-234.99"/>
</g>
<!-- Node30 -->
<g id="node14" class="node">
<title>Node30</title>
<g id="a_node14"><a xlink:href="namespacev8_1_1internal_1_1wasm.html#a6feb413448e84daf9201bd8a2381a718" target="_top" xlink:title=" ">
<polygon fill="white" stroke="red" points="772.5,-281.5 772.5,-311.5 900.5,-311.5 900.5,-281.5 772.5,-281.5"/>
<text text-anchor="start" x="780.5" y="-299.5" font-family="Helvetica,sans-Serif" font-size="10.00">v8::internal::wasm</text>
<text text-anchor="middle" x="836.5" y="-288.5" font-family="Helvetica,sans-Serif" font-size="10.00">::GetTypeCanonicalizer</text>
</a>
</g>
</g>
<!-- Node26&#45;&gt;Node30 -->
<g id="edge16" class="edge">
<title>Node26&#45;&gt;Node30</title>
<path fill="none" stroke="midnightblue" d="M537.02,-280.79C603.88,-284.31 697.7,-289.25 762.21,-292.64"/>
<polygon fill="midnightblue" stroke="midnightblue" points="762.14,-296.14 772.31,-293.17 762.5,-289.15 762.14,-296.14"/>
</g>
<!-- Node33 -->
<g id="node15" class="node">
<title>Node33</title>
<g id="a_node15"><a xlink:href="classv8_1_1internal_1_1WasmExportedFunction.html#aa4ad9d9842d4f60c0411e95936f9d6d0" target="_top" xlink:title=" ">
<polygon fill="white" stroke="red" points="574.5,-88.5 574.5,-118.5 726.5,-118.5 726.5,-88.5 574.5,-88.5"/>
<text text-anchor="start" x="582.5" y="-106.5" font-family="Helvetica,sans-Serif" font-size="10.00">v8::internal::WasmExported</text>
<text text-anchor="middle" x="650.5" y="-95.5" font-family="Helvetica,sans-Serif" font-size="10.00">Function::GetWrapper</text>
</a>
</g>
</g>
<!-- Node26&#45;&gt;Node33 -->
<g id="edge17" class="edge">
<title>Node26&#45;&gt;Node33</title>
<path fill="none" stroke="midnightblue" d="M463.64,-261.06C480.21,-231.1 520.75,-164.85 573,-128.5 575.84,-126.53 578.84,-124.7 581.96,-123.01"/>
<polygon fill="midnightblue" stroke="midnightblue" points="583.52,-126.14 590.96,-118.61 580.44,-119.85 583.52,-126.14"/>
</g>
<!-- Node96 -->
<g id="node16" class="node">
<title>Node96</title>
<g id="a_node16"><a xlink:href="classv8_1_1internal_1_1wasm_1_1TypeCanonicalizer.html#aa1f36fc3851ba2316d47223fa2b6e155" target="_top" xlink:title=" ">
<polygon fill="white" stroke="black" points="764,-396 764,-437 909,-437 909,-396 764,-396"/>
<text text-anchor="start" x="772" y="-425" font-family="Helvetica,sans-Serif" font-size="10.00">v8::internal::wasm</text>
<text text-anchor="start" x="772" y="-414" font-family="Helvetica,sans-Serif" font-size="10.00">::TypeCanonicalizer</text>
<text text-anchor="middle" x="836.5" y="-403" font-family="Helvetica,sans-Serif" font-size="10.00">::LookupFunctionSignature</text>
</a>
</g>
</g>
<!-- Node26&#45;&gt;Node96 -->
<g id="edge19" class="edge">
<title>Node26&#45;&gt;Node96</title>
<path fill="none" stroke="midnightblue" d="M464.1,-291.63C480.89,-319.48 520.96,-378.21 573,-402.5 629.23,-428.75 699.79,-431.07 753.59,-427.46"/>
<polygon fill="midnightblue" stroke="midnightblue" points="754.07,-430.94 763.78,-426.7 753.54,-423.96 754.07,-430.94"/>
</g>
<!-- Node97 -->
<g id="node17" class="node">
<title>Node97</title>
<g id="a_node17"><a xlink:href="classv8_1_1internal_1_1WasmExportedFunction.html#ac6583fa41f78a2543566f9812e57146b" target="_top" xlink:title=" ">
<polygon fill="white" stroke="red" points="574.5,-362.5 574.5,-392.5 726.5,-392.5 726.5,-362.5 574.5,-362.5"/>
<text text-anchor="start" x="582.5" y="-380.5" font-family="Helvetica,sans-Serif" font-size="10.00">v8::internal::WasmExported</text>
<text text-anchor="middle" x="650.5" y="-369.5" font-family="Helvetica,sans-Serif" font-size="10.00">Function::New</text>
</a>
</g>
</g>
<!-- Node26&#45;&gt;Node97 -->
<g id="edge20" class="edge">
<title>Node26&#45;&gt;Node97</title>
<path fill="none" stroke="midnightblue" d="M477.82,-291.56C500.99,-306.81 538.59,-330.51 573,-347.5 580.9,-351.4 589.44,-355.17 597.85,-358.63"/>
<polygon fill="midnightblue" stroke="midnightblue" points="596.67,-361.93 607.25,-362.41 599.28,-355.43 596.67,-361.93"/>
</g>
<!-- Node120 -->
<g id="node18" class="node">
<title>Node120</title>
<g id="a_node18"><a xlink:href="classv8_1_1internal_1_1wasm_1_1TypeCanonicalizer.html#aac1117f1918f3c8580be0e192a1c7307" target="_top" xlink:title=" ">
<polygon fill="white" stroke="red" points="573,-138 573,-179 728,-179 728,-138 573,-138"/>
<text text-anchor="start" x="581" y="-167" font-family="Helvetica,sans-Serif" font-size="10.00">v8::internal::wasm</text>
<text text-anchor="start" x="581" y="-156" font-family="Helvetica,sans-Serif" font-size="10.00">::TypeCanonicalizer</text>
<text text-anchor="middle" x="650.5" y="-145" font-family="Helvetica,sans-Serif" font-size="10.00">::PrepareForCanonicalTypeId</text>
</a>
</g>
</g>
<!-- Node26&#45;&gt;Node120 -->
<g id="edge26" class="edge">
<title>Node26&#45;&gt;Node120</title>
<path fill="none" stroke="midnightblue" d="M472.85,-261.44C494.97,-242.79 534.92,-210.86 573,-189.5 576.73,-187.41 580.62,-185.39 584.6,-183.44"/>
<polygon fill="midnightblue" stroke="midnightblue" points="586.4,-186.46 593.97,-179.06 583.43,-180.12 586.4,-186.46"/>
</g>
<!-- Node33&#45;&gt;Node25 -->
<g id="edge18" class="edge">
<title>Node33&#45;&gt;Node25</title>
<path fill="none" stroke="midnightblue" d="M700.33,-118.62C709.58,-121.72 719.13,-125.08 728,-128.5 750.39,-137.13 774.85,-147.94 794.78,-157.12"/>
<polygon fill="midnightblue" stroke="midnightblue" points="793.34,-160.3 803.88,-161.34 796.28,-153.95 793.34,-160.3"/>
</g>
<!-- Node97&#45;&gt;Node4 -->
<g id="edge23" class="edge">
<title>Node97&#45;&gt;Node4</title>
<path fill="none" stroke="midnightblue" d="M674.86,-392.62C697.38,-407.01 732.58,-428.99 764,-446.5 773.95,-452.04 784.85,-457.72 795.08,-462.89"/>
<polygon fill="midnightblue" stroke="midnightblue" points="793.72,-466.12 804.23,-467.47 796.85,-459.86 793.72,-466.12"/>
</g>
<!-- Node97&#45;&gt;Node25 -->
<g id="edge22" class="edge">
<title>Node97&#45;&gt;Node25</title>
<path fill="none" stroke="midnightblue" d="M665.33,-362.39C697.44,-327.31 777.2,-240.19 815,-198.9"/>
<polygon fill="midnightblue" stroke="midnightblue" points="817.59,-201.25 821.76,-191.51 812.43,-196.52 817.59,-201.25"/>
</g>
<!-- Node97&#45;&gt;Node27 -->
<g id="edge21" class="edge">
<title>Node97&#45;&gt;Node27</title>
<path fill="none" stroke="midnightblue" d="M726.61,-367.7C736.27,-366.44 746.19,-365.15 755.92,-363.88"/>
<polygon fill="midnightblue" stroke="midnightblue" points="756.51,-367.33 765.97,-362.57 755.6,-360.39 756.51,-367.33"/>
</g>
<!-- Node97&#45;&gt;Node30 -->
<g id="edge24" class="edge">
<title>Node97&#45;&gt;Node30</title>
<path fill="none" stroke="midnightblue" d="M681.26,-362.35C703.75,-351.11 735.52,-335.69 764,-323.5 770.39,-320.76 777.16,-318.02 783.89,-315.38"/>
<polygon fill="midnightblue" stroke="midnightblue" points="785.6,-318.47 793.67,-311.6 783.08,-311.94 785.6,-318.47"/>
</g>
<!-- Node97&#45;&gt;Node96 -->
<g id="edge25" class="edge">
<title>Node97&#45;&gt;Node96</title>
<path fill="none" stroke="midnightblue" d="M722.38,-392.52C732.66,-394.7 743.31,-396.96 753.78,-399.18"/>
<polygon fill="midnightblue" stroke="midnightblue" points="753.24,-402.64 763.75,-401.29 754.69,-395.79 753.24,-402.64"/>
</g>
</g>
</svg>
