<?xml version="1.0" encoding="UTF-8" standalone="no"?>
<!DOCTYPE svg PUBLIC "-//W3C//DTD SVG 1.1//EN"
 "http://www.w3.org/Graphics/SVG/1.1/DTD/svg11.dtd">
<!-- Generated by graphviz version 2.43.0 (0)
 -->
<!-- Title: v8::TimeIsOut Pages: 1 -->
<svg width="537pt" height="66pt"
 viewBox="0.00 0.00 537.00 66.00" xmlns="http://www.w3.org/2000/svg" xmlns:xlink="http://www.w3.org/1999/xlink">
<g id="graph0" class="graph" transform="scale(1 1) rotate(0) translate(4 62)">
<title>v8::TimeIsOut</title>
<polygon fill="white" stroke="transparent" points="-4,4 -4,-62 533,-62 533,4 -4,4"/>
<!-- Node1 -->
<g id="node1" class="node">
<title>Node1</title>
<g id="a_node1"><a xlink:title=" ">
<polygon fill="#bfbfbf" stroke="black" points="444,-19.5 444,-38.5 529,-38.5 529,-19.5 444,-19.5"/>
<text text-anchor="middle" x="486.5" y="-26.5" font-family="Helvetica,sans-Serif" font-size="10.00">v8::TimeIsOut</text>
</a>
</g>
</g>
<!-- Node2 -->
<g id="node2" class="node">
<title>Node2</title>
<g id="a_node2"><a xlink:href="namespacev8.html#a12ce53dea96a79624b4e499916c7cfd7" target="_top" xlink:title=" ">
<polygon fill="white" stroke="black" points="318.5,-38.5 318.5,-57.5 401.5,-57.5 401.5,-38.5 318.5,-38.5"/>
<text text-anchor="middle" x="360" y="-45.5" font-family="Helvetica,sans-Serif" font-size="10.00">v8::GetStdout</text>
</a>
</g>
</g>
<!-- Node1&#45;&gt;Node2 -->
<g id="edge1" class="edge">
<title>Node1&#45;&gt;Node2</title>
<path fill="none" stroke="midnightblue" d="M433.63,-36.92C422.95,-38.55 411.85,-40.24 401.64,-41.8"/>
<polygon fill="midnightblue" stroke="midnightblue" points="434.34,-40.35 443.7,-35.38 433.28,-33.43 434.34,-40.35"/>
</g>
<!-- Node5 -->
<g id="node5" class="node">
<title>Node5</title>
<g id="a_node5"><a xlink:href="namespacev8.html#a44ce27a6b18ca4e2d55e0de955daf44f" target="_top" xlink:title=" ">
<polygon fill="white" stroke="black" points="312,-0.5 312,-19.5 408,-19.5 408,-0.5 312,-0.5"/>
<text text-anchor="middle" x="360" y="-7.5" font-family="Helvetica,sans-Serif" font-size="10.00">v8::WaitForChild</text>
</a>
</g>
</g>
<!-- Node1&#45;&gt;Node5 -->
<g id="edge4" class="edge">
<title>Node1&#45;&gt;Node5</title>
<path fill="none" stroke="midnightblue" d="M433.56,-21.07C425.1,-19.78 416.39,-18.45 408.06,-17.18"/>
<polygon fill="midnightblue" stroke="midnightblue" points="433.28,-24.57 443.7,-22.62 434.34,-17.65 433.28,-24.57"/>
</g>
<!-- Node3 -->
<g id="node3" class="node">
<title>Node3</title>
<g id="a_node3"><a xlink:href="classv8_1_1Shell.html#a531aa5de706325869a5df270c8f1294f" target="_top" xlink:title=" ">
<polygon fill="white" stroke="black" points="175,-19.5 175,-38.5 276,-38.5 276,-19.5 175,-19.5"/>
<text text-anchor="middle" x="225.5" y="-26.5" font-family="Helvetica,sans-Serif" font-size="10.00">v8::Shell::System</text>
</a>
</g>
</g>
<!-- Node2&#45;&gt;Node3 -->
<g id="edge2" class="edge">
<title>Node2&#45;&gt;Node3</title>
<path fill="none" stroke="midnightblue" d="M307.98,-40.68C297.59,-39.19 286.66,-37.63 276.3,-36.14"/>
<polygon fill="midnightblue" stroke="midnightblue" points="307.77,-44.19 318.16,-42.14 308.76,-37.26 307.77,-44.19"/>
</g>
<!-- Node4 -->
<g id="node4" class="node">
<title>Node4</title>
<g id="a_node4"><a xlink:href="classv8_1_1Shell.html#a0c3ed68c0e468e6af07123281259de4c" target="_top" xlink:title=" ">
<polygon fill="white" stroke="black" points="0,-19.5 0,-38.5 139,-38.5 139,-19.5 0,-19.5"/>
<text text-anchor="middle" x="69.5" y="-26.5" font-family="Helvetica,sans-Serif" font-size="10.00">v8::Shell::AddOSMethods</text>
</a>
</g>
</g>
<!-- Node3&#45;&gt;Node4 -->
<g id="edge3" class="edge">
<title>Node3&#45;&gt;Node4</title>
<path fill="none" stroke="midnightblue" d="M164.81,-29C156.37,-29 147.65,-29 139.06,-29"/>
<polygon fill="midnightblue" stroke="midnightblue" points="164.93,-32.5 174.93,-29 164.93,-25.5 164.93,-32.5"/>
</g>
<!-- Node5&#45;&gt;Node3 -->
<g id="edge5" class="edge">
<title>Node5&#45;&gt;Node3</title>
<path fill="none" stroke="midnightblue" d="M301.95,-18.18C293.36,-19.41 284.55,-20.68 276.13,-21.88"/>
<polygon fill="midnightblue" stroke="midnightblue" points="302.51,-21.64 311.91,-16.75 301.52,-14.71 302.51,-21.64"/>
</g>
</g>
</svg>
