<?xml version="1.0" encoding="UTF-8" standalone="no"?>
<!DOCTYPE svg PUBLIC "-//W3C//DTD SVG 1.1//EN"
 "http://www.w3.org/Graphics/SVG/1.1/DTD/svg11.dtd">
<!-- Generated by graphviz version 2.43.0 (0)
 -->
<!-- Title: v8::internal::IsValidIndirectPointerTag Pages: 1 -->
<svg width="374pt" height="429pt"
 viewBox="0.00 0.00 374.00 428.50" xmlns="http://www.w3.org/2000/svg" xmlns:xlink="http://www.w3.org/1999/xlink">
<g id="graph0" class="graph" transform="scale(1 1) rotate(0) translate(4 424.5)">
<title>v8::internal::IsValidIndirectPointerTag</title>
<polygon fill="white" stroke="transparent" points="-4,4 -4,-424.5 370,-424.5 370,4 -4,4"/>
<!-- Node1 -->
<g id="node1" class="node">
<title>Node1</title>
<g id="a_node1"><a xlink:title=" ">
<polygon fill="#bfbfbf" stroke="black" points="219,-175.5 219,-205.5 366,-205.5 366,-175.5 219,-175.5"/>
<text text-anchor="start" x="227" y="-193.5" font-family="Helvetica,sans-Serif" font-size="10.00">v8::internal::IsValidIndirect</text>
<text text-anchor="middle" x="292.5" y="-182.5" font-family="Helvetica,sans-Serif" font-size="10.00">PointerTag</text>
</a>
</g>
</g>
<!-- Node2 -->
<g id="node2" class="node">
<title>Node2</title>
<g id="a_node2"><a xlink:href="classv8_1_1internal_1_1compiler_1_1anonymous__namespace_02code-generator-arm64_8cc_03_1_1OutOfLineRecordWrite.html#aa3e29ae449f8153b104d8829419f33b2" target="_top" xlink:title=" ">
<polygon fill="white" stroke="black" points="17.5,-357 17.5,-420 165.5,-420 165.5,-357 17.5,-357"/>
<text text-anchor="start" x="25.5" y="-408" font-family="Helvetica,sans-Serif" font-size="10.00">v8::internal::compiler</text>
<text text-anchor="start" x="25.5" y="-397" font-family="Helvetica,sans-Serif" font-size="10.00">::anonymous_namespace</text>
<text text-anchor="start" x="25.5" y="-386" font-family="Helvetica,sans-Serif" font-size="10.00">{code&#45;generator&#45;arm64::</text>
<text text-anchor="start" x="25.5" y="-375" font-family="Helvetica,sans-Serif" font-size="10.00">cc}::OutOfLineRecordWrite</text>
<text text-anchor="middle" x="91.5" y="-364" font-family="Helvetica,sans-Serif" font-size="10.00">::Generate</text>
</a>
</g>
</g>
<!-- Node1&#45;&gt;Node2 -->
<g id="edge1" class="edge">
<title>Node1&#45;&gt;Node2</title>
<path fill="none" stroke="midnightblue" d="M279.88,-215.11C262.84,-248.92 228.14,-309.81 183,-347.5 177.7,-351.92 171.85,-355.96 165.75,-359.63"/>
<polygon fill="midnightblue" stroke="midnightblue" points="283.12,-216.46 284.4,-205.94 276.84,-213.36 283.12,-216.46"/>
</g>
<!-- Node3 -->
<g id="node3" class="node">
<title>Node3</title>
<g id="a_node3"><a xlink:href="classv8_1_1internal_1_1compiler_1_1anonymous__namespace_02code-generator-loong64_8cc_03_1_1OutOfLineRecordWrite.html#a78a7192e50702c0ca627ba64cc775255" target="_top" xlink:title=" ">
<polygon fill="white" stroke="black" points="14.5,-275 14.5,-338 168.5,-338 168.5,-275 14.5,-275"/>
<text text-anchor="start" x="22.5" y="-326" font-family="Helvetica,sans-Serif" font-size="10.00">v8::internal::compiler</text>
<text text-anchor="start" x="22.5" y="-315" font-family="Helvetica,sans-Serif" font-size="10.00">::anonymous_namespace</text>
<text text-anchor="start" x="22.5" y="-304" font-family="Helvetica,sans-Serif" font-size="10.00">{code&#45;generator&#45;loong64</text>
<text text-anchor="start" x="22.5" y="-293" font-family="Helvetica,sans-Serif" font-size="10.00">::cc}::OutOfLineRecordWrite</text>
<text text-anchor="middle" x="91.5" y="-282" font-family="Helvetica,sans-Serif" font-size="10.00">::Generate</text>
</a>
</g>
</g>
<!-- Node1&#45;&gt;Node3 -->
<g id="edge2" class="edge">
<title>Node1&#45;&gt;Node3</title>
<path fill="none" stroke="midnightblue" d="M263.52,-211.92C242.12,-227.78 211.55,-249.34 183,-265.5 177.3,-268.73 171.29,-271.9 165.2,-274.97"/>
<polygon fill="midnightblue" stroke="midnightblue" points="265.89,-214.51 271.81,-205.72 261.7,-208.91 265.89,-214.51"/>
</g>
<!-- Node4 -->
<g id="node4" class="node">
<title>Node4</title>
<g id="a_node4"><a xlink:href="classv8_1_1internal_1_1compiler_1_1anonymous__namespace_02code-generator-ppc_8cc_03_1_1OutOfLineRecordWrite.html#a7652901b1e6a0e1ca895adfab46f824b" target="_top" xlink:title=" ">
<polygon fill="white" stroke="black" points="0.5,-203.5 0.5,-255.5 182.5,-255.5 182.5,-203.5 0.5,-203.5"/>
<text text-anchor="start" x="8.5" y="-243.5" font-family="Helvetica,sans-Serif" font-size="10.00">v8::internal::compiler</text>
<text text-anchor="start" x="8.5" y="-232.5" font-family="Helvetica,sans-Serif" font-size="10.00">::anonymous_namespace</text>
<text text-anchor="start" x="8.5" y="-221.5" font-family="Helvetica,sans-Serif" font-size="10.00">{code&#45;generator&#45;ppc::cc}</text>
<text text-anchor="middle" x="91.5" y="-210.5" font-family="Helvetica,sans-Serif" font-size="10.00">::OutOfLineRecordWrite::Generate</text>
</a>
</g>
</g>
<!-- Node1&#45;&gt;Node4 -->
<g id="edge3" class="edge">
<title>Node1&#45;&gt;Node4</title>
<path fill="none" stroke="midnightblue" d="M208.77,-206.71C200.13,-208.41 191.32,-210.13 182.61,-211.84"/>
<polygon fill="midnightblue" stroke="midnightblue" points="209.67,-210.1 218.81,-204.75 208.33,-203.23 209.67,-210.1"/>
</g>
<!-- Node5 -->
<g id="node5" class="node">
<title>Node5</title>
<g id="a_node5"><a xlink:href="classv8_1_1internal_1_1compiler_1_1anonymous__namespace_02code-generator-riscv_8cc_03_1_1OutOfLineRecordWrite.html#a1c8428ac47202669b108ed08220bdb87" target="_top" xlink:title=" ">
<polygon fill="white" stroke="black" points="17.5,-121 17.5,-184 165.5,-184 165.5,-121 17.5,-121"/>
<text text-anchor="start" x="25.5" y="-172" font-family="Helvetica,sans-Serif" font-size="10.00">v8::internal::compiler</text>
<text text-anchor="start" x="25.5" y="-161" font-family="Helvetica,sans-Serif" font-size="10.00">::anonymous_namespace</text>
<text text-anchor="start" x="25.5" y="-150" font-family="Helvetica,sans-Serif" font-size="10.00">{code&#45;generator&#45;riscv::</text>
<text text-anchor="start" x="25.5" y="-139" font-family="Helvetica,sans-Serif" font-size="10.00">cc}::OutOfLineRecordWrite</text>
<text text-anchor="middle" x="91.5" y="-128" font-family="Helvetica,sans-Serif" font-size="10.00">::Generate</text>
</a>
</g>
</g>
<!-- Node1&#45;&gt;Node5 -->
<g id="edge4" class="edge">
<title>Node1&#45;&gt;Node5</title>
<path fill="none" stroke="midnightblue" d="M208.96,-174.74C194.6,-172 179.75,-169.16 165.66,-166.47"/>
<polygon fill="midnightblue" stroke="midnightblue" points="208.33,-178.18 218.81,-176.62 209.65,-171.31 208.33,-178.18"/>
</g>
<!-- Node6 -->
<g id="node6" class="node">
<title>Node6</title>
<g id="a_node6"><a xlink:href="classv8_1_1internal_1_1compiler_1_1anonymous__namespace_02code-generator-x64_8cc_03_1_1OutOfLineRecordWrite.html#a72a30979a8f01956e4ea741b2ee2300b" target="_top" xlink:title=" ">
<polygon fill="white" stroke="black" points="0.5,-49.5 0.5,-101.5 182.5,-101.5 182.5,-49.5 0.5,-49.5"/>
<text text-anchor="start" x="8.5" y="-89.5" font-family="Helvetica,sans-Serif" font-size="10.00">v8::internal::compiler</text>
<text text-anchor="start" x="8.5" y="-78.5" font-family="Helvetica,sans-Serif" font-size="10.00">::anonymous_namespace</text>
<text text-anchor="start" x="8.5" y="-67.5" font-family="Helvetica,sans-Serif" font-size="10.00">{code&#45;generator&#45;x64::cc}</text>
<text text-anchor="middle" x="91.5" y="-56.5" font-family="Helvetica,sans-Serif" font-size="10.00">::OutOfLineRecordWrite::Generate</text>
</a>
</g>
</g>
<!-- Node1&#45;&gt;Node6 -->
<g id="edge5" class="edge">
<title>Node1&#45;&gt;Node6</title>
<path fill="none" stroke="midnightblue" d="M265.74,-168.88C244.5,-151.77 213.08,-128.09 183,-111.5 176.63,-107.99 169.85,-104.64 162.97,-101.5"/>
<polygon fill="midnightblue" stroke="midnightblue" points="263.67,-171.7 273.63,-175.31 268.09,-166.28 263.67,-171.7"/>
</g>
<!-- Node7 -->
<g id="node7" class="node">
<title>Node7</title>
<g id="a_node7"><a xlink:href="classv8_1_1internal_1_1WriteBarrier.html#aa4d929a9b2de190084b601f47013fd5d" target="_top" xlink:title=" ">
<polygon fill="white" stroke="black" points="0,-0.5 0,-30.5 183,-30.5 183,-0.5 0,-0.5"/>
<text text-anchor="start" x="8" y="-18.5" font-family="Helvetica,sans-Serif" font-size="10.00">v8::internal::WriteBarrier</text>
<text text-anchor="middle" x="91.5" y="-7.5" font-family="Helvetica,sans-Serif" font-size="10.00">::IndirectPointerMarkingFromCode</text>
</a>
</g>
</g>
<!-- Node1&#45;&gt;Node7 -->
<g id="edge6" class="edge">
<title>Node1&#45;&gt;Node7</title>
<path fill="none" stroke="midnightblue" d="M280.36,-166.01C263.89,-132.56 229.85,-73.04 183,-40.5 177.38,-36.59 171.16,-33.3 164.7,-30.51"/>
<polygon fill="midnightblue" stroke="midnightblue" points="277.24,-167.59 284.72,-175.1 283.55,-164.57 277.24,-167.59"/>
</g>
</g>
</svg>
