<?xml version="1.0" encoding="UTF-8" standalone="no"?>
<!DOCTYPE svg PUBLIC "-//W3C//DTD SVG 1.1//EN"
 "http://www.w3.org/Graphics/SVG/1.1/DTD/svg11.dtd">
<!-- Generated by graphviz version 2.43.0 (0)
 -->
<!-- Title: v8::internal::anonymous_namespace{intl&#45;objects::cc}::AvailableNumberingSystems Pages: 1 -->
<!--zoomable 298 -->
<svg id="main" version="1.1" xmlns="http://www.w3.org/2000/svg" xmlns:xlink="http://www.w3.org/1999/xlink" xml:space="preserve" onload="init(evt)">
<style type="text/css"><![CDATA[
.edge:hover path { stroke: red; }
.edge:hover polygon { stroke: red; fill: red; }
]]></style>
<script type="text/javascript"><![CDATA[
var edges = document.getElementsByTagName('g');
if (edges && edges.length) {
  for (var i=0;i<edges.length;i++) {
    if (edges[i].id.substr(0,4)=='edge') {
      edges[i].setAttribute('class','edge');
    }
  }
}
]]></script>
        <defs>
                <circle id="rim" cx="0" cy="0" r="7"/>
                <circle id="rim2" cx="0" cy="0" r="3.5"/>
                <g id="zoomPlus">
                        <use xlink:href="#rim" fill="#404040">
                                <set attributeName="fill" to="#808080" begin="zoomplus.mouseover" end="zoomplus.mouseout"/>
                        </use>
                        <path d="M-4,0h8M0,-4v8" fill="none" stroke="white" stroke-width="1.5" pointer-events="none"/>
                </g>
                <g id="zoomMin">
                        <use xlink:href="#rim" fill="#404040">
                                <set attributeName="fill" to="#808080" begin="zoomminus.mouseover" end="zoomminus.mouseout"/>
                        </use>
                        <path d="M-4,0h8" fill="none" stroke="white" stroke-width="1.5" pointer-events="none"/>
                </g>
                <g id="dirArrow">
                        <path fill="none" stroke="white" stroke-width="1.5" d="M0,-3.0v7 M-2.5,-0.5L0,-3.0L2.5,-0.5"/>
                </g>
               <g id="resetDef">
                       <use xlink:href="#rim2" fill="#404040">
                               <set attributeName="fill" to="#808080" begin="reset.mouseover" end="reset.mouseout"/>
                       </use>
               </g>
        </defs>

<script type="text/javascript">
var viewWidth = 878;
var viewHeight = 298;
var sectionId = 'dynsection-7';
</script>
<script xlink:href="svgpan.js"/>
<svg id="graph" class="graph">
<g id="viewport">
<title>v8::internal::anonymous_namespace{intl&#45;objects::cc}::AvailableNumberingSystems</title>
<polygon fill="white" stroke="transparent" points="-4,4 -4,-294 874,-294 874,4 -4,4"/>
<!-- Node1 -->
<g id="node1" class="node">
<title>Node1</title>
<g id="a_node1"><a xlink:title=" ">
<polygon fill="#bfbfbf" stroke="black" points="0,-139 0,-180 186,-180 186,-139 0,-139"/>
<text text-anchor="start" x="8" y="-168" font-family="Helvetica,sans-Serif" font-size="10.00">v8::internal::anonymous</text>
<text text-anchor="start" x="8" y="-157" font-family="Helvetica,sans-Serif" font-size="10.00">_namespace{intl&#45;objects</text>
<text text-anchor="middle" x="93" y="-146" font-family="Helvetica,sans-Serif" font-size="10.00">::cc}::AvailableNumberingSystems</text>
</a>
</g>
</g>
<!-- Node2 -->
<g id="node2" class="node">
<title>Node2</title>
<g id="a_node2"><a xlink:href="classv8_1_1internal_1_1Intl.html#a631cd771078782b17ab7d25f2155c256" target="_top" xlink:title=" ">
<polygon fill="white" stroke="black" points="222,-144.5 222,-174.5 316,-174.5 316,-144.5 222,-144.5"/>
<text text-anchor="start" x="230" y="-162.5" font-family="Helvetica,sans-Serif" font-size="10.00">v8::internal::Intl</text>
<text text-anchor="middle" x="269" y="-151.5" font-family="Helvetica,sans-Serif" font-size="10.00">::ToJSArray</text>
</a>
</g>
</g>
<!-- Node1&#45;&gt;Node2 -->
<g id="edge1" class="edge">
<title>Node1&#45;&gt;Node2</title>
<path fill="none" stroke="midnightblue" d="M186.1,-159.5C194.81,-159.5 203.45,-159.5 211.68,-159.5"/>
<polygon fill="midnightblue" stroke="midnightblue" points="211.84,-163 221.84,-159.5 211.84,-156 211.84,-163"/>
</g>
<!-- Node3 -->
<g id="node3" class="node">
<title>Node3</title>
<g id="a_node3"><a xlink:href="namespacev8_1_1base.html#ae8575343c68d7ad91cf7aaf24cd6643f" target="_top" xlink:title=" ">
<polygon fill="white" stroke="black" points="380,-216 380,-235 463,-235 463,-216 380,-216"/>
<text text-anchor="middle" x="421.5" y="-223" font-family="Helvetica,sans-Serif" font-size="10.00">v8::base::sort</text>
</a>
</g>
</g>
<!-- Node2&#45;&gt;Node3 -->
<g id="edge2" class="edge">
<title>Node2&#45;&gt;Node3</title>
<path fill="none" stroke="midnightblue" d="M304.53,-174.64C330.12,-185.86 364.7,-201.03 389.42,-211.87"/>
<polygon fill="midnightblue" stroke="midnightblue" points="388.14,-215.13 398.71,-215.94 390.95,-208.72 388.14,-215.13"/>
</g>
<!-- Node10 -->
<g id="node7" class="node">
<title>Node10</title>
<g id="a_node7"><a xlink:href="namespacev8_1_1internal_1_1anonymous__namespace_02intl-objects_8cc_03.html#a2ea2a6a7daef862de1eca689420d25a8" target="_top" xlink:title=" ">
<polygon fill="white" stroke="black" points="352,-93 352,-134 491,-134 491,-93 352,-93"/>
<text text-anchor="start" x="360" y="-122" font-family="Helvetica,sans-Serif" font-size="10.00">v8::internal::anonymous</text>
<text text-anchor="start" x="360" y="-111" font-family="Helvetica,sans-Serif" font-size="10.00">_namespace{intl&#45;objects</text>
<text text-anchor="middle" x="421.5" y="-100" font-family="Helvetica,sans-Serif" font-size="10.00">::cc}::VectorToJSArray</text>
</a>
</g>
</g>
<!-- Node2&#45;&gt;Node10 -->
<g id="edge8" class="edge">
<title>Node2&#45;&gt;Node10</title>
<path fill="none" stroke="midnightblue" d="M316.38,-145.32C325.04,-142.68 334.29,-139.85 343.58,-137.01"/>
<polygon fill="midnightblue" stroke="midnightblue" points="344.71,-140.33 353.25,-134.06 342.66,-133.63 344.71,-140.33"/>
</g>
<!-- Node4 -->
<g id="node4" class="node">
<title>Node4</title>
<g id="a_node4"><a xlink:href="namespacev8_1_1internal_1_1compiler.html#ae72af9053b45630a01be9a6140820b5a" target="_top" xlink:title=" ">
<polygon fill="white" stroke="red" points="737,-259.5 737,-289.5 858,-289.5 858,-259.5 737,-259.5"/>
<text text-anchor="start" x="745" y="-277.5" font-family="Helvetica,sans-Serif" font-size="10.00">v8::internal::compiler</text>
<text text-anchor="middle" x="797.5" y="-266.5" font-family="Helvetica,sans-Serif" font-size="10.00">::begin</text>
</a>
</g>
</g>
<!-- Node3&#45;&gt;Node4 -->
<g id="edge3" class="edge">
<title>Node3&#45;&gt;Node4</title>
<path fill="none" stroke="midnightblue" d="M442.78,-235C463.45,-244.17 496.7,-257.52 527,-263.5 593.79,-276.68 671.64,-278.43 726.44,-277.49"/>
<polygon fill="midnightblue" stroke="midnightblue" points="726.81,-280.99 736.74,-277.28 726.67,-273.99 726.81,-280.99"/>
</g>
<!-- Node7 -->
<g id="node5" class="node">
<title>Node7</title>
<g id="a_node5"><a xlink:href="namespacev8_1_1internal_1_1compiler.html#a51dcb90ae077172b12d63271c7e7ba0c" target="_top" xlink:title=" ">
<polygon fill="white" stroke="red" points="725,-213 725,-232 870,-232 870,-213 725,-213"/>
<text text-anchor="middle" x="797.5" y="-220" font-family="Helvetica,sans-Serif" font-size="10.00">v8::internal::compiler::end</text>
</a>
</g>
</g>
<!-- Node3&#45;&gt;Node7 -->
<g id="edge4" class="edge">
<title>Node3&#45;&gt;Node7</title>
<path fill="none" stroke="midnightblue" d="M463.24,-225.17C523.3,-224.69 636.89,-223.78 714.6,-223.16"/>
<polygon fill="midnightblue" stroke="midnightblue" points="714.87,-226.65 724.85,-223.07 714.82,-219.66 714.87,-226.65"/>
</g>
<!-- Node9 -->
<g id="node6" class="node">
<title>Node9</title>
<g id="a_node6"><a xlink:href="namespacev8_1_1base.html#a6cb4a0d359c08b58d40223b9e0e1f7d7" target="_top" xlink:title=" ">
<polygon fill="white" stroke="black" points="566.5,-235 566.5,-254 649.5,-254 649.5,-235 566.5,-235"/>
<text text-anchor="middle" x="608" y="-242" font-family="Helvetica,sans-Serif" font-size="10.00">v8::base::sort</text>
</a>
</g>
</g>
<!-- Node3&#45;&gt;Node9 -->
<g id="edge5" class="edge">
<title>Node3&#45;&gt;Node9</title>
<path fill="none" stroke="midnightblue" d="M463.45,-229.72C490.89,-232.54 527.22,-236.28 556.46,-239.3"/>
<polygon fill="midnightblue" stroke="midnightblue" points="556.18,-242.78 566.49,-240.33 556.9,-235.82 556.18,-242.78"/>
</g>
<!-- Node9&#45;&gt;Node4 -->
<g id="edge6" class="edge">
<title>Node9&#45;&gt;Node4</title>
<path fill="none" stroke="midnightblue" d="M649.68,-251.01C672.12,-254.6 700.61,-259.16 726.51,-263.3"/>
<polygon fill="midnightblue" stroke="midnightblue" points="726.24,-266.8 736.67,-264.93 727.34,-259.89 726.24,-266.8"/>
</g>
<!-- Node9&#45;&gt;Node7 -->
<g id="edge7" class="edge">
<title>Node9&#45;&gt;Node7</title>
<path fill="none" stroke="midnightblue" d="M649.68,-239.73C668.82,-237.48 692.36,-234.72 714.94,-232.07"/>
<polygon fill="midnightblue" stroke="midnightblue" points="715.36,-235.54 724.89,-230.9 714.55,-228.59 715.36,-235.54"/>
</g>
<!-- Node11 -->
<g id="node8" class="node">
<title>Node11</title>
<g id="a_node8"><a xlink:href="classv8_1_1internal_1_1Isolate.html#a7e2962359009581ba84e6a361f574f61" target="_top" xlink:title=" ">
<polygon fill="white" stroke="black" points="552.5,-147.5 552.5,-177.5 663.5,-177.5 663.5,-147.5 552.5,-147.5"/>
<text text-anchor="start" x="560.5" y="-165.5" font-family="Helvetica,sans-Serif" font-size="10.00">v8::internal::Isolate</text>
<text text-anchor="middle" x="608" y="-154.5" font-family="Helvetica,sans-Serif" font-size="10.00">::factory</text>
</a>
</g>
</g>
<!-- Node10&#45;&gt;Node11 -->
<g id="edge9" class="edge">
<title>Node10&#45;&gt;Node11</title>
<path fill="none" stroke="midnightblue" d="M491.2,-131.75C507.92,-136.18 525.73,-140.92 542.26,-145.31"/>
<polygon fill="midnightblue" stroke="midnightblue" points="541.79,-148.8 552.36,-147.99 543.59,-142.04 541.79,-148.8"/>
</g>
<!-- Node12 -->
<g id="node9" class="node">
<title>Node12</title>
<g id="a_node9"><a xlink:href="classv8_1_1internal_1_1FactoryBase.html#add1def193680fa7edc2ead51ef49f8c3" target="_top" xlink:title=" ">
<polygon fill="white" stroke="black" points="539.5,-98.5 539.5,-128.5 676.5,-128.5 676.5,-98.5 539.5,-98.5"/>
<text text-anchor="start" x="547.5" y="-116.5" font-family="Helvetica,sans-Serif" font-size="10.00">v8::internal::FactoryBase</text>
<text text-anchor="middle" x="608" y="-105.5" font-family="Helvetica,sans-Serif" font-size="10.00">::NewFixedArray</text>
</a>
</g>
</g>
<!-- Node10&#45;&gt;Node12 -->
<g id="edge10" class="edge">
<title>Node10&#45;&gt;Node12</title>
<path fill="none" stroke="midnightblue" d="M491.2,-113.5C503.65,-113.5 516.71,-113.5 529.4,-113.5"/>
<polygon fill="midnightblue" stroke="midnightblue" points="529.47,-117 539.47,-113.5 529.47,-110 529.47,-117"/>
</g>
<!-- Node13 -->
<g id="node10" class="node">
<title>Node13</title>
<g id="a_node10"><a xlink:href="classv8_1_1internal_1_1Factory.html#ac4a523a99a2bbe94a97ccfc4b6526b32" target="_top" xlink:title=" ">
<polygon fill="white" stroke="red" points="533.5,-49.5 533.5,-79.5 682.5,-79.5 682.5,-49.5 533.5,-49.5"/>
<text text-anchor="start" x="541.5" y="-67.5" font-family="Helvetica,sans-Serif" font-size="10.00">v8::internal::Factory</text>
<text text-anchor="middle" x="608" y="-56.5" font-family="Helvetica,sans-Serif" font-size="10.00">::NewJSArrayWithElements</text>
</a>
</g>
</g>
<!-- Node10&#45;&gt;Node13 -->
<g id="edge11" class="edge">
<title>Node10&#45;&gt;Node13</title>
<path fill="none" stroke="midnightblue" d="M491.2,-95.25C507.32,-90.97 524.47,-86.42 540.49,-82.16"/>
<polygon fill="midnightblue" stroke="midnightblue" points="541.54,-85.51 550.3,-79.56 539.74,-78.74 541.54,-85.51"/>
</g>
<!-- Node23 -->
<g id="node11" class="node">
<title>Node23</title>
<g id="a_node11"><a xlink:href="classv8_1_1internal_1_1FactoryBase.html#a099d2a505298c549ede814b4b4021464" target="_top" xlink:title=" ">
<polygon fill="white" stroke="red" points="527,-0.5 527,-30.5 689,-30.5 689,-0.5 527,-0.5"/>
<text text-anchor="start" x="535" y="-18.5" font-family="Helvetica,sans-Serif" font-size="10.00">v8::internal::FactoryBase</text>
<text text-anchor="middle" x="608" y="-7.5" font-family="Helvetica,sans-Serif" font-size="10.00">::NewStringFromAsciiChecked</text>
</a>
</g>
</g>
<!-- Node10&#45;&gt;Node23 -->
<g id="edge12" class="edge">
<title>Node10&#45;&gt;Node23</title>
<path fill="none" stroke="midnightblue" d="M446.81,-92.8C467.12,-76.4 497.43,-53.92 527,-39.5 530.81,-37.64 534.8,-35.89 538.87,-34.26"/>
<polygon fill="midnightblue" stroke="midnightblue" points="540.35,-37.44 548.47,-30.63 537.88,-30.89 540.35,-37.44"/>
</g>
</g>
</svg>
        <g id="navigator" transform="translate(0 0)" fill="#404254">
                <rect fill="#f2f5e9" fill-opacity="0.5" stroke="#606060" stroke-width=".5" x="0" y="0" width="60" height="60"/>
                <use id="zoomplus" xlink:href="#zoomPlus" x="17" y="9" onmousedown="handleZoom(evt,'in')"/>
                <use id="zoomminus" xlink:href="#zoomMin" x="42" y="9" onmousedown="handleZoom(evt,'out')"/>
                <use id="reset" xlink:href="#resetDef" x="30" y="36" onmousedown="handleReset()"/>
                <g id="arrowUp" xlink:href="#dirArrow" transform="translate(30 24)" onmousedown="handlePan(0,-1)">
                  <use xlink:href="#rim" fill="#404040">
                        <set attributeName="fill" to="#808080" begin="arrowUp.mouseover" end="arrowUp.mouseout"/>
                  </use>
                  <path fill="none" stroke="white" stroke-width="1.5" d="M0,-3.0v7 M-2.5,-0.5L0,-3.0L2.5,-0.5"/>
                </g>
                <g id="arrowRight" xlink:href="#dirArrow" transform="rotate(90) translate(36 -43)" onmousedown="handlePan(1,0)">
                  <use xlink:href="#rim" fill="#404040">
                        <set attributeName="fill" to="#808080" begin="arrowRight.mouseover" end="arrowRight.mouseout"/>
                  </use>
                  <path fill="none" stroke="white" stroke-width="1.5" d="M0,-3.0v7 M-2.5,-0.5L0,-3.0L2.5,-0.5"/>
                </g>
                <g id="arrowDown" xlink:href="#dirArrow" transform="rotate(180) translate(-30 -48)" onmousedown="handlePan(0,1)">
                  <use xlink:href="#rim" fill="#404040">
                        <set attributeName="fill" to="#808080" begin="arrowDown.mouseover" end="arrowDown.mouseout"/>
                  </use>
                  <path fill="none" stroke="white" stroke-width="1.5" d="M0,-3.0v7 M-2.5,-0.5L0,-3.0L2.5,-0.5"/>
                </g>
                <g id="arrowLeft" xlink:href="#dirArrow" transform="rotate(270) translate(-36 17)" onmousedown="handlePan(-1,0)">
                  <use xlink:href="#rim" fill="#404040">
                        <set attributeName="fill" to="#808080" begin="arrowLeft.mouseover" end="arrowLeft.mouseout"/>
                  </use>
                  <path fill="none" stroke="white" stroke-width="1.5" d="M0,-3.0v7 M-2.5,-0.5L0,-3.0L2.5,-0.5"/>
                </g>
        </g>
        <svg viewBox="0 0 15 15" width="100%" height="30px" preserveAspectRatio="xMaxYMin meet">
         <g id="arrow_out" transform="scale(0.3 0.3)">
          <a xlink:href="namespacev8_1_1internal_1_1anonymous__namespace_02intl-objects_8cc_03_ad5a3dfff7ffcd6f395429f3f90edf076_cgraph_org.svg" target="_base">
           <rect id="button" ry="5" rx="5" y="6" x="6" height="38" width="38"
                fill="#f2f5e9" fill-opacity="0.5" stroke="#606060" stroke-width="1.0"/>
           <path id="arrow"
             d="M 11.500037,31.436501 C 11.940474,20.09759 22.043105,11.32322 32.158766,21.979434 L 37.068811,17.246167 C 37.068811,17.246167 37.088388,32 37.088388,32 L 22.160133,31.978069 C 22.160133,31.978069 26.997745,27.140456 26.997745,27.140456 C 18.528582,18.264221 13.291696,25.230495 11.500037,31.436501 z"
             style="fill:#404040;"/>
          </a>
         </g>
        </svg>
</svg>
