<?xml version="1.0" encoding="UTF-8" standalone="no"?>
<!DOCTYPE svg PUBLIC "-//W3C//DTD SVG 1.1//EN"
 "http://www.w3.org/Graphics/SVG/1.1/DTD/svg11.dtd">
<!-- Generated by graphviz version 2.43.0 (0)
 -->
<!-- Title: v8::internal::WriteBytes Pages: 1 -->
<svg width="756pt" height="449pt"
 viewBox="0.00 0.00 756.00 448.50" xmlns="http://www.w3.org/2000/svg" xmlns:xlink="http://www.w3.org/1999/xlink">
<g id="graph0" class="graph" transform="scale(1 1) rotate(0) translate(4 444.5)">
<title>v8::internal::WriteBytes</title>
<polygon fill="white" stroke="transparent" points="-4,4 -4,-444.5 752,-444.5 752,4 -4,4"/>
<!-- Node1 -->
<g id="node1" class="node">
<title>Node1</title>
<g id="a_node1"><a xlink:title=" ">
<polygon fill="#bfbfbf" stroke="black" points="616,-128 616,-147 748,-147 748,-128 616,-128"/>
<text text-anchor="middle" x="682" y="-135" font-family="Helvetica,sans-Serif" font-size="10.00">v8::internal::WriteBytes</text>
</a>
</g>
</g>
<!-- Node2 -->
<g id="node2" class="node">
<title>Node2</title>
<g id="a_node2"><a xlink:href="classv8_1_1internal_1_1EhFrameWriter.html#a7f3f771ce6bace78d004c947fb43d02e" target="_top" xlink:title=" ">
<polygon fill="white" stroke="black" points="429,-155.5 429,-185.5 580,-185.5 580,-155.5 429,-155.5"/>
<text text-anchor="start" x="437" y="-173.5" font-family="Helvetica,sans-Serif" font-size="10.00">v8::internal::EhFrameWriter</text>
<text text-anchor="middle" x="504.5" y="-162.5" font-family="Helvetica,sans-Serif" font-size="10.00">::WriteInt16</text>
</a>
</g>
</g>
<!-- Node1&#45;&gt;Node2 -->
<g id="edge1" class="edge">
<title>Node1&#45;&gt;Node2</title>
<path fill="none" stroke="midnightblue" d="M620.14,-148.94C607.3,-151.36 593.6,-153.93 580.31,-156.43"/>
<polygon fill="midnightblue" stroke="midnightblue" points="621.06,-152.33 630.24,-147.04 619.76,-145.45 621.06,-152.33"/>
</g>
<!-- Node18 -->
<g id="node10" class="node">
<title>Node18</title>
<g id="a_node10"><a xlink:href="classv8_1_1internal_1_1EhFrameWriter.html#afff8283dfdf83e41f433ca4c93d6fc9e" target="_top" xlink:title=" ">
<polygon fill="white" stroke="black" points="429,-98.5 429,-128.5 580,-128.5 580,-98.5 429,-98.5"/>
<text text-anchor="start" x="437" y="-116.5" font-family="Helvetica,sans-Serif" font-size="10.00">v8::internal::EhFrameWriter</text>
<text text-anchor="middle" x="504.5" y="-105.5" font-family="Helvetica,sans-Serif" font-size="10.00">::WriteInt32</text>
</a>
</g>
</g>
<!-- Node1&#45;&gt;Node18 -->
<g id="edge9" class="edge">
<title>Node1&#45;&gt;Node18</title>
<path fill="none" stroke="midnightblue" d="M605.47,-127.17C597.05,-126.02 588.48,-124.85 580.07,-123.7"/>
<polygon fill="midnightblue" stroke="midnightblue" points="605.27,-130.68 615.65,-128.56 606.22,-123.74 605.27,-130.68"/>
</g>
<!-- Node3 -->
<g id="node3" class="node">
<title>Node3</title>
<g id="a_node3"><a xlink:href="classv8_1_1internal_1_1EhFrameWriter.html#a8fa539419cde716b6ea9c4e643de0278" target="_top" xlink:title=" ">
<polygon fill="white" stroke="black" points="242,-194.5 242,-224.5 393,-224.5 393,-194.5 242,-194.5"/>
<text text-anchor="start" x="250" y="-212.5" font-family="Helvetica,sans-Serif" font-size="10.00">v8::internal::EhFrameWriter</text>
<text text-anchor="middle" x="317.5" y="-201.5" font-family="Helvetica,sans-Serif" font-size="10.00">::AdvanceLocation</text>
</a>
</g>
</g>
<!-- Node2&#45;&gt;Node3 -->
<g id="edge2" class="edge">
<title>Node2&#45;&gt;Node3</title>
<path fill="none" stroke="midnightblue" d="M422.34,-187.61C411.48,-189.9 400.4,-192.23 389.72,-194.49"/>
<polygon fill="midnightblue" stroke="midnightblue" points="423.18,-191.01 432.24,-185.52 421.73,-184.16 423.18,-191.01"/>
</g>
<!-- Node4 -->
<g id="node4" class="node">
<title>Node4</title>
<g id="a_node4"><a xlink:href="classv8_1_1internal_1_1compiler_1_1UnwindingInfoWriter.html#a4fe6a694e0d3b6d0472459af40eba0ab" target="_top" xlink:title=" ">
<polygon fill="white" stroke="red" points="38.5,-399 38.5,-440 167.5,-440 167.5,-399 38.5,-399"/>
<text text-anchor="start" x="46.5" y="-428" font-family="Helvetica,sans-Serif" font-size="10.00">v8::internal::compiler</text>
<text text-anchor="start" x="46.5" y="-417" font-family="Helvetica,sans-Serif" font-size="10.00">::UnwindingInfoWriter</text>
<text text-anchor="middle" x="103" y="-406" font-family="Helvetica,sans-Serif" font-size="10.00">::BeginInstructionBlock</text>
</a>
</g>
</g>
<!-- Node3&#45;&gt;Node4 -->
<g id="edge3" class="edge">
<title>Node3&#45;&gt;Node4</title>
<path fill="none" stroke="midnightblue" d="M308.03,-234.15C293.41,-273.03 259.73,-348.39 206,-389.5 194.79,-398.08 181.17,-404.21 167.58,-408.59"/>
<polygon fill="midnightblue" stroke="midnightblue" points="311.36,-235.25 311.5,-224.65 304.78,-232.85 311.36,-235.25"/>
</g>
<!-- Node7 -->
<g id="node5" class="node">
<title>Node7</title>
<g id="a_node5"><a xlink:href="classv8_1_1internal_1_1compiler_1_1UnwindingInfoWriter.html#a37421bacf153f8481c5353ac1562ec42" target="_top" xlink:title=" ">
<polygon fill="white" stroke="red" points="34.5,-339 34.5,-380 171.5,-380 171.5,-339 34.5,-339"/>
<text text-anchor="start" x="42.5" y="-368" font-family="Helvetica,sans-Serif" font-size="10.00">v8::internal::compiler</text>
<text text-anchor="start" x="42.5" y="-357" font-family="Helvetica,sans-Serif" font-size="10.00">::UnwindingInfoWriter</text>
<text text-anchor="middle" x="103" y="-346" font-family="Helvetica,sans-Serif" font-size="10.00">::MarkFrameConstructed</text>
</a>
</g>
</g>
<!-- Node3&#45;&gt;Node7 -->
<g id="edge4" class="edge">
<title>Node3&#45;&gt;Node7</title>
<path fill="none" stroke="midnightblue" d="M300.63,-233.38C281.37,-260.54 246.41,-304.37 206,-329.5 195.5,-336.03 183.51,-341.2 171.52,-345.27"/>
<polygon fill="midnightblue" stroke="midnightblue" points="303.72,-235.07 306.55,-224.86 297.97,-231.08 303.72,-235.07"/>
</g>
<!-- Node9 -->
<g id="node6" class="node">
<title>Node9</title>
<g id="a_node6"><a xlink:href="classv8_1_1internal_1_1compiler_1_1UnwindingInfoWriter.html#a498394bf6512169edf8c2f162c76aa23" target="_top" xlink:title=" ">
<polygon fill="white" stroke="red" points="28.5,-279 28.5,-320 177.5,-320 177.5,-279 28.5,-279"/>
<text text-anchor="start" x="36.5" y="-308" font-family="Helvetica,sans-Serif" font-size="10.00">v8::internal::compiler</text>
<text text-anchor="start" x="36.5" y="-297" font-family="Helvetica,sans-Serif" font-size="10.00">::UnwindingInfoWriter</text>
<text text-anchor="middle" x="103" y="-286" font-family="Helvetica,sans-Serif" font-size="10.00">::MarkFrameDeconstructed</text>
</a>
</g>
</g>
<!-- Node3&#45;&gt;Node9 -->
<g id="edge5" class="edge">
<title>Node3&#45;&gt;Node9</title>
<path fill="none" stroke="midnightblue" d="M283.49,-229.82C261.99,-242.45 233.01,-258.34 206,-269.5 196.96,-273.24 187.29,-276.71 177.64,-279.87"/>
<polygon fill="midnightblue" stroke="midnightblue" points="285.41,-232.75 292.22,-224.63 281.84,-226.73 285.41,-232.75"/>
</g>
<!-- Node15 -->
<g id="node7" class="node">
<title>Node15</title>
<g id="a_node7"><a xlink:href="classv8_1_1internal_1_1compiler_1_1UnwindingInfoWriter.html#a89fc5c79255c6242455e8446cb1c2174" target="_top" xlink:title=" ">
<polygon fill="white" stroke="black" points="15,-219 15,-260 191,-260 191,-219 15,-219"/>
<text text-anchor="start" x="23" y="-248" font-family="Helvetica,sans-Serif" font-size="10.00">v8::internal::compiler</text>
<text text-anchor="start" x="23" y="-237" font-family="Helvetica,sans-Serif" font-size="10.00">::UnwindingInfoWriter</text>
<text text-anchor="middle" x="103" y="-226" font-family="Helvetica,sans-Serif" font-size="10.00">::MarkLinkRegisterOnTopOfStack</text>
</a>
</g>
</g>
<!-- Node3&#45;&gt;Node15 -->
<g id="edge6" class="edge">
<title>Node3&#45;&gt;Node15</title>
<path fill="none" stroke="midnightblue" d="M231.77,-221.46C218.42,-223.35 204.59,-225.3 191.18,-227.19"/>
<polygon fill="midnightblue" stroke="midnightblue" points="232.47,-224.9 241.88,-220.03 231.49,-217.97 232.47,-224.9"/>
</g>
<!-- Node16 -->
<g id="node8" class="node">
<title>Node16</title>
<g id="a_node8"><a xlink:href="classv8_1_1internal_1_1compiler_1_1UnwindingInfoWriter.html#a05332c1659688e85b348a458a4740908" target="_top" xlink:title=" ">
<polygon fill="white" stroke="black" points="0,-159 0,-200 206,-200 206,-159 0,-159"/>
<text text-anchor="start" x="8" y="-188" font-family="Helvetica,sans-Serif" font-size="10.00">v8::internal::compiler</text>
<text text-anchor="start" x="8" y="-177" font-family="Helvetica,sans-Serif" font-size="10.00">::UnwindingInfoWriter</text>
<text text-anchor="middle" x="103" y="-166" font-family="Helvetica,sans-Serif" font-size="10.00">::MarkPopLinkRegisterFromTopOfStack</text>
</a>
</g>
</g>
<!-- Node3&#45;&gt;Node16 -->
<g id="edge7" class="edge">
<title>Node3&#45;&gt;Node16</title>
<path fill="none" stroke="midnightblue" d="M231.97,-197.57C223.45,-196.36 214.73,-195.13 206.04,-193.91"/>
<polygon fill="midnightblue" stroke="midnightblue" points="231.49,-201.03 241.88,-198.97 232.47,-194.1 231.49,-201.03"/>
</g>
<!-- Node17 -->
<g id="node9" class="node">
<title>Node17</title>
<g id="a_node9"><a xlink:href="classv8_1_1internal_1_1compiler_1_1UnwindingInfoWriter.html#a611938f3ee18a1b674d09c77ff011521" target="_top" xlink:title=" ">
<polygon fill="white" stroke="black" points="22.5,-99 22.5,-140 183.5,-140 183.5,-99 22.5,-99"/>
<text text-anchor="start" x="30.5" y="-128" font-family="Helvetica,sans-Serif" font-size="10.00">v8::internal::compiler</text>
<text text-anchor="start" x="30.5" y="-117" font-family="Helvetica,sans-Serif" font-size="10.00">::UnwindingInfoWriter</text>
<text text-anchor="middle" x="103" y="-106" font-family="Helvetica,sans-Serif" font-size="10.00">::MaybeIncreaseBaseOffsetAt</text>
</a>
</g>
</g>
<!-- Node3&#45;&gt;Node17 -->
<g id="edge8" class="edge">
<title>Node3&#45;&gt;Node17</title>
<path fill="none" stroke="midnightblue" d="M283.49,-189.18C261.99,-176.55 233.01,-160.66 206,-149.5 197.81,-146.12 189.11,-142.95 180.37,-140.03"/>
<polygon fill="midnightblue" stroke="midnightblue" points="281.84,-192.27 292.22,-194.37 285.41,-186.25 281.84,-192.27"/>
</g>
<!-- Node18&#45;&gt;Node3 -->
<g id="edge10" class="edge">
<title>Node18&#45;&gt;Node3</title>
<path fill="none" stroke="midnightblue" d="M458.35,-132.62C448.58,-137 438.38,-141.76 429,-146.5 399.04,-161.63 365.7,-181 343.56,-194.25"/>
<polygon fill="midnightblue" stroke="midnightblue" points="459.81,-135.8 467.54,-128.55 456.98,-129.4 459.81,-135.8"/>
</g>
<!-- Node19 -->
<g id="node11" class="node">
<title>Node19</title>
<g id="a_node11"><a xlink:href="classv8_1_1internal_1_1EhFrameWriter.html#a1d97922fe8446d8fc0531e329b3300fd" target="_top" xlink:title=" ">
<polygon fill="white" stroke="black" points="242,-98.5 242,-128.5 393,-128.5 393,-98.5 242,-98.5"/>
<text text-anchor="start" x="250" y="-116.5" font-family="Helvetica,sans-Serif" font-size="10.00">v8::internal::EhFrameWriter</text>
<text text-anchor="middle" x="317.5" y="-105.5" font-family="Helvetica,sans-Serif" font-size="10.00">::WriteCie</text>
</a>
</g>
</g>
<!-- Node18&#45;&gt;Node19 -->
<g id="edge11" class="edge">
<title>Node18&#45;&gt;Node19</title>
<path fill="none" stroke="midnightblue" d="M418.53,-113.5C410.07,-113.5 401.53,-113.5 393.19,-113.5"/>
<polygon fill="midnightblue" stroke="midnightblue" points="418.79,-117 428.79,-113.5 418.79,-110 418.79,-117"/>
</g>
<!-- Node22 -->
<g id="node13" class="node">
<title>Node22</title>
<g id="a_node13"><a xlink:href="classv8_1_1internal_1_1EhFrameWriter.html#a0933e202e29efbfdc25b3259e96bc0cc" target="_top" xlink:title=" ">
<polygon fill="white" stroke="black" points="242,-0.5 242,-30.5 393,-30.5 393,-0.5 242,-0.5"/>
<text text-anchor="start" x="250" y="-18.5" font-family="Helvetica,sans-Serif" font-size="10.00">v8::internal::EhFrameWriter</text>
<text text-anchor="middle" x="317.5" y="-7.5" font-family="Helvetica,sans-Serif" font-size="10.00">::WriteEhFrameHdr</text>
</a>
</g>
</g>
<!-- Node18&#45;&gt;Node22 -->
<g id="edge13" class="edge">
<title>Node18&#45;&gt;Node22</title>
<path fill="none" stroke="midnightblue" d="M476.48,-92.28C454.87,-76.09 423.27,-54.15 393,-39.5 386.27,-36.24 379,-33.28 371.72,-30.63"/>
<polygon fill="midnightblue" stroke="midnightblue" points="474.46,-95.13 484.54,-98.39 478.69,-89.56 474.46,-95.13"/>
</g>
<!-- Node25 -->
<g id="node15" class="node">
<title>Node25</title>
<g id="a_node15"><a xlink:href="classv8_1_1internal_1_1EhFrameWriter.html#ab2a7ce47ba28fc2260b34ea8f57b145e" target="_top" xlink:title=" ">
<polygon fill="white" stroke="black" points="242,-49.5 242,-79.5 393,-79.5 393,-49.5 242,-49.5"/>
<text text-anchor="start" x="250" y="-67.5" font-family="Helvetica,sans-Serif" font-size="10.00">v8::internal::EhFrameWriter</text>
<text text-anchor="middle" x="317.5" y="-56.5" font-family="Helvetica,sans-Serif" font-size="10.00">::WriteFdeHeader</text>
</a>
</g>
</g>
<!-- Node18&#45;&gt;Node25 -->
<g id="edge15" class="edge">
<title>Node18&#45;&gt;Node25</title>
<path fill="none" stroke="midnightblue" d="M436.96,-95.88C416.72,-90.52 394.68,-84.68 375.16,-79.51"/>
<polygon fill="midnightblue" stroke="midnightblue" points="436.17,-99.29 446.74,-98.47 437.97,-92.52 436.17,-99.29"/>
</g>
<!-- Node20 -->
<g id="node12" class="node">
<title>Node20</title>
<g id="a_node12"><a xlink:href="classv8_1_1internal_1_1EhFrameWriter.html#a610f5bcafa5df45bcad90a9c85a9af55" target="_top" xlink:title=" ">
<polygon fill="white" stroke="red" points="27.5,-49.5 27.5,-79.5 178.5,-79.5 178.5,-49.5 27.5,-49.5"/>
<text text-anchor="start" x="35.5" y="-67.5" font-family="Helvetica,sans-Serif" font-size="10.00">v8::internal::EhFrameWriter</text>
<text text-anchor="middle" x="103" y="-56.5" font-family="Helvetica,sans-Serif" font-size="10.00">::Initialize</text>
</a>
</g>
</g>
<!-- Node19&#45;&gt;Node20 -->
<g id="edge12" class="edge">
<title>Node19&#45;&gt;Node20</title>
<path fill="none" stroke="midnightblue" d="M241.34,-96.17C217.75,-90.73 191.91,-84.77 169.08,-79.51"/>
<polygon fill="midnightblue" stroke="midnightblue" points="240.77,-99.63 251.3,-98.47 242.34,-92.81 240.77,-99.63"/>
</g>
<!-- Node23 -->
<g id="node14" class="node">
<title>Node23</title>
<g id="a_node14"><a xlink:href="classv8_1_1internal_1_1EhFrameWriter.html#a8cc8e467ec959d5e2294cb3e3f56d817" target="_top" xlink:title=" ">
<polygon fill="white" stroke="red" points="27.5,-0.5 27.5,-30.5 178.5,-30.5 178.5,-0.5 27.5,-0.5"/>
<text text-anchor="start" x="35.5" y="-18.5" font-family="Helvetica,sans-Serif" font-size="10.00">v8::internal::EhFrameWriter</text>
<text text-anchor="middle" x="103" y="-7.5" font-family="Helvetica,sans-Serif" font-size="10.00">::Finish</text>
</a>
</g>
</g>
<!-- Node22&#45;&gt;Node23 -->
<g id="edge14" class="edge">
<title>Node22&#45;&gt;Node23</title>
<path fill="none" stroke="midnightblue" d="M231.69,-15.5C214.2,-15.5 195.9,-15.5 178.8,-15.5"/>
<polygon fill="midnightblue" stroke="midnightblue" points="231.88,-19 241.88,-15.5 231.88,-12 231.88,-19"/>
</g>
<!-- Node25&#45;&gt;Node20 -->
<g id="edge16" class="edge">
<title>Node25&#45;&gt;Node20</title>
<path fill="none" stroke="midnightblue" d="M231.69,-64.5C214.2,-64.5 195.9,-64.5 178.8,-64.5"/>
<polygon fill="midnightblue" stroke="midnightblue" points="231.88,-68 241.88,-64.5 231.88,-61 231.88,-68"/>
</g>
</g>
</svg>
