<?xml version="1.0" encoding="UTF-8" standalone="no"?>
<!DOCTYPE svg PUBLIC "-//W3C//DTD SVG 1.1//EN"
 "http://www.w3.org/Graphics/SVG/1.1/DTD/svg11.dtd">
<!-- Generated by graphviz version 2.43.0 (0)
 -->
<!-- Title: /mnt/V8SourceCode/src/base/once.cc Pages: 1 -->
<svg width="610pt" height="207pt"
 viewBox="0.00 0.00 610.00 207.00" xmlns="http://www.w3.org/2000/svg" xmlns:xlink="http://www.w3.org/1999/xlink">
<g id="graph0" class="graph" transform="scale(1 1) rotate(0) translate(4 203)">
<title>/mnt/V8SourceCode/src/base/once.cc</title>
<polygon fill="white" stroke="transparent" points="-4,4 -4,-203 606,-203 606,4 -4,4"/>
<!-- Node1 -->
<g id="node1" class="node">
<title>Node1</title>
<g id="a_node1"><a xlink:title=" ">
<polygon fill="#bfbfbf" stroke="black" points="268,-168.5 268,-198.5 398,-198.5 398,-168.5 268,-168.5"/>
<text text-anchor="start" x="276" y="-186.5" font-family="Helvetica,sans-Serif" font-size="10.00">/mnt/V8SourceCode/src</text>
<text text-anchor="middle" x="333" y="-175.5" font-family="Helvetica,sans-Serif" font-size="10.00">/base/once.cc</text>
</a>
</g>
</g>
<!-- Node2 -->
<g id="node2" class="node">
<title>Node2</title>
<g id="a_node2"><a xlink:href="once_8h.html" target="_top" xlink:title=" ">
<polygon fill="white" stroke="black" points="242,-112.5 242,-131.5 334,-131.5 334,-112.5 242,-112.5"/>
<text text-anchor="middle" x="288" y="-119.5" font-family="Helvetica,sans-Serif" font-size="10.00">src/base/once.h</text>
</a>
</g>
</g>
<!-- Node1&#45;&gt;Node2 -->
<g id="edge1" class="edge">
<title>Node1&#45;&gt;Node2</title>
<path fill="none" stroke="midnightblue" d="M322.34,-168.4C315.86,-159.84 307.57,-148.87 300.75,-139.86"/>
<polygon fill="midnightblue" stroke="midnightblue" points="303.37,-137.52 294.55,-131.66 297.79,-141.74 303.37,-137.52"/>
</g>
<!-- Node16 -->
<g id="node15" class="node">
<title>Node16</title>
<g id="a_node15"><a xlink:title=" ">
<polygon fill="white" stroke="#bfbfbf" points="352,-112.5 352,-131.5 406,-131.5 406,-112.5 352,-112.5"/>
<text text-anchor="middle" x="379" y="-119.5" font-family="Helvetica,sans-Serif" font-size="10.00">sched.h</text>
</a>
</g>
</g>
<!-- Node1&#45;&gt;Node16 -->
<g id="edge16" class="edge">
<title>Node1&#45;&gt;Node16</title>
<path fill="none" stroke="midnightblue" d="M343.9,-168.4C350.59,-159.75 359.18,-148.64 366.18,-139.58"/>
<polygon fill="midnightblue" stroke="midnightblue" points="368.96,-141.71 372.31,-131.66 363.42,-137.43 368.96,-141.71"/>
</g>
<!-- Node3 -->
<g id="node3" class="node">
<title>Node3</title>
<g id="a_node3"><a xlink:title=" ">
<polygon fill="white" stroke="#bfbfbf" points="0,-0.5 0,-19.5 56,-19.5 56,-0.5 0,-0.5"/>
<text text-anchor="middle" x="28" y="-7.5" font-family="Helvetica,sans-Serif" font-size="10.00">stddef.h</text>
</a>
</g>
</g>
<!-- Node2&#45;&gt;Node3 -->
<g id="edge2" class="edge">
<title>Node2&#45;&gt;Node3</title>
<path fill="none" stroke="midnightblue" d="M245.58,-112.44C213.09,-105.06 167.59,-92.9 130,-76 99.27,-62.19 67,-40.16 47.19,-25.64"/>
<polygon fill="midnightblue" stroke="midnightblue" points="49.12,-22.72 39.01,-19.55 44.94,-28.33 49.12,-22.72"/>
</g>
<!-- Node4 -->
<g id="node4" class="node">
<title>Node4</title>
<g id="a_node4"><a xlink:title=" ">
<polygon fill="white" stroke="#bfbfbf" points="318.5,-56.5 318.5,-75.5 371.5,-75.5 371.5,-56.5 318.5,-56.5"/>
<text text-anchor="middle" x="345" y="-63.5" font-family="Helvetica,sans-Serif" font-size="10.00">stdint.h</text>
</a>
</g>
</g>
<!-- Node2&#45;&gt;Node4 -->
<g id="edge3" class="edge">
<title>Node2&#45;&gt;Node4</title>
<path fill="none" stroke="midnightblue" d="M297.16,-112.32C305.5,-104.42 318.03,-92.55 328.18,-82.94"/>
<polygon fill="midnightblue" stroke="midnightblue" points="330.82,-85.25 335.68,-75.83 326.01,-80.17 330.82,-85.25"/>
</g>
<!-- Node5 -->
<g id="node5" class="node">
<title>Node5</title>
<g id="a_node5"><a xlink:title=" ">
<polygon fill="white" stroke="#bfbfbf" points="390,-56.5 390,-75.5 440,-75.5 440,-56.5 390,-56.5"/>
<text text-anchor="middle" x="415" y="-63.5" font-family="Helvetica,sans-Serif" font-size="10.00">atomic</text>
</a>
</g>
</g>
<!-- Node2&#45;&gt;Node5 -->
<g id="edge4" class="edge">
<title>Node2&#45;&gt;Node5</title>
<path fill="none" stroke="midnightblue" d="M308.12,-112.44C329.02,-103.56 361.93,-89.56 385.72,-79.45"/>
<polygon fill="midnightblue" stroke="midnightblue" points="387.14,-82.65 394.97,-75.52 384.4,-76.21 387.14,-82.65"/>
</g>
<!-- Node6 -->
<g id="node6" class="node">
<title>Node6</title>
<g id="a_node6"><a xlink:title=" ">
<polygon fill="white" stroke="#bfbfbf" points="74.5,-0.5 74.5,-19.5 139.5,-19.5 139.5,-0.5 74.5,-0.5"/>
<text text-anchor="middle" x="107" y="-7.5" font-family="Helvetica,sans-Serif" font-size="10.00">functional</text>
</a>
</g>
</g>
<!-- Node2&#45;&gt;Node6 -->
<g id="edge5" class="edge">
<title>Node2&#45;&gt;Node6</title>
<path fill="none" stroke="midnightblue" d="M241.78,-113.16C214,-106.7 179.09,-95.36 153,-76 136.4,-63.68 123.5,-43.59 115.64,-28.99"/>
<polygon fill="midnightblue" stroke="midnightblue" points="118.68,-27.25 111.02,-19.94 112.45,-30.43 118.68,-27.25"/>
</g>
<!-- Node7 -->
<g id="node7" class="node">
<title>Node7</title>
<g id="a_node7"><a xlink:href="base-export_8h.html" target="_top" xlink:title=" ">
<polygon fill="white" stroke="black" points="474,-56.5 474,-75.5 602,-75.5 602,-56.5 474,-56.5"/>
<text text-anchor="middle" x="538" y="-63.5" font-family="Helvetica,sans-Serif" font-size="10.00">src/base/base&#45;export.h</text>
</a>
</g>
</g>
<!-- Node2&#45;&gt;Node7 -->
<g id="edge6" class="edge">
<title>Node2&#45;&gt;Node7</title>
<path fill="none" stroke="midnightblue" d="M327.61,-112.44C371.23,-103.02 441.4,-87.87 488.58,-77.68"/>
<polygon fill="midnightblue" stroke="midnightblue" points="489.54,-81.05 498.57,-75.52 488.06,-74.21 489.54,-81.05"/>
</g>
<!-- Node10 -->
<g id="node9" class="node">
<title>Node10</title>
<g id="a_node9"><a xlink:href="template-utils_8h.html" target="_top" xlink:title=" ">
<polygon fill="white" stroke="black" points="162,-56.5 162,-75.5 300,-75.5 300,-56.5 162,-56.5"/>
<text text-anchor="middle" x="231" y="-63.5" font-family="Helvetica,sans-Serif" font-size="10.00">src/base/template&#45;utils.h</text>
</a>
</g>
</g>
<!-- Node2&#45;&gt;Node10 -->
<g id="edge8" class="edge">
<title>Node2&#45;&gt;Node10</title>
<path fill="none" stroke="midnightblue" d="M278.84,-112.32C270.5,-104.42 257.97,-92.55 247.82,-82.94"/>
<polygon fill="midnightblue" stroke="midnightblue" points="249.99,-80.17 240.32,-75.83 245.18,-85.25 249.99,-80.17"/>
</g>
<!-- Node8 -->
<g id="node8" class="node">
<title>Node8</title>
<g id="a_node8"><a xlink:href="v8config_8h.html" target="_top" xlink:title=" ">
<polygon fill="white" stroke="red" points="493.5,-0.5 493.5,-19.5 598.5,-19.5 598.5,-0.5 493.5,-0.5"/>
<text text-anchor="middle" x="546" y="-7.5" font-family="Helvetica,sans-Serif" font-size="10.00">include/v8config.h</text>
</a>
</g>
</g>
<!-- Node7&#45;&gt;Node8 -->
<g id="edge7" class="edge">
<title>Node7&#45;&gt;Node8</title>
<path fill="none" stroke="midnightblue" d="M539.32,-56.08C540.38,-48.93 541.91,-38.64 543.23,-29.69"/>
<polygon fill="midnightblue" stroke="midnightblue" points="546.7,-30.16 544.7,-19.75 539.78,-29.13 546.7,-30.16"/>
</g>
<!-- Node10&#45;&gt;Node3 -->
<g id="edge9" class="edge">
<title>Node10&#45;&gt;Node3</title>
<path fill="none" stroke="midnightblue" d="M198.83,-56.44C162.71,-46.83 104.14,-31.25 65.84,-21.07"/>
<polygon fill="midnightblue" stroke="midnightblue" points="66.66,-17.66 56.09,-18.47 64.86,-24.43 66.66,-17.66"/>
</g>
<!-- Node10&#45;&gt;Node6 -->
<g id="edge11" class="edge">
<title>Node10&#45;&gt;Node6</title>
<path fill="none" stroke="midnightblue" d="M211.35,-56.44C191.04,-47.6 159.1,-33.69 135.9,-23.59"/>
<polygon fill="midnightblue" stroke="midnightblue" points="137.12,-20.3 126.56,-19.52 134.33,-26.72 137.12,-20.3"/>
</g>
<!-- Node11 -->
<g id="node10" class="node">
<title>Node11</title>
<g id="a_node10"><a xlink:title=" ">
<polygon fill="white" stroke="#bfbfbf" points="221,-0.5 221,-19.5 263,-19.5 263,-0.5 221,-0.5"/>
<text text-anchor="middle" x="242" y="-7.5" font-family="Helvetica,sans-Serif" font-size="10.00">array</text>
</a>
</g>
</g>
<!-- Node10&#45;&gt;Node11 -->
<g id="edge10" class="edge">
<title>Node10&#45;&gt;Node11</title>
<path fill="none" stroke="midnightblue" d="M232.82,-56.08C234.27,-48.93 236.37,-38.64 238.19,-29.69"/>
<polygon fill="midnightblue" stroke="midnightblue" points="241.65,-30.25 240.22,-19.75 234.79,-28.85 241.65,-30.25"/>
</g>
<!-- Node12 -->
<g id="node11" class="node">
<title>Node12</title>
<g id="a_node11"><a xlink:title=" ">
<polygon fill="white" stroke="#bfbfbf" points="281,-0.5 281,-19.5 329,-19.5 329,-0.5 281,-0.5"/>
<text text-anchor="middle" x="305" y="-7.5" font-family="Helvetica,sans-Serif" font-size="10.00">iosfwd</text>
</a>
</g>
</g>
<!-- Node10&#45;&gt;Node12 -->
<g id="edge12" class="edge">
<title>Node10&#45;&gt;Node12</title>
<path fill="none" stroke="midnightblue" d="M242.89,-56.32C254.15,-48.11 271.29,-35.6 284.71,-25.81"/>
<polygon fill="midnightblue" stroke="midnightblue" points="286.88,-28.56 292.89,-19.83 282.75,-22.9 286.88,-28.56"/>
</g>
<!-- Node13 -->
<g id="node12" class="node">
<title>Node13</title>
<g id="a_node12"><a xlink:title=" ">
<polygon fill="white" stroke="#bfbfbf" points="347.5,-0.5 347.5,-19.5 388.5,-19.5 388.5,-0.5 347.5,-0.5"/>
<text text-anchor="middle" x="368" y="-7.5" font-family="Helvetica,sans-Serif" font-size="10.00">tuple</text>
</a>
</g>
</g>
<!-- Node10&#45;&gt;Node13 -->
<g id="edge13" class="edge">
<title>Node10&#45;&gt;Node13</title>
<path fill="none" stroke="midnightblue" d="M252.71,-56.44C275.62,-47.41 311.91,-33.11 337.65,-22.96"/>
<polygon fill="midnightblue" stroke="midnightblue" points="339.27,-26.09 347.29,-19.16 336.7,-19.57 339.27,-26.09"/>
</g>
<!-- Node14 -->
<g id="node13" class="node">
<title>Node14</title>
<g id="a_node13"><a xlink:title=" ">
<polygon fill="white" stroke="#bfbfbf" points="406.5,-0.5 406.5,-19.5 475.5,-19.5 475.5,-0.5 406.5,-0.5"/>
<text text-anchor="middle" x="441" y="-7.5" font-family="Helvetica,sans-Serif" font-size="10.00">type_traits</text>
</a>
</g>
</g>
<!-- Node10&#45;&gt;Node14 -->
<g id="edge14" class="edge">
<title>Node10&#45;&gt;Node14</title>
<path fill="none" stroke="midnightblue" d="M264.28,-56.44C300.45,-47.14 358.38,-32.25 397.98,-22.06"/>
<polygon fill="midnightblue" stroke="midnightblue" points="399.07,-25.4 407.88,-19.52 397.32,-18.62 399.07,-25.4"/>
</g>
<!-- Node15 -->
<g id="node14" class="node">
<title>Node15</title>
<g id="a_node14"><a xlink:title=" ">
<polygon fill="white" stroke="#bfbfbf" points="157.5,-0.5 157.5,-19.5 202.5,-19.5 202.5,-0.5 157.5,-0.5"/>
<text text-anchor="middle" x="180" y="-7.5" font-family="Helvetica,sans-Serif" font-size="10.00">utility</text>
</a>
</g>
</g>
<!-- Node10&#45;&gt;Node15 -->
<g id="edge15" class="edge">
<title>Node10&#45;&gt;Node15</title>
<path fill="none" stroke="midnightblue" d="M222.58,-56.08C215.15,-48.22 204.15,-36.57 195.19,-27.08"/>
<polygon fill="midnightblue" stroke="midnightblue" points="197.68,-24.62 188.26,-19.75 192.59,-29.42 197.68,-24.62"/>
</g>
</g>
</svg>
