<?xml version="1.0" encoding="UTF-8" standalone="no"?>
<!DOCTYPE svg PUBLIC "-//W3C//DTD SVG 1.1//EN"
 "http://www.w3.org/Graphics/SVG/1.1/DTD/svg11.dtd">
<!-- Generated by graphviz version 2.43.0 (0)
 -->
<!-- Title: /mnt/V8SourceCode/src/regexp/regexp&#45;parser.h Pages: 1 -->
<svg width="442pt" height="117pt"
 viewBox="0.00 0.00 442.00 117.00" xmlns="http://www.w3.org/2000/svg" xmlns:xlink="http://www.w3.org/1999/xlink">
<g id="graph0" class="graph" transform="scale(1 1) rotate(0) translate(4 113)">
<title>/mnt/V8SourceCode/src/regexp/regexp&#45;parser.h</title>
<polygon fill="white" stroke="transparent" points="-4,4 -4,-113 438,-113 438,4 -4,4"/>
<!-- Node1 -->
<g id="node1" class="node">
<title>Node1</title>
<g id="a_node1"><a xlink:title=" ">
<polygon fill="#bfbfbf" stroke="black" points="150.5,-78.5 150.5,-108.5 283.5,-108.5 283.5,-78.5 150.5,-78.5"/>
<text text-anchor="start" x="158.5" y="-96.5" font-family="Helvetica,sans-Serif" font-size="10.00">/mnt/V8SourceCode/src</text>
<text text-anchor="middle" x="217" y="-85.5" font-family="Helvetica,sans-Serif" font-size="10.00">/regexp/regexp&#45;parser.h</text>
</a>
</g>
</g>
<!-- Node2 -->
<g id="node2" class="node">
<title>Node2</title>
<g id="a_node2"><a xlink:href="experimental_8cc.html" target="_top" xlink:title=" ">
<polygon fill="white" stroke="black" points="0,-0.5 0,-41.5 130,-41.5 130,-0.5 0,-0.5"/>
<text text-anchor="start" x="8" y="-29.5" font-family="Helvetica,sans-Serif" font-size="10.00">/mnt/V8SourceCode/src</text>
<text text-anchor="start" x="8" y="-18.5" font-family="Helvetica,sans-Serif" font-size="10.00">/regexp/experimental</text>
<text text-anchor="middle" x="65" y="-7.5" font-family="Helvetica,sans-Serif" font-size="10.00">/experimental.cc</text>
</a>
</g>
</g>
<!-- Node1&#45;&gt;Node2 -->
<g id="edge1" class="edge">
<title>Node1&#45;&gt;Node2</title>
<path fill="none" stroke="midnightblue" d="M177.39,-74.13C155.81,-64.12 129.11,-51.73 107.14,-41.55"/>
<polygon fill="midnightblue" stroke="midnightblue" points="176.06,-77.37 186.61,-78.4 179.01,-71.02 176.06,-77.37"/>
</g>
<!-- Node3 -->
<g id="node3" class="node">
<title>Node3</title>
<g id="a_node3"><a xlink:href="regexp-parser_8cc.html" target="_top" xlink:title=" ">
<polygon fill="white" stroke="black" points="148.5,-6 148.5,-36 285.5,-36 285.5,-6 148.5,-6"/>
<text text-anchor="start" x="156.5" y="-24" font-family="Helvetica,sans-Serif" font-size="10.00">/mnt/V8SourceCode/src</text>
<text text-anchor="middle" x="217" y="-13" font-family="Helvetica,sans-Serif" font-size="10.00">/regexp/regexp&#45;parser.cc</text>
</a>
</g>
</g>
<!-- Node1&#45;&gt;Node3 -->
<g id="edge2" class="edge">
<title>Node1&#45;&gt;Node3</title>
<path fill="none" stroke="midnightblue" d="M217,-68.23C217,-57.57 217,-45.41 217,-36.25"/>
<polygon fill="midnightblue" stroke="midnightblue" points="213.5,-68.23 217,-78.23 220.5,-68.23 213.5,-68.23"/>
</g>
<!-- Node4 -->
<g id="node4" class="node">
<title>Node4</title>
<g id="a_node4"><a xlink:href="regexp_8cc.html" target="_top" xlink:title=" ">
<polygon fill="white" stroke="black" points="304,-6 304,-36 434,-36 434,-6 304,-6"/>
<text text-anchor="start" x="312" y="-24" font-family="Helvetica,sans-Serif" font-size="10.00">/mnt/V8SourceCode/src</text>
<text text-anchor="middle" x="369" y="-13" font-family="Helvetica,sans-Serif" font-size="10.00">/regexp/regexp.cc</text>
</a>
</g>
</g>
<!-- Node1&#45;&gt;Node4 -->
<g id="edge3" class="edge">
<title>Node1&#45;&gt;Node4</title>
<path fill="none" stroke="midnightblue" d="M256.48,-74.19C282.13,-62.29 315.06,-47.02 338.66,-36.07"/>
<polygon fill="midnightblue" stroke="midnightblue" points="254.99,-71.02 247.39,-78.4 257.94,-77.37 254.99,-71.02"/>
</g>
</g>
</svg>
