<?xml version="1.0" encoding="UTF-8" standalone="no"?>
<!DOCTYPE svg PUBLIC "-//W3C//DTD SVG 1.1//EN"
 "http://www.w3.org/Graphics/SVG/1.1/DTD/svg11.dtd">
<!-- Generated by graphviz version 2.43.0 (0)
 -->
<!-- Title: /mnt/V8SourceCode/src/torque/runtime&#45;support.h Pages: 1 -->
<!--zoomable 619 -->
<svg id="main" version="1.1" xmlns="http://www.w3.org/2000/svg" xmlns:xlink="http://www.w3.org/1999/xlink" xml:space="preserve" onload="init(evt)">
<style type="text/css"><![CDATA[
.edge:hover path { stroke: red; }
.edge:hover polygon { stroke: red; fill: red; }
]]></style>
<script type="text/javascript"><![CDATA[
var edges = document.getElementsByTagName('g');
if (edges && edges.length) {
  for (var i=0;i<edges.length;i++) {
    if (edges[i].id.substr(0,4)=='edge') {
      edges[i].setAttribute('class','edge');
    }
  }
}
]]></script>
        <defs>
                <circle id="rim" cx="0" cy="0" r="7"/>
                <circle id="rim2" cx="0" cy="0" r="3.5"/>
                <g id="zoomPlus">
                        <use xlink:href="#rim" fill="#404040">
                                <set attributeName="fill" to="#808080" begin="zoomplus.mouseover" end="zoomplus.mouseout"/>
                        </use>
                        <path d="M-4,0h8M0,-4v8" fill="none" stroke="white" stroke-width="1.5" pointer-events="none"/>
                </g>
                <g id="zoomMin">
                        <use xlink:href="#rim" fill="#404040">
                                <set attributeName="fill" to="#808080" begin="zoomminus.mouseover" end="zoomminus.mouseout"/>
                        </use>
                        <path d="M-4,0h8" fill="none" stroke="white" stroke-width="1.5" pointer-events="none"/>
                </g>
                <g id="dirArrow">
                        <path fill="none" stroke="white" stroke-width="1.5" d="M0,-3.0v7 M-2.5,-0.5L0,-3.0L2.5,-0.5"/>
                </g>
               <g id="resetDef">
                       <use xlink:href="#rim2" fill="#404040">
                               <set attributeName="fill" to="#808080" begin="reset.mouseover" end="reset.mouseout"/>
                       </use>
               </g>
        </defs>

<script type="text/javascript">
var viewWidth = 2449;
var viewHeight = 619;
var sectionId = 'dynsection-1';
</script>
<script xlink:href="svgpan.js"/>
<svg id="graph" class="graph">
<g id="viewport">
<title>/mnt/V8SourceCode/src/torque/runtime&#45;support.h</title>
<polygon fill="white" stroke="transparent" points="-4,4 -4,-615 2445.34,-615 2445.34,4 -4,4"/>
<!-- Node1 -->
<g id="node1" class="node">
<title>Node1</title>
<g id="a_node1"><a xlink:title=" ">
<polygon fill="#bfbfbf" stroke="black" points="712.34,-580.5 712.34,-610.5 854.34,-610.5 854.34,-580.5 712.34,-580.5"/>
<text text-anchor="start" x="720.34" y="-598.5" font-family="Helvetica,sans-Serif" font-size="10.00">/mnt/V8SourceCode/src</text>
<text text-anchor="middle" x="783.34" y="-587.5" font-family="Helvetica,sans-Serif" font-size="10.00">/torque/runtime&#45;support.h</text>
</a>
</g>
</g>
<!-- Node2 -->
<g id="node2" class="node">
<title>Node2</title>
<g id="a_node2"><a xlink:href="debug-objects-inl_8h.html" target="_top" xlink:title=" ">
<polygon fill="white" stroke="black" points="316.34,-446.5 316.34,-476.5 468.34,-476.5 468.34,-446.5 316.34,-446.5"/>
<text text-anchor="start" x="324.34" y="-464.5" font-family="Helvetica,sans-Serif" font-size="10.00">/mnt/V8SourceCode/src</text>
<text text-anchor="middle" x="392.34" y="-453.5" font-family="Helvetica,sans-Serif" font-size="10.00">/objects/debug&#45;objects&#45;inl.h</text>
</a>
</g>
</g>
<!-- Node1&#45;&gt;Node2 -->
<g id="edge1" class="edge">
<title>Node1&#45;&gt;Node2</title>
<path fill="none" stroke="midnightblue" d="M702.13,-581.53C657.98,-573.24 602.85,-560.85 555.34,-544 503.46,-525.6 446.8,-494.56 415.83,-476.57"/>
<polygon fill="midnightblue" stroke="midnightblue" points="701.77,-585.03 712.24,-583.4 703.04,-578.14 701.77,-585.03"/>
</g>
<!-- Node473 -->
<g id="node18" class="node">
<title>Node473</title>
<g id="a_node18"><a xlink:href="prototype-info-inl_8h.html" target="_top" xlink:title=" ">
<polygon fill="white" stroke="black" points="651.34,-145.5 651.34,-175.5 803.34,-175.5 803.34,-145.5 651.34,-145.5"/>
<text text-anchor="start" x="659.34" y="-163.5" font-family="Helvetica,sans-Serif" font-size="10.00">/mnt/V8SourceCode/src</text>
<text text-anchor="middle" x="727.34" y="-152.5" font-family="Helvetica,sans-Serif" font-size="10.00">/objects/prototype&#45;info&#45;inl.h</text>
</a>
</g>
</g>
<!-- Node1&#45;&gt;Node473 -->
<g id="edge48" class="edge">
<title>Node1&#45;&gt;Node473</title>
<path fill="none" stroke="midnightblue" d="M716.76,-577.06C696.62,-569.38 675.57,-558.67 659.34,-544 609.35,-498.8 604.6,-475.41 588.34,-410 563.96,-311.89 667.23,-211.95 709.77,-175.71"/>
<polygon fill="midnightblue" stroke="midnightblue" points="715.64,-580.37 726.23,-580.48 718.01,-573.79 715.64,-580.37"/>
</g>
<!-- Node424 -->
<g id="node23" class="node">
<title>Node424</title>
<g id="a_node23"><a xlink:href="descriptor-array-inl_8h.html" target="_top" xlink:title=" ">
<polygon fill="white" stroke="red" points="679.84,-296 679.84,-326 840.84,-326 840.84,-296 679.84,-296"/>
<text text-anchor="start" x="687.84" y="-314" font-family="Helvetica,sans-Serif" font-size="10.00">/mnt/V8SourceCode/src</text>
<text text-anchor="middle" x="760.34" y="-303" font-family="Helvetica,sans-Serif" font-size="10.00">/objects/descriptor&#45;array&#45;inl.h</text>
</a>
</g>
</g>
<!-- Node1&#45;&gt;Node424 -->
<g id="edge34" class="edge">
<title>Node1&#45;&gt;Node424</title>
<path fill="none" stroke="midnightblue" d="M799.64,-571.95C804.76,-563.59 809.74,-553.76 812.34,-544 822.66,-505.33 848.47,-475.18 807.34,-368 801.07,-351.65 787.9,-336.65 777.1,-326.3"/>
<polygon fill="midnightblue" stroke="midnightblue" points="796.68,-570.08 794.15,-580.37 802.54,-573.91 796.68,-570.08"/>
</g>
<!-- Node484 -->
<g id="node24" class="node">
<title>Node484</title>
<g id="a_node24"><a xlink:href="feedback-vector-inl_8h.html" target="_top" xlink:title=" ">
<polygon fill="white" stroke="red" points="1543.84,-446.5 1543.84,-476.5 1704.84,-476.5 1704.84,-446.5 1543.84,-446.5"/>
<text text-anchor="start" x="1551.84" y="-464.5" font-family="Helvetica,sans-Serif" font-size="10.00">/mnt/V8SourceCode/src</text>
<text text-anchor="middle" x="1624.34" y="-453.5" font-family="Helvetica,sans-Serif" font-size="10.00">/objects/feedback&#45;vector&#45;inl.h</text>
</a>
</g>
</g>
<!-- Node1&#45;&gt;Node484 -->
<g id="edge37" class="edge">
<title>Node1&#45;&gt;Node484</title>
<path fill="none" stroke="midnightblue" d="M865.01,-581.68C1026.13,-556.39 1383.19,-500.35 1543.58,-475.18"/>
<polygon fill="midnightblue" stroke="midnightblue" points="864.02,-578.29 854.68,-583.3 865.11,-585.21 864.02,-578.29"/>
</g>
<!-- Node488 -->
<g id="node25" class="node">
<title>Node488</title>
<g id="a_node25"><a xlink:href="fixed-array-inl_8h.html" target="_top" xlink:title=" ">
<polygon fill="white" stroke="red" points="667.84,-513.5 667.84,-543.5 802.84,-543.5 802.84,-513.5 667.84,-513.5"/>
<text text-anchor="start" x="675.84" y="-531.5" font-family="Helvetica,sans-Serif" font-size="10.00">/mnt/V8SourceCode/src</text>
<text text-anchor="middle" x="735.34" y="-520.5" font-family="Helvetica,sans-Serif" font-size="10.00">/objects/fixed&#45;array&#45;inl.h</text>
</a>
</g>
</g>
<!-- Node1&#45;&gt;Node488 -->
<g id="edge41" class="edge">
<title>Node1&#45;&gt;Node488</title>
<path fill="none" stroke="midnightblue" d="M766.85,-572.16C759.85,-562.68 751.9,-551.92 745.74,-543.58"/>
<polygon fill="midnightblue" stroke="midnightblue" points="764.17,-574.43 772.93,-580.4 769.8,-570.27 764.17,-574.43"/>
</g>
<!-- Node532 -->
<g id="node26" class="node">
<title>Node532</title>
<g id="a_node26"><a xlink:href="scope-info-inl_8h.html" target="_top" xlink:title=" ">
<polygon fill="white" stroke="red" points="859.34,-446.5 859.34,-476.5 993.34,-476.5 993.34,-446.5 859.34,-446.5"/>
<text text-anchor="start" x="867.34" y="-464.5" font-family="Helvetica,sans-Serif" font-size="10.00">/mnt/V8SourceCode/src</text>
<text text-anchor="middle" x="926.34" y="-453.5" font-family="Helvetica,sans-Serif" font-size="10.00">/objects/scope&#45;info&#45;inl.h</text>
</a>
</g>
</g>
<!-- Node1&#45;&gt;Node532 -->
<g id="edge49" class="edge">
<title>Node1&#45;&gt;Node532</title>
<path fill="none" stroke="midnightblue" d="M809.81,-573.95C821,-565.01 834.03,-554.25 845.34,-544 870.18,-521.5 897.31,-493.43 913.02,-476.79"/>
<polygon fill="midnightblue" stroke="midnightblue" points="807.33,-571.45 801.67,-580.4 811.68,-576.93 807.33,-571.45"/>
</g>
<!-- Node428 -->
<g id="node27" class="node">
<title>Node428</title>
<g id="a_node27"><a xlink:href="string-inl_8h.html" target="_top" xlink:title=" ">
<polygon fill="white" stroke="red" points="2199.34,-374 2199.34,-404 2329.34,-404 2329.34,-374 2199.34,-374"/>
<text text-anchor="start" x="2207.34" y="-392" font-family="Helvetica,sans-Serif" font-size="10.00">/mnt/V8SourceCode/src</text>
<text text-anchor="middle" x="2264.34" y="-381" font-family="Helvetica,sans-Serif" font-size="10.00">/objects/string&#45;inl.h</text>
</a>
</g>
</g>
<!-- Node1&#45;&gt;Node428 -->
<g id="edge50" class="edge">
<title>Node1&#45;&gt;Node428</title>
<path fill="none" stroke="midnightblue" d="M864.53,-585.5C951.76,-575.72 1094.45,-559.43 1217.34,-544 1438.49,-516.23 1493.81,-509.3 1714.34,-477 1889.87,-451.29 2096.35,-417.74 2199.23,-400.79"/>
<polygon fill="midnightblue" stroke="midnightblue" points="863.98,-582.04 854.43,-586.63 864.76,-588.99 863.98,-582.04"/>
</g>
<!-- Node631 -->
<g id="node28" class="node">
<title>Node631</title>
<g id="a_node28"><a xlink:href="turboshaft-types-inl_8h.html" target="_top" xlink:title=" ">
<polygon fill="white" stroke="red" points="12.84,-446.5 12.84,-476.5 175.84,-476.5 175.84,-446.5 12.84,-446.5"/>
<text text-anchor="start" x="20.84" y="-464.5" font-family="Helvetica,sans-Serif" font-size="10.00">/mnt/V8SourceCode/src</text>
<text text-anchor="middle" x="94.34" y="-453.5" font-family="Helvetica,sans-Serif" font-size="10.00">/objects/turboshaft&#45;types&#45;inl.h</text>
</a>
</g>
</g>
<!-- Node1&#45;&gt;Node631 -->
<g id="edge55" class="edge">
<title>Node1&#45;&gt;Node631</title>
<path fill="none" stroke="midnightblue" d="M702.14,-581.8C641.48,-572.08 556.57,-558.02 482.34,-544 367.36,-522.29 233.99,-493.47 157.36,-476.56"/>
<polygon fill="midnightblue" stroke="midnightblue" points="701.62,-585.26 712.04,-583.38 702.72,-578.35 701.62,-585.26"/>
</g>
<!-- Node3 -->
<g id="node3" class="node">
<title>Node3</title>
<g id="a_node3"><a xlink:href="debug_8cc.html" target="_top" xlink:title=" ">
<polygon fill="white" stroke="black" points="253.34,-374 253.34,-404 383.34,-404 383.34,-374 253.34,-374"/>
<text text-anchor="start" x="261.34" y="-392" font-family="Helvetica,sans-Serif" font-size="10.00">/mnt/V8SourceCode/src</text>
<text text-anchor="middle" x="318.34" y="-381" font-family="Helvetica,sans-Serif" font-size="10.00">/debug/debug.cc</text>
</a>
</g>
</g>
<!-- Node2&#45;&gt;Node3 -->
<g id="edge2" class="edge">
<title>Node2&#45;&gt;Node3</title>
<path fill="none" stroke="midnightblue" d="M369.97,-439.19C358.1,-427.87 343.82,-414.27 333.3,-404.25"/>
<polygon fill="midnightblue" stroke="midnightblue" points="367.72,-441.87 377.37,-446.23 372.54,-436.8 367.72,-441.87"/>
</g>
<!-- Node4 -->
<g id="node4" class="node">
<title>Node4</title>
<g id="a_node4"><a xlink:href="objects-debug_8cc.html" target="_top" xlink:title=" ">
<polygon fill="white" stroke="black" points="29.34,-368.5 29.34,-409.5 159.34,-409.5 159.34,-368.5 29.34,-368.5"/>
<text text-anchor="start" x="37.34" y="-397.5" font-family="Helvetica,sans-Serif" font-size="10.00">/mnt/V8SourceCode/src</text>
<text text-anchor="start" x="37.34" y="-386.5" font-family="Helvetica,sans-Serif" font-size="10.00">/diagnostics/objects</text>
<text text-anchor="middle" x="94.34" y="-375.5" font-family="Helvetica,sans-Serif" font-size="10.00">&#45;debug.cc</text>
</a>
</g>
</g>
<!-- Node2&#45;&gt;Node4 -->
<g id="edge3" class="edge">
<title>Node2&#45;&gt;Node4</title>
<path fill="none" stroke="midnightblue" d="M320.2,-444.27C277.46,-434.55 222.25,-421.83 173.34,-410 168.81,-408.9 164.13,-407.76 159.41,-406.59"/>
<polygon fill="midnightblue" stroke="midnightblue" points="319.43,-447.69 329.96,-446.49 320.98,-440.86 319.43,-447.69"/>
</g>
<!-- Node5 -->
<g id="node5" class="node">
<title>Node5</title>
<g id="a_node5"><a xlink:href="factory_8cc.html" target="_top" xlink:title=" ">
<polygon fill="white" stroke="black" points="597.34,-374 597.34,-404 727.34,-404 727.34,-374 597.34,-374"/>
<text text-anchor="start" x="605.34" y="-392" font-family="Helvetica,sans-Serif" font-size="10.00">/mnt/V8SourceCode/src</text>
<text text-anchor="middle" x="662.34" y="-381" font-family="Helvetica,sans-Serif" font-size="10.00">/heap/factory.cc</text>
</a>
</g>
</g>
<!-- Node2&#45;&gt;Node5 -->
<g id="edge4" class="edge">
<title>Node2&#45;&gt;Node5</title>
<path fill="none" stroke="midnightblue" d="M455.94,-443.89C502.28,-431.79 564.38,-415.58 608.32,-404.11"/>
<polygon fill="midnightblue" stroke="midnightblue" points="454.8,-440.57 446.01,-446.49 456.57,-447.35 454.8,-440.57"/>
</g>
<!-- Node6 -->
<g id="node6" class="node">
<title>Node6</title>
<g id="a_node6"><a xlink:href="all-objects-inl_8h.html" target="_top" xlink:title=" ">
<polygon fill="white" stroke="black" points="783.34,-78.5 783.34,-108.5 917.34,-108.5 917.34,-78.5 783.34,-78.5"/>
<text text-anchor="start" x="791.34" y="-96.5" font-family="Helvetica,sans-Serif" font-size="10.00">/mnt/V8SourceCode/src</text>
<text text-anchor="middle" x="850.34" y="-85.5" font-family="Helvetica,sans-Serif" font-size="10.00">/objects/all&#45;objects&#45;inl.h</text>
</a>
</g>
</g>
<!-- Node2&#45;&gt;Node6 -->
<g id="edge5" class="edge">
<title>Node2&#45;&gt;Node6</title>
<path fill="none" stroke="midnightblue" d="M306.18,-450.28C277.22,-443.07 246.65,-430.82 224.34,-410 190.31,-378.23 187.34,-358.56 187.34,-312 187.34,-312 187.34,-312 187.34,-232 187.34,-111.21 614.57,-95.74 783.12,-94.34"/>
<polygon fill="midnightblue" stroke="midnightblue" points="305.39,-453.69 315.92,-452.54 306.97,-446.87 305.39,-453.69"/>
</g>
<!-- Node8 -->
<g id="node8" class="node">
<title>Node8</title>
<g id="a_node8"><a xlink:href="debug-objects_8cc.html" target="_top" xlink:title=" ">
<polygon fill="white" stroke="black" points="401.34,-374 401.34,-404 541.34,-404 541.34,-374 401.34,-374"/>
<text text-anchor="start" x="409.34" y="-392" font-family="Helvetica,sans-Serif" font-size="10.00">/mnt/V8SourceCode/src</text>
<text text-anchor="middle" x="471.34" y="-381" font-family="Helvetica,sans-Serif" font-size="10.00">/objects/debug&#45;objects.cc</text>
</a>
</g>
</g>
<!-- Node2&#45;&gt;Node8 -->
<g id="edge7" class="edge">
<title>Node2&#45;&gt;Node8</title>
<path fill="none" stroke="midnightblue" d="M415.92,-439.46C428.76,-428 444.3,-414.14 455.65,-404"/>
<polygon fill="midnightblue" stroke="midnightblue" points="413.46,-436.96 408.33,-446.23 418.12,-442.19 413.46,-436.96"/>
</g>
<!-- Node9 -->
<g id="node9" class="node">
<title>Node9</title>
<g id="a_node9"><a xlink:href="objects_8cc.html" target="_top" xlink:title=" ">
<polygon fill="white" stroke="black" points="313.34,-145.5 313.34,-175.5 443.34,-175.5 443.34,-145.5 313.34,-145.5"/>
<text text-anchor="start" x="321.34" y="-163.5" font-family="Helvetica,sans-Serif" font-size="10.00">/mnt/V8SourceCode/src</text>
<text text-anchor="middle" x="378.34" y="-152.5" font-family="Helvetica,sans-Serif" font-size="10.00">/objects/objects.cc</text>
</a>
</g>
</g>
<!-- Node2&#45;&gt;Node9 -->
<g id="edge8" class="edge">
<title>Node2&#45;&gt;Node9</title>
<path fill="none" stroke="midnightblue" d="M306.4,-450.06C282.44,-442.74 258.99,-430.47 244.34,-410 185.03,-327.08 310.56,-214.86 359.72,-175.69"/>
<polygon fill="midnightblue" stroke="midnightblue" points="305.74,-453.51 316.31,-452.81 307.61,-446.77 305.74,-453.51"/>
</g>
<!-- Node10 -->
<g id="node10" class="node">
<title>Node10</title>
<g id="a_node10"><a xlink:href="shared-function-info-inl_8h.html" target="_top" xlink:title=" ">
<polygon fill="white" stroke="black" points="1445.34,-368.5 1445.34,-409.5 1579.34,-409.5 1579.34,-368.5 1445.34,-368.5"/>
<text text-anchor="start" x="1453.34" y="-397.5" font-family="Helvetica,sans-Serif" font-size="10.00">/mnt/V8SourceCode/src</text>
<text text-anchor="start" x="1453.34" y="-386.5" font-family="Helvetica,sans-Serif" font-size="10.00">/objects/shared&#45;function</text>
<text text-anchor="middle" x="1512.34" y="-375.5" font-family="Helvetica,sans-Serif" font-size="10.00">&#45;info&#45;inl.h</text>
</a>
</g>
</g>
<!-- Node2&#45;&gt;Node10 -->
<g id="edge9" class="edge">
<title>Node2&#45;&gt;Node10</title>
<path fill="none" stroke="midnightblue" d="M478.43,-455.08C693.65,-441.53 1251.68,-406.41 1445.13,-394.23"/>
<polygon fill="midnightblue" stroke="midnightblue" points="478.21,-451.59 468.45,-455.71 478.65,-458.57 478.21,-451.59"/>
</g>
<!-- Node7 -->
<g id="node7" class="node">
<title>Node7</title>
<g id="a_node7"><a xlink:href="objects-printer_8cc.html" target="_top" xlink:title=" ">
<polygon fill="white" stroke="black" points="1983.34,-0.5 1983.34,-41.5 2113.34,-41.5 2113.34,-0.5 1983.34,-0.5"/>
<text text-anchor="start" x="1991.34" y="-29.5" font-family="Helvetica,sans-Serif" font-size="10.00">/mnt/V8SourceCode/src</text>
<text text-anchor="start" x="1991.34" y="-18.5" font-family="Helvetica,sans-Serif" font-size="10.00">/diagnostics/objects</text>
<text text-anchor="middle" x="2048.34" y="-7.5" font-family="Helvetica,sans-Serif" font-size="10.00">&#45;printer.cc</text>
</a>
</g>
</g>
<!-- Node6&#45;&gt;Node7 -->
<g id="edge6" class="edge">
<title>Node6&#45;&gt;Node7</title>
<path fill="none" stroke="midnightblue" d="M927.96,-87.93C1148.84,-74.93 1778.14,-37.9 1983.01,-25.84"/>
<polygon fill="midnightblue" stroke="midnightblue" points="927.53,-84.45 917.75,-88.53 927.94,-91.44 927.53,-84.45"/>
</g>
<!-- Node10&#45;&gt;Node6 -->
<g id="edge16" class="edge">
<title>Node10&#45;&gt;Node6</title>
<path fill="none" stroke="midnightblue" d="M1434.9,-384.4C1292.8,-377.16 1001.49,-359.19 964.34,-332 891.26,-278.5 926.27,-224.75 883.34,-145 876.49,-132.27 867.44,-118.59 860.55,-108.69"/>
<polygon fill="midnightblue" stroke="midnightblue" points="1435.12,-387.91 1445.28,-384.92 1435.47,-380.92 1435.12,-387.91"/>
</g>
<!-- Node10&#45;&gt;Node7 -->
<g id="edge13" class="edge">
<title>Node10&#45;&gt;Node7</title>
<path fill="none" stroke="midnightblue" d="M1589.93,-383.72C1718.84,-375.93 1966.05,-357.8 1996.34,-332 2083.38,-257.87 2062.79,-97.46 2052.44,-41.63"/>
<polygon fill="midnightblue" stroke="midnightblue" points="1589.49,-380.24 1579.72,-384.33 1589.91,-387.23 1589.49,-380.24"/>
</g>
<!-- Node11 -->
<g id="node11" class="node">
<title>Node11</title>
<g id="a_node11"><a xlink:href="baseline-compiler_8cc.html" target="_top" xlink:title=" ">
<polygon fill="white" stroke="black" points="1485.34,-296 1485.34,-326 1649.34,-326 1649.34,-296 1485.34,-296"/>
<text text-anchor="start" x="1493.34" y="-314" font-family="Helvetica,sans-Serif" font-size="10.00">/mnt/V8SourceCode/src</text>
<text text-anchor="middle" x="1567.34" y="-303" font-family="Helvetica,sans-Serif" font-size="10.00">/baseline/baseline&#45;compiler.cc</text>
</a>
</g>
</g>
<!-- Node10&#45;&gt;Node11 -->
<g id="edge10" class="edge">
<title>Node10&#45;&gt;Node11</title>
<path fill="none" stroke="midnightblue" d="M1532.38,-360.32C1540.75,-348.75 1550.12,-335.8 1557.05,-326.23"/>
<polygon fill="midnightblue" stroke="midnightblue" points="1529.54,-358.27 1526.51,-368.43 1535.21,-362.38 1529.54,-358.27"/>
</g>
<!-- Node12 -->
<g id="node12" class="node">
<title>Node12</title>
<g id="a_node12"><a xlink:href="baseline_8cc.html" target="_top" xlink:title=" ">
<polygon fill="white" stroke="black" points="1667.34,-296 1667.34,-326 1797.34,-326 1797.34,-296 1667.34,-296"/>
<text text-anchor="start" x="1675.34" y="-314" font-family="Helvetica,sans-Serif" font-size="10.00">/mnt/V8SourceCode/src</text>
<text text-anchor="middle" x="1732.34" y="-303" font-family="Helvetica,sans-Serif" font-size="10.00">/baseline/baseline.cc</text>
</a>
</g>
</g>
<!-- Node10&#45;&gt;Node12 -->
<g id="edge11" class="edge">
<title>Node10&#45;&gt;Node12</title>
<path fill="none" stroke="midnightblue" d="M1578.65,-365.1C1615.38,-352.41 1659.87,-337.04 1691.51,-326.11"/>
<polygon fill="midnightblue" stroke="midnightblue" points="1577.31,-361.85 1569,-368.43 1579.59,-368.47 1577.31,-361.85"/>
</g>
<!-- Node13 -->
<g id="node13" class="node">
<title>Node13</title>
<g id="a_node13"><a xlink:href="basic-block-profiler_8cc.html" target="_top" xlink:title=" ">
<polygon fill="white" stroke="black" points="973.34,-290.5 973.34,-331.5 1107.34,-331.5 1107.34,-290.5 973.34,-290.5"/>
<text text-anchor="start" x="981.34" y="-319.5" font-family="Helvetica,sans-Serif" font-size="10.00">/mnt/V8SourceCode/src</text>
<text text-anchor="start" x="981.34" y="-308.5" font-family="Helvetica,sans-Serif" font-size="10.00">/diagnostics/basic&#45;block</text>
<text text-anchor="middle" x="1040.34" y="-297.5" font-family="Helvetica,sans-Serif" font-size="10.00">&#45;profiler.cc</text>
</a>
</g>
</g>
<!-- Node10&#45;&gt;Node13 -->
<g id="edge12" class="edge">
<title>Node10&#45;&gt;Node13</title>
<path fill="none" stroke="midnightblue" d="M1435.01,-379.77C1354.86,-370.61 1226.17,-354.14 1116.34,-332 1113.4,-331.41 1110.4,-330.77 1107.38,-330.1"/>
<polygon fill="midnightblue" stroke="midnightblue" points="1434.69,-383.26 1445.02,-380.91 1435.48,-376.3 1434.69,-383.26"/>
</g>
<!-- Node14 -->
<g id="node14" class="node">
<title>Node14</title>
<g id="a_node14"><a xlink:href="factory-base_8cc.html" target="_top" xlink:title=" ">
<polygon fill="white" stroke="black" points="2043.34,-296 2043.34,-326 2173.34,-326 2173.34,-296 2043.34,-296"/>
<text text-anchor="start" x="2051.34" y="-314" font-family="Helvetica,sans-Serif" font-size="10.00">/mnt/V8SourceCode/src</text>
<text text-anchor="middle" x="2108.34" y="-303" font-family="Helvetica,sans-Serif" font-size="10.00">/heap/factory&#45;base.cc</text>
</a>
</g>
</g>
<!-- Node10&#45;&gt;Node14 -->
<g id="edge14" class="edge">
<title>Node10&#45;&gt;Node14</title>
<path fill="none" stroke="midnightblue" d="M1589.87,-383C1691.41,-375.69 1874.71,-359.81 2029.34,-332 2038.4,-330.37 2047.94,-328.28 2057.15,-326.07"/>
<polygon fill="midnightblue" stroke="midnightblue" points="1589.42,-379.53 1579.7,-383.73 1589.92,-386.51 1589.42,-379.53"/>
</g>
<!-- Node15 -->
<g id="node15" class="node">
<title>Node15</title>
<g id="a_node15"><a xlink:href="maglev-concurrent-dispatcher_8cc.html" target="_top" xlink:title=" ">
<polygon fill="white" stroke="black" points="1792.34,-212.5 1792.34,-253.5 1944.34,-253.5 1944.34,-212.5 1792.34,-212.5"/>
<text text-anchor="start" x="1800.34" y="-241.5" font-family="Helvetica,sans-Serif" font-size="10.00">/mnt/V8SourceCode/src</text>
<text text-anchor="start" x="1800.34" y="-230.5" font-family="Helvetica,sans-Serif" font-size="10.00">/maglev/maglev&#45;concurrent</text>
<text text-anchor="middle" x="1868.34" y="-219.5" font-family="Helvetica,sans-Serif" font-size="10.00">&#45;dispatcher.cc</text>
</a>
</g>
</g>
<!-- Node10&#45;&gt;Node15 -->
<g id="edge15" class="edge">
<title>Node10&#45;&gt;Node15</title>
<path fill="none" stroke="midnightblue" d="M1488.41,-360.19C1473.09,-338.92 1459.05,-309.95 1476.34,-290 1516.38,-243.84 1689.8,-234.79 1792.08,-233.56"/>
<polygon fill="midnightblue" stroke="midnightblue" points="1485.67,-362.37 1494.5,-368.22 1491.24,-358.14 1485.67,-362.37"/>
</g>
<!-- Node16 -->
<g id="node16" class="node">
<title>Node16</title>
<g id="a_node16"><a xlink:href="js-function-inl_8h.html" target="_top" xlink:title=" ">
<polygon fill="white" stroke="red" points="1853.34,-296 1853.34,-326 1987.34,-326 1987.34,-296 1853.34,-296"/>
<text text-anchor="start" x="1861.34" y="-314" font-family="Helvetica,sans-Serif" font-size="10.00">/mnt/V8SourceCode/src</text>
<text text-anchor="middle" x="1920.34" y="-303" font-family="Helvetica,sans-Serif" font-size="10.00">/objects/js&#45;function&#45;inl.h</text>
</a>
</g>
</g>
<!-- Node10&#45;&gt;Node16 -->
<g id="edge17" class="edge">
<title>Node10&#45;&gt;Node16</title>
<path fill="none" stroke="midnightblue" d="M1589.6,-376.39C1656.05,-366.01 1754.34,-349.75 1839.34,-332 1847.85,-330.22 1856.82,-328.18 1865.57,-326.1"/>
<polygon fill="midnightblue" stroke="midnightblue" points="1588.97,-372.94 1579.62,-377.94 1590.04,-379.86 1588.97,-372.94"/>
</g>
<!-- Node409 -->
<g id="node17" class="node">
<title>Node409</title>
<g id="a_node17"><a xlink:href="map-inl_8h.html" target="_top" xlink:title=" ">
<polygon fill="white" stroke="red" points="711.34,-218 711.34,-248 841.34,-248 841.34,-218 711.34,-218"/>
<text text-anchor="start" x="719.34" y="-236" font-family="Helvetica,sans-Serif" font-size="10.00">/mnt/V8SourceCode/src</text>
<text text-anchor="middle" x="776.34" y="-225" font-family="Helvetica,sans-Serif" font-size="10.00">/objects/map&#45;inl.h</text>
</a>
</g>
</g>
<!-- Node10&#45;&gt;Node409 -->
<g id="edge29" class="edge">
<title>Node10&#45;&gt;Node409</title>
<path fill="none" stroke="midnightblue" d="M1434.93,-384.99C1298.84,-378.96 1022.5,-363.22 931.34,-332 902.66,-322.17 830.83,-272.71 795.96,-248.03"/>
<polygon fill="midnightblue" stroke="midnightblue" points="1435.13,-388.5 1445.28,-385.44 1435.44,-381.51 1435.13,-388.5"/>
</g>
<!-- Node144 -->
<g id="node19" class="node">
<title>Node144</title>
<g id="a_node19"><a xlink:href="templates_8cc.html" target="_top" xlink:title=" ">
<polygon fill="white" stroke="black" points="1776.34,-145.5 1776.34,-175.5 1906.34,-175.5 1906.34,-145.5 1776.34,-145.5"/>
<text text-anchor="start" x="1784.34" y="-163.5" font-family="Helvetica,sans-Serif" font-size="10.00">/mnt/V8SourceCode/src</text>
<text text-anchor="middle" x="1841.34" y="-152.5" font-family="Helvetica,sans-Serif" font-size="10.00">/objects/templates.cc</text>
</a>
</g>
</g>
<!-- Node10&#45;&gt;Node144 -->
<g id="edge31" class="edge">
<title>Node10&#45;&gt;Node144</title>
<path fill="none" stroke="midnightblue" d="M1589.62,-384.13C1667.3,-378.44 1779.32,-364.66 1806.34,-332 1818.25,-317.62 1811.58,-307.92 1806.34,-290 1801.02,-271.78 1788.67,-272.22 1783.34,-254 1778.11,-236.08 1775.61,-228.99 1783.34,-212 1790.26,-196.81 1804.25,-184.41 1816.76,-175.71"/>
<polygon fill="midnightblue" stroke="midnightblue" points="1589.1,-380.66 1579.37,-384.85 1589.59,-387.64 1589.1,-380.66"/>
</g>
<!-- Node464 -->
<g id="node20" class="node">
<title>Node464</title>
<g id="a_node20"><a xlink:href="shared-function-info_8cc.html" target="_top" xlink:title=" ">
<polygon fill="white" stroke="black" points="1125.34,-290.5 1125.34,-331.5 1259.34,-331.5 1259.34,-290.5 1125.34,-290.5"/>
<text text-anchor="start" x="1133.34" y="-319.5" font-family="Helvetica,sans-Serif" font-size="10.00">/mnt/V8SourceCode/src</text>
<text text-anchor="start" x="1133.34" y="-308.5" font-family="Helvetica,sans-Serif" font-size="10.00">/objects/shared&#45;function</text>
<text text-anchor="middle" x="1192.34" y="-297.5" font-family="Helvetica,sans-Serif" font-size="10.00">&#45;info.cc</text>
</a>
</g>
</g>
<!-- Node10&#45;&gt;Node464 -->
<g id="edge30" class="edge">
<title>Node10&#45;&gt;Node464</title>
<path fill="none" stroke="midnightblue" d="M1435.13,-370.94C1387.06,-360.15 1324,-345.71 1268.34,-332 1265.43,-331.28 1262.46,-330.54 1259.45,-329.78"/>
<polygon fill="midnightblue" stroke="midnightblue" points="1434.63,-374.41 1445.15,-373.18 1436.16,-367.58 1434.63,-374.41"/>
</g>
<!-- Node757 -->
<g id="node21" class="node">
<title>Node757</title>
<g id="a_node21"><a xlink:href="profile-generator_8cc.html" target="_top" xlink:title=" ">
<polygon fill="white" stroke="black" points="1277.34,-296 1277.34,-326 1429.34,-326 1429.34,-296 1277.34,-296"/>
<text text-anchor="start" x="1285.34" y="-314" font-family="Helvetica,sans-Serif" font-size="10.00">/mnt/V8SourceCode/src</text>
<text text-anchor="middle" x="1353.34" y="-303" font-family="Helvetica,sans-Serif" font-size="10.00">/profiler/profile&#45;generator.cc</text>
</a>
</g>
</g>
<!-- Node10&#45;&gt;Node757 -->
<g id="edge32" class="edge">
<title>Node10&#45;&gt;Node757</title>
<path fill="none" stroke="midnightblue" d="M1462.07,-363.97C1436.1,-351.55 1405.28,-336.83 1383.11,-326.23"/>
<polygon fill="midnightblue" stroke="midnightblue" points="1460.87,-367.27 1471.4,-368.43 1463.89,-360.96 1460.87,-367.27"/>
</g>
<!-- Node445 -->
<g id="node22" class="node">
<title>Node445</title>
<g id="a_node22"><a xlink:href="profiler-listener_8cc.html" target="_top" xlink:title=" ">
<polygon fill="white" stroke="black" points="2191.84,-296 2191.84,-326 2336.84,-326 2336.84,-296 2191.84,-296"/>
<text text-anchor="start" x="2199.84" y="-314" font-family="Helvetica,sans-Serif" font-size="10.00">/mnt/V8SourceCode/src</text>
<text text-anchor="middle" x="2264.34" y="-303" font-family="Helvetica,sans-Serif" font-size="10.00">/profiler/profiler&#45;listener.cc</text>
</a>
</g>
</g>
<!-- Node10&#45;&gt;Node445 -->
<g id="edge33" class="edge">
<title>Node10&#45;&gt;Node445</title>
<path fill="none" stroke="midnightblue" d="M1590.07,-385.43C1715.43,-380.42 1969.71,-366.6 2182.34,-332 2192.03,-330.42 2202.27,-328.3 2212.1,-326.03"/>
<polygon fill="midnightblue" stroke="midnightblue" points="1589.67,-381.95 1579.81,-385.84 1589.94,-388.94 1589.67,-381.95"/>
</g>
<!-- Node16&#45;&gt;Node6 -->
<g id="edge20" class="edge">
<title>Node16&#45;&gt;Node6</title>
<path fill="none" stroke="midnightblue" d="M1945.89,-288.91C1955.48,-279.37 1965.29,-267.26 1970.34,-254 1989.68,-203.3 1963.84,-169.35 1915.34,-145 1826.54,-100.4 1137.29,-95.09 917.47,-94.54"/>
<polygon fill="midnightblue" stroke="midnightblue" points="1943.24,-286.6 1938.33,-295.99 1948.03,-291.71 1943.24,-286.6"/>
</g>
<!-- Node16&#45;&gt;Node7 -->
<g id="edge18" class="edge">
<title>Node16&#45;&gt;Node7</title>
<path fill="none" stroke="midnightblue" d="M1951.88,-290.06C1964.59,-280.56 1978.34,-268.17 1987.34,-254 2031.55,-184.39 2043.87,-83.68 2047.18,-41.61"/>
<polygon fill="midnightblue" stroke="midnightblue" points="1949.85,-287.21 1943.75,-295.87 1953.92,-292.91 1949.85,-287.21"/>
</g>
<!-- Node16&#45;&gt;Node15 -->
<g id="edge19" class="edge">
<title>Node16&#45;&gt;Node15</title>
<path fill="none" stroke="midnightblue" d="M1904.79,-287.27C1897.48,-276.58 1888.84,-263.96 1881.81,-253.68"/>
<polygon fill="midnightblue" stroke="midnightblue" points="1902.03,-289.43 1910.56,-295.7 1907.81,-285.48 1902.03,-289.43"/>
</g>
<!-- Node16&#45;&gt;Node409 -->
<g id="edge21" class="edge">
<title>Node16&#45;&gt;Node409</title>
<path fill="none" stroke="midnightblue" d="M1843.12,-295.17C1830.85,-293.18 1818.28,-291.37 1806.34,-290 1443.16,-248.42 1004.29,-237.54 841.35,-234.84"/>
<polygon fill="midnightblue" stroke="midnightblue" points="1842.89,-298.68 1853.33,-296.87 1844.04,-291.77 1842.89,-298.68"/>
</g>
<!-- Node16&#45;&gt;Node144 -->
<g id="edge28" class="edge">
<title>Node16&#45;&gt;Node144</title>
<path fill="none" stroke="midnightblue" d="M1938.54,-287.49C1953.01,-266.67 1968.52,-235.49 1953.34,-212 1942.06,-194.53 1923.12,-183.04 1904,-175.52"/>
<polygon fill="midnightblue" stroke="midnightblue" points="1935.59,-285.59 1932.5,-295.73 1941.24,-289.74 1935.59,-285.59"/>
</g>
<!-- Node409&#45;&gt;Node6 -->
<g id="edge22" class="edge">
<title>Node409&#45;&gt;Node6</title>
<path fill="none" stroke="midnightblue" d="M792.08,-209.06C798.66,-199.09 806.19,-187.16 812.34,-176 825.01,-153.03 837.41,-125.11 844.45,-108.63"/>
<polygon fill="midnightblue" stroke="midnightblue" points="789.03,-207.34 786.37,-217.59 794.85,-211.23 789.03,-207.34"/>
</g>
<!-- Node409&#45;&gt;Node9 -->
<g id="edge23" class="edge">
<title>Node409&#45;&gt;Node9</title>
<path fill="none" stroke="midnightblue" d="M700.84,-218.63C626.53,-205.46 514.23,-185.57 443.66,-173.07"/>
<polygon fill="midnightblue" stroke="midnightblue" points="700.61,-222.14 711.07,-220.44 701.83,-215.25 700.61,-222.14"/>
</g>
<!-- Node409&#45;&gt;Node473 -->
<g id="edge24" class="edge">
<title>Node409&#45;&gt;Node473</title>
<path fill="none" stroke="midnightblue" d="M754.53,-209.71C746.04,-198.6 737.19,-185.49 731.7,-175.75"/>
<polygon fill="midnightblue" stroke="midnightblue" points="751.93,-212.07 760.88,-217.73 757.41,-207.72 751.93,-212.07"/>
</g>
<!-- Node409&#45;&gt;Node144 -->
<g id="edge27" class="edge">
<title>Node409&#45;&gt;Node144</title>
<path fill="none" stroke="midnightblue" d="M851.43,-227.03C1050.44,-213.86 1588.97,-178.21 1776.16,-165.81"/>
<polygon fill="midnightblue" stroke="midnightblue" points="851.11,-223.54 841.36,-227.7 851.57,-230.53 851.11,-223.54"/>
</g>
<!-- Node473&#45;&gt;Node6 -->
<g id="edge25" class="edge">
<title>Node473&#45;&gt;Node6</title>
<path fill="none" stroke="midnightblue" d="M762.89,-140.71C782.29,-130.46 805.91,-117.98 823.71,-108.58"/>
<polygon fill="midnightblue" stroke="midnightblue" points="761.24,-137.63 754.03,-145.4 764.51,-143.82 761.24,-137.63"/>
</g>
<!-- Node473&#45;&gt;Node409 -->
<g id="edge26" class="edge">
<title>Node473&#45;&gt;Node409</title>
<path fill="none" stroke="midnightblue" d="M749.14,-183.76C757.63,-194.87 766.48,-207.99 771.98,-217.73"/>
<polygon fill="midnightblue" stroke="midnightblue" points="751.74,-181.41 742.79,-175.75 746.26,-185.76 751.74,-181.41"/>
</g>
<!-- Node424&#45;&gt;Node6 -->
<g id="edge35" class="edge">
<title>Node424&#45;&gt;Node6</title>
<path fill="none" stroke="midnightblue" d="M728.49,-290.54C681.21,-259.25 602.18,-196.08 642.34,-145 659.71,-122.91 729.17,-109.29 783.09,-101.85"/>
<polygon fill="midnightblue" stroke="midnightblue" points="726.61,-293.49 736.91,-296 730.42,-287.62 726.61,-293.49"/>
</g>
<!-- Node424&#45;&gt;Node409 -->
<g id="edge36" class="edge">
<title>Node424&#45;&gt;Node409</title>
<path fill="none" stroke="midnightblue" d="M765.48,-285.59C768.08,-273.26 771.14,-258.72 773.35,-248.23"/>
<polygon fill="midnightblue" stroke="midnightblue" points="761.99,-285.2 763.35,-295.7 768.84,-286.64 761.99,-285.2"/>
</g>
<!-- Node484&#45;&gt;Node6 -->
<g id="edge38" class="edge">
<title>Node484&#45;&gt;Node6</title>
<path fill="none" stroke="midnightblue" d="M1715.26,-457.5C1894.88,-451.07 2282.72,-434.54 2338.34,-410 2396.15,-384.49 2441.34,-375.19 2441.34,-312 2441.34,-312 2441.34,-312 2441.34,-232 2441.34,-79.46 2260.21,-167.52 2109.34,-145 1876.22,-110.2 1143.43,-98.2 917.4,-95.28"/>
<polygon fill="midnightblue" stroke="midnightblue" points="1714.91,-454.01 1705.04,-457.86 1715.16,-461.01 1714.91,-454.01"/>
</g>
<!-- Node484&#45;&gt;Node10 -->
<g id="edge40" class="edge">
<title>Node484&#45;&gt;Node10</title>
<path fill="none" stroke="midnightblue" d="M1593.25,-440.93C1577.78,-431.19 1559.11,-419.44 1543.61,-409.68"/>
<polygon fill="midnightblue" stroke="midnightblue" points="1591.62,-444.04 1601.95,-446.4 1595.35,-438.11 1591.62,-444.04"/>
</g>
<!-- Node484&#45;&gt;Node16 -->
<g id="edge39" class="edge">
<title>Node484&#45;&gt;Node16</title>
<path fill="none" stroke="midnightblue" d="M1661.6,-441.81C1721.74,-411.64 1838.87,-352.87 1892.42,-326.01"/>
<polygon fill="midnightblue" stroke="midnightblue" points="1659.83,-438.78 1652.46,-446.4 1662.97,-445.04 1659.83,-438.78"/>
</g>
<!-- Node488&#45;&gt;Node5 -->
<g id="edge42" class="edge">
<title>Node488&#45;&gt;Node5</title>
<path fill="none" stroke="midnightblue" d="M723.09,-504.41C707.92,-475.85 682.56,-428.09 669.95,-404.33"/>
<polygon fill="midnightblue" stroke="midnightblue" points="720.03,-506.11 727.81,-513.3 726.21,-502.83 720.03,-506.11"/>
</g>
<!-- Node488&#45;&gt;Node6 -->
<g id="edge43" class="edge">
<title>Node488&#45;&gt;Node6</title>
<path fill="none" stroke="midnightblue" d="M742.91,-503.59C751.89,-470.37 762.56,-409.66 736.34,-368 716.65,-336.71 684.97,-360.44 661.34,-332 607.37,-267.02 574.62,-211 627.34,-145 646.61,-120.89 724.75,-107.43 783.13,-100.59"/>
<polygon fill="midnightblue" stroke="midnightblue" points="739.51,-502.77 740.11,-513.35 746.23,-504.7 739.51,-502.77"/>
</g>
<!-- Node488&#45;&gt;Node473 -->
<g id="edge44" class="edge">
<title>Node488&#45;&gt;Node473</title>
<path fill="none" stroke="midnightblue" d="M754.49,-505.22C760.46,-496.92 766.28,-487.05 769.34,-477 783.49,-430.67 797.07,-407.72 769.34,-368 742.79,-329.95 697.9,-370.05 671.34,-332 660.66,-316.69 667.83,-308.33 671.34,-290 679.76,-246.02 705.01,-198.88 718.55,-175.84"/>
<polygon fill="midnightblue" stroke="midnightblue" points="751.64,-503.19 748.33,-513.25 757.2,-507.45 751.64,-503.19"/>
</g>
<!-- Node488&#45;&gt;Node532 -->
<g id="edge45" class="edge">
<title>Node488&#45;&gt;Node532</title>
<path fill="none" stroke="midnightblue" d="M786.5,-510.09C817.33,-499.6 856.09,-486.41 884.98,-476.58"/>
<polygon fill="midnightblue" stroke="midnightblue" points="785.13,-506.86 776.79,-513.4 787.38,-513.49 785.13,-506.86"/>
</g>
<!-- Node532&#45;&gt;Node6 -->
<g id="edge46" class="edge">
<title>Node532&#45;&gt;Node6</title>
<path fill="none" stroke="midnightblue" d="M911.58,-437.73C894.69,-409.44 869.34,-359.14 869.34,-312 869.34,-312 869.34,-312 869.34,-232 869.34,-186.7 859.1,-133.78 853.65,-108.86"/>
<polygon fill="midnightblue" stroke="midnightblue" points="908.71,-439.75 916.93,-446.44 914.68,-436.09 908.71,-439.75"/>
</g>
<!-- Node532&#45;&gt;Node10 -->
<g id="edge47" class="edge">
<title>Node532&#45;&gt;Node10</title>
<path fill="none" stroke="midnightblue" d="M1003.76,-451.19C1119.44,-437.27 1335.5,-411.28 1445.01,-398.1"/>
<polygon fill="midnightblue" stroke="midnightblue" points="1003.08,-447.74 993.57,-452.41 1003.91,-454.69 1003.08,-447.74"/>
</g>
<!-- Node428&#45;&gt;Node6 -->
<g id="edge52" class="edge">
<title>Node428&#45;&gt;Node6</title>
<path fill="none" stroke="midnightblue" d="M2319.63,-369.52C2336.7,-360.91 2353.57,-348.77 2363.34,-332 2372.75,-315.88 2372.28,-306.39 2363.34,-290 2270.23,-119.19 2143.1,-171.32 1950.34,-145 1749.09,-117.52 1124.02,-100.86 917.4,-96"/>
<polygon fill="midnightblue" stroke="midnightblue" points="2317.75,-366.53 2310.17,-373.94 2320.71,-372.87 2317.75,-366.53"/>
</g>
<!-- Node428&#45;&gt;Node14 -->
<g id="edge51" class="edge">
<title>Node428&#45;&gt;Node14</title>
<path fill="none" stroke="midnightblue" d="M2226.06,-369.35C2198.6,-355.97 2162.18,-338.23 2137.17,-326.04"/>
<polygon fill="midnightblue" stroke="midnightblue" points="2224.84,-372.65 2235.37,-373.88 2227.91,-366.36 2224.84,-372.65"/>
</g>
<!-- Node428&#45;&gt;Node144 -->
<g id="edge53" class="edge">
<title>Node428&#45;&gt;Node144</title>
<path fill="none" stroke="midnightblue" d="M2307.67,-369.11C2322.73,-360.18 2337.93,-347.93 2346.34,-332 2355.06,-315.49 2357.8,-304.74 2346.34,-290 2292.49,-220.72 2030.25,-182.65 1906.38,-168.27"/>
<polygon fill="midnightblue" stroke="midnightblue" points="2305.93,-366.08 2298.88,-373.99 2309.32,-372.2 2305.93,-366.08"/>
</g>
<!-- Node428&#45;&gt;Node445 -->
<g id="edge54" class="edge">
<title>Node428&#45;&gt;Node445</title>
<path fill="none" stroke="midnightblue" d="M2264.34,-363.59C2264.34,-351.26 2264.34,-336.72 2264.34,-326.23"/>
<polygon fill="midnightblue" stroke="midnightblue" points="2260.84,-363.7 2264.34,-373.7 2267.84,-363.71 2260.84,-363.7"/>
</g>
<!-- Node631&#45;&gt;Node4 -->
<g id="edge56" class="edge">
<title>Node631&#45;&gt;Node4</title>
<path fill="none" stroke="midnightblue" d="M94.34,-435.98C94.34,-427.35 94.34,-417.76 94.34,-409.59"/>
<polygon fill="midnightblue" stroke="midnightblue" points="90.84,-436.23 94.34,-446.23 97.84,-436.23 90.84,-436.23"/>
</g>
<!-- Node631&#45;&gt;Node6 -->
<g id="edge57" class="edge">
<title>Node631&#45;&gt;Node6</title>
<path fill="none" stroke="midnightblue" d="M54.27,-441.17C41.61,-433.19 28.75,-422.78 20.34,-410 -4.03,-372.93 1.34,-356.37 1.34,-312 1.34,-312 1.34,-312 1.34,-232 1.34,-123.96 122.99,-168.95 228.34,-145 426.43,-99.97 668.02,-93.81 783.12,-93.74"/>
<polygon fill="midnightblue" stroke="midnightblue" points="52.55,-444.22 62.94,-446.3 56.12,-438.19 52.55,-444.22"/>
</g>
</g>
</svg>
        <g id="navigator" transform="translate(0 0)" fill="#404254">
                <rect fill="#f2f5e9" fill-opacity="0.5" stroke="#606060" stroke-width=".5" x="0" y="0" width="60" height="60"/>
                <use id="zoomplus" xlink:href="#zoomPlus" x="17" y="9" onmousedown="handleZoom(evt,'in')"/>
                <use id="zoomminus" xlink:href="#zoomMin" x="42" y="9" onmousedown="handleZoom(evt,'out')"/>
                <use id="reset" xlink:href="#resetDef" x="30" y="36" onmousedown="handleReset()"/>
                <g id="arrowUp" xlink:href="#dirArrow" transform="translate(30 24)" onmousedown="handlePan(0,-1)">
                  <use xlink:href="#rim" fill="#404040">
                        <set attributeName="fill" to="#808080" begin="arrowUp.mouseover" end="arrowUp.mouseout"/>
                  </use>
                  <path fill="none" stroke="white" stroke-width="1.5" d="M0,-3.0v7 M-2.5,-0.5L0,-3.0L2.5,-0.5"/>
                </g>
                <g id="arrowRight" xlink:href="#dirArrow" transform="rotate(90) translate(36 -43)" onmousedown="handlePan(1,0)">
                  <use xlink:href="#rim" fill="#404040">
                        <set attributeName="fill" to="#808080" begin="arrowRight.mouseover" end="arrowRight.mouseout"/>
                  </use>
                  <path fill="none" stroke="white" stroke-width="1.5" d="M0,-3.0v7 M-2.5,-0.5L0,-3.0L2.5,-0.5"/>
                </g>
                <g id="arrowDown" xlink:href="#dirArrow" transform="rotate(180) translate(-30 -48)" onmousedown="handlePan(0,1)">
                  <use xlink:href="#rim" fill="#404040">
                        <set attributeName="fill" to="#808080" begin="arrowDown.mouseover" end="arrowDown.mouseout"/>
                  </use>
                  <path fill="none" stroke="white" stroke-width="1.5" d="M0,-3.0v7 M-2.5,-0.5L0,-3.0L2.5,-0.5"/>
                </g>
                <g id="arrowLeft" xlink:href="#dirArrow" transform="rotate(270) translate(-36 17)" onmousedown="handlePan(-1,0)">
                  <use xlink:href="#rim" fill="#404040">
                        <set attributeName="fill" to="#808080" begin="arrowLeft.mouseover" end="arrowLeft.mouseout"/>
                  </use>
                  <path fill="none" stroke="white" stroke-width="1.5" d="M0,-3.0v7 M-2.5,-0.5L0,-3.0L2.5,-0.5"/>
                </g>
        </g>
        <svg viewBox="0 0 15 15" width="100%" height="30px" preserveAspectRatio="xMaxYMin meet">
         <g id="arrow_out" transform="scale(0.3 0.3)">
          <a xlink:href="runtime-support_8h__dep__incl_org.svg" target="_base">
           <rect id="button" ry="5" rx="5" y="6" x="6" height="38" width="38"
                fill="#f2f5e9" fill-opacity="0.5" stroke="#606060" stroke-width="1.0"/>
           <path id="arrow"
             d="M 11.500037,31.436501 C 11.940474,20.09759 22.043105,11.32322 32.158766,21.979434 L 37.068811,17.246167 C 37.068811,17.246167 37.088388,32 37.088388,32 L 22.160133,31.978069 C 22.160133,31.978069 26.997745,27.140456 26.997745,27.140456 C 18.528582,18.264221 13.291696,25.230495 11.500037,31.436501 z"
             style="fill:#404040;"/>
          </a>
         </g>
        </svg>
</svg>
