<?xml version="1.0" encoding="UTF-8" standalone="no"?>
<!DOCTYPE svg PUBLIC "-//W3C//DTD SVG 1.1//EN"
 "http://www.w3.org/Graphics/SVG/1.1/DTD/svg11.dtd">
<!-- Generated by graphviz version 2.43.0 (0)
 -->
<!-- Title: runtime&#45;utils.h Pages: 1 -->
<!--zoomable 84 -->
<svg id="main" version="1.1" xmlns="http://www.w3.org/2000/svg" xmlns:xlink="http://www.w3.org/1999/xlink" xml:space="preserve" onload="init(evt)">
<style type="text/css"><![CDATA[
.edge:hover path { stroke: red; }
.edge:hover polygon { stroke: red; fill: red; }
]]></style>
<script type="text/javascript"><![CDATA[
var edges = document.getElementsByTagName('g');
if (edges && edges.length) {
  for (var i=0;i<edges.length;i++) {
    if (edges[i].id.substr(0,4)=='edge') {
      edges[i].setAttribute('class','edge');
    }
  }
}
]]></script>
        <defs>
                <circle id="rim" cx="0" cy="0" r="7"/>
                <circle id="rim2" cx="0" cy="0" r="3.5"/>
                <g id="zoomPlus">
                        <use xlink:href="#rim" fill="#404040">
                                <set attributeName="fill" to="#808080" begin="zoomplus.mouseover" end="zoomplus.mouseout"/>
                        </use>
                        <path d="M-4,0h8M0,-4v8" fill="none" stroke="white" stroke-width="1.5" pointer-events="none"/>
                </g>
                <g id="zoomMin">
                        <use xlink:href="#rim" fill="#404040">
                                <set attributeName="fill" to="#808080" begin="zoomminus.mouseover" end="zoomminus.mouseout"/>
                        </use>
                        <path d="M-4,0h8" fill="none" stroke="white" stroke-width="1.5" pointer-events="none"/>
                </g>
                <g id="dirArrow">
                        <path fill="none" stroke="white" stroke-width="1.5" d="M0,-3.0v7 M-2.5,-0.5L0,-3.0L2.5,-0.5"/>
                </g>
               <g id="resetDef">
                       <use xlink:href="#rim2" fill="#404040">
                               <set attributeName="fill" to="#808080" begin="reset.mouseover" end="reset.mouseout"/>
                       </use>
               </g>
        </defs>

<script type="text/javascript">
var viewWidth = 1875;
var viewHeight = 84;
var sectionId = 'dynsection-1';
</script>
<script xlink:href="svgpan.js"/>
<svg id="graph" class="graph">
<g id="viewport">
<title>runtime&#45;utils.h</title>
<polygon fill="white" stroke="transparent" points="-4,4 -4,-80 1871,-80 1871,4 -4,4"/>
<!-- Node1 -->
<g id="node1" class="node">
<title>Node1</title>
<g id="a_node1"><a xlink:title=" ">
<polygon fill="#bfbfbf" stroke="black" points="881,-56.5 881,-75.5 970,-75.5 970,-56.5 881,-56.5"/>
<text text-anchor="middle" x="925.5" y="-63.5" font-family="Helvetica,sans-Serif" font-size="10.00">runtime&#45;utils.h</text>
</a>
</g>
</g>
<!-- Node2 -->
<g id="node2" class="node">
<title>Node2</title>
<g id="a_node2"><a xlink:href="runtime-atomics_8cc.html" target="_top" xlink:title=" ">
<polygon fill="white" stroke="black" points="0,-0.5 0,-19.5 111,-19.5 111,-0.5 0,-0.5"/>
<text text-anchor="middle" x="55.5" y="-7.5" font-family="Helvetica,sans-Serif" font-size="10.00">runtime&#45;atomics.cc</text>
</a>
</g>
</g>
<!-- Node1&#45;&gt;Node2 -->
<g id="edge1" class="edge">
<title>Node1&#45;&gt;Node2</title>
<path fill="none" stroke="midnightblue" d="M870.78,-63.48C740.53,-59.54 401.97,-47.31 120.5,-20 117.44,-19.7 114.3,-19.37 111.13,-19.01"/>
<polygon fill="midnightblue" stroke="midnightblue" points="870.8,-66.99 880.9,-63.79 871.01,-59.99 870.8,-66.99"/>
</g>
<!-- Node3 -->
<g id="node3" class="node">
<title>Node3</title>
<g id="a_node3"><a xlink:href="runtime-compiler_8cc.html" target="_top" xlink:title=" ">
<polygon fill="white" stroke="black" points="129.5,-0.5 129.5,-19.5 243.5,-19.5 243.5,-0.5 129.5,-0.5"/>
<text text-anchor="middle" x="186.5" y="-7.5" font-family="Helvetica,sans-Serif" font-size="10.00">runtime&#45;compiler.cc</text>
</a>
</g>
</g>
<!-- Node1&#45;&gt;Node3 -->
<g id="edge2" class="edge">
<title>Node1&#45;&gt;Node3</title>
<path fill="none" stroke="midnightblue" d="M870.63,-62.61C755.74,-57.33 481.56,-43.25 252.5,-20 249.62,-19.71 246.68,-19.39 243.71,-19.05"/>
<polygon fill="midnightblue" stroke="midnightblue" points="870.77,-66.12 880.92,-63.08 871.09,-59.13 870.77,-66.12"/>
</g>
<!-- Node4 -->
<g id="node4" class="node">
<title>Node4</title>
<g id="a_node4"><a xlink:href="runtime-debug_8cc.html" target="_top" xlink:title=" ">
<polygon fill="white" stroke="black" points="261.5,-0.5 261.5,-19.5 363.5,-19.5 363.5,-0.5 261.5,-0.5"/>
<text text-anchor="middle" x="312.5" y="-7.5" font-family="Helvetica,sans-Serif" font-size="10.00">runtime&#45;debug.cc</text>
</a>
</g>
</g>
<!-- Node1&#45;&gt;Node4 -->
<g id="edge3" class="edge">
<title>Node1&#45;&gt;Node4</title>
<path fill="none" stroke="midnightblue" d="M870.85,-61.78C771.47,-55.66 554.56,-41.04 372.5,-20 369.57,-19.66 366.56,-19.29 363.53,-18.89"/>
<polygon fill="midnightblue" stroke="midnightblue" points="870.76,-65.28 880.96,-62.4 871.19,-58.3 870.76,-65.28"/>
</g>
<!-- Node5 -->
<g id="node5" class="node">
<title>Node5</title>
<g id="a_node5"><a xlink:href="runtime-internal_8cc.html" target="_top" xlink:title=" ">
<polygon fill="white" stroke="black" points="381.5,-0.5 381.5,-19.5 491.5,-19.5 491.5,-0.5 381.5,-0.5"/>
<text text-anchor="middle" x="436.5" y="-7.5" font-family="Helvetica,sans-Serif" font-size="10.00">runtime&#45;internal.cc</text>
</a>
</g>
</g>
<!-- Node1&#45;&gt;Node5 -->
<g id="edge4" class="edge">
<title>Node1&#45;&gt;Node5</title>
<path fill="none" stroke="midnightblue" d="M870.81,-59.81C789.82,-52 633.27,-36.36 500.5,-20 497.6,-19.64 494.64,-19.27 491.64,-18.88"/>
<polygon fill="midnightblue" stroke="midnightblue" points="870.49,-63.3 880.78,-60.77 871.16,-56.33 870.49,-63.3"/>
</g>
<!-- Node6 -->
<g id="node6" class="node">
<title>Node6</title>
<g id="a_node6"><a xlink:href="runtime-intl_8cc.html" target="_top" xlink:title=" ">
<polygon fill="white" stroke="black" points="509.5,-0.5 509.5,-19.5 597.5,-19.5 597.5,-0.5 509.5,-0.5"/>
<text text-anchor="middle" x="553.5" y="-7.5" font-family="Helvetica,sans-Serif" font-size="10.00">runtime&#45;intl.cc</text>
</a>
</g>
</g>
<!-- Node1&#45;&gt;Node6 -->
<g id="edge5" class="edge">
<title>Node1&#45;&gt;Node6</title>
<path fill="none" stroke="midnightblue" d="M870.69,-57.83C806.9,-49.36 698.43,-34.57 605.5,-20 602.97,-19.6 600.36,-19.18 597.74,-18.75"/>
<polygon fill="midnightblue" stroke="midnightblue" points="870.54,-61.34 880.91,-59.18 871.46,-54.4 870.54,-61.34"/>
</g>
<!-- Node7 -->
<g id="node7" class="node">
<title>Node7</title>
<g id="a_node7"><a xlink:href="runtime-numbers_8cc.html" target="_top" xlink:title=" ">
<polygon fill="white" stroke="black" points="615,-0.5 615,-19.5 730,-19.5 730,-0.5 615,-0.5"/>
<text text-anchor="middle" x="672.5" y="-7.5" font-family="Helvetica,sans-Serif" font-size="10.00">runtime&#45;numbers.cc</text>
</a>
</g>
</g>
<!-- Node1&#45;&gt;Node7 -->
<g id="edge6" class="edge">
<title>Node1&#45;&gt;Node7</title>
<path fill="none" stroke="midnightblue" d="M875.58,-54.35C827.77,-44.14 756.55,-28.94 712.4,-19.52"/>
<polygon fill="midnightblue" stroke="midnightblue" points="874.9,-57.78 885.41,-56.44 876.36,-50.93 874.9,-57.78"/>
</g>
<!-- Node8 -->
<g id="node8" class="node">
<title>Node8</title>
<g id="a_node8"><a xlink:href="runtime-scopes_8cc.html" target="_top" xlink:title=" ">
<polygon fill="white" stroke="black" points="748.5,-0.5 748.5,-19.5 854.5,-19.5 854.5,-0.5 748.5,-0.5"/>
<text text-anchor="middle" x="801.5" y="-7.5" font-family="Helvetica,sans-Serif" font-size="10.00">runtime&#45;scopes.cc</text>
</a>
</g>
</g>
<!-- Node1&#45;&gt;Node8 -->
<g id="edge7" class="edge">
<title>Node1&#45;&gt;Node8</title>
<path fill="none" stroke="midnightblue" d="M896.49,-52.37C873.27,-42.26 841.34,-28.35 821.06,-19.52"/>
<polygon fill="midnightblue" stroke="midnightblue" points="895.29,-55.66 905.85,-56.44 898.08,-49.24 895.29,-55.66"/>
</g>
<!-- Node9 -->
<g id="node9" class="node">
<title>Node9</title>
<g id="a_node9"><a xlink:href="runtime-strings_8cc.html" target="_top" xlink:title=" ">
<polygon fill="white" stroke="black" points="873,-0.5 873,-19.5 978,-19.5 978,-0.5 873,-0.5"/>
<text text-anchor="middle" x="925.5" y="-7.5" font-family="Helvetica,sans-Serif" font-size="10.00">runtime&#45;strings.cc</text>
</a>
</g>
</g>
<!-- Node1&#45;&gt;Node9 -->
<g id="edge8" class="edge">
<title>Node1&#45;&gt;Node9</title>
<path fill="none" stroke="midnightblue" d="M925.5,-45.8C925.5,-36.91 925.5,-26.78 925.5,-19.75"/>
<polygon fill="midnightblue" stroke="midnightblue" points="922,-46.08 925.5,-56.08 929,-46.08 922,-46.08"/>
</g>
<!-- Node10 -->
<g id="node10" class="node">
<title>Node10</title>
<g id="a_node10"><a xlink:href="runtime-trace_8cc.html" target="_top" xlink:title=" ">
<polygon fill="white" stroke="black" points="996,-0.5 996,-19.5 1093,-19.5 1093,-0.5 996,-0.5"/>
<text text-anchor="middle" x="1044.5" y="-7.5" font-family="Helvetica,sans-Serif" font-size="10.00">runtime&#45;trace.cc</text>
</a>
</g>
</g>
<!-- Node1&#45;&gt;Node10 -->
<g id="edge9" class="edge">
<title>Node1&#45;&gt;Node10</title>
<path fill="none" stroke="midnightblue" d="M953.64,-52.23C975.9,-42.13 1006.36,-28.31 1025.73,-19.52"/>
<polygon fill="midnightblue" stroke="midnightblue" points="952.02,-49.12 944.36,-56.44 954.91,-55.5 952.02,-49.12"/>
</g>
<!-- Node11 -->
<g id="node11" class="node">
<title>Node11</title>
<g id="a_node11"><a xlink:href="runtime-typedarray_8cc.html" target="_top" xlink:title=" ">
<polygon fill="white" stroke="black" points="1111.5,-0.5 1111.5,-19.5 1235.5,-19.5 1235.5,-0.5 1111.5,-0.5"/>
<text text-anchor="middle" x="1173.5" y="-7.5" font-family="Helvetica,sans-Serif" font-size="10.00">runtime&#45;typedarray.cc</text>
</a>
</g>
</g>
<!-- Node1&#45;&gt;Node11 -->
<g id="edge10" class="edge">
<title>Node1&#45;&gt;Node11</title>
<path fill="none" stroke="midnightblue" d="M974.73,-54.28C1021.59,-44.08 1091.2,-28.92 1134.39,-19.52"/>
<polygon fill="midnightblue" stroke="midnightblue" points="973.82,-50.9 964.8,-56.44 975.31,-57.74 973.82,-50.9"/>
</g>
<!-- Node12 -->
<g id="node12" class="node">
<title>Node12</title>
<g id="a_node12"><a xlink:href="runtime-utils_8cc.html" target="_top" xlink:title=" ">
<polygon fill="white" stroke="black" points="1254,-0.5 1254,-19.5 1347,-19.5 1347,-0.5 1254,-0.5"/>
<text text-anchor="middle" x="1300.5" y="-7.5" font-family="Helvetica,sans-Serif" font-size="10.00">runtime&#45;utils.cc</text>
</a>
</g>
</g>
<!-- Node1&#45;&gt;Node12 -->
<g id="edge11" class="edge">
<title>Node1&#45;&gt;Node12</title>
<path fill="none" stroke="midnightblue" d="M980.38,-57.58C1043.98,-48.92 1151.9,-33.97 1244.5,-20 1247.52,-19.54 1250.63,-19.07 1253.76,-18.58"/>
<polygon fill="midnightblue" stroke="midnightblue" points="979.62,-54.16 970.18,-58.97 980.56,-61.09 979.62,-54.16"/>
</g>
<!-- Node13 -->
<g id="node13" class="node">
<title>Node13</title>
<g id="a_node13"><a xlink:href="runtime-wasm_8cc.html" target="_top" xlink:title=" ">
<polygon fill="white" stroke="black" points="1365,-0.5 1365,-19.5 1466,-19.5 1466,-0.5 1365,-0.5"/>
<text text-anchor="middle" x="1415.5" y="-7.5" font-family="Helvetica,sans-Serif" font-size="10.00">runtime&#45;wasm.cc</text>
</a>
</g>
</g>
<!-- Node1&#45;&gt;Node13 -->
<g id="edge12" class="edge">
<title>Node1&#45;&gt;Node13</title>
<path fill="none" stroke="midnightblue" d="M980.34,-60.11C1062.32,-52.62 1221.61,-37.32 1356.5,-20 1359.27,-19.64 1362.12,-19.26 1364.99,-18.87"/>
<polygon fill="midnightblue" stroke="midnightblue" points="979.9,-56.64 970.25,-61.03 980.53,-63.61 979.9,-56.64"/>
</g>
<!-- Node14 -->
<g id="node14" class="node">
<title>Node14</title>
<g id="a_node14"><a xlink:href="runtime-weak-refs_8cc.html" target="_top" xlink:title=" ">
<polygon fill="white" stroke="black" points="1484,-0.5 1484,-19.5 1605,-19.5 1605,-0.5 1484,-0.5"/>
<text text-anchor="middle" x="1544.5" y="-7.5" font-family="Helvetica,sans-Serif" font-size="10.00">runtime&#45;weak&#45;refs.cc</text>
</a>
</g>
</g>
<!-- Node1&#45;&gt;Node14 -->
<g id="edge13" class="edge">
<title>Node1&#45;&gt;Node14</title>
<path fill="none" stroke="midnightblue" d="M980.19,-61.4C1079.14,-54.69 1294.46,-39.2 1475.5,-20 1478.26,-19.71 1481.09,-19.39 1483.94,-19.07"/>
<polygon fill="midnightblue" stroke="midnightblue" points="979.87,-57.91 970.13,-62.08 980.34,-64.9 979.87,-57.91"/>
</g>
<!-- Node15 -->
<g id="node15" class="node">
<title>Node15</title>
<g id="a_node15"><a xlink:href="runtime_8cc.html" target="_top" xlink:title=" ">
<polygon fill="white" stroke="black" points="1623.5,-0.5 1623.5,-19.5 1691.5,-19.5 1691.5,-0.5 1623.5,-0.5"/>
<text text-anchor="middle" x="1657.5" y="-7.5" font-family="Helvetica,sans-Serif" font-size="10.00">runtime.cc</text>
</a>
</g>
</g>
<!-- Node1&#45;&gt;Node15 -->
<g id="edge14" class="edge">
<title>Node1&#45;&gt;Node15</title>
<path fill="none" stroke="midnightblue" d="M980.18,-64.05C1097.1,-61.43 1379.88,-52.05 1614.5,-20 1617.37,-19.61 1620.34,-19.13 1623.31,-18.61"/>
<polygon fill="midnightblue" stroke="midnightblue" points="979.97,-60.55 970.05,-64.26 980.12,-67.55 979.97,-60.55"/>
</g>
<!-- Node16 -->
<g id="node16" class="node">
<title>Node16</title>
<g id="a_node16"><a xlink:href="wasm-interpreter-runtime_8cc.html" target="_top" xlink:title=" ">
<polygon fill="white" stroke="black" points="1710,-0.5 1710,-19.5 1867,-19.5 1867,-0.5 1710,-0.5"/>
<text text-anchor="middle" x="1788.5" y="-7.5" font-family="Helvetica,sans-Serif" font-size="10.00">wasm&#45;interpreter&#45;runtime.cc</text>
</a>
</g>
</g>
<!-- Node1&#45;&gt;Node16 -->
<g id="edge15" class="edge">
<title>Node1&#45;&gt;Node16</title>
<path fill="none" stroke="midnightblue" d="M980.33,-62.65C1107.18,-57.02 1430.66,-41.62 1700.5,-20 1703.56,-19.75 1706.68,-19.49 1709.83,-19.22"/>
<polygon fill="midnightblue" stroke="midnightblue" points="979.94,-59.16 970.1,-63.1 980.25,-66.15 979.94,-59.16"/>
</g>
</g>
</svg>
        <g id="navigator" transform="translate(0 0)" fill="#404254">
                <rect fill="#f2f5e9" fill-opacity="0.5" stroke="#606060" stroke-width=".5" x="0" y="0" width="60" height="60"/>
                <use id="zoomplus" xlink:href="#zoomPlus" x="17" y="9" onmousedown="handleZoom(evt,'in')"/>
                <use id="zoomminus" xlink:href="#zoomMin" x="42" y="9" onmousedown="handleZoom(evt,'out')"/>
                <use id="reset" xlink:href="#resetDef" x="30" y="36" onmousedown="handleReset()"/>
                <g id="arrowUp" xlink:href="#dirArrow" transform="translate(30 24)" onmousedown="handlePan(0,-1)">
                  <use xlink:href="#rim" fill="#404040">
                        <set attributeName="fill" to="#808080" begin="arrowUp.mouseover" end="arrowUp.mouseout"/>
                  </use>
                  <path fill="none" stroke="white" stroke-width="1.5" d="M0,-3.0v7 M-2.5,-0.5L0,-3.0L2.5,-0.5"/>
                </g>
                <g id="arrowRight" xlink:href="#dirArrow" transform="rotate(90) translate(36 -43)" onmousedown="handlePan(1,0)">
                  <use xlink:href="#rim" fill="#404040">
                        <set attributeName="fill" to="#808080" begin="arrowRight.mouseover" end="arrowRight.mouseout"/>
                  </use>
                  <path fill="none" stroke="white" stroke-width="1.5" d="M0,-3.0v7 M-2.5,-0.5L0,-3.0L2.5,-0.5"/>
                </g>
                <g id="arrowDown" xlink:href="#dirArrow" transform="rotate(180) translate(-30 -48)" onmousedown="handlePan(0,1)">
                  <use xlink:href="#rim" fill="#404040">
                        <set attributeName="fill" to="#808080" begin="arrowDown.mouseover" end="arrowDown.mouseout"/>
                  </use>
                  <path fill="none" stroke="white" stroke-width="1.5" d="M0,-3.0v7 M-2.5,-0.5L0,-3.0L2.5,-0.5"/>
                </g>
                <g id="arrowLeft" xlink:href="#dirArrow" transform="rotate(270) translate(-36 17)" onmousedown="handlePan(-1,0)">
                  <use xlink:href="#rim" fill="#404040">
                        <set attributeName="fill" to="#808080" begin="arrowLeft.mouseover" end="arrowLeft.mouseout"/>
                  </use>
                  <path fill="none" stroke="white" stroke-width="1.5" d="M0,-3.0v7 M-2.5,-0.5L0,-3.0L2.5,-0.5"/>
                </g>
        </g>
        <svg viewBox="0 0 15 15" width="100%" height="30px" preserveAspectRatio="xMaxYMin meet">
         <g id="arrow_out" transform="scale(0.3 0.3)">
          <a xlink:href="runtime-utils_8h__dep__incl_org.svg" target="_base">
           <rect id="button" ry="5" rx="5" y="6" x="6" height="38" width="38"
                fill="#f2f5e9" fill-opacity="0.5" stroke="#606060" stroke-width="1.0"/>
           <path id="arrow"
             d="M 11.500037,31.436501 C 11.940474,20.09759 22.043105,11.32322 32.158766,21.979434 L 37.068811,17.246167 C 37.068811,17.246167 37.088388,32 37.088388,32 L 22.160133,31.978069 C 22.160133,31.978069 26.997745,27.140456 26.997745,27.140456 C 18.528582,18.264221 13.291696,25.230495 11.500037,31.436501 z"
             style="fill:#404040;"/>
          </a>
         </g>
        </svg>
</svg>
