<?xml version="1.0" encoding="UTF-8" standalone="no"?>
<!DOCTYPE svg PUBLIC "-//W3C//DTD SVG 1.1//EN"
 "http://www.w3.org/Graphics/SVG/1.1/DTD/svg11.dtd">
<!-- Generated by graphviz version 2.43.0 (0)
 -->
<!-- Title: source&#45;text&#45;module&#45;inl.h Pages: 1 -->
<!--zoomable 229 -->
<svg id="main" version="1.1" xmlns="http://www.w3.org/2000/svg" xmlns:xlink="http://www.w3.org/1999/xlink" xml:space="preserve" onload="init(evt)">
<style type="text/css"><![CDATA[
.edge:hover path { stroke: red; }
.edge:hover polygon { stroke: red; fill: red; }
]]></style>
<script type="text/javascript"><![CDATA[
var edges = document.getElementsByTagName('g');
if (edges && edges.length) {
  for (var i=0;i<edges.length;i++) {
    if (edges[i].id.substr(0,4)=='edge') {
      edges[i].setAttribute('class','edge');
    }
  }
}
]]></script>
        <defs>
                <circle id="rim" cx="0" cy="0" r="7"/>
                <circle id="rim2" cx="0" cy="0" r="3.5"/>
                <g id="zoomPlus">
                        <use xlink:href="#rim" fill="#404040">
                                <set attributeName="fill" to="#808080" begin="zoomplus.mouseover" end="zoomplus.mouseout"/>
                        </use>
                        <path d="M-4,0h8M0,-4v8" fill="none" stroke="white" stroke-width="1.5" pointer-events="none"/>
                </g>
                <g id="zoomMin">
                        <use xlink:href="#rim" fill="#404040">
                                <set attributeName="fill" to="#808080" begin="zoomminus.mouseover" end="zoomminus.mouseout"/>
                        </use>
                        <path d="M-4,0h8" fill="none" stroke="white" stroke-width="1.5" pointer-events="none"/>
                </g>
                <g id="dirArrow">
                        <path fill="none" stroke="white" stroke-width="1.5" d="M0,-3.0v7 M-2.5,-0.5L0,-3.0L2.5,-0.5"/>
                </g>
               <g id="resetDef">
                       <use xlink:href="#rim2" fill="#404040">
                               <set attributeName="fill" to="#808080" begin="reset.mouseover" end="reset.mouseout"/>
                       </use>
               </g>
        </defs>

<script type="text/javascript">
var viewWidth = 4372;
var viewHeight = 229;
var sectionId = 'dynsection-1';
</script>
<script xlink:href="svgpan.js"/>
<svg id="graph" class="graph">
<g id="viewport">
<title>source&#45;text&#45;module&#45;inl.h</title>
<polygon fill="white" stroke="transparent" points="-4,4 -4,-225 4367.7,-225 4367.7,4 -4,4"/>
<!-- Node1 -->
<g id="node1" class="node">
<title>Node1</title>
<g id="a_node1"><a xlink:title=" ">
<polygon fill="#bfbfbf" stroke="black" points="1106,-190.5 1106,-220.5 1219,-220.5 1219,-190.5 1106,-190.5"/>
<text text-anchor="start" x="1114" y="-208.5" font-family="Helvetica,sans-Serif" font-size="10.00">source&#45;text&#45;module</text>
<text text-anchor="middle" x="1162.5" y="-197.5" font-family="Helvetica,sans-Serif" font-size="10.00">&#45;inl.h</text>
</a>
</g>
</g>
<!-- Node2 -->
<g id="node2" class="node">
<title>Node2</title>
<g id="a_node2"><a xlink:href="execution_2isolate-inl_8h.html" target="_top" xlink:title=" ">
<polygon fill="white" stroke="red" points="2270.5,-134.5 2270.5,-153.5 2344.5,-153.5 2344.5,-134.5 2270.5,-134.5"/>
<text text-anchor="middle" x="2307.5" y="-141.5" font-family="Helvetica,sans-Serif" font-size="10.00">isolate&#45;inl.h</text>
</a>
</g>
</g>
<!-- Node1&#45;&gt;Node2 -->
<g id="edge1" class="edge">
<title>Node1&#45;&gt;Node2</title>
<path fill="none" stroke="midnightblue" d="M1229.43,-201.02C1443.4,-189.9 2106.44,-155.45 2270.5,-146.92"/>
<polygon fill="midnightblue" stroke="midnightblue" points="1229.09,-197.54 1219.28,-201.55 1229.45,-204.53 1229.09,-197.54"/>
</g>
<!-- Node19 -->
<g id="node19" class="node">
<title>Node19</title>
<g id="a_node19"><a xlink:href="isolate_8cc.html" target="_top" xlink:title=" ">
<polygon fill="white" stroke="black" points="0,-6 0,-25 63,-25 63,-6 0,-6"/>
<text text-anchor="middle" x="31.5" y="-13" font-family="Helvetica,sans-Serif" font-size="10.00">isolate.cc</text>
</a>
</g>
</g>
<!-- Node1&#45;&gt;Node19 -->
<g id="edge65" class="edge">
<title>Node1&#45;&gt;Node19</title>
<path fill="none" stroke="midnightblue" d="M1095.46,-201.35C872.86,-190.42 167.5,-151.84 81.5,-98 54.06,-80.82 39.41,-42.53 33.99,-25.25"/>
<polygon fill="midnightblue" stroke="midnightblue" points="1095.53,-204.86 1105.69,-201.85 1095.87,-197.87 1095.53,-204.86"/>
</g>
<!-- Node3 -->
<g id="node3" class="node">
<title>Node3</title>
<g id="a_node3"><a xlink:href="api-natives_8cc.html" target="_top" xlink:title=" ">
<polygon fill="white" stroke="black" points="4241,-73 4241,-92 4326,-92 4326,-73 4241,-73"/>
<text text-anchor="middle" x="4283.5" y="-80" font-family="Helvetica,sans-Serif" font-size="10.00">api&#45;natives.cc</text>
</a>
</g>
</g>
<!-- Node2&#45;&gt;Node3 -->
<g id="edge2" class="edge">
<title>Node2&#45;&gt;Node3</title>
<path fill="none" stroke="midnightblue" d="M2354.75,-142.61C2632.01,-140.24 4041.9,-126.84 4232.5,-98 4241.06,-96.71 4250.2,-94.41 4258.36,-92.02"/>
<polygon fill="midnightblue" stroke="midnightblue" points="2354.59,-139.11 2344.62,-142.7 2354.65,-146.11 2354.59,-139.11"/>
</g>
<!-- Node4 -->
<g id="node4" class="node">
<title>Node4</title>
<g id="a_node4"><a xlink:href="api_8cc.html" target="_top" xlink:title=" ">
<polygon fill="white" stroke="black" points="81,-6 81,-25 126,-25 126,-6 81,-6"/>
<text text-anchor="middle" x="103.5" y="-13" font-family="Helvetica,sans-Serif" font-size="10.00">api.cc</text>
</a>
</g>
</g>
<!-- Node2&#45;&gt;Node4 -->
<g id="edge3" class="edge">
<title>Node2&#45;&gt;Node4</title>
<path fill="none" stroke="midnightblue" d="M2260.12,-142.98C1955.76,-142.75 285.19,-139.58 186.5,-98 149.84,-82.55 120.45,-42.62 108.85,-25.03"/>
<polygon fill="midnightblue" stroke="midnightblue" points="2260.36,-146.48 2270.36,-142.99 2260.36,-139.48 2260.36,-146.48"/>
</g>
<!-- Node5 -->
<g id="node5" class="node">
<title>Node5</title>
<g id="a_node5"><a xlink:href="accessors_8cc.html" target="_top" xlink:title=" ">
<polygon fill="white" stroke="black" points="410.5,-73 410.5,-92 488.5,-92 488.5,-73 410.5,-73"/>
<text text-anchor="middle" x="449.5" y="-80" font-family="Helvetica,sans-Serif" font-size="10.00">accessors.cc</text>
</a>
</g>
</g>
<!-- Node2&#45;&gt;Node5 -->
<g id="edge4" class="edge">
<title>Node2&#45;&gt;Node5</title>
<path fill="none" stroke="midnightblue" d="M2260.13,-142.58C1992.53,-140.12 675.81,-126.61 497.5,-98 489.42,-96.7 480.8,-94.4 473.13,-92.01"/>
<polygon fill="midnightblue" stroke="midnightblue" points="2260.25,-146.08 2270.28,-142.67 2260.32,-139.08 2260.25,-146.08"/>
</g>
<!-- Node6 -->
<g id="node6" class="node">
<title>Node6</title>
<g id="a_node6"><a xlink:href="builtins-error_8cc.html" target="_top" xlink:title=" ">
<polygon fill="white" stroke="black" points="506.5,-73 506.5,-92 598.5,-92 598.5,-73 506.5,-73"/>
<text text-anchor="middle" x="552.5" y="-80" font-family="Helvetica,sans-Serif" font-size="10.00">builtins&#45;error.cc</text>
</a>
</g>
</g>
<!-- Node2&#45;&gt;Node6 -->
<g id="edge5" class="edge">
<title>Node2&#45;&gt;Node6</title>
<path fill="none" stroke="midnightblue" d="M2260.16,-143.22C2020.49,-144.13 939.4,-145.49 607.5,-98 598.41,-96.7 588.66,-94.43 579.94,-92.07"/>
<polygon fill="midnightblue" stroke="midnightblue" points="2260.3,-146.72 2270.28,-143.18 2260.27,-139.72 2260.3,-146.72"/>
</g>
<!-- Node7 -->
<g id="node7" class="node">
<title>Node7</title>
<g id="a_node7"><a xlink:href="compiler_8cc.html" target="_top" xlink:title=" ">
<polygon fill="white" stroke="black" points="144.5,-6 144.5,-25 216.5,-25 216.5,-6 144.5,-6"/>
<text text-anchor="middle" x="180.5" y="-13" font-family="Helvetica,sans-Serif" font-size="10.00">compiler.cc</text>
</a>
</g>
</g>
<!-- Node2&#45;&gt;Node7 -->
<g id="edge6" class="edge">
<title>Node2&#45;&gt;Node7</title>
<path fill="none" stroke="midnightblue" d="M2259.81,-142.71C1951.79,-140.74 254.76,-128.52 211.5,-98 187.26,-80.9 181.96,-42.21 180.81,-25.01"/>
<polygon fill="midnightblue" stroke="midnightblue" points="2260.15,-146.21 2270.17,-142.77 2260.2,-139.21 2260.15,-146.21"/>
</g>
<!-- Node8 -->
<g id="node8" class="node">
<title>Node8</title>
<g id="a_node8"><a xlink:href="macro-assembler-base_8cc.html" target="_top" xlink:title=" ">
<polygon fill="white" stroke="black" points="617,-73 617,-92 760,-92 760,-73 617,-73"/>
<text text-anchor="middle" x="688.5" y="-80" font-family="Helvetica,sans-Serif" font-size="10.00">macro&#45;assembler&#45;base.cc</text>
</a>
</g>
</g>
<!-- Node2&#45;&gt;Node8 -->
<g id="edge7" class="edge">
<title>Node2&#45;&gt;Node8</title>
<path fill="none" stroke="midnightblue" d="M2260.07,-142.57C2034.44,-140.39 1068.31,-129.37 768.5,-98 755.58,-96.65 741.62,-94.4 729.03,-92.06"/>
<polygon fill="midnightblue" stroke="midnightblue" points="2260.21,-146.07 2270.25,-142.67 2260.28,-139.07 2260.21,-146.07"/>
</g>
<!-- Node9 -->
<g id="node9" class="node">
<title>Node9</title>
<g id="a_node9"><a xlink:href="pending-optimization-table_8cc.html" target="_top" xlink:title=" ">
<polygon fill="white" stroke="black" points="778,-67.5 778,-97.5 899,-97.5 899,-67.5 778,-67.5"/>
<text text-anchor="start" x="786" y="-85.5" font-family="Helvetica,sans-Serif" font-size="10.00">pending&#45;optimization</text>
<text text-anchor="middle" x="838.5" y="-74.5" font-family="Helvetica,sans-Serif" font-size="10.00">&#45;table.cc</text>
</a>
</g>
</g>
<!-- Node2&#45;&gt;Node9 -->
<g id="edge8" class="edge">
<title>Node2&#45;&gt;Node9</title>
<path fill="none" stroke="midnightblue" d="M2259.97,-142.57C2046.94,-140.47 1178.73,-130.09 908.5,-98 905.42,-97.63 902.27,-97.2 899.1,-96.72"/>
<polygon fill="midnightblue" stroke="midnightblue" points="2260.16,-146.07 2270.19,-142.67 2260.22,-139.07 2260.16,-146.07"/>
</g>
<!-- Node10 -->
<g id="node10" class="node">
<title>Node10</title>
<g id="a_node10"><a xlink:href="assert-scope_8cc.html" target="_top" xlink:title=" ">
<polygon fill="white" stroke="black" points="917.5,-73 917.5,-92 1009.5,-92 1009.5,-73 917.5,-73"/>
<text text-anchor="middle" x="963.5" y="-80" font-family="Helvetica,sans-Serif" font-size="10.00">assert&#45;scope.cc</text>
</a>
</g>
</g>
<!-- Node2&#45;&gt;Node10 -->
<g id="edge9" class="edge">
<title>Node2&#45;&gt;Node10</title>
<path fill="none" stroke="midnightblue" d="M2260.1,-142.76C2057.72,-141.51 1265.11,-134.35 1018.5,-98 1009.41,-96.66 999.67,-94.38 990.95,-92.02"/>
<polygon fill="midnightblue" stroke="midnightblue" points="2260.37,-146.26 2270.39,-142.82 2260.42,-139.26 2260.37,-146.26"/>
</g>
<!-- Node11 -->
<g id="node11" class="node">
<title>Node11</title>
<g id="a_node11"><a xlink:href="js-inlining_8cc.html" target="_top" xlink:title=" ">
<polygon fill="white" stroke="black" points="1027.5,-73 1027.5,-92 1105.5,-92 1105.5,-73 1027.5,-73"/>
<text text-anchor="middle" x="1066.5" y="-80" font-family="Helvetica,sans-Serif" font-size="10.00">js&#45;inlining.cc</text>
</a>
</g>
</g>
<!-- Node2&#45;&gt;Node11 -->
<g id="edge10" class="edge">
<title>Node2&#45;&gt;Node11</title>
<path fill="none" stroke="midnightblue" d="M2260.16,-142.83C2067.35,-141.87 1340.71,-135.79 1114.5,-98 1106.6,-96.68 1098.18,-94.44 1090.63,-92.1"/>
<polygon fill="midnightblue" stroke="midnightblue" points="2260.24,-146.33 2270.26,-142.87 2260.27,-139.33 2260.24,-146.33"/>
</g>
<!-- Node12 -->
<g id="node12" class="node">
<title>Node12</title>
<g id="a_node12"><a xlink:href="revectorizer_8cc.html" target="_top" xlink:title=" ">
<polygon fill="white" stroke="black" points="1123.5,-73 1123.5,-92 1211.5,-92 1211.5,-73 1123.5,-73"/>
<text text-anchor="middle" x="1167.5" y="-80" font-family="Helvetica,sans-Serif" font-size="10.00">revectorizer.cc</text>
</a>
</g>
</g>
<!-- Node2&#45;&gt;Node12 -->
<g id="edge11" class="edge">
<title>Node2&#45;&gt;Node12</title>
<path fill="none" stroke="midnightblue" d="M2260.28,-142.46C2078.71,-140.17 1425.44,-129.86 1220.5,-98 1211.83,-96.65 1202.54,-94.4 1194.21,-92.07"/>
<polygon fill="midnightblue" stroke="midnightblue" points="2260.27,-145.96 2270.31,-142.59 2260.36,-138.96 2260.27,-145.96"/>
</g>
<!-- Node13 -->
<g id="node13" class="node">
<title>Node13</title>
<g id="a_node13"><a xlink:href="wasm-revec-phase_8cc.html" target="_top" xlink:title=" ">
<polygon fill="white" stroke="black" points="1230,-73 1230,-92 1353,-92 1353,-73 1230,-73"/>
<text text-anchor="middle" x="1291.5" y="-80" font-family="Helvetica,sans-Serif" font-size="10.00">wasm&#45;revec&#45;phase.cc</text>
</a>
</g>
</g>
<!-- Node2&#45;&gt;Node13 -->
<g id="edge12" class="edge">
<title>Node2&#45;&gt;Node13</title>
<path fill="none" stroke="midnightblue" d="M2260.08,-143.36C2121.29,-143.86 1704.1,-141.36 1361.5,-98 1350.3,-96.58 1338.21,-94.34 1327.29,-92.04"/>
<polygon fill="midnightblue" stroke="midnightblue" points="2260.37,-146.86 2270.36,-143.32 2260.34,-139.86 2260.37,-146.86"/>
</g>
<!-- Node14 -->
<g id="node14" class="node">
<title>Node14</title>
<g id="a_node14"><a xlink:href="typed-optimization_8cc.html" target="_top" xlink:title=" ">
<polygon fill="white" stroke="black" points="1371,-73 1371,-92 1494,-92 1494,-73 1371,-73"/>
<text text-anchor="middle" x="1432.5" y="-80" font-family="Helvetica,sans-Serif" font-size="10.00">typed&#45;optimization.cc</text>
</a>
</g>
</g>
<!-- Node2&#45;&gt;Node14 -->
<g id="edge13" class="edge">
<title>Node2&#45;&gt;Node14</title>
<path fill="none" stroke="midnightblue" d="M2260.15,-142.75C2135.66,-141.57 1789.11,-134.96 1503.5,-98 1492.27,-96.55 1480.16,-94.32 1469.18,-92.05"/>
<polygon fill="midnightblue" stroke="midnightblue" points="2260.43,-146.25 2270.46,-142.84 2260.49,-139.25 2260.43,-146.25"/>
</g>
<!-- Node15 -->
<g id="node15" class="node">
<title>Node15</title>
<g id="a_node15"><a xlink:href="async-hooks-wrapper_8cc.html" target="_top" xlink:title=" ">
<polygon fill="white" stroke="black" points="1512.5,-73 1512.5,-92 1646.5,-92 1646.5,-73 1512.5,-73"/>
<text text-anchor="middle" x="1579.5" y="-80" font-family="Helvetica,sans-Serif" font-size="10.00">async&#45;hooks&#45;wrapper.cc</text>
</a>
</g>
</g>
<!-- Node2&#45;&gt;Node15 -->
<g id="edge14" class="edge">
<title>Node2&#45;&gt;Node15</title>
<path fill="none" stroke="midnightblue" d="M2260,-141.67C2152.15,-138.22 1880.65,-127.14 1655.5,-98 1643.64,-96.47 1630.85,-94.25 1619.19,-92"/>
<polygon fill="midnightblue" stroke="midnightblue" points="2260.12,-145.17 2270.22,-141.99 2260.34,-138.18 2260.12,-145.17"/>
</g>
<!-- Node16 -->
<g id="node16" class="node">
<title>Node16</title>
<g id="a_node16"><a xlink:href="debug-evaluate_8cc.html" target="_top" xlink:title=" ">
<polygon fill="white" stroke="black" points="1665,-73 1665,-92 1772,-92 1772,-73 1665,-73"/>
<text text-anchor="middle" x="1718.5" y="-80" font-family="Helvetica,sans-Serif" font-size="10.00">debug&#45;evaluate.cc</text>
</a>
</g>
</g>
<!-- Node2&#45;&gt;Node16 -->
<g id="edge15" class="edge">
<title>Node2&#45;&gt;Node16</title>
<path fill="none" stroke="midnightblue" d="M2260.14,-141.19C2167.65,-137.15 1956.74,-125.52 1781.5,-98 1771.74,-96.47 1761.25,-94.28 1751.68,-92.06"/>
<polygon fill="midnightblue" stroke="midnightblue" points="2260.16,-144.69 2270.3,-141.62 2260.45,-137.7 2260.16,-144.69"/>
</g>
<!-- Node17 -->
<g id="node17" class="node">
<title>Node17</title>
<g id="a_node17"><a xlink:href="debug_8cc.html" target="_top" xlink:title=" ">
<polygon fill="white" stroke="black" points="1790.5,-73 1790.5,-92 1850.5,-92 1850.5,-73 1790.5,-73"/>
<text text-anchor="middle" x="1820.5" y="-80" font-family="Helvetica,sans-Serif" font-size="10.00">debug.cc</text>
</a>
</g>
</g>
<!-- Node2&#45;&gt;Node17 -->
<g id="edge16" class="edge">
<title>Node2&#45;&gt;Node17</title>
<path fill="none" stroke="midnightblue" d="M2260.34,-142.21C2177.98,-139.96 2002.99,-131.3 1859.5,-98 1853.17,-96.53 1846.47,-94.3 1840.44,-92.03"/>
<polygon fill="midnightblue" stroke="midnightblue" points="2260.31,-145.71 2270.4,-142.46 2260.49,-138.71 2260.31,-145.71"/>
</g>
<!-- Node18 -->
<g id="node18" class="node">
<title>Node18</title>
<g id="a_node18"><a xlink:href="execution_8cc.html" target="_top" xlink:title=" ">
<polygon fill="white" stroke="black" points="235,-6 235,-25 312,-25 312,-6 235,-6"/>
<text text-anchor="middle" x="273.5" y="-13" font-family="Helvetica,sans-Serif" font-size="10.00">execution.cc</text>
</a>
</g>
</g>
<!-- Node2&#45;&gt;Node18 -->
<g id="edge17" class="edge">
<title>Node2&#45;&gt;Node18</title>
<path fill="none" stroke="midnightblue" d="M2259.88,-142.89C1952.36,-142.04 258.35,-135.66 221.5,-98 199.08,-75.09 239.06,-41 260.81,-25.16"/>
<polygon fill="midnightblue" stroke="midnightblue" points="2260.22,-146.39 2270.23,-142.91 2260.24,-139.39 2260.22,-146.39"/>
</g>
<!-- Node2&#45;&gt;Node19 -->
<g id="edge18" class="edge">
<title>Node2&#45;&gt;Node19</title>
<path fill="none" stroke="midnightblue" d="M2260.11,-142.84C1952.05,-141.72 243.04,-133.88 139.5,-98 95.78,-82.85 55.39,-42.75 39.1,-25.08"/>
<polygon fill="midnightblue" stroke="midnightblue" points="2260.46,-146.34 2270.48,-142.88 2260.49,-139.34 2260.46,-146.34"/>
</g>
<!-- Node20 -->
<g id="node20" class="node">
<title>Node20</title>
<g id="a_node20"><a xlink:href="messages_8cc.html" target="_top" xlink:title=" ">
<polygon fill="white" stroke="black" points="1868.5,-73 1868.5,-92 1948.5,-92 1948.5,-73 1868.5,-73"/>
<text text-anchor="middle" x="1908.5" y="-80" font-family="Helvetica,sans-Serif" font-size="10.00">messages.cc</text>
</a>
</g>
</g>
<!-- Node2&#45;&gt;Node20 -->
<g id="edge19" class="edge">
<title>Node2&#45;&gt;Node20</title>
<path fill="none" stroke="midnightblue" d="M2260.06,-139.32C2192.38,-133.53 2064.48,-120.55 1957.5,-98 1949.95,-96.41 1941.87,-94.22 1934.49,-92.03"/>
<polygon fill="midnightblue" stroke="midnightblue" points="2260.13,-142.84 2270.39,-140.19 2260.72,-135.87 2260.13,-142.84"/>
</g>
<!-- Node21 -->
<g id="node21" class="node">
<title>Node21</title>
<g id="a_node21"><a xlink:href="protectors_8cc.html" target="_top" xlink:title=" ">
<polygon fill="white" stroke="black" points="1966.5,-73 1966.5,-92 2046.5,-92 2046.5,-73 1966.5,-73"/>
<text text-anchor="middle" x="2006.5" y="-80" font-family="Helvetica,sans-Serif" font-size="10.00">protectors.cc</text>
</a>
</g>
</g>
<!-- Node2&#45;&gt;Node21 -->
<g id="edge20" class="edge">
<title>Node2&#45;&gt;Node21</title>
<path fill="none" stroke="midnightblue" d="M2260.04,-136.13C2209.14,-128.4 2126.11,-114.7 2055.5,-98 2048.25,-96.29 2040.48,-94.13 2033.31,-92.02"/>
<polygon fill="midnightblue" stroke="midnightblue" points="2259.68,-139.62 2270.09,-137.65 2260.72,-132.7 2259.68,-139.62"/>
</g>
<!-- Node22 -->
<g id="node22" class="node">
<title>Node22</title>
<g id="a_node22"><a xlink:href="v8threads_8cc.html" target="_top" xlink:title=" ">
<polygon fill="white" stroke="black" points="2065,-73 2065,-92 2144,-92 2144,-73 2065,-73"/>
<text text-anchor="middle" x="2104.5" y="-80" font-family="Helvetica,sans-Serif" font-size="10.00">v8threads.cc</text>
</a>
</g>
</g>
<!-- Node2&#45;&gt;Node22 -->
<g id="edge21" class="edge">
<title>Node2&#45;&gt;Node22</title>
<path fill="none" stroke="midnightblue" d="M2268.08,-131.68C2236.74,-122.65 2191.77,-109.63 2152.5,-98 2146.07,-96.1 2139.17,-94.03 2132.66,-92.06"/>
<polygon fill="midnightblue" stroke="midnightblue" points="2267.18,-135.07 2277.76,-134.47 2269.12,-128.34 2267.18,-135.07"/>
</g>
<!-- Node23 -->
<g id="node23" class="node">
<title>Node23</title>
<g id="a_node23"><a xlink:href="vm-state-inl_8h.html" target="_top" xlink:title=" ">
<polygon fill="white" stroke="red" points="230.5,-73 230.5,-92 316.5,-92 316.5,-73 230.5,-73"/>
<text text-anchor="middle" x="273.5" y="-80" font-family="Helvetica,sans-Serif" font-size="10.00">vm&#45;state&#45;inl.h</text>
</a>
</g>
</g>
<!-- Node2&#45;&gt;Node23 -->
<g id="edge22" class="edge">
<title>Node2&#45;&gt;Node23</title>
<path fill="none" stroke="midnightblue" d="M2259.9,-142.56C1977.41,-139.88 526.86,-124.86 330.5,-98 320.99,-96.7 310.78,-94.4 301.66,-92.01"/>
<polygon fill="midnightblue" stroke="midnightblue" points="2260.18,-146.06 2270.21,-142.66 2260.24,-139.06 2260.18,-146.06"/>
</g>
<!-- Node142 -->
<g id="node24" class="node">
<title>Node142</title>
<g id="a_node24"><a xlink:href="incremental-marking-job_8cc.html" target="_top" xlink:title=" ">
<polygon fill="white" stroke="black" points="330,-0.5 330,-30.5 449,-30.5 449,-0.5 330,-0.5"/>
<text text-anchor="start" x="338" y="-18.5" font-family="Helvetica,sans-Serif" font-size="10.00">incremental&#45;marking</text>
<text text-anchor="middle" x="389.5" y="-7.5" font-family="Helvetica,sans-Serif" font-size="10.00">&#45;job.cc</text>
</a>
</g>
</g>
<!-- Node2&#45;&gt;Node142 -->
<g id="edge43" class="edge">
<title>Node2&#45;&gt;Node142</title>
<path fill="none" stroke="midnightblue" d="M2260.11,-142.79C1968.09,-141.37 424.41,-132.29 390.5,-98 373.09,-80.39 379.01,-48.77 384.51,-30.53"/>
<polygon fill="midnightblue" stroke="midnightblue" points="2260.34,-146.29 2270.36,-142.84 2260.37,-139.29 2260.34,-146.29"/>
</g>
<!-- Node96 -->
<g id="node25" class="node">
<title>Node96</title>
<g id="a_node25"><a xlink:href="mark-compact_8cc.html" target="_top" xlink:title=" ">
<polygon fill="white" stroke="black" points="467,-6 467,-25 568,-25 568,-6 467,-6"/>
<text text-anchor="middle" x="517.5" y="-13" font-family="Helvetica,sans-Serif" font-size="10.00">mark&#45;compact.cc</text>
</a>
</g>
</g>
<!-- Node2&#45;&gt;Node96 -->
<g id="edge44" class="edge">
<title>Node2&#45;&gt;Node96</title>
<path fill="none" stroke="midnightblue" d="M2259.91,-142.79C1968.36,-141.37 434.98,-132.28 401.5,-98 370.29,-66.04 441.64,-38.43 485.82,-25.07"/>
<polygon fill="midnightblue" stroke="midnightblue" points="2260.13,-146.29 2270.14,-142.84 2260.16,-139.29 2260.13,-146.29"/>
</g>
<!-- Node144 -->
<g id="node26" class="node">
<title>Node144</title>
<g id="a_node26"><a xlink:href="minor-gc-job_8cc.html" target="_top" xlink:title=" ">
<polygon fill="white" stroke="black" points="1082.5,-6 1082.5,-25 1174.5,-25 1174.5,-6 1082.5,-6"/>
<text text-anchor="middle" x="1128.5" y="-13" font-family="Helvetica,sans-Serif" font-size="10.00">minor&#45;gc&#45;job.cc</text>
</a>
</g>
</g>
<!-- Node2&#45;&gt;Node144 -->
<g id="edge46" class="edge">
<title>Node2&#45;&gt;Node144</title>
<path fill="none" stroke="midnightblue" d="M2354.78,-140.36C2445.92,-134.79 2638.74,-120.45 2658.5,-98 2667.6,-87.66 2668.08,-76.9 2658.5,-67 2632.04,-39.65 1427.32,-20.8 1174.67,-17.15"/>
<polygon fill="midnightblue" stroke="midnightblue" points="2354.48,-136.87 2344.71,-140.97 2354.9,-143.86 2354.48,-136.87"/>
</g>
<!-- Node102 -->
<g id="node27" class="node">
<title>Node102</title>
<g id="a_node27"><a xlink:href="sweeper_8cc.html" target="_top" xlink:title=" ">
<polygon fill="white" stroke="black" points="2184,-6 2184,-25 2255,-25 2255,-6 2184,-6"/>
<text text-anchor="middle" x="2219.5" y="-13" font-family="Helvetica,sans-Serif" font-size="10.00">sweeper.cc</text>
</a>
</g>
</g>
<!-- Node2&#45;&gt;Node102 -->
<g id="edge48" class="edge">
<title>Node2&#45;&gt;Node102</title>
<path fill="none" stroke="midnightblue" d="M2354.96,-140.91C2452.77,-136.11 2669.47,-122.77 2691.5,-98 2700.66,-87.71 2700.71,-77.25 2691.5,-67 2662.41,-34.63 2359.92,-21.29 2255.06,-17.62"/>
<polygon fill="midnightblue" stroke="midnightblue" points="2354.58,-137.42 2344.76,-141.4 2354.92,-144.41 2354.58,-137.42"/>
</g>
<!-- Node149 -->
<g id="node28" class="node">
<title>Node149</title>
<g id="a_node28"><a xlink:href="fuzzilli_8cc.html" target="_top" xlink:title=" ">
<polygon fill="white" stroke="black" points="2161.5,-73 2161.5,-92 2223.5,-92 2223.5,-73 2161.5,-73"/>
<text text-anchor="middle" x="2192.5" y="-80" font-family="Helvetica,sans-Serif" font-size="10.00">fuzzilli.cc</text>
</a>
</g>
</g>
<!-- Node2&#45;&gt;Node149 -->
<g id="edge31" class="edge">
<title>Node2&#45;&gt;Node149</title>
<path fill="none" stroke="midnightblue" d="M2282.12,-129.87C2259.83,-118.33 2228.06,-101.9 2208.95,-92.01"/>
<polygon fill="midnightblue" stroke="midnightblue" points="2280.53,-132.99 2291.02,-134.48 2283.75,-126.77 2280.53,-132.99"/>
</g>
<!-- Node150 -->
<g id="node29" class="node">
<title>Node150</title>
<g id="a_node29"><a xlink:href="array-buffer-sweeper_8cc.html" target="_top" xlink:title=" ">
<polygon fill="white" stroke="black" points="2241.5,-73 2241.5,-92 2373.5,-92 2373.5,-73 2241.5,-73"/>
<text text-anchor="middle" x="2307.5" y="-80" font-family="Helvetica,sans-Serif" font-size="10.00">array&#45;buffer&#45;sweeper.cc</text>
</a>
</g>
</g>
<!-- Node2&#45;&gt;Node150 -->
<g id="edge32" class="edge">
<title>Node2&#45;&gt;Node150</title>
<path fill="none" stroke="midnightblue" d="M2307.5,-124.32C2307.5,-113.5 2307.5,-100.4 2307.5,-92.01"/>
<polygon fill="midnightblue" stroke="midnightblue" points="2304,-124.48 2307.5,-134.48 2311,-124.48 2304,-124.48"/>
</g>
<!-- Node151 -->
<g id="node30" class="node">
<title>Node151</title>
<g id="a_node30"><a xlink:href="collection-barrier_8cc.html" target="_top" xlink:title=" ">
<polygon fill="white" stroke="black" points="2392,-73 2392,-92 2505,-92 2505,-73 2392,-73"/>
<text text-anchor="middle" x="2448.5" y="-80" font-family="Helvetica,sans-Serif" font-size="10.00">collection&#45;barrier.cc</text>
</a>
</g>
</g>
<!-- Node2&#45;&gt;Node151 -->
<g id="edge33" class="edge">
<title>Node2&#45;&gt;Node151</title>
<path fill="none" stroke="midnightblue" d="M2337.17,-130.48C2364.55,-118.92 2404.48,-102.08 2428.34,-92.01"/>
<polygon fill="midnightblue" stroke="midnightblue" points="2335.55,-127.36 2327.7,-134.48 2338.28,-133.81 2335.55,-127.36"/>
</g>
<!-- Node92 -->
<g id="node31" class="node">
<title>Node92</title>
<g id="a_node31"><a xlink:href="concurrent-marking_8cc.html" target="_top" xlink:title=" ">
<polygon fill="white" stroke="black" points="2523.5,-73 2523.5,-92 2649.5,-92 2649.5,-73 2523.5,-73"/>
<text text-anchor="middle" x="2586.5" y="-80" font-family="Helvetica,sans-Serif" font-size="10.00">concurrent&#45;marking.cc</text>
</a>
</g>
</g>
<!-- Node2&#45;&gt;Node92 -->
<g id="edge34" class="edge">
<title>Node2&#45;&gt;Node92</title>
<path fill="none" stroke="midnightblue" d="M2354.54,-132.97C2408.44,-121.47 2495.87,-102.83 2546.59,-92.01"/>
<polygon fill="midnightblue" stroke="midnightblue" points="2353.6,-129.59 2344.55,-135.1 2355.06,-136.44 2353.6,-129.59"/>
</g>
<!-- Node152 -->
<g id="node32" class="node">
<title>Node152</title>
<g id="a_node32"><a xlink:href="conservative-stack-visitor-inl_8h.html" target="_top" xlink:title=" ">
<polygon fill="white" stroke="red" points="2837.5,-67.5 2837.5,-97.5 2947.5,-97.5 2947.5,-67.5 2837.5,-67.5"/>
<text text-anchor="start" x="2845.5" y="-85.5" font-family="Helvetica,sans-Serif" font-size="10.00">conservative&#45;stack</text>
<text text-anchor="middle" x="2892.5" y="-74.5" font-family="Helvetica,sans-Serif" font-size="10.00">&#45;visitor&#45;inl.h</text>
</a>
</g>
</g>
<!-- Node2&#45;&gt;Node152 -->
<g id="edge35" class="edge">
<title>Node2&#45;&gt;Node152</title>
<path fill="none" stroke="midnightblue" d="M2354.65,-141.03C2446.23,-136.72 2654.38,-124.68 2827.5,-98 2830.7,-97.51 2833.98,-96.95 2837.28,-96.34"/>
<polygon fill="midnightblue" stroke="midnightblue" points="2354.41,-137.53 2344.58,-141.49 2354.74,-144.52 2354.41,-137.53"/>
</g>
<!-- Node101 -->
<g id="node33" class="node">
<title>Node101</title>
<g id="a_node33"><a xlink:href="scavenger_8cc.html" target="_top" xlink:title=" ">
<polygon fill="white" stroke="black" points="2852.5,-6 2852.5,-25 2932.5,-25 2932.5,-6 2852.5,-6"/>
<text text-anchor="middle" x="2892.5" y="-13" font-family="Helvetica,sans-Serif" font-size="10.00">scavenger.cc</text>
</a>
</g>
</g>
<!-- Node2&#45;&gt;Node101 -->
<g id="edge47" class="edge">
<title>Node2&#45;&gt;Node101</title>
<path fill="none" stroke="midnightblue" d="M2354.92,-143.35C2497.6,-143.9 2915.67,-141.76 2956.5,-98 2979.7,-73.14 2933.76,-40.56 2908.12,-25.22"/>
<polygon fill="midnightblue" stroke="midnightblue" points="2354.75,-139.85 2344.73,-143.3 2354.72,-146.85 2354.75,-139.85"/>
</g>
<!-- Node153 -->
<g id="node34" class="node">
<title>Node153</title>
<g id="a_node34"><a xlink:href="cpp-heap_8cc.html" target="_top" xlink:title=" ">
<polygon fill="white" stroke="black" points="2744,-73 2744,-92 2819,-92 2819,-73 2744,-73"/>
<text text-anchor="middle" x="2781.5" y="-80" font-family="Helvetica,sans-Serif" font-size="10.00">cpp&#45;heap.cc</text>
</a>
</g>
</g>
<!-- Node2&#45;&gt;Node153 -->
<g id="edge37" class="edge">
<title>Node2&#45;&gt;Node153</title>
<path fill="none" stroke="midnightblue" d="M2354.83,-140.52C2433.29,-135.83 2594.97,-123.75 2729.5,-98 2737.6,-96.45 2746.28,-94.25 2754.18,-92.03"/>
<polygon fill="midnightblue" stroke="midnightblue" points="2354.56,-137.03 2344.78,-141.1 2354.97,-144.01 2354.56,-137.03"/>
</g>
<!-- Node154 -->
<g id="node35" class="node">
<title>Node154</title>
<g id="a_node35"><a xlink:href="factory-inl_8h.html" target="_top" xlink:title=" ">
<polygon fill="white" stroke="red" points="3041.5,-73 3041.5,-92 3117.5,-92 3117.5,-73 3041.5,-73"/>
<text text-anchor="middle" x="3079.5" y="-80" font-family="Helvetica,sans-Serif" font-size="10.00">factory&#45;inl.h</text>
</a>
</g>
</g>
<!-- Node2&#45;&gt;Node154 -->
<g id="edge38" class="edge">
<title>Node2&#45;&gt;Node154</title>
<path fill="none" stroke="midnightblue" d="M2354.8,-143.45C2470.48,-143.82 2776.6,-140.34 3027.5,-98 3035.91,-96.58 3044.91,-94.34 3053.02,-92.04"/>
<polygon fill="midnightblue" stroke="midnightblue" points="2354.54,-139.95 2344.53,-143.41 2354.51,-146.95 2354.54,-139.95"/>
</g>
<!-- Node60 -->
<g id="node36" class="node">
<title>Node60</title>
<g id="a_node36"><a xlink:href="memory-measurement_8cc.html" target="_top" xlink:title=" ">
<polygon fill="white" stroke="black" points="2952,-6 2952,-25 3095,-25 3095,-6 2952,-6"/>
<text text-anchor="middle" x="3023.5" y="-13" font-family="Helvetica,sans-Serif" font-size="10.00">memory&#45;measurement.cc</text>
</a>
</g>
</g>
<!-- Node2&#45;&gt;Node60 -->
<g id="edge45" class="edge">
<title>Node2&#45;&gt;Node60</title>
<path fill="none" stroke="midnightblue" d="M2354.8,-142.32C2498.28,-139.9 2921.96,-130.1 2974.5,-98 3002.11,-81.13 3016.17,-42.32 3021.24,-25.05"/>
<polygon fill="midnightblue" stroke="midnightblue" points="2354.51,-138.82 2344.57,-142.49 2354.62,-145.82 2354.51,-138.82"/>
</g>
<!-- Node30 -->
<g id="node37" class="node">
<title>Node30</title>
<g id="a_node37"><a xlink:href="objects_8cc.html" target="_top" xlink:title=" ">
<polygon fill="white" stroke="black" points="3113,-6 3113,-25 3178,-25 3178,-6 3113,-6"/>
<text text-anchor="middle" x="3145.5" y="-13" font-family="Helvetica,sans-Serif" font-size="10.00">objects.cc</text>
</a>
</g>
</g>
<!-- Node2&#45;&gt;Node30 -->
<g id="edge64" class="edge">
<title>Node2&#45;&gt;Node30</title>
<path fill="none" stroke="midnightblue" d="M2354.75,-141.96C2524.75,-138.01 3096.8,-122.93 3126.5,-98 3148.2,-79.79 3147.87,-42.03 3146.47,-25.07"/>
<polygon fill="midnightblue" stroke="midnightblue" points="2354.52,-138.46 2344.61,-142.19 2354.69,-145.46 2354.52,-138.46"/>
</g>
<!-- Node80 -->
<g id="node38" class="node">
<title>Node80</title>
<g id="a_node38"><a xlink:href="factory_8cc.html" target="_top" xlink:title=" ">
<polygon fill="white" stroke="black" points="3211,-6 3211,-25 3274,-25 3274,-6 3211,-6"/>
<text text-anchor="middle" x="3242.5" y="-13" font-family="Helvetica,sans-Serif" font-size="10.00">factory.cc</text>
</a>
</g>
</g>
<!-- Node2&#45;&gt;Node80 -->
<g id="edge41" class="edge">
<title>Node2&#45;&gt;Node80</title>
<path fill="none" stroke="midnightblue" d="M2355.08,-142.27C2522.17,-139.45 3075.95,-127.93 3149.5,-98 3188.47,-82.14 3222.28,-42.79 3235.99,-25.22"/>
<polygon fill="midnightblue" stroke="midnightblue" points="2354.59,-138.78 2344.64,-142.44 2354.7,-145.78 2354.59,-138.78"/>
</g>
<!-- Node751 -->
<g id="node39" class="node">
<title>Node751</title>
<g id="a_node39"><a xlink:href="heap-controller_8cc.html" target="_top" xlink:title=" ">
<polygon fill="white" stroke="black" points="3323.5,-73 3323.5,-92 3427.5,-92 3427.5,-73 3323.5,-73"/>
<text text-anchor="middle" x="3375.5" y="-80" font-family="Helvetica,sans-Serif" font-size="10.00">heap&#45;controller.cc</text>
</a>
</g>
</g>
<!-- Node2&#45;&gt;Node751 -->
<g id="edge42" class="edge">
<title>Node2&#45;&gt;Node751</title>
<path fill="none" stroke="midnightblue" d="M2354.59,-142.08C2527.26,-138.5 3125.44,-124.45 3314.5,-98 3324.42,-96.61 3335.09,-94.35 3344.68,-92.02"/>
<polygon fill="midnightblue" stroke="midnightblue" points="2354.47,-138.58 2344.55,-142.28 2354.62,-145.58 2354.47,-138.58"/>
</g>
<!-- Node27 -->
<g id="node40" class="node">
<title>Node27</title>
<g id="a_node40"><a xlink:href="ic_8cc.html" target="_top" xlink:title=" ">
<polygon fill="white" stroke="black" points="3445.5,-73 3445.5,-92 3483.5,-92 3483.5,-73 3445.5,-73"/>
<text text-anchor="middle" x="3464.5" y="-80" font-family="Helvetica,sans-Serif" font-size="10.00">ic.cc</text>
</a>
</g>
</g>
<!-- Node2&#45;&gt;Node27 -->
<g id="edge49" class="edge">
<title>Node2&#45;&gt;Node27</title>
<path fill="none" stroke="midnightblue" d="M2354.97,-142.33C2555.91,-139.3 3331.01,-125.93 3436.5,-98 3441.37,-96.71 3446.35,-94.48 3450.74,-92.14"/>
<polygon fill="midnightblue" stroke="midnightblue" points="2354.69,-138.83 2344.74,-142.48 2354.79,-145.83 2354.69,-138.83"/>
</g>
<!-- Node61 -->
<g id="node41" class="node">
<title>Node61</title>
<g id="a_node41"><a xlink:href="bootstrapper_8cc.html" target="_top" xlink:title=" ">
<polygon fill="white" stroke="black" points="3501.5,-73 3501.5,-92 3593.5,-92 3593.5,-73 3501.5,-73"/>
<text text-anchor="middle" x="3547.5" y="-80" font-family="Helvetica,sans-Serif" font-size="10.00">bootstrapper.cc</text>
</a>
</g>
</g>
<!-- Node2&#45;&gt;Node61 -->
<g id="edge50" class="edge">
<title>Node2&#45;&gt;Node61</title>
<path fill="none" stroke="midnightblue" d="M2354.8,-142.59C2546.67,-140.72 3267.3,-131.54 3492.5,-98 3501.58,-96.65 3511.33,-94.36 3520.05,-92"/>
<polygon fill="midnightblue" stroke="midnightblue" points="2354.72,-139.09 2344.76,-142.69 2354.79,-146.09 2354.72,-139.09"/>
</g>
<!-- Node646 -->
<g id="node42" class="node">
<title>Node646</title>
<g id="a_node42"><a xlink:href="maglev-ir_8cc.html" target="_top" xlink:title=" ">
<polygon fill="white" stroke="black" points="3612,-73 3612,-92 3689,-92 3689,-73 3612,-73"/>
<text text-anchor="middle" x="3650.5" y="-80" font-family="Helvetica,sans-Serif" font-size="10.00">maglev&#45;ir.cc</text>
</a>
</g>
</g>
<!-- Node2&#45;&gt;Node646 -->
<g id="edge51" class="edge">
<title>Node2&#45;&gt;Node646</title>
<path fill="none" stroke="midnightblue" d="M2354.85,-142.99C2557.83,-142.7 3355.31,-138.92 3602.5,-98 3610.4,-96.69 3618.82,-94.45 3626.37,-92.12"/>
<polygon fill="midnightblue" stroke="midnightblue" points="2354.8,-139.49 2344.81,-143 2354.81,-146.49 2354.8,-139.49"/>
</g>
<!-- Node389 -->
<g id="node43" class="node">
<title>Node389</title>
<g id="a_node43"><a xlink:href="objects_2arguments-inl_8h.html" target="_top" xlink:title=" ">
<polygon fill="white" stroke="red" points="3211.5,-73 3211.5,-92 3305.5,-92 3305.5,-73 3211.5,-73"/>
<text text-anchor="middle" x="3258.5" y="-80" font-family="Helvetica,sans-Serif" font-size="10.00">arguments&#45;inl.h</text>
</a>
</g>
</g>
<!-- Node2&#45;&gt;Node389 -->
<g id="edge52" class="edge">
<title>Node2&#45;&gt;Node389</title>
<path fill="none" stroke="midnightblue" d="M2354.88,-143.64C2488.26,-144.79 2878.02,-143.66 3197.5,-98 3207.31,-96.6 3217.85,-94.36 3227.36,-92.06"/>
<polygon fill="midnightblue" stroke="midnightblue" points="2354.64,-140.14 2344.61,-143.54 2354.58,-147.14 2354.64,-140.14"/>
</g>
<!-- Node81 -->
<g id="node44" class="node">
<title>Node81</title>
<g id="a_node44"><a xlink:href="elements_8cc.html" target="_top" xlink:title=" ">
<polygon fill="white" stroke="black" points="3779.5,-6 3779.5,-25 3855.5,-25 3855.5,-6 3779.5,-6"/>
<text text-anchor="middle" x="3817.5" y="-13" font-family="Helvetica,sans-Serif" font-size="10.00">elements.cc</text>
</a>
</g>
</g>
<!-- Node2&#45;&gt;Node81 -->
<g id="edge59" class="edge">
<title>Node2&#45;&gt;Node81</title>
<path fill="none" stroke="midnightblue" d="M2354.75,-142.86C2656.27,-141.83 4299.72,-134.58 4335.5,-98 4345.13,-88.15 4344.76,-77.2 4335.5,-67 4319.37,-49.22 3973.1,-26.16 3855.89,-18.84"/>
<polygon fill="midnightblue" stroke="midnightblue" points="2354.59,-139.36 2344.6,-142.89 2354.61,-146.36 2354.59,-139.36"/>
</g>
<!-- Node82 -->
<g id="node45" class="node">
<title>Node82</title>
<g id="a_node45"><a xlink:href="lookup_8cc.html" target="_top" xlink:title=" ">
<polygon fill="white" stroke="black" points="4117.5,-6 4117.5,-25 4179.5,-25 4179.5,-6 4117.5,-6"/>
<text text-anchor="middle" x="4148.5" y="-13" font-family="Helvetica,sans-Serif" font-size="10.00">lookup.cc</text>
</a>
</g>
</g>
<!-- Node2&#45;&gt;Node82 -->
<g id="edge63" class="edge">
<title>Node2&#45;&gt;Node82</title>
<path fill="none" stroke="midnightblue" d="M2355.15,-142.86C2659.19,-141.89 4316.42,-134.89 4352.5,-98 4406.24,-43.07 4248.99,-24.12 4179.61,-18.54"/>
<polygon fill="midnightblue" stroke="midnightblue" points="2354.9,-139.37 2344.91,-142.9 2354.92,-146.37 2354.9,-139.37"/>
</g>
<!-- Node392 -->
<g id="node46" class="node">
<title>Node392</title>
<g id="a_node46"><a xlink:href="bigint_8cc.html" target="_top" xlink:title=" ">
<polygon fill="white" stroke="black" points="3707.5,-73 3707.5,-92 3765.5,-92 3765.5,-73 3707.5,-73"/>
<text text-anchor="middle" x="3736.5" y="-80" font-family="Helvetica,sans-Serif" font-size="10.00">bigint.cc</text>
</a>
</g>
</g>
<!-- Node2&#45;&gt;Node392 -->
<g id="edge57" class="edge">
<title>Node2&#45;&gt;Node392</title>
<path fill="none" stroke="midnightblue" d="M2355.04,-142.37C2583.57,-139.23 3563.7,-124.31 3697.5,-98 3704.02,-96.72 3710.89,-94.48 3717.02,-92.15"/>
<polygon fill="midnightblue" stroke="midnightblue" points="2354.68,-138.88 2344.73,-142.51 2354.78,-145.88 2354.68,-138.88"/>
</g>
<!-- Node383 -->
<g id="node47" class="node">
<title>Node383</title>
<g id="a_node47"><a xlink:href="contexts_8cc.html" target="_top" xlink:title=" ">
<polygon fill="white" stroke="black" points="3783.5,-73 3783.5,-92 3855.5,-92 3855.5,-73 3783.5,-73"/>
<text text-anchor="middle" x="3819.5" y="-80" font-family="Helvetica,sans-Serif" font-size="10.00">contexts.cc</text>
</a>
</g>
</g>
<!-- Node2&#45;&gt;Node383 -->
<g id="edge58" class="edge">
<title>Node2&#45;&gt;Node383</title>
<path fill="none" stroke="midnightblue" d="M2354.93,-143.33C2574.35,-144.59 3492.26,-146.79 3774.5,-98 3781.94,-96.71 3789.85,-94.48 3796.92,-92.14"/>
<polygon fill="midnightblue" stroke="midnightblue" points="2354.74,-139.83 2344.72,-143.27 2354.7,-146.83 2354.74,-139.83"/>
</g>
<!-- Node89 -->
<g id="node48" class="node">
<title>Node89</title>
<g id="a_node48"><a xlink:href="js-atomics-synchronization_8cc.html" target="_top" xlink:title=" ">
<polygon fill="white" stroke="black" points="3873.5,-73 3873.5,-92 4035.5,-92 4035.5,-73 3873.5,-73"/>
<text text-anchor="middle" x="3954.5" y="-80" font-family="Helvetica,sans-Serif" font-size="10.00">js&#45;atomics&#45;synchronization.cc</text>
</a>
</g>
</g>
<!-- Node2&#45;&gt;Node89 -->
<g id="edge60" class="edge">
<title>Node2&#45;&gt;Node89</title>
<path fill="none" stroke="midnightblue" d="M2354.73,-142.47C2581.55,-139.79 3560.56,-126.75 3864.5,-98 3879,-96.63 3894.7,-94.37 3908.86,-92.04"/>
<polygon fill="midnightblue" stroke="midnightblue" points="2354.46,-138.97 2344.5,-142.59 2354.54,-145.97 2354.46,-138.97"/>
</g>
<!-- Node70 -->
<g id="node49" class="node">
<title>Node70</title>
<g id="a_node49"><a xlink:href="js-plural-rules_8cc.html" target="_top" xlink:title=" ">
<polygon fill="white" stroke="black" points="4053.5,-73 4053.5,-92 4151.5,-92 4151.5,-73 4053.5,-73"/>
<text text-anchor="middle" x="4102.5" y="-80" font-family="Helvetica,sans-Serif" font-size="10.00">js&#45;plural&#45;rules.cc</text>
</a>
</g>
</g>
<!-- Node2&#45;&gt;Node70 -->
<g id="edge61" class="edge">
<title>Node2&#45;&gt;Node70</title>
<path fill="none" stroke="midnightblue" d="M2355.07,-143.17C2598.29,-143.86 3704.69,-144.31 4044.5,-98 4054.06,-96.7 4064.33,-94.43 4073.53,-92.06"/>
<polygon fill="midnightblue" stroke="midnightblue" points="2354.81,-139.67 2344.8,-143.14 2354.79,-146.67 2354.81,-139.67"/>
</g>
<!-- Node29 -->
<g id="node50" class="node">
<title>Node29</title>
<g id="a_node50"><a xlink:href="keys_8cc.html" target="_top" xlink:title=" ">
<polygon fill="white" stroke="black" points="4170,-73 4170,-92 4223,-92 4223,-73 4170,-73"/>
<text text-anchor="middle" x="4196.5" y="-80" font-family="Helvetica,sans-Serif" font-size="10.00">keys.cc</text>
</a>
</g>
</g>
<!-- Node2&#45;&gt;Node29 -->
<g id="edge62" class="edge">
<title>Node2&#45;&gt;Node29</title>
<path fill="none" stroke="midnightblue" d="M2355.17,-142.86C2627.36,-141.93 3979.25,-135.42 4160.5,-98 4166.7,-96.72 4173.2,-94.42 4178.95,-92.03"/>
<polygon fill="midnightblue" stroke="midnightblue" points="2354.83,-139.36 2344.84,-142.89 2354.85,-146.36 2354.83,-139.36"/>
</g>
<!-- Node23&#45;&gt;Node4 -->
<g id="edge23" class="edge">
<title>Node23&#45;&gt;Node4</title>
<path fill="none" stroke="midnightblue" d="M238.6,-69.54C210.54,-59.73 170.2,-45.19 135.5,-31 130.98,-29.15 126.16,-27.04 121.67,-25.02"/>
<polygon fill="midnightblue" stroke="midnightblue" points="237.76,-72.95 248.35,-72.93 240.06,-66.34 237.76,-72.95"/>
</g>
<!-- Node23&#45;&gt;Node7 -->
<g id="edge24" class="edge">
<title>Node23&#45;&gt;Node7</title>
<path fill="none" stroke="midnightblue" d="M252.64,-66.92C234.25,-54.07 208.09,-35.78 192.84,-25.13"/>
<polygon fill="midnightblue" stroke="midnightblue" points="250.76,-69.87 260.96,-72.73 254.77,-64.14 250.76,-69.87"/>
</g>
<!-- Node23&#45;&gt;Node18 -->
<g id="edge25" class="edge">
<title>Node23&#45;&gt;Node18</title>
<path fill="none" stroke="midnightblue" d="M273.5,-62.54C273.5,-50.17 273.5,-34.62 273.5,-25.13"/>
<polygon fill="midnightblue" stroke="midnightblue" points="270,-62.73 273.5,-72.73 277,-62.73 270,-62.73"/>
</g>
<!-- Node23&#45;&gt;Node19 -->
<g id="edge26" class="edge">
<title>Node23&#45;&gt;Node19</title>
<path fill="none" stroke="midnightblue" d="M224.68,-70.78C183.52,-61.39 123.24,-46.8 71.5,-31 65.71,-29.23 59.52,-27.11 53.79,-25.04"/>
<polygon fill="midnightblue" stroke="midnightblue" points="223.92,-74.2 234.45,-72.99 225.47,-67.37 223.92,-74.2"/>
</g>
<!-- Node23&#45;&gt;Node142 -->
<g id="edge27" class="edge">
<title>Node23&#45;&gt;Node142</title>
<path fill="none" stroke="midnightblue" d="M298.03,-67.75C317.53,-56.83 344.7,-41.6 364.36,-30.59"/>
<polygon fill="midnightblue" stroke="midnightblue" points="296.16,-64.79 289.14,-72.73 299.58,-70.9 296.16,-64.79"/>
</g>
<!-- Node23&#45;&gt;Node96 -->
<g id="edge28" class="edge">
<title>Node23&#45;&gt;Node96</title>
<path fill="none" stroke="midnightblue" d="M315.46,-70.32C363.63,-57.49 441.63,-36.71 485.28,-25.08"/>
<polygon fill="midnightblue" stroke="midnightblue" points="314.41,-66.98 305.65,-72.94 316.21,-73.74 314.41,-66.98"/>
</g>
<!-- Node23&#45;&gt;Node144 -->
<g id="edge29" class="edge">
<title>Node23&#45;&gt;Node144</title>
<path fill="none" stroke="midnightblue" d="M326.92,-74.92C349.86,-72.24 376.97,-69.24 401.5,-67 658.21,-43.55 966.81,-25.44 1082.09,-19.02"/>
<polygon fill="midnightblue" stroke="midnightblue" points="326.22,-71.48 316.7,-76.13 327.05,-78.43 326.22,-71.48"/>
</g>
<!-- Node23&#45;&gt;Node102 -->
<g id="edge30" class="edge">
<title>Node23&#45;&gt;Node102</title>
<path fill="none" stroke="midnightblue" d="M326.88,-74.43C349.81,-71.65 376.93,-68.73 401.5,-67 766.67,-41.29 1961.82,-20.72 2183.84,-17.08"/>
<polygon fill="midnightblue" stroke="midnightblue" points="326.16,-70.99 316.67,-75.68 327.02,-77.94 326.16,-70.99"/>
</g>
<!-- Node152&#45;&gt;Node101 -->
<g id="edge36" class="edge">
<title>Node152&#45;&gt;Node101</title>
<path fill="none" stroke="midnightblue" d="M2892.5,-57.25C2892.5,-46.02 2892.5,-33.38 2892.5,-25.19"/>
<polygon fill="midnightblue" stroke="midnightblue" points="2889,-57.4 2892.5,-67.4 2896,-57.4 2889,-57.4"/>
</g>
<!-- Node154&#45;&gt;Node60 -->
<g id="edge39" class="edge">
<title>Node154&#45;&gt;Node60</title>
<path fill="none" stroke="midnightblue" d="M3065.4,-65.13C3054.45,-52.42 3039.7,-35.3 3030.93,-25.13"/>
<polygon fill="midnightblue" stroke="midnightblue" points="3062.77,-67.44 3071.95,-72.73 3068.07,-62.87 3062.77,-67.44"/>
</g>
<!-- Node154&#45;&gt;Node30 -->
<g id="edge40" class="edge">
<title>Node154&#45;&gt;Node30</title>
<path fill="none" stroke="midnightblue" d="M3095.75,-65.5C3108.69,-52.75 3126.31,-35.39 3136.74,-25.13"/>
<polygon fill="midnightblue" stroke="midnightblue" points="3093.07,-63.22 3088.4,-72.73 3097.98,-68.21 3093.07,-63.22"/>
</g>
<!-- Node389&#45;&gt;Node30 -->
<g id="edge56" class="edge">
<title>Node389&#45;&gt;Node30</title>
<path fill="none" stroke="midnightblue" d="M3234.36,-67.62C3211.97,-54.74 3179.36,-35.98 3160.5,-25.13"/>
<polygon fill="midnightblue" stroke="midnightblue" points="3232.85,-70.78 3243.26,-72.73 3236.34,-64.71 3232.85,-70.78"/>
</g>
<!-- Node389&#45;&gt;Node80 -->
<g id="edge53" class="edge">
<title>Node389&#45;&gt;Node80</title>
<path fill="none" stroke="midnightblue" d="M3253.93,-62.91C3250.87,-50.49 3246.98,-34.72 3244.62,-25.13"/>
<polygon fill="midnightblue" stroke="midnightblue" points="3250.55,-63.86 3256.34,-72.73 3257.35,-62.19 3250.55,-63.86"/>
</g>
<!-- Node389&#45;&gt;Node81 -->
<g id="edge54" class="edge">
<title>Node389&#45;&gt;Node81</title>
<path fill="none" stroke="midnightblue" d="M3297.8,-70.52C3303.38,-69.19 3309.06,-67.97 3314.5,-67 3486.43,-36.3 3695.01,-22.81 3779.37,-18.33"/>
<polygon fill="midnightblue" stroke="midnightblue" points="3296.81,-67.15 3287.96,-72.97 3298.51,-73.95 3296.81,-67.15"/>
</g>
<!-- Node389&#45;&gt;Node82 -->
<g id="edge55" class="edge">
<title>Node389&#45;&gt;Node82</title>
<path fill="none" stroke="midnightblue" d="M3296.76,-70.55C3302.66,-69.17 3308.72,-67.91 3314.5,-67 3354.84,-60.62 3969.87,-26.37 4117.04,-18.23"/>
<polygon fill="midnightblue" stroke="midnightblue" points="3295.91,-67.16 3287.05,-72.97 3297.6,-73.95 3295.91,-67.16"/>
</g>
</g>
</svg>
        <g id="navigator" transform="translate(0 0)" fill="#404254">
                <rect fill="#f2f5e9" fill-opacity="0.5" stroke="#606060" stroke-width=".5" x="0" y="0" width="60" height="60"/>
                <use id="zoomplus" xlink:href="#zoomPlus" x="17" y="9" onmousedown="handleZoom(evt,'in')"/>
                <use id="zoomminus" xlink:href="#zoomMin" x="42" y="9" onmousedown="handleZoom(evt,'out')"/>
                <use id="reset" xlink:href="#resetDef" x="30" y="36" onmousedown="handleReset()"/>
                <g id="arrowUp" xlink:href="#dirArrow" transform="translate(30 24)" onmousedown="handlePan(0,-1)">
                  <use xlink:href="#rim" fill="#404040">
                        <set attributeName="fill" to="#808080" begin="arrowUp.mouseover" end="arrowUp.mouseout"/>
                  </use>
                  <path fill="none" stroke="white" stroke-width="1.5" d="M0,-3.0v7 M-2.5,-0.5L0,-3.0L2.5,-0.5"/>
                </g>
                <g id="arrowRight" xlink:href="#dirArrow" transform="rotate(90) translate(36 -43)" onmousedown="handlePan(1,0)">
                  <use xlink:href="#rim" fill="#404040">
                        <set attributeName="fill" to="#808080" begin="arrowRight.mouseover" end="arrowRight.mouseout"/>
                  </use>
                  <path fill="none" stroke="white" stroke-width="1.5" d="M0,-3.0v7 M-2.5,-0.5L0,-3.0L2.5,-0.5"/>
                </g>
                <g id="arrowDown" xlink:href="#dirArrow" transform="rotate(180) translate(-30 -48)" onmousedown="handlePan(0,1)">
                  <use xlink:href="#rim" fill="#404040">
                        <set attributeName="fill" to="#808080" begin="arrowDown.mouseover" end="arrowDown.mouseout"/>
                  </use>
                  <path fill="none" stroke="white" stroke-width="1.5" d="M0,-3.0v7 M-2.5,-0.5L0,-3.0L2.5,-0.5"/>
                </g>
                <g id="arrowLeft" xlink:href="#dirArrow" transform="rotate(270) translate(-36 17)" onmousedown="handlePan(-1,0)">
                  <use xlink:href="#rim" fill="#404040">
                        <set attributeName="fill" to="#808080" begin="arrowLeft.mouseover" end="arrowLeft.mouseout"/>
                  </use>
                  <path fill="none" stroke="white" stroke-width="1.5" d="M0,-3.0v7 M-2.5,-0.5L0,-3.0L2.5,-0.5"/>
                </g>
        </g>
        <svg viewBox="0 0 15 15" width="100%" height="30px" preserveAspectRatio="xMaxYMin meet">
         <g id="arrow_out" transform="scale(0.3 0.3)">
          <a xlink:href="source-text-module-inl_8h__dep__incl_org.svg" target="_base">
           <rect id="button" ry="5" rx="5" y="6" x="6" height="38" width="38"
                fill="#f2f5e9" fill-opacity="0.5" stroke="#606060" stroke-width="1.0"/>
           <path id="arrow"
             d="M 11.500037,31.436501 C 11.940474,20.09759 22.043105,11.32322 32.158766,21.979434 L 37.068811,17.246167 C 37.068811,17.246167 37.088388,32 37.088388,32 L 22.160133,31.978069 C 22.160133,31.978069 26.997745,27.140456 26.997745,27.140456 C 18.528582,18.264221 13.291696,25.230495 11.500037,31.436501 z"
             style="fill:#404040;"/>
          </a>
         </g>
        </svg>
</svg>
