<?xml version="1.0" encoding="UTF-8" standalone="no"?>
<!DOCTYPE svg PUBLIC "-//W3C//DTD SVG 1.1//EN"
 "http://www.w3.org/Graphics/SVG/1.1/DTD/svg11.dtd">
<!-- Generated by graphviz version 2.43.0 (0)
 -->
<!-- Title: /mnt/V8SourceCode/src/base/strings.h Pages: 1 -->
<!--zoomable 554 -->
<svg id="main" version="1.1" xmlns="http://www.w3.org/2000/svg" xmlns:xlink="http://www.w3.org/1999/xlink" xml:space="preserve" onload="init(evt)">
<style type="text/css"><![CDATA[
.edge:hover path { stroke: red; }
.edge:hover polygon { stroke: red; fill: red; }
]]></style>
<script type="text/javascript"><![CDATA[
var edges = document.getElementsByTagName('g');
if (edges && edges.length) {
  for (var i=0;i<edges.length;i++) {
    if (edges[i].id.substr(0,4)=='edge') {
      edges[i].setAttribute('class','edge');
    }
  }
}
]]></script>
        <defs>
                <circle id="rim" cx="0" cy="0" r="7"/>
                <circle id="rim2" cx="0" cy="0" r="3.5"/>
                <g id="zoomPlus">
                        <use xlink:href="#rim" fill="#404040">
                                <set attributeName="fill" to="#808080" begin="zoomplus.mouseover" end="zoomplus.mouseout"/>
                        </use>
                        <path d="M-4,0h8M0,-4v8" fill="none" stroke="white" stroke-width="1.5" pointer-events="none"/>
                </g>
                <g id="zoomMin">
                        <use xlink:href="#rim" fill="#404040">
                                <set attributeName="fill" to="#808080" begin="zoomminus.mouseover" end="zoomminus.mouseout"/>
                        </use>
                        <path d="M-4,0h8" fill="none" stroke="white" stroke-width="1.5" pointer-events="none"/>
                </g>
                <g id="dirArrow">
                        <path fill="none" stroke="white" stroke-width="1.5" d="M0,-3.0v7 M-2.5,-0.5L0,-3.0L2.5,-0.5"/>
                </g>
               <g id="resetDef">
                       <use xlink:href="#rim2" fill="#404040">
                               <set attributeName="fill" to="#808080" begin="reset.mouseover" end="reset.mouseout"/>
                       </use>
               </g>
        </defs>

<script type="text/javascript">
var viewWidth = 1562;
var viewHeight = 554;
var sectionId = 'dynsection-0';
</script>
<script xlink:href="svgpan.js"/>
<svg id="graph" class="graph">
<g id="viewport">
<title>/mnt/V8SourceCode/src/base/strings.h</title>
<polygon fill="white" stroke="transparent" points="-4,4 -4,-550 1557.5,-550 1557.5,4 -4,4"/>
<!-- Node1 -->
<g id="node1" class="node">
<title>Node1</title>
<g id="a_node1"><a xlink:title=" ">
<polygon fill="#bfbfbf" stroke="black" points="501,-515.5 501,-545.5 631,-545.5 631,-515.5 501,-515.5"/>
<text text-anchor="start" x="509" y="-533.5" font-family="Helvetica,sans-Serif" font-size="10.00">/mnt/V8SourceCode/src</text>
<text text-anchor="middle" x="566" y="-522.5" font-family="Helvetica,sans-Serif" font-size="10.00">/base/strings.h</text>
</a>
</g>
</g>
<!-- Node2 -->
<g id="node2" class="node">
<title>Node2</title>
<g id="a_node2"><a xlink:href="base-export_8h.html" target="_top" xlink:title=" ">
<polygon fill="white" stroke="black" points="1003,-112.5 1003,-131.5 1131,-131.5 1131,-112.5 1003,-112.5"/>
<text text-anchor="middle" x="1067" y="-119.5" font-family="Helvetica,sans-Serif" font-size="10.00">src/base/base&#45;export.h</text>
</a>
</g>
</g>
<!-- Node1&#45;&gt;Node2 -->
<g id="edge1" class="edge">
<title>Node1&#45;&gt;Node2</title>
<path fill="none" stroke="midnightblue" d="M631.33,-527.44C829.77,-520.31 1412,-492.7 1412,-414 1412,-414 1412,-414 1412,-244 1412,-209.18 1418.91,-191.26 1393,-168 1388.33,-163.81 1236.26,-144.14 1141.49,-132.24"/>
<polygon fill="midnightblue" stroke="midnightblue" points="1141.73,-128.74 1131.37,-130.97 1140.86,-135.69 1141.73,-128.74"/>
</g>
<!-- Node5 -->
<g id="node5" class="node">
<title>Node5</title>
<g id="a_node5"><a xlink:href="src_2base_2macros_8h.html" target="_top" xlink:title=" ">
<polygon fill="white" stroke="black" points="165.5,-291.5 165.5,-310.5 270.5,-310.5 270.5,-291.5 165.5,-291.5"/>
<text text-anchor="middle" x="218" y="-298.5" font-family="Helvetica,sans-Serif" font-size="10.00">src/base/macros.h</text>
</a>
</g>
</g>
<!-- Node1&#45;&gt;Node5 -->
<g id="edge4" class="edge">
<title>Node1&#45;&gt;Node5</title>
<path fill="none" stroke="midnightblue" d="M500.9,-519.81C434.9,-507.18 332.82,-479.65 263,-423 231.63,-397.55 222.12,-347.95 219.25,-320.83"/>
<polygon fill="midnightblue" stroke="midnightblue" points="222.72,-320.38 218.38,-310.72 215.75,-320.98 222.72,-320.38"/>
</g>
<!-- Node26 -->
<g id="node23" class="node">
<title>Node26</title>
<g id="a_node23"><a xlink:href="vector_8h.html" target="_top" xlink:title=" ">
<polygon fill="white" stroke="black" points="516.5,-459.5 516.5,-478.5 615.5,-478.5 615.5,-459.5 516.5,-459.5"/>
<text text-anchor="middle" x="566" y="-466.5" font-family="Helvetica,sans-Serif" font-size="10.00">src/base/vector.h</text>
</a>
</g>
</g>
<!-- Node1&#45;&gt;Node26 -->
<g id="edge32" class="edge">
<title>Node1&#45;&gt;Node26</title>
<path fill="none" stroke="midnightblue" d="M566,-515.4C566,-507.47 566,-497.46 566,-488.86"/>
<polygon fill="midnightblue" stroke="midnightblue" points="569.5,-488.66 566,-478.66 562.5,-488.66 569.5,-488.66"/>
</g>
<!-- Node3 -->
<g id="node3" class="node">
<title>Node3</title>
<g id="a_node3"><a xlink:href="v8config_8h.html" target="_top" xlink:title=" ">
<polygon fill="white" stroke="black" points="560.5,-56.5 560.5,-75.5 665.5,-75.5 665.5,-56.5 560.5,-56.5"/>
<text text-anchor="middle" x="613" y="-63.5" font-family="Helvetica,sans-Serif" font-size="10.00">include/v8config.h</text>
</a>
</g>
</g>
<!-- Node2&#45;&gt;Node3 -->
<g id="edge2" class="edge">
<title>Node2&#45;&gt;Node3</title>
<path fill="none" stroke="midnightblue" d="M1002.92,-113.38C916.13,-103.05 762.19,-84.75 675.98,-74.49"/>
<polygon fill="midnightblue" stroke="midnightblue" points="676.15,-70.99 665.81,-73.28 675.33,-77.94 676.15,-70.99"/>
</g>
<!-- Node4 -->
<g id="node4" class="node">
<title>Node4</title>
<g id="a_node4"><a xlink:title=" ">
<polygon fill="white" stroke="#bfbfbf" points="82,-0.5 82,-19.5 140,-19.5 140,-0.5 82,-0.5"/>
<text text-anchor="middle" x="111" y="-7.5" font-family="Helvetica,sans-Serif" font-size="10.00">memory</text>
</a>
</g>
</g>
<!-- Node3&#45;&gt;Node4 -->
<g id="edge3" class="edge">
<title>Node3&#45;&gt;Node4</title>
<path fill="none" stroke="midnightblue" d="M560.23,-59.32C459.01,-48.44 239.72,-24.85 150.23,-15.22"/>
<polygon fill="midnightblue" stroke="midnightblue" points="150.54,-11.73 140.23,-14.14 149.79,-18.69 150.54,-11.73"/>
</g>
<!-- Node5&#45;&gt;Node3 -->
<g id="edge7" class="edge">
<title>Node5&#45;&gt;Node3</title>
<path fill="none" stroke="midnightblue" d="M198.22,-291.48C155.75,-271.93 62.26,-221.41 95,-168 142.1,-91.17 422.69,-72.78 550.11,-68.38"/>
<polygon fill="midnightblue" stroke="midnightblue" points="550.61,-71.87 560.49,-68.04 550.38,-64.87 550.61,-71.87"/>
</g>
<!-- Node6 -->
<g id="node6" class="node">
<title>Node6</title>
<g id="a_node6"><a xlink:title=" ">
<polygon fill="white" stroke="#bfbfbf" points="28,-235.5 28,-254.5 72,-254.5 72,-235.5 28,-235.5"/>
<text text-anchor="middle" x="50" y="-242.5" font-family="Helvetica,sans-Serif" font-size="10.00">limits</text>
</a>
</g>
</g>
<!-- Node5&#45;&gt;Node6 -->
<g id="edge5" class="edge">
<title>Node5&#45;&gt;Node6</title>
<path fill="none" stroke="midnightblue" d="M191.38,-291.44C161.66,-281.89 113.58,-266.44 81.88,-256.25"/>
<polygon fill="midnightblue" stroke="midnightblue" points="82.79,-252.86 72.2,-253.14 80.65,-259.53 82.79,-252.86"/>
</g>
<!-- Node7 -->
<g id="node7" class="node">
<title>Node7</title>
<g id="a_node7"><a xlink:title=" ">
<polygon fill="white" stroke="#bfbfbf" points="325.5,-112.5 325.5,-131.5 394.5,-131.5 394.5,-112.5 325.5,-112.5"/>
<text text-anchor="middle" x="360" y="-119.5" font-family="Helvetica,sans-Serif" font-size="10.00">type_traits</text>
</a>
</g>
</g>
<!-- Node5&#45;&gt;Node7 -->
<g id="edge6" class="edge">
<title>Node5&#45;&gt;Node7</title>
<path fill="none" stroke="midnightblue" d="M222.79,-291.43C235.21,-269.56 270.17,-210.45 308,-168 317.8,-157 330.24,-146.14 340.5,-137.85"/>
<polygon fill="midnightblue" stroke="midnightblue" points="342.81,-140.49 348.49,-131.54 338.47,-134.99 342.81,-140.49"/>
</g>
<!-- Node8 -->
<g id="node8" class="node">
<title>Node8</title>
<g id="a_node8"><a xlink:href="src_2base_2compiler-specific_8h.html" target="_top" xlink:title=" ">
<polygon fill="white" stroke="black" points="104,-174 104,-193 256,-193 256,-174 104,-174"/>
<text text-anchor="middle" x="180" y="-181" font-family="Helvetica,sans-Serif" font-size="10.00">src/base/compiler&#45;specific.h</text>
</a>
</g>
</g>
<!-- Node5&#45;&gt;Node8 -->
<g id="edge8" class="edge">
<title>Node5&#45;&gt;Node8</title>
<path fill="none" stroke="midnightblue" d="M215.14,-291.32C208.98,-272.59 194.33,-228.05 186.02,-202.79"/>
<polygon fill="midnightblue" stroke="midnightblue" points="189.34,-201.69 182.89,-193.28 182.69,-203.87 189.34,-201.69"/>
</g>
<!-- Node9 -->
<g id="node9" class="node">
<title>Node9</title>
<g id="a_node9"><a xlink:href="src_2base_2logging_8h.html" target="_top" xlink:title=" ">
<polygon fill="white" stroke="black" points="766.5,-235.5 766.5,-254.5 871.5,-254.5 871.5,-235.5 766.5,-235.5"/>
<text text-anchor="middle" x="819" y="-242.5" font-family="Helvetica,sans-Serif" font-size="10.00">src/base/logging.h</text>
</a>
</g>
</g>
<!-- Node5&#45;&gt;Node9 -->
<g id="edge10" class="edge">
<title>Node5&#45;&gt;Node9</title>
<path fill="none" stroke="midnightblue" d="M270.55,-295.28C381.15,-285.34 637.58,-262.3 756.43,-251.62"/>
<polygon fill="midnightblue" stroke="midnightblue" points="756.82,-255.1 766.47,-250.72 756.19,-248.13 756.82,-255.1"/>
</g>
<!-- Node8&#45;&gt;Node3 -->
<g id="edge9" class="edge">
<title>Node8&#45;&gt;Node3</title>
<path fill="none" stroke="midnightblue" d="M183.49,-173.76C190.14,-158.33 206.25,-126.53 231,-112 283.66,-81.08 456.05,-71.37 550.22,-68.35"/>
<polygon fill="midnightblue" stroke="midnightblue" points="550.58,-71.84 560.47,-68.04 550.37,-64.84 550.58,-71.84"/>
</g>
<!-- Node9&#45;&gt;Node2 -->
<g id="edge20" class="edge">
<title>Node9&#45;&gt;Node2</title>
<path fill="none" stroke="midnightblue" d="M839.06,-235.34C859.35,-226.49 891.55,-212.21 919,-199 962.49,-178.06 1012.27,-152.08 1041.59,-136.55"/>
<polygon fill="midnightblue" stroke="midnightblue" points="1043.52,-139.49 1050.71,-131.71 1040.24,-133.31 1043.52,-139.49"/>
</g>
<!-- Node9&#45;&gt;Node8 -->
<g id="edge23" class="edge">
<title>Node9&#45;&gt;Node8</title>
<path fill="none" stroke="midnightblue" d="M766.44,-239.11C656.38,-228.86 400.79,-205.06 266.29,-192.53"/>
<polygon fill="midnightblue" stroke="midnightblue" points="266.31,-189.02 256.03,-191.58 265.66,-195.99 266.31,-189.02"/>
</g>
<!-- Node10 -->
<g id="node10" class="node">
<title>Node10</title>
<g id="a_node10"><a xlink:title=" ">
<polygon fill="white" stroke="#bfbfbf" points="658,-174 658,-193 708,-193 708,-174 658,-174"/>
<text text-anchor="middle" x="683" y="-181" font-family="Helvetica,sans-Serif" font-size="10.00">cstdint</text>
</a>
</g>
</g>
<!-- Node9&#45;&gt;Node10 -->
<g id="edge11" class="edge">
<title>Node9&#45;&gt;Node10</title>
<path fill="none" stroke="midnightblue" d="M799.51,-235.48C776.59,-225.45 738.31,-208.7 711.92,-197.15"/>
<polygon fill="midnightblue" stroke="midnightblue" points="713.01,-193.81 702.45,-193.01 710.21,-200.22 713.01,-193.81"/>
</g>
<!-- Node11 -->
<g id="node11" class="node">
<title>Node11</title>
<g id="a_node11"><a xlink:title=" ">
<polygon fill="white" stroke="#bfbfbf" points="1262,-174 1262,-193 1312,-193 1312,-174 1262,-174"/>
<text text-anchor="middle" x="1287" y="-181" font-family="Helvetica,sans-Serif" font-size="10.00">cstring</text>
</a>
</g>
</g>
<!-- Node9&#45;&gt;Node11 -->
<g id="edge12" class="edge">
<title>Node9&#45;&gt;Node11</title>
<path fill="none" stroke="midnightblue" d="M871.78,-237.29C968.09,-225.04 1169.95,-199.38 1251.6,-189"/>
<polygon fill="midnightblue" stroke="midnightblue" points="1252.37,-192.43 1261.85,-187.7 1251.49,-185.49 1252.37,-192.43"/>
</g>
<!-- Node12 -->
<g id="node12" class="node">
<title>Node12</title>
<g id="a_node12"><a xlink:title=" ">
<polygon fill="white" stroke="#bfbfbf" points="1330.5,-174 1330.5,-193 1383.5,-193 1383.5,-174 1330.5,-174"/>
<text text-anchor="middle" x="1357" y="-181" font-family="Helvetica,sans-Serif" font-size="10.00">iterator</text>
</a>
</g>
</g>
<!-- Node9&#45;&gt;Node12 -->
<g id="edge13" class="edge">
<title>Node9&#45;&gt;Node12</title>
<path fill="none" stroke="midnightblue" d="M871.85,-244.31C964.26,-243.75 1160.64,-237.59 1321,-199 1323.67,-198.36 1326.41,-197.55 1329.11,-196.65"/>
<polygon fill="midnightblue" stroke="midnightblue" points="1330.51,-199.87 1338.66,-193.09 1328.06,-193.31 1330.51,-199.87"/>
</g>
<!-- Node13 -->
<g id="node13" class="node">
<title>Node13</title>
<g id="a_node13"><a xlink:title=" ">
<polygon fill="white" stroke="#bfbfbf" points="726,-174 726,-193 782,-193 782,-174 726,-174"/>
<text text-anchor="middle" x="754" y="-181" font-family="Helvetica,sans-Serif" font-size="10.00">sstream</text>
</a>
</g>
</g>
<!-- Node9&#45;&gt;Node13 -->
<g id="edge14" class="edge">
<title>Node9&#45;&gt;Node13</title>
<path fill="none" stroke="midnightblue" d="M809.69,-235.48C799.55,-226.2 783.14,-211.17 770.75,-199.83"/>
<polygon fill="midnightblue" stroke="midnightblue" points="773.04,-197.18 763.3,-193.01 768.31,-202.34 773.04,-197.18"/>
</g>
<!-- Node14 -->
<g id="node14" class="node">
<title>Node14</title>
<g id="a_node14"><a xlink:title=" ">
<polygon fill="white" stroke="#bfbfbf" points="800,-174 800,-193 844,-193 844,-174 800,-174"/>
<text text-anchor="middle" x="822" y="-181" font-family="Helvetica,sans-Serif" font-size="10.00">string</text>
</a>
</g>
</g>
<!-- Node9&#45;&gt;Node14 -->
<g id="edge15" class="edge">
<title>Node9&#45;&gt;Node14</title>
<path fill="none" stroke="midnightblue" d="M819.43,-235.48C819.85,-227.08 820.51,-213.98 821.06,-203.16"/>
<polygon fill="midnightblue" stroke="midnightblue" points="824.56,-203.17 821.57,-193.01 817.57,-202.82 824.56,-203.17"/>
</g>
<!-- Node15 -->
<g id="node15" class="node">
<title>Node15</title>
<g id="a_node15"><a xlink:title=" ">
<polygon fill="white" stroke="#bfbfbf" points="607.5,-112.5 607.5,-131.5 652.5,-131.5 652.5,-112.5 607.5,-112.5"/>
<text text-anchor="middle" x="630" y="-119.5" font-family="Helvetica,sans-Serif" font-size="10.00">utility</text>
</a>
</g>
</g>
<!-- Node9&#45;&gt;Node15 -->
<g id="edge16" class="edge">
<title>Node9&#45;&gt;Node15</title>
<path fill="none" stroke="midnightblue" d="M766.4,-243.57C728.76,-240.41 679.55,-229.97 649,-199 634.18,-183.97 630.34,-159.24 629.62,-142.08"/>
<polygon fill="midnightblue" stroke="midnightblue" points="633.12,-141.6 629.52,-131.63 626.12,-141.67 633.12,-141.6"/>
</g>
<!-- Node16 -->
<g id="node16" class="node">
<title>Node16</title>
<g id="a_node16"><a xlink:title=" ">
<polygon fill="white" stroke="#bfbfbf" points="862.5,-174 862.5,-193 909.5,-193 909.5,-174 862.5,-174"/>
<text text-anchor="middle" x="886" y="-181" font-family="Helvetica,sans-Serif" font-size="10.00">vector</text>
</a>
</g>
</g>
<!-- Node9&#45;&gt;Node16 -->
<g id="edge17" class="edge">
<title>Node9&#45;&gt;Node16</title>
<path fill="none" stroke="midnightblue" d="M828.6,-235.48C839.05,-226.2 855.97,-211.17 868.74,-199.83"/>
<polygon fill="midnightblue" stroke="midnightblue" points="871.27,-202.27 876.42,-193.01 866.62,-197.03 871.27,-202.27"/>
</g>
<!-- Node17 -->
<g id="node17" class="node">
<title>Node17</title>
<g id="a_node17"><a xlink:href="abort-mode_8h.html" target="_top" xlink:title=" ">
<polygon fill="white" stroke="black" points="1004,-174 1004,-193 1130,-193 1130,-174 1004,-174"/>
<text text-anchor="middle" x="1067" y="-181" font-family="Helvetica,sans-Serif" font-size="10.00">src/base/abort&#45;mode.h</text>
</a>
</g>
</g>
<!-- Node9&#45;&gt;Node17 -->
<g id="edge18" class="edge">
<title>Node9&#45;&gt;Node17</title>
<path fill="none" stroke="midnightblue" d="M854.53,-235.48C898.55,-224.92 973.59,-206.91 1021.7,-195.37"/>
<polygon fill="midnightblue" stroke="midnightblue" points="1022.63,-198.75 1031.53,-193.01 1020.99,-191.94 1022.63,-198.75"/>
</g>
<!-- Node18 -->
<g id="node18" class="node">
<title>Node18</title>
<g id="a_node18"><a xlink:href="build__config_8h.html" target="_top" xlink:title=" ">
<polygon fill="white" stroke="black" points="1149,-112.5 1149,-131.5 1277,-131.5 1277,-112.5 1149,-112.5"/>
<text text-anchor="middle" x="1213" y="-119.5" font-family="Helvetica,sans-Serif" font-size="10.00">src/base/build_config.h</text>
</a>
</g>
</g>
<!-- Node9&#45;&gt;Node18 -->
<g id="edge21" class="edge">
<title>Node9&#45;&gt;Node18</title>
<path fill="none" stroke="midnightblue" d="M871.7,-240.73C950.15,-235.16 1093.34,-222.15 1139,-199 1165.86,-185.38 1188.59,-158.16 1201.52,-140.26"/>
<polygon fill="midnightblue" stroke="midnightblue" points="1204.51,-142.08 1207.35,-131.88 1198.77,-138.09 1204.51,-142.08"/>
</g>
<!-- Node19 -->
<g id="node19" class="node">
<title>Node19</title>
<g id="a_node19"><a xlink:href="immediate-crash_8h.html" target="_top" xlink:title=" ">
<polygon fill="white" stroke="black" points="1440.5,-168.5 1440.5,-198.5 1553.5,-198.5 1553.5,-168.5 1440.5,-168.5"/>
<text text-anchor="start" x="1448.5" y="-186.5" font-family="Helvetica,sans-Serif" font-size="10.00">src/base/immediate</text>
<text text-anchor="middle" x="1497" y="-175.5" font-family="Helvetica,sans-Serif" font-size="10.00">&#45;crash.h</text>
</a>
</g>
</g>
<!-- Node9&#45;&gt;Node19 -->
<g id="edge24" class="edge">
<title>Node9&#45;&gt;Node19</title>
<path fill="none" stroke="midnightblue" d="M871.73,-240.93C972.95,-234.81 1201.46,-219.84 1393,-199 1405.03,-197.69 1417.82,-196.08 1430.17,-194.42"/>
<polygon fill="midnightblue" stroke="midnightblue" points="1430.97,-197.85 1440.4,-193.02 1430.02,-190.91 1430.97,-197.85"/>
</g>
<!-- Node20 -->
<g id="node20" class="node">
<title>Node20</title>
<g id="a_node20"><a xlink:href="template-utils_8h.html" target="_top" xlink:title=" ">
<polygon fill="white" stroke="red" points="464,-174 464,-193 602,-193 602,-174 464,-174"/>
<text text-anchor="middle" x="533" y="-181" font-family="Helvetica,sans-Serif" font-size="10.00">src/base/template&#45;utils.h</text>
</a>
</g>
</g>
<!-- Node9&#45;&gt;Node20 -->
<g id="edge27" class="edge">
<title>Node9&#45;&gt;Node20</title>
<path fill="none" stroke="midnightblue" d="M778.02,-235.48C726.84,-224.83 639.27,-206.61 583.86,-195.08"/>
<polygon fill="midnightblue" stroke="midnightblue" points="584.4,-191.62 573.9,-193.01 582.98,-198.47 584.4,-191.62"/>
</g>
<!-- Node17&#45;&gt;Node2 -->
<g id="edge19" class="edge">
<title>Node17&#45;&gt;Node2</title>
<path fill="none" stroke="midnightblue" d="M1067,-173.98C1067,-165.58 1067,-152.48 1067,-141.66"/>
<polygon fill="midnightblue" stroke="midnightblue" points="1070.5,-141.51 1067,-131.51 1063.5,-141.51 1070.5,-141.51"/>
</g>
<!-- Node18&#45;&gt;Node3 -->
<g id="edge22" class="edge">
<title>Node18&#45;&gt;Node3</title>
<path fill="none" stroke="midnightblue" d="M1148.92,-112.96C1145.91,-112.63 1142.92,-112.3 1140,-112 972.62,-94.54 774.81,-79.02 675.92,-71.61"/>
<polygon fill="midnightblue" stroke="midnightblue" points="676.03,-68.1 665.8,-70.85 675.51,-75.09 676.03,-68.1"/>
</g>
<!-- Node19&#45;&gt;Node3 -->
<g id="edge25" class="edge">
<title>Node19&#45;&gt;Node3</title>
<path fill="none" stroke="midnightblue" d="M1463.73,-168.42C1422.75,-151.78 1350.61,-124.73 1286,-112 1170.3,-89.19 820.06,-74.42 675.96,-69.15"/>
<polygon fill="midnightblue" stroke="midnightblue" points="676.07,-65.66 665.95,-68.79 675.81,-72.65 676.07,-65.66"/>
</g>
<!-- Node19&#45;&gt;Node18 -->
<g id="edge26" class="edge">
<title>Node19&#45;&gt;Node18</title>
<path fill="none" stroke="midnightblue" d="M1440.21,-170.6C1388.57,-159.78 1313.07,-143.97 1263.49,-133.58"/>
<polygon fill="midnightblue" stroke="midnightblue" points="1264.14,-130.14 1253.63,-131.51 1262.7,-136.99 1264.14,-130.14"/>
</g>
<!-- Node20&#45;&gt;Node7 -->
<g id="edge30" class="edge">
<title>Node20&#45;&gt;Node7</title>
<path fill="none" stroke="midnightblue" d="M508.21,-173.98C478.41,-163.72 428.21,-146.46 394.6,-134.9"/>
<polygon fill="midnightblue" stroke="midnightblue" points="395.34,-131.45 384.74,-131.51 393.06,-138.07 395.34,-131.45"/>
</g>
<!-- Node20&#45;&gt;Node15 -->
<g id="edge31" class="edge">
<title>Node20&#45;&gt;Node15</title>
<path fill="none" stroke="midnightblue" d="M546.9,-173.98C562.67,-164.3 588.64,-148.37 607.35,-136.89"/>
<polygon fill="midnightblue" stroke="midnightblue" points="609.43,-139.72 616.13,-131.51 605.77,-133.75 609.43,-139.72"/>
</g>
<!-- Node21 -->
<g id="node21" class="node">
<title>Node21</title>
<g id="a_node21"><a xlink:title=" ">
<polygon fill="white" stroke="#bfbfbf" points="240,-112.5 240,-131.5 296,-131.5 296,-112.5 240,-112.5"/>
<text text-anchor="middle" x="268" y="-119.5" font-family="Helvetica,sans-Serif" font-size="10.00">stddef.h</text>
</a>
</g>
</g>
<!-- Node20&#45;&gt;Node21 -->
<g id="edge28" class="edge">
<title>Node20&#45;&gt;Node21</title>
<path fill="none" stroke="midnightblue" d="M495.03,-173.98C444.69,-162.67 356.36,-142.84 306,-131.53"/>
<polygon fill="midnightblue" stroke="midnightblue" points="306.68,-128.1 296.16,-129.32 305.15,-134.93 306.68,-128.1"/>
</g>
<!-- Node23 -->
<g id="node22" class="node">
<title>Node23</title>
<g id="a_node22"><a xlink:title=" ">
<polygon fill="white" stroke="#bfbfbf" points="456.5,-112.5 456.5,-131.5 521.5,-131.5 521.5,-112.5 456.5,-112.5"/>
<text text-anchor="middle" x="489" y="-119.5" font-family="Helvetica,sans-Serif" font-size="10.00">functional</text>
</a>
</g>
</g>
<!-- Node20&#45;&gt;Node23 -->
<g id="edge29" class="edge">
<title>Node20&#45;&gt;Node23</title>
<path fill="none" stroke="midnightblue" d="M526.7,-173.98C520.1,-165.05 509.56,-150.81 501.31,-139.64"/>
<polygon fill="midnightblue" stroke="midnightblue" points="504.05,-137.47 495.29,-131.51 498.42,-141.63 504.05,-137.47"/>
</g>
<!-- Node26&#45;&gt;Node4 -->
<g id="edge37" class="edge">
<title>Node26&#45;&gt;Node4</title>
<path fill="none" stroke="midnightblue" d="M516.27,-468.81C378.15,-469.74 0,-462.73 0,-358 0,-358 0,-358 0,-121 0,-74.82 49.06,-41.43 81.95,-24.23"/>
<polygon fill="midnightblue" stroke="midnightblue" points="83.79,-27.22 91.16,-19.61 80.65,-20.96 83.79,-27.22"/>
</g>
<!-- Node26&#45;&gt;Node5 -->
<g id="edge55" class="edge">
<title>Node26&#45;&gt;Node5</title>
<path fill="none" stroke="midnightblue" d="M516.24,-464.97C446.74,-459.89 325.07,-447.71 289,-423 252.62,-398.08 232.18,-347.88 223.34,-320.63"/>
<polygon fill="midnightblue" stroke="midnightblue" points="226.6,-319.34 220.33,-310.8 219.91,-321.39 226.6,-319.34"/>
</g>
<!-- Node26&#45;&gt;Node6 -->
<g id="edge36" class="edge">
<title>Node26&#45;&gt;Node6</title>
<path fill="none" stroke="midnightblue" d="M516.35,-468.45C454.49,-467.28 346.73,-459.5 263,-423 174.86,-384.58 94.45,-298.18 63.48,-262.2"/>
<polygon fill="midnightblue" stroke="midnightblue" points="66.14,-259.93 57,-254.57 60.8,-264.46 66.14,-259.93"/>
</g>
<!-- Node26&#45;&gt;Node7 -->
<g id="edge38" class="edge">
<title>Node26&#45;&gt;Node7</title>
<path fill="none" stroke="midnightblue" d="M537.9,-459.48C497.78,-445.99 424.06,-416.08 380,-367 320.16,-300.34 336.36,-256.82 348,-168 349.16,-159.18 351.53,-149.63 353.87,-141.61"/>
<polygon fill="midnightblue" stroke="midnightblue" points="357.29,-142.42 356.91,-131.83 350.6,-140.34 357.29,-142.42"/>
</g>
<!-- Node26&#45;&gt;Node9 -->
<g id="edge54" class="edge">
<title>Node26&#45;&gt;Node9</title>
<path fill="none" stroke="midnightblue" d="M579.4,-459.17C592.41,-450.43 612.56,-436.44 629,-423 697.22,-367.25 772.02,-293.46 803.59,-261.67"/>
<polygon fill="midnightblue" stroke="midnightblue" points="806.11,-264.1 810.65,-254.53 801.13,-259.18 806.11,-264.1"/>
</g>
<!-- Node26&#45;&gt;Node11 -->
<g id="edge34" class="edge">
<title>Node26&#45;&gt;Node11</title>
<path fill="none" stroke="midnightblue" d="M615.65,-466.36C748.56,-461.66 1105.63,-446.95 1153,-423 1187.03,-405.8 1209,-396.13 1209,-358 1209,-358 1209,-358 1209,-300 1209,-257.98 1244.9,-219.81 1267.99,-199.61"/>
<polygon fill="midnightblue" stroke="midnightblue" points="1270.43,-202.13 1275.82,-193.01 1265.92,-196.78 1270.43,-202.13"/>
</g>
<!-- Node26&#45;&gt;Node12 -->
<g id="edge35" class="edge">
<title>Node26&#45;&gt;Node12</title>
<path fill="none" stroke="midnightblue" d="M615.96,-467.56C743.62,-465.92 1079.11,-458.29 1184,-423 1234.24,-406.1 1284,-411.01 1284,-358 1284,-358 1284,-358 1284,-300 1284,-258.98 1317.3,-220.68 1338.92,-200.14"/>
<polygon fill="midnightblue" stroke="midnightblue" points="1341.53,-202.5 1346.54,-193.17 1336.8,-197.34 1341.53,-202.5"/>
</g>
<!-- Node27 -->
<g id="node24" class="node">
<title>Node27</title>
<g id="a_node24"><a xlink:title=" ">
<polygon fill="white" stroke="#bfbfbf" points="1080,-403.5 1080,-422.5 1144,-422.5 1144,-403.5 1080,-403.5"/>
<text text-anchor="middle" x="1112" y="-410.5" font-family="Helvetica,sans-Serif" font-size="10.00">algorithm</text>
</a>
</g>
</g>
<!-- Node26&#45;&gt;Node27 -->
<g id="edge33" class="edge">
<title>Node26&#45;&gt;Node27</title>
<path fill="none" stroke="midnightblue" d="M615.52,-465.25C705.53,-459.86 901.84,-446.38 1066,-423 1067.27,-422.82 1068.56,-422.63 1069.85,-422.42"/>
<polygon fill="midnightblue" stroke="midnightblue" points="1070.63,-425.84 1079.9,-420.72 1069.46,-418.94 1070.63,-425.84"/>
</g>
<!-- Node28 -->
<g id="node25" class="node">
<title>Node28</title>
<g id="a_node25"><a xlink:href="hashing_8h.html" target="_top" xlink:title=" ">
<polygon fill="white" stroke="black" points="512.5,-403.5 512.5,-422.5 619.5,-422.5 619.5,-403.5 512.5,-403.5"/>
<text text-anchor="middle" x="566" y="-410.5" font-family="Helvetica,sans-Serif" font-size="10.00">src/base/hashing.h</text>
</a>
</g>
</g>
<!-- Node26&#45;&gt;Node28 -->
<g id="edge39" class="edge">
<title>Node26&#45;&gt;Node28</title>
<path fill="none" stroke="midnightblue" d="M566,-459.08C566,-452.01 566,-441.86 566,-432.99"/>
<polygon fill="midnightblue" stroke="midnightblue" points="569.5,-432.75 566,-422.75 562.5,-432.75 569.5,-432.75"/>
</g>
<!-- Node28&#45;&gt;Node2 -->
<g id="edge47" class="edge">
<title>Node28&#45;&gt;Node2</title>
<path fill="none" stroke="midnightblue" d="M619.66,-411.1C684.22,-408.52 795.02,-399.26 884,-367 1017.23,-318.71 1086.08,-322.82 1155,-199 1161.7,-186.96 1162.19,-179.75 1155,-168 1145.49,-152.46 1128.74,-142.07 1112.38,-135.23"/>
<polygon fill="midnightblue" stroke="midnightblue" points="1113.44,-131.89 1102.85,-131.6 1110.95,-138.43 1113.44,-131.89"/>
</g>
<!-- Node28&#45;&gt;Node5 -->
<g id="edge53" class="edge">
<title>Node28&#45;&gt;Node5</title>
<path fill="none" stroke="midnightblue" d="M515.28,-403.5C474.19,-395.93 415.1,-383.51 365,-367 321.19,-352.56 272.66,-329.67 243.78,-315.26"/>
<polygon fill="midnightblue" stroke="midnightblue" points="245.28,-312.09 234.77,-310.72 242.13,-318.34 245.28,-312.09"/>
</g>
<!-- Node28&#45;&gt;Node7 -->
<g id="edge45" class="edge">
<title>Node28&#45;&gt;Node7</title>
<path fill="none" stroke="midnightblue" d="M512.42,-404C469.55,-396.48 414.17,-383.85 399,-367 340.78,-302.34 350.33,-186.99 356.81,-141.85"/>
<polygon fill="midnightblue" stroke="midnightblue" points="360.27,-142.38 358.35,-131.96 353.35,-141.3 360.27,-142.38"/>
</g>
<!-- Node28&#45;&gt;Node11 -->
<g id="edge43" class="edge">
<title>Node28&#45;&gt;Node11</title>
<path fill="none" stroke="midnightblue" d="M619.68,-409.4C717.99,-404.13 922.98,-390.63 990,-367 1092.2,-330.97 1101.89,-290.44 1195,-235 1217.13,-221.82 1242.87,-207.8 1261.49,-197.88"/>
<polygon fill="midnightblue" stroke="midnightblue" points="1263.32,-200.87 1270.52,-193.1 1260.04,-194.69 1263.32,-200.87"/>
</g>
<!-- Node28&#45;&gt;Node15 -->
<g id="edge46" class="edge">
<title>Node28&#45;&gt;Node15</title>
<path fill="none" stroke="midnightblue" d="M619.69,-407.38C722.71,-397.04 938,-367.58 938,-302 938,-302 938,-302 938,-244 938,-209.18 944.71,-191.48 919,-168 881.99,-134.19 730.17,-125.77 662.64,-123.68"/>
<polygon fill="midnightblue" stroke="midnightblue" points="662.65,-120.18 652.56,-123.4 662.46,-127.18 662.65,-120.18"/>
</g>
<!-- Node28&#45;&gt;Node21 -->
<g id="edge40" class="edge">
<title>Node28&#45;&gt;Node21</title>
<path fill="none" stroke="midnightblue" d="M512.49,-404.83C414.28,-390.7 210.45,-356.67 157,-311 104.33,-266 52.63,-222.8 95,-168 111.33,-146.87 183.89,-133.82 229.69,-127.53"/>
<polygon fill="midnightblue" stroke="midnightblue" points="230.42,-130.96 239.87,-126.18 229.5,-124.02 230.42,-130.96"/>
</g>
<!-- Node28&#45;&gt;Node23 -->
<g id="edge44" class="edge">
<title>Node28&#45;&gt;Node23</title>
<path fill="none" stroke="midnightblue" d="M574.42,-403.39C593.31,-382.99 635.69,-330.47 613,-291 572.5,-220.55 495.5,-269.45 455,-199 443.59,-179.15 459.31,-154.77 472.96,-139.06"/>
<polygon fill="midnightblue" stroke="midnightblue" points="475.54,-141.43 479.76,-131.71 470.4,-136.68 475.54,-141.43"/>
</g>
<!-- Node29 -->
<g id="node26" class="node">
<title>Node29</title>
<g id="a_node26"><a xlink:title=" ">
<polygon fill="white" stroke="#bfbfbf" points="550.5,-291.5 550.5,-310.5 603.5,-310.5 603.5,-291.5 550.5,-291.5"/>
<text text-anchor="middle" x="577" y="-298.5" font-family="Helvetica,sans-Serif" font-size="10.00">stdint.h</text>
</a>
</g>
</g>
<!-- Node28&#45;&gt;Node29 -->
<g id="edge41" class="edge">
<title>Node28&#45;&gt;Node29</title>
<path fill="none" stroke="midnightblue" d="M568.15,-403.44C570.32,-394.44 573.53,-379.82 575,-367 576.77,-351.56 577.21,-333.93 577.25,-320.93"/>
<polygon fill="midnightblue" stroke="midnightblue" points="580.75,-320.85 577.19,-310.87 573.75,-320.88 580.75,-320.85"/>
</g>
<!-- Node30 -->
<g id="node27" class="node">
<title>Node30</title>
<g id="a_node27"><a xlink:title=" ">
<polygon fill="white" stroke="#bfbfbf" points="512.5,-347.5 512.5,-366.5 565.5,-366.5 565.5,-347.5 512.5,-347.5"/>
<text text-anchor="middle" x="539" y="-354.5" font-family="Helvetica,sans-Serif" font-size="10.00">cstddef</text>
</a>
</g>
</g>
<!-- Node28&#45;&gt;Node30 -->
<g id="edge42" class="edge">
<title>Node28&#45;&gt;Node30</title>
<path fill="none" stroke="midnightblue" d="M561.54,-403.08C557.85,-395.69 552.48,-384.95 547.91,-375.81"/>
<polygon fill="midnightblue" stroke="midnightblue" points="550.98,-374.13 543.38,-366.75 544.72,-377.26 550.98,-374.13"/>
</g>
<!-- Node31 -->
<g id="node28" class="node">
<title>Node31</title>
<g id="a_node28"><a xlink:href="bits_8h.html" target="_top" xlink:title=" ">
<polygon fill="white" stroke="black" points="407.5,-347.5 407.5,-366.5 494.5,-366.5 494.5,-347.5 407.5,-347.5"/>
<text text-anchor="middle" x="451" y="-354.5" font-family="Helvetica,sans-Serif" font-size="10.00">src/base/bits.h</text>
</a>
</g>
</g>
<!-- Node28&#45;&gt;Node31 -->
<g id="edge48" class="edge">
<title>Node28&#45;&gt;Node31</title>
<path fill="none" stroke="midnightblue" d="M547.78,-403.44C529.1,-394.68 499.84,-380.94 478.38,-370.86"/>
<polygon fill="midnightblue" stroke="midnightblue" points="479.68,-367.6 469.14,-366.52 476.7,-373.93 479.68,-367.6"/>
</g>
<!-- Node31&#45;&gt;Node2 -->
<g id="edge51" class="edge">
<title>Node31&#45;&gt;Node2</title>
<path fill="none" stroke="midnightblue" d="M459.63,-347.42C474.8,-332.94 507.88,-303.96 542,-291 683.64,-237.2 731.77,-281.22 881,-255 917.52,-248.58 925.82,-243.14 962,-235 1040.32,-217.37 1088.21,-261.16 1139,-199 1147.72,-188.33 1145.68,-180.05 1139,-168 1130.91,-153.41 1115.9,-142.92 1101.66,-135.76"/>
<polygon fill="midnightblue" stroke="midnightblue" points="1103.05,-132.55 1092.5,-131.53 1100.11,-138.9 1103.05,-132.55"/>
</g>
<!-- Node31&#45;&gt;Node5 -->
<g id="edge52" class="edge">
<title>Node31&#45;&gt;Node5</title>
<path fill="none" stroke="midnightblue" d="M414.08,-347.44C373.6,-338.06 308.58,-322.99 264.62,-312.8"/>
<polygon fill="midnightblue" stroke="midnightblue" points="265.28,-309.36 254.75,-310.52 263.7,-316.18 265.28,-309.36"/>
</g>
<!-- Node31&#45;&gt;Node7 -->
<g id="edge50" class="edge">
<title>Node31&#45;&gt;Node7</title>
<path fill="none" stroke="midnightblue" d="M447.65,-347.43C434.45,-313.61 385.76,-188.95 367.22,-141.5"/>
<polygon fill="midnightblue" stroke="midnightblue" points="370.37,-139.94 363.47,-131.9 363.85,-142.48 370.37,-139.94"/>
</g>
<!-- Node31&#45;&gt;Node29 -->
<g id="edge49" class="edge">
<title>Node31&#45;&gt;Node29</title>
<path fill="none" stroke="midnightblue" d="M470.97,-347.44C491.61,-338.6 524.06,-324.69 547.63,-314.59"/>
<polygon fill="midnightblue" stroke="midnightblue" points="549.32,-317.67 557.13,-310.52 546.56,-311.24 549.32,-317.67"/>
</g>
</g>
</svg>
        <g id="navigator" transform="translate(0 0)" fill="#404254">
                <rect fill="#f2f5e9" fill-opacity="0.5" stroke="#606060" stroke-width=".5" x="0" y="0" width="60" height="60"/>
                <use id="zoomplus" xlink:href="#zoomPlus" x="17" y="9" onmousedown="handleZoom(evt,'in')"/>
                <use id="zoomminus" xlink:href="#zoomMin" x="42" y="9" onmousedown="handleZoom(evt,'out')"/>
                <use id="reset" xlink:href="#resetDef" x="30" y="36" onmousedown="handleReset()"/>
                <g id="arrowUp" xlink:href="#dirArrow" transform="translate(30 24)" onmousedown="handlePan(0,-1)">
                  <use xlink:href="#rim" fill="#404040">
                        <set attributeName="fill" to="#808080" begin="arrowUp.mouseover" end="arrowUp.mouseout"/>
                  </use>
                  <path fill="none" stroke="white" stroke-width="1.5" d="M0,-3.0v7 M-2.5,-0.5L0,-3.0L2.5,-0.5"/>
                </g>
                <g id="arrowRight" xlink:href="#dirArrow" transform="rotate(90) translate(36 -43)" onmousedown="handlePan(1,0)">
                  <use xlink:href="#rim" fill="#404040">
                        <set attributeName="fill" to="#808080" begin="arrowRight.mouseover" end="arrowRight.mouseout"/>
                  </use>
                  <path fill="none" stroke="white" stroke-width="1.5" d="M0,-3.0v7 M-2.5,-0.5L0,-3.0L2.5,-0.5"/>
                </g>
                <g id="arrowDown" xlink:href="#dirArrow" transform="rotate(180) translate(-30 -48)" onmousedown="handlePan(0,1)">
                  <use xlink:href="#rim" fill="#404040">
                        <set attributeName="fill" to="#808080" begin="arrowDown.mouseover" end="arrowDown.mouseout"/>
                  </use>
                  <path fill="none" stroke="white" stroke-width="1.5" d="M0,-3.0v7 M-2.5,-0.5L0,-3.0L2.5,-0.5"/>
                </g>
                <g id="arrowLeft" xlink:href="#dirArrow" transform="rotate(270) translate(-36 17)" onmousedown="handlePan(-1,0)">
                  <use xlink:href="#rim" fill="#404040">
                        <set attributeName="fill" to="#808080" begin="arrowLeft.mouseover" end="arrowLeft.mouseout"/>
                  </use>
                  <path fill="none" stroke="white" stroke-width="1.5" d="M0,-3.0v7 M-2.5,-0.5L0,-3.0L2.5,-0.5"/>
                </g>
        </g>
        <svg viewBox="0 0 15 15" width="100%" height="30px" preserveAspectRatio="xMaxYMin meet">
         <g id="arrow_out" transform="scale(0.3 0.3)">
          <a xlink:href="strings_8h__incl_org.svg" target="_base">
           <rect id="button" ry="5" rx="5" y="6" x="6" height="38" width="38"
                fill="#f2f5e9" fill-opacity="0.5" stroke="#606060" stroke-width="1.0"/>
           <path id="arrow"
             d="M 11.500037,31.436501 C 11.940474,20.09759 22.043105,11.32322 32.158766,21.979434 L 37.068811,17.246167 C 37.068811,17.246167 37.088388,32 37.088388,32 L 22.160133,31.978069 C 22.160133,31.978069 26.997745,27.140456 26.997745,27.140456 C 18.528582,18.264221 13.291696,25.230495 11.500037,31.436501 z"
             style="fill:#404040;"/>
          </a>
         </g>
        </svg>
</svg>
