<?xml version="1.0" encoding="UTF-8" standalone="no"?>
<!DOCTYPE svg PUBLIC "-//W3C//DTD SVG 1.1//EN"
 "http://www.w3.org/Graphics/SVG/1.1/DTD/svg11.dtd">
<!-- Generated by graphviz version 2.43.0 (0)
 -->
<!-- Title: cppgc::internal::PreFinalizer Pages: 1 -->
<svg width="160pt" height="171pt"
 viewBox="0.00 0.00 160.00 171.00" xmlns="http://www.w3.org/2000/svg" xmlns:xlink="http://www.w3.org/1999/xlink">
<g id="graph0" class="graph" transform="scale(1 1) rotate(0) translate(4 167)">
<title>cppgc::internal::PreFinalizer</title>
<polygon fill="white" stroke="transparent" points="-4,4 -4,-167 156,-167 156,4 -4,4"/>
<!-- Node1 -->
<g id="node1" class="node">
<title>Node1</title>
<g id="a_node1"><a xlink:title=" ">
<polygon fill="#bfbfbf" stroke="black" points="0,-0.5 0,-57.5 152,-57.5 152,-0.5 0,-0.5"/>
<text text-anchor="middle" x="76" y="-45.5" font-family="Helvetica,sans-Serif" font-size="10.00">cppgc::internal::PreFinalizer</text>
<polyline fill="none" stroke="black" points="0,-38.5 152,-38.5 "/>
<text text-anchor="middle" x="76" y="-26.5" font-family="Helvetica,sans-Serif" font-size="10.00"> </text>
<polyline fill="none" stroke="black" points="0,-19.5 152,-19.5 "/>
<text text-anchor="start" x="8" y="-7.5" font-family="Helvetica,sans-Serif" font-size="10.00">+ operator==()</text>
</a>
</g>
</g>
<!-- Node2 -->
<g id="node2" class="node">
<title>Node2</title>
<g id="a_node2"><a xlink:title=" ">
<polygon fill="white" stroke="#bfbfbf" points="9.5,-105.5 9.5,-162.5 68.5,-162.5 68.5,-105.5 9.5,-105.5"/>
<text text-anchor="middle" x="39" y="-150.5" font-family="Helvetica,sans-Serif" font-size="10.00">Callback</text>
<polyline fill="none" stroke="#bfbfbf" points="9.5,-143.5 68.5,-143.5 "/>
<text text-anchor="middle" x="39" y="-131.5" font-family="Helvetica,sans-Serif" font-size="10.00"> </text>
<polyline fill="none" stroke="#bfbfbf" points="9.5,-124.5 68.5,-124.5 "/>
<text text-anchor="middle" x="39" y="-112.5" font-family="Helvetica,sans-Serif" font-size="10.00"> </text>
</a>
</g>
</g>
<!-- Node2&#45;&gt;Node1 -->
<g id="edge1" class="edge">
<title>Node2&#45;&gt;Node1</title>
<path fill="none" stroke="#404040" d="M35.97,-105.4C35.83,-95.85 36.73,-85.23 40,-76 40.96,-73.3 42.14,-70.63 43.49,-68.03"/>
<polygon fill="none" stroke="#404040" points="43.54,-67.95 43.27,-60.75 49.82,-57.73 50.09,-64.93 43.54,-67.95"/>
<text text-anchor="middle" x="66" y="-79" font-family="Helvetica,sans-Serif" font-size="10.00"> +callback</text>
</g>
<!-- Node3 -->
<g id="node3" class="node">
<title>Node3</title>
<g id="a_node3"><a xlink:title=" ">
<polygon fill="white" stroke="#bfbfbf" points="91,-105.5 91,-162.5 137,-162.5 137,-105.5 91,-105.5"/>
<text text-anchor="middle" x="114" y="-150.5" font-family="Helvetica,sans-Serif" font-size="10.00">void *</text>
<polyline fill="none" stroke="#bfbfbf" points="91,-143.5 137,-143.5 "/>
<text text-anchor="middle" x="114" y="-131.5" font-family="Helvetica,sans-Serif" font-size="10.00"> </text>
<polyline fill="none" stroke="#bfbfbf" points="91,-124.5 137,-124.5 "/>
<text text-anchor="middle" x="114" y="-112.5" font-family="Helvetica,sans-Serif" font-size="10.00"> </text>
</a>
</g>
</g>
<!-- Node3&#45;&gt;Node1 -->
<g id="edge2" class="edge">
<title>Node3&#45;&gt;Node1</title>
<path fill="none" stroke="#404040" d="M103.82,-105.4C99.73,-94.31 94.94,-81.33 90.5,-69.3"/>
<polygon fill="none" stroke="#404040" points="90.37,-68.94 84.54,-64.69 86.21,-57.68 92.04,-61.92 90.37,-68.94"/>
<text text-anchor="middle" x="117" y="-79" font-family="Helvetica,sans-Serif" font-size="10.00"> +object</text>
</g>
</g>
</svg>
