<?xml version="1.0" encoding="UTF-8" standalone="no"?>
<!DOCTYPE svg PUBLIC "-//W3C//DTD SVG 1.1//EN"
 "http://www.w3.org/Graphics/SVG/1.1/DTD/svg11.dtd">
<!-- Generated by graphviz version 2.43.0 (0)
 -->
<!-- Title: v8::internal::torque::LocationExpression Pages: 1 -->
<!--zoomable 480 -->
<svg id="main" version="1.1" xmlns="http://www.w3.org/2000/svg" xmlns:xlink="http://www.w3.org/1999/xlink" xml:space="preserve" onload="init(evt)">
<style type="text/css"><![CDATA[
.edge:hover path { stroke: red; }
.edge:hover polygon { stroke: red; fill: red; }
]]></style>
<script type="text/javascript"><![CDATA[
var edges = document.getElementsByTagName('g');
if (edges && edges.length) {
  for (var i=0;i<edges.length;i++) {
    if (edges[i].id.substr(0,4)=='edge') {
      edges[i].setAttribute('class','edge');
    }
  }
}
]]></script>
        <defs>
                <circle id="rim" cx="0" cy="0" r="7"/>
                <circle id="rim2" cx="0" cy="0" r="3.5"/>
                <g id="zoomPlus">
                        <use xlink:href="#rim" fill="#404040">
                                <set attributeName="fill" to="#808080" begin="zoomplus.mouseover" end="zoomplus.mouseout"/>
                        </use>
                        <path d="M-4,0h8M0,-4v8" fill="none" stroke="white" stroke-width="1.5" pointer-events="none"/>
                </g>
                <g id="zoomMin">
                        <use xlink:href="#rim" fill="#404040">
                                <set attributeName="fill" to="#808080" begin="zoomminus.mouseover" end="zoomminus.mouseout"/>
                        </use>
                        <path d="M-4,0h8" fill="none" stroke="white" stroke-width="1.5" pointer-events="none"/>
                </g>
                <g id="dirArrow">
                        <path fill="none" stroke="white" stroke-width="1.5" d="M0,-3.0v7 M-2.5,-0.5L0,-3.0L2.5,-0.5"/>
                </g>
               <g id="resetDef">
                       <use xlink:href="#rim2" fill="#404040">
                               <set attributeName="fill" to="#808080" begin="reset.mouseover" end="reset.mouseout"/>
                       </use>
               </g>
        </defs>

<script type="text/javascript">
var viewWidth = 670;
var viewHeight = 480;
var sectionId = 'dynsection-0';
</script>
<script xlink:href="svgpan.js"/>
<svg id="graph" class="graph">
<g id="viewport">
<title>v8::internal::torque::LocationExpression</title>
<polygon fill="white" stroke="transparent" points="-4,4 -4,-476 666,-476 666,4 -4,4"/>
<!-- Node1 -->
<g id="node1" class="node">
<title>Node1</title>
<g id="a_node1"><a xlink:title=" ">
<polygon fill="#bfbfbf" stroke="black" points="269.5,-160.5 269.5,-228.5 399.5,-228.5 399.5,-160.5 269.5,-160.5"/>
<text text-anchor="start" x="277.5" y="-216.5" font-family="Helvetica,sans-Serif" font-size="10.00">v8::internal::torque</text>
<text text-anchor="middle" x="334.5" y="-205.5" font-family="Helvetica,sans-Serif" font-size="10.00">::LocationExpression</text>
<polyline fill="none" stroke="black" points="269.5,-198.5 399.5,-198.5 "/>
<text text-anchor="middle" x="334.5" y="-186.5" font-family="Helvetica,sans-Serif" font-size="10.00"> </text>
<polyline fill="none" stroke="black" points="269.5,-179.5 399.5,-179.5 "/>
<text text-anchor="start" x="277.5" y="-167.5" font-family="Helvetica,sans-Serif" font-size="10.00">+ LocationExpression()</text>
</a>
</g>
</g>
<!-- Node4 -->
<g id="node4" class="node">
<title>Node4</title>
<g id="a_node4"><a xlink:href="structv8_1_1internal_1_1torque_1_1DereferenceExpression.html" target="_top" xlink:title=" ">
<polygon fill="white" stroke="black" points="0,-22.5 0,-101.5 149,-101.5 149,-22.5 0,-22.5"/>
<text text-anchor="start" x="8" y="-89.5" font-family="Helvetica,sans-Serif" font-size="10.00">v8::internal::torque</text>
<text text-anchor="middle" x="74.5" y="-78.5" font-family="Helvetica,sans-Serif" font-size="10.00">::DereferenceExpression</text>
<polyline fill="none" stroke="black" points="0,-71.5 149,-71.5 "/>
<text text-anchor="start" x="8" y="-59.5" font-family="Helvetica,sans-Serif" font-size="10.00">+ reference</text>
<polyline fill="none" stroke="black" points="0,-52.5 149,-52.5 "/>
<text text-anchor="start" x="8" y="-40.5" font-family="Helvetica,sans-Serif" font-size="10.00">+ DereferenceExpression()</text>
<text text-anchor="start" x="8" y="-29.5" font-family="Helvetica,sans-Serif" font-size="10.00">+ VisitAllSubExpressions()</text>
</a>
</g>
</g>
<!-- Node1&#45;&gt;Node4 -->
<g id="edge3" class="edge">
<title>Node1&#45;&gt;Node4</title>
<path fill="none" stroke="midnightblue" d="M259.37,-168.9C227.14,-157.12 189.59,-141.7 157.5,-124 145.76,-117.52 133.77,-109.61 122.69,-101.65"/>
<polygon fill="none" stroke="midnightblue" points="258.6,-172.35 269.19,-172.44 260.97,-165.76 258.6,-172.35"/>
</g>
<!-- Node5 -->
<g id="node5" class="node">
<title>Node5</title>
<g id="a_node5"><a xlink:href="structv8_1_1internal_1_1torque_1_1ElementAccessExpression.html" target="_top" xlink:title=" ">
<polygon fill="white" stroke="black" points="167,-17 167,-107 330,-107 330,-17 167,-17"/>
<text text-anchor="start" x="175" y="-95" font-family="Helvetica,sans-Serif" font-size="10.00">v8::internal::torque</text>
<text text-anchor="middle" x="248.5" y="-84" font-family="Helvetica,sans-Serif" font-size="10.00">::ElementAccessExpression</text>
<polyline fill="none" stroke="black" points="167,-77 330,-77 "/>
<text text-anchor="start" x="175" y="-65" font-family="Helvetica,sans-Serif" font-size="10.00">+ array</text>
<text text-anchor="start" x="175" y="-54" font-family="Helvetica,sans-Serif" font-size="10.00">+ index</text>
<polyline fill="none" stroke="black" points="167,-47 330,-47 "/>
<text text-anchor="start" x="175" y="-35" font-family="Helvetica,sans-Serif" font-size="10.00">+ ElementAccessExpression()</text>
<text text-anchor="start" x="175" y="-24" font-family="Helvetica,sans-Serif" font-size="10.00">+ VisitAllSubExpressions()</text>
</a>
</g>
</g>
<!-- Node1&#45;&gt;Node5 -->
<g id="edge4" class="edge">
<title>Node1&#45;&gt;Node5</title>
<path fill="none" stroke="midnightblue" d="M306.9,-151.62C297.52,-137.39 287.02,-121.45 277.53,-107.05"/>
<polygon fill="none" stroke="midnightblue" points="304.15,-153.81 312.58,-160.23 310,-149.96 304.15,-153.81"/>
</g>
<!-- Node6 -->
<g id="node6" class="node">
<title>Node6</title>
<g id="a_node6"><a xlink:href="structv8_1_1internal_1_1torque_1_1FieldAccessExpression.html" target="_top" xlink:title=" ">
<polygon fill="white" stroke="black" points="348.5,-17 348.5,-107 494.5,-107 494.5,-17 348.5,-17"/>
<text text-anchor="start" x="356.5" y="-95" font-family="Helvetica,sans-Serif" font-size="10.00">v8::internal::torque</text>
<text text-anchor="middle" x="421.5" y="-84" font-family="Helvetica,sans-Serif" font-size="10.00">::FieldAccessExpression</text>
<polyline fill="none" stroke="black" points="348.5,-77 494.5,-77 "/>
<text text-anchor="start" x="356.5" y="-65" font-family="Helvetica,sans-Serif" font-size="10.00">+ object</text>
<text text-anchor="start" x="356.5" y="-54" font-family="Helvetica,sans-Serif" font-size="10.00">+ field</text>
<polyline fill="none" stroke="black" points="348.5,-47 494.5,-47 "/>
<text text-anchor="start" x="356.5" y="-35" font-family="Helvetica,sans-Serif" font-size="10.00">+ FieldAccessExpression()</text>
<text text-anchor="start" x="356.5" y="-24" font-family="Helvetica,sans-Serif" font-size="10.00">+ VisitAllSubExpressions()</text>
</a>
</g>
</g>
<!-- Node1&#45;&gt;Node6 -->
<g id="edge5" class="edge">
<title>Node1&#45;&gt;Node6</title>
<path fill="none" stroke="midnightblue" d="M362.42,-151.62C371.91,-137.39 382.54,-121.45 392.13,-107.05"/>
<polygon fill="none" stroke="midnightblue" points="359.31,-149.97 356.68,-160.23 365.14,-153.85 359.31,-149.97"/>
</g>
<!-- Node7 -->
<g id="node7" class="node">
<title>Node7</title>
<g id="a_node7"><a xlink:href="structv8_1_1internal_1_1torque_1_1IdentifierExpression.html" target="_top" xlink:title=" ">
<polygon fill="white" stroke="black" points="513,-0.5 513,-123.5 662,-123.5 662,-0.5 513,-0.5"/>
<text text-anchor="start" x="521" y="-111.5" font-family="Helvetica,sans-Serif" font-size="10.00">v8::internal::torque</text>
<text text-anchor="middle" x="587.5" y="-100.5" font-family="Helvetica,sans-Serif" font-size="10.00">::IdentifierExpression</text>
<polyline fill="none" stroke="black" points="513,-93.5 662,-93.5 "/>
<text text-anchor="start" x="521" y="-81.5" font-family="Helvetica,sans-Serif" font-size="10.00">+ namespace_qualification</text>
<text text-anchor="start" x="521" y="-70.5" font-family="Helvetica,sans-Serif" font-size="10.00">+ name</text>
<text text-anchor="start" x="521" y="-59.5" font-family="Helvetica,sans-Serif" font-size="10.00">+ generic_arguments</text>
<polyline fill="none" stroke="black" points="513,-52.5 662,-52.5 "/>
<text text-anchor="start" x="521" y="-40.5" font-family="Helvetica,sans-Serif" font-size="10.00">+ IdentifierExpression()</text>
<text text-anchor="start" x="521" y="-29.5" font-family="Helvetica,sans-Serif" font-size="10.00">+ IdentifierExpression()</text>
<text text-anchor="start" x="521" y="-18.5" font-family="Helvetica,sans-Serif" font-size="10.00">+ IsThis()</text>
<text text-anchor="start" x="521" y="-7.5" font-family="Helvetica,sans-Serif" font-size="10.00">+ VisitAllSubExpressions()</text>
</a>
</g>
</g>
<!-- Node1&#45;&gt;Node7 -->
<g id="edge6" class="edge">
<title>Node1&#45;&gt;Node7</title>
<path fill="none" stroke="midnightblue" d="M409.17,-167.21C439.23,-155.51 473.76,-140.6 503.5,-124 506.65,-122.24 509.82,-120.39 512.98,-118.46"/>
<polygon fill="none" stroke="midnightblue" points="407.65,-164.05 399.58,-170.9 410.17,-170.58 407.65,-164.05"/>
</g>
<!-- Node2 -->
<g id="node2" class="node">
<title>Node2</title>
<g id="a_node2"><a xlink:href="structv8_1_1internal_1_1torque_1_1Expression.html" target="_top" xlink:title=" ">
<polygon fill="white" stroke="black" points="261.5,-265.5 261.5,-344.5 407.5,-344.5 407.5,-265.5 261.5,-265.5"/>
<text text-anchor="start" x="269.5" y="-332.5" font-family="Helvetica,sans-Serif" font-size="10.00">v8::internal::torque</text>
<text text-anchor="middle" x="334.5" y="-321.5" font-family="Helvetica,sans-Serif" font-size="10.00">::Expression</text>
<polyline fill="none" stroke="black" points="261.5,-314.5 407.5,-314.5 "/>
<text text-anchor="middle" x="334.5" y="-302.5" font-family="Helvetica,sans-Serif" font-size="10.00"> </text>
<polyline fill="none" stroke="black" points="261.5,-295.5 407.5,-295.5 "/>
<text text-anchor="start" x="269.5" y="-283.5" font-family="Helvetica,sans-Serif" font-size="10.00">+ Expression()</text>
<text text-anchor="start" x="269.5" y="-272.5" font-family="Helvetica,sans-Serif" font-size="10.00">+ VisitAllSubExpressions()</text>
</a>
</g>
</g>
<!-- Node2&#45;&gt;Node1 -->
<g id="edge1" class="edge">
<title>Node2&#45;&gt;Node1</title>
<path fill="none" stroke="midnightblue" d="M334.5,-255.35C334.5,-246.28 334.5,-237 334.5,-228.54"/>
<polygon fill="none" stroke="midnightblue" points="331,-255.44 334.5,-265.44 338,-255.44 331,-255.44"/>
</g>
<!-- Node3 -->
<g id="node3" class="node">
<title>Node3</title>
<g id="a_node3"><a xlink:href="structv8_1_1internal_1_1torque_1_1AstNode.html" target="_top" xlink:title=" ">
<polygon fill="white" stroke="black" points="279.5,-381.5 279.5,-471.5 389.5,-471.5 389.5,-381.5 279.5,-381.5"/>
<text text-anchor="start" x="287.5" y="-459.5" font-family="Helvetica,sans-Serif" font-size="10.00">v8::internal::torque</text>
<text text-anchor="middle" x="334.5" y="-448.5" font-family="Helvetica,sans-Serif" font-size="10.00">::AstNode</text>
<polyline fill="none" stroke="black" points="279.5,-441.5 389.5,-441.5 "/>
<text text-anchor="start" x="287.5" y="-429.5" font-family="Helvetica,sans-Serif" font-size="10.00">+ kind</text>
<text text-anchor="start" x="287.5" y="-418.5" font-family="Helvetica,sans-Serif" font-size="10.00">+ pos</text>
<polyline fill="none" stroke="black" points="279.5,-411.5 389.5,-411.5 "/>
<text text-anchor="start" x="287.5" y="-399.5" font-family="Helvetica,sans-Serif" font-size="10.00">+ AstNode()</text>
<text text-anchor="start" x="287.5" y="-388.5" font-family="Helvetica,sans-Serif" font-size="10.00">+ ~AstNode()</text>
</a>
</g>
</g>
<!-- Node3&#45;&gt;Node2 -->
<g id="edge2" class="edge">
<title>Node3&#45;&gt;Node2</title>
<path fill="none" stroke="midnightblue" d="M334.5,-371.08C334.5,-362.23 334.5,-353.23 334.5,-344.86"/>
<polygon fill="none" stroke="midnightblue" points="331,-371.34 334.5,-381.34 338,-371.34 331,-371.34"/>
</g>
</g>
</svg>
        <g id="navigator" transform="translate(0 0)" fill="#404254">
                <rect fill="#f2f5e9" fill-opacity="0.5" stroke="#606060" stroke-width=".5" x="0" y="0" width="60" height="60"/>
                <use id="zoomplus" xlink:href="#zoomPlus" x="17" y="9" onmousedown="handleZoom(evt,'in')"/>
                <use id="zoomminus" xlink:href="#zoomMin" x="42" y="9" onmousedown="handleZoom(evt,'out')"/>
                <use id="reset" xlink:href="#resetDef" x="30" y="36" onmousedown="handleReset()"/>
                <g id="arrowUp" xlink:href="#dirArrow" transform="translate(30 24)" onmousedown="handlePan(0,-1)">
                  <use xlink:href="#rim" fill="#404040">
                        <set attributeName="fill" to="#808080" begin="arrowUp.mouseover" end="arrowUp.mouseout"/>
                  </use>
                  <path fill="none" stroke="white" stroke-width="1.5" d="M0,-3.0v7 M-2.5,-0.5L0,-3.0L2.5,-0.5"/>
                </g>
                <g id="arrowRight" xlink:href="#dirArrow" transform="rotate(90) translate(36 -43)" onmousedown="handlePan(1,0)">
                  <use xlink:href="#rim" fill="#404040">
                        <set attributeName="fill" to="#808080" begin="arrowRight.mouseover" end="arrowRight.mouseout"/>
                  </use>
                  <path fill="none" stroke="white" stroke-width="1.5" d="M0,-3.0v7 M-2.5,-0.5L0,-3.0L2.5,-0.5"/>
                </g>
                <g id="arrowDown" xlink:href="#dirArrow" transform="rotate(180) translate(-30 -48)" onmousedown="handlePan(0,1)">
                  <use xlink:href="#rim" fill="#404040">
                        <set attributeName="fill" to="#808080" begin="arrowDown.mouseover" end="arrowDown.mouseout"/>
                  </use>
                  <path fill="none" stroke="white" stroke-width="1.5" d="M0,-3.0v7 M-2.5,-0.5L0,-3.0L2.5,-0.5"/>
                </g>
                <g id="arrowLeft" xlink:href="#dirArrow" transform="rotate(270) translate(-36 17)" onmousedown="handlePan(-1,0)">
                  <use xlink:href="#rim" fill="#404040">
                        <set attributeName="fill" to="#808080" begin="arrowLeft.mouseover" end="arrowLeft.mouseout"/>
                  </use>
                  <path fill="none" stroke="white" stroke-width="1.5" d="M0,-3.0v7 M-2.5,-0.5L0,-3.0L2.5,-0.5"/>
                </g>
        </g>
        <svg viewBox="0 0 15 15" width="100%" height="30px" preserveAspectRatio="xMaxYMin meet">
         <g id="arrow_out" transform="scale(0.3 0.3)">
          <a xlink:href="structv8_1_1internal_1_1torque_1_1LocationExpression__inherit__graph_org.svg" target="_base">
           <rect id="button" ry="5" rx="5" y="6" x="6" height="38" width="38"
                fill="#f2f5e9" fill-opacity="0.5" stroke="#606060" stroke-width="1.0"/>
           <path id="arrow"
             d="M 11.500037,31.436501 C 11.940474,20.09759 22.043105,11.32322 32.158766,21.979434 L 37.068811,17.246167 C 37.068811,17.246167 37.088388,32 37.088388,32 L 22.160133,31.978069 C 22.160133,31.978069 26.997745,27.140456 26.997745,27.140456 C 18.528582,18.264221 13.291696,25.230495 11.500037,31.436501 z"
             style="fill:#404040;"/>
          </a>
         </g>
        </svg>
</svg>
