<?xml version="1.0" encoding="UTF-8" standalone="no"?>
<!DOCTYPE svg PUBLIC "-//W3C//DTD SVG 1.1//EN"
 "http://www.w3.org/Graphics/SVG/1.1/DTD/svg11.dtd">
<!-- Generated by graphviz version 2.43.0 (0)
 -->
<!-- Title: v8::internal::compiler::turboshaft::TaggedBitcastOp::Validate Pages: 1 -->
<svg width="954pt" height="516pt"
 viewBox="0.00 0.00 954.00 516.00" xmlns="http://www.w3.org/2000/svg" xmlns:xlink="http://www.w3.org/1999/xlink">
<g id="graph0" class="graph" transform="scale(1 1) rotate(0) translate(4 512)">
<title>v8::internal::compiler::turboshaft::TaggedBitcastOp::Validate</title>
<polygon fill="white" stroke="transparent" points="-4,4 -4,-512 950,-512 950,4 -4,4"/>
<!-- Node1 -->
<g id="node1" class="node">
<title>Node1</title>
<g id="a_node1"><a xlink:title=" ">
<polygon fill="#bfbfbf" stroke="black" points="0,-270.5 0,-311.5 160,-311.5 160,-270.5 0,-270.5"/>
<text text-anchor="start" x="8" y="-299.5" font-family="Helvetica,sans-Serif" font-size="10.00">v8::internal::compiler</text>
<text text-anchor="start" x="8" y="-288.5" font-family="Helvetica,sans-Serif" font-size="10.00">::turboshaft::TaggedBitcastOp</text>
<text text-anchor="middle" x="80" y="-277.5" font-family="Helvetica,sans-Serif" font-size="10.00">::Validate</text>
</a>
</g>
</g>
<!-- Node2 -->
<g id="node2" class="node">
<title>Node2</title>
<g id="a_node2"><a xlink:href="classv8_1_1internal_1_1compiler_1_1turboshaft_1_1RegisterRepresentation.html#a373ec17b6f087f2ea8549305d9eddaed" target="_top" xlink:title=" ">
<polygon fill="white" stroke="black" points="212.5,-466.5 212.5,-507.5 405.5,-507.5 405.5,-466.5 212.5,-466.5"/>
<text text-anchor="start" x="220.5" y="-495.5" font-family="Helvetica,sans-Serif" font-size="10.00">v8::internal::compiler</text>
<text text-anchor="start" x="220.5" y="-484.5" font-family="Helvetica,sans-Serif" font-size="10.00">::turboshaft::RegisterRepresentation</text>
<text text-anchor="middle" x="309" y="-473.5" font-family="Helvetica,sans-Serif" font-size="10.00">::Compressed</text>
</a>
</g>
</g>
<!-- Node1&#45;&gt;Node2 -->
<g id="edge1" class="edge">
<title>Node1&#45;&gt;Node2</title>
<path fill="none" stroke="midnightblue" d="M89.5,-311.6C105.15,-346.94 141.96,-418.96 196,-457 198.39,-458.68 200.87,-460.27 203.43,-461.77"/>
<polygon fill="midnightblue" stroke="midnightblue" points="201.88,-464.92 212.35,-466.54 205.18,-458.74 201.88,-464.92"/>
</g>
<!-- Node4 -->
<g id="node4" class="node">
<title>Node4</title>
<g id="a_node4"><a xlink:href="namespacev8_1_1internal.html#aa6b3743bd5d773c552654f2a6c3efa4a" target="_top" xlink:title=" ">
<polygon fill="white" stroke="black" points="249.5,-428.5 249.5,-447.5 368.5,-447.5 368.5,-428.5 249.5,-428.5"/>
<text text-anchor="middle" x="309" y="-435.5" font-family="Helvetica,sans-Serif" font-size="10.00">v8::internal::DCHECK</text>
</a>
</g>
</g>
<!-- Node1&#45;&gt;Node4 -->
<g id="edge3" class="edge">
<title>Node1&#45;&gt;Node4</title>
<path fill="none" stroke="midnightblue" d="M93.24,-311.77C111.6,-340.9 149.16,-393.2 196,-419 209.12,-426.23 224.32,-430.84 239.21,-433.75"/>
<polygon fill="midnightblue" stroke="midnightblue" points="238.98,-437.26 249.43,-435.51 240.17,-430.36 238.98,-437.26"/>
</g>
<!-- Node5 -->
<g id="node5" class="node">
<title>Node5</title>
<g id="a_node5"><a xlink:href="namespacev8_1_1internal.html#ac7063de1812b016c514e476bb2344dc4" target="_top" xlink:title=" ">
<polygon fill="white" stroke="black" points="260,-390.5 260,-409.5 358,-409.5 358,-390.5 260,-390.5"/>
<text text-anchor="middle" x="309" y="-397.5" font-family="Helvetica,sans-Serif" font-size="10.00">v8::internal::Is64</text>
</a>
</g>
</g>
<!-- Node1&#45;&gt;Node5 -->
<g id="edge4" class="edge">
<title>Node1&#45;&gt;Node5</title>
<path fill="none" stroke="midnightblue" d="M100.93,-311.78C122.36,-332.77 158.43,-364.4 196,-381 212.66,-388.36 231.88,-392.89 249.65,-395.66"/>
<polygon fill="midnightblue" stroke="midnightblue" points="249.52,-399.18 259.91,-397.1 250.49,-392.24 249.52,-399.18"/>
</g>
<!-- Node6 -->
<g id="node6" class="node">
<title>Node6</title>
<g id="a_node6"><a xlink:href="classv8_1_1internal_1_1compiler_1_1turboshaft_1_1MaybeRegisterRepresentation.html#aae439f9a1eddefdafaa87a62d511ce83" target="_top" xlink:title=" ">
<polygon fill="white" stroke="black" points="196,-330.5 196,-371.5 422,-371.5 422,-330.5 196,-330.5"/>
<text text-anchor="start" x="204" y="-359.5" font-family="Helvetica,sans-Serif" font-size="10.00">v8::internal::compiler</text>
<text text-anchor="start" x="204" y="-348.5" font-family="Helvetica,sans-Serif" font-size="10.00">::turboshaft::MaybeRegisterRepresentation</text>
<text text-anchor="middle" x="309" y="-337.5" font-family="Helvetica,sans-Serif" font-size="10.00">::IsTaggedOrCompressed</text>
</a>
</g>
</g>
<!-- Node1&#45;&gt;Node6 -->
<g id="edge5" class="edge">
<title>Node1&#45;&gt;Node6</title>
<path fill="none" stroke="midnightblue" d="M158.8,-311.56C178.66,-316.81 200.13,-322.49 220.44,-327.86"/>
<polygon fill="midnightblue" stroke="midnightblue" points="219.74,-331.29 230.3,-330.46 221.53,-324.52 219.74,-331.29"/>
</g>
<!-- Node7 -->
<g id="node7" class="node">
<title>Node7</title>
<g id="a_node7"><a xlink:href="classv8_1_1internal_1_1compiler_1_1turboshaft_1_1MaybeRegisterRepresentation.html#a6364d6359ee407fbdf7681ce363daa17" target="_top" xlink:title=" ">
<polygon fill="white" stroke="black" points="196,-270.5 196,-311.5 422,-311.5 422,-270.5 196,-270.5"/>
<text text-anchor="start" x="204" y="-299.5" font-family="Helvetica,sans-Serif" font-size="10.00">v8::internal::compiler</text>
<text text-anchor="start" x="204" y="-288.5" font-family="Helvetica,sans-Serif" font-size="10.00">::turboshaft::MaybeRegisterRepresentation</text>
<text text-anchor="middle" x="309" y="-277.5" font-family="Helvetica,sans-Serif" font-size="10.00">::IsWord</text>
</a>
</g>
</g>
<!-- Node1&#45;&gt;Node7 -->
<g id="edge6" class="edge">
<title>Node1&#45;&gt;Node7</title>
<path fill="none" stroke="midnightblue" d="M160.07,-291C168.35,-291 176.9,-291 185.51,-291"/>
<polygon fill="midnightblue" stroke="midnightblue" points="185.65,-294.5 195.65,-291 185.65,-287.5 185.65,-294.5"/>
</g>
<!-- Node8 -->
<g id="node8" class="node">
<title>Node8</title>
<g id="a_node8"><a xlink:href="classv8_1_1internal_1_1compiler_1_1turboshaft_1_1RegisterRepresentation.html#af4dcbabd802a274e26ec8f5a1af68b1b" target="_top" xlink:title=" ">
<polygon fill="white" stroke="black" points="212.5,-210.5 212.5,-251.5 405.5,-251.5 405.5,-210.5 212.5,-210.5"/>
<text text-anchor="start" x="220.5" y="-239.5" font-family="Helvetica,sans-Serif" font-size="10.00">v8::internal::compiler</text>
<text text-anchor="start" x="220.5" y="-228.5" font-family="Helvetica,sans-Serif" font-size="10.00">::turboshaft::RegisterRepresentation</text>
<text text-anchor="middle" x="309" y="-217.5" font-family="Helvetica,sans-Serif" font-size="10.00">::Tagged</text>
</a>
</g>
</g>
<!-- Node1&#45;&gt;Node8 -->
<g id="edge7" class="edge">
<title>Node1&#45;&gt;Node8</title>
<path fill="none" stroke="midnightblue" d="M158.8,-270.44C178.66,-265.19 200.13,-259.51 220.44,-254.14"/>
<polygon fill="midnightblue" stroke="midnightblue" points="221.53,-257.48 230.3,-251.54 219.74,-250.71 221.53,-257.48"/>
</g>
<!-- Node9 -->
<g id="node9" class="node">
<title>Node9</title>
<g id="a_node9"><a xlink:href="classv8_1_1internal_1_1compiler_1_1turboshaft_1_1RegisterRepresentation.html#a598694a7b6b5c3ceffe89a31a8fdde8b" target="_top" xlink:title=" ">
<polygon fill="white" stroke="black" points="212.5,-150.5 212.5,-191.5 405.5,-191.5 405.5,-150.5 212.5,-150.5"/>
<text text-anchor="start" x="220.5" y="-179.5" font-family="Helvetica,sans-Serif" font-size="10.00">v8::internal::compiler</text>
<text text-anchor="start" x="220.5" y="-168.5" font-family="Helvetica,sans-Serif" font-size="10.00">::turboshaft::RegisterRepresentation</text>
<text text-anchor="middle" x="309" y="-157.5" font-family="Helvetica,sans-Serif" font-size="10.00">::Word32</text>
</a>
</g>
</g>
<!-- Node1&#45;&gt;Node9 -->
<g id="edge9" class="edge">
<title>Node1&#45;&gt;Node9</title>
<path fill="none" stroke="midnightblue" d="M102.07,-270.16C123.86,-249.74 159.7,-219.11 196,-201 200.06,-198.97 204.28,-197.07 208.58,-195.29"/>
<polygon fill="midnightblue" stroke="midnightblue" points="210.1,-198.45 218.15,-191.57 207.56,-191.93 210.1,-198.45"/>
</g>
<!-- Node10 -->
<g id="node10" class="node">
<title>Node10</title>
<g id="a_node10"><a xlink:href="classv8_1_1internal_1_1compiler_1_1turboshaft_1_1RegisterRepresentation.html#ab5e3c653af2621026db9a5ebf587d368" target="_top" xlink:title=" ">
<polygon fill="white" stroke="black" points="212.5,-90.5 212.5,-131.5 405.5,-131.5 405.5,-90.5 212.5,-90.5"/>
<text text-anchor="start" x="220.5" y="-119.5" font-family="Helvetica,sans-Serif" font-size="10.00">v8::internal::compiler</text>
<text text-anchor="start" x="220.5" y="-108.5" font-family="Helvetica,sans-Serif" font-size="10.00">::turboshaft::RegisterRepresentation</text>
<text text-anchor="middle" x="309" y="-97.5" font-family="Helvetica,sans-Serif" font-size="10.00">::Word64</text>
</a>
</g>
</g>
<!-- Node1&#45;&gt;Node10 -->
<g id="edge11" class="edge">
<title>Node1&#45;&gt;Node10</title>
<path fill="none" stroke="midnightblue" d="M91.12,-270.31C108.15,-237.71 145.67,-174.64 196,-141 198.55,-139.29 201.2,-137.68 203.92,-136.16"/>
<polygon fill="midnightblue" stroke="midnightblue" points="205.51,-139.28 212.83,-131.62 202.33,-133.05 205.51,-139.28"/>
</g>
<!-- Node11 -->
<g id="node11" class="node">
<title>Node11</title>
<g id="a_node11"><a xlink:href="classv8_1_1internal_1_1compiler_1_1turboshaft_1_1RegisterRepresentation.html#a6fdd30510b9d4adaf8a78b62c5bcb385" target="_top" xlink:title=" ">
<polygon fill="white" stroke="black" points="212.5,-30.5 212.5,-71.5 405.5,-71.5 405.5,-30.5 212.5,-30.5"/>
<text text-anchor="start" x="220.5" y="-59.5" font-family="Helvetica,sans-Serif" font-size="10.00">v8::internal::compiler</text>
<text text-anchor="start" x="220.5" y="-48.5" font-family="Helvetica,sans-Serif" font-size="10.00">::turboshaft::RegisterRepresentation</text>
<text text-anchor="middle" x="309" y="-37.5" font-family="Helvetica,sans-Serif" font-size="10.00">::WordPtr</text>
</a>
</g>
</g>
<!-- Node1&#45;&gt;Node11 -->
<g id="edge13" class="edge">
<title>Node1&#45;&gt;Node11</title>
<path fill="none" stroke="midnightblue" d="M86.34,-270.42C98.38,-228.18 131.76,-131.45 196,-81 198.45,-79.07 201.02,-77.27 203.68,-75.58"/>
<polygon fill="midnightblue" stroke="midnightblue" points="205.5,-78.57 212.45,-70.57 202.03,-72.49 205.5,-78.57"/>
</g>
<!-- Node3 -->
<g id="node3" class="node">
<title>Node3</title>
<g id="a_node3"><a xlink:href="classv8_1_1internal_1_1compiler_1_1turboshaft_1_1RegisterRepresentation.html#a3276210a46fbdf6c83d07354715aae77" target="_top" xlink:title=" ">
<polygon fill="white" stroke="black" points="474.5,-150.5 474.5,-191.5 667.5,-191.5 667.5,-150.5 474.5,-150.5"/>
<text text-anchor="start" x="482.5" y="-179.5" font-family="Helvetica,sans-Serif" font-size="10.00">v8::internal::compiler</text>
<text text-anchor="start" x="482.5" y="-168.5" font-family="Helvetica,sans-Serif" font-size="10.00">::turboshaft::RegisterRepresentation</text>
<text text-anchor="middle" x="571" y="-157.5" font-family="Helvetica,sans-Serif" font-size="10.00">::RegisterRepresentation</text>
</a>
</g>
</g>
<!-- Node2&#45;&gt;Node3 -->
<g id="edge2" class="edge">
<title>Node2&#45;&gt;Node3</title>
<path fill="none" stroke="midnightblue" d="M405.66,-467.56C411.47,-464.53 416.98,-461.04 422,-457 506.45,-389.06 547.87,-260.01 563,-201.36"/>
<polygon fill="midnightblue" stroke="midnightblue" points="566.41,-202.14 565.44,-191.59 559.62,-200.44 566.41,-202.14"/>
</g>
<!-- Node8&#45;&gt;Node3 -->
<g id="edge8" class="edge">
<title>Node8&#45;&gt;Node3</title>
<path fill="none" stroke="midnightblue" d="M399.11,-210.44C422.27,-205.09 447.35,-199.3 470.97,-193.85"/>
<polygon fill="midnightblue" stroke="midnightblue" points="472.05,-197.2 481,-191.54 470.47,-190.38 472.05,-197.2"/>
</g>
<!-- Node9&#45;&gt;Node3 -->
<g id="edge10" class="edge">
<title>Node9&#45;&gt;Node3</title>
<path fill="none" stroke="midnightblue" d="M405.71,-171C424.82,-171 445,-171 464.42,-171"/>
<polygon fill="midnightblue" stroke="midnightblue" points="464.5,-174.5 474.5,-171 464.5,-167.5 464.5,-174.5"/>
</g>
<!-- Node10&#45;&gt;Node3 -->
<g id="edge12" class="edge">
<title>Node10&#45;&gt;Node3</title>
<path fill="none" stroke="midnightblue" d="M399.11,-131.56C422.27,-136.91 447.35,-142.7 470.97,-148.15"/>
<polygon fill="midnightblue" stroke="midnightblue" points="470.47,-151.62 481,-150.46 472.05,-144.8 470.47,-151.62"/>
</g>
<!-- Node11&#45;&gt;Node3 -->
<g id="edge14" class="edge">
<title>Node11&#45;&gt;Node3</title>
<path fill="none" stroke="midnightblue" d="M396.75,-71.58C405.4,-74.42 413.95,-77.56 422,-81 461.97,-98.09 503.99,-124.57 533,-144.39"/>
<polygon fill="midnightblue" stroke="midnightblue" points="531.35,-147.51 541.57,-150.31 535.33,-141.75 531.35,-147.51"/>
</g>
<!-- Node12 -->
<g id="node12" class="node">
<title>Node12</title>
<g id="a_node12"><a xlink:href="classv8_1_1internal_1_1compiler_1_1turboshaft_1_1MaybeRegisterRepresentation.html#a043a51657e70149a3383682aacd0f1e8" target="_top" xlink:title=" ">
<polygon fill="white" stroke="black" points="458,-30.5 458,-71.5 684,-71.5 684,-30.5 458,-30.5"/>
<text text-anchor="start" x="466" y="-59.5" font-family="Helvetica,sans-Serif" font-size="10.00">v8::internal::compiler</text>
<text text-anchor="start" x="466" y="-48.5" font-family="Helvetica,sans-Serif" font-size="10.00">::turboshaft::MaybeRegisterRepresentation</text>
<text text-anchor="middle" x="571" y="-37.5" font-family="Helvetica,sans-Serif" font-size="10.00">::WordPtr</text>
</a>
</g>
</g>
<!-- Node11&#45;&gt;Node12 -->
<g id="edge15" class="edge">
<title>Node11&#45;&gt;Node12</title>
<path fill="none" stroke="midnightblue" d="M405.71,-51C419.34,-51 433.51,-51 447.57,-51"/>
<polygon fill="midnightblue" stroke="midnightblue" points="447.77,-54.5 457.77,-51 447.77,-47.5 447.77,-54.5"/>
</g>
<!-- Node13 -->
<g id="node13" class="node">
<title>Node13</title>
<g id="a_node13"><a xlink:href="classv8_1_1internal_1_1compiler_1_1turboshaft_1_1MaybeRegisterRepresentation.html#aaf5e55ffc76107084978c316df5d4c32" target="_top" xlink:title=" ">
<polygon fill="white" stroke="red" points="720,-60.5 720,-101.5 946,-101.5 946,-60.5 720,-60.5"/>
<text text-anchor="start" x="728" y="-89.5" font-family="Helvetica,sans-Serif" font-size="10.00">v8::internal::compiler</text>
<text text-anchor="start" x="728" y="-78.5" font-family="Helvetica,sans-Serif" font-size="10.00">::turboshaft::MaybeRegisterRepresentation</text>
<text text-anchor="middle" x="833" y="-67.5" font-family="Helvetica,sans-Serif" font-size="10.00">::Word32</text>
</a>
</g>
</g>
<!-- Node12&#45;&gt;Node13 -->
<g id="edge16" class="edge">
<title>Node12&#45;&gt;Node13</title>
<path fill="none" stroke="midnightblue" d="M684.15,-63.94C692.65,-64.92 701.24,-65.91 709.8,-66.9"/>
<polygon fill="midnightblue" stroke="midnightblue" points="709.47,-70.39 719.81,-68.06 710.28,-63.43 709.47,-70.39"/>
</g>
<!-- Node15 -->
<g id="node14" class="node">
<title>Node15</title>
<g id="a_node14"><a xlink:href="classv8_1_1internal_1_1compiler_1_1turboshaft_1_1MaybeRegisterRepresentation.html#a8db043f527b516153b04291c73da10cc" target="_top" xlink:title=" ">
<polygon fill="white" stroke="red" points="720,-0.5 720,-41.5 946,-41.5 946,-0.5 720,-0.5"/>
<text text-anchor="start" x="728" y="-29.5" font-family="Helvetica,sans-Serif" font-size="10.00">v8::internal::compiler</text>
<text text-anchor="start" x="728" y="-18.5" font-family="Helvetica,sans-Serif" font-size="10.00">::turboshaft::MaybeRegisterRepresentation</text>
<text text-anchor="middle" x="833" y="-7.5" font-family="Helvetica,sans-Serif" font-size="10.00">::Word64</text>
</a>
</g>
</g>
<!-- Node12&#45;&gt;Node15 -->
<g id="edge17" class="edge">
<title>Node12&#45;&gt;Node15</title>
<path fill="none" stroke="midnightblue" d="M684.15,-38.06C692.65,-37.08 701.24,-36.09 709.8,-35.1"/>
<polygon fill="midnightblue" stroke="midnightblue" points="710.28,-38.57 719.81,-33.94 709.47,-31.61 710.28,-38.57"/>
</g>
</g>
</svg>
