<?xml version="1.0" encoding="UTF-8" standalone="no"?>
<!DOCTYPE svg PUBLIC "-//W3C//DTD SVG 1.1//EN"
 "http://www.w3.org/Graphics/SVG/1.1/DTD/svg11.dtd">
<!-- Generated by graphviz version 2.43.0 (0)
 -->
<!-- Title: v8::internal::wasm::CompilationEnv Pages: 1 -->
<svg width="483pt" height="469pt"
 viewBox="0.00 0.00 482.50 469.00" xmlns="http://www.w3.org/2000/svg" xmlns:xlink="http://www.w3.org/1999/xlink">
<g id="graph0" class="graph" transform="scale(1 1) rotate(0) translate(4 465)">
<title>v8::internal::wasm::CompilationEnv</title>
<polygon fill="white" stroke="transparent" points="-4,4 -4,-465 478.5,-465 478.5,4 -4,4"/>
<!-- Node1 -->
<g id="node1" class="node">
<title>Node1</title>
<g id="a_node1"><a xlink:title=" ">
<polygon fill="#bfbfbf" stroke="black" points="141,-0.5 141,-90.5 330,-90.5 330,-0.5 141,-0.5"/>
<text text-anchor="start" x="149" y="-78.5" font-family="Helvetica,sans-Serif" font-size="10.00">v8::internal::wasm</text>
<text text-anchor="middle" x="235.5" y="-67.5" font-family="Helvetica,sans-Serif" font-size="10.00">::CompilationEnv</text>
<polyline fill="none" stroke="black" points="141,-60.5 330,-60.5 "/>
<text text-anchor="middle" x="235.5" y="-48.5" font-family="Helvetica,sans-Serif" font-size="10.00"> </text>
<polyline fill="none" stroke="black" points="141,-41.5 330,-41.5 "/>
<text text-anchor="start" x="149" y="-29.5" font-family="Helvetica,sans-Serif" font-size="10.00">+ ForModule()</text>
<text text-anchor="start" x="149" y="-18.5" font-family="Helvetica,sans-Serif" font-size="10.00">+ NoModuleAllFeaturesForTesting()</text>
<text text-anchor="start" x="149" y="-7.5" font-family="Helvetica,sans-Serif" font-size="10.00">&#45; CompilationEnv()</text>
</a>
</g>
</g>
<!-- Node2 -->
<g id="node2" class="node">
<title>Node2</title>
<g id="a_node2"><a xlink:title=" ">
<polygon fill="white" stroke="#bfbfbf" points="0,-166 0,-234 147,-234 147,-166 0,-166"/>
<text text-anchor="start" x="8" y="-222" font-family="Helvetica,sans-Serif" font-size="10.00">std::atomic&lt; const</text>
<text text-anchor="middle" x="73.5" y="-211" font-family="Helvetica,sans-Serif" font-size="10.00"> v8::internal::Signature * &gt;</text>
<polyline fill="none" stroke="#bfbfbf" points="0,-204 147,-204 "/>
<text text-anchor="start" x="8" y="-192" font-family="Helvetica,sans-Serif" font-size="10.00">+ ptr</text>
<polyline fill="none" stroke="#bfbfbf" points="0,-185 147,-185 "/>
<text text-anchor="middle" x="73.5" y="-173" font-family="Helvetica,sans-Serif" font-size="10.00"> </text>
</a>
</g>
</g>
<!-- Node2&#45;&gt;Node1 -->
<g id="edge1" class="edge">
<title>Node2&#45;&gt;Node1</title>
<path fill="none" stroke="#404040" d="M86.16,-165.68C94.39,-147.3 106.58,-125.03 122.5,-109 126.34,-105.14 130.46,-101.45 134.79,-97.93"/>
<polygon fill="none" stroke="#404040" points="134.99,-97.77 137.34,-90.95 144.54,-90.5 142.19,-97.32 134.99,-97.77"/>
<text text-anchor="middle" x="176" y="-123" font-family="Helvetica,sans-Serif" font-size="10.00"> +fast_api_signatures</text>
</g>
<!-- Node3 -->
<g id="node3" class="node">
<title>Node3</title>
<g id="a_node3"><a xlink:title=" ">
<polygon fill="white" stroke="#bfbfbf" points="59.5,-298.5 59.5,-355.5 159.5,-355.5 159.5,-298.5 59.5,-298.5"/>
<text text-anchor="middle" x="109.5" y="-343.5" font-family="Helvetica,sans-Serif" font-size="10.00">std::atomic&lt; T &gt;</text>
<polyline fill="none" stroke="#bfbfbf" points="59.5,-336.5 159.5,-336.5 "/>
<text text-anchor="middle" x="109.5" y="-324.5" font-family="Helvetica,sans-Serif" font-size="10.00"> </text>
<polyline fill="none" stroke="#bfbfbf" points="59.5,-317.5 159.5,-317.5 "/>
<text text-anchor="middle" x="109.5" y="-305.5" font-family="Helvetica,sans-Serif" font-size="10.00"> </text>
</a>
</g>
</g>
<!-- Node3&#45;&gt;Node2 -->
<g id="edge2" class="edge">
<title>Node3&#45;&gt;Node2</title>
<path fill="none" stroke="orange" d="M98.71,-288.53C93.76,-271.34 87.93,-251.12 83.13,-234.44"/>
<polygon fill="orange" stroke="orange" points="95.38,-289.62 101.51,-298.26 102.11,-287.68 95.38,-289.62"/>
<text text-anchor="start" x="96.5" y="-272" font-family="Helvetica,sans-Serif" font-size="10.00"> &lt; const v8::internal</text>
<text text-anchor="middle" x="146.5" y="-261" font-family="Helvetica,sans-Serif" font-size="10.00">::Signature * &gt;</text>
</g>
<!-- Node4 -->
<g id="node4" class="node">
<title>Node4</title>
<g id="a_node4"><a xlink:title=" ">
<polygon fill="white" stroke="#bfbfbf" points="158,-403.5 158,-460.5 187,-460.5 187,-403.5 158,-403.5"/>
<text text-anchor="middle" x="172.5" y="-448.5" font-family="Helvetica,sans-Serif" font-size="10.00">T</text>
<polyline fill="none" stroke="#bfbfbf" points="158,-441.5 187,-441.5 "/>
<text text-anchor="middle" x="172.5" y="-429.5" font-family="Helvetica,sans-Serif" font-size="10.00"> </text>
<polyline fill="none" stroke="#bfbfbf" points="158,-422.5 187,-422.5 "/>
<text text-anchor="middle" x="172.5" y="-410.5" font-family="Helvetica,sans-Serif" font-size="10.00"> </text>
</a>
</g>
</g>
<!-- Node4&#45;&gt;Node3 -->
<g id="edge3" class="edge">
<title>Node4&#45;&gt;Node3</title>
<path fill="none" stroke="#404040" d="M157.89,-407.11C150.49,-395.01 141.32,-380.03 132.97,-366.37"/>
<polygon fill="none" stroke="#404040" points="132.75,-366.01 126.2,-362.98 126.49,-355.77 133.03,-358.8 132.75,-366.01"/>
<text text-anchor="middle" x="155" y="-377" font-family="Helvetica,sans-Serif" font-size="10.00"> +ptr</text>
</g>
<!-- Node6 -->
<g id="node6" class="node">
<title>Node6</title>
<g id="a_node6"><a xlink:title=" ">
<polygon fill="white" stroke="#bfbfbf" points="183.5,-298.5 183.5,-355.5 301.5,-355.5 301.5,-298.5 183.5,-298.5"/>
<text text-anchor="middle" x="242.5" y="-343.5" font-family="Helvetica,sans-Serif" font-size="10.00">std::shared_ptr&lt; T &gt;</text>
<polyline fill="none" stroke="#bfbfbf" points="183.5,-336.5 301.5,-336.5 "/>
<text text-anchor="middle" x="242.5" y="-324.5" font-family="Helvetica,sans-Serif" font-size="10.00"> </text>
<polyline fill="none" stroke="#bfbfbf" points="183.5,-317.5 301.5,-317.5 "/>
<text text-anchor="start" x="191.5" y="-305.5" font-family="Helvetica,sans-Serif" font-size="10.00">+ operator&#45;&gt;()</text>
</a>
</g>
</g>
<!-- Node4&#45;&gt;Node6 -->
<g id="edge6" class="edge">
<title>Node4&#45;&gt;Node6</title>
<path fill="none" stroke="#404040" d="M187,-409.66C195.66,-396.92 206.9,-380.39 216.99,-365.53"/>
<polygon fill="none" stroke="#404040" points="217.01,-365.51 217.07,-358.3 223.75,-355.58 223.69,-362.79 217.01,-365.51"/>
<text text-anchor="middle" x="222" y="-377" font-family="Helvetica,sans-Serif" font-size="10.00"> +ptr</text>
</g>
<!-- Node5 -->
<g id="node5" class="node">
<title>Node5</title>
<g id="a_node5"><a xlink:title=" ">
<polygon fill="white" stroke="#bfbfbf" points="165,-160.5 165,-239.5 332,-239.5 332,-160.5 165,-160.5"/>
<text text-anchor="start" x="173" y="-227.5" font-family="Helvetica,sans-Serif" font-size="10.00">std::shared_ptr&lt; v8</text>
<text text-anchor="start" x="173" y="-216.5" font-family="Helvetica,sans-Serif" font-size="10.00">::internal::wasm::WasmModule</text>
<text text-anchor="middle" x="248.5" y="-205.5" font-family="Helvetica,sans-Serif" font-size="10.00">CoverageData &gt;</text>
<polyline fill="none" stroke="#bfbfbf" points="165,-198.5 332,-198.5 "/>
<text text-anchor="start" x="173" y="-186.5" font-family="Helvetica,sans-Serif" font-size="10.00">+ ptr</text>
<polyline fill="none" stroke="#bfbfbf" points="165,-179.5 332,-179.5 "/>
<text text-anchor="start" x="173" y="-167.5" font-family="Helvetica,sans-Serif" font-size="10.00">+ operator&#45;&gt;()</text>
</a>
</g>
</g>
<!-- Node5&#45;&gt;Node1 -->
<g id="edge4" class="edge">
<title>Node5&#45;&gt;Node1</title>
<path fill="none" stroke="#404040" d="M239.27,-160.22C238.14,-154.16 237.15,-147.93 236.5,-142 235.12,-129.38 234.48,-115.78 234.25,-102.9"/>
<polygon fill="none" stroke="#404040" points="234.25,-102.83 230.2,-96.86 234.15,-90.83 238.2,-96.79 234.25,-102.83"/>
<text text-anchor="middle" x="299.5" y="-123" font-family="Helvetica,sans-Serif" font-size="10.00"> +module_coverage_data</text>
</g>
<!-- Node6&#45;&gt;Node5 -->
<g id="edge5" class="edge">
<title>Node6&#45;&gt;Node5</title>
<path fill="none" stroke="orange" d="M244.32,-288.06C245.06,-272.7 245.91,-254.99 246.65,-239.57"/>
<polygon fill="orange" stroke="orange" points="240.82,-288.1 243.83,-298.26 247.81,-288.44 240.82,-288.1"/>
<text text-anchor="start" x="245.5" y="-272" font-family="Helvetica,sans-Serif" font-size="10.00"> &lt; v8::internal::wasm</text>
<text text-anchor="middle" x="322.5" y="-261" font-family="Helvetica,sans-Serif" font-size="10.00">::WasmModuleCoverageData &gt;</text>
</g>
<!-- Node7 -->
<g id="node7" class="node">
<title>Node7</title>
<g id="a_node7"><a xlink:title=" ">
<polygon fill="white" stroke="#bfbfbf" points="363,-171.5 363,-228.5 406,-228.5 406,-171.5 363,-171.5"/>
<text text-anchor="middle" x="384.5" y="-216.5" font-family="Helvetica,sans-Serif" font-size="10.00">const</text>
<polyline fill="none" stroke="#bfbfbf" points="363,-209.5 406,-209.5 "/>
<text text-anchor="middle" x="384.5" y="-197.5" font-family="Helvetica,sans-Serif" font-size="10.00"> </text>
<polyline fill="none" stroke="#bfbfbf" points="363,-190.5 406,-190.5 "/>
<text text-anchor="middle" x="384.5" y="-178.5" font-family="Helvetica,sans-Serif" font-size="10.00"> </text>
</a>
</g>
</g>
<!-- Node7&#45;&gt;Node1 -->
<g id="edge7" class="edge">
<title>Node7&#45;&gt;Node1</title>
<path fill="none" stroke="#404040" d="M383.73,-171.12C381.86,-151.83 376.6,-126.56 362.5,-109 356.14,-101.08 348.53,-94.09 340.22,-87.93"/>
<polygon fill="none" stroke="#404040" points="340.11,-87.85 332.9,-87.77 330.2,-81.09 337.41,-81.17 340.11,-87.85"/>
<text text-anchor="middle" x="426" y="-134" font-family="Helvetica,sans-Serif" font-size="10.00"> +enabled_features</text>
<text text-anchor="middle" x="426" y="-123" font-family="Helvetica,sans-Serif" font-size="10.00">+fast_api_targets</text>
<text text-anchor="middle" x="426" y="-112" font-family="Helvetica,sans-Serif" font-size="10.00">+module</text>
</g>
</g>
</svg>
