<?xml version="1.0" encoding="UTF-8" standalone="no"?>
<!DOCTYPE svg PUBLIC "-//W3C//DTD SVG 1.1//EN"
 "http://www.w3.org/Graphics/SVG/1.1/DTD/svg11.dtd">
<!-- Generated by graphviz version 2.43.0 (0)
 -->
<!-- Title: v8::internal::torque::CallRuntimeInstruction::GetValueDefinitionCount Pages: 1 -->
<svg width="559pt" height="137pt"
 viewBox="0.00 0.00 559.00 137.00" xmlns="http://www.w3.org/2000/svg" xmlns:xlink="http://www.w3.org/1999/xlink">
<g id="graph0" class="graph" transform="scale(1 1) rotate(0) translate(4 133)">
<title>v8::internal::torque::CallRuntimeInstruction::GetValueDefinitionCount</title>
<polygon fill="white" stroke="transparent" points="-4,4 -4,-133 555,-133 555,4 -4,4"/>
<!-- Node1 -->
<g id="node1" class="node">
<title>Node1</title>
<g id="a_node1"><a xlink:title=" ">
<polygon fill="#bfbfbf" stroke="black" points="0,-44 0,-85 143,-85 143,-44 0,-44"/>
<text text-anchor="start" x="8" y="-73" font-family="Helvetica,sans-Serif" font-size="10.00">v8::internal::torque</text>
<text text-anchor="start" x="8" y="-62" font-family="Helvetica,sans-Serif" font-size="10.00">::CallRuntimeInstruction</text>
<text text-anchor="middle" x="71.5" y="-51" font-family="Helvetica,sans-Serif" font-size="10.00">::GetValueDefinitionCount</text>
</a>
</g>
</g>
<!-- Node2 -->
<g id="node2" class="node">
<title>Node2</title>
<g id="a_node2"><a xlink:href="classv8_1_1internal_1_1torque_1_1TypeOracle.html#aa56ae734cd33d4a5c4906871ec1e14ab" target="_top" xlink:title=" ">
<polygon fill="white" stroke="black" points="179,-98.5 179,-128.5 331,-128.5 331,-98.5 179,-98.5"/>
<text text-anchor="start" x="187" y="-116.5" font-family="Helvetica,sans-Serif" font-size="10.00">v8::internal::torque</text>
<text text-anchor="middle" x="255" y="-105.5" font-family="Helvetica,sans-Serif" font-size="10.00">::TypeOracle::GetNeverType</text>
</a>
</g>
</g>
<!-- Node1&#45;&gt;Node2 -->
<g id="edge1" class="edge">
<title>Node1&#45;&gt;Node2</title>
<path fill="none" stroke="midnightblue" d="M143.19,-83.58C158.07,-87.6 173.71,-91.82 188.4,-95.79"/>
<polygon fill="midnightblue" stroke="midnightblue" points="187.82,-99.26 198.39,-98.49 189.65,-92.5 187.82,-99.26"/>
</g>
<!-- Node4 -->
<g id="node4" class="node">
<title>Node4</title>
<g id="a_node4"><a xlink:href="namespacev8_1_1internal_1_1torque.html#ac7fe65533a80096deab6e247eebcf290" target="_top" xlink:title=" ">
<polygon fill="white" stroke="black" points="200,-49.5 200,-79.5 310,-79.5 310,-49.5 200,-49.5"/>
<text text-anchor="start" x="208" y="-67.5" font-family="Helvetica,sans-Serif" font-size="10.00">v8::internal::torque</text>
<text text-anchor="middle" x="255" y="-56.5" font-family="Helvetica,sans-Serif" font-size="10.00">::LowerType</text>
</a>
</g>
</g>
<!-- Node1&#45;&gt;Node4 -->
<g id="edge3" class="edge">
<title>Node1&#45;&gt;Node4</title>
<path fill="none" stroke="midnightblue" d="M143.19,-64.5C158.48,-64.5 174.56,-64.5 189.59,-64.5"/>
<polygon fill="midnightblue" stroke="midnightblue" points="189.8,-68 199.8,-64.5 189.8,-61 189.8,-68"/>
</g>
<!-- Node6 -->
<g id="node6" class="node">
<title>Node6</title>
<g id="a_node6"><a xlink:href="classv8_1_1internal_1_1torque_1_1Callable.html#a445dc006f22f19a4785ad63d9a2b769e" target="_top" xlink:title=" ">
<polygon fill="white" stroke="black" points="198,-0.5 198,-30.5 312,-30.5 312,-0.5 198,-0.5"/>
<text text-anchor="start" x="206" y="-18.5" font-family="Helvetica,sans-Serif" font-size="10.00">v8::internal::torque</text>
<text text-anchor="middle" x="255" y="-7.5" font-family="Helvetica,sans-Serif" font-size="10.00">::Callable::signature</text>
</a>
</g>
</g>
<!-- Node1&#45;&gt;Node6 -->
<g id="edge5" class="edge">
<title>Node1&#45;&gt;Node6</title>
<path fill="none" stroke="midnightblue" d="M143.19,-45.42C158.07,-41.4 173.71,-37.18 188.4,-33.21"/>
<polygon fill="midnightblue" stroke="midnightblue" points="189.65,-36.5 198.39,-30.51 187.82,-29.74 189.65,-36.5"/>
</g>
<!-- Node3 -->
<g id="node3" class="node">
<title>Node3</title>
<g id="a_node3"><a xlink:href="classv8_1_1base_1_1ContextualVariable.html#a607480951af48e066ea9236f3d6af928" target="_top" xlink:title=" ">
<polygon fill="white" stroke="black" points="369,-104 369,-123 549,-123 549,-104 369,-104"/>
<text text-anchor="middle" x="459" y="-111" font-family="Helvetica,sans-Serif" font-size="10.00">v8::base::ContextualVariable::Get</text>
</a>
</g>
</g>
<!-- Node2&#45;&gt;Node3 -->
<g id="edge2" class="edge">
<title>Node2&#45;&gt;Node3</title>
<path fill="none" stroke="midnightblue" d="M331.22,-113.5C340.2,-113.5 349.47,-113.5 358.72,-113.5"/>
<polygon fill="midnightblue" stroke="midnightblue" points="358.73,-117 368.73,-113.5 358.73,-110 358.73,-117"/>
</g>
<!-- Node5 -->
<g id="node5" class="node">
<title>Node5</title>
<g id="a_node5"><a xlink:href="namespacev8_1_1internal_1_1torque_1_1anonymous__namespace_02types_8cc_03.html#afbfdf7912127bd8498371cb86cfada43" target="_top" xlink:title=" ">
<polygon fill="white" stroke="black" points="367,-44 367,-85 551,-85 551,-44 367,-44"/>
<text text-anchor="start" x="375" y="-73" font-family="Helvetica,sans-Serif" font-size="10.00">v8::internal::torque</text>
<text text-anchor="start" x="375" y="-62" font-family="Helvetica,sans-Serif" font-size="10.00">::anonymous_namespace</text>
<text text-anchor="middle" x="459" y="-51" font-family="Helvetica,sans-Serif" font-size="10.00">{types::cc}::AppendLoweredTypes</text>
</a>
</g>
</g>
<!-- Node4&#45;&gt;Node5 -->
<g id="edge4" class="edge">
<title>Node4&#45;&gt;Node5</title>
<path fill="none" stroke="midnightblue" d="M310.13,-64.5C324.42,-64.5 340.31,-64.5 356.22,-64.5"/>
<polygon fill="midnightblue" stroke="midnightblue" points="356.67,-68 366.67,-64.5 356.67,-61 356.67,-68"/>
</g>
</g>
</svg>
