<?xml version="1.0" encoding="UTF-8" standalone="no"?>
<!DOCTYPE svg PUBLIC "-//W3C//DTD SVG 1.1//EN"
 "http://www.w3.org/Graphics/SVG/1.1/DTD/svg11.dtd">
<!-- Generated by graphviz version 2.43.0 (0)
 -->
<!-- Title: v8::internal::compiler::turboshaft::AtomicRMWOp::PrintInputs Pages: 1 -->
<svg width="691pt" height="270pt"
 viewBox="0.00 0.00 691.00 269.50" xmlns="http://www.w3.org/2000/svg" xmlns:xlink="http://www.w3.org/1999/xlink">
<g id="graph0" class="graph" transform="scale(1 1) rotate(0) translate(4 265.5)">
<title>v8::internal::compiler::turboshaft::AtomicRMWOp::PrintInputs</title>
<polygon fill="white" stroke="transparent" points="-4,4 -4,-265.5 687,-265.5 687,4 -4,4"/>
<!-- Node1 -->
<g id="node1" class="node">
<title>Node1</title>
<g id="a_node1"><a xlink:title=" ">
<polygon fill="#bfbfbf" stroke="black" points="0,-115.5 0,-156.5 152,-156.5 152,-115.5 0,-115.5"/>
<text text-anchor="start" x="8" y="-144.5" font-family="Helvetica,sans-Serif" font-size="10.00">v8::internal::compiler</text>
<text text-anchor="start" x="8" y="-133.5" font-family="Helvetica,sans-Serif" font-size="10.00">::turboshaft::AtomicRMWOp</text>
<text text-anchor="middle" x="76" y="-122.5" font-family="Helvetica,sans-Serif" font-size="10.00">::PrintInputs</text>
</a>
</g>
</g>
<!-- Node2 -->
<g id="node2" class="node">
<title>Node2</title>
<g id="a_node2"><a xlink:href="structv8_1_1internal_1_1compiler_1_1turboshaft_1_1AtomicRMWOp.html#aae87106c3db2935202ebf1c9a6beed3a" target="_top" xlink:title=" ">
<polygon fill="white" stroke="black" points="188,-231 188,-261 369,-261 369,-231 188,-231"/>
<text text-anchor="start" x="196" y="-249" font-family="Helvetica,sans-Serif" font-size="10.00">v8::internal::compiler</text>
<text text-anchor="middle" x="278.5" y="-238" font-family="Helvetica,sans-Serif" font-size="10.00">::turboshaft::AtomicRMWOp::base</text>
</a>
</g>
</g>
<!-- Node1&#45;&gt;Node2 -->
<g id="edge1" class="edge">
<title>Node1&#45;&gt;Node2</title>
<path fill="none" stroke="midnightblue" d="M98.66,-156.67C119.88,-175.87 153.9,-203.98 188,-221 192.66,-223.33 197.57,-225.46 202.59,-227.42"/>
<polygon fill="midnightblue" stroke="midnightblue" points="201.76,-230.84 212.35,-230.97 204.15,-224.27 201.76,-230.84"/>
</g>
<!-- Node3 -->
<g id="node3" class="node">
<title>Node3</title>
<g id="a_node3"><a xlink:href="structv8_1_1internal_1_1compiler_1_1turboshaft_1_1AtomicRMWOp.html#a1ae5ff27700b1ac2d293d90356870431" target="_top" xlink:title=" ">
<polygon fill="white" stroke="black" points="202.5,-170.5 202.5,-211.5 354.5,-211.5 354.5,-170.5 202.5,-170.5"/>
<text text-anchor="start" x="210.5" y="-199.5" font-family="Helvetica,sans-Serif" font-size="10.00">v8::internal::compiler</text>
<text text-anchor="start" x="210.5" y="-188.5" font-family="Helvetica,sans-Serif" font-size="10.00">::turboshaft::AtomicRMWOp</text>
<text text-anchor="middle" x="278.5" y="-177.5" font-family="Helvetica,sans-Serif" font-size="10.00">::expected</text>
</a>
</g>
</g>
<!-- Node1&#45;&gt;Node3 -->
<g id="edge2" class="edge">
<title>Node1&#45;&gt;Node3</title>
<path fill="none" stroke="midnightblue" d="M151.94,-156.56C165.28,-160.22 179.26,-164.05 192.84,-167.78"/>
<polygon fill="midnightblue" stroke="midnightblue" points="192.08,-171.2 202.65,-170.47 193.93,-164.45 192.08,-171.2"/>
</g>
<!-- Node7 -->
<g id="node7" class="node">
<title>Node7</title>
<g id="a_node7"><a xlink:href="classv8_1_1internal_1_1compiler_1_1turboshaft_1_1OpIndex.html#a6d74f117c9a3576288033fcddf160101" target="_top" xlink:title=" ">
<polygon fill="white" stroke="black" points="211.5,-121 211.5,-151 345.5,-151 345.5,-121 211.5,-121"/>
<text text-anchor="start" x="219.5" y="-139" font-family="Helvetica,sans-Serif" font-size="10.00">v8::internal::compiler</text>
<text text-anchor="middle" x="278.5" y="-128" font-family="Helvetica,sans-Serif" font-size="10.00">::turboshaft::OpIndex::id</text>
</a>
</g>
</g>
<!-- Node1&#45;&gt;Node7 -->
<g id="edge6" class="edge">
<title>Node1&#45;&gt;Node7</title>
<path fill="none" stroke="midnightblue" d="M152.23,-136C168.18,-136 185.04,-136 201.03,-136"/>
<polygon fill="midnightblue" stroke="midnightblue" points="201.4,-139.5 211.4,-136 201.4,-132.5 201.4,-139.5"/>
</g>
<!-- Node8 -->
<g id="node8" class="node">
<title>Node8</title>
<g id="a_node8"><a xlink:href="structv8_1_1internal_1_1compiler_1_1turboshaft_1_1AtomicRMWOp.html#a00373bc0b98f32278ce0cb2c4f8997bb" target="_top" xlink:title=" ">
<polygon fill="white" stroke="black" points="202.5,-60.5 202.5,-101.5 354.5,-101.5 354.5,-60.5 202.5,-60.5"/>
<text text-anchor="start" x="210.5" y="-89.5" font-family="Helvetica,sans-Serif" font-size="10.00">v8::internal::compiler</text>
<text text-anchor="start" x="210.5" y="-78.5" font-family="Helvetica,sans-Serif" font-size="10.00">::turboshaft::AtomicRMWOp</text>
<text text-anchor="middle" x="278.5" y="-67.5" font-family="Helvetica,sans-Serif" font-size="10.00">::index</text>
</a>
</g>
</g>
<!-- Node1&#45;&gt;Node8 -->
<g id="edge7" class="edge">
<title>Node1&#45;&gt;Node8</title>
<path fill="none" stroke="midnightblue" d="M151.94,-115.44C165.28,-111.78 179.26,-107.95 192.84,-104.22"/>
<polygon fill="midnightblue" stroke="midnightblue" points="193.93,-107.55 202.65,-101.53 192.08,-100.8 193.93,-107.55"/>
</g>
<!-- Node9 -->
<g id="node9" class="node">
<title>Node9</title>
<g id="a_node9"><a xlink:href="structv8_1_1internal_1_1compiler_1_1turboshaft_1_1AtomicRMWOp.html#a4c996c0fc304d2c1c326dd13323b78d5" target="_top" xlink:title=" ">
<polygon fill="white" stroke="black" points="202.5,-0.5 202.5,-41.5 354.5,-41.5 354.5,-0.5 202.5,-0.5"/>
<text text-anchor="start" x="210.5" y="-29.5" font-family="Helvetica,sans-Serif" font-size="10.00">v8::internal::compiler</text>
<text text-anchor="start" x="210.5" y="-18.5" font-family="Helvetica,sans-Serif" font-size="10.00">::turboshaft::AtomicRMWOp</text>
<text text-anchor="middle" x="278.5" y="-7.5" font-family="Helvetica,sans-Serif" font-size="10.00">::value</text>
</a>
</g>
</g>
<!-- Node1&#45;&gt;Node9 -->
<g id="edge8" class="edge">
<title>Node1&#45;&gt;Node9</title>
<path fill="none" stroke="midnightblue" d="M99.27,-115.36C120.66,-96.45 154.56,-68.77 188,-51 191.48,-49.15 195.1,-47.38 198.8,-45.7"/>
<polygon fill="midnightblue" stroke="midnightblue" points="200.32,-48.85 208.12,-41.68 197.55,-42.42 200.32,-48.85"/>
</g>
<!-- Node4 -->
<g id="node4" class="node">
<title>Node4</title>
<g id="a_node4"><a xlink:href="namespacev8_1_1internal_1_1compiler_1_1turboshaft_1_1detail.html#a571326219180fd511b73e83c4373db4a" target="_top" xlink:title=" ">
<polygon fill="white" stroke="black" points="405,-200.5 405,-241.5 526,-241.5 526,-200.5 405,-200.5"/>
<text text-anchor="start" x="413" y="-229.5" font-family="Helvetica,sans-Serif" font-size="10.00">v8::internal::compiler</text>
<text text-anchor="start" x="413" y="-218.5" font-family="Helvetica,sans-Serif" font-size="10.00">::turboshaft::detail::</text>
<text text-anchor="middle" x="465.5" y="-207.5" font-family="Helvetica,sans-Serif" font-size="10.00">input_count</text>
</a>
</g>
</g>
<!-- Node3&#45;&gt;Node4 -->
<g id="edge3" class="edge">
<title>Node3&#45;&gt;Node4</title>
<path fill="none" stroke="midnightblue" d="M354.75,-203.2C368.06,-205.36 381.87,-207.6 395.01,-209.73"/>
<polygon fill="midnightblue" stroke="midnightblue" points="394.48,-213.19 404.91,-211.34 395.6,-206.28 394.48,-213.19"/>
</g>
<!-- Node5 -->
<g id="node5" class="node">
<title>Node5</title>
<g id="a_node5"><a xlink:href="classv8_1_1internal_1_1compiler_1_1turboshaft_1_1OpIndex.html#a19b67749ed68fc8a4883e936589372cc" target="_top" xlink:title=" ">
<polygon fill="white" stroke="black" points="405,-140.5 405,-181.5 526,-181.5 526,-140.5 405,-140.5"/>
<text text-anchor="start" x="413" y="-169.5" font-family="Helvetica,sans-Serif" font-size="10.00">v8::internal::compiler</text>
<text text-anchor="start" x="413" y="-158.5" font-family="Helvetica,sans-Serif" font-size="10.00">::turboshaft::OpIndex</text>
<text text-anchor="middle" x="465.5" y="-147.5" font-family="Helvetica,sans-Serif" font-size="10.00">::Invalid</text>
</a>
</g>
</g>
<!-- Node3&#45;&gt;Node5 -->
<g id="edge4" class="edge">
<title>Node3&#45;&gt;Node5</title>
<path fill="none" stroke="midnightblue" d="M354.75,-178.8C368.06,-176.64 381.87,-174.4 395.01,-172.27"/>
<polygon fill="midnightblue" stroke="midnightblue" points="395.6,-175.72 404.91,-170.66 394.48,-168.81 395.6,-175.72"/>
</g>
<!-- Node6 -->
<g id="node6" class="node">
<title>Node6</title>
<g id="a_node6"><a xlink:href="classv8_1_1internal_1_1compiler_1_1turboshaft_1_1OpIndex.html#ab4b5fe317c55bec21a921ba9cfcfe995" target="_top" xlink:title=" ">
<polygon fill="white" stroke="black" points="562,-140.5 562,-181.5 683,-181.5 683,-140.5 562,-140.5"/>
<text text-anchor="start" x="570" y="-169.5" font-family="Helvetica,sans-Serif" font-size="10.00">v8::internal::compiler</text>
<text text-anchor="start" x="570" y="-158.5" font-family="Helvetica,sans-Serif" font-size="10.00">::turboshaft::OpIndex</text>
<text text-anchor="middle" x="622.5" y="-147.5" font-family="Helvetica,sans-Serif" font-size="10.00">::OpIndex</text>
</a>
</g>
</g>
<!-- Node5&#45;&gt;Node6 -->
<g id="edge5" class="edge">
<title>Node5&#45;&gt;Node6</title>
<path fill="none" stroke="midnightblue" d="M526.43,-161C534.72,-161 543.31,-161 551.76,-161"/>
<polygon fill="midnightblue" stroke="midnightblue" points="551.99,-164.5 561.99,-161 551.99,-157.5 551.99,-164.5"/>
</g>
</g>
</svg>
