<?xml version="1.0" encoding="UTF-8" standalone="no"?>
<!DOCTYPE svg PUBLIC "-//W3C//DTD SVG 1.1//EN"
 "http://www.w3.org/Graphics/SVG/1.1/DTD/svg11.dtd">
<!-- Generated by graphviz version 2.43.0 (0)
 -->
<!-- Title: v8::internal::compiler::turboshaft::CatchBlockBeginOp Pages: 1 -->
<svg width="183pt" height="262pt"
 viewBox="0.00 0.00 183.00 262.00" xmlns="http://www.w3.org/2000/svg" xmlns:xlink="http://www.w3.org/1999/xlink">
<g id="graph0" class="graph" transform="scale(1 1) rotate(0) translate(4 258)">
<title>v8::internal::compiler::turboshaft::CatchBlockBeginOp</title>
<polygon fill="white" stroke="transparent" points="-4,4 -4,-258 179,-258 179,4 -4,4"/>
<!-- Node1 -->
<g id="node1" class="node">
<title>Node1</title>
<g id="a_node1"><a xlink:title=" ">
<polygon fill="#bfbfbf" stroke="black" points="0.5,-0.5 0.5,-30.5 174.5,-30.5 174.5,-0.5 0.5,-0.5"/>
<text text-anchor="start" x="8.5" y="-18.5" font-family="Helvetica,sans-Serif" font-size="10.00">v8::internal::compiler</text>
<text text-anchor="middle" x="87.5" y="-7.5" font-family="Helvetica,sans-Serif" font-size="10.00">::turboshaft::CatchBlockBeginOp</text>
</a>
</g>
</g>
<!-- Node2 -->
<g id="node2" class="node">
<title>Node2</title>
<g id="a_node2"><a xlink:href="structv8_1_1internal_1_1compiler_1_1turboshaft_1_1FixedArityOperationT.html" target="_top" xlink:title=" ">
<polygon fill="white" stroke="black" points="0,-67.5 0,-108.5 175,-108.5 175,-67.5 0,-67.5"/>
<text text-anchor="start" x="8" y="-96.5" font-family="Helvetica,sans-Serif" font-size="10.00">v8::internal::compiler</text>
<text text-anchor="start" x="8" y="-85.5" font-family="Helvetica,sans-Serif" font-size="10.00">::turboshaft::FixedArityOperation</text>
<text text-anchor="middle" x="87.5" y="-74.5" font-family="Helvetica,sans-Serif" font-size="10.00">T&lt; 0, CatchBlockBeginOp &gt;</text>
</a>
</g>
</g>
<!-- Node2&#45;&gt;Node1 -->
<g id="edge1" class="edge">
<title>Node2&#45;&gt;Node1</title>
<path fill="none" stroke="midnightblue" d="M87.5,-57.08C87.5,-48.01 87.5,-38.45 87.5,-30.89"/>
<polygon fill="midnightblue" stroke="midnightblue" points="84,-57.36 87.5,-67.36 91,-57.36 84,-57.36"/>
</g>
<!-- Node3 -->
<g id="node3" class="node">
<title>Node3</title>
<g id="a_node3"><a xlink:href="structv8_1_1internal_1_1compiler_1_1turboshaft_1_1OperationT.html" target="_top" xlink:title=" ">
<polygon fill="white" stroke="black" points="21.5,-145.5 21.5,-186.5 153.5,-186.5 153.5,-145.5 21.5,-145.5"/>
<text text-anchor="start" x="29.5" y="-174.5" font-family="Helvetica,sans-Serif" font-size="10.00">v8::internal::compiler</text>
<text text-anchor="start" x="29.5" y="-163.5" font-family="Helvetica,sans-Serif" font-size="10.00">::turboshaft::OperationT</text>
<text text-anchor="middle" x="87.5" y="-152.5" font-family="Helvetica,sans-Serif" font-size="10.00">&lt; Derived &gt;</text>
</a>
</g>
</g>
<!-- Node3&#45;&gt;Node2 -->
<g id="edge2" class="edge">
<title>Node3&#45;&gt;Node2</title>
<path fill="none" stroke="midnightblue" d="M87.5,-135.3C87.5,-126.3 87.5,-116.65 87.5,-108.51"/>
<polygon fill="midnightblue" stroke="midnightblue" points="84,-135.43 87.5,-145.43 91,-135.43 84,-135.43"/>
</g>
<!-- Node4 -->
<g id="node4" class="node">
<title>Node4</title>
<g id="a_node4"><a xlink:href="structv8_1_1internal_1_1compiler_1_1turboshaft_1_1Operation.html" target="_top" xlink:title=" ">
<polygon fill="white" stroke="black" points="24.5,-223.5 24.5,-253.5 150.5,-253.5 150.5,-223.5 24.5,-223.5"/>
<text text-anchor="start" x="32.5" y="-241.5" font-family="Helvetica,sans-Serif" font-size="10.00">v8::internal::compiler</text>
<text text-anchor="middle" x="87.5" y="-230.5" font-family="Helvetica,sans-Serif" font-size="10.00">::turboshaft::Operation</text>
</a>
</g>
</g>
<!-- Node4&#45;&gt;Node3 -->
<g id="edge3" class="edge">
<title>Node4&#45;&gt;Node3</title>
<path fill="none" stroke="midnightblue" d="M87.5,-212.98C87.5,-204.35 87.5,-194.76 87.5,-186.59"/>
<polygon fill="midnightblue" stroke="midnightblue" points="84,-213.23 87.5,-223.23 91,-213.23 84,-213.23"/>
</g>
</g>
</svg>
