<?xml version="1.0" encoding="UTF-8" standalone="no"?>
<!DOCTYPE svg PUBLIC "-//W3C//DTD SVG 1.1//EN"
 "http://www.w3.org/Graphics/SVG/1.1/DTD/svg11.dtd">
<!-- Generated by graphviz version 2.43.0 (0)
 -->
<!-- Title: v8::internal::compiler::turboshaft::wle::WasmMemoryAddress Pages: 1 -->
<svg width="429pt" height="657pt"
 viewBox="0.00 0.00 428.86 657.00" xmlns="http://www.w3.org/2000/svg" xmlns:xlink="http://www.w3.org/1999/xlink">
<g id="graph0" class="graph" transform="scale(1 1) rotate(0) translate(4 653)">
<title>v8::internal::compiler::turboshaft::wle::WasmMemoryAddress</title>
<polygon fill="white" stroke="transparent" points="-4,4 -4,-653 424.86,-653 424.86,4 -4,4"/>
<!-- Node1 -->
<g id="node1" class="node">
<title>Node1</title>
<g id="a_node1"><a xlink:title=" ">
<polygon fill="#bfbfbf" stroke="black" points="134.86,-0.5 134.86,-79.5 306.86,-79.5 306.86,-0.5 134.86,-0.5"/>
<text text-anchor="start" x="142.86" y="-67.5" font-family="Helvetica,sans-Serif" font-size="10.00">v8::internal::compiler</text>
<text text-anchor="start" x="142.86" y="-56.5" font-family="Helvetica,sans-Serif" font-size="10.00">::turboshaft::wle::WasmMemory</text>
<text text-anchor="middle" x="220.86" y="-45.5" font-family="Helvetica,sans-Serif" font-size="10.00">Address</text>
<polyline fill="none" stroke="black" points="134.86,-38.5 306.86,-38.5 "/>
<text text-anchor="middle" x="220.86" y="-26.5" font-family="Helvetica,sans-Serif" font-size="10.00"> </text>
<polyline fill="none" stroke="black" points="134.86,-19.5 306.86,-19.5 "/>
<text text-anchor="start" x="142.86" y="-7.5" font-family="Helvetica,sans-Serif" font-size="10.00">+ operator==()</text>
</a>
</g>
</g>
<!-- Node2 -->
<g id="node2" class="node">
<title>Node2</title>
<g id="a_node2"><a xlink:title=" ">
<polygon fill="white" stroke="#bfbfbf" points="27.86,-144 27.86,-201 77.86,-201 77.86,-144 27.86,-144"/>
<text text-anchor="middle" x="52.86" y="-189" font-family="Helvetica,sans-Serif" font-size="10.00">int32_t</text>
<polyline fill="none" stroke="#bfbfbf" points="27.86,-182 77.86,-182 "/>
<text text-anchor="middle" x="52.86" y="-170" font-family="Helvetica,sans-Serif" font-size="10.00"> </text>
<polyline fill="none" stroke="#bfbfbf" points="27.86,-163 77.86,-163 "/>
<text text-anchor="middle" x="52.86" y="-151" font-family="Helvetica,sans-Serif" font-size="10.00"> </text>
</a>
</g>
</g>
<!-- Node2&#45;&gt;Node1 -->
<g id="edge1" class="edge">
<title>Node2&#45;&gt;Node1</title>
<path fill="none" stroke="#404040" d="M48.76,-143.74C48.07,-128.74 49.93,-110.73 59.86,-98 75.61,-77.82 99.05,-64.77 123.2,-56.33"/>
<polygon fill="none" stroke="#404040" points="123.26,-56.31 127.76,-50.68 134.69,-52.66 130.19,-58.3 123.26,-56.31"/>
<text text-anchor="middle" x="79.86" y="-101" font-family="Helvetica,sans-Serif" font-size="10.00"> +offset</text>
</g>
<!-- Node3 -->
<g id="node3" class="node">
<title>Node3</title>
<g id="a_node3"><a xlink:href="classv8_1_1internal_1_1compiler_1_1turboshaft_1_1OpIndex.html" target="_top" xlink:title=" ">
<polygon fill="white" stroke="black" points="20.36,-255.5 20.36,-510.5 169.36,-510.5 169.36,-255.5 20.36,-255.5"/>
<text text-anchor="start" x="28.36" y="-498.5" font-family="Helvetica,sans-Serif" font-size="10.00">v8::internal::compiler</text>
<text text-anchor="middle" x="94.86" y="-487.5" font-family="Helvetica,sans-Serif" font-size="10.00">::turboshaft::OpIndex</text>
<polyline fill="none" stroke="black" points="20.36,-480.5 169.36,-480.5 "/>
<text text-anchor="middle" x="94.86" y="-468.5" font-family="Helvetica,sans-Serif" font-size="10.00"> </text>
<polyline fill="none" stroke="black" points="20.36,-461.5 169.36,-461.5 "/>
<text text-anchor="start" x="28.36" y="-449.5" font-family="Helvetica,sans-Serif" font-size="10.00">+ OpIndex()</text>
<text text-anchor="start" x="28.36" y="-438.5" font-family="Helvetica,sans-Serif" font-size="10.00">+ OpIndex()</text>
<text text-anchor="start" x="28.36" y="-427.5" font-family="Helvetica,sans-Serif" font-size="10.00">+ id()</text>
<text text-anchor="start" x="28.36" y="-416.5" font-family="Helvetica,sans-Serif" font-size="10.00">+ hash()</text>
<text text-anchor="start" x="28.36" y="-405.5" font-family="Helvetica,sans-Serif" font-size="10.00">+ offset()</text>
<text text-anchor="start" x="28.36" y="-394.5" font-family="Helvetica,sans-Serif" font-size="10.00">+ valid()</text>
<text text-anchor="start" x="28.36" y="-383.5" font-family="Helvetica,sans-Serif" font-size="10.00">+ DecodeTurbofanNodeId()</text>
<text text-anchor="start" x="28.36" y="-372.5" font-family="Helvetica,sans-Serif" font-size="10.00">+ IsTurbofanNodeId()</text>
<text text-anchor="start" x="28.36" y="-361.5" font-family="Helvetica,sans-Serif" font-size="10.00">+ operator==()</text>
<text text-anchor="start" x="28.36" y="-350.5" font-family="Helvetica,sans-Serif" font-size="10.00">+ operator!=()</text>
<text text-anchor="start" x="28.36" y="-339.5" font-family="Helvetica,sans-Serif" font-size="10.00">+ operator&lt;()</text>
<text text-anchor="start" x="28.36" y="-328.5" font-family="Helvetica,sans-Serif" font-size="10.00">+ operator&gt;()</text>
<text text-anchor="start" x="28.36" y="-317.5" font-family="Helvetica,sans-Serif" font-size="10.00">+ operator&lt;=()</text>
<text text-anchor="start" x="28.36" y="-306.5" font-family="Helvetica,sans-Serif" font-size="10.00">+ operator&gt;=()</text>
<text text-anchor="start" x="28.36" y="-295.5" font-family="Helvetica,sans-Serif" font-size="10.00">+ FromOffset()</text>
<text text-anchor="start" x="28.36" y="-284.5" font-family="Helvetica,sans-Serif" font-size="10.00">+ Invalid()</text>
<text text-anchor="start" x="28.36" y="-273.5" font-family="Helvetica,sans-Serif" font-size="10.00">+ EncodeTurbofanNodeId()</text>
<text text-anchor="start" x="28.36" y="-262.5" font-family="Helvetica,sans-Serif" font-size="10.00"># OpIndex()</text>
</a>
</g>
</g>
<!-- Node3&#45;&gt;Node1 -->
<g id="edge2" class="edge">
<title>Node3&#45;&gt;Node1</title>
<path fill="none" stroke="#404040" d="M90.62,-255.39C93.79,-212.63 102.61,-165.91 122.86,-127 130.47,-112.38 141.69,-99.12 153.83,-87.62"/>
<polygon fill="none" stroke="#404040" points="153.87,-87.59 155.67,-80.6 162.81,-79.57 161.01,-86.56 153.87,-87.59"/>
<text text-anchor="middle" x="140.36" y="-170" font-family="Helvetica,sans-Serif" font-size="10.00"> +base</text>
</g>
<!-- Node4 -->
<g id="node4" class="node">
<title>Node4</title>
<g id="a_node4"><a xlink:title=" ">
<polygon fill="white" stroke="#bfbfbf" points="89.36,-591.5 89.36,-648.5 154.36,-648.5 154.36,-591.5 89.36,-591.5"/>
<text text-anchor="middle" x="121.86" y="-636.5" font-family="Helvetica,sans-Serif" font-size="10.00">constexpr</text>
<polyline fill="none" stroke="#bfbfbf" points="89.36,-629.5 154.36,-629.5 "/>
<text text-anchor="middle" x="121.86" y="-617.5" font-family="Helvetica,sans-Serif" font-size="10.00"> </text>
<polyline fill="none" stroke="#bfbfbf" points="89.36,-610.5 154.36,-610.5 "/>
<text text-anchor="middle" x="121.86" y="-598.5" font-family="Helvetica,sans-Serif" font-size="10.00"> </text>
</a>
</g>
</g>
<!-- Node4&#45;&gt;Node3 -->
<g id="edge3" class="edge">
<title>Node4&#45;&gt;Node3</title>
<path fill="none" stroke="#404040" d="M89.23,-615.06C63.41,-610.04 28.95,-598.67 11.86,-573 -6.7,-545.11 -0.64,-512.39 14.53,-482.09"/>
<polygon fill="none" stroke="#404040" points="14.56,-482.04 13.89,-474.86 20.26,-471.48 20.93,-478.66 14.56,-482.04"/>
<text text-anchor="middle" x="79.86" y="-565" font-family="Helvetica,sans-Serif" font-size="10.00"> #kGenerationMask</text>
<text text-anchor="middle" x="79.86" y="-554" font-family="Helvetica,sans-Serif" font-size="10.00">#kGenerationMaskShift</text>
<text text-anchor="middle" x="79.86" y="-543" font-family="Helvetica,sans-Serif" font-size="10.00">#kTurbofanNodeIdFlag</text>
<text text-anchor="middle" x="79.86" y="-532" font-family="Helvetica,sans-Serif" font-size="10.00">#kUnmaskGenerationMask</text>
</g>
<!-- Node7 -->
<g id="node7" class="node">
<title>Node7</title>
<g id="a_node7"><a xlink:href="structv8_1_1internal_1_1wasm_1_1TypeIndex.html" target="_top" xlink:title=" ">
<polygon fill="white" stroke="black" points="187.36,-343.5 187.36,-422.5 294.36,-422.5 294.36,-343.5 187.36,-343.5"/>
<text text-anchor="start" x="195.36" y="-410.5" font-family="Helvetica,sans-Serif" font-size="10.00">v8::internal::wasm</text>
<text text-anchor="middle" x="240.86" y="-399.5" font-family="Helvetica,sans-Serif" font-size="10.00">::TypeIndex</text>
<polyline fill="none" stroke="black" points="187.36,-392.5 294.36,-392.5 "/>
<text text-anchor="middle" x="240.86" y="-380.5" font-family="Helvetica,sans-Serif" font-size="10.00"> </text>
<polyline fill="none" stroke="black" points="187.36,-373.5 294.36,-373.5 "/>
<text text-anchor="start" x="195.36" y="-361.5" font-family="Helvetica,sans-Serif" font-size="10.00">+ valid()</text>
<text text-anchor="start" x="195.36" y="-350.5" font-family="Helvetica,sans-Serif" font-size="10.00">+ hash_value()</text>
</a>
</g>
</g>
<!-- Node4&#45;&gt;Node7 -->
<g id="edge7" class="edge">
<title>Node4&#45;&gt;Node7</title>
<path fill="none" stroke="#404040" d="M137.79,-591.41C141.18,-585.38 144.69,-579 147.86,-573 172.58,-526.2 199.07,-471.92 217.43,-433.56"/>
<polygon fill="none" stroke="#404040" points="217.45,-433.52 216.42,-426.39 222.62,-422.7 223.64,-429.83 217.45,-433.52"/>
<text text-anchor="middle" x="195.36" y="-548.5" font-family="Helvetica,sans-Serif" font-size="10.00"> +kInvalid</text>
</g>
<!-- Node5 -->
<g id="node5" class="node">
<title>Node5</title>
<g id="a_node5"><a xlink:title=" ">
<polygon fill="white" stroke="#bfbfbf" points="249.86,-591.5 249.86,-648.5 305.86,-648.5 305.86,-591.5 249.86,-591.5"/>
<text text-anchor="middle" x="277.86" y="-636.5" font-family="Helvetica,sans-Serif" font-size="10.00">uint32_t</text>
<polyline fill="none" stroke="#bfbfbf" points="249.86,-629.5 305.86,-629.5 "/>
<text text-anchor="middle" x="277.86" y="-617.5" font-family="Helvetica,sans-Serif" font-size="10.00"> </text>
<polyline fill="none" stroke="#bfbfbf" points="249.86,-610.5 305.86,-610.5 "/>
<text text-anchor="middle" x="277.86" y="-598.5" font-family="Helvetica,sans-Serif" font-size="10.00"> </text>
</a>
</g>
</g>
<!-- Node5&#45;&gt;Node3 -->
<g id="edge4" class="edge">
<title>Node5&#45;&gt;Node3</title>
<path fill="none" stroke="#404040" d="M253.51,-591.17C249.01,-585.37 244.57,-579.14 240.86,-573 229.87,-554.76 237.07,-543.92 221.86,-529 208.9,-516.29 197.76,-522.06 179.24,-510.71"/>
<polygon fill="none" stroke="#404040" points="179.21,-510.69 172.01,-510.38 169.52,-503.61 176.73,-503.92 179.21,-510.69"/>
<text text-anchor="middle" x="263.36" y="-548.5" font-family="Helvetica,sans-Serif" font-size="10.00"> #offset_</text>
</g>
<!-- Node5&#45;&gt;Node7 -->
<g id="edge8" class="edge">
<title>Node5&#45;&gt;Node7</title>
<path fill="none" stroke="#404040" d="M286.26,-591.49C287.75,-585.46 289.09,-579.06 289.86,-573 292.35,-553.6 293.03,-548.3 289.86,-529 284.51,-496.42 272.81,-461.31 262.18,-433.8"/>
<polygon fill="none" stroke="#404040" points="262.13,-433.66 256.2,-429.55 257.72,-422.5 263.64,-426.61 262.13,-433.66"/>
<text text-anchor="middle" x="311.36" y="-548.5" font-family="Helvetica,sans-Serif" font-size="10.00"> +index</text>
</g>
<!-- Node6 -->
<g id="node6" class="node">
<title>Node6</title>
<g id="a_node6"><a xlink:href="structv8_1_1internal_1_1wasm_1_1ModuleTypeIndex.html" target="_top" xlink:title=" ">
<polygon fill="white" stroke="black" points="166.86,-127.5 166.86,-217.5 274.86,-217.5 274.86,-127.5 166.86,-127.5"/>
<text text-anchor="start" x="174.86" y="-205.5" font-family="Helvetica,sans-Serif" font-size="10.00">v8::internal::wasm</text>
<text text-anchor="middle" x="220.86" y="-194.5" font-family="Helvetica,sans-Serif" font-size="10.00">::ModuleTypeIndex</text>
<polyline fill="none" stroke="black" points="166.86,-187.5 274.86,-187.5 "/>
<text text-anchor="middle" x="220.86" y="-175.5" font-family="Helvetica,sans-Serif" font-size="10.00"> </text>
<polyline fill="none" stroke="black" points="166.86,-168.5 274.86,-168.5 "/>
<text text-anchor="start" x="174.86" y="-156.5" font-family="Helvetica,sans-Serif" font-size="10.00">+ operator==()</text>
<text text-anchor="start" x="174.86" y="-145.5" font-family="Helvetica,sans-Serif" font-size="10.00">+ operator&lt;=&gt;()</text>
<text text-anchor="start" x="174.86" y="-134.5" font-family="Helvetica,sans-Serif" font-size="10.00">+ Invalid()</text>
</a>
</g>
</g>
<!-- Node6&#45;&gt;Node1 -->
<g id="edge5" class="edge">
<title>Node6&#45;&gt;Node1</title>
<path fill="none" stroke="#404040" d="M220.86,-127.32C220.86,-116.02 220.86,-103.79 220.86,-92.17"/>
<polygon fill="none" stroke="#404040" points="220.86,-91.89 216.86,-85.89 220.86,-79.89 224.86,-85.89 220.86,-91.89"/>
<text text-anchor="middle" x="253.86" y="-101" font-family="Helvetica,sans-Serif" font-size="10.00"> +type_index</text>
</g>
<!-- Node7&#45;&gt;Node6 -->
<g id="edge6" class="edge">
<title>Node7&#45;&gt;Node6</title>
<path fill="none" stroke="midnightblue" d="M236.19,-333.29C232.84,-298.37 228.36,-251.69 225.11,-217.8"/>
<polygon fill="none" stroke="midnightblue" points="232.71,-333.65 237.15,-343.27 239.68,-332.98 232.71,-333.65"/>
</g>
<!-- Node8 -->
<g id="node8" class="node">
<title>Node8</title>
<g id="a_node8"><a xlink:title=" ">
<polygon fill="white" stroke="#bfbfbf" points="292.86,-144 292.86,-201 330.86,-201 330.86,-144 292.86,-144"/>
<text text-anchor="middle" x="311.86" y="-189" font-family="Helvetica,sans-Serif" font-size="10.00">bool</text>
<polyline fill="none" stroke="#bfbfbf" points="292.86,-182 330.86,-182 "/>
<text text-anchor="middle" x="311.86" y="-170" font-family="Helvetica,sans-Serif" font-size="10.00"> </text>
<polyline fill="none" stroke="#bfbfbf" points="292.86,-163 330.86,-163 "/>
<text text-anchor="middle" x="311.86" y="-151" font-family="Helvetica,sans-Serif" font-size="10.00"> </text>
</a>
</g>
</g>
<!-- Node8&#45;&gt;Node1 -->
<g id="edge9" class="edge">
<title>Node8&#45;&gt;Node1</title>
<path fill="none" stroke="#404040" d="M307.08,-143.68C303.65,-129.18 297.99,-111.68 288.86,-98 286.68,-94.73 284.26,-91.55 281.67,-88.47"/>
<polygon fill="none" stroke="#404040" points="281.58,-88.37 274.58,-86.66 273.46,-79.54 280.46,-81.25 281.58,-88.37"/>
<text text-anchor="middle" x="325.86" y="-101" font-family="Helvetica,sans-Serif" font-size="10.00"> +mutability</text>
</g>
<!-- Node9 -->
<g id="node9" class="node">
<title>Node9</title>
<g id="a_node9"><a xlink:title=" ">
<polygon fill="white" stroke="#bfbfbf" points="370.86,-144 370.86,-201 420.86,-201 420.86,-144 370.86,-144"/>
<text text-anchor="middle" x="395.86" y="-189" font-family="Helvetica,sans-Serif" font-size="10.00">uint8_t</text>
<polyline fill="none" stroke="#bfbfbf" points="370.86,-182 420.86,-182 "/>
<text text-anchor="middle" x="395.86" y="-170" font-family="Helvetica,sans-Serif" font-size="10.00"> </text>
<polyline fill="none" stroke="#bfbfbf" points="370.86,-163 420.86,-163 "/>
<text text-anchor="middle" x="395.86" y="-151" font-family="Helvetica,sans-Serif" font-size="10.00"> </text>
</a>
</g>
</g>
<!-- Node9&#45;&gt;Node1 -->
<g id="edge10" class="edge">
<title>Node9&#45;&gt;Node1</title>
<path fill="none" stroke="#404040" d="M388.1,-143.7C382.63,-128.51 373.92,-110.32 360.86,-98 348.65,-86.48 333.8,-77.15 318.4,-69.65"/>
<polygon fill="none" stroke="#404040" points="318.03,-69.48 310.91,-70.63 307.11,-64.5 314.23,-63.35 318.03,-69.48"/>
<text text-anchor="middle" x="384.36" y="-101" font-family="Helvetica,sans-Serif" font-size="10.00"> +size</text>
</g>
</g>
</svg>
