<?xml version="1.0" encoding="UTF-8" standalone="no"?>
<!DOCTYPE svg PUBLIC "-//W3C//DTD SVG 1.1//EN"
 "http://www.w3.org/Graphics/SVG/1.1/DTD/svg11.dtd">
<!-- Generated by graphviz version 2.43.0 (0)
 -->
<!-- Title: v8::internal::maglev::DeoptFrame::BuiltinContinuationFrameData Pages: 1 -->
<!--zoomable 276 -->
<svg id="main" version="1.1" xmlns="http://www.w3.org/2000/svg" xmlns:xlink="http://www.w3.org/1999/xlink" xml:space="preserve" onload="init(evt)">
<style type="text/css"><![CDATA[
.edge:hover path { stroke: red; }
.edge:hover polygon { stroke: red; fill: red; }
]]></style>
<script type="text/javascript"><![CDATA[
var edges = document.getElementsByTagName('g');
if (edges && edges.length) {
  for (var i=0;i<edges.length;i++) {
    if (edges[i].id.substr(0,4)=='edge') {
      edges[i].setAttribute('class','edge');
    }
  }
}
]]></script>
        <defs>
                <circle id="rim" cx="0" cy="0" r="7"/>
                <circle id="rim2" cx="0" cy="0" r="3.5"/>
                <g id="zoomPlus">
                        <use xlink:href="#rim" fill="#404040">
                                <set attributeName="fill" to="#808080" begin="zoomplus.mouseover" end="zoomplus.mouseout"/>
                        </use>
                        <path d="M-4,0h8M0,-4v8" fill="none" stroke="white" stroke-width="1.5" pointer-events="none"/>
                </g>
                <g id="zoomMin">
                        <use xlink:href="#rim" fill="#404040">
                                <set attributeName="fill" to="#808080" begin="zoomminus.mouseover" end="zoomminus.mouseout"/>
                        </use>
                        <path d="M-4,0h8" fill="none" stroke="white" stroke-width="1.5" pointer-events="none"/>
                </g>
                <g id="dirArrow">
                        <path fill="none" stroke="white" stroke-width="1.5" d="M0,-3.0v7 M-2.5,-0.5L0,-3.0L2.5,-0.5"/>
                </g>
               <g id="resetDef">
                       <use xlink:href="#rim2" fill="#404040">
                               <set attributeName="fill" to="#808080" begin="reset.mouseover" end="reset.mouseout"/>
                       </use>
               </g>
        </defs>

<script type="text/javascript">
var viewWidth = 1359;
var viewHeight = 276;
var sectionId = 'dynsection-0';
</script>
<script xlink:href="svgpan.js"/>
<svg id="graph" class="graph">
<g id="viewport">
<title>v8::internal::maglev::DeoptFrame::BuiltinContinuationFrameData</title>
<polygon fill="white" stroke="transparent" points="-4,4 -4,-271.5 1355,-271.5 1355,4 -4,4"/>
<!-- Node1 -->
<g id="node1" class="node">
<title>Node1</title>
<g id="a_node1"><a xlink:title=" ">
<polygon fill="#bfbfbf" stroke="black" points="1169,-179 1169,-220 1351,-220 1351,-179 1169,-179"/>
<text text-anchor="start" x="1177" y="-208" font-family="Helvetica,sans-Serif" font-size="10.00">v8::internal::maglev</text>
<text text-anchor="start" x="1177" y="-197" font-family="Helvetica,sans-Serif" font-size="10.00">::DeoptFrame::BuiltinContinuation</text>
<text text-anchor="middle" x="1260" y="-186" font-family="Helvetica,sans-Serif" font-size="10.00">FrameData</text>
</a>
</g>
</g>
<!-- Node2 -->
<g id="node2" class="node">
<title>Node2</title>
<g id="a_node2"><a xlink:href="classv8_1_1internal_1_1maglev_1_1ValueNode.html" target="_top" xlink:title=" ">
<polygon fill="white" stroke="black" points="978,-106.5 978,-136.5 1093,-136.5 1093,-106.5 978,-106.5"/>
<text text-anchor="start" x="986" y="-124.5" font-family="Helvetica,sans-Serif" font-size="10.00">v8::internal::maglev</text>
<text text-anchor="middle" x="1035.5" y="-113.5" font-family="Helvetica,sans-Serif" font-size="10.00">::ValueNode</text>
</a>
</g>
</g>
<!-- Node2&#45;&gt;Node1 -->
<g id="edge1" class="edge">
<title>Node2&#45;&gt;Node1</title>
<path fill="none" stroke="#9a32cd" stroke-dasharray="5,2" d="M1088.98,-139.9C1122.39,-151.61 1165.7,-166.79 1200.25,-178.9"/>
<polygon fill="#9a32cd" stroke="#9a32cd" points="1090,-136.54 1079.4,-136.54 1087.68,-143.15 1090,-136.54"/>
<text text-anchor="middle" x="1131" y="-163.5" font-family="Helvetica,sans-Serif" font-size="10.00"> context</text>
</g>
<!-- Node3 -->
<g id="node3" class="node">
<title>Node3</title>
<g id="a_node3"><a xlink:href="classv8_1_1internal_1_1maglev_1_1Node.html" target="_top" xlink:title=" ">
<polygon fill="white" stroke="black" points="704.5,-137.5 704.5,-167.5 819.5,-167.5 819.5,-137.5 704.5,-137.5"/>
<text text-anchor="start" x="712.5" y="-155.5" font-family="Helvetica,sans-Serif" font-size="10.00">v8::internal::maglev</text>
<text text-anchor="middle" x="762" y="-144.5" font-family="Helvetica,sans-Serif" font-size="10.00">::Node</text>
</a>
</g>
</g>
<!-- Node3&#45;&gt;Node2 -->
<g id="edge2" class="edge">
<title>Node3&#45;&gt;Node2</title>
<path fill="none" stroke="midnightblue" d="M829.66,-144.89C875.17,-139.69 934.81,-132.88 977.99,-127.95"/>
<polygon fill="midnightblue" stroke="midnightblue" points="829.12,-141.43 819.58,-146.04 829.92,-148.38 829.12,-141.43"/>
</g>
<!-- Node4 -->
<g id="node4" class="node">
<title>Node4</title>
<g id="a_node4"><a xlink:href="classv8_1_1internal_1_1maglev_1_1NodeBase.html" target="_top" xlink:title=" ">
<polygon fill="white" stroke="black" points="485,-137.5 485,-167.5 600,-167.5 600,-137.5 485,-137.5"/>
<text text-anchor="start" x="493" y="-155.5" font-family="Helvetica,sans-Serif" font-size="10.00">v8::internal::maglev</text>
<text text-anchor="middle" x="542.5" y="-144.5" font-family="Helvetica,sans-Serif" font-size="10.00">::NodeBase</text>
</a>
</g>
</g>
<!-- Node4&#45;&gt;Node3 -->
<g id="edge3" class="edge">
<title>Node4&#45;&gt;Node3</title>
<path fill="none" stroke="midnightblue" d="M610.09,-152.5C640.23,-152.5 675.48,-152.5 704.33,-152.5"/>
<polygon fill="midnightblue" stroke="midnightblue" points="610.08,-149 600.08,-152.5 610.08,-156 610.08,-149"/>
</g>
<!-- Node5 -->
<g id="node5" class="node">
<title>Node5</title>
<g id="a_node5"><a xlink:href="classv8_1_1internal_1_1ZoneObject.html" target="_top" xlink:title=" ">
<polygon fill="white" stroke="black" points="194,-140 194,-159 328,-159 328,-140 194,-140"/>
<text text-anchor="middle" x="261" y="-147" font-family="Helvetica,sans-Serif" font-size="10.00">v8::internal::ZoneObject</text>
</a>
</g>
</g>
<!-- Node5&#45;&gt;Node4 -->
<g id="edge4" class="edge">
<title>Node5&#45;&gt;Node4</title>
<path fill="none" stroke="midnightblue" d="M338.51,-150.32C384.7,-150.82 442.59,-151.44 484.71,-151.89"/>
<polygon fill="midnightblue" stroke="midnightblue" points="338.27,-146.82 328.24,-150.21 338.2,-153.82 338.27,-146.82"/>
</g>
<!-- Node6 -->
<g id="node6" class="node">
<title>Node6</title>
<g id="a_node6"><a xlink:href="classv8_1_1internal_1_1maglev_1_1OpProperties.html" target="_top" xlink:title=" ">
<polygon fill="white" stroke="black" points="203.5,-178.5 203.5,-208.5 318.5,-208.5 318.5,-178.5 203.5,-178.5"/>
<text text-anchor="start" x="211.5" y="-196.5" font-family="Helvetica,sans-Serif" font-size="10.00">v8::internal::maglev</text>
<text text-anchor="middle" x="261" y="-185.5" font-family="Helvetica,sans-Serif" font-size="10.00">::OpProperties</text>
</a>
</g>
</g>
<!-- Node6&#45;&gt;Node4 -->
<g id="edge5" class="edge">
<title>Node6&#45;&gt;Node4</title>
<path fill="none" stroke="#9a32cd" stroke-dasharray="5,2" d="M328.53,-184.42C368.67,-178.86 420.8,-171.49 467,-164.5 472.83,-163.62 478.91,-162.68 484.98,-161.72"/>
<polygon fill="#9a32cd" stroke="#9a32cd" points="328.03,-180.95 318.6,-185.79 328.99,-187.89 328.03,-180.95"/>
<text text-anchor="middle" x="406.5" y="-183.5" font-family="Helvetica,sans-Serif" font-size="10.00"> kProperties</text>
</g>
<!-- Node7 -->
<g id="node7" class="node">
<title>Node7</title>
<g id="a_node7"><a xlink:title=" ">
<polygon fill="white" stroke="#bfbfbf" points="0,-184 0,-203 43,-203 43,-184 0,-184"/>
<text text-anchor="middle" x="21.5" y="-191" font-family="Helvetica,sans-Serif" font-size="10.00">const</text>
</a>
</g>
</g>
<!-- Node7&#45;&gt;Node1 -->
<g id="edge12" class="edge">
<title>Node7&#45;&gt;Node1</title>
<path fill="none" stroke="#9a32cd" stroke-dasharray="5,2" d="M52.51,-205.81C55.36,-206.79 58.22,-207.71 61,-208.5 147.51,-233.16 170.04,-245.5 260,-245.5 260,-245.5 260,-245.5 1036.5,-245.5 1090.54,-245.5 1150.46,-232.33 1194.5,-220.08"/>
<polygon fill="#9a32cd" stroke="#9a32cd" points="53.63,-202.49 43.04,-202.32 51.21,-209.06 53.63,-202.49"/>
<text text-anchor="middle" x="646.5" y="-259.5" font-family="Helvetica,sans-Serif" font-size="10.00"> builtin_id</text>
<text text-anchor="middle" x="646.5" y="-248.5" font-family="Helvetica,sans-Serif" font-size="10.00">parameters</text>
</g>
<!-- Node7&#45;&gt;Node6 -->
<g id="edge6" class="edge">
<title>Node7&#45;&gt;Node6</title>
<path fill="none" stroke="#9a32cd" stroke-dasharray="5,2" d="M53.56,-193.5C91.46,-193.5 156.29,-193.5 203.2,-193.5"/>
<polygon fill="#9a32cd" stroke="#9a32cd" points="53.16,-190 43.16,-193.5 53.16,-197 53.16,-190"/>
<text text-anchor="middle" x="118.5" y="-196.5" font-family="Helvetica,sans-Serif" font-size="10.00"> kSize</text>
</g>
<!-- Node9 -->
<g id="node9" class="node">
<title>Node9</title>
<g id="a_node9"><a xlink:href="classv8_1_1internal_1_1compiler_1_1InstructionOperand.html" target="_top" xlink:title=" ">
<polygon fill="white" stroke="black" points="346,-94.5 346,-124.5 467,-124.5 467,-94.5 346,-94.5"/>
<text text-anchor="start" x="354" y="-112.5" font-family="Helvetica,sans-Serif" font-size="10.00">v8::internal::compiler</text>
<text text-anchor="middle" x="406.5" y="-101.5" font-family="Helvetica,sans-Serif" font-size="10.00">::InstructionOperand</text>
</a>
</g>
</g>
<!-- Node7&#45;&gt;Node9 -->
<g id="edge9" class="edge">
<title>Node7&#45;&gt;Node9</title>
<path fill="none" stroke="#9a32cd" stroke-dasharray="5,2" d="M52.67,-181.66C55.48,-180.58 58.29,-179.52 61,-178.5 119.84,-156.42 132.71,-144.38 194,-130.5 244.38,-119.09 302.91,-113.88 345.61,-111.5"/>
<polygon fill="#9a32cd" stroke="#9a32cd" points="51.31,-178.44 43.24,-185.31 53.83,-184.97 51.31,-178.44"/>
<text text-anchor="middle" x="118.5" y="-181.5" font-family="Helvetica,sans-Serif" font-size="10.00"> kInvalidVirtualRegister</text>
</g>
<!-- Node8 -->
<g id="node8" class="node">
<title>Node8</title>
<g id="a_node8"><a xlink:href="classv8_1_1internal_1_1RegListBase.html" target="_top" xlink:title=" ">
<polygon fill="white" stroke="black" points="693,-49.5 693,-79.5 831,-79.5 831,-49.5 693,-49.5"/>
<text text-anchor="start" x="701" y="-67.5" font-family="Helvetica,sans-Serif" font-size="10.00">v8::internal::RegListBase</text>
<text text-anchor="middle" x="762" y="-56.5" font-family="Helvetica,sans-Serif" font-size="10.00">&lt; Register &gt;</text>
</a>
</g>
</g>
<!-- Node8&#45;&gt;Node2 -->
<g id="edge7" class="edge">
<title>Node8&#45;&gt;Node2</title>
<path fill="none" stroke="#9a32cd" stroke-dasharray="5,2" d="M841.33,-65.33C877.98,-67.42 921.86,-72.37 960,-83.5 977.84,-88.71 996.47,-98.21 1010.63,-106.4"/>
<polygon fill="#9a32cd" stroke="#9a32cd" points="841.36,-61.83 831.2,-64.82 841.01,-68.82 841.36,-61.83"/>
<text text-anchor="middle" x="904.5" y="-86.5" font-family="Helvetica,sans-Serif" font-size="10.00"> registers_with_result_</text>
</g>
<!-- Node9&#45;&gt;Node2 -->
<g id="edge8" class="edge">
<title>Node9&#45;&gt;Node2</title>
<path fill="none" stroke="#9a32cd" stroke-dasharray="5,2" d="M477.28,-110.84C602.38,-113.23 862.52,-118.21 977.61,-120.41"/>
<polygon fill="#9a32cd" stroke="#9a32cd" points="477.12,-107.33 467.05,-110.64 476.98,-114.33 477.12,-107.33"/>
<text text-anchor="middle" x="646.5" y="-128.5" font-family="Helvetica,sans-Serif" font-size="10.00"> hint_</text>
<text text-anchor="middle" x="646.5" y="-117.5" font-family="Helvetica,sans-Serif" font-size="10.00">spill_</text>
</g>
<!-- Node10 -->
<g id="node10" class="node">
<title>Node10</title>
<g id="a_node10"><a xlink:href="classv8_1_1internal_1_1RegListBase.html" target="_top" xlink:title=" ">
<polygon fill="white" stroke="black" points="693,-0.5 693,-30.5 831,-30.5 831,-0.5 693,-0.5"/>
<text text-anchor="start" x="701" y="-18.5" font-family="Helvetica,sans-Serif" font-size="10.00">v8::internal::RegListBase</text>
<text text-anchor="middle" x="762" y="-7.5" font-family="Helvetica,sans-Serif" font-size="10.00">&lt; DoubleRegister &gt;</text>
</a>
</g>
</g>
<!-- Node10&#45;&gt;Node2 -->
<g id="edge10" class="edge">
<title>Node10&#45;&gt;Node2</title>
<path fill="none" stroke="#9a32cd" stroke-dasharray="5,2" d="M841.59,-13.19C879.24,-15.07 923.88,-21.85 960,-40.5 989.37,-55.67 1013.07,-87.33 1025.35,-106.26"/>
<polygon fill="#9a32cd" stroke="#9a32cd" points="841.3,-9.68 831.17,-12.79 841.03,-16.67 841.3,-9.68"/>
<text text-anchor="start" x="849" y="-54.5" font-family="Helvetica,sans-Serif" font-size="10.00"> double_registers_with</text>
<text text-anchor="middle" x="904.5" y="-43.5" font-family="Helvetica,sans-Serif" font-size="10.00">_result_</text>
</g>
<!-- Node11 -->
<g id="node11" class="node">
<title>Node11</title>
<g id="a_node11"><a xlink:href="classv8_1_1internal_1_1maglev_1_1ValueLocation.html" target="_top" xlink:title=" ">
<polygon fill="white" stroke="black" points="704.5,-186.5 704.5,-216.5 819.5,-216.5 819.5,-186.5 704.5,-186.5"/>
<text text-anchor="start" x="712.5" y="-204.5" font-family="Helvetica,sans-Serif" font-size="10.00">v8::internal::maglev</text>
<text text-anchor="middle" x="762" y="-193.5" font-family="Helvetica,sans-Serif" font-size="10.00">::ValueLocation</text>
</a>
</g>
</g>
<!-- Node11&#45;&gt;Node2 -->
<g id="edge11" class="edge">
<title>Node11&#45;&gt;Node2</title>
<path fill="none" stroke="#9a32cd" stroke-dasharray="5,2" d="M829.59,-186.33C868.03,-177.06 917.1,-164.35 960,-150.5 972.68,-146.41 986.33,-141.31 998.43,-136.53"/>
<polygon fill="#9a32cd" stroke="#9a32cd" points="828.46,-183 819.55,-188.73 830.09,-189.81 828.46,-183"/>
<text text-anchor="middle" x="904.5" y="-182.5" font-family="Helvetica,sans-Serif" font-size="10.00"> result_</text>
</g>
</g>
</svg>
        <g id="navigator" transform="translate(0 0)" fill="#404254">
                <rect fill="#f2f5e9" fill-opacity="0.5" stroke="#606060" stroke-width=".5" x="0" y="0" width="60" height="60"/>
                <use id="zoomplus" xlink:href="#zoomPlus" x="17" y="9" onmousedown="handleZoom(evt,'in')"/>
                <use id="zoomminus" xlink:href="#zoomMin" x="42" y="9" onmousedown="handleZoom(evt,'out')"/>
                <use id="reset" xlink:href="#resetDef" x="30" y="36" onmousedown="handleReset()"/>
                <g id="arrowUp" xlink:href="#dirArrow" transform="translate(30 24)" onmousedown="handlePan(0,-1)">
                  <use xlink:href="#rim" fill="#404040">
                        <set attributeName="fill" to="#808080" begin="arrowUp.mouseover" end="arrowUp.mouseout"/>
                  </use>
                  <path fill="none" stroke="white" stroke-width="1.5" d="M0,-3.0v7 M-2.5,-0.5L0,-3.0L2.5,-0.5"/>
                </g>
                <g id="arrowRight" xlink:href="#dirArrow" transform="rotate(90) translate(36 -43)" onmousedown="handlePan(1,0)">
                  <use xlink:href="#rim" fill="#404040">
                        <set attributeName="fill" to="#808080" begin="arrowRight.mouseover" end="arrowRight.mouseout"/>
                  </use>
                  <path fill="none" stroke="white" stroke-width="1.5" d="M0,-3.0v7 M-2.5,-0.5L0,-3.0L2.5,-0.5"/>
                </g>
                <g id="arrowDown" xlink:href="#dirArrow" transform="rotate(180) translate(-30 -48)" onmousedown="handlePan(0,1)">
                  <use xlink:href="#rim" fill="#404040">
                        <set attributeName="fill" to="#808080" begin="arrowDown.mouseover" end="arrowDown.mouseout"/>
                  </use>
                  <path fill="none" stroke="white" stroke-width="1.5" d="M0,-3.0v7 M-2.5,-0.5L0,-3.0L2.5,-0.5"/>
                </g>
                <g id="arrowLeft" xlink:href="#dirArrow" transform="rotate(270) translate(-36 17)" onmousedown="handlePan(-1,0)">
                  <use xlink:href="#rim" fill="#404040">
                        <set attributeName="fill" to="#808080" begin="arrowLeft.mouseover" end="arrowLeft.mouseout"/>
                  </use>
                  <path fill="none" stroke="white" stroke-width="1.5" d="M0,-3.0v7 M-2.5,-0.5L0,-3.0L2.5,-0.5"/>
                </g>
        </g>
        <svg viewBox="0 0 15 15" width="100%" height="30px" preserveAspectRatio="xMaxYMin meet">
         <g id="arrow_out" transform="scale(0.3 0.3)">
          <a xlink:href="structv8_1_1internal_1_1maglev_1_1DeoptFrame_1_1BuiltinContinuationFrameData__coll__graph_org.svg" target="_base">
           <rect id="button" ry="5" rx="5" y="6" x="6" height="38" width="38"
                fill="#f2f5e9" fill-opacity="0.5" stroke="#606060" stroke-width="1.0"/>
           <path id="arrow"
             d="M 11.500037,31.436501 C 11.940474,20.09759 22.043105,11.32322 32.158766,21.979434 L 37.068811,17.246167 C 37.068811,17.246167 37.088388,32 37.088388,32 L 22.160133,31.978069 C 22.160133,31.978069 26.997745,27.140456 26.997745,27.140456 C 18.528582,18.264221 13.291696,25.230495 11.500037,31.436501 z"
             style="fill:#404040;"/>
          </a>
         </g>
        </svg>
</svg>
