<?xml version="1.0" encoding="UTF-8" standalone="no"?>
<!DOCTYPE svg PUBLIC "-//W3C//DTD SVG 1.1//EN"
 "http://www.w3.org/Graphics/SVG/1.1/DTD/svg11.dtd">
<!-- Generated by graphviz version 2.43.0 (0)
 -->
<!-- Title: /mnt/V8SourceCode/src/debug/wasm/gdb&#45;server/transport.h Pages: 1 -->
<svg width="689pt" height="284pt"
 viewBox="0.00 0.00 689.00 284.00" xmlns="http://www.w3.org/2000/svg" xmlns:xlink="http://www.w3.org/1999/xlink">
<g id="graph0" class="graph" transform="scale(1 1) rotate(0) translate(4 280)">
<title>/mnt/V8SourceCode/src/debug/wasm/gdb&#45;server/transport.h</title>
<polygon fill="white" stroke="transparent" points="-4,4 -4,-280 685,-280 685,4 -4,4"/>
<!-- Node1 -->
<g id="node1" class="node">
<title>Node1</title>
<g id="a_node1"><a xlink:title=" ">
<polygon fill="#bfbfbf" stroke="black" points="340,-234.5 340,-275.5 477,-275.5 477,-234.5 340,-234.5"/>
<text text-anchor="start" x="348" y="-263.5" font-family="Helvetica,sans-Serif" font-size="10.00">/mnt/V8SourceCode/src</text>
<text text-anchor="start" x="348" y="-252.5" font-family="Helvetica,sans-Serif" font-size="10.00">/debug/wasm/gdb&#45;server</text>
<text text-anchor="middle" x="408.5" y="-241.5" font-family="Helvetica,sans-Serif" font-size="10.00">/transport.h</text>
</a>
</g>
</g>
<!-- Node2 -->
<g id="node2" class="node">
<title>Node2</title>
<g id="a_node2"><a xlink:href="gdb-server-thread_8h.html" target="_top" xlink:title=" ">
<polygon fill="white" stroke="black" points="176,-156.5 176,-197.5 313,-197.5 313,-156.5 176,-156.5"/>
<text text-anchor="start" x="184" y="-185.5" font-family="Helvetica,sans-Serif" font-size="10.00">/mnt/V8SourceCode/src</text>
<text text-anchor="start" x="184" y="-174.5" font-family="Helvetica,sans-Serif" font-size="10.00">/debug/wasm/gdb&#45;server</text>
<text text-anchor="middle" x="244.5" y="-163.5" font-family="Helvetica,sans-Serif" font-size="10.00">/gdb&#45;server&#45;thread.h</text>
</a>
</g>
</g>
<!-- Node1&#45;&gt;Node2 -->
<g id="edge1" class="edge">
<title>Node1&#45;&gt;Node2</title>
<path fill="none" stroke="midnightblue" d="M357.12,-230.19C334.43,-219.67 308.09,-207.47 286.59,-197.51"/>
<polygon fill="midnightblue" stroke="midnightblue" points="355.72,-233.4 366.27,-234.43 358.66,-227.05 355.72,-233.4"/>
</g>
<!-- Node6 -->
<g id="node6" class="node">
<title>Node6</title>
<g id="a_node6"><a xlink:href="target_8cc.html" target="_top" xlink:title=" ">
<polygon fill="white" stroke="black" points="310,-0.5 310,-41.5 447,-41.5 447,-0.5 310,-0.5"/>
<text text-anchor="start" x="318" y="-29.5" font-family="Helvetica,sans-Serif" font-size="10.00">/mnt/V8SourceCode/src</text>
<text text-anchor="start" x="318" y="-18.5" font-family="Helvetica,sans-Serif" font-size="10.00">/debug/wasm/gdb&#45;server</text>
<text text-anchor="middle" x="378.5" y="-7.5" font-family="Helvetica,sans-Serif" font-size="10.00">/target.cc</text>
</a>
</g>
</g>
<!-- Node1&#45;&gt;Node6 -->
<g id="edge9" class="edge">
<title>Node1&#45;&gt;Node6</title>
<path fill="none" stroke="midnightblue" d="M390.53,-225.64C386.04,-217.08 381.83,-207.45 379.5,-198 365.86,-142.67 371.56,-74.55 375.66,-41.64"/>
<polygon fill="midnightblue" stroke="midnightblue" points="387.52,-227.42 395.46,-234.44 393.63,-224 387.52,-227.42"/>
</g>
<!-- Node7 -->
<g id="node7" class="node">
<title>Node7</title>
<g id="a_node7"><a xlink:href="session_8cc.html" target="_top" xlink:title=" ">
<polygon fill="white" stroke="black" points="389,-156.5 389,-197.5 526,-197.5 526,-156.5 389,-156.5"/>
<text text-anchor="start" x="397" y="-185.5" font-family="Helvetica,sans-Serif" font-size="10.00">/mnt/V8SourceCode/src</text>
<text text-anchor="start" x="397" y="-174.5" font-family="Helvetica,sans-Serif" font-size="10.00">/debug/wasm/gdb&#45;server</text>
<text text-anchor="middle" x="457.5" y="-163.5" font-family="Helvetica,sans-Serif" font-size="10.00">/session.cc</text>
</a>
</g>
</g>
<!-- Node1&#45;&gt;Node7 -->
<g id="edge8" class="edge">
<title>Node1&#45;&gt;Node7</title>
<path fill="none" stroke="midnightblue" d="M426.71,-225.76C432.77,-216.35 439.39,-206.1 444.92,-197.51"/>
<polygon fill="midnightblue" stroke="midnightblue" points="423.6,-224.13 421.12,-234.43 429.48,-227.92 423.6,-224.13"/>
</g>
<!-- Node8 -->
<g id="node8" class="node">
<title>Node8</title>
<g id="a_node8"><a xlink:href="transport_8cc.html" target="_top" xlink:title=" ">
<polygon fill="white" stroke="black" points="544,-156.5 544,-197.5 681,-197.5 681,-156.5 544,-156.5"/>
<text text-anchor="start" x="552" y="-185.5" font-family="Helvetica,sans-Serif" font-size="10.00">/mnt/V8SourceCode/src</text>
<text text-anchor="start" x="552" y="-174.5" font-family="Helvetica,sans-Serif" font-size="10.00">/debug/wasm/gdb&#45;server</text>
<text text-anchor="middle" x="612.5" y="-163.5" font-family="Helvetica,sans-Serif" font-size="10.00">/transport.cc</text>
</a>
</g>
</g>
<!-- Node1&#45;&gt;Node8 -->
<g id="edge10" class="edge">
<title>Node1&#45;&gt;Node8</title>
<path fill="none" stroke="midnightblue" d="M470.54,-230.89C499.18,-220.22 532.81,-207.69 560.14,-197.51"/>
<polygon fill="midnightblue" stroke="midnightblue" points="469.18,-227.66 461.04,-234.43 471.63,-234.22 469.18,-227.66"/>
</g>
<!-- Node3 -->
<g id="node3" class="node">
<title>Node3</title>
<g id="a_node3"><a xlink:href="gdb-server-thread_8cc.html" target="_top" xlink:title=" ">
<polygon fill="white" stroke="black" points="155,-0.5 155,-41.5 292,-41.5 292,-0.5 155,-0.5"/>
<text text-anchor="start" x="163" y="-29.5" font-family="Helvetica,sans-Serif" font-size="10.00">/mnt/V8SourceCode/src</text>
<text text-anchor="start" x="163" y="-18.5" font-family="Helvetica,sans-Serif" font-size="10.00">/debug/wasm/gdb&#45;server</text>
<text text-anchor="middle" x="223.5" y="-7.5" font-family="Helvetica,sans-Serif" font-size="10.00">/gdb&#45;server&#45;thread.cc</text>
</a>
</g>
</g>
<!-- Node2&#45;&gt;Node3 -->
<g id="edge2" class="edge">
<title>Node2&#45;&gt;Node3</title>
<path fill="none" stroke="midnightblue" d="M270.09,-148.25C276.36,-139.79 282.21,-130.05 285.5,-120 291.3,-102.26 293.08,-95.06 285.5,-78 279.02,-63.42 266.66,-51.03 254.67,-41.64"/>
<polygon fill="midnightblue" stroke="midnightblue" points="267.22,-146.24 263.76,-156.25 272.71,-150.58 267.22,-146.24"/>
</g>
<!-- Node4 -->
<g id="node4" class="node">
<title>Node4</title>
<g id="a_node4"><a xlink:href="gdb-server_8cc.html" target="_top" xlink:title=" ">
<polygon fill="white" stroke="black" points="0,-0.5 0,-41.5 137,-41.5 137,-0.5 0,-0.5"/>
<text text-anchor="start" x="8" y="-29.5" font-family="Helvetica,sans-Serif" font-size="10.00">/mnt/V8SourceCode/src</text>
<text text-anchor="start" x="8" y="-18.5" font-family="Helvetica,sans-Serif" font-size="10.00">/debug/wasm/gdb&#45;server</text>
<text text-anchor="middle" x="68.5" y="-7.5" font-family="Helvetica,sans-Serif" font-size="10.00">/gdb&#45;server.cc</text>
</a>
</g>
</g>
<!-- Node2&#45;&gt;Node4 -->
<g id="edge3" class="edge">
<title>Node2&#45;&gt;Node4</title>
<path fill="none" stroke="midnightblue" d="M180.16,-151.98C162.82,-143.57 144.9,-132.93 130.5,-120 105.63,-97.67 86.95,-63.09 76.88,-41.54"/>
<polygon fill="midnightblue" stroke="midnightblue" points="179.16,-155.38 189.7,-156.42 182.11,-149.03 179.16,-155.38"/>
</g>
<!-- Node5 -->
<g id="node5" class="node">
<title>Node5</title>
<g id="a_node5"><a xlink:href="gdb-server_8h.html" target="_top" xlink:title=" ">
<polygon fill="white" stroke="black" points="140,-78.5 140,-119.5 277,-119.5 277,-78.5 140,-78.5"/>
<text text-anchor="start" x="148" y="-107.5" font-family="Helvetica,sans-Serif" font-size="10.00">/mnt/V8SourceCode/src</text>
<text text-anchor="start" x="148" y="-96.5" font-family="Helvetica,sans-Serif" font-size="10.00">/debug/wasm/gdb&#45;server</text>
<text text-anchor="middle" x="208.5" y="-85.5" font-family="Helvetica,sans-Serif" font-size="10.00">/gdb&#45;server.h</text>
</a>
</g>
</g>
<!-- Node2&#45;&gt;Node5 -->
<g id="edge4" class="edge">
<title>Node2&#45;&gt;Node5</title>
<path fill="none" stroke="midnightblue" d="M230.85,-147.17C226.47,-137.93 221.72,-127.92 217.74,-119.51"/>
<polygon fill="midnightblue" stroke="midnightblue" points="227.79,-148.89 235.23,-156.43 234.11,-145.89 227.79,-148.89"/>
</g>
<!-- Node5&#45;&gt;Node3 -->
<g id="edge5" class="edge">
<title>Node5&#45;&gt;Node3</title>
<path fill="none" stroke="midnightblue" d="M214.3,-68.59C216.1,-59.51 218.02,-49.74 219.65,-41.51"/>
<polygon fill="midnightblue" stroke="midnightblue" points="210.87,-67.94 212.36,-78.43 217.73,-69.3 210.87,-67.94"/>
</g>
<!-- Node5&#45;&gt;Node4 -->
<g id="edge6" class="edge">
<title>Node5&#45;&gt;Node4</title>
<path fill="none" stroke="midnightblue" d="M163.6,-73.63C144.47,-63.24 122.46,-51.29 104.43,-41.51"/>
<polygon fill="midnightblue" stroke="midnightblue" points="161.99,-76.73 172.45,-78.43 165.33,-70.58 161.99,-76.73"/>
</g>
<!-- Node5&#45;&gt;Node6 -->
<g id="edge7" class="edge">
<title>Node5&#45;&gt;Node6</title>
<path fill="none" stroke="midnightblue" d="M261.45,-74.33C285.04,-63.78 312.48,-51.51 334.87,-41.51"/>
<polygon fill="midnightblue" stroke="midnightblue" points="259.98,-71.15 252.28,-78.43 262.84,-77.54 259.98,-71.15"/>
</g>
</g>
</svg>
