<?xml version="1.0" encoding="UTF-8" standalone="no"?>
<!DOCTYPE svg PUBLIC "-//W3C//DTD SVG 1.1//EN"
 "http://www.w3.org/Graphics/SVG/1.1/DTD/svg11.dtd">
<!-- Generated by graphviz version 2.43.0 (0)
 -->
<!-- Title: /mnt/V8SourceCode/src/compiler/turboshaft/use&#45;map.cc Pages: 1 -->
<!--zoomable 665 -->
<svg id="main" version="1.1" xmlns="http://www.w3.org/2000/svg" xmlns:xlink="http://www.w3.org/1999/xlink" xml:space="preserve" onload="init(evt)">
<style type="text/css"><![CDATA[
.edge:hover path { stroke: red; }
.edge:hover polygon { stroke: red; fill: red; }
]]></style>
<script type="text/javascript"><![CDATA[
var edges = document.getElementsByTagName('g');
if (edges && edges.length) {
  for (var i=0;i<edges.length;i++) {
    if (edges[i].id.substr(0,4)=='edge') {
      edges[i].setAttribute('class','edge');
    }
  }
}
]]></script>
        <defs>
                <circle id="rim" cx="0" cy="0" r="7"/>
                <circle id="rim2" cx="0" cy="0" r="3.5"/>
                <g id="zoomPlus">
                        <use xlink:href="#rim" fill="#404040">
                                <set attributeName="fill" to="#808080" begin="zoomplus.mouseover" end="zoomplus.mouseout"/>
                        </use>
                        <path d="M-4,0h8M0,-4v8" fill="none" stroke="white" stroke-width="1.5" pointer-events="none"/>
                </g>
                <g id="zoomMin">
                        <use xlink:href="#rim" fill="#404040">
                                <set attributeName="fill" to="#808080" begin="zoomminus.mouseover" end="zoomminus.mouseout"/>
                        </use>
                        <path d="M-4,0h8" fill="none" stroke="white" stroke-width="1.5" pointer-events="none"/>
                </g>
                <g id="dirArrow">
                        <path fill="none" stroke="white" stroke-width="1.5" d="M0,-3.0v7 M-2.5,-0.5L0,-3.0L2.5,-0.5"/>
                </g>
               <g id="resetDef">
                       <use xlink:href="#rim2" fill="#404040">
                               <set attributeName="fill" to="#808080" begin="reset.mouseover" end="reset.mouseout"/>
                       </use>
               </g>
        </defs>

<script type="text/javascript">
var viewWidth = 1120;
var viewHeight = 665;
var sectionId = 'dynsection-0';
</script>
<script xlink:href="svgpan.js"/>
<svg id="graph" class="graph">
<g id="viewport">
<title>/mnt/V8SourceCode/src/compiler/turboshaft/use&#45;map.cc</title>
<polygon fill="white" stroke="transparent" points="-4,4 -4,-661 1116.21,-661 1116.21,4 -4,4"/>
<!-- Node1 -->
<g id="node1" class="node">
<title>Node1</title>
<g id="a_node1"><a xlink:title=" ">
<polygon fill="#bfbfbf" stroke="black" points="360,-615.5 360,-656.5 490,-656.5 490,-615.5 360,-615.5"/>
<text text-anchor="start" x="368" y="-644.5" font-family="Helvetica,sans-Serif" font-size="10.00">/mnt/V8SourceCode/src</text>
<text text-anchor="start" x="368" y="-633.5" font-family="Helvetica,sans-Serif" font-size="10.00">/compiler/turboshaft</text>
<text text-anchor="middle" x="425" y="-622.5" font-family="Helvetica,sans-Serif" font-size="10.00">/use&#45;map.cc</text>
</a>
</g>
</g>
<!-- Node2 -->
<g id="node2" class="node">
<title>Node2</title>
<g id="a_node2"><a xlink:href="use-map_8h.html" target="_top" xlink:title=" ">
<polygon fill="white" stroke="black" points="360.5,-548.5 360.5,-578.5 489.5,-578.5 489.5,-548.5 360.5,-548.5"/>
<text text-anchor="start" x="368.5" y="-566.5" font-family="Helvetica,sans-Serif" font-size="10.00">src/compiler/turboshaft</text>
<text text-anchor="middle" x="425" y="-555.5" font-family="Helvetica,sans-Serif" font-size="10.00">/use&#45;map.h</text>
</a>
</g>
</g>
<!-- Node1&#45;&gt;Node2 -->
<g id="edge1" class="edge">
<title>Node1&#45;&gt;Node2</title>
<path fill="none" stroke="midnightblue" d="M425,-615.36C425,-607.23 425,-597.7 425,-589.11"/>
<polygon fill="midnightblue" stroke="midnightblue" points="428.5,-588.89 425,-578.89 421.5,-588.89 428.5,-588.89"/>
</g>
<!-- Node3 -->
<g id="node3" class="node">
<title>Node3</title>
<g id="a_node3"><a xlink:href="graph_8h.html" target="_top" xlink:title=" ">
<polygon fill="white" stroke="black" points="567.5,-481.5 567.5,-511.5 696.5,-511.5 696.5,-481.5 567.5,-481.5"/>
<text text-anchor="start" x="575.5" y="-499.5" font-family="Helvetica,sans-Serif" font-size="10.00">src/compiler/turboshaft</text>
<text text-anchor="middle" x="632" y="-488.5" font-family="Helvetica,sans-Serif" font-size="10.00">/graph.h</text>
</a>
</g>
</g>
<!-- Node2&#45;&gt;Node3 -->
<g id="edge2" class="edge">
<title>Node2&#45;&gt;Node3</title>
<path fill="none" stroke="midnightblue" d="M469.66,-548.48C501.25,-538.56 543.78,-525.2 577.39,-514.65"/>
<polygon fill="midnightblue" stroke="midnightblue" points="578.57,-517.95 587.06,-511.61 576.47,-511.27 578.57,-517.95"/>
</g>
<!-- Node560 -->
<g id="node18" class="node">
<title>Node560</title>
<g id="a_node18"><a xlink:href="sidetable_8h.html" target="_top" xlink:title=" ">
<polygon fill="white" stroke="black" points="84.5,-414.5 84.5,-444.5 213.5,-444.5 213.5,-414.5 84.5,-414.5"/>
<text text-anchor="start" x="92.5" y="-432.5" font-family="Helvetica,sans-Serif" font-size="10.00">src/compiler/turboshaft</text>
<text text-anchor="middle" x="149" y="-421.5" font-family="Helvetica,sans-Serif" font-size="10.00">/sidetable.h</text>
</a>
</g>
</g>
<!-- Node2&#45;&gt;Node560 -->
<g id="edge48" class="edge">
<title>Node2&#45;&gt;Node560</title>
<path fill="none" stroke="midnightblue" d="M395.72,-548.5C345.63,-524.54 243.47,-475.68 187.6,-448.96"/>
<polygon fill="midnightblue" stroke="midnightblue" points="188.92,-445.71 178.39,-444.56 185.9,-452.03 188.92,-445.71"/>
</g>
<!-- Node4 -->
<g id="node4" class="node">
<title>Node4</title>
<g id="a_node4"><a xlink:title=" ">
<polygon fill="white" stroke="#bfbfbf" points="25,-56.5 25,-75.5 89,-75.5 89,-56.5 25,-56.5"/>
<text text-anchor="middle" x="57" y="-63.5" font-family="Helvetica,sans-Serif" font-size="10.00">algorithm</text>
</a>
</g>
</g>
<!-- Node3&#45;&gt;Node4 -->
<g id="edge3" class="edge">
<title>Node3&#45;&gt;Node4</title>
<path fill="none" stroke="midnightblue" d="M567.31,-493.26C429.11,-487.97 114.38,-472.97 75,-445 42.57,-421.97 38,-403.28 38,-363.5 38,-363.5 38,-363.5 38,-177 38,-144.49 46.16,-107.35 51.78,-85.61"/>
<polygon fill="midnightblue" stroke="midnightblue" points="55.22,-86.32 54.44,-75.75 48.46,-84.5 55.22,-86.32"/>
</g>
<!-- Node5 -->
<g id="node5" class="node">
<title>Node5</title>
<g id="a_node5"><a xlink:title=" ">
<polygon fill="white" stroke="#bfbfbf" points="743.5,-0.5 743.5,-19.5 796.5,-19.5 796.5,-0.5 743.5,-0.5"/>
<text text-anchor="middle" x="770" y="-7.5" font-family="Helvetica,sans-Serif" font-size="10.00">iterator</text>
</a>
</g>
</g>
<!-- Node3&#45;&gt;Node5 -->
<g id="edge4" class="edge">
<title>Node3&#45;&gt;Node5</title>
<path fill="none" stroke="midnightblue" d="M696.92,-492.47C816.51,-486.3 1062.1,-470.64 1091,-445 1118.82,-420.32 1110,-400.69 1110,-363.5 1110,-363.5 1110,-363.5 1110,-121 1110,-57.81 894.69,-25.53 806.75,-14.98"/>
<polygon fill="midnightblue" stroke="midnightblue" points="807.02,-11.49 796.68,-13.8 806.2,-18.44 807.02,-11.49"/>
</g>
<!-- Node6 -->
<g id="node6" class="node">
<title>Node6</title>
<g id="a_node6"><a xlink:title=" ">
<polygon fill="white" stroke="#bfbfbf" points="525,-56.5 525,-75.5 569,-75.5 569,-56.5 525,-56.5"/>
<text text-anchor="middle" x="547" y="-63.5" font-family="Helvetica,sans-Serif" font-size="10.00">limits</text>
</a>
</g>
</g>
<!-- Node3&#45;&gt;Node6 -->
<g id="edge5" class="edge">
<title>Node3&#45;&gt;Node6</title>
<path fill="none" stroke="midnightblue" d="M642.72,-481.29C649.44,-471.59 657.64,-458.16 662,-445 692.92,-351.71 691.89,-319.82 670,-224 655.69,-161.36 597.5,-107.05 566.56,-81.89"/>
<polygon fill="midnightblue" stroke="midnightblue" points="568.63,-79.06 558.62,-75.59 564.28,-84.55 568.63,-79.06"/>
</g>
<!-- Node7 -->
<g id="node7" class="node">
<title>Node7</title>
<g id="a_node7"><a xlink:title=" ">
<polygon fill="white" stroke="#bfbfbf" points="869,-56.5 869,-75.5 927,-75.5 927,-56.5 869,-56.5"/>
<text text-anchor="middle" x="898" y="-63.5" font-family="Helvetica,sans-Serif" font-size="10.00">memory</text>
</a>
</g>
</g>
<!-- Node3&#45;&gt;Node7 -->
<g id="edge6" class="edge">
<title>Node3&#45;&gt;Node7</title>
<path fill="none" stroke="midnightblue" d="M696.65,-495.56C788.03,-491.86 944,-469.96 944,-363.5 944,-363.5 944,-363.5 944,-177 944,-141.82 923.72,-104.86 910.09,-84"/>
<polygon fill="midnightblue" stroke="midnightblue" points="912.91,-81.92 904.4,-75.61 907.12,-85.85 912.91,-81.92"/>
</g>
<!-- Node8 -->
<g id="node8" class="node">
<title>Node8</title>
<g id="a_node8"><a xlink:title=" ">
<polygon fill="white" stroke="#bfbfbf" points="760.5,-286 760.5,-305 801.5,-305 801.5,-286 760.5,-286"/>
<text text-anchor="middle" x="781" y="-293" font-family="Helvetica,sans-Serif" font-size="10.00">tuple</text>
</a>
</g>
</g>
<!-- Node3&#45;&gt;Node8 -->
<g id="edge7" class="edge">
<title>Node3&#45;&gt;Node8</title>
<path fill="none" stroke="midnightblue" d="M669.68,-481.38C687.53,-473.09 707.96,-461.05 722,-445 739.64,-424.84 764.24,-350.6 775.26,-315.34"/>
<polygon fill="midnightblue" stroke="midnightblue" points="778.73,-315.96 778.34,-305.38 772.04,-313.9 778.73,-315.96"/>
</g>
<!-- Node9 -->
<g id="node9" class="node">
<title>Node9</title>
<g id="a_node9"><a xlink:title=" ">
<polygon fill="white" stroke="#bfbfbf" points="283.5,-56.5 283.5,-75.5 352.5,-75.5 352.5,-56.5 283.5,-56.5"/>
<text text-anchor="middle" x="318" y="-63.5" font-family="Helvetica,sans-Serif" font-size="10.00">type_traits</text>
</a>
</g>
</g>
<!-- Node3&#45;&gt;Node9 -->
<g id="edge8" class="edge">
<title>Node3&#45;&gt;Node9</title>
<path fill="none" stroke="midnightblue" d="M567.32,-495.72C475.4,-492.26 318,-470.68 318,-363.5 318,-363.5 318,-363.5 318,-177 318,-144.95 318,-107.64 318,-85.75"/>
<polygon fill="midnightblue" stroke="midnightblue" points="321.5,-85.56 318,-75.56 314.5,-85.56 321.5,-85.56"/>
</g>
<!-- Node10 -->
<g id="node10" class="node">
<title>Node10</title>
<g id="a_node10"><a xlink:href="iterator_8h.html" target="_top" xlink:title=" ">
<polygon fill="white" stroke="red" points="774,-353 774,-372 878,-372 878,-353 774,-353"/>
<text text-anchor="middle" x="826" y="-360" font-family="Helvetica,sans-Serif" font-size="10.00">src/base/iterator.h</text>
</a>
</g>
</g>
<!-- Node3&#45;&gt;Node10 -->
<g id="edge9" class="edge">
<title>Node3&#45;&gt;Node10</title>
<path fill="none" stroke="midnightblue" d="M684.93,-481.42C709.28,-473.3 737.66,-461.39 760,-445 783.78,-427.55 803.89,-399.55 815.46,-381.34"/>
<polygon fill="midnightblue" stroke="midnightblue" points="818.72,-382.71 820.97,-372.36 812.76,-379.05 818.72,-382.71"/>
</g>
<!-- Node12 -->
<g id="node11" class="node">
<title>Node12</title>
<g id="a_node11"><a xlink:href="src_2base_2logging_8h.html" target="_top" xlink:title=" ">
<polygon fill="white" stroke="red" points="717.5,-56.5 717.5,-75.5 822.5,-75.5 822.5,-56.5 717.5,-56.5"/>
<text text-anchor="middle" x="770" y="-63.5" font-family="Helvetica,sans-Serif" font-size="10.00">src/base/logging.h</text>
</a>
</g>
</g>
<!-- Node3&#45;&gt;Node12 -->
<g id="edge14" class="edge">
<title>Node3&#45;&gt;Node12</title>
<path fill="none" stroke="midnightblue" d="M696.59,-492.01C777.59,-483.74 906,-456.04 906,-363.5 906,-363.5 906,-363.5 906,-177 906,-126.08 847.66,-94.67 807.4,-79.06"/>
<polygon fill="midnightblue" stroke="midnightblue" points="808.44,-75.72 797.85,-75.52 806.01,-82.28 808.44,-75.72"/>
</g>
<!-- Node29 -->
<g id="node12" class="node">
<title>Node29</title>
<g id="a_node12"><a xlink:href="small-vector_8h.html" target="_top" xlink:title=" ">
<polygon fill="white" stroke="red" points="160.5,-168.5 160.5,-187.5 289.5,-187.5 289.5,-168.5 160.5,-168.5"/>
<text text-anchor="middle" x="225" y="-175.5" font-family="Helvetica,sans-Serif" font-size="10.00">src/base/small&#45;vector.h</text>
</a>
</g>
</g>
<!-- Node3&#45;&gt;Node29 -->
<g id="edge15" class="edge">
<title>Node3&#45;&gt;Node29</title>
<path fill="none" stroke="midnightblue" d="M567.47,-493.58C483.28,-489.76 342.22,-478.43 304,-445 275.58,-420.14 280,-401.26 280,-363.5 280,-363.5 280,-363.5 280,-294.5 280,-261.93 274.71,-253.06 260,-224 254.76,-213.65 246.97,-203.34 240.08,-195.2"/>
<polygon fill="midnightblue" stroke="midnightblue" points="242.6,-192.77 233.35,-187.6 237.36,-197.41 242.6,-192.77"/>
</g>
<!-- Node33 -->
<g id="node13" class="node">
<title>Node33</title>
<g id="a_node13"><a xlink:href="vector_8h.html" target="_top" xlink:title=" ">
<polygon fill="white" stroke="red" points="397.5,-112.5 397.5,-131.5 496.5,-131.5 496.5,-112.5 397.5,-112.5"/>
<text text-anchor="middle" x="447" y="-119.5" font-family="Helvetica,sans-Serif" font-size="10.00">src/base/vector.h</text>
</a>
</g>
</g>
<!-- Node3&#45;&gt;Node33 -->
<g id="edge25" class="edge">
<title>Node3&#45;&gt;Node33</title>
<path fill="none" stroke="midnightblue" d="M636.29,-481.39C643.19,-457.41 656,-407.06 656,-363.5 656,-363.5 656,-363.5 656,-233 656,-165.03 568.36,-138.96 506.59,-129.03"/>
<polygon fill="midnightblue" stroke="midnightblue" points="506.94,-125.54 496.53,-127.52 505.9,-132.47 506.94,-125.54"/>
</g>
<!-- Node36 -->
<g id="node14" class="node">
<title>Node36</title>
<g id="a_node14"><a xlink:href="source-position_8h.html" target="_top" xlink:title=" ">
<polygon fill="white" stroke="red" points="972,-414.5 972,-444.5 1082,-444.5 1082,-414.5 972,-414.5"/>
<text text-anchor="start" x="980" y="-432.5" font-family="Helvetica,sans-Serif" font-size="10.00">src/codegen/source</text>
<text text-anchor="middle" x="1027" y="-421.5" font-family="Helvetica,sans-Serif" font-size="10.00">&#45;position.h</text>
</a>
</g>
</g>
<!-- Node3&#45;&gt;Node36 -->
<g id="edge26" class="edge">
<title>Node3&#45;&gt;Node36</title>
<path fill="none" stroke="midnightblue" d="M696.5,-486.55C762.39,-477.16 867.57,-461.49 958,-445 959.25,-444.77 960.52,-444.54 961.79,-444.3"/>
<polygon fill="midnightblue" stroke="midnightblue" points="962.53,-447.72 971.69,-442.39 961.21,-440.85 962.53,-447.72"/>
</g>
<!-- Node368 -->
<g id="node15" class="node">
<title>Node368</title>
<g id="a_node15"><a xlink:href="operations_8h.html" target="_top" xlink:title=" ">
<polygon fill="white" stroke="red" points="405.5,-347.5 405.5,-377.5 534.5,-377.5 534.5,-347.5 405.5,-347.5"/>
<text text-anchor="start" x="413.5" y="-365.5" font-family="Helvetica,sans-Serif" font-size="10.00">src/compiler/turboshaft</text>
<text text-anchor="middle" x="470" y="-354.5" font-family="Helvetica,sans-Serif" font-size="10.00">/operations.h</text>
</a>
</g>
</g>
<!-- Node3&#45;&gt;Node368 -->
<g id="edge27" class="edge">
<title>Node3&#45;&gt;Node368</title>
<path fill="none" stroke="midnightblue" d="M614.66,-481.37C585.92,-457.95 528.28,-410.99 495.09,-383.94"/>
<polygon fill="midnightblue" stroke="midnightblue" points="497.18,-381.13 487.21,-377.52 492.75,-386.55 497.18,-381.13"/>
</g>
<!-- Node554 -->
<g id="node16" class="node">
<title>Node554</title>
<g id="a_node16"><a xlink:href="compiler_2turboshaft_2types_8h.html" target="_top" xlink:title=" ">
<polygon fill="white" stroke="red" points="498.5,-280.5 498.5,-310.5 627.5,-310.5 627.5,-280.5 498.5,-280.5"/>
<text text-anchor="start" x="506.5" y="-298.5" font-family="Helvetica,sans-Serif" font-size="10.00">src/compiler/turboshaft</text>
<text text-anchor="middle" x="563" y="-287.5" font-family="Helvetica,sans-Serif" font-size="10.00">/types.h</text>
</a>
</g>
</g>
<!-- Node3&#45;&gt;Node554 -->
<g id="edge46" class="edge">
<title>Node3&#45;&gt;Node554</title>
<path fill="none" stroke="midnightblue" d="M627.04,-481.19C615.3,-447.34 585.74,-362.08 571.25,-320.31"/>
<polygon fill="midnightblue" stroke="midnightblue" points="574.5,-318.98 567.92,-310.68 567.89,-321.28 574.5,-318.98"/>
</g>
<!-- Node403 -->
<g id="node17" class="node">
<title>Node403</title>
<g id="a_node17"><a xlink:href="zone-containers_8h.html" target="_top" xlink:title=" ">
<polygon fill="white" stroke="red" points="104.5,-224.5 104.5,-243.5 251.5,-243.5 251.5,-224.5 104.5,-224.5"/>
<text text-anchor="middle" x="178" y="-231.5" font-family="Helvetica,sans-Serif" font-size="10.00">src/zone/zone&#45;containers.h</text>
</a>
</g>
</g>
<!-- Node3&#45;&gt;Node403 -->
<g id="edge47" class="edge">
<title>Node3&#45;&gt;Node403</title>
<path fill="none" stroke="midnightblue" d="M567.25,-494.12C475.02,-490.92 311.89,-480.29 266,-445 233.8,-420.24 196.58,-299.88 183.16,-253.39"/>
<polygon fill="midnightblue" stroke="midnightblue" points="186.51,-252.37 180.4,-243.71 179.78,-254.29 186.51,-252.37"/>
</g>
<!-- Node3&#45;&gt;Node560 -->
<g id="edge41" class="edge">
<title>Node3&#45;&gt;Node560</title>
<path fill="none" stroke="midnightblue" d="M567.47,-488.59C487.59,-479.76 347.46,-463.41 228,-445 226.54,-444.77 225.06,-444.54 223.57,-444.31"/>
<polygon fill="midnightblue" stroke="midnightblue" points="224.05,-440.84 213.62,-442.67 222.92,-447.75 224.05,-440.84"/>
</g>
<!-- Node10&#45;&gt;Node5 -->
<g id="edge10" class="edge">
<title>Node10&#45;&gt;Node5</title>
<path fill="none" stroke="midnightblue" d="M834.57,-352.82C871.59,-314.26 1012.55,-156.07 936,-56 920.38,-35.58 850.67,-22.27 806.7,-15.75"/>
<polygon fill="midnightblue" stroke="midnightblue" points="807.06,-12.26 796.66,-14.31 806.06,-19.19 807.06,-12.26"/>
</g>
<!-- Node10&#45;&gt;Node8 -->
<g id="edge11" class="edge">
<title>Node10&#45;&gt;Node8</title>
<path fill="none" stroke="midnightblue" d="M819.93,-352.73C812.98,-342.7 801.43,-326.01 792.71,-313.42"/>
<polygon fill="midnightblue" stroke="midnightblue" points="795.54,-311.36 786.97,-305.13 789.79,-315.34 795.54,-311.36"/>
</g>
<!-- Node10&#45;&gt;Node12 -->
<g id="edge12" class="edge">
<title>Node10&#45;&gt;Node12</title>
<path fill="none" stroke="midnightblue" d="M826.46,-352.91C827.51,-332.49 830,-279.39 830,-235 830,-235 830,-235 830,-177 830,-139.88 803.35,-103.38 785.57,-83.16"/>
<polygon fill="midnightblue" stroke="midnightblue" points="787.93,-80.55 778.6,-75.53 782.76,-85.28 787.93,-80.55"/>
</g>
<!-- Node12&#45;&gt;Node5 -->
<g id="edge13" class="edge">
<title>Node12&#45;&gt;Node5</title>
<path fill="none" stroke="midnightblue" d="M770,-56.08C770,-49.01 770,-38.86 770,-29.99"/>
<polygon fill="midnightblue" stroke="midnightblue" points="773.5,-29.75 770,-19.75 766.5,-29.75 773.5,-29.75"/>
</g>
<!-- Node29&#45;&gt;Node4 -->
<g id="edge16" class="edge">
<title>Node29&#45;&gt;Node4</title>
<path fill="none" stroke="midnightblue" d="M211.82,-168.37C182.99,-149.49 114.1,-104.38 78.74,-81.24"/>
<polygon fill="midnightblue" stroke="midnightblue" points="80.4,-78.14 70.12,-75.59 76.57,-84 80.4,-78.14"/>
</g>
<!-- Node29&#45;&gt;Node9 -->
<g id="edge17" class="edge">
<title>Node29&#45;&gt;Node9</title>
<path fill="none" stroke="midnightblue" d="M232.3,-168.37C247.78,-150.05 284.14,-107.05 304.17,-83.36"/>
<polygon fill="midnightblue" stroke="midnightblue" points="306.95,-85.49 310.74,-75.59 301.61,-80.97 306.95,-85.49"/>
</g>
<!-- Node29&#45;&gt;Node33 -->
<g id="edge18" class="edge">
<title>Node29&#45;&gt;Node33</title>
<path fill="none" stroke="midnightblue" d="M260.18,-168.44C298.58,-159.1 360.18,-144.12 402.06,-133.93"/>
<polygon fill="midnightblue" stroke="midnightblue" points="403.1,-137.28 411.99,-131.52 401.44,-130.48 403.1,-137.28"/>
</g>
<!-- Node33&#45;&gt;Node4 -->
<g id="edge19" class="edge">
<title>Node33&#45;&gt;Node4</title>
<path fill="none" stroke="midnightblue" d="M397.21,-114.11C319.8,-103.39 171.96,-82.92 99.36,-72.87"/>
<polygon fill="midnightblue" stroke="midnightblue" points="99.6,-69.36 89.21,-71.46 98.64,-76.3 99.6,-69.36"/>
</g>
<!-- Node33&#45;&gt;Node5 -->
<g id="edge20" class="edge">
<title>Node33&#45;&gt;Node5</title>
<path fill="none" stroke="midnightblue" d="M453.52,-112.16C464.62,-97.83 488.65,-69.74 516,-56 586.99,-20.35 681.55,-12.5 732.93,-11.04"/>
<polygon fill="midnightblue" stroke="midnightblue" points="733.3,-14.53 743.22,-10.82 733.15,-7.53 733.3,-14.53"/>
</g>
<!-- Node33&#45;&gt;Node6 -->
<g id="edge21" class="edge">
<title>Node33&#45;&gt;Node6</title>
<path fill="none" stroke="midnightblue" d="M463.07,-112.32C478.96,-103.74 503.51,-90.49 521.96,-80.52"/>
<polygon fill="midnightblue" stroke="midnightblue" points="523.84,-83.49 530.97,-75.65 520.51,-77.33 523.84,-83.49"/>
</g>
<!-- Node33&#45;&gt;Node7 -->
<g id="edge22" class="edge">
<title>Node33&#45;&gt;Node7</title>
<path fill="none" stroke="midnightblue" d="M496.57,-115.51C569.92,-107.33 711.66,-91.24 832,-76 840.66,-74.9 849.95,-73.67 858.74,-72.48"/>
<polygon fill="midnightblue" stroke="midnightblue" points="859.34,-75.93 868.77,-71.11 858.39,-68.99 859.34,-75.93"/>
</g>
<!-- Node33&#45;&gt;Node9 -->
<g id="edge23" class="edge">
<title>Node33&#45;&gt;Node9</title>
<path fill="none" stroke="midnightblue" d="M426.56,-112.44C405.33,-103.56 371.9,-89.56 347.75,-79.45"/>
<polygon fill="midnightblue" stroke="midnightblue" points="348.92,-76.15 338.34,-75.52 346.22,-82.61 348.92,-76.15"/>
</g>
<!-- Node33&#45;&gt;Node12 -->
<g id="edge24" class="edge">
<title>Node33&#45;&gt;Node12</title>
<path fill="none" stroke="midnightblue" d="M496.76,-112.68C553.92,-103.12 647.71,-87.44 709.17,-77.17"/>
<polygon fill="midnightblue" stroke="midnightblue" points="709.83,-80.61 719.12,-75.51 708.68,-73.7 709.83,-80.61"/>
</g>
<!-- Node368&#45;&gt;Node6 -->
<g id="edge28" class="edge">
<title>Node368&#45;&gt;Node6</title>
<path fill="none" stroke="midnightblue" d="M473.38,-347.34C477.29,-331.07 483.96,-303.57 490,-280 508.53,-207.75 531.87,-122.09 541.97,-85.29"/>
<polygon fill="midnightblue" stroke="midnightblue" points="545.38,-86.08 544.66,-75.51 538.63,-84.22 545.38,-86.08"/>
</g>
<!-- Node368&#45;&gt;Node8 -->
<g id="edge29" class="edge">
<title>Node368&#45;&gt;Node8</title>
<path fill="none" stroke="midnightblue" d="M534.82,-347.95C600.96,-334.13 700.76,-313.27 750.53,-302.87"/>
<polygon fill="midnightblue" stroke="midnightblue" points="751.29,-306.29 760.36,-300.81 749.85,-299.43 751.29,-306.29"/>
</g>
<!-- Node368&#45;&gt;Node9 -->
<g id="edge30" class="edge">
<title>Node368&#45;&gt;Node9</title>
<path fill="none" stroke="midnightblue" d="M462.67,-347.3C437.49,-298.51 354.57,-137.85 327,-84.44"/>
<polygon fill="midnightblue" stroke="midnightblue" points="330.09,-82.79 322.39,-75.51 323.87,-86 330.09,-82.79"/>
</g>
<!-- Node368&#45;&gt;Node12 -->
<g id="edge31" class="edge">
<title>Node368&#45;&gt;Node12</title>
<path fill="none" stroke="midnightblue" d="M534.58,-353.89C568.09,-347.18 607.98,-334.6 637,-311 713.26,-248.99 752.38,-131.14 765.17,-85.6"/>
<polygon fill="midnightblue" stroke="midnightblue" points="768.63,-86.23 767.86,-75.66 761.87,-84.4 768.63,-86.23"/>
</g>
<!-- Node368&#45;&gt;Node29 -->
<g id="edge32" class="edge">
<title>Node368&#45;&gt;Node29</title>
<path fill="none" stroke="midnightblue" d="M439.93,-347.31C421.8,-338.12 398.67,-325.23 380,-311 336.76,-278.04 336.12,-258.38 294,-224 279.87,-212.46 262.69,-201.25 249,-192.9"/>
<polygon fill="midnightblue" stroke="midnightblue" points="250.55,-189.75 240.17,-187.61 246.95,-195.76 250.55,-189.75"/>
</g>
<!-- Node368&#45;&gt;Node33 -->
<g id="edge33" class="edge">
<title>Node368&#45;&gt;Node33</title>
<path fill="none" stroke="midnightblue" d="M465.09,-347.1C461.9,-337.1 457.99,-323.4 456,-311 446.18,-249.82 445.97,-176.11 446.52,-142.01"/>
<polygon fill="midnightblue" stroke="midnightblue" points="450.03,-141.76 446.73,-131.69 443.03,-141.62 450.03,-141.76"/>
</g>
<!-- Node368&#45;&gt;Node554 -->
<g id="edge34" class="edge">
<title>Node368&#45;&gt;Node554</title>
<path fill="none" stroke="midnightblue" d="M490.18,-347.4C503.1,-338.37 520.06,-326.51 534.36,-316.52"/>
<polygon fill="midnightblue" stroke="midnightblue" points="536.67,-319.17 542.86,-310.58 532.66,-313.44 536.67,-319.17"/>
</g>
<!-- Node554&#45;&gt;Node6 -->
<g id="edge35" class="edge">
<title>Node554&#45;&gt;Node6</title>
<path fill="none" stroke="midnightblue" d="M562,-280.27C559.23,-240.89 551.46,-130.49 548.33,-85.97"/>
<polygon fill="midnightblue" stroke="midnightblue" points="551.82,-85.66 547.63,-75.93 544.84,-86.15 551.82,-85.66"/>
</g>
<!-- Node554&#45;&gt;Node12 -->
<g id="edge36" class="edge">
<title>Node554&#45;&gt;Node12</title>
<path fill="none" stroke="midnightblue" d="M575.95,-280.27C612.46,-240.14 716.1,-126.24 755,-83.49"/>
<polygon fill="midnightblue" stroke="midnightblue" points="757.74,-85.68 761.88,-75.93 752.56,-80.97 757.74,-85.68"/>
</g>
<!-- Node554&#45;&gt;Node29 -->
<g id="edge37" class="edge">
<title>Node554&#45;&gt;Node29</title>
<path fill="none" stroke="midnightblue" d="M526.19,-280.44C487.5,-265.81 424.75,-242.48 370,-224 334.26,-211.93 293.16,-199.29 263.86,-190.49"/>
<polygon fill="midnightblue" stroke="midnightblue" points="264.61,-187.06 254.02,-187.55 262.6,-193.77 264.61,-187.06"/>
</g>
<!-- Node554&#45;&gt;Node403 -->
<g id="edge38" class="edge">
<title>Node554&#45;&gt;Node403</title>
<path fill="none" stroke="midnightblue" d="M498.13,-284.47C427.25,-273.52 314.36,-256.07 243.31,-245.09"/>
<polygon fill="midnightblue" stroke="midnightblue" points="243.56,-241.59 233.14,-243.52 242.49,-248.51 243.56,-241.59"/>
</g>
<!-- Node403&#45;&gt;Node5 -->
<g id="edge39" class="edge">
<title>Node403&#45;&gt;Node5</title>
<path fill="none" stroke="midnightblue" d="M159.16,-224.45C104.86,-198.73 -44.27,-119.98 16,-56 40.84,-29.64 584.57,-15.26 732.91,-11.82"/>
<polygon fill="midnightblue" stroke="midnightblue" points="733.37,-15.31 743.28,-11.58 733.21,-8.31 733.37,-15.31"/>
</g>
<!-- Node403&#45;&gt;Node29 -->
<g id="edge40" class="edge">
<title>Node403&#45;&gt;Node29</title>
<path fill="none" stroke="midnightblue" d="M185.76,-224.08C192.54,-216.3 202.54,-204.8 210.76,-195.37"/>
<polygon fill="midnightblue" stroke="midnightblue" points="213.46,-197.59 217.38,-187.75 208.18,-193 213.46,-197.59"/>
</g>
<!-- Node560&#45;&gt;Node4 -->
<g id="edge42" class="edge">
<title>Node560&#45;&gt;Node4</title>
<path fill="none" stroke="midnightblue" d="M111.4,-414.39C67.26,-395.1 0,-355.94 0,-296.5 0,-296.5 0,-296.5 0,-177 0,-140.3 25.32,-103.66 42.21,-83.3"/>
<polygon fill="midnightblue" stroke="midnightblue" points="44.95,-85.48 48.83,-75.62 39.65,-80.9 44.95,-85.48"/>
</g>
<!-- Node560&#45;&gt;Node9 -->
<g id="edge43" class="edge">
<title>Node560&#45;&gt;Node9</title>
<path fill="none" stroke="midnightblue" d="M139.18,-414.44C116.89,-380.67 66.54,-292.7 95,-224 127.92,-144.52 226.44,-98.78 280.86,-78.92"/>
<polygon fill="midnightblue" stroke="midnightblue" points="282.23,-82.14 290.48,-75.51 279.89,-75.55 282.23,-82.14"/>
</g>
<!-- Node560&#45;&gt;Node368 -->
<g id="edge44" class="edge">
<title>Node560&#45;&gt;Node368</title>
<path fill="none" stroke="midnightblue" d="M213.57,-415.42C266.05,-404.8 340.15,-389.79 395.21,-378.65"/>
<polygon fill="midnightblue" stroke="midnightblue" points="396.15,-382.03 405.26,-376.61 394.76,-375.16 396.15,-382.03"/>
</g>
<!-- Node560&#45;&gt;Node403 -->
<g id="edge45" class="edge">
<title>Node560&#45;&gt;Node403</title>
<path fill="none" stroke="midnightblue" d="M151.13,-414.27C156.28,-379.94 169.37,-292.57 175.17,-253.9"/>
<polygon fill="midnightblue" stroke="midnightblue" points="178.69,-253.99 176.71,-243.58 171.77,-252.95 178.69,-253.99"/>
</g>
</g>
</svg>
        <g id="navigator" transform="translate(0 0)" fill="#404254">
                <rect fill="#f2f5e9" fill-opacity="0.5" stroke="#606060" stroke-width=".5" x="0" y="0" width="60" height="60"/>
                <use id="zoomplus" xlink:href="#zoomPlus" x="17" y="9" onmousedown="handleZoom(evt,'in')"/>
                <use id="zoomminus" xlink:href="#zoomMin" x="42" y="9" onmousedown="handleZoom(evt,'out')"/>
                <use id="reset" xlink:href="#resetDef" x="30" y="36" onmousedown="handleReset()"/>
                <g id="arrowUp" xlink:href="#dirArrow" transform="translate(30 24)" onmousedown="handlePan(0,-1)">
                  <use xlink:href="#rim" fill="#404040">
                        <set attributeName="fill" to="#808080" begin="arrowUp.mouseover" end="arrowUp.mouseout"/>
                  </use>
                  <path fill="none" stroke="white" stroke-width="1.5" d="M0,-3.0v7 M-2.5,-0.5L0,-3.0L2.5,-0.5"/>
                </g>
                <g id="arrowRight" xlink:href="#dirArrow" transform="rotate(90) translate(36 -43)" onmousedown="handlePan(1,0)">
                  <use xlink:href="#rim" fill="#404040">
                        <set attributeName="fill" to="#808080" begin="arrowRight.mouseover" end="arrowRight.mouseout"/>
                  </use>
                  <path fill="none" stroke="white" stroke-width="1.5" d="M0,-3.0v7 M-2.5,-0.5L0,-3.0L2.5,-0.5"/>
                </g>
                <g id="arrowDown" xlink:href="#dirArrow" transform="rotate(180) translate(-30 -48)" onmousedown="handlePan(0,1)">
                  <use xlink:href="#rim" fill="#404040">
                        <set attributeName="fill" to="#808080" begin="arrowDown.mouseover" end="arrowDown.mouseout"/>
                  </use>
                  <path fill="none" stroke="white" stroke-width="1.5" d="M0,-3.0v7 M-2.5,-0.5L0,-3.0L2.5,-0.5"/>
                </g>
                <g id="arrowLeft" xlink:href="#dirArrow" transform="rotate(270) translate(-36 17)" onmousedown="handlePan(-1,0)">
                  <use xlink:href="#rim" fill="#404040">
                        <set attributeName="fill" to="#808080" begin="arrowLeft.mouseover" end="arrowLeft.mouseout"/>
                  </use>
                  <path fill="none" stroke="white" stroke-width="1.5" d="M0,-3.0v7 M-2.5,-0.5L0,-3.0L2.5,-0.5"/>
                </g>
        </g>
        <svg viewBox="0 0 15 15" width="100%" height="30px" preserveAspectRatio="xMaxYMin meet">
         <g id="arrow_out" transform="scale(0.3 0.3)">
          <a xlink:href="use-map_8cc__incl_org.svg" target="_base">
           <rect id="button" ry="5" rx="5" y="6" x="6" height="38" width="38"
                fill="#f2f5e9" fill-opacity="0.5" stroke="#606060" stroke-width="1.0"/>
           <path id="arrow"
             d="M 11.500037,31.436501 C 11.940474,20.09759 22.043105,11.32322 32.158766,21.979434 L 37.068811,17.246167 C 37.068811,17.246167 37.088388,32 37.088388,32 L 22.160133,31.978069 C 22.160133,31.978069 26.997745,27.140456 26.997745,27.140456 C 18.528582,18.264221 13.291696,25.230495 11.500037,31.436501 z"
             style="fill:#404040;"/>
          </a>
         </g>
        </svg>
</svg>
