<?xml version="1.0" encoding="UTF-8" standalone="no"?>
<!DOCTYPE svg PUBLIC "-//W3C//DTD SVG 1.1//EN"
 "http://www.w3.org/Graphics/SVG/1.1/DTD/svg11.dtd">
<!-- Generated by graphviz version 2.43.0 (0)
 -->
<!-- Title: v8&#45;snapshot.h Pages: 1 -->
<svg width="4331pt" height="274pt"
 viewBox="0.00 0.00 4331.00 274.00" xmlns="http://www.w3.org/2000/svg" xmlns:xlink="http://www.w3.org/1999/xlink">
<g id="graph0" class="graph" transform="scale(1 1) rotate(0) translate(4 270)">
<title>v8&#45;snapshot.h</title>
<polygon fill="white" stroke="transparent" points="-4,4 -4,-270 4327,-270 4327,4 -4,4"/>
<!-- Node1 -->
<g id="node1" class="node">
<title>Node1</title>
<g id="a_node1"><a xlink:title=" ">
<polygon fill="#bfbfbf" stroke="black" points="1958,-246.5 1958,-265.5 2044,-265.5 2044,-246.5 1958,-246.5"/>
<text text-anchor="middle" x="2001" y="-253.5" font-family="Helvetica,sans-Serif" font-size="10.00">v8&#45;snapshot.h</text>
</a>
</g>
</g>
<!-- Node2 -->
<g id="node2" class="node">
<title>Node2</title>
<g id="a_node2"><a xlink:href="execution_2isolate_8h.html" target="_top" xlink:title=" ">
<polygon fill="white" stroke="red" points="1931.5,-134.5 1931.5,-153.5 1990.5,-153.5 1990.5,-134.5 1931.5,-134.5"/>
<text text-anchor="middle" x="1961" y="-141.5" font-family="Helvetica,sans-Serif" font-size="10.00">isolate.h</text>
</a>
</g>
</g>
<!-- Node1&#45;&gt;Node2 -->
<g id="edge1" class="edge">
<title>Node1&#45;&gt;Node2</title>
<path fill="none" stroke="midnightblue" d="M1960.48,-242.54C1944.99,-235.57 1928.92,-225.16 1920,-210 1907.89,-189.42 1932.76,-165.84 1948.82,-153.52"/>
<polygon fill="midnightblue" stroke="midnightblue" points="1959.4,-245.88 1969.98,-246.44 1962.06,-239.4 1959.4,-245.88"/>
</g>
<!-- Node1380 -->
<g id="node46" class="node">
<title>Node1380</title>
<g id="a_node46"><a xlink:href="bootstrapper_8h.html" target="_top" xlink:title=" ">
<polygon fill="white" stroke="red" points="1819.5,-134.5 1819.5,-153.5 1906.5,-153.5 1906.5,-134.5 1819.5,-134.5"/>
<text text-anchor="middle" x="1863" y="-141.5" font-family="Helvetica,sans-Serif" font-size="10.00">bootstrapper.h</text>
</a>
</g>
</g>
<!-- Node1&#45;&gt;Node1380 -->
<g id="edge61" class="edge">
<title>Node1&#45;&gt;Node1380</title>
<path fill="none" stroke="midnightblue" d="M1968.35,-242.46C1950.81,-234.75 1929.47,-223.7 1913,-210 1892.86,-193.25 1875.84,-167 1867.86,-153.56"/>
<polygon fill="midnightblue" stroke="midnightblue" points="1967.08,-245.72 1977.65,-246.4 1969.81,-239.28 1967.08,-245.72"/>
</g>
<!-- Node1389 -->
<g id="node47" class="node">
<title>Node1389</title>
<g id="a_node47"><a xlink:href="startup-data-util_8cc.html" target="_top" xlink:title=" ">
<polygon fill="white" stroke="black" points="2151,-190.5 2151,-209.5 2261,-209.5 2261,-190.5 2151,-190.5"/>
<text text-anchor="middle" x="2206" y="-197.5" font-family="Helvetica,sans-Serif" font-size="10.00">startup&#45;data&#45;util.cc</text>
</a>
</g>
</g>
<!-- Node1&#45;&gt;Node1389 -->
<g id="edge63" class="edge">
<title>Node1&#45;&gt;Node1389</title>
<path fill="none" stroke="midnightblue" d="M2043.41,-243.83C2082.11,-233.63 2138.49,-218.78 2173.67,-209.52"/>
<polygon fill="midnightblue" stroke="midnightblue" points="2042.26,-240.51 2033.48,-246.44 2044.04,-247.28 2042.26,-240.51"/>
</g>
<!-- Node1381 -->
<g id="node48" class="node">
<title>Node1381</title>
<g id="a_node48"><a xlink:href="snapshot_8h.html" target="_top" xlink:title=" ">
<polygon fill="white" stroke="red" points="2063,-190.5 2063,-209.5 2133,-209.5 2133,-190.5 2063,-190.5"/>
<text text-anchor="middle" x="2098" y="-197.5" font-family="Helvetica,sans-Serif" font-size="10.00">snapshot.h</text>
</a>
</g>
</g>
<!-- Node1&#45;&gt;Node1381 -->
<g id="edge64" class="edge">
<title>Node1&#45;&gt;Node1381</title>
<path fill="none" stroke="midnightblue" d="M2025.34,-241.45C2043.24,-231.48 2067.05,-218.23 2082.45,-209.65"/>
<polygon fill="midnightblue" stroke="midnightblue" points="2023.62,-238.4 2016.58,-246.32 2027.02,-244.52 2023.62,-238.4"/>
</g>
<!-- Node1390 -->
<g id="node49" class="node">
<title>Node1390</title>
<g id="a_node49"><a xlink:href="v8-context_8h.html" target="_top" xlink:title=" ">
<polygon fill="white" stroke="red" points="1929,-190.5 1929,-209.5 2007,-209.5 2007,-190.5 1929,-190.5"/>
<text text-anchor="middle" x="1968" y="-197.5" font-family="Helvetica,sans-Serif" font-size="10.00">v8&#45;context.h</text>
</a>
</g>
</g>
<!-- Node1&#45;&gt;Node1390 -->
<g id="edge66" class="edge">
<title>Node1&#45;&gt;Node1390</title>
<path fill="none" stroke="midnightblue" d="M1990.17,-237.27C1984.53,-228.05 1977.88,-217.17 1973.35,-209.75"/>
<polygon fill="midnightblue" stroke="midnightblue" points="1987.35,-239.38 1995.55,-246.08 1993.32,-235.73 1987.35,-239.38"/>
</g>
<!-- Node1419 -->
<g id="node50" class="node">
<title>Node1419</title>
<g id="a_node50"><a xlink:href="include_2v8_8h.html" target="_top" xlink:title=" ">
<polygon fill="white" stroke="black" points="2013,-134.5 2013,-153.5 2051,-153.5 2051,-134.5 2013,-134.5"/>
<text text-anchor="middle" x="2032" y="-141.5" font-family="Helvetica,sans-Serif" font-size="10.00">v8.h</text>
</a>
</g>
</g>
<!-- Node1&#45;&gt;Node1419 -->
<g id="edge70" class="edge">
<title>Node1&#45;&gt;Node1419</title>
<path fill="none" stroke="midnightblue" d="M2007.42,-236.85C2010.21,-228.69 2013.42,-218.91 2016,-210 2021.75,-190.13 2027.24,-166.47 2030.05,-153.89"/>
<polygon fill="midnightblue" stroke="midnightblue" points="2004.06,-235.84 2004.08,-246.44 2010.68,-238.14 2004.06,-235.84"/>
</g>
<!-- Node3 -->
<g id="node3" class="node">
<title>Node3</title>
<g id="a_node3"><a xlink:href="api-arguments_8h.html" target="_top" xlink:title=" ">
<polygon fill="white" stroke="red" points="2553.5,-6 2553.5,-25 2650.5,-25 2650.5,-6 2553.5,-6"/>
<text text-anchor="middle" x="2602" y="-13" font-family="Helvetica,sans-Serif" font-size="10.00">api&#45;arguments.h</text>
</a>
</g>
</g>
<!-- Node2&#45;&gt;Node3 -->
<g id="edge2" class="edge">
<title>Node2&#45;&gt;Node3</title>
<path fill="none" stroke="midnightblue" d="M1921.36,-134.86C1919.21,-134.54 1917.08,-134.25 1915,-134 1869.55,-128.59 1123.65,-131.06 1092,-98 1082.47,-88.05 1082.42,-76.9 1092,-67 1143.94,-13.29 2299.85,-15.19 2553.21,-16.25"/>
<polygon fill="midnightblue" stroke="midnightblue" points="1920.97,-138.34 1931.41,-136.54 1922.12,-131.44 1920.97,-138.34"/>
</g>
<!-- Node483 -->
<g id="node4" class="node">
<title>Node483</title>
<g id="a_node4"><a xlink:href="api_8h.html" target="_top" xlink:title=" ">
<polygon fill="white" stroke="red" points="4145.5,-73 4145.5,-92 4186.5,-92 4186.5,-73 4145.5,-73"/>
<text text-anchor="middle" x="4166" y="-80" font-family="Helvetica,sans-Serif" font-size="10.00">api.h</text>
</a>
</g>
</g>
<!-- Node2&#45;&gt;Node483 -->
<g id="edge3" class="edge">
<title>Node2&#45;&gt;Node483</title>
<path fill="none" stroke="midnightblue" d="M2001.19,-134.34C2002.13,-134.22 2003.07,-134.1 2004,-134 2238.9,-107.67 3899.57,-146.08 4131,-98 4137.05,-96.74 4143.38,-94.45 4148.96,-92.06"/>
<polygon fill="midnightblue" stroke="midnightblue" points="2000.28,-130.94 1990.96,-135.97 2001.38,-137.86 2000.28,-130.94"/>
</g>
<!-- Node599 -->
<g id="node5" class="node">
<title>Node599</title>
<g id="a_node5"><a xlink:href="builtins-async-disposable-stack_8cc.html" target="_top" xlink:title=" ">
<polygon fill="white" stroke="black" points="4171.5,-0.5 4171.5,-30.5 4312.5,-30.5 4312.5,-0.5 4171.5,-0.5"/>
<text text-anchor="start" x="4179.5" y="-18.5" font-family="Helvetica,sans-Serif" font-size="10.00">builtins&#45;async&#45;disposable</text>
<text text-anchor="middle" x="4242" y="-7.5" font-family="Helvetica,sans-Serif" font-size="10.00">&#45;stack.cc</text>
</a>
</g>
</g>
<!-- Node2&#45;&gt;Node599 -->
<g id="edge13" class="edge">
<title>Node2&#45;&gt;Node599</title>
<path fill="none" stroke="midnightblue" d="M2001.19,-134.34C2002.13,-134.22 2003.07,-134.1 2004,-134 2064.52,-127.23 4143.66,-129.14 4196,-98 4220.71,-83.3 4233.24,-49.96 4238.62,-30.79"/>
<polygon fill="midnightblue" stroke="midnightblue" points="2000.28,-130.94 1990.96,-135.97 2001.38,-137.86 2000.28,-130.94"/>
</g>
<!-- Node602 -->
<g id="node6" class="node">
<title>Node602</title>
<g id="a_node6"><a xlink:href="optimized-compilation-info_8cc.html" target="_top" xlink:title=" ">
<polygon fill="white" stroke="black" points="4026.5,-0.5 4026.5,-30.5 4153.5,-30.5 4153.5,-0.5 4026.5,-0.5"/>
<text text-anchor="start" x="4034.5" y="-18.5" font-family="Helvetica,sans-Serif" font-size="10.00">optimized&#45;compilation</text>
<text text-anchor="middle" x="4090" y="-7.5" font-family="Helvetica,sans-Serif" font-size="10.00">&#45;info.cc</text>
</a>
</g>
</g>
<!-- Node2&#45;&gt;Node602 -->
<g id="edge46" class="edge">
<title>Node2&#45;&gt;Node602</title>
<path fill="none" stroke="midnightblue" d="M2001.19,-134.34C2002.13,-134.22 2003.07,-134.1 2004,-134 2061.81,-127.51 4057.22,-139.49 4098,-98 4115.34,-80.36 4105.41,-49.05 4097.27,-30.8"/>
<polygon fill="midnightblue" stroke="midnightblue" points="2000.28,-130.94 1990.96,-135.98 2001.38,-137.86 2000.28,-130.94"/>
</g>
<!-- Node615 -->
<g id="node7" class="node">
<title>Node615</title>
<g id="a_node7"><a xlink:href="asm-js_8cc.html" target="_top" xlink:title=" ">
<polygon fill="white" stroke="black" points="90.5,-6 90.5,-25 153.5,-25 153.5,-6 90.5,-6"/>
<text text-anchor="middle" x="122" y="-13" font-family="Helvetica,sans-Serif" font-size="10.00">asm&#45;js.cc</text>
</a>
</g>
</g>
<!-- Node2&#45;&gt;Node615 -->
<g id="edge6" class="edge">
<title>Node2&#45;&gt;Node615</title>
<path fill="none" stroke="midnightblue" d="M1921.37,-134.8C1919.22,-134.5 1917.09,-134.23 1915,-134 1735.23,-114.57 458.78,-157.41 288,-98 266.42,-90.49 266.87,-78.27 247,-67 228.98,-56.79 176.12,-36.55 145.22,-25.04"/>
<polygon fill="midnightblue" stroke="midnightblue" points="1920.99,-138.29 1931.42,-136.44 1922.11,-131.38 1920.99,-138.29"/>
</g>
<!-- Node1230 -->
<g id="node8" class="node">
<title>Node1230</title>
<g id="a_node8"><a xlink:href="ast-traversal-visitor_8h.html" target="_top" xlink:title=" ">
<polygon fill="white" stroke="red" points="1101.5,-73 1101.5,-92 1222.5,-92 1222.5,-73 1101.5,-73"/>
<text text-anchor="middle" x="1162" y="-80" font-family="Helvetica,sans-Serif" font-size="10.00">ast&#45;traversal&#45;visitor.h</text>
</a>
</g>
</g>
<!-- Node2&#45;&gt;Node1230 -->
<g id="edge7" class="edge">
<title>Node2&#45;&gt;Node1230</title>
<path fill="none" stroke="midnightblue" d="M1921.36,-134.88C1919.21,-134.55 1917.08,-134.26 1915,-134 1613.32,-96.72 1533.47,-136.94 1232,-98 1220.8,-96.55 1208.72,-94.3 1197.79,-92"/>
<polygon fill="midnightblue" stroke="midnightblue" points="1920.96,-138.36 1931.4,-136.57 1922.13,-131.46 1920.96,-138.36"/>
</g>
<!-- Node1235 -->
<g id="node9" class="node">
<title>Node1235</title>
<g id="a_node9"><a xlink:href="prettyprinter_8h.html" target="_top" xlink:title=" ">
<polygon fill="white" stroke="red" points="152,-73 152,-92 238,-92 238,-73 152,-73"/>
<text text-anchor="middle" x="195" y="-80" font-family="Helvetica,sans-Serif" font-size="10.00">prettyprinter.h</text>
</a>
</g>
</g>
<!-- Node2&#45;&gt;Node1235 -->
<g id="edge8" class="edge">
<title>Node2&#45;&gt;Node1235</title>
<path fill="none" stroke="midnightblue" d="M1921.37,-134.8C1919.22,-134.5 1917.09,-134.23 1915,-134 1183.52,-55.08 990.38,-186.53 260,-98 249.33,-96.71 237.83,-94.44 227.52,-92.08"/>
<polygon fill="midnightblue" stroke="midnightblue" points="1920.99,-138.29 1931.42,-136.44 1922.11,-131.38 1920.99,-138.29"/>
</g>
<!-- Node491 -->
<g id="node10" class="node">
<title>Node491</title>
<g id="a_node10"><a xlink:href="compiler_8cc.html" target="_top" xlink:title=" ">
<polygon fill="white" stroke="black" points="0,-6 0,-25 72,-25 72,-6 0,-6"/>
<text text-anchor="middle" x="36" y="-13" font-family="Helvetica,sans-Serif" font-size="10.00">compiler.cc</text>
</a>
</g>
</g>
<!-- Node2&#45;&gt;Node491 -->
<g id="edge32" class="edge">
<title>Node2&#45;&gt;Node491</title>
<path fill="none" stroke="midnightblue" d="M1921.37,-134.8C1919.22,-134.49 1917.09,-134.22 1915,-134 1719.19,-113.02 328.94,-162.86 143,-98 120.84,-90.27 67.52,-44.44 45.63,-25.1"/>
<polygon fill="midnightblue" stroke="midnightblue" points="1920.99,-138.28 1931.42,-136.43 1922.11,-131.37 1920.99,-138.28"/>
</g>
<!-- Node616 -->
<g id="node11" class="node">
<title>Node616</title>
<g id="a_node11"><a xlink:href="baseline-batch-compiler_8cc.html" target="_top" xlink:title=" ">
<polygon fill="white" stroke="black" points="172,-6 172,-25 320,-25 320,-6 172,-6"/>
<text text-anchor="middle" x="246" y="-13" font-family="Helvetica,sans-Serif" font-size="10.00">baseline&#45;batch&#45;compiler.cc</text>
</a>
</g>
</g>
<!-- Node2&#45;&gt;Node616 -->
<g id="edge10" class="edge">
<title>Node2&#45;&gt;Node616</title>
<path fill="none" stroke="midnightblue" d="M1921.37,-134.8C1919.22,-134.5 1917.09,-134.23 1915,-134 1740.64,-115.09 500.09,-162.5 337,-98 298.15,-82.63 265.2,-42.66 252.08,-25.04"/>
<polygon fill="midnightblue" stroke="midnightblue" points="1920.99,-138.29 1931.42,-136.44 1922.11,-131.38 1920.99,-138.29"/>
</g>
<!-- Node925 -->
<g id="node12" class="node">
<title>Node925</title>
<g id="a_node12"><a xlink:href="bytecode-offset-iterator_8cc.html" target="_top" xlink:title=" ">
<polygon fill="white" stroke="black" points="1241,-73 1241,-92 1387,-92 1387,-73 1241,-73"/>
<text text-anchor="middle" x="1314" y="-80" font-family="Helvetica,sans-Serif" font-size="10.00">bytecode&#45;offset&#45;iterator.cc</text>
</a>
</g>
</g>
<!-- Node2&#45;&gt;Node925 -->
<g id="edge11" class="edge">
<title>Node2&#45;&gt;Node925</title>
<path fill="none" stroke="midnightblue" d="M1921.35,-134.92C1919.21,-134.59 1917.08,-134.27 1915,-134 1685.77,-103.74 1625.5,-126.17 1396,-98 1383.37,-96.45 1369.74,-94.25 1357.28,-92.04"/>
<polygon fill="midnightblue" stroke="midnightblue" points="1920.95,-138.4 1931.39,-136.65 1922.13,-131.5 1920.95,-138.4"/>
</g>
<!-- Node536 -->
<g id="node13" class="node">
<title>Node536</title>
<g id="a_node13"><a xlink:href="builtins-array_8cc.html" target="_top" xlink:title=" ">
<polygon fill="white" stroke="black" points="1405,-73 1405,-92 1499,-92 1499,-73 1405,-73"/>
<text text-anchor="middle" x="1452" y="-80" font-family="Helvetica,sans-Serif" font-size="10.00">builtins&#45;array.cc</text>
</a>
</g>
</g>
<!-- Node2&#45;&gt;Node536 -->
<g id="edge12" class="edge">
<title>Node2&#45;&gt;Node536</title>
<path fill="none" stroke="midnightblue" d="M1921.35,-134.97C1919.2,-134.62 1917.08,-134.29 1915,-134 1735.2,-108.53 1686.95,-128.86 1508,-98 1499.19,-96.48 1489.74,-94.27 1481.16,-92.02"/>
<polygon fill="midnightblue" stroke="midnightblue" points="1920.93,-138.45 1931.38,-136.73 1922.14,-131.56 1920.93,-138.45"/>
</g>
<!-- Node1236 -->
<g id="node14" class="node">
<title>Node1236</title>
<g id="a_node14"><a xlink:href="builtins-call-gen_8cc.html" target="_top" xlink:title=" ">
<polygon fill="white" stroke="black" points="955.5,-6 955.5,-25 1064.5,-25 1064.5,-6 955.5,-6"/>
<text text-anchor="middle" x="1010" y="-13" font-family="Helvetica,sans-Serif" font-size="10.00">builtins&#45;call&#45;gen.cc</text>
</a>
</g>
</g>
<!-- Node2&#45;&gt;Node1236 -->
<g id="edge14" class="edge">
<title>Node2&#45;&gt;Node1236</title>
<path fill="none" stroke="midnightblue" d="M1921.36,-134.85C1919.21,-134.54 1917.08,-134.25 1915,-134 1821.79,-122.96 1154.02,-141.8 1071,-98 1040.36,-81.84 1020.88,-42.65 1013.43,-25.17"/>
<polygon fill="midnightblue" stroke="midnightblue" points="1920.97,-138.34 1931.41,-136.53 1922.12,-131.43 1920.97,-138.34"/>
</g>
<!-- Node735 -->
<g id="node15" class="node">
<title>Node735</title>
<g id="a_node15"><a xlink:href="builtins-dataview_8cc.html" target="_top" xlink:title=" ">
<polygon fill="white" stroke="black" points="1517,-73 1517,-92 1631,-92 1631,-73 1517,-73"/>
<text text-anchor="middle" x="1574" y="-80" font-family="Helvetica,sans-Serif" font-size="10.00">builtins&#45;dataview.cc</text>
</a>
</g>
</g>
<!-- Node2&#45;&gt;Node735 -->
<g id="edge15" class="edge">
<title>Node2&#45;&gt;Node735</title>
<path fill="none" stroke="midnightblue" d="M1921.33,-135.07C1919.19,-134.7 1917.07,-134.34 1915,-134 1793.34,-114.16 1761.42,-119.24 1640,-98 1630.29,-96.3 1619.85,-94.16 1610.2,-92.04"/>
<polygon fill="midnightblue" stroke="midnightblue" points="1920.89,-138.55 1931.36,-136.91 1922.15,-131.67 1920.89,-138.55"/>
</g>
<!-- Node1237 -->
<g id="node16" class="node">
<title>Node1237</title>
<g id="a_node16"><a xlink:href="builtins-effects-analyzer_8cc.html" target="_top" xlink:title=" ">
<polygon fill="white" stroke="black" points="789,-6 789,-25 937,-25 937,-6 789,-6"/>
<text text-anchor="middle" x="863" y="-13" font-family="Helvetica,sans-Serif" font-size="10.00">builtins&#45;effects&#45;analyzer.cc</text>
</a>
</g>
</g>
<!-- Node2&#45;&gt;Node1237 -->
<g id="edge16" class="edge">
<title>Node2&#45;&gt;Node1237</title>
<path fill="none" stroke="midnightblue" d="M1921.36,-134.83C1919.22,-134.52 1917.08,-134.24 1915,-134 1857.95,-127.47 926.35,-134.48 882,-98 860.12,-80 860.55,-42.14 862,-25.11"/>
<polygon fill="midnightblue" stroke="midnightblue" points="1920.98,-138.32 1931.41,-136.5 1922.12,-131.41 1920.98,-138.32"/>
</g>
<!-- Node1238 -->
<g id="node17" class="node">
<title>Node1238</title>
<g id="a_node17"><a xlink:href="builtins-effects-analyzer_8h.html" target="_top" xlink:title=" ">
<polygon fill="white" stroke="red" points="691.5,-73 691.5,-92 834.5,-92 834.5,-73 691.5,-73"/>
<text text-anchor="middle" x="763" y="-80" font-family="Helvetica,sans-Serif" font-size="10.00">builtins&#45;effects&#45;analyzer.h</text>
</a>
</g>
</g>
<!-- Node2&#45;&gt;Node1238 -->
<g id="edge17" class="edge">
<title>Node2&#45;&gt;Node1238</title>
<path fill="none" stroke="midnightblue" d="M1921.36,-134.83C1919.22,-134.52 1917.08,-134.24 1915,-134 1444,-80.32 1320.66,-145.51 849,-98 835.14,-96.6 820.14,-94.34 806.6,-92.01"/>
<polygon fill="midnightblue" stroke="midnightblue" points="1920.98,-138.32 1931.41,-136.49 1922.12,-131.41 1920.98,-138.32"/>
</g>
<!-- Node62 -->
<g id="node18" class="node">
<title>Node62</title>
<g id="a_node18"><a xlink:href="setup-builtins-internal_8cc.html" target="_top" xlink:title=" ">
<polygon fill="white" stroke="black" points="633,-6 633,-25 771,-25 771,-6 633,-6"/>
<text text-anchor="middle" x="702" y="-13" font-family="Helvetica,sans-Serif" font-size="10.00">setup&#45;builtins&#45;internal.cc</text>
</a>
</g>
</g>
<!-- Node2&#45;&gt;Node62 -->
<g id="edge30" class="edge">
<title>Node2&#45;&gt;Node62</title>
<path fill="none" stroke="midnightblue" d="M1921.37,-134.81C1919.22,-134.5 1917.09,-134.23 1915,-134 1838.88,-125.62 590.44,-152.85 537,-98 527.39,-88.13 528.81,-78.08 537,-67 550.85,-48.27 608.75,-33.67 652.08,-25.08"/>
<polygon fill="midnightblue" stroke="midnightblue" points="1920.98,-138.3 1931.42,-136.46 1922.11,-131.39 1920.98,-138.3"/>
</g>
<!-- Node737 -->
<g id="node19" class="node">
<title>Node737</title>
<g id="a_node19"><a xlink:href="builtins-generator-gen_8cc.html" target="_top" xlink:title=" ">
<polygon fill="white" stroke="black" points="1649,-67.5 1649,-97.5 1753,-97.5 1753,-67.5 1649,-67.5"/>
<text text-anchor="start" x="1657" y="-85.5" font-family="Helvetica,sans-Serif" font-size="10.00">builtins&#45;generator</text>
<text text-anchor="middle" x="1701" y="-74.5" font-family="Helvetica,sans-Serif" font-size="10.00">&#45;gen.cc</text>
</a>
</g>
</g>
<!-- Node2&#45;&gt;Node737 -->
<g id="edge20" class="edge">
<title>Node2&#45;&gt;Node737</title>
<path fill="none" stroke="midnightblue" d="M1921.38,-134.17C1881.19,-125.19 1817.23,-110.81 1762,-98 1759.14,-97.34 1756.2,-96.65 1753.23,-95.96"/>
<polygon fill="midnightblue" stroke="midnightblue" points="1920.79,-137.63 1931.31,-136.39 1922.31,-130.8 1920.79,-137.63"/>
</g>
<!-- Node1240 -->
<g id="node20" class="node">
<title>Node1240</title>
<g id="a_node20"><a xlink:href="builtins-inl_8h.html" target="_top" xlink:title=" ">
<polygon fill="white" stroke="red" points="891.5,-73 891.5,-92 968.5,-92 968.5,-73 891.5,-73"/>
<text text-anchor="middle" x="930" y="-80" font-family="Helvetica,sans-Serif" font-size="10.00">builtins&#45;inl.h</text>
</a>
</g>
</g>
<!-- Node2&#45;&gt;Node1240 -->
<g id="edge21" class="edge">
<title>Node2&#45;&gt;Node1240</title>
<path fill="none" stroke="midnightblue" d="M1921.36,-134.84C1919.21,-134.53 1917.08,-134.24 1915,-134 1503.25,-86.06 1392.7,-161.11 983,-98 974.23,-96.65 964.84,-94.37 956.43,-92.01"/>
<polygon fill="midnightblue" stroke="midnightblue" points="1920.97,-138.33 1931.41,-136.51 1922.12,-131.42 1920.97,-138.33"/>
</g>
<!-- Node490 -->
<g id="node21" class="node">
<title>Node490</title>
<g id="a_node21"><a xlink:href="builtins_8cc.html" target="_top" xlink:title=" ">
<polygon fill="white" stroke="black" points="1083,-6 1083,-25 1149,-25 1149,-6 1083,-6"/>
<text text-anchor="middle" x="1116" y="-13" font-family="Helvetica,sans-Serif" font-size="10.00">builtins.cc</text>
</a>
</g>
</g>
<!-- Node2&#45;&gt;Node490 -->
<g id="edge28" class="edge">
<title>Node2&#45;&gt;Node490</title>
<path fill="none" stroke="midnightblue" d="M1921.36,-134.86C1919.21,-134.54 1917.08,-134.25 1915,-134 1868.95,-128.53 1113.08,-131.49 1081,-98 1060.55,-76.65 1090.46,-41.48 1106.7,-25.23"/>
<polygon fill="midnightblue" stroke="midnightblue" points="1920.97,-138.34 1931.41,-136.53 1922.12,-131.43 1920.97,-138.34"/>
</g>
<!-- Node715 -->
<g id="node22" class="node">
<title>Node715</title>
<g id="a_node22"><a xlink:href="builtins-object_8cc.html" target="_top" xlink:title=" ">
<polygon fill="white" stroke="black" points="1771,-73 1771,-92 1871,-92 1871,-73 1771,-73"/>
<text text-anchor="middle" x="1821" y="-80" font-family="Helvetica,sans-Serif" font-size="10.00">builtins&#45;object.cc</text>
</a>
</g>
</g>
<!-- Node2&#45;&gt;Node715 -->
<g id="edge25" class="edge">
<title>Node2&#45;&gt;Node715</title>
<path fill="none" stroke="midnightblue" d="M1931.54,-130.48C1904.35,-118.92 1864.71,-102.08 1841.02,-92.01"/>
<polygon fill="midnightblue" stroke="midnightblue" points="1930.37,-133.78 1940.94,-134.48 1933.11,-127.34 1930.37,-133.78"/>
</g>
<!-- Node1194 -->
<g id="node23" class="node">
<title>Node1194</title>
<g id="a_node23"><a xlink:href="builtins-utils_8h.html" target="_top" xlink:title=" ">
<polygon fill="white" stroke="red" points="4003,-73 4003,-92 4089,-92 4089,-73 4003,-73"/>
<text text-anchor="middle" x="4046" y="-80" font-family="Helvetica,sans-Serif" font-size="10.00">builtins&#45;utils.h</text>
</a>
</g>
</g>
<!-- Node2&#45;&gt;Node1194 -->
<g id="edge26" class="edge">
<title>Node2&#45;&gt;Node1194</title>
<path fill="none" stroke="midnightblue" d="M2001.19,-134.34C2002.13,-134.22 2003.07,-134.1 2004,-134 2443.51,-84.48 3556.35,-161.91 3994,-98 4002.72,-96.73 4012.04,-94.43 4020.36,-92.04"/>
<polygon fill="midnightblue" stroke="midnightblue" points="2000.28,-130.95 1990.96,-135.98 2001.38,-137.86 2000.28,-130.95"/>
</g>
<!-- Node718 -->
<g id="node24" class="node">
<title>Node718</title>
<g id="a_node24"><a xlink:href="constants-table-builder_8cc.html" target="_top" xlink:title=" ">
<polygon fill="white" stroke="black" points="1889.5,-73 1889.5,-92 2032.5,-92 2032.5,-73 1889.5,-73"/>
<text text-anchor="middle" x="1961" y="-80" font-family="Helvetica,sans-Serif" font-size="10.00">constants&#45;table&#45;builder.cc</text>
</a>
</g>
</g>
<!-- Node2&#45;&gt;Node718 -->
<g id="edge29" class="edge">
<title>Node2&#45;&gt;Node718</title>
<path fill="none" stroke="midnightblue" d="M1961,-124.32C1961,-113.5 1961,-100.4 1961,-92.01"/>
<polygon fill="midnightblue" stroke="midnightblue" points="1957.5,-124.48 1961,-134.48 1964.5,-124.48 1957.5,-124.48"/>
</g>
<!-- Node719 -->
<g id="node25" class="node">
<title>Node719</title>
<g id="a_node25"><a xlink:href="codegen_2assembler_8cc.html" target="_top" xlink:title=" ">
<polygon fill="white" stroke="black" points="4243,-73 4243,-92 4323,-92 4323,-73 4243,-73"/>
<text text-anchor="middle" x="4283" y="-80" font-family="Helvetica,sans-Serif" font-size="10.00">assembler.cc</text>
</a>
</g>
</g>
<!-- Node2&#45;&gt;Node719 -->
<g id="edge31" class="edge">
<title>Node2&#45;&gt;Node719</title>
<path fill="none" stroke="midnightblue" d="M2001.19,-134.34C2002.13,-134.22 2003.07,-134.1 2004,-134 2495.45,-79.1 3739.28,-166.64 4229,-98 4238.04,-96.73 4247.72,-94.44 4256.35,-92.05"/>
<polygon fill="midnightblue" stroke="midnightblue" points="2000.28,-130.94 1990.96,-135.97 2001.38,-137.86 2000.28,-130.94"/>
</g>
<!-- Node614 -->
<g id="node26" class="node">
<title>Node614</title>
<g id="a_node26"><a xlink:href="compiler_8h.html" target="_top" xlink:title=" ">
<polygon fill="white" stroke="red" points="346,-73 346,-92 414,-92 414,-73 346,-73"/>
<text text-anchor="middle" x="380" y="-80" font-family="Helvetica,sans-Serif" font-size="10.00">compiler.h</text>
</a>
</g>
</g>
<!-- Node2&#45;&gt;Node614 -->
<g id="edge33" class="edge">
<title>Node2&#45;&gt;Node614</title>
<path fill="none" stroke="midnightblue" d="M1921.37,-134.81C1919.22,-134.5 1917.09,-134.23 1915,-134 1586.41,-98.14 754.38,-150.27 428,-98 419.92,-96.71 411.3,-94.41 403.63,-92.02"/>
<polygon fill="midnightblue" stroke="midnightblue" points="1920.99,-138.29 1931.42,-136.45 1922.11,-131.38 1920.99,-138.29"/>
</g>
<!-- Node628 -->
<g id="node27" class="node">
<title>Node628</title>
<g id="a_node27"><a xlink:href="lazy-compile-dispatcher_8cc.html" target="_top" xlink:title=" ">
<polygon fill="white" stroke="black" points="338.5,-6 338.5,-25 485.5,-25 485.5,-6 338.5,-6"/>
<text text-anchor="middle" x="412" y="-13" font-family="Helvetica,sans-Serif" font-size="10.00">lazy&#45;compile&#45;dispatcher.cc</text>
</a>
</g>
</g>
<!-- Node2&#45;&gt;Node628 -->
<g id="edge55" class="edge">
<title>Node2&#45;&gt;Node628</title>
<path fill="none" stroke="midnightblue" d="M1921.37,-134.81C1919.22,-134.5 1917.09,-134.23 1915,-134 1760.43,-117.01 662.32,-150.62 516,-98 473.48,-82.71 434.81,-42.69 419.25,-25.05"/>
<polygon fill="midnightblue" stroke="midnightblue" points="1920.98,-138.3 1931.42,-136.46 1922.11,-131.39 1920.98,-138.3"/>
</g>
<!-- Node629 -->
<g id="node28" class="node">
<title>Node629</title>
<g id="a_node28"><a xlink:href="optimizing-compile-dispatcher_8cc.html" target="_top" xlink:title=" ">
<polygon fill="white" stroke="black" points="503.5,-0.5 503.5,-30.5 614.5,-30.5 614.5,-0.5 503.5,-0.5"/>
<text text-anchor="start" x="511.5" y="-18.5" font-family="Helvetica,sans-Serif" font-size="10.00">optimizing&#45;compile</text>
<text text-anchor="middle" x="559" y="-7.5" font-family="Helvetica,sans-Serif" font-size="10.00">&#45;dispatcher.cc</text>
</a>
</g>
</g>
<!-- Node2&#45;&gt;Node629 -->
<g id="edge56" class="edge">
<title>Node2&#45;&gt;Node629</title>
<path fill="none" stroke="midnightblue" d="M1921.37,-134.81C1919.22,-134.5 1917.09,-134.23 1915,-134 1838.33,-125.56 580.83,-153.25 527,-98 508.65,-79.17 529.71,-48.57 545.3,-30.71"/>
<polygon fill="midnightblue" stroke="midnightblue" points="1920.98,-138.3 1931.42,-136.46 1922.11,-131.39 1920.98,-138.3"/>
</g>
<!-- Node1249 -->
<g id="node29" class="node">
<title>Node1249</title>
<g id="a_node29"><a xlink:href="external-reference-encoder_8cc.html" target="_top" xlink:title=" ">
<polygon fill="white" stroke="black" points="2050.5,-67.5 2050.5,-97.5 2157.5,-97.5 2157.5,-67.5 2050.5,-67.5"/>
<text text-anchor="start" x="2058.5" y="-85.5" font-family="Helvetica,sans-Serif" font-size="10.00">external&#45;reference</text>
<text text-anchor="middle" x="2104" y="-74.5" font-family="Helvetica,sans-Serif" font-size="10.00">&#45;encoder.cc</text>
</a>
</g>
</g>
<!-- Node2&#45;&gt;Node1249 -->
<g id="edge40" class="edge">
<title>Node2&#45;&gt;Node1249</title>
<path fill="none" stroke="midnightblue" d="M1990.83,-130.59C2014.01,-120.94 2046.18,-107.56 2070.3,-97.52"/>
<polygon fill="midnightblue" stroke="midnightblue" points="1989.38,-127.4 1981.49,-134.48 1992.07,-133.86 1989.38,-127.4"/>
</g>
<!-- Node1250 -->
<g id="node30" class="node">
<title>Node1250</title>
<g id="a_node30"><a xlink:href="external-reference-table_8cc.html" target="_top" xlink:title=" ">
<polygon fill="white" stroke="black" points="2175.5,-67.5 2175.5,-97.5 2282.5,-97.5 2282.5,-67.5 2175.5,-67.5"/>
<text text-anchor="start" x="2183.5" y="-85.5" font-family="Helvetica,sans-Serif" font-size="10.00">external&#45;reference</text>
<text text-anchor="middle" x="2229" y="-74.5" font-family="Helvetica,sans-Serif" font-size="10.00">&#45;table.cc</text>
</a>
</g>
</g>
<!-- Node2&#45;&gt;Node1250 -->
<g id="edge41" class="edge">
<title>Node2&#45;&gt;Node1250</title>
<path fill="none" stroke="midnightblue" d="M2000.69,-134.51C2042.2,-125.59 2109.23,-111.06 2167,-98 2169.7,-97.39 2172.46,-96.76 2175.24,-96.12"/>
<polygon fill="midnightblue" stroke="midnightblue" points="1999.75,-131.13 1990.71,-136.65 2001.22,-137.98 1999.75,-131.13"/>
</g>
<!-- Node492 -->
<g id="node31" class="node">
<title>Node492</title>
<g id="a_node31"><a xlink:href="external-reference_8cc.html" target="_top" xlink:title=" ">
<polygon fill="white" stroke="black" points="2300.5,-73 2300.5,-92 2421.5,-92 2421.5,-73 2300.5,-73"/>
<text text-anchor="middle" x="2361" y="-80" font-family="Helvetica,sans-Serif" font-size="10.00">external&#45;reference.cc</text>
</a>
</g>
</g>
<!-- Node2&#45;&gt;Node492 -->
<g id="edge42" class="edge">
<title>Node2&#45;&gt;Node492</title>
<path fill="none" stroke="midnightblue" d="M2000.69,-134.57C2001.8,-134.37 2002.91,-134.18 2004,-134 2131.24,-112.77 2164.77,-119.28 2292,-98 2302.14,-96.3 2313.06,-94.16 2323.15,-92.04"/>
<polygon fill="midnightblue" stroke="midnightblue" points="1999.73,-131.19 1990.55,-136.48 2001.02,-138.07 1999.73,-131.19"/>
</g>
<!-- Node1251 -->
<g id="node32" class="node">
<title>Node1251</title>
<g id="a_node32"><a xlink:href="assembler-ia32_8h.html" target="_top" xlink:title=" ">
<polygon fill="white" stroke="red" points="2439.5,-73 2439.5,-92 2540.5,-92 2540.5,-73 2439.5,-73"/>
<text text-anchor="middle" x="2490" y="-80" font-family="Helvetica,sans-Serif" font-size="10.00">assembler&#45;ia32.h</text>
</a>
</g>
</g>
<!-- Node2&#45;&gt;Node1251 -->
<g id="edge43" class="edge">
<title>Node2&#45;&gt;Node1251</title>
<path fill="none" stroke="midnightblue" d="M2000.68,-134.51C2001.8,-134.33 2002.91,-134.16 2004,-134 2192.45,-106.44 2243.06,-128.82 2431,-98 2440.26,-96.48 2450.22,-94.27 2459.26,-92.02"/>
<polygon fill="midnightblue" stroke="midnightblue" points="1999.75,-131.12 1990.52,-136.33 2000.98,-138.01 1999.75,-131.12"/>
</g>
<!-- Node1255 -->
<g id="node33" class="node">
<title>Node1255</title>
<g id="a_node33"><a xlink:href="interface-descriptors_8h.html" target="_top" xlink:title=" ">
<polygon fill="white" stroke="red" points="546.5,-73 546.5,-92 673.5,-92 673.5,-73 546.5,-73"/>
<text text-anchor="middle" x="610" y="-80" font-family="Helvetica,sans-Serif" font-size="10.00">interface&#45;descriptors.h</text>
</a>
</g>
</g>
<!-- Node2&#45;&gt;Node1255 -->
<g id="edge44" class="edge">
<title>Node2&#45;&gt;Node1255</title>
<path fill="none" stroke="midnightblue" d="M1921.36,-134.82C1919.22,-134.51 1917.08,-134.23 1915,-134 1370.15,-73.16 1226.68,-160.34 682,-98 670.22,-96.65 657.49,-94.37 646.07,-92.01"/>
<polygon fill="midnightblue" stroke="midnightblue" points="1920.98,-138.3 1931.42,-136.47 1922.12,-131.4 1920.98,-138.3"/>
</g>
<!-- Node771 -->
<g id="node34" class="node">
<title>Node771</title>
<g id="a_node34"><a xlink:href="unoptimized-compilation-info_8cc.html" target="_top" xlink:title=" ">
<polygon fill="white" stroke="black" points="2558.5,-67.5 2558.5,-97.5 2697.5,-97.5 2697.5,-67.5 2558.5,-67.5"/>
<text text-anchor="start" x="2566.5" y="-85.5" font-family="Helvetica,sans-Serif" font-size="10.00">unoptimized&#45;compilation</text>
<text text-anchor="middle" x="2628" y="-74.5" font-family="Helvetica,sans-Serif" font-size="10.00">&#45;info.cc</text>
</a>
</g>
</g>
<!-- Node2&#45;&gt;Node771 -->
<g id="edge47" class="edge">
<title>Node2&#45;&gt;Node771</title>
<path fill="none" stroke="midnightblue" d="M2000.68,-134.48C2001.79,-134.31 2002.9,-134.15 2004,-134 2244.95,-101.01 2308.7,-128.28 2550,-98 2552.73,-97.66 2555.52,-97.28 2558.32,-96.87"/>
<polygon fill="midnightblue" stroke="midnightblue" points="1999.76,-131.09 1990.51,-136.25 2000.97,-137.99 1999.76,-131.09"/>
</g>
<!-- Node1300 -->
<g id="node35" class="node">
<title>Node1300</title>
<g id="a_node35"><a xlink:href="ptr-compr-inl_8h.html" target="_top" xlink:title=" ">
<polygon fill="white" stroke="red" points="2715.5,-73 2715.5,-92 2804.5,-92 2804.5,-73 2715.5,-73"/>
<text text-anchor="middle" x="2760" y="-80" font-family="Helvetica,sans-Serif" font-size="10.00">ptr&#45;compr&#45;inl.h</text>
</a>
</g>
</g>
<!-- Node2&#45;&gt;Node1300 -->
<g id="edge48" class="edge">
<title>Node2&#45;&gt;Node1300</title>
<path fill="none" stroke="midnightblue" d="M2000.67,-134.46C2001.79,-134.3 2002.9,-134.14 2004,-134 2314.26,-93.83 2398.1,-147.57 2707,-98 2715.67,-96.61 2724.95,-94.35 2733.28,-92.02"/>
<polygon fill="midnightblue" stroke="midnightblue" points="1999.77,-131.07 1990.51,-136.2 2000.95,-137.97 1999.77,-131.07"/>
</g>
<!-- Node220 -->
<g id="node36" class="node">
<title>Node220</title>
<g id="a_node36"><a xlink:href="js-graph_8h.html" target="_top" xlink:title=" ">
<polygon fill="white" stroke="red" points="2822.5,-73 2822.5,-92 2887.5,-92 2887.5,-73 2822.5,-73"/>
<text text-anchor="middle" x="2855" y="-80" font-family="Helvetica,sans-Serif" font-size="10.00">js&#45;graph.h</text>
</a>
</g>
</g>
<!-- Node2&#45;&gt;Node220 -->
<g id="edge49" class="edge">
<title>Node2&#45;&gt;Node220</title>
<path fill="none" stroke="midnightblue" d="M2000.67,-134.45C2001.79,-134.29 2002.9,-134.14 2004,-134 2361.53,-88.94 2460.28,-166.83 2814,-98 2820.82,-96.67 2828.03,-94.43 2834.47,-92.09"/>
<polygon fill="midnightblue" stroke="midnightblue" points="1999.78,-131.05 1990.5,-136.17 2000.95,-137.96 1999.78,-131.05"/>
</g>
<!-- Node1306 -->
<g id="node37" class="node">
<title>Node1306</title>
<g id="a_node37"><a xlink:href="per-isolate-compiler-cache_8h.html" target="_top" xlink:title=" ">
<polygon fill="white" stroke="black" points="2906,-67.5 2906,-97.5 3022,-97.5 3022,-67.5 2906,-67.5"/>
<text text-anchor="start" x="2914" y="-85.5" font-family="Helvetica,sans-Serif" font-size="10.00">per&#45;isolate&#45;compiler</text>
<text text-anchor="middle" x="2964" y="-74.5" font-family="Helvetica,sans-Serif" font-size="10.00">&#45;cache.h</text>
</a>
</g>
</g>
<!-- Node2&#45;&gt;Node1306 -->
<g id="edge50" class="edge">
<title>Node2&#45;&gt;Node1306</title>
<path fill="none" stroke="midnightblue" d="M2001.19,-134.37C2002.14,-134.24 2003.07,-134.11 2004,-134 2398.2,-85.14 2502.97,-148.2 2897,-98 2899.83,-97.64 2902.72,-97.22 2905.64,-96.75"/>
<polygon fill="midnightblue" stroke="midnightblue" points="2000.26,-130.98 1990.97,-136.07 2001.4,-137.88 2000.26,-130.98"/>
</g>
<!-- Node33 -->
<g id="node38" class="node">
<title>Node33</title>
<g id="a_node38"><a xlink:href="pipeline-data-inl_8h.html" target="_top" xlink:title=" ">
<polygon fill="white" stroke="red" points="3040,-73 3040,-92 3146,-92 3146,-73 3040,-73"/>
<text text-anchor="middle" x="3093" y="-80" font-family="Helvetica,sans-Serif" font-size="10.00">pipeline&#45;data&#45;inl.h</text>
</a>
</g>
</g>
<!-- Node2&#45;&gt;Node33 -->
<g id="edge51" class="edge">
<title>Node2&#45;&gt;Node33</title>
<path fill="none" stroke="midnightblue" d="M2001.19,-134.37C2002.14,-134.23 2003.07,-134.11 2004,-134 2457.4,-79.02 2578.27,-158.29 3031,-98 3041.08,-96.66 3051.92,-94.41 3061.68,-92.08"/>
<polygon fill="midnightblue" stroke="midnightblue" points="2000.26,-130.97 1990.96,-136.05 2001.4,-137.88 2000.26,-130.97"/>
</g>
<!-- Node386 -->
<g id="node39" class="node">
<title>Node386</title>
<g id="a_node39"><a xlink:href="raw-machine-assembler_8h.html" target="_top" xlink:title=" ">
<polygon fill="white" stroke="red" points="3164.5,-73 3164.5,-92 3307.5,-92 3307.5,-73 3164.5,-73"/>
<text text-anchor="middle" x="3236" y="-80" font-family="Helvetica,sans-Serif" font-size="10.00">raw&#45;machine&#45;assembler.h</text>
</a>
</g>
</g>
<!-- Node2&#45;&gt;Node386 -->
<g id="edge52" class="edge">
<title>Node2&#45;&gt;Node386</title>
<path fill="none" stroke="midnightblue" d="M2001.19,-134.36C2002.13,-134.23 2003.07,-134.11 2004,-134 2512.2,-73.34 2645.97,-151.23 3155,-98 3168.07,-96.63 3182.21,-94.38 3194.96,-92.04"/>
<polygon fill="midnightblue" stroke="midnightblue" points="2000.27,-130.97 1990.96,-136.03 2001.39,-137.87 2000.27,-130.97"/>
</g>
<!-- Node65 -->
<g id="node40" class="node">
<title>Node65</title>
<g id="a_node40"><a xlink:href="compiler_2turboshaft_2assembler_8cc.html" target="_top" xlink:title=" ">
<polygon fill="white" stroke="black" points="3326,-73 3326,-92 3406,-92 3406,-73 3326,-73"/>
<text text-anchor="middle" x="3366" y="-80" font-family="Helvetica,sans-Serif" font-size="10.00">assembler.cc</text>
</a>
</g>
</g>
<!-- Node2&#45;&gt;Node65 -->
<g id="edge53" class="edge">
<title>Node2&#45;&gt;Node65</title>
<path fill="none" stroke="midnightblue" d="M2001.19,-134.36C2002.13,-134.23 2003.07,-134.11 2004,-134 2583.79,-65.93 2740.46,-189.6 3317,-98 3325.15,-96.71 3333.84,-94.44 3341.61,-92.08"/>
<polygon fill="midnightblue" stroke="midnightblue" points="2000.27,-130.96 1990.96,-136.02 2001.39,-137.87 2000.27,-130.96"/>
</g>
<!-- Node73 -->
<g id="node41" class="node">
<title>Node73</title>
<g id="a_node41"><a xlink:href="builtin-compiler_8cc.html" target="_top" xlink:title=" ">
<polygon fill="white" stroke="black" points="3424.5,-73 3424.5,-92 3531.5,-92 3531.5,-73 3424.5,-73"/>
<text text-anchor="middle" x="3478" y="-80" font-family="Helvetica,sans-Serif" font-size="10.00">builtin&#45;compiler.cc</text>
</a>
</g>
</g>
<!-- Node2&#45;&gt;Node73 -->
<g id="edge54" class="edge">
<title>Node2&#45;&gt;Node73</title>
<path fill="none" stroke="midnightblue" d="M2001.19,-134.35C2002.13,-134.23 2003.07,-134.11 2004,-134 2627.11,-61.45 2792.65,-176.75 3415,-98 3425.36,-96.69 3436.5,-94.42 3446.5,-92.06"/>
<polygon fill="midnightblue" stroke="midnightblue" points="2000.27,-130.96 1990.96,-136.01 2001.39,-137.87 2000.27,-130.96"/>
</g>
<!-- Node1189 -->
<g id="node42" class="node">
<title>Node1189</title>
<g id="a_node42"><a xlink:href="d8-console_8cc.html" target="_top" xlink:title=" ">
<polygon fill="white" stroke="black" points="3549.5,-73 3549.5,-92 3632.5,-92 3632.5,-73 3549.5,-73"/>
<text text-anchor="middle" x="3591" y="-80" font-family="Helvetica,sans-Serif" font-size="10.00">d8&#45;console.cc</text>
</a>
</g>
</g>
<!-- Node2&#45;&gt;Node1189 -->
<g id="edge57" class="edge">
<title>Node2&#45;&gt;Node1189</title>
<path fill="none" stroke="midnightblue" d="M2001.19,-134.35C2002.13,-134.22 2003.07,-134.11 2004,-134 2343.4,-94.84 3203.33,-150.01 3541,-98 3549.4,-96.71 3558.37,-94.41 3566.36,-92.02"/>
<polygon fill="midnightblue" stroke="midnightblue" points="2000.27,-130.95 1990.96,-136 2001.39,-137.86 2000.27,-130.95"/>
</g>
<!-- Node1307 -->
<g id="node43" class="node">
<title>Node1307</title>
<g id="a_node43"><a xlink:href="dateparser-inl_8h.html" target="_top" xlink:title=" ">
<polygon fill="white" stroke="red" points="3651,-73 3651,-92 3745,-92 3745,-73 3651,-73"/>
<text text-anchor="middle" x="3698" y="-80" font-family="Helvetica,sans-Serif" font-size="10.00">dateparser&#45;inl.h</text>
</a>
</g>
</g>
<!-- Node2&#45;&gt;Node1307 -->
<g id="edge58" class="edge">
<title>Node2&#45;&gt;Node1307</title>
<path fill="none" stroke="midnightblue" d="M2001.19,-134.35C2002.13,-134.22 2003.07,-134.11 2004,-134 2365.72,-92.53 3281.36,-147.97 3642,-98 3651.35,-96.7 3661.39,-94.41 3670.34,-92.01"/>
<polygon fill="midnightblue" stroke="midnightblue" points="2000.28,-130.95 1990.96,-135.99 2001.39,-137.86 2000.28,-130.95"/>
</g>
<!-- Node805 -->
<g id="node44" class="node">
<title>Node805</title>
<g id="a_node44"><a xlink:href="debug-coverage_8cc.html" target="_top" xlink:title=" ">
<polygon fill="white" stroke="black" points="3763.5,-73 3763.5,-92 3872.5,-92 3872.5,-73 3763.5,-73"/>
<text text-anchor="middle" x="3818" y="-80" font-family="Helvetica,sans-Serif" font-size="10.00">debug&#45;coverage.cc</text>
</a>
</g>
</g>
<!-- Node2&#45;&gt;Node805 -->
<g id="edge59" class="edge">
<title>Node2&#45;&gt;Node805</title>
<path fill="none" stroke="midnightblue" d="M2001.19,-134.35C2002.13,-134.22 2003.07,-134.11 2004,-134 2776.94,-45.93 2981.81,-192.43 3754,-98 3764.63,-96.7 3776.08,-94.4 3786.32,-92.01"/>
<polygon fill="midnightblue" stroke="midnightblue" points="2000.28,-130.95 1990.96,-135.99 2001.39,-137.86 2000.28,-130.95"/>
</g>
<!-- Node1308 -->
<g id="node45" class="node">
<title>Node1308</title>
<g id="a_node45"><a xlink:href="debug-frames_8h.html" target="_top" xlink:title=" ">
<polygon fill="white" stroke="red" points="3891,-73 3891,-92 3985,-92 3985,-73 3891,-73"/>
<text text-anchor="middle" x="3938" y="-80" font-family="Helvetica,sans-Serif" font-size="10.00">debug&#45;frames.h</text>
</a>
</g>
</g>
<!-- Node2&#45;&gt;Node1308 -->
<g id="edge60" class="edge">
<title>Node2&#45;&gt;Node1308</title>
<path fill="none" stroke="midnightblue" d="M2001.19,-134.35C2002.13,-134.22 2003.07,-134.11 2004,-134 2418.76,-87.04 3468.46,-154.7 3882,-98 3891.35,-96.72 3901.39,-94.42 3910.34,-92.03"/>
<polygon fill="midnightblue" stroke="midnightblue" points="2000.28,-130.95 1990.96,-135.98 2001.38,-137.86 2000.28,-130.95"/>
</g>
<!-- Node483&#45;&gt;Node599 -->
<g id="edge4" class="edge">
<title>Node483&#45;&gt;Node599</title>
<path fill="none" stroke="midnightblue" d="M4184.21,-65.93C4196.78,-55.18 4213.35,-41 4225.53,-30.59"/>
<polygon fill="midnightblue" stroke="midnightblue" points="4181.57,-63.57 4176.25,-72.73 4186.12,-68.89 4181.57,-63.57"/>
</g>
<!-- Node483&#45;&gt;Node602 -->
<g id="edge5" class="edge">
<title>Node483&#45;&gt;Node602</title>
<path fill="none" stroke="midnightblue" d="M4147.79,-65.93C4135.22,-55.18 4118.65,-41 4106.47,-30.59"/>
<polygon fill="midnightblue" stroke="midnightblue" points="4145.88,-68.89 4155.75,-72.73 4150.43,-63.57 4145.88,-68.89"/>
</g>
<!-- Node1235&#45;&gt;Node491 -->
<g id="edge9" class="edge">
<title>Node1235&#45;&gt;Node491</title>
<path fill="none" stroke="midnightblue" d="M164.27,-68.94C132.69,-56.03 84.38,-36.28 56.95,-25.06"/>
<polygon fill="midnightblue" stroke="midnightblue" points="163.31,-72.32 173.89,-72.87 165.95,-65.84 163.31,-72.32"/>
</g>
<!-- Node1238&#45;&gt;Node1237 -->
<g id="edge18" class="edge">
<title>Node1238&#45;&gt;Node1237</title>
<path fill="none" stroke="midnightblue" d="M784.89,-67.27C804.69,-54.4 833.19,-35.88 849.73,-25.13"/>
<polygon fill="midnightblue" stroke="midnightblue" points="782.96,-64.35 776.49,-72.73 786.78,-70.22 782.96,-64.35"/>
</g>
<!-- Node1238&#45;&gt;Node62 -->
<g id="edge19" class="edge">
<title>Node1238&#45;&gt;Node62</title>
<path fill="none" stroke="midnightblue" d="M747.64,-65.13C735.71,-52.42 719.64,-35.3 710.1,-25.13"/>
<polygon fill="midnightblue" stroke="midnightblue" points="745.38,-67.84 754.77,-72.73 750.48,-63.05 745.38,-67.84"/>
</g>
<!-- Node1240&#45;&gt;Node1236 -->
<g id="edge22" class="edge">
<title>Node1240&#45;&gt;Node1236</title>
<path fill="none" stroke="midnightblue" d="M948.81,-66.21C964.58,-53.41 986.51,-35.59 999.38,-25.13"/>
<polygon fill="midnightblue" stroke="midnightblue" points="946.34,-63.71 940.79,-72.73 950.76,-69.14 946.34,-63.71"/>
</g>
<!-- Node1240&#45;&gt;Node62 -->
<g id="edge24" class="edge">
<title>Node1240&#45;&gt;Node62</title>
<path fill="none" stroke="midnightblue" d="M889.98,-70.09C844.88,-57.23 772.57,-36.62 732.04,-25.06"/>
<polygon fill="midnightblue" stroke="midnightblue" points="889.15,-73.49 899.72,-72.87 891.07,-66.76 889.15,-73.49"/>
</g>
<!-- Node1240&#45;&gt;Node490 -->
<g id="edge23" class="edge">
<title>Node1240&#45;&gt;Node490</title>
<path fill="none" stroke="midnightblue" d="M964.52,-69.44C1001.42,-56.54 1058.99,-36.42 1091.49,-25.06"/>
<polygon fill="midnightblue" stroke="midnightblue" points="962.98,-66.27 954.7,-72.87 965.29,-72.87 962.98,-66.27"/>
</g>
<!-- Node1194&#45;&gt;Node3 -->
<g id="edge27" class="edge">
<title>Node1194&#45;&gt;Node3</title>
<path fill="none" stroke="midnightblue" d="M4010.06,-70.3C4004.72,-68.98 3999.25,-67.82 3994,-67 3726.96,-25.52 2865.2,-17.98 2650.7,-16.73"/>
<polygon fill="midnightblue" stroke="midnightblue" points="4009.51,-73.78 4020.08,-72.98 4011.32,-67.01 4009.51,-73.78"/>
</g>
<!-- Node614&#45;&gt;Node615 -->
<g id="edge34" class="edge">
<title>Node614&#45;&gt;Node615</title>
<path fill="none" stroke="midnightblue" d="M336.05,-72.77C291.94,-63.66 222.24,-48.31 163,-31 157.06,-29.26 150.72,-27.15 144.84,-25.08"/>
<polygon fill="midnightblue" stroke="midnightblue" points="335.37,-76.21 345.87,-74.78 336.77,-69.35 335.37,-76.21"/>
</g>
<!-- Node614&#45;&gt;Node491 -->
<g id="edge37" class="edge">
<title>Node614&#45;&gt;Node491</title>
<path fill="none" stroke="midnightblue" d="M335.54,-76.03C276.77,-68.34 170.25,-52.8 81,-31 74.3,-29.36 67.15,-27.24 60.57,-25.13"/>
<polygon fill="midnightblue" stroke="midnightblue" points="335.23,-79.52 345.59,-77.33 336.12,-72.58 335.23,-79.52"/>
</g>
<!-- Node614&#45;&gt;Node616 -->
<g id="edge35" class="edge">
<title>Node614&#45;&gt;Node616</title>
<path fill="none" stroke="midnightblue" d="M353.08,-68.44C326.54,-55.57 286.73,-36.26 263.87,-25.17"/>
<polygon fill="midnightblue" stroke="midnightblue" points="351.68,-71.65 362.21,-72.87 354.74,-65.35 351.68,-71.65"/>
</g>
<!-- Node614&#45;&gt;Node62 -->
<g id="edge36" class="edge">
<title>Node614&#45;&gt;Node62</title>
<path fill="none" stroke="midnightblue" d="M424.04,-72.61C486.17,-60.07 598.76,-37.34 659.85,-25.01"/>
<polygon fill="midnightblue" stroke="midnightblue" points="423.26,-69.2 414.15,-74.61 424.65,-76.06 423.26,-69.2"/>
</g>
<!-- Node614&#45;&gt;Node628 -->
<g id="edge38" class="edge">
<title>Node614&#45;&gt;Node628</title>
<path fill="none" stroke="midnightblue" d="M388.78,-63.66C394.95,-51.13 402.94,-34.91 407.75,-25.13"/>
<polygon fill="midnightblue" stroke="midnightblue" points="385.59,-62.22 384.32,-72.73 391.87,-65.31 385.59,-62.22"/>
</g>
<!-- Node614&#45;&gt;Node629 -->
<g id="edge39" class="edge">
<title>Node614&#45;&gt;Node629</title>
<path fill="none" stroke="midnightblue" d="M413.47,-69.35C443.81,-58.33 488.52,-42.09 520.37,-30.53"/>
<polygon fill="midnightblue" stroke="midnightblue" points="411.97,-66.17 403.77,-72.87 414.36,-72.75 411.97,-66.17"/>
</g>
<!-- Node1255&#45;&gt;Node62 -->
<g id="edge45" class="edge">
<title>Node1255&#45;&gt;Node62</title>
<path fill="none" stroke="midnightblue" d="M630.64,-66.92C648.82,-54.07 674.71,-35.78 689.79,-25.13"/>
<polygon fill="midnightblue" stroke="midnightblue" points="628.56,-64.1 622.41,-72.73 632.59,-69.82 628.56,-64.1"/>
</g>
<!-- Node1380&#45;&gt;Node491 -->
<g id="edge62" class="edge">
<title>Node1380&#45;&gt;Node491</title>
<path fill="none" stroke="midnightblue" d="M1809.02,-142.98C1520.6,-142.71 171.49,-139.22 94,-98 63.95,-82.01 45.91,-42.73 39.11,-25.2"/>
<polygon fill="midnightblue" stroke="midnightblue" points="1809.22,-146.48 1819.22,-142.99 1809.22,-139.48 1809.22,-146.48"/>
</g>
<!-- Node1381&#45;&gt;Node719 -->
<g id="edge65" class="edge">
<title>Node1381&#45;&gt;Node719</title>
<path fill="none" stroke="midnightblue" d="M2143.65,-189.99C3065.28,-77.37 3314.78,-239.16 4229,-98 4237.83,-96.64 4247.28,-94.38 4255.78,-92.05"/>
<polygon fill="midnightblue" stroke="midnightblue" points="2142.96,-186.55 2133.46,-191.25 2143.81,-193.5 2142.96,-186.55"/>
</g>
<!-- Node1390&#45;&gt;Node2 -->
<g id="edge67" class="edge">
<title>Node1390&#45;&gt;Node2</title>
<path fill="none" stroke="midnightblue" d="M1965.55,-180.1C1964.39,-171.14 1963.06,-160.86 1962.13,-153.75"/>
<polygon fill="midnightblue" stroke="midnightblue" points="1962.09,-180.62 1966.84,-190.08 1969.03,-179.72 1962.09,-180.62"/>
</g>
<!-- Node1390&#45;&gt;Node1380 -->
<g id="edge68" class="edge">
<title>Node1390&#45;&gt;Node1380</title>
<path fill="none" stroke="midnightblue" d="M1942.19,-185.73C1922.75,-175.73 1896.65,-162.31 1879.83,-153.65"/>
<polygon fill="midnightblue" stroke="midnightblue" points="1940.64,-188.86 1951.13,-190.32 1943.84,-182.64 1940.64,-188.86"/>
</g>
<!-- Node1390&#45;&gt;Node1419 -->
<g id="edge69" class="edge">
<title>Node1390&#45;&gt;Node1419</title>
<path fill="none" stroke="midnightblue" d="M1985.99,-183.82C1997.46,-174.15 2011.91,-161.95 2021.53,-153.83"/>
<polygon fill="midnightblue" stroke="midnightblue" points="1983.67,-181.2 1978.28,-190.32 1988.18,-186.55 1983.67,-181.2"/>
</g>
</g>
</svg>
