<?xml version="1.0" encoding="UTF-8" standalone="no"?>
<!DOCTYPE svg PUBLIC "-//W3C//DTD SVG 1.1//EN"
 "http://www.w3.org/Graphics/SVG/1.1/DTD/svg11.dtd">
<!-- Generated by graphviz version 2.43.0 (0)
 -->
<!-- Title: /mnt/V8SourceCode/src/wasm/wasm&#45;debug.h Pages: 1 -->
<svg width="1446pt" height="117pt"
 viewBox="0.00 0.00 1446.00 117.00" xmlns="http://www.w3.org/2000/svg" xmlns:xlink="http://www.w3.org/1999/xlink">
<g id="graph0" class="graph" transform="scale(1 1) rotate(0) translate(4 113)">
<title>/mnt/V8SourceCode/src/wasm/wasm&#45;debug.h</title>
<polygon fill="white" stroke="transparent" points="-4,4 -4,-113 1442,-113 1442,4 -4,4"/>
<!-- Node1 -->
<g id="node1" class="node">
<title>Node1</title>
<g id="a_node1"><a xlink:title=" ">
<polygon fill="#bfbfbf" stroke="black" points="665,-78.5 665,-108.5 795,-108.5 795,-78.5 665,-78.5"/>
<text text-anchor="start" x="673" y="-96.5" font-family="Helvetica,sans-Serif" font-size="10.00">/mnt/V8SourceCode/src</text>
<text text-anchor="middle" x="730" y="-85.5" font-family="Helvetica,sans-Serif" font-size="10.00">/wasm/wasm&#45;debug.h</text>
</a>
</g>
</g>
<!-- Node2 -->
<g id="node2" class="node">
<title>Node2</title>
<g id="a_node2"><a xlink:href="debug-wasm-objects_8cc.html" target="_top" xlink:title=" ">
<polygon fill="white" stroke="black" points="0,-6 0,-36 168,-36 168,-6 0,-6"/>
<text text-anchor="start" x="8" y="-24" font-family="Helvetica,sans-Serif" font-size="10.00">/mnt/V8SourceCode/src</text>
<text text-anchor="middle" x="84" y="-13" font-family="Helvetica,sans-Serif" font-size="10.00">/debug/debug&#45;wasm&#45;objects.cc</text>
</a>
</g>
</g>
<!-- Node1&#45;&gt;Node2 -->
<g id="edge1" class="edge">
<title>Node1&#45;&gt;Node2</title>
<path fill="none" stroke="midnightblue" d="M654.97,-88.53C548.29,-82.23 346.88,-67.93 177,-42 166.39,-40.38 155.17,-38.29 144.34,-36.08"/>
<polygon fill="midnightblue" stroke="midnightblue" points="654.8,-92.03 664.99,-89.11 655.21,-85.04 654.8,-92.03"/>
</g>
<!-- Node3 -->
<g id="node3" class="node">
<title>Node3</title>
<g id="a_node3"><a xlink:href="wasm-module-debug_8cc.html" target="_top" xlink:title=" ">
<polygon fill="white" stroke="black" points="186.5,-0.5 186.5,-41.5 323.5,-41.5 323.5,-0.5 186.5,-0.5"/>
<text text-anchor="start" x="194.5" y="-29.5" font-family="Helvetica,sans-Serif" font-size="10.00">/mnt/V8SourceCode/src</text>
<text text-anchor="start" x="194.5" y="-18.5" font-family="Helvetica,sans-Serif" font-size="10.00">/debug/wasm/gdb&#45;server</text>
<text text-anchor="middle" x="255" y="-7.5" font-family="Helvetica,sans-Serif" font-size="10.00">/wasm&#45;module&#45;debug.cc</text>
</a>
</g>
</g>
<!-- Node1&#45;&gt;Node3 -->
<g id="edge2" class="edge">
<title>Node1&#45;&gt;Node3</title>
<path fill="none" stroke="midnightblue" d="M654.97,-85.77C574.81,-77.92 444.26,-63.25 333,-42 329.98,-41.42 326.9,-40.8 323.8,-40.14"/>
<polygon fill="midnightblue" stroke="midnightblue" points="654.68,-89.25 664.97,-86.74 655.36,-82.29 654.68,-89.25"/>
</g>
<!-- Node4 -->
<g id="node4" class="node">
<title>Node4</title>
<g id="a_node4"><a xlink:href="runtime-wasm_8cc.html" target="_top" xlink:title=" ">
<polygon fill="white" stroke="black" points="342,-6 342,-36 488,-36 488,-6 342,-6"/>
<text text-anchor="start" x="350" y="-24" font-family="Helvetica,sans-Serif" font-size="10.00">/mnt/V8SourceCode/src</text>
<text text-anchor="middle" x="415" y="-13" font-family="Helvetica,sans-Serif" font-size="10.00">/runtime/runtime&#45;wasm.cc</text>
</a>
</g>
</g>
<!-- Node1&#45;&gt;Node4 -->
<g id="edge3" class="edge">
<title>Node1&#45;&gt;Node4</title>
<path fill="none" stroke="midnightblue" d="M654.79,-76.71C609.09,-66.99 549.61,-54.11 497,-42 488.86,-40.13 480.28,-38.09 471.86,-36.07"/>
<polygon fill="midnightblue" stroke="midnightblue" points="654.11,-80.15 664.62,-78.8 655.56,-73.3 654.11,-80.15"/>
</g>
<!-- Node5 -->
<g id="node5" class="node">
<title>Node5</title>
<g id="a_node5"><a xlink:href="liftoff-compiler_8cc.html" target="_top" xlink:title=" ">
<polygon fill="white" stroke="black" points="506,-0.5 506,-41.5 636,-41.5 636,-0.5 506,-0.5"/>
<text text-anchor="start" x="514" y="-29.5" font-family="Helvetica,sans-Serif" font-size="10.00">/mnt/V8SourceCode/src</text>
<text text-anchor="start" x="514" y="-18.5" font-family="Helvetica,sans-Serif" font-size="10.00">/wasm/baseline/liftoff</text>
<text text-anchor="middle" x="571" y="-7.5" font-family="Helvetica,sans-Serif" font-size="10.00">&#45;compiler.cc</text>
</a>
</g>
</g>
<!-- Node1&#45;&gt;Node5 -->
<g id="edge4" class="edge">
<title>Node1&#45;&gt;Node5</title>
<path fill="none" stroke="midnightblue" d="M688.87,-74.26C666.25,-64.23 638.16,-51.78 615.08,-41.55"/>
<polygon fill="midnightblue" stroke="midnightblue" points="687.65,-77.55 698.21,-78.4 690.48,-71.15 687.65,-77.55"/>
</g>
<!-- Node6 -->
<g id="node6" class="node">
<title>Node6</title>
<g id="a_node6"><a xlink:href="function-compiler_8cc.html" target="_top" xlink:title=" ">
<polygon fill="white" stroke="black" points="654.5,-6 654.5,-36 805.5,-36 805.5,-6 654.5,-6"/>
<text text-anchor="start" x="662.5" y="-24" font-family="Helvetica,sans-Serif" font-size="10.00">/mnt/V8SourceCode/src</text>
<text text-anchor="middle" x="730" y="-13" font-family="Helvetica,sans-Serif" font-size="10.00">/wasm/function&#45;compiler.cc</text>
</a>
</g>
</g>
<!-- Node1&#45;&gt;Node6 -->
<g id="edge5" class="edge">
<title>Node1&#45;&gt;Node6</title>
<path fill="none" stroke="midnightblue" d="M730,-68.23C730,-57.57 730,-45.41 730,-36.25"/>
<polygon fill="midnightblue" stroke="midnightblue" points="726.5,-68.23 730,-78.23 733.5,-68.23 726.5,-68.23"/>
</g>
<!-- Node7 -->
<g id="node7" class="node">
<title>Node7</title>
<g id="a_node7"><a xlink:href="wasm-code-manager_8cc.html" target="_top" xlink:title=" ">
<polygon fill="white" stroke="black" points="824,-6 824,-36 992,-36 992,-6 824,-6"/>
<text text-anchor="start" x="832" y="-24" font-family="Helvetica,sans-Serif" font-size="10.00">/mnt/V8SourceCode/src</text>
<text text-anchor="middle" x="908" y="-13" font-family="Helvetica,sans-Serif" font-size="10.00">/wasm/wasm&#45;code&#45;manager.cc</text>
</a>
</g>
</g>
<!-- Node1&#45;&gt;Node7 -->
<g id="edge6" class="edge">
<title>Node1&#45;&gt;Node7</title>
<path fill="none" stroke="midnightblue" d="M775.06,-74.65C805.26,-62.69 844.47,-47.16 872.47,-36.07"/>
<polygon fill="midnightblue" stroke="midnightblue" points="773.6,-71.47 765.59,-78.4 776.18,-77.97 773.6,-71.47"/>
</g>
<!-- Node8 -->
<g id="node8" class="node">
<title>Node8</title>
<g id="a_node8"><a xlink:href="wasm-debug_8cc.html" target="_top" xlink:title=" ">
<polygon fill="white" stroke="black" points="1010,-6 1010,-36 1140,-36 1140,-6 1010,-6"/>
<text text-anchor="start" x="1018" y="-24" font-family="Helvetica,sans-Serif" font-size="10.00">/mnt/V8SourceCode/src</text>
<text text-anchor="middle" x="1075" y="-13" font-family="Helvetica,sans-Serif" font-size="10.00">/wasm/wasm&#45;debug.cc</text>
</a>
</g>
</g>
<!-- Node1&#45;&gt;Node8 -->
<g id="edge7" class="edge">
<title>Node1&#45;&gt;Node8</title>
<path fill="none" stroke="midnightblue" d="M805.13,-80.16C859.7,-70.79 935.22,-56.99 1001,-42 1008.79,-40.23 1016.99,-38.18 1024.98,-36.1"/>
<polygon fill="midnightblue" stroke="midnightblue" points="804.45,-76.72 795.19,-81.85 805.63,-83.62 804.45,-76.72"/>
</g>
<!-- Node9 -->
<g id="node9" class="node">
<title>Node9</title>
<g id="a_node9"><a xlink:href="wasm-engine_8cc.html" target="_top" xlink:title=" ">
<polygon fill="white" stroke="black" points="1158.5,-6 1158.5,-36 1289.5,-36 1289.5,-6 1158.5,-6"/>
<text text-anchor="start" x="1166.5" y="-24" font-family="Helvetica,sans-Serif" font-size="10.00">/mnt/V8SourceCode/src</text>
<text text-anchor="middle" x="1224" y="-13" font-family="Helvetica,sans-Serif" font-size="10.00">/wasm/wasm&#45;engine.cc</text>
</a>
</g>
</g>
<!-- Node1&#45;&gt;Node9 -->
<g id="edge8" class="edge">
<title>Node1&#45;&gt;Node9</title>
<path fill="none" stroke="midnightblue" d="M805.03,-86.66C889.25,-79.37 1029.74,-64.97 1149,-42 1157.6,-40.34 1166.67,-38.24 1175.41,-36.02"/>
<polygon fill="midnightblue" stroke="midnightblue" points="804.7,-83.18 795.04,-87.52 805.3,-90.15 804.7,-83.18"/>
</g>
<!-- Node10 -->
<g id="node10" class="node">
<title>Node10</title>
<g id="a_node10"><a xlink:href="wasm-js_8cc.html" target="_top" xlink:title=" ">
<polygon fill="white" stroke="black" points="1308,-6 1308,-36 1438,-36 1438,-6 1308,-6"/>
<text text-anchor="start" x="1316" y="-24" font-family="Helvetica,sans-Serif" font-size="10.00">/mnt/V8SourceCode/src</text>
<text text-anchor="middle" x="1373" y="-13" font-family="Helvetica,sans-Serif" font-size="10.00">/wasm/wasm&#45;js.cc</text>
</a>
</g>
</g>
<!-- Node1&#45;&gt;Node10 -->
<g id="edge9" class="edge">
<title>Node1&#45;&gt;Node10</title>
<path fill="none" stroke="midnightblue" d="M805.63,-90.01C915.17,-85.44 1124.02,-73.16 1299,-42 1307.78,-40.44 1317.03,-38.32 1325.91,-36.05"/>
<polygon fill="midnightblue" stroke="midnightblue" points="805.19,-86.52 795.34,-90.42 805.48,-93.52 805.19,-86.52"/>
</g>
</g>
</svg>
